G04*
G04 #@! TF.GenerationSoftware,Altium Limited,Altium Designer,22.11.1 (43)*
G04*
G04 Layer_Color=65535*
%FSLAX44Y44*%
%MOMM*%
G71*
G04*
G04 #@! TF.SameCoordinates,AA91C0EE-F61A-4915-B7D9-AC306786F232*
G04*
G04*
G04 #@! TF.FilePolarity,Positive*
G04*
G01*
G75*
%ADD10C,0.0000*%
%ADD11C,0.5080*%
%ADD12C,0.2540*%
D10*
X747540Y472630D02*
G03*
X747540Y472630I-1270J0D01*
G01*
X722440Y498620D02*
G03*
X722440Y498620I-1270J0D01*
G01*
X794830Y501160D02*
G03*
X794830Y501160I-1270J0D01*
G01*
D11*
X748792Y545592D02*
G03*
X748792Y545592I-3810J0D01*
G01*
D12*
X747522Y498343D02*
Y483108D01*
X755139D01*
X757679Y485647D01*
Y495804D01*
X755139Y498343D01*
X747522D01*
X762757Y495804D02*
X765296Y498343D01*
X770375D01*
X772914Y495804D01*
Y493265D01*
X770375Y490726D01*
X767835D01*
X770375D01*
X772914Y488186D01*
Y485647D01*
X770375Y483108D01*
X765296D01*
X762757Y485647D01*
X741682Y508426D02*
X751838D01*
Y513504D01*
X750146Y515197D01*
X743374D01*
X741682Y513504D01*
Y508426D01*
X751838Y525354D02*
Y518583D01*
X745067Y525354D01*
X743374D01*
X741682Y523661D01*
Y520276D01*
X743374Y518583D01*
X786128Y522391D02*
X775972D01*
Y517313D01*
X777664Y515620D01*
X784436D01*
X786128Y517313D01*
Y522391D01*
X775972Y512234D02*
Y508849D01*
Y510542D01*
X786128D01*
X784436Y512234D01*
M02*
