G04*
G04 #@! TF.GenerationSoftware,Altium Limited,Altium Designer,22.11.1 (43)*
G04*
G04 Layer_Physical_Order=2*
G04 Layer_Color=16711680*
%FSLAX44Y44*%
%MOMM*%
G71*
G04*
G04 #@! TF.SameCoordinates,A50B7F4E-0ABD-407A-AE68-1F03F6E7AD64*
G04*
G04*
G04 #@! TF.FilePolarity,Positive*
G04*
G01*
G75*
%ADD16C,0.2540*%
%ADD69C,0.1250*%
%ADD71C,1.6000*%
G04:AMPARAMS|DCode=72|XSize=1.6mm|YSize=1.6mm|CornerRadius=0.4mm|HoleSize=0mm|Usage=FLASHONLY|Rotation=90.000|XOffset=0mm|YOffset=0mm|HoleType=Round|Shape=RoundedRectangle|*
%AMROUNDEDRECTD72*
21,1,1.6000,0.8000,0,0,90.0*
21,1,0.8000,1.6000,0,0,90.0*
1,1,0.8000,0.4000,0.4000*
1,1,0.8000,0.4000,-0.4000*
1,1,0.8000,-0.4000,-0.4000*
1,1,0.8000,-0.4000,0.4000*
%
%ADD72ROUNDEDRECTD72*%
%ADD73C,0.6500*%
%ADD74C,0.3500*%
%ADD75C,0.6350*%
%ADD76R,0.5080X0.5080*%
G36*
X334010Y1270D02*
X1270D01*
Y294640D01*
X334010D01*
Y1270D01*
D02*
G37*
%LPC*%
G36*
X276860Y282247D02*
Y279400D01*
X279707D01*
X279227Y280560D01*
X278020Y281767D01*
X276860Y282247D01*
D02*
G37*
G36*
X274320D02*
X273160Y281767D01*
X271953Y280560D01*
X271473Y279400D01*
X274320D01*
Y282247D01*
D02*
G37*
G36*
X87630Y278437D02*
Y275590D01*
X90477D01*
X89997Y276750D01*
X88790Y277957D01*
X87630Y278437D01*
D02*
G37*
G36*
X85090D02*
X83930Y277957D01*
X82723Y276750D01*
X82243Y275590D01*
X85090D01*
Y278437D01*
D02*
G37*
G36*
X279707Y276860D02*
X276860D01*
Y274013D01*
X278020Y274493D01*
X279227Y275700D01*
X279707Y276860D01*
D02*
G37*
G36*
X274320D02*
X271473D01*
X271953Y275700D01*
X273160Y274493D01*
X274320Y274013D01*
Y276860D01*
D02*
G37*
G36*
X90477Y273050D02*
X87630D01*
Y270203D01*
X88790Y270683D01*
X89997Y271890D01*
X90477Y273050D01*
D02*
G37*
G36*
X85090D02*
X82243D01*
X82723Y271890D01*
X83930Y270683D01*
X85090Y270203D01*
Y273050D01*
D02*
G37*
G36*
X43180Y240337D02*
Y237490D01*
X46027D01*
X45547Y238650D01*
X44340Y239857D01*
X43180Y240337D01*
D02*
G37*
G36*
X40640D02*
X39480Y239857D01*
X38273Y238650D01*
X37793Y237490D01*
X40640D01*
Y240337D01*
D02*
G37*
G36*
X236866Y250900D02*
X235574D01*
X234379Y250405D01*
X233465Y249491D01*
X232970Y248297D01*
Y247003D01*
X233465Y245809D01*
X234379Y244895D01*
X234435Y244872D01*
X239343Y239963D01*
Y233709D01*
X238073Y233324D01*
X237697Y233887D01*
X232617Y238967D01*
X231357Y239809D01*
X229870Y240105D01*
X217170D01*
X215683Y239809D01*
X214423Y238967D01*
X213581Y237707D01*
X213285Y236220D01*
X213581Y234733D01*
X214423Y233473D01*
X215683Y232631D01*
X217170Y232335D01*
X228261D01*
X232203Y228393D01*
X233463Y227551D01*
X234950Y227255D01*
X236437Y227551D01*
X237697Y228393D01*
X238073Y228956D01*
X239343Y228571D01*
Y212157D01*
X231894Y204708D01*
X231839Y204685D01*
X230925Y203771D01*
X230430Y202577D01*
Y201284D01*
X229555Y200077D01*
X135890D01*
X135890Y200077D01*
X134655Y199831D01*
X133608Y199132D01*
X133608Y199132D01*
X130013Y195537D01*
X129314Y194490D01*
X129068Y193255D01*
Y192052D01*
X126484Y189468D01*
X126429Y189445D01*
X125515Y188531D01*
X125020Y187337D01*
Y186043D01*
X125515Y184849D01*
X126429Y183935D01*
X127624Y183440D01*
X128917D01*
X130111Y183935D01*
X131025Y184849D01*
X131048Y184904D01*
X134577Y188433D01*
X134577Y188433D01*
X135277Y189480D01*
X135522Y190715D01*
Y191919D01*
X137227Y193623D01*
X241300D01*
X242535Y193869D01*
X243582Y194568D01*
X249932Y200918D01*
X250631Y201965D01*
X250877Y203200D01*
Y220913D01*
X271025Y241062D01*
X271081Y241085D01*
X271995Y241999D01*
X272490Y243193D01*
Y244487D01*
X271995Y245681D01*
X271081Y246595D01*
X269886Y247090D01*
X268594D01*
X267399Y246595D01*
X266485Y245681D01*
X266462Y245625D01*
X246970Y226134D01*
X245797Y226620D01*
Y241300D01*
X245551Y242535D01*
X244852Y243582D01*
X238998Y249436D01*
X238975Y249491D01*
X238061Y250405D01*
X236866Y250900D01*
D02*
G37*
G36*
X46027Y234950D02*
X43180D01*
Y232103D01*
X44340Y232583D01*
X45547Y233790D01*
X46027Y234950D01*
D02*
G37*
G36*
X40640D02*
X37793D01*
X38273Y233790D01*
X39480Y232583D01*
X40640Y232103D01*
Y234950D01*
D02*
G37*
G36*
X304800Y235611D02*
Y231140D01*
X309271D01*
X308438Y233150D01*
X306810Y234778D01*
X304800Y235611D01*
D02*
G37*
G36*
X302260D02*
X300250Y234778D01*
X298622Y233150D01*
X297789Y231140D01*
X302260D01*
Y235611D01*
D02*
G37*
G36*
X309271Y228600D02*
X304800D01*
Y224129D01*
X306810Y224961D01*
X308438Y226590D01*
X309271Y228600D01*
D02*
G37*
G36*
X302260D02*
X297789D01*
X298622Y226590D01*
X300250Y224961D01*
X302260Y224129D01*
Y228600D01*
D02*
G37*
G36*
X85090Y222557D02*
Y219710D01*
X87937D01*
X87457Y220870D01*
X86250Y222077D01*
X85090Y222557D01*
D02*
G37*
G36*
X82550D02*
X81390Y222077D01*
X80183Y220870D01*
X79703Y219710D01*
X82550D01*
Y222557D01*
D02*
G37*
G36*
X87937Y217170D02*
X85090D01*
Y214323D01*
X86250Y214803D01*
X87457Y216010D01*
X87937Y217170D01*
D02*
G37*
G36*
X82550D02*
X79703D01*
X80183Y216010D01*
X81390Y214803D01*
X82550Y214323D01*
Y217170D01*
D02*
G37*
G36*
X110490Y204777D02*
Y201930D01*
X113337D01*
X112857Y203090D01*
X111650Y204297D01*
X110490Y204777D01*
D02*
G37*
G36*
X107950D02*
X106790Y204297D01*
X105583Y203090D01*
X105103Y201930D01*
X107950D01*
Y204777D01*
D02*
G37*
G36*
X113337Y199390D02*
X110490D01*
Y196543D01*
X111650Y197023D01*
X112857Y198230D01*
X113337Y199390D01*
D02*
G37*
G36*
X107950D02*
X105103D01*
X105583Y198230D01*
X106790Y197023D01*
X107950Y196543D01*
Y199390D01*
D02*
G37*
G36*
X20438Y215639D02*
X17662D01*
X14982Y214920D01*
X12578Y213533D01*
X10616Y211570D01*
X9228Y209167D01*
X8510Y206486D01*
Y203711D01*
X9228Y201030D01*
X10616Y198627D01*
X12578Y196664D01*
X14982Y195277D01*
X17662Y194559D01*
X20438D01*
X23118Y195277D01*
X25522Y196664D01*
X27484Y198627D01*
X28872Y201030D01*
X29590Y203711D01*
Y206486D01*
X28872Y209167D01*
X27484Y211570D01*
X25522Y213533D01*
X23118Y214920D01*
X20438Y215639D01*
D02*
G37*
G36*
X82550Y189537D02*
X81390Y189057D01*
X80183Y187850D01*
X79703Y186690D01*
X82550D01*
Y189537D01*
D02*
G37*
G36*
X20438Y190238D02*
X20320D01*
Y180968D01*
X29590D01*
Y181086D01*
X28872Y183767D01*
X27484Y186170D01*
X25522Y188133D01*
X23118Y189520D01*
X20438Y190238D01*
D02*
G37*
G36*
X17780D02*
X17662D01*
X14982Y189520D01*
X12578Y188133D01*
X10616Y186170D01*
X9228Y183767D01*
X8510Y181086D01*
Y180968D01*
X17780D01*
Y190238D01*
D02*
G37*
G36*
X242570Y184225D02*
X212090D01*
X210603Y183929D01*
X209343Y183087D01*
X207206Y180949D01*
X206310Y180663D01*
X205483Y180857D01*
X204687Y181389D01*
X203200Y181685D01*
X201713Y181389D01*
X200453Y180547D01*
X199611Y179287D01*
X199315Y177800D01*
Y156211D01*
X198045Y155801D01*
X197421Y156425D01*
X196227Y156920D01*
X194933D01*
X193739Y156425D01*
X192825Y155511D01*
X192330Y154317D01*
X192072Y154125D01*
X191060Y153770D01*
X190295Y154281D01*
X189625Y154414D01*
X188088Y155952D01*
X187041Y156651D01*
X186414Y156776D01*
X186066Y156920D01*
X184774D01*
X183579Y156425D01*
X182665Y155511D01*
X182170Y154317D01*
Y153024D01*
X182665Y151829D01*
X183579Y150915D01*
X184293Y150619D01*
X185894Y149018D01*
X186941Y148318D01*
X187611Y148185D01*
X192802Y142995D01*
X192825Y142939D01*
X193739Y142025D01*
X194933Y141530D01*
X196227D01*
X197421Y142025D01*
X198045Y142649D01*
X199315Y142239D01*
Y129540D01*
X199611Y128053D01*
X200453Y126793D01*
X201713Y125951D01*
X202376Y125819D01*
X202825Y125730D01*
X202700Y124460D01*
X196850D01*
Y114300D01*
X207010D01*
Y114370D01*
X208280Y114896D01*
X209083Y114093D01*
X209866Y113570D01*
X212015Y111421D01*
Y53340D01*
X212311Y51853D01*
X213153Y50593D01*
X214413Y49751D01*
X215900Y49455D01*
X217387Y49751D01*
X218647Y50593D01*
X219489Y51853D01*
X219785Y53340D01*
Y106792D01*
X220490Y107263D01*
Y111760D01*
Y115877D01*
X219330Y115397D01*
X218871Y115442D01*
X218647Y115777D01*
X214837Y119587D01*
X214054Y120110D01*
X212037Y122127D01*
X210777Y122969D01*
X209290Y123265D01*
X207010D01*
Y124460D01*
X203700D01*
X203575Y125730D01*
X204024Y125819D01*
X204687Y125951D01*
X205947Y126793D01*
X206789Y128053D01*
X207085Y129540D01*
Y173454D01*
X208355Y174153D01*
X209550Y173915D01*
X211037Y174211D01*
X212297Y175053D01*
X213699Y176455D01*
X238685D01*
Y118110D01*
X238981Y116623D01*
X239823Y115363D01*
X241083Y114521D01*
X242570Y114225D01*
X244057Y114521D01*
X245317Y115363D01*
X246159Y116623D01*
X246455Y118110D01*
Y180340D01*
X246159Y181827D01*
X245317Y183087D01*
X244057Y183929D01*
X242570Y184225D01*
D02*
G37*
G36*
X270392Y184550D02*
X268088D01*
X265960Y183668D01*
X264331Y182040D01*
X263450Y179912D01*
Y177608D01*
X264331Y175480D01*
X265960Y173852D01*
X268088Y172970D01*
X270392D01*
X272520Y173852D01*
X274149Y175480D01*
X275030Y177608D01*
Y179912D01*
X274149Y182040D01*
X272520Y183668D01*
X270392Y184550D01*
D02*
G37*
G36*
X29590Y178428D02*
X20320D01*
Y169158D01*
X20438D01*
X23118Y169877D01*
X25522Y171264D01*
X27484Y173227D01*
X28872Y175630D01*
X29590Y178311D01*
Y178428D01*
D02*
G37*
G36*
X17780D02*
X8510D01*
Y178311D01*
X9228Y175630D01*
X10616Y173227D01*
X12578Y171264D01*
X14982Y169877D01*
X17662Y169158D01*
X17780D01*
Y178428D01*
D02*
G37*
G36*
X10806Y238200D02*
X9513D01*
X8319Y237705D01*
X7405Y236791D01*
X6910Y235597D01*
Y234303D01*
X7405Y233109D01*
X8319Y232195D01*
X8375Y232172D01*
X18038Y222508D01*
X18038Y222508D01*
X19085Y221809D01*
X20320Y221563D01*
X38033D01*
X39953Y219643D01*
Y165893D01*
X38683Y165166D01*
X38100Y165407D01*
Y161290D01*
Y157173D01*
X38683Y157414D01*
X39953Y156687D01*
Y156210D01*
X40199Y154975D01*
X40898Y153928D01*
X53923Y140903D01*
Y133286D01*
X52653Y133033D01*
X52285Y133921D01*
X51371Y134835D01*
X51315Y134858D01*
X31816Y154358D01*
X30769Y155057D01*
X29590Y155292D01*
Y155686D01*
X28872Y158367D01*
X27484Y160770D01*
X25522Y162733D01*
X23118Y164120D01*
X20438Y164839D01*
X17662D01*
X14982Y164120D01*
X12578Y162733D01*
X10616Y160770D01*
X9228Y158367D01*
X8510Y155686D01*
Y152911D01*
X9228Y150230D01*
X10616Y147827D01*
X12578Y145864D01*
X14982Y144477D01*
X17662Y143758D01*
X20438D01*
X23118Y144477D01*
X25522Y145864D01*
X27484Y147827D01*
X29049Y147997D01*
X46389Y130658D01*
X45876Y129388D01*
X29590D01*
Y130286D01*
X28872Y132967D01*
X27484Y135370D01*
X25522Y137333D01*
X23118Y138720D01*
X20438Y139438D01*
X17662D01*
X14982Y138720D01*
X12578Y137333D01*
X10616Y135370D01*
X9228Y132967D01*
X8510Y130286D01*
Y127511D01*
X9228Y124830D01*
X10616Y122427D01*
X12578Y120464D01*
X14982Y119077D01*
X17662Y118358D01*
X20438D01*
X23118Y119077D01*
X25522Y120464D01*
X27484Y122427D01*
X27777Y122934D01*
X47789D01*
X48884Y122480D01*
X50177D01*
X51371Y122975D01*
X52285Y123889D01*
X52653Y124777D01*
X53923Y124524D01*
Y114367D01*
X46282Y106726D01*
X29646D01*
Y107499D01*
X29422Y109206D01*
X28763Y110797D01*
X27714Y112163D01*
X26348Y113211D01*
X24757Y113870D01*
X23050Y114095D01*
X15050D01*
X13343Y113870D01*
X11752Y113211D01*
X10386Y112163D01*
X9337Y110797D01*
X8678Y109206D01*
X8454Y107499D01*
Y99499D01*
X8678Y97791D01*
X9337Y96200D01*
X10386Y94834D01*
X11752Y93786D01*
X13343Y93127D01*
X15050Y92902D01*
X23050D01*
X24757Y93127D01*
X26348Y93786D01*
X27714Y94834D01*
X28763Y96200D01*
X29422Y97791D01*
X29646Y99499D01*
Y100272D01*
X47618D01*
X48853Y100517D01*
X49900Y101217D01*
X59432Y110748D01*
X60131Y111795D01*
X60377Y113030D01*
Y122461D01*
X61647Y122987D01*
X61659Y122975D01*
X62853Y122480D01*
X64146D01*
X64202Y122503D01*
X78711D01*
X79096Y121233D01*
X78533Y120857D01*
X77691Y119597D01*
X77395Y118110D01*
X77691Y116623D01*
X78533Y115363D01*
X101393Y92503D01*
X102653Y91661D01*
X104140Y91365D01*
X142240D01*
X143727Y91661D01*
X144987Y92503D01*
X145829Y93763D01*
X146125Y95250D01*
X145829Y96737D01*
X144987Y97997D01*
X143727Y98839D01*
X142240Y99135D01*
X105749D01*
X84027Y120857D01*
X83464Y121233D01*
X83849Y122503D01*
X94320D01*
X94846Y121233D01*
X94153Y120540D01*
X93673Y119380D01*
X101907D01*
X101427Y120540D01*
X100734Y121233D01*
X101260Y122503D01*
X107950D01*
X109185Y122749D01*
X110232Y123448D01*
X113097Y126313D01*
X127000D01*
X128235Y126559D01*
X129282Y127258D01*
X144847Y142823D01*
X162560D01*
X163795Y143069D01*
X164842Y143768D01*
X177045Y155972D01*
X177101Y155995D01*
X178015Y156909D01*
X178510Y158104D01*
Y159396D01*
X178015Y160591D01*
X177101Y161505D01*
X175907Y162000D01*
X174613D01*
X173419Y161505D01*
X172505Y160591D01*
X172482Y160536D01*
X161223Y149277D01*
X143510D01*
X142275Y149031D01*
X141228Y148332D01*
X125663Y132767D01*
X124338D01*
X123948Y133350D01*
X119380D01*
Y135890D01*
X123497D01*
X123017Y137050D01*
X121810Y138257D01*
X120874Y138645D01*
X120517Y140083D01*
X127887Y147453D01*
X129326Y147096D01*
X129713Y146160D01*
X130920Y144953D01*
X132080Y144473D01*
Y148590D01*
X133350D01*
Y149860D01*
X137467D01*
X136987Y151020D01*
X135780Y152227D01*
X134844Y152614D01*
X134487Y154053D01*
X141857Y161423D01*
X143295Y161066D01*
X143683Y160130D01*
X144890Y158923D01*
X146050Y158443D01*
Y162560D01*
X147320D01*
Y163830D01*
X151437D01*
X150957Y164990D01*
X149750Y166197D01*
X149745Y166199D01*
X149340Y167742D01*
X149716Y168223D01*
X170748D01*
X170804Y168200D01*
X172097D01*
X173291Y168695D01*
X174205Y169609D01*
X174700Y170804D01*
Y172097D01*
X174205Y173291D01*
X173291Y174205D01*
X172097Y174700D01*
X170804D01*
X170748Y174677D01*
X147320D01*
X147320Y174677D01*
X146085Y174431D01*
X145038Y173732D01*
X109767Y138461D01*
X109345Y138545D01*
X108927Y139923D01*
X116582Y147578D01*
X117281Y148625D01*
X117527Y149860D01*
Y157602D01*
X118110Y157992D01*
Y162560D01*
Y167128D01*
X117527Y167518D01*
Y191703D01*
X123706Y197882D01*
X123761Y197905D01*
X124675Y198819D01*
X125170Y200014D01*
Y201306D01*
X124675Y202501D01*
X123761Y203415D01*
X122566Y203910D01*
X121273D01*
X120079Y203415D01*
X119165Y202501D01*
X119142Y202446D01*
X112018Y195322D01*
X111319Y194275D01*
X111073Y193040D01*
Y151197D01*
X104073Y144197D01*
X90872D01*
X90816Y144220D01*
X89861D01*
X89038Y144977D01*
X88827Y145306D01*
X88975Y146050D01*
Y173651D01*
X101807Y186483D01*
X102649Y187743D01*
X102945Y189230D01*
X102649Y190717D01*
X101807Y191977D01*
X100547Y192819D01*
X99060Y193115D01*
X97573Y192819D01*
X96313Y191977D01*
X89380Y185044D01*
X88110Y185570D01*
Y186273D01*
X87457Y187850D01*
X86250Y189057D01*
X85090Y189537D01*
Y185420D01*
X83820D01*
Y184150D01*
X79703D01*
X80183Y182990D01*
X81390Y181783D01*
X82967Y181130D01*
X83670D01*
X84196Y179860D01*
X82343Y178007D01*
X81501Y176747D01*
X81205Y175260D01*
Y146050D01*
X81501Y144563D01*
X82343Y143303D01*
X83603Y142461D01*
X85090Y142165D01*
X85834Y142313D01*
X86163Y142102D01*
X86920Y141279D01*
Y140323D01*
X87415Y139129D01*
X87427Y139117D01*
X86901Y137847D01*
X76136D01*
X75883Y139117D01*
X76771Y139485D01*
X77685Y140399D01*
X78180Y141594D01*
Y142886D01*
X77685Y144081D01*
X76771Y144995D01*
X75577Y145490D01*
X74283D01*
X74228Y145467D01*
X58487D01*
X46407Y157547D01*
Y220980D01*
X46161Y222215D01*
X45462Y223262D01*
X41652Y227072D01*
X40605Y227771D01*
X39370Y228017D01*
X21657D01*
X12938Y236735D01*
X12915Y236791D01*
X12001Y237705D01*
X10806Y238200D01*
D02*
G37*
G36*
X120650Y166677D02*
Y163830D01*
X123497D01*
X123017Y164990D01*
X121810Y166197D01*
X120650Y166677D01*
D02*
G37*
G36*
X35560Y165407D02*
X34400Y164927D01*
X33193Y163720D01*
X32713Y162560D01*
X35560D01*
Y165407D01*
D02*
G37*
G36*
X151437Y161290D02*
X148590D01*
Y158443D01*
X149750Y158923D01*
X150957Y160130D01*
X151437Y161290D01*
D02*
G37*
G36*
X123497D02*
X120650D01*
Y158443D01*
X121810Y158923D01*
X123017Y160130D01*
X123497Y161290D01*
D02*
G37*
G36*
X35560Y160020D02*
X32713D01*
X33193Y158860D01*
X34400Y157653D01*
X35560Y157173D01*
Y160020D01*
D02*
G37*
G36*
X137467Y147320D02*
X134620D01*
Y144473D01*
X135780Y144953D01*
X136987Y146160D01*
X137467Y147320D01*
D02*
G37*
G36*
X275250Y165965D02*
X273390D01*
X271672Y165253D01*
X270357Y163938D01*
X269645Y162220D01*
Y160360D01*
X270357Y158642D01*
X270435Y158563D01*
Y150047D01*
X270357Y149968D01*
X269645Y148250D01*
Y146390D01*
X270357Y144672D01*
X271672Y143357D01*
X273390Y142645D01*
X275250D01*
X276968Y143357D01*
X278283Y144672D01*
X278995Y146390D01*
Y148250D01*
X278283Y149968D01*
X278205Y150047D01*
Y158563D01*
X278283Y158642D01*
X278995Y160360D01*
Y162220D01*
X278283Y163938D01*
X276968Y165253D01*
X275250Y165965D01*
D02*
G37*
G36*
X184797Y146394D02*
X183503D01*
X182309Y145899D01*
X181395Y144985D01*
X180900Y143790D01*
Y142498D01*
X181395Y141303D01*
X182309Y140389D01*
X183503Y139894D01*
X184797D01*
X185991Y140389D01*
X186905Y141303D01*
X187400Y142498D01*
Y143790D01*
X186905Y144985D01*
X185991Y145899D01*
X184797Y146394D01*
D02*
G37*
G36*
X148590Y138737D02*
Y135890D01*
X151437D01*
X150957Y137050D01*
X149750Y138257D01*
X148590Y138737D01*
D02*
G37*
G36*
X146050D02*
X144890Y138257D01*
X143683Y137050D01*
X143203Y135890D01*
X146050D01*
Y138737D01*
D02*
G37*
G36*
X151437Y133350D02*
X148590D01*
Y130503D01*
X149750Y130983D01*
X150957Y132190D01*
X151437Y133350D01*
D02*
G37*
G36*
X146050D02*
X143203D01*
X143683Y132190D01*
X144890Y130983D01*
X146050Y130503D01*
Y133350D01*
D02*
G37*
G36*
X179716Y140410D02*
X178424D01*
X177229Y139915D01*
X176315Y139001D01*
X175820Y137807D01*
Y136514D01*
X176315Y135319D01*
X176406Y135228D01*
X176048Y134392D01*
X175778Y134060D01*
X174613D01*
X173419Y133565D01*
X172505Y132651D01*
X172010Y131456D01*
Y130163D01*
X172505Y128969D01*
X173419Y128055D01*
X174613Y127560D01*
X175907D01*
X177101Y128055D01*
X178015Y128969D01*
X178510Y130163D01*
Y131456D01*
X178015Y132651D01*
X177924Y132742D01*
X178282Y133578D01*
X178552Y133910D01*
X179716D01*
X180911Y134405D01*
X181825Y135319D01*
X182320Y136514D01*
Y137807D01*
X181825Y139001D01*
X180911Y139915D01*
X179716Y140410D01*
D02*
G37*
G36*
X194310Y124460D02*
X190500D01*
Y120650D01*
X194310D01*
Y124460D01*
D02*
G37*
G36*
X187960D02*
X184150D01*
Y120650D01*
X187960D01*
Y124460D01*
D02*
G37*
G36*
X270392Y126750D02*
X268088D01*
X265960Y125869D01*
X264331Y124240D01*
X263450Y122112D01*
Y119808D01*
X264331Y117680D01*
X265960Y116052D01*
X268088Y115170D01*
X270392D01*
X272520Y116052D01*
X274149Y117680D01*
X275030Y119808D01*
Y122112D01*
X274149Y124240D01*
X272520Y125869D01*
X270392Y126750D01*
D02*
G37*
G36*
X194310Y118110D02*
X190500D01*
Y114300D01*
X194310D01*
Y118110D01*
D02*
G37*
G36*
X187960D02*
X184150D01*
Y114300D01*
X187960D01*
Y118110D01*
D02*
G37*
G36*
X101907Y116840D02*
X99060D01*
Y113993D01*
X100220Y114473D01*
X101427Y115680D01*
X101907Y116840D01*
D02*
G37*
G36*
X96520D02*
X93673D01*
X94153Y115680D01*
X95360Y114473D01*
X96520Y113993D01*
Y116840D01*
D02*
G37*
G36*
X223030Y115877D02*
Y113030D01*
X225877D01*
X225397Y114190D01*
X224190Y115397D01*
X223030Y115877D01*
D02*
G37*
G36*
X225877Y110490D02*
X223030D01*
Y107643D01*
X224190Y108123D01*
X225397Y109330D01*
X225877Y110490D01*
D02*
G37*
G36*
X154940Y101907D02*
Y99060D01*
X157787D01*
X157307Y100220D01*
X156100Y101427D01*
X154940Y101907D01*
D02*
G37*
G36*
X152400D02*
X151240Y101427D01*
X150033Y100220D01*
X149553Y99060D01*
X152400D01*
Y101907D01*
D02*
G37*
G36*
X157787Y96520D02*
X154940D01*
Y93673D01*
X156100Y94153D01*
X157307Y95360D01*
X157787Y96520D01*
D02*
G37*
G36*
X152400D02*
X149553D01*
X150033Y95360D01*
X151240Y94153D01*
X152400Y93673D01*
Y96520D01*
D02*
G37*
G36*
X163830Y81587D02*
Y78740D01*
X166677D01*
X166197Y79900D01*
X164990Y81107D01*
X163830Y81587D01*
D02*
G37*
G36*
X161290D02*
X160130Y81107D01*
X158923Y79900D01*
X158443Y78740D01*
X161290D01*
Y81587D01*
D02*
G37*
G36*
X304800Y81941D02*
Y77470D01*
X309271D01*
X308438Y79480D01*
X306810Y81109D01*
X304800Y81941D01*
D02*
G37*
G36*
X302260D02*
X300250Y81109D01*
X298622Y79480D01*
X297789Y77470D01*
X302260D01*
Y81941D01*
D02*
G37*
G36*
X139700Y79047D02*
Y76200D01*
X142547D01*
X142067Y77360D01*
X140860Y78567D01*
X139700Y79047D01*
D02*
G37*
G36*
X137160D02*
X136000Y78567D01*
X134793Y77360D01*
X134313Y76200D01*
X137160D01*
Y79047D01*
D02*
G37*
G36*
X166677Y76200D02*
X163830D01*
Y73353D01*
X164990Y73833D01*
X166197Y75040D01*
X166677Y76200D01*
D02*
G37*
G36*
X161290D02*
X158443D01*
X158923Y75040D01*
X160130Y73833D01*
X161290Y73353D01*
Y76200D01*
D02*
G37*
G36*
X142547Y73660D02*
X139700D01*
Y70813D01*
X140860Y71293D01*
X142067Y72500D01*
X142547Y73660D01*
D02*
G37*
G36*
X137160D02*
X134313D01*
X134793Y72500D01*
X136000Y71293D01*
X137160Y70813D01*
Y73660D01*
D02*
G37*
G36*
X309271Y74930D02*
X304800D01*
Y70459D01*
X306810Y71291D01*
X308438Y72920D01*
X309271Y74930D01*
D02*
G37*
G36*
X302260D02*
X297789D01*
X298622Y72920D01*
X300250Y71291D01*
X302260Y70459D01*
Y74930D01*
D02*
G37*
G36*
X184150Y65077D02*
Y62230D01*
X186997D01*
X186517Y63390D01*
X185310Y64597D01*
X184150Y65077D01*
D02*
G37*
G36*
X181610D02*
X180450Y64597D01*
X179243Y63390D01*
X178763Y62230D01*
X181610D01*
Y65077D01*
D02*
G37*
G36*
X311150Y62537D02*
Y59690D01*
X313997D01*
X313517Y60850D01*
X312310Y62057D01*
X311150Y62537D01*
D02*
G37*
G36*
X308610D02*
X307450Y62057D01*
X306243Y60850D01*
X305763Y59690D01*
X308610D01*
Y62537D01*
D02*
G37*
G36*
X186997Y59690D02*
X184150D01*
Y56843D01*
X185310Y57323D01*
X186517Y58530D01*
X186997Y59690D01*
D02*
G37*
G36*
X181610D02*
X178763D01*
X179243Y58530D01*
X180450Y57323D01*
X181610Y56843D01*
Y59690D01*
D02*
G37*
G36*
X313997Y57150D02*
X311150D01*
Y54303D01*
X312310Y54783D01*
X313517Y55990D01*
X313997Y57150D01*
D02*
G37*
G36*
X308610D02*
X305763D01*
X306243Y55990D01*
X307450Y54783D01*
X308610Y54303D01*
Y57150D01*
D02*
G37*
G36*
X215900Y42217D02*
Y39370D01*
X218747D01*
X218267Y40530D01*
X217060Y41737D01*
X215900Y42217D01*
D02*
G37*
G36*
X213360D02*
X212200Y41737D01*
X210993Y40530D01*
X210513Y39370D01*
X213360D01*
Y42217D01*
D02*
G37*
G36*
X218747Y36830D02*
X215900D01*
Y33983D01*
X217060Y34463D01*
X218267Y35670D01*
X218747Y36830D01*
D02*
G37*
G36*
X213360D02*
X210513D01*
X210993Y35670D01*
X212200Y34463D01*
X213360Y33983D01*
Y36830D01*
D02*
G37*
G36*
X309880Y30665D02*
Y27818D01*
X312727D01*
X312247Y28978D01*
X311040Y30185D01*
X309880Y30665D01*
D02*
G37*
G36*
X307340D02*
X306180Y30185D01*
X304973Y28978D01*
X304493Y27818D01*
X307340D01*
Y30665D01*
D02*
G37*
G36*
X298450Y61035D02*
X296963Y60739D01*
X295703Y59897D01*
X279193Y43387D01*
X278351Y42127D01*
X278055Y40640D01*
Y28476D01*
X276785Y27777D01*
X275590Y28015D01*
X274103Y27719D01*
X272843Y26877D01*
X268901Y22935D01*
X230209D01*
X221187Y31957D01*
X219927Y32799D01*
X218440Y33095D01*
X216953Y32799D01*
X215693Y31957D01*
X214851Y30697D01*
X214555Y29210D01*
X214851Y27723D01*
X215693Y26463D01*
X225853Y16303D01*
X227113Y15461D01*
X228600Y15165D01*
X270510D01*
X271997Y15461D01*
X273257Y16303D01*
X276882Y19928D01*
X278055Y19442D01*
Y12700D01*
X278351Y11213D01*
X279193Y9953D01*
X280453Y9111D01*
X281940Y8815D01*
X283427Y9111D01*
X284687Y9953D01*
X285529Y11213D01*
X285825Y12700D01*
Y39031D01*
X301197Y54403D01*
X302039Y55663D01*
X302335Y57150D01*
X302039Y58637D01*
X301197Y59897D01*
X299937Y60739D01*
X298450Y61035D01*
D02*
G37*
G36*
X312727Y25278D02*
X309880D01*
Y22431D01*
X311040Y22911D01*
X312247Y24118D01*
X312727Y25278D01*
D02*
G37*
G36*
X307340D02*
X304493D01*
X304973Y24118D01*
X306180Y22911D01*
X307340Y22431D01*
Y25278D01*
D02*
G37*
G36*
X179070Y87705D02*
X177583Y87409D01*
X176323Y86567D01*
X169973Y80217D01*
X169131Y78957D01*
X168835Y77470D01*
Y53340D01*
X169131Y51853D01*
X169973Y50593D01*
X176455Y44111D01*
Y15240D01*
X176751Y13753D01*
X177593Y12493D01*
X178853Y11651D01*
X180340Y11355D01*
X181827Y11651D01*
X183087Y12493D01*
X183929Y13753D01*
X184225Y15240D01*
Y45720D01*
X183929Y47207D01*
X183087Y48467D01*
X176605Y54949D01*
Y75861D01*
X181817Y81073D01*
X182659Y82333D01*
X182955Y83820D01*
X182659Y85307D01*
X181817Y86567D01*
X180557Y87409D01*
X179070Y87705D01*
D02*
G37*
G36*
X200660Y66115D02*
X199173Y65819D01*
X197913Y64977D01*
X197071Y63717D01*
X196775Y62230D01*
Y21590D01*
X197071Y20103D01*
X197913Y18843D01*
X205533Y11223D01*
X206793Y10381D01*
X208280Y10085D01*
X209767Y10381D01*
X211027Y11223D01*
X211869Y12483D01*
X212165Y13970D01*
X211869Y15457D01*
X211027Y16717D01*
X204545Y23199D01*
Y62230D01*
X204249Y63717D01*
X203407Y64977D01*
X202147Y65819D01*
X200660Y66115D01*
D02*
G37*
%LPD*%
D16*
X201930Y119380D02*
X209290D01*
X211830Y116840D01*
X212090D01*
X203200Y129540D02*
Y177800D01*
X85090Y175260D02*
X99060Y189230D01*
X85090Y146050D02*
Y175260D01*
X104140Y95250D02*
X142240D01*
X81280Y118110D02*
X104140Y95250D01*
X172720Y77470D02*
X179070Y83820D01*
X172720Y53340D02*
Y77470D01*
Y53340D02*
X180340Y45720D01*
Y15240D02*
Y45720D01*
X200660Y21590D02*
Y62230D01*
Y21590D02*
X208280Y13970D01*
X212090Y116840D02*
X215900Y113030D01*
Y53340D02*
Y113030D01*
X218440Y29210D02*
X228600Y19050D01*
X270510D01*
X275590Y24130D01*
X308610Y57150D02*
X309880Y58420D01*
X308610Y26548D02*
Y57150D01*
X281940Y12700D02*
Y40640D01*
X298450Y57150D01*
X212090Y180340D02*
X242570D01*
X209550Y177800D02*
X212090Y180340D01*
X217170Y236220D02*
X229870D01*
X234950Y231140D01*
X242570Y118110D02*
Y180340D01*
X274320Y147320D02*
Y161290D01*
D69*
X147320Y171450D02*
X171450D01*
X189060Y151300D02*
X195580Y144780D01*
X185420Y153670D02*
X185806D01*
X188176Y151300D02*
X189060D01*
X185806Y153670D02*
X188176Y151300D01*
X110490Y134620D02*
X147320Y171450D01*
X66040Y134620D02*
X110490D01*
X57150Y142240D02*
X74930D01*
X90170Y140970D02*
X105410D01*
X114300Y149860D01*
Y193040D02*
X121920Y200660D01*
X114300Y149860D02*
Y193040D01*
X128270Y186690D02*
X132295Y190715D01*
Y193255D02*
X135890Y196850D01*
X132295Y190715D02*
Y193255D01*
X236220Y247650D02*
X242570Y241300D01*
Y210820D02*
Y241300D01*
X233680Y201930D02*
X242570Y210820D01*
X247650Y203200D02*
Y222250D01*
X241300Y196850D02*
X247650Y203200D01*
Y222250D02*
X269240Y243840D01*
X135890Y196850D02*
X241300D01*
X49099Y126160D02*
X49530Y125730D01*
X19050Y128898D02*
X21788Y126160D01*
X49099D01*
X107950Y125730D02*
X111760Y129540D01*
X63500Y125730D02*
X107950D01*
X57150Y113030D02*
Y142240D01*
X47618Y103498D02*
X57150Y113030D01*
X111760Y129540D02*
X127000D01*
X143510Y146050D01*
X162560D01*
X175260Y158750D01*
X19050Y154298D02*
X21272Y152076D01*
X29534D01*
X49530Y132080D01*
X63500D02*
X66040Y134620D01*
X19050Y103498D02*
X47618D01*
X20320Y224790D02*
X39370D01*
X10160Y234950D02*
X20320Y224790D01*
X39370D02*
X43180Y220980D01*
Y156210D02*
Y220980D01*
Y156210D02*
X57150Y142240D01*
D71*
X19050Y205098D02*
D03*
Y179699D02*
D03*
Y128898D02*
D03*
Y154298D02*
D03*
D72*
Y103498D02*
D03*
D73*
X269240Y178760D02*
D03*
Y120960D02*
D03*
X303530Y229870D02*
D03*
Y76200D02*
D03*
D74*
X171450Y171450D02*
D03*
X185420Y153670D02*
D03*
X175260Y130810D02*
D03*
X179070Y137160D02*
D03*
X221760Y111760D02*
D03*
X97790Y118110D02*
D03*
X184150Y143144D02*
D03*
X138430Y74930D02*
D03*
X203200Y129540D02*
D03*
Y177800D02*
D03*
X86360Y274320D02*
D03*
X275590Y278130D02*
D03*
X133350Y148590D02*
D03*
X147320Y162560D02*
D03*
X119380Y134620D02*
D03*
X147320D02*
D03*
X119380Y162560D02*
D03*
X99060Y189230D02*
D03*
X85090Y146050D02*
D03*
X81280Y118110D02*
D03*
X142240Y95250D02*
D03*
X74930Y142240D02*
D03*
X41910Y236220D02*
D03*
X109220Y200660D02*
D03*
X83820Y185420D02*
D03*
X36830Y161290D02*
D03*
X179070Y83820D02*
D03*
X180340Y15240D02*
D03*
X214630Y38100D02*
D03*
X182880Y60960D02*
D03*
X162560Y77470D02*
D03*
X153670Y97790D02*
D03*
X212090Y116840D02*
D03*
X215900Y53340D02*
D03*
X90170Y140970D02*
D03*
X121920Y200660D02*
D03*
X128270Y186690D02*
D03*
X218440Y29210D02*
D03*
X236220Y247650D02*
D03*
X233680Y201930D02*
D03*
X269240Y243840D02*
D03*
X49530Y125730D02*
D03*
X63500D02*
D03*
X175260Y158750D02*
D03*
X49530Y132080D02*
D03*
X63500D02*
D03*
X10160Y234950D02*
D03*
X275590Y24130D02*
D03*
X200660Y62230D02*
D03*
X208280Y13970D02*
D03*
X309880Y58420D02*
D03*
X308610Y26548D02*
D03*
X298450Y57150D02*
D03*
X281940Y12700D02*
D03*
X195580Y144780D02*
D03*
Y153670D02*
D03*
X209550Y177800D02*
D03*
X217170Y236220D02*
D03*
X234950Y231140D02*
D03*
X242570Y180340D02*
D03*
Y118110D02*
D03*
X83820Y218440D02*
D03*
D75*
X274320Y147320D02*
D03*
Y161290D02*
D03*
D76*
X201930Y119380D02*
D03*
X189230D02*
D03*
M02*
