G04*
G04 #@! TF.GenerationSoftware,Altium Limited,Altium Designer,22.11.1 (43)*
G04*
G04 Layer_Color=8388736*
%FSLAX44Y44*%
%MOMM*%
G71*
G04*
G04 #@! TF.SameCoordinates,A50B7F4E-0ABD-407A-AE68-1F03F6E7AD64*
G04*
G04*
G04 #@! TF.FilePolarity,Negative*
G04*
G01*
G75*
%ADD21R,0.6604X1.5494*%
%ADD22R,0.8128X0.4064*%
%ADD40R,0.6000X0.3000*%
%ADD41R,0.3000X0.6000*%
%ADD42R,0.9779X0.5588*%
G04:AMPARAMS|DCode=43|XSize=0.704mm|YSize=0.644mm|CornerRadius=0.1951mm|HoleSize=0mm|Usage=FLASHONLY|Rotation=180.000|XOffset=0mm|YOffset=0mm|HoleType=Round|Shape=RoundedRectangle|*
%AMROUNDEDRECTD43*
21,1,0.7040,0.2538,0,0,180.0*
21,1,0.3138,0.6440,0,0,180.0*
1,1,0.3902,-0.1569,0.1269*
1,1,0.3902,0.1569,0.1269*
1,1,0.3902,0.1569,-0.1269*
1,1,0.3902,-0.1569,-0.1269*
%
%ADD43ROUNDEDRECTD43*%
%ADD44R,1.2040X1.4040*%
G04:AMPARAMS|DCode=45|XSize=0.704mm|YSize=0.644mm|CornerRadius=0.1951mm|HoleSize=0mm|Usage=FLASHONLY|Rotation=90.000|XOffset=0mm|YOffset=0mm|HoleType=Round|Shape=RoundedRectangle|*
%AMROUNDEDRECTD45*
21,1,0.7040,0.2538,0,0,90.0*
21,1,0.3138,0.6440,0,0,90.0*
1,1,0.3902,0.1269,0.1569*
1,1,0.3902,0.1269,-0.1569*
1,1,0.3902,-0.1269,-0.1569*
1,1,0.3902,-0.1269,0.1569*
%
%ADD45ROUNDEDRECTD45*%
%ADD46R,1.6280X1.6280*%
%ADD47R,0.8500X0.5000*%
%ADD48R,2.1040X2.2840*%
%ADD49R,1.2540X0.4040*%
%ADD50R,1.2540X0.7040*%
%ADD51R,0.9040X0.9040*%
%ADD52R,0.9040X0.9040*%
%ADD53R,1.2040X1.5340*%
%ADD54R,1.6280X1.6280*%
G04:AMPARAMS|DCode=55|XSize=0.704mm|YSize=1.454mm|CornerRadius=0.097mm|HoleSize=0mm|Usage=FLASHONLY|Rotation=90.000|XOffset=0mm|YOffset=0mm|HoleType=Round|Shape=RoundedRectangle|*
%AMROUNDEDRECTD55*
21,1,0.7040,1.2600,0,0,90.0*
21,1,0.5100,1.4540,0,0,90.0*
1,1,0.1940,0.6300,0.2550*
1,1,0.1940,0.6300,-0.2550*
1,1,0.1940,-0.6300,-0.2550*
1,1,0.1940,-0.6300,0.2550*
%
%ADD55ROUNDEDRECTD55*%
%ADD56R,1.0740X1.0540*%
%ADD57R,1.0740X1.2540*%
%ADD58R,0.9540X1.2540*%
%ADD59R,0.9540X1.0540*%
%ADD60R,1.5040X1.1040*%
%ADD61R,3.4544X3.4544*%
%ADD62C,1.7040*%
G04:AMPARAMS|DCode=63|XSize=1.704mm|YSize=1.704mm|CornerRadius=0.452mm|HoleSize=0mm|Usage=FLASHONLY|Rotation=90.000|XOffset=0mm|YOffset=0mm|HoleType=Round|Shape=RoundedRectangle|*
%AMROUNDEDRECTD63*
21,1,1.7040,0.8000,0,0,90.0*
21,1,0.8000,1.7040,0,0,90.0*
1,1,0.9040,0.4000,0.4000*
1,1,0.9040,0.4000,-0.4000*
1,1,0.9040,-0.4000,-0.4000*
1,1,0.9040,-0.4000,0.4000*
%
%ADD63ROUNDEDRECTD63*%
%ADD64C,0.7540*%
%ADD65C,0.4540*%
%ADD66C,0.7390*%
D21*
X128030Y51465D02*
D03*
X118030D02*
D03*
X108030D02*
D03*
X98030D02*
D03*
X154075Y241905D02*
D03*
X144075D02*
D03*
X134075D02*
D03*
X124075D02*
D03*
D22*
X228854Y72390D02*
D03*
X205486D02*
D03*
X246126D02*
D03*
X269494D02*
D03*
D40*
X109850Y166090D02*
D03*
Y161090D02*
D03*
Y156090D02*
D03*
Y151090D02*
D03*
Y146090D02*
D03*
Y141090D02*
D03*
Y136090D02*
D03*
Y131090D02*
D03*
X156850D02*
D03*
Y136090D02*
D03*
Y141090D02*
D03*
Y146090D02*
D03*
Y151090D02*
D03*
Y156090D02*
D03*
Y161090D02*
D03*
Y166090D02*
D03*
D41*
X115850Y125090D02*
D03*
X120850D02*
D03*
X125850D02*
D03*
X130850D02*
D03*
X135850D02*
D03*
X140850D02*
D03*
X145850D02*
D03*
X150850D02*
D03*
Y172090D02*
D03*
X145850D02*
D03*
X140850D02*
D03*
X135850D02*
D03*
X130850D02*
D03*
X125850D02*
D03*
X120850D02*
D03*
X115850D02*
D03*
D42*
X238337Y139959D02*
D03*
Y149459D02*
D03*
Y158959D02*
D03*
X211032D02*
D03*
Y149459D02*
D03*
Y139959D02*
D03*
D43*
X97790Y142730D02*
D03*
Y134130D02*
D03*
X297180Y9180D02*
D03*
Y17780D02*
D03*
X234950Y210330D02*
D03*
Y218930D02*
D03*
X129540Y212870D02*
D03*
Y221470D02*
D03*
X125730Y79230D02*
D03*
Y70630D02*
D03*
X271780Y262110D02*
D03*
Y253510D02*
D03*
X311150Y9180D02*
D03*
Y17780D02*
D03*
X45720Y35070D02*
D03*
Y43670D02*
D03*
X59690D02*
D03*
Y35070D02*
D03*
X325120Y9180D02*
D03*
Y17780D02*
D03*
X171450Y68090D02*
D03*
Y76690D02*
D03*
X185420D02*
D03*
Y68090D02*
D03*
X97790Y79230D02*
D03*
Y70630D02*
D03*
X143510Y212870D02*
D03*
Y221470D02*
D03*
X157480Y212870D02*
D03*
Y221470D02*
D03*
X111760Y79230D02*
D03*
Y70630D02*
D03*
D44*
X53230Y183547D02*
D03*
Y160548D02*
D03*
X71230D02*
D03*
Y183547D02*
D03*
D45*
X249410Y11430D02*
D03*
X240810D02*
D03*
X154450Y109220D02*
D03*
X163050D02*
D03*
X114790Y190500D02*
D03*
X106190D02*
D03*
X190010Y13970D02*
D03*
X198610D02*
D03*
X32240Y250190D02*
D03*
X23640D02*
D03*
X208770Y236220D02*
D03*
X200170D02*
D03*
X241790Y100330D02*
D03*
X233190D02*
D03*
X32240Y236220D02*
D03*
X23640D02*
D03*
X265047Y53340D02*
D03*
X256448D02*
D03*
X230360Y121920D02*
D03*
X221760D02*
D03*
Y177800D02*
D03*
X230360D02*
D03*
X57930Y205740D02*
D03*
X66530D02*
D03*
X65260Y142240D02*
D03*
X56660D02*
D03*
D46*
X19050Y274320D02*
D03*
X69596D02*
D03*
D47*
X192180Y94477D02*
D03*
Y100977D02*
D03*
Y107478D02*
D03*
X211680D02*
D03*
Y100977D02*
D03*
Y94477D02*
D03*
X298040Y31600D02*
D03*
Y38100D02*
D03*
Y44600D02*
D03*
X278540D02*
D03*
Y38100D02*
D03*
Y31600D02*
D03*
D48*
X303540Y200960D02*
D03*
Y98760D02*
D03*
X264240Y200960D02*
D03*
Y98760D02*
D03*
D49*
X258490Y152360D02*
D03*
Y147360D02*
D03*
Y157360D02*
D03*
Y142360D02*
D03*
Y162360D02*
D03*
Y137360D02*
D03*
Y167360D02*
D03*
Y132360D02*
D03*
D50*
Y181860D02*
D03*
Y173860D02*
D03*
Y125860D02*
D03*
Y117860D02*
D03*
D51*
X227205Y53572D02*
D03*
X242205D02*
D03*
D52*
X320040Y59570D02*
D03*
Y44570D02*
D03*
D53*
X250180Y31750D02*
D03*
X232420D02*
D03*
D54*
X21590Y71120D02*
D03*
Y20574D02*
D03*
D55*
X169760Y31140D02*
D03*
Y50140D02*
D03*
X193460D02*
D03*
Y40640D02*
D03*
Y31140D02*
D03*
D56*
X205448Y215530D02*
D03*
D57*
Y202030D02*
D03*
D58*
X217448D02*
D03*
D59*
Y215530D02*
D03*
D60*
X230312Y269240D02*
D03*
X252311Y278740D02*
D03*
Y259740D02*
D03*
D61*
X133350Y148590D02*
D03*
D62*
X19050Y205098D02*
D03*
Y179699D02*
D03*
Y128898D02*
D03*
Y154298D02*
D03*
D63*
Y103498D02*
D03*
D64*
X269240Y178760D02*
D03*
Y120960D02*
D03*
X303530Y229870D02*
D03*
Y76200D02*
D03*
D65*
X171450Y171450D02*
D03*
X185420Y153670D02*
D03*
X175260Y130810D02*
D03*
X179070Y137160D02*
D03*
X221760Y111760D02*
D03*
X97790Y118110D02*
D03*
X184150Y143144D02*
D03*
X138430Y74930D02*
D03*
X203200Y129540D02*
D03*
Y177800D02*
D03*
X86360Y274320D02*
D03*
X275590Y278130D02*
D03*
X133350Y148590D02*
D03*
X147320Y162560D02*
D03*
X119380Y134620D02*
D03*
X147320D02*
D03*
X119380Y162560D02*
D03*
X99060Y189230D02*
D03*
X85090Y146050D02*
D03*
X81280Y118110D02*
D03*
X142240Y95250D02*
D03*
X74930Y142240D02*
D03*
X41910Y236220D02*
D03*
X109220Y200660D02*
D03*
X83820Y185420D02*
D03*
X36830Y161290D02*
D03*
X179070Y83820D02*
D03*
X180340Y15240D02*
D03*
X214630Y38100D02*
D03*
X182880Y60960D02*
D03*
X162560Y77470D02*
D03*
X153670Y97790D02*
D03*
X212090Y116840D02*
D03*
X215900Y53340D02*
D03*
X90170Y140970D02*
D03*
X121920Y200660D02*
D03*
X128270Y186690D02*
D03*
X218440Y29210D02*
D03*
X236220Y247650D02*
D03*
X233680Y201930D02*
D03*
X269240Y243840D02*
D03*
X49530Y125730D02*
D03*
X63500D02*
D03*
X175260Y158750D02*
D03*
X49530Y132080D02*
D03*
X63500D02*
D03*
X10160Y234950D02*
D03*
X275590Y24130D02*
D03*
X200660Y62230D02*
D03*
X208280Y13970D02*
D03*
X309880Y58420D02*
D03*
X308610Y26548D02*
D03*
X298450Y57150D02*
D03*
X281940Y12700D02*
D03*
X195580Y144780D02*
D03*
Y153670D02*
D03*
X209550Y177800D02*
D03*
X217170Y236220D02*
D03*
X234950Y231140D02*
D03*
X242570Y180340D02*
D03*
Y118110D02*
D03*
X83820Y218440D02*
D03*
D66*
X274320Y147320D02*
D03*
Y161290D02*
D03*
M02*
