M48
;Layer_Color=9474304
;FILE_FORMAT=4:4
METRIC,LZ
;TYPE=PLATED
T1F00S00C0.1500
T2F00S00C0.2500
T3F00S00C0.3048
T4F00S00C1.1000
;TYPE=NON_PLATED
T5F00S00C0.6500
%
T01
X0018034Y0001524
X0020828Y0001397
X0021844Y0002921
X0021463Y000381
X002159Y0005334
X0027559Y0002413
X0028194Y000127
X0030861Y00026548
X0030988Y0005842
X0029845Y0005715
X0020066Y0006223
X0018288Y0006096
X0017907Y0008382
X0016256Y0007747
X0013843Y0007493
X0014224Y0009525
X0015367Y0009779
X0014732Y0013462
X0013335Y0014859
X0014732Y0016256
X0011938
Y0013462
X0009017Y0014097
X0008509Y0014605
X0007493Y0014224
X000635Y0013208
Y0012573
X0004953
Y0013208
X0003683Y0016129
X0008382Y0018542
X0009906Y0018923
X0010922Y0020066
X0012192
X0012827Y0018669
X0017145Y0017145
X0017526Y0015875
X0018542Y0015367
X0019558
Y0014478
X0018415Y00143144
X0017907Y0013716
X0017526Y0013081
X002032Y0012954
X0021209Y0011684
X0022176Y0011176
X0024257Y0011811
Y0018034
X0023368Y0020193
X0023495Y0023114
X0023622Y0024765
X0021717Y0023622
X0026924Y0024384
X0027559Y0027813
X0020955Y001778
X002032
X0008382Y0021844
X0008636Y0027432
X0004191Y0023622
X0001016Y0023495
X0008128Y0011811
X0009779
T02
X0030353Y000762
Y0022987
T03
X0027432Y0014732
Y0016129
T04
X0001905Y00103498
Y00128898
Y00154298
Y00179699
Y00205098
T05
X0026924Y0012096
Y0017876
M30
