G04*
G04 #@! TF.GenerationSoftware,Altium Limited,Altium Designer,22.11.1 (43)*
G04*
G04 Layer_Physical_Order=1*
G04 Layer_Color=255*
%FSLAX44Y44*%
%MOMM*%
G71*
G04*
G04 #@! TF.SameCoordinates,A50B7F4E-0ABD-407A-AE68-1F03F6E7AD64*
G04*
G04*
G04 #@! TF.FilePolarity,Positive*
G04*
G01*
G75*
%ADD10C,0.5080*%
%ADD16C,0.2540*%
G04:AMPARAMS|DCode=20|XSize=0.6mm|YSize=0.54mm|CornerRadius=0.1431mm|HoleSize=0mm|Usage=FLASHONLY|Rotation=180.000|XOffset=0mm|YOffset=0mm|HoleType=Round|Shape=RoundedRectangle|*
%AMROUNDEDRECTD20*
21,1,0.6000,0.2538,0,0,180.0*
21,1,0.3138,0.5400,0,0,180.0*
1,1,0.2862,-0.1569,0.1269*
1,1,0.2862,0.1569,0.1269*
1,1,0.2862,0.1569,-0.1269*
1,1,0.2862,-0.1569,-0.1269*
%
%ADD20ROUNDEDRECTD20*%
%ADD21R,0.6604X1.5494*%
%ADD22R,0.8128X0.4064*%
%ADD23R,1.1000X1.3000*%
G04:AMPARAMS|DCode=24|XSize=0.6mm|YSize=0.54mm|CornerRadius=0.1431mm|HoleSize=0mm|Usage=FLASHONLY|Rotation=90.000|XOffset=0mm|YOffset=0mm|HoleType=Round|Shape=RoundedRectangle|*
%AMROUNDEDRECTD24*
21,1,0.6000,0.2538,0,0,90.0*
21,1,0.3138,0.5400,0,0,90.0*
1,1,0.2862,0.1269,0.1569*
1,1,0.2862,0.1269,-0.1569*
1,1,0.2862,-0.1269,-0.1569*
1,1,0.2862,-0.1269,0.1569*
%
%ADD24ROUNDEDRECTD24*%
%ADD25R,1.5240X1.5240*%
%ADD27R,2.0000X2.1800*%
%ADD28R,1.1500X0.3000*%
%ADD29R,1.1500X0.6000*%
%ADD30R,0.8000X0.8000*%
%ADD31R,0.8000X0.8000*%
%ADD32R,1.1000X1.4300*%
%ADD33R,1.5240X1.5240*%
G04:AMPARAMS|DCode=34|XSize=0.6mm|YSize=1.35mm|CornerRadius=0.045mm|HoleSize=0mm|Usage=FLASHONLY|Rotation=90.000|XOffset=0mm|YOffset=0mm|HoleType=Round|Shape=RoundedRectangle|*
%AMROUNDEDRECTD34*
21,1,0.6000,1.2600,0,0,90.0*
21,1,0.5100,1.3500,0,0,90.0*
1,1,0.0900,0.6300,0.2550*
1,1,0.0900,0.6300,-0.2550*
1,1,0.0900,-0.6300,-0.2550*
1,1,0.0900,-0.6300,0.2550*
%
%ADD34ROUNDEDRECTD34*%
%ADD35R,0.9700X0.9500*%
%ADD36R,0.9700X1.1500*%
%ADD37R,0.8500X1.1500*%
%ADD38R,0.8500X0.9500*%
%ADD39R,1.4000X1.0000*%
%ADD40R,0.6000X0.3000*%
%ADD41R,0.3000X0.6000*%
%ADD42R,0.9779X0.5588*%
%ADD61R,3.4544X3.4544*%
%ADD67R,1.2954X1.9050*%
%ADD68R,0.7500X0.4000*%
%ADD69C,0.1250*%
%ADD70C,0.2032*%
%ADD71C,1.6000*%
G04:AMPARAMS|DCode=72|XSize=1.6mm|YSize=1.6mm|CornerRadius=0.4mm|HoleSize=0mm|Usage=FLASHONLY|Rotation=90.000|XOffset=0mm|YOffset=0mm|HoleType=Round|Shape=RoundedRectangle|*
%AMROUNDEDRECTD72*
21,1,1.6000,0.8000,0,0,90.0*
21,1,0.8000,1.6000,0,0,90.0*
1,1,0.8000,0.4000,0.4000*
1,1,0.8000,0.4000,-0.4000*
1,1,0.8000,-0.4000,-0.4000*
1,1,0.8000,-0.4000,0.4000*
%
%ADD72ROUNDEDRECTD72*%
%ADD73C,0.6500*%
%ADD74C,0.3500*%
%ADD75C,0.6350*%
D10*
X303540Y200960D02*
Y229860D01*
X303530Y229870D02*
X303540Y229860D01*
X303530Y76200D02*
X303540Y76210D01*
Y98760D01*
X264240D02*
X303540D01*
X156600Y65160D02*
X159530Y68090D01*
X153670Y62230D02*
X156600Y65160D01*
X169760Y31140D02*
X170180Y30720D01*
X169300Y31600D02*
X169760Y31140D01*
X156796Y31600D02*
X169300D01*
X153670Y34726D02*
X156796Y31600D01*
X153670Y34726D02*
Y62230D01*
X159530Y68090D02*
X171450D01*
X250180Y12500D02*
Y31750D01*
X249410Y11730D02*
X250180Y12500D01*
X249410Y11430D02*
Y11730D01*
X170180Y11430D02*
Y30720D01*
Y11430D02*
X176530Y5080D01*
X214630D01*
X220980Y11430D01*
X240810D01*
X241790Y100330D02*
X262670D01*
X258490Y125730D02*
Y125860D01*
D16*
X54610Y215900D02*
X72390D01*
X29852D02*
X54610D01*
X55880Y217170D01*
Y243840D01*
X32240Y250190D02*
X49530D01*
X55880Y243840D01*
X138430Y66310D02*
Y74930D01*
X128030Y51465D02*
Y55910D01*
X138430Y66310D01*
X163050Y109220D02*
X168910D01*
X189230Y129540D02*
X203200D01*
X168910Y109220D02*
X189230Y129540D01*
X203200Y177800D02*
Y184150D01*
X210820Y191770D01*
X240030D01*
X224790Y186690D02*
X246380D01*
X249480Y183590D01*
X222250Y178290D02*
Y184150D01*
X221760Y169400D02*
Y177800D01*
X222250Y184150D02*
X224790Y186690D01*
X221760Y177800D02*
X222250Y178290D01*
X245110Y196850D02*
Y214630D01*
X240030Y191770D02*
X245110Y196850D01*
X240810Y218930D02*
X245110Y214630D01*
X234950Y218930D02*
X240810D01*
X221760Y111760D02*
Y121920D01*
X69596Y274320D02*
X86360D01*
X21590Y71120D02*
X34290D01*
X81280Y118110D01*
X252922Y278130D02*
X275590D01*
X252311Y278740D02*
X252922Y278130D01*
X191707Y107950D02*
X192180Y107478D01*
X182880Y107950D02*
X191707D01*
X175260Y100330D02*
X182880Y107950D01*
X175260Y87873D02*
Y100330D01*
X179070Y83820D02*
Y84063D01*
X175260Y87873D02*
X179070Y84063D01*
X182880Y99060D02*
X184797Y100977D01*
X192180D01*
X182880Y88900D02*
Y99060D01*
Y88900D02*
X186690Y85090D01*
X214122D02*
X226822Y72390D01*
X186690Y85090D02*
X214122D01*
X226822Y72390D02*
X228854D01*
X277912D02*
X279400Y70902D01*
X269494Y72390D02*
X277912D01*
X279400Y58529D02*
Y70902D01*
Y54828D02*
Y58529D01*
X285641D02*
X289560Y54610D01*
X279400Y58529D02*
X285641D01*
X265047Y53340D02*
X277912D01*
X279400Y54828D01*
X152400Y90170D02*
X157480D01*
X147320D02*
X152400D01*
Y69360D02*
X156600Y65160D01*
X152400Y69360D02*
Y90170D01*
X19050Y205098D02*
X29852Y215900D01*
X72390D02*
X99060Y189230D01*
X99320D01*
X100590Y190500D02*
X106190D01*
X99320Y189230D02*
X100590Y190500D01*
X81280Y118110D02*
Y142240D01*
X85090Y146050D01*
X142240Y95250D02*
X147320Y90170D01*
X163050Y95740D02*
Y109220D01*
X157480Y90170D02*
X163050Y95740D01*
X32240Y236220D02*
X41910D01*
X114300Y200660D02*
Y227684D01*
Y190990D02*
Y200660D01*
X109220D02*
X114300D01*
X71230Y183547D02*
X81947D01*
X83820Y185420D01*
X37573Y160548D02*
X53230D01*
X36830Y161290D02*
X37573Y160548D01*
X179254Y82556D02*
X185120Y76690D01*
X179254Y82556D02*
Y83636D01*
X185120Y76690D02*
X185420D01*
X179070Y83820D02*
X179254Y83636D01*
X180340Y15240D02*
X181610Y13970D01*
X190010D01*
X211830Y40640D02*
X214370Y38100D01*
X193460Y40640D02*
X211830D01*
X214370Y38100D02*
X214630D01*
X228114Y37063D02*
Y37316D01*
X218440Y46990D02*
X228114Y37316D01*
X218440Y46990D02*
Y50800D01*
X183789Y61869D02*
Y66672D01*
X185207Y68090D02*
X185420D01*
X183789Y66672D02*
X185207Y68090D01*
X182880Y60960D02*
X183789Y61869D01*
X170670Y77470D02*
X171450Y76690D01*
X162560Y77470D02*
X170670D01*
X153670Y97790D02*
Y99060D01*
X154450Y99840D02*
Y109220D01*
X153670Y99060D02*
X154450Y99840D01*
X150850Y113207D02*
X154450Y109607D01*
Y109220D02*
Y109607D01*
X150850Y113207D02*
Y125090D01*
X163050Y109220D02*
X163830Y110000D01*
X156850Y131090D02*
X158350D01*
X163830Y125610D01*
Y110000D02*
Y125610D01*
X211680Y107478D02*
X211906Y107704D01*
Y116656D01*
X212090Y116840D01*
X215900Y53340D02*
X218440Y50800D01*
X127000Y38100D02*
Y50435D01*
X128030Y51465D01*
X123970Y35070D02*
X127000Y38100D01*
X59690Y35070D02*
X123970D01*
X185420Y76690D02*
X186200Y77470D01*
X203454Y72390D02*
X205486D01*
X198374Y77470D02*
X203454Y72390D01*
X186200Y77470D02*
X198374D01*
X230886Y72390D02*
X239776Y63500D01*
X252730D01*
X228854Y72390D02*
X230886D01*
X252730Y63500D02*
X261620Y72390D01*
X269494D01*
X240030Y76454D02*
X244094Y72390D01*
X246126D01*
X240030Y76454D02*
Y88138D01*
X234521Y93647D02*
X240030Y88138D01*
X218700Y29210D02*
X221240Y31750D01*
X218440Y29210D02*
X218700D01*
X221240Y31750D02*
X232420D01*
X114790Y190500D02*
X115620Y189670D01*
X114300Y190990D02*
X114790Y190500D01*
X124075Y237460D02*
Y241905D01*
X114300Y227684D02*
X124075Y237460D01*
X191770Y227520D02*
X200088Y235837D01*
Y236137D01*
X191770Y207010D02*
Y227520D01*
X106190Y168250D02*
X108350Y166090D01*
X109850D01*
X115620Y172320D02*
Y189670D01*
X106190Y168250D02*
Y190500D01*
X115620Y172320D02*
X115850Y172090D01*
X267970Y38100D02*
X278540D01*
X264160D02*
X267970D01*
X250180Y31750D02*
X257810D01*
X264160Y38100D01*
X242437Y53340D02*
X256448D01*
X242205Y53572D02*
X242437Y53340D01*
X278390Y44450D02*
X278540Y44600D01*
X236327Y44450D02*
X278390D01*
X227205Y53572D02*
X236327Y44450D01*
X278540Y27080D02*
Y31600D01*
X275590Y24130D02*
X278540Y27080D01*
X267970Y20320D02*
X270510Y17780D01*
X267970Y20320D02*
Y38100D01*
X190010Y29410D02*
X191740Y31140D01*
X190010Y13970D02*
Y29410D01*
X191740Y31140D02*
X193460D01*
X200660Y61970D02*
Y62230D01*
X193460Y50140D02*
X196760D01*
X198490Y51870D01*
Y59800D01*
X200660Y61970D01*
X198610Y13970D02*
X208280D01*
X311290Y59570D02*
X320040D01*
X308610Y26548D02*
X308732D01*
X311150Y17780D02*
Y24130D01*
X308732Y26548D02*
X311150Y24130D01*
X270510Y17780D02*
X297180D01*
X311150D01*
X320040Y35560D02*
Y44570D01*
X325120Y17780D02*
Y30480D01*
X320040Y35560D02*
X325120Y30480D01*
X298040Y31600D02*
X313840D01*
X318135Y9180D02*
X325120D01*
X311150D02*
X318135D01*
X313840Y31600D02*
X318135Y27305D01*
Y9180D02*
Y27305D01*
X298266Y44826D02*
Y56966D01*
X298040Y44600D02*
X298266Y44826D01*
Y56966D02*
X298450Y57150D01*
X285460Y9180D02*
X297180D01*
X281940Y12700D02*
X285460Y9180D01*
X289560Y33982D02*
Y54610D01*
X262670Y100330D02*
X264240Y98760D01*
X258490Y104510D02*
X262670Y100330D01*
X258490Y104510D02*
Y117860D01*
X209550Y173990D02*
Y177800D01*
Y173990D02*
X222250Y161290D01*
Y152400D02*
Y161290D01*
X211455Y149882D02*
X219732D01*
X222250Y152400D01*
X211032Y149459D02*
X211455Y149882D01*
X221920Y127940D02*
X228600Y134620D01*
Y149459D01*
X238337D01*
X221760Y169400D02*
X228600Y162560D01*
Y149459D02*
Y162560D01*
X210815Y149676D02*
X211032Y149459D01*
X154075Y224662D02*
X157267Y221470D01*
X157480D01*
X154075Y224662D02*
Y241905D01*
X143793Y221753D02*
Y241622D01*
X143510Y221470D02*
X143793Y221753D01*
Y241622D02*
X144075Y241905D01*
X129540Y221470D02*
X129753D01*
X134075Y225793D02*
Y241905D01*
X129753Y221470D02*
X134075Y225793D01*
X264160Y201040D02*
X264240Y200960D01*
X264160Y201040D02*
Y234950D01*
X231140Y238760D02*
X260350D01*
X264160Y234950D01*
X219710Y227330D02*
X231140Y238760D01*
X208280Y227330D02*
X219710D01*
X205740Y224790D02*
X208280Y227330D01*
X205740Y215822D02*
Y224790D01*
X205448Y215530D02*
X205740Y215822D01*
X208770Y236220D02*
X217170D01*
X234950Y218930D02*
Y231140D01*
X229090Y210330D02*
X234950D01*
X224790Y214630D02*
X229090Y210330D01*
X217448Y215530D02*
X218348Y214630D01*
X224790D01*
X200088Y236137D02*
X200170Y236220D01*
X191770Y207010D02*
X196750Y202030D01*
X205448D01*
X264240Y200960D02*
X303540D01*
X258490Y181860D02*
Y195210D01*
X264240Y200960D01*
X249480Y183590D02*
X256760D01*
X258490Y181860D01*
X230360Y177500D02*
X240500Y167360D01*
X258490D01*
X230360Y177500D02*
Y177800D01*
X242570Y180340D02*
X249050Y173860D01*
X258490D01*
X233190Y100330D02*
X234521Y98999D01*
Y93647D02*
Y98999D01*
X233190Y100330D02*
X233680Y100820D01*
Y109220D01*
X242570Y118110D01*
X250320Y125860D02*
X258490D01*
X242570Y118110D02*
X250320Y125860D01*
X297945Y31695D02*
X298040Y31600D01*
X289560Y33982D02*
X291847Y31695D01*
X297945D01*
X221760Y121920D02*
X221920Y122080D01*
Y127940D01*
X258490Y142360D02*
X258610Y142240D01*
X267970D01*
X270510Y139700D01*
X279400D01*
X283210Y143510D01*
X258490Y147360D02*
X258510Y147340D01*
X274300D02*
X274320Y147320D01*
X258510Y147340D02*
X274300D01*
X280543Y154813D02*
X283210Y152146D01*
Y143510D02*
Y152146D01*
X272653Y154813D02*
X280543D01*
X258490Y152360D02*
X270200D01*
X272653Y154813D01*
X273289Y161290D02*
X274320D01*
X269359Y157360D02*
X273289Y161290D01*
X258490Y157360D02*
X269359D01*
X242191Y141507D02*
X242420D01*
X239053Y139700D02*
X240574D01*
X248274Y147360D02*
X258490D01*
X242420Y141507D02*
X248274Y147360D01*
X247690Y152360D02*
X258490D01*
X242570Y157480D02*
X247690Y152360D01*
X239053Y157480D02*
X242570D01*
X238442Y158090D02*
X239053Y157480D01*
D20*
X97790Y142730D02*
D03*
Y134130D02*
D03*
X297180Y9180D02*
D03*
Y17780D02*
D03*
X234950Y210330D02*
D03*
Y218930D02*
D03*
X129540Y212870D02*
D03*
Y221470D02*
D03*
X125730Y79230D02*
D03*
Y70630D02*
D03*
X271780Y262110D02*
D03*
Y253510D02*
D03*
X311150Y9180D02*
D03*
Y17780D02*
D03*
X45720Y35070D02*
D03*
Y43670D02*
D03*
X59690D02*
D03*
Y35070D02*
D03*
X325120Y9180D02*
D03*
Y17780D02*
D03*
X171450Y68090D02*
D03*
Y76690D02*
D03*
X185420D02*
D03*
Y68090D02*
D03*
X97790Y79230D02*
D03*
Y70630D02*
D03*
X143510Y212870D02*
D03*
Y221470D02*
D03*
X157480Y212870D02*
D03*
Y221470D02*
D03*
X111760Y79230D02*
D03*
Y70630D02*
D03*
D21*
X128030Y51465D02*
D03*
X118030D02*
D03*
X108030D02*
D03*
X98030D02*
D03*
X154075Y241905D02*
D03*
X144075D02*
D03*
X134075D02*
D03*
X124075D02*
D03*
D22*
X228854Y72390D02*
D03*
X205486D02*
D03*
X246126D02*
D03*
X269494D02*
D03*
D23*
X53230Y183547D02*
D03*
Y160548D02*
D03*
X71230D02*
D03*
Y183547D02*
D03*
D24*
X249410Y11430D02*
D03*
X240810D02*
D03*
X154450Y109220D02*
D03*
X163050D02*
D03*
X114790Y190500D02*
D03*
X106190D02*
D03*
X190010Y13970D02*
D03*
X198610D02*
D03*
X32240Y250190D02*
D03*
X23640D02*
D03*
X208770Y236220D02*
D03*
X200170D02*
D03*
X241790Y100330D02*
D03*
X233190D02*
D03*
X32240Y236220D02*
D03*
X23640D02*
D03*
X265047Y53340D02*
D03*
X256448D02*
D03*
X230360Y121920D02*
D03*
X221760D02*
D03*
Y177800D02*
D03*
X230360D02*
D03*
X57930Y205740D02*
D03*
X66530D02*
D03*
X65260Y142240D02*
D03*
X56660D02*
D03*
D25*
X19050Y274320D02*
D03*
X69596D02*
D03*
D27*
X303540Y200960D02*
D03*
Y98760D02*
D03*
X264240Y200960D02*
D03*
Y98760D02*
D03*
D28*
X258490Y152360D02*
D03*
Y147360D02*
D03*
Y157360D02*
D03*
Y142360D02*
D03*
Y162360D02*
D03*
Y137360D02*
D03*
Y167360D02*
D03*
Y132360D02*
D03*
D29*
Y181860D02*
D03*
Y173860D02*
D03*
Y125860D02*
D03*
Y117860D02*
D03*
D30*
X227205Y53572D02*
D03*
X242205D02*
D03*
D31*
X320040Y59570D02*
D03*
Y44570D02*
D03*
D32*
X250180Y31750D02*
D03*
X232420D02*
D03*
D33*
X21590Y71120D02*
D03*
Y20574D02*
D03*
D34*
X169760Y31140D02*
D03*
Y50140D02*
D03*
X193460D02*
D03*
Y40640D02*
D03*
Y31140D02*
D03*
D35*
X205448Y215530D02*
D03*
D36*
Y202030D02*
D03*
D37*
X217448D02*
D03*
D38*
Y215530D02*
D03*
D39*
X230312Y269240D02*
D03*
X252311Y278740D02*
D03*
Y259740D02*
D03*
D40*
X109850Y166090D02*
D03*
Y161090D02*
D03*
Y156090D02*
D03*
Y151090D02*
D03*
Y146090D02*
D03*
Y141090D02*
D03*
Y136090D02*
D03*
Y131090D02*
D03*
X156850D02*
D03*
Y136090D02*
D03*
Y141090D02*
D03*
Y146090D02*
D03*
Y151090D02*
D03*
Y156090D02*
D03*
Y161090D02*
D03*
Y166090D02*
D03*
D41*
X115850Y125090D02*
D03*
X120850D02*
D03*
X125850D02*
D03*
X130850D02*
D03*
X135850D02*
D03*
X140850D02*
D03*
X145850D02*
D03*
X150850D02*
D03*
Y172090D02*
D03*
X145850D02*
D03*
X140850D02*
D03*
X135850D02*
D03*
X130850D02*
D03*
X125850D02*
D03*
X120850D02*
D03*
X115850D02*
D03*
D42*
X238337Y139959D02*
D03*
Y149459D02*
D03*
Y158959D02*
D03*
X211032D02*
D03*
Y149459D02*
D03*
Y139959D02*
D03*
D61*
X133350Y148590D02*
D03*
D67*
X85030Y12715D02*
D03*
X141030D02*
D03*
X111075Y280655D02*
D03*
X167076D02*
D03*
D68*
X192180Y94477D02*
D03*
Y100977D02*
D03*
Y107478D02*
D03*
X211680D02*
D03*
Y100977D02*
D03*
Y94477D02*
D03*
X298040Y31600D02*
D03*
Y38100D02*
D03*
Y44600D02*
D03*
X278540D02*
D03*
Y38100D02*
D03*
Y31600D02*
D03*
D69*
X156850Y166090D02*
X166090D01*
X171450Y171450D01*
X167640Y153670D02*
X185420D01*
X168910Y130810D02*
X175260D01*
X163630Y136090D02*
X168910Y130810D01*
X171450Y137160D02*
X179070D01*
X167520Y141090D02*
X171450Y137160D01*
X97790Y118110D02*
Y134130D01*
X93065Y144307D02*
X96213D01*
X85090Y146050D02*
X91322D01*
X96213Y144307D02*
X97790Y142730D01*
X91322Y146050D02*
X93065Y144307D01*
X98526Y142730D02*
X101886Y146090D01*
X97790Y142730D02*
X98526D01*
X101886Y146090D02*
X109850D01*
X173218D02*
X176164Y143144D01*
X184150D01*
X156850Y146090D02*
X173218D01*
X176570Y151090D02*
X180109Y147551D01*
X189461D01*
X195580Y153670D01*
X156850Y136090D02*
X163630D01*
X156850Y141090D02*
X167520D01*
X19050Y274320D02*
X23640Y269730D01*
Y250190D02*
Y269730D01*
X74930Y142240D02*
X83780Y151090D01*
X109850D01*
X45720Y59690D02*
Y72390D01*
X90170Y116840D01*
Y140970D01*
X121920Y184150D02*
Y200660D01*
X120850Y183080D02*
X121920Y184150D01*
X120850Y172090D02*
Y183080D01*
X125850Y172090D02*
Y183983D01*
X128270Y186404D02*
Y186690D01*
X125850Y183983D02*
X128270Y186404D01*
X230312Y254167D02*
X236220Y248259D01*
Y247650D02*
Y248259D01*
X230312Y254167D02*
Y269240D01*
X233580Y202030D02*
X233680Y201930D01*
X217448Y202030D02*
X233580D01*
X252311Y259740D02*
X254681Y262110D01*
X271780D01*
X269240Y243887D02*
X271780Y246427D01*
Y253510D01*
X269240Y243840D02*
Y243887D01*
X49530Y125730D02*
X63500D01*
X172920Y161090D02*
X175260Y158750D01*
X156850Y161090D02*
X172920D01*
X49530Y132080D02*
X63500D01*
X156850Y151090D02*
X176570D01*
X165100Y156210D02*
X167640Y153670D01*
X156970Y156210D02*
X165100D01*
X23640Y236220D02*
Y250190D01*
X10769Y234950D02*
X12039Y236220D01*
X23640D01*
X10160Y234950D02*
X10769D01*
X57757Y175923D02*
X62230Y171450D01*
X85090D01*
X50800Y185977D02*
X57757Y179020D01*
Y175923D02*
Y179020D01*
X129540Y194310D02*
Y212870D01*
X135850Y172090D02*
Y188000D01*
X129540Y194310D02*
X135850Y188000D01*
X143510Y203522D02*
X146050Y200982D01*
X143510Y203522D02*
Y212870D01*
X146050Y191770D02*
Y200982D01*
X140850Y172090D02*
Y186570D01*
X146050Y191770D01*
X156210Y189230D02*
Y211600D01*
X157480Y212870D01*
X145850Y172090D02*
Y178870D01*
X156210Y189230D01*
X118030Y60880D02*
X118110Y60960D01*
X118030Y51465D02*
Y60880D01*
X118110Y63310D02*
X125430Y70630D01*
X125730D01*
X118110Y60960D02*
Y63310D01*
X107950Y51545D02*
X108030Y51465D01*
X107950Y51545D02*
Y62230D01*
X111760Y66040D02*
Y70630D01*
X107950Y62230D02*
X111760Y66040D01*
X97790Y51705D02*
X98030Y51465D01*
X97790Y51705D02*
Y70630D01*
X111760Y79230D02*
Y91440D01*
X125850Y105530D02*
Y125090D01*
X111760Y91440D02*
X125850Y105530D01*
X125730Y79230D02*
Y90170D01*
X130850Y95290D01*
Y125090D01*
X97790Y79230D02*
Y90170D01*
X120850Y113230D01*
Y125090D01*
X50800Y185977D02*
Y201930D01*
X53355Y204485D01*
X56675D01*
X57930Y205740D01*
X72390Y184708D02*
Y199580D01*
X71230Y183547D02*
X72390Y184708D01*
X66530Y205440D02*
Y205740D01*
Y205440D02*
X72390Y199580D01*
X71230Y148510D02*
Y160548D01*
X65260Y142540D02*
X71230Y148510D01*
X65260Y142240D02*
Y142540D01*
X53230Y146323D02*
X56660Y142893D01*
X53230Y146323D02*
Y160548D01*
X56660Y142240D02*
Y142893D01*
X71230Y160548D02*
X75687Y156090D01*
X109850D01*
X85090Y171450D02*
X95450Y161090D01*
X109850D01*
X156850Y156090D02*
X156970Y156210D01*
X195580Y153670D02*
X200869Y158959D01*
X195580Y144780D02*
X200401Y139959D01*
X45720Y43670D02*
Y59690D01*
X200869Y158959D02*
X211032D01*
X200401Y139959D02*
X211032D01*
D70*
X234950Y121920D02*
X250390Y137360D01*
X258490D01*
X230360Y121920D02*
X234950D01*
X45720Y43670D02*
X59690D01*
X21590Y20574D02*
X42164D01*
X45720Y24130D02*
Y34290D01*
X42164Y20574D02*
X45720Y24130D01*
D71*
X19050Y205098D02*
D03*
Y179699D02*
D03*
Y128898D02*
D03*
Y154298D02*
D03*
D72*
Y103498D02*
D03*
D73*
X269240Y178760D02*
D03*
Y120960D02*
D03*
X303530Y229870D02*
D03*
Y76200D02*
D03*
D74*
X171450Y171450D02*
D03*
X185420Y153670D02*
D03*
X175260Y130810D02*
D03*
X179070Y137160D02*
D03*
X221760Y111760D02*
D03*
X97790Y118110D02*
D03*
X184150Y143144D02*
D03*
X138430Y74930D02*
D03*
X203200Y129540D02*
D03*
Y177800D02*
D03*
X86360Y274320D02*
D03*
X275590Y278130D02*
D03*
X133350Y148590D02*
D03*
X147320Y162560D02*
D03*
X119380Y134620D02*
D03*
X147320D02*
D03*
X119380Y162560D02*
D03*
X99060Y189230D02*
D03*
X85090Y146050D02*
D03*
X81280Y118110D02*
D03*
X142240Y95250D02*
D03*
X74930Y142240D02*
D03*
X41910Y236220D02*
D03*
X109220Y200660D02*
D03*
X83820Y185420D02*
D03*
X36830Y161290D02*
D03*
X179070Y83820D02*
D03*
X180340Y15240D02*
D03*
X214630Y38100D02*
D03*
X182880Y60960D02*
D03*
X162560Y77470D02*
D03*
X153670Y97790D02*
D03*
X212090Y116840D02*
D03*
X215900Y53340D02*
D03*
X90170Y140970D02*
D03*
X121920Y200660D02*
D03*
X128270Y186690D02*
D03*
X218440Y29210D02*
D03*
X236220Y247650D02*
D03*
X233680Y201930D02*
D03*
X269240Y243840D02*
D03*
X49530Y125730D02*
D03*
X63500D02*
D03*
X175260Y158750D02*
D03*
X49530Y132080D02*
D03*
X63500D02*
D03*
X10160Y234950D02*
D03*
X275590Y24130D02*
D03*
X200660Y62230D02*
D03*
X208280Y13970D02*
D03*
X309880Y58420D02*
D03*
X308610Y26548D02*
D03*
X298450Y57150D02*
D03*
X281940Y12700D02*
D03*
X195580Y144780D02*
D03*
Y153670D02*
D03*
X209550Y177800D02*
D03*
X217170Y236220D02*
D03*
X234950Y231140D02*
D03*
X242570Y180340D02*
D03*
Y118110D02*
D03*
X83820Y218440D02*
D03*
D75*
X274320Y147320D02*
D03*
Y161290D02*
D03*
M02*
