G04*
G04 #@! TF.GenerationSoftware,Altium Limited,Altium Designer,22.11.1 (43)*
G04*
G04 Layer_Physical_Order=2*
G04 Layer_Color=36540*
%FSLAX44Y44*%
%MOMM*%
G71*
G04*
G04 #@! TF.SameCoordinates,81CC0E8B-20A0-439E-BAEA-CE75FBAB7F8A*
G04*
G04*
G04 #@! TF.FilePolarity,Positive*
G04*
G01*
G75*
%ADD11C,0.5080*%
%ADD13C,0.2540*%
%ADD17C,0.2032*%
%ADD83C,0.5080*%
%ADD85C,0.2692*%
%ADD93C,0.6500*%
%ADD94C,0.6350*%
%ADD95C,0.4064*%
%ADD96C,1.2700*%
%ADD97C,1.5240*%
G36*
X989330Y1036320D02*
X1038860D01*
Y1014939D01*
X1019537D01*
X1017841Y1016635D01*
X1014159D01*
X1011555Y1014031D01*
Y1010349D01*
X1014159Y1007745D01*
X1017841D01*
X1019537Y1009441D01*
X1038860D01*
Y970489D01*
X1018639D01*
X1017578Y971550D01*
X1014422D01*
X1012190Y969318D01*
Y966162D01*
X1014422Y963930D01*
X1017578D01*
X1018639Y964991D01*
X1038860D01*
Y863600D01*
X808517D01*
X807448Y866181D01*
X831312Y890046D01*
X831312Y890046D01*
X832142Y892048D01*
X832142Y892048D01*
Y897987D01*
X846074Y911919D01*
X848329Y911373D01*
X848868Y911063D01*
Y909222D01*
X850802Y907288D01*
X853538D01*
X853813Y907563D01*
X854017Y907479D01*
X855951Y905545D01*
X858686D01*
X860621Y907479D01*
Y910215D01*
X858686Y912149D01*
X858373Y912905D01*
X869819Y924351D01*
X873820D01*
X875538Y922118D01*
X875538Y921557D01*
Y919382D01*
X877472Y917448D01*
X877628D01*
X878840Y914708D01*
X878840Y914654D01*
Y911552D01*
X881072Y909320D01*
X884228D01*
X886460Y911552D01*
Y911882D01*
X887632Y912368D01*
X890368D01*
X892302Y914302D01*
Y917038D01*
X890368Y918972D01*
X887632D01*
X886173Y917513D01*
X883180Y917703D01*
X882142Y919382D01*
X882142Y919734D01*
X882142Y921769D01*
X882193Y922221D01*
X883442Y924769D01*
X884376Y925156D01*
X885864Y926644D01*
X885864Y926644D01*
X886669Y928588D01*
X886669Y928588D01*
Y931521D01*
X889356Y932634D01*
X889591Y932551D01*
X889962Y932180D01*
X893118D01*
X895350Y934412D01*
Y935675D01*
X897792Y937184D01*
X898144Y937184D01*
X900528D01*
X902462Y939118D01*
Y941853D01*
X901163Y943153D01*
X902462Y944452D01*
Y947188D01*
X900528Y949122D01*
X897792D01*
X896181Y951248D01*
X896059Y951861D01*
X905760Y961562D01*
X937641D01*
X937641Y961562D01*
X939585Y962367D01*
X951539Y974321D01*
X954278Y973109D01*
Y971452D01*
X956212Y969518D01*
X958948D01*
X960882Y971452D01*
Y974188D01*
X959710Y975360D01*
X960882Y976532D01*
Y979268D01*
X958948Y981202D01*
X956773D01*
X956212Y981202D01*
X953979Y982920D01*
Y994541D01*
X955118Y995680D01*
X956618D01*
X958850Y997912D01*
Y1001068D01*
X956618Y1003300D01*
X955958Y1006094D01*
X957311Y1008380D01*
X959158D01*
X959866Y1009088D01*
X962660Y1008072D01*
X962731Y1008001D01*
X964892Y1005840D01*
X968048D01*
X969645Y1007437D01*
X971242Y1005840D01*
X974398D01*
X976181Y1007623D01*
X978599Y1005205D01*
X982281D01*
X984885Y1007809D01*
Y1011491D01*
X982281Y1014095D01*
X978599D01*
X976181Y1011677D01*
X974398Y1013460D01*
X971242D01*
X969645Y1011863D01*
X968048Y1013460D01*
X964892D01*
X964184Y1012752D01*
X961390Y1013768D01*
X961319Y1013839D01*
X959158Y1016000D01*
X960120Y1016962D01*
Y1019810D01*
X962968D01*
X965200Y1022042D01*
Y1025198D01*
X962968Y1027430D01*
X959812D01*
X957580Y1025198D01*
Y1023577D01*
X954786Y1022350D01*
X954732D01*
X952500Y1023928D01*
X952500Y1023928D01*
X952429Y1023999D01*
X950268Y1026160D01*
X947112D01*
X944880Y1023928D01*
X943982Y1023556D01*
X942648Y1024890D01*
X939492D01*
X938718Y1024117D01*
X935924Y1025274D01*
Y1026160D01*
X935200Y1027910D01*
X933450Y1028634D01*
X931700Y1027910D01*
X930976Y1026160D01*
Y1024383D01*
X928182Y1024117D01*
X926138Y1026160D01*
X922982D01*
X920750Y1023928D01*
Y1020772D01*
X922982Y1018540D01*
X923559D01*
X924716Y1015746D01*
X923798Y1014828D01*
Y1012952D01*
X921922D01*
X919988Y1011018D01*
Y1008282D01*
X921922Y1006348D01*
X924658D01*
X926739Y1008430D01*
X928370Y1009169D01*
X930976Y1007551D01*
Y1004566D01*
X930430Y1004020D01*
X929706Y1002271D01*
Y985674D01*
X929282Y985294D01*
X927228Y984200D01*
X911264Y1000164D01*
X909320Y1000969D01*
X907047Y1002347D01*
X906780Y1002992D01*
Y1006148D01*
X904548Y1008380D01*
X901392D01*
X899160Y1006148D01*
Y1002992D01*
X898322Y1000969D01*
X869819D01*
X845224Y1025564D01*
X843280Y1026369D01*
X843280Y1026369D01*
X806319D01*
X779184Y1053504D01*
X777240Y1054309D01*
X777240Y1054309D01*
X765191D01*
X764638Y1054862D01*
X761902D01*
X759968Y1052928D01*
Y1050192D01*
X761902Y1048258D01*
X764638D01*
X765191Y1048811D01*
X776101D01*
X803236Y1021676D01*
X803236Y1021676D01*
X805180Y1020871D01*
X805180Y1020871D01*
X842141D01*
X866736Y996276D01*
X866736Y996276D01*
X868680Y995471D01*
X868680Y995471D01*
X908181D01*
X927696Y975956D01*
X927696Y975956D01*
X929640Y975151D01*
X929640Y975151D01*
X938312D01*
X938312Y975151D01*
X940256Y975956D01*
X941744Y977444D01*
X941744Y977444D01*
X942549Y979388D01*
X942549Y979388D01*
Y995811D01*
X946754Y1000016D01*
X948714Y999792D01*
X949492Y997831D01*
X949286Y997624D01*
X948481Y995680D01*
X948481Y995680D01*
Y979039D01*
X936502Y967060D01*
X904621D01*
X904621Y967060D01*
X902677Y966255D01*
X897581Y961159D01*
X894842Y962371D01*
Y964028D01*
X892908Y965962D01*
X892610Y966680D01*
X893572Y967642D01*
Y970378D01*
X891638Y972312D01*
X888902D01*
X886968Y970378D01*
Y967642D01*
X888902Y965708D01*
X889200Y964990D01*
X888238Y964028D01*
Y961331D01*
X886235Y959384D01*
X884228Y961390D01*
X881072D01*
X878840Y959158D01*
Y956041D01*
X876837Y954093D01*
X876398Y954532D01*
X873662D01*
X871728Y952598D01*
Y951656D01*
X871594Y951522D01*
X860536D01*
X860536Y951522D01*
X858534Y950692D01*
X858534Y950692D01*
X838585Y930744D01*
X837756Y928741D01*
X837052Y927545D01*
X834506Y926302D01*
X831349D01*
X829118Y924070D01*
Y920914D01*
X831349Y918682D01*
X834506D01*
X835984Y916500D01*
X836160Y915618D01*
X823345Y902804D01*
X822516Y900801D01*
X822516Y900801D01*
Y896894D01*
X789222Y863600D01*
X679450D01*
X679450Y885190D01*
X678986Y889898D01*
X675383Y898596D01*
X668726Y905253D01*
X660027Y908856D01*
X655320Y909320D01*
X655320Y909320D01*
X655320Y909320D01*
X627380Y909320D01*
X626117Y909320D01*
X623783Y910286D01*
X621997Y912073D01*
X621030Y914407D01*
X621030Y915670D01*
Y1051560D01*
X621030Y1056612D01*
X624897Y1065948D01*
X632042Y1073093D01*
X641377Y1076960D01*
X646430Y1076960D01*
X646430Y1076960D01*
X826770D01*
Y1076652D01*
X827350Y1076072D01*
X827664Y1075314D01*
X831536Y1071442D01*
Y1065530D01*
X832744Y1062614D01*
X840364Y1054994D01*
X843280Y1053786D01*
X878402D01*
X894974Y1037214D01*
X895498Y1036997D01*
X895732Y1036900D01*
X895732Y1036900D01*
X896058Y1036574D01*
X895699Y1033780D01*
X893772Y1033780D01*
X891540Y1031548D01*
Y1028392D01*
X893772Y1026160D01*
X896366D01*
X896928Y1026160D01*
X899160Y1024582D01*
X899160Y1024582D01*
X899231Y1024511D01*
X901392Y1022350D01*
X904548D01*
X905225Y1023027D01*
X906927Y1024483D01*
X908966Y1023114D01*
X909222Y1022858D01*
X911958D01*
X913892Y1024792D01*
Y1027528D01*
X911958Y1029462D01*
X909222D01*
X908966Y1029206D01*
X906927Y1027837D01*
X905225Y1029293D01*
X904548Y1029970D01*
X901954D01*
X901392Y1029970D01*
X899160Y1031548D01*
X899160Y1031548D01*
X899089Y1031619D01*
X897283Y1033425D01*
X898095Y1036091D01*
X898648Y1036320D01*
X898801Y1036320D01*
X899468D01*
X900048Y1036900D01*
X900806Y1037214D01*
X901023Y1037738D01*
X901120Y1037972D01*
X901120Y1037972D01*
X901446Y1038298D01*
X904240Y1037939D01*
X904240Y1036012D01*
X906472Y1033780D01*
X909628D01*
X911860Y1036012D01*
Y1039168D01*
X909628Y1041400D01*
X906472D01*
X904595Y1039523D01*
X901929Y1040335D01*
X901700Y1040888D01*
X901700Y1041041D01*
Y1041708D01*
X901120Y1042288D01*
X900806Y1043046D01*
X883026Y1060826D01*
X880110Y1062034D01*
X851309D01*
X850506Y1064828D01*
X852170Y1066492D01*
Y1068891D01*
X854224Y1070473D01*
X854566Y1070610D01*
X857558D01*
X859790Y1072842D01*
Y1075998D01*
X860188Y1076960D01*
X989330D01*
Y1036320D01*
D02*
G37*
G36*
X947112Y1018540D02*
X949706D01*
X950268Y1018540D01*
X952500Y1016962D01*
X952500Y1016962D01*
X952571Y1016891D01*
X954732Y1014730D01*
X953770Y1013768D01*
Y1010626D01*
X953770Y1010612D01*
X952599Y1007832D01*
X951172D01*
X950660Y1007319D01*
X947420D01*
X947420Y1007319D01*
X945476Y1006514D01*
X945476Y1006514D01*
X937856Y998894D01*
X937448Y997910D01*
X934654Y998466D01*
Y1001246D01*
X935200Y1001791D01*
X935924Y1003541D01*
X935924Y1003541D01*
Y1004905D01*
X938432Y1006348D01*
X938718Y1006348D01*
X941168D01*
X943102Y1008282D01*
Y1011018D01*
X941168Y1012952D01*
X938718D01*
X938432Y1012952D01*
X936082Y1014305D01*
X936131Y1016972D01*
X938718Y1018044D01*
X939492Y1017270D01*
X942648D01*
X944880Y1019502D01*
X945778Y1019874D01*
X947112Y1018540D01*
D02*
G37*
%LPC*%
G36*
X797658Y1063752D02*
X794922D01*
X792988Y1061818D01*
Y1059082D01*
X794922Y1057148D01*
X797658D01*
X799592Y1059082D01*
Y1061818D01*
X797658Y1063752D01*
D02*
G37*
G36*
X896928Y1062990D02*
X893772D01*
X891540Y1060758D01*
Y1057602D01*
X893772Y1055370D01*
X896928D01*
X899160Y1057602D01*
Y1060758D01*
X896928Y1062990D01*
D02*
G37*
G36*
X941168Y1053592D02*
X938432D01*
X936498Y1051658D01*
Y1048922D01*
X938432Y1046988D01*
X941168D01*
X943102Y1048922D01*
Y1051658D01*
X941168Y1053592D01*
D02*
G37*
G36*
X802738Y1043432D02*
X800002D01*
X798068Y1041498D01*
Y1038762D01*
X800002Y1036828D01*
X802738D01*
X804672Y1038762D01*
Y1041498D01*
X802738Y1043432D01*
D02*
G37*
G36*
X946248Y1042162D02*
X943512D01*
X941578Y1040228D01*
Y1037492D01*
X943512Y1035558D01*
X946248D01*
X948182Y1037492D01*
Y1040228D01*
X946248Y1042162D01*
D02*
G37*
G36*
X929948Y1046480D02*
X926792D01*
X924560Y1044248D01*
Y1043068D01*
X923598Y1042670D01*
X920442D01*
X918210Y1040438D01*
Y1037282D01*
X920442Y1035050D01*
X923598D01*
X925830Y1037282D01*
Y1038462D01*
X926792Y1038860D01*
X929948D01*
X932180Y1041092D01*
Y1044248D01*
X929948Y1046480D01*
D02*
G37*
G36*
X849938Y1041400D02*
X846782D01*
X844550Y1039168D01*
Y1036012D01*
X846782Y1033780D01*
X849938D01*
X852170Y1036012D01*
Y1039168D01*
X849938Y1041400D01*
D02*
G37*
G36*
X818188Y1040130D02*
X815032D01*
X812800Y1037898D01*
Y1034742D01*
X815032Y1032510D01*
X818188D01*
X820420Y1034742D01*
Y1037898D01*
X818188Y1040130D01*
D02*
G37*
G36*
X871318Y1038352D02*
X868582D01*
X866648Y1036418D01*
Y1034542D01*
X864772D01*
X862838Y1032608D01*
Y1029872D01*
X864772Y1027938D01*
X867508D01*
X869442Y1029872D01*
Y1031748D01*
X871318D01*
X873252Y1033682D01*
Y1036418D01*
X871318Y1038352D01*
D02*
G37*
G36*
X857348Y1033272D02*
X854612D01*
X852678Y1031338D01*
Y1028602D01*
X854612Y1026668D01*
X857348D01*
X859282Y1028602D01*
Y1031338D01*
X857348Y1033272D01*
D02*
G37*
G36*
X882958Y1026160D02*
X879802D01*
X877570Y1023928D01*
Y1020772D01*
X879802Y1018540D01*
X882958D01*
X885190Y1020772D01*
Y1023928D01*
X882958Y1026160D01*
D02*
G37*
G36*
X678782Y1022750D02*
X675038D01*
X672390Y1020102D01*
Y1016358D01*
X675038Y1013710D01*
X678782D01*
X681430Y1016358D01*
Y1020102D01*
X678782Y1022750D01*
D02*
G37*
G36*
X791308Y1006602D02*
X788572D01*
X786638Y1004668D01*
Y1001932D01*
X788572Y999998D01*
X791308D01*
X793242Y1001932D01*
Y1004668D01*
X791308Y1006602D01*
D02*
G37*
G36*
X665788Y1007110D02*
X662632D01*
X660400Y1004878D01*
Y1001722D01*
X662632Y999490D01*
X665788D01*
X668020Y1001722D01*
Y1004878D01*
X665788Y1007110D01*
D02*
G37*
G36*
X980538Y1000252D02*
X977802D01*
X975868Y998318D01*
Y995582D01*
X977802Y993648D01*
X980538D01*
X982472Y995582D01*
Y998318D01*
X980538Y1000252D01*
D02*
G37*
G36*
X891638Y990092D02*
X888902D01*
X887095Y988285D01*
X885288Y990092D01*
X882552D01*
X880618Y988158D01*
Y985422D01*
X882552Y983488D01*
X885288D01*
X887095Y985295D01*
X888902Y983488D01*
X891638D01*
X893572Y985422D01*
Y988158D01*
X891638Y990092D01*
D02*
G37*
G36*
X985618Y988822D02*
X982882D01*
X980948Y986888D01*
Y984152D01*
X982882Y982218D01*
X985618D01*
X987552Y984152D01*
Y986888D01*
X985618Y988822D01*
D02*
G37*
G36*
X874068Y989330D02*
X870912D01*
X868680Y987098D01*
Y983942D01*
X870912Y981710D01*
X874068D01*
X876300Y983942D01*
Y987098D01*
X874068Y989330D01*
D02*
G37*
G36*
X860098D02*
X856942D01*
X854710Y987098D01*
Y983942D01*
X856942Y981710D01*
X860098D01*
X862330Y983942D01*
Y987098D01*
X860098Y989330D01*
D02*
G37*
G36*
X676812Y995172D02*
X676771Y995131D01*
X674919Y993279D01*
X674878Y993238D01*
Y990502D01*
X674919Y990461D01*
X676304Y989076D01*
X675586Y986282D01*
X674272Y986282D01*
X672338Y984348D01*
Y981612D01*
X674272Y979678D01*
X677008D01*
X678901Y981571D01*
X678942Y981612D01*
Y984348D01*
X678901Y984389D01*
X677516Y985774D01*
X678234Y988568D01*
X679548Y988568D01*
X681482Y990502D01*
Y993238D01*
X679589Y995131D01*
X679548Y995172D01*
X676812D01*
D02*
G37*
G36*
X790038Y969772D02*
X787302D01*
X785368Y967838D01*
Y965102D01*
X787302Y963168D01*
X790038D01*
X791972Y965102D01*
Y967838D01*
X790038Y969772D01*
D02*
G37*
G36*
X974398Y970280D02*
X971242D01*
X969010Y968048D01*
Y964892D01*
X971242Y962660D01*
X974398D01*
X976630Y964892D01*
Y968048D01*
X974398Y970280D01*
D02*
G37*
G36*
X853748Y967740D02*
X850592D01*
X848360Y965508D01*
Y962352D01*
X850592Y960120D01*
X853748D01*
X855980Y962352D01*
Y965508D01*
X853748Y967740D01*
D02*
G37*
G36*
X674678Y974090D02*
X671522D01*
X669290Y971858D01*
Y968702D01*
X671522Y966470D01*
X672606D01*
X673764Y963676D01*
X672390Y962302D01*
Y958558D01*
X675038Y955910D01*
X678782D01*
X681430Y958558D01*
Y962302D01*
X678782Y964950D01*
X677110D01*
X675952Y967744D01*
X676910Y968702D01*
Y971858D01*
X674678Y974090D01*
D02*
G37*
G36*
X1015038Y953770D02*
X1011882D01*
X1009650Y951538D01*
Y948382D01*
X1011882Y946150D01*
X1015038D01*
X1017270Y948382D01*
Y951538D01*
X1015038Y953770D01*
D02*
G37*
G36*
X993448Y952500D02*
X990292D01*
X988060Y950268D01*
Y947112D01*
X990292Y944880D01*
X993448D01*
X995680Y947112D01*
Y950268D01*
X993448Y952500D01*
D02*
G37*
G36*
X922598Y944331D02*
X919863D01*
X918511Y942979D01*
X915768Y943102D01*
X915427Y943102D01*
X913032D01*
X911098Y941168D01*
Y938432D01*
X911926Y937605D01*
Y898915D01*
X895661Y882650D01*
X893772D01*
X891540Y880418D01*
Y877262D01*
X893772Y875030D01*
X896928D01*
X899160Y877262D01*
Y879151D01*
X916150Y896140D01*
X916874Y897890D01*
Y935808D01*
X919258Y937754D01*
X919863Y937727D01*
X920204Y937727D01*
X922598D01*
X924533Y939661D01*
Y942397D01*
X922598Y944331D01*
D02*
G37*
G36*
X957678Y943102D02*
X954942D01*
X953008Y941168D01*
Y938432D01*
X954942Y936498D01*
X954986D01*
X955704Y933704D01*
X954278Y932278D01*
Y929542D01*
X956212Y927608D01*
X958948D01*
X960882Y929542D01*
Y932278D01*
X958948Y934212D01*
X958904D01*
X958186Y937006D01*
X959612Y938432D01*
Y941168D01*
X957678Y943102D01*
D02*
G37*
G36*
X809088Y934212D02*
X806352D01*
X804418Y932278D01*
Y929542D01*
X806352Y927608D01*
X809088D01*
X810915Y929435D01*
X813308Y928316D01*
X813308Y925732D01*
X815242Y923798D01*
X817978D01*
X819912Y925732D01*
Y928468D01*
X817978Y930402D01*
X815242D01*
X813415Y928575D01*
X811022Y929694D01*
X811022Y932278D01*
X809088Y934212D01*
D02*
G37*
G36*
X1001068Y933450D02*
X997912D01*
X995680Y931218D01*
Y928062D01*
X997841Y925901D01*
X997912Y925830D01*
X998928Y923036D01*
X998220Y922328D01*
Y919172D01*
X1000452Y916940D01*
X1003608D01*
X1005840Y919172D01*
Y922328D01*
X1003679Y924489D01*
X1003608Y924560D01*
X1002592Y927354D01*
X1003300Y928062D01*
Y931218D01*
X1001068Y933450D01*
D02*
G37*
G36*
X748338Y923290D02*
X745182D01*
X742950Y921058D01*
Y917902D01*
X745182Y915670D01*
X748338D01*
X750570Y917902D01*
Y921058D01*
X748338Y923290D01*
D02*
G37*
G36*
X1022658Y919480D02*
X1019502D01*
X1017270Y917248D01*
Y914092D01*
X1019502Y911860D01*
X1022658D01*
X1024890Y914092D01*
Y917248D01*
X1022658Y919480D01*
D02*
G37*
G36*
X962968Y904240D02*
X959812D01*
X957580Y902008D01*
X957580Y900081D01*
X954786Y899722D01*
X953930Y900578D01*
X952808Y901700D01*
X949652D01*
X947420Y899468D01*
Y896312D01*
X949652Y894080D01*
X952808D01*
X955040Y896312D01*
X955040Y898239D01*
X957834Y898598D01*
X958690Y897742D01*
X959812Y896620D01*
X962968D01*
X965200Y898852D01*
Y902008D01*
X962968Y904240D01*
D02*
G37*
G36*
X880418Y891540D02*
X877262D01*
X875030Y889308D01*
Y886152D01*
X877262Y883920D01*
X880418D01*
X882650Y886152D01*
Y889308D01*
X880418Y891540D01*
D02*
G37*
G36*
X975668Y887730D02*
X972512D01*
X970280Y885498D01*
Y882342D01*
X972512Y880110D01*
X975668D01*
X977900Y882342D01*
Y885498D01*
X975668Y887730D01*
D02*
G37*
%LPD*%
D11*
X880110Y1057910D02*
X897890Y1040130D01*
X843280Y1057910D02*
X880110D01*
X835660Y1065530D02*
X843280Y1057910D01*
X835660Y1065530D02*
Y1073150D01*
X830580Y1078230D02*
X835660Y1073150D01*
D13*
X1195070Y969010D02*
G03*
X1184910Y979170I-10160J0D01*
G01*
X1219200Y962660D02*
G03*
X1230630Y974090I0J11430D01*
G01*
X1195070Y969010D02*
G03*
X1201420Y962660I6350J0D01*
G01*
X904621Y964311D02*
X937641D01*
X891540Y951230D02*
X904621Y964311D01*
X937641D02*
X951230Y977900D01*
X909320Y998220D02*
X929640Y977900D01*
X938312D01*
X868680Y998220D02*
X909320D01*
X1045210Y1000760D02*
X1156970D01*
X1016000Y967740D02*
X1132840D01*
X1137920Y972820D01*
X883920Y934720D02*
X891540Y942340D01*
Y951230D01*
X1045210Y979170D02*
X1184910D01*
X1016000Y1012190D02*
X1200150D01*
X1205230Y972820D02*
Y1007110D01*
X1200150Y1012190D02*
X1205230Y1007110D01*
X1201420Y962660D02*
X1219200D01*
X952500Y1004570D02*
X952540Y1004530D01*
X947420Y1004570D02*
X952500D01*
X939800Y996950D02*
X947420Y1004570D01*
X939800Y979388D02*
Y996950D01*
X951230Y995680D02*
X955040Y999490D01*
X951230Y977900D02*
Y995680D01*
X882432Y927100D02*
X883920Y928588D01*
Y934720D01*
X868680Y927100D02*
X882432D01*
X852170Y910590D02*
X868680Y927100D01*
X777240Y1051560D02*
X805180Y1023620D01*
X763270Y1051560D02*
X777240D01*
X805180Y1023620D02*
X843280D01*
X868680Y998220D01*
X938312Y977900D02*
X939800Y979388D01*
D17*
X933450Y1003541D02*
Y1026160D01*
X895350Y878840D02*
X914400Y897890D01*
Y939800D01*
X932180Y985520D02*
Y1002271D01*
X933450Y1003541D01*
D83*
X961390Y900430D02*
D03*
X878840Y887730D02*
D03*
X882650Y913130D02*
D03*
X995680Y906780D02*
D03*
X974090Y883920D02*
D03*
X1002030Y920750D02*
D03*
X1151890Y993140D02*
D03*
X891540Y935990D02*
D03*
X832928Y922492D02*
D03*
X895350Y1029970D02*
D03*
X999490Y929640D02*
D03*
X858520Y985520D02*
D03*
X872490D02*
D03*
X924560Y1022350D02*
D03*
X941070Y1021080D02*
D03*
X933450Y1026160D02*
D03*
X908050Y1037590D02*
D03*
X922020Y1038860D02*
D03*
X928370Y1042670D02*
D03*
X924560Y1047750D02*
D03*
X956310Y1018540D02*
D03*
X961390Y1023620D02*
D03*
X957580Y1012190D02*
D03*
X1137920Y972820D02*
D03*
X1016000Y967740D02*
D03*
X948690Y939800D02*
D03*
X957580Y894080D02*
D03*
X1013460Y949960D02*
D03*
X1021080Y915670D02*
D03*
X895350Y878840D02*
D03*
X991870Y948690D02*
D03*
X966470Y1009650D02*
D03*
X948690Y1022350D02*
D03*
X852170Y963930D02*
D03*
X838200Y935990D02*
D03*
X895350Y1059180D02*
D03*
X951230Y897890D02*
D03*
X972820Y966470D02*
D03*
X746760Y919480D02*
D03*
X897890Y1040130D02*
D03*
X830580Y1078230D02*
D03*
X902970Y1026160D02*
D03*
X972820Y1009650D02*
D03*
X955040Y999490D02*
D03*
X664210Y1003300D02*
D03*
X932180Y985520D02*
D03*
X806450Y887730D02*
D03*
X895350Y891540D02*
D03*
X872490Y913130D02*
D03*
X848360Y1037590D02*
D03*
Y1068070D02*
D03*
X816610Y1036320D02*
D03*
X855980Y1074420D02*
D03*
X902970Y1004570D02*
D03*
X881380Y1022350D02*
D03*
X673100Y970280D02*
D03*
D85*
X878992Y949312D02*
Y949487D01*
X880364Y950859D02*
Y951230D01*
X878992Y949487D02*
X880364Y950859D01*
X789940Y858520D02*
X790702D01*
X789734Y860107D02*
X825348Y895721D01*
X795782Y858520D02*
X829310Y892048D01*
X825348Y895721D02*
Y900801D01*
X829310Y892048D02*
Y899160D01*
X825348Y900801D02*
X840588Y916041D01*
X829310Y899160D02*
X844550Y914400D01*
X840588Y916041D02*
Y928741D01*
X844550Y914400D02*
Y927100D01*
X862178Y944728D02*
X874408D01*
X844550Y927100D02*
X862178Y944728D01*
X840588Y928741D02*
X860536Y948690D01*
X872767D01*
X874408Y944728D02*
X878992Y949312D01*
X875030Y950953D02*
Y951230D01*
X872767Y948690D02*
X875030Y950953D01*
D93*
X676910Y1018230D02*
D03*
Y960430D02*
D03*
D94*
X982980Y853440D02*
D03*
X929640Y852170D02*
D03*
X885190Y842010D02*
D03*
X990600Y1021080D02*
D03*
X934720Y970280D02*
D03*
X923290Y976630D02*
D03*
X918210Y971550D02*
D03*
X1156970Y1000760D02*
D03*
X1140460Y986790D02*
D03*
X1045210Y1000760D02*
D03*
X1016000Y1012190D02*
D03*
X1230630Y1071880D02*
D03*
X1003300Y781050D02*
D03*
X1022350D02*
D03*
X1042670D02*
D03*
X1062990D02*
D03*
X1083310D02*
D03*
X1103630D02*
D03*
X1123950Y782320D02*
D03*
X1144270Y781050D02*
D03*
X1164590Y782320D02*
D03*
X1198880Y773430D02*
D03*
X1230630Y974090D02*
D03*
X1045210Y979170D02*
D03*
X1205230Y972820D02*
D03*
X980440Y1009650D02*
D03*
D95*
X795782Y858520D02*
D03*
X789940D02*
D03*
Y792480D02*
D03*
X782320D02*
D03*
X899160Y945820D02*
D03*
Y940486D02*
D03*
X875030Y951230D02*
D03*
X880364D02*
D03*
X857319Y908847D02*
D03*
X855188Y928352D02*
D03*
X873760Y938530D02*
D03*
X878801Y935073D02*
D03*
X921231Y941029D02*
D03*
X890270Y969010D02*
D03*
X891540Y962660D02*
D03*
X882650Y957580D02*
D03*
X952540Y1004530D02*
D03*
X678180Y991870D02*
D03*
X675640Y982980D02*
D03*
X984250Y985520D02*
D03*
X985520Y990600D02*
D03*
X796290Y1060450D02*
D03*
X852170Y910590D02*
D03*
X801370Y1040130D02*
D03*
X788670Y966470D02*
D03*
X789940Y1003300D02*
D03*
X763270Y1051560D02*
D03*
X957580Y972820D02*
D03*
Y930910D02*
D03*
Y977900D02*
D03*
X956310Y939800D02*
D03*
X800100Y932180D02*
D03*
X939800Y1045210D02*
D03*
Y1050290D02*
D03*
X979170Y996950D02*
D03*
X910590Y1026160D02*
D03*
X939800Y1009650D02*
D03*
X878840Y920750D02*
D03*
X807720Y930910D02*
D03*
X816610Y927100D02*
D03*
X864489Y928326D02*
D03*
X927100Y1013460D02*
D03*
X944880Y1038860D02*
D03*
X923290Y1009650D02*
D03*
X855980Y1029970D02*
D03*
X890270Y986790D02*
D03*
X869950Y1035050D02*
D03*
X883920Y986790D02*
D03*
X866140Y1031240D02*
D03*
X914400Y939800D02*
D03*
X889000Y915670D02*
D03*
D96*
X722630Y1040130D02*
D03*
X707390Y951230D02*
D03*
D97*
X1186180Y894080D02*
D03*
X1211580Y868680D02*
D03*
Y919480D02*
D03*
X1160780D02*
D03*
Y868680D02*
D03*
M02*
