M48
;Layer_Color=9474304
;FILE_FORMAT=4:4
METRIC,LZ
;TYPE=PLATED
T1F00S00C0.2032
T2F00S00C0.7112
T3F00S00C1.4986
T4F00S00C1.7018
;TYPE=NON_PLATED
T5F00S00C0.6500
%
T01
X0119888Y0077343
X0116459Y0078232
X0114427Y0078105
X0112395Y0078232
X0110363Y0078105
X0108331
X0106299
X0104267
X0102235
X010033
X0074676Y0091948
X0078867Y0096647
X0078994Y010033
X0076327Y0105156
X0067818Y0099187
X0067564Y0098298
X006731Y0097028
X0066421Y010033
X0080137Y0104013
X0081661Y0103632
X0084836Y0103759
X0085598Y0102997
X0086614Y0103124
X0086995Y0103505
X0088138Y0102235
X0089789Y0102997
X0090297Y0102616
X0091059
X00907669Y0102997
X0089789Y0104013
X0089535Y0105918
X0092583Y0104775
X0092837Y0104267
X0092329Y0103886
Y0102362
X0092202Y0101854
X009271Y0101346
X0092329Y0100965
X009398
X0094107Y0101727
X0094869Y0102235
X0095504Y0101727
X0096012
X0095758Y0101219
X0096647Y0100965
X0097282
X0098044
X0097917Y0099695
X0098552Y009906
X0098425Y0098552
X0097282Y0096647
X0095758Y0097282
Y009779
X0095504Y0099949
X0095254Y0100453
X0093218Y0098552
X0089027Y0098679
X0088392
X0087376
X0085979Y00985686
X0085217Y0096393
X00874725Y0095123
X00878789
X0088265Y0095758
X0089154Y0096266
Y0096901
X0090043Y00945185
Y00941121
X0089154Y0093599
X0087884Y0093472
X0087376Y0093853
X00864489Y00928326
X0085598Y0092837
X0085725Y0091059
X0085217
X0087249Y0091313
X0087884Y0092075
X00889Y0091567
X0089535Y0089154
Y0087884
X0095123Y0089789
X0096012Y0089408
X0095377Y0092329
X0095758Y0093091
X0095631Y009398
X0094996Y0093599
X0092075Y0094107
X009144Y009398
X0090297Y0100457
X0094488Y0103886
X009398Y0104521
Y0105029
X0085598Y0107442
X0084836Y0106807
X0083058Y0107823
X0079629Y0106045
X008001Y0093218
X0080772Y0093091
X0081661Y009271
X0083312Y0092329
X008382Y0093599
X0080645Y0088773
X0100203Y0092075
X0099822Y0092456
X0099187Y0094869
X0101346Y0094996
X0101854Y0096774
X0104521Y0097917
Y0100076
X0101854Y0101219
X0102108Y0091567
X0113665Y0097282
X0114046Y0098679
X0115697Y0100076
X0120523Y0097282
X0123063Y0097409
Y0106934
T02
X0070739Y0095123
X0072263Y0104013
T03
X0118618Y0089408
T04
X0116078Y0086868
Y0091948
X0121158
Y0086868
T05
X0067691Y0096043
Y0101823
M30
