G04*
G04 #@! TF.GenerationSoftware,Altium Limited,Altium Designer,22.11.1 (43)*
G04*
G04 Layer_Color=8421504*
%FSLAX44Y44*%
%MOMM*%
G71*
G04*
G04 #@! TF.SameCoordinates,E8DFFA77-AAD4-42D3-BC67-82D9B879F82B*
G04*
G04*
G04 #@! TF.FilePolarity,Positive*
G04*
G01*
G75*
%ADD19R,0.2540X0.2540*%
%ADD20R,1.2700X3.1800*%
%ADD21R,1.2700X3.6830*%
%ADD22R,0.3800X0.2692*%
%ADD23R,0.2540X0.2540*%
%ADD24R,1.6000X0.9000*%
G04:AMPARAMS|DCode=25|XSize=0.6mm|YSize=0.54mm|CornerRadius=0.1431mm|HoleSize=0mm|Usage=FLASHONLY|Rotation=270.000|XOffset=0mm|YOffset=0mm|HoleType=Round|Shape=RoundedRectangle|*
%AMROUNDEDRECTD25*
21,1,0.6000,0.2538,0,0,270.0*
21,1,0.3138,0.5400,0,0,270.0*
1,1,0.2862,-0.1269,-0.1569*
1,1,0.2862,-0.1269,0.1569*
1,1,0.2862,0.1269,0.1569*
1,1,0.2862,0.1269,-0.1569*
%
%ADD25ROUNDEDRECTD25*%
G04:AMPARAMS|DCode=26|XSize=0.6mm|YSize=0.54mm|CornerRadius=0.1431mm|HoleSize=0mm|Usage=FLASHONLY|Rotation=0.000|XOffset=0mm|YOffset=0mm|HoleType=Round|Shape=RoundedRectangle|*
%AMROUNDEDRECTD26*
21,1,0.6000,0.2538,0,0,0.0*
21,1,0.3138,0.5400,0,0,0.0*
1,1,0.2862,0.1569,-0.1269*
1,1,0.2862,-0.1569,-0.1269*
1,1,0.2862,-0.1569,0.1269*
1,1,0.2862,0.1569,0.1269*
%
%ADD26ROUNDEDRECTD26*%
%ADD27R,0.4000X0.2032*%
%ADD28C,0.3810*%
%ADD29R,1.6000X0.8000*%
%ADD30R,0.8000X0.8000*%
%ADD31R,1.3000X1.1000*%
%ADD32R,0.9779X0.5588*%
%ADD33R,0.5100X0.7300*%
%ADD34R,0.2794X0.2540*%
%ADD35R,0.2540X0.2794*%
%ADD36R,0.3000X0.5000*%
%ADD37C,0.2286*%
%ADD38R,0.5900X0.3500*%
%ADD39R,0.3500X0.5900*%
%ADD40R,1.5240X1.5240*%
%ADD41R,0.4000X0.4000*%
%ADD42R,2.2000X1.0000*%
%ADD43R,1.1500X0.6000*%
%ADD44R,1.1500X0.3000*%
%ADD45R,2.0000X2.1800*%
G04:AMPARAMS|DCode=46|XSize=0.81mm|YSize=0.27mm|CornerRadius=0.0338mm|HoleSize=0mm|Usage=FLASHONLY|Rotation=180.000|XOffset=0mm|YOffset=0mm|HoleType=Round|Shape=RoundedRectangle|*
%AMROUNDEDRECTD46*
21,1,0.8100,0.2025,0,0,180.0*
21,1,0.7425,0.2700,0,0,180.0*
1,1,0.0675,-0.3713,0.1013*
1,1,0.0675,0.3713,0.1013*
1,1,0.0675,0.3713,-0.1013*
1,1,0.0675,-0.3713,-0.1013*
%
%ADD46ROUNDEDRECTD46*%
G04:AMPARAMS|DCode=47|XSize=0.27mm|YSize=0.81mm|CornerRadius=0.0338mm|HoleSize=0mm|Usage=FLASHONLY|Rotation=180.000|XOffset=0mm|YOffset=0mm|HoleType=Round|Shape=RoundedRectangle|*
%AMROUNDEDRECTD47*
21,1,0.2700,0.7425,0,0,180.0*
21,1,0.2025,0.8100,0,0,180.0*
1,1,0.0675,-0.1013,0.3713*
1,1,0.0675,0.1013,0.3713*
1,1,0.0675,0.1013,-0.3713*
1,1,0.0675,-0.1013,-0.3713*
%
%ADD47ROUNDEDRECTD47*%
%ADD48R,2.3400X2.3400*%
%ADD49R,0.6000X1.3200*%
G36*
X872100Y1020650D02*
X870100D01*
Y1026150D01*
X872100D01*
Y1020650D01*
D02*
G37*
G36*
X867100D02*
X865100D01*
Y1026150D01*
X867100D01*
Y1020650D01*
D02*
G37*
G36*
X862100D02*
X860100D01*
Y1026150D01*
X862100D01*
Y1020650D01*
D02*
G37*
G36*
X857100D02*
X855100D01*
Y1026150D01*
X857100D01*
Y1020650D01*
D02*
G37*
G36*
X869600Y1008650D02*
X864600D01*
Y1010650D01*
X869600D01*
Y1008650D01*
D02*
G37*
G36*
X862600D02*
X857600D01*
Y1010650D01*
X862600D01*
Y1008650D01*
D02*
G37*
G36*
X872100Y993150D02*
X870100D01*
Y998650D01*
X872100D01*
Y993150D01*
D02*
G37*
G36*
X867100D02*
X865100D01*
Y998650D01*
X867100D01*
Y993150D01*
D02*
G37*
G36*
X862100D02*
X860100D01*
Y998650D01*
X862100D01*
Y993150D01*
D02*
G37*
G36*
X857100D02*
X855100D01*
Y998650D01*
X857100D01*
Y993150D01*
D02*
G37*
D19*
X795156Y852424D02*
D03*
Y846074D02*
D03*
X789940Y852424D02*
D03*
Y846074D02*
D03*
X975360Y1015746D02*
D03*
Y1022096D02*
D03*
X967740Y1015746D02*
D03*
Y1022096D02*
D03*
X868680Y931164D02*
D03*
Y924814D02*
D03*
X859790Y931164D02*
D03*
Y924814D02*
D03*
X849917Y931319D02*
D03*
Y924969D02*
D03*
D20*
X1205230Y690250D02*
D03*
Y744850D02*
D03*
X1179830Y690250D02*
D03*
Y744850D02*
D03*
X1154430Y690250D02*
D03*
Y744850D02*
D03*
X1129030Y690250D02*
D03*
Y744850D02*
D03*
X1103630Y690250D02*
D03*
Y744850D02*
D03*
X1078230Y690250D02*
D03*
Y744850D02*
D03*
X1052830Y690250D02*
D03*
Y744850D02*
D03*
X1027430Y690250D02*
D03*
Y744850D02*
D03*
X1002030Y690250D02*
D03*
Y744850D02*
D03*
X976630Y690250D02*
D03*
Y744850D02*
D03*
X951230Y690250D02*
D03*
Y744850D02*
D03*
X925830Y690250D02*
D03*
Y744850D02*
D03*
X900430Y690250D02*
D03*
Y744850D02*
D03*
X875030Y690250D02*
D03*
Y744850D02*
D03*
X849630Y690250D02*
D03*
Y744850D02*
D03*
X824230Y690250D02*
D03*
Y744850D02*
D03*
X798830Y690250D02*
D03*
Y744850D02*
D03*
X773430Y690250D02*
D03*
Y744850D02*
D03*
X748030Y690250D02*
D03*
Y744850D02*
D03*
X722630Y690250D02*
D03*
Y744850D02*
D03*
D21*
X1179830Y1045210D02*
D03*
X1205230D02*
D03*
X1230630D02*
D03*
X1179830Y1000810D02*
D03*
X1205230D02*
D03*
X1230630D02*
D03*
D22*
X1157510Y946150D02*
D03*
X1151890D02*
D03*
X985517Y957866D02*
D03*
X979896D02*
D03*
D23*
X882396Y941070D02*
D03*
X888746D02*
D03*
X1008126Y929640D02*
D03*
X1014476D02*
D03*
X1008126Y923290D02*
D03*
X1014476D02*
D03*
X1141984Y967740D02*
D03*
X1135634D02*
D03*
X1144270Y1023620D02*
D03*
X1137920D02*
D03*
X1144524Y1012190D02*
D03*
X1138174D02*
D03*
X1144524Y1000760D02*
D03*
X1138174D02*
D03*
X884936Y924560D02*
D03*
X878586D02*
D03*
X884936Y930910D02*
D03*
X878586D02*
D03*
D24*
X1030960Y1023170D02*
D03*
Y1012170D02*
D03*
Y1001170D02*
D03*
Y990170D02*
D03*
Y979170D02*
D03*
Y968170D02*
D03*
Y957170D02*
D03*
Y946170D02*
D03*
Y935170D02*
D03*
X1122960D02*
D03*
Y946170D02*
D03*
Y957170D02*
D03*
Y968170D02*
D03*
Y979170D02*
D03*
Y990170D02*
D03*
Y1001170D02*
D03*
Y1012170D02*
D03*
Y1023170D02*
D03*
D25*
X1013460Y941070D02*
D03*
X1004860D02*
D03*
X988550Y939800D02*
D03*
X979950D02*
D03*
X970770D02*
D03*
X962170D02*
D03*
X976340Y1060450D02*
D03*
X967740D02*
D03*
X965980Y894429D02*
D03*
X974580D02*
D03*
X979950Y926179D02*
D03*
X988550D02*
D03*
X972040Y1002030D02*
D03*
X963440D02*
D03*
X757410Y1051560D02*
D03*
X748810D02*
D03*
X867900Y886460D02*
D03*
X859300D02*
D03*
X933940Y1068070D02*
D03*
X925340D02*
D03*
X946930D02*
D03*
X955530D02*
D03*
X932670Y895350D02*
D03*
X924070D02*
D03*
X901210D02*
D03*
X909810D02*
D03*
X963440Y990600D02*
D03*
X972040D02*
D03*
X962170Y926179D02*
D03*
X970770D02*
D03*
X746760Y910590D02*
D03*
X755360D02*
D03*
D26*
X1010920Y906290D02*
D03*
Y914890D02*
D03*
X1151890Y977410D02*
D03*
Y986010D02*
D03*
Y959630D02*
D03*
Y968230D02*
D03*
X871220Y1042180D02*
D03*
Y1050780D02*
D03*
X849502Y944390D02*
D03*
X955040Y906290D02*
D03*
Y914890D02*
D03*
X986854Y906290D02*
D03*
Y914890D02*
D03*
X855980Y1059960D02*
D03*
Y1068560D02*
D03*
X902970Y1020300D02*
D03*
Y1011700D02*
D03*
X887730Y1002520D02*
D03*
Y993920D02*
D03*
X933450Y1020300D02*
D03*
Y1011700D02*
D03*
X943610Y906290D02*
D03*
Y914890D02*
D03*
Y923580D02*
D03*
Y932180D02*
D03*
X875221Y897400D02*
D03*
Y906000D02*
D03*
X808990Y1062500D02*
D03*
Y1071100D02*
D03*
Y1044720D02*
D03*
Y1053320D02*
D03*
X915670Y1020300D02*
D03*
Y1011700D02*
D03*
X849502Y952990D02*
D03*
X835660D02*
D03*
Y944390D02*
D03*
X821690Y952990D02*
D03*
Y944390D02*
D03*
X807720Y952990D02*
D03*
Y944390D02*
D03*
X855980Y1042180D02*
D03*
Y1050780D02*
D03*
D27*
X1143628Y940057D02*
D03*
Y946169D02*
D03*
X1165713Y940067D02*
D03*
Y946179D02*
D03*
X999032Y957870D02*
D03*
Y951758D02*
D03*
X969039Y957870D02*
D03*
Y951758D02*
D03*
D28*
X1017270Y979170D02*
D03*
Y990600D02*
D03*
X891540Y924560D02*
D03*
Y930910D02*
D03*
X894080Y1010920D02*
D03*
D29*
X1003300Y1045990D02*
D03*
Y1079990D02*
D03*
D30*
X864680Y946270D02*
D03*
Y961270D02*
D03*
D31*
X904940Y910480D02*
D03*
X927940D02*
D03*
Y928480D02*
D03*
X904940D02*
D03*
D32*
X801687Y969670D02*
D03*
Y979170D02*
D03*
Y988670D02*
D03*
X828992D02*
D03*
Y979170D02*
D03*
Y969670D02*
D03*
D33*
X976150Y976630D02*
D03*
X966950D02*
D03*
D34*
X846836Y901780D02*
D03*
Y906780D02*
D03*
Y911780D02*
D03*
X862584D02*
D03*
Y906780D02*
D03*
Y901780D02*
D03*
D35*
X852210Y914654D02*
D03*
X857210D02*
D03*
Y898906D02*
D03*
X852210D02*
D03*
D36*
X968820Y1033130D02*
D03*
X976820D02*
D03*
Y1047130D02*
D03*
X968820D02*
D03*
D37*
X966280Y906399D02*
D03*
Y910399D02*
D03*
Y914400D02*
D03*
X970280Y906399D02*
D03*
Y910399D02*
D03*
Y914400D02*
D03*
X974280Y906399D02*
D03*
Y910399D02*
D03*
Y914400D02*
D03*
D38*
X953870Y1043773D02*
D03*
X915570D02*
D03*
D39*
X949720Y1032122D02*
D03*
X944720D02*
D03*
X939720D02*
D03*
X934720D02*
D03*
X929720D02*
D03*
X924720D02*
D03*
X919720D02*
D03*
Y1055423D02*
D03*
X924720D02*
D03*
X929720D02*
D03*
X934720D02*
D03*
X939720D02*
D03*
X944720D02*
D03*
X949720D02*
D03*
D40*
X778256Y1073150D02*
D03*
X727710D02*
D03*
X777240Y889000D02*
D03*
X726694D02*
D03*
D41*
X798260Y920050D02*
D03*
X806260D02*
D03*
X814260D02*
D03*
X822260D02*
D03*
Y896050D02*
D03*
X814260D02*
D03*
X806260D02*
D03*
X798260D02*
D03*
D42*
X816610Y1026775D02*
D03*
Y1007765D02*
D03*
D43*
X687660Y1021330D02*
D03*
Y1013330D02*
D03*
Y965330D02*
D03*
Y957330D02*
D03*
D44*
Y1006830D02*
D03*
Y971830D02*
D03*
Y1001830D02*
D03*
Y976830D02*
D03*
Y996830D02*
D03*
Y981830D02*
D03*
Y991830D02*
D03*
Y986830D02*
D03*
D45*
X681910Y1040430D02*
D03*
Y938230D02*
D03*
X642610Y1040430D02*
D03*
Y938230D02*
D03*
D46*
X950280Y957860D02*
D03*
Y962860D02*
D03*
Y967860D02*
D03*
Y972860D02*
D03*
Y977860D02*
D03*
Y982860D02*
D03*
Y987860D02*
D03*
Y992860D02*
D03*
X901380D02*
D03*
Y987860D02*
D03*
Y982860D02*
D03*
Y977860D02*
D03*
Y972860D02*
D03*
Y967860D02*
D03*
Y962860D02*
D03*
Y957860D02*
D03*
D47*
X943330Y999810D02*
D03*
X938330D02*
D03*
X933330D02*
D03*
X928330D02*
D03*
X923330D02*
D03*
X918330D02*
D03*
X913330D02*
D03*
X908330D02*
D03*
Y950910D02*
D03*
X913330D02*
D03*
X918330D02*
D03*
X923330D02*
D03*
X928330D02*
D03*
X933330D02*
D03*
X938330D02*
D03*
X943330D02*
D03*
D48*
X925830Y975360D02*
D03*
D49*
X822350Y1047680D02*
D03*
X831850D02*
D03*
X841350D02*
D03*
Y1070680D02*
D03*
X822350D02*
D03*
M02*
