G04*
G04 #@! TF.GenerationSoftware,Altium Limited,Altium Designer,22.11.1 (43)*
G04*
G04 Layer_Color=8388736*
%FSLAX44Y44*%
%MOMM*%
G71*
G04*
G04 #@! TF.SameCoordinates,81CC0E8B-20A0-439E-BAEA-CE75FBAB7F8A*
G04*
G04*
G04 #@! TF.FilePolarity,Negative*
G04*
G01*
G75*
%ADD22R,1.2700X3.6830*%
%ADD32R,0.9779X0.5588*%
%ADD34R,0.2794X0.2540*%
%ADD35R,0.2540X0.2794*%
%ADD37C,0.2286*%
%ADD50R,0.9987X0.3944*%
%ADD51R,0.3944X0.9987*%
%ADD52R,0.3556X0.3556*%
%ADD53R,0.3556X0.3556*%
%ADD54R,1.3716X3.2816*%
%ADD55R,0.4816X0.3708*%
%ADD56R,1.7016X1.0016*%
G04:AMPARAMS|DCode=57|XSize=0.7016mm|YSize=0.6416mm|CornerRadius=0.1939mm|HoleSize=0mm|Usage=FLASHONLY|Rotation=270.000|XOffset=0mm|YOffset=0mm|HoleType=Round|Shape=RoundedRectangle|*
%AMROUNDEDRECTD57*
21,1,0.7016,0.2538,0,0,270.0*
21,1,0.3138,0.6416,0,0,270.0*
1,1,0.3878,-0.1269,-0.1569*
1,1,0.3878,-0.1269,0.1569*
1,1,0.3878,0.1269,0.1569*
1,1,0.3878,0.1269,-0.1569*
%
%ADD57ROUNDEDRECTD57*%
G04:AMPARAMS|DCode=58|XSize=0.7016mm|YSize=0.6416mm|CornerRadius=0.1939mm|HoleSize=0mm|Usage=FLASHONLY|Rotation=0.000|XOffset=0mm|YOffset=0mm|HoleType=Round|Shape=RoundedRectangle|*
%AMROUNDEDRECTD58*
21,1,0.7016,0.2538,0,0,0.0*
21,1,0.3138,0.6416,0,0,0.0*
1,1,0.3878,0.1569,-0.1269*
1,1,0.3878,-0.1569,-0.1269*
1,1,0.3878,-0.1569,0.1269*
1,1,0.3878,0.1569,0.1269*
%
%ADD58ROUNDEDRECTD58*%
%ADD59R,0.5016X0.3048*%
%ADD60C,0.4318*%
%ADD61R,1.7016X0.9016*%
%ADD62R,0.9016X0.9016*%
%ADD63R,1.4016X1.2016*%
%ADD64R,0.6116X0.8316*%
%ADD65R,0.4016X0.6016*%
%ADD66R,0.6916X0.4516*%
%ADD67R,0.4516X0.6916*%
%ADD68R,1.6256X1.6256*%
%ADD69R,0.4016X0.7016*%
%ADD70R,1.8016X0.4016*%
%ADD71R,0.5016X0.5016*%
%ADD72R,2.3016X1.1016*%
%ADD73R,1.2516X0.7016*%
%ADD74R,1.2516X0.4016*%
%ADD75R,2.1016X2.2816*%
%ADD76R,3.8000X3.8000*%
%ADD77R,0.7016X1.4216*%
%ADD78C,2.0066*%
%ADD79C,2.2098*%
%ADD80C,0.7516*%
%ADD81C,0.6096*%
%ADD82C,0.7366*%
%ADD83C,0.5080*%
%ADD84C,1.3716*%
G36*
X897540Y956020D02*
X897500Y956030D01*
X897450Y956040D01*
X897410Y956050D01*
X897370Y956070D01*
X897330Y956080D01*
X897290Y956100D01*
X897250Y956120D01*
X897210Y956150D01*
X897180Y956170D01*
X897140Y956200D01*
X897110Y956230D01*
X897080Y956260D01*
X897050Y956290D01*
X897020Y956320D01*
X896990Y956360D01*
X896970Y956390D01*
X896940Y956430D01*
X896920Y956470D01*
X896900Y956510D01*
X896890Y956550D01*
X896870Y956590D01*
X896860Y956630D01*
X896850Y956680D01*
X896840Y956720D01*
X896830Y956760D01*
Y956810D01*
Y956850D01*
Y958870D01*
Y958910D01*
Y958960D01*
X896840Y959000D01*
X896850Y959040D01*
X896860Y959090D01*
X896870Y959130D01*
X896890Y959170D01*
X896900Y959210D01*
X896920Y959250D01*
X896940Y959290D01*
X896970Y959330D01*
X896990Y959360D01*
X897020Y959400D01*
X897050Y959430D01*
X897080Y959460D01*
X897110Y959490D01*
X897140Y959520D01*
X897180Y959550D01*
X897210Y959570D01*
X897250Y959600D01*
X897290Y959620D01*
X897330Y959640D01*
X897370Y959650D01*
X897410Y959670D01*
X897450Y959680D01*
X897500Y959690D01*
X897540Y959700D01*
X897580Y959710D01*
X905180D01*
X905220Y959700D01*
X905260Y959690D01*
X905310Y959680D01*
X905350Y959670D01*
X905390Y959650D01*
X905430Y959640D01*
X905470Y959620D01*
X905510Y959600D01*
X905550Y959570D01*
X905580Y959550D01*
X905620Y959520D01*
X905650Y959490D01*
X905680Y959460D01*
X905710Y959430D01*
X905740Y959400D01*
X905770Y959360D01*
X905790Y959330D01*
X905820Y959290D01*
X905840Y959250D01*
X905860Y959210D01*
X905870Y959170D01*
X905890Y959130D01*
X905900Y959090D01*
X905910Y959040D01*
X905920Y959000D01*
X905930Y958960D01*
Y958910D01*
Y958870D01*
Y956850D01*
Y956810D01*
Y956760D01*
X905920Y956720D01*
X905910Y956680D01*
X905900Y956630D01*
X905890Y956590D01*
X905870Y956550D01*
X905860Y956510D01*
X905840Y956470D01*
X905820Y956430D01*
X905790Y956390D01*
X905770Y956360D01*
X905740Y956320D01*
X905710Y956290D01*
X905680Y956260D01*
X905650Y956230D01*
X905620Y956200D01*
X905580Y956170D01*
X905550Y956150D01*
X905510Y956120D01*
X905470Y956100D01*
X905430Y956080D01*
X905390Y956070D01*
X905350Y956050D01*
X905310Y956040D01*
X905260Y956030D01*
X905220Y956020D01*
X905180Y956010D01*
X897580D01*
X897540Y956020D01*
D02*
G37*
G36*
Y961020D02*
X897500Y961030D01*
X897450Y961040D01*
X897410Y961050D01*
X897370Y961070D01*
X897330Y961080D01*
X897290Y961100D01*
X897250Y961120D01*
X897210Y961150D01*
X897180Y961170D01*
X897140Y961200D01*
X897110Y961230D01*
X897080Y961260D01*
X897050Y961290D01*
X897020Y961320D01*
X896990Y961360D01*
X896970Y961390D01*
X896940Y961430D01*
X896920Y961470D01*
X896900Y961510D01*
X896890Y961550D01*
X896870Y961590D01*
X896860Y961630D01*
X896850Y961680D01*
X896840Y961720D01*
X896830Y961760D01*
Y961810D01*
Y961850D01*
Y963870D01*
Y963910D01*
Y963960D01*
X896840Y964000D01*
X896850Y964040D01*
X896860Y964090D01*
X896870Y964130D01*
X896890Y964170D01*
X896900Y964210D01*
X896920Y964250D01*
X896940Y964290D01*
X896970Y964330D01*
X896990Y964360D01*
X897020Y964400D01*
X897050Y964430D01*
X897080Y964460D01*
X897110Y964490D01*
X897140Y964520D01*
X897180Y964550D01*
X897210Y964570D01*
X897250Y964600D01*
X897290Y964620D01*
X897330Y964640D01*
X897370Y964650D01*
X897410Y964670D01*
X897450Y964680D01*
X897500Y964690D01*
X897540Y964700D01*
X897580Y964710D01*
X905180D01*
X905220Y964700D01*
X905260Y964690D01*
X905310Y964680D01*
X905350Y964670D01*
X905390Y964650D01*
X905430Y964640D01*
X905470Y964620D01*
X905510Y964600D01*
X905550Y964570D01*
X905580Y964550D01*
X905620Y964520D01*
X905650Y964490D01*
X905680Y964460D01*
X905710Y964430D01*
X905740Y964400D01*
X905770Y964360D01*
X905790Y964330D01*
X905820Y964290D01*
X905840Y964250D01*
X905860Y964210D01*
X905870Y964170D01*
X905890Y964130D01*
X905900Y964090D01*
X905910Y964040D01*
X905920Y964000D01*
X905930Y963960D01*
Y963910D01*
Y963870D01*
Y961850D01*
Y961810D01*
Y961760D01*
X905920Y961720D01*
X905910Y961680D01*
X905900Y961630D01*
X905890Y961590D01*
X905870Y961550D01*
X905860Y961510D01*
X905840Y961470D01*
X905820Y961430D01*
X905790Y961390D01*
X905770Y961360D01*
X905740Y961320D01*
X905710Y961290D01*
X905680Y961260D01*
X905650Y961230D01*
X905620Y961200D01*
X905580Y961170D01*
X905550Y961150D01*
X905510Y961120D01*
X905470Y961100D01*
X905430Y961080D01*
X905390Y961070D01*
X905350Y961050D01*
X905310Y961040D01*
X905260Y961030D01*
X905220Y961020D01*
X905180Y961010D01*
X897580D01*
X897540Y961020D01*
D02*
G37*
G36*
Y971020D02*
X897500Y971030D01*
X897450Y971040D01*
X897410Y971050D01*
X897370Y971070D01*
X897330Y971080D01*
X897290Y971100D01*
X897250Y971120D01*
X897210Y971150D01*
X897180Y971170D01*
X897140Y971200D01*
X897110Y971230D01*
X897080Y971260D01*
X897050Y971290D01*
X897020Y971320D01*
X896990Y971360D01*
X896970Y971390D01*
X896940Y971430D01*
X896920Y971470D01*
X896900Y971510D01*
X896890Y971550D01*
X896870Y971590D01*
X896860Y971630D01*
X896850Y971680D01*
X896840Y971720D01*
X896830Y971760D01*
Y971810D01*
Y971850D01*
Y973870D01*
Y973910D01*
Y973960D01*
X896840Y974000D01*
X896850Y974040D01*
X896860Y974090D01*
X896870Y974130D01*
X896890Y974170D01*
X896900Y974210D01*
X896920Y974250D01*
X896940Y974290D01*
X896970Y974330D01*
X896990Y974360D01*
X897020Y974400D01*
X897050Y974430D01*
X897080Y974460D01*
X897110Y974490D01*
X897140Y974520D01*
X897180Y974550D01*
X897210Y974570D01*
X897250Y974600D01*
X897290Y974620D01*
X897330Y974640D01*
X897370Y974650D01*
X897410Y974670D01*
X897450Y974680D01*
X897500Y974690D01*
X897540Y974700D01*
X897580Y974710D01*
X905180D01*
X905220Y974700D01*
X905260Y974690D01*
X905310Y974680D01*
X905350Y974670D01*
X905390Y974650D01*
X905430Y974640D01*
X905470Y974620D01*
X905510Y974600D01*
X905550Y974570D01*
X905580Y974550D01*
X905620Y974520D01*
X905650Y974490D01*
X905680Y974460D01*
X905710Y974430D01*
X905740Y974400D01*
X905770Y974360D01*
X905790Y974330D01*
X905820Y974290D01*
X905840Y974250D01*
X905860Y974210D01*
X905870Y974170D01*
X905890Y974130D01*
X905900Y974090D01*
X905910Y974040D01*
X905920Y974000D01*
X905930Y973960D01*
Y973910D01*
Y973870D01*
Y971850D01*
Y971810D01*
Y971760D01*
X905920Y971720D01*
X905910Y971680D01*
X905900Y971630D01*
X905890Y971590D01*
X905870Y971550D01*
X905860Y971510D01*
X905840Y971470D01*
X905820Y971430D01*
X905790Y971390D01*
X905770Y971360D01*
X905740Y971320D01*
X905710Y971290D01*
X905680Y971260D01*
X905650Y971230D01*
X905620Y971200D01*
X905580Y971170D01*
X905550Y971150D01*
X905510Y971120D01*
X905470Y971100D01*
X905430Y971080D01*
X905390Y971070D01*
X905350Y971050D01*
X905310Y971040D01*
X905260Y971030D01*
X905220Y971020D01*
X905180Y971010D01*
X897580D01*
X897540Y971020D01*
D02*
G37*
G36*
Y966020D02*
X897500Y966030D01*
X897450Y966040D01*
X897410Y966050D01*
X897370Y966070D01*
X897330Y966080D01*
X897290Y966100D01*
X897250Y966120D01*
X897210Y966150D01*
X897180Y966170D01*
X897140Y966200D01*
X897110Y966230D01*
X897080Y966260D01*
X897050Y966290D01*
X897020Y966320D01*
X896990Y966360D01*
X896970Y966390D01*
X896940Y966430D01*
X896920Y966470D01*
X896900Y966510D01*
X896890Y966550D01*
X896870Y966590D01*
X896860Y966630D01*
X896850Y966680D01*
X896840Y966720D01*
X896830Y966760D01*
Y966810D01*
Y966850D01*
Y968870D01*
Y968910D01*
Y968960D01*
X896840Y969000D01*
X896850Y969040D01*
X896860Y969090D01*
X896870Y969130D01*
X896890Y969170D01*
X896900Y969210D01*
X896920Y969250D01*
X896940Y969290D01*
X896970Y969330D01*
X896990Y969360D01*
X897020Y969400D01*
X897050Y969430D01*
X897080Y969460D01*
X897110Y969490D01*
X897140Y969520D01*
X897180Y969550D01*
X897210Y969570D01*
X897250Y969600D01*
X897290Y969620D01*
X897330Y969640D01*
X897370Y969650D01*
X897410Y969670D01*
X897450Y969680D01*
X897500Y969690D01*
X897540Y969700D01*
X897580Y969710D01*
X905180D01*
X905220Y969700D01*
X905260Y969690D01*
X905310Y969680D01*
X905350Y969670D01*
X905390Y969650D01*
X905430Y969640D01*
X905470Y969620D01*
X905510Y969600D01*
X905550Y969570D01*
X905580Y969550D01*
X905620Y969520D01*
X905650Y969490D01*
X905680Y969460D01*
X905710Y969430D01*
X905740Y969400D01*
X905770Y969360D01*
X905790Y969330D01*
X905820Y969290D01*
X905840Y969250D01*
X905860Y969210D01*
X905870Y969170D01*
X905890Y969130D01*
X905900Y969090D01*
X905910Y969040D01*
X905920Y969000D01*
X905930Y968960D01*
Y968910D01*
Y968870D01*
Y966850D01*
Y966810D01*
Y966760D01*
X905920Y966720D01*
X905910Y966680D01*
X905900Y966630D01*
X905890Y966590D01*
X905870Y966550D01*
X905860Y966510D01*
X905840Y966470D01*
X905820Y966430D01*
X905790Y966390D01*
X905770Y966360D01*
X905740Y966320D01*
X905710Y966290D01*
X905680Y966260D01*
X905650Y966230D01*
X905620Y966200D01*
X905580Y966170D01*
X905550Y966150D01*
X905510Y966120D01*
X905470Y966100D01*
X905430Y966080D01*
X905390Y966070D01*
X905350Y966050D01*
X905310Y966040D01*
X905260Y966030D01*
X905220Y966020D01*
X905180Y966010D01*
X897580D01*
X897540Y966020D01*
D02*
G37*
G36*
X907190Y946370D02*
X907150Y946380D01*
X907100Y946390D01*
X907060Y946400D01*
X907020Y946420D01*
X906980Y946430D01*
X906940Y946450D01*
X906900Y946470D01*
X906860Y946500D01*
X906830Y946520D01*
X906790Y946550D01*
X906760Y946580D01*
X906730Y946610D01*
X906700Y946640D01*
X906670Y946670D01*
X906640Y946710D01*
X906620Y946740D01*
X906590Y946780D01*
X906570Y946820D01*
X906550Y946860D01*
X906540Y946900D01*
X906520Y946940D01*
X906510Y946980D01*
X906500Y947030D01*
X906490Y947070D01*
X906480Y947110D01*
Y947160D01*
Y947200D01*
Y954620D01*
Y954660D01*
Y954710D01*
X906490Y954750D01*
X906500Y954790D01*
X906510Y954840D01*
X906520Y954880D01*
X906540Y954920D01*
X906550Y954960D01*
X906570Y955000D01*
X906590Y955040D01*
X906620Y955080D01*
X906640Y955110D01*
X906670Y955150D01*
X906700Y955180D01*
X906730Y955210D01*
X906760Y955240D01*
X906790Y955270D01*
X906830Y955300D01*
X906860Y955320D01*
X906900Y955350D01*
X906940Y955370D01*
X906980Y955390D01*
X907020Y955400D01*
X907060Y955420D01*
X907100Y955430D01*
X907150Y955440D01*
X907190Y955450D01*
X907230Y955460D01*
X909430D01*
X909470Y955450D01*
X909510Y955440D01*
X909560Y955430D01*
X909600Y955420D01*
X909640Y955400D01*
X909680Y955390D01*
X909720Y955370D01*
X909760Y955350D01*
X909800Y955320D01*
X909830Y955300D01*
X909870Y955270D01*
X909900Y955240D01*
X909930Y955210D01*
X909960Y955180D01*
X909990Y955150D01*
X910020Y955110D01*
X910040Y955080D01*
X910070Y955040D01*
X910090Y955000D01*
X910110Y954960D01*
X910120Y954920D01*
X910140Y954880D01*
X910150Y954840D01*
X910160Y954790D01*
X910170Y954750D01*
X910180Y954710D01*
Y954660D01*
Y954620D01*
Y947200D01*
Y947160D01*
Y947110D01*
X910170Y947070D01*
X910160Y947030D01*
X910150Y946980D01*
X910140Y946940D01*
X910120Y946900D01*
X910110Y946860D01*
X910090Y946820D01*
X910070Y946780D01*
X910040Y946740D01*
X910020Y946710D01*
X909990Y946670D01*
X909960Y946640D01*
X909930Y946610D01*
X909900Y946580D01*
X909870Y946550D01*
X909830Y946520D01*
X909800Y946500D01*
X909760Y946470D01*
X909720Y946450D01*
X909680Y946430D01*
X909640Y946420D01*
X909600Y946400D01*
X909560Y946390D01*
X909510Y946380D01*
X909470Y946370D01*
X909430Y946360D01*
X907230D01*
X907190Y946370D01*
D02*
G37*
G36*
X912190D02*
X912150Y946380D01*
X912100Y946390D01*
X912060Y946400D01*
X912020Y946420D01*
X911980Y946430D01*
X911940Y946450D01*
X911900Y946470D01*
X911860Y946500D01*
X911830Y946520D01*
X911790Y946550D01*
X911760Y946580D01*
X911730Y946610D01*
X911700Y946640D01*
X911670Y946670D01*
X911640Y946710D01*
X911620Y946740D01*
X911590Y946780D01*
X911570Y946820D01*
X911550Y946860D01*
X911540Y946900D01*
X911520Y946940D01*
X911510Y946980D01*
X911500Y947030D01*
X911490Y947070D01*
X911480Y947110D01*
Y947160D01*
Y947200D01*
Y954620D01*
Y954660D01*
Y954710D01*
X911490Y954750D01*
X911500Y954790D01*
X911510Y954840D01*
X911520Y954880D01*
X911540Y954920D01*
X911550Y954960D01*
X911570Y955000D01*
X911590Y955040D01*
X911620Y955080D01*
X911640Y955110D01*
X911670Y955150D01*
X911700Y955180D01*
X911730Y955210D01*
X911760Y955240D01*
X911790Y955270D01*
X911830Y955300D01*
X911860Y955320D01*
X911900Y955350D01*
X911940Y955370D01*
X911980Y955390D01*
X912020Y955400D01*
X912060Y955420D01*
X912100Y955430D01*
X912150Y955440D01*
X912190Y955450D01*
X912230Y955460D01*
X914430D01*
X914470Y955450D01*
X914510Y955440D01*
X914560Y955430D01*
X914600Y955420D01*
X914640Y955400D01*
X914680Y955390D01*
X914720Y955370D01*
X914760Y955350D01*
X914800Y955320D01*
X914830Y955300D01*
X914870Y955270D01*
X914900Y955240D01*
X914930Y955210D01*
X914960Y955180D01*
X914990Y955150D01*
X915020Y955110D01*
X915040Y955080D01*
X915070Y955040D01*
X915090Y955000D01*
X915110Y954960D01*
X915120Y954920D01*
X915140Y954880D01*
X915150Y954840D01*
X915160Y954790D01*
X915170Y954750D01*
X915180Y954710D01*
Y954660D01*
Y954620D01*
Y947200D01*
Y947160D01*
Y947110D01*
X915170Y947070D01*
X915160Y947030D01*
X915150Y946980D01*
X915140Y946940D01*
X915120Y946900D01*
X915110Y946860D01*
X915090Y946820D01*
X915070Y946780D01*
X915040Y946740D01*
X915020Y946710D01*
X914990Y946670D01*
X914960Y946640D01*
X914930Y946610D01*
X914900Y946580D01*
X914870Y946550D01*
X914830Y946520D01*
X914800Y946500D01*
X914760Y946470D01*
X914720Y946450D01*
X914680Y946430D01*
X914640Y946420D01*
X914600Y946400D01*
X914560Y946390D01*
X914510Y946380D01*
X914470Y946370D01*
X914430Y946360D01*
X912230D01*
X912190Y946370D01*
D02*
G37*
G36*
X922190D02*
X922150Y946380D01*
X922100Y946390D01*
X922060Y946400D01*
X922020Y946420D01*
X921980Y946430D01*
X921940Y946450D01*
X921900Y946470D01*
X921860Y946500D01*
X921830Y946520D01*
X921790Y946550D01*
X921760Y946580D01*
X921730Y946610D01*
X921700Y946640D01*
X921670Y946670D01*
X921640Y946710D01*
X921620Y946740D01*
X921590Y946780D01*
X921570Y946820D01*
X921550Y946860D01*
X921540Y946900D01*
X921520Y946940D01*
X921510Y946980D01*
X921500Y947030D01*
X921490Y947070D01*
X921480Y947110D01*
Y947160D01*
Y947200D01*
Y954620D01*
Y954660D01*
Y954710D01*
X921490Y954750D01*
X921500Y954790D01*
X921510Y954840D01*
X921520Y954880D01*
X921540Y954920D01*
X921550Y954960D01*
X921570Y955000D01*
X921590Y955040D01*
X921620Y955080D01*
X921640Y955110D01*
X921670Y955150D01*
X921700Y955180D01*
X921730Y955210D01*
X921760Y955240D01*
X921790Y955270D01*
X921830Y955300D01*
X921860Y955320D01*
X921900Y955350D01*
X921940Y955370D01*
X921980Y955390D01*
X922020Y955400D01*
X922060Y955420D01*
X922100Y955430D01*
X922150Y955440D01*
X922190Y955450D01*
X922230Y955460D01*
X924430D01*
X924470Y955450D01*
X924510Y955440D01*
X924560Y955430D01*
X924600Y955420D01*
X924640Y955400D01*
X924680Y955390D01*
X924720Y955370D01*
X924760Y955350D01*
X924800Y955320D01*
X924830Y955300D01*
X924870Y955270D01*
X924900Y955240D01*
X924930Y955210D01*
X924960Y955180D01*
X924990Y955150D01*
X925020Y955110D01*
X925040Y955080D01*
X925070Y955040D01*
X925090Y955000D01*
X925110Y954960D01*
X925120Y954920D01*
X925140Y954880D01*
X925150Y954840D01*
X925160Y954790D01*
X925170Y954750D01*
X925180Y954710D01*
Y954660D01*
Y954620D01*
Y947200D01*
Y947160D01*
Y947110D01*
X925170Y947070D01*
X925160Y947030D01*
X925150Y946980D01*
X925140Y946940D01*
X925120Y946900D01*
X925110Y946860D01*
X925090Y946820D01*
X925070Y946780D01*
X925040Y946740D01*
X925020Y946710D01*
X924990Y946670D01*
X924960Y946640D01*
X924930Y946610D01*
X924900Y946580D01*
X924870Y946550D01*
X924830Y946520D01*
X924800Y946500D01*
X924760Y946470D01*
X924720Y946450D01*
X924680Y946430D01*
X924640Y946420D01*
X924600Y946400D01*
X924560Y946390D01*
X924510Y946380D01*
X924470Y946370D01*
X924430Y946360D01*
X922230D01*
X922190Y946370D01*
D02*
G37*
G36*
X917190D02*
X917150Y946380D01*
X917100Y946390D01*
X917060Y946400D01*
X917020Y946420D01*
X916980Y946430D01*
X916940Y946450D01*
X916900Y946470D01*
X916860Y946500D01*
X916830Y946520D01*
X916790Y946550D01*
X916760Y946580D01*
X916730Y946610D01*
X916700Y946640D01*
X916670Y946670D01*
X916640Y946710D01*
X916620Y946740D01*
X916590Y946780D01*
X916570Y946820D01*
X916550Y946860D01*
X916540Y946900D01*
X916520Y946940D01*
X916510Y946980D01*
X916500Y947030D01*
X916490Y947070D01*
X916480Y947110D01*
Y947160D01*
Y947200D01*
Y954620D01*
Y954660D01*
Y954710D01*
X916490Y954750D01*
X916500Y954790D01*
X916510Y954840D01*
X916520Y954880D01*
X916540Y954920D01*
X916550Y954960D01*
X916570Y955000D01*
X916590Y955040D01*
X916620Y955080D01*
X916640Y955110D01*
X916670Y955150D01*
X916700Y955180D01*
X916730Y955210D01*
X916760Y955240D01*
X916790Y955270D01*
X916830Y955300D01*
X916860Y955320D01*
X916900Y955350D01*
X916940Y955370D01*
X916980Y955390D01*
X917020Y955400D01*
X917060Y955420D01*
X917100Y955430D01*
X917150Y955440D01*
X917190Y955450D01*
X917230Y955460D01*
X919430D01*
X919470Y955450D01*
X919510Y955440D01*
X919560Y955430D01*
X919600Y955420D01*
X919640Y955400D01*
X919680Y955390D01*
X919720Y955370D01*
X919760Y955350D01*
X919800Y955320D01*
X919830Y955300D01*
X919870Y955270D01*
X919900Y955240D01*
X919930Y955210D01*
X919960Y955180D01*
X919990Y955150D01*
X920020Y955110D01*
X920040Y955080D01*
X920070Y955040D01*
X920090Y955000D01*
X920110Y954960D01*
X920120Y954920D01*
X920140Y954880D01*
X920150Y954840D01*
X920160Y954790D01*
X920170Y954750D01*
X920180Y954710D01*
Y954660D01*
Y954620D01*
Y947200D01*
Y947160D01*
Y947110D01*
X920170Y947070D01*
X920160Y947030D01*
X920150Y946980D01*
X920140Y946940D01*
X920120Y946900D01*
X920110Y946860D01*
X920090Y946820D01*
X920070Y946780D01*
X920040Y946740D01*
X920020Y946710D01*
X919990Y946670D01*
X919960Y946640D01*
X919930Y946610D01*
X919900Y946580D01*
X919870Y946550D01*
X919830Y946520D01*
X919800Y946500D01*
X919760Y946470D01*
X919720Y946450D01*
X919680Y946430D01*
X919640Y946420D01*
X919600Y946400D01*
X919560Y946390D01*
X919510Y946380D01*
X919470Y946370D01*
X919430Y946360D01*
X917230D01*
X917190Y946370D01*
D02*
G37*
G36*
X897540Y976020D02*
X897500Y976030D01*
X897450Y976040D01*
X897410Y976050D01*
X897370Y976070D01*
X897330Y976080D01*
X897290Y976100D01*
X897250Y976120D01*
X897210Y976150D01*
X897180Y976170D01*
X897140Y976200D01*
X897110Y976230D01*
X897080Y976260D01*
X897050Y976290D01*
X897020Y976320D01*
X896990Y976360D01*
X896970Y976390D01*
X896940Y976430D01*
X896920Y976470D01*
X896900Y976510D01*
X896890Y976550D01*
X896870Y976590D01*
X896860Y976630D01*
X896850Y976680D01*
X896840Y976720D01*
X896830Y976760D01*
Y976810D01*
Y976850D01*
Y978870D01*
Y978910D01*
Y978960D01*
X896840Y979000D01*
X896850Y979040D01*
X896860Y979090D01*
X896870Y979130D01*
X896890Y979170D01*
X896900Y979210D01*
X896920Y979250D01*
X896940Y979290D01*
X896970Y979330D01*
X896990Y979360D01*
X897020Y979400D01*
X897050Y979430D01*
X897080Y979460D01*
X897110Y979490D01*
X897140Y979520D01*
X897180Y979550D01*
X897210Y979570D01*
X897250Y979600D01*
X897290Y979620D01*
X897330Y979640D01*
X897370Y979650D01*
X897410Y979670D01*
X897450Y979680D01*
X897500Y979690D01*
X897540Y979700D01*
X897580Y979710D01*
X905180D01*
X905220Y979700D01*
X905260Y979690D01*
X905310Y979680D01*
X905350Y979670D01*
X905390Y979650D01*
X905430Y979640D01*
X905470Y979620D01*
X905510Y979600D01*
X905550Y979570D01*
X905580Y979550D01*
X905620Y979520D01*
X905650Y979490D01*
X905680Y979460D01*
X905710Y979430D01*
X905740Y979400D01*
X905770Y979360D01*
X905790Y979330D01*
X905820Y979290D01*
X905840Y979250D01*
X905860Y979210D01*
X905870Y979170D01*
X905890Y979130D01*
X905900Y979090D01*
X905910Y979040D01*
X905920Y979000D01*
X905930Y978960D01*
Y978910D01*
Y978870D01*
Y976850D01*
Y976810D01*
Y976760D01*
X905920Y976720D01*
X905910Y976680D01*
X905900Y976630D01*
X905890Y976590D01*
X905870Y976550D01*
X905860Y976510D01*
X905840Y976470D01*
X905820Y976430D01*
X905790Y976390D01*
X905770Y976360D01*
X905740Y976320D01*
X905710Y976290D01*
X905680Y976260D01*
X905650Y976230D01*
X905620Y976200D01*
X905580Y976170D01*
X905550Y976150D01*
X905510Y976120D01*
X905470Y976100D01*
X905430Y976080D01*
X905390Y976070D01*
X905350Y976050D01*
X905310Y976040D01*
X905260Y976030D01*
X905220Y976020D01*
X905180Y976010D01*
X897580D01*
X897540Y976020D01*
D02*
G37*
G36*
Y981020D02*
X897500Y981030D01*
X897450Y981040D01*
X897410Y981050D01*
X897370Y981070D01*
X897330Y981080D01*
X897290Y981100D01*
X897250Y981120D01*
X897210Y981150D01*
X897180Y981170D01*
X897140Y981200D01*
X897110Y981230D01*
X897080Y981260D01*
X897050Y981290D01*
X897020Y981320D01*
X896990Y981360D01*
X896970Y981390D01*
X896940Y981430D01*
X896920Y981470D01*
X896900Y981510D01*
X896890Y981550D01*
X896870Y981590D01*
X896860Y981630D01*
X896850Y981680D01*
X896840Y981720D01*
X896830Y981760D01*
Y981810D01*
Y981850D01*
Y983870D01*
Y983910D01*
Y983960D01*
X896840Y984000D01*
X896850Y984040D01*
X896860Y984090D01*
X896870Y984130D01*
X896890Y984170D01*
X896900Y984210D01*
X896920Y984250D01*
X896940Y984290D01*
X896970Y984330D01*
X896990Y984360D01*
X897020Y984400D01*
X897050Y984430D01*
X897080Y984460D01*
X897110Y984490D01*
X897140Y984520D01*
X897180Y984550D01*
X897210Y984570D01*
X897250Y984600D01*
X897290Y984620D01*
X897330Y984640D01*
X897370Y984650D01*
X897410Y984670D01*
X897450Y984680D01*
X897500Y984690D01*
X897540Y984700D01*
X897580Y984710D01*
X905180D01*
X905220Y984700D01*
X905260Y984690D01*
X905310Y984680D01*
X905350Y984670D01*
X905390Y984650D01*
X905430Y984640D01*
X905470Y984620D01*
X905510Y984600D01*
X905550Y984570D01*
X905580Y984550D01*
X905620Y984520D01*
X905650Y984490D01*
X905680Y984460D01*
X905710Y984430D01*
X905740Y984400D01*
X905770Y984360D01*
X905790Y984330D01*
X905820Y984290D01*
X905840Y984250D01*
X905860Y984210D01*
X905870Y984170D01*
X905890Y984130D01*
X905900Y984090D01*
X905910Y984040D01*
X905920Y984000D01*
X905930Y983960D01*
Y983910D01*
Y983870D01*
Y981850D01*
Y981810D01*
Y981760D01*
X905920Y981720D01*
X905910Y981680D01*
X905900Y981630D01*
X905890Y981590D01*
X905870Y981550D01*
X905860Y981510D01*
X905840Y981470D01*
X905820Y981430D01*
X905790Y981390D01*
X905770Y981360D01*
X905740Y981320D01*
X905710Y981290D01*
X905680Y981260D01*
X905650Y981230D01*
X905620Y981200D01*
X905580Y981170D01*
X905550Y981150D01*
X905510Y981120D01*
X905470Y981100D01*
X905430Y981080D01*
X905390Y981070D01*
X905350Y981050D01*
X905310Y981040D01*
X905260Y981030D01*
X905220Y981020D01*
X905180Y981010D01*
X897580D01*
X897540Y981020D01*
D02*
G37*
G36*
Y986020D02*
X897500Y986030D01*
X897450Y986040D01*
X897410Y986050D01*
X897370Y986070D01*
X897330Y986080D01*
X897290Y986100D01*
X897250Y986120D01*
X897210Y986150D01*
X897180Y986170D01*
X897140Y986200D01*
X897110Y986230D01*
X897080Y986260D01*
X897050Y986290D01*
X897020Y986320D01*
X896990Y986360D01*
X896970Y986390D01*
X896940Y986430D01*
X896920Y986470D01*
X896900Y986510D01*
X896890Y986550D01*
X896870Y986590D01*
X896860Y986630D01*
X896850Y986680D01*
X896840Y986720D01*
X896830Y986760D01*
Y986810D01*
Y986850D01*
Y988870D01*
Y988910D01*
Y988960D01*
X896840Y989000D01*
X896850Y989040D01*
X896860Y989090D01*
X896870Y989130D01*
X896890Y989170D01*
X896900Y989210D01*
X896920Y989250D01*
X896940Y989290D01*
X896970Y989330D01*
X896990Y989360D01*
X897020Y989400D01*
X897050Y989430D01*
X897080Y989460D01*
X897110Y989490D01*
X897140Y989520D01*
X897180Y989550D01*
X897210Y989570D01*
X897250Y989600D01*
X897290Y989620D01*
X897330Y989640D01*
X897370Y989650D01*
X897410Y989670D01*
X897450Y989680D01*
X897500Y989690D01*
X897540Y989700D01*
X897580Y989710D01*
X905180D01*
X905220Y989700D01*
X905260Y989690D01*
X905310Y989680D01*
X905350Y989670D01*
X905390Y989650D01*
X905430Y989640D01*
X905470Y989620D01*
X905510Y989600D01*
X905550Y989570D01*
X905580Y989550D01*
X905620Y989520D01*
X905650Y989490D01*
X905680Y989460D01*
X905710Y989430D01*
X905740Y989400D01*
X905770Y989360D01*
X905790Y989330D01*
X905820Y989290D01*
X905840Y989250D01*
X905860Y989210D01*
X905870Y989170D01*
X905890Y989130D01*
X905900Y989090D01*
X905910Y989040D01*
X905920Y989000D01*
X905930Y988960D01*
Y988910D01*
Y988870D01*
Y986850D01*
Y986810D01*
Y986760D01*
X905920Y986720D01*
X905910Y986680D01*
X905900Y986630D01*
X905890Y986590D01*
X905870Y986550D01*
X905860Y986510D01*
X905840Y986470D01*
X905820Y986430D01*
X905790Y986390D01*
X905770Y986360D01*
X905740Y986320D01*
X905710Y986290D01*
X905680Y986260D01*
X905650Y986230D01*
X905620Y986200D01*
X905580Y986170D01*
X905550Y986150D01*
X905510Y986120D01*
X905470Y986100D01*
X905430Y986080D01*
X905390Y986070D01*
X905350Y986050D01*
X905310Y986040D01*
X905260Y986030D01*
X905220Y986020D01*
X905180Y986010D01*
X897580D01*
X897540Y986020D01*
D02*
G37*
G36*
Y991020D02*
X897500Y991030D01*
X897450Y991040D01*
X897410Y991050D01*
X897370Y991070D01*
X897330Y991080D01*
X897290Y991100D01*
X897250Y991120D01*
X897210Y991150D01*
X897180Y991170D01*
X897140Y991200D01*
X897110Y991230D01*
X897080Y991260D01*
X897050Y991290D01*
X897020Y991320D01*
X896990Y991360D01*
X896970Y991390D01*
X896940Y991430D01*
X896920Y991470D01*
X896900Y991510D01*
X896890Y991550D01*
X896870Y991590D01*
X896860Y991630D01*
X896850Y991680D01*
X896840Y991720D01*
X896830Y991760D01*
Y991810D01*
Y991850D01*
Y993870D01*
Y993910D01*
Y993960D01*
X896840Y994000D01*
X896850Y994040D01*
X896860Y994090D01*
X896870Y994130D01*
X896890Y994170D01*
X896900Y994210D01*
X896920Y994250D01*
X896940Y994290D01*
X896970Y994330D01*
X896990Y994360D01*
X897020Y994400D01*
X897050Y994430D01*
X897080Y994460D01*
X897110Y994490D01*
X897140Y994520D01*
X897180Y994550D01*
X897210Y994570D01*
X897250Y994600D01*
X897290Y994620D01*
X897330Y994640D01*
X897370Y994650D01*
X897410Y994670D01*
X897450Y994680D01*
X897500Y994690D01*
X897540Y994700D01*
X897580Y994710D01*
X905180D01*
X905220Y994700D01*
X905260Y994690D01*
X905310Y994680D01*
X905350Y994670D01*
X905390Y994650D01*
X905430Y994640D01*
X905470Y994620D01*
X905510Y994600D01*
X905550Y994570D01*
X905580Y994550D01*
X905620Y994520D01*
X905650Y994490D01*
X905680Y994460D01*
X905710Y994430D01*
X905740Y994400D01*
X905770Y994360D01*
X905790Y994330D01*
X905820Y994290D01*
X905840Y994250D01*
X905860Y994210D01*
X905870Y994170D01*
X905890Y994130D01*
X905900Y994090D01*
X905910Y994040D01*
X905920Y994000D01*
X905930Y993960D01*
Y993910D01*
Y993870D01*
Y991850D01*
Y991810D01*
Y991760D01*
X905920Y991720D01*
X905910Y991680D01*
X905900Y991630D01*
X905890Y991590D01*
X905870Y991550D01*
X905860Y991510D01*
X905840Y991470D01*
X905820Y991430D01*
X905790Y991390D01*
X905770Y991360D01*
X905740Y991320D01*
X905710Y991290D01*
X905680Y991260D01*
X905650Y991230D01*
X905620Y991200D01*
X905580Y991170D01*
X905550Y991150D01*
X905510Y991120D01*
X905470Y991100D01*
X905430Y991080D01*
X905390Y991070D01*
X905350Y991050D01*
X905310Y991040D01*
X905260Y991030D01*
X905220Y991020D01*
X905180Y991010D01*
X897580D01*
X897540Y991020D01*
D02*
G37*
G36*
X907190Y995270D02*
X907150Y995280D01*
X907100Y995290D01*
X907060Y995300D01*
X907020Y995320D01*
X906980Y995330D01*
X906940Y995350D01*
X906900Y995370D01*
X906860Y995400D01*
X906830Y995420D01*
X906790Y995450D01*
X906760Y995480D01*
X906730Y995510D01*
X906700Y995540D01*
X906670Y995570D01*
X906640Y995610D01*
X906620Y995640D01*
X906590Y995680D01*
X906570Y995720D01*
X906550Y995760D01*
X906540Y995800D01*
X906520Y995840D01*
X906510Y995880D01*
X906500Y995930D01*
X906490Y995970D01*
X906480Y996010D01*
Y996060D01*
Y996100D01*
Y1003520D01*
Y1003560D01*
Y1003610D01*
X906490Y1003650D01*
X906500Y1003690D01*
X906510Y1003740D01*
X906520Y1003780D01*
X906540Y1003820D01*
X906550Y1003860D01*
X906570Y1003900D01*
X906590Y1003940D01*
X906620Y1003980D01*
X906640Y1004010D01*
X906670Y1004050D01*
X906700Y1004080D01*
X906730Y1004110D01*
X906760Y1004140D01*
X906790Y1004170D01*
X906830Y1004200D01*
X906860Y1004220D01*
X906900Y1004250D01*
X906940Y1004270D01*
X906980Y1004290D01*
X907020Y1004300D01*
X907060Y1004320D01*
X907100Y1004330D01*
X907150Y1004340D01*
X907190Y1004350D01*
X907230Y1004360D01*
X909430D01*
X909470Y1004350D01*
X909510Y1004340D01*
X909560Y1004330D01*
X909600Y1004320D01*
X909640Y1004300D01*
X909680Y1004290D01*
X909720Y1004270D01*
X909760Y1004250D01*
X909800Y1004220D01*
X909830Y1004200D01*
X909870Y1004170D01*
X909900Y1004140D01*
X909930Y1004110D01*
X909960Y1004080D01*
X909990Y1004050D01*
X910020Y1004010D01*
X910040Y1003980D01*
X910070Y1003940D01*
X910090Y1003900D01*
X910110Y1003860D01*
X910120Y1003820D01*
X910140Y1003780D01*
X910150Y1003740D01*
X910160Y1003690D01*
X910170Y1003650D01*
X910180Y1003610D01*
Y1003560D01*
Y1003520D01*
Y996100D01*
Y996060D01*
Y996010D01*
X910170Y995970D01*
X910160Y995930D01*
X910150Y995880D01*
X910140Y995840D01*
X910120Y995800D01*
X910110Y995760D01*
X910090Y995720D01*
X910070Y995680D01*
X910040Y995640D01*
X910020Y995610D01*
X909990Y995570D01*
X909960Y995540D01*
X909930Y995510D01*
X909900Y995480D01*
X909870Y995450D01*
X909830Y995420D01*
X909800Y995400D01*
X909760Y995370D01*
X909720Y995350D01*
X909680Y995330D01*
X909640Y995320D01*
X909600Y995300D01*
X909560Y995290D01*
X909510Y995280D01*
X909470Y995270D01*
X909430Y995260D01*
X907230D01*
X907190Y995270D01*
D02*
G37*
G36*
X912190D02*
X912150Y995280D01*
X912100Y995290D01*
X912060Y995300D01*
X912020Y995320D01*
X911980Y995330D01*
X911940Y995350D01*
X911900Y995370D01*
X911860Y995400D01*
X911830Y995420D01*
X911790Y995450D01*
X911760Y995480D01*
X911730Y995510D01*
X911700Y995540D01*
X911670Y995570D01*
X911640Y995610D01*
X911620Y995640D01*
X911590Y995680D01*
X911570Y995720D01*
X911550Y995760D01*
X911540Y995800D01*
X911520Y995840D01*
X911510Y995880D01*
X911500Y995930D01*
X911490Y995970D01*
X911480Y996010D01*
Y996060D01*
Y996100D01*
Y1003520D01*
Y1003560D01*
Y1003610D01*
X911490Y1003650D01*
X911500Y1003690D01*
X911510Y1003740D01*
X911520Y1003780D01*
X911540Y1003820D01*
X911550Y1003860D01*
X911570Y1003900D01*
X911590Y1003940D01*
X911620Y1003980D01*
X911640Y1004010D01*
X911670Y1004050D01*
X911700Y1004080D01*
X911730Y1004110D01*
X911760Y1004140D01*
X911790Y1004170D01*
X911830Y1004200D01*
X911860Y1004220D01*
X911900Y1004250D01*
X911940Y1004270D01*
X911980Y1004290D01*
X912020Y1004300D01*
X912060Y1004320D01*
X912100Y1004330D01*
X912150Y1004340D01*
X912190Y1004350D01*
X912230Y1004360D01*
X914430D01*
X914470Y1004350D01*
X914510Y1004340D01*
X914560Y1004330D01*
X914600Y1004320D01*
X914640Y1004300D01*
X914680Y1004290D01*
X914720Y1004270D01*
X914760Y1004250D01*
X914800Y1004220D01*
X914830Y1004200D01*
X914870Y1004170D01*
X914900Y1004140D01*
X914930Y1004110D01*
X914960Y1004080D01*
X914990Y1004050D01*
X915020Y1004010D01*
X915040Y1003980D01*
X915070Y1003940D01*
X915090Y1003900D01*
X915110Y1003860D01*
X915120Y1003820D01*
X915140Y1003780D01*
X915150Y1003740D01*
X915160Y1003690D01*
X915170Y1003650D01*
X915180Y1003610D01*
Y1003560D01*
Y1003520D01*
Y996100D01*
Y996060D01*
Y996010D01*
X915170Y995970D01*
X915160Y995930D01*
X915150Y995880D01*
X915140Y995840D01*
X915120Y995800D01*
X915110Y995760D01*
X915090Y995720D01*
X915070Y995680D01*
X915040Y995640D01*
X915020Y995610D01*
X914990Y995570D01*
X914960Y995540D01*
X914930Y995510D01*
X914900Y995480D01*
X914870Y995450D01*
X914830Y995420D01*
X914800Y995400D01*
X914760Y995370D01*
X914720Y995350D01*
X914680Y995330D01*
X914640Y995320D01*
X914600Y995300D01*
X914560Y995290D01*
X914510Y995280D01*
X914470Y995270D01*
X914430Y995260D01*
X912230D01*
X912190Y995270D01*
D02*
G37*
G36*
X917190D02*
X917150Y995280D01*
X917100Y995290D01*
X917060Y995300D01*
X917020Y995320D01*
X916980Y995330D01*
X916940Y995350D01*
X916900Y995370D01*
X916860Y995400D01*
X916830Y995420D01*
X916790Y995450D01*
X916760Y995480D01*
X916730Y995510D01*
X916700Y995540D01*
X916670Y995570D01*
X916640Y995610D01*
X916620Y995640D01*
X916590Y995680D01*
X916570Y995720D01*
X916550Y995760D01*
X916540Y995800D01*
X916520Y995840D01*
X916510Y995880D01*
X916500Y995930D01*
X916490Y995970D01*
X916480Y996010D01*
Y996060D01*
Y996100D01*
Y1003520D01*
Y1003560D01*
Y1003610D01*
X916490Y1003650D01*
X916500Y1003690D01*
X916510Y1003740D01*
X916520Y1003780D01*
X916540Y1003820D01*
X916550Y1003860D01*
X916570Y1003900D01*
X916590Y1003940D01*
X916620Y1003980D01*
X916640Y1004010D01*
X916670Y1004050D01*
X916700Y1004080D01*
X916730Y1004110D01*
X916760Y1004140D01*
X916790Y1004170D01*
X916830Y1004200D01*
X916860Y1004220D01*
X916900Y1004250D01*
X916940Y1004270D01*
X916980Y1004290D01*
X917020Y1004300D01*
X917060Y1004320D01*
X917100Y1004330D01*
X917150Y1004340D01*
X917190Y1004350D01*
X917230Y1004360D01*
X919430D01*
X919470Y1004350D01*
X919510Y1004340D01*
X919560Y1004330D01*
X919600Y1004320D01*
X919640Y1004300D01*
X919680Y1004290D01*
X919720Y1004270D01*
X919760Y1004250D01*
X919800Y1004220D01*
X919830Y1004200D01*
X919870Y1004170D01*
X919900Y1004140D01*
X919930Y1004110D01*
X919960Y1004080D01*
X919990Y1004050D01*
X920020Y1004010D01*
X920040Y1003980D01*
X920070Y1003940D01*
X920090Y1003900D01*
X920110Y1003860D01*
X920120Y1003820D01*
X920140Y1003780D01*
X920150Y1003740D01*
X920160Y1003690D01*
X920170Y1003650D01*
X920180Y1003610D01*
Y1003560D01*
Y1003520D01*
Y996100D01*
Y996060D01*
Y996010D01*
X920170Y995970D01*
X920160Y995930D01*
X920150Y995880D01*
X920140Y995840D01*
X920120Y995800D01*
X920110Y995760D01*
X920090Y995720D01*
X920070Y995680D01*
X920040Y995640D01*
X920020Y995610D01*
X919990Y995570D01*
X919960Y995540D01*
X919930Y995510D01*
X919900Y995480D01*
X919870Y995450D01*
X919830Y995420D01*
X919800Y995400D01*
X919760Y995370D01*
X919720Y995350D01*
X919680Y995330D01*
X919640Y995320D01*
X919600Y995300D01*
X919560Y995290D01*
X919510Y995280D01*
X919470Y995270D01*
X919430Y995260D01*
X917230D01*
X917190Y995270D01*
D02*
G37*
G36*
X922190D02*
X922150Y995280D01*
X922100Y995290D01*
X922060Y995300D01*
X922020Y995320D01*
X921980Y995330D01*
X921940Y995350D01*
X921900Y995370D01*
X921860Y995400D01*
X921830Y995420D01*
X921790Y995450D01*
X921760Y995480D01*
X921730Y995510D01*
X921700Y995540D01*
X921670Y995570D01*
X921640Y995610D01*
X921620Y995640D01*
X921590Y995680D01*
X921570Y995720D01*
X921550Y995760D01*
X921540Y995800D01*
X921520Y995840D01*
X921510Y995880D01*
X921500Y995930D01*
X921490Y995970D01*
X921480Y996010D01*
Y996060D01*
Y996100D01*
Y1003520D01*
Y1003560D01*
Y1003610D01*
X921490Y1003650D01*
X921500Y1003690D01*
X921510Y1003740D01*
X921520Y1003780D01*
X921540Y1003820D01*
X921550Y1003860D01*
X921570Y1003900D01*
X921590Y1003940D01*
X921620Y1003980D01*
X921640Y1004010D01*
X921670Y1004050D01*
X921700Y1004080D01*
X921730Y1004110D01*
X921760Y1004140D01*
X921790Y1004170D01*
X921830Y1004200D01*
X921860Y1004220D01*
X921900Y1004250D01*
X921940Y1004270D01*
X921980Y1004290D01*
X922020Y1004300D01*
X922060Y1004320D01*
X922100Y1004330D01*
X922150Y1004340D01*
X922190Y1004350D01*
X922230Y1004360D01*
X924430D01*
X924470Y1004350D01*
X924510Y1004340D01*
X924560Y1004330D01*
X924600Y1004320D01*
X924640Y1004300D01*
X924680Y1004290D01*
X924720Y1004270D01*
X924760Y1004250D01*
X924800Y1004220D01*
X924830Y1004200D01*
X924870Y1004170D01*
X924900Y1004140D01*
X924930Y1004110D01*
X924960Y1004080D01*
X924990Y1004050D01*
X925020Y1004010D01*
X925040Y1003980D01*
X925070Y1003940D01*
X925090Y1003900D01*
X925110Y1003860D01*
X925120Y1003820D01*
X925140Y1003780D01*
X925150Y1003740D01*
X925160Y1003690D01*
X925170Y1003650D01*
X925180Y1003610D01*
Y1003560D01*
Y1003520D01*
Y996100D01*
Y996060D01*
Y996010D01*
X925170Y995970D01*
X925160Y995930D01*
X925150Y995880D01*
X925140Y995840D01*
X925120Y995800D01*
X925110Y995760D01*
X925090Y995720D01*
X925070Y995680D01*
X925040Y995640D01*
X925020Y995610D01*
X924990Y995570D01*
X924960Y995540D01*
X924930Y995510D01*
X924900Y995480D01*
X924870Y995450D01*
X924830Y995420D01*
X924800Y995400D01*
X924760Y995370D01*
X924720Y995350D01*
X924680Y995330D01*
X924640Y995320D01*
X924600Y995300D01*
X924560Y995290D01*
X924510Y995280D01*
X924470Y995270D01*
X924430Y995260D01*
X922230D01*
X922190Y995270D01*
D02*
G37*
G36*
X927190Y946370D02*
X927150Y946380D01*
X927100Y946390D01*
X927060Y946400D01*
X927020Y946420D01*
X926980Y946430D01*
X926940Y946450D01*
X926900Y946470D01*
X926860Y946500D01*
X926830Y946520D01*
X926790Y946550D01*
X926760Y946580D01*
X926730Y946610D01*
X926700Y946640D01*
X926670Y946670D01*
X926640Y946710D01*
X926620Y946740D01*
X926590Y946780D01*
X926570Y946820D01*
X926550Y946860D01*
X926540Y946900D01*
X926520Y946940D01*
X926510Y946980D01*
X926500Y947030D01*
X926490Y947070D01*
X926480Y947110D01*
Y947160D01*
Y947200D01*
Y954620D01*
Y954660D01*
Y954710D01*
X926490Y954750D01*
X926500Y954790D01*
X926510Y954840D01*
X926520Y954880D01*
X926540Y954920D01*
X926550Y954960D01*
X926570Y955000D01*
X926590Y955040D01*
X926620Y955080D01*
X926640Y955110D01*
X926670Y955150D01*
X926700Y955180D01*
X926730Y955210D01*
X926760Y955240D01*
X926790Y955270D01*
X926830Y955300D01*
X926860Y955320D01*
X926900Y955350D01*
X926940Y955370D01*
X926980Y955390D01*
X927020Y955400D01*
X927060Y955420D01*
X927100Y955430D01*
X927150Y955440D01*
X927190Y955450D01*
X927230Y955460D01*
X929430D01*
X929470Y955450D01*
X929510Y955440D01*
X929560Y955430D01*
X929600Y955420D01*
X929640Y955400D01*
X929680Y955390D01*
X929720Y955370D01*
X929760Y955350D01*
X929800Y955320D01*
X929830Y955300D01*
X929870Y955270D01*
X929900Y955240D01*
X929930Y955210D01*
X929960Y955180D01*
X929990Y955150D01*
X930020Y955110D01*
X930040Y955080D01*
X930070Y955040D01*
X930090Y955000D01*
X930110Y954960D01*
X930120Y954920D01*
X930140Y954880D01*
X930150Y954840D01*
X930160Y954790D01*
X930170Y954750D01*
X930180Y954710D01*
Y954660D01*
Y954620D01*
Y947200D01*
Y947160D01*
Y947110D01*
X930170Y947070D01*
X930160Y947030D01*
X930150Y946980D01*
X930140Y946940D01*
X930120Y946900D01*
X930110Y946860D01*
X930090Y946820D01*
X930070Y946780D01*
X930040Y946740D01*
X930020Y946710D01*
X929990Y946670D01*
X929960Y946640D01*
X929930Y946610D01*
X929900Y946580D01*
X929870Y946550D01*
X929830Y946520D01*
X929800Y946500D01*
X929760Y946470D01*
X929720Y946450D01*
X929680Y946430D01*
X929640Y946420D01*
X929600Y946400D01*
X929560Y946390D01*
X929510Y946380D01*
X929470Y946370D01*
X929430Y946360D01*
X927230D01*
X927190Y946370D01*
D02*
G37*
G36*
X932190D02*
X932150Y946380D01*
X932100Y946390D01*
X932060Y946400D01*
X932020Y946420D01*
X931980Y946430D01*
X931940Y946450D01*
X931900Y946470D01*
X931860Y946500D01*
X931830Y946520D01*
X931790Y946550D01*
X931760Y946580D01*
X931730Y946610D01*
X931700Y946640D01*
X931670Y946670D01*
X931640Y946710D01*
X931620Y946740D01*
X931590Y946780D01*
X931570Y946820D01*
X931550Y946860D01*
X931540Y946900D01*
X931520Y946940D01*
X931510Y946980D01*
X931500Y947030D01*
X931490Y947070D01*
X931480Y947110D01*
Y947160D01*
Y947200D01*
Y954620D01*
Y954660D01*
Y954710D01*
X931490Y954750D01*
X931500Y954790D01*
X931510Y954840D01*
X931520Y954880D01*
X931540Y954920D01*
X931550Y954960D01*
X931570Y955000D01*
X931590Y955040D01*
X931620Y955080D01*
X931640Y955110D01*
X931670Y955150D01*
X931700Y955180D01*
X931730Y955210D01*
X931760Y955240D01*
X931790Y955270D01*
X931830Y955300D01*
X931860Y955320D01*
X931900Y955350D01*
X931940Y955370D01*
X931980Y955390D01*
X932020Y955400D01*
X932060Y955420D01*
X932100Y955430D01*
X932150Y955440D01*
X932190Y955450D01*
X932230Y955460D01*
X934430D01*
X934470Y955450D01*
X934510Y955440D01*
X934560Y955430D01*
X934600Y955420D01*
X934640Y955400D01*
X934680Y955390D01*
X934720Y955370D01*
X934760Y955350D01*
X934800Y955320D01*
X934830Y955300D01*
X934870Y955270D01*
X934900Y955240D01*
X934930Y955210D01*
X934960Y955180D01*
X934990Y955150D01*
X935020Y955110D01*
X935040Y955080D01*
X935070Y955040D01*
X935090Y955000D01*
X935110Y954960D01*
X935120Y954920D01*
X935140Y954880D01*
X935150Y954840D01*
X935160Y954790D01*
X935170Y954750D01*
X935180Y954710D01*
Y954660D01*
Y954620D01*
Y947200D01*
Y947160D01*
Y947110D01*
X935170Y947070D01*
X935160Y947030D01*
X935150Y946980D01*
X935140Y946940D01*
X935120Y946900D01*
X935110Y946860D01*
X935090Y946820D01*
X935070Y946780D01*
X935040Y946740D01*
X935020Y946710D01*
X934990Y946670D01*
X934960Y946640D01*
X934930Y946610D01*
X934900Y946580D01*
X934870Y946550D01*
X934830Y946520D01*
X934800Y946500D01*
X934760Y946470D01*
X934720Y946450D01*
X934680Y946430D01*
X934640Y946420D01*
X934600Y946400D01*
X934560Y946390D01*
X934510Y946380D01*
X934470Y946370D01*
X934430Y946360D01*
X932230D01*
X932190Y946370D01*
D02*
G37*
G36*
X937190D02*
X937150Y946380D01*
X937100Y946390D01*
X937060Y946400D01*
X937020Y946420D01*
X936980Y946430D01*
X936940Y946450D01*
X936900Y946470D01*
X936860Y946500D01*
X936830Y946520D01*
X936790Y946550D01*
X936760Y946580D01*
X936730Y946610D01*
X936700Y946640D01*
X936670Y946670D01*
X936640Y946710D01*
X936620Y946740D01*
X936590Y946780D01*
X936570Y946820D01*
X936550Y946860D01*
X936540Y946900D01*
X936520Y946940D01*
X936510Y946980D01*
X936500Y947030D01*
X936490Y947070D01*
X936480Y947110D01*
Y947160D01*
Y947200D01*
Y954620D01*
Y954660D01*
Y954710D01*
X936490Y954750D01*
X936500Y954790D01*
X936510Y954840D01*
X936520Y954880D01*
X936540Y954920D01*
X936550Y954960D01*
X936570Y955000D01*
X936590Y955040D01*
X936620Y955080D01*
X936640Y955110D01*
X936670Y955150D01*
X936700Y955180D01*
X936730Y955210D01*
X936760Y955240D01*
X936790Y955270D01*
X936830Y955300D01*
X936860Y955320D01*
X936900Y955350D01*
X936940Y955370D01*
X936980Y955390D01*
X937020Y955400D01*
X937060Y955420D01*
X937100Y955430D01*
X937150Y955440D01*
X937190Y955450D01*
X937230Y955460D01*
X939430D01*
X939470Y955450D01*
X939510Y955440D01*
X939560Y955430D01*
X939600Y955420D01*
X939640Y955400D01*
X939680Y955390D01*
X939720Y955370D01*
X939760Y955350D01*
X939800Y955320D01*
X939830Y955300D01*
X939870Y955270D01*
X939900Y955240D01*
X939930Y955210D01*
X939960Y955180D01*
X939990Y955150D01*
X940020Y955110D01*
X940040Y955080D01*
X940070Y955040D01*
X940090Y955000D01*
X940110Y954960D01*
X940120Y954920D01*
X940140Y954880D01*
X940150Y954840D01*
X940160Y954790D01*
X940170Y954750D01*
X940180Y954710D01*
Y954660D01*
Y954620D01*
Y947200D01*
Y947160D01*
Y947110D01*
X940170Y947070D01*
X940160Y947030D01*
X940150Y946980D01*
X940140Y946940D01*
X940120Y946900D01*
X940110Y946860D01*
X940090Y946820D01*
X940070Y946780D01*
X940040Y946740D01*
X940020Y946710D01*
X939990Y946670D01*
X939960Y946640D01*
X939930Y946610D01*
X939900Y946580D01*
X939870Y946550D01*
X939830Y946520D01*
X939800Y946500D01*
X939760Y946470D01*
X939720Y946450D01*
X939680Y946430D01*
X939640Y946420D01*
X939600Y946400D01*
X939560Y946390D01*
X939510Y946380D01*
X939470Y946370D01*
X939430Y946360D01*
X937230D01*
X937190Y946370D01*
D02*
G37*
G36*
X942190D02*
X942150Y946380D01*
X942100Y946390D01*
X942060Y946400D01*
X942020Y946420D01*
X941980Y946430D01*
X941940Y946450D01*
X941900Y946470D01*
X941860Y946500D01*
X941830Y946520D01*
X941790Y946550D01*
X941760Y946580D01*
X941730Y946610D01*
X941700Y946640D01*
X941670Y946670D01*
X941640Y946710D01*
X941620Y946740D01*
X941590Y946780D01*
X941570Y946820D01*
X941550Y946860D01*
X941540Y946900D01*
X941520Y946940D01*
X941510Y946980D01*
X941500Y947030D01*
X941490Y947070D01*
X941480Y947110D01*
Y947160D01*
Y947200D01*
Y954620D01*
Y954660D01*
Y954710D01*
X941490Y954750D01*
X941500Y954790D01*
X941510Y954840D01*
X941520Y954880D01*
X941540Y954920D01*
X941550Y954960D01*
X941570Y955000D01*
X941590Y955040D01*
X941620Y955080D01*
X941640Y955110D01*
X941670Y955150D01*
X941700Y955180D01*
X941730Y955210D01*
X941760Y955240D01*
X941790Y955270D01*
X941830Y955300D01*
X941860Y955320D01*
X941900Y955350D01*
X941940Y955370D01*
X941980Y955390D01*
X942020Y955400D01*
X942060Y955420D01*
X942100Y955430D01*
X942150Y955440D01*
X942190Y955450D01*
X942230Y955460D01*
X944430D01*
X944470Y955450D01*
X944510Y955440D01*
X944560Y955430D01*
X944600Y955420D01*
X944640Y955400D01*
X944680Y955390D01*
X944720Y955370D01*
X944760Y955350D01*
X944800Y955320D01*
X944830Y955300D01*
X944870Y955270D01*
X944900Y955240D01*
X944930Y955210D01*
X944960Y955180D01*
X944990Y955150D01*
X945020Y955110D01*
X945040Y955080D01*
X945070Y955040D01*
X945090Y955000D01*
X945110Y954960D01*
X945120Y954920D01*
X945140Y954880D01*
X945150Y954840D01*
X945160Y954790D01*
X945170Y954750D01*
X945180Y954710D01*
Y954660D01*
Y954620D01*
Y947200D01*
Y947160D01*
Y947110D01*
X945170Y947070D01*
X945160Y947030D01*
X945150Y946980D01*
X945140Y946940D01*
X945120Y946900D01*
X945110Y946860D01*
X945090Y946820D01*
X945070Y946780D01*
X945040Y946740D01*
X945020Y946710D01*
X944990Y946670D01*
X944960Y946640D01*
X944930Y946610D01*
X944900Y946580D01*
X944870Y946550D01*
X944830Y946520D01*
X944800Y946500D01*
X944760Y946470D01*
X944720Y946450D01*
X944680Y946430D01*
X944640Y946420D01*
X944600Y946400D01*
X944560Y946390D01*
X944510Y946380D01*
X944470Y946370D01*
X944430Y946360D01*
X942230D01*
X942190Y946370D01*
D02*
G37*
G36*
X946440Y956020D02*
X946400Y956030D01*
X946350Y956040D01*
X946310Y956050D01*
X946270Y956070D01*
X946230Y956080D01*
X946190Y956100D01*
X946150Y956120D01*
X946110Y956150D01*
X946080Y956170D01*
X946040Y956200D01*
X946010Y956230D01*
X945980Y956260D01*
X945950Y956290D01*
X945920Y956320D01*
X945890Y956360D01*
X945870Y956390D01*
X945840Y956430D01*
X945820Y956470D01*
X945800Y956510D01*
X945790Y956550D01*
X945770Y956590D01*
X945760Y956630D01*
X945750Y956680D01*
X945740Y956720D01*
X945730Y956760D01*
Y956810D01*
Y956850D01*
Y958870D01*
Y958910D01*
Y958960D01*
X945740Y959000D01*
X945750Y959040D01*
X945760Y959090D01*
X945770Y959130D01*
X945790Y959170D01*
X945800Y959210D01*
X945820Y959250D01*
X945840Y959290D01*
X945870Y959330D01*
X945890Y959360D01*
X945920Y959400D01*
X945950Y959430D01*
X945980Y959460D01*
X946010Y959490D01*
X946040Y959520D01*
X946080Y959550D01*
X946110Y959570D01*
X946150Y959600D01*
X946190Y959620D01*
X946230Y959640D01*
X946270Y959650D01*
X946310Y959670D01*
X946350Y959680D01*
X946400Y959690D01*
X946440Y959700D01*
X946480Y959710D01*
X954080D01*
X954120Y959700D01*
X954160Y959690D01*
X954210Y959680D01*
X954250Y959670D01*
X954290Y959650D01*
X954330Y959640D01*
X954370Y959620D01*
X954410Y959600D01*
X954450Y959570D01*
X954480Y959550D01*
X954520Y959520D01*
X954550Y959490D01*
X954580Y959460D01*
X954610Y959430D01*
X954640Y959400D01*
X954670Y959360D01*
X954690Y959330D01*
X954720Y959290D01*
X954740Y959250D01*
X954760Y959210D01*
X954770Y959170D01*
X954790Y959130D01*
X954800Y959090D01*
X954810Y959040D01*
X954820Y959000D01*
X954830Y958960D01*
Y958910D01*
Y958870D01*
Y956850D01*
Y956810D01*
Y956760D01*
X954820Y956720D01*
X954810Y956680D01*
X954800Y956630D01*
X954790Y956590D01*
X954770Y956550D01*
X954760Y956510D01*
X954740Y956470D01*
X954720Y956430D01*
X954690Y956390D01*
X954670Y956360D01*
X954640Y956320D01*
X954610Y956290D01*
X954580Y956260D01*
X954550Y956230D01*
X954520Y956200D01*
X954480Y956170D01*
X954450Y956150D01*
X954410Y956120D01*
X954370Y956100D01*
X954330Y956080D01*
X954290Y956070D01*
X954250Y956050D01*
X954210Y956040D01*
X954160Y956030D01*
X954120Y956020D01*
X954080Y956010D01*
X946480D01*
X946440Y956020D01*
D02*
G37*
G36*
Y961020D02*
X946400Y961030D01*
X946350Y961040D01*
X946310Y961050D01*
X946270Y961070D01*
X946230Y961080D01*
X946190Y961100D01*
X946150Y961120D01*
X946110Y961150D01*
X946080Y961170D01*
X946040Y961200D01*
X946010Y961230D01*
X945980Y961260D01*
X945950Y961290D01*
X945920Y961320D01*
X945890Y961360D01*
X945870Y961390D01*
X945840Y961430D01*
X945820Y961470D01*
X945800Y961510D01*
X945790Y961550D01*
X945770Y961590D01*
X945760Y961630D01*
X945750Y961680D01*
X945740Y961720D01*
X945730Y961760D01*
Y961810D01*
Y961850D01*
Y963870D01*
Y963910D01*
Y963960D01*
X945740Y964000D01*
X945750Y964040D01*
X945760Y964090D01*
X945770Y964130D01*
X945790Y964170D01*
X945800Y964210D01*
X945820Y964250D01*
X945840Y964290D01*
X945870Y964330D01*
X945890Y964360D01*
X945920Y964400D01*
X945950Y964430D01*
X945980Y964460D01*
X946010Y964490D01*
X946040Y964520D01*
X946080Y964550D01*
X946110Y964570D01*
X946150Y964600D01*
X946190Y964620D01*
X946230Y964640D01*
X946270Y964650D01*
X946310Y964670D01*
X946350Y964680D01*
X946400Y964690D01*
X946440Y964700D01*
X946480Y964710D01*
X954080D01*
X954120Y964700D01*
X954160Y964690D01*
X954210Y964680D01*
X954250Y964670D01*
X954290Y964650D01*
X954330Y964640D01*
X954370Y964620D01*
X954410Y964600D01*
X954450Y964570D01*
X954480Y964550D01*
X954520Y964520D01*
X954550Y964490D01*
X954580Y964460D01*
X954610Y964430D01*
X954640Y964400D01*
X954670Y964360D01*
X954690Y964330D01*
X954720Y964290D01*
X954740Y964250D01*
X954760Y964210D01*
X954770Y964170D01*
X954790Y964130D01*
X954800Y964090D01*
X954810Y964040D01*
X954820Y964000D01*
X954830Y963960D01*
Y963910D01*
Y963870D01*
Y961850D01*
Y961810D01*
Y961760D01*
X954820Y961720D01*
X954810Y961680D01*
X954800Y961630D01*
X954790Y961590D01*
X954770Y961550D01*
X954760Y961510D01*
X954740Y961470D01*
X954720Y961430D01*
X954690Y961390D01*
X954670Y961360D01*
X954640Y961320D01*
X954610Y961290D01*
X954580Y961260D01*
X954550Y961230D01*
X954520Y961200D01*
X954480Y961170D01*
X954450Y961150D01*
X954410Y961120D01*
X954370Y961100D01*
X954330Y961080D01*
X954290Y961070D01*
X954250Y961050D01*
X954210Y961040D01*
X954160Y961030D01*
X954120Y961020D01*
X954080Y961010D01*
X946480D01*
X946440Y961020D01*
D02*
G37*
G36*
Y966020D02*
X946400Y966030D01*
X946350Y966040D01*
X946310Y966050D01*
X946270Y966070D01*
X946230Y966080D01*
X946190Y966100D01*
X946150Y966120D01*
X946110Y966150D01*
X946080Y966170D01*
X946040Y966200D01*
X946010Y966230D01*
X945980Y966260D01*
X945950Y966290D01*
X945920Y966320D01*
X945890Y966360D01*
X945870Y966390D01*
X945840Y966430D01*
X945820Y966470D01*
X945800Y966510D01*
X945790Y966550D01*
X945770Y966590D01*
X945760Y966630D01*
X945750Y966680D01*
X945740Y966720D01*
X945730Y966760D01*
Y966810D01*
Y966850D01*
Y968870D01*
Y968910D01*
Y968960D01*
X945740Y969000D01*
X945750Y969040D01*
X945760Y969090D01*
X945770Y969130D01*
X945790Y969170D01*
X945800Y969210D01*
X945820Y969250D01*
X945840Y969290D01*
X945870Y969330D01*
X945890Y969360D01*
X945920Y969400D01*
X945950Y969430D01*
X945980Y969460D01*
X946010Y969490D01*
X946040Y969520D01*
X946080Y969550D01*
X946110Y969570D01*
X946150Y969600D01*
X946190Y969620D01*
X946230Y969640D01*
X946270Y969650D01*
X946310Y969670D01*
X946350Y969680D01*
X946400Y969690D01*
X946440Y969700D01*
X946480Y969710D01*
X954080D01*
X954120Y969700D01*
X954160Y969690D01*
X954210Y969680D01*
X954250Y969670D01*
X954290Y969650D01*
X954330Y969640D01*
X954370Y969620D01*
X954410Y969600D01*
X954450Y969570D01*
X954480Y969550D01*
X954520Y969520D01*
X954550Y969490D01*
X954580Y969460D01*
X954610Y969430D01*
X954640Y969400D01*
X954670Y969360D01*
X954690Y969330D01*
X954720Y969290D01*
X954740Y969250D01*
X954760Y969210D01*
X954770Y969170D01*
X954790Y969130D01*
X954800Y969090D01*
X954810Y969040D01*
X954820Y969000D01*
X954830Y968960D01*
Y968910D01*
Y968870D01*
Y966850D01*
Y966810D01*
Y966760D01*
X954820Y966720D01*
X954810Y966680D01*
X954800Y966630D01*
X954790Y966590D01*
X954770Y966550D01*
X954760Y966510D01*
X954740Y966470D01*
X954720Y966430D01*
X954690Y966390D01*
X954670Y966360D01*
X954640Y966320D01*
X954610Y966290D01*
X954580Y966260D01*
X954550Y966230D01*
X954520Y966200D01*
X954480Y966170D01*
X954450Y966150D01*
X954410Y966120D01*
X954370Y966100D01*
X954330Y966080D01*
X954290Y966070D01*
X954250Y966050D01*
X954210Y966040D01*
X954160Y966030D01*
X954120Y966020D01*
X954080Y966010D01*
X946480D01*
X946440Y966020D01*
D02*
G37*
G36*
Y971020D02*
X946400Y971030D01*
X946350Y971040D01*
X946310Y971050D01*
X946270Y971070D01*
X946230Y971080D01*
X946190Y971100D01*
X946150Y971120D01*
X946110Y971150D01*
X946080Y971170D01*
X946040Y971200D01*
X946010Y971230D01*
X945980Y971260D01*
X945950Y971290D01*
X945920Y971320D01*
X945890Y971360D01*
X945870Y971390D01*
X945840Y971430D01*
X945820Y971470D01*
X945800Y971510D01*
X945790Y971550D01*
X945770Y971590D01*
X945760Y971630D01*
X945750Y971680D01*
X945740Y971720D01*
X945730Y971760D01*
Y971810D01*
Y971850D01*
Y973870D01*
Y973910D01*
Y973960D01*
X945740Y974000D01*
X945750Y974040D01*
X945760Y974090D01*
X945770Y974130D01*
X945790Y974170D01*
X945800Y974210D01*
X945820Y974250D01*
X945840Y974290D01*
X945870Y974330D01*
X945890Y974360D01*
X945920Y974400D01*
X945950Y974430D01*
X945980Y974460D01*
X946010Y974490D01*
X946040Y974520D01*
X946080Y974550D01*
X946110Y974570D01*
X946150Y974600D01*
X946190Y974620D01*
X946230Y974640D01*
X946270Y974650D01*
X946310Y974670D01*
X946350Y974680D01*
X946400Y974690D01*
X946440Y974700D01*
X946480Y974710D01*
X954080D01*
X954120Y974700D01*
X954160Y974690D01*
X954210Y974680D01*
X954250Y974670D01*
X954290Y974650D01*
X954330Y974640D01*
X954370Y974620D01*
X954410Y974600D01*
X954450Y974570D01*
X954480Y974550D01*
X954520Y974520D01*
X954550Y974490D01*
X954580Y974460D01*
X954610Y974430D01*
X954640Y974400D01*
X954670Y974360D01*
X954690Y974330D01*
X954720Y974290D01*
X954740Y974250D01*
X954760Y974210D01*
X954770Y974170D01*
X954790Y974130D01*
X954800Y974090D01*
X954810Y974040D01*
X954820Y974000D01*
X954830Y973960D01*
Y973910D01*
Y973870D01*
Y971850D01*
Y971810D01*
Y971760D01*
X954820Y971720D01*
X954810Y971680D01*
X954800Y971630D01*
X954790Y971590D01*
X954770Y971550D01*
X954760Y971510D01*
X954740Y971470D01*
X954720Y971430D01*
X954690Y971390D01*
X954670Y971360D01*
X954640Y971320D01*
X954610Y971290D01*
X954580Y971260D01*
X954550Y971230D01*
X954520Y971200D01*
X954480Y971170D01*
X954450Y971150D01*
X954410Y971120D01*
X954370Y971100D01*
X954330Y971080D01*
X954290Y971070D01*
X954250Y971050D01*
X954210Y971040D01*
X954160Y971030D01*
X954120Y971020D01*
X954080Y971010D01*
X946480D01*
X946440Y971020D01*
D02*
G37*
G36*
X927190Y995270D02*
X927150Y995280D01*
X927100Y995290D01*
X927060Y995300D01*
X927020Y995320D01*
X926980Y995330D01*
X926940Y995350D01*
X926900Y995370D01*
X926860Y995400D01*
X926830Y995420D01*
X926790Y995450D01*
X926760Y995480D01*
X926730Y995510D01*
X926700Y995540D01*
X926670Y995570D01*
X926640Y995610D01*
X926620Y995640D01*
X926590Y995680D01*
X926570Y995720D01*
X926550Y995760D01*
X926540Y995800D01*
X926520Y995840D01*
X926510Y995880D01*
X926500Y995930D01*
X926490Y995970D01*
X926480Y996010D01*
Y996060D01*
Y996100D01*
Y1003520D01*
Y1003560D01*
Y1003610D01*
X926490Y1003650D01*
X926500Y1003690D01*
X926510Y1003740D01*
X926520Y1003780D01*
X926540Y1003820D01*
X926550Y1003860D01*
X926570Y1003900D01*
X926590Y1003940D01*
X926620Y1003980D01*
X926640Y1004010D01*
X926670Y1004050D01*
X926700Y1004080D01*
X926730Y1004110D01*
X926760Y1004140D01*
X926790Y1004170D01*
X926830Y1004200D01*
X926860Y1004220D01*
X926900Y1004250D01*
X926940Y1004270D01*
X926980Y1004290D01*
X927020Y1004300D01*
X927060Y1004320D01*
X927100Y1004330D01*
X927150Y1004340D01*
X927190Y1004350D01*
X927230Y1004360D01*
X929430D01*
X929470Y1004350D01*
X929510Y1004340D01*
X929560Y1004330D01*
X929600Y1004320D01*
X929640Y1004300D01*
X929680Y1004290D01*
X929720Y1004270D01*
X929760Y1004250D01*
X929800Y1004220D01*
X929830Y1004200D01*
X929870Y1004170D01*
X929900Y1004140D01*
X929930Y1004110D01*
X929960Y1004080D01*
X929990Y1004050D01*
X930020Y1004010D01*
X930040Y1003980D01*
X930070Y1003940D01*
X930090Y1003900D01*
X930110Y1003860D01*
X930120Y1003820D01*
X930140Y1003780D01*
X930150Y1003740D01*
X930160Y1003690D01*
X930170Y1003650D01*
X930180Y1003610D01*
Y1003560D01*
Y1003520D01*
Y996100D01*
Y996060D01*
Y996010D01*
X930170Y995970D01*
X930160Y995930D01*
X930150Y995880D01*
X930140Y995840D01*
X930120Y995800D01*
X930110Y995760D01*
X930090Y995720D01*
X930070Y995680D01*
X930040Y995640D01*
X930020Y995610D01*
X929990Y995570D01*
X929960Y995540D01*
X929930Y995510D01*
X929900Y995480D01*
X929870Y995450D01*
X929830Y995420D01*
X929800Y995400D01*
X929760Y995370D01*
X929720Y995350D01*
X929680Y995330D01*
X929640Y995320D01*
X929600Y995300D01*
X929560Y995290D01*
X929510Y995280D01*
X929470Y995270D01*
X929430Y995260D01*
X927230D01*
X927190Y995270D01*
D02*
G37*
G36*
X932190D02*
X932150Y995280D01*
X932100Y995290D01*
X932060Y995300D01*
X932020Y995320D01*
X931980Y995330D01*
X931940Y995350D01*
X931900Y995370D01*
X931860Y995400D01*
X931830Y995420D01*
X931790Y995450D01*
X931760Y995480D01*
X931730Y995510D01*
X931700Y995540D01*
X931670Y995570D01*
X931640Y995610D01*
X931620Y995640D01*
X931590Y995680D01*
X931570Y995720D01*
X931550Y995760D01*
X931540Y995800D01*
X931520Y995840D01*
X931510Y995880D01*
X931500Y995930D01*
X931490Y995970D01*
X931480Y996010D01*
Y996060D01*
Y996100D01*
Y1003520D01*
Y1003560D01*
Y1003610D01*
X931490Y1003650D01*
X931500Y1003690D01*
X931510Y1003740D01*
X931520Y1003780D01*
X931540Y1003820D01*
X931550Y1003860D01*
X931570Y1003900D01*
X931590Y1003940D01*
X931620Y1003980D01*
X931640Y1004010D01*
X931670Y1004050D01*
X931700Y1004080D01*
X931730Y1004110D01*
X931760Y1004140D01*
X931790Y1004170D01*
X931830Y1004200D01*
X931860Y1004220D01*
X931900Y1004250D01*
X931940Y1004270D01*
X931980Y1004290D01*
X932020Y1004300D01*
X932060Y1004320D01*
X932100Y1004330D01*
X932150Y1004340D01*
X932190Y1004350D01*
X932230Y1004360D01*
X934430D01*
X934470Y1004350D01*
X934510Y1004340D01*
X934560Y1004330D01*
X934600Y1004320D01*
X934640Y1004300D01*
X934680Y1004290D01*
X934720Y1004270D01*
X934760Y1004250D01*
X934800Y1004220D01*
X934830Y1004200D01*
X934870Y1004170D01*
X934900Y1004140D01*
X934930Y1004110D01*
X934960Y1004080D01*
X934990Y1004050D01*
X935020Y1004010D01*
X935040Y1003980D01*
X935070Y1003940D01*
X935090Y1003900D01*
X935110Y1003860D01*
X935120Y1003820D01*
X935140Y1003780D01*
X935150Y1003740D01*
X935160Y1003690D01*
X935170Y1003650D01*
X935180Y1003610D01*
Y1003560D01*
Y1003520D01*
Y996100D01*
Y996060D01*
Y996010D01*
X935170Y995970D01*
X935160Y995930D01*
X935150Y995880D01*
X935140Y995840D01*
X935120Y995800D01*
X935110Y995760D01*
X935090Y995720D01*
X935070Y995680D01*
X935040Y995640D01*
X935020Y995610D01*
X934990Y995570D01*
X934960Y995540D01*
X934930Y995510D01*
X934900Y995480D01*
X934870Y995450D01*
X934830Y995420D01*
X934800Y995400D01*
X934760Y995370D01*
X934720Y995350D01*
X934680Y995330D01*
X934640Y995320D01*
X934600Y995300D01*
X934560Y995290D01*
X934510Y995280D01*
X934470Y995270D01*
X934430Y995260D01*
X932230D01*
X932190Y995270D01*
D02*
G37*
G36*
X937190D02*
X937150Y995280D01*
X937100Y995290D01*
X937060Y995300D01*
X937020Y995320D01*
X936980Y995330D01*
X936940Y995350D01*
X936900Y995370D01*
X936860Y995400D01*
X936830Y995420D01*
X936790Y995450D01*
X936760Y995480D01*
X936730Y995510D01*
X936700Y995540D01*
X936670Y995570D01*
X936640Y995610D01*
X936620Y995640D01*
X936590Y995680D01*
X936570Y995720D01*
X936550Y995760D01*
X936540Y995800D01*
X936520Y995840D01*
X936510Y995880D01*
X936500Y995930D01*
X936490Y995970D01*
X936480Y996010D01*
Y996060D01*
Y996100D01*
Y1003520D01*
Y1003560D01*
Y1003610D01*
X936490Y1003650D01*
X936500Y1003690D01*
X936510Y1003740D01*
X936520Y1003780D01*
X936540Y1003820D01*
X936550Y1003860D01*
X936570Y1003900D01*
X936590Y1003940D01*
X936620Y1003980D01*
X936640Y1004010D01*
X936670Y1004050D01*
X936700Y1004080D01*
X936730Y1004110D01*
X936760Y1004140D01*
X936790Y1004170D01*
X936830Y1004200D01*
X936860Y1004220D01*
X936900Y1004250D01*
X936940Y1004270D01*
X936980Y1004290D01*
X937020Y1004300D01*
X937060Y1004320D01*
X937100Y1004330D01*
X937150Y1004340D01*
X937190Y1004350D01*
X937230Y1004360D01*
X939430D01*
X939470Y1004350D01*
X939510Y1004340D01*
X939560Y1004330D01*
X939600Y1004320D01*
X939640Y1004300D01*
X939680Y1004290D01*
X939720Y1004270D01*
X939760Y1004250D01*
X939800Y1004220D01*
X939830Y1004200D01*
X939870Y1004170D01*
X939900Y1004140D01*
X939930Y1004110D01*
X939960Y1004080D01*
X939990Y1004050D01*
X940020Y1004010D01*
X940040Y1003980D01*
X940070Y1003940D01*
X940090Y1003900D01*
X940110Y1003860D01*
X940120Y1003820D01*
X940140Y1003780D01*
X940150Y1003740D01*
X940160Y1003690D01*
X940170Y1003650D01*
X940180Y1003610D01*
Y1003560D01*
Y1003520D01*
Y996100D01*
Y996060D01*
Y996010D01*
X940170Y995970D01*
X940160Y995930D01*
X940150Y995880D01*
X940140Y995840D01*
X940120Y995800D01*
X940110Y995760D01*
X940090Y995720D01*
X940070Y995680D01*
X940040Y995640D01*
X940020Y995610D01*
X939990Y995570D01*
X939960Y995540D01*
X939930Y995510D01*
X939900Y995480D01*
X939870Y995450D01*
X939830Y995420D01*
X939800Y995400D01*
X939760Y995370D01*
X939720Y995350D01*
X939680Y995330D01*
X939640Y995320D01*
X939600Y995300D01*
X939560Y995290D01*
X939510Y995280D01*
X939470Y995270D01*
X939430Y995260D01*
X937230D01*
X937190Y995270D01*
D02*
G37*
G36*
X942190D02*
X942150Y995280D01*
X942100Y995290D01*
X942060Y995300D01*
X942020Y995320D01*
X941980Y995330D01*
X941940Y995350D01*
X941900Y995370D01*
X941860Y995400D01*
X941830Y995420D01*
X941790Y995450D01*
X941760Y995480D01*
X941730Y995510D01*
X941700Y995540D01*
X941670Y995570D01*
X941640Y995610D01*
X941620Y995640D01*
X941590Y995680D01*
X941570Y995720D01*
X941550Y995760D01*
X941540Y995800D01*
X941520Y995840D01*
X941510Y995880D01*
X941500Y995930D01*
X941490Y995970D01*
X941480Y996010D01*
Y996060D01*
Y996100D01*
Y1003520D01*
Y1003560D01*
Y1003610D01*
X941490Y1003650D01*
X941500Y1003690D01*
X941510Y1003740D01*
X941520Y1003780D01*
X941540Y1003820D01*
X941550Y1003860D01*
X941570Y1003900D01*
X941590Y1003940D01*
X941620Y1003980D01*
X941640Y1004010D01*
X941670Y1004050D01*
X941700Y1004080D01*
X941730Y1004110D01*
X941760Y1004140D01*
X941790Y1004170D01*
X941830Y1004200D01*
X941860Y1004220D01*
X941900Y1004250D01*
X941940Y1004270D01*
X941980Y1004290D01*
X942020Y1004300D01*
X942060Y1004320D01*
X942100Y1004330D01*
X942150Y1004340D01*
X942190Y1004350D01*
X942230Y1004360D01*
X944430D01*
X944470Y1004350D01*
X944510Y1004340D01*
X944560Y1004330D01*
X944600Y1004320D01*
X944640Y1004300D01*
X944680Y1004290D01*
X944720Y1004270D01*
X944760Y1004250D01*
X944800Y1004220D01*
X944830Y1004200D01*
X944870Y1004170D01*
X944900Y1004140D01*
X944930Y1004110D01*
X944960Y1004080D01*
X944990Y1004050D01*
X945020Y1004010D01*
X945040Y1003980D01*
X945070Y1003940D01*
X945090Y1003900D01*
X945110Y1003860D01*
X945120Y1003820D01*
X945140Y1003780D01*
X945150Y1003740D01*
X945160Y1003690D01*
X945170Y1003650D01*
X945180Y1003610D01*
Y1003560D01*
Y1003520D01*
Y996100D01*
Y996060D01*
Y996010D01*
X945170Y995970D01*
X945160Y995930D01*
X945150Y995880D01*
X945140Y995840D01*
X945120Y995800D01*
X945110Y995760D01*
X945090Y995720D01*
X945070Y995680D01*
X945040Y995640D01*
X945020Y995610D01*
X944990Y995570D01*
X944960Y995540D01*
X944930Y995510D01*
X944900Y995480D01*
X944870Y995450D01*
X944830Y995420D01*
X944800Y995400D01*
X944760Y995370D01*
X944720Y995350D01*
X944680Y995330D01*
X944640Y995320D01*
X944600Y995300D01*
X944560Y995290D01*
X944510Y995280D01*
X944470Y995270D01*
X944430Y995260D01*
X942230D01*
X942190Y995270D01*
D02*
G37*
G36*
X946440Y976020D02*
X946400Y976030D01*
X946350Y976040D01*
X946310Y976050D01*
X946270Y976070D01*
X946230Y976080D01*
X946190Y976100D01*
X946150Y976120D01*
X946110Y976150D01*
X946080Y976170D01*
X946040Y976200D01*
X946010Y976230D01*
X945980Y976260D01*
X945950Y976290D01*
X945920Y976320D01*
X945890Y976360D01*
X945870Y976390D01*
X945840Y976430D01*
X945820Y976470D01*
X945800Y976510D01*
X945790Y976550D01*
X945770Y976590D01*
X945760Y976630D01*
X945750Y976680D01*
X945740Y976720D01*
X945730Y976760D01*
Y976810D01*
Y976850D01*
Y978870D01*
Y978910D01*
Y978960D01*
X945740Y979000D01*
X945750Y979040D01*
X945760Y979090D01*
X945770Y979130D01*
X945790Y979170D01*
X945800Y979210D01*
X945820Y979250D01*
X945840Y979290D01*
X945870Y979330D01*
X945890Y979360D01*
X945920Y979400D01*
X945950Y979430D01*
X945980Y979460D01*
X946010Y979490D01*
X946040Y979520D01*
X946080Y979550D01*
X946110Y979570D01*
X946150Y979600D01*
X946190Y979620D01*
X946230Y979640D01*
X946270Y979650D01*
X946310Y979670D01*
X946350Y979680D01*
X946400Y979690D01*
X946440Y979700D01*
X946480Y979710D01*
X954080D01*
X954120Y979700D01*
X954160Y979690D01*
X954210Y979680D01*
X954250Y979670D01*
X954290Y979650D01*
X954330Y979640D01*
X954370Y979620D01*
X954410Y979600D01*
X954450Y979570D01*
X954480Y979550D01*
X954520Y979520D01*
X954550Y979490D01*
X954580Y979460D01*
X954610Y979430D01*
X954640Y979400D01*
X954670Y979360D01*
X954690Y979330D01*
X954720Y979290D01*
X954740Y979250D01*
X954760Y979210D01*
X954770Y979170D01*
X954790Y979130D01*
X954800Y979090D01*
X954810Y979040D01*
X954820Y979000D01*
X954830Y978960D01*
Y978910D01*
Y978870D01*
Y976850D01*
Y976810D01*
Y976760D01*
X954820Y976720D01*
X954810Y976680D01*
X954800Y976630D01*
X954790Y976590D01*
X954770Y976550D01*
X954760Y976510D01*
X954740Y976470D01*
X954720Y976430D01*
X954690Y976390D01*
X954670Y976360D01*
X954640Y976320D01*
X954610Y976290D01*
X954580Y976260D01*
X954550Y976230D01*
X954520Y976200D01*
X954480Y976170D01*
X954450Y976150D01*
X954410Y976120D01*
X954370Y976100D01*
X954330Y976080D01*
X954290Y976070D01*
X954250Y976050D01*
X954210Y976040D01*
X954160Y976030D01*
X954120Y976020D01*
X954080Y976010D01*
X946480D01*
X946440Y976020D01*
D02*
G37*
G36*
Y981020D02*
X946400Y981030D01*
X946350Y981040D01*
X946310Y981050D01*
X946270Y981070D01*
X946230Y981080D01*
X946190Y981100D01*
X946150Y981120D01*
X946110Y981150D01*
X946080Y981170D01*
X946040Y981200D01*
X946010Y981230D01*
X945980Y981260D01*
X945950Y981290D01*
X945920Y981320D01*
X945890Y981360D01*
X945870Y981390D01*
X945840Y981430D01*
X945820Y981470D01*
X945800Y981510D01*
X945790Y981550D01*
X945770Y981590D01*
X945760Y981630D01*
X945750Y981680D01*
X945740Y981720D01*
X945730Y981760D01*
Y981810D01*
Y981850D01*
Y983870D01*
Y983910D01*
Y983960D01*
X945740Y984000D01*
X945750Y984040D01*
X945760Y984090D01*
X945770Y984130D01*
X945790Y984170D01*
X945800Y984210D01*
X945820Y984250D01*
X945840Y984290D01*
X945870Y984330D01*
X945890Y984360D01*
X945920Y984400D01*
X945950Y984430D01*
X945980Y984460D01*
X946010Y984490D01*
X946040Y984520D01*
X946080Y984550D01*
X946110Y984570D01*
X946150Y984600D01*
X946190Y984620D01*
X946230Y984640D01*
X946270Y984650D01*
X946310Y984670D01*
X946350Y984680D01*
X946400Y984690D01*
X946440Y984700D01*
X946480Y984710D01*
X954080D01*
X954120Y984700D01*
X954160Y984690D01*
X954210Y984680D01*
X954250Y984670D01*
X954290Y984650D01*
X954330Y984640D01*
X954370Y984620D01*
X954410Y984600D01*
X954450Y984570D01*
X954480Y984550D01*
X954520Y984520D01*
X954550Y984490D01*
X954580Y984460D01*
X954610Y984430D01*
X954640Y984400D01*
X954670Y984360D01*
X954690Y984330D01*
X954720Y984290D01*
X954740Y984250D01*
X954760Y984210D01*
X954770Y984170D01*
X954790Y984130D01*
X954800Y984090D01*
X954810Y984040D01*
X954820Y984000D01*
X954830Y983960D01*
Y983910D01*
Y983870D01*
Y981850D01*
Y981810D01*
Y981760D01*
X954820Y981720D01*
X954810Y981680D01*
X954800Y981630D01*
X954790Y981590D01*
X954770Y981550D01*
X954760Y981510D01*
X954740Y981470D01*
X954720Y981430D01*
X954690Y981390D01*
X954670Y981360D01*
X954640Y981320D01*
X954610Y981290D01*
X954580Y981260D01*
X954550Y981230D01*
X954520Y981200D01*
X954480Y981170D01*
X954450Y981150D01*
X954410Y981120D01*
X954370Y981100D01*
X954330Y981080D01*
X954290Y981070D01*
X954250Y981050D01*
X954210Y981040D01*
X954160Y981030D01*
X954120Y981020D01*
X954080Y981010D01*
X946480D01*
X946440Y981020D01*
D02*
G37*
G36*
Y986020D02*
X946400Y986030D01*
X946350Y986040D01*
X946310Y986050D01*
X946270Y986070D01*
X946230Y986080D01*
X946190Y986100D01*
X946150Y986120D01*
X946110Y986150D01*
X946080Y986170D01*
X946040Y986200D01*
X946010Y986230D01*
X945980Y986260D01*
X945950Y986290D01*
X945920Y986320D01*
X945890Y986360D01*
X945870Y986390D01*
X945840Y986430D01*
X945820Y986470D01*
X945800Y986510D01*
X945790Y986550D01*
X945770Y986590D01*
X945760Y986630D01*
X945750Y986680D01*
X945740Y986720D01*
X945730Y986760D01*
Y986810D01*
Y986850D01*
Y988870D01*
Y988910D01*
Y988960D01*
X945740Y989000D01*
X945750Y989040D01*
X945760Y989090D01*
X945770Y989130D01*
X945790Y989170D01*
X945800Y989210D01*
X945820Y989250D01*
X945840Y989290D01*
X945870Y989330D01*
X945890Y989360D01*
X945920Y989400D01*
X945950Y989430D01*
X945980Y989460D01*
X946010Y989490D01*
X946040Y989520D01*
X946080Y989550D01*
X946110Y989570D01*
X946150Y989600D01*
X946190Y989620D01*
X946230Y989640D01*
X946270Y989650D01*
X946310Y989670D01*
X946350Y989680D01*
X946400Y989690D01*
X946440Y989700D01*
X946480Y989710D01*
X954080D01*
X954120Y989700D01*
X954160Y989690D01*
X954210Y989680D01*
X954250Y989670D01*
X954290Y989650D01*
X954330Y989640D01*
X954370Y989620D01*
X954410Y989600D01*
X954450Y989570D01*
X954480Y989550D01*
X954520Y989520D01*
X954550Y989490D01*
X954580Y989460D01*
X954610Y989430D01*
X954640Y989400D01*
X954670Y989360D01*
X954690Y989330D01*
X954720Y989290D01*
X954740Y989250D01*
X954760Y989210D01*
X954770Y989170D01*
X954790Y989130D01*
X954800Y989090D01*
X954810Y989040D01*
X954820Y989000D01*
X954830Y988960D01*
Y988910D01*
Y988870D01*
Y986850D01*
Y986810D01*
Y986760D01*
X954820Y986720D01*
X954810Y986680D01*
X954800Y986630D01*
X954790Y986590D01*
X954770Y986550D01*
X954760Y986510D01*
X954740Y986470D01*
X954720Y986430D01*
X954690Y986390D01*
X954670Y986360D01*
X954640Y986320D01*
X954610Y986290D01*
X954580Y986260D01*
X954550Y986230D01*
X954520Y986200D01*
X954480Y986170D01*
X954450Y986150D01*
X954410Y986120D01*
X954370Y986100D01*
X954330Y986080D01*
X954290Y986070D01*
X954250Y986050D01*
X954210Y986040D01*
X954160Y986030D01*
X954120Y986020D01*
X954080Y986010D01*
X946480D01*
X946440Y986020D01*
D02*
G37*
G36*
Y991020D02*
X946400Y991030D01*
X946350Y991040D01*
X946310Y991050D01*
X946270Y991070D01*
X946230Y991080D01*
X946190Y991100D01*
X946150Y991120D01*
X946110Y991150D01*
X946080Y991170D01*
X946040Y991200D01*
X946010Y991230D01*
X945980Y991260D01*
X945950Y991290D01*
X945920Y991320D01*
X945890Y991360D01*
X945870Y991390D01*
X945840Y991430D01*
X945820Y991470D01*
X945800Y991510D01*
X945790Y991550D01*
X945770Y991590D01*
X945760Y991630D01*
X945750Y991680D01*
X945740Y991720D01*
X945730Y991760D01*
Y991810D01*
Y991850D01*
Y993870D01*
Y993910D01*
Y993960D01*
X945740Y994000D01*
X945750Y994040D01*
X945760Y994090D01*
X945770Y994130D01*
X945790Y994170D01*
X945800Y994210D01*
X945820Y994250D01*
X945840Y994290D01*
X945870Y994330D01*
X945890Y994360D01*
X945920Y994400D01*
X945950Y994430D01*
X945980Y994460D01*
X946010Y994490D01*
X946040Y994520D01*
X946080Y994550D01*
X946110Y994570D01*
X946150Y994600D01*
X946190Y994620D01*
X946230Y994640D01*
X946270Y994650D01*
X946310Y994670D01*
X946350Y994680D01*
X946400Y994690D01*
X946440Y994700D01*
X946480Y994710D01*
X954080D01*
X954120Y994700D01*
X954160Y994690D01*
X954210Y994680D01*
X954250Y994670D01*
X954290Y994650D01*
X954330Y994640D01*
X954370Y994620D01*
X954410Y994600D01*
X954450Y994570D01*
X954480Y994550D01*
X954520Y994520D01*
X954550Y994490D01*
X954580Y994460D01*
X954610Y994430D01*
X954640Y994400D01*
X954670Y994360D01*
X954690Y994330D01*
X954720Y994290D01*
X954740Y994250D01*
X954760Y994210D01*
X954770Y994170D01*
X954790Y994130D01*
X954800Y994090D01*
X954810Y994040D01*
X954820Y994000D01*
X954830Y993960D01*
Y993910D01*
Y993870D01*
Y991850D01*
Y991810D01*
Y991760D01*
X954820Y991720D01*
X954810Y991680D01*
X954800Y991630D01*
X954790Y991590D01*
X954770Y991550D01*
X954760Y991510D01*
X954740Y991470D01*
X954720Y991430D01*
X954690Y991390D01*
X954670Y991360D01*
X954640Y991320D01*
X954610Y991290D01*
X954580Y991260D01*
X954550Y991230D01*
X954520Y991200D01*
X954480Y991170D01*
X954450Y991150D01*
X954410Y991120D01*
X954370Y991100D01*
X954330Y991080D01*
X954290Y991070D01*
X954250Y991050D01*
X954210Y991040D01*
X954160Y991030D01*
X954120Y991020D01*
X954080Y991010D01*
X946480D01*
X946440Y991020D01*
D02*
G37*
D22*
X1179830Y1045210D02*
D03*
X1205230D02*
D03*
X1230630D02*
D03*
X1179830Y1000810D02*
D03*
X1205230D02*
D03*
X1230630D02*
D03*
D32*
X801687Y969670D02*
D03*
Y979170D02*
D03*
Y988670D02*
D03*
X828992D02*
D03*
Y979170D02*
D03*
Y969670D02*
D03*
D34*
X846836Y901780D02*
D03*
Y906780D02*
D03*
Y911780D02*
D03*
X862584D02*
D03*
Y906780D02*
D03*
Y901780D02*
D03*
D35*
X852210Y914654D02*
D03*
X857210D02*
D03*
Y898906D02*
D03*
X852210D02*
D03*
D37*
X966280Y906399D02*
D03*
Y910399D02*
D03*
Y914400D02*
D03*
X970280Y906399D02*
D03*
Y910399D02*
D03*
Y914400D02*
D03*
X974280Y906399D02*
D03*
Y910399D02*
D03*
Y914400D02*
D03*
D50*
X881381Y930859D02*
D03*
Y924509D02*
D03*
X1010921Y929589D02*
D03*
Y923239D02*
D03*
X1139189Y967791D02*
D03*
X1141475Y1023671D02*
D03*
X1141729Y1012241D02*
D03*
Y1000811D02*
D03*
X885191Y941019D02*
D03*
D51*
X868629Y928369D02*
D03*
X859739D02*
D03*
X849865Y928524D02*
D03*
X975411Y1018541D02*
D03*
X967791D02*
D03*
X795105Y849629D02*
D03*
X789889D02*
D03*
D52*
X878586Y930910D02*
D03*
X884936D02*
D03*
Y924560D02*
D03*
X878586D02*
D03*
X1014476Y929640D02*
D03*
X1008126D02*
D03*
Y923290D02*
D03*
X1014476D02*
D03*
X1135634Y967740D02*
D03*
X1141984D02*
D03*
X1144270Y1023620D02*
D03*
X1137920D02*
D03*
X1138174Y1012190D02*
D03*
X1144524D02*
D03*
Y1000760D02*
D03*
X1138174D02*
D03*
X888746Y941070D02*
D03*
X882396D02*
D03*
D53*
X868680Y931164D02*
D03*
Y924814D02*
D03*
X859790D02*
D03*
Y931164D02*
D03*
X849917Y931319D02*
D03*
Y924969D02*
D03*
X975360Y1022096D02*
D03*
Y1015746D02*
D03*
X967740D02*
D03*
Y1022096D02*
D03*
X795156Y852424D02*
D03*
Y846074D02*
D03*
X789940D02*
D03*
Y852424D02*
D03*
D54*
X1205230Y690250D02*
D03*
Y744850D02*
D03*
X1179830Y690250D02*
D03*
Y744850D02*
D03*
X1154430Y690250D02*
D03*
Y744850D02*
D03*
X1129030Y690250D02*
D03*
Y744850D02*
D03*
X1103630Y690250D02*
D03*
Y744850D02*
D03*
X1078230Y690250D02*
D03*
Y744850D02*
D03*
X1052830Y690250D02*
D03*
Y744850D02*
D03*
X1027430Y690250D02*
D03*
Y744850D02*
D03*
X1002030Y690250D02*
D03*
Y744850D02*
D03*
X976630Y690250D02*
D03*
Y744850D02*
D03*
X951230Y690250D02*
D03*
Y744850D02*
D03*
X925830Y690250D02*
D03*
Y744850D02*
D03*
X900430Y690250D02*
D03*
Y744850D02*
D03*
X875030Y690250D02*
D03*
Y744850D02*
D03*
X849630Y690250D02*
D03*
Y744850D02*
D03*
X824230Y690250D02*
D03*
Y744850D02*
D03*
X798830Y690250D02*
D03*
Y744850D02*
D03*
X773430Y690250D02*
D03*
Y744850D02*
D03*
X748030Y690250D02*
D03*
Y744850D02*
D03*
X722630Y690250D02*
D03*
Y744850D02*
D03*
D55*
X1157510Y946150D02*
D03*
X1151890D02*
D03*
X985517Y957866D02*
D03*
X979896D02*
D03*
D56*
X1030960Y1023170D02*
D03*
Y1012170D02*
D03*
Y1001170D02*
D03*
Y990170D02*
D03*
Y979170D02*
D03*
Y968170D02*
D03*
Y957170D02*
D03*
Y946170D02*
D03*
Y935170D02*
D03*
X1122960D02*
D03*
Y946170D02*
D03*
Y957170D02*
D03*
Y968170D02*
D03*
Y979170D02*
D03*
Y990170D02*
D03*
Y1001170D02*
D03*
Y1012170D02*
D03*
Y1023170D02*
D03*
D57*
X1013460Y941070D02*
D03*
X1004860D02*
D03*
X988550Y939800D02*
D03*
X979950D02*
D03*
X970770D02*
D03*
X962170D02*
D03*
X976340Y1060450D02*
D03*
X967740D02*
D03*
X965980Y894429D02*
D03*
X974580D02*
D03*
X979950Y926179D02*
D03*
X988550D02*
D03*
X972040Y1002030D02*
D03*
X963440D02*
D03*
X757410Y1051560D02*
D03*
X748810D02*
D03*
X867900Y886460D02*
D03*
X859300D02*
D03*
X933940Y1068070D02*
D03*
X925340D02*
D03*
X946930D02*
D03*
X955530D02*
D03*
X932670Y895350D02*
D03*
X924070D02*
D03*
X901210D02*
D03*
X909810D02*
D03*
X963440Y990600D02*
D03*
X972040D02*
D03*
X962170Y926179D02*
D03*
X970770D02*
D03*
X746760Y910590D02*
D03*
X755360D02*
D03*
D58*
X1010920Y906290D02*
D03*
Y914890D02*
D03*
X1151890Y977410D02*
D03*
Y986010D02*
D03*
Y959630D02*
D03*
Y968230D02*
D03*
X871220Y1042180D02*
D03*
Y1050780D02*
D03*
X849502Y944390D02*
D03*
X955040Y906290D02*
D03*
Y914890D02*
D03*
X986854Y906290D02*
D03*
Y914890D02*
D03*
X855980Y1059960D02*
D03*
Y1068560D02*
D03*
X902970Y1020300D02*
D03*
Y1011700D02*
D03*
X887730Y1002520D02*
D03*
Y993920D02*
D03*
X933450Y1020300D02*
D03*
Y1011700D02*
D03*
X943610Y906290D02*
D03*
Y914890D02*
D03*
Y923580D02*
D03*
Y932180D02*
D03*
X875221Y897400D02*
D03*
Y906000D02*
D03*
X808990Y1062500D02*
D03*
Y1071100D02*
D03*
Y1044720D02*
D03*
Y1053320D02*
D03*
X915670Y1020300D02*
D03*
Y1011700D02*
D03*
X849502Y952990D02*
D03*
X835660D02*
D03*
Y944390D02*
D03*
X821690Y952990D02*
D03*
Y944390D02*
D03*
X807720Y952990D02*
D03*
Y944390D02*
D03*
X855980Y1042180D02*
D03*
Y1050780D02*
D03*
D59*
X1143628Y940057D02*
D03*
Y946169D02*
D03*
X1165713Y940067D02*
D03*
Y946179D02*
D03*
X999032Y957870D02*
D03*
Y951758D02*
D03*
X969039Y957870D02*
D03*
Y951758D02*
D03*
D60*
X1017270Y979170D02*
D03*
Y990600D02*
D03*
X891540Y924560D02*
D03*
Y930910D02*
D03*
X894080Y1010920D02*
D03*
D61*
X1003300Y1045990D02*
D03*
Y1079990D02*
D03*
D62*
X864680Y946270D02*
D03*
Y961270D02*
D03*
D63*
X904940Y910480D02*
D03*
X927940D02*
D03*
Y928480D02*
D03*
X904940D02*
D03*
D64*
X976150Y976630D02*
D03*
X966950D02*
D03*
D65*
X968820Y1033130D02*
D03*
X976820D02*
D03*
Y1047130D02*
D03*
X968820D02*
D03*
D66*
X953870Y1043773D02*
D03*
X915570D02*
D03*
D67*
X949720Y1032122D02*
D03*
X944720D02*
D03*
X939720D02*
D03*
X934720D02*
D03*
X929720D02*
D03*
X924720D02*
D03*
X919720D02*
D03*
Y1055423D02*
D03*
X924720D02*
D03*
X929720D02*
D03*
X934720D02*
D03*
X939720D02*
D03*
X944720D02*
D03*
X949720D02*
D03*
D68*
X778256Y1073150D02*
D03*
X727710D02*
D03*
X777240Y889000D02*
D03*
X726694D02*
D03*
D69*
X871100Y997150D02*
D03*
X866100D02*
D03*
X861100D02*
D03*
X856100D02*
D03*
Y1022150D02*
D03*
X861100D02*
D03*
X866100D02*
D03*
X871100D02*
D03*
D70*
X863600Y1009650D02*
D03*
D71*
X798260Y920050D02*
D03*
X806260D02*
D03*
X814260D02*
D03*
X822260D02*
D03*
Y896050D02*
D03*
X814260D02*
D03*
X806260D02*
D03*
X798260D02*
D03*
D72*
X816610Y1026775D02*
D03*
Y1007765D02*
D03*
D73*
X687660Y1021330D02*
D03*
Y1013330D02*
D03*
Y965330D02*
D03*
Y957330D02*
D03*
D74*
Y1006830D02*
D03*
Y971830D02*
D03*
Y1001830D02*
D03*
Y976830D02*
D03*
Y996830D02*
D03*
Y981830D02*
D03*
Y991830D02*
D03*
Y986830D02*
D03*
D75*
X681910Y1040430D02*
D03*
Y938230D02*
D03*
X642610Y1040430D02*
D03*
Y938230D02*
D03*
D76*
X925830Y975360D02*
D03*
D77*
X822350Y1047680D02*
D03*
X831850D02*
D03*
X841350D02*
D03*
Y1070680D02*
D03*
X822350D02*
D03*
D78*
X1186180Y894080D02*
D03*
D79*
X1211580Y868680D02*
D03*
Y919480D02*
D03*
X1160780D02*
D03*
Y868680D02*
D03*
D80*
X676910Y1018230D02*
D03*
Y960430D02*
D03*
D81*
X961390Y900430D02*
D03*
X878840Y887730D02*
D03*
X882650Y913130D02*
D03*
X995680Y906780D02*
D03*
X974090Y883920D02*
D03*
X1002030Y920750D02*
D03*
X1151890Y993140D02*
D03*
X891540Y935990D02*
D03*
X832928Y922492D02*
D03*
X895350Y1029970D02*
D03*
X999490Y929640D02*
D03*
X858520Y985520D02*
D03*
X872490D02*
D03*
X924560Y1022350D02*
D03*
X941070Y1021080D02*
D03*
X933450Y1026160D02*
D03*
X908050Y1037590D02*
D03*
X922020Y1038860D02*
D03*
X928370Y1042670D02*
D03*
X924560Y1047750D02*
D03*
X956310Y1018540D02*
D03*
X961390Y1023620D02*
D03*
X957580Y1012190D02*
D03*
X1137920Y972820D02*
D03*
X1016000Y967740D02*
D03*
X948690Y939800D02*
D03*
X957580Y894080D02*
D03*
X1013460Y949960D02*
D03*
X1021080Y915670D02*
D03*
X895350Y878840D02*
D03*
X991870Y948690D02*
D03*
X966470Y1009650D02*
D03*
X948690Y1022350D02*
D03*
X852170Y963930D02*
D03*
X838200Y935990D02*
D03*
X895350Y1059180D02*
D03*
X951230Y897890D02*
D03*
X972820Y966470D02*
D03*
X746760Y919480D02*
D03*
X897890Y1040130D02*
D03*
X830580Y1078230D02*
D03*
X902970Y1026160D02*
D03*
X972820Y1009650D02*
D03*
X955040Y999490D02*
D03*
X664210Y1003300D02*
D03*
X932180Y985520D02*
D03*
X806450Y887730D02*
D03*
X895350Y891540D02*
D03*
X872490Y913130D02*
D03*
X848360Y1037590D02*
D03*
Y1068070D02*
D03*
X816610Y1036320D02*
D03*
X855980Y1074420D02*
D03*
X902970Y1004570D02*
D03*
X881380Y1022350D02*
D03*
X673100Y970280D02*
D03*
D82*
X982980Y853440D02*
D03*
X929640Y852170D02*
D03*
X885190Y842010D02*
D03*
X990600Y1021080D02*
D03*
X934720Y970280D02*
D03*
X923290Y976630D02*
D03*
X918210Y971550D02*
D03*
X1156970Y1000760D02*
D03*
X1140460Y986790D02*
D03*
X1045210Y1000760D02*
D03*
X1016000Y1012190D02*
D03*
X1230630Y1071880D02*
D03*
X1003300Y781050D02*
D03*
X1022350D02*
D03*
X1042670D02*
D03*
X1062990D02*
D03*
X1083310D02*
D03*
X1103630D02*
D03*
X1123950Y782320D02*
D03*
X1144270Y781050D02*
D03*
X1164590Y782320D02*
D03*
X1198880Y773430D02*
D03*
X1230630Y974090D02*
D03*
X1045210Y979170D02*
D03*
X1205230Y972820D02*
D03*
X980440Y1009650D02*
D03*
D83*
X795782Y858520D02*
D03*
X789940D02*
D03*
Y792480D02*
D03*
X782320D02*
D03*
X899160Y945820D02*
D03*
Y940486D02*
D03*
X875030Y951230D02*
D03*
X880364D02*
D03*
X857319Y908847D02*
D03*
X855188Y928352D02*
D03*
X873760Y938530D02*
D03*
X878801Y935073D02*
D03*
X921231Y941029D02*
D03*
X890270Y969010D02*
D03*
X891540Y962660D02*
D03*
X882650Y957580D02*
D03*
X952540Y1004530D02*
D03*
X678180Y991870D02*
D03*
X675640Y982980D02*
D03*
X984250Y985520D02*
D03*
X985520Y990600D02*
D03*
X796290Y1060450D02*
D03*
X852170Y910590D02*
D03*
X801370Y1040130D02*
D03*
X788670Y966470D02*
D03*
X789940Y1003300D02*
D03*
X763270Y1051560D02*
D03*
X957580Y972820D02*
D03*
Y930910D02*
D03*
Y977900D02*
D03*
X956310Y939800D02*
D03*
X800100Y932180D02*
D03*
X939800Y1045210D02*
D03*
Y1050290D02*
D03*
X979170Y996950D02*
D03*
X910590Y1026160D02*
D03*
X939800Y1009650D02*
D03*
X878840Y920750D02*
D03*
X807720Y930910D02*
D03*
X816610Y927100D02*
D03*
X864489Y928326D02*
D03*
X927100Y1013460D02*
D03*
X944880Y1038860D02*
D03*
X923290Y1009650D02*
D03*
X855980Y1029970D02*
D03*
X890270Y986790D02*
D03*
X869950Y1035050D02*
D03*
X883920Y986790D02*
D03*
X866140Y1031240D02*
D03*
X914400Y939800D02*
D03*
X889000Y915670D02*
D03*
D84*
X722630Y1040130D02*
D03*
X707390Y951230D02*
D03*
M02*
