G04*
G04 #@! TF.GenerationSoftware,Altium Limited,Altium Designer,22.11.1 (43)*
G04*
G04 Layer_Physical_Order=4*
G04 Layer_Color=6736896*
%FSLAX44Y44*%
%MOMM*%
G71*
G04*
G04 #@! TF.SameCoordinates,E8DFFA77-AAD4-42D3-BC67-82D9B879F82B*
G04*
G04*
G04 #@! TF.FilePolarity,Positive*
G04*
G01*
G75*
%ADD13C,0.2540*%
%ADD83C,0.5080*%
%ADD97C,0.6500*%
%ADD98C,0.6350*%
%ADD99C,0.4064*%
%ADD100C,1.2700*%
%ADD101C,0.4572*%
%ADD102C,1.5240*%
G36*
X988060Y993807D02*
X987739Y993526D01*
X986790Y993098D01*
X986076Y993394D01*
X984964D01*
X983937Y992969D01*
X983151Y992183D01*
X982726Y991156D01*
Y990044D01*
X983151Y989017D01*
X983937Y988231D01*
X984964Y987806D01*
X986076D01*
X986790Y988102D01*
X987739Y987674D01*
X988060Y987393D01*
Y863600D01*
X782320D01*
Y1029970D01*
Y1076960D01*
X852191D01*
X852932Y1075690D01*
X852678Y1075077D01*
Y1073763D01*
X853181Y1072550D01*
X854110Y1071621D01*
X855323Y1071118D01*
X856637D01*
X857850Y1071621D01*
X858779Y1072550D01*
X859282Y1073763D01*
Y1075077D01*
X859028Y1075690D01*
X859769Y1076960D01*
X988060D01*
Y993807D01*
D02*
G37*
%LPC*%
G36*
X849017Y1071372D02*
X847703D01*
X846490Y1070869D01*
X845561Y1069940D01*
X845058Y1068727D01*
Y1067413D01*
X845561Y1066200D01*
X846490Y1065271D01*
X847703Y1064768D01*
X849017D01*
X850230Y1065271D01*
X851159Y1066200D01*
X851662Y1067413D01*
Y1068727D01*
X851159Y1069940D01*
X850230Y1070869D01*
X849017Y1071372D01*
D02*
G37*
G36*
X796846Y1063244D02*
X795734D01*
X794707Y1062819D01*
X793921Y1062033D01*
X793496Y1061006D01*
Y1059894D01*
X793921Y1058867D01*
X794707Y1058081D01*
X795734Y1057656D01*
X796846D01*
X797873Y1058081D01*
X798659Y1058867D01*
X799084Y1059894D01*
Y1061006D01*
X798659Y1062033D01*
X797873Y1062819D01*
X796846Y1063244D01*
D02*
G37*
G36*
X940356Y1053084D02*
X939244D01*
X938217Y1052659D01*
X937431Y1051873D01*
X937006Y1050846D01*
Y1049734D01*
X937431Y1048707D01*
X937559Y1048580D01*
X938105Y1047750D01*
X937559Y1046920D01*
X937431Y1046793D01*
X937006Y1045766D01*
Y1044654D01*
X937431Y1043627D01*
X938217Y1042841D01*
X939244Y1042416D01*
X940356D01*
X941383Y1042841D01*
X942169Y1043627D01*
X942594Y1044654D01*
Y1045766D01*
X942169Y1046793D01*
X942041Y1046920D01*
X941495Y1047750D01*
X942041Y1048580D01*
X942169Y1048707D01*
X942594Y1049734D01*
Y1050846D01*
X942169Y1051873D01*
X941383Y1052659D01*
X940356Y1053084D01*
D02*
G37*
G36*
X925217Y1051052D02*
X923903D01*
X922690Y1050549D01*
X921761Y1049620D01*
X921258Y1048407D01*
Y1047093D01*
X921761Y1045880D01*
X922690Y1044951D01*
X923903Y1044448D01*
X924158D01*
X924966Y1043453D01*
X924858Y1042396D01*
X924673Y1042256D01*
X923722Y1041729D01*
X922677Y1042162D01*
X921363D01*
X920150Y1041659D01*
X919221Y1040730D01*
X918718Y1039517D01*
Y1038203D01*
X919221Y1036990D01*
X920150Y1036061D01*
X921363Y1035558D01*
X922677D01*
X923890Y1036061D01*
X924819Y1036990D01*
X925322Y1038203D01*
Y1039252D01*
X926078Y1039748D01*
X926495Y1039875D01*
X926500Y1039871D01*
X927713Y1039368D01*
X929027D01*
X930240Y1039871D01*
X931169Y1040800D01*
X931672Y1042013D01*
Y1043327D01*
X931169Y1044540D01*
X930240Y1045469D01*
X929027Y1045972D01*
X928772D01*
X927862Y1047093D01*
Y1048407D01*
X927359Y1049620D01*
X926430Y1050549D01*
X925217Y1051052D01*
D02*
G37*
G36*
X801926Y1042924D02*
X800814D01*
X799787Y1042499D01*
X799001Y1041713D01*
X798576Y1040686D01*
Y1039574D01*
X799001Y1038547D01*
X799787Y1037761D01*
X800814Y1037336D01*
X801926D01*
X802953Y1037761D01*
X803739Y1038547D01*
X804164Y1039574D01*
Y1040686D01*
X803739Y1041713D01*
X802953Y1042499D01*
X801926Y1042924D01*
D02*
G37*
G36*
X945436Y1041654D02*
X944324D01*
X943297Y1041229D01*
X942511Y1040443D01*
X942086Y1039416D01*
Y1038304D01*
X942511Y1037277D01*
X943297Y1036491D01*
X944324Y1036066D01*
X945436D01*
X946463Y1036491D01*
X947249Y1037277D01*
X947674Y1038304D01*
Y1039416D01*
X947249Y1040443D01*
X946463Y1041229D01*
X945436Y1041654D01*
D02*
G37*
G36*
X908707Y1040892D02*
X907393D01*
X906180Y1040389D01*
X905251Y1039460D01*
X904748Y1038247D01*
Y1036933D01*
X905251Y1035720D01*
X906180Y1034791D01*
X907393Y1034288D01*
X908707D01*
X909920Y1034791D01*
X910849Y1035720D01*
X911352Y1036933D01*
Y1038247D01*
X910849Y1039460D01*
X909920Y1040389D01*
X908707Y1040892D01*
D02*
G37*
G36*
X849017D02*
X847703D01*
X846490Y1040389D01*
X845561Y1039460D01*
X845058Y1038247D01*
Y1036933D01*
X845561Y1035720D01*
X846490Y1034791D01*
X847703Y1034288D01*
X849017D01*
X850230Y1034791D01*
X851159Y1035720D01*
X851662Y1036933D01*
Y1038247D01*
X851159Y1039460D01*
X850230Y1040389D01*
X849017Y1040892D01*
D02*
G37*
G36*
X817267Y1039622D02*
X815953D01*
X814740Y1039119D01*
X813811Y1038190D01*
X813308Y1036977D01*
Y1035663D01*
X813811Y1034450D01*
X814740Y1033521D01*
X815953Y1033018D01*
X817267D01*
X818480Y1033521D01*
X819409Y1034450D01*
X819912Y1035663D01*
Y1036977D01*
X819409Y1038190D01*
X818480Y1039119D01*
X817267Y1039622D01*
D02*
G37*
G36*
X870506Y1037844D02*
X869394D01*
X868367Y1037419D01*
X867581Y1036633D01*
X867156Y1035606D01*
Y1035207D01*
X866825Y1034365D01*
X865983Y1034034D01*
X865584D01*
X864557Y1033609D01*
X863771Y1032823D01*
X863346Y1031796D01*
Y1030684D01*
X863771Y1029657D01*
X864557Y1028871D01*
X865584Y1028446D01*
X866696D01*
X867723Y1028871D01*
X868509Y1029657D01*
X868934Y1030684D01*
Y1031083D01*
X869265Y1031925D01*
X870107Y1032256D01*
X870506D01*
X871533Y1032681D01*
X872319Y1033467D01*
X872744Y1034494D01*
Y1035606D01*
X872319Y1036633D01*
X871533Y1037419D01*
X870506Y1037844D01*
D02*
G37*
G36*
X856536Y1032764D02*
X855424D01*
X854397Y1032339D01*
X853611Y1031553D01*
X853186Y1030526D01*
Y1029414D01*
X853611Y1028387D01*
X854397Y1027601D01*
X855424Y1027176D01*
X856536D01*
X857563Y1027601D01*
X858349Y1028387D01*
X858774Y1029414D01*
Y1030526D01*
X858349Y1031553D01*
X857563Y1032339D01*
X856536Y1032764D01*
D02*
G37*
G36*
X896007Y1033272D02*
X894693D01*
X893480Y1032769D01*
X892551Y1031840D01*
X892048Y1030627D01*
Y1029313D01*
X892551Y1028100D01*
X893480Y1027171D01*
X894693Y1026668D01*
X896007D01*
X897220Y1027171D01*
X898149Y1028100D01*
X898652Y1029313D01*
Y1030627D01*
X898149Y1031840D01*
X897220Y1032769D01*
X896007Y1033272D01*
D02*
G37*
G36*
X911146Y1028954D02*
X910034D01*
X909007Y1028529D01*
X908221Y1027743D01*
X907796Y1026716D01*
Y1025604D01*
X908221Y1024577D01*
X909007Y1023791D01*
X910034Y1023366D01*
X911146D01*
X912173Y1023791D01*
X912959Y1024577D01*
X913384Y1025604D01*
Y1026716D01*
X912959Y1027743D01*
X912173Y1028529D01*
X911146Y1028954D01*
D02*
G37*
G36*
X934107Y1029462D02*
X932793D01*
X931580Y1028959D01*
X930651Y1028030D01*
X930148Y1026817D01*
Y1025503D01*
X930651Y1024290D01*
X931580Y1023361D01*
X932793Y1022858D01*
X934107D01*
X935320Y1023361D01*
X936249Y1024290D01*
X936752Y1025503D01*
Y1026817D01*
X936249Y1028030D01*
X935320Y1028959D01*
X934107Y1029462D01*
D02*
G37*
G36*
X949347Y1025652D02*
X948033D01*
X946820Y1025149D01*
X945891Y1024220D01*
X945388Y1023007D01*
Y1022603D01*
X944118Y1022350D01*
X943869Y1022950D01*
X942940Y1023879D01*
X941727Y1024382D01*
X940413D01*
X939200Y1023879D01*
X938271Y1022950D01*
X937768Y1021737D01*
Y1020423D01*
X938271Y1019210D01*
X939200Y1018281D01*
X940413Y1017778D01*
X941727D01*
X942940Y1018281D01*
X943869Y1019210D01*
X944372Y1020423D01*
Y1020827D01*
X945642Y1021080D01*
X945891Y1020480D01*
X946820Y1019551D01*
X948033Y1019048D01*
X949347D01*
X950560Y1019551D01*
X951489Y1020480D01*
X951992Y1021693D01*
Y1023007D01*
X951489Y1024220D01*
X950560Y1025149D01*
X949347Y1025652D01*
D02*
G37*
G36*
X962047Y1026922D02*
X960733D01*
X959520Y1026419D01*
X958591Y1025490D01*
X958088Y1024277D01*
Y1022963D01*
X958194Y1022709D01*
X957222Y1021737D01*
X956967Y1021842D01*
X955653D01*
X954440Y1021339D01*
X953511Y1020410D01*
X953008Y1019197D01*
Y1017883D01*
X953511Y1016670D01*
X954440Y1015741D01*
X954599Y1015675D01*
X954897Y1014177D01*
X954781Y1014060D01*
X954278Y1012847D01*
Y1011533D01*
X954781Y1010320D01*
X955710Y1009391D01*
X956923Y1008888D01*
X958237D01*
X959450Y1009391D01*
X960379Y1010320D01*
X960882Y1011533D01*
Y1012847D01*
X960379Y1014060D01*
X959450Y1014989D01*
X959291Y1015055D01*
X958993Y1016553D01*
X959109Y1016670D01*
X959612Y1017883D01*
Y1019197D01*
X959507Y1019452D01*
X960479Y1020424D01*
X960733Y1020318D01*
X962047D01*
X963260Y1020821D01*
X964189Y1021750D01*
X964692Y1022963D01*
Y1024277D01*
X964189Y1025490D01*
X963260Y1026419D01*
X962047Y1026922D01*
D02*
G37*
G36*
X925217Y1025652D02*
X923903D01*
X922690Y1025149D01*
X921761Y1024220D01*
X921258Y1023007D01*
Y1021693D01*
X921761Y1020480D01*
X922690Y1019551D01*
X923903Y1019048D01*
X925217D01*
X926430Y1019551D01*
X927359Y1020480D01*
X927862Y1021693D01*
Y1023007D01*
X927359Y1024220D01*
X926430Y1025149D01*
X925217Y1025652D01*
D02*
G37*
G36*
X882037D02*
X880723D01*
X879510Y1025149D01*
X878581Y1024220D01*
X878078Y1023007D01*
Y1021693D01*
X878581Y1020480D01*
X879510Y1019551D01*
X880723Y1019048D01*
X882037D01*
X883250Y1019551D01*
X884179Y1020480D01*
X884682Y1021693D01*
Y1023007D01*
X884179Y1024220D01*
X883250Y1025149D01*
X882037Y1025652D01*
D02*
G37*
G36*
X973477Y1012952D02*
X972163D01*
X970950Y1012449D01*
X970461Y1011961D01*
X969645Y1011659D01*
X968829Y1011961D01*
X968340Y1012449D01*
X967127Y1012952D01*
X965813D01*
X964600Y1012449D01*
X963671Y1011520D01*
X963168Y1010307D01*
Y1008993D01*
X963671Y1007780D01*
X964398Y1007052D01*
Y987648D01*
X957444Y980694D01*
X957024D01*
X955997Y980269D01*
X955211Y979483D01*
X954786Y978456D01*
Y977344D01*
X955211Y976317D01*
X955339Y976190D01*
X955885Y975360D01*
X955339Y974530D01*
X955211Y974403D01*
X954786Y973376D01*
Y972264D01*
X955211Y971237D01*
X955997Y970451D01*
X957024Y970026D01*
X958136D01*
X959163Y970451D01*
X959460Y970748D01*
X965200D01*
X965200Y970748D01*
X965993Y970906D01*
X966665Y971355D01*
X973015Y977705D01*
X973015Y977705D01*
X973464Y978377D01*
X973622Y979170D01*
Y1006408D01*
X974690Y1006851D01*
X975619Y1007780D01*
X976122Y1008993D01*
Y1010307D01*
X975619Y1011520D01*
X974690Y1012449D01*
X973477Y1012952D01*
D02*
G37*
G36*
X927656Y1016254D02*
X926544D01*
X925517Y1015829D01*
X924731Y1015043D01*
X924306Y1014016D01*
Y1013617D01*
X923975Y1012775D01*
X923133Y1012444D01*
X922734D01*
X921707Y1012019D01*
X920921Y1011233D01*
X920496Y1010206D01*
Y1009094D01*
X920921Y1008067D01*
X921707Y1007281D01*
X922734Y1006856D01*
X923846D01*
X924873Y1007281D01*
X925659Y1008067D01*
X926084Y1009094D01*
Y1009493D01*
X926415Y1010335D01*
X927257Y1010666D01*
X927656D01*
X928683Y1011091D01*
X929469Y1011877D01*
X929894Y1012904D01*
Y1014016D01*
X929469Y1015043D01*
X928683Y1015829D01*
X927656Y1016254D01*
D02*
G37*
G36*
X903627Y1007872D02*
X902313D01*
X901100Y1007369D01*
X900171Y1006440D01*
X899668Y1005227D01*
Y1003913D01*
X900171Y1002700D01*
X901100Y1001771D01*
X902313Y1001268D01*
X903627D01*
X904840Y1001771D01*
X905769Y1002700D01*
X906272Y1003913D01*
Y1005227D01*
X905769Y1006440D01*
X904840Y1007369D01*
X903627Y1007872D01*
D02*
G37*
G36*
X790496Y1006094D02*
X789384D01*
X788357Y1005669D01*
X787571Y1004883D01*
X787146Y1003856D01*
Y1002744D01*
X787571Y1001717D01*
X788357Y1000931D01*
X789384Y1000506D01*
X790496D01*
X791523Y1000931D01*
X792309Y1001717D01*
X792734Y1002744D01*
Y1003856D01*
X792309Y1004883D01*
X791523Y1005669D01*
X790496Y1006094D01*
D02*
G37*
G36*
X953096Y1007324D02*
X951984D01*
X950957Y1006899D01*
X950171Y1006113D01*
X949746Y1005086D01*
Y1003974D01*
X950171Y1002947D01*
X950957Y1002161D01*
X951252Y1002039D01*
X951969Y1001547D01*
X951887Y1000506D01*
X951738Y1000147D01*
Y998833D01*
X952241Y997620D01*
X953170Y996691D01*
X954383Y996188D01*
X955697D01*
X956910Y996691D01*
X957839Y997620D01*
X958342Y998833D01*
Y1000147D01*
X957839Y1001360D01*
X956910Y1002289D01*
X956143Y1002607D01*
X955343Y1003943D01*
X955334Y1003974D01*
Y1005086D01*
X954909Y1006113D01*
X954123Y1006899D01*
X953096Y1007324D01*
D02*
G37*
G36*
X979726Y999744D02*
X978614D01*
X977587Y999319D01*
X976801Y998533D01*
X976376Y997506D01*
Y996394D01*
X976801Y995367D01*
X977587Y994581D01*
X978614Y994156D01*
X979726D01*
X980753Y994581D01*
X981539Y995367D01*
X981964Y996394D01*
Y997506D01*
X981539Y998533D01*
X980753Y999319D01*
X979726Y999744D01*
D02*
G37*
G36*
X890826Y989584D02*
X889714D01*
X888687Y989159D01*
X887901Y988373D01*
X887782Y988085D01*
X886408D01*
X886289Y988373D01*
X885503Y989159D01*
X884476Y989584D01*
X883364D01*
X882337Y989159D01*
X881551Y988373D01*
X881126Y987346D01*
Y986234D01*
X881551Y985207D01*
X882337Y984421D01*
X883364Y983996D01*
X884476D01*
X885503Y984421D01*
X886289Y985207D01*
X886408Y985495D01*
X887782D01*
X887901Y985207D01*
X888687Y984421D01*
X889714Y983996D01*
X890826D01*
X891853Y984421D01*
X892639Y985207D01*
X893064Y986234D01*
Y987346D01*
X892639Y988373D01*
X891853Y989159D01*
X890826Y989584D01*
D02*
G37*
G36*
X932837Y988822D02*
X931523D01*
X930310Y988319D01*
X929381Y987390D01*
X928878Y986177D01*
Y984863D01*
X929381Y983650D01*
X930310Y982721D01*
X931523Y982218D01*
X932837D01*
X934050Y982721D01*
X934979Y983650D01*
X935482Y984863D01*
Y986177D01*
X934979Y987390D01*
X934050Y988319D01*
X932837Y988822D01*
D02*
G37*
G36*
X873147D02*
X871833D01*
X870620Y988319D01*
X869691Y987390D01*
X869188Y986177D01*
Y984863D01*
X869691Y983650D01*
X870620Y982721D01*
X871833Y982218D01*
X873147D01*
X874360Y982721D01*
X875289Y983650D01*
X875792Y984863D01*
Y986177D01*
X875289Y987390D01*
X874360Y988319D01*
X873147Y988822D01*
D02*
G37*
G36*
X859177D02*
X857863D01*
X856650Y988319D01*
X855721Y987390D01*
X855218Y986177D01*
Y984863D01*
X855721Y983650D01*
X856650Y982721D01*
X857863Y982218D01*
X859177D01*
X860390Y982721D01*
X861319Y983650D01*
X861822Y984863D01*
Y986177D01*
X861319Y987390D01*
X860390Y988319D01*
X859177Y988822D01*
D02*
G37*
G36*
X924073Y980567D02*
X922507D01*
X921060Y979968D01*
X919952Y978860D01*
X919353Y977413D01*
Y976660D01*
X919078Y975762D01*
X918180Y975487D01*
X917427D01*
X915980Y974888D01*
X914872Y973780D01*
X914273Y972333D01*
Y970767D01*
X914872Y969320D01*
X915980Y968212D01*
X917427Y967613D01*
X918993D01*
X920440Y968212D01*
X921548Y969320D01*
X922147Y970767D01*
Y971520D01*
X922422Y972418D01*
X923320Y972693D01*
X924073D01*
X925520Y973292D01*
X926628Y974400D01*
X927227Y975847D01*
Y977413D01*
X926628Y978860D01*
X925520Y979968D01*
X924073Y980567D01*
D02*
G37*
G36*
X935503Y974217D02*
X933937D01*
X932490Y973618D01*
X931382Y972510D01*
X930783Y971063D01*
Y969497D01*
X931382Y968050D01*
X932490Y966942D01*
X933937Y966343D01*
X935503D01*
X936950Y966942D01*
X938058Y968050D01*
X938657Y969497D01*
Y971063D01*
X938058Y972510D01*
X936950Y973618D01*
X935503Y974217D01*
D02*
G37*
G36*
X789226Y969264D02*
X788114D01*
X787087Y968839D01*
X786301Y968053D01*
X785876Y967026D01*
Y965914D01*
X786301Y964887D01*
X787087Y964101D01*
X788114Y963676D01*
X789226D01*
X790253Y964101D01*
X791039Y964887D01*
X791464Y965914D01*
Y967026D01*
X791039Y968053D01*
X790253Y968839D01*
X789226Y969264D01*
D02*
G37*
G36*
X973477Y969772D02*
X972163D01*
X970950Y969269D01*
X970021Y968340D01*
X969518Y967127D01*
Y965813D01*
X970021Y964600D01*
X970950Y963671D01*
X972163Y963168D01*
X973477D01*
X974690Y963671D01*
X975619Y964600D01*
X976122Y965813D01*
Y967127D01*
X975619Y968340D01*
X974690Y969269D01*
X973477Y969772D01*
D02*
G37*
G36*
X890826Y971804D02*
X889714D01*
X888687Y971379D01*
X887901Y970593D01*
X887476Y969566D01*
Y968454D01*
X887901Y967427D01*
X888687Y966641D01*
X889610Y966259D01*
X889814Y965609D01*
X889875Y964946D01*
X889171Y964243D01*
X888746Y963216D01*
Y962104D01*
X889171Y961077D01*
X889957Y960291D01*
X890984Y959866D01*
X892096D01*
X893123Y960291D01*
X893909Y961077D01*
X894334Y962104D01*
Y963216D01*
X893909Y964243D01*
X893123Y965029D01*
X892200Y965411D01*
X891996Y966061D01*
X891935Y966724D01*
X892639Y967427D01*
X893064Y968454D01*
Y969566D01*
X892639Y970593D01*
X891853Y971379D01*
X890826Y971804D01*
D02*
G37*
G36*
X883307Y960882D02*
X881993D01*
X880780Y960379D01*
X879851Y959450D01*
X879348Y958237D01*
Y956923D01*
X879851Y955710D01*
X880266Y955294D01*
X879808Y954024D01*
X878781Y953599D01*
X878527Y953344D01*
X877697Y952953D01*
X876867Y953344D01*
X876613Y953599D01*
X875586Y954024D01*
X874474D01*
X873447Y953599D01*
X872661Y952813D01*
X872236Y951786D01*
Y950674D01*
X872661Y949647D01*
X873447Y948861D01*
X874474Y948436D01*
X875586D01*
X876613Y948861D01*
X876867Y949116D01*
X877697Y949507D01*
X878527Y949116D01*
X878781Y948861D01*
X879808Y948436D01*
X880920D01*
X881947Y948861D01*
X882733Y949647D01*
X883158Y950674D01*
Y951786D01*
X882733Y952813D01*
X882537Y953008D01*
X883063Y954278D01*
X883307D01*
X884520Y954781D01*
X885449Y955710D01*
X885952Y956923D01*
Y958237D01*
X885449Y959450D01*
X884520Y960379D01*
X883307Y960882D01*
D02*
G37*
G36*
X921786Y943823D02*
X920675D01*
X919648Y943398D01*
X918862Y942612D01*
X918437Y941585D01*
Y940473D01*
X918862Y939446D01*
X919648Y938660D01*
X920675Y938235D01*
X921786D01*
X922813Y938660D01*
X923599Y939446D01*
X924025Y940473D01*
Y941585D01*
X923599Y942612D01*
X922813Y943398D01*
X921786Y943823D01*
D02*
G37*
G36*
X899716Y948614D02*
X898604D01*
X897577Y948188D01*
X896791Y947402D01*
X896366Y946376D01*
Y945264D01*
X896791Y944237D01*
X897046Y943982D01*
X897437Y943153D01*
X897046Y942323D01*
X896791Y942068D01*
X896366Y941042D01*
Y939930D01*
X896791Y938903D01*
X897577Y938117D01*
X898604Y937692D01*
X899716D01*
X900743Y938117D01*
X901529Y938903D01*
X901954Y939930D01*
Y941042D01*
X901529Y942068D01*
X901274Y942323D01*
X900883Y943153D01*
X901274Y943982D01*
X901529Y944237D01*
X901954Y945264D01*
Y946376D01*
X901529Y947402D01*
X900743Y948188D01*
X899716Y948614D01*
D02*
G37*
G36*
X956866Y942594D02*
X955754D01*
X954727Y942169D01*
X953941Y941383D01*
X953516Y940356D01*
Y939244D01*
X953941Y938217D01*
X954727Y937431D01*
X955754Y937006D01*
X956866D01*
X957893Y937431D01*
X958679Y938217D01*
X959104Y939244D01*
Y940356D01*
X958679Y941383D01*
X957893Y942169D01*
X956866Y942594D01*
D02*
G37*
G36*
X914956D02*
X913844D01*
X912817Y942169D01*
X912031Y941383D01*
X911606Y940356D01*
Y939244D01*
X912031Y938217D01*
X912817Y937431D01*
X913844Y937006D01*
X914956D01*
X915983Y937431D01*
X916769Y938217D01*
X917194Y939244D01*
Y940356D01*
X916769Y941383D01*
X915983Y942169D01*
X914956Y942594D01*
D02*
G37*
G36*
X949347Y943102D02*
X948033D01*
X946820Y942599D01*
X945891Y941670D01*
X945388Y940457D01*
Y939143D01*
X945891Y937930D01*
X946820Y937001D01*
X948033Y936498D01*
X949347D01*
X950560Y937001D01*
X951489Y937930D01*
X951992Y939143D01*
Y940457D01*
X951489Y941670D01*
X950560Y942599D01*
X949347Y943102D01*
D02*
G37*
G36*
X892197Y939292D02*
X890883D01*
X889670Y938789D01*
X888741Y937860D01*
X888238Y936647D01*
Y935333D01*
X888741Y934120D01*
X889670Y933191D01*
X890883Y932688D01*
X892197D01*
X893410Y933191D01*
X894339Y934120D01*
X894842Y935333D01*
Y936647D01*
X894339Y937860D01*
X893410Y938789D01*
X892197Y939292D01*
D02*
G37*
G36*
X838857D02*
X837543D01*
X836330Y938789D01*
X835401Y937860D01*
X834898Y936647D01*
Y935333D01*
X835401Y934120D01*
X836330Y933191D01*
X837543Y932688D01*
X838857D01*
X840070Y933191D01*
X840999Y934120D01*
X841502Y935333D01*
Y936647D01*
X840999Y937860D01*
X840070Y938789D01*
X838857Y939292D01*
D02*
G37*
G36*
X874316Y941324D02*
X873204D01*
X872177Y940899D01*
X871391Y940113D01*
X870966Y939086D01*
Y937974D01*
X871391Y936947D01*
X872177Y936161D01*
X873204Y935736D01*
X874316D01*
X874834Y935950D01*
X874947Y935919D01*
X876007Y935166D01*
Y934517D01*
X876432Y933490D01*
X877218Y932704D01*
X878245Y932279D01*
X879357D01*
X880384Y932704D01*
X881169Y933490D01*
X881595Y934517D01*
Y935629D01*
X881169Y936656D01*
X880384Y937441D01*
X879357Y937867D01*
X878245D01*
X877727Y937652D01*
X877613Y937684D01*
X876554Y938437D01*
Y939086D01*
X876129Y940113D01*
X875343Y940899D01*
X874316Y941324D01*
D02*
G37*
G36*
X800656Y934974D02*
X799544D01*
X798517Y934549D01*
X797731Y933763D01*
X797306Y932736D01*
Y931624D01*
X797731Y930597D01*
X798517Y929811D01*
X799544Y929386D01*
X800656D01*
X801683Y929811D01*
X802469Y930597D01*
X802894Y931624D01*
Y932736D01*
X802469Y933763D01*
X801683Y934549D01*
X800656Y934974D01*
D02*
G37*
G36*
X958136Y933704D02*
X957024D01*
X955997Y933279D01*
X955211Y932493D01*
X954786Y931466D01*
Y930354D01*
X955211Y929327D01*
X955997Y928541D01*
X957024Y928116D01*
X958136D01*
X959163Y928541D01*
X959949Y929327D01*
X960374Y930354D01*
Y931466D01*
X959949Y932493D01*
X959163Y933279D01*
X958136Y933704D01*
D02*
G37*
G36*
X808276D02*
X807164D01*
X806137Y933279D01*
X805351Y932493D01*
X804926Y931466D01*
Y930354D01*
X805351Y929327D01*
X806137Y928541D01*
X807164Y928116D01*
X808276D01*
X809303Y928541D01*
X810089Y929327D01*
X810514Y930354D01*
Y931466D01*
X810089Y932493D01*
X809303Y933279D01*
X808276Y933704D01*
D02*
G37*
G36*
X855744Y931146D02*
X854632D01*
X853605Y930721D01*
X852819Y929935D01*
X852394Y928908D01*
Y927796D01*
X852819Y926769D01*
X853605Y925984D01*
X854632Y925558D01*
X855744D01*
X856770Y925984D01*
X857557Y926769D01*
X857982Y927796D01*
Y928908D01*
X857557Y929935D01*
X856770Y930721D01*
X855744Y931146D01*
D02*
G37*
G36*
X865044Y931121D02*
X863933D01*
X862906Y930695D01*
X862120Y929909D01*
X861695Y928882D01*
Y927771D01*
X862120Y926744D01*
X862906Y925958D01*
X863933Y925533D01*
X865044D01*
X866071Y925958D01*
X866857Y926744D01*
X867283Y927771D01*
Y928882D01*
X866857Y929909D01*
X866071Y930695D01*
X865044Y931121D01*
D02*
G37*
G36*
X817166Y929894D02*
X816054D01*
X815027Y929469D01*
X814241Y928683D01*
X813816Y927656D01*
Y926544D01*
X814241Y925517D01*
X815027Y924731D01*
X816054Y924306D01*
X817166D01*
X818193Y924731D01*
X818979Y925517D01*
X819404Y926544D01*
Y927656D01*
X818979Y928683D01*
X818193Y929469D01*
X817166Y929894D01*
D02*
G37*
G36*
X954376Y926338D02*
X953164D01*
X952043Y925874D01*
X951186Y925017D01*
X950722Y923896D01*
Y922684D01*
X951186Y921563D01*
X952043Y920706D01*
X953164Y920242D01*
X954376D01*
X955497Y920706D01*
X956354Y921563D01*
X956818Y922684D01*
Y923896D01*
X956354Y925017D01*
X955497Y925874D01*
X954376Y926338D01*
D02*
G37*
G36*
X833585Y925794D02*
X832271D01*
X831057Y925292D01*
X830128Y924363D01*
X829626Y923149D01*
Y921835D01*
X830128Y920622D01*
X831057Y919693D01*
X832271Y919190D01*
X833585D01*
X834798Y919693D01*
X835727Y920622D01*
X836230Y921835D01*
Y923149D01*
X835727Y924363D01*
X834798Y925292D01*
X833585Y925794D01*
D02*
G37*
G36*
X879396Y923544D02*
X878284D01*
X877257Y923119D01*
X876471Y922333D01*
X876046Y921306D01*
Y920194D01*
X876471Y919167D01*
X877257Y918381D01*
X878284Y917956D01*
X879396D01*
X880423Y918381D01*
X881209Y919167D01*
X881634Y920194D01*
Y921306D01*
X881209Y922333D01*
X880423Y923119D01*
X879396Y923544D01*
D02*
G37*
G36*
X889556Y918464D02*
X888444D01*
X887417Y918039D01*
X886631Y917253D01*
X886206Y916226D01*
Y915114D01*
X886631Y914087D01*
X887417Y913301D01*
X888444Y912876D01*
X889556D01*
X890583Y913301D01*
X891369Y914087D01*
X891794Y915114D01*
Y916226D01*
X891369Y917253D01*
X890583Y918039D01*
X889556Y918464D01*
D02*
G37*
G36*
X873147Y916432D02*
X871833D01*
X870620Y915929D01*
X869691Y915000D01*
X869188Y913787D01*
Y912473D01*
X869691Y911260D01*
X870620Y910331D01*
X871833Y909828D01*
X873147D01*
X874360Y910331D01*
X875289Y911260D01*
X875792Y912473D01*
Y913787D01*
X875289Y915000D01*
X874360Y915929D01*
X873147Y916432D01*
D02*
G37*
G36*
X852726Y913384D02*
X851614D01*
X850587Y912959D01*
X849801Y912173D01*
X849376Y911146D01*
Y910034D01*
X849801Y909007D01*
X850587Y908221D01*
X851614Y907796D01*
X852726D01*
X853352Y908055D01*
X853854Y908156D01*
X854845Y907518D01*
X854950Y907264D01*
X855736Y906478D01*
X856763Y906053D01*
X857874D01*
X858901Y906478D01*
X859687Y907264D01*
X860113Y908291D01*
Y909403D01*
X859687Y910430D01*
X858901Y911216D01*
X857874Y911641D01*
X856763D01*
X856136Y911381D01*
X855635Y911281D01*
X854644Y911919D01*
X854539Y912173D01*
X853753Y912959D01*
X852726Y913384D01*
D02*
G37*
G36*
X958237Y897382D02*
X956923D01*
X955710Y896879D01*
X954781Y895950D01*
X954278Y894737D01*
Y893423D01*
X954781Y892210D01*
X955710Y891281D01*
X956923Y890778D01*
X958237D01*
X959450Y891281D01*
X960379Y892210D01*
X960882Y893423D01*
Y894737D01*
X960379Y895950D01*
X959450Y896879D01*
X958237Y897382D01*
D02*
G37*
G36*
X896007Y894842D02*
X894693D01*
X893480Y894339D01*
X892551Y893410D01*
X892048Y892197D01*
Y890883D01*
X892551Y889670D01*
X893480Y888741D01*
X894693Y888238D01*
X896007D01*
X897220Y888741D01*
X898149Y889670D01*
X898652Y890883D01*
Y892197D01*
X898149Y893410D01*
X897220Y894339D01*
X896007Y894842D01*
D02*
G37*
G36*
X807107Y891032D02*
X805793D01*
X804580Y890529D01*
X803651Y889600D01*
X803148Y888387D01*
Y887073D01*
X803651Y885860D01*
X804580Y884931D01*
X805793Y884428D01*
X807107D01*
X808320Y884931D01*
X809249Y885860D01*
X809752Y887073D01*
Y888387D01*
X809249Y889600D01*
X808320Y890529D01*
X807107Y891032D01*
D02*
G37*
G36*
X896007Y882142D02*
X894693D01*
X893480Y881639D01*
X892551Y880710D01*
X892048Y879497D01*
Y878183D01*
X892551Y876970D01*
X893480Y876041D01*
X894693Y875538D01*
X896007D01*
X897220Y876041D01*
X898149Y876970D01*
X898652Y878183D01*
Y879497D01*
X898149Y880710D01*
X897220Y881639D01*
X896007Y882142D01*
D02*
G37*
%LPD*%
D13*
X957580Y977900D02*
X966470Y986790D01*
Y1009650D01*
X971550Y979170D02*
Y1008380D01*
X972820Y1009650D01*
X965200Y972820D02*
X971550Y979170D01*
X957580Y972820D02*
X965200D01*
D83*
X974090Y883920D02*
D03*
X1002030Y920750D02*
D03*
X1151890Y993140D02*
D03*
X891540Y935990D02*
D03*
X832928Y922492D02*
D03*
X895350Y1029970D02*
D03*
X999490Y929640D02*
D03*
X858520Y985520D02*
D03*
X872490D02*
D03*
X924560Y1022350D02*
D03*
X941070Y1021080D02*
D03*
X933450Y1026160D02*
D03*
X908050Y1037590D02*
D03*
X922020Y1038860D02*
D03*
X928370Y1042670D02*
D03*
X924560Y1047750D02*
D03*
X956310Y1018540D02*
D03*
X961390Y1023620D02*
D03*
X957580Y1012190D02*
D03*
X1137920Y972820D02*
D03*
X1016000Y967740D02*
D03*
X948690Y939800D02*
D03*
X957580Y894080D02*
D03*
X1013460Y949960D02*
D03*
X1021080Y915670D02*
D03*
X895350Y878840D02*
D03*
X991870Y948690D02*
D03*
X882650Y957580D02*
D03*
X966470Y1009650D02*
D03*
X948690Y1022350D02*
D03*
X852170Y963930D02*
D03*
X838200Y935990D02*
D03*
X895350Y1059180D02*
D03*
X951230Y897890D02*
D03*
X972820Y966470D02*
D03*
X746760Y919480D02*
D03*
X897890Y1040130D02*
D03*
X830580Y1078230D02*
D03*
X902970Y1026160D02*
D03*
X972820Y1009650D02*
D03*
X955040Y999490D02*
D03*
X664210Y1003300D02*
D03*
X932180Y985520D02*
D03*
X806450Y887730D02*
D03*
X895350Y891540D02*
D03*
X872490Y913130D02*
D03*
X848360Y1037590D02*
D03*
Y1068070D02*
D03*
X816610Y1036320D02*
D03*
X855980Y1074420D02*
D03*
X902970Y1004570D02*
D03*
X881380Y1022350D02*
D03*
X673100Y970280D02*
D03*
D97*
X676910Y1018230D02*
D03*
Y960430D02*
D03*
D98*
X934720Y970280D02*
D03*
X923290Y976630D02*
D03*
X918210Y971550D02*
D03*
X1156970Y1000760D02*
D03*
X1140460Y986790D02*
D03*
X1045210Y1000760D02*
D03*
X1016000Y1012190D02*
D03*
X1230630Y1071880D02*
D03*
X1003300Y781050D02*
D03*
X1022350D02*
D03*
X1042670D02*
D03*
X1062990D02*
D03*
X1083310D02*
D03*
X1103630D02*
D03*
X1123950Y782320D02*
D03*
X1144270Y781050D02*
D03*
X1164590Y782320D02*
D03*
X1198880Y773430D02*
D03*
X1230630Y974090D02*
D03*
X1045210Y979170D02*
D03*
X1205230Y972820D02*
D03*
X980440Y1009650D02*
D03*
D99*
X789940Y792480D02*
D03*
X782320D02*
D03*
X899160Y945820D02*
D03*
Y940486D02*
D03*
X790702Y858520D02*
D03*
X795020D02*
D03*
X875030Y951230D02*
D03*
X880364D02*
D03*
X857319Y908847D02*
D03*
X855188Y928352D02*
D03*
X873760Y938530D02*
D03*
X878801Y935073D02*
D03*
X921231Y941029D02*
D03*
X890270Y969010D02*
D03*
X891540Y962660D02*
D03*
X952540Y1004530D02*
D03*
X678180Y991870D02*
D03*
X675640Y982980D02*
D03*
X984250Y985520D02*
D03*
X985520Y990600D02*
D03*
X796290Y1060450D02*
D03*
X852170Y910590D02*
D03*
X801370Y1040130D02*
D03*
X788670Y966470D02*
D03*
X789940Y1003300D02*
D03*
X763270Y1051560D02*
D03*
X957580Y972820D02*
D03*
Y930910D02*
D03*
Y977900D02*
D03*
X956310Y939800D02*
D03*
X800100Y932180D02*
D03*
X939800Y1045210D02*
D03*
Y1050290D02*
D03*
X979170Y996950D02*
D03*
X910590Y1026160D02*
D03*
X939800Y1009650D02*
D03*
X878840Y920750D02*
D03*
X807720Y930910D02*
D03*
X816610Y927100D02*
D03*
X864489Y928326D02*
D03*
X927100Y1013460D02*
D03*
X944880Y1038860D02*
D03*
X923290Y1009650D02*
D03*
X855980Y1029970D02*
D03*
X890270Y986790D02*
D03*
X869950Y1035050D02*
D03*
X883920Y986790D02*
D03*
X866140Y1031240D02*
D03*
X914400Y939800D02*
D03*
X889000Y915670D02*
D03*
D100*
X722630Y1040130D02*
D03*
X707390Y951230D02*
D03*
D101*
X953770Y923290D02*
D03*
D102*
X1186180Y894080D02*
D03*
X1211580Y868680D02*
D03*
Y919480D02*
D03*
X1160780D02*
D03*
Y868680D02*
D03*
M02*
