G04*
G04 #@! TF.GenerationSoftware,Altium Limited,Altium Designer,22.11.1 (43)*
G04*
G04 Layer_Color=8421504*
%FSLAX44Y44*%
%MOMM*%
G71*
G04*
G04 #@! TF.SameCoordinates,08DCA11F-4F28-4CA3-8F65-8E8C9E671095*
G04*
G04*
G04 #@! TF.FilePolarity,Positive*
G04*
G01*
G75*
%ADD17R,0.2540X0.2540*%
%ADD18C,0.3810*%
%ADD19R,0.9779X0.5588*%
G04:AMPARAMS|DCode=20|XSize=0.6mm|YSize=0.54mm|CornerRadius=0.1431mm|HoleSize=0mm|Usage=FLASHONLY|Rotation=270.000|XOffset=0mm|YOffset=0mm|HoleType=Round|Shape=RoundedRectangle|*
%AMROUNDEDRECTD20*
21,1,0.6000,0.2538,0,0,270.0*
21,1,0.3138,0.5400,0,0,270.0*
1,1,0.2862,-0.1269,-0.1569*
1,1,0.2862,-0.1269,0.1569*
1,1,0.2862,0.1269,0.1569*
1,1,0.2862,0.1269,-0.1569*
%
%ADD20ROUNDEDRECTD20*%
%ADD21R,0.5100X0.7300*%
%ADD22R,0.2794X0.2540*%
%ADD23R,0.2540X0.2794*%
%ADD24R,0.5000X0.3000*%
G04:AMPARAMS|DCode=25|XSize=0.6mm|YSize=0.54mm|CornerRadius=0.1431mm|HoleSize=0mm|Usage=FLASHONLY|Rotation=180.000|XOffset=0mm|YOffset=0mm|HoleType=Round|Shape=RoundedRectangle|*
%AMROUNDEDRECTD25*
21,1,0.6000,0.2538,0,0,180.0*
21,1,0.3138,0.5400,0,0,180.0*
1,1,0.2862,-0.1569,0.1269*
1,1,0.2862,0.1569,0.1269*
1,1,0.2862,0.1569,-0.1269*
1,1,0.2862,-0.1569,-0.1269*
%
%ADD25ROUNDEDRECTD25*%
%ADD26C,0.2286*%
%ADD27R,1.3000X1.1000*%
%ADD28R,0.5900X0.3500*%
%ADD29R,0.3500X0.5900*%
%ADD30R,1.5240X1.5240*%
%ADD31R,0.4000X0.4000*%
%ADD32R,0.2540X0.2540*%
%ADD33R,2.2000X1.0000*%
%ADD34R,1.1500X0.6000*%
%ADD35R,1.1500X0.3000*%
%ADD36R,2.0000X2.1800*%
G04:AMPARAMS|DCode=37|XSize=0.81mm|YSize=0.27mm|CornerRadius=0.0338mm|HoleSize=0mm|Usage=FLASHONLY|Rotation=180.000|XOffset=0mm|YOffset=0mm|HoleType=Round|Shape=RoundedRectangle|*
%AMROUNDEDRECTD37*
21,1,0.8100,0.2025,0,0,180.0*
21,1,0.7425,0.2700,0,0,180.0*
1,1,0.0675,-0.3713,0.1013*
1,1,0.0675,0.3713,0.1013*
1,1,0.0675,0.3713,-0.1013*
1,1,0.0675,-0.3713,-0.1013*
%
%ADD37ROUNDEDRECTD37*%
G04:AMPARAMS|DCode=38|XSize=0.27mm|YSize=0.81mm|CornerRadius=0.0338mm|HoleSize=0mm|Usage=FLASHONLY|Rotation=180.000|XOffset=0mm|YOffset=0mm|HoleType=Round|Shape=RoundedRectangle|*
%AMROUNDEDRECTD38*
21,1,0.2700,0.7425,0,0,180.0*
21,1,0.2025,0.8100,0,0,180.0*
1,1,0.0675,-0.1013,0.3713*
1,1,0.0675,0.1013,0.3713*
1,1,0.0675,0.1013,-0.3713*
1,1,0.0675,-0.1013,-0.3713*
%
%ADD38ROUNDEDRECTD38*%
%ADD39R,2.3400X2.3400*%
G04:AMPARAMS|DCode=40|XSize=0.762mm|YSize=0.889mm|CornerRadius=0.0953mm|HoleSize=0mm|Usage=FLASHONLY|Rotation=90.000|XOffset=0mm|YOffset=0mm|HoleType=Round|Shape=RoundedRectangle|*
%AMROUNDEDRECTD40*
21,1,0.7620,0.6985,0,0,90.0*
21,1,0.5715,0.8890,0,0,90.0*
1,1,0.1905,0.3493,0.2858*
1,1,0.1905,0.3493,-0.2858*
1,1,0.1905,-0.3493,-0.2858*
1,1,0.1905,-0.3493,0.2858*
%
%ADD40ROUNDEDRECTD40*%
%ADD41R,0.6000X1.3200*%
G36*
X888570Y1043872D02*
X886570D01*
Y1049371D01*
X888570D01*
Y1043872D01*
D02*
G37*
G36*
X883570D02*
X881570D01*
Y1049371D01*
X883570D01*
Y1043872D01*
D02*
G37*
G36*
X878570D02*
X876570D01*
Y1049371D01*
X878570D01*
Y1043872D01*
D02*
G37*
G36*
X873570D02*
X871570D01*
Y1049371D01*
X873570D01*
Y1043872D01*
D02*
G37*
G36*
X886070Y1031871D02*
X881070D01*
Y1033872D01*
X886070D01*
Y1031871D01*
D02*
G37*
G36*
X879070D02*
X874070D01*
Y1033872D01*
X879070D01*
Y1031871D01*
D02*
G37*
G36*
X888570Y1016372D02*
X886570D01*
Y1021871D01*
X888570D01*
Y1016372D01*
D02*
G37*
G36*
X883570D02*
X881570D01*
Y1021871D01*
X883570D01*
Y1016372D01*
D02*
G37*
G36*
X878570D02*
X876570D01*
Y1021871D01*
X878570D01*
Y1016372D01*
D02*
G37*
G36*
X873570D02*
X871570D01*
Y1021871D01*
X873570D01*
Y1016372D01*
D02*
G37*
D17*
X884936Y924560D02*
D03*
X878586D02*
D03*
X884936Y930910D02*
D03*
X878586D02*
D03*
X885444Y982980D02*
D03*
X879094D02*
D03*
X885444Y975360D02*
D03*
X879094D02*
D03*
D18*
X892810Y923290D02*
D03*
Y929640D02*
D03*
X894080Y1010920D02*
D03*
D19*
X801687Y969670D02*
D03*
Y979170D02*
D03*
Y988670D02*
D03*
X828992D02*
D03*
Y979170D02*
D03*
Y969670D02*
D03*
D20*
X988550Y948690D02*
D03*
X979950D02*
D03*
X970770D02*
D03*
X962170D02*
D03*
X851390Y962660D02*
D03*
X842790D02*
D03*
X965980Y903319D02*
D03*
X974580D02*
D03*
X979950Y935069D02*
D03*
X988550D02*
D03*
X972040Y994410D02*
D03*
X963440D02*
D03*
X757410Y1051560D02*
D03*
X748810D02*
D03*
X867900Y886460D02*
D03*
X859300D02*
D03*
X939310Y1069340D02*
D03*
X947910D02*
D03*
X932670Y895350D02*
D03*
X924070D02*
D03*
X901210D02*
D03*
X909810D02*
D03*
X963440Y982980D02*
D03*
X972040D02*
D03*
X962170Y935069D02*
D03*
X970770D02*
D03*
X746760Y910590D02*
D03*
X755360D02*
D03*
D21*
X977420Y962660D02*
D03*
X968220D02*
D03*
D22*
X846836Y901780D02*
D03*
Y906780D02*
D03*
Y911780D02*
D03*
X862584D02*
D03*
Y906780D02*
D03*
Y901780D02*
D03*
D23*
X852210Y914654D02*
D03*
X857210D02*
D03*
Y898906D02*
D03*
X852210D02*
D03*
D24*
X871870Y994220D02*
D03*
Y1002220D02*
D03*
X857870D02*
D03*
Y994220D02*
D03*
D25*
X955040Y906290D02*
D03*
Y914890D02*
D03*
X901700Y1058603D02*
D03*
Y1067203D02*
D03*
X986854Y915180D02*
D03*
Y923780D02*
D03*
X855980Y1059960D02*
D03*
Y1068560D02*
D03*
X902970Y1020300D02*
D03*
Y1011700D02*
D03*
X887730Y1002520D02*
D03*
Y993920D02*
D03*
X933450Y1020300D02*
D03*
Y1011700D02*
D03*
X943610Y906290D02*
D03*
Y914890D02*
D03*
Y923580D02*
D03*
Y932180D02*
D03*
X875221Y897400D02*
D03*
Y906000D02*
D03*
X808990Y1062500D02*
D03*
Y1071100D02*
D03*
Y1044720D02*
D03*
Y1053320D02*
D03*
X952500Y1020300D02*
D03*
Y1011700D02*
D03*
X915670Y1020300D02*
D03*
Y1011700D02*
D03*
X849502Y944390D02*
D03*
Y952990D02*
D03*
X835660D02*
D03*
Y944390D02*
D03*
X821690Y952990D02*
D03*
Y944390D02*
D03*
X807720Y952990D02*
D03*
Y944390D02*
D03*
X855980Y1042180D02*
D03*
Y1050780D02*
D03*
D26*
X966280Y915289D02*
D03*
Y919289D02*
D03*
Y923290D02*
D03*
X970280Y915289D02*
D03*
Y919289D02*
D03*
Y923290D02*
D03*
X974280Y915289D02*
D03*
Y919289D02*
D03*
Y923290D02*
D03*
D27*
X905440Y928480D02*
D03*
X928440D02*
D03*
Y910480D02*
D03*
X905440D02*
D03*
D28*
X953870Y1043773D02*
D03*
X915570D02*
D03*
D29*
X949720Y1032122D02*
D03*
X944720D02*
D03*
X939720D02*
D03*
X934720D02*
D03*
X929720D02*
D03*
X924720D02*
D03*
X919720D02*
D03*
Y1055423D02*
D03*
X924720D02*
D03*
X929720D02*
D03*
X934720D02*
D03*
X939720D02*
D03*
X944720D02*
D03*
X949720D02*
D03*
D30*
X778256Y1073150D02*
D03*
X727710D02*
D03*
X777240Y889000D02*
D03*
X726694D02*
D03*
D31*
X798260Y920050D02*
D03*
X806260D02*
D03*
X814260D02*
D03*
X822260D02*
D03*
Y896050D02*
D03*
X814260D02*
D03*
X806260D02*
D03*
X798260D02*
D03*
D32*
X867410Y931164D02*
D03*
Y924814D02*
D03*
X861060Y931164D02*
D03*
Y924814D02*
D03*
X854710Y931164D02*
D03*
Y924814D02*
D03*
D33*
X816610Y1026775D02*
D03*
Y1007765D02*
D03*
D34*
X777830Y1013710D02*
D03*
Y1005710D02*
D03*
Y957710D02*
D03*
Y949710D02*
D03*
D35*
Y999210D02*
D03*
Y964210D02*
D03*
Y994210D02*
D03*
Y969210D02*
D03*
Y989210D02*
D03*
Y974210D02*
D03*
Y984210D02*
D03*
Y979210D02*
D03*
D36*
X772080Y1032810D02*
D03*
Y930610D02*
D03*
X732780Y1032810D02*
D03*
Y930610D02*
D03*
D37*
X950280Y957860D02*
D03*
Y962860D02*
D03*
Y967860D02*
D03*
Y972860D02*
D03*
Y977860D02*
D03*
Y982860D02*
D03*
Y987860D02*
D03*
Y992860D02*
D03*
X901380D02*
D03*
Y987860D02*
D03*
Y982860D02*
D03*
Y977860D02*
D03*
Y972860D02*
D03*
Y967860D02*
D03*
Y962860D02*
D03*
Y957860D02*
D03*
D38*
X943330Y999810D02*
D03*
X938330D02*
D03*
X933330D02*
D03*
X928330D02*
D03*
X923330D02*
D03*
X918330D02*
D03*
X913330D02*
D03*
X908330D02*
D03*
Y950910D02*
D03*
X913330D02*
D03*
X918330D02*
D03*
X923330D02*
D03*
X928330D02*
D03*
X933330D02*
D03*
X938330D02*
D03*
X943330D02*
D03*
D39*
X925830Y975360D02*
D03*
D40*
X864680Y946150D02*
D03*
Y961390D02*
D03*
D41*
X822350Y1047680D02*
D03*
X831850D02*
D03*
X841350D02*
D03*
Y1070680D02*
D03*
X822350D02*
D03*
M02*
