M48
;Layer_Color=9474304
;FILE_FORMAT=4:4
METRIC,LZ
;TYPE=PLATED
T1F00S00C0.2794
T2F00S00C0.3048
T3F00S00C0.7112
T4F00S00C1.4986
T5F00S00C1.7018
;TYPE=NON_PLATED
T6F00S00C0.6500
%
T01
X0078232Y0079248
X0078994
X00790702Y0085852
X0078867Y0096647
X0078994Y010033
X0076327Y0105156
X0067818Y0099187
X0067564Y0098298
X008001Y0093218
X0080772Y0093091
X0081661Y009271
X00855188Y00928352
X00864489Y00928326
X0087376Y0093853
X00878801Y00935073
X0087884Y0092075
X00889Y0091567
X0089916Y00940486
Y0094582
X009144Y009398
X00921231Y00941029
X0095631Y009398
X0095758Y0093091
Y0097282
Y009779
X0095254Y0100453
X009398Y0100965
X009271Y0101346
X0092329Y0100965
X0091059Y0102616
X0094488Y0103886
X009398Y0104521
Y0105029
X0086995Y0103505
X0086614Y0103124
X0085598Y0102997
X0080137Y0104013
X0079629Y0106045
X0088392Y0098679
X0089027
Y0096901
X0089154Y0096266
X00880364Y0095123
X0087503
X00857319Y00908847
X0085217Y0091059
X0079502Y0085852
X0097409Y0088392
X0098425Y0098552
X0098552Y009906
X0097917Y0099695
X0115189Y0099314
T02
X0119888Y0077343
X0116459Y0078232
X0114427Y0078105
X0112395Y0078232
X0110363Y0078105
X0108331
X0106299
X0104267
X0102235
X010033
X0074676Y0091948
X006731Y0097028
X0066421Y010033
X0081661Y0103632
X0084836Y0103759
Y0106807
X0085598Y0107442
X0083058Y0107823
X0089535Y0105918
X0089789Y0104013
X0089535Y0102997
X0090297Y0102616
X0090805Y0103759
X0092202Y0103886
X0092837Y0104267
X0092456Y0104775
Y0102235
X0093345Y0102616
X0094107Y0102108
X0094869Y0102235
X0095631Y0101854
X0095758Y0101219
X0096647Y0100965
X0097282
X0098044
X0096139Y0102362
X0095504Y0099949
X0093218Y0098552
X0093472Y0097028
X0092329Y0097663
X0091821Y0097155
X0090297Y0100457
X0088138Y0102235
X0087249Y0098552
X0085852
X0085217Y0096393
X0088265Y0095758
X0089154Y0093599
X0087249Y0091313
X0089535Y0089154
Y0087884
X0095123Y0089789
X0095758Y0089408
X0095377Y0092329
X0094869Y009398
X0097282Y0096647
X0099187Y0094869
X0101346Y0094996
X01016Y0096774
X0104521Y0097917
Y0100076
X01016Y0101219
X0099949Y0092964
X0100203Y0092075
X0102108Y0091567
X0113792Y0097282
X0114046Y0098679
X0115697Y0100076
X008382Y0093599
X00832928Y00922492
X0080645Y0088773
X0120523Y0097282
X0123063Y0097409
Y0107188
T03
X0070739Y0095123
X0072263Y0104013
T04
X0118618Y0089408
T05
X0116078Y0086868
Y0091948
X0121158
Y0086868
T06
X0067691Y0096043
Y0101823
M30
