G04*
G04 #@! TF.GenerationSoftware,Altium Limited,Altium Designer,22.11.1 (43)*
G04*
G04 Layer_Physical_Order=2*
G04 Layer_Color=16711680*
%FSLAX44Y44*%
%MOMM*%
G71*
G04*
G04 #@! TF.SameCoordinates,08DCA11F-4F28-4CA3-8F65-8E8C9E671095*
G04*
G04*
G04 #@! TF.FilePolarity,Positive*
G04*
G01*
G75*
%ADD71C,0.5080*%
%ADD75C,0.6500*%
%ADD76C,0.5080*%
%AMCUSTOMSHAPE77*
4,1,120,-0.7550,0.0000,-0.7540,0.0395,-0.7509,0.0789,-0.7457,0.1181,-0.7385,0.1570,-0.7293,0.1954,-0.7181,0.2333,-0.7049,0.2706,-0.6897,0.3071,-0.6727,0.3428,-0.6539,0.3775,-0.6332,0.4112,-0.6108,0.4438,-0.5868,0.4751,-0.5611,0.5052,-0.5339,0.5339,-0.5052,0.5611,-0.4752,0.5867,-0.4438,0.6108,-0.4112,0.6332,-0.3775,0.6539,-0.3428,0.6727,-0.3071,0.6897,-0.2706,0.7049,-0.2333,0.7181,-0.1954,0.7293,-0.1570,0.7385,-0.1181,0.7457,-0.0789,0.7509,-0.0395,0.7540,0.0000,0.7550,0.0395,0.7540,0.0789,0.7509,0.1181,0.7457,0.1570,0.7385,0.1954,0.7293,0.2333,0.7181,0.2706,0.7049,0.3071,0.6897,0.3428,0.6727,0.3775,0.6539,0.4112,0.6332,0.4438,0.6108,0.4752,0.5867,0.5052,0.5611,0.5339,0.5339,0.5611,0.5052,0.5868,0.4751,0.6108,0.4438,0.6332,0.4112,0.6539,0.3775,0.6727,0.3428,0.6897,0.3071,0.7049,0.2706,0.7181,0.2333,0.7293,0.1954,0.7385,0.1570,0.7457,0.1181,0.7509,0.0789,0.7540,0.0395,0.7550,0.0000,0.7540,-0.0395,0.7509,-0.0789,0.7457,-0.1181,0.7385,-0.1570,0.7293,-0.1954,0.7181,-0.2333,0.7049,-0.2706,0.6897,-0.3071,0.6727,-0.3428,0.6539,-0.3775,0.6332,-0.4112,0.6108,-0.4438,0.5868,-0.4751,0.5611,-0.5052,0.5339,-0.5339,0.5052,-0.5611,0.4752,-0.5867,0.4438,-0.6108,0.4112,-0.6332,0.3775,-0.6539,0.3428,-0.6727,0.3071,-0.6897,0.2706,-0.7049,0.2333,-0.7181,0.1954,-0.7293,0.1570,-0.7385,0.1181,-0.7457,0.0789,-0.7509,0.0395,-0.7540,0.0000,-0.7550,-0.0395,-0.7540,-0.0789,-0.7509,-0.1181,-0.7457,-0.1570,-0.7385,-0.1954,-0.7293,-0.2333,-0.7181,-0.2706,-0.7049,-0.3071,-0.6897,-0.3428,-0.6727,-0.3775,-0.6539,-0.4112,-0.6332,-0.4438,-0.6108,-0.4752,-0.5867,-0.5052,-0.5611,-0.5339,-0.5339,-0.5611,-0.5052,-0.5868,-0.4751,-0.6108,-0.4438,-0.6332,-0.4112,-0.6539,-0.3775,-0.6727,-0.3428,-0.6897,-0.3071,-0.7049,-0.2706,-0.7181,-0.2333,-0.7293,-0.1954,-0.7385,-0.1570,-0.7457,-0.1181,-0.7509,-0.0789,-0.7540,-0.0395,-0.7550,0.0000,0.0*%
%ADD77CUSTOMSHAPE77*%

%AMCUSTOMSHAPE78*
4,1,120,-0.7550,0.0000,-0.7540,0.0395,-0.7509,0.0789,-0.7457,0.1181,-0.7385,0.1570,-0.7293,0.1954,-0.7180,0.2333,-0.7049,0.2706,-0.6897,0.3071,-0.6727,0.3428,-0.6539,0.3775,-0.6332,0.4112,-0.6108,0.4438,-0.5867,0.4751,-0.5611,0.5052,-0.5339,0.5339,-0.5052,0.5611,-0.4751,0.5867,-0.4438,0.6108,-0.4112,0.6332,-0.3775,0.6539,-0.3428,0.6727,-0.3071,0.6897,-0.2706,0.7049,-0.2333,0.7180,-0.1954,0.7293,-0.1570,0.7385,-0.1181,0.7457,-0.0789,0.7509,-0.0395,0.7540,0.0000,0.7550,0.0395,0.7540,0.0789,0.7509,0.1181,0.7457,0.1570,0.7385,0.1954,0.7293,0.2333,0.7180,0.2706,0.7049,0.3071,0.6897,0.3428,0.6727,0.3775,0.6539,0.4112,0.6332,0.4438,0.6108,0.4751,0.5867,0.5052,0.5611,0.5339,0.5339,0.5611,0.5052,0.5867,0.4751,0.6108,0.4438,0.6332,0.4112,0.6539,0.3775,0.6727,0.3428,0.6897,0.3071,0.7049,0.2706,0.7180,0.2333,0.7293,0.1954,0.7385,0.1570,0.7457,0.1181,0.7509,0.0789,0.7540,0.0395,0.7550,0.0000,0.7540,-0.0395,0.7509,-0.0789,0.7457,-0.1181,0.7385,-0.1570,0.7293,-0.1954,0.7180,-0.2333,0.7049,-0.2706,0.6897,-0.3071,0.6727,-0.3428,0.6539,-0.3775,0.6332,-0.4112,0.6108,-0.4438,0.5867,-0.4751,0.5611,-0.5052,0.5339,-0.5339,0.5052,-0.5611,0.4751,-0.5867,0.4438,-0.6108,0.4112,-0.6332,0.3775,-0.6539,0.3428,-0.6727,0.3071,-0.6897,0.2706,-0.7049,0.2333,-0.7180,0.1954,-0.7293,0.1570,-0.7385,0.1181,-0.7457,0.0789,-0.7509,0.0395,-0.7540,0.0000,-0.7550,-0.0395,-0.7540,-0.0789,-0.7509,-0.1181,-0.7457,-0.1570,-0.7385,-0.1954,-0.7293,-0.2333,-0.7180,-0.2706,-0.7049,-0.3071,-0.6897,-0.3428,-0.6727,-0.3775,-0.6539,-0.4112,-0.6332,-0.4438,-0.6108,-0.4751,-0.5867,-0.5052,-0.5611,-0.5339,-0.5339,-0.5611,-0.5052,-0.5867,-0.4751,-0.6108,-0.4438,-0.6332,-0.4112,-0.6539,-0.3775,-0.6727,-0.3428,-0.6897,-0.3071,-0.7049,-0.2706,-0.7180,-0.2333,-0.7293,-0.1954,-0.7385,-0.1570,-0.7457,-0.1181,-0.7509,-0.0789,-0.7540,-0.0395,-0.7550,0.0000,0.0*%
%ADD78CUSTOMSHAPE78*%

D71*
X777875Y1012190D02*
X788234D01*
X758190Y992505D02*
X777875Y1012190D01*
X758190Y967740D02*
Y992505D01*
Y967740D02*
X763270Y962660D01*
D75*
X767080Y1010610D02*
D03*
Y952810D02*
D03*
D76*
X759460Y993140D02*
D03*
X763270Y962660D02*
D03*
D77*
X935849Y774815D02*
D03*
X915529D02*
D03*
X895209D02*
D03*
X874889D02*
D03*
X854639D02*
D03*
X834249D02*
D03*
X813929D02*
D03*
X793609D02*
D03*
X773289D02*
D03*
X753039D02*
D03*
X773359Y754495D02*
D03*
X793679D02*
D03*
X813999D02*
D03*
X834319D02*
D03*
X854709D02*
D03*
X874959D02*
D03*
X895279D02*
D03*
X915599D02*
D03*
X935919D02*
D03*
X1174609Y773545D02*
D03*
X1154289D02*
D03*
X1133969D02*
D03*
X1113649D02*
D03*
X1093399D02*
D03*
X1073009D02*
D03*
X1052689D02*
D03*
X1032369D02*
D03*
X1012049D02*
D03*
X991799D02*
D03*
X1012119Y753225D02*
D03*
X1032439D02*
D03*
X1052759D02*
D03*
X1073079D02*
D03*
X1093469D02*
D03*
X1113719D02*
D03*
X1134039D02*
D03*
X1154359D02*
D03*
X1174679D02*
D03*
D78*
X753109Y754495D02*
D03*
X991869Y753225D02*
D03*
M02*
