%FSTAX23Y23*%
%MOIN*%
%SFA1B1*%

%IPPOS*%
%ADD13C,0.010000*%
%ADD17C,0.008000*%
%ADD27C,0.015000*%
%ADD95C,0.025591*%
%ADD96C,0.020000*%
%ADD97C,0.050000*%
%ADD98C,0.060000*%
%LNesp32c3phils-1*%
%LPD*%
G54D13*
X04745Y03885D02*
D01*
X04751Y03885*
X04758Y03885*
X04765Y03887*
X04772Y03888*
X04779Y03891*
X04785Y03893*
X04791Y03896*
X04797Y039*
X04803Y03904*
X04809Y03908*
X04814Y03913*
X04819Y03918*
X04823Y03923*
X04827Y03929*
X04831Y03935*
X04834Y03941*
X04837Y03947*
X0484Y03954*
X04842Y0396*
X04843Y03967*
X04844Y03974*
X04844Y03981*
X04845Y03985*
X0449Y03885D02*
X04745D01*
X04845Y03985D02*
Y0421D01*
X0399Y0374D02*
X04005Y03725D01*
X0402Y03605D02*
Y03719D01*
X04014Y03725D02*
X0402Y03719D01*
X04005Y03725D02*
X04014D01*
X0375Y03735D02*
X03905D01*
X0344Y03695D02*
X035Y03755D01*
X0359*
X0266Y03895D02*
X0267Y03905D01*
X0266Y0387D02*
Y03895D01*
X03725Y03805D02*
X0383D01*
X0372Y03765D02*
Y03799D01*
X03725Y03805*
X0372Y03765D02*
X0375Y03735D01*
X03135Y04005D02*
Y04175D01*
X03675Y0395D02*
X037Y03975D01*
X0361Y0395D02*
X03675D01*
X0358Y0398D02*
X0361Y0395D01*
X0358Y0398D02*
Y04015D01*
X03555Y0404D02*
X0358Y04015D01*
X03838Y0391D02*
X03853Y03925D01*
X03745Y0391D02*
X03838D01*
X03853Y03925D02*
X03855D01*
X0359Y03755D02*
X03745Y0391D01*
X03155Y03995D02*
Y04095D01*
X0313Y0397D02*
X03155Y03995D01*
X0313Y0394D02*
Y0397D01*
X03105Y03805D02*
Y03915D01*
X0313Y0394*
X0311Y0395D02*
Y0398D01*
X03135Y04005*
G54D17*
X03475Y0377D02*
Y03815D01*
X03565Y03905*
X03655*
X03735Y03985*
X0377*
X02944Y03585D02*
X02985D01*
X0294Y03589D02*
X02944Y03585D01*
X0294Y03589D02*
Y0362D01*
X02985Y03585D02*
X03455Y04055D01*
X03535*
G54D27*
X03525Y0346D03*
X0395Y03075D03*
X04025D03*
X04105D03*
X04185D03*
X04265D03*
X04345D03*
X04425Y0308D03*
X04505Y03075D03*
X04585Y0308D03*
X0472Y03045D03*
X04555Y0394D03*
X04115D03*
X04845Y0421D03*
X0449Y03885D03*
X04845Y03835D03*
X04115Y03855D03*
X0401Y0381D03*
X04475Y0383D03*
X04745D03*
X0401Y03985D03*
X0399Y0374D03*
X0402Y03605D03*
X03945Y03625D03*
X0351Y0379D03*
X03475Y0377D03*
X03459Y03745D03*
X03443D03*
X0377Y03985D03*
X0378Y04005D03*
X0375Y03954D03*
X03805Y03975D03*
X0376Y04005D03*
X03735Y04025D03*
X0267Y03905D03*
X0266Y0387D03*
X03525Y0417D03*
X03745Y03535D03*
X0393Y0364D03*
X03875Y0388D03*
X0388Y039D03*
X03135Y04175D03*
X03573Y04055D03*
X03535D03*
X03555Y0404D03*
X0383Y03975D03*
X0386D03*
X0344Y03695D03*
X0376Y03935D03*
X03355Y03585D03*
X03155Y04095D03*
X03105Y03805D03*
X0311Y0395D03*
X03375Y03585D03*
X03005Y0414D03*
X03635Y0403D03*
X03545Y03721D03*
Y03705D03*
X03385Y0388D03*
X0351Y03685D03*
X0367Y0388D03*
X0378Y0352D03*
X0374Y03685D03*
X0377Y0383D03*
Y03665D03*
Y0385D03*
X03755Y03635D03*
X03765Y037D03*
X0315Y0367D03*
X03175Y03495D03*
X037Y04115D03*
X03645Y04125D03*
X037Y04135D03*
X03855Y03925D03*
X03585Y0404D03*
X037Y03975D03*
X0363Y0401D03*
X0346Y03625D03*
Y0368D03*
X0318Y03665D03*
X0337Y03655D03*
X03215Y0365D03*
X03403Y03654D03*
X0328Y03635D03*
X0365Y0399D03*
X03635Y0409D03*
X03655Y04105D03*
X03705Y04005D03*
X03555Y03955D03*
X0372Y0409D03*
X03635Y03975D03*
X0337Y04055D03*
X0347Y04025D03*
X03505Y03885D03*
X03425Y04075D03*
X0348Y03885D03*
X0341Y0406D03*
X0351Y03815D03*
X0344Y03885D03*
X036Y037D03*
X035Y03605D03*
X03625Y03705D03*
G54D95*
X02665Y04008D03*
Y03781D03*
G54D96*
X03905Y03735D03*
X03355Y03795D03*
X033Y03685D03*
X0383Y03805D03*
X0294Y0362D03*
X03535Y04095D03*
X0327Y04245D03*
X02615Y0395D03*
X03525Y0351D03*
X03435Y03595D03*
X0334Y04085D03*
Y04205D03*
X03215Y0408D03*
X0337Y0423D03*
X0265Y0382D03*
G54D97*
X02845Y04095D03*
X02785Y03745D03*
G54D98*
X0467Y0352D03*
X0477Y0342D03*
Y0362D03*
X0457D03*
Y0342D03*
M02*