G04*
G04 #@! TF.GenerationSoftware,Altium Limited,Altium Designer,22.11.1 (43)*
G04*
G04 Layer_Color=65535*
%FSLAX44Y44*%
%MOMM*%
G71*
G04*
G04 #@! TF.SameCoordinates,E8DFFA77-AAD4-42D3-BC67-82D9B879F82B*
G04*
G04*
G04 #@! TF.FilePolarity,Positive*
G04*
G01*
G75*
%ADD10C,0.2000*%
%ADD11C,0.5080*%
%ADD12C,0.0000*%
%ADD13C,0.2540*%
%ADD14C,0.1000*%
%ADD15C,0.1270*%
%ADD16C,0.1524*%
%ADD17C,0.2032*%
%ADD18C,0.0762*%
G36*
X842899Y903685D02*
Y899875D01*
X840359D01*
Y903685D01*
X842899D01*
D02*
G37*
D10*
X1225430Y690250D02*
G03*
X1225430Y690250I-1000J0D01*
G01*
X1015460Y1023670D02*
G03*
X1015460Y1023670I-1000J0D01*
G01*
X1004300Y1037410D02*
G03*
X1004300Y1037410I-1000J0D01*
G01*
X893940Y909780D02*
G03*
X893940Y909780I-1000J0D01*
G01*
X919430Y1064772D02*
G03*
X919430Y1064772I-1000J0D01*
G01*
X857000Y988050D02*
G03*
X857000Y988050I-1000J0D01*
G01*
X799260Y928500D02*
G03*
X799260Y928500I-1000J0D01*
G01*
X700210Y1027130D02*
G03*
X700210Y1027130I-1000J0D01*
G01*
X960830Y957860D02*
G03*
X960830Y957860I-1000J0D01*
G01*
X822850Y1034180D02*
G03*
X822850Y1034180I-1000J0D01*
G01*
X614110Y1034030D02*
X629010D01*
X614110Y944630D02*
Y1034030D01*
Y944630D02*
X629010D01*
X656210Y1034030D02*
X668310D01*
X656210Y944630D02*
X668310D01*
D11*
X1163320Y1045210D02*
G03*
X1163320Y1045210I-3810J0D01*
G01*
D12*
X861950Y936770D02*
G03*
X861950Y936770I-1270J0D01*
G01*
D13*
X852529Y891794D02*
G03*
X852529Y891794I-359J0D01*
G01*
X729234Y1087120D02*
X776986D01*
X729234Y1058926D02*
X776986D01*
X729234D02*
Y1087120D01*
X776986Y1058926D02*
Y1087120D01*
X829818Y1004716D02*
Y1029716D01*
X803656Y1004716D02*
Y1029716D01*
X727964Y875030D02*
X775716D01*
X727964Y903224D02*
X775716D01*
Y875030D02*
Y903224D01*
X727964Y875030D02*
Y903224D01*
X719833Y786379D02*
X714754D01*
X717293D01*
Y773683D01*
X714754Y771144D01*
X712215D01*
X709676Y773683D01*
X735068Y786379D02*
X724911D01*
Y778762D01*
X729989Y781301D01*
X732529D01*
X735068Y778762D01*
Y773683D01*
X732529Y771144D01*
X727450D01*
X724911Y773683D01*
X1162051Y1087117D02*
X1156973D01*
X1159512D01*
Y1074422D01*
X1156973Y1071882D01*
X1154433D01*
X1151894Y1074422D01*
X1174747Y1071882D02*
Y1087117D01*
X1167129Y1079500D01*
X1177286D01*
X1073156Y1050287D02*
Y1037592D01*
X1075695Y1035052D01*
X1080774D01*
X1083313Y1037592D01*
Y1050287D01*
X1088391Y1035052D02*
X1093470D01*
X1090930D01*
Y1050287D01*
X1088391Y1047748D01*
X1101087D02*
X1103626Y1050287D01*
X1108705D01*
X1111244Y1047748D01*
Y1037592D01*
X1108705Y1035052D01*
X1103626D01*
X1101087Y1037592D01*
Y1047748D01*
X623572Y1061297D02*
Y1057912D01*
Y1059604D01*
X632036D01*
X633728Y1057912D01*
Y1056219D01*
X632036Y1054526D01*
X633728Y1071454D02*
Y1064683D01*
X626957Y1071454D01*
X625264D01*
X623572Y1069761D01*
Y1066376D01*
X625264Y1064683D01*
D14*
X965320Y1030130D02*
G03*
X965320Y1030130I-500J0D01*
G01*
Y1033130D02*
Y1047130D01*
X980320Y1033130D02*
Y1047130D01*
D15*
X1217930Y693400D02*
Y741700D01*
X709930Y693400D02*
Y741700D01*
X1214780Y693400D02*
X1217930D01*
X709930D02*
X713080D01*
X709930Y741700D02*
X713080D01*
X1214780D02*
X1217930D01*
X1044960Y1029670D02*
X1108960D01*
X1043960Y928670D02*
X1109960D01*
X1004160Y936270D02*
X1014160D01*
X1004160Y945870D02*
X1014160D01*
X1006120Y905590D02*
Y915590D01*
X1015720Y905590D02*
Y915590D01*
X1147090Y976710D02*
Y986710D01*
X1156690Y976710D02*
Y986710D01*
X1147090Y958930D02*
Y968930D01*
X1156690Y958930D02*
Y968930D01*
X995300Y1056990D02*
Y1068990D01*
X1011300Y1056990D02*
Y1068990D01*
X866420Y1041480D02*
Y1051480D01*
X876020Y1041480D02*
Y1051480D01*
X913740Y931980D02*
X919140D01*
X913740Y906980D02*
X919140D01*
X979250Y935000D02*
X989250D01*
X979250Y944600D02*
X989250D01*
X950240Y905590D02*
Y915590D01*
X959840Y905590D02*
Y915590D01*
X961470Y935000D02*
X971470D01*
X961470Y944600D02*
X971470D01*
X967040Y1055650D02*
X977040D01*
X967040Y1065250D02*
X977040D01*
X965280Y899229D02*
X975280D01*
X965280Y889629D02*
X975280D01*
X982055Y905590D02*
Y915590D01*
X991655Y905590D02*
Y915590D01*
X979250Y930979D02*
X989250D01*
X979250Y921379D02*
X989250D01*
X912220Y1058773D02*
X914720D01*
X912220Y1048773D02*
Y1058773D01*
Y1028773D02*
Y1038773D01*
Y1028773D02*
X914720D01*
X954720D02*
X957220D01*
Y1038773D01*
X954720Y1058773D02*
X957220D01*
Y1048773D02*
Y1058773D01*
X853600Y1003350D02*
Y1004950D01*
Y1014350D02*
Y1015950D01*
X873600Y1014350D02*
Y1015950D01*
Y1003350D02*
Y1004950D01*
X851180Y1059260D02*
Y1069260D01*
X860780Y1059260D02*
Y1069260D01*
X907770Y1011000D02*
Y1021000D01*
X898170Y1011000D02*
Y1021000D01*
X892530Y993220D02*
Y1003220D01*
X882930Y993220D02*
Y1003220D01*
X938250Y1011000D02*
Y1021000D01*
X928650Y1011000D02*
Y1021000D01*
X938810Y905590D02*
Y915590D01*
X948410Y905590D02*
Y915590D01*
X938810Y922880D02*
Y932880D01*
X948410Y922880D02*
Y932880D01*
X962740Y997230D02*
X972740D01*
X962740Y1006830D02*
X972740D01*
X748110Y1046760D02*
X758110D01*
X748110Y1056360D02*
X758110D01*
X793060Y893050D02*
Y923050D01*
X827460Y893050D02*
Y923050D01*
X870422Y896700D02*
Y906700D01*
X880022Y896700D02*
Y906700D01*
X858600Y881660D02*
X868600D01*
X858600Y891260D02*
X868600D01*
X804190Y1061800D02*
Y1071800D01*
X813790Y1061800D02*
Y1071800D01*
X804190Y1044020D02*
Y1054020D01*
X813790Y1044020D02*
Y1054020D01*
X924640Y1063270D02*
X934640D01*
X924640Y1072870D02*
X934640D01*
X946230D02*
X956230D01*
X946230Y1063270D02*
X956230D01*
X920470Y1011000D02*
Y1021000D01*
X910870Y1011000D02*
Y1021000D01*
X923370Y890550D02*
X933370D01*
X923370Y900150D02*
X933370D01*
X900510D02*
X910510D01*
X900510Y890550D02*
X910510D01*
X962740Y995400D02*
X972740D01*
X962740Y985800D02*
X972740D01*
X961470Y930979D02*
X971470D01*
X961470Y921379D02*
X971470D01*
X746060Y915390D02*
X756060D01*
X746060Y905790D02*
X756060D01*
X947880Y950360D02*
X950830D01*
Y953310D01*
Y997410D02*
Y1000360D01*
X947880D02*
X950830D01*
X900830D02*
X903780D01*
X900830Y997410D02*
Y1000360D01*
Y950360D02*
Y953310D01*
Y950360D02*
X903780D01*
X844703Y943690D02*
Y953690D01*
X854303Y943690D02*
Y953690D01*
X840460Y943690D02*
Y953690D01*
X830860Y943690D02*
Y953690D01*
X826490Y943690D02*
Y953690D01*
X816890Y943690D02*
Y953690D01*
X812520Y943690D02*
Y953690D01*
X802920Y943690D02*
Y953690D01*
X816215Y1051180D02*
Y1067180D01*
X847485Y1051180D02*
Y1067180D01*
X851180Y1041480D02*
Y1051480D01*
X860780Y1041480D02*
Y1051480D01*
X989329Y1045632D02*
X985097D01*
X984251Y1044786D01*
Y1043093D01*
X985097Y1042246D01*
X989329D01*
X985097Y1040554D02*
X984251Y1039707D01*
Y1038014D01*
X985097Y1037168D01*
X988483D01*
X989329Y1038014D01*
Y1039707D01*
X988483Y1040554D01*
X987636D01*
X986790Y1039707D01*
Y1037168D01*
D16*
X1240307Y996340D02*
X1244600D01*
X1165860D02*
X1170153D01*
X1244600D02*
Y1049680D01*
X1240307D02*
X1244600D01*
X1165860Y996340D02*
Y1049680D01*
X1170153D01*
X1189507D02*
X1195553D01*
X1214907D02*
X1220953D01*
X1189507Y996340D02*
X1195553D01*
X1214907D02*
X1220953D01*
X1149858Y857758D02*
Y859332D01*
X1220928Y930402D02*
X1222502D01*
X1149858Y928828D02*
Y930402D01*
Y857758D02*
X1151432D01*
X1222502D02*
Y859332D01*
X1220928Y857758D02*
X1222502D01*
Y878028D02*
Y910132D01*
X1170128Y930402D02*
X1202232D01*
X1222502Y928828D02*
Y930402D01*
X1149858Y878028D02*
Y910132D01*
Y930402D02*
X1151432D01*
X1170128Y857758D02*
X1202232D01*
X805307Y962660D02*
X825373D01*
X805307Y995680D02*
X825373D01*
X843153Y918337D02*
X848522D01*
X866267Y915468D02*
Y918337D01*
X860898Y895223D02*
X866267D01*
X843153D02*
X848522D01*
X843153Y915468D02*
Y918337D01*
X860898D02*
X866267D01*
Y895223D02*
Y898092D01*
X843153Y895223D02*
Y898092D01*
X983828Y979804D02*
Y973456D01*
X988060D01*
X990176D02*
X992292D01*
X991234D01*
Y979804D01*
X990176Y978746D01*
X841376Y1005630D02*
X846666D01*
X847724Y1006688D01*
Y1008804D01*
X846666Y1009862D01*
X841376D01*
Y1016210D02*
X842434Y1014094D01*
X844550Y1011978D01*
X846666D01*
X847724Y1013036D01*
Y1015152D01*
X846666Y1016210D01*
X845608D01*
X844550Y1015152D01*
Y1011978D01*
X900432Y1073149D02*
Y1066801D01*
X901702Y1065531D01*
X904241D01*
X905510Y1066801D01*
Y1073149D01*
X911858Y1065531D02*
Y1073149D01*
X908050Y1069340D01*
X913128D01*
X841376Y981288D02*
X846666D01*
X847724Y982346D01*
Y984462D01*
X846666Y985520D01*
X841376D01*
X847724Y987636D02*
Y989752D01*
Y988694D01*
X841376D01*
X842434Y987636D01*
D17*
X1112012Y644748D02*
Y649826D01*
X1114551Y652365D01*
X1117090Y649826D01*
Y644748D01*
Y648557D01*
X1112012D01*
X1119630Y652365D02*
X1122169D01*
X1120899D01*
Y644748D01*
X1119630D01*
X1122169D01*
X1125977D02*
Y652365D01*
X1129786D01*
X1131056Y651096D01*
Y648557D01*
X1129786Y647287D01*
X1125977D01*
X1128517D02*
X1131056Y644748D01*
X1133595D02*
Y652365D01*
X1136134Y649826D01*
X1138673Y652365D01*
Y644748D01*
X1141213D02*
Y649826D01*
X1143752Y652365D01*
X1146291Y649826D01*
Y644748D01*
Y648557D01*
X1141213D01*
X1148830Y644748D02*
Y652365D01*
X1153908Y644748D01*
Y652365D01*
X1161526Y651096D02*
X1160256Y652365D01*
X1157717D01*
X1156448Y651096D01*
Y646017D01*
X1157717Y644748D01*
X1160256D01*
X1161526Y646017D01*
Y648557D01*
X1158987D01*
X1164065Y652365D02*
Y644748D01*
X1167874D01*
X1169144Y646017D01*
Y647287D01*
X1167874Y648557D01*
X1164065D01*
X1167874D01*
X1169144Y649826D01*
Y651096D01*
X1167874Y652365D01*
X1164065D01*
X1179300D02*
X1184379Y644748D01*
Y652365D02*
X1179300Y644748D01*
X1186918Y652365D02*
Y644748D01*
X1190726D01*
X1191996Y646017D01*
Y647287D01*
X1190726Y648557D01*
X1186918D01*
X1190726D01*
X1191996Y649826D01*
Y651096D01*
X1190726Y652365D01*
X1186918D01*
X1194535Y648557D02*
X1199614D01*
X1202153Y652365D02*
X1207231D01*
Y651096D01*
X1202153Y646017D01*
Y644748D01*
X1209770Y651096D02*
X1211040Y652365D01*
X1213579D01*
X1214849Y651096D01*
Y646017D01*
X1213579Y644748D01*
X1211040D01*
X1209770Y646017D01*
Y651096D01*
X1117090Y637078D02*
X1115821Y638347D01*
X1113282D01*
X1112012Y637078D01*
Y635808D01*
X1113282Y634539D01*
X1115821D01*
X1117090Y633269D01*
Y631999D01*
X1115821Y630730D01*
X1113282D01*
X1112012Y631999D01*
X1124708Y638347D02*
X1119630D01*
Y630730D01*
X1124708D01*
X1119630Y634539D02*
X1122169D01*
X1127247Y630730D02*
Y638347D01*
X1132325Y630730D01*
Y638347D01*
X1139943Y637078D02*
X1138673Y638347D01*
X1136134D01*
X1134865Y637078D01*
Y635808D01*
X1136134Y634539D01*
X1138673D01*
X1139943Y633269D01*
Y631999D01*
X1138673Y630730D01*
X1136134D01*
X1134865Y631999D01*
X1146291Y638347D02*
X1143752D01*
X1142482Y637078D01*
Y631999D01*
X1143752Y630730D01*
X1146291D01*
X1147561Y631999D01*
Y637078D01*
X1146291Y638347D01*
X1150100Y630730D02*
Y638347D01*
X1153908D01*
X1155178Y637078D01*
Y634539D01*
X1153908Y633269D01*
X1150100D01*
X1152639D02*
X1155178Y630730D01*
X1170413Y637078D02*
X1169144Y638347D01*
X1166604D01*
X1165335Y637078D01*
Y631999D01*
X1166604Y630730D01*
X1169144D01*
X1170413Y631999D01*
Y634539D01*
X1167874D01*
X1172952Y630730D02*
Y638347D01*
X1178031Y630730D01*
Y638347D01*
X1185648Y637078D02*
X1184379Y638347D01*
X1181839D01*
X1180570Y637078D01*
Y635808D01*
X1181839Y634539D01*
X1184379D01*
X1185648Y633269D01*
Y631999D01*
X1184379Y630730D01*
X1181839D01*
X1180570Y631999D01*
X1193266Y637078D02*
X1191996Y638347D01*
X1189457D01*
X1188187Y637078D01*
Y635808D01*
X1189457Y634539D01*
X1191996D01*
X1193266Y633269D01*
Y631999D01*
X1191996Y630730D01*
X1189457D01*
X1188187Y631999D01*
X1203422Y638347D02*
Y630730D01*
X1207231D01*
X1208501Y631999D01*
Y633269D01*
X1207231Y634539D01*
X1203422D01*
X1207231D01*
X1208501Y635808D01*
Y637078D01*
X1207231Y638347D01*
X1203422D01*
X1214849D02*
X1212310D01*
X1211040Y637078D01*
Y631999D01*
X1212310Y630730D01*
X1214849D01*
X1216118Y631999D01*
Y637078D01*
X1214849Y638347D01*
X1218658Y630730D02*
Y635808D01*
X1221197Y638347D01*
X1223736Y635808D01*
Y630730D01*
Y634539D01*
X1218658D01*
X1226275Y630730D02*
Y638347D01*
X1230084D01*
X1231353Y637078D01*
Y634539D01*
X1230084Y633269D01*
X1226275D01*
X1228814D02*
X1231353Y630730D01*
X1233893Y638347D02*
Y630730D01*
X1237701D01*
X1238971Y631999D01*
Y637078D01*
X1237701Y638347D01*
X1233893D01*
X1112012Y624329D02*
Y619251D01*
X1114551Y616712D01*
X1117090Y619251D01*
Y624329D01*
X1119630Y620521D02*
X1124708D01*
X1127247Y616712D02*
X1129786D01*
X1128517D01*
Y624329D01*
X1127247Y623060D01*
X1133595Y616712D02*
Y617982D01*
X1134865D01*
Y616712D01*
X1133595D01*
X1139943D02*
X1142482D01*
X1141213D01*
Y624329D01*
X1139943Y623060D01*
X1171071Y799844D02*
Y794512D01*
X1175069D01*
X1173736Y797178D01*
Y798511D01*
X1175069Y799844D01*
X1177735D01*
X1179068Y798511D01*
Y795845D01*
X1177735Y794512D01*
X1171071Y802509D02*
X1176402D01*
X1179068Y805175D01*
X1176402Y807841D01*
X1171071D01*
X1150751Y798574D02*
X1149418Y797241D01*
Y794575D01*
X1150751Y793242D01*
X1152084D01*
X1153416Y794575D01*
Y797241D01*
X1154749Y798574D01*
X1156082D01*
X1157415Y797241D01*
Y794575D01*
X1156082Y793242D01*
X1149418Y805238D02*
Y802572D01*
X1150751Y801239D01*
X1156082D01*
X1157415Y802572D01*
Y805238D01*
X1156082Y806571D01*
X1150751D01*
X1149418Y805238D01*
X1157415Y809237D02*
X1149418D01*
X1152084Y811903D01*
X1149418Y814568D01*
X1157415D01*
X1158748Y817234D02*
Y822566D01*
X1157415Y825232D02*
X1149418D01*
Y829230D01*
X1150751Y830563D01*
X1153416D01*
X1154749Y829230D01*
Y825232D01*
Y827897D02*
X1157415Y830563D01*
X1150751Y838561D02*
X1149418Y837228D01*
Y834562D01*
X1150751Y833229D01*
X1152084D01*
X1153416Y834562D01*
Y837228D01*
X1154749Y838561D01*
X1156082D01*
X1157415Y837228D01*
Y834562D01*
X1156082Y833229D01*
X1149418Y841226D02*
Y846558D01*
Y843892D01*
X1157415D01*
X1137158Y793242D02*
X1129161D01*
Y797241D01*
X1130493Y798574D01*
X1133159D01*
X1134492Y797241D01*
Y793242D01*
Y795908D02*
X1137158Y798574D01*
X1129161Y801239D02*
Y806571D01*
Y803905D01*
X1137158D01*
X1130493Y814568D02*
X1129161Y813235D01*
Y810570D01*
X1130493Y809237D01*
X1135825D01*
X1137158Y810570D01*
Y813235D01*
X1135825Y814568D01*
X1111443Y798574D02*
X1110111Y797241D01*
Y794575D01*
X1111443Y793242D01*
X1116775D01*
X1118108Y794575D01*
Y797241D01*
X1116775Y798574D01*
X1114109D01*
Y795908D01*
X1118108Y801239D02*
X1110111D01*
X1118108Y806571D01*
X1110111D01*
Y809237D02*
X1118108D01*
Y813235D01*
X1116775Y814568D01*
X1111443D01*
X1110111Y813235D01*
Y809237D01*
X1087188Y793242D02*
X1093852D01*
X1095185Y794575D01*
Y797241D01*
X1093852Y798574D01*
X1087188D01*
X1095185Y801239D02*
X1089854D01*
X1087188Y803905D01*
X1089854Y806571D01*
X1095185D01*
X1091186D01*
Y801239D01*
X1095185Y809237D02*
X1087188D01*
Y813235D01*
X1088521Y814568D01*
X1091186D01*
X1092519Y813235D01*
Y809237D01*
Y811903D02*
X1095185Y814568D01*
X1087188Y817234D02*
Y822566D01*
Y819900D01*
X1095185D01*
Y829230D02*
X1087188D01*
X1091186Y825232D01*
Y830563D01*
X1096518Y833229D02*
Y838561D01*
X1087188Y841226D02*
Y846558D01*
Y843892D01*
X1095185D01*
X1087188Y849224D02*
X1095185Y854555D01*
X1087188D02*
X1095185Y849224D01*
X1068138Y793242D02*
X1074802D01*
X1076135Y794575D01*
Y797241D01*
X1074802Y798574D01*
X1068138D01*
X1076135Y801239D02*
X1070804D01*
X1068138Y803905D01*
X1070804Y806571D01*
X1076135D01*
X1072136D01*
Y801239D01*
X1076135Y809237D02*
X1068138D01*
Y813235D01*
X1069471Y814568D01*
X1072136D01*
X1073469Y813235D01*
Y809237D01*
Y811903D02*
X1076135Y814568D01*
X1068138Y817234D02*
Y822566D01*
Y819900D01*
X1076135D01*
Y829230D02*
X1068138D01*
X1072136Y825232D01*
Y830563D01*
X1077468Y833229D02*
Y838561D01*
X1076135Y841226D02*
X1068138D01*
Y845225D01*
X1069471Y846558D01*
X1072136D01*
X1073469Y845225D01*
Y841226D01*
Y843892D02*
X1076135Y846558D01*
X1068138Y849224D02*
X1076135Y854555D01*
X1068138D02*
X1076135Y849224D01*
X1049151Y798574D02*
X1047818Y797241D01*
Y794575D01*
X1049151Y793242D01*
X1054482D01*
X1055815Y794575D01*
Y797241D01*
X1054482Y798574D01*
X1051816D01*
Y795908D01*
X1055815Y801239D02*
X1047818D01*
Y805238D01*
X1049151Y806571D01*
X1051816D01*
X1053149Y805238D01*
Y801239D01*
X1047818Y809237D02*
Y811903D01*
Y810570D01*
X1055815D01*
Y809237D01*
Y811903D01*
X1047818Y819900D02*
Y817234D01*
X1049151Y815901D01*
X1054482D01*
X1055815Y817234D01*
Y819900D01*
X1054482Y821233D01*
X1049151D01*
X1047818Y819900D01*
X1055815Y829230D02*
Y823899D01*
X1050483Y829230D01*
X1049151D01*
X1047818Y827897D01*
Y825232D01*
X1049151Y823899D01*
X1057148Y831896D02*
Y837228D01*
X1047818Y839893D02*
Y842559D01*
Y841226D01*
X1055815D01*
Y839893D01*
Y842559D01*
X1047818Y850557D02*
Y847891D01*
X1049151Y846558D01*
X1054482D01*
X1055815Y847891D01*
Y850557D01*
X1054482Y851890D01*
X1049151D01*
X1047818Y850557D01*
X1055815Y854555D02*
Y857221D01*
Y855888D01*
X1047818D01*
X1049151Y854555D01*
X1055815Y866552D02*
Y861220D01*
X1050483Y866552D01*
X1049151D01*
X1047818Y865219D01*
Y862553D01*
X1049151Y861220D01*
X1027498Y793242D02*
Y795908D01*
Y794575D01*
X1035495D01*
Y793242D01*
Y795908D01*
Y805238D02*
Y799906D01*
X1030163Y805238D01*
X1028831D01*
X1027498Y803905D01*
Y801239D01*
X1028831Y799906D01*
Y813235D02*
X1027498Y811903D01*
Y809237D01*
X1028831Y807904D01*
X1034162D01*
X1035495Y809237D01*
Y811903D01*
X1034162Y813235D01*
X1035495Y819900D02*
X1027498D01*
X1031496Y815901D01*
Y821233D01*
X1036828Y823899D02*
Y829230D01*
X1028831Y837228D02*
X1027498Y835895D01*
Y833229D01*
X1028831Y831896D01*
X1030163D01*
X1031496Y833229D01*
Y835895D01*
X1032829Y837228D01*
X1034162D01*
X1035495Y835895D01*
Y833229D01*
X1034162Y831896D01*
X1028831Y845225D02*
X1027498Y843892D01*
Y841226D01*
X1028831Y839893D01*
X1034162D01*
X1035495Y841226D01*
Y843892D01*
X1034162Y845225D01*
X1027498Y847891D02*
X1035495D01*
Y853222D01*
X1008448Y793242D02*
Y795908D01*
Y794575D01*
X1016445D01*
Y793242D01*
Y795908D01*
Y805238D02*
Y799906D01*
X1011114Y805238D01*
X1009781D01*
X1008448Y803905D01*
Y801239D01*
X1009781Y799906D01*
Y813235D02*
X1008448Y811903D01*
Y809237D01*
X1009781Y807904D01*
X1015112D01*
X1016445Y809237D01*
Y811903D01*
X1015112Y813235D01*
X1016445Y819900D02*
X1008448D01*
X1012446Y815901D01*
Y821233D01*
X1017778Y823899D02*
Y829230D01*
X1009781Y837228D02*
X1008448Y835895D01*
Y833229D01*
X1009781Y831896D01*
X1011114D01*
X1012446Y833229D01*
Y835895D01*
X1013779Y837228D01*
X1015112D01*
X1016445Y835895D01*
Y833229D01*
X1015112Y831896D01*
X1008448Y839893D02*
X1016445D01*
Y843892D01*
X1015112Y845225D01*
X1009781D01*
X1008448Y843892D01*
Y839893D01*
X1016445Y847891D02*
X1011114D01*
X1008448Y850557D01*
X1011114Y853222D01*
X1016445D01*
X1012446D01*
Y847891D01*
X988253Y794512D02*
X986921Y795845D01*
Y798511D01*
X988253Y799844D01*
X989586D01*
X990919Y798511D01*
Y797178D01*
Y798511D01*
X992252Y799844D01*
X993585D01*
X994918Y798511D01*
Y795845D01*
X993585Y794512D01*
X989586Y802509D02*
X994918Y805175D01*
X989586Y807841D01*
X988253Y810507D02*
X986921Y811840D01*
Y814505D01*
X988253Y815838D01*
X989586D01*
X990919Y814505D01*
Y813173D01*
Y814505D01*
X992252Y815838D01*
X993585D01*
X994918Y814505D01*
Y811840D01*
X993585Y810507D01*
X870461Y790702D02*
X876808D01*
X878078Y791972D01*
Y794511D01*
X876808Y795780D01*
X870461D01*
X871730Y798319D02*
X870461Y799589D01*
Y802128D01*
X871730Y803398D01*
X876808D01*
X878078Y802128D01*
Y799589D01*
X876808Y798319D01*
X871730D01*
X870461Y805937D02*
Y811015D01*
Y808476D01*
X878078D01*
X870461Y813555D02*
X878078Y818633D01*
X870461D02*
X878078Y813555D01*
X870461Y821172D02*
X878078D01*
Y824981D01*
X876808Y826251D01*
X871730D01*
X870461Y824981D01*
Y821172D01*
X895861Y790702D02*
X902208D01*
X903478Y791972D01*
Y794511D01*
X902208Y795780D01*
X895861D01*
X897130Y798319D02*
X895861Y799589D01*
Y802128D01*
X897130Y803398D01*
X902208D01*
X903478Y802128D01*
Y799589D01*
X902208Y798319D01*
X897130D01*
X903478Y805937D02*
X895861D01*
Y809746D01*
X897130Y811015D01*
X899669D01*
X900939Y809746D01*
Y805937D01*
Y808476D02*
X903478Y811015D01*
X895861Y813555D02*
X903478Y818633D01*
X895861D02*
X903478Y813555D01*
X895861Y821172D02*
X903478D01*
Y824981D01*
X902208Y826251D01*
X897130D01*
X895861Y824981D01*
Y821172D01*
X923800Y795780D02*
X922531Y794511D01*
Y791972D01*
X923800Y790702D01*
X928878D01*
X930148Y791972D01*
Y794511D01*
X928878Y795780D01*
X926339D01*
Y793241D01*
X930148Y798319D02*
X922531D01*
X930148Y803398D01*
X922531D01*
Y805937D02*
X930148D01*
Y809746D01*
X928878Y811015D01*
X923800D01*
X922531Y809746D01*
Y805937D01*
X951739Y790702D02*
Y795780D01*
X949200Y793241D02*
X954278D01*
X949200Y798319D02*
X947931Y799589D01*
Y802128D01*
X949200Y803398D01*
X950470D01*
X951739Y802128D01*
Y800859D01*
Y802128D01*
X953009Y803398D01*
X954278D01*
X955548Y802128D01*
Y799589D01*
X954278Y798319D01*
X947931Y805937D02*
X953009D01*
X955548Y808476D01*
X953009Y811015D01*
X947931D01*
X949200Y813555D02*
X947931Y814824D01*
Y817363D01*
X949200Y818633D01*
X950470D01*
X951739Y817363D01*
Y816094D01*
Y817363D01*
X953009Y818633D01*
X954278D01*
X955548Y817363D01*
Y814824D01*
X954278Y813555D01*
X955548Y828790D02*
X947931D01*
Y832598D01*
X949200Y833868D01*
X951739D01*
X953009Y832598D01*
Y828790D01*
Y831329D02*
X955548Y833868D01*
X947931Y841486D02*
Y836407D01*
X955548D01*
Y841486D01*
X951739Y836407D02*
Y838946D01*
X949200Y849103D02*
X947931Y847833D01*
Y845294D01*
X949200Y844025D01*
X954278D01*
X955548Y845294D01*
Y847833D01*
X954278Y849103D01*
X951739D01*
Y846564D01*
X1191259Y937262D02*
X1186180D01*
X1183641Y939801D01*
X1186180Y942340D01*
X1191259D01*
X1187450D01*
Y937262D01*
X1191259Y949958D02*
Y944880D01*
X1186180Y949958D01*
X1184911D01*
X1183641Y948688D01*
Y946149D01*
X1184911Y944880D01*
X1151468Y939799D02*
Y934721D01*
X1154854D01*
X1159086D02*
Y939799D01*
X1156546Y937260D01*
X1159932D01*
X793750Y1075689D02*
X792481Y1076959D01*
X789942D01*
X788672Y1075689D01*
Y1074420D01*
X789942Y1073150D01*
X792481D01*
X793750Y1071880D01*
Y1070611D01*
X792481Y1069341D01*
X789942D01*
X788672Y1070611D01*
X801368Y1069341D02*
X796290D01*
X801368Y1074420D01*
Y1075689D01*
X800098Y1076959D01*
X797559D01*
X796290Y1075689D01*
X834392Y930909D02*
Y924561D01*
X835662Y923291D01*
X838201D01*
X839470Y924561D01*
Y930909D01*
X842010Y929639D02*
X843279Y930909D01*
X845818D01*
X847088Y929639D01*
Y928370D01*
X845818Y927100D01*
X847088Y925830D01*
Y924561D01*
X845818Y923291D01*
X843279D01*
X842010Y924561D01*
Y925830D01*
X843279Y927100D01*
X842010Y928370D01*
Y929639D01*
X843279Y927100D02*
X845818D01*
X830581Y902972D02*
X836929D01*
X838199Y904242D01*
Y906781D01*
X836929Y908050D01*
X830581D01*
Y910590D02*
Y915668D01*
X831851D01*
X836929Y910590D01*
X838199D01*
X791211Y880110D02*
X789941Y878840D01*
Y876301D01*
X791211Y875032D01*
X792480D01*
X793750Y876301D01*
Y878840D01*
X795020Y880110D01*
X796289D01*
X797559Y878840D01*
Y876301D01*
X796289Y875032D01*
X797559Y882649D02*
Y885188D01*
Y883919D01*
X789941D01*
X791211Y882649D01*
X899931Y876302D02*
X901201D01*
X903740Y878841D01*
X901201Y881380D01*
X899931D01*
X903740Y878841D02*
X907549D01*
Y883919D02*
Y886458D01*
Y885189D01*
X899931D01*
X901201Y883919D01*
X883919Y976628D02*
X877571D01*
X876301Y975358D01*
Y972819D01*
X877571Y971550D01*
X883919D01*
X882649Y969010D02*
X883919Y967741D01*
Y965202D01*
X882649Y963932D01*
X881380D01*
X880110Y965202D01*
Y966471D01*
Y965202D01*
X878840Y963932D01*
X877571D01*
X876301Y965202D01*
Y967741D01*
X877571Y969010D01*
D18*
X1135380Y1037590D02*
Y1046054D01*
X1139612Y1050286D01*
X1143844Y1046054D01*
Y1037590D01*
Y1043938D01*
X1135380D01*
X1148076Y1037590D02*
X1152308D01*
X1150192D01*
Y1050286D01*
X1148076Y1048170D01*
X1148080Y1023616D02*
Y1010920D01*
X1154428D01*
X1156544Y1013036D01*
Y1015152D01*
X1154428Y1017268D01*
X1148080D01*
X1154428D01*
X1156544Y1019384D01*
Y1021500D01*
X1154428Y1023616D01*
X1148080D01*
X1160776Y1010920D02*
X1165008D01*
X1162892D01*
Y1023616D01*
X1160776Y1021500D01*
X1248410Y1038860D02*
Y1047324D01*
X1252642Y1051556D01*
X1256874Y1047324D01*
Y1038860D01*
Y1045208D01*
X1248410D01*
X1261106Y1049440D02*
X1263222Y1051556D01*
X1267454D01*
X1269570Y1049440D01*
Y1047324D01*
X1267454Y1045208D01*
X1265338D01*
X1267454D01*
X1269570Y1043092D01*
Y1040976D01*
X1267454Y1038860D01*
X1263222D01*
X1261106Y1040976D01*
X1249680Y1007106D02*
Y994410D01*
X1256028D01*
X1258144Y996526D01*
Y998642D01*
X1256028Y1000758D01*
X1249680D01*
X1256028D01*
X1258144Y1002874D01*
Y1004990D01*
X1256028Y1007106D01*
X1249680D01*
X1262376Y1004990D02*
X1264492Y1007106D01*
X1268724D01*
X1270840Y1004990D01*
Y1002874D01*
X1268724Y1000758D01*
X1266608D01*
X1268724D01*
X1270840Y998642D01*
Y996526D01*
X1268724Y994410D01*
X1264492D01*
X1262376Y996526D01*
X1192530Y1074420D02*
Y1087116D01*
X1198878D01*
X1200994Y1085000D01*
Y1080768D01*
X1198878Y1078652D01*
X1192530D01*
X1196762D02*
X1200994Y1074420D01*
X1213690Y1087116D02*
X1205226D01*
Y1074420D01*
X1213690D01*
X1205226Y1080768D02*
X1209458D01*
X1226386Y1087116D02*
X1217922D01*
Y1080768D01*
X1222154D01*
X1217922D01*
Y1074420D01*
X1230618Y1087116D02*
Y1074420D01*
X1236966D01*
X1239082Y1076536D01*
Y1085000D01*
X1236966Y1087116D01*
X1230618D01*
X1251777D02*
X1243314D01*
Y1074420D01*
X1251777D01*
X1243314Y1080768D02*
X1247545D01*
X1264473Y1085000D02*
X1262357Y1087116D01*
X1258125D01*
X1256009Y1085000D01*
Y1082884D01*
X1258125Y1080768D01*
X1262357D01*
X1264473Y1078652D01*
Y1076536D01*
X1262357Y1074420D01*
X1258125D01*
X1256009Y1076536D01*
X1118870Y922020D02*
X1131566D01*
Y915672D01*
X1129450Y913556D01*
X1125218D01*
X1123102Y915672D01*
Y922020D01*
Y917788D02*
X1118870Y913556D01*
X1131566Y900860D02*
Y909324D01*
X1118870D01*
Y900860D01*
X1125218Y909324D02*
Y905092D01*
X1131566Y888164D02*
Y896628D01*
X1125218D01*
Y892396D01*
Y896628D01*
X1118870D01*
X1131566Y883932D02*
X1118870D01*
Y877584D01*
X1120986Y875468D01*
X1129450D01*
X1131566Y877584D01*
Y883932D01*
Y862773D02*
Y871236D01*
X1118870D01*
Y862773D01*
X1125218Y871236D02*
Y867004D01*
X1129450Y850077D02*
X1131566Y852193D01*
Y856425D01*
X1129450Y858541D01*
X1127334D01*
X1125218Y856425D01*
Y852193D01*
X1123102Y850077D01*
X1120986D01*
X1118870Y852193D01*
Y856425D01*
X1120986Y858541D01*
X831850Y962660D02*
Y960544D01*
X829734D01*
Y962660D01*
X831850D01*
M02*
