G04*
G04 #@! TF.GenerationSoftware,Altium Limited,Altium Designer,22.11.1 (43)*
G04*
G04 Layer_Color=32896*
%FSLAX44Y44*%
%MOMM*%
G71*
G04*
G04 #@! TF.SameCoordinates,81CC0E8B-20A0-439E-BAEA-CE75FBAB7F8A*
G04*
G04*
G04 #@! TF.FilePolarity,Positive*
G04*
G01*
G75*
%ADD11C,0.5080*%
%ADD13C,0.2540*%
%ADD16C,0.1524*%
%ADD17C,0.2032*%
%ADD18C,0.0762*%
D11*
X1163320Y1045210D02*
G03*
X1163320Y1045210I-3810J0D01*
G01*
D13*
X979169Y786245D02*
X1187449D01*
Y740525D02*
Y786245D01*
X979169Y740525D02*
X1187449D01*
X979169D02*
Y786245D01*
X740409Y787515D02*
X948689D01*
Y741795D02*
Y787515D01*
X740409Y741795D02*
X948689D01*
X740409D02*
Y787515D01*
X740409Y741795D02*
Y787515D01*
Y741795D02*
X948689D01*
Y787515D01*
X740409D02*
X948689D01*
X969007Y769617D02*
X974085D01*
X971546D01*
Y756922D01*
X974085Y754382D01*
X976625D01*
X979164Y756922D01*
X963929Y767078D02*
X961390Y769617D01*
X956311D01*
X953772Y767078D01*
Y764539D01*
X956311Y762000D01*
X958850D01*
X956311D01*
X953772Y759461D01*
Y756922D01*
X956311Y754382D01*
X961390D01*
X963929Y756922D01*
X969008Y769618D02*
X972393D01*
X970701D01*
Y761154D01*
X972393Y759462D01*
X974086D01*
X975779Y761154D01*
X965622Y759462D02*
X962237D01*
X963930D01*
Y769618D01*
X965622Y767926D01*
D16*
X755396Y736346D02*
X751164D01*
X749048Y734230D01*
X751164Y732114D01*
X755396D01*
X752222D01*
Y736346D01*
X749048Y729998D02*
X755396D01*
Y726824D01*
X754338Y725766D01*
X750106D01*
X749048Y726824D01*
Y729998D01*
X750106Y719418D02*
X749048Y720476D01*
Y722592D01*
X750106Y723650D01*
X754338D01*
X755396Y722592D01*
Y720476D01*
X754338Y719418D01*
X755396Y717302D02*
Y715186D01*
Y716244D01*
X749048D01*
X750106Y717302D01*
X775716Y736346D02*
X771484D01*
X769368Y734230D01*
X771484Y732114D01*
X775716D01*
X772542D01*
Y736346D01*
X769368Y729998D02*
X775716D01*
Y726824D01*
X774658Y725766D01*
X770426D01*
X769368Y726824D01*
Y729998D01*
X770426Y719418D02*
X769368Y720476D01*
Y722592D01*
X770426Y723650D01*
X774658D01*
X775716Y722592D01*
Y720476D01*
X774658Y719418D01*
X775716Y713070D02*
Y717302D01*
X771484Y713070D01*
X770426D01*
X769368Y714128D01*
Y716244D01*
X770426Y717302D01*
X796036Y736346D02*
X789688D01*
Y733172D01*
X790746Y732114D01*
X792862D01*
X793920Y733172D01*
Y736346D01*
X789688Y729998D02*
X796036D01*
X793920Y727882D01*
X796036Y725766D01*
X789688D01*
X796036Y723650D02*
X789688D01*
X791804Y721534D01*
X789688Y719418D01*
X796036D01*
Y717302D02*
Y715186D01*
Y716244D01*
X789688D01*
X790746Y717302D01*
X810220Y736346D02*
X816568D01*
Y733172D01*
X815510Y732114D01*
X811278D01*
X810220Y733172D01*
Y736346D01*
Y729998D02*
X816568D01*
Y726824D01*
X815510Y725766D01*
X814452D01*
X813394Y726824D01*
Y729998D01*
Y726824D01*
X812336Y725766D01*
X811278D01*
X810220Y726824D01*
Y729998D01*
X811278Y719418D02*
X810220Y720476D01*
Y722592D01*
X811278Y723650D01*
X815510D01*
X816568Y722592D01*
Y720476D01*
X815510Y719418D01*
X813394D01*
Y721534D01*
X817626Y717302D02*
Y713070D01*
X810220Y710954D02*
Y706722D01*
Y708838D01*
X816568D01*
X810220Y704606D02*
X816568Y700374D01*
X810220D02*
X816568Y704606D01*
X830540Y736346D02*
X836888D01*
Y733172D01*
X835830Y732114D01*
X831598D01*
X830540Y733172D01*
Y736346D01*
Y729998D02*
X836888D01*
Y726824D01*
X835830Y725766D01*
X834772D01*
X833714Y726824D01*
Y729998D01*
Y726824D01*
X832656Y725766D01*
X831598D01*
X830540Y726824D01*
Y729998D01*
X831598Y719418D02*
X830540Y720476D01*
Y722592D01*
X831598Y723650D01*
X835830D01*
X836888Y722592D01*
Y720476D01*
X835830Y719418D01*
X833714D01*
Y721534D01*
X837946Y717302D02*
Y713070D01*
X836888Y710954D02*
X830540D01*
Y707780D01*
X831598Y706722D01*
X833714D01*
X834772Y707780D01*
Y710954D01*
Y708838D02*
X836888Y706722D01*
X830540Y704606D02*
X836888Y700374D01*
X830540D02*
X836888Y704606D01*
X851918Y732114D02*
X850860Y733172D01*
Y735288D01*
X851918Y736346D01*
X856150D01*
X857208Y735288D01*
Y733172D01*
X856150Y732114D01*
X854034D01*
Y734230D01*
X857208Y729998D02*
X850860D01*
Y726824D01*
X851918Y725766D01*
X854034D01*
X855092Y726824D01*
Y729998D01*
X850860Y723650D02*
Y721534D01*
Y722592D01*
X857208D01*
Y723650D01*
Y721534D01*
X850860Y715186D02*
Y717302D01*
X851918Y718360D01*
X856150D01*
X857208Y717302D01*
Y715186D01*
X856150Y714128D01*
X851918D01*
X850860Y715186D01*
X857208Y707780D02*
Y712012D01*
X852976Y707780D01*
X851918D01*
X850860Y708838D01*
Y710954D01*
X851918Y712012D01*
X858266Y705664D02*
Y701432D01*
X850860Y699316D02*
Y697200D01*
Y698258D01*
X857208D01*
Y699316D01*
Y697200D01*
X850860Y690852D02*
Y692968D01*
X851918Y694026D01*
X856150D01*
X857208Y692968D01*
Y690852D01*
X856150Y689794D01*
X851918D01*
X850860Y690852D01*
X857208Y687678D02*
Y685563D01*
Y686620D01*
X850860D01*
X851918Y687678D01*
X850860Y678157D02*
Y682389D01*
X854034D01*
X852976Y680273D01*
Y679214D01*
X854034Y678157D01*
X856150D01*
X857208Y679214D01*
Y681330D01*
X856150Y682389D01*
X872238Y732114D02*
X871180Y733172D01*
Y735288D01*
X872238Y736346D01*
X876470D01*
X877528Y735288D01*
Y733172D01*
X876470Y732114D01*
X874354D01*
Y734230D01*
X877528Y729998D02*
X871180D01*
Y726824D01*
X872238Y725766D01*
X874354D01*
X875412Y726824D01*
Y729998D01*
X871180Y723650D02*
Y721534D01*
Y722592D01*
X877528D01*
Y723650D01*
Y721534D01*
X871180Y715186D02*
Y717302D01*
X872238Y718360D01*
X876470D01*
X877528Y717302D01*
Y715186D01*
X876470Y714128D01*
X872238D01*
X871180Y715186D01*
X877528Y707780D02*
Y712012D01*
X873296Y707780D01*
X872238D01*
X871180Y708838D01*
Y710954D01*
X872238Y712012D01*
X878586Y705664D02*
Y701432D01*
X871180Y699316D02*
Y697200D01*
Y698258D01*
X877528D01*
Y699316D01*
Y697200D01*
X871180Y690852D02*
Y692968D01*
X872238Y694026D01*
X876470D01*
X877528Y692968D01*
Y690852D01*
X876470Y689794D01*
X872238D01*
X871180Y690852D01*
X877528Y687678D02*
Y685563D01*
Y686620D01*
X871180D01*
X872238Y687678D01*
X871180Y678157D02*
X872238Y680273D01*
X874354Y682389D01*
X876470D01*
X877528Y681330D01*
Y679214D01*
X876470Y678157D01*
X875412D01*
X874354Y679214D01*
Y682389D01*
X893828Y732114D02*
X892770Y733172D01*
Y735288D01*
X893828Y736346D01*
X898060D01*
X899118Y735288D01*
Y733172D01*
X898060Y732114D01*
X895944D01*
Y734230D01*
X899118Y729998D02*
X892770D01*
Y726824D01*
X893828Y725766D01*
X895944D01*
X897002Y726824D01*
Y729998D01*
X892770Y723650D02*
Y721534D01*
Y722592D01*
X899118D01*
Y723650D01*
Y721534D01*
X892770Y715186D02*
Y717302D01*
X893828Y718360D01*
X898060D01*
X899118Y717302D01*
Y715186D01*
X898060Y714128D01*
X893828D01*
X892770Y715186D01*
X899118Y707780D02*
Y712012D01*
X894886Y707780D01*
X893828D01*
X892770Y708838D01*
Y710954D01*
X893828Y712012D01*
X900176Y705664D02*
Y701432D01*
X892770Y699316D02*
Y697200D01*
Y698258D01*
X899118D01*
Y699316D01*
Y697200D01*
X892770Y690852D02*
Y692968D01*
X893828Y694026D01*
X898060D01*
X899118Y692968D01*
Y690852D01*
X898060Y689794D01*
X893828D01*
X892770Y690852D01*
X899118Y687678D02*
Y685563D01*
Y686620D01*
X892770D01*
X893828Y687678D01*
X892770Y682389D02*
Y678157D01*
X893828D01*
X898060Y682389D01*
X899118D01*
X912878Y732114D02*
X911820Y733172D01*
Y735288D01*
X912878Y736346D01*
X917110D01*
X918168Y735288D01*
Y733172D01*
X917110Y732114D01*
X914994D01*
Y734230D01*
X918168Y729998D02*
X911820D01*
Y726824D01*
X912878Y725766D01*
X914994D01*
X916052Y726824D01*
Y729998D01*
X911820Y723650D02*
Y721534D01*
Y722592D01*
X918168D01*
Y723650D01*
Y721534D01*
X911820Y715186D02*
Y717302D01*
X912878Y718360D01*
X917110D01*
X918168Y717302D01*
Y715186D01*
X917110Y714128D01*
X912878D01*
X911820Y715186D01*
X918168Y707780D02*
Y712012D01*
X913936Y707780D01*
X912878D01*
X911820Y708838D01*
Y710954D01*
X912878Y712012D01*
X919226Y705664D02*
Y701432D01*
X911820Y699316D02*
Y697200D01*
Y698258D01*
X918168D01*
Y699316D01*
Y697200D01*
X911820Y690852D02*
Y692968D01*
X912878Y694026D01*
X917110D01*
X918168Y692968D01*
Y690852D01*
X917110Y689794D01*
X912878D01*
X911820Y690852D01*
X918168Y687678D02*
Y685563D01*
Y686620D01*
X911820D01*
X912878Y687678D01*
Y682389D02*
X911820Y681330D01*
Y679214D01*
X912878Y678157D01*
X913936D01*
X914994Y679214D01*
X916052Y678157D01*
X917110D01*
X918168Y679214D01*
Y681330D01*
X917110Y682389D01*
X916052D01*
X914994Y681330D01*
X913936Y682389D01*
X912878D01*
X914994Y681330D02*
Y679214D01*
X933198Y732114D02*
X932140Y733172D01*
Y735288D01*
X933198Y736346D01*
X937430D01*
X938488Y735288D01*
Y733172D01*
X937430Y732114D01*
X935314D01*
Y734230D01*
X938488Y729998D02*
X932140D01*
Y726824D01*
X933198Y725766D01*
X935314D01*
X936372Y726824D01*
Y729998D01*
X932140Y723650D02*
Y721534D01*
Y722592D01*
X938488D01*
Y723650D01*
Y721534D01*
X932140Y715186D02*
Y717302D01*
X933198Y718360D01*
X937430D01*
X938488Y717302D01*
Y715186D01*
X937430Y714128D01*
X933198D01*
X932140Y715186D01*
X938488Y708838D02*
X932140D01*
X935314Y712012D01*
Y707780D01*
X939546Y705664D02*
Y701432D01*
X932140Y699316D02*
Y697200D01*
Y698258D01*
X938488D01*
Y699316D01*
Y697200D01*
X932140Y690852D02*
Y692968D01*
X933198Y694026D01*
X937430D01*
X938488Y692968D01*
Y690852D01*
X937430Y689794D01*
X933198D01*
X932140Y690852D01*
X938488Y683447D02*
Y687678D01*
X934256Y683447D01*
X933198D01*
X932140Y684504D01*
Y686620D01*
X933198Y687678D01*
Y681330D02*
X932140Y680273D01*
Y678157D01*
X933198Y677098D01*
X934256D01*
X935314Y678157D01*
X936372Y677098D01*
X937430D01*
X938488Y678157D01*
Y680273D01*
X937430Y681330D01*
X936372D01*
X935314Y680273D01*
X934256Y681330D01*
X933198D01*
X935314Y680273D02*
Y678157D01*
X1178306Y733806D02*
X1174074D01*
X1171958Y731690D01*
X1174074Y729574D01*
X1178306D01*
X1175132D01*
Y733806D01*
X1171958Y727458D02*
X1178306D01*
Y724284D01*
X1177248Y723226D01*
X1173016D01*
X1171958Y724284D01*
Y727458D01*
X1173016Y716878D02*
X1171958Y717936D01*
Y720052D01*
X1173016Y721110D01*
X1177248D01*
X1178306Y720052D01*
Y717936D01*
X1177248Y716878D01*
X1178306Y711588D02*
X1171958D01*
X1175132Y714762D01*
Y710530D01*
D17*
X989840Y728951D02*
X988782Y730009D01*
Y732125D01*
X989840Y733183D01*
X994072D01*
X995130Y732125D01*
Y730009D01*
X994072Y728951D01*
X991956D01*
Y731067D01*
X995130Y726835D02*
X988782D01*
Y723661D01*
X989840Y722603D01*
X991956D01*
X993014Y723661D01*
Y726835D01*
X988782Y720487D02*
Y718371D01*
Y719429D01*
X995130D01*
Y720487D01*
Y718371D01*
X988782Y712023D02*
Y714139D01*
X989840Y715197D01*
X994072D01*
X995130Y714139D01*
Y712023D01*
X994072Y710965D01*
X989840D01*
X988782Y712023D01*
X995130Y708849D02*
Y706733D01*
Y707791D01*
X988782D01*
X989840Y708849D01*
X996188Y703559D02*
Y699327D01*
X988782Y697212D02*
Y695096D01*
Y696153D01*
X995130D01*
Y697212D01*
Y695096D01*
X988782Y688748D02*
Y690864D01*
X989840Y691922D01*
X994072D01*
X995130Y690864D01*
Y688748D01*
X994072Y687690D01*
X989840D01*
X988782Y688748D01*
X995130Y685574D02*
Y683458D01*
Y684516D01*
X988782D01*
X989840Y685574D01*
Y680284D02*
X988782Y679226D01*
Y677110D01*
X989840Y676052D01*
X990898D01*
X991956Y677110D01*
Y678168D01*
Y677110D01*
X993014Y676052D01*
X994072D01*
X995130Y677110D01*
Y679226D01*
X994072Y680284D01*
X1009102Y728951D02*
Y733183D01*
X1015450D01*
Y728951D01*
X1012276Y733183D02*
Y731067D01*
X1010160Y722603D02*
X1009102Y723661D01*
Y725777D01*
X1010160Y726835D01*
X1011218D01*
X1012276Y725777D01*
Y723661D01*
X1013334Y722603D01*
X1014392D01*
X1015450Y723661D01*
Y725777D01*
X1014392Y726835D01*
X1015450Y720487D02*
X1009102D01*
Y717313D01*
X1010160Y716255D01*
X1012276D01*
X1013334Y717313D01*
Y720487D01*
X1009102Y714139D02*
Y712023D01*
Y713081D01*
X1015450D01*
Y714139D01*
Y712023D01*
Y704617D02*
Y708849D01*
X1011218Y704617D01*
X1010160D01*
X1009102Y705675D01*
Y707791D01*
X1010160Y708849D01*
X1016508Y702502D02*
Y698270D01*
X1015450Y696153D02*
X1009102D01*
X1011218Y694038D01*
X1009102Y691922D01*
X1015450D01*
X1009102Y686632D02*
Y688748D01*
X1010160Y689806D01*
X1014392D01*
X1015450Y688748D01*
Y686632D01*
X1014392Y685574D01*
X1010160D01*
X1009102Y686632D01*
X1010160Y679226D02*
X1009102Y680284D01*
Y682400D01*
X1010160Y683458D01*
X1011218D01*
X1012276Y682400D01*
Y680284D01*
X1013334Y679226D01*
X1014392D01*
X1015450Y680284D01*
Y682400D01*
X1014392Y683458D01*
X1009102Y677110D02*
Y674994D01*
Y676052D01*
X1015450D01*
Y677110D01*
Y674994D01*
X1028152Y728951D02*
Y733183D01*
X1034500D01*
Y728951D01*
X1031326Y733183D02*
Y731067D01*
X1029210Y722603D02*
X1028152Y723661D01*
Y725777D01*
X1029210Y726835D01*
X1030268D01*
X1031326Y725777D01*
Y723661D01*
X1032384Y722603D01*
X1033442D01*
X1034500Y723661D01*
Y725777D01*
X1033442Y726835D01*
X1034500Y720487D02*
X1028152D01*
Y717313D01*
X1029210Y716255D01*
X1031326D01*
X1032384Y717313D01*
Y720487D01*
X1028152Y714139D02*
Y712023D01*
Y713081D01*
X1034500D01*
Y714139D01*
Y712023D01*
Y704617D02*
Y708849D01*
X1030268Y704617D01*
X1029210D01*
X1028152Y705675D01*
Y707791D01*
X1029210Y708849D01*
X1035558Y702502D02*
Y698270D01*
X1034500Y696153D02*
X1028152D01*
X1030268Y694038D01*
X1028152Y691922D01*
X1034500D01*
X1028152Y689806D02*
Y687690D01*
Y688748D01*
X1034500D01*
Y689806D01*
Y687690D01*
X1029210Y680284D02*
X1028152Y681342D01*
Y683458D01*
X1029210Y684516D01*
X1030268D01*
X1031326Y683458D01*
Y681342D01*
X1032384Y680284D01*
X1033442D01*
X1034500Y681342D01*
Y683458D01*
X1033442Y684516D01*
X1028152Y674994D02*
Y677110D01*
X1029210Y678168D01*
X1033442D01*
X1034500Y677110D01*
Y674994D01*
X1033442Y673936D01*
X1029210D01*
X1028152Y674994D01*
X1049742Y729066D02*
Y733298D01*
X1056090D01*
Y729066D01*
X1052916Y733298D02*
Y731182D01*
X1050800Y722718D02*
X1049742Y723776D01*
Y725892D01*
X1050800Y726950D01*
X1051858D01*
X1052916Y725892D01*
Y723776D01*
X1053974Y722718D01*
X1055032D01*
X1056090Y723776D01*
Y725892D01*
X1055032Y726950D01*
X1056090Y720602D02*
X1049742D01*
Y717428D01*
X1050800Y716370D01*
X1052916D01*
X1053974Y717428D01*
Y720602D01*
X1049742Y714254D02*
Y712138D01*
Y713196D01*
X1056090D01*
Y714254D01*
Y712138D01*
Y704732D02*
Y708964D01*
X1051858Y704732D01*
X1050800D01*
X1049742Y705790D01*
Y707906D01*
X1050800Y708964D01*
X1057148Y702616D02*
Y698384D01*
X1050800Y692036D02*
X1049742Y693094D01*
Y695210D01*
X1050800Y696268D01*
X1051858D01*
X1052916Y695210D01*
Y693094D01*
X1053974Y692036D01*
X1055032D01*
X1056090Y693094D01*
Y695210D01*
X1055032Y696268D01*
X1050800Y685688D02*
X1049742Y686746D01*
Y688862D01*
X1050800Y689920D01*
X1055032D01*
X1056090Y688862D01*
Y686746D01*
X1055032Y685688D01*
X1049742Y683572D02*
X1056090D01*
Y679341D01*
X1049742Y677225D02*
X1056090D01*
X1053974D01*
X1049742Y672992D01*
X1052916Y676167D01*
X1056090Y672992D01*
X1070062Y728951D02*
Y733183D01*
X1076410D01*
Y728951D01*
X1073236Y733183D02*
Y731067D01*
X1071120Y722603D02*
X1070062Y723661D01*
Y725777D01*
X1071120Y726835D01*
X1072178D01*
X1073236Y725777D01*
Y723661D01*
X1074294Y722603D01*
X1075352D01*
X1076410Y723661D01*
Y725777D01*
X1075352Y726835D01*
X1076410Y720487D02*
X1070062D01*
Y717313D01*
X1071120Y716255D01*
X1073236D01*
X1074294Y717313D01*
Y720487D01*
X1070062Y714139D02*
Y712023D01*
Y713081D01*
X1076410D01*
Y714139D01*
Y712023D01*
Y704617D02*
Y708849D01*
X1072178Y704617D01*
X1071120D01*
X1070062Y705675D01*
Y707791D01*
X1071120Y708849D01*
X1077468Y702502D02*
Y698270D01*
X1071120Y691922D02*
X1070062Y692980D01*
Y695096D01*
X1071120Y696153D01*
X1072178D01*
X1073236Y695096D01*
Y692980D01*
X1074294Y691922D01*
X1075352D01*
X1076410Y692980D01*
Y695096D01*
X1075352Y696153D01*
X1071120Y685574D02*
X1070062Y686632D01*
Y688748D01*
X1071120Y689806D01*
X1072178D01*
X1073236Y688748D01*
Y686632D01*
X1074294Y685574D01*
X1075352D01*
X1076410Y686632D01*
Y688748D01*
X1075352Y689806D01*
X1071120Y683458D02*
X1070062Y682400D01*
Y680284D01*
X1071120Y679226D01*
X1075352D01*
X1076410Y680284D01*
Y682400D01*
X1075352Y683458D01*
X1071120D01*
X1092710Y729066D02*
X1091652Y730124D01*
Y732240D01*
X1092710Y733298D01*
X1096942D01*
X1098000Y732240D01*
Y730124D01*
X1096942Y729066D01*
X1094826D01*
Y731182D01*
X1098000Y726950D02*
X1091652D01*
Y723776D01*
X1092710Y722718D01*
X1094826D01*
X1095884Y723776D01*
Y726950D01*
X1091652Y720602D02*
Y718486D01*
Y719544D01*
X1098000D01*
Y720602D01*
Y718486D01*
X1091652Y712138D02*
Y714254D01*
X1092710Y715312D01*
X1096942D01*
X1098000Y714254D01*
Y712138D01*
X1096942Y711080D01*
X1092710D01*
X1091652Y712138D01*
X1098000Y704732D02*
Y708964D01*
X1093768Y704732D01*
X1092710D01*
X1091652Y705790D01*
Y707906D01*
X1092710Y708964D01*
X1099058Y702616D02*
Y698384D01*
X1091652Y696268D02*
Y694152D01*
Y695210D01*
X1098000D01*
Y696268D01*
Y694152D01*
X1091652Y687804D02*
Y689920D01*
X1092710Y690978D01*
X1096942D01*
X1098000Y689920D01*
Y687804D01*
X1096942Y686746D01*
X1092710D01*
X1091652Y687804D01*
X1098000Y684630D02*
Y682514D01*
Y683572D01*
X1091652D01*
X1092710Y684630D01*
X1098000Y676167D02*
X1091652D01*
X1094826Y679340D01*
Y675108D01*
X1113030Y729066D02*
X1111972Y730124D01*
Y732240D01*
X1113030Y733298D01*
X1117262D01*
X1118320Y732240D01*
Y730124D01*
X1117262Y729066D01*
X1115146D01*
Y731182D01*
X1118320Y726950D02*
X1111972D01*
Y723776D01*
X1113030Y722718D01*
X1115146D01*
X1116204Y723776D01*
Y726950D01*
X1111972Y720602D02*
Y718486D01*
Y719544D01*
X1118320D01*
Y720602D01*
Y718486D01*
X1111972Y712138D02*
Y714254D01*
X1113030Y715312D01*
X1117262D01*
X1118320Y714254D01*
Y712138D01*
X1117262Y711080D01*
X1113030D01*
X1111972Y712138D01*
X1118320Y704732D02*
Y708964D01*
X1114088Y704732D01*
X1113030D01*
X1111972Y705790D01*
Y707906D01*
X1113030Y708964D01*
X1119378Y702616D02*
Y698384D01*
X1111972Y696268D02*
Y694152D01*
Y695210D01*
X1118320D01*
Y696268D01*
Y694152D01*
X1111972Y687804D02*
Y689920D01*
X1113030Y690978D01*
X1117262D01*
X1118320Y689920D01*
Y687804D01*
X1117262Y686746D01*
X1113030D01*
X1111972Y687804D01*
X1118320Y684630D02*
Y682514D01*
Y683572D01*
X1111972D01*
X1113030Y684630D01*
Y679341D02*
X1111972Y678282D01*
Y676167D01*
X1113030Y675108D01*
X1114088D01*
X1115146Y676167D01*
Y677225D01*
Y676167D01*
X1116204Y675108D01*
X1117262D01*
X1118320Y676167D01*
Y678282D01*
X1117262Y679341D01*
X1138428Y732028D02*
X1132080D01*
Y728854D01*
X1133138Y727796D01*
X1135254D01*
X1136312Y728854D01*
Y732028D01*
X1132080Y725680D02*
X1138428D01*
X1136312Y723564D01*
X1138428Y721448D01*
X1132080D01*
X1138428Y719332D02*
X1132080D01*
X1134196Y717216D01*
X1132080Y715100D01*
X1138428D01*
Y708752D02*
Y712984D01*
X1134196Y708752D01*
X1133138D01*
X1132080Y709810D01*
Y711926D01*
X1133138Y712984D01*
X1157478Y733298D02*
X1153246D01*
X1151130Y731182D01*
X1153246Y729066D01*
X1157478D01*
X1154304D01*
Y733298D01*
X1151130Y726950D02*
X1157478D01*
Y723776D01*
X1156420Y722718D01*
X1152188D01*
X1151130Y723776D01*
Y726950D01*
X1152188Y716370D02*
X1151130Y717428D01*
Y719544D01*
X1152188Y720602D01*
X1156420D01*
X1157478Y719544D01*
Y717428D01*
X1156420Y716370D01*
X1152188Y714254D02*
X1151130Y713196D01*
Y711080D01*
X1152188Y710022D01*
X1153246D01*
X1154304Y711080D01*
Y712138D01*
Y711080D01*
X1155362Y710022D01*
X1156420D01*
X1157478Y711080D01*
Y713196D01*
X1156420Y714254D01*
X933265Y814463D02*
X931932Y813130D01*
Y810464D01*
X933265Y809132D01*
X934598D01*
X935931Y810464D01*
Y811797D01*
Y810464D01*
X937264Y809132D01*
X938597D01*
X939930Y810464D01*
Y813130D01*
X938597Y814463D01*
X934598Y806466D02*
X939930Y803800D01*
X934598Y801134D01*
X933265Y798468D02*
X931932Y797135D01*
Y794470D01*
X933265Y793137D01*
X934598D01*
X935931Y794470D01*
Y795803D01*
Y794470D01*
X937264Y793137D01*
X938597D01*
X939930Y794470D01*
Y797135D01*
X938597Y798468D01*
X912819Y852563D02*
Y849897D01*
Y851230D01*
X920817D01*
Y852563D01*
Y849897D01*
Y840567D02*
Y845899D01*
X915485Y840567D01*
X914152D01*
X912819Y841900D01*
Y844566D01*
X914152Y845899D01*
Y832570D02*
X912819Y833903D01*
Y836568D01*
X914152Y837901D01*
X919484D01*
X920817Y836568D01*
Y833903D01*
X919484Y832570D01*
X920817Y824572D02*
Y829904D01*
X915485Y824572D01*
X914152D01*
X912819Y825905D01*
Y828571D01*
X914152Y829904D01*
X922150Y821907D02*
Y816575D01*
X914152Y808577D02*
X912819Y809910D01*
Y812576D01*
X914152Y813909D01*
X915485D01*
X916818Y812576D01*
Y809910D01*
X918151Y808577D01*
X919484D01*
X920817Y809910D01*
Y812576D01*
X919484Y813909D01*
X912819Y805912D02*
X920817D01*
Y801913D01*
X919484Y800580D01*
X914152D01*
X912819Y801913D01*
Y805912D01*
X920817Y797914D02*
X915485D01*
X912819Y795248D01*
X915485Y792583D01*
X920817D01*
X916818D01*
Y797914D01*
X891229Y852563D02*
Y849897D01*
Y851230D01*
X899227D01*
Y852563D01*
Y849897D01*
Y840567D02*
Y845899D01*
X893895Y840567D01*
X892562D01*
X891229Y841900D01*
Y844566D01*
X892562Y845899D01*
Y832570D02*
X891229Y833903D01*
Y836568D01*
X892562Y837901D01*
X897894D01*
X899227Y836568D01*
Y833903D01*
X897894Y832570D01*
X899227Y824572D02*
Y829904D01*
X893895Y824572D01*
X892562D01*
X891229Y825905D01*
Y828571D01*
X892562Y829904D01*
X900559Y821907D02*
Y816575D01*
X892562Y808577D02*
X891229Y809910D01*
Y812576D01*
X892562Y813909D01*
X893895D01*
X895228Y812576D01*
Y809910D01*
X896561Y808577D01*
X897894D01*
X899227Y809910D01*
Y812576D01*
X897894Y813909D01*
X892562Y800580D02*
X891229Y801913D01*
Y804579D01*
X892562Y805912D01*
X897894D01*
X899227Y804579D01*
Y801913D01*
X897894Y800580D01*
X891229Y797914D02*
X899227D01*
Y792583D01*
X872242Y861202D02*
X870909Y862534D01*
Y865200D01*
X872242Y866533D01*
X877574D01*
X878907Y865200D01*
Y862534D01*
X877574Y861202D01*
X874908D01*
Y863867D01*
X878907Y858536D02*
X870909D01*
Y854537D01*
X872242Y853204D01*
X874908D01*
X876241Y854537D01*
Y858536D01*
X870909Y850538D02*
Y847873D01*
Y849205D01*
X878907D01*
Y850538D01*
Y847873D01*
X870909Y839875D02*
Y842541D01*
X872242Y843874D01*
X877574D01*
X878907Y842541D01*
Y839875D01*
X877574Y838542D01*
X872242D01*
X870909Y839875D01*
X878907Y830545D02*
Y835876D01*
X873575Y830545D01*
X872242D01*
X870909Y831878D01*
Y834544D01*
X872242Y835876D01*
X880239Y827879D02*
Y822548D01*
X870909Y819882D02*
Y817216D01*
Y818549D01*
X878907D01*
Y819882D01*
Y817216D01*
X870909Y809219D02*
Y811884D01*
X872242Y813217D01*
X877574D01*
X878907Y811884D01*
Y809219D01*
X877574Y807886D01*
X872242D01*
X870909Y809219D01*
X878907Y805220D02*
Y802554D01*
Y803887D01*
X870909D01*
X872242Y805220D01*
X878907Y793224D02*
Y798555D01*
X873575Y793224D01*
X872242D01*
X870909Y794557D01*
Y797222D01*
X872242Y798555D01*
X850589Y855103D02*
X857254D01*
X858587Y853770D01*
Y851105D01*
X857254Y849772D01*
X850589D01*
X858587Y847106D02*
X853255D01*
X850589Y844440D01*
X853255Y841774D01*
X858587D01*
X854588D01*
Y847106D01*
X858587Y839108D02*
X850589D01*
Y835110D01*
X851922Y833777D01*
X854588D01*
X855921Y835110D01*
Y839108D01*
Y836443D02*
X858587Y833777D01*
X850589Y831111D02*
Y825779D01*
Y828445D01*
X858587D01*
X851922Y823114D02*
X850589Y821781D01*
Y819115D01*
X851922Y817782D01*
X853255D01*
X854588Y819115D01*
Y820448D01*
Y819115D01*
X855921Y817782D01*
X857254D01*
X858587Y819115D01*
Y821781D01*
X857254Y823114D01*
X859920Y815116D02*
Y809785D01*
X858587Y807119D02*
X850589D01*
Y803120D01*
X851922Y801787D01*
X854588D01*
X855921Y803120D01*
Y807119D01*
Y804453D02*
X858587Y801787D01*
X850589Y799121D02*
X858587Y793790D01*
X850589D02*
X858587Y799121D01*
X831539Y855103D02*
X838204D01*
X839537Y853770D01*
Y851105D01*
X838204Y849772D01*
X831539D01*
X839537Y847106D02*
X834205D01*
X831539Y844440D01*
X834205Y841774D01*
X839537D01*
X835538D01*
Y847106D01*
X839537Y839108D02*
X831539D01*
Y835110D01*
X832872Y833777D01*
X835538D01*
X836871Y835110D01*
Y839108D01*
Y836443D02*
X839537Y833777D01*
X831539Y831111D02*
Y825779D01*
Y828445D01*
X839537D01*
X832872Y823114D02*
X831539Y821781D01*
Y819115D01*
X832872Y817782D01*
X834205D01*
X835538Y819115D01*
Y820448D01*
Y819115D01*
X836871Y817782D01*
X838204D01*
X839537Y819115D01*
Y821781D01*
X838204Y823114D01*
X840870Y815116D02*
Y809785D01*
X831539Y807119D02*
Y801787D01*
Y804453D01*
X839537D01*
X831539Y799121D02*
X839537Y793790D01*
X831539D02*
X839537Y799121D01*
X812615Y810402D02*
X811282Y811734D01*
Y814400D01*
X812615Y815733D01*
X817947D01*
X819279Y814400D01*
Y811734D01*
X817947Y810402D01*
X815281D01*
Y813067D01*
X819279Y807736D02*
X811282D01*
X819279Y802404D01*
X811282D01*
Y799738D02*
X819279D01*
Y795740D01*
X817947Y794407D01*
X812615D01*
X811282Y795740D01*
Y799738D01*
X792169Y839863D02*
X798834D01*
X800167Y838530D01*
Y835864D01*
X798834Y834532D01*
X792169D01*
X793502Y826534D02*
X792169Y827867D01*
Y830533D01*
X793502Y831866D01*
X794835D01*
X796168Y830533D01*
Y827867D01*
X797501Y826534D01*
X798834D01*
X800167Y827867D01*
Y830533D01*
X798834Y831866D01*
X792169Y823868D02*
X800167D01*
Y819870D01*
X798834Y818537D01*
X797501D01*
X796168Y819870D01*
Y823868D01*
Y819870D01*
X794835Y818537D01*
X793502D01*
X792169Y819870D01*
Y823868D01*
X801499Y815871D02*
Y810539D01*
X792169Y807874D02*
X800167D01*
Y803875D01*
X798834Y802542D01*
X793502D01*
X792169Y803875D01*
Y807874D01*
X800167Y799876D02*
X792169D01*
Y795878D01*
X793502Y794545D01*
X796168D01*
X797501Y795878D01*
Y799876D01*
X770579Y839863D02*
X777244D01*
X778577Y838530D01*
Y835864D01*
X777244Y834532D01*
X770579D01*
X771912Y826534D02*
X770579Y827867D01*
Y830533D01*
X771912Y831866D01*
X773245D01*
X774578Y830533D01*
Y827867D01*
X775911Y826534D01*
X777244D01*
X778577Y827867D01*
Y830533D01*
X777244Y831866D01*
X770579Y823868D02*
X778577D01*
Y819870D01*
X777244Y818537D01*
X775911D01*
X774578Y819870D01*
Y823868D01*
Y819870D01*
X773245Y818537D01*
X771912D01*
X770579Y819870D01*
Y823868D01*
X779910Y815871D02*
Y810539D01*
X770579Y807874D02*
X778577D01*
Y803875D01*
X777244Y802542D01*
X771912D01*
X770579Y803875D01*
Y807874D01*
X778577Y799876D02*
X770579D01*
X773245Y797210D01*
X770579Y794545D01*
X778577D01*
X749052Y802782D02*
Y808113D01*
X753051D01*
X751718Y805447D01*
Y804115D01*
X753051Y802782D01*
X755717D01*
X757049Y804115D01*
Y806780D01*
X755717Y808113D01*
X749052Y800116D02*
X754384D01*
X757049Y797450D01*
X754384Y794784D01*
X749052D01*
D18*
X1150620Y1038860D02*
Y1047324D01*
X1146388Y1051556D01*
X1142156Y1047324D01*
Y1038860D01*
Y1045208D01*
X1150620D01*
X1137924Y1038860D02*
X1133692D01*
X1135808D01*
Y1051556D01*
X1137924Y1049440D01*
X1162050Y1031236D02*
Y1018540D01*
X1155702D01*
X1153586Y1020656D01*
Y1022772D01*
X1155702Y1024888D01*
X1162050D01*
X1155702D01*
X1153586Y1027004D01*
Y1029120D01*
X1155702Y1031236D01*
X1162050D01*
X1149354Y1018540D02*
X1145122D01*
X1147238D01*
Y1031236D01*
X1149354Y1029120D01*
X1256030Y1038860D02*
Y1047324D01*
X1251798Y1051556D01*
X1247566Y1047324D01*
Y1038860D01*
Y1045208D01*
X1256030D01*
X1243334Y1049440D02*
X1241218Y1051556D01*
X1236986D01*
X1234870Y1049440D01*
Y1047324D01*
X1236986Y1045208D01*
X1239102D01*
X1236986D01*
X1234870Y1043092D01*
Y1040976D01*
X1236986Y1038860D01*
X1241218D01*
X1243334Y1040976D01*
X1270000Y1007106D02*
Y994410D01*
X1263652D01*
X1261536Y996526D01*
Y998642D01*
X1263652Y1000758D01*
X1270000D01*
X1263652D01*
X1261536Y1002874D01*
Y1004990D01*
X1263652Y1007106D01*
X1270000D01*
X1257304Y1004990D02*
X1255188Y1007106D01*
X1250956D01*
X1248840Y1004990D01*
Y1002874D01*
X1250956Y1000758D01*
X1253072D01*
X1250956D01*
X1248840Y998642D01*
Y996526D01*
X1250956Y994410D01*
X1255188D01*
X1257304Y996526D01*
M02*
