G04*
G04 #@! TF.GenerationSoftware,Altium Limited,Altium Designer,22.11.1 (43)*
G04*
G04 Layer_Physical_Order=1*
G04 Layer_Color=255*
%FSLAX44Y44*%
%MOMM*%
G71*
G04*
G04 #@! TF.SameCoordinates,08DCA11F-4F28-4CA3-8F65-8E8C9E671095*
G04*
G04*
G04 #@! TF.FilePolarity,Positive*
G04*
G01*
G75*
%ADD10C,0.2540*%
%ADD17R,0.2540X0.2540*%
%ADD18C,0.3810*%
%ADD19R,0.9779X0.5588*%
G04:AMPARAMS|DCode=20|XSize=0.6mm|YSize=0.54mm|CornerRadius=0.1431mm|HoleSize=0mm|Usage=FLASHONLY|Rotation=270.000|XOffset=0mm|YOffset=0mm|HoleType=Round|Shape=RoundedRectangle|*
%AMROUNDEDRECTD20*
21,1,0.6000,0.2538,0,0,270.0*
21,1,0.3138,0.5400,0,0,270.0*
1,1,0.2862,-0.1269,-0.1569*
1,1,0.2862,-0.1269,0.1569*
1,1,0.2862,0.1269,0.1569*
1,1,0.2862,0.1269,-0.1569*
%
%ADD20ROUNDEDRECTD20*%
%ADD21R,0.5100X0.7300*%
%ADD22R,0.2794X0.2540*%
%ADD23R,0.2540X0.2794*%
%ADD24R,0.5000X0.3000*%
G04:AMPARAMS|DCode=25|XSize=0.6mm|YSize=0.54mm|CornerRadius=0.1431mm|HoleSize=0mm|Usage=FLASHONLY|Rotation=180.000|XOffset=0mm|YOffset=0mm|HoleType=Round|Shape=RoundedRectangle|*
%AMROUNDEDRECTD25*
21,1,0.6000,0.2538,0,0,180.0*
21,1,0.3138,0.5400,0,0,180.0*
1,1,0.2862,-0.1569,0.1269*
1,1,0.2862,0.1569,0.1269*
1,1,0.2862,0.1569,-0.1269*
1,1,0.2862,-0.1569,-0.1269*
%
%ADD25ROUNDEDRECTD25*%
%ADD26C,0.2286*%
%ADD27R,1.3000X1.1000*%
%ADD28R,0.5900X0.3500*%
%ADD29R,0.3500X0.5900*%
%ADD30R,1.5240X1.5240*%
%ADD31R,0.4000X0.4000*%
%ADD32R,0.2540X0.2540*%
%ADD33R,2.2000X1.0000*%
%ADD34R,1.1500X0.6000*%
%ADD35R,1.1500X0.3000*%
%ADD36R,2.0000X2.1800*%
G04:AMPARAMS|DCode=37|XSize=0.81mm|YSize=0.27mm|CornerRadius=0.0338mm|HoleSize=0mm|Usage=FLASHONLY|Rotation=180.000|XOffset=0mm|YOffset=0mm|HoleType=Round|Shape=RoundedRectangle|*
%AMROUNDEDRECTD37*
21,1,0.8100,0.2025,0,0,180.0*
21,1,0.7425,0.2700,0,0,180.0*
1,1,0.0675,-0.3713,0.1013*
1,1,0.0675,0.3713,0.1013*
1,1,0.0675,0.3713,-0.1013*
1,1,0.0675,-0.3713,-0.1013*
%
%ADD37ROUNDEDRECTD37*%
G04:AMPARAMS|DCode=38|XSize=0.27mm|YSize=0.81mm|CornerRadius=0.0338mm|HoleSize=0mm|Usage=FLASHONLY|Rotation=180.000|XOffset=0mm|YOffset=0mm|HoleType=Round|Shape=RoundedRectangle|*
%AMROUNDEDRECTD38*
21,1,0.2700,0.7425,0,0,180.0*
21,1,0.2025,0.8100,0,0,180.0*
1,1,0.0675,-0.1013,0.3713*
1,1,0.0675,0.1013,0.3713*
1,1,0.0675,0.1013,-0.3713*
1,1,0.0675,-0.1013,-0.3713*
%
%ADD38ROUNDEDRECTD38*%
G04:AMPARAMS|DCode=40|XSize=0.762mm|YSize=0.889mm|CornerRadius=0.0953mm|HoleSize=0mm|Usage=FLASHONLY|Rotation=90.000|XOffset=0mm|YOffset=0mm|HoleType=Round|Shape=RoundedRectangle|*
%AMROUNDEDRECTD40*
21,1,0.7620,0.6985,0,0,90.0*
21,1,0.5715,0.8890,0,0,90.0*
1,1,0.1905,0.3493,0.2858*
1,1,0.1905,0.3493,-0.2858*
1,1,0.1905,-0.3493,-0.2858*
1,1,0.1905,-0.3493,0.2858*
%
%ADD40ROUNDEDRECTD40*%
%ADD41R,0.6000X1.3200*%
%ADD67R,0.3000X0.6000*%
%ADD68R,1.7000X0.3000*%
%ADD69R,3.7000X3.7000*%
%ADD70C,0.0508*%
%ADD71C,0.5080*%
%ADD72C,0.7620*%
%ADD73R,0.0762X0.1016*%
%ADD74R,0.1016X0.0762*%
%ADD75C,0.6500*%
%ADD76C,0.5080*%
G36*
X884682Y981710D02*
X882650D01*
Y981964D01*
X883666Y982980D01*
X882650Y983996D01*
Y984250D01*
X884682D01*
Y981710D01*
D02*
G37*
G36*
X881126D02*
X879348D01*
Y984250D01*
X881126D01*
Y981710D01*
D02*
G37*
G36*
X884682Y974090D02*
X882650D01*
Y974344D01*
X883666Y975360D01*
X882650Y976376D01*
Y976630D01*
X884682D01*
Y974090D01*
D02*
G37*
G36*
X881126D02*
X879348D01*
Y976630D01*
X881126D01*
Y974090D01*
D02*
G37*
G36*
X884682Y929640D02*
X882904D01*
Y932180D01*
X884682D01*
Y929640D01*
D02*
G37*
G36*
X881380Y931926D02*
X880364Y930910D01*
X881380Y929894D01*
Y929640D01*
X879348D01*
Y932180D01*
X881380D01*
Y931926D01*
D02*
G37*
G36*
X868680Y928370D02*
X868426D01*
X867410Y929386D01*
X866394Y928370D01*
X866140D01*
Y930402D01*
X868680D01*
Y928370D01*
D02*
G37*
G36*
X862330D02*
X862076D01*
X861060Y929386D01*
X860044Y928370D01*
X859790D01*
Y930402D01*
X862330D01*
Y928370D01*
D02*
G37*
G36*
X855980D02*
X855726D01*
X854710Y929386D01*
X853694Y928370D01*
X853440D01*
Y930402D01*
X855980D01*
Y928370D01*
D02*
G37*
G36*
X868680Y925068D02*
X866140D01*
Y926846D01*
X868680D01*
Y925068D01*
D02*
G37*
G36*
X862330D02*
X859790D01*
Y926846D01*
X862330D01*
Y925068D01*
D02*
G37*
G36*
X855980D02*
X853440D01*
Y926846D01*
X855980D01*
Y925068D01*
D02*
G37*
G36*
X884682Y923290D02*
X882904D01*
Y925830D01*
X884682D01*
Y923290D01*
D02*
G37*
G36*
X881380Y925576D02*
X880364Y924560D01*
X881380Y923544D01*
Y923290D01*
X879348D01*
Y925830D01*
X881380D01*
Y925576D01*
D02*
G37*
D10*
X887730Y993920D02*
X888710Y992940D01*
X901300D02*
X901380Y992860D01*
X888710Y992940D02*
X901300D01*
X871870Y982584D02*
Y994220D01*
Y982584D02*
X879094Y975360D01*
X872060Y1002030D02*
X875030D01*
X871870Y1002220D02*
X872060Y1002030D01*
X875030D02*
X877570Y999490D01*
Y986790D02*
Y999490D01*
X879094Y982980D02*
Y985266D01*
X877570Y986790D02*
X879094Y985266D01*
X821690Y974877D02*
X826897Y969670D01*
X828992D01*
X821690Y993140D02*
X824230Y995680D01*
X821690Y974877D02*
Y993140D01*
X835660Y995680D02*
X850138Y981202D01*
X866002D02*
X882650Y964554D01*
X850138Y981202D02*
X866002D01*
X908330Y948210D02*
X908544Y947996D01*
Y945074D02*
Y947996D01*
X907079Y943610D02*
X908544Y945074D01*
X882650Y951230D02*
X890270Y943610D01*
X882650Y951230D02*
Y964554D01*
X908330Y948210D02*
Y950910D01*
X890270Y943610D02*
X907079D01*
X848244Y976630D02*
X864108D01*
X836237Y988637D02*
X848244Y976630D01*
X878078Y949336D02*
Y962660D01*
X864108Y976630D02*
X878078Y962660D01*
X913330Y948210D02*
Y950910D01*
X913116Y947996D02*
X913330Y948210D01*
X908973Y939038D02*
X913116Y943181D01*
Y947996D01*
X878078Y949336D02*
X888376Y939038D01*
X908973D01*
X828992Y988670D02*
X829025Y988637D01*
X824230Y995680D02*
X835660D01*
X829025Y988637D02*
X836237D01*
X799592Y988670D02*
X801687D01*
X795402Y984480D02*
X799592Y988670D01*
X795402Y982944D02*
Y984480D01*
X793914Y981456D02*
X795402Y982944D01*
X778044Y983996D02*
X788915D01*
X777830Y984210D02*
X778044Y983996D01*
X788915D02*
X791455Y981456D01*
X793914D01*
X799592Y969670D02*
X801687D01*
X778044Y979424D02*
X787021D01*
X789561Y976884D01*
X777830Y979210D02*
X778044Y979424D01*
X795274Y973988D02*
Y975396D01*
Y973988D02*
X799592Y969670D01*
X789561Y976884D02*
X793786D01*
X795274Y975396D01*
X923290Y920750D02*
Y924250D01*
X927520Y928480D02*
X928440D01*
X923290Y924250D02*
X927520Y928480D01*
X918210Y901510D02*
Y915670D01*
X923290Y920750D01*
X914262Y918302D02*
X914492D01*
X916940Y920750D01*
Y932180D01*
X905440Y910480D02*
X905580D01*
X906440D01*
X918210Y901510D02*
X924070Y895650D01*
Y895350D02*
Y895650D01*
X909810Y895350D02*
Y906250D01*
X905580Y910480D02*
X909810Y906250D01*
X906440Y910480D02*
X914262Y918302D01*
X916940Y932180D02*
X928330Y943570D01*
Y950910D01*
X928370Y928550D02*
X928440Y928480D01*
X928370Y928550D02*
Y934720D01*
X933330Y939680D02*
Y950910D01*
X928370Y934720D02*
X933330Y939680D01*
X943310Y914890D02*
X943610D01*
X938330Y919870D02*
X943310Y914890D01*
X943410Y932380D02*
Y950830D01*
X938330Y919870D02*
Y950910D01*
X943410Y932380D02*
X943610Y932180D01*
X943330Y950910D02*
X943410Y950830D01*
X961390Y962780D02*
X968100D01*
X950360D02*
X961390D01*
Y966372D01*
X950280Y967860D02*
X959902D01*
X961390Y966372D01*
X950280Y962860D02*
X950360Y962780D01*
X968100D02*
X968220Y962660D01*
X972040Y982980D02*
Y994410D01*
X950340Y982920D02*
X963380D01*
X950280Y982860D02*
X950340Y982920D01*
X963380D02*
X963440Y982980D01*
Y994023D02*
Y994410D01*
X959986Y990465D02*
Y990568D01*
X963440Y994023D01*
X957380Y987860D02*
X959986Y990465D01*
X950280Y987860D02*
X957380D01*
X933390Y1011640D02*
X933450Y1011700D01*
X933330Y999810D02*
X933390Y999870D01*
Y1011640D01*
X974280Y903319D02*
Y915289D01*
X982980Y915670D02*
X986365D01*
X986854Y915180D01*
X986365Y923290D02*
X986854Y923780D01*
Y930948D01*
X974280Y923290D02*
X986365D01*
X970280Y915289D02*
Y919289D01*
X974280Y923290D01*
X979361Y919289D02*
X982980Y915670D01*
X974280Y919289D02*
X979361D01*
X967311Y908891D02*
X970280Y911860D01*
X965980Y902715D02*
X967311Y904046D01*
X970280Y911860D02*
Y915289D01*
X967311Y904046D02*
Y908891D01*
D17*
X884936Y924560D02*
D03*
X878586D02*
D03*
X884936Y930910D02*
D03*
X878586D02*
D03*
X885444Y982980D02*
D03*
X879094D02*
D03*
X885444Y975360D02*
D03*
X879094D02*
D03*
D18*
X892810Y923290D02*
D03*
Y929640D02*
D03*
X894080Y1010920D02*
D03*
D19*
X801687Y969670D02*
D03*
Y979170D02*
D03*
Y988670D02*
D03*
X828992D02*
D03*
Y979170D02*
D03*
Y969670D02*
D03*
D20*
X988550Y948690D02*
D03*
X979950D02*
D03*
X970770D02*
D03*
X962170D02*
D03*
X851390Y962660D02*
D03*
X842790D02*
D03*
X965980Y903319D02*
D03*
X974580D02*
D03*
X979950Y935069D02*
D03*
X988550D02*
D03*
X972040Y994410D02*
D03*
X963440D02*
D03*
X757410Y1051560D02*
D03*
X748810D02*
D03*
X867900Y886460D02*
D03*
X859300D02*
D03*
X939310Y1069340D02*
D03*
X947910D02*
D03*
X932670Y895350D02*
D03*
X924070D02*
D03*
X901210D02*
D03*
X909810D02*
D03*
X963440Y982980D02*
D03*
X972040D02*
D03*
X962170Y935069D02*
D03*
X970770D02*
D03*
X746760Y910590D02*
D03*
X755360D02*
D03*
D21*
X977420Y962660D02*
D03*
X968220D02*
D03*
D22*
X846836Y901780D02*
D03*
Y906780D02*
D03*
Y911780D02*
D03*
X862584D02*
D03*
Y906780D02*
D03*
Y901780D02*
D03*
D23*
X852210Y914654D02*
D03*
X857210D02*
D03*
Y898906D02*
D03*
X852210D02*
D03*
D24*
X871870Y994220D02*
D03*
Y1002220D02*
D03*
X857870D02*
D03*
Y994220D02*
D03*
D25*
X955040Y906290D02*
D03*
Y914890D02*
D03*
X901700Y1058603D02*
D03*
Y1067203D02*
D03*
X986854Y915180D02*
D03*
Y923780D02*
D03*
X855980Y1059960D02*
D03*
Y1068560D02*
D03*
X902970Y1020300D02*
D03*
Y1011700D02*
D03*
X887730Y1002520D02*
D03*
Y993920D02*
D03*
X933450Y1020300D02*
D03*
Y1011700D02*
D03*
X943610Y906290D02*
D03*
Y914890D02*
D03*
Y923580D02*
D03*
Y932180D02*
D03*
X875221Y897400D02*
D03*
Y906000D02*
D03*
X808990Y1062500D02*
D03*
Y1071100D02*
D03*
Y1044720D02*
D03*
Y1053320D02*
D03*
X952500Y1020300D02*
D03*
Y1011700D02*
D03*
X915670Y1020300D02*
D03*
Y1011700D02*
D03*
X849502Y944390D02*
D03*
Y952990D02*
D03*
X835660D02*
D03*
Y944390D02*
D03*
X821690Y952990D02*
D03*
Y944390D02*
D03*
X807720Y952990D02*
D03*
Y944390D02*
D03*
X855980Y1042180D02*
D03*
Y1050780D02*
D03*
D26*
X966280Y915289D02*
D03*
Y919289D02*
D03*
Y923290D02*
D03*
X970280Y915289D02*
D03*
Y919289D02*
D03*
Y923290D02*
D03*
X974280Y915289D02*
D03*
Y919289D02*
D03*
Y923290D02*
D03*
D27*
X905440Y928480D02*
D03*
X928440D02*
D03*
Y910480D02*
D03*
X905440D02*
D03*
D28*
X953870Y1043773D02*
D03*
X915570D02*
D03*
D29*
X949720Y1032122D02*
D03*
X944720D02*
D03*
X939720D02*
D03*
X934720D02*
D03*
X929720D02*
D03*
X924720D02*
D03*
X919720D02*
D03*
Y1055423D02*
D03*
X924720D02*
D03*
X929720D02*
D03*
X934720D02*
D03*
X939720D02*
D03*
X944720D02*
D03*
X949720D02*
D03*
D30*
X778256Y1073150D02*
D03*
X727710D02*
D03*
X777240Y889000D02*
D03*
X726694D02*
D03*
D31*
X798260Y920050D02*
D03*
X806260D02*
D03*
X814260D02*
D03*
X822260D02*
D03*
Y896050D02*
D03*
X814260D02*
D03*
X806260D02*
D03*
X798260D02*
D03*
D32*
X867410Y931164D02*
D03*
Y924814D02*
D03*
X861060Y931164D02*
D03*
Y924814D02*
D03*
X854710Y931164D02*
D03*
Y924814D02*
D03*
D33*
X816610Y1026775D02*
D03*
Y1007765D02*
D03*
D34*
X777830Y1013710D02*
D03*
Y1005710D02*
D03*
Y957710D02*
D03*
Y949710D02*
D03*
D35*
Y999210D02*
D03*
Y964210D02*
D03*
Y994210D02*
D03*
Y969210D02*
D03*
Y989210D02*
D03*
Y974210D02*
D03*
Y984210D02*
D03*
Y979210D02*
D03*
D36*
X772080Y1032810D02*
D03*
Y930610D02*
D03*
X732780Y1032810D02*
D03*
Y930610D02*
D03*
D37*
X950280Y957860D02*
D03*
Y962860D02*
D03*
Y967860D02*
D03*
Y972860D02*
D03*
Y977860D02*
D03*
Y982860D02*
D03*
Y987860D02*
D03*
Y992860D02*
D03*
X901380D02*
D03*
Y987860D02*
D03*
Y982860D02*
D03*
Y977860D02*
D03*
Y972860D02*
D03*
Y967860D02*
D03*
Y962860D02*
D03*
Y957860D02*
D03*
D38*
X943330Y999810D02*
D03*
X938330D02*
D03*
X933330D02*
D03*
X928330D02*
D03*
X923330D02*
D03*
X918330D02*
D03*
X913330D02*
D03*
X908330D02*
D03*
Y950910D02*
D03*
X913330D02*
D03*
X918330D02*
D03*
X923330D02*
D03*
X928330D02*
D03*
X933330D02*
D03*
X938330D02*
D03*
X943330D02*
D03*
D40*
X864680Y946150D02*
D03*
Y961390D02*
D03*
D41*
X822350Y1047680D02*
D03*
X831850D02*
D03*
X841350D02*
D03*
Y1070680D02*
D03*
X822350D02*
D03*
D67*
X887570Y1020371D02*
D03*
X882570D02*
D03*
X877570D02*
D03*
X872570D02*
D03*
Y1045371D02*
D03*
X877570D02*
D03*
X882570D02*
D03*
X887570D02*
D03*
D68*
X880070Y1032871D02*
D03*
D69*
X925830Y975360D02*
D03*
D70*
X881888Y924560D02*
X882904Y923544D01*
Y925576D01*
X881888Y924560D02*
X882904Y925576D01*
X880364Y924560D02*
X881380Y925576D01*
X880364Y924560D02*
X881256Y923445D01*
X881888Y930910D02*
X882904Y929894D01*
Y931926D01*
X881888Y930910D02*
X882904Y931926D01*
X880364Y930910D02*
X881380Y931926D01*
X880364Y930910D02*
X881256Y929795D01*
X882774Y984095D02*
X883666Y982980D01*
X882650Y981964D02*
X883666Y982980D01*
X881126Y981964D02*
X882142Y982980D01*
X881126Y981964D02*
Y983996D01*
X882142Y982980D01*
X882774Y976475D02*
X883666Y975360D01*
X882650Y974344D02*
X883666Y975360D01*
X881126Y974344D02*
X882142Y975360D01*
X881126Y974344D02*
Y976376D01*
X882142Y975360D01*
X866295Y928494D02*
X867410Y929386D01*
X868426Y928370D01*
X867410Y927862D02*
X868426Y926846D01*
X866394D02*
X868426D01*
X866394D02*
X867410Y927862D01*
X859945Y928494D02*
X861060Y929386D01*
X862076Y928370D01*
X861060Y927862D02*
X862076Y926846D01*
X860044D02*
X862076D01*
X860044D02*
X861060Y927862D01*
X853595Y928494D02*
X854710Y929386D01*
X855726Y928370D01*
X854710Y927862D02*
X855726Y926846D01*
X853694D02*
X855726D01*
X853694D02*
X854710Y927862D01*
D71*
X771570Y1005250D02*
X777370D01*
X759460Y993140D02*
X771570Y1005250D01*
X777370D02*
X777830Y1005710D01*
X765778Y962660D02*
X770267Y958170D01*
X763270Y962660D02*
X765778D01*
X770267Y958170D02*
X777370D01*
X777830Y957710D01*
D72*
X815955Y1007110D02*
X816610Y1007765D01*
D73*
X882523Y924560D02*
D03*
X882523Y930910D02*
D03*
X881507Y982980D02*
D03*
X881507Y975360D02*
D03*
D74*
X867410Y927227D02*
D03*
X861060Y927226D02*
D03*
X854710Y927227D02*
D03*
D75*
X767080Y1010610D02*
D03*
Y952810D02*
D03*
D76*
X759460Y993140D02*
D03*
X763270Y962660D02*
D03*
M02*
