G04*
G04 #@! TF.GenerationSoftware,Altium Limited,Altium Designer,22.11.1 (43)*
G04*
G04 Layer_Physical_Order=5*
G04 Layer_Color=16737945*
%FSLAX44Y44*%
%MOMM*%
G71*
G04*
G04 #@! TF.SameCoordinates,E8DFFA77-AAD4-42D3-BC67-82D9B879F82B*
G04*
G04*
G04 #@! TF.FilePolarity,Positive*
G04*
G01*
G75*
%ADD13C,0.2540*%
%ADD17C,0.2032*%
%ADD83C,0.5080*%
%ADD97C,0.6500*%
%ADD98C,0.6350*%
%ADD99C,0.4064*%
%ADD100C,1.2700*%
%ADD101C,0.4572*%
%ADD102C,1.5240*%
D13*
X939419Y991409D02*
X952540Y1004530D01*
X939419Y965581D02*
Y991409D01*
Y965581D02*
X984250Y920750D01*
X1002030D01*
X953770Y1009650D02*
X961390Y1002030D01*
X939800Y1009650D02*
X953770D01*
X961390Y1002030D02*
X972820D01*
X980440Y1009650D01*
D17*
X928370Y989971D02*
Y1009650D01*
X870893Y977265D02*
X915664D01*
X928370Y989971D01*
X914400Y980440D02*
X923290Y989330D01*
Y1009650D01*
X853440Y980440D02*
X914400D01*
X832928Y939299D02*
X870893Y977265D01*
X838200Y965200D02*
X853440Y980440D01*
X832928Y922492D02*
Y939299D01*
X927440Y1010580D02*
X928370Y1009650D01*
X927100Y1013460D02*
X927440Y1013120D01*
Y1010580D02*
Y1013120D01*
X816610Y927100D02*
Y937260D01*
X838200Y958850D02*
Y965200D01*
X816610Y937260D02*
X838200Y958850D01*
D83*
X974090Y883920D02*
D03*
X1002030Y920750D02*
D03*
X1151890Y993140D02*
D03*
X891540Y935990D02*
D03*
X832928Y922492D02*
D03*
X895350Y1029970D02*
D03*
X999490Y929640D02*
D03*
X858520Y985520D02*
D03*
X872490D02*
D03*
X924560Y1022350D02*
D03*
X941070Y1021080D02*
D03*
X933450Y1026160D02*
D03*
X908050Y1037590D02*
D03*
X922020Y1038860D02*
D03*
X928370Y1042670D02*
D03*
X924560Y1047750D02*
D03*
X956310Y1018540D02*
D03*
X961390Y1023620D02*
D03*
X957580Y1012190D02*
D03*
X1137920Y972820D02*
D03*
X1016000Y967740D02*
D03*
X948690Y939800D02*
D03*
X957580Y894080D02*
D03*
X1013460Y949960D02*
D03*
X1021080Y915670D02*
D03*
X895350Y878840D02*
D03*
X991870Y948690D02*
D03*
X882650Y957580D02*
D03*
X966470Y1009650D02*
D03*
X948690Y1022350D02*
D03*
X852170Y963930D02*
D03*
X838200Y935990D02*
D03*
X895350Y1059180D02*
D03*
X951230Y897890D02*
D03*
X972820Y966470D02*
D03*
X746760Y919480D02*
D03*
X897890Y1040130D02*
D03*
X830580Y1078230D02*
D03*
X902970Y1026160D02*
D03*
X972820Y1009650D02*
D03*
X955040Y999490D02*
D03*
X664210Y1003300D02*
D03*
X932180Y985520D02*
D03*
X806450Y887730D02*
D03*
X895350Y891540D02*
D03*
X872490Y913130D02*
D03*
X848360Y1037590D02*
D03*
Y1068070D02*
D03*
X816610Y1036320D02*
D03*
X855980Y1074420D02*
D03*
X902970Y1004570D02*
D03*
X881380Y1022350D02*
D03*
X673100Y970280D02*
D03*
D97*
X676910Y1018230D02*
D03*
Y960430D02*
D03*
D98*
X934720Y970280D02*
D03*
X923290Y976630D02*
D03*
X918210Y971550D02*
D03*
X1156970Y1000760D02*
D03*
X1140460Y986790D02*
D03*
X1045210Y1000760D02*
D03*
X1016000Y1012190D02*
D03*
X1230630Y1071880D02*
D03*
X1003300Y781050D02*
D03*
X1022350D02*
D03*
X1042670D02*
D03*
X1062990D02*
D03*
X1083310D02*
D03*
X1103630D02*
D03*
X1123950Y782320D02*
D03*
X1144270Y781050D02*
D03*
X1164590Y782320D02*
D03*
X1198880Y773430D02*
D03*
X1230630Y974090D02*
D03*
X1045210Y979170D02*
D03*
X1205230Y972820D02*
D03*
X980440Y1009650D02*
D03*
D99*
X789940Y792480D02*
D03*
X782320D02*
D03*
X899160Y945820D02*
D03*
Y940486D02*
D03*
X790702Y858520D02*
D03*
X795020D02*
D03*
X875030Y951230D02*
D03*
X880364D02*
D03*
X857319Y908847D02*
D03*
X855188Y928352D02*
D03*
X873760Y938530D02*
D03*
X878801Y935073D02*
D03*
X921231Y941029D02*
D03*
X890270Y969010D02*
D03*
X891540Y962660D02*
D03*
X952540Y1004530D02*
D03*
X678180Y991870D02*
D03*
X675640Y982980D02*
D03*
X984250Y985520D02*
D03*
X985520Y990600D02*
D03*
X796290Y1060450D02*
D03*
X852170Y910590D02*
D03*
X801370Y1040130D02*
D03*
X788670Y966470D02*
D03*
X789940Y1003300D02*
D03*
X763270Y1051560D02*
D03*
X957580Y972820D02*
D03*
Y930910D02*
D03*
Y977900D02*
D03*
X956310Y939800D02*
D03*
X800100Y932180D02*
D03*
X939800Y1045210D02*
D03*
Y1050290D02*
D03*
X979170Y996950D02*
D03*
X910590Y1026160D02*
D03*
X939800Y1009650D02*
D03*
X878840Y920750D02*
D03*
X807720Y930910D02*
D03*
X816610Y927100D02*
D03*
X864489Y928326D02*
D03*
X927100Y1013460D02*
D03*
X944880Y1038860D02*
D03*
X923290Y1009650D02*
D03*
X855980Y1029970D02*
D03*
X890270Y986790D02*
D03*
X869950Y1035050D02*
D03*
X883920Y986790D02*
D03*
X866140Y1031240D02*
D03*
X914400Y939800D02*
D03*
X889000Y915670D02*
D03*
D100*
X722630Y1040130D02*
D03*
X707390Y951230D02*
D03*
D101*
X953770Y923290D02*
D03*
D102*
X1186180Y894080D02*
D03*
X1211580Y868680D02*
D03*
Y919480D02*
D03*
X1160780D02*
D03*
Y868680D02*
D03*
M02*
