G04*
G04 #@! TF.GenerationSoftware,Altium Limited,Altium Designer,22.11.1 (43)*
G04*
G04 Layer_Color=128*
%FSLAX44Y44*%
%MOMM*%
G71*
G04*
G04 #@! TF.SameCoordinates,08DCA11F-4F28-4CA3-8F65-8E8C9E671095*
G04*
G04*
G04 #@! TF.FilePolarity,Positive*
G04*
G01*
G75*
G36*
X834644Y782354D02*
X835038Y782323D01*
X835430Y782272D01*
X835819Y782200D01*
X836203Y782107D01*
X836582Y781995D01*
X836955Y781863D01*
X837320Y781712D01*
X837676Y781542D01*
X838024Y781353D01*
X838361Y781146D01*
X838687Y780923D01*
X839000Y780682D01*
X839301Y780425D01*
X839588Y780153D01*
X839860Y779867D01*
X840116Y779566D01*
X840357Y779252D01*
X840581Y778927D01*
X840788Y778589D01*
X840976Y778242D01*
X841146Y777885D01*
X841298Y777520D01*
X841429Y777148D01*
X841542Y776769D01*
X841634Y776384D01*
X841706Y775996D01*
X841758Y775604D01*
X841788Y775210D01*
X841799Y774815D01*
X841788Y774419D01*
X841758Y774025D01*
X841706Y773633D01*
X841634Y773245D01*
X841542Y772860D01*
X841429Y772482D01*
X841298Y772109D01*
X841146Y771744D01*
X840976Y771387D01*
X840788Y771040D01*
X840581Y770703D01*
X840357Y770377D01*
X840116Y770063D01*
X839860Y769762D01*
X839588Y769476D01*
X839301Y769204D01*
X839000Y768947D01*
X838687Y768706D01*
X838361Y768483D01*
X838024Y768276D01*
X837676Y768087D01*
X837320Y767917D01*
X836955Y767766D01*
X836582Y767634D01*
X836203Y767522D01*
X835819Y767430D01*
X835430Y767357D01*
X835038Y767306D01*
X834644Y767275D01*
X834249Y767264D01*
X833854Y767275D01*
X833460Y767306D01*
X833068Y767357D01*
X832679Y767430D01*
X832295Y767522D01*
X831916Y767634D01*
X831543Y767766D01*
X831178Y767917D01*
X830821Y768087D01*
X830474Y768276D01*
X830137Y768483D01*
X829811Y768706D01*
X829498Y768947D01*
X829197Y769204D01*
X828910Y769476D01*
X828638Y769762D01*
X828381Y770063D01*
X828141Y770377D01*
X827917Y770703D01*
X827710Y771040D01*
X827522Y771387D01*
X827352Y771744D01*
X827200Y772109D01*
X827068Y772482D01*
X826956Y772860D01*
X826864Y773245D01*
X826792Y773633D01*
X826740Y774025D01*
X826709Y774419D01*
X826699Y774815D01*
X826709Y775210D01*
X826740Y775604D01*
X826792Y775996D01*
X826864Y776384D01*
X826956Y776769D01*
X827068Y777148D01*
X827200Y777520D01*
X827352Y777885D01*
X827522Y778242D01*
X827710Y778589D01*
X827917Y778927D01*
X828141Y779252D01*
X828381Y779566D01*
X828638Y779867D01*
X828910Y780153D01*
X829197Y780425D01*
X829498Y780682D01*
X829811Y780923D01*
X830137Y781146D01*
X830474Y781353D01*
X830821Y781542D01*
X831178Y781712D01*
X831543Y781863D01*
X831916Y781995D01*
X832295Y782107D01*
X832679Y782200D01*
X833068Y782272D01*
X833460Y782323D01*
X833854Y782354D01*
X834249Y782365D01*
X834644Y782354D01*
D02*
G37*
G36*
X814324D02*
X814718Y782323D01*
X815110Y782272D01*
X815499Y782200D01*
X815883Y782107D01*
X816262Y781995D01*
X816635Y781863D01*
X817000Y781712D01*
X817356Y781542D01*
X817704Y781353D01*
X818041Y781146D01*
X818367Y780923D01*
X818680Y780682D01*
X818981Y780425D01*
X819268Y780153D01*
X819540Y779867D01*
X819796Y779566D01*
X820037Y779252D01*
X820261Y778927D01*
X820468Y778589D01*
X820656Y778242D01*
X820826Y777885D01*
X820977Y777520D01*
X821109Y777148D01*
X821222Y776769D01*
X821314Y776384D01*
X821386Y775996D01*
X821438Y775604D01*
X821469Y775210D01*
X821479Y774815D01*
X821469Y774419D01*
X821438Y774025D01*
X821386Y773633D01*
X821314Y773245D01*
X821222Y772860D01*
X821109Y772482D01*
X820977Y772109D01*
X820826Y771744D01*
X820656Y771387D01*
X820468Y771040D01*
X820261Y770703D01*
X820037Y770377D01*
X819796Y770063D01*
X819540Y769762D01*
X819268Y769476D01*
X818981Y769204D01*
X818680Y768947D01*
X818367Y768706D01*
X818041Y768483D01*
X817704Y768276D01*
X817356Y768087D01*
X817000Y767917D01*
X816635Y767766D01*
X816262Y767634D01*
X815883Y767522D01*
X815499Y767430D01*
X815110Y767357D01*
X814718Y767306D01*
X814324Y767275D01*
X813929Y767264D01*
X813534Y767275D01*
X813140Y767306D01*
X812748Y767357D01*
X812359Y767430D01*
X811975Y767522D01*
X811596Y767634D01*
X811223Y767766D01*
X810858Y767917D01*
X810501Y768087D01*
X810154Y768276D01*
X809817Y768483D01*
X809491Y768706D01*
X809177Y768947D01*
X808877Y769204D01*
X808590Y769476D01*
X808318Y769762D01*
X808061Y770063D01*
X807821Y770377D01*
X807597Y770703D01*
X807390Y771040D01*
X807202Y771387D01*
X807032Y771744D01*
X806880Y772109D01*
X806748Y772482D01*
X806636Y772860D01*
X806544Y773245D01*
X806472Y773633D01*
X806420Y774025D01*
X806389Y774419D01*
X806379Y774815D01*
X806389Y775210D01*
X806420Y775604D01*
X806472Y775996D01*
X806544Y776384D01*
X806636Y776769D01*
X806748Y777148D01*
X806880Y777520D01*
X807032Y777885D01*
X807202Y778242D01*
X807390Y778589D01*
X807597Y778927D01*
X807821Y779252D01*
X808061Y779566D01*
X808318Y779867D01*
X808590Y780153D01*
X808877Y780425D01*
X809177Y780682D01*
X809491Y780923D01*
X809817Y781146D01*
X810154Y781353D01*
X810501Y781542D01*
X810858Y781712D01*
X811223Y781863D01*
X811596Y781995D01*
X811975Y782107D01*
X812359Y782200D01*
X812748Y782272D01*
X813140Y782323D01*
X813534Y782354D01*
X813929Y782365D01*
X814324Y782354D01*
D02*
G37*
G36*
X794004D02*
X794398Y782323D01*
X794790Y782272D01*
X795179Y782200D01*
X795563Y782107D01*
X795942Y781995D01*
X796315Y781863D01*
X796680Y781712D01*
X797037Y781542D01*
X797384Y781353D01*
X797721Y781146D01*
X798047Y780923D01*
X798360Y780682D01*
X798661Y780425D01*
X798948Y780153D01*
X799220Y779867D01*
X799476Y779566D01*
X799717Y779252D01*
X799941Y778927D01*
X800147Y778589D01*
X800336Y778242D01*
X800506Y777885D01*
X800658Y777520D01*
X800789Y777148D01*
X800902Y776769D01*
X800994Y776384D01*
X801066Y775996D01*
X801117Y775604D01*
X801149Y775210D01*
X801159Y774815D01*
X801149Y774419D01*
X801117Y774025D01*
X801066Y773633D01*
X800994Y773245D01*
X800902Y772860D01*
X800789Y772482D01*
X800658Y772109D01*
X800506Y771744D01*
X800336Y771387D01*
X800147Y771040D01*
X799941Y770703D01*
X799717Y770377D01*
X799476Y770063D01*
X799220Y769762D01*
X798948Y769476D01*
X798661Y769204D01*
X798360Y768947D01*
X798047Y768706D01*
X797721Y768483D01*
X797384Y768276D01*
X797037Y768087D01*
X796680Y767917D01*
X796315Y767766D01*
X795942Y767634D01*
X795563Y767522D01*
X795179Y767430D01*
X794790Y767357D01*
X794398Y767306D01*
X794004Y767275D01*
X793609Y767264D01*
X793214Y767275D01*
X792820Y767306D01*
X792428Y767357D01*
X792039Y767430D01*
X791655Y767522D01*
X791276Y767634D01*
X790903Y767766D01*
X790538Y767917D01*
X790181Y768087D01*
X789834Y768276D01*
X789497Y768483D01*
X789171Y768706D01*
X788857Y768947D01*
X788557Y769204D01*
X788270Y769476D01*
X787998Y769762D01*
X787741Y770063D01*
X787501Y770377D01*
X787277Y770703D01*
X787070Y771040D01*
X786882Y771387D01*
X786712Y771744D01*
X786560Y772109D01*
X786428Y772482D01*
X786316Y772860D01*
X786224Y773245D01*
X786152Y773633D01*
X786100Y774025D01*
X786069Y774419D01*
X786059Y774815D01*
X786069Y775210D01*
X786100Y775604D01*
X786152Y775996D01*
X786224Y776384D01*
X786316Y776769D01*
X786428Y777148D01*
X786560Y777520D01*
X786712Y777885D01*
X786882Y778242D01*
X787070Y778589D01*
X787277Y778927D01*
X787501Y779252D01*
X787741Y779566D01*
X787998Y779867D01*
X788270Y780153D01*
X788557Y780425D01*
X788857Y780682D01*
X789171Y780923D01*
X789497Y781146D01*
X789834Y781353D01*
X790181Y781542D01*
X790538Y781712D01*
X790903Y781863D01*
X791276Y781995D01*
X791655Y782107D01*
X792039Y782200D01*
X792428Y782272D01*
X792820Y782323D01*
X793214Y782354D01*
X793609Y782365D01*
X794004Y782354D01*
D02*
G37*
G36*
X773684D02*
X774078Y782323D01*
X774470Y782272D01*
X774859Y782200D01*
X775243Y782107D01*
X775622Y781995D01*
X775995Y781863D01*
X776360Y781712D01*
X776717Y781542D01*
X777064Y781353D01*
X777401Y781146D01*
X777727Y780923D01*
X778040Y780682D01*
X778341Y780425D01*
X778628Y780153D01*
X778900Y779867D01*
X779156Y779566D01*
X779397Y779252D01*
X779621Y778927D01*
X779827Y778589D01*
X780016Y778242D01*
X780186Y777885D01*
X780338Y777520D01*
X780469Y777148D01*
X780582Y776769D01*
X780674Y776384D01*
X780746Y775996D01*
X780798Y775604D01*
X780828Y775210D01*
X780839Y774815D01*
X780828Y774419D01*
X780798Y774025D01*
X780746Y773633D01*
X780674Y773245D01*
X780582Y772860D01*
X780469Y772482D01*
X780338Y772109D01*
X780186Y771744D01*
X780016Y771387D01*
X779827Y771040D01*
X779621Y770703D01*
X779397Y770377D01*
X779156Y770063D01*
X778900Y769762D01*
X778628Y769476D01*
X778341Y769204D01*
X778040Y768947D01*
X777727Y768706D01*
X777401Y768483D01*
X777064Y768276D01*
X776717Y768087D01*
X776360Y767917D01*
X775995Y767766D01*
X775622Y767634D01*
X775243Y767522D01*
X774859Y767430D01*
X774470Y767357D01*
X774078Y767306D01*
X773684Y767275D01*
X773289Y767264D01*
X772894Y767275D01*
X772500Y767306D01*
X772108Y767357D01*
X771719Y767430D01*
X771335Y767522D01*
X770956Y767634D01*
X770583Y767766D01*
X770218Y767917D01*
X769861Y768087D01*
X769514Y768276D01*
X769177Y768483D01*
X768851Y768706D01*
X768538Y768947D01*
X768237Y769204D01*
X767950Y769476D01*
X767678Y769762D01*
X767421Y770063D01*
X767181Y770377D01*
X766957Y770703D01*
X766750Y771040D01*
X766562Y771387D01*
X766392Y771744D01*
X766240Y772109D01*
X766108Y772482D01*
X765996Y772860D01*
X765904Y773245D01*
X765832Y773633D01*
X765780Y774025D01*
X765749Y774419D01*
X765739Y774815D01*
X765749Y775210D01*
X765780Y775604D01*
X765832Y775996D01*
X765904Y776384D01*
X765996Y776769D01*
X766108Y777148D01*
X766240Y777520D01*
X766392Y777885D01*
X766562Y778242D01*
X766750Y778589D01*
X766957Y778927D01*
X767181Y779252D01*
X767421Y779566D01*
X767678Y779867D01*
X767950Y780153D01*
X768237Y780425D01*
X768538Y780682D01*
X768851Y780923D01*
X769177Y781146D01*
X769514Y781353D01*
X769861Y781542D01*
X770218Y781712D01*
X770583Y781863D01*
X770956Y781995D01*
X771335Y782107D01*
X771719Y782200D01*
X772108Y782272D01*
X772500Y782323D01*
X772894Y782354D01*
X773289Y782365D01*
X773684Y782354D01*
D02*
G37*
G36*
X753434D02*
X753828Y782323D01*
X754220Y782272D01*
X754609Y782200D01*
X754993Y782107D01*
X755372Y781995D01*
X755745Y781863D01*
X756110Y781712D01*
X756467Y781542D01*
X756814Y781353D01*
X757151Y781146D01*
X757477Y780923D01*
X757791Y780682D01*
X758091Y780425D01*
X758378Y780153D01*
X758650Y779867D01*
X758906Y779566D01*
X759147Y779252D01*
X759371Y778927D01*
X759578Y778589D01*
X759766Y778242D01*
X759936Y777885D01*
X760088Y777520D01*
X760219Y777148D01*
X760332Y776769D01*
X760424Y776384D01*
X760496Y775996D01*
X760548Y775604D01*
X760579Y775210D01*
X760589Y774815D01*
X760579Y774419D01*
X760548Y774025D01*
X760496Y773633D01*
X760424Y773245D01*
X760332Y772860D01*
X760219Y772482D01*
X760088Y772109D01*
X759936Y771744D01*
X759766Y771387D01*
X759578Y771040D01*
X759371Y770703D01*
X759147Y770377D01*
X758906Y770063D01*
X758650Y769762D01*
X758378Y769476D01*
X758091Y769204D01*
X757791Y768947D01*
X757477Y768706D01*
X757151Y768483D01*
X756814Y768276D01*
X756467Y768087D01*
X756110Y767917D01*
X755745Y767766D01*
X755372Y767634D01*
X754993Y767522D01*
X754609Y767430D01*
X754220Y767357D01*
X753828Y767306D01*
X753434Y767275D01*
X753039Y767264D01*
X752644Y767275D01*
X752250Y767306D01*
X751858Y767357D01*
X751469Y767430D01*
X751085Y767522D01*
X750706Y767634D01*
X750333Y767766D01*
X749968Y767917D01*
X749611Y768087D01*
X749264Y768276D01*
X748927Y768483D01*
X748601Y768706D01*
X748288Y768947D01*
X747987Y769204D01*
X747700Y769476D01*
X747428Y769762D01*
X747171Y770063D01*
X746931Y770377D01*
X746707Y770703D01*
X746500Y771040D01*
X746312Y771387D01*
X746142Y771744D01*
X745990Y772109D01*
X745859Y772482D01*
X745746Y772860D01*
X745654Y773245D01*
X745582Y773633D01*
X745530Y774025D01*
X745499Y774419D01*
X745489Y774815D01*
X745499Y775210D01*
X745530Y775604D01*
X745582Y775996D01*
X745654Y776384D01*
X745746Y776769D01*
X745859Y777148D01*
X745990Y777520D01*
X746142Y777885D01*
X746312Y778242D01*
X746500Y778589D01*
X746707Y778927D01*
X746931Y779252D01*
X747171Y779566D01*
X747428Y779867D01*
X747700Y780153D01*
X747987Y780425D01*
X748288Y780682D01*
X748601Y780923D01*
X748927Y781146D01*
X749264Y781353D01*
X749611Y781542D01*
X749968Y781712D01*
X750333Y781863D01*
X750706Y781995D01*
X751085Y782107D01*
X751469Y782200D01*
X751858Y782272D01*
X752250Y782323D01*
X752644Y782354D01*
X753039Y782365D01*
X753434Y782354D01*
D02*
G37*
G36*
X753504Y762034D02*
X753898Y762003D01*
X754290Y761952D01*
X754679Y761879D01*
X755063Y761787D01*
X755442Y761675D01*
X755815Y761543D01*
X756180Y761392D01*
X756536Y761221D01*
X756884Y761033D01*
X757221Y760826D01*
X757547Y760602D01*
X757860Y760362D01*
X758161Y760105D01*
X758448Y759833D01*
X758720Y759546D01*
X758976Y759246D01*
X759217Y758932D01*
X759441Y758607D01*
X759648Y758270D01*
X759836Y757922D01*
X760006Y757565D01*
X760157Y757200D01*
X760289Y756827D01*
X760402Y756449D01*
X760494Y756064D01*
X760566Y755676D01*
X760618Y755284D01*
X760648Y754890D01*
X760659Y754495D01*
X760648Y754099D01*
X760618Y753705D01*
X760566Y753314D01*
X760494Y752925D01*
X760402Y752541D01*
X760289Y752162D01*
X760157Y751789D01*
X760006Y751424D01*
X759836Y751067D01*
X759648Y750720D01*
X759441Y750383D01*
X759217Y750057D01*
X758976Y749743D01*
X758720Y749443D01*
X758448Y749156D01*
X758161Y748884D01*
X757860Y748627D01*
X757547Y748387D01*
X757221Y748163D01*
X756884Y747956D01*
X756536Y747768D01*
X756180Y747597D01*
X755815Y747446D01*
X755442Y747314D01*
X755063Y747202D01*
X754679Y747110D01*
X754290Y747038D01*
X753898Y746986D01*
X753504Y746955D01*
X753109Y746945D01*
X752714Y746955D01*
X752320Y746986D01*
X751928Y747038D01*
X751539Y747110D01*
X751155Y747202D01*
X750776Y747314D01*
X750403Y747446D01*
X750038Y747597D01*
X749681Y747768D01*
X749334Y747956D01*
X748997Y748163D01*
X748671Y748387D01*
X748358Y748627D01*
X748057Y748884D01*
X747770Y749156D01*
X747498Y749443D01*
X747242Y749743D01*
X747001Y750057D01*
X746777Y750383D01*
X746571Y750720D01*
X746382Y751067D01*
X746212Y751424D01*
X746060Y751789D01*
X745929Y752162D01*
X745816Y752541D01*
X745724Y752925D01*
X745652Y753314D01*
X745601Y753705D01*
X745570Y754099D01*
X745559Y754495D01*
X745570Y754890D01*
X745601Y755284D01*
X745652Y755676D01*
X745724Y756064D01*
X745816Y756449D01*
X745929Y756827D01*
X746060Y757200D01*
X746212Y757565D01*
X746382Y757922D01*
X746571Y758270D01*
X746777Y758607D01*
X747001Y758932D01*
X747242Y759246D01*
X747498Y759546D01*
X747770Y759833D01*
X748057Y760105D01*
X748358Y760362D01*
X748671Y760602D01*
X748997Y760826D01*
X749334Y761033D01*
X749681Y761221D01*
X750038Y761392D01*
X750403Y761543D01*
X750776Y761675D01*
X751155Y761787D01*
X751539Y761879D01*
X751928Y761952D01*
X752320Y762003D01*
X752714Y762034D01*
X753109Y762044D01*
X753504Y762034D01*
D02*
G37*
G36*
X834714Y762034D02*
X835108Y762003D01*
X835500Y761952D01*
X835889Y761880D01*
X836273Y761787D01*
X836652Y761675D01*
X837025Y761543D01*
X837390Y761392D01*
X837747Y761222D01*
X838094Y761033D01*
X838431Y760826D01*
X838757Y760603D01*
X839071Y760362D01*
X839371Y760105D01*
X839658Y759833D01*
X839930Y759547D01*
X840186Y759246D01*
X840427Y758932D01*
X840651Y758607D01*
X840858Y758270D01*
X841046Y757922D01*
X841216Y757565D01*
X841368Y757200D01*
X841499Y756827D01*
X841612Y756449D01*
X841704Y756064D01*
X841776Y755676D01*
X841828Y755284D01*
X841859Y754890D01*
X841869Y754495D01*
X841859Y754099D01*
X841828Y753705D01*
X841776Y753314D01*
X841704Y752925D01*
X841612Y752541D01*
X841499Y752162D01*
X841368Y751789D01*
X841216Y751424D01*
X841046Y751067D01*
X840858Y750720D01*
X840651Y750383D01*
X840427Y750057D01*
X840186Y749743D01*
X839930Y749443D01*
X839658Y749156D01*
X839371Y748884D01*
X839071Y748627D01*
X838757Y748386D01*
X838431Y748163D01*
X838094Y747956D01*
X837747Y747767D01*
X837390Y747597D01*
X837025Y747446D01*
X836652Y747314D01*
X836273Y747202D01*
X835889Y747110D01*
X835500Y747037D01*
X835108Y746986D01*
X834714Y746955D01*
X834319Y746944D01*
X833924Y746955D01*
X833530Y746986D01*
X833138Y747037D01*
X832749Y747110D01*
X832365Y747202D01*
X831986Y747314D01*
X831613Y747446D01*
X831248Y747597D01*
X830891Y747767D01*
X830544Y747956D01*
X830207Y748163D01*
X829881Y748386D01*
X829568Y748627D01*
X829267Y748884D01*
X828980Y749156D01*
X828708Y749443D01*
X828452Y749743D01*
X828211Y750057D01*
X827987Y750383D01*
X827780Y750720D01*
X827592Y751067D01*
X827422Y751424D01*
X827270Y751789D01*
X827139Y752162D01*
X827026Y752541D01*
X826934Y752925D01*
X826862Y753314D01*
X826810Y753705D01*
X826779Y754099D01*
X826769Y754495D01*
X826779Y754890D01*
X826810Y755284D01*
X826862Y755676D01*
X826934Y756064D01*
X827026Y756449D01*
X827139Y756827D01*
X827270Y757200D01*
X827422Y757565D01*
X827592Y757922D01*
X827780Y758270D01*
X827987Y758607D01*
X828211Y758932D01*
X828452Y759246D01*
X828708Y759547D01*
X828980Y759833D01*
X829267Y760105D01*
X829568Y760362D01*
X829881Y760603D01*
X830207Y760826D01*
X830544Y761033D01*
X830891Y761222D01*
X831248Y761392D01*
X831613Y761543D01*
X831986Y761675D01*
X832365Y761787D01*
X832749Y761880D01*
X833138Y761952D01*
X833530Y762003D01*
X833924Y762034D01*
X834319Y762045D01*
X834714Y762034D01*
D02*
G37*
G36*
X814394D02*
X814788Y762003D01*
X815180Y761952D01*
X815569Y761880D01*
X815953Y761787D01*
X816332Y761675D01*
X816705Y761543D01*
X817070Y761392D01*
X817427Y761222D01*
X817774Y761033D01*
X818111Y760826D01*
X818437Y760603D01*
X818751Y760362D01*
X819051Y760105D01*
X819338Y759833D01*
X819610Y759547D01*
X819866Y759246D01*
X820107Y758932D01*
X820331Y758607D01*
X820538Y758270D01*
X820726Y757922D01*
X820896Y757565D01*
X821048Y757200D01*
X821180Y756827D01*
X821292Y756449D01*
X821384Y756064D01*
X821456Y755676D01*
X821508Y755284D01*
X821539Y754890D01*
X821549Y754495D01*
X821539Y754099D01*
X821508Y753705D01*
X821456Y753314D01*
X821384Y752925D01*
X821292Y752541D01*
X821180Y752162D01*
X821048Y751789D01*
X820896Y751424D01*
X820726Y751067D01*
X820538Y750720D01*
X820331Y750383D01*
X820107Y750057D01*
X819866Y749743D01*
X819610Y749443D01*
X819338Y749156D01*
X819051Y748884D01*
X818751Y748627D01*
X818437Y748386D01*
X818111Y748163D01*
X817774Y747956D01*
X817427Y747767D01*
X817070Y747597D01*
X816705Y747446D01*
X816332Y747314D01*
X815953Y747202D01*
X815569Y747110D01*
X815180Y747037D01*
X814788Y746986D01*
X814394Y746955D01*
X813999Y746944D01*
X813604Y746955D01*
X813210Y746986D01*
X812818Y747037D01*
X812429Y747110D01*
X812045Y747202D01*
X811666Y747314D01*
X811293Y747446D01*
X810928Y747597D01*
X810571Y747767D01*
X810224Y747956D01*
X809887Y748163D01*
X809561Y748386D01*
X809248Y748627D01*
X808947Y748884D01*
X808660Y749156D01*
X808388Y749443D01*
X808131Y749743D01*
X807891Y750057D01*
X807667Y750383D01*
X807460Y750720D01*
X807272Y751067D01*
X807102Y751424D01*
X806950Y751789D01*
X806819Y752162D01*
X806706Y752541D01*
X806614Y752925D01*
X806542Y753314D01*
X806490Y753705D01*
X806459Y754099D01*
X806449Y754495D01*
X806459Y754890D01*
X806490Y755284D01*
X806542Y755676D01*
X806614Y756064D01*
X806706Y756449D01*
X806819Y756827D01*
X806950Y757200D01*
X807102Y757565D01*
X807272Y757922D01*
X807460Y758270D01*
X807667Y758607D01*
X807891Y758932D01*
X808131Y759246D01*
X808388Y759547D01*
X808660Y759833D01*
X808947Y760105D01*
X809248Y760362D01*
X809561Y760603D01*
X809887Y760826D01*
X810224Y761033D01*
X810571Y761222D01*
X810928Y761392D01*
X811293Y761543D01*
X811666Y761675D01*
X812045Y761787D01*
X812429Y761880D01*
X812818Y761952D01*
X813210Y762003D01*
X813604Y762034D01*
X813999Y762045D01*
X814394Y762034D01*
D02*
G37*
G36*
X794074D02*
X794468Y762003D01*
X794860Y761952D01*
X795249Y761880D01*
X795633Y761787D01*
X796012Y761675D01*
X796385Y761543D01*
X796750Y761392D01*
X797107Y761222D01*
X797454Y761033D01*
X797791Y760826D01*
X798117Y760603D01*
X798430Y760362D01*
X798731Y760105D01*
X799018Y759833D01*
X799290Y759547D01*
X799547Y759246D01*
X799787Y758932D01*
X800011Y758607D01*
X800218Y758270D01*
X800406Y757922D01*
X800576Y757565D01*
X800728Y757200D01*
X800860Y756827D01*
X800972Y756449D01*
X801064Y756064D01*
X801136Y755676D01*
X801188Y755284D01*
X801219Y754890D01*
X801229Y754495D01*
X801219Y754099D01*
X801188Y753705D01*
X801136Y753314D01*
X801064Y752925D01*
X800972Y752541D01*
X800860Y752162D01*
X800728Y751789D01*
X800576Y751424D01*
X800406Y751067D01*
X800218Y750720D01*
X800011Y750383D01*
X799787Y750057D01*
X799547Y749743D01*
X799290Y749443D01*
X799018Y749156D01*
X798731Y748884D01*
X798430Y748627D01*
X798117Y748386D01*
X797791Y748163D01*
X797454Y747956D01*
X797107Y747767D01*
X796750Y747597D01*
X796385Y747446D01*
X796012Y747314D01*
X795633Y747202D01*
X795249Y747110D01*
X794860Y747037D01*
X794468Y746986D01*
X794074Y746955D01*
X793679Y746944D01*
X793284Y746955D01*
X792890Y746986D01*
X792498Y747037D01*
X792109Y747110D01*
X791725Y747202D01*
X791346Y747314D01*
X790973Y747446D01*
X790608Y747597D01*
X790251Y747767D01*
X789904Y747956D01*
X789567Y748163D01*
X789241Y748386D01*
X788928Y748627D01*
X788627Y748884D01*
X788340Y749156D01*
X788068Y749443D01*
X787812Y749743D01*
X787571Y750057D01*
X787347Y750383D01*
X787140Y750720D01*
X786952Y751067D01*
X786782Y751424D01*
X786630Y751789D01*
X786499Y752162D01*
X786386Y752541D01*
X786294Y752925D01*
X786222Y753314D01*
X786170Y753705D01*
X786139Y754099D01*
X786129Y754495D01*
X786139Y754890D01*
X786170Y755284D01*
X786222Y755676D01*
X786294Y756064D01*
X786386Y756449D01*
X786499Y756827D01*
X786630Y757200D01*
X786782Y757565D01*
X786952Y757922D01*
X787140Y758270D01*
X787347Y758607D01*
X787571Y758932D01*
X787812Y759246D01*
X788068Y759547D01*
X788340Y759833D01*
X788627Y760105D01*
X788928Y760362D01*
X789241Y760603D01*
X789567Y760826D01*
X789904Y761033D01*
X790251Y761222D01*
X790608Y761392D01*
X790973Y761543D01*
X791346Y761675D01*
X791725Y761787D01*
X792109Y761880D01*
X792498Y761952D01*
X792890Y762003D01*
X793284Y762034D01*
X793679Y762045D01*
X794074Y762034D01*
D02*
G37*
G36*
X773754D02*
X774148Y762003D01*
X774540Y761952D01*
X774929Y761880D01*
X775313Y761787D01*
X775692Y761675D01*
X776065Y761543D01*
X776430Y761392D01*
X776787Y761222D01*
X777134Y761033D01*
X777471Y760826D01*
X777797Y760603D01*
X778111Y760362D01*
X778411Y760105D01*
X778698Y759833D01*
X778970Y759547D01*
X779227Y759246D01*
X779467Y758932D01*
X779691Y758607D01*
X779898Y758270D01*
X780086Y757922D01*
X780256Y757565D01*
X780408Y757200D01*
X780539Y756827D01*
X780652Y756449D01*
X780744Y756064D01*
X780816Y755676D01*
X780868Y755284D01*
X780899Y754890D01*
X780909Y754495D01*
X780899Y754099D01*
X780868Y753705D01*
X780816Y753314D01*
X780744Y752925D01*
X780652Y752541D01*
X780539Y752162D01*
X780408Y751789D01*
X780256Y751424D01*
X780086Y751067D01*
X779898Y750720D01*
X779691Y750383D01*
X779467Y750057D01*
X779227Y749743D01*
X778970Y749443D01*
X778698Y749156D01*
X778411Y748884D01*
X778111Y748627D01*
X777797Y748386D01*
X777471Y748163D01*
X777134Y747956D01*
X776787Y747767D01*
X776430Y747597D01*
X776065Y747446D01*
X775692Y747314D01*
X775313Y747202D01*
X774929Y747110D01*
X774540Y747037D01*
X774148Y746986D01*
X773754Y746955D01*
X773359Y746944D01*
X772964Y746955D01*
X772570Y746986D01*
X772178Y747037D01*
X771789Y747110D01*
X771405Y747202D01*
X771026Y747314D01*
X770653Y747446D01*
X770288Y747597D01*
X769931Y747767D01*
X769584Y747956D01*
X769247Y748163D01*
X768921Y748386D01*
X768608Y748627D01*
X768307Y748884D01*
X768020Y749156D01*
X767748Y749443D01*
X767492Y749743D01*
X767251Y750057D01*
X767027Y750383D01*
X766820Y750720D01*
X766632Y751067D01*
X766462Y751424D01*
X766310Y751789D01*
X766179Y752162D01*
X766066Y752541D01*
X765974Y752925D01*
X765902Y753314D01*
X765850Y753705D01*
X765819Y754099D01*
X765809Y754495D01*
X765819Y754890D01*
X765850Y755284D01*
X765902Y755676D01*
X765974Y756064D01*
X766066Y756449D01*
X766179Y756827D01*
X766310Y757200D01*
X766462Y757565D01*
X766632Y757922D01*
X766820Y758270D01*
X767027Y758607D01*
X767251Y758932D01*
X767492Y759246D01*
X767748Y759547D01*
X768020Y759833D01*
X768307Y760105D01*
X768608Y760362D01*
X768921Y760603D01*
X769247Y760826D01*
X769584Y761033D01*
X769931Y761222D01*
X770288Y761392D01*
X770653Y761543D01*
X771026Y761675D01*
X771405Y761787D01*
X771789Y761880D01*
X772178Y761952D01*
X772570Y762003D01*
X772964Y762034D01*
X773359Y762045D01*
X773754Y762034D01*
D02*
G37*
G36*
X936244Y782354D02*
X936638Y782323D01*
X937030Y782272D01*
X937419Y782200D01*
X937803Y782107D01*
X938182Y781995D01*
X938555Y781863D01*
X938920Y781712D01*
X939277Y781542D01*
X939624Y781353D01*
X939961Y781146D01*
X940287Y780923D01*
X940600Y780682D01*
X940901Y780425D01*
X941188Y780153D01*
X941460Y779867D01*
X941716Y779566D01*
X941957Y779252D01*
X942181Y778927D01*
X942387Y778589D01*
X942576Y778242D01*
X942746Y777885D01*
X942897Y777520D01*
X943029Y777148D01*
X943142Y776769D01*
X943234Y776384D01*
X943306Y775996D01*
X943357Y775604D01*
X943389Y775210D01*
X943399Y774815D01*
X943389Y774419D01*
X943357Y774025D01*
X943306Y773633D01*
X943234Y773245D01*
X943142Y772860D01*
X943029Y772482D01*
X942897Y772109D01*
X942746Y771744D01*
X942576Y771387D01*
X942387Y771040D01*
X942181Y770703D01*
X941957Y770377D01*
X941716Y770063D01*
X941460Y769762D01*
X941188Y769476D01*
X940901Y769204D01*
X940600Y768947D01*
X940287Y768706D01*
X939961Y768483D01*
X939624Y768276D01*
X939277Y768087D01*
X938920Y767917D01*
X938555Y767766D01*
X938182Y767634D01*
X937803Y767522D01*
X937419Y767430D01*
X937030Y767357D01*
X936638Y767306D01*
X936244Y767275D01*
X935849Y767264D01*
X935454Y767275D01*
X935060Y767306D01*
X934668Y767357D01*
X934279Y767430D01*
X933895Y767522D01*
X933516Y767634D01*
X933143Y767766D01*
X932778Y767917D01*
X932421Y768087D01*
X932074Y768276D01*
X931737Y768483D01*
X931411Y768706D01*
X931097Y768947D01*
X930797Y769204D01*
X930510Y769476D01*
X930238Y769762D01*
X929981Y770063D01*
X929741Y770377D01*
X929517Y770703D01*
X929310Y771040D01*
X929122Y771387D01*
X928952Y771744D01*
X928800Y772109D01*
X928668Y772482D01*
X928556Y772860D01*
X928464Y773245D01*
X928392Y773633D01*
X928340Y774025D01*
X928309Y774419D01*
X928299Y774815D01*
X928309Y775210D01*
X928340Y775604D01*
X928392Y775996D01*
X928464Y776384D01*
X928556Y776769D01*
X928668Y777148D01*
X928800Y777520D01*
X928952Y777885D01*
X929122Y778242D01*
X929310Y778589D01*
X929517Y778927D01*
X929741Y779252D01*
X929981Y779566D01*
X930238Y779867D01*
X930510Y780153D01*
X930797Y780425D01*
X931097Y780682D01*
X931411Y780923D01*
X931737Y781146D01*
X932074Y781353D01*
X932421Y781542D01*
X932778Y781712D01*
X933143Y781863D01*
X933516Y781995D01*
X933895Y782107D01*
X934279Y782200D01*
X934668Y782272D01*
X935060Y782323D01*
X935454Y782354D01*
X935849Y782365D01*
X936244Y782354D01*
D02*
G37*
G36*
X915924D02*
X916318Y782323D01*
X916710Y782272D01*
X917099Y782200D01*
X917483Y782107D01*
X917862Y781995D01*
X918235Y781863D01*
X918600Y781712D01*
X918957Y781542D01*
X919304Y781353D01*
X919641Y781146D01*
X919967Y780923D01*
X920280Y780682D01*
X920581Y780425D01*
X920868Y780153D01*
X921140Y779867D01*
X921396Y779566D01*
X921637Y779252D01*
X921861Y778927D01*
X922067Y778589D01*
X922256Y778242D01*
X922426Y777885D01*
X922578Y777520D01*
X922709Y777148D01*
X922822Y776769D01*
X922914Y776384D01*
X922986Y775996D01*
X923037Y775604D01*
X923068Y775210D01*
X923079Y774815D01*
X923068Y774419D01*
X923037Y774025D01*
X922986Y773633D01*
X922914Y773245D01*
X922822Y772860D01*
X922709Y772482D01*
X922578Y772109D01*
X922426Y771744D01*
X922256Y771387D01*
X922067Y771040D01*
X921861Y770703D01*
X921637Y770377D01*
X921396Y770063D01*
X921140Y769762D01*
X920868Y769476D01*
X920581Y769204D01*
X920280Y768947D01*
X919967Y768706D01*
X919641Y768483D01*
X919304Y768276D01*
X918957Y768087D01*
X918600Y767917D01*
X918235Y767766D01*
X917862Y767634D01*
X917483Y767522D01*
X917099Y767430D01*
X916710Y767357D01*
X916318Y767306D01*
X915924Y767275D01*
X915529Y767264D01*
X915134Y767275D01*
X914740Y767306D01*
X914348Y767357D01*
X913959Y767430D01*
X913575Y767522D01*
X913196Y767634D01*
X912823Y767766D01*
X912458Y767917D01*
X912101Y768087D01*
X911754Y768276D01*
X911417Y768483D01*
X911091Y768706D01*
X910778Y768947D01*
X910477Y769204D01*
X910190Y769476D01*
X909918Y769762D01*
X909661Y770063D01*
X909421Y770377D01*
X909197Y770703D01*
X908990Y771040D01*
X908802Y771387D01*
X908632Y771744D01*
X908480Y772109D01*
X908348Y772482D01*
X908236Y772860D01*
X908144Y773245D01*
X908072Y773633D01*
X908020Y774025D01*
X907989Y774419D01*
X907979Y774815D01*
X907989Y775210D01*
X908020Y775604D01*
X908072Y775996D01*
X908144Y776384D01*
X908236Y776769D01*
X908348Y777148D01*
X908480Y777520D01*
X908632Y777885D01*
X908802Y778242D01*
X908990Y778589D01*
X909197Y778927D01*
X909421Y779252D01*
X909661Y779566D01*
X909918Y779867D01*
X910190Y780153D01*
X910477Y780425D01*
X910778Y780682D01*
X911091Y780923D01*
X911417Y781146D01*
X911754Y781353D01*
X912101Y781542D01*
X912458Y781712D01*
X912823Y781863D01*
X913196Y781995D01*
X913575Y782107D01*
X913959Y782200D01*
X914348Y782272D01*
X914740Y782323D01*
X915134Y782354D01*
X915529Y782365D01*
X915924Y782354D01*
D02*
G37*
G36*
X895604D02*
X895998Y782323D01*
X896390Y782272D01*
X896779Y782200D01*
X897163Y782107D01*
X897542Y781995D01*
X897915Y781863D01*
X898280Y781712D01*
X898636Y781542D01*
X898984Y781353D01*
X899321Y781146D01*
X899647Y780923D01*
X899960Y780682D01*
X900261Y780425D01*
X900548Y780153D01*
X900820Y779867D01*
X901076Y779566D01*
X901317Y779252D01*
X901541Y778927D01*
X901748Y778589D01*
X901936Y778242D01*
X902106Y777885D01*
X902258Y777520D01*
X902389Y777148D01*
X902502Y776769D01*
X902594Y776384D01*
X902666Y775996D01*
X902718Y775604D01*
X902748Y775210D01*
X902759Y774815D01*
X902748Y774419D01*
X902718Y774025D01*
X902666Y773633D01*
X902594Y773245D01*
X902502Y772860D01*
X902389Y772482D01*
X902258Y772109D01*
X902106Y771744D01*
X901936Y771387D01*
X901748Y771040D01*
X901541Y770703D01*
X901317Y770377D01*
X901076Y770063D01*
X900820Y769762D01*
X900548Y769476D01*
X900261Y769204D01*
X899960Y768947D01*
X899647Y768706D01*
X899321Y768483D01*
X898984Y768276D01*
X898636Y768087D01*
X898280Y767917D01*
X897915Y767766D01*
X897542Y767634D01*
X897163Y767522D01*
X896779Y767430D01*
X896390Y767357D01*
X895998Y767306D01*
X895604Y767275D01*
X895209Y767264D01*
X894814Y767275D01*
X894420Y767306D01*
X894028Y767357D01*
X893639Y767430D01*
X893255Y767522D01*
X892876Y767634D01*
X892503Y767766D01*
X892138Y767917D01*
X891781Y768087D01*
X891434Y768276D01*
X891097Y768483D01*
X890771Y768706D01*
X890458Y768947D01*
X890157Y769204D01*
X889870Y769476D01*
X889598Y769762D01*
X889341Y770063D01*
X889101Y770377D01*
X888877Y770703D01*
X888670Y771040D01*
X888482Y771387D01*
X888312Y771744D01*
X888160Y772109D01*
X888028Y772482D01*
X887916Y772860D01*
X887824Y773245D01*
X887752Y773633D01*
X887700Y774025D01*
X887669Y774419D01*
X887659Y774815D01*
X887669Y775210D01*
X887700Y775604D01*
X887752Y775996D01*
X887824Y776384D01*
X887916Y776769D01*
X888028Y777148D01*
X888160Y777520D01*
X888312Y777885D01*
X888482Y778242D01*
X888670Y778589D01*
X888877Y778927D01*
X889101Y779252D01*
X889341Y779566D01*
X889598Y779867D01*
X889870Y780153D01*
X890157Y780425D01*
X890458Y780682D01*
X890771Y780923D01*
X891097Y781146D01*
X891434Y781353D01*
X891781Y781542D01*
X892138Y781712D01*
X892503Y781863D01*
X892876Y781995D01*
X893255Y782107D01*
X893639Y782200D01*
X894028Y782272D01*
X894420Y782323D01*
X894814Y782354D01*
X895209Y782365D01*
X895604Y782354D01*
D02*
G37*
G36*
X875284D02*
X875678Y782323D01*
X876070Y782272D01*
X876459Y782200D01*
X876843Y782107D01*
X877222Y781995D01*
X877595Y781863D01*
X877960Y781712D01*
X878316Y781542D01*
X878664Y781353D01*
X879001Y781146D01*
X879327Y780923D01*
X879640Y780682D01*
X879941Y780425D01*
X880228Y780153D01*
X880500Y779867D01*
X880756Y779566D01*
X880997Y779252D01*
X881221Y778927D01*
X881428Y778589D01*
X881616Y778242D01*
X881786Y777885D01*
X881937Y777520D01*
X882069Y777148D01*
X882182Y776769D01*
X882274Y776384D01*
X882346Y775996D01*
X882398Y775604D01*
X882429Y775210D01*
X882439Y774815D01*
X882429Y774419D01*
X882398Y774025D01*
X882346Y773633D01*
X882274Y773245D01*
X882182Y772860D01*
X882069Y772482D01*
X881937Y772109D01*
X881786Y771744D01*
X881616Y771387D01*
X881428Y771040D01*
X881221Y770703D01*
X880997Y770377D01*
X880756Y770063D01*
X880500Y769762D01*
X880228Y769476D01*
X879941Y769204D01*
X879640Y768947D01*
X879327Y768706D01*
X879001Y768483D01*
X878664Y768276D01*
X878316Y768087D01*
X877960Y767917D01*
X877595Y767766D01*
X877222Y767634D01*
X876843Y767522D01*
X876459Y767430D01*
X876070Y767357D01*
X875678Y767306D01*
X875284Y767275D01*
X874889Y767264D01*
X874494Y767275D01*
X874100Y767306D01*
X873708Y767357D01*
X873319Y767430D01*
X872935Y767522D01*
X872556Y767634D01*
X872183Y767766D01*
X871818Y767917D01*
X871461Y768087D01*
X871114Y768276D01*
X870777Y768483D01*
X870451Y768706D01*
X870137Y768947D01*
X869837Y769204D01*
X869550Y769476D01*
X869278Y769762D01*
X869021Y770063D01*
X868781Y770377D01*
X868557Y770703D01*
X868350Y771040D01*
X868162Y771387D01*
X867992Y771744D01*
X867840Y772109D01*
X867708Y772482D01*
X867596Y772860D01*
X867504Y773245D01*
X867432Y773633D01*
X867380Y774025D01*
X867349Y774419D01*
X867339Y774815D01*
X867349Y775210D01*
X867380Y775604D01*
X867432Y775996D01*
X867504Y776384D01*
X867596Y776769D01*
X867708Y777148D01*
X867840Y777520D01*
X867992Y777885D01*
X868162Y778242D01*
X868350Y778589D01*
X868557Y778927D01*
X868781Y779252D01*
X869021Y779566D01*
X869278Y779867D01*
X869550Y780153D01*
X869837Y780425D01*
X870137Y780682D01*
X870451Y780923D01*
X870777Y781146D01*
X871114Y781353D01*
X871461Y781542D01*
X871818Y781712D01*
X872183Y781863D01*
X872556Y781995D01*
X872935Y782107D01*
X873319Y782200D01*
X873708Y782272D01*
X874100Y782323D01*
X874494Y782354D01*
X874889Y782365D01*
X875284Y782354D01*
D02*
G37*
G36*
X855034D02*
X855428Y782323D01*
X855820Y782272D01*
X856209Y782200D01*
X856593Y782107D01*
X856972Y781995D01*
X857345Y781863D01*
X857710Y781712D01*
X858067Y781542D01*
X858414Y781353D01*
X858751Y781146D01*
X859077Y780923D01*
X859390Y780682D01*
X859691Y780425D01*
X859978Y780153D01*
X860250Y779867D01*
X860507Y779566D01*
X860747Y779252D01*
X860971Y778927D01*
X861178Y778589D01*
X861366Y778242D01*
X861536Y777885D01*
X861688Y777520D01*
X861820Y777148D01*
X861932Y776769D01*
X862024Y776384D01*
X862096Y775996D01*
X862148Y775604D01*
X862179Y775210D01*
X862189Y774815D01*
X862179Y774419D01*
X862148Y774025D01*
X862096Y773633D01*
X862024Y773245D01*
X861932Y772860D01*
X861820Y772482D01*
X861688Y772109D01*
X861536Y771744D01*
X861366Y771387D01*
X861178Y771040D01*
X860971Y770703D01*
X860747Y770377D01*
X860507Y770063D01*
X860250Y769762D01*
X859978Y769476D01*
X859691Y769204D01*
X859390Y768947D01*
X859077Y768706D01*
X858751Y768483D01*
X858414Y768276D01*
X858067Y768087D01*
X857710Y767917D01*
X857345Y767766D01*
X856972Y767634D01*
X856593Y767522D01*
X856209Y767430D01*
X855820Y767357D01*
X855428Y767306D01*
X855034Y767275D01*
X854639Y767264D01*
X854244Y767275D01*
X853850Y767306D01*
X853458Y767357D01*
X853069Y767430D01*
X852685Y767522D01*
X852306Y767634D01*
X851933Y767766D01*
X851568Y767917D01*
X851211Y768087D01*
X850864Y768276D01*
X850527Y768483D01*
X850201Y768706D01*
X849888Y768947D01*
X849587Y769204D01*
X849300Y769476D01*
X849028Y769762D01*
X848772Y770063D01*
X848531Y770377D01*
X848307Y770703D01*
X848100Y771040D01*
X847912Y771387D01*
X847742Y771744D01*
X847590Y772109D01*
X847459Y772482D01*
X847346Y772860D01*
X847254Y773245D01*
X847182Y773633D01*
X847130Y774025D01*
X847099Y774419D01*
X847089Y774815D01*
X847099Y775210D01*
X847130Y775604D01*
X847182Y775996D01*
X847254Y776384D01*
X847346Y776769D01*
X847459Y777148D01*
X847590Y777520D01*
X847742Y777885D01*
X847912Y778242D01*
X848100Y778589D01*
X848307Y778927D01*
X848531Y779252D01*
X848772Y779566D01*
X849028Y779867D01*
X849300Y780153D01*
X849587Y780425D01*
X849888Y780682D01*
X850201Y780923D01*
X850527Y781146D01*
X850864Y781353D01*
X851211Y781542D01*
X851568Y781712D01*
X851933Y781863D01*
X852306Y781995D01*
X852685Y782107D01*
X853069Y782200D01*
X853458Y782272D01*
X853850Y782323D01*
X854244Y782354D01*
X854639Y782365D01*
X855034Y782354D01*
D02*
G37*
G36*
X936314Y762034D02*
X936708Y762003D01*
X937100Y761952D01*
X937489Y761880D01*
X937873Y761787D01*
X938252Y761675D01*
X938625Y761543D01*
X938990Y761392D01*
X939347Y761222D01*
X939694Y761033D01*
X940031Y760826D01*
X940357Y760603D01*
X940670Y760362D01*
X940971Y760105D01*
X941258Y759833D01*
X941530Y759547D01*
X941786Y759246D01*
X942027Y758932D01*
X942251Y758607D01*
X942458Y758270D01*
X942646Y757922D01*
X942816Y757565D01*
X942968Y757200D01*
X943100Y756827D01*
X943212Y756449D01*
X943304Y756064D01*
X943376Y755676D01*
X943428Y755284D01*
X943459Y754890D01*
X943469Y754495D01*
X943459Y754099D01*
X943428Y753705D01*
X943376Y753314D01*
X943304Y752925D01*
X943212Y752541D01*
X943100Y752162D01*
X942968Y751789D01*
X942816Y751424D01*
X942646Y751067D01*
X942458Y750720D01*
X942251Y750383D01*
X942027Y750057D01*
X941786Y749743D01*
X941530Y749443D01*
X941258Y749156D01*
X940971Y748884D01*
X940670Y748627D01*
X940357Y748386D01*
X940031Y748163D01*
X939694Y747956D01*
X939347Y747767D01*
X938990Y747597D01*
X938625Y747446D01*
X938252Y747314D01*
X937873Y747202D01*
X937489Y747110D01*
X937100Y747037D01*
X936708Y746986D01*
X936314Y746955D01*
X935919Y746944D01*
X935524Y746955D01*
X935130Y746986D01*
X934738Y747037D01*
X934349Y747110D01*
X933965Y747202D01*
X933586Y747314D01*
X933213Y747446D01*
X932848Y747597D01*
X932491Y747767D01*
X932144Y747956D01*
X931807Y748163D01*
X931481Y748386D01*
X931168Y748627D01*
X930867Y748884D01*
X930580Y749156D01*
X930308Y749443D01*
X930051Y749743D01*
X929811Y750057D01*
X929587Y750383D01*
X929380Y750720D01*
X929192Y751067D01*
X929022Y751424D01*
X928870Y751789D01*
X928739Y752162D01*
X928626Y752541D01*
X928534Y752925D01*
X928462Y753314D01*
X928410Y753705D01*
X928379Y754099D01*
X928369Y754495D01*
X928379Y754890D01*
X928410Y755284D01*
X928462Y755676D01*
X928534Y756064D01*
X928626Y756449D01*
X928739Y756827D01*
X928870Y757200D01*
X929022Y757565D01*
X929192Y757922D01*
X929380Y758270D01*
X929587Y758607D01*
X929811Y758932D01*
X930051Y759246D01*
X930308Y759547D01*
X930580Y759833D01*
X930867Y760105D01*
X931168Y760362D01*
X931481Y760603D01*
X931807Y760826D01*
X932144Y761033D01*
X932491Y761222D01*
X932848Y761392D01*
X933213Y761543D01*
X933586Y761675D01*
X933965Y761787D01*
X934349Y761880D01*
X934738Y761952D01*
X935130Y762003D01*
X935524Y762034D01*
X935919Y762045D01*
X936314Y762034D01*
D02*
G37*
G36*
X915994D02*
X916388Y762003D01*
X916780Y761952D01*
X917169Y761880D01*
X917553Y761787D01*
X917932Y761675D01*
X918305Y761543D01*
X918670Y761392D01*
X919027Y761222D01*
X919374Y761033D01*
X919711Y760826D01*
X920037Y760603D01*
X920350Y760362D01*
X920651Y760105D01*
X920938Y759833D01*
X921210Y759547D01*
X921467Y759246D01*
X921707Y758932D01*
X921931Y758607D01*
X922138Y758270D01*
X922326Y757922D01*
X922496Y757565D01*
X922648Y757200D01*
X922779Y756827D01*
X922892Y756449D01*
X922984Y756064D01*
X923056Y755676D01*
X923108Y755284D01*
X923139Y754890D01*
X923149Y754495D01*
X923139Y754099D01*
X923108Y753705D01*
X923056Y753314D01*
X922984Y752925D01*
X922892Y752541D01*
X922779Y752162D01*
X922648Y751789D01*
X922496Y751424D01*
X922326Y751067D01*
X922138Y750720D01*
X921931Y750383D01*
X921707Y750057D01*
X921467Y749743D01*
X921210Y749443D01*
X920938Y749156D01*
X920651Y748884D01*
X920350Y748627D01*
X920037Y748386D01*
X919711Y748163D01*
X919374Y747956D01*
X919027Y747767D01*
X918670Y747597D01*
X918305Y747446D01*
X917932Y747314D01*
X917553Y747202D01*
X917169Y747110D01*
X916780Y747037D01*
X916388Y746986D01*
X915994Y746955D01*
X915599Y746944D01*
X915204Y746955D01*
X914810Y746986D01*
X914418Y747037D01*
X914029Y747110D01*
X913645Y747202D01*
X913266Y747314D01*
X912893Y747446D01*
X912528Y747597D01*
X912171Y747767D01*
X911824Y747956D01*
X911487Y748163D01*
X911161Y748386D01*
X910848Y748627D01*
X910547Y748884D01*
X910260Y749156D01*
X909988Y749443D01*
X909732Y749743D01*
X909491Y750057D01*
X909267Y750383D01*
X909060Y750720D01*
X908872Y751067D01*
X908702Y751424D01*
X908550Y751789D01*
X908419Y752162D01*
X908306Y752541D01*
X908214Y752925D01*
X908142Y753314D01*
X908090Y753705D01*
X908059Y754099D01*
X908049Y754495D01*
X908059Y754890D01*
X908090Y755284D01*
X908142Y755676D01*
X908214Y756064D01*
X908306Y756449D01*
X908419Y756827D01*
X908550Y757200D01*
X908702Y757565D01*
X908872Y757922D01*
X909060Y758270D01*
X909267Y758607D01*
X909491Y758932D01*
X909732Y759246D01*
X909988Y759547D01*
X910260Y759833D01*
X910547Y760105D01*
X910848Y760362D01*
X911161Y760603D01*
X911487Y760826D01*
X911824Y761033D01*
X912171Y761222D01*
X912528Y761392D01*
X912893Y761543D01*
X913266Y761675D01*
X913645Y761787D01*
X914029Y761880D01*
X914418Y761952D01*
X914810Y762003D01*
X915204Y762034D01*
X915599Y762045D01*
X915994Y762034D01*
D02*
G37*
G36*
X895674D02*
X896068Y762003D01*
X896460Y761952D01*
X896849Y761880D01*
X897233Y761787D01*
X897612Y761675D01*
X897985Y761543D01*
X898350Y761392D01*
X898707Y761222D01*
X899054Y761033D01*
X899391Y760826D01*
X899717Y760603D01*
X900031Y760362D01*
X900331Y760105D01*
X900618Y759833D01*
X900890Y759547D01*
X901146Y759246D01*
X901387Y758932D01*
X901611Y758607D01*
X901818Y758270D01*
X902006Y757922D01*
X902176Y757565D01*
X902328Y757200D01*
X902459Y756827D01*
X902572Y756449D01*
X902664Y756064D01*
X902736Y755676D01*
X902788Y755284D01*
X902819Y754890D01*
X902829Y754495D01*
X902819Y754099D01*
X902788Y753705D01*
X902736Y753314D01*
X902664Y752925D01*
X902572Y752541D01*
X902459Y752162D01*
X902328Y751789D01*
X902176Y751424D01*
X902006Y751067D01*
X901818Y750720D01*
X901611Y750383D01*
X901387Y750057D01*
X901146Y749743D01*
X900890Y749443D01*
X900618Y749156D01*
X900331Y748884D01*
X900031Y748627D01*
X899717Y748386D01*
X899391Y748163D01*
X899054Y747956D01*
X898707Y747767D01*
X898350Y747597D01*
X897985Y747446D01*
X897612Y747314D01*
X897233Y747202D01*
X896849Y747110D01*
X896460Y747037D01*
X896068Y746986D01*
X895674Y746955D01*
X895279Y746944D01*
X894884Y746955D01*
X894490Y746986D01*
X894098Y747037D01*
X893709Y747110D01*
X893325Y747202D01*
X892946Y747314D01*
X892573Y747446D01*
X892208Y747597D01*
X891851Y747767D01*
X891504Y747956D01*
X891167Y748163D01*
X890841Y748386D01*
X890528Y748627D01*
X890227Y748884D01*
X889940Y749156D01*
X889668Y749443D01*
X889411Y749743D01*
X889171Y750057D01*
X888947Y750383D01*
X888740Y750720D01*
X888552Y751067D01*
X888382Y751424D01*
X888230Y751789D01*
X888099Y752162D01*
X887986Y752541D01*
X887894Y752925D01*
X887822Y753314D01*
X887770Y753705D01*
X887739Y754099D01*
X887729Y754495D01*
X887739Y754890D01*
X887770Y755284D01*
X887822Y755676D01*
X887894Y756064D01*
X887986Y756449D01*
X888099Y756827D01*
X888230Y757200D01*
X888382Y757565D01*
X888552Y757922D01*
X888740Y758270D01*
X888947Y758607D01*
X889171Y758932D01*
X889411Y759246D01*
X889668Y759547D01*
X889940Y759833D01*
X890227Y760105D01*
X890528Y760362D01*
X890841Y760603D01*
X891167Y760826D01*
X891504Y761033D01*
X891851Y761222D01*
X892208Y761392D01*
X892573Y761543D01*
X892946Y761675D01*
X893325Y761787D01*
X893709Y761880D01*
X894098Y761952D01*
X894490Y762003D01*
X894884Y762034D01*
X895279Y762045D01*
X895674Y762034D01*
D02*
G37*
G36*
X875354D02*
X875748Y762003D01*
X876140Y761952D01*
X876529Y761880D01*
X876913Y761787D01*
X877292Y761675D01*
X877665Y761543D01*
X878030Y761392D01*
X878387Y761222D01*
X878734Y761033D01*
X879071Y760826D01*
X879397Y760603D01*
X879710Y760362D01*
X880011Y760105D01*
X880298Y759833D01*
X880570Y759547D01*
X880826Y759246D01*
X881067Y758932D01*
X881291Y758607D01*
X881498Y758270D01*
X881686Y757922D01*
X881856Y757565D01*
X882008Y757200D01*
X882140Y756827D01*
X882252Y756449D01*
X882344Y756064D01*
X882416Y755676D01*
X882468Y755284D01*
X882499Y754890D01*
X882509Y754495D01*
X882499Y754099D01*
X882468Y753705D01*
X882416Y753314D01*
X882344Y752925D01*
X882252Y752541D01*
X882140Y752162D01*
X882008Y751789D01*
X881856Y751424D01*
X881686Y751067D01*
X881498Y750720D01*
X881291Y750383D01*
X881067Y750057D01*
X880826Y749743D01*
X880570Y749443D01*
X880298Y749156D01*
X880011Y748884D01*
X879710Y748627D01*
X879397Y748386D01*
X879071Y748163D01*
X878734Y747956D01*
X878387Y747767D01*
X878030Y747597D01*
X877665Y747446D01*
X877292Y747314D01*
X876913Y747202D01*
X876529Y747110D01*
X876140Y747037D01*
X875748Y746986D01*
X875354Y746955D01*
X874959Y746944D01*
X874564Y746955D01*
X874170Y746986D01*
X873778Y747037D01*
X873389Y747110D01*
X873005Y747202D01*
X872626Y747314D01*
X872253Y747446D01*
X871888Y747597D01*
X871531Y747767D01*
X871184Y747956D01*
X870847Y748163D01*
X870521Y748386D01*
X870208Y748627D01*
X869907Y748884D01*
X869620Y749156D01*
X869348Y749443D01*
X869091Y749743D01*
X868851Y750057D01*
X868627Y750383D01*
X868420Y750720D01*
X868232Y751067D01*
X868062Y751424D01*
X867910Y751789D01*
X867779Y752162D01*
X867666Y752541D01*
X867574Y752925D01*
X867502Y753314D01*
X867450Y753705D01*
X867419Y754099D01*
X867409Y754495D01*
X867419Y754890D01*
X867450Y755284D01*
X867502Y755676D01*
X867574Y756064D01*
X867666Y756449D01*
X867779Y756827D01*
X867910Y757200D01*
X868062Y757565D01*
X868232Y757922D01*
X868420Y758270D01*
X868627Y758607D01*
X868851Y758932D01*
X869091Y759246D01*
X869348Y759547D01*
X869620Y759833D01*
X869907Y760105D01*
X870208Y760362D01*
X870521Y760603D01*
X870847Y760826D01*
X871184Y761033D01*
X871531Y761222D01*
X871888Y761392D01*
X872253Y761543D01*
X872626Y761675D01*
X873005Y761787D01*
X873389Y761880D01*
X873778Y761952D01*
X874170Y762003D01*
X874564Y762034D01*
X874959Y762045D01*
X875354Y762034D01*
D02*
G37*
G36*
X855104D02*
X855498Y762003D01*
X855890Y761952D01*
X856279Y761880D01*
X856663Y761787D01*
X857042Y761675D01*
X857415Y761543D01*
X857780Y761392D01*
X858137Y761222D01*
X858484Y761033D01*
X858821Y760826D01*
X859147Y760603D01*
X859461Y760362D01*
X859761Y760105D01*
X860048Y759833D01*
X860320Y759547D01*
X860577Y759246D01*
X860817Y758932D01*
X861041Y758607D01*
X861248Y758270D01*
X861436Y757922D01*
X861606Y757565D01*
X861758Y757200D01*
X861890Y756827D01*
X862002Y756449D01*
X862094Y756064D01*
X862166Y755676D01*
X862218Y755284D01*
X862249Y754890D01*
X862259Y754495D01*
X862249Y754099D01*
X862218Y753705D01*
X862166Y753314D01*
X862094Y752925D01*
X862002Y752541D01*
X861890Y752162D01*
X861758Y751789D01*
X861606Y751424D01*
X861436Y751067D01*
X861248Y750720D01*
X861041Y750383D01*
X860817Y750057D01*
X860577Y749743D01*
X860320Y749443D01*
X860048Y749156D01*
X859761Y748884D01*
X859461Y748627D01*
X859147Y748386D01*
X858821Y748163D01*
X858484Y747956D01*
X858137Y747767D01*
X857780Y747597D01*
X857415Y747446D01*
X857042Y747314D01*
X856663Y747202D01*
X856279Y747110D01*
X855890Y747037D01*
X855498Y746986D01*
X855104Y746955D01*
X854709Y746944D01*
X854314Y746955D01*
X853920Y746986D01*
X853528Y747037D01*
X853139Y747110D01*
X852755Y747202D01*
X852376Y747314D01*
X852003Y747446D01*
X851638Y747597D01*
X851282Y747767D01*
X850934Y747956D01*
X850597Y748163D01*
X850271Y748386D01*
X849958Y748627D01*
X849657Y748884D01*
X849370Y749156D01*
X849098Y749443D01*
X848842Y749743D01*
X848601Y750057D01*
X848377Y750383D01*
X848170Y750720D01*
X847982Y751067D01*
X847812Y751424D01*
X847661Y751789D01*
X847529Y752162D01*
X847416Y752541D01*
X847324Y752925D01*
X847252Y753314D01*
X847200Y753705D01*
X847169Y754099D01*
X847159Y754495D01*
X847169Y754890D01*
X847200Y755284D01*
X847252Y755676D01*
X847324Y756064D01*
X847416Y756449D01*
X847529Y756827D01*
X847661Y757200D01*
X847812Y757565D01*
X847982Y757922D01*
X848170Y758270D01*
X848377Y758607D01*
X848601Y758932D01*
X848842Y759246D01*
X849098Y759547D01*
X849370Y759833D01*
X849657Y760105D01*
X849958Y760362D01*
X850271Y760603D01*
X850597Y760826D01*
X850934Y761033D01*
X851282Y761222D01*
X851638Y761392D01*
X852003Y761543D01*
X852376Y761675D01*
X852755Y761787D01*
X853139Y761880D01*
X853528Y761952D01*
X853920Y762003D01*
X854314Y762034D01*
X854709Y762045D01*
X855104Y762034D01*
D02*
G37*
G36*
X1073404Y781084D02*
X1073798Y781053D01*
X1074190Y781002D01*
X1074579Y780930D01*
X1074963Y780837D01*
X1075342Y780725D01*
X1075715Y780593D01*
X1076080Y780442D01*
X1076436Y780272D01*
X1076784Y780083D01*
X1077121Y779876D01*
X1077447Y779653D01*
X1077760Y779412D01*
X1078061Y779155D01*
X1078348Y778883D01*
X1078620Y778597D01*
X1078876Y778296D01*
X1079117Y777982D01*
X1079341Y777657D01*
X1079548Y777319D01*
X1079736Y776972D01*
X1079906Y776615D01*
X1080058Y776250D01*
X1080189Y775878D01*
X1080302Y775499D01*
X1080394Y775114D01*
X1080466Y774726D01*
X1080518Y774334D01*
X1080548Y773940D01*
X1080559Y773545D01*
X1080548Y773149D01*
X1080518Y772755D01*
X1080466Y772364D01*
X1080394Y771975D01*
X1080302Y771590D01*
X1080189Y771212D01*
X1080058Y770839D01*
X1079906Y770474D01*
X1079736Y770117D01*
X1079548Y769770D01*
X1079341Y769433D01*
X1079117Y769107D01*
X1078876Y768793D01*
X1078620Y768493D01*
X1078348Y768206D01*
X1078061Y767934D01*
X1077760Y767677D01*
X1077447Y767436D01*
X1077121Y767213D01*
X1076784Y767006D01*
X1076436Y766817D01*
X1076080Y766647D01*
X1075715Y766496D01*
X1075342Y766364D01*
X1074963Y766252D01*
X1074579Y766160D01*
X1074190Y766087D01*
X1073798Y766036D01*
X1073404Y766005D01*
X1073009Y765994D01*
X1072614Y766005D01*
X1072220Y766036D01*
X1071828Y766087D01*
X1071439Y766160D01*
X1071055Y766252D01*
X1070676Y766364D01*
X1070303Y766496D01*
X1069938Y766647D01*
X1069581Y766817D01*
X1069234Y767006D01*
X1068897Y767213D01*
X1068571Y767436D01*
X1068258Y767677D01*
X1067957Y767934D01*
X1067670Y768206D01*
X1067398Y768493D01*
X1067141Y768793D01*
X1066901Y769107D01*
X1066677Y769433D01*
X1066470Y769770D01*
X1066282Y770117D01*
X1066112Y770474D01*
X1065960Y770839D01*
X1065828Y771212D01*
X1065716Y771590D01*
X1065624Y771975D01*
X1065552Y772364D01*
X1065500Y772755D01*
X1065469Y773149D01*
X1065459Y773545D01*
X1065469Y773940D01*
X1065500Y774334D01*
X1065552Y774726D01*
X1065624Y775114D01*
X1065716Y775499D01*
X1065828Y775878D01*
X1065960Y776250D01*
X1066112Y776615D01*
X1066282Y776972D01*
X1066470Y777319D01*
X1066677Y777657D01*
X1066901Y777982D01*
X1067141Y778296D01*
X1067398Y778597D01*
X1067670Y778883D01*
X1067957Y779155D01*
X1068258Y779412D01*
X1068571Y779653D01*
X1068897Y779876D01*
X1069234Y780083D01*
X1069581Y780272D01*
X1069938Y780442D01*
X1070303Y780593D01*
X1070676Y780725D01*
X1071055Y780837D01*
X1071439Y780930D01*
X1071828Y781002D01*
X1072220Y781053D01*
X1072614Y781084D01*
X1073009Y781095D01*
X1073404Y781084D01*
D02*
G37*
G36*
X1053084D02*
X1053478Y781053D01*
X1053870Y781002D01*
X1054259Y780930D01*
X1054643Y780837D01*
X1055022Y780725D01*
X1055395Y780593D01*
X1055760Y780442D01*
X1056116Y780272D01*
X1056464Y780083D01*
X1056801Y779876D01*
X1057127Y779653D01*
X1057440Y779412D01*
X1057741Y779155D01*
X1058028Y778883D01*
X1058300Y778597D01*
X1058556Y778296D01*
X1058797Y777982D01*
X1059021Y777657D01*
X1059228Y777319D01*
X1059416Y776972D01*
X1059586Y776615D01*
X1059737Y776250D01*
X1059869Y775878D01*
X1059982Y775499D01*
X1060074Y775114D01*
X1060146Y774726D01*
X1060198Y774334D01*
X1060229Y773940D01*
X1060239Y773545D01*
X1060229Y773149D01*
X1060198Y772755D01*
X1060146Y772364D01*
X1060074Y771975D01*
X1059982Y771590D01*
X1059869Y771212D01*
X1059737Y770839D01*
X1059586Y770474D01*
X1059416Y770117D01*
X1059228Y769770D01*
X1059021Y769433D01*
X1058797Y769107D01*
X1058556Y768793D01*
X1058300Y768493D01*
X1058028Y768206D01*
X1057741Y767934D01*
X1057440Y767677D01*
X1057127Y767436D01*
X1056801Y767213D01*
X1056464Y767006D01*
X1056116Y766817D01*
X1055760Y766647D01*
X1055395Y766496D01*
X1055022Y766364D01*
X1054643Y766252D01*
X1054259Y766160D01*
X1053870Y766087D01*
X1053478Y766036D01*
X1053084Y766005D01*
X1052689Y765994D01*
X1052294Y766005D01*
X1051900Y766036D01*
X1051508Y766087D01*
X1051119Y766160D01*
X1050735Y766252D01*
X1050356Y766364D01*
X1049983Y766496D01*
X1049618Y766647D01*
X1049261Y766817D01*
X1048914Y767006D01*
X1048577Y767213D01*
X1048251Y767436D01*
X1047937Y767677D01*
X1047637Y767934D01*
X1047350Y768206D01*
X1047078Y768493D01*
X1046821Y768793D01*
X1046581Y769107D01*
X1046357Y769433D01*
X1046150Y769770D01*
X1045962Y770117D01*
X1045792Y770474D01*
X1045640Y770839D01*
X1045508Y771212D01*
X1045396Y771590D01*
X1045304Y771975D01*
X1045232Y772364D01*
X1045180Y772755D01*
X1045149Y773149D01*
X1045139Y773545D01*
X1045149Y773940D01*
X1045180Y774334D01*
X1045232Y774726D01*
X1045304Y775114D01*
X1045396Y775499D01*
X1045508Y775878D01*
X1045640Y776250D01*
X1045792Y776615D01*
X1045962Y776972D01*
X1046150Y777319D01*
X1046357Y777657D01*
X1046581Y777982D01*
X1046821Y778296D01*
X1047078Y778597D01*
X1047350Y778883D01*
X1047637Y779155D01*
X1047937Y779412D01*
X1048251Y779653D01*
X1048577Y779876D01*
X1048914Y780083D01*
X1049261Y780272D01*
X1049618Y780442D01*
X1049983Y780593D01*
X1050356Y780725D01*
X1050735Y780837D01*
X1051119Y780930D01*
X1051508Y781002D01*
X1051900Y781053D01*
X1052294Y781084D01*
X1052689Y781095D01*
X1053084Y781084D01*
D02*
G37*
G36*
X1032764D02*
X1033158Y781053D01*
X1033550Y781002D01*
X1033939Y780930D01*
X1034323Y780837D01*
X1034702Y780725D01*
X1035075Y780593D01*
X1035440Y780442D01*
X1035797Y780272D01*
X1036144Y780083D01*
X1036481Y779876D01*
X1036807Y779653D01*
X1037120Y779412D01*
X1037421Y779155D01*
X1037708Y778883D01*
X1037980Y778597D01*
X1038236Y778296D01*
X1038477Y777982D01*
X1038701Y777657D01*
X1038907Y777319D01*
X1039096Y776972D01*
X1039266Y776615D01*
X1039417Y776250D01*
X1039549Y775878D01*
X1039662Y775499D01*
X1039754Y775114D01*
X1039826Y774726D01*
X1039877Y774334D01*
X1039909Y773940D01*
X1039919Y773545D01*
X1039909Y773149D01*
X1039877Y772755D01*
X1039826Y772364D01*
X1039754Y771975D01*
X1039662Y771590D01*
X1039549Y771212D01*
X1039417Y770839D01*
X1039266Y770474D01*
X1039096Y770117D01*
X1038907Y769770D01*
X1038701Y769433D01*
X1038477Y769107D01*
X1038236Y768793D01*
X1037980Y768493D01*
X1037708Y768206D01*
X1037421Y767934D01*
X1037120Y767677D01*
X1036807Y767436D01*
X1036481Y767213D01*
X1036144Y767006D01*
X1035797Y766817D01*
X1035440Y766647D01*
X1035075Y766496D01*
X1034702Y766364D01*
X1034323Y766252D01*
X1033939Y766160D01*
X1033550Y766087D01*
X1033158Y766036D01*
X1032764Y766005D01*
X1032369Y765994D01*
X1031974Y766005D01*
X1031580Y766036D01*
X1031188Y766087D01*
X1030799Y766160D01*
X1030415Y766252D01*
X1030036Y766364D01*
X1029663Y766496D01*
X1029298Y766647D01*
X1028941Y766817D01*
X1028594Y767006D01*
X1028257Y767213D01*
X1027931Y767436D01*
X1027617Y767677D01*
X1027317Y767934D01*
X1027030Y768206D01*
X1026758Y768493D01*
X1026501Y768793D01*
X1026261Y769107D01*
X1026037Y769433D01*
X1025830Y769770D01*
X1025642Y770117D01*
X1025472Y770474D01*
X1025320Y770839D01*
X1025188Y771212D01*
X1025076Y771590D01*
X1024984Y771975D01*
X1024912Y772364D01*
X1024860Y772755D01*
X1024829Y773149D01*
X1024819Y773545D01*
X1024829Y773940D01*
X1024860Y774334D01*
X1024912Y774726D01*
X1024984Y775114D01*
X1025076Y775499D01*
X1025188Y775878D01*
X1025320Y776250D01*
X1025472Y776615D01*
X1025642Y776972D01*
X1025830Y777319D01*
X1026037Y777657D01*
X1026261Y777982D01*
X1026501Y778296D01*
X1026758Y778597D01*
X1027030Y778883D01*
X1027317Y779155D01*
X1027617Y779412D01*
X1027931Y779653D01*
X1028257Y779876D01*
X1028594Y780083D01*
X1028941Y780272D01*
X1029298Y780442D01*
X1029663Y780593D01*
X1030036Y780725D01*
X1030415Y780837D01*
X1030799Y780930D01*
X1031188Y781002D01*
X1031580Y781053D01*
X1031974Y781084D01*
X1032369Y781095D01*
X1032764Y781084D01*
D02*
G37*
G36*
X1012444D02*
X1012838Y781053D01*
X1013230Y781002D01*
X1013619Y780930D01*
X1014003Y780837D01*
X1014382Y780725D01*
X1014755Y780593D01*
X1015120Y780442D01*
X1015477Y780272D01*
X1015824Y780083D01*
X1016161Y779876D01*
X1016487Y779653D01*
X1016800Y779412D01*
X1017101Y779155D01*
X1017388Y778883D01*
X1017660Y778597D01*
X1017916Y778296D01*
X1018157Y777982D01*
X1018381Y777657D01*
X1018587Y777319D01*
X1018776Y776972D01*
X1018946Y776615D01*
X1019098Y776250D01*
X1019229Y775878D01*
X1019342Y775499D01*
X1019434Y775114D01*
X1019506Y774726D01*
X1019557Y774334D01*
X1019588Y773940D01*
X1019599Y773545D01*
X1019588Y773149D01*
X1019557Y772755D01*
X1019506Y772364D01*
X1019434Y771975D01*
X1019342Y771590D01*
X1019229Y771212D01*
X1019098Y770839D01*
X1018946Y770474D01*
X1018776Y770117D01*
X1018587Y769770D01*
X1018381Y769433D01*
X1018157Y769107D01*
X1017916Y768793D01*
X1017660Y768493D01*
X1017388Y768206D01*
X1017101Y767934D01*
X1016800Y767677D01*
X1016487Y767436D01*
X1016161Y767213D01*
X1015824Y767006D01*
X1015477Y766817D01*
X1015120Y766647D01*
X1014755Y766496D01*
X1014382Y766364D01*
X1014003Y766252D01*
X1013619Y766160D01*
X1013230Y766087D01*
X1012838Y766036D01*
X1012444Y766005D01*
X1012049Y765994D01*
X1011654Y766005D01*
X1011260Y766036D01*
X1010868Y766087D01*
X1010479Y766160D01*
X1010095Y766252D01*
X1009716Y766364D01*
X1009343Y766496D01*
X1008978Y766647D01*
X1008621Y766817D01*
X1008274Y767006D01*
X1007937Y767213D01*
X1007611Y767436D01*
X1007298Y767677D01*
X1006997Y767934D01*
X1006710Y768206D01*
X1006438Y768493D01*
X1006181Y768793D01*
X1005941Y769107D01*
X1005717Y769433D01*
X1005510Y769770D01*
X1005322Y770117D01*
X1005152Y770474D01*
X1005000Y770839D01*
X1004868Y771212D01*
X1004756Y771590D01*
X1004664Y771975D01*
X1004592Y772364D01*
X1004540Y772755D01*
X1004509Y773149D01*
X1004499Y773545D01*
X1004509Y773940D01*
X1004540Y774334D01*
X1004592Y774726D01*
X1004664Y775114D01*
X1004756Y775499D01*
X1004868Y775878D01*
X1005000Y776250D01*
X1005152Y776615D01*
X1005322Y776972D01*
X1005510Y777319D01*
X1005717Y777657D01*
X1005941Y777982D01*
X1006181Y778296D01*
X1006438Y778597D01*
X1006710Y778883D01*
X1006997Y779155D01*
X1007298Y779412D01*
X1007611Y779653D01*
X1007937Y779876D01*
X1008274Y780083D01*
X1008621Y780272D01*
X1008978Y780442D01*
X1009343Y780593D01*
X1009716Y780725D01*
X1010095Y780837D01*
X1010479Y780930D01*
X1010868Y781002D01*
X1011260Y781053D01*
X1011654Y781084D01*
X1012049Y781095D01*
X1012444Y781084D01*
D02*
G37*
G36*
X992194D02*
X992588Y781053D01*
X992980Y781002D01*
X993369Y780930D01*
X993753Y780837D01*
X994132Y780725D01*
X994505Y780593D01*
X994870Y780442D01*
X995227Y780272D01*
X995574Y780083D01*
X995911Y779876D01*
X996237Y779653D01*
X996551Y779412D01*
X996851Y779155D01*
X997138Y778883D01*
X997410Y778597D01*
X997666Y778296D01*
X997907Y777982D01*
X998131Y777657D01*
X998338Y777319D01*
X998526Y776972D01*
X998696Y776615D01*
X998848Y776250D01*
X998979Y775878D01*
X999092Y775499D01*
X999184Y775114D01*
X999256Y774726D01*
X999308Y774334D01*
X999339Y773940D01*
X999349Y773545D01*
X999339Y773149D01*
X999308Y772755D01*
X999256Y772364D01*
X999184Y771975D01*
X999092Y771590D01*
X998979Y771212D01*
X998848Y770839D01*
X998696Y770474D01*
X998526Y770117D01*
X998338Y769770D01*
X998131Y769433D01*
X997907Y769107D01*
X997666Y768793D01*
X997410Y768493D01*
X997138Y768206D01*
X996851Y767934D01*
X996551Y767677D01*
X996237Y767436D01*
X995911Y767213D01*
X995574Y767006D01*
X995227Y766817D01*
X994870Y766647D01*
X994505Y766496D01*
X994132Y766364D01*
X993753Y766252D01*
X993369Y766160D01*
X992980Y766087D01*
X992588Y766036D01*
X992194Y766005D01*
X991799Y765994D01*
X991404Y766005D01*
X991010Y766036D01*
X990618Y766087D01*
X990229Y766160D01*
X989845Y766252D01*
X989466Y766364D01*
X989093Y766496D01*
X988728Y766647D01*
X988371Y766817D01*
X988024Y767006D01*
X987687Y767213D01*
X987361Y767436D01*
X987048Y767677D01*
X986747Y767934D01*
X986460Y768206D01*
X986188Y768493D01*
X985931Y768793D01*
X985691Y769107D01*
X985467Y769433D01*
X985260Y769770D01*
X985072Y770117D01*
X984902Y770474D01*
X984750Y770839D01*
X984619Y771212D01*
X984506Y771590D01*
X984414Y771975D01*
X984342Y772364D01*
X984290Y772755D01*
X984259Y773149D01*
X984249Y773545D01*
X984259Y773940D01*
X984290Y774334D01*
X984342Y774726D01*
X984414Y775114D01*
X984506Y775499D01*
X984619Y775878D01*
X984750Y776250D01*
X984902Y776615D01*
X985072Y776972D01*
X985260Y777319D01*
X985467Y777657D01*
X985691Y777982D01*
X985931Y778296D01*
X986188Y778597D01*
X986460Y778883D01*
X986747Y779155D01*
X987048Y779412D01*
X987361Y779653D01*
X987687Y779876D01*
X988024Y780083D01*
X988371Y780272D01*
X988728Y780442D01*
X989093Y780593D01*
X989466Y780725D01*
X989845Y780837D01*
X990229Y780930D01*
X990618Y781002D01*
X991010Y781053D01*
X991404Y781084D01*
X991799Y781095D01*
X992194Y781084D01*
D02*
G37*
G36*
X992264Y760764D02*
X992658Y760733D01*
X993050Y760682D01*
X993439Y760609D01*
X993823Y760517D01*
X994202Y760405D01*
X994575Y760273D01*
X994940Y760122D01*
X995296Y759951D01*
X995644Y759763D01*
X995981Y759557D01*
X996307Y759333D01*
X996620Y759092D01*
X996921Y758835D01*
X997208Y758563D01*
X997480Y758276D01*
X997736Y757976D01*
X997977Y757662D01*
X998201Y757337D01*
X998408Y757000D01*
X998596Y756652D01*
X998766Y756295D01*
X998917Y755930D01*
X999049Y755557D01*
X999162Y755179D01*
X999254Y754794D01*
X999326Y754406D01*
X999378Y754014D01*
X999408Y753620D01*
X999419Y753225D01*
X999408Y752829D01*
X999378Y752435D01*
X999326Y752044D01*
X999254Y751655D01*
X999162Y751271D01*
X999049Y750892D01*
X998917Y750519D01*
X998766Y750154D01*
X998596Y749797D01*
X998408Y749450D01*
X998201Y749112D01*
X997977Y748787D01*
X997736Y748473D01*
X997480Y748173D01*
X997208Y747886D01*
X996921Y747614D01*
X996620Y747357D01*
X996307Y747117D01*
X995981Y746893D01*
X995644Y746686D01*
X995296Y746498D01*
X994940Y746327D01*
X994575Y746176D01*
X994202Y746044D01*
X993823Y745932D01*
X993439Y745840D01*
X993050Y745768D01*
X992658Y745716D01*
X992264Y745685D01*
X991869Y745675D01*
X991474Y745685D01*
X991080Y745716D01*
X990688Y745768D01*
X990299Y745840D01*
X989915Y745932D01*
X989536Y746044D01*
X989163Y746176D01*
X988798Y746327D01*
X988441Y746498D01*
X988094Y746686D01*
X987757Y746893D01*
X987431Y747117D01*
X987118Y747357D01*
X986817Y747614D01*
X986530Y747886D01*
X986258Y748173D01*
X986002Y748473D01*
X985761Y748787D01*
X985537Y749112D01*
X985331Y749450D01*
X985142Y749797D01*
X984972Y750154D01*
X984820Y750519D01*
X984689Y750892D01*
X984576Y751271D01*
X984484Y751655D01*
X984412Y752044D01*
X984361Y752435D01*
X984330Y752829D01*
X984319Y753225D01*
X984330Y753620D01*
X984361Y754014D01*
X984412Y754406D01*
X984484Y754794D01*
X984576Y755179D01*
X984689Y755557D01*
X984820Y755930D01*
X984972Y756295D01*
X985142Y756652D01*
X985331Y757000D01*
X985537Y757337D01*
X985761Y757662D01*
X986002Y757976D01*
X986258Y758276D01*
X986530Y758563D01*
X986817Y758835D01*
X987118Y759092D01*
X987431Y759333D01*
X987757Y759557D01*
X988094Y759763D01*
X988441Y759951D01*
X988798Y760122D01*
X989163Y760273D01*
X989536Y760405D01*
X989915Y760517D01*
X990299Y760609D01*
X990688Y760682D01*
X991080Y760733D01*
X991474Y760764D01*
X991869Y760774D01*
X992264Y760764D01*
D02*
G37*
G36*
X1073474Y760764D02*
X1073868Y760733D01*
X1074260Y760682D01*
X1074649Y760610D01*
X1075033Y760517D01*
X1075412Y760405D01*
X1075785Y760273D01*
X1076150Y760122D01*
X1076507Y759952D01*
X1076854Y759763D01*
X1077191Y759557D01*
X1077517Y759333D01*
X1077831Y759092D01*
X1078131Y758835D01*
X1078418Y758563D01*
X1078690Y758277D01*
X1078947Y757976D01*
X1079187Y757662D01*
X1079411Y757337D01*
X1079618Y757000D01*
X1079806Y756652D01*
X1079976Y756295D01*
X1080128Y755930D01*
X1080259Y755557D01*
X1080372Y755179D01*
X1080464Y754794D01*
X1080536Y754406D01*
X1080588Y754014D01*
X1080619Y753620D01*
X1080629Y753225D01*
X1080619Y752829D01*
X1080588Y752435D01*
X1080536Y752044D01*
X1080464Y751655D01*
X1080372Y751271D01*
X1080259Y750892D01*
X1080128Y750519D01*
X1079976Y750154D01*
X1079806Y749797D01*
X1079618Y749450D01*
X1079411Y749112D01*
X1079187Y748787D01*
X1078947Y748473D01*
X1078690Y748173D01*
X1078418Y747886D01*
X1078131Y747614D01*
X1077831Y747357D01*
X1077517Y747116D01*
X1077191Y746893D01*
X1076854Y746686D01*
X1076507Y746497D01*
X1076150Y746327D01*
X1075785Y746176D01*
X1075412Y746044D01*
X1075033Y745932D01*
X1074649Y745839D01*
X1074260Y745767D01*
X1073868Y745716D01*
X1073474Y745685D01*
X1073079Y745674D01*
X1072684Y745685D01*
X1072290Y745716D01*
X1071898Y745767D01*
X1071509Y745839D01*
X1071125Y745932D01*
X1070746Y746044D01*
X1070373Y746176D01*
X1070008Y746327D01*
X1069651Y746497D01*
X1069304Y746686D01*
X1068967Y746893D01*
X1068641Y747116D01*
X1068328Y747357D01*
X1068027Y747614D01*
X1067740Y747886D01*
X1067468Y748173D01*
X1067212Y748473D01*
X1066971Y748787D01*
X1066747Y749112D01*
X1066540Y749450D01*
X1066352Y749797D01*
X1066182Y750154D01*
X1066030Y750519D01*
X1065899Y750892D01*
X1065786Y751271D01*
X1065694Y751655D01*
X1065622Y752044D01*
X1065570Y752435D01*
X1065539Y752829D01*
X1065529Y753225D01*
X1065539Y753620D01*
X1065570Y754014D01*
X1065622Y754406D01*
X1065694Y754794D01*
X1065786Y755179D01*
X1065899Y755557D01*
X1066030Y755930D01*
X1066182Y756295D01*
X1066352Y756652D01*
X1066540Y757000D01*
X1066747Y757337D01*
X1066971Y757662D01*
X1067212Y757976D01*
X1067468Y758277D01*
X1067740Y758563D01*
X1068027Y758835D01*
X1068328Y759092D01*
X1068641Y759333D01*
X1068967Y759557D01*
X1069304Y759763D01*
X1069651Y759952D01*
X1070008Y760122D01*
X1070373Y760273D01*
X1070746Y760405D01*
X1071125Y760517D01*
X1071509Y760610D01*
X1071898Y760682D01*
X1072290Y760733D01*
X1072684Y760764D01*
X1073079Y760775D01*
X1073474Y760764D01*
D02*
G37*
G36*
X1053154D02*
X1053548Y760733D01*
X1053940Y760682D01*
X1054329Y760610D01*
X1054713Y760517D01*
X1055092Y760405D01*
X1055465Y760273D01*
X1055830Y760122D01*
X1056187Y759952D01*
X1056534Y759763D01*
X1056871Y759557D01*
X1057197Y759333D01*
X1057511Y759092D01*
X1057811Y758835D01*
X1058098Y758563D01*
X1058370Y758277D01*
X1058626Y757976D01*
X1058867Y757662D01*
X1059091Y757337D01*
X1059298Y757000D01*
X1059486Y756652D01*
X1059656Y756295D01*
X1059808Y755930D01*
X1059939Y755557D01*
X1060052Y755179D01*
X1060144Y754794D01*
X1060216Y754406D01*
X1060268Y754014D01*
X1060299Y753620D01*
X1060309Y753225D01*
X1060299Y752829D01*
X1060268Y752435D01*
X1060216Y752044D01*
X1060144Y751655D01*
X1060052Y751271D01*
X1059939Y750892D01*
X1059808Y750519D01*
X1059656Y750154D01*
X1059486Y749797D01*
X1059298Y749450D01*
X1059091Y749112D01*
X1058867Y748787D01*
X1058626Y748473D01*
X1058370Y748173D01*
X1058098Y747886D01*
X1057811Y747614D01*
X1057511Y747357D01*
X1057197Y747116D01*
X1056871Y746893D01*
X1056534Y746686D01*
X1056187Y746497D01*
X1055830Y746327D01*
X1055465Y746176D01*
X1055092Y746044D01*
X1054713Y745932D01*
X1054329Y745839D01*
X1053940Y745767D01*
X1053548Y745716D01*
X1053154Y745685D01*
X1052759Y745674D01*
X1052364Y745685D01*
X1051970Y745716D01*
X1051578Y745767D01*
X1051189Y745839D01*
X1050805Y745932D01*
X1050426Y746044D01*
X1050053Y746176D01*
X1049688Y746327D01*
X1049331Y746497D01*
X1048984Y746686D01*
X1048647Y746893D01*
X1048321Y747116D01*
X1048008Y747357D01*
X1047707Y747614D01*
X1047420Y747886D01*
X1047148Y748173D01*
X1046891Y748473D01*
X1046651Y748787D01*
X1046427Y749112D01*
X1046220Y749450D01*
X1046032Y749797D01*
X1045862Y750154D01*
X1045710Y750519D01*
X1045579Y750892D01*
X1045466Y751271D01*
X1045374Y751655D01*
X1045302Y752044D01*
X1045250Y752435D01*
X1045219Y752829D01*
X1045209Y753225D01*
X1045219Y753620D01*
X1045250Y754014D01*
X1045302Y754406D01*
X1045374Y754794D01*
X1045466Y755179D01*
X1045579Y755557D01*
X1045710Y755930D01*
X1045862Y756295D01*
X1046032Y756652D01*
X1046220Y757000D01*
X1046427Y757337D01*
X1046651Y757662D01*
X1046891Y757976D01*
X1047148Y758277D01*
X1047420Y758563D01*
X1047707Y758835D01*
X1048008Y759092D01*
X1048321Y759333D01*
X1048647Y759557D01*
X1048984Y759763D01*
X1049331Y759952D01*
X1049688Y760122D01*
X1050053Y760273D01*
X1050426Y760405D01*
X1050805Y760517D01*
X1051189Y760610D01*
X1051578Y760682D01*
X1051970Y760733D01*
X1052364Y760764D01*
X1052759Y760775D01*
X1053154Y760764D01*
D02*
G37*
G36*
X1032834D02*
X1033228Y760733D01*
X1033620Y760682D01*
X1034009Y760610D01*
X1034393Y760517D01*
X1034772Y760405D01*
X1035145Y760273D01*
X1035510Y760122D01*
X1035867Y759952D01*
X1036214Y759763D01*
X1036551Y759557D01*
X1036877Y759333D01*
X1037190Y759092D01*
X1037491Y758835D01*
X1037778Y758563D01*
X1038050Y758277D01*
X1038307Y757976D01*
X1038547Y757662D01*
X1038771Y757337D01*
X1038978Y757000D01*
X1039166Y756652D01*
X1039336Y756295D01*
X1039488Y755930D01*
X1039620Y755557D01*
X1039732Y755179D01*
X1039824Y754794D01*
X1039896Y754406D01*
X1039948Y754014D01*
X1039979Y753620D01*
X1039989Y753225D01*
X1039979Y752829D01*
X1039948Y752435D01*
X1039896Y752044D01*
X1039824Y751655D01*
X1039732Y751271D01*
X1039620Y750892D01*
X1039488Y750519D01*
X1039336Y750154D01*
X1039166Y749797D01*
X1038978Y749450D01*
X1038771Y749112D01*
X1038547Y748787D01*
X1038307Y748473D01*
X1038050Y748173D01*
X1037778Y747886D01*
X1037491Y747614D01*
X1037190Y747357D01*
X1036877Y747116D01*
X1036551Y746893D01*
X1036214Y746686D01*
X1035867Y746497D01*
X1035510Y746327D01*
X1035145Y746176D01*
X1034772Y746044D01*
X1034393Y745932D01*
X1034009Y745839D01*
X1033620Y745767D01*
X1033228Y745716D01*
X1032834Y745685D01*
X1032439Y745674D01*
X1032044Y745685D01*
X1031650Y745716D01*
X1031258Y745767D01*
X1030869Y745839D01*
X1030485Y745932D01*
X1030106Y746044D01*
X1029733Y746176D01*
X1029368Y746327D01*
X1029011Y746497D01*
X1028664Y746686D01*
X1028327Y746893D01*
X1028001Y747116D01*
X1027688Y747357D01*
X1027387Y747614D01*
X1027100Y747886D01*
X1026828Y748173D01*
X1026572Y748473D01*
X1026331Y748787D01*
X1026107Y749112D01*
X1025900Y749450D01*
X1025712Y749797D01*
X1025542Y750154D01*
X1025390Y750519D01*
X1025259Y750892D01*
X1025146Y751271D01*
X1025054Y751655D01*
X1024982Y752044D01*
X1024930Y752435D01*
X1024899Y752829D01*
X1024889Y753225D01*
X1024899Y753620D01*
X1024930Y754014D01*
X1024982Y754406D01*
X1025054Y754794D01*
X1025146Y755179D01*
X1025259Y755557D01*
X1025390Y755930D01*
X1025542Y756295D01*
X1025712Y756652D01*
X1025900Y757000D01*
X1026107Y757337D01*
X1026331Y757662D01*
X1026572Y757976D01*
X1026828Y758277D01*
X1027100Y758563D01*
X1027387Y758835D01*
X1027688Y759092D01*
X1028001Y759333D01*
X1028327Y759557D01*
X1028664Y759763D01*
X1029011Y759952D01*
X1029368Y760122D01*
X1029733Y760273D01*
X1030106Y760405D01*
X1030485Y760517D01*
X1030869Y760610D01*
X1031258Y760682D01*
X1031650Y760733D01*
X1032044Y760764D01*
X1032439Y760775D01*
X1032834Y760764D01*
D02*
G37*
G36*
X1012514D02*
X1012908Y760733D01*
X1013300Y760682D01*
X1013689Y760610D01*
X1014073Y760517D01*
X1014452Y760405D01*
X1014825Y760273D01*
X1015190Y760122D01*
X1015547Y759952D01*
X1015894Y759763D01*
X1016231Y759557D01*
X1016557Y759333D01*
X1016870Y759092D01*
X1017171Y758835D01*
X1017458Y758563D01*
X1017730Y758277D01*
X1017987Y757976D01*
X1018227Y757662D01*
X1018451Y757337D01*
X1018658Y757000D01*
X1018846Y756652D01*
X1019016Y756295D01*
X1019168Y755930D01*
X1019299Y755557D01*
X1019412Y755179D01*
X1019504Y754794D01*
X1019576Y754406D01*
X1019628Y754014D01*
X1019659Y753620D01*
X1019669Y753225D01*
X1019659Y752829D01*
X1019628Y752435D01*
X1019576Y752044D01*
X1019504Y751655D01*
X1019412Y751271D01*
X1019299Y750892D01*
X1019168Y750519D01*
X1019016Y750154D01*
X1018846Y749797D01*
X1018658Y749450D01*
X1018451Y749112D01*
X1018227Y748787D01*
X1017987Y748473D01*
X1017730Y748173D01*
X1017458Y747886D01*
X1017171Y747614D01*
X1016870Y747357D01*
X1016557Y747116D01*
X1016231Y746893D01*
X1015894Y746686D01*
X1015547Y746497D01*
X1015190Y746327D01*
X1014825Y746176D01*
X1014452Y746044D01*
X1014073Y745932D01*
X1013689Y745839D01*
X1013300Y745767D01*
X1012908Y745716D01*
X1012514Y745685D01*
X1012119Y745674D01*
X1011724Y745685D01*
X1011330Y745716D01*
X1010938Y745767D01*
X1010549Y745839D01*
X1010165Y745932D01*
X1009786Y746044D01*
X1009413Y746176D01*
X1009048Y746327D01*
X1008691Y746497D01*
X1008344Y746686D01*
X1008007Y746893D01*
X1007681Y747116D01*
X1007368Y747357D01*
X1007067Y747614D01*
X1006780Y747886D01*
X1006508Y748173D01*
X1006252Y748473D01*
X1006011Y748787D01*
X1005787Y749112D01*
X1005580Y749450D01*
X1005392Y749797D01*
X1005222Y750154D01*
X1005070Y750519D01*
X1004939Y750892D01*
X1004826Y751271D01*
X1004734Y751655D01*
X1004662Y752044D01*
X1004610Y752435D01*
X1004579Y752829D01*
X1004569Y753225D01*
X1004579Y753620D01*
X1004610Y754014D01*
X1004662Y754406D01*
X1004734Y754794D01*
X1004826Y755179D01*
X1004939Y755557D01*
X1005070Y755930D01*
X1005222Y756295D01*
X1005392Y756652D01*
X1005580Y757000D01*
X1005787Y757337D01*
X1006011Y757662D01*
X1006252Y757976D01*
X1006508Y758277D01*
X1006780Y758563D01*
X1007067Y758835D01*
X1007368Y759092D01*
X1007681Y759333D01*
X1008007Y759557D01*
X1008344Y759763D01*
X1008691Y759952D01*
X1009048Y760122D01*
X1009413Y760273D01*
X1009786Y760405D01*
X1010165Y760517D01*
X1010549Y760610D01*
X1010938Y760682D01*
X1011330Y760733D01*
X1011724Y760764D01*
X1012119Y760775D01*
X1012514Y760764D01*
D02*
G37*
G36*
X1175004Y781084D02*
X1175398Y781053D01*
X1175790Y781002D01*
X1176179Y780930D01*
X1176563Y780837D01*
X1176942Y780725D01*
X1177315Y780593D01*
X1177680Y780442D01*
X1178036Y780272D01*
X1178384Y780083D01*
X1178721Y779876D01*
X1179047Y779653D01*
X1179360Y779412D01*
X1179661Y779155D01*
X1179948Y778883D01*
X1180220Y778597D01*
X1180476Y778296D01*
X1180717Y777982D01*
X1180941Y777657D01*
X1181148Y777319D01*
X1181336Y776972D01*
X1181506Y776615D01*
X1181657Y776250D01*
X1181789Y775878D01*
X1181902Y775499D01*
X1181994Y775114D01*
X1182066Y774726D01*
X1182117Y774334D01*
X1182149Y773940D01*
X1182159Y773545D01*
X1182149Y773149D01*
X1182117Y772755D01*
X1182066Y772364D01*
X1181994Y771975D01*
X1181902Y771590D01*
X1181789Y771212D01*
X1181657Y770839D01*
X1181506Y770474D01*
X1181336Y770117D01*
X1181148Y769770D01*
X1180941Y769433D01*
X1180717Y769107D01*
X1180476Y768793D01*
X1180220Y768493D01*
X1179948Y768206D01*
X1179661Y767934D01*
X1179360Y767677D01*
X1179047Y767436D01*
X1178721Y767213D01*
X1178384Y767006D01*
X1178036Y766817D01*
X1177680Y766647D01*
X1177315Y766496D01*
X1176942Y766364D01*
X1176563Y766252D01*
X1176179Y766160D01*
X1175790Y766087D01*
X1175398Y766036D01*
X1175004Y766005D01*
X1174609Y765994D01*
X1174214Y766005D01*
X1173820Y766036D01*
X1173428Y766087D01*
X1173039Y766160D01*
X1172655Y766252D01*
X1172276Y766364D01*
X1171903Y766496D01*
X1171538Y766647D01*
X1171181Y766817D01*
X1170834Y767006D01*
X1170497Y767213D01*
X1170171Y767436D01*
X1169857Y767677D01*
X1169557Y767934D01*
X1169270Y768206D01*
X1168998Y768493D01*
X1168741Y768793D01*
X1168501Y769107D01*
X1168277Y769433D01*
X1168070Y769770D01*
X1167882Y770117D01*
X1167712Y770474D01*
X1167560Y770839D01*
X1167428Y771212D01*
X1167316Y771590D01*
X1167224Y771975D01*
X1167152Y772364D01*
X1167100Y772755D01*
X1167069Y773149D01*
X1167059Y773545D01*
X1167069Y773940D01*
X1167100Y774334D01*
X1167152Y774726D01*
X1167224Y775114D01*
X1167316Y775499D01*
X1167428Y775878D01*
X1167560Y776250D01*
X1167712Y776615D01*
X1167882Y776972D01*
X1168070Y777319D01*
X1168277Y777657D01*
X1168501Y777982D01*
X1168741Y778296D01*
X1168998Y778597D01*
X1169270Y778883D01*
X1169557Y779155D01*
X1169857Y779412D01*
X1170171Y779653D01*
X1170497Y779876D01*
X1170834Y780083D01*
X1171181Y780272D01*
X1171538Y780442D01*
X1171903Y780593D01*
X1172276Y780725D01*
X1172655Y780837D01*
X1173039Y780930D01*
X1173428Y781002D01*
X1173820Y781053D01*
X1174214Y781084D01*
X1174609Y781095D01*
X1175004Y781084D01*
D02*
G37*
G36*
X1154684D02*
X1155078Y781053D01*
X1155470Y781002D01*
X1155859Y780930D01*
X1156243Y780837D01*
X1156622Y780725D01*
X1156995Y780593D01*
X1157360Y780442D01*
X1157717Y780272D01*
X1158064Y780083D01*
X1158401Y779876D01*
X1158727Y779653D01*
X1159040Y779412D01*
X1159341Y779155D01*
X1159628Y778883D01*
X1159900Y778597D01*
X1160156Y778296D01*
X1160397Y777982D01*
X1160621Y777657D01*
X1160827Y777319D01*
X1161016Y776972D01*
X1161186Y776615D01*
X1161338Y776250D01*
X1161469Y775878D01*
X1161582Y775499D01*
X1161674Y775114D01*
X1161746Y774726D01*
X1161797Y774334D01*
X1161829Y773940D01*
X1161839Y773545D01*
X1161829Y773149D01*
X1161797Y772755D01*
X1161746Y772364D01*
X1161674Y771975D01*
X1161582Y771590D01*
X1161469Y771212D01*
X1161338Y770839D01*
X1161186Y770474D01*
X1161016Y770117D01*
X1160827Y769770D01*
X1160621Y769433D01*
X1160397Y769107D01*
X1160156Y768793D01*
X1159900Y768493D01*
X1159628Y768206D01*
X1159341Y767934D01*
X1159040Y767677D01*
X1158727Y767436D01*
X1158401Y767213D01*
X1158064Y767006D01*
X1157717Y766817D01*
X1157360Y766647D01*
X1156995Y766496D01*
X1156622Y766364D01*
X1156243Y766252D01*
X1155859Y766160D01*
X1155470Y766087D01*
X1155078Y766036D01*
X1154684Y766005D01*
X1154289Y765994D01*
X1153894Y766005D01*
X1153500Y766036D01*
X1153108Y766087D01*
X1152719Y766160D01*
X1152335Y766252D01*
X1151956Y766364D01*
X1151583Y766496D01*
X1151218Y766647D01*
X1150861Y766817D01*
X1150514Y767006D01*
X1150177Y767213D01*
X1149851Y767436D01*
X1149538Y767677D01*
X1149237Y767934D01*
X1148950Y768206D01*
X1148678Y768493D01*
X1148421Y768793D01*
X1148181Y769107D01*
X1147957Y769433D01*
X1147750Y769770D01*
X1147562Y770117D01*
X1147392Y770474D01*
X1147240Y770839D01*
X1147108Y771212D01*
X1146996Y771590D01*
X1146904Y771975D01*
X1146832Y772364D01*
X1146780Y772755D01*
X1146749Y773149D01*
X1146739Y773545D01*
X1146749Y773940D01*
X1146780Y774334D01*
X1146832Y774726D01*
X1146904Y775114D01*
X1146996Y775499D01*
X1147108Y775878D01*
X1147240Y776250D01*
X1147392Y776615D01*
X1147562Y776972D01*
X1147750Y777319D01*
X1147957Y777657D01*
X1148181Y777982D01*
X1148421Y778296D01*
X1148678Y778597D01*
X1148950Y778883D01*
X1149237Y779155D01*
X1149538Y779412D01*
X1149851Y779653D01*
X1150177Y779876D01*
X1150514Y780083D01*
X1150861Y780272D01*
X1151218Y780442D01*
X1151583Y780593D01*
X1151956Y780725D01*
X1152335Y780837D01*
X1152719Y780930D01*
X1153108Y781002D01*
X1153500Y781053D01*
X1153894Y781084D01*
X1154289Y781095D01*
X1154684Y781084D01*
D02*
G37*
G36*
X1134364D02*
X1134758Y781053D01*
X1135150Y781002D01*
X1135539Y780930D01*
X1135923Y780837D01*
X1136302Y780725D01*
X1136675Y780593D01*
X1137040Y780442D01*
X1137396Y780272D01*
X1137744Y780083D01*
X1138081Y779876D01*
X1138407Y779653D01*
X1138720Y779412D01*
X1139021Y779155D01*
X1139308Y778883D01*
X1139580Y778597D01*
X1139836Y778296D01*
X1140077Y777982D01*
X1140301Y777657D01*
X1140508Y777319D01*
X1140696Y776972D01*
X1140866Y776615D01*
X1141018Y776250D01*
X1141149Y775878D01*
X1141262Y775499D01*
X1141354Y775114D01*
X1141426Y774726D01*
X1141478Y774334D01*
X1141508Y773940D01*
X1141519Y773545D01*
X1141508Y773149D01*
X1141478Y772755D01*
X1141426Y772364D01*
X1141354Y771975D01*
X1141262Y771590D01*
X1141149Y771212D01*
X1141018Y770839D01*
X1140866Y770474D01*
X1140696Y770117D01*
X1140508Y769770D01*
X1140301Y769433D01*
X1140077Y769107D01*
X1139836Y768793D01*
X1139580Y768493D01*
X1139308Y768206D01*
X1139021Y767934D01*
X1138720Y767677D01*
X1138407Y767436D01*
X1138081Y767213D01*
X1137744Y767006D01*
X1137396Y766817D01*
X1137040Y766647D01*
X1136675Y766496D01*
X1136302Y766364D01*
X1135923Y766252D01*
X1135539Y766160D01*
X1135150Y766087D01*
X1134758Y766036D01*
X1134364Y766005D01*
X1133969Y765994D01*
X1133574Y766005D01*
X1133180Y766036D01*
X1132788Y766087D01*
X1132399Y766160D01*
X1132015Y766252D01*
X1131636Y766364D01*
X1131263Y766496D01*
X1130898Y766647D01*
X1130541Y766817D01*
X1130194Y767006D01*
X1129857Y767213D01*
X1129531Y767436D01*
X1129218Y767677D01*
X1128917Y767934D01*
X1128630Y768206D01*
X1128358Y768493D01*
X1128101Y768793D01*
X1127861Y769107D01*
X1127637Y769433D01*
X1127430Y769770D01*
X1127242Y770117D01*
X1127072Y770474D01*
X1126920Y770839D01*
X1126788Y771212D01*
X1126676Y771590D01*
X1126584Y771975D01*
X1126512Y772364D01*
X1126460Y772755D01*
X1126429Y773149D01*
X1126419Y773545D01*
X1126429Y773940D01*
X1126460Y774334D01*
X1126512Y774726D01*
X1126584Y775114D01*
X1126676Y775499D01*
X1126788Y775878D01*
X1126920Y776250D01*
X1127072Y776615D01*
X1127242Y776972D01*
X1127430Y777319D01*
X1127637Y777657D01*
X1127861Y777982D01*
X1128101Y778296D01*
X1128358Y778597D01*
X1128630Y778883D01*
X1128917Y779155D01*
X1129218Y779412D01*
X1129531Y779653D01*
X1129857Y779876D01*
X1130194Y780083D01*
X1130541Y780272D01*
X1130898Y780442D01*
X1131263Y780593D01*
X1131636Y780725D01*
X1132015Y780837D01*
X1132399Y780930D01*
X1132788Y781002D01*
X1133180Y781053D01*
X1133574Y781084D01*
X1133969Y781095D01*
X1134364Y781084D01*
D02*
G37*
G36*
X1114044D02*
X1114438Y781053D01*
X1114830Y781002D01*
X1115219Y780930D01*
X1115603Y780837D01*
X1115982Y780725D01*
X1116355Y780593D01*
X1116720Y780442D01*
X1117076Y780272D01*
X1117424Y780083D01*
X1117761Y779876D01*
X1118087Y779653D01*
X1118400Y779412D01*
X1118701Y779155D01*
X1118988Y778883D01*
X1119260Y778597D01*
X1119516Y778296D01*
X1119757Y777982D01*
X1119981Y777657D01*
X1120188Y777319D01*
X1120376Y776972D01*
X1120546Y776615D01*
X1120697Y776250D01*
X1120829Y775878D01*
X1120942Y775499D01*
X1121034Y775114D01*
X1121106Y774726D01*
X1121158Y774334D01*
X1121189Y773940D01*
X1121199Y773545D01*
X1121189Y773149D01*
X1121158Y772755D01*
X1121106Y772364D01*
X1121034Y771975D01*
X1120942Y771590D01*
X1120829Y771212D01*
X1120697Y770839D01*
X1120546Y770474D01*
X1120376Y770117D01*
X1120188Y769770D01*
X1119981Y769433D01*
X1119757Y769107D01*
X1119516Y768793D01*
X1119260Y768493D01*
X1118988Y768206D01*
X1118701Y767934D01*
X1118400Y767677D01*
X1118087Y767436D01*
X1117761Y767213D01*
X1117424Y767006D01*
X1117076Y766817D01*
X1116720Y766647D01*
X1116355Y766496D01*
X1115982Y766364D01*
X1115603Y766252D01*
X1115219Y766160D01*
X1114830Y766087D01*
X1114438Y766036D01*
X1114044Y766005D01*
X1113649Y765994D01*
X1113254Y766005D01*
X1112860Y766036D01*
X1112468Y766087D01*
X1112079Y766160D01*
X1111695Y766252D01*
X1111316Y766364D01*
X1110943Y766496D01*
X1110578Y766647D01*
X1110221Y766817D01*
X1109874Y767006D01*
X1109537Y767213D01*
X1109211Y767436D01*
X1108897Y767677D01*
X1108597Y767934D01*
X1108310Y768206D01*
X1108038Y768493D01*
X1107781Y768793D01*
X1107541Y769107D01*
X1107317Y769433D01*
X1107110Y769770D01*
X1106922Y770117D01*
X1106752Y770474D01*
X1106600Y770839D01*
X1106468Y771212D01*
X1106356Y771590D01*
X1106264Y771975D01*
X1106192Y772364D01*
X1106140Y772755D01*
X1106109Y773149D01*
X1106099Y773545D01*
X1106109Y773940D01*
X1106140Y774334D01*
X1106192Y774726D01*
X1106264Y775114D01*
X1106356Y775499D01*
X1106468Y775878D01*
X1106600Y776250D01*
X1106752Y776615D01*
X1106922Y776972D01*
X1107110Y777319D01*
X1107317Y777657D01*
X1107541Y777982D01*
X1107781Y778296D01*
X1108038Y778597D01*
X1108310Y778883D01*
X1108597Y779155D01*
X1108897Y779412D01*
X1109211Y779653D01*
X1109537Y779876D01*
X1109874Y780083D01*
X1110221Y780272D01*
X1110578Y780442D01*
X1110943Y780593D01*
X1111316Y780725D01*
X1111695Y780837D01*
X1112079Y780930D01*
X1112468Y781002D01*
X1112860Y781053D01*
X1113254Y781084D01*
X1113649Y781095D01*
X1114044Y781084D01*
D02*
G37*
G36*
X1093794D02*
X1094188Y781053D01*
X1094580Y781002D01*
X1094969Y780930D01*
X1095353Y780837D01*
X1095732Y780725D01*
X1096105Y780593D01*
X1096470Y780442D01*
X1096827Y780272D01*
X1097174Y780083D01*
X1097511Y779876D01*
X1097837Y779653D01*
X1098150Y779412D01*
X1098451Y779155D01*
X1098738Y778883D01*
X1099010Y778597D01*
X1099267Y778296D01*
X1099507Y777982D01*
X1099731Y777657D01*
X1099938Y777319D01*
X1100126Y776972D01*
X1100296Y776615D01*
X1100448Y776250D01*
X1100580Y775878D01*
X1100692Y775499D01*
X1100784Y775114D01*
X1100856Y774726D01*
X1100908Y774334D01*
X1100939Y773940D01*
X1100949Y773545D01*
X1100939Y773149D01*
X1100908Y772755D01*
X1100856Y772364D01*
X1100784Y771975D01*
X1100692Y771590D01*
X1100580Y771212D01*
X1100448Y770839D01*
X1100296Y770474D01*
X1100126Y770117D01*
X1099938Y769770D01*
X1099731Y769433D01*
X1099507Y769107D01*
X1099267Y768793D01*
X1099010Y768493D01*
X1098738Y768206D01*
X1098451Y767934D01*
X1098150Y767677D01*
X1097837Y767436D01*
X1097511Y767213D01*
X1097174Y767006D01*
X1096827Y766817D01*
X1096470Y766647D01*
X1096105Y766496D01*
X1095732Y766364D01*
X1095353Y766252D01*
X1094969Y766160D01*
X1094580Y766087D01*
X1094188Y766036D01*
X1093794Y766005D01*
X1093399Y765994D01*
X1093004Y766005D01*
X1092610Y766036D01*
X1092218Y766087D01*
X1091829Y766160D01*
X1091445Y766252D01*
X1091066Y766364D01*
X1090693Y766496D01*
X1090328Y766647D01*
X1089971Y766817D01*
X1089624Y767006D01*
X1089287Y767213D01*
X1088961Y767436D01*
X1088648Y767677D01*
X1088347Y767934D01*
X1088060Y768206D01*
X1087788Y768493D01*
X1087532Y768793D01*
X1087291Y769107D01*
X1087067Y769433D01*
X1086860Y769770D01*
X1086672Y770117D01*
X1086502Y770474D01*
X1086350Y770839D01*
X1086219Y771212D01*
X1086106Y771590D01*
X1086014Y771975D01*
X1085942Y772364D01*
X1085890Y772755D01*
X1085859Y773149D01*
X1085849Y773545D01*
X1085859Y773940D01*
X1085890Y774334D01*
X1085942Y774726D01*
X1086014Y775114D01*
X1086106Y775499D01*
X1086219Y775878D01*
X1086350Y776250D01*
X1086502Y776615D01*
X1086672Y776972D01*
X1086860Y777319D01*
X1087067Y777657D01*
X1087291Y777982D01*
X1087532Y778296D01*
X1087788Y778597D01*
X1088060Y778883D01*
X1088347Y779155D01*
X1088648Y779412D01*
X1088961Y779653D01*
X1089287Y779876D01*
X1089624Y780083D01*
X1089971Y780272D01*
X1090328Y780442D01*
X1090693Y780593D01*
X1091066Y780725D01*
X1091445Y780837D01*
X1091829Y780930D01*
X1092218Y781002D01*
X1092610Y781053D01*
X1093004Y781084D01*
X1093399Y781095D01*
X1093794Y781084D01*
D02*
G37*
G36*
X1175074Y760764D02*
X1175468Y760733D01*
X1175860Y760682D01*
X1176249Y760610D01*
X1176633Y760517D01*
X1177012Y760405D01*
X1177385Y760273D01*
X1177750Y760122D01*
X1178107Y759952D01*
X1178454Y759763D01*
X1178791Y759557D01*
X1179117Y759333D01*
X1179430Y759092D01*
X1179731Y758835D01*
X1180018Y758563D01*
X1180290Y758277D01*
X1180546Y757976D01*
X1180787Y757662D01*
X1181011Y757337D01*
X1181218Y757000D01*
X1181406Y756652D01*
X1181576Y756295D01*
X1181728Y755930D01*
X1181860Y755557D01*
X1181972Y755179D01*
X1182064Y754794D01*
X1182136Y754406D01*
X1182188Y754014D01*
X1182219Y753620D01*
X1182229Y753225D01*
X1182219Y752829D01*
X1182188Y752435D01*
X1182136Y752044D01*
X1182064Y751655D01*
X1181972Y751271D01*
X1181860Y750892D01*
X1181728Y750519D01*
X1181576Y750154D01*
X1181406Y749797D01*
X1181218Y749450D01*
X1181011Y749112D01*
X1180787Y748787D01*
X1180546Y748473D01*
X1180290Y748173D01*
X1180018Y747886D01*
X1179731Y747614D01*
X1179430Y747357D01*
X1179117Y747116D01*
X1178791Y746893D01*
X1178454Y746686D01*
X1178107Y746497D01*
X1177750Y746327D01*
X1177385Y746176D01*
X1177012Y746044D01*
X1176633Y745932D01*
X1176249Y745839D01*
X1175860Y745767D01*
X1175468Y745716D01*
X1175074Y745685D01*
X1174679Y745674D01*
X1174284Y745685D01*
X1173890Y745716D01*
X1173498Y745767D01*
X1173109Y745839D01*
X1172725Y745932D01*
X1172346Y746044D01*
X1171973Y746176D01*
X1171608Y746327D01*
X1171251Y746497D01*
X1170904Y746686D01*
X1170567Y746893D01*
X1170241Y747116D01*
X1169928Y747357D01*
X1169627Y747614D01*
X1169340Y747886D01*
X1169068Y748173D01*
X1168811Y748473D01*
X1168571Y748787D01*
X1168347Y749112D01*
X1168140Y749450D01*
X1167952Y749797D01*
X1167782Y750154D01*
X1167630Y750519D01*
X1167499Y750892D01*
X1167386Y751271D01*
X1167294Y751655D01*
X1167222Y752044D01*
X1167170Y752435D01*
X1167139Y752829D01*
X1167129Y753225D01*
X1167139Y753620D01*
X1167170Y754014D01*
X1167222Y754406D01*
X1167294Y754794D01*
X1167386Y755179D01*
X1167499Y755557D01*
X1167630Y755930D01*
X1167782Y756295D01*
X1167952Y756652D01*
X1168140Y757000D01*
X1168347Y757337D01*
X1168571Y757662D01*
X1168811Y757976D01*
X1169068Y758277D01*
X1169340Y758563D01*
X1169627Y758835D01*
X1169928Y759092D01*
X1170241Y759333D01*
X1170567Y759557D01*
X1170904Y759763D01*
X1171251Y759952D01*
X1171608Y760122D01*
X1171973Y760273D01*
X1172346Y760405D01*
X1172725Y760517D01*
X1173109Y760610D01*
X1173498Y760682D01*
X1173890Y760733D01*
X1174284Y760764D01*
X1174679Y760775D01*
X1175074Y760764D01*
D02*
G37*
G36*
X1154754D02*
X1155148Y760733D01*
X1155540Y760682D01*
X1155929Y760610D01*
X1156313Y760517D01*
X1156692Y760405D01*
X1157065Y760273D01*
X1157430Y760122D01*
X1157787Y759952D01*
X1158134Y759763D01*
X1158471Y759557D01*
X1158797Y759333D01*
X1159110Y759092D01*
X1159411Y758835D01*
X1159698Y758563D01*
X1159970Y758277D01*
X1160227Y757976D01*
X1160467Y757662D01*
X1160691Y757337D01*
X1160898Y757000D01*
X1161086Y756652D01*
X1161256Y756295D01*
X1161408Y755930D01*
X1161540Y755557D01*
X1161652Y755179D01*
X1161744Y754794D01*
X1161816Y754406D01*
X1161868Y754014D01*
X1161899Y753620D01*
X1161909Y753225D01*
X1161899Y752829D01*
X1161868Y752435D01*
X1161816Y752044D01*
X1161744Y751655D01*
X1161652Y751271D01*
X1161540Y750892D01*
X1161408Y750519D01*
X1161256Y750154D01*
X1161086Y749797D01*
X1160898Y749450D01*
X1160691Y749112D01*
X1160467Y748787D01*
X1160227Y748473D01*
X1159970Y748173D01*
X1159698Y747886D01*
X1159411Y747614D01*
X1159110Y747357D01*
X1158797Y747116D01*
X1158471Y746893D01*
X1158134Y746686D01*
X1157787Y746497D01*
X1157430Y746327D01*
X1157065Y746176D01*
X1156692Y746044D01*
X1156313Y745932D01*
X1155929Y745839D01*
X1155540Y745767D01*
X1155148Y745716D01*
X1154754Y745685D01*
X1154359Y745674D01*
X1153964Y745685D01*
X1153570Y745716D01*
X1153178Y745767D01*
X1152789Y745839D01*
X1152405Y745932D01*
X1152026Y746044D01*
X1151653Y746176D01*
X1151288Y746327D01*
X1150931Y746497D01*
X1150584Y746686D01*
X1150247Y746893D01*
X1149921Y747116D01*
X1149608Y747357D01*
X1149307Y747614D01*
X1149020Y747886D01*
X1148748Y748173D01*
X1148492Y748473D01*
X1148251Y748787D01*
X1148027Y749112D01*
X1147820Y749450D01*
X1147632Y749797D01*
X1147462Y750154D01*
X1147310Y750519D01*
X1147179Y750892D01*
X1147066Y751271D01*
X1146974Y751655D01*
X1146902Y752044D01*
X1146850Y752435D01*
X1146819Y752829D01*
X1146809Y753225D01*
X1146819Y753620D01*
X1146850Y754014D01*
X1146902Y754406D01*
X1146974Y754794D01*
X1147066Y755179D01*
X1147179Y755557D01*
X1147310Y755930D01*
X1147462Y756295D01*
X1147632Y756652D01*
X1147820Y757000D01*
X1148027Y757337D01*
X1148251Y757662D01*
X1148492Y757976D01*
X1148748Y758277D01*
X1149020Y758563D01*
X1149307Y758835D01*
X1149608Y759092D01*
X1149921Y759333D01*
X1150247Y759557D01*
X1150584Y759763D01*
X1150931Y759952D01*
X1151288Y760122D01*
X1151653Y760273D01*
X1152026Y760405D01*
X1152405Y760517D01*
X1152789Y760610D01*
X1153178Y760682D01*
X1153570Y760733D01*
X1153964Y760764D01*
X1154359Y760775D01*
X1154754Y760764D01*
D02*
G37*
G36*
X1134434D02*
X1134828Y760733D01*
X1135220Y760682D01*
X1135609Y760610D01*
X1135993Y760517D01*
X1136372Y760405D01*
X1136745Y760273D01*
X1137110Y760122D01*
X1137467Y759952D01*
X1137814Y759763D01*
X1138151Y759557D01*
X1138477Y759333D01*
X1138791Y759092D01*
X1139091Y758835D01*
X1139378Y758563D01*
X1139650Y758277D01*
X1139906Y757976D01*
X1140147Y757662D01*
X1140371Y757337D01*
X1140578Y757000D01*
X1140766Y756652D01*
X1140936Y756295D01*
X1141088Y755930D01*
X1141219Y755557D01*
X1141332Y755179D01*
X1141424Y754794D01*
X1141496Y754406D01*
X1141548Y754014D01*
X1141579Y753620D01*
X1141589Y753225D01*
X1141579Y752829D01*
X1141548Y752435D01*
X1141496Y752044D01*
X1141424Y751655D01*
X1141332Y751271D01*
X1141219Y750892D01*
X1141088Y750519D01*
X1140936Y750154D01*
X1140766Y749797D01*
X1140578Y749450D01*
X1140371Y749112D01*
X1140147Y748787D01*
X1139906Y748473D01*
X1139650Y748173D01*
X1139378Y747886D01*
X1139091Y747614D01*
X1138791Y747357D01*
X1138477Y747116D01*
X1138151Y746893D01*
X1137814Y746686D01*
X1137467Y746497D01*
X1137110Y746327D01*
X1136745Y746176D01*
X1136372Y746044D01*
X1135993Y745932D01*
X1135609Y745839D01*
X1135220Y745767D01*
X1134828Y745716D01*
X1134434Y745685D01*
X1134039Y745674D01*
X1133644Y745685D01*
X1133250Y745716D01*
X1132858Y745767D01*
X1132469Y745839D01*
X1132085Y745932D01*
X1131706Y746044D01*
X1131333Y746176D01*
X1130968Y746327D01*
X1130611Y746497D01*
X1130264Y746686D01*
X1129927Y746893D01*
X1129601Y747116D01*
X1129288Y747357D01*
X1128987Y747614D01*
X1128700Y747886D01*
X1128428Y748173D01*
X1128171Y748473D01*
X1127931Y748787D01*
X1127707Y749112D01*
X1127500Y749450D01*
X1127312Y749797D01*
X1127142Y750154D01*
X1126990Y750519D01*
X1126859Y750892D01*
X1126746Y751271D01*
X1126654Y751655D01*
X1126582Y752044D01*
X1126530Y752435D01*
X1126499Y752829D01*
X1126489Y753225D01*
X1126499Y753620D01*
X1126530Y754014D01*
X1126582Y754406D01*
X1126654Y754794D01*
X1126746Y755179D01*
X1126859Y755557D01*
X1126990Y755930D01*
X1127142Y756295D01*
X1127312Y756652D01*
X1127500Y757000D01*
X1127707Y757337D01*
X1127931Y757662D01*
X1128171Y757976D01*
X1128428Y758277D01*
X1128700Y758563D01*
X1128987Y758835D01*
X1129288Y759092D01*
X1129601Y759333D01*
X1129927Y759557D01*
X1130264Y759763D01*
X1130611Y759952D01*
X1130968Y760122D01*
X1131333Y760273D01*
X1131706Y760405D01*
X1132085Y760517D01*
X1132469Y760610D01*
X1132858Y760682D01*
X1133250Y760733D01*
X1133644Y760764D01*
X1134039Y760775D01*
X1134434Y760764D01*
D02*
G37*
G36*
X1114114D02*
X1114508Y760733D01*
X1114900Y760682D01*
X1115289Y760610D01*
X1115673Y760517D01*
X1116052Y760405D01*
X1116425Y760273D01*
X1116790Y760122D01*
X1117147Y759952D01*
X1117494Y759763D01*
X1117831Y759557D01*
X1118157Y759333D01*
X1118471Y759092D01*
X1118771Y758835D01*
X1119058Y758563D01*
X1119330Y758277D01*
X1119586Y757976D01*
X1119827Y757662D01*
X1120051Y757337D01*
X1120258Y757000D01*
X1120446Y756652D01*
X1120616Y756295D01*
X1120768Y755930D01*
X1120900Y755557D01*
X1121012Y755179D01*
X1121104Y754794D01*
X1121176Y754406D01*
X1121228Y754014D01*
X1121259Y753620D01*
X1121269Y753225D01*
X1121259Y752829D01*
X1121228Y752435D01*
X1121176Y752044D01*
X1121104Y751655D01*
X1121012Y751271D01*
X1120900Y750892D01*
X1120768Y750519D01*
X1120616Y750154D01*
X1120446Y749797D01*
X1120258Y749450D01*
X1120051Y749112D01*
X1119827Y748787D01*
X1119586Y748473D01*
X1119330Y748173D01*
X1119058Y747886D01*
X1118771Y747614D01*
X1118471Y747357D01*
X1118157Y747116D01*
X1117831Y746893D01*
X1117494Y746686D01*
X1117147Y746497D01*
X1116790Y746327D01*
X1116425Y746176D01*
X1116052Y746044D01*
X1115673Y745932D01*
X1115289Y745839D01*
X1114900Y745767D01*
X1114508Y745716D01*
X1114114Y745685D01*
X1113719Y745674D01*
X1113324Y745685D01*
X1112930Y745716D01*
X1112538Y745767D01*
X1112149Y745839D01*
X1111765Y745932D01*
X1111386Y746044D01*
X1111013Y746176D01*
X1110648Y746327D01*
X1110291Y746497D01*
X1109944Y746686D01*
X1109607Y746893D01*
X1109281Y747116D01*
X1108968Y747357D01*
X1108667Y747614D01*
X1108380Y747886D01*
X1108108Y748173D01*
X1107851Y748473D01*
X1107611Y748787D01*
X1107387Y749112D01*
X1107180Y749450D01*
X1106992Y749797D01*
X1106822Y750154D01*
X1106670Y750519D01*
X1106539Y750892D01*
X1106426Y751271D01*
X1106334Y751655D01*
X1106262Y752044D01*
X1106210Y752435D01*
X1106179Y752829D01*
X1106169Y753225D01*
X1106179Y753620D01*
X1106210Y754014D01*
X1106262Y754406D01*
X1106334Y754794D01*
X1106426Y755179D01*
X1106539Y755557D01*
X1106670Y755930D01*
X1106822Y756295D01*
X1106992Y756652D01*
X1107180Y757000D01*
X1107387Y757337D01*
X1107611Y757662D01*
X1107851Y757976D01*
X1108108Y758277D01*
X1108380Y758563D01*
X1108667Y758835D01*
X1108968Y759092D01*
X1109281Y759333D01*
X1109607Y759557D01*
X1109944Y759763D01*
X1110291Y759952D01*
X1110648Y760122D01*
X1111013Y760273D01*
X1111386Y760405D01*
X1111765Y760517D01*
X1112149Y760610D01*
X1112538Y760682D01*
X1112930Y760733D01*
X1113324Y760764D01*
X1113719Y760775D01*
X1114114Y760764D01*
D02*
G37*
G36*
X1093864D02*
X1094258Y760733D01*
X1094650Y760682D01*
X1095039Y760610D01*
X1095423Y760517D01*
X1095802Y760405D01*
X1096175Y760273D01*
X1096540Y760122D01*
X1096897Y759952D01*
X1097244Y759763D01*
X1097581Y759557D01*
X1097907Y759333D01*
X1098221Y759092D01*
X1098521Y758835D01*
X1098808Y758563D01*
X1099080Y758277D01*
X1099337Y757976D01*
X1099577Y757662D01*
X1099801Y757337D01*
X1100008Y757000D01*
X1100196Y756652D01*
X1100366Y756295D01*
X1100518Y755930D01*
X1100650Y755557D01*
X1100762Y755179D01*
X1100854Y754794D01*
X1100926Y754406D01*
X1100978Y754014D01*
X1101009Y753620D01*
X1101019Y753225D01*
X1101009Y752829D01*
X1100978Y752435D01*
X1100926Y752044D01*
X1100854Y751655D01*
X1100762Y751271D01*
X1100650Y750892D01*
X1100518Y750519D01*
X1100366Y750154D01*
X1100196Y749797D01*
X1100008Y749450D01*
X1099801Y749112D01*
X1099577Y748787D01*
X1099337Y748473D01*
X1099080Y748173D01*
X1098808Y747886D01*
X1098521Y747614D01*
X1098221Y747357D01*
X1097907Y747116D01*
X1097581Y746893D01*
X1097244Y746686D01*
X1096897Y746497D01*
X1096540Y746327D01*
X1096175Y746176D01*
X1095802Y746044D01*
X1095423Y745932D01*
X1095039Y745839D01*
X1094650Y745767D01*
X1094258Y745716D01*
X1093864Y745685D01*
X1093469Y745674D01*
X1093074Y745685D01*
X1092680Y745716D01*
X1092288Y745767D01*
X1091899Y745839D01*
X1091515Y745932D01*
X1091136Y746044D01*
X1090763Y746176D01*
X1090398Y746327D01*
X1090042Y746497D01*
X1089694Y746686D01*
X1089357Y746893D01*
X1089031Y747116D01*
X1088718Y747357D01*
X1088417Y747614D01*
X1088130Y747886D01*
X1087858Y748173D01*
X1087602Y748473D01*
X1087361Y748787D01*
X1087137Y749112D01*
X1086930Y749450D01*
X1086742Y749797D01*
X1086572Y750154D01*
X1086421Y750519D01*
X1086289Y750892D01*
X1086176Y751271D01*
X1086084Y751655D01*
X1086012Y752044D01*
X1085960Y752435D01*
X1085929Y752829D01*
X1085919Y753225D01*
X1085929Y753620D01*
X1085960Y754014D01*
X1086012Y754406D01*
X1086084Y754794D01*
X1086176Y755179D01*
X1086289Y755557D01*
X1086421Y755930D01*
X1086572Y756295D01*
X1086742Y756652D01*
X1086930Y757000D01*
X1087137Y757337D01*
X1087361Y757662D01*
X1087602Y757976D01*
X1087858Y758277D01*
X1088130Y758563D01*
X1088417Y758835D01*
X1088718Y759092D01*
X1089031Y759333D01*
X1089357Y759557D01*
X1089694Y759763D01*
X1090042Y759952D01*
X1090398Y760122D01*
X1090763Y760273D01*
X1091136Y760405D01*
X1091515Y760517D01*
X1091899Y760610D01*
X1092288Y760682D01*
X1092680Y760733D01*
X1093074Y760764D01*
X1093469Y760775D01*
X1093864Y760764D01*
D02*
G37*
M02*
