G04*
G04 #@! TF.GenerationSoftware,Altium Limited,Altium Designer,22.11.1 (43)*
G04*
G04 Layer_Color=128*
%FSLAX44Y44*%
%MOMM*%
G71*
G04*
G04 #@! TF.SameCoordinates,E8DFFA77-AAD4-42D3-BC67-82D9B879F82B*
G04*
G04*
G04 #@! TF.FilePolarity,Positive*
G04*
G01*
G75*
%ADD15C,0.1270*%
D15*
X1178687Y894080D02*
X1193673D01*
X1186180Y886587D02*
Y901573D01*
X1203071Y868680D02*
X1220089D01*
X1211580Y860171D02*
Y877189D01*
X1203071Y919480D02*
X1220089D01*
X1211580Y910971D02*
Y927989D01*
X1152271Y919480D02*
X1169289D01*
X1160780Y910971D02*
Y927989D01*
X1152271Y868680D02*
X1169289D01*
X1160780Y860171D02*
Y877189D01*
X673660Y1018230D02*
X680160D01*
X676910Y1014980D02*
Y1021480D01*
X673660Y960430D02*
X680160D01*
X676910Y957180D02*
Y963680D01*
X933196Y970280D02*
X936244D01*
X934720Y968756D02*
Y971804D01*
X921766Y976630D02*
X924814D01*
X923290Y975106D02*
Y978154D01*
X916686Y971550D02*
X919734D01*
X918210Y970026D02*
Y973074D01*
X972693Y883920D02*
X975487D01*
X974090Y882523D02*
Y885317D01*
X1000506Y920750D02*
X1003554D01*
X1002030Y919226D02*
Y922274D01*
X1155446Y1000760D02*
X1158494D01*
X1156970Y999236D02*
Y1002284D01*
X1138936Y986790D02*
X1141984D01*
X1140460Y985266D02*
Y988314D01*
X1150493Y993140D02*
X1153287D01*
X1151890Y991743D02*
Y994537D01*
X1043686Y1000760D02*
X1046734D01*
X1045210Y999236D02*
Y1002284D01*
X788543Y792480D02*
X791337D01*
X789940Y791083D02*
Y793877D01*
X780923Y792480D02*
X783717D01*
X782320Y791083D02*
Y793877D01*
X897763Y945820D02*
X900557D01*
X899160Y944423D02*
Y947217D01*
X897763Y940486D02*
X900557D01*
X899160Y939089D02*
Y941883D01*
X789305Y858520D02*
X792099D01*
X790702Y857123D02*
Y859917D01*
X793623Y858520D02*
X796417D01*
X795020Y857123D02*
Y859917D01*
X873633Y951230D02*
X876427D01*
X875030Y949833D02*
Y952627D01*
X878967Y951230D02*
X881761D01*
X880364Y949833D02*
Y952627D01*
X890016Y935990D02*
X893064D01*
X891540Y934466D02*
Y937514D01*
X831404Y922492D02*
X834452D01*
X832928Y920968D02*
Y924016D01*
X855922Y908847D02*
X858716D01*
X857319Y907450D02*
Y910244D01*
X853791Y928352D02*
X856585D01*
X855188Y926955D02*
Y929749D01*
X872363Y938530D02*
X875157D01*
X873760Y937133D02*
Y939927D01*
X877404Y935073D02*
X880198D01*
X878801Y933676D02*
Y936470D01*
X919834Y941029D02*
X922628D01*
X921231Y939632D02*
Y942426D01*
X888873Y969010D02*
X891667D01*
X890270Y967613D02*
Y970407D01*
X893826Y1029970D02*
X896874D01*
X895350Y1028446D02*
Y1031494D01*
X997966Y929640D02*
X1001014D01*
X999490Y928116D02*
Y931164D01*
X856996Y985520D02*
X860044D01*
X858520Y983996D02*
Y987044D01*
X870966Y985520D02*
X874014D01*
X872490Y983996D02*
Y987044D01*
X923036Y1022350D02*
X926084D01*
X924560Y1020826D02*
Y1023874D01*
X939546Y1021080D02*
X942594D01*
X941070Y1019556D02*
Y1022604D01*
X931926Y1026160D02*
X934974D01*
X933450Y1024636D02*
Y1027684D01*
X906526Y1037590D02*
X909574D01*
X908050Y1036066D02*
Y1039114D01*
X920496Y1038860D02*
X923544D01*
X922020Y1037336D02*
Y1040384D01*
X926846Y1042670D02*
X929894D01*
X928370Y1041146D02*
Y1044194D01*
X923036Y1047750D02*
X926084D01*
X924560Y1046226D02*
Y1049274D01*
X954786Y1018540D02*
X957834D01*
X956310Y1017016D02*
Y1020064D01*
X959866Y1023620D02*
X962914D01*
X961390Y1022096D02*
Y1025144D01*
X956056Y1012190D02*
X959104D01*
X957580Y1010666D02*
Y1013714D01*
X1014476Y1012190D02*
X1017524D01*
X1016000Y1010666D02*
Y1013714D01*
X1229106Y1071880D02*
X1232154D01*
X1230630Y1070356D02*
Y1073404D01*
X1136396Y972820D02*
X1139444D01*
X1137920Y971296D02*
Y974344D01*
X1014476Y967740D02*
X1017524D01*
X1016000Y966216D02*
Y969264D01*
X947166Y939800D02*
X950214D01*
X948690Y938276D02*
Y941324D01*
X956056Y894080D02*
X959104D01*
X957580Y892556D02*
Y895604D01*
X1011936Y949960D02*
X1014984D01*
X1013460Y948436D02*
Y951484D01*
X1019556Y915670D02*
X1022604D01*
X1021080Y914146D02*
Y917194D01*
X893826Y878840D02*
X896874D01*
X895350Y877316D02*
Y880364D01*
X1001776Y781050D02*
X1004824D01*
X1003300Y779526D02*
Y782574D01*
X1020826Y781050D02*
X1023874D01*
X1022350Y779526D02*
Y782574D01*
X1041146Y781050D02*
X1044194D01*
X1042670Y779526D02*
Y782574D01*
X1061466Y781050D02*
X1064514D01*
X1062990Y779526D02*
Y782574D01*
X1081786Y781050D02*
X1084834D01*
X1083310Y779526D02*
Y782574D01*
X1102106Y781050D02*
X1105154D01*
X1103630Y779526D02*
Y782574D01*
X1122426Y782320D02*
X1125474D01*
X1123950Y780796D02*
Y783844D01*
X1142746Y781050D02*
X1145794D01*
X1144270Y779526D02*
Y782574D01*
X1163066Y782320D02*
X1166114D01*
X1164590Y780796D02*
Y783844D01*
X1197356Y773430D02*
X1200404D01*
X1198880Y771906D02*
Y774954D01*
X1229106Y974090D02*
X1232154D01*
X1230630Y972566D02*
Y975614D01*
X1043686Y979170D02*
X1046734D01*
X1045210Y977646D02*
Y980694D01*
X1203706Y972820D02*
X1206754D01*
X1205230Y971296D02*
Y974344D01*
X990346Y948690D02*
X993394D01*
X991870Y947166D02*
Y950214D01*
X890143Y962660D02*
X892937D01*
X891540Y961263D02*
Y964057D01*
X881126Y957580D02*
X884174D01*
X882650Y956056D02*
Y959104D01*
X951143Y1004530D02*
X953937D01*
X952540Y1003133D02*
Y1005927D01*
X964946Y1009650D02*
X967994D01*
X966470Y1008126D02*
Y1011174D01*
X947166Y1022350D02*
X950214D01*
X948690Y1020826D02*
Y1023874D01*
X719074Y1040130D02*
X726186D01*
X722630Y1036574D02*
Y1043686D01*
X703834Y951230D02*
X710946D01*
X707390Y947674D02*
Y954786D01*
X676783Y991870D02*
X679577D01*
X678180Y990473D02*
Y993267D01*
X674243Y982980D02*
X677037D01*
X675640Y981583D02*
Y984377D01*
X850646Y963930D02*
X853694D01*
X852170Y962406D02*
Y965454D01*
X836676Y935990D02*
X839724D01*
X838200Y934466D02*
Y937514D01*
X893826Y1059180D02*
X896874D01*
X895350Y1057656D02*
Y1060704D01*
X949706Y897890D02*
X952754D01*
X951230Y896366D02*
Y899414D01*
X982853Y985520D02*
X985647D01*
X984250Y984123D02*
Y986917D01*
X984123Y990600D02*
X986917D01*
X985520Y989203D02*
Y991997D01*
X971296Y966470D02*
X974344D01*
X972820Y964946D02*
Y967994D01*
X745236Y919480D02*
X748284D01*
X746760Y917956D02*
Y921004D01*
X794893Y1060450D02*
X797687D01*
X796290Y1059053D02*
Y1061847D01*
X896366Y1040130D02*
X899414D01*
X897890Y1038606D02*
Y1041654D01*
X829056Y1078230D02*
X832104D01*
X830580Y1076706D02*
Y1079754D01*
X901446Y1026160D02*
X904494D01*
X902970Y1024636D02*
Y1027684D01*
X971296Y1009650D02*
X974344D01*
X972820Y1008126D02*
Y1011174D01*
X978916Y1009650D02*
X981964D01*
X980440Y1008126D02*
Y1011174D01*
X953516Y999490D02*
X956564D01*
X955040Y997966D02*
Y1001014D01*
X850773Y910590D02*
X853567D01*
X852170Y909193D02*
Y911987D01*
X799973Y1040130D02*
X802767D01*
X801370Y1038733D02*
Y1041527D01*
X787273Y966470D02*
X790067D01*
X788670Y965073D02*
Y967867D01*
X788543Y1003300D02*
X791337D01*
X789940Y1001903D02*
Y1004697D01*
X662686Y1003300D02*
X665734D01*
X664210Y1001776D02*
Y1004824D01*
X761873Y1051560D02*
X764667D01*
X763270Y1050163D02*
Y1052957D01*
X930656Y985520D02*
X933704D01*
X932180Y983996D02*
Y987044D01*
X956183Y972820D02*
X958977D01*
X957580Y971423D02*
Y974217D01*
X956183Y930910D02*
X958977D01*
X957580Y929513D02*
Y932307D01*
X956183Y977900D02*
X958977D01*
X957580Y976503D02*
Y979297D01*
X952246Y923290D02*
X955294D01*
X953770Y921766D02*
Y924814D01*
X954913Y939800D02*
X957707D01*
X956310Y938403D02*
Y941197D01*
X798703Y932180D02*
X801497D01*
X800100Y930783D02*
Y933577D01*
X804926Y887730D02*
X807974D01*
X806450Y886206D02*
Y889254D01*
X938403Y1045210D02*
X941197D01*
X939800Y1043813D02*
Y1046607D01*
X938403Y1050290D02*
X941197D01*
X939800Y1048893D02*
Y1051687D01*
X977773Y996950D02*
X980567D01*
X979170Y995553D02*
Y998347D01*
X909193Y1026160D02*
X911987D01*
X910590Y1024763D02*
Y1027557D01*
X938403Y1009650D02*
X941197D01*
X939800Y1008253D02*
Y1011047D01*
X877443Y920750D02*
X880237D01*
X878840Y919353D02*
Y922147D01*
X893826Y891540D02*
X896874D01*
X895350Y890016D02*
Y893064D01*
X870966Y913130D02*
X874014D01*
X872490Y911606D02*
Y914654D01*
X846836Y1037590D02*
X849884D01*
X848360Y1036066D02*
Y1039114D01*
X846836Y1068070D02*
X849884D01*
X848360Y1066546D02*
Y1069594D01*
X815086Y1036320D02*
X818134D01*
X816610Y1034796D02*
Y1037844D01*
X854456Y1074420D02*
X857504D01*
X855980Y1072896D02*
Y1075944D01*
X806323Y930910D02*
X809117D01*
X807720Y929513D02*
Y932307D01*
X815213Y927100D02*
X818007D01*
X816610Y925703D02*
Y928497D01*
X863092Y928326D02*
X865886D01*
X864489Y926929D02*
Y929724D01*
X925703Y1013460D02*
X928497D01*
X927100Y1012063D02*
Y1014857D01*
X901446Y1004570D02*
X904494D01*
X902970Y1003046D02*
Y1006094D01*
X943483Y1038860D02*
X946277D01*
X944880Y1037463D02*
Y1040257D01*
X921893Y1009650D02*
X924687D01*
X923290Y1008253D02*
Y1011047D01*
X854583Y1029970D02*
X857377D01*
X855980Y1028573D02*
Y1031367D01*
X879856Y1022350D02*
X882904D01*
X881380Y1020826D02*
Y1023874D01*
X888873Y986790D02*
X891667D01*
X890270Y985393D02*
Y988187D01*
X868553Y1035050D02*
X871347D01*
X869950Y1033653D02*
Y1036447D01*
X882523Y986790D02*
X885317D01*
X883920Y985393D02*
Y988187D01*
X864743Y1031240D02*
X867537D01*
X866140Y1029843D02*
Y1032637D01*
X913003Y939800D02*
X915797D01*
X914400Y938403D02*
Y941197D01*
X887603Y915670D02*
X890397D01*
X889000Y914273D02*
Y917067D01*
X671576Y970280D02*
X674624D01*
X673100Y968756D02*
Y971804D01*
M02*
