G04*
G04 #@! TF.GenerationSoftware,Altium Limited,Altium Designer,22.11.1 (43)*
G04*
G04 Layer_Physical_Order=4*
G04 Layer_Color=6736896*
%FSLAX44Y44*%
%MOMM*%
G71*
G04*
G04 #@! TF.SameCoordinates,81CC0E8B-20A0-439E-BAEA-CE75FBAB7F8A*
G04*
G04*
G04 #@! TF.FilePolarity,Positive*
G04*
G01*
G75*
%ADD13C,0.2540*%
%ADD83C,0.5080*%
%ADD93C,0.6500*%
%ADD94C,0.6350*%
%ADD95C,0.4064*%
%ADD96C,1.2700*%
%ADD97C,1.5240*%
G36*
X988060Y1024826D02*
X986155Y1022921D01*
Y1019239D01*
X988060Y1017334D01*
Y994388D01*
X986888Y993902D01*
X984570D01*
X983405Y994835D01*
X982472Y996000D01*
Y998318D01*
X980538Y1000252D01*
X977802D01*
X977093Y999543D01*
X974299Y1000700D01*
Y1005840D01*
X974398D01*
X976630Y1008072D01*
Y1011228D01*
X974398Y1013460D01*
X971242D01*
X969645Y1011863D01*
X968048Y1013460D01*
X964892D01*
X964184Y1012752D01*
X961390Y1013768D01*
X961319Y1013839D01*
X959158Y1016000D01*
X960120Y1016962D01*
Y1019810D01*
X962968D01*
X965200Y1022042D01*
Y1025198D01*
X962968Y1027430D01*
X959812D01*
X957580Y1025198D01*
Y1023577D01*
X954786Y1022350D01*
X954732D01*
X952500Y1023928D01*
X952500Y1023928D01*
X952429Y1023999D01*
X950268Y1026160D01*
X947112D01*
X944880Y1023928D01*
X943982Y1023556D01*
X942648Y1024890D01*
X940054D01*
X939492Y1024890D01*
X937260Y1026609D01*
Y1027738D01*
X935028Y1029970D01*
X931872D01*
X929640Y1027738D01*
Y1026609D01*
X926846Y1025452D01*
X926138Y1026160D01*
X922982D01*
X920750Y1023928D01*
Y1020772D01*
X922982Y1018540D01*
X923559D01*
X924716Y1015746D01*
X923798Y1014828D01*
Y1012952D01*
X921922D01*
X919988Y1011018D01*
Y1008282D01*
X921922Y1006348D01*
X924658D01*
X926592Y1008282D01*
Y1010158D01*
X928468D01*
X930402Y1012092D01*
Y1014828D01*
X928468Y1016762D01*
X928311D01*
X927154Y1019556D01*
X928370Y1020772D01*
Y1021900D01*
X931164Y1023058D01*
X931872Y1022350D01*
X934466D01*
X935028Y1022350D01*
X937260Y1020630D01*
Y1019502D01*
X939492Y1017270D01*
X942648D01*
X944880Y1019502D01*
X945778Y1019874D01*
X947112Y1018540D01*
X949706D01*
X950268Y1018540D01*
X952500Y1016962D01*
X952500Y1016962D01*
X952571Y1016891D01*
X954732Y1014730D01*
X953770Y1013768D01*
Y1010626D01*
X953770Y1010612D01*
X952599Y1007832D01*
X951172D01*
X949238Y1005898D01*
Y1003162D01*
X951172Y1001228D01*
X951236Y1001074D01*
X951230Y1001068D01*
Y997912D01*
X953462Y995680D01*
X956618D01*
X958850Y997912D01*
Y1001068D01*
X956618Y1003300D01*
X955958Y1006094D01*
X957311Y1008380D01*
X959158D01*
X959866Y1009088D01*
X962660Y1008072D01*
X962731Y1008001D01*
X963721Y1007011D01*
Y987929D01*
X956994Y981202D01*
X956212D01*
X954278Y979268D01*
Y976532D01*
X955450Y975360D01*
X954278Y974188D01*
Y971452D01*
X956212Y969518D01*
X958948D01*
X959501Y970071D01*
X965200D01*
X965200Y970071D01*
X967144Y970876D01*
X973494Y977226D01*
X973494Y977226D01*
X974299Y979170D01*
Y993200D01*
X977093Y994357D01*
X977802Y993648D01*
X980120D01*
X981285Y992715D01*
X982218Y991550D01*
Y989232D01*
X984152Y987298D01*
X986888D01*
X988060Y986812D01*
Y950268D01*
Y947112D01*
Y863600D01*
X782320D01*
Y1029970D01*
Y1080770D01*
X853789D01*
X854148Y1077976D01*
X852170Y1075998D01*
Y1073599D01*
X850116Y1072017D01*
X849774Y1071880D01*
X846782D01*
X844550Y1069648D01*
Y1066492D01*
X846782Y1064260D01*
X849938D01*
X852170Y1066492D01*
Y1068891D01*
X854224Y1070473D01*
X854566Y1070610D01*
X857558D01*
X859790Y1072842D01*
Y1075998D01*
X857812Y1077976D01*
X858171Y1080770D01*
X988060D01*
Y1024826D01*
D02*
G37*
%LPC*%
G36*
X797658Y1063752D02*
X794922D01*
X792988Y1061818D01*
Y1059082D01*
X794922Y1057148D01*
X797658D01*
X799592Y1059082D01*
Y1061818D01*
X797658Y1063752D01*
D02*
G37*
G36*
X802738Y1043432D02*
X800002D01*
X798068Y1041498D01*
Y1038762D01*
X800002Y1036828D01*
X802738D01*
X804672Y1038762D01*
Y1041498D01*
X802738Y1043432D01*
D02*
G37*
G36*
X941168Y1053592D02*
X938432D01*
X936498Y1051658D01*
Y1048922D01*
X937670Y1047750D01*
X936498Y1046578D01*
Y1043842D01*
X938432Y1041908D01*
X939480D01*
X941409Y1040363D01*
X941578Y1039284D01*
Y1037492D01*
X943512Y1035558D01*
X946248D01*
X948182Y1037492D01*
Y1040228D01*
X946248Y1042162D01*
X945200D01*
X943271Y1043707D01*
X943102Y1044786D01*
Y1046578D01*
X941930Y1047750D01*
X943102Y1048922D01*
Y1051658D01*
X941168Y1053592D01*
D02*
G37*
G36*
X926138Y1051560D02*
X922982D01*
X920750Y1049328D01*
Y1046172D01*
X921458Y1045464D01*
X920442Y1042670D01*
X918210Y1040438D01*
Y1037282D01*
X920442Y1035050D01*
X923598D01*
X925830Y1037282D01*
Y1038462D01*
X926792Y1038860D01*
X929948D01*
X932180Y1041092D01*
Y1044248D01*
X929948Y1046480D01*
X928370D01*
Y1049328D01*
X926138Y1051560D01*
D02*
G37*
G36*
X909628Y1041400D02*
X906472D01*
X904240Y1039168D01*
Y1036012D01*
X906472Y1033780D01*
X909628D01*
X911860Y1036012D01*
Y1039168D01*
X909628Y1041400D01*
D02*
G37*
G36*
X849938D02*
X846782D01*
X844550Y1039168D01*
Y1036012D01*
X846782Y1033780D01*
X849938D01*
X852170Y1036012D01*
Y1039168D01*
X849938Y1041400D01*
D02*
G37*
G36*
X818188Y1040130D02*
X815032D01*
X812800Y1037898D01*
Y1034742D01*
X815032Y1032510D01*
X818188D01*
X820420Y1034742D01*
Y1037898D01*
X818188Y1040130D01*
D02*
G37*
G36*
X871318Y1038352D02*
X868582D01*
X866648Y1036418D01*
Y1034542D01*
X864772D01*
X862838Y1032608D01*
Y1029872D01*
X864772Y1027938D01*
X867508D01*
X869442Y1029872D01*
Y1031748D01*
X871318D01*
X873252Y1033682D01*
Y1036418D01*
X871318Y1038352D01*
D02*
G37*
G36*
X857348Y1033272D02*
X854612D01*
X852678Y1031338D01*
Y1028602D01*
X854612Y1026668D01*
X857348D01*
X859282Y1028602D01*
Y1031338D01*
X857348Y1033272D01*
D02*
G37*
G36*
X896928Y1033780D02*
X893772D01*
X891540Y1031548D01*
Y1028392D01*
X893772Y1026160D01*
X896928D01*
X899160Y1028392D01*
Y1031548D01*
X896928Y1033780D01*
D02*
G37*
G36*
X911958Y1029462D02*
X909222D01*
X907288Y1027528D01*
Y1024792D01*
X909222Y1022858D01*
X911958D01*
X913892Y1024792D01*
Y1027528D01*
X911958Y1029462D01*
D02*
G37*
G36*
X882958Y1026160D02*
X879802D01*
X877570Y1023928D01*
Y1020772D01*
X879802Y1018540D01*
X882958D01*
X885190Y1020772D01*
Y1023928D01*
X882958Y1026160D01*
D02*
G37*
G36*
X904548Y1008380D02*
X901392D01*
X899160Y1006148D01*
Y1002992D01*
X901392Y1000760D01*
X904548D01*
X906780Y1002992D01*
Y1006148D01*
X904548Y1008380D01*
D02*
G37*
G36*
X791308Y1006602D02*
X788572D01*
X786638Y1004668D01*
Y1001932D01*
X788572Y999998D01*
X791308D01*
X793242Y1001932D01*
Y1004668D01*
X791308Y1006602D01*
D02*
G37*
G36*
X891638Y990092D02*
X888902D01*
X887095Y988285D01*
X885288Y990092D01*
X882552D01*
X880618Y988158D01*
Y985422D01*
X882552Y983488D01*
X885288D01*
X887095Y985295D01*
X888902Y983488D01*
X891638D01*
X893572Y985422D01*
Y988158D01*
X891638Y990092D01*
D02*
G37*
G36*
X933758Y989330D02*
X930602D01*
X928370Y987098D01*
Y983942D01*
X930602Y981710D01*
X933758D01*
X935990Y983942D01*
Y987098D01*
X933758Y989330D01*
D02*
G37*
G36*
X874068D02*
X870912D01*
X868680Y987098D01*
Y983942D01*
X870912Y981710D01*
X874068D01*
X876300Y983942D01*
Y987098D01*
X874068Y989330D01*
D02*
G37*
G36*
X860098D02*
X856942D01*
X854710Y987098D01*
Y983942D01*
X856942Y981710D01*
X860098D01*
X862330Y983942D01*
Y987098D01*
X860098Y989330D01*
D02*
G37*
G36*
X925131Y981075D02*
X921449D01*
X918845Y978471D01*
Y975995D01*
X916369D01*
X913765Y973391D01*
Y969709D01*
X916369Y967105D01*
X920051D01*
X922655Y969709D01*
Y972185D01*
X925131D01*
X927735Y974789D01*
Y978471D01*
X925131Y981075D01*
D02*
G37*
G36*
X936561Y974725D02*
X932879D01*
X930275Y972121D01*
Y968439D01*
X932879Y965835D01*
X936561D01*
X939165Y968439D01*
Y972121D01*
X936561Y974725D01*
D02*
G37*
G36*
X790038Y969772D02*
X787302D01*
X785368Y967838D01*
Y965102D01*
X787302Y963168D01*
X790038D01*
X791972Y965102D01*
Y967838D01*
X790038Y969772D01*
D02*
G37*
G36*
X974398Y970280D02*
X971242D01*
X969010Y968048D01*
Y964892D01*
X971242Y962660D01*
X974398D01*
X976630Y964892D01*
Y968048D01*
X974398Y970280D01*
D02*
G37*
G36*
X891638Y972312D02*
X888902D01*
X886968Y970378D01*
Y967642D01*
X888902Y965708D01*
X889200Y964990D01*
X888238Y964028D01*
X888238Y961331D01*
X886235Y959384D01*
X884228Y961390D01*
X881072D01*
X878840Y959158D01*
Y956041D01*
X876837Y954093D01*
X876398Y954532D01*
X873662D01*
X871728Y952598D01*
Y949862D01*
X873662Y947928D01*
X876398D01*
X877697Y949227D01*
X878996Y947928D01*
X881732D01*
X883666Y949862D01*
Y952598D01*
X884152Y953770D01*
X884228D01*
X886460Y956002D01*
X886460Y959075D01*
X888494Y960950D01*
X890172Y959358D01*
X890199Y959358D01*
X890199Y959358D01*
X890214Y959358D01*
X892908D01*
X894842Y961292D01*
Y964028D01*
X892908Y965962D01*
X892610Y966680D01*
X893572Y967642D01*
Y970378D01*
X891638Y972312D01*
D02*
G37*
G36*
X922598Y944331D02*
X919863D01*
X918511Y942979D01*
X915768Y943102D01*
X915427Y943102D01*
X913032D01*
X911098Y941168D01*
Y938432D01*
X913032Y936498D01*
X915768D01*
X917120Y937850D01*
X919863Y937727D01*
X920204Y937727D01*
X922598D01*
X924533Y939661D01*
Y942397D01*
X922598Y944331D01*
D02*
G37*
G36*
X900528Y949122D02*
X897792D01*
X895858Y947188D01*
Y944452D01*
X896697Y943613D01*
X896166Y942162D01*
X895858Y941853D01*
Y941318D01*
X895724Y940952D01*
X893118Y939800D01*
X893064Y939800D01*
X889962D01*
X887730Y937568D01*
Y934412D01*
X889962Y932180D01*
X893118D01*
X895350Y934412D01*
Y935675D01*
X897792Y937184D01*
X898144Y937184D01*
X900528D01*
X902462Y939118D01*
Y941853D01*
X901163Y943153D01*
X902462Y944452D01*
Y947188D01*
X900528Y949122D01*
D02*
G37*
G36*
X839778Y939800D02*
X836622D01*
X834390Y937568D01*
Y934412D01*
X836622Y932180D01*
X839778D01*
X842010Y934412D01*
Y937568D01*
X839778Y939800D01*
D02*
G37*
G36*
X875128Y941832D02*
X872392D01*
X870458Y939898D01*
Y937162D01*
X872392Y935228D01*
X875128D01*
X875499Y935074D01*
Y933705D01*
X877433Y931771D01*
X880169D01*
X882103Y933705D01*
Y936441D01*
X880169Y938375D01*
X877433D01*
X877062Y938529D01*
Y939898D01*
X875128Y941832D01*
D02*
G37*
G36*
X950268Y943610D02*
X947112D01*
X944880Y941378D01*
Y938222D01*
X947112Y935990D01*
X950268D01*
X950945Y936667D01*
X952647Y938123D01*
X954686Y936754D01*
X954942Y936498D01*
X954986D01*
X955704Y933704D01*
X954278Y932278D01*
Y929542D01*
X956212Y927608D01*
X958948D01*
X960882Y929542D01*
Y932278D01*
X958948Y934212D01*
X958904D01*
X958186Y937006D01*
X959612Y938432D01*
Y941168D01*
X957678Y943102D01*
X954942D01*
X954686Y942846D01*
X952647Y941477D01*
X950945Y942933D01*
X950268Y943610D01*
D02*
G37*
G36*
X856556Y931654D02*
X853820D01*
X851886Y929720D01*
Y926984D01*
X853820Y925050D01*
X856556D01*
X858414Y926908D01*
X859994Y926937D01*
X861248Y926898D01*
X863121Y925024D01*
X865856D01*
X867791Y926959D01*
Y929694D01*
X865856Y931628D01*
X863121D01*
X861263Y929771D01*
X859682Y929742D01*
X858429Y929781D01*
X856556Y931654D01*
D02*
G37*
G36*
X801468Y935482D02*
X798732D01*
X796798Y933548D01*
Y930812D01*
X798732Y928878D01*
X801468D01*
X801773Y929183D01*
X804418Y929542D01*
X805251Y928710D01*
X806352Y927608D01*
X809088D01*
X810915Y929435D01*
X813308Y928316D01*
X813308Y925732D01*
X815242Y923798D01*
X817978D01*
X819912Y925732D01*
Y928468D01*
X817978Y930402D01*
X815242D01*
X813415Y928575D01*
X811022Y929694D01*
X811022Y932278D01*
X809129Y934171D01*
X809088Y934212D01*
X806352D01*
X806311Y934171D01*
X806047Y933907D01*
X803402Y933548D01*
X802569Y934380D01*
X801468Y935482D01*
D02*
G37*
G36*
X834506Y926302D02*
X831349D01*
X829118Y924070D01*
Y920914D01*
X831349Y918682D01*
X834506D01*
X836738Y920914D01*
Y924070D01*
X834506Y926302D01*
D02*
G37*
G36*
X880208Y924052D02*
X877472D01*
X875538Y922118D01*
Y919382D01*
X875977Y918943D01*
X874029Y916940D01*
X870912D01*
X868680Y914708D01*
Y911552D01*
X870912Y909320D01*
X874068D01*
X876120Y911372D01*
X877570Y911468D01*
X879020Y911372D01*
X881072Y909320D01*
X884228D01*
X886460Y911552D01*
Y911882D01*
X887632Y912368D01*
X890368D01*
X892302Y914302D01*
Y917038D01*
X890368Y918972D01*
X887632D01*
X886173Y917513D01*
X883180Y917703D01*
X882142Y919382D01*
X882142Y919734D01*
Y922118D01*
X880208Y924052D01*
D02*
G37*
G36*
X853538Y913892D02*
X850802D01*
X848868Y911958D01*
Y909222D01*
X850802Y907288D01*
X853538D01*
X853813Y907563D01*
X854017Y907479D01*
X855951Y905545D01*
X858686D01*
X860621Y907479D01*
Y910215D01*
X858686Y912149D01*
X855951D01*
X855676Y911873D01*
X855472Y911958D01*
X853538Y913892D01*
D02*
G37*
G36*
X962968Y904240D02*
X959812D01*
X957580Y902008D01*
Y898852D01*
X957182Y897890D01*
X956002D01*
X953770Y895658D01*
Y892502D01*
X956002Y890270D01*
X959158D01*
X961390Y892502D01*
Y895658D01*
X961788Y896620D01*
X962968D01*
X965200Y898852D01*
Y902008D01*
X962968Y904240D01*
D02*
G37*
G36*
X896928Y895350D02*
X893772D01*
X891540Y893118D01*
Y889962D01*
X893772Y887730D01*
X896928D01*
X899160Y889962D01*
Y893118D01*
X896928Y895350D01*
D02*
G37*
G36*
X880418Y891540D02*
X877262D01*
X875030Y889308D01*
Y886152D01*
X877262Y883920D01*
X880418D01*
X882650Y886152D01*
Y889308D01*
X880418Y891540D01*
D02*
G37*
G36*
X808028D02*
X804872D01*
X802640Y889308D01*
Y886152D01*
X804872Y883920D01*
X808028D01*
X810260Y886152D01*
Y889308D01*
X808028Y891540D01*
D02*
G37*
G36*
X896928Y882650D02*
X893772D01*
X891540Y880418D01*
Y877262D01*
X893772Y875030D01*
X896928D01*
X899160Y877262D01*
Y880418D01*
X896928Y882650D01*
D02*
G37*
%LPD*%
D13*
X957580Y977900D02*
X966470Y986790D01*
Y1009650D01*
X971550Y979170D02*
Y1008380D01*
X972820Y1009650D01*
X965200Y972820D02*
X971550Y979170D01*
X957580Y972820D02*
X965200D01*
D83*
X961390Y900430D02*
D03*
X878840Y887730D02*
D03*
X882650Y913130D02*
D03*
X995680Y906780D02*
D03*
X974090Y883920D02*
D03*
X1002030Y920750D02*
D03*
X1151890Y993140D02*
D03*
X891540Y935990D02*
D03*
X832928Y922492D02*
D03*
X895350Y1029970D02*
D03*
X999490Y929640D02*
D03*
X858520Y985520D02*
D03*
X872490D02*
D03*
X924560Y1022350D02*
D03*
X941070Y1021080D02*
D03*
X933450Y1026160D02*
D03*
X908050Y1037590D02*
D03*
X922020Y1038860D02*
D03*
X928370Y1042670D02*
D03*
X924560Y1047750D02*
D03*
X956310Y1018540D02*
D03*
X961390Y1023620D02*
D03*
X957580Y1012190D02*
D03*
X1137920Y972820D02*
D03*
X1016000Y967740D02*
D03*
X948690Y939800D02*
D03*
X957580Y894080D02*
D03*
X1013460Y949960D02*
D03*
X1021080Y915670D02*
D03*
X895350Y878840D02*
D03*
X991870Y948690D02*
D03*
X966470Y1009650D02*
D03*
X948690Y1022350D02*
D03*
X852170Y963930D02*
D03*
X838200Y935990D02*
D03*
X895350Y1059180D02*
D03*
X951230Y897890D02*
D03*
X972820Y966470D02*
D03*
X746760Y919480D02*
D03*
X897890Y1040130D02*
D03*
X830580Y1078230D02*
D03*
X902970Y1026160D02*
D03*
X972820Y1009650D02*
D03*
X955040Y999490D02*
D03*
X664210Y1003300D02*
D03*
X932180Y985520D02*
D03*
X806450Y887730D02*
D03*
X895350Y891540D02*
D03*
X872490Y913130D02*
D03*
X848360Y1037590D02*
D03*
Y1068070D02*
D03*
X816610Y1036320D02*
D03*
X855980Y1074420D02*
D03*
X902970Y1004570D02*
D03*
X881380Y1022350D02*
D03*
X673100Y970280D02*
D03*
D93*
X676910Y1018230D02*
D03*
Y960430D02*
D03*
D94*
X982980Y853440D02*
D03*
X929640Y852170D02*
D03*
X885190Y842010D02*
D03*
X990600Y1021080D02*
D03*
X934720Y970280D02*
D03*
X923290Y976630D02*
D03*
X918210Y971550D02*
D03*
X1156970Y1000760D02*
D03*
X1140460Y986790D02*
D03*
X1045210Y1000760D02*
D03*
X1016000Y1012190D02*
D03*
X1230630Y1071880D02*
D03*
X1003300Y781050D02*
D03*
X1022350D02*
D03*
X1042670D02*
D03*
X1062990D02*
D03*
X1083310D02*
D03*
X1103630D02*
D03*
X1123950Y782320D02*
D03*
X1144270Y781050D02*
D03*
X1164590Y782320D02*
D03*
X1198880Y773430D02*
D03*
X1230630Y974090D02*
D03*
X1045210Y979170D02*
D03*
X1205230Y972820D02*
D03*
X980440Y1009650D02*
D03*
D95*
X795782Y858520D02*
D03*
X789940D02*
D03*
Y792480D02*
D03*
X782320D02*
D03*
X899160Y945820D02*
D03*
Y940486D02*
D03*
X875030Y951230D02*
D03*
X880364D02*
D03*
X857319Y908847D02*
D03*
X855188Y928352D02*
D03*
X873760Y938530D02*
D03*
X878801Y935073D02*
D03*
X921231Y941029D02*
D03*
X890270Y969010D02*
D03*
X891540Y962660D02*
D03*
X882650Y957580D02*
D03*
X952540Y1004530D02*
D03*
X678180Y991870D02*
D03*
X675640Y982980D02*
D03*
X984250Y985520D02*
D03*
X985520Y990600D02*
D03*
X796290Y1060450D02*
D03*
X852170Y910590D02*
D03*
X801370Y1040130D02*
D03*
X788670Y966470D02*
D03*
X789940Y1003300D02*
D03*
X763270Y1051560D02*
D03*
X957580Y972820D02*
D03*
Y930910D02*
D03*
Y977900D02*
D03*
X956310Y939800D02*
D03*
X800100Y932180D02*
D03*
X939800Y1045210D02*
D03*
Y1050290D02*
D03*
X979170Y996950D02*
D03*
X910590Y1026160D02*
D03*
X939800Y1009650D02*
D03*
X878840Y920750D02*
D03*
X807720Y930910D02*
D03*
X816610Y927100D02*
D03*
X864489Y928326D02*
D03*
X927100Y1013460D02*
D03*
X944880Y1038860D02*
D03*
X923290Y1009650D02*
D03*
X855980Y1029970D02*
D03*
X890270Y986790D02*
D03*
X869950Y1035050D02*
D03*
X883920Y986790D02*
D03*
X866140Y1031240D02*
D03*
X914400Y939800D02*
D03*
X889000Y915670D02*
D03*
D96*
X722630Y1040130D02*
D03*
X707390Y951230D02*
D03*
D97*
X1186180Y894080D02*
D03*
X1211580Y868680D02*
D03*
Y919480D02*
D03*
X1160780D02*
D03*
Y868680D02*
D03*
M02*
