%FSTAX23Y23*%
%MOIN*%
%SFA1B1*%

%IPPOS*%
%ADD15C,0.005000*%
%LNesp32c3phils-1*%
%LPD*%
G54D15*
X0464Y0352D02*
X04699D01*
X0467Y0349D02*
Y03549D01*
X04736Y0342D02*
X04803D01*
X0477Y03386D02*
Y03453D01*
X04736Y0362D02*
X04803D01*
X0477Y03586D02*
Y03653D01*
X04536Y0362D02*
X04603D01*
X0457Y03586D02*
Y03653D01*
X04536Y0342D02*
X04603D01*
X0457Y03386D02*
Y03453D01*
X02652Y04008D02*
X02677D01*
X02665Y03995D02*
Y04021D01*
X02652Y03781D02*
X02677D01*
X02665Y03768D02*
Y03794D01*
X03521Y0346D02*
X03529D01*
X03525Y03456D02*
Y03464D01*
X03946Y03075D02*
X03954D01*
X0395Y03071D02*
Y03079D01*
X04021Y03075D02*
X04029D01*
X04025Y03071D02*
Y03079D01*
X04101Y03075D02*
X04109D01*
X04105Y03071D02*
Y03079D01*
X04181Y03075D02*
X04189D01*
X04185Y03071D02*
Y03079D01*
X04261Y03075D02*
X04269D01*
X04265Y03071D02*
Y03079D01*
X04341Y03075D02*
X04349D01*
X04345Y03071D02*
Y03079D01*
X04421Y0308D02*
X04429D01*
X04425Y03076D02*
Y03084D01*
X04501Y03075D02*
X04509D01*
X04505Y03071D02*
Y03079D01*
X04581Y0308D02*
X04589D01*
X04585Y03076D02*
Y03084D01*
X04716Y03045D02*
X04724D01*
X0472Y03041D02*
Y03049D01*
X04551Y0394D02*
X04559D01*
X04555Y03936D02*
Y03944D01*
X04111Y0394D02*
X04119D01*
X04115Y03936D02*
Y03944D01*
X04841Y0421D02*
X04849D01*
X04845Y04206D02*
Y04214D01*
X04486Y03885D02*
X04494D01*
X0449Y03881D02*
Y03889D01*
X04841Y03835D02*
X04849D01*
X04845Y03831D02*
Y03839D01*
X04111Y03855D02*
X04119D01*
X04115Y03851D02*
Y03859D01*
X04006Y0381D02*
X04014D01*
X0401Y03806D02*
Y03814D01*
X04471Y0383D02*
X04479D01*
X04475Y03826D02*
Y03834D01*
X04741Y0383D02*
X04749D01*
X04745Y03826D02*
Y03834D01*
X04006Y03985D02*
X04014D01*
X0401Y03981D02*
Y03989D01*
X03986Y0374D02*
X03994D01*
X0399Y03736D02*
Y03744D01*
X04016Y03605D02*
X04024D01*
X0402Y03601D02*
Y03609D01*
X03941Y03625D02*
X03949D01*
X03945Y03621D02*
Y03629D01*
X03901Y03735D02*
X03909D01*
X03905Y03731D02*
Y03739D01*
X03506Y0379D02*
X03514D01*
X0351Y03786D02*
Y03794D01*
X03471Y0377D02*
X03479D01*
X03475Y03766D02*
Y03774D01*
X03455Y03745D02*
X03463D01*
X03459Y03741D02*
Y03749D01*
X03439Y03745D02*
X03447D01*
X03443Y03741D02*
Y03749D01*
X03766Y03985D02*
X03774D01*
X0377Y03981D02*
Y03989D01*
X03776Y04005D02*
X03784D01*
X0378Y04001D02*
Y04009D01*
X03746Y03954D02*
X03754D01*
X0375Y0395D02*
Y03958D01*
X03801Y03975D02*
X03809D01*
X03805Y03971D02*
Y03979D01*
X03756Y04005D02*
X03764D01*
X0376Y04001D02*
Y04009D01*
X03731Y04025D02*
X03739D01*
X03735Y04021D02*
Y04029D01*
X02831Y04095D02*
X02859D01*
X02845Y04081D02*
Y04109D01*
X02771Y03745D02*
X02799D01*
X02785Y03731D02*
Y03759D01*
X02666Y03905D02*
X02674D01*
X0267Y03901D02*
Y03909D01*
X02656Y0387D02*
X02664D01*
X0266Y03866D02*
Y03874D01*
X03351Y03795D02*
X03359D01*
X03355Y03791D02*
Y03799D01*
X03296Y03685D02*
X03304D01*
X033Y03681D02*
Y03689D01*
X03521Y0417D02*
X03529D01*
X03525Y04166D02*
Y04174D01*
X03741Y03535D02*
X03749D01*
X03745Y03531D02*
Y03539D01*
X03926Y0364D02*
X03934D01*
X0393Y03636D02*
Y03644D01*
X03871Y0388D02*
X03879D01*
X03875Y03876D02*
Y03884D01*
X03876Y039D02*
X03884D01*
X0388Y03896D02*
Y03904D01*
X03826Y03805D02*
X03834D01*
X0383Y03801D02*
Y03809D01*
X02936Y0362D02*
X02944D01*
X0294Y03616D02*
Y03624D01*
X03131Y04175D02*
X03139D01*
X03135Y04171D02*
Y04179D01*
X03569Y04055D02*
X03577D01*
X03573Y04051D02*
Y04059D01*
X03531Y04055D02*
X03539D01*
X03535Y04051D02*
Y04059D01*
X03531Y04095D02*
X03539D01*
X03535Y04091D02*
Y04099D01*
X03266Y04245D02*
X03274D01*
X0327Y04241D02*
Y04249D01*
X03551Y0404D02*
X03559D01*
X03555Y04036D02*
Y04044D01*
X03826Y03975D02*
X03834D01*
X0383Y03971D02*
Y03979D01*
X03856Y03975D02*
X03864D01*
X0386Y03971D02*
Y03979D01*
X03436Y03695D02*
X03444D01*
X0344Y03691D02*
Y03699D01*
X03756Y03935D02*
X03764D01*
X0376Y03931D02*
Y03939D01*
X03351Y03585D02*
X03359D01*
X03355Y03581D02*
Y03589D01*
X03151Y04095D02*
X03159D01*
X03155Y04091D02*
Y04099D01*
X03101Y03805D02*
X03109D01*
X03105Y03801D02*
Y03809D01*
X03106Y0395D02*
X03114D01*
X0311Y03946D02*
Y03954D01*
X02611Y0395D02*
X02619D01*
X02615Y03946D02*
Y03954D01*
X03371Y03585D02*
X03379D01*
X03375Y03581D02*
Y03589D01*
X03001Y0414D02*
X03009D01*
X03005Y04136D02*
Y04144D01*
X03631Y0403D02*
X03639D01*
X03635Y04026D02*
Y04034D01*
X03541Y03721D02*
X03549D01*
X03545Y03717D02*
Y03725D01*
X03541Y03705D02*
X03549D01*
X03545Y03701D02*
Y03709D01*
X03381Y0388D02*
X03389D01*
X03385Y03876D02*
Y03884D01*
X03506Y03685D02*
X03514D01*
X0351Y03681D02*
Y03689D01*
X03666Y0388D02*
X03674D01*
X0367Y03876D02*
Y03884D01*
X03776Y0352D02*
X03784D01*
X0378Y03516D02*
Y03524D01*
X03736Y03685D02*
X03744D01*
X0374Y03681D02*
Y03689D01*
X03766Y0383D02*
X03774D01*
X0377Y03826D02*
Y03834D01*
X03766Y03665D02*
X03774D01*
X0377Y03661D02*
Y03669D01*
X03766Y0385D02*
X03774D01*
X0377Y03846D02*
Y03854D01*
X03751Y03635D02*
X03759D01*
X03755Y03631D02*
Y03639D01*
X03761Y037D02*
X03769D01*
X03765Y03696D02*
Y03704D01*
X03146Y0367D02*
X03154D01*
X0315Y03666D02*
Y03674D01*
X03171Y03495D02*
X03179D01*
X03175Y03491D02*
Y03499D01*
X03696Y04115D02*
X03704D01*
X037Y04111D02*
Y04119D01*
X03641Y04125D02*
X03649D01*
X03645Y04121D02*
Y04129D01*
X03696Y04135D02*
X03704D01*
X037Y04131D02*
Y04139D01*
X03851Y03925D02*
X03859D01*
X03855Y03921D02*
Y03929D01*
X03581Y0404D02*
X03589D01*
X03585Y04036D02*
Y04044D01*
X03696Y03975D02*
X03704D01*
X037Y03971D02*
Y03979D01*
X03626Y0401D02*
X03634D01*
X0363Y04006D02*
Y04014D01*
X03456Y03625D02*
X03464D01*
X0346Y03621D02*
Y03629D01*
X03521Y0351D02*
X03529D01*
X03525Y03506D02*
Y03514D01*
X03431Y03595D02*
X03439D01*
X03435Y03591D02*
Y03599D01*
X03336Y04085D02*
X03344D01*
X0334Y04081D02*
Y04089D01*
X03336Y04205D02*
X03344D01*
X0334Y04201D02*
Y04209D01*
X03211Y0408D02*
X03219D01*
X03215Y04076D02*
Y04084D01*
X03366Y0423D02*
X03374D01*
X0337Y04226D02*
Y04234D01*
X03456Y0368D02*
X03464D01*
X0346Y03676D02*
Y03684D01*
X03176Y03665D02*
X03184D01*
X0318Y03661D02*
Y03669D01*
X03366Y03655D02*
X03374D01*
X0337Y03651D02*
Y03659D01*
X03211Y0365D02*
X03219D01*
X03215Y03646D02*
Y03654D01*
X03399Y03654D02*
X03407D01*
X03403Y0365D02*
Y03658D01*
X03276Y03635D02*
X03284D01*
X0328Y03631D02*
Y03639D01*
X03646Y0399D02*
X03654D01*
X0365Y03986D02*
Y03994D01*
X03631Y0409D02*
X03639D01*
X03635Y04086D02*
Y04094D01*
X03651Y04105D02*
X03659D01*
X03655Y04101D02*
Y04109D01*
X03701Y04005D02*
X03709D01*
X03705Y04001D02*
Y04009D01*
X03551Y03955D02*
X03559D01*
X03555Y03951D02*
Y03959D01*
X03716Y0409D02*
X03724D01*
X0372Y04086D02*
Y04094D01*
X03631Y03975D02*
X03639D01*
X03635Y03971D02*
Y03979D01*
X03366Y04055D02*
X03374D01*
X0337Y04051D02*
Y04059D01*
X03466Y04025D02*
X03474D01*
X0347Y04021D02*
Y04029D01*
X03501Y03885D02*
X03509D01*
X03505Y03881D02*
Y03889D01*
X03421Y04075D02*
X03429D01*
X03425Y04071D02*
Y04079D01*
X03476Y03885D02*
X03484D01*
X0348Y03881D02*
Y03889D01*
X03406Y0406D02*
X03414D01*
X0341Y04056D02*
Y04064D01*
X03506Y03815D02*
X03514D01*
X0351Y03811D02*
Y03819D01*
X03436Y03885D02*
X03444D01*
X0344Y03881D02*
Y03889D01*
X03596Y037D02*
X03604D01*
X036Y03696D02*
Y03704D01*
X03496Y03605D02*
X03504D01*
X035Y03601D02*
Y03609D01*
X03621Y03705D02*
X03629D01*
X03625Y03701D02*
Y03709D01*
X02646Y0382D02*
X02654D01*
X0265Y03816D02*
Y03824D01*
M02*