M48
;Layer_Color=9474304
;FILE_FORMAT=4:4
METRIC,LZ
;TYPE=PLATED
T1F00S00C0.2794
T2F00S00C0.2794
T3F00S00C0.3048
T5F00S00C0.7112
T6F00S00C1.4986
T7F00S00C1.7018
%
T01
X0096266Y0101727
T02
X0066421Y0098044
X0066294Y0099441
X0078232Y010033
X007874Y0096647
X0076835Y0105156
X0079502Y0106299
X0080137Y0104013
X0087884Y0103505
X0088138Y0104267
Y0099314
X0089027Y0099441
X0086868Y0098552
X0088773Y0096647
Y0095758
X0087884Y0095504
Y0093218
X0087122Y0093472
X0086614Y009271
X0085725Y0092837
X0081661Y0092964
X0080645Y0093091
X0079883Y0093345
X0089916Y0093726
X0091186Y0093853
X0089154Y0090678
X0087792Y00877251
X0097409Y0088011
X0097155Y0091821
X0097028Y0092837
X00967078Y00979064
X0097663Y0097917
X0098552Y009906
X0095504Y0099949
X0095885Y0100965
X0092837Y01016
X0092456Y0102616
X0093345Y0105791
X0094996Y0107696
X0101219Y0089281
X0115189Y0099314
T03
X0119888Y0077343
X0077978Y0079756
X0078994Y0086106
X0074676Y0092329
X0076962Y0098044
X0070358Y0097917
X0066421Y0097028
X0065532Y0100711
X0075184Y010414
X0078232Y0105537
X0081407Y0103759
X0084963Y0103378
X0084709Y0101981
X0084963Y0098933
X0084328Y0098298
Y0097409
X0085725Y0098044
X0089155Y01008454
X0089916Y0100584
X0091567Y0101219
X0090297Y0102997
X0089662Y010414
X0090043Y0104902
Y0105791
X00889
Y010668
X0088519Y0105029
X00889Y0103378
X0088392Y0102235
X0094742
X0094869Y0103251
X0096139Y0102997
X0096901Y0102362
X0097028Y0101473
X009779Y0101219
X0098171Y0099949
X0099822Y009906
X0098806Y0096774
X0099695Y0093091
X0099568Y0092202
X0096139Y009271
X0094869Y0093218
X0095885Y0094869
X0093472Y0097028
X0092329Y0097663
X0091821Y0097155
X0093218Y0098552
X0089281Y0094742
X0089154Y0093218
X0088392Y0091059
Y009017
X0087376Y0090424
X0084963Y0091567
X0083566Y0090805
X00832928Y00922492
X008382Y0093599
X0080391Y0088646
X008001Y0086106
X0079883Y0079756
X0089154Y0083947
X0088519Y0085598
X0090043Y0086487
X0092583Y0085217
X0096901Y0087249
X0097917
X009906
X0095885Y0089027
X0103251
X0103124Y0090805
X0104521Y0090932
X0105791
Y0092075
X010668
X0104902Y0092202
X0103124Y0103505
X0107061Y0103759
X010795
X0115697Y0103251
Y0100076
X0114046Y0098679
X0113792Y0097282
X0116205Y0096139
X0116332Y0079502
X0114427
X0112395
X0110363
X0108204
X0106045
X010414Y0079375
X0102235Y0079502
X0100076
X0086487Y0087376
X0084836Y0106807
X0085852Y0107823
X0083058
X0090805
X0091948Y0105537
X0095758Y0105918
X0095631Y0104902
X0099314Y010414
Y0102362
X0097536Y0108839
X0123063Y0107188
Y0097409
X0120523Y0097282
T05
X0070739Y0095123
X0072263Y0104013
T06
X0118745Y008636
T07
X0116205Y008382
Y00889
X0121285
Y008382
M30
