%FSTAX23Y23*%
%MOIN*%
%SFA1B1*%

%IPPOS*%
%AMD24*
4,1,8,0.010600,-0.006200,0.010600,0.006200,0.005000,0.011800,-0.005000,0.011800,-0.010600,0.006200,-0.010600,-0.006200,-0.005000,-0.011800,0.005000,-0.011800,0.010600,-0.006200,0.0*
1,1,0.011268,0.005000,-0.006200*
1,1,0.011268,0.005000,0.006200*
1,1,0.011268,-0.005000,0.006200*
1,1,0.011268,-0.005000,-0.006200*
%
%AMD25*
4,1,8,0.006200,0.010600,-0.006200,0.010600,-0.011800,0.005000,-0.011800,-0.005000,-0.006200,-0.010600,0.006200,-0.010600,0.011800,-0.005000,0.011800,0.005000,0.006200,0.010600,0.0*
1,1,0.011268,0.006200,0.005000*
1,1,0.011268,-0.006200,0.005000*
1,1,0.011268,-0.006200,-0.005000*
1,1,0.011268,0.006200,-0.005000*
%
%AMD46*
4,1,8,-0.014600,-0.005300,0.014600,-0.005300,0.015900,-0.004000,0.015900,0.004000,0.014600,0.005300,-0.014600,0.005300,-0.015900,0.004000,-0.015900,-0.004000,-0.014600,-0.005300,0.0*
1,1,0.002661,-0.014600,-0.004000*
1,1,0.002661,0.014600,-0.004000*
1,1,0.002661,0.014600,0.004000*
1,1,0.002661,-0.014600,0.004000*
%
%AMD47*
4,1,8,-0.004000,-0.015900,0.004000,-0.015900,0.005300,-0.014600,0.005300,0.014600,0.004000,0.015900,-0.004000,0.015900,-0.005300,0.014600,-0.005300,-0.014600,-0.004000,-0.015900,0.0*
1,1,0.002661,-0.004000,-0.014600*
1,1,0.002661,0.004000,-0.014600*
1,1,0.002661,0.004000,0.014600*
1,1,0.002661,-0.004000,0.014600*
%
%ADD19R,0.050000X0.125197*%
%ADD20R,0.050000X0.145000*%
%ADD21R,0.014961X0.010598*%
%ADD22R,0.010000X0.010000*%
%ADD23R,0.062992X0.035433*%
G04~CAMADD=24~8~0.0~0.0~236.2~212.6~56.3~0.0~15~0.0~0.0~0.0~0.0~0~0.0~0.0~0.0~0.0~0~0.0~0.0~0.0~270.0~212.0~236.0*
%ADD24D24*%
G04~CAMADD=25~8~0.0~0.0~236.2~212.6~56.3~0.0~15~0.0~0.0~0.0~0.0~0~0.0~0.0~0.0~0.0~0~0.0~0.0~0.0~0.0~236.2~212.6*
%ADD25D25*%
%ADD26R,0.015748X0.008000*%
%ADD27C,0.015000*%
%ADD28R,0.062992X0.031496*%
%ADD29R,0.031496X0.031496*%
%ADD30R,0.051181X0.043307*%
%ADD31R,0.038500X0.022000*%
%ADD32R,0.020079X0.028740*%
%ADD33R,0.011000X0.010000*%
%ADD34R,0.010000X0.011000*%
%ADD35R,0.011811X0.019685*%
%ADD36R,0.010000X0.010000*%
%ADD37C,0.009000*%
%ADD38R,0.023228X0.013780*%
%ADD39R,0.013780X0.023228*%
%ADD40R,0.060000X0.060000*%
%ADD41R,0.015748X0.015748*%
%ADD42R,0.086614X0.039370*%
%ADD43R,0.045275X0.023622*%
%ADD44R,0.045275X0.011811*%
%ADD45R,0.078740X0.085827*%
G04~CAMADD=46~8~0.0~0.0~318.9~106.3~13.3~0.0~15~0.0~0.0~0.0~0.0~0~0.0~0.0~0.0~0.0~0~0.0~0.0~0.0~180.0~318.0~106.0*
%ADD46D46*%
G04~CAMADD=47~8~0.0~0.0~106.3~318.9~13.3~0.0~15~0.0~0.0~0.0~0.0~0~0.0~0.0~0.0~0.0~0~0.0~0.0~0.0~180.0~106.0~318.0*
%ADD47D47*%
%ADD48R,0.092126X0.092126*%
%ADD49R,0.023622X0.051968*%
%LNesp32c3phils-1*%
%LPD*%
G36*
X03433Y04018D02*
X03425D01*
Y04039*
X03433*
Y04018*
G37*
G36*
X03413D02*
X03405D01*
Y04039*
X03413*
Y04018*
G37*
G36*
X03394D02*
X03386D01*
Y04039*
X03394*
Y04018*
G37*
G36*
X03374D02*
X03366D01*
Y04039*
X03374*
Y04018*
G37*
G36*
X03423Y03971D02*
X03403D01*
Y03978*
X03423*
Y03971*
G37*
G36*
X03396D02*
X03376D01*
Y03978*
X03396*
Y03971*
G37*
G36*
X03433Y0391D02*
X03425D01*
Y03931*
X03433*
Y0391*
G37*
G36*
X03413D02*
X03405D01*
Y03931*
X03413*
Y0391*
G37*
G36*
X03394D02*
X03386D01*
Y03931*
X03394*
Y0391*
G37*
G36*
X03374D02*
X03366D01*
Y03931*
X03374*
Y0391*
G37*
G54D19*
X04745Y02717D03*
Y02932D03*
X04645Y02717D03*
Y02932D03*
X04545Y02717D03*
Y02932D03*
X04445Y02717D03*
Y02932D03*
X04345Y02717D03*
Y02932D03*
X04245Y02717D03*
Y02932D03*
X04145Y02717D03*
Y02932D03*
X04045Y02717D03*
Y02932D03*
X03945Y02717D03*
Y02932D03*
X03845Y02717D03*
Y02932D03*
X03745Y02717D03*
Y02932D03*
X03645Y02717D03*
Y02932D03*
X03545Y02717D03*
Y02932D03*
X03445Y02717D03*
Y02932D03*
X03345Y02717D03*
Y02932D03*
X03245Y02717D03*
Y02932D03*
X03145Y02717D03*
Y02932D03*
X03045Y02717D03*
Y02932D03*
X02945Y02717D03*
Y02932D03*
X02845Y02717D03*
Y02932D03*
G54D20*
X04645Y04115D03*
X04745D03*
X04845D03*
X04645Y0394D03*
X04745D03*
X04845D03*
G54D21*
X04557Y03725D03*
X04535D03*
X03879Y03771D03*
X03857D03*
G54D22*
X03474Y03705D03*
X03499D03*
X03969Y0366D03*
X03994D03*
X03969Y03635D03*
X03994D03*
X04496Y0381D03*
X04471D03*
X04505Y0403D03*
X0448D03*
X04506Y03985D03*
X04481D03*
X04506Y0394D03*
X04481D03*
X03484Y0364D03*
X03459D03*
X03484Y03665D03*
X03459D03*
G54D23*
X04058Y04028D03*
Y03984D03*
Y03941D03*
Y03898D03*
Y03855D03*
Y03811D03*
Y03768D03*
Y03725D03*
Y03681D03*
X04421D03*
Y03725D03*
Y03768D03*
Y03811D03*
Y03855D03*
Y03898D03*
Y03941D03*
Y03984D03*
Y04028D03*
G54D24*
X0399Y03705D03*
X03956D03*
X03891Y037D03*
X03858D03*
X03821D03*
X03788D03*
X03843Y04175D03*
X0381D03*
X03803Y03521D03*
X03836D03*
X03858Y03646D03*
X03891D03*
X03826Y03945D03*
X03793D03*
X02981Y0414D03*
X02948D03*
X03416Y0349D03*
X03383D03*
X03676Y04205D03*
X03643D03*
X03728D03*
X03761D03*
X03671Y03525D03*
X03638D03*
X03548D03*
X03581D03*
X03793Y039D03*
X03826D03*
X03788Y03646D03*
X03821D03*
X0294Y03585D03*
X02973D03*
G54D25*
X0398Y03568D03*
Y03601D03*
X04535Y03848D03*
Y03881D03*
Y03778D03*
Y03811D03*
X0343Y04103D03*
Y04136D03*
X03344Y03718D03*
X0376Y03568D03*
Y03601D03*
X03885Y03568D03*
Y03601D03*
X0337Y04173D03*
Y04206D03*
X03555Y04016D03*
Y03983D03*
X03495Y03946D03*
Y03913D03*
X03675Y04016D03*
Y03983D03*
X03715Y03568D03*
Y03601D03*
Y03636D03*
Y0367D03*
X03445Y03533D03*
Y03566D03*
X03185Y04183D03*
Y04216D03*
Y04113D03*
Y04146D03*
X03605Y04016D03*
Y03983D03*
X03344Y03751D03*
X0329D03*
Y03718D03*
X03235Y03751D03*
Y03718D03*
X0318Y03751D03*
Y03718D03*
X0337Y04103D03*
Y04136D03*
G54D26*
X04502Y03701D03*
Y03725D03*
X04589Y03701D03*
Y03725D03*
X03933Y03771D03*
Y03747D03*
X03815Y03771D03*
Y03747D03*
G54D27*
X04005Y03855D03*
Y039D03*
X0351Y0364D03*
Y03665D03*
X0352Y0398D03*
G54D28*
X0395Y04118D03*
Y04251D03*
G54D29*
X03404Y03725D03*
Y03784D03*
G54D30*
X03562Y03584D03*
X03653D03*
Y03655D03*
X03562D03*
G54D31*
X03156Y03817D03*
Y03855D03*
Y03892D03*
X03263D03*
Y03855D03*
Y03817D03*
G54D32*
X03843Y03845D03*
X03806D03*
G54D33*
X03334Y0355D03*
Y0357D03*
Y03589D03*
X03396D03*
Y0357D03*
Y0355D03*
G54D34*
X03355Y03601D03*
X03374D03*
Y03539D03*
X03355D03*
G54D35*
X03814Y04067D03*
X03845D03*
Y04122D03*
X03814D03*
G54D36*
X0384Y03999D03*
Y04024D03*
X0381Y03999D03*
Y04024D03*
X0342Y03666D03*
Y03641D03*
X03385Y03666D03*
Y03641D03*
X03355Y03666D03*
Y03641D03*
G54D37*
X03804Y03568D03*
Y03584D03*
Y036D03*
X0382Y03568D03*
Y03584D03*
Y036D03*
X03835Y03568D03*
Y03584D03*
Y036D03*
G54D38*
X03755Y04109D03*
X03604D03*
G54D39*
X03739Y04063D03*
X03719D03*
X03699D03*
X0368D03*
X0366D03*
X0364D03*
X0362D03*
Y04155D03*
X0364D03*
X0366D03*
X0368D03*
X03699D03*
X03719D03*
X03739D03*
G54D40*
X03064Y04225D03*
X02865D03*
X0306Y035D03*
X02861D03*
G54D41*
X03142Y03622D03*
X03174D03*
X03205D03*
X03237D03*
Y03527D03*
X03205D03*
X03174D03*
X03142D03*
G54D42*
X03215Y04042D03*
Y03967D03*
G54D43*
X02707Y0402D03*
Y03989D03*
Y038D03*
Y03769D03*
G54D44*
X02707Y03963D03*
Y03826D03*
Y03944D03*
Y03845D03*
Y03924D03*
Y03865D03*
Y03904D03*
Y03885D03*
G54D45*
X02684Y04096D03*
Y03693D03*
X02529Y04096D03*
Y03693D03*
G54D46*
X03741Y03771D03*
Y0379D03*
Y0381D03*
Y0383D03*
Y03849D03*
Y03869D03*
Y03889D03*
Y03908D03*
X03548D03*
Y03889D03*
Y03869D03*
Y03849D03*
Y0383D03*
Y0381D03*
Y0379D03*
Y03771D03*
G54D47*
X03713Y03936D03*
X03694D03*
X03674D03*
X03654D03*
X03635D03*
X03615D03*
X03595D03*
X03576D03*
Y03743D03*
X03595D03*
X03615D03*
X03635D03*
X03654D03*
X03674D03*
X03694D03*
X03713D03*
G54D48*
X03645Y0384D03*
G54D49*
X03237Y04124D03*
X03275D03*
X03312D03*
Y04215D03*
X03237D03*
M02*