G04*
G04 #@! TF.GenerationSoftware,Altium Limited,Altium Designer,22.11.1 (43)*
G04*
G04 Layer_Physical_Order=1*
G04 Layer_Color=255*
%FSLAX44Y44*%
%MOMM*%
G71*
G04*
G04 #@! TF.SameCoordinates,E8DFFA77-AAD4-42D3-BC67-82D9B879F82B*
G04*
G04*
G04 #@! TF.FilePolarity,Positive*
G04*
G01*
G75*
%ADD11C,0.5080*%
%ADD13C,0.2540*%
%ADD17C,0.2032*%
%ADD19R,0.2540X0.2540*%
%ADD20R,1.2700X3.1800*%
%ADD21R,1.2700X3.6830*%
%ADD22R,0.3800X0.2692*%
%ADD23R,0.2540X0.2540*%
%ADD24R,1.6000X0.9000*%
G04:AMPARAMS|DCode=25|XSize=0.6mm|YSize=0.54mm|CornerRadius=0.1431mm|HoleSize=0mm|Usage=FLASHONLY|Rotation=270.000|XOffset=0mm|YOffset=0mm|HoleType=Round|Shape=RoundedRectangle|*
%AMROUNDEDRECTD25*
21,1,0.6000,0.2538,0,0,270.0*
21,1,0.3138,0.5400,0,0,270.0*
1,1,0.2862,-0.1269,-0.1569*
1,1,0.2862,-0.1269,0.1569*
1,1,0.2862,0.1269,0.1569*
1,1,0.2862,0.1269,-0.1569*
%
%ADD25ROUNDEDRECTD25*%
G04:AMPARAMS|DCode=26|XSize=0.6mm|YSize=0.54mm|CornerRadius=0.1431mm|HoleSize=0mm|Usage=FLASHONLY|Rotation=0.000|XOffset=0mm|YOffset=0mm|HoleType=Round|Shape=RoundedRectangle|*
%AMROUNDEDRECTD26*
21,1,0.6000,0.2538,0,0,0.0*
21,1,0.3138,0.5400,0,0,0.0*
1,1,0.2862,0.1569,-0.1269*
1,1,0.2862,-0.1569,-0.1269*
1,1,0.2862,-0.1569,0.1269*
1,1,0.2862,0.1569,0.1269*
%
%ADD26ROUNDEDRECTD26*%
%ADD27R,0.4000X0.2032*%
%ADD28C,0.3810*%
%ADD29R,1.6000X0.8000*%
%ADD30R,0.8000X0.8000*%
%ADD31R,1.3000X1.1000*%
%ADD32R,0.9779X0.5588*%
%ADD33R,0.5100X0.7300*%
%ADD34R,0.2794X0.2540*%
%ADD35R,0.2540X0.2794*%
%ADD36R,0.3000X0.5000*%
%ADD37C,0.2286*%
%ADD38R,0.5900X0.3500*%
%ADD39R,0.3500X0.5900*%
%ADD40R,1.5240X1.5240*%
%ADD41R,0.4000X0.4000*%
%ADD42R,2.2000X1.0000*%
%ADD43R,1.1500X0.6000*%
%ADD44R,1.1500X0.3000*%
%ADD45R,2.0000X2.1800*%
G04:AMPARAMS|DCode=46|XSize=0.81mm|YSize=0.27mm|CornerRadius=0.0338mm|HoleSize=0mm|Usage=FLASHONLY|Rotation=180.000|XOffset=0mm|YOffset=0mm|HoleType=Round|Shape=RoundedRectangle|*
%AMROUNDEDRECTD46*
21,1,0.8100,0.2025,0,0,180.0*
21,1,0.7425,0.2700,0,0,180.0*
1,1,0.0675,-0.3713,0.1013*
1,1,0.0675,0.3713,0.1013*
1,1,0.0675,0.3713,-0.1013*
1,1,0.0675,-0.3713,-0.1013*
%
%ADD46ROUNDEDRECTD46*%
G04:AMPARAMS|DCode=47|XSize=0.27mm|YSize=0.81mm|CornerRadius=0.0338mm|HoleSize=0mm|Usage=FLASHONLY|Rotation=180.000|XOffset=0mm|YOffset=0mm|HoleType=Round|Shape=RoundedRectangle|*
%AMROUNDEDRECTD47*
21,1,0.2700,0.7425,0,0,180.0*
21,1,0.2025,0.8100,0,0,180.0*
1,1,0.0675,-0.1013,0.3713*
1,1,0.0675,0.1013,0.3713*
1,1,0.0675,0.1013,-0.3713*
1,1,0.0675,-0.1013,-0.3713*
%
%ADD47ROUNDEDRECTD47*%
%ADD49R,0.6000X1.3200*%
%ADD78C,2.0066*%
%ADD79C,2.2098*%
%ADD83C,0.5080*%
%ADD86C,0.2692*%
%ADD87R,0.3000X0.6000*%
%ADD88R,1.7000X0.3000*%
%ADD89R,3.7000X3.7000*%
%ADD90C,0.0508*%
%ADD91C,0.6096*%
%ADD92C,1.2700*%
%ADD93C,0.3810*%
%ADD94C,0.7620*%
%ADD95R,0.1016X0.0762*%
%ADD96R,0.0762X0.1016*%
%ADD97C,0.6500*%
%ADD98C,0.6350*%
%ADD99C,0.4064*%
%ADD100C,1.2700*%
%ADD101C,0.4572*%
G36*
X912573Y1076460D02*
X912740Y1075690D01*
X907855Y1070805D01*
X907406Y1070133D01*
X907248Y1069340D01*
X907248Y1069340D01*
Y1049878D01*
X900058Y1042688D01*
X900005D01*
X899995Y1042695D01*
X899760Y1042929D01*
X899454Y1043056D01*
X899178Y1043240D01*
X898853Y1043305D01*
X898547Y1043432D01*
X898215D01*
X897890Y1043497D01*
X897565Y1043432D01*
X897233D01*
X896927Y1043305D01*
X896602Y1043240D01*
X896326Y1043056D01*
X896020Y1042929D01*
X895785Y1042695D01*
X895509Y1042511D01*
X895325Y1042235D01*
X895091Y1042000D01*
X894964Y1041694D01*
X894780Y1041418D01*
X894715Y1041093D01*
X894588Y1040787D01*
Y1040455D01*
X894523Y1040130D01*
X894588Y1039805D01*
Y1039473D01*
X894715Y1039167D01*
X894780Y1038842D01*
X894964Y1038566D01*
X895091Y1038260D01*
X895325Y1038025D01*
X895509Y1037749D01*
X899603Y1033655D01*
Y1031649D01*
X898333Y1031396D01*
X898149Y1031840D01*
X897220Y1032769D01*
X896007Y1033272D01*
X894693D01*
X893612Y1032824D01*
X892990Y1033053D01*
X892342Y1033428D01*
Y1053242D01*
X894978Y1055878D01*
X896007D01*
X897220Y1056381D01*
X898149Y1057310D01*
X898652Y1058523D01*
Y1059837D01*
X898149Y1061050D01*
X897220Y1061979D01*
X896007Y1062482D01*
X894693D01*
X893480Y1061979D01*
X892551Y1061050D01*
X892048Y1059837D01*
Y1058808D01*
X888805Y1055565D01*
X888356Y1054893D01*
X888198Y1054100D01*
X888198Y1054100D01*
Y1019398D01*
X878645Y1009845D01*
X878196Y1009173D01*
X878038Y1008380D01*
X878038Y1008380D01*
Y996950D01*
X878038Y996950D01*
X878196Y996157D01*
X878645Y995485D01*
X880344Y993786D01*
X881017Y993336D01*
X881809Y993179D01*
X881809Y993179D01*
X883925D01*
Y992651D01*
X884095Y991795D01*
X884580Y991070D01*
X885188Y990664D01*
X884587Y989538D01*
X884476Y989584D01*
X883364D01*
X882337Y989159D01*
X881551Y988373D01*
X880072Y988121D01*
X876312Y991882D01*
X875724Y992275D01*
X875030Y992413D01*
X869431D01*
X868397Y993447D01*
Y996666D01*
X868362Y996841D01*
Y1000912D01*
X863838D01*
Y1000912D01*
X863362D01*
Y1000912D01*
X858838D01*
Y1000912D01*
X858362D01*
Y1000912D01*
X853838D01*
Y993388D01*
X854287D01*
Y988421D01*
X854425Y987727D01*
X854818Y987139D01*
X855383Y986575D01*
X855218Y986177D01*
Y984863D01*
X855444Y984317D01*
X854664Y983047D01*
X837950D01*
X837632Y983365D01*
Y984276D01*
X837632Y984276D01*
X837468Y985098D01*
X837002Y985796D01*
X834644Y988154D01*
Y992226D01*
X823341D01*
Y985114D01*
X831604D01*
X833333Y983385D01*
Y982475D01*
X833333Y982474D01*
X833496Y981652D01*
X833962Y980955D01*
X834872Y980044D01*
X834935Y979943D01*
Y978397D01*
X834872Y978296D01*
X833962Y977385D01*
X833496Y976688D01*
X833333Y975866D01*
X833333Y975865D01*
Y974955D01*
X831604Y973226D01*
X823341D01*
Y966296D01*
X822314Y965527D01*
X821247Y966594D01*
Y993850D01*
X822250Y994853D01*
X834390D01*
X835678Y995110D01*
X836771Y995839D01*
X840581Y999649D01*
X841310Y1000742D01*
X841567Y1002030D01*
Y1023184D01*
X841310Y1024473D01*
X840581Y1025565D01*
X837605Y1028541D01*
X836703Y1029143D01*
X836753Y1029954D01*
X836914Y1030413D01*
X838374D01*
X839663Y1030670D01*
X840755Y1031399D01*
X843731Y1034375D01*
X844355Y1035310D01*
X844817Y1035467D01*
X844936Y1035485D01*
X845765Y1035515D01*
X845795Y1035485D01*
X845979Y1035209D01*
X846255Y1035025D01*
X846490Y1034791D01*
X846796Y1034664D01*
X847072Y1034480D01*
X847397Y1034415D01*
X847703Y1034288D01*
X848035D01*
X848360Y1034223D01*
X851090D01*
X852378Y1034480D01*
X853034Y1034918D01*
X854177Y1034155D01*
X854151Y1034023D01*
X854151Y1034023D01*
Y1032093D01*
X853611Y1031553D01*
X853186Y1030526D01*
Y1029414D01*
X853611Y1028387D01*
X854227Y1027772D01*
Y1025912D01*
X853838D01*
Y1018388D01*
X858362D01*
Y1018388D01*
X858838D01*
Y1018388D01*
X863362D01*
Y1018388D01*
X863838D01*
X863838Y1018388D01*
X868362Y1018388D01*
X869632Y1018388D01*
X873362D01*
Y1020437D01*
X878623D01*
X879510Y1019551D01*
X880723Y1019048D01*
X882037D01*
X883250Y1019551D01*
X884179Y1020480D01*
X884682Y1021693D01*
Y1023007D01*
X884179Y1024220D01*
X883250Y1025149D01*
X882037Y1025652D01*
X880723D01*
X879510Y1025149D01*
X878581Y1024220D01*
X878515Y1024063D01*
X873362D01*
Y1025912D01*
X868838Y1025912D01*
X867933Y1026793D01*
Y1029081D01*
X868509Y1029657D01*
X868934Y1030684D01*
Y1031083D01*
X869265Y1031925D01*
X870107Y1032256D01*
X870506D01*
X871533Y1032681D01*
X872319Y1033467D01*
X872744Y1034494D01*
Y1035606D01*
X872319Y1036633D01*
X871546Y1037405D01*
X871547Y1037484D01*
X871818Y1038675D01*
X872789D01*
X873645Y1038845D01*
X874370Y1039330D01*
X874855Y1040055D01*
X875025Y1040911D01*
Y1043449D01*
X874855Y1044305D01*
X874370Y1045030D01*
X873645Y1045515D01*
X872789Y1045685D01*
X869651D01*
X868795Y1045515D01*
X868070Y1045030D01*
X867585Y1044305D01*
X867575Y1044252D01*
X864380D01*
X864380Y1044252D01*
X863587Y1044094D01*
X862915Y1043645D01*
X862915Y1043645D01*
X861055Y1041785D01*
X859785Y1042311D01*
Y1043449D01*
X859615Y1044305D01*
X859130Y1045030D01*
X858405Y1045515D01*
X857549Y1045685D01*
X854411D01*
X853555Y1045515D01*
X852830Y1045030D01*
X852345Y1044305D01*
X852175Y1043449D01*
Y1043436D01*
X849696Y1040957D01*
X848360D01*
X848035Y1040892D01*
X847703D01*
X847397Y1040765D01*
X847072Y1040700D01*
X846796Y1040516D01*
X846490Y1040389D01*
X846356Y1040256D01*
X845949Y1040323D01*
X845156Y1040760D01*
X845112Y1040802D01*
Y1055042D01*
X837588D01*
Y1040318D01*
X837983D01*
Y1038150D01*
X836980Y1037147D01*
X826284D01*
X825717Y1037714D01*
Y1040318D01*
X826112D01*
Y1055042D01*
X818588D01*
Y1040318D01*
X817579Y1039687D01*
X816610D01*
X816285Y1039622D01*
X815953D01*
X815647Y1039495D01*
X815322Y1039430D01*
X815046Y1039246D01*
X814740Y1039119D01*
X814505Y1038885D01*
X814229Y1038701D01*
X814045Y1038425D01*
X813811Y1038190D01*
X813684Y1037884D01*
X813500Y1037608D01*
X813435Y1037283D01*
X813308Y1036977D01*
Y1036645D01*
X813243Y1036320D01*
X813308Y1035995D01*
Y1035663D01*
X813435Y1035357D01*
X813500Y1035032D01*
X813684Y1034756D01*
X813811Y1034450D01*
X814045Y1034215D01*
X814229Y1033939D01*
X814428Y1033807D01*
X814453Y1033640D01*
X813960Y1032537D01*
X804848D01*
Y1021013D01*
X828372D01*
Y1022793D01*
X833830D01*
X834833Y1021790D01*
Y1003425D01*
X832996Y1001587D01*
X829469D01*
X828372Y1002003D01*
Y1013527D01*
X804848D01*
Y1002003D01*
X808163D01*
Y993155D01*
X807339Y992226D01*
X796036D01*
Y988044D01*
X793937Y985945D01*
X793488Y985273D01*
X793331Y984480D01*
X793144Y984251D01*
X791756Y984085D01*
X782546Y993295D01*
X781874Y993744D01*
X781081Y993902D01*
X781081Y993902D01*
X695166D01*
X694172Y994568D01*
X694172Y999092D01*
X695166Y999758D01*
X788126D01*
X788126Y999758D01*
X788919Y999916D01*
X789591Y1000365D01*
X789732Y1000506D01*
X790496D01*
X791523Y1000931D01*
X792309Y1001717D01*
X792734Y1002744D01*
Y1003856D01*
X792309Y1004883D01*
X791523Y1005669D01*
X790496Y1006094D01*
X789384D01*
X788357Y1005669D01*
X787571Y1004883D01*
X787165Y1003902D01*
X695166D01*
X694172Y1004568D01*
X694172Y1005362D01*
X694172Y1009092D01*
X694172Y1010362D01*
Y1017092D01*
X682095D01*
X681092Y1017383D01*
X680922Y1018268D01*
Y1019028D01*
X680311Y1020503D01*
X679183Y1021631D01*
X677708Y1022242D01*
X676112D01*
X674637Y1021631D01*
X673509Y1020503D01*
X672898Y1019028D01*
Y1017432D01*
X673509Y1015957D01*
X674637Y1014829D01*
X675247Y1014576D01*
X675545Y1013078D01*
X669133Y1006667D01*
X664210D01*
X663885Y1006602D01*
X663553D01*
X663247Y1006475D01*
X662922Y1006410D01*
X662646Y1006226D01*
X662340Y1006099D01*
X662105Y1005865D01*
X661829Y1005681D01*
X661645Y1005405D01*
X661411Y1005170D01*
X661284Y1004864D01*
X661100Y1004588D01*
X661035Y1004263D01*
X660908Y1003957D01*
Y1003625D01*
X660843Y1003300D01*
X660908Y1002975D01*
Y1002643D01*
X661035Y1002337D01*
X661100Y1002012D01*
X661284Y1001736D01*
X661411Y1001430D01*
X661645Y1001195D01*
X661829Y1000919D01*
X662105Y1000735D01*
X662340Y1000501D01*
X662646Y1000374D01*
X662922Y1000190D01*
X663247Y1000125D01*
X663553Y999998D01*
X663885D01*
X664210Y999933D01*
X670527D01*
X671816Y1000190D01*
X672908Y1000919D01*
X679878Y1007889D01*
X681148Y1007363D01*
X681148Y1004568D01*
X681148Y1003298D01*
X681148Y999568D01*
X680104Y999022D01*
X674588D01*
X673795Y998864D01*
X673123Y998415D01*
X673123Y998415D01*
X671635Y996927D01*
X671186Y996255D01*
X671028Y995462D01*
X671028Y995462D01*
Y989330D01*
X671028Y989330D01*
X671186Y988537D01*
X671635Y987865D01*
X673226Y986274D01*
X673271Y984563D01*
X672846Y983536D01*
Y982424D01*
X673271Y981397D01*
X674057Y980611D01*
X675084Y980186D01*
X675593D01*
X675997Y979916D01*
X676790Y979758D01*
X676790Y979758D01*
X680154D01*
X681148Y979092D01*
X681148Y978298D01*
X681148Y974568D01*
X681148Y973298D01*
Y971297D01*
X679878Y970771D01*
X677988Y972661D01*
X676896Y973390D01*
X675608Y973647D01*
X673100D01*
X672775Y973582D01*
X672443D01*
X672137Y973455D01*
X671812Y973390D01*
X671536Y973206D01*
X671230Y973079D01*
X670995Y972845D01*
X670719Y972661D01*
X670535Y972385D01*
X670301Y972150D01*
X670174Y971844D01*
X669990Y971568D01*
X669925Y971243D01*
X669798Y970937D01*
Y970605D01*
X669733Y970280D01*
X669798Y969955D01*
Y969623D01*
X669925Y969317D01*
X669990Y968992D01*
X670174Y968716D01*
X670301Y968410D01*
X670535Y968175D01*
X670719Y967899D01*
X670995Y967715D01*
X671230Y967481D01*
X671536Y967354D01*
X671812Y967170D01*
X672137Y967105D01*
X672443Y966978D01*
X672775D01*
X673100Y966913D01*
X674213D01*
X675545Y965582D01*
X675247Y964084D01*
X674637Y963831D01*
X673509Y962703D01*
X672898Y961228D01*
Y959632D01*
X673509Y958157D01*
X674637Y957029D01*
X676112Y956418D01*
X677708D01*
X679183Y957029D01*
X680311Y958157D01*
X680922Y959632D01*
Y960392D01*
X681092Y961277D01*
X682095Y961568D01*
X694172D01*
Y961963D01*
X714755D01*
X720505Y956213D01*
X720019Y955040D01*
X721679D01*
X726109Y950609D01*
X727202Y949880D01*
X728490Y949623D01*
X805456D01*
X806151Y949485D01*
X809289D01*
X810145Y949655D01*
X810870Y950140D01*
X811355Y950865D01*
X811525Y951721D01*
Y953041D01*
X811547Y953150D01*
Y955040D01*
X828549D01*
X831855Y951734D01*
Y951721D01*
X832025Y950865D01*
X832510Y950140D01*
X833235Y949655D01*
X834091Y949485D01*
X837229D01*
X838085Y949655D01*
X838810Y950140D01*
X839295Y950865D01*
X839465Y951721D01*
Y954259D01*
X840106Y955040D01*
X839310D01*
X839295Y955115D01*
X838810Y955840D01*
X838085Y956325D01*
X837229Y956495D01*
X836616D01*
X829341Y963771D01*
X828248Y964500D01*
X826960Y964757D01*
X824093D01*
X824050Y964844D01*
X824834Y966114D01*
X834644D01*
Y970186D01*
X837002Y972544D01*
X837468Y973242D01*
X837632Y974064D01*
X837632Y974064D01*
Y974975D01*
X837950Y975293D01*
X860627D01*
X868430Y967490D01*
X868430Y967490D01*
X868618Y967302D01*
X868092Y966032D01*
X859918D01*
Y964637D01*
X856225D01*
X854551Y966311D01*
X854275Y966495D01*
X854040Y966729D01*
X853734Y966856D01*
X853458Y967040D01*
X853133Y967105D01*
X852827Y967232D01*
X852495D01*
X852170Y967297D01*
X851845Y967232D01*
X851513D01*
X851207Y967105D01*
X850882Y967040D01*
X850606Y966856D01*
X850300Y966729D01*
X850065Y966495D01*
X849789Y966311D01*
X849605Y966035D01*
X849371Y965800D01*
X849244Y965494D01*
X849060Y965218D01*
X848995Y964893D01*
X848868Y964587D01*
Y964255D01*
X848803Y963930D01*
X848868Y963605D01*
Y963273D01*
X848995Y962967D01*
X849060Y962642D01*
X849244Y962366D01*
X849371Y962060D01*
X849605Y961825D01*
X849789Y961549D01*
X852449Y958889D01*
X853542Y958160D01*
X854830Y957903D01*
X859918D01*
Y956508D01*
X869442D01*
Y964682D01*
X870712Y965208D01*
X872880Y963040D01*
Y955040D01*
Y953032D01*
X872661Y952813D01*
X872236Y951786D01*
Y950674D01*
X872661Y949647D01*
X873447Y948861D01*
X874474Y948436D01*
X875586D01*
X876613Y948861D01*
X876867Y949116D01*
X877697Y949507D01*
X878527Y949116D01*
X878781Y948861D01*
X879808Y948436D01*
X880920D01*
X881947Y948861D01*
X882733Y949647D01*
X883158Y950674D01*
Y951786D01*
X883058Y952028D01*
X883745Y953459D01*
X884131Y953536D01*
X886933Y950733D01*
Y944359D01*
X886784Y943561D01*
X885669Y942987D01*
X885190Y943186D01*
X884428Y943102D01*
Y943102D01*
X880364D01*
Y941602D01*
X877859Y939097D01*
X877824Y939044D01*
X877205Y939064D01*
X876466Y939298D01*
X876129Y940113D01*
X875343Y940899D01*
X874316Y941324D01*
X873204D01*
X872177Y940899D01*
X871391Y940113D01*
X870966Y939086D01*
Y937974D01*
X871047Y937778D01*
X870250Y936792D01*
X854710D01*
X854710Y936792D01*
X853917Y936634D01*
X853245Y936185D01*
X850451Y933391D01*
X849917D01*
X849716Y933351D01*
X847885D01*
Y931728D01*
X838188Y922032D01*
X837795Y921444D01*
X837657Y920750D01*
Y914011D01*
X822458Y898812D01*
X819498D01*
Y893288D01*
X825022D01*
Y896248D01*
X840752Y911978D01*
X841145Y912566D01*
X841283Y913260D01*
Y919999D01*
X846711Y925427D01*
X847885Y924941D01*
Y922937D01*
X851483D01*
X854952Y919468D01*
X855540Y919075D01*
X856234Y918937D01*
X858023D01*
X858877Y918083D01*
X858351Y916813D01*
X855178D01*
X855178Y916813D01*
X854242D01*
Y916813D01*
X853908Y916813D01*
X850178D01*
Y914854D01*
X850138Y914654D01*
Y912510D01*
X849801Y912173D01*
X849376Y911146D01*
Y910034D01*
X849801Y909007D01*
X850587Y908221D01*
X851614Y907796D01*
X852726D01*
X853352Y908055D01*
X853854Y908156D01*
X854845Y907518D01*
X854950Y907264D01*
X855736Y906478D01*
X856763Y906053D01*
X857874D01*
X858901Y906478D01*
X859155Y906732D01*
X860425Y906206D01*
Y904748D01*
X864743D01*
Y904967D01*
X864870D01*
X865564Y905105D01*
X866152Y905498D01*
X868692Y908038D01*
X869085Y908626D01*
X869223Y909320D01*
Y918464D01*
X869085Y919158D01*
X868692Y919746D01*
X866926Y921512D01*
X867452Y922782D01*
X868759D01*
X868934Y922747D01*
X873009D01*
X873217Y922539D01*
Y916940D01*
X873355Y916246D01*
X873748Y915658D01*
X879567Y909839D01*
Y903721D01*
X879359Y903513D01*
X871220D01*
X870526Y903375D01*
X869938Y902982D01*
X867675Y900719D01*
X859242D01*
Y901065D01*
X855178D01*
X855178Y901065D01*
X854242D01*
Y901065D01*
X853908Y901065D01*
X850178D01*
Y901065D01*
X848995Y901275D01*
Y903812D01*
X847036D01*
X846836Y903852D01*
X846709D01*
X846509Y903812D01*
X844677D01*
Y902551D01*
X844355Y902229D01*
X843906Y901557D01*
X843748Y900764D01*
X843748Y900764D01*
Y890270D01*
X843748Y890270D01*
X843906Y889477D01*
X844355Y888805D01*
X848165Y884995D01*
X848837Y884546D01*
X849630Y884388D01*
X849630Y884388D01*
X855895D01*
X855965Y884035D01*
X856450Y883310D01*
X857175Y882825D01*
X858031Y882655D01*
X860569D01*
X861425Y882825D01*
X862150Y883310D01*
X862635Y884035D01*
X862805Y884891D01*
Y888029D01*
X862635Y888885D01*
X862150Y889610D01*
X861862Y889803D01*
Y892008D01*
X871514D01*
X871514Y892008D01*
X872307Y892166D01*
X872979Y892615D01*
X874259Y893895D01*
X876791D01*
X877646Y894065D01*
X878372Y894550D01*
X878856Y895275D01*
X879026Y896131D01*
Y898669D01*
X880025Y899887D01*
X880110D01*
X880804Y900025D01*
X881392Y900418D01*
X882662Y901688D01*
X883055Y902276D01*
X883193Y902970D01*
Y910590D01*
X883055Y911284D01*
X882662Y911872D01*
X877718Y916816D01*
X878164Y917715D01*
X878374Y917956D01*
X879396D01*
X880423Y918381D01*
X881209Y919167D01*
X881634Y920194D01*
Y921306D01*
X881729Y921700D01*
X882904Y922444D01*
X883106Y922528D01*
X884736D01*
X884936Y922488D01*
X885795D01*
X886928Y921676D01*
X886928Y921676D01*
Y917550D01*
X886631Y917253D01*
X886206Y916226D01*
Y915114D01*
X886631Y914087D01*
X886928Y913791D01*
Y898748D01*
X873565Y885385D01*
X873116Y884713D01*
X872958Y883920D01*
X872958Y883920D01*
Y793750D01*
X795909D01*
X795423Y794923D01*
X796676Y796176D01*
X796676Y796176D01*
X797142Y796874D01*
X797306Y797696D01*
X797306Y797696D01*
Y846074D01*
X797188Y846665D01*
Y847904D01*
X797272Y848106D01*
X796956Y848868D01*
X797272Y849630D01*
X797188Y850392D01*
X797188D01*
Y851833D01*
X797306Y852424D01*
Y856854D01*
X797389Y856937D01*
X797814Y857964D01*
Y859076D01*
X797389Y860103D01*
X796603Y860889D01*
X795576Y861314D01*
X794464D01*
X793437Y860889D01*
X792861Y860312D01*
X792285Y860889D01*
X791258Y861314D01*
X790146D01*
X789119Y860889D01*
X788333Y860103D01*
X787908Y859076D01*
Y857964D01*
X788290Y857042D01*
Y855579D01*
X787908Y854456D01*
X787790Y853733D01*
X787791Y853733D01*
X787791Y853235D01*
Y852424D01*
X787908Y851833D01*
Y850392D01*
X787908D01*
X787732Y849875D01*
X787966Y849067D01*
X788133Y848975D01*
X788146Y848884D01*
X787824Y848106D01*
X787908Y847904D01*
Y846665D01*
X787791Y846074D01*
Y800990D01*
X782074Y795274D01*
X781764D01*
X780737Y794849D01*
X779951Y794063D01*
X779822Y793750D01*
X679450D01*
Y883920D01*
X679450D01*
X679450Y883920D01*
X679328Y886410D01*
X678356Y891293D01*
X676451Y895893D01*
X673684Y900034D01*
X670164Y903555D01*
X666023Y906321D01*
X661423Y908226D01*
X656540Y909198D01*
X654050Y909320D01*
X629920Y909320D01*
Y955040D01*
Y1076960D01*
X769874D01*
Y1067000D01*
X769834Y1066800D01*
X769834Y1066800D01*
Y1061054D01*
X763134Y1054354D01*
X762714D01*
X762023Y1054068D01*
X761436Y1054030D01*
X760450Y1054426D01*
X760260Y1054710D01*
X759535Y1055195D01*
X758679Y1055365D01*
X756141D01*
X755285Y1055195D01*
X754560Y1054710D01*
X754075Y1053985D01*
X753905Y1053129D01*
Y1049991D01*
X754075Y1049135D01*
X754560Y1048410D01*
X755285Y1047925D01*
X756141Y1047755D01*
X758679D01*
X759535Y1047925D01*
X760260Y1048410D01*
X760450Y1048694D01*
X761436Y1049090D01*
X762023Y1049052D01*
X762714Y1048766D01*
X763826D01*
X764853Y1049191D01*
X765639Y1049977D01*
X766064Y1051004D01*
Y1051424D01*
X773371Y1058731D01*
X773371Y1058731D01*
X773820Y1059403D01*
X773978Y1060196D01*
X773978Y1060196D01*
Y1064768D01*
X786638D01*
Y1076960D01*
X818588D01*
Y1063318D01*
X826112D01*
Y1073281D01*
X827694Y1074863D01*
X830580D01*
X830905Y1074928D01*
X831237D01*
X831543Y1075055D01*
X831868Y1075120D01*
X832144Y1075304D01*
X832450Y1075431D01*
X832685Y1075665D01*
X832961Y1075849D01*
X833145Y1076125D01*
X833379Y1076360D01*
X833506Y1076666D01*
X833690Y1076942D01*
X833694Y1076960D01*
X837588D01*
Y1063318D01*
X845112D01*
Y1064703D01*
X848360D01*
X848685Y1064768D01*
X849017D01*
X849323Y1064895D01*
X849648Y1064960D01*
X849924Y1065144D01*
X850230Y1065271D01*
X850465Y1065505D01*
X850741Y1065689D01*
X850925Y1065965D01*
X851159Y1066199D01*
X851465Y1066260D01*
X852128Y1066263D01*
X852540Y1066144D01*
X852830Y1065710D01*
X853555Y1065225D01*
X854411Y1065055D01*
X857549D01*
X858405Y1065225D01*
X859130Y1065710D01*
X859615Y1066435D01*
X859785Y1067291D01*
Y1069829D01*
X859615Y1070685D01*
X859347Y1071086D01*
Y1074420D01*
X859282Y1074745D01*
Y1075077D01*
X859155Y1075383D01*
X859090Y1075708D01*
X859403Y1076546D01*
X859765Y1076955D01*
X859772Y1076960D01*
X912258D01*
X912573Y1076460D01*
D02*
G37*
G36*
X956298Y1071449D02*
X956251Y1049563D01*
X948690D01*
X947996Y1049425D01*
X947408Y1049032D01*
X943598Y1045222D01*
X943205Y1044634D01*
X943067Y1043940D01*
Y1041832D01*
X942506Y1041331D01*
X941002Y1041492D01*
X932053Y1050441D01*
X932579Y1051711D01*
X936428D01*
X937006Y1050846D01*
Y1049734D01*
X937431Y1048707D01*
X938217Y1047921D01*
X939244Y1047496D01*
X940356D01*
X941383Y1047921D01*
X942169Y1048707D01*
X942594Y1049734D01*
Y1050846D01*
X943172Y1051711D01*
X947232D01*
Y1059135D01*
X931533D01*
Y1062574D01*
X933223Y1064265D01*
X935209D01*
X936065Y1064435D01*
X936790Y1064920D01*
X937275Y1065645D01*
X937345Y1065998D01*
X943525D01*
X943595Y1065645D01*
X944080Y1064920D01*
X944805Y1064435D01*
X945661Y1064265D01*
X948199D01*
X949055Y1064435D01*
X949780Y1064920D01*
X950265Y1065645D01*
X950435Y1066501D01*
Y1069639D01*
X950332Y1070154D01*
Y1071862D01*
X950818Y1072348D01*
X955401D01*
X956298Y1071449D01*
D02*
G37*
G36*
X930435Y1068945D02*
Y1066604D01*
X928438Y1064607D01*
X928045Y1064019D01*
X927907Y1063325D01*
Y1059135D01*
X927208D01*
Y1051711D01*
X927907D01*
Y1050210D01*
X928045Y1049516D01*
X928438Y1048928D01*
X930722Y1046645D01*
X930002Y1045568D01*
X929027Y1045972D01*
X927713D01*
X926500Y1045469D01*
X925571Y1044540D01*
X925068Y1043327D01*
Y1042278D01*
X924312Y1041782D01*
X923895Y1041655D01*
X923890Y1041659D01*
X922677Y1042162D01*
X921363D01*
X920552Y1041826D01*
X919495Y1042346D01*
X919282Y1042570D01*
Y1046284D01*
X911858D01*
Y1046284D01*
X911278Y1046252D01*
X910723Y1047493D01*
X910785Y1047555D01*
X910785Y1047555D01*
X911234Y1048227D01*
X911392Y1049020D01*
X911392Y1049020D01*
Y1068482D01*
X915258Y1072348D01*
X927032D01*
X930435Y1068945D01*
D02*
G37*
G36*
X988060Y1035050D02*
X1000743D01*
Y962738D01*
X999762Y961411D01*
X998430Y960423D01*
X985517D01*
X985047Y960228D01*
X978848D01*
X978392Y960417D01*
X974291D01*
X974231Y963211D01*
X976122Y965102D01*
Y967838D01*
X974536Y969424D01*
X975028Y972218D01*
X979462D01*
Y974431D01*
X984250D01*
X985805Y975075D01*
X992155Y981425D01*
X992799Y982980D01*
Y996950D01*
X992155Y998505D01*
X987075Y1003585D01*
X985520Y1004229D01*
X984538D01*
X983381Y1007023D01*
X984377Y1008019D01*
Y1011281D01*
X982071Y1013587D01*
X978809Y1013587D01*
X977518Y1015846D01*
X977392Y1016150D01*
Y1017778D01*
X977392Y1017778D01*
X977400Y1017989D01*
X977568Y1018295D01*
X977429Y1018776D01*
X977476Y1020064D01*
X977392Y1020266D01*
Y1021692D01*
X977559Y1022096D01*
Y1026519D01*
X978145Y1027105D01*
X978789Y1028660D01*
Y1029868D01*
X979082D01*
Y1036392D01*
X974558D01*
Y1033304D01*
X974391Y1032900D01*
Y1031016D01*
X973876Y1030550D01*
X971082Y1031788D01*
Y1036392D01*
X966558D01*
Y1033304D01*
X966391Y1032900D01*
Y1029457D01*
X964652Y1027776D01*
X964257Y1027878D01*
X962045Y1030050D01*
Y1046480D01*
X961481Y1047841D01*
X960211Y1049111D01*
X958850Y1049675D01*
X956310D01*
Y1072221D01*
X966829D01*
X972640Y1066410D01*
X973392Y1063697D01*
X972697Y1062019D01*
Y1058881D01*
X973392Y1057203D01*
X974391Y1056789D01*
Y1047360D01*
X974558Y1046956D01*
Y1043868D01*
X979082D01*
Y1050392D01*
X978789D01*
Y1056996D01*
X979287Y1057203D01*
X979983Y1058881D01*
Y1062019D01*
X979287Y1063698D01*
X978539Y1064007D01*
Y1065820D01*
X977895Y1067375D01*
X971105Y1074166D01*
X972262Y1076960D01*
X988060D01*
Y1035050D01*
D02*
G37*
G36*
X944663Y1027237D02*
X941784Y1024358D01*
X941727Y1024382D01*
X940413D01*
X939200Y1023879D01*
X938271Y1022950D01*
X937768Y1021737D01*
Y1020423D01*
X938271Y1019210D01*
X939200Y1018281D01*
X940413Y1017778D01*
X941727D01*
X942940Y1018281D01*
X943067Y1018407D01*
X944337Y1017881D01*
Y1011028D01*
X943695Y1010465D01*
X942425Y1010787D01*
X942322Y1010862D01*
X942169Y1011233D01*
X941383Y1012019D01*
X940356Y1012444D01*
X940280D01*
X940217Y1012507D01*
X939777Y1013165D01*
X939105Y1013614D01*
X938312Y1013772D01*
X937095D01*
X937085Y1013825D01*
X936600Y1014550D01*
X935875Y1015035D01*
X935019Y1015205D01*
X931881D01*
X931025Y1015035D01*
X930885Y1014941D01*
X929585Y1015034D01*
X929251Y1015260D01*
X928683Y1015829D01*
X927656Y1016254D01*
X926544D01*
X925517Y1015829D01*
X924731Y1015043D01*
X924306Y1014016D01*
Y1013617D01*
X923975Y1012775D01*
X923133Y1012444D01*
X922734D01*
X921707Y1012019D01*
X920921Y1011233D01*
X920791Y1010918D01*
X920663Y1010862D01*
X919475Y1011353D01*
Y1012641D01*
X925502Y1018668D01*
X925895Y1019256D01*
X925910Y1019335D01*
X926430Y1019551D01*
X927359Y1020480D01*
X927862Y1021693D01*
Y1023007D01*
X927359Y1024220D01*
X926430Y1025149D01*
X925330Y1025605D01*
X925074Y1026149D01*
X924851Y1026922D01*
X925268Y1027338D01*
X925661Y1027927D01*
X925757Y1028410D01*
X944177D01*
X944663Y1027237D01*
D02*
G37*
G36*
X1139952Y1022350D02*
X1138174D01*
Y1024890D01*
X1139952D01*
Y1022350D01*
D02*
G37*
G36*
X1223518Y1026033D02*
X1237742D01*
X1239520Y1023975D01*
Y1022045D01*
X1237742Y1019987D01*
X1236726Y1019987D01*
X1223518D01*
Y981633D01*
X1228431D01*
Y977458D01*
X1226693Y975721D01*
Y972459D01*
X1228999Y970153D01*
X1232261D01*
X1234567Y972459D01*
Y975721D01*
X1232829Y977458D01*
Y981633D01*
X1237742Y981633D01*
X1239520Y979575D01*
Y793750D01*
X954597D01*
Y897698D01*
X955040Y898176D01*
X955510Y898111D01*
X956310Y897587D01*
Y902647D01*
X956609D01*
X958288Y903343D01*
X958983Y905021D01*
Y906625D01*
X959339Y907114D01*
X960922Y908252D01*
X961564Y908482D01*
X961581Y908475D01*
X962113D01*
X964374Y907188D01*
X964374Y905610D01*
X965490Y904494D01*
X967069D01*
X968185Y905610D01*
X968185Y906867D01*
Y909373D01*
X969572Y910469D01*
X970990Y910904D01*
X972131Y910212D01*
X972608Y908399D01*
X972081Y906399D01*
Y897862D01*
X971633Y897677D01*
X970937Y895998D01*
Y892860D01*
X971633Y891182D01*
X971891Y891075D01*
Y886390D01*
X970788Y885288D01*
Y882552D01*
X972722Y880618D01*
X975458D01*
X977392Y882552D01*
Y885288D01*
X976289Y886390D01*
Y890669D01*
X977527Y891182D01*
X978223Y892860D01*
Y895998D01*
X980322Y898231D01*
X992922D01*
X994477Y898875D01*
X995965Y900363D01*
X996609Y901918D01*
Y917752D01*
X999403Y918707D01*
X1000662Y917448D01*
X1003398D01*
X1005332Y919382D01*
Y920598D01*
X1005556Y920822D01*
X1008072Y920574D01*
X1007673Y917837D01*
X1006977Y916159D01*
Y913621D01*
X1007673Y911943D01*
X1009351Y911247D01*
X1012489D01*
X1014167Y911943D01*
X1014800Y913471D01*
X1018610D01*
X1019712Y912368D01*
X1022448D01*
X1024382Y914302D01*
Y917038D01*
X1023123Y918297D01*
X1024078Y921091D01*
X1028700D01*
X1030255Y921735D01*
X1032795Y924275D01*
X1033439Y925830D01*
Y929908D01*
X1039722D01*
Y938114D01*
X1039722Y940432D01*
X1039722Y943226D01*
X1039722Y951432D01*
X1039722Y954226D01*
X1039722Y962432D01*
X1039722Y965226D01*
X1039722Y973432D01*
Y975343D01*
X1042516Y976296D01*
X1043579Y975233D01*
X1046841D01*
X1049147Y977539D01*
Y980801D01*
X1046841Y983107D01*
X1043579D01*
X1042516Y982044D01*
X1039722Y982997D01*
Y984432D01*
X1039722Y987226D01*
X1039722Y996933D01*
X1042516Y997886D01*
X1043579Y996823D01*
X1046841D01*
X1049147Y999129D01*
Y1002391D01*
X1046841Y1004697D01*
X1043579D01*
X1042516Y1003634D01*
X1039722Y1004587D01*
X1039722Y1006432D01*
X1039722Y1009226D01*
Y1017432D01*
X1022198D01*
Y1014389D01*
X1019368D01*
X1017631Y1016127D01*
X1014369D01*
X1012063Y1013821D01*
Y1010559D01*
X1014369Y1008253D01*
X1017631D01*
X1017997Y1008619D01*
X1021594Y1008619D01*
X1022198Y1008015D01*
Y1006908D01*
X1022198Y1004114D01*
X1022198Y995908D01*
Y994775D01*
X1021222Y993799D01*
X1018375Y993267D01*
X1016165D01*
X1014603Y991705D01*
Y989495D01*
X1016165Y987933D01*
X1018375D01*
X1021222Y987401D01*
X1022198Y986425D01*
Y983345D01*
X1021222Y982369D01*
X1018375Y981837D01*
X1016165D01*
X1014603Y980275D01*
Y978065D01*
X1016165Y976503D01*
X1018375D01*
X1021222Y975971D01*
X1022198Y974995D01*
X1022198Y971915D01*
X1020959Y970676D01*
X1017734Y970676D01*
X1017368Y971042D01*
X1014632D01*
X1012698Y969108D01*
Y966372D01*
X1014632Y964438D01*
X1017368D01*
X1017734Y964804D01*
X1020959Y964804D01*
X1022198Y963565D01*
X1022198Y960114D01*
X1022198Y951908D01*
Y950345D01*
X1020815Y948962D01*
X1017779Y949217D01*
X1016762Y950737D01*
Y951328D01*
X1014828Y953262D01*
X1012092D01*
X1010158Y951328D01*
Y948592D01*
X1011261Y947490D01*
Y944627D01*
X1010512Y944317D01*
X1009817Y942639D01*
Y939501D01*
X1010512Y937822D01*
X1012191Y937127D01*
X1012277D01*
Y934218D01*
X1011401Y932629D01*
X1010158Y931672D01*
X1008530D01*
X1008126Y931839D01*
X1001960D01*
X1000858Y932942D01*
X998122D01*
X997185Y932005D01*
X995965Y932247D01*
X994477Y933735D01*
X992959Y934364D01*
X992877Y934487D01*
X991755Y937173D01*
X992193Y938231D01*
Y941369D01*
X991989Y941860D01*
Y945388D01*
X993238D01*
X995172Y947322D01*
Y950058D01*
X993238Y951992D01*
X990502D01*
X988568Y950058D01*
Y948498D01*
X988235Y948165D01*
X987591Y946610D01*
Y943743D01*
X987281D01*
X985602Y943047D01*
X984907Y941369D01*
Y938231D01*
X985390Y937065D01*
X985473Y936215D01*
X984599Y933944D01*
X984096Y933735D01*
X980482Y930122D01*
X978681D01*
X977002Y929427D01*
X976307Y927748D01*
Y925347D01*
X970645Y919685D01*
X965786Y924545D01*
X965813Y924610D01*
Y927011D01*
X970995Y932193D01*
X971639Y933749D01*
Y935857D01*
X972039D01*
X973717Y936553D01*
X974413Y938231D01*
Y941369D01*
X973717Y943047D01*
X972039Y943743D01*
X969501D01*
X967822Y943047D01*
X965117D01*
Y943047D01*
X963439Y943743D01*
X962611Y943743D01*
X960901D01*
X959223Y943047D01*
X958965Y942981D01*
X956310Y944421D01*
Y942594D01*
X955754D01*
X954727Y942169D01*
X953941Y941383D01*
X953516Y940356D01*
Y939244D01*
X953941Y938217D01*
X954727Y937431D01*
X955754Y937006D01*
X956310D01*
Y933408D01*
X955997Y933279D01*
X955211Y932493D01*
X954786Y931466D01*
Y930614D01*
X954524Y930223D01*
X954516Y930183D01*
X952500D01*
X951806Y930045D01*
X951218Y929652D01*
X948678Y927112D01*
X948285Y926524D01*
X948147Y925830D01*
Y919670D01*
X948285Y918976D01*
X948678Y918388D01*
X951235Y915831D01*
Y913621D01*
X951405Y912765D01*
X951890Y912040D01*
X952615Y911555D01*
X953471Y911385D01*
X956310D01*
Y909795D01*
X953471D01*
X952955Y909692D01*
X952038D01*
X947415Y914315D01*
Y916159D01*
X947245Y917015D01*
X946760Y917740D01*
X946035Y918225D01*
X945179Y918395D01*
X942735D01*
X940402Y920728D01*
Y926342D01*
X942735Y928675D01*
X945179D01*
X946035Y928845D01*
X946760Y929330D01*
X947245Y930055D01*
X947415Y930911D01*
Y933449D01*
X947245Y934305D01*
X946760Y935030D01*
X946035Y935515D01*
X945482Y935625D01*
Y947075D01*
X945533Y947197D01*
Y953885D01*
X946630Y955040D01*
X956047D01*
X956310Y954931D01*
Y955303D01*
X978392D01*
X978877Y955504D01*
X985047D01*
X985517Y955309D01*
X999032D01*
X1000310Y955838D01*
X1002048D01*
Y957096D01*
X1003263Y957908D01*
X1004560Y959849D01*
X1004615Y960126D01*
X1005108Y960331D01*
X1005857Y962138D01*
Y1035050D01*
X1198118D01*
Y1031087D01*
X1190003Y1022972D01*
X1189251Y1021158D01*
X1187247Y1020142D01*
X1186375Y1019987D01*
X1172718D01*
Y1002959D01*
X1160338D01*
X1158601Y1004697D01*
X1155339D01*
X1153033Y1002391D01*
Y999236D01*
X1153033Y999129D01*
X1151612Y996599D01*
X1151233Y996442D01*
X1150522D01*
X1150020Y995939D01*
X1149363Y995667D01*
X1149091Y995010D01*
X1148588Y994508D01*
Y993797D01*
X1148316Y993140D01*
Y988169D01*
X1147947Y987279D01*
Y984741D01*
X1148530Y983335D01*
X1148643Y983063D01*
Y980358D01*
X1148530Y980085D01*
X1147947Y978679D01*
Y976141D01*
X1148643Y974463D01*
X1148693Y971612D01*
X1147124Y969939D01*
X1143389D01*
X1141619Y971175D01*
X1141222Y972521D01*
Y974188D01*
X1139288Y976122D01*
X1138362D01*
X1137514Y978916D01*
X1139433Y980198D01*
X1141207Y982853D01*
X1142091D01*
X1144397Y985159D01*
Y988421D01*
X1142091Y990727D01*
X1138829D01*
X1136523Y988421D01*
Y985159D01*
X1136147Y983400D01*
X1134356Y982623D01*
X1131722Y984324D01*
X1131722Y987226D01*
X1131722Y995432D01*
Y996585D01*
X1133698Y998561D01*
X1138174D01*
X1138578Y998728D01*
X1140004D01*
X1140206Y998644D01*
X1141606Y998696D01*
X1141730Y998644D01*
X1141878Y998706D01*
X1142492Y998728D01*
X1142492Y998728D01*
X1146556D01*
Y1002792D01*
X1142492D01*
X1142492Y1002792D01*
X1142281Y1002800D01*
X1141975Y1002968D01*
X1141494Y1002829D01*
X1140206Y1002876D01*
X1140004Y1002792D01*
X1138578D01*
X1138174Y1002959D01*
X1133698D01*
X1131722Y1004935D01*
Y1008015D01*
X1133698Y1009991D01*
X1138174D01*
X1138578Y1010158D01*
X1140004D01*
X1140206Y1010074D01*
X1141606Y1010126D01*
X1141730Y1010074D01*
X1141878Y1010135D01*
X1142492Y1010158D01*
X1142492Y1010158D01*
X1146556D01*
Y1014222D01*
X1142492D01*
X1142492Y1014222D01*
X1142281Y1014230D01*
X1141975Y1014398D01*
X1141494Y1014259D01*
X1140206Y1014306D01*
X1140004Y1014222D01*
X1138578D01*
X1138174Y1014389D01*
X1133698D01*
X1131722Y1016365D01*
X1131722Y1019445D01*
X1133698Y1021421D01*
X1137920D01*
X1138324Y1021588D01*
X1139750D01*
X1139952Y1021504D01*
X1140730Y1021826D01*
X1141476Y1022573D01*
Y1022604D01*
X1141768Y1022896D01*
X1142068Y1023620D01*
X1141768Y1024344D01*
X1141476Y1024636D01*
Y1024667D01*
X1140730Y1025414D01*
X1139952Y1025736D01*
X1139750Y1025652D01*
X1138324D01*
X1137920Y1025819D01*
X1131722D01*
Y1028432D01*
X1114198D01*
Y1020226D01*
X1114198Y1017908D01*
X1114198Y1015114D01*
X1114198Y1006908D01*
X1114198Y1004114D01*
X1114198Y995908D01*
X1114198Y993114D01*
X1114198Y984908D01*
X1114198Y982114D01*
X1114198Y973908D01*
X1114198Y971114D01*
Y962908D01*
X1131722D01*
Y963693D01*
X1133602Y965708D01*
X1135634Y965541D01*
X1136038Y965708D01*
X1137464D01*
X1137666Y965624D01*
X1139066Y965676D01*
X1139190Y965624D01*
X1139338Y965686D01*
X1139952Y965708D01*
X1139952Y965708D01*
X1141580D01*
X1141984Y965541D01*
X1148536D01*
X1148643Y965283D01*
X1150321Y964587D01*
X1153459D01*
X1155137Y965283D01*
X1155833Y966961D01*
Y969499D01*
X1155137Y971178D01*
X1154486Y971447D01*
Y974193D01*
X1155137Y974463D01*
X1155833Y976141D01*
Y978679D01*
X1155676Y979059D01*
X1157064Y981569D01*
X1158855Y981758D01*
X1161016Y979744D01*
Y975360D01*
X1162063Y972833D01*
X1165873Y969023D01*
X1168400Y967976D01*
X1189554D01*
X1192081Y969023D01*
X1195057Y971999D01*
X1195057Y971999D01*
X1196104Y974526D01*
Y979750D01*
X1198118Y981633D01*
X1198898Y981633D01*
X1203031D01*
Y976188D01*
X1201293Y974451D01*
Y971189D01*
X1203599Y968883D01*
X1206861D01*
X1209167Y971189D01*
Y974451D01*
X1207429Y976188D01*
Y981633D01*
X1212342D01*
Y1019987D01*
X1201078D01*
X1199921Y1022781D01*
X1203173Y1026033D01*
X1212342D01*
Y1035050D01*
X1223518D01*
Y1026033D01*
D02*
G37*
G36*
X976630Y1020064D02*
X974090D01*
Y1021842D01*
X976630D01*
Y1020064D01*
D02*
G37*
G36*
X969010D02*
X966470D01*
Y1021842D01*
X969010D01*
Y1020064D01*
D02*
G37*
G36*
X976630Y1016508D02*
X974090D01*
Y1018540D01*
X974344D01*
X975360Y1017524D01*
X976376Y1018540D01*
X976630D01*
Y1016508D01*
D02*
G37*
G36*
X969010D02*
X966470D01*
Y1018540D01*
X966724D01*
X967740Y1017524D01*
X968756Y1018540D01*
X969010D01*
Y1016508D01*
D02*
G37*
G36*
X893675Y1018326D02*
X894068Y1017738D01*
X897560Y1014246D01*
X897074Y1013073D01*
X895699D01*
X895591Y1013181D01*
X894611Y1013587D01*
X893549D01*
X892569Y1013181D01*
X891819Y1012431D01*
X891413Y1011451D01*
Y1010389D01*
X891819Y1009409D01*
X892569Y1008659D01*
X893549Y1008253D01*
X894611D01*
X895591Y1008659D01*
X896341Y1009409D01*
X896357Y1009447D01*
X899421D01*
X899820Y1008850D01*
X900480Y1008409D01*
X900534Y1008319D01*
X900565Y1008238D01*
X900758Y1007028D01*
X900171Y1006440D01*
X899668Y1005227D01*
Y1003913D01*
X900171Y1002700D01*
X901100Y1001771D01*
X902313Y1001268D01*
X903627D01*
X903767Y1001326D01*
X904002Y1001169D01*
X904696Y1001031D01*
X906127D01*
Y996097D01*
X906172Y995990D01*
X905200Y995018D01*
X905092Y995063D01*
X897667D01*
X897545Y995012D01*
X891535D01*
Y995189D01*
X891365Y996045D01*
X890880Y996770D01*
X890155Y997255D01*
X889299Y997425D01*
X886161D01*
X885646Y997322D01*
X882668D01*
X882182Y997808D01*
Y1007522D01*
X891735Y1017075D01*
X891735Y1017075D01*
X892184Y1017747D01*
X892342Y1018540D01*
X893612Y1018645D01*
X893675Y1018326D01*
D02*
G37*
G36*
X1143762Y1010920D02*
X1141730D01*
Y1011174D01*
X1142746Y1012190D01*
X1141730Y1013206D01*
Y1013460D01*
X1143762D01*
Y1010920D01*
D02*
G37*
G36*
X1140206D02*
X1138428D01*
Y1013460D01*
X1140206D01*
Y1010920D01*
D02*
G37*
G36*
X1143762Y999490D02*
X1141730D01*
Y999744D01*
X1142746Y1000760D01*
X1141730Y1001776D01*
Y1002030D01*
X1143762D01*
Y999490D01*
D02*
G37*
G36*
X1140206D02*
X1138428D01*
Y1002030D01*
X1140206D01*
Y999490D01*
D02*
G37*
G36*
X942318Y994907D02*
X944342D01*
X944450Y994952D01*
X945422Y993980D01*
X945377Y993873D01*
Y991848D01*
X945726Y991006D01*
X945726Y989714D01*
X945377Y988873D01*
Y986848D01*
X945726Y986006D01*
X945726Y984714D01*
X945377Y983873D01*
Y981848D01*
X945726Y981006D01*
X945726Y979714D01*
X945377Y978873D01*
Y976848D01*
X945726Y976006D01*
X945726Y974714D01*
X945377Y973873D01*
Y971848D01*
X945726Y971006D01*
X945726Y969714D01*
X945377Y968873D01*
Y966848D01*
X945726Y966006D01*
X945726Y964714D01*
X945377Y963873D01*
Y961848D01*
X945650Y961189D01*
X945726Y961006D01*
X945462Y959741D01*
X945102Y958873D01*
Y956848D01*
X944775Y956402D01*
X944156Y955813D01*
X942318D01*
X941533Y955488D01*
X941439Y955464D01*
X940221D01*
X940127Y955488D01*
X939342Y955813D01*
X937318D01*
X936533Y955488D01*
X936439Y955464D01*
X935221D01*
X935127Y955488D01*
X934342Y955813D01*
X932318D01*
X931533Y955488D01*
X931439Y955464D01*
X930221D01*
X930127Y955488D01*
X929342Y955813D01*
X927318D01*
X926533Y955488D01*
X926439Y955464D01*
X925221D01*
X925127Y955488D01*
X924342Y955813D01*
X922318D01*
X921533Y955488D01*
X921439Y955464D01*
X920221D01*
X920127Y955488D01*
X919342Y955813D01*
X917318D01*
X916533Y955488D01*
X916439Y955464D01*
X915221D01*
X915127Y955488D01*
X914342Y955813D01*
X912318D01*
X911533Y955488D01*
X911439Y955464D01*
X910221D01*
X910127Y955488D01*
X909342Y955813D01*
X907318D01*
X907210Y955768D01*
X906238Y956740D01*
X906283Y956848D01*
Y958873D01*
X905963Y959643D01*
X905934Y959714D01*
Y961006D01*
X905963Y961077D01*
X906283Y961848D01*
Y963873D01*
X905963Y964643D01*
X905934Y964714D01*
Y966006D01*
X905963Y966077D01*
X906283Y966848D01*
Y968873D01*
X905934Y969714D01*
X905934Y971006D01*
X906283Y971848D01*
Y973873D01*
X905934Y974714D01*
X905934Y976006D01*
X906283Y976848D01*
Y978873D01*
X905934Y979714D01*
X905934Y981006D01*
X906283Y981848D01*
Y983873D01*
X905934Y984714D01*
X905934Y986006D01*
X906283Y986848D01*
Y988873D01*
X905963Y989643D01*
X905934Y989714D01*
Y991006D01*
X905963Y991077D01*
X906283Y991848D01*
Y993873D01*
X906238Y993980D01*
X907210Y994952D01*
X907318Y994907D01*
X909342D01*
X910113Y995227D01*
X910184Y995256D01*
X911476D01*
X911547Y995227D01*
X912318Y994907D01*
X914342D01*
X915184Y995256D01*
X916476Y995256D01*
X917318Y994907D01*
X919342D01*
X920113Y995227D01*
X920184Y995256D01*
X921476D01*
X921546Y995227D01*
X922318Y994907D01*
X924342D01*
X925184Y995256D01*
X926476Y995256D01*
X927318Y994907D01*
X929342D01*
X930184Y995256D01*
X931476Y995256D01*
X932318Y994907D01*
X934342D01*
X935184Y995256D01*
X936476Y995256D01*
X937318Y994907D01*
X939342D01*
X940184Y995256D01*
X941476Y995256D01*
X942318Y994907D01*
D02*
G37*
G36*
X1172718Y981633D02*
X1186162D01*
X1186942Y981633D01*
X1188956Y979750D01*
Y976006D01*
X1188074Y975124D01*
X1169880D01*
X1168164Y976840D01*
Y981710D01*
X1167117Y984237D01*
X1167117Y984237D01*
X1162977Y988377D01*
X1160450Y989424D01*
X1155464D01*
Y993140D01*
X1155192Y993797D01*
Y994090D01*
X1155216Y994542D01*
X1156714Y996661D01*
X1156912Y996823D01*
X1158601D01*
X1160338Y998561D01*
X1172718D01*
Y981633D01*
D02*
G37*
G36*
X1141222Y966470D02*
X1139190D01*
Y966724D01*
X1140206Y967740D01*
X1139190Y968756D01*
Y969010D01*
X1141222D01*
Y966470D01*
D02*
G37*
G36*
X1137666D02*
X1135888D01*
Y969010D01*
X1137666D01*
Y966470D01*
D02*
G37*
G36*
X789745Y975419D02*
X789745Y975419D01*
X790417Y974970D01*
X791210Y974812D01*
X791210Y974812D01*
X792342D01*
X793202Y973988D01*
X793360Y973195D01*
X793809Y972523D01*
X796036Y970296D01*
Y966114D01*
X807339D01*
X808163Y965185D01*
Y962080D01*
X805799Y959716D01*
X805070Y958624D01*
X804813Y957336D01*
Y956357D01*
X729884D01*
X718531Y967711D01*
X717438Y968440D01*
X717198Y968488D01*
X717323Y969758D01*
X722762D01*
X727515Y965005D01*
X728187Y964556D01*
X728980Y964398D01*
X728980Y964398D01*
X786790D01*
X787087Y964101D01*
X788114Y963676D01*
X789226D01*
X790253Y964101D01*
X791039Y964887D01*
X791464Y965914D01*
Y967026D01*
X791039Y968053D01*
X790253Y968839D01*
X789226Y969264D01*
X788114D01*
X787087Y968839D01*
X786790Y968542D01*
X729838D01*
X725085Y973295D01*
X724413Y973744D01*
X723620Y973902D01*
X723620Y973902D01*
X695166D01*
X694172Y974568D01*
X694172Y975362D01*
X694172Y979092D01*
X694172Y980362D01*
Y984092D01*
X695166Y984758D01*
X780406D01*
X789745Y975419D01*
D02*
G37*
G36*
X906127Y954622D02*
Y951120D01*
X904857Y950594D01*
X903224Y952227D01*
X902527Y952693D01*
X901704Y952857D01*
X901704Y952857D01*
X897562D01*
X896739Y952693D01*
X896042Y952227D01*
X896042Y952227D01*
X893500Y949685D01*
X893034Y948988D01*
X892870Y948165D01*
X892870Y948165D01*
Y944036D01*
X892870Y944036D01*
X893034Y943213D01*
X893500Y942516D01*
X896564Y939451D01*
X896791Y938903D01*
X897577Y938117D01*
X898604Y937692D01*
X899716D01*
X900743Y938117D01*
X901529Y938903D01*
X901954Y939930D01*
Y941042D01*
X901836Y941326D01*
X902790Y942343D01*
X903094Y942282D01*
X903094Y942282D01*
X906638D01*
X907020Y941900D01*
X907020Y941900D01*
X907718Y941434D01*
X908540Y941271D01*
X909363Y941434D01*
X910060Y941900D01*
X910826Y942666D01*
X911472Y943098D01*
X913652Y945278D01*
X913652Y945278D01*
X914084Y945924D01*
X914167Y946007D01*
X914342D01*
X914988Y946275D01*
X916258Y945771D01*
Y944588D01*
X914264Y942594D01*
X913844D01*
X912817Y942169D01*
X912031Y941383D01*
X911606Y940356D01*
Y939244D01*
X912031Y938217D01*
X912817Y937431D01*
X913844Y937006D01*
X914956D01*
X915983Y937431D01*
X916769Y938217D01*
X917194Y939244D01*
X918383Y939562D01*
X918883Y938323D01*
X915475Y934915D01*
X915026Y934243D01*
X914868Y933450D01*
X914868Y933450D01*
Y921608D01*
X913478Y920218D01*
X913469Y920216D01*
X912797Y919767D01*
X912797Y919767D01*
X909772Y916742D01*
X897678D01*
Y904218D01*
X907738D01*
Y898995D01*
X907685Y898985D01*
X906960Y898500D01*
X906475Y897775D01*
X906305Y896919D01*
Y893781D01*
X906475Y892925D01*
X906960Y892200D01*
X907685Y891715D01*
X908541Y891545D01*
X911079D01*
X911935Y891715D01*
X912660Y892200D01*
X913145Y892925D01*
X913315Y893781D01*
Y896919D01*
X913145Y897775D01*
X912660Y898500D01*
X911935Y898985D01*
X911882Y898995D01*
Y904218D01*
X912202D01*
Y913312D01*
X914914Y916024D01*
X915618Y915820D01*
X916086Y915489D01*
X916138Y915431D01*
Y901510D01*
X916138Y901510D01*
X916296Y900717D01*
X916745Y900045D01*
X920565Y896225D01*
Y893781D01*
X920735Y892925D01*
X921220Y892200D01*
X921945Y891715D01*
X922801Y891545D01*
X925339D01*
X926195Y891715D01*
X926920Y892200D01*
X927405Y892925D01*
X927575Y893781D01*
Y896919D01*
X927405Y897775D01*
X926920Y898500D01*
X926195Y898985D01*
X925339Y899155D01*
X923495D01*
X920282Y902368D01*
Y914812D01*
X924755Y919285D01*
X924755Y919285D01*
X925204Y919957D01*
X925362Y920750D01*
X925362Y920750D01*
Y922218D01*
X935202D01*
X936258Y921702D01*
Y919870D01*
X936258Y919870D01*
X936416Y919077D01*
X936865Y918405D01*
X939805Y915465D01*
Y913621D01*
X939975Y912765D01*
X940460Y912040D01*
X941185Y911555D01*
X942041Y911385D01*
X944485D01*
X949714Y906156D01*
X949714Y906156D01*
X950387Y905706D01*
X951179Y905549D01*
X951235D01*
Y905021D01*
X951338Y904505D01*
Y901345D01*
X951230Y901257D01*
X950905Y901192D01*
X950573D01*
X950267Y901065D01*
X949942Y901000D01*
X949666Y900816D01*
X949360Y900689D01*
X949125Y900455D01*
X948849Y900271D01*
X948665Y899995D01*
X948431Y899760D01*
X948304Y899454D01*
X948120Y899178D01*
X948055Y898853D01*
X947928Y898547D01*
Y898215D01*
X947863Y897890D01*
Y793750D01*
X902243D01*
Y873760D01*
X902105Y874454D01*
X901712Y875042D01*
X898628Y878126D01*
X898652Y878183D01*
Y879497D01*
X898149Y880710D01*
X897220Y881639D01*
X896007Y882142D01*
X894693D01*
X893480Y881639D01*
X892551Y880710D01*
X892048Y879497D01*
Y878183D01*
X892551Y876970D01*
X893480Y876041D01*
X894693Y875538D01*
X896007D01*
X896064Y875562D01*
X898617Y873009D01*
Y793750D01*
X877102D01*
Y883062D01*
X890465Y896425D01*
X890465Y896425D01*
X890914Y897097D01*
X891072Y897890D01*
Y913791D01*
X891369Y914087D01*
X891794Y915114D01*
Y916226D01*
X891369Y917253D01*
X891072Y917550D01*
Y920818D01*
X892200Y921947D01*
X893051Y922299D01*
X893801Y923049D01*
X894207Y924029D01*
Y925090D01*
X893801Y926071D01*
X893051Y926821D01*
X892450Y927070D01*
Y928400D01*
X893051Y928649D01*
X893801Y929399D01*
X894207Y930379D01*
Y931441D01*
X893801Y932421D01*
X893612Y932610D01*
Y933392D01*
X894339Y934120D01*
X894842Y935333D01*
Y936647D01*
X894339Y937860D01*
X893410Y938789D01*
X892197Y939292D01*
X890883D01*
X890778Y939362D01*
Y943102D01*
X890559D01*
Y951484D01*
X890421Y952178D01*
X890028Y952766D01*
X888927Y953867D01*
X889413Y955040D01*
X905848D01*
X906127Y954622D01*
D02*
G37*
G36*
X888492Y939800D02*
X886714D01*
Y942340D01*
X888492D01*
Y939800D01*
D02*
G37*
G36*
X885190Y942086D02*
X884174Y941070D01*
X885190Y940054D01*
Y939800D01*
X883158D01*
Y942340D01*
X885190D01*
Y942086D01*
D02*
G37*
G36*
X884682Y929640D02*
X882904D01*
Y932180D01*
X884682D01*
Y929640D01*
D02*
G37*
G36*
X881380Y931926D02*
X880364Y930910D01*
X881380Y929894D01*
Y929640D01*
X879348D01*
Y932180D01*
X881380D01*
Y931926D01*
D02*
G37*
G36*
X851187Y928525D02*
X850932D01*
X849917Y929541D01*
X848901Y928525D01*
X848646D01*
Y930557D01*
X851187D01*
Y928525D01*
D02*
G37*
G36*
X1014222Y928370D02*
X1012444D01*
Y930910D01*
X1014222D01*
Y928370D01*
D02*
G37*
G36*
X1010920Y930656D02*
X1009904Y929640D01*
X1010920Y928624D01*
Y928370D01*
X1008888D01*
Y930910D01*
X1010920D01*
Y930656D01*
D02*
G37*
G36*
X869950Y928370D02*
X869696D01*
X868680Y929386D01*
X867664Y928370D01*
X867410D01*
Y930402D01*
X869950D01*
Y928370D01*
D02*
G37*
G36*
X861060D02*
X860806D01*
X859790Y929386D01*
X858774Y928370D01*
X858520D01*
Y930402D01*
X861060D01*
Y928370D01*
D02*
G37*
G36*
X851187Y925223D02*
X848646D01*
Y927001D01*
X851187D01*
Y925223D01*
D02*
G37*
G36*
X869950Y925068D02*
X867410D01*
Y926846D01*
X869950D01*
Y925068D01*
D02*
G37*
G36*
X861060D02*
X858520D01*
Y926846D01*
X861060D01*
Y925068D01*
D02*
G37*
G36*
X884682Y923290D02*
X882904D01*
Y925830D01*
X884682D01*
Y923290D01*
D02*
G37*
G36*
X881380Y925576D02*
X880364Y924560D01*
X881380Y923544D01*
Y923290D01*
X879348D01*
Y925830D01*
X881380D01*
Y925576D01*
D02*
G37*
G36*
X1014222Y922020D02*
X1012444D01*
Y924560D01*
X1014222D01*
Y922020D01*
D02*
G37*
G36*
X1010920Y924306D02*
X1009904Y923290D01*
X1010920Y922274D01*
Y922020D01*
X1008888D01*
Y924560D01*
X1010920D01*
Y924306D01*
D02*
G37*
G36*
X992211Y929781D02*
Y924560D01*
Y910779D01*
X989417Y909521D01*
X988423Y909933D01*
X985285D01*
X983625Y909245D01*
X980916Y911955D01*
X979361Y912599D01*
X974745D01*
X974013Y913181D01*
X974004Y913194D01*
X973472Y916291D01*
X979418Y922237D01*
X981219D01*
X982897Y922932D01*
X983593Y924610D01*
Y927011D01*
X986562Y929981D01*
X992011D01*
X992211Y929781D01*
D02*
G37*
G36*
X796426Y849630D02*
X796172D01*
X795156Y850646D01*
X794140Y849630D01*
X793886D01*
Y851662D01*
X796426D01*
Y849630D01*
D02*
G37*
G36*
X791210D02*
X790956D01*
X789940Y850646D01*
X788924Y849630D01*
X788670D01*
Y851662D01*
X791210D01*
Y849630D01*
D02*
G37*
G36*
X796426Y846328D02*
X793886D01*
Y848106D01*
X796426D01*
Y846328D01*
D02*
G37*
G36*
X791210D02*
X788670D01*
Y848106D01*
X791210D01*
Y846328D01*
D02*
G37*
%LPC*%
G36*
X810559Y1066005D02*
X807421D01*
X806565Y1065835D01*
X805840Y1065350D01*
X805355Y1064625D01*
X805345Y1064572D01*
X798684D01*
X798684Y1064572D01*
X797891Y1064414D01*
X797219Y1063965D01*
X797219Y1063965D01*
X796498Y1063244D01*
X795734D01*
X794707Y1062819D01*
X793921Y1062033D01*
X793496Y1061006D01*
Y1059894D01*
X793921Y1058867D01*
X794707Y1058081D01*
X795734Y1057656D01*
X796846D01*
X797873Y1058081D01*
X798659Y1058867D01*
X799084Y1059894D01*
Y1059970D01*
X799542Y1060428D01*
X805345D01*
X805355Y1060375D01*
X805840Y1059650D01*
X806565Y1059165D01*
X807421Y1058995D01*
X810559D01*
X811415Y1059165D01*
X812140Y1059650D01*
X812625Y1060375D01*
X812795Y1061231D01*
Y1063769D01*
X812625Y1064625D01*
X812140Y1065350D01*
X811415Y1065835D01*
X810559Y1066005D01*
D02*
G37*
G36*
Y1048225D02*
X807421D01*
X806565Y1048055D01*
X805840Y1047570D01*
X805355Y1046845D01*
X805180Y1046356D01*
X804387Y1046198D01*
X803715Y1045749D01*
X800890Y1042924D01*
X800814D01*
X799787Y1042499D01*
X799001Y1041713D01*
X798576Y1040686D01*
Y1039574D01*
X799001Y1038547D01*
X799787Y1037761D01*
X800814Y1037336D01*
X801926D01*
X802953Y1037761D01*
X803739Y1038547D01*
X804164Y1039574D01*
Y1040338D01*
X805709Y1041883D01*
X805840Y1041870D01*
X806565Y1041385D01*
X807421Y1041215D01*
X810559D01*
X811415Y1041385D01*
X812140Y1041870D01*
X812625Y1042595D01*
X812795Y1043451D01*
Y1045989D01*
X812625Y1046845D01*
X812140Y1047570D01*
X811415Y1048055D01*
X810559Y1048225D01*
D02*
G37*
G36*
X869442Y951032D02*
X859918D01*
Y948053D01*
X859254Y947920D01*
X859009Y947757D01*
X851767D01*
X851072Y947895D01*
X847934D01*
X847078Y947725D01*
X846352Y947240D01*
X845868Y946515D01*
X845698Y945659D01*
Y943121D01*
X845868Y942265D01*
X846352Y941540D01*
X847078Y941055D01*
X847934Y940885D01*
X851072D01*
X851767Y941023D01*
X860123D01*
X861411Y941280D01*
X861656Y941443D01*
X863220D01*
X863545Y941508D01*
X869442D01*
Y951032D01*
D02*
G37*
G36*
X823259Y947895D02*
X820121D01*
X819265Y947725D01*
X818540Y947240D01*
X818055Y946515D01*
X817885Y945659D01*
Y943121D01*
X818055Y942265D01*
X818540Y941540D01*
X819265Y941055D01*
X820121Y940885D01*
X823259D01*
X824115Y941055D01*
X824840Y941540D01*
X825325Y942265D01*
X825495Y943121D01*
Y945659D01*
X825325Y946515D01*
X824840Y947240D01*
X824115Y947725D01*
X823259Y947895D01*
D02*
G37*
G36*
X833585Y925794D02*
X832271D01*
X831057Y925292D01*
X830128Y924363D01*
X829626Y923149D01*
Y922235D01*
X829253Y921863D01*
X825022D01*
Y922812D01*
X819498D01*
Y917288D01*
X825022D01*
Y918237D01*
X830004D01*
X830698Y918375D01*
X831286Y918768D01*
X831873Y919355D01*
X832271Y919190D01*
X833585D01*
X834798Y919693D01*
X835727Y920622D01*
X836230Y921835D01*
Y923149D01*
X835727Y924363D01*
X834798Y925292D01*
X833585Y925794D01*
D02*
G37*
G36*
X817166Y929894D02*
X816054D01*
X815027Y929469D01*
X814241Y928683D01*
X813816Y927656D01*
Y926870D01*
X812978Y926032D01*
X812585Y925444D01*
X812447Y924750D01*
Y922812D01*
X811498D01*
Y917288D01*
X817022D01*
Y922812D01*
X817022D01*
X816997Y924082D01*
X817166Y924306D01*
X818193Y924731D01*
X818979Y925517D01*
X819404Y926544D01*
Y927656D01*
X818979Y928683D01*
X818193Y929469D01*
X817166Y929894D01*
D02*
G37*
G36*
X808276Y933704D02*
X807164D01*
X806137Y933279D01*
X805351Y932493D01*
X804926Y931466D01*
Y930654D01*
X804585Y930144D01*
X804447Y929450D01*
Y922812D01*
X803498D01*
Y917288D01*
X809022D01*
Y922812D01*
X808073D01*
Y928116D01*
X808276D01*
X809303Y928541D01*
X810089Y929327D01*
X810514Y930354D01*
Y931466D01*
X810089Y932493D01*
X809303Y933279D01*
X808276Y933704D01*
D02*
G37*
G36*
X747417Y922782D02*
X746103D01*
X744890Y922279D01*
X743961Y921350D01*
X743458Y920137D01*
Y918823D01*
X743961Y917610D01*
X744890Y916681D01*
X744947Y916657D01*
Y914287D01*
X744635Y914225D01*
X744234Y913957D01*
X732790D01*
X731502Y913700D01*
X730409Y912971D01*
X725329Y907891D01*
X724600Y906798D01*
X724343Y905510D01*
Y897382D01*
X718312D01*
Y880618D01*
X735076D01*
Y897382D01*
X731077D01*
Y904116D01*
X734184Y907223D01*
X744234D01*
X744635Y906955D01*
X745491Y906785D01*
X748029D01*
X748885Y906955D01*
X749610Y907440D01*
X750095Y908165D01*
X750265Y909021D01*
Y912159D01*
X750095Y913015D01*
X749610Y913740D01*
X748885Y914225D01*
X748573Y914287D01*
Y916657D01*
X748630Y916681D01*
X749559Y917610D01*
X750062Y918823D01*
Y920137D01*
X749559Y921350D01*
X748630Y922279D01*
X747417Y922782D01*
D02*
G37*
G36*
X812422Y905042D02*
X812422Y905042D01*
X800318D01*
X799525Y904884D01*
X798853Y904435D01*
X798853Y904435D01*
X797365Y902947D01*
X796916Y902275D01*
X796758Y901482D01*
X796758Y901482D01*
Y898812D01*
X795498D01*
Y893288D01*
X801022D01*
Y898812D01*
X800902D01*
Y900624D01*
X801176Y900898D01*
X811564D01*
X811838Y900624D01*
Y898812D01*
X811498D01*
Y893288D01*
X817022D01*
Y898812D01*
X815982D01*
Y901482D01*
X815824Y902275D01*
X815375Y902947D01*
X815375Y902947D01*
X813887Y904435D01*
X813215Y904884D01*
X812422Y905042D01*
D02*
G37*
G36*
X922232Y1059135D02*
X917208D01*
Y1051711D01*
X922232D01*
Y1059135D01*
D02*
G37*
G36*
X1131722Y951432D02*
X1114198D01*
Y940908D01*
X1131722D01*
Y943951D01*
X1151890D01*
X1152110Y944042D01*
X1154552Y944042D01*
X1157290Y944042D01*
X1157510Y943951D01*
X1157545Y943965D01*
X1165698D01*
X1166750Y944401D01*
X1166902D01*
X1172955Y943197D01*
X1179095Y939094D01*
X1183198Y932954D01*
X1184425Y926785D01*
X1183981Y925712D01*
Y904853D01*
X1180065Y903232D01*
X1177029Y900195D01*
X1175385Y896227D01*
Y891933D01*
X1177029Y887965D01*
X1180065Y884929D01*
X1184033Y883285D01*
X1188327D01*
X1192295Y884929D01*
X1195331Y887965D01*
X1196975Y891933D01*
Y896227D01*
X1195331Y900195D01*
X1192295Y903232D01*
X1188379Y904853D01*
Y925712D01*
X1187735Y927267D01*
X1187686Y927287D01*
X1187138Y931452D01*
X1184922Y936802D01*
X1181397Y941396D01*
X1176803Y944921D01*
X1171454Y947137D01*
X1168475Y947529D01*
Y947957D01*
X1166730D01*
X1165713Y948378D01*
X1165678Y948364D01*
X1157524D01*
X1157270Y948258D01*
X1154848Y948258D01*
X1152110Y948258D01*
X1151890Y948349D01*
X1131722D01*
Y951432D01*
D02*
G37*
%LPD*%
D11*
X1151890Y986010D02*
Y993140D01*
Y986010D02*
X1152050Y985850D01*
X1160450D01*
X1164590Y981710D01*
Y975360D02*
Y981710D01*
Y975360D02*
X1168400Y971550D01*
X1189554D01*
X1192530Y974526D02*
Y1020445D01*
X1189554Y971550D02*
X1192530Y974526D01*
X1205230Y1033145D02*
Y1045210D01*
X1192530Y1020445D02*
X1205230Y1033145D01*
X902970Y1026160D02*
Y1035050D01*
X897890Y1040130D02*
X902970Y1035050D01*
X951230Y744850D02*
Y897890D01*
X811530Y1005305D02*
X812395Y1006170D01*
X811530Y982400D02*
Y1005305D01*
X812395Y1006170D02*
X815015D01*
X808554Y979424D02*
X811530Y982400D01*
X801942Y979424D02*
X808554D01*
X801687Y979170D02*
X801942Y979424D01*
X820856Y998220D02*
X834390D01*
X817880Y965200D02*
X821690Y961390D01*
X816610Y1026775D02*
X817225Y1026160D01*
X817880Y965200D02*
Y995244D01*
X817225Y1026160D02*
X835224D01*
X822350Y1029235D02*
Y1036320D01*
X821690Y961390D02*
X826960D01*
X817880Y995244D02*
X820856Y998220D01*
X687660Y965330D02*
X716150D01*
X728490Y952990D01*
X807720D01*
X854830Y961270D02*
X864680D01*
X852170Y963930D02*
X854830Y961270D01*
X838200Y1002030D02*
Y1023184D01*
X835224Y1026160D02*
X838200Y1023184D01*
X834390Y998220D02*
X838200Y1002030D01*
X835360Y952990D02*
X835660D01*
X826960Y961390D02*
X835360Y952990D01*
X836120Y943930D02*
X838200Y941850D01*
Y935990D02*
Y941850D01*
X835660Y944390D02*
X835960D01*
X836120Y944230D01*
Y943930D02*
Y944230D01*
X839140Y944550D02*
X847420Y952830D01*
X849342D01*
X849502Y952990D01*
X860123Y944390D02*
X860543Y944810D01*
X863220D02*
X864680Y946270D01*
X860543Y944810D02*
X863220D01*
X849502Y944390D02*
X860123D01*
X772160Y910590D02*
X777240Y905510D01*
X755360Y910590D02*
X772160D01*
X726694Y889000D02*
X727710Y890016D01*
Y905510D01*
X732790Y910590D01*
X746760D01*
X727710Y1060450D02*
Y1073150D01*
Y1060450D02*
X736600Y1051560D01*
X748810D01*
X822350Y1070680D02*
Y1074280D01*
X826300Y1078230D01*
X830580D01*
X680098Y1012870D02*
X687200D01*
X664210Y1003300D02*
X670527D01*
X687200Y1012870D02*
X687660Y1013330D01*
X670527Y1003300D02*
X680098Y1012870D01*
X855980Y1059960D02*
X856280D01*
X851090Y1037590D02*
X855680Y1042180D01*
X855980D01*
X848360Y1037590D02*
X851090D01*
X841350Y1068530D02*
X841810Y1068070D01*
X848360D01*
X841350Y1068530D02*
Y1070680D01*
X855980Y1050780D02*
Y1059960D01*
X822350Y1036320D02*
X824890Y1033780D01*
X838374D02*
X841350Y1036756D01*
Y1047680D01*
X824890Y1033780D02*
X838374D01*
X822350Y1036320D02*
Y1047680D01*
X816610Y1036320D02*
X822350D01*
X855980Y1068560D02*
Y1074420D01*
X828414Y1059180D02*
X845820D01*
X846600Y1059960D01*
X855980D01*
X795020Y1052830D02*
X795510Y1053320D01*
X808990D01*
X812180Y1053480D02*
X817880Y1059180D01*
X828414D02*
X831390Y1056204D01*
Y1048140D02*
Y1056204D01*
X817880Y1059180D02*
X828414D01*
X831390Y1048140D02*
X831850Y1047680D01*
X816610Y1026775D02*
X819890D01*
X822350Y1029235D01*
X815015Y1006170D02*
X815955Y1007110D01*
X808180Y953150D02*
Y957336D01*
X807720Y952990D02*
X808020D01*
X808180Y953150D01*
X811530Y960686D02*
Y976194D01*
X808808Y978916D02*
X811530Y976194D01*
X808180Y957336D02*
X811530Y960686D01*
X675608Y970280D02*
X680098Y965790D01*
X673100Y970280D02*
X675608D01*
X680098Y965790D02*
X687200D01*
X687660Y965330D01*
D13*
X1132840Y979170D02*
G03*
X1140460Y986790I0J7620D01*
G01*
X1186180Y925712D02*
G03*
X1165713Y946179I-20467J0D01*
G01*
X1151400Y967740D02*
G03*
X1151890Y968230I0J490D01*
G01*
X974280Y894429D02*
Y900414D01*
X974090Y893939D02*
X974580Y894429D01*
X974090Y883920D02*
Y893939D01*
X1002374Y920750D02*
X1004914Y923290D01*
X1002030Y920750D02*
X1002374D01*
X1179780Y1000760D02*
X1179830Y1000810D01*
X1156970Y1000760D02*
X1179780D01*
X1122960Y979170D02*
X1132840D01*
X1037690Y1000760D02*
X1045210D01*
X1186180Y894080D02*
Y925712D01*
X952832Y1004821D02*
X956720D01*
X957739Y1005840D02*
X959843D01*
X952540Y1004530D02*
X952832Y1004821D01*
X956720D02*
X957739Y1005840D01*
X959843D02*
X963440Y1002243D01*
Y1002030D02*
Y1002243D01*
X891540Y930910D02*
Y935990D01*
X849917Y931319D02*
X851309D01*
X921231Y941029D02*
X923330Y943128D01*
Y950910D01*
X962109Y997669D02*
Y1000699D01*
X958903Y994463D02*
X962109Y997669D01*
Y1000699D02*
X963440Y1002030D01*
X958850Y994463D02*
X958903D01*
X950360Y987940D02*
X957362D01*
X958850Y989428D01*
Y994463D01*
X999490Y929640D02*
X1008126D01*
X994410Y924560D02*
X999490Y929640D01*
X909320Y1049020D02*
Y1069340D01*
X898376Y1040616D02*
X900916D01*
X909320Y1049020D01*
X1230630Y1045210D02*
Y1071880D01*
X1135634Y971296D02*
X1137158Y972820D01*
X1137920D01*
X1135634Y967740D02*
Y971296D01*
X1030940Y1012190D02*
X1030960Y1012170D01*
X1016000Y1012190D02*
X1030940D01*
X1016000Y967740D02*
X1030530D01*
X1013460Y941283D02*
X1014476Y940267D01*
X889000Y897890D02*
Y915670D01*
X875030Y883920D02*
X889000Y897890D01*
X875030Y744850D02*
Y883920D01*
X976630Y754400D02*
X1003280Y781050D01*
X976630Y744850D02*
Y754400D01*
X1003280Y781050D02*
X1003300D01*
X1007110Y749930D02*
Y765810D01*
X1002030Y744850D02*
X1007110Y749930D01*
Y765810D02*
X1022350Y781050D01*
X1027430Y765810D02*
X1042670Y781050D01*
X1027430Y744850D02*
Y765810D01*
X1052830Y770890D02*
X1062990Y781050D01*
X1052830Y744850D02*
Y770890D01*
X1078230Y775970D02*
X1083310Y781050D01*
X1078230Y744850D02*
Y775970D01*
X1103630Y744850D02*
Y781050D01*
X1129030Y744850D02*
Y777240D01*
X1123950Y782320D02*
X1129030Y777240D01*
X1144270Y781050D02*
X1154430Y770890D01*
Y744850D02*
Y770890D01*
X1179830Y744850D02*
Y767080D01*
X1164590Y782320D02*
X1179830Y767080D01*
X1205230Y744850D02*
Y767080D01*
X1198880Y773430D02*
X1205230Y767080D01*
X1030960Y1001170D02*
X1037690Y1000760D01*
X1141984Y967740D02*
X1151400D01*
X1151890Y968230D02*
Y977410D01*
X1230630Y974090D02*
Y1000810D01*
X1030960Y979170D02*
X1045210D01*
X1165698Y946164D02*
X1165713Y946179D01*
X1157510Y946150D02*
X1157524Y946164D01*
X1165698D01*
X1122980Y946150D02*
X1151890D01*
X1122960Y946170D02*
X1122980Y946150D01*
X1017270Y979170D02*
X1030960D01*
X1030530Y990600D02*
X1030960Y990170D01*
X1017270Y990600D02*
X1030530D01*
Y967740D02*
X1030960Y968170D01*
X1122960Y1001170D02*
X1123370Y1000760D01*
X1138174D01*
X1122960Y1023170D02*
X1123410Y1023620D01*
X1137920D01*
X1122980Y1012190D02*
X1138174D01*
X1122960Y1012170D02*
X1122980Y1012190D01*
X1205230Y972820D02*
Y1000810D01*
X990600Y985520D02*
Y996950D01*
X972040Y1002030D02*
X985520D01*
X990600Y996950D01*
X1014476Y929640D02*
Y940267D01*
X1013460Y941283D02*
Y949960D01*
X1018347Y946170D02*
X1030960D01*
X1013460Y941283D02*
X1018347Y946170D01*
X1010920Y914890D02*
X1011700Y915670D01*
X1021080D01*
X1030960Y935170D02*
X1031240Y934890D01*
Y925830D02*
Y934890D01*
X1028700Y923290D02*
X1031240Y925830D01*
X1014476Y923290D02*
X1028700D01*
X1004914D02*
X1008126D01*
X989790Y941040D02*
Y946610D01*
X991870Y948690D01*
X988550Y939800D02*
X989790Y941040D01*
X966470Y1009994D02*
X967740Y1011264D01*
X952540Y1004530D02*
X952884D01*
X966470Y1009650D02*
Y1009994D01*
X687540Y996950D02*
X687660Y996830D01*
X673100Y995462D02*
X674588Y996950D01*
X687540D01*
X675600Y986830D02*
X687660D01*
X673100Y989330D02*
Y995462D01*
Y989330D02*
X675600Y986830D01*
X793786Y976884D02*
X795274Y975396D01*
X791210Y976884D02*
X793786D01*
X799592Y969670D02*
X801687D01*
X795274Y973988D02*
Y975396D01*
Y973988D02*
X799592Y969670D01*
X687640Y991850D02*
X687660Y991830D01*
X678200Y991850D02*
X687640D01*
X678180Y991870D02*
X678200Y991850D01*
X675640Y982980D02*
X676790Y981830D01*
X687660D01*
X795402Y984480D02*
X799592Y988670D01*
X801687D01*
X795402Y982944D02*
Y984480D01*
X793914Y981456D02*
X795402Y982944D01*
X791455Y981456D02*
X793914D01*
X781264Y986830D02*
X791210Y976884D01*
X687660Y991830D02*
X781081D01*
X791455Y981456D01*
X687660Y986830D02*
X781264D01*
X788126Y1001830D02*
X789596Y1003300D01*
X789940D01*
X687660Y1001830D02*
X788126D01*
X728980Y966470D02*
X788670D01*
X723620Y971830D02*
X728980Y966470D01*
X687660Y971830D02*
X723620D01*
X975360Y1022096D02*
Y1027430D01*
X976590Y1028660D01*
Y1032900D02*
X976820Y1033130D01*
X976590Y1028660D02*
Y1032900D01*
X967740Y1022096D02*
Y1027430D01*
X968590Y1028280D01*
Y1032900D02*
X968820Y1033130D01*
X968590Y1028280D02*
Y1032900D01*
X859790Y894080D02*
X871514D01*
X853698D02*
X859790D01*
Y886950D02*
Y894080D01*
X859300Y886460D02*
X859790Y886950D01*
X890270Y1018540D02*
Y1054100D01*
X895350Y1059180D01*
X880110Y1008380D02*
X890270Y1018540D01*
X880110Y996950D02*
Y1008380D01*
X881809Y995251D02*
X886399D01*
X880110Y996950D02*
X881809Y995251D01*
X886399D02*
X887730Y993920D01*
X953409Y900069D02*
Y904872D01*
X951230Y897890D02*
X953409Y900069D01*
X954827Y906290D02*
X955040D01*
X953409Y904872D02*
X954827Y906290D01*
X994410Y924560D02*
Y930692D01*
Y901918D02*
Y924560D01*
X990600Y982980D02*
Y985520D01*
X984250D02*
X990600D01*
X984250Y976630D02*
X990600Y982980D01*
X976150Y976630D02*
X984250D01*
X966950Y967958D02*
X967952Y966956D01*
X972334D02*
X972820Y966470D01*
X967952Y966956D02*
X972334D01*
X992922Y932180D02*
X994410Y930692D01*
X985651Y932180D02*
X992922D01*
X979950Y926479D02*
X985651Y932180D01*
X796290Y1060450D02*
X796634D01*
X798684Y1062500D02*
X808990D01*
X796634Y1060450D02*
X798684Y1062500D01*
X855980Y1050780D02*
X871220D01*
X864380Y1042180D02*
X871220D01*
X856223Y1034023D02*
X864380Y1042180D01*
X856223Y1030213D02*
Y1034023D01*
X855980Y1029970D02*
X856223Y1030213D01*
X897890Y1040130D02*
X898376Y1040616D01*
X909320Y1069340D02*
X914400Y1074420D01*
X933940Y1068070D02*
Y1068370D01*
X927890Y1074420D02*
X933940Y1068370D01*
X914400Y1074420D02*
X927890D01*
X902970Y1020300D02*
Y1026160D01*
X972820Y1009994D02*
X975360Y1012534D01*
X972820Y1009650D02*
Y1009994D01*
X975360Y1012534D02*
Y1015746D01*
X967740Y1011264D02*
Y1015746D01*
X979117Y1009407D02*
X980197D01*
X980440Y1009650D01*
X972040Y1002030D02*
Y1002330D01*
X979117Y1009407D01*
X972040Y990600D02*
Y1002030D01*
X965462Y966470D02*
X966950Y967958D01*
Y976630D01*
X958850Y966470D02*
X965462D01*
X958850Y964348D02*
Y966470D01*
X950280Y962860D02*
X957362D01*
X958850Y964348D01*
X957460Y967860D02*
X958850Y966470D01*
X950280Y967860D02*
X957460D01*
X871220Y934720D02*
X873760Y937260D01*
Y938530D01*
X854710Y934720D02*
X871220D01*
X851309Y931319D02*
X854710Y934720D01*
X951230Y992940D02*
Y995680D01*
X950280Y992860D02*
X951150D01*
X951230Y992940D01*
Y995680D02*
X955040Y999490D01*
X852170Y910590D02*
X852210Y910630D01*
Y914654D01*
X805180Y1044284D02*
X808554D01*
X808990Y1044720D01*
X801370Y1040130D02*
Y1040474D01*
X805180Y1044284D01*
X771906Y1060196D02*
Y1066800D01*
X763270Y1051560D02*
X771906Y1060196D01*
Y1066800D02*
X778256Y1073150D01*
X757410Y1051560D02*
X763270D01*
X969439Y938469D02*
X970770Y939800D01*
X962170Y926179D02*
Y926479D01*
X969439Y933749D01*
Y938469D01*
X974280Y900414D02*
Y906399D01*
Y900414D02*
X974296Y900430D01*
X992922D02*
X994410Y901918D01*
X974296Y900430D02*
X992922D01*
X979950Y926179D02*
Y926479D01*
X986854Y922058D02*
X987219Y922423D01*
Y924849D02*
X988550Y926179D01*
X987219Y922423D02*
Y924849D01*
X971011Y916940D02*
X979950Y925879D01*
Y926179D01*
X970280Y916940D02*
X971011D01*
X970280Y914400D02*
Y916940D01*
X962802Y924418D02*
X970280Y916940D01*
X943910Y914890D02*
X951179Y907621D01*
X953709D01*
X955040Y906290D01*
X943610Y914890D02*
X943910D01*
X798260Y920050D02*
Y930340D01*
X800100Y932180D01*
X806355Y887825D02*
Y895955D01*
Y887825D02*
X806450Y887730D01*
X806260Y896050D02*
X806355Y895955D01*
X798830Y896620D02*
Y901482D01*
X800318Y902970D01*
X812422D01*
X798260Y896050D02*
X798830Y896620D01*
X812422Y902970D02*
X813910Y901482D01*
Y896400D02*
Y901482D01*
Y896400D02*
X814260Y896050D01*
X938330Y927200D02*
Y950910D01*
Y919870D02*
Y927200D01*
X943310Y932180D02*
X943610D01*
X938330Y927200D02*
X943310Y932180D01*
X950280Y987860D02*
X950360Y987940D01*
X902970Y1020300D02*
X915670D01*
X939800Y1009650D02*
Y1009994D01*
X938312Y1011482D02*
Y1011700D01*
X933450D02*
X938312D01*
Y1011482D02*
X939800Y1009994D01*
X933940Y1068070D02*
X946930D01*
X976590Y1047360D02*
Y1060200D01*
X976340Y1060450D02*
X976590Y1060200D01*
Y1047360D02*
X976820Y1047130D01*
X968590Y1047360D02*
X968820Y1047130D01*
X968590Y1047360D02*
Y1059600D01*
X967740Y1060450D02*
X968590Y1059600D01*
X976340Y1060450D02*
Y1065820D01*
X967740Y1074420D02*
X976340Y1065820D01*
X949960Y1074420D02*
X967740D01*
X948261Y1072721D02*
X949960Y1074420D01*
X946930Y1068070D02*
X948261Y1069401D01*
Y1072721D01*
X966688Y1061502D02*
X967740Y1060450D01*
X966688Y1061502D02*
Y1066582D01*
X965200Y1068070D02*
X966688Y1066582D01*
X955530Y1068070D02*
X965200D01*
X871514Y894080D02*
X874834Y897400D01*
X875221D01*
X852210Y895568D02*
Y898906D01*
Y895568D02*
X853698Y894080D01*
X846709Y901653D02*
Y901780D01*
X845820Y900764D02*
X846709Y901653D01*
Y901780D02*
X846836D01*
X845820Y890270D02*
Y900764D01*
Y890270D02*
X849630Y886460D01*
X859300D01*
X884936Y930910D02*
X891540D01*
X884936Y924560D02*
X891540D01*
X914400Y939800D02*
X918330Y943730D01*
Y950910D01*
X924560Y937260D02*
X928330Y941030D01*
Y950910D01*
X920750Y937260D02*
X924560D01*
X916940Y933450D02*
X920750Y937260D01*
X916940Y920750D02*
Y933450D01*
X889000Y921676D02*
X891540Y924216D01*
X889000Y915670D02*
Y921676D01*
X891540Y924216D02*
Y924560D01*
X905440Y910480D02*
X905580D01*
X887730Y993920D02*
X888710Y992940D01*
X901300D02*
X901380Y992860D01*
X888710Y992940D02*
X901300D01*
X923290Y920750D02*
Y924250D01*
X927520Y928480D02*
X928440D01*
X923290Y924250D02*
X927520Y928480D01*
X918210Y901510D02*
Y915670D01*
X923290Y920750D01*
X914262Y918302D02*
X914492D01*
X916940Y920750D01*
X905580Y910480D02*
X906440D01*
X918210Y901510D02*
X924070Y895650D01*
Y895350D02*
Y895650D01*
X909810Y895350D02*
Y906250D01*
X905580Y910480D02*
X909810Y906250D01*
X906440Y910480D02*
X914262Y918302D01*
X928370Y928550D02*
X928440Y928480D01*
X928370Y928550D02*
Y934720D01*
X933330Y939680D02*
Y950910D01*
X928370Y934720D02*
X933330Y939680D01*
X943310Y914890D02*
X943610D01*
X938330Y919870D02*
X943310Y914890D01*
X943410Y932380D02*
Y950830D01*
X943330Y950910D02*
X943410Y950830D01*
X950280Y962860D02*
X950360Y962780D01*
X933390Y1011640D02*
X933450Y1011700D01*
X933330Y999810D02*
X933390Y999870D01*
Y1011640D01*
X982980Y906780D02*
X986365D01*
X986854Y906290D01*
X986365Y914400D02*
X986854Y914890D01*
Y922058D01*
X974280Y914400D02*
X986365D01*
X970280Y906399D02*
Y910399D01*
X974280Y914400D01*
X979361Y910399D02*
X982980Y906780D01*
X974280Y910399D02*
X979361D01*
X967311Y900001D02*
X970280Y902970D01*
Y906399D01*
X967311Y895156D02*
Y900001D01*
D17*
X830004Y920050D02*
X832447Y922492D01*
X822260Y920050D02*
X830004D01*
X832447Y922492D02*
X832928D01*
X857210Y914654D02*
X857264Y914600D01*
Y908901D02*
X857319Y908847D01*
X857264Y908901D02*
Y914600D01*
X859536Y930910D02*
X859790Y931164D01*
X855669Y928352D02*
X858227Y930910D01*
X859536D01*
X855188Y928352D02*
X855669D01*
X849917Y925223D02*
X851761D01*
X879141Y937815D02*
X882396Y941070D01*
X878693Y934966D02*
X879141Y935413D01*
X878693Y931017D02*
Y934966D01*
X879141Y935413D02*
Y937815D01*
X878586Y930910D02*
X878693Y931017D01*
X890820Y969010D02*
X891970Y967860D01*
X890270Y969010D02*
X890820D01*
X891970Y967860D02*
X901380D01*
X895350Y1019020D02*
Y1029970D01*
Y1019020D02*
X902670Y1011700D01*
X856100Y988421D02*
X858520Y986001D01*
X856100Y988421D02*
Y997150D01*
X858520Y985520D02*
Y986001D01*
X885150Y972860D02*
X901380D01*
X872490Y985520D02*
X885150Y972860D01*
X924220Y1019950D02*
Y1022010D01*
X915970Y1011700D02*
X924220Y1019950D01*
X915670Y1011700D02*
X915970D01*
X924220Y1022010D02*
X924560Y1022350D01*
X933450Y1020300D02*
Y1026160D01*
X907669Y1037971D02*
X908050Y1037590D01*
X907669Y1037971D02*
Y1042289D01*
X909320Y1043940D01*
X920454Y1032857D02*
Y1036813D01*
X922020Y1038379D02*
Y1038860D01*
X920454Y1036813D02*
X922020Y1038379D01*
X919720Y1032122D02*
X920454Y1032857D01*
X928710Y1042330D02*
X932520D01*
X924640Y1047830D02*
Y1055342D01*
X924560Y1047750D02*
X924640Y1047830D01*
X932520Y1042330D02*
X934720Y1040130D01*
X928370Y1042670D02*
X928710Y1042330D01*
X923986Y1031388D02*
X924720Y1032122D01*
X923986Y1028620D02*
Y1031388D01*
X912341Y1027430D02*
X922796D01*
X923986Y1028620D01*
X924640Y1055342D02*
X925030Y1055732D01*
X938664Y1002844D02*
X939344D01*
X938330Y999810D02*
Y1002510D01*
X938664Y1002844D01*
X946150Y1009650D02*
Y1019810D01*
X939344Y1002844D02*
X946150Y1009650D01*
X953870Y1021461D02*
Y1043773D01*
Y1021461D02*
X956310Y1019021D01*
Y1018540D02*
Y1019021D01*
X961390Y1023620D02*
Y1026160D01*
X960120Y1027430D02*
X961390Y1026160D01*
X960120Y1027430D02*
Y1046480D01*
X944880Y1043940D02*
X948690Y1047750D01*
X958850D02*
X960120Y1046480D01*
X944800Y1032203D02*
Y1038780D01*
X948690Y1047750D02*
X958850D01*
X944880Y1038860D02*
Y1043940D01*
X944800Y1038780D02*
X944880Y1038860D01*
X944720Y1032122D02*
X944800Y1032203D01*
X943330Y1002510D02*
X953010Y1012190D01*
X957580D01*
X948690Y939800D02*
X948944Y939546D01*
Y934847D02*
X949960Y933831D01*
Y929630D02*
Y933831D01*
X948944Y934847D02*
Y939546D01*
X943910Y923580D02*
X949960Y929630D01*
X957755Y894255D02*
X965805D01*
X957580Y894080D02*
X957755Y894255D01*
X895350Y878840D02*
X900430Y873760D01*
Y744850D02*
Y873760D01*
X888746Y941070D02*
Y951484D01*
X882650Y957580D02*
X888746Y951484D01*
X886460Y960120D02*
Y965200D01*
X888720Y957860D02*
X901380D01*
X886460Y960120D02*
X888720Y957860D01*
X891540Y962660D02*
X891640Y962760D01*
X901280D02*
X901380Y962860D01*
X891640Y962760D02*
X901280D01*
X861100Y990560D02*
X886460Y965200D01*
X946150Y1019810D02*
X948690Y1022350D01*
X943330Y999810D02*
Y1002510D01*
X868934Y924560D02*
X873760D01*
X868680Y924814D02*
X868934Y924560D01*
X861314Y923290D02*
X862584D01*
X859790Y924814D02*
X861314Y923290D01*
X862584D02*
X867410Y918464D01*
X902530Y1011260D02*
X902970Y1011700D01*
X894080Y1010920D02*
X894420Y1011260D01*
X902530D01*
X979170Y986790D02*
Y996950D01*
X975360Y982980D02*
X979170Y986790D01*
X963440Y990600D02*
X963930Y991090D01*
X979950Y939800D02*
Y950450D01*
X979170Y951230D02*
X979950Y950450D01*
X746760Y910590D02*
Y919480D01*
X965490Y982980D02*
X975360D01*
X961390D02*
X963440Y985030D01*
Y985030D02*
X965490Y982980D01*
X950400D02*
X961390D01*
X963440Y985030D02*
Y985030D01*
Y990600D01*
X851761Y925223D02*
X856234Y920750D01*
X858774D02*
X862584Y916940D01*
X856234Y920750D02*
X858774D01*
X938330Y999810D02*
X938664Y1000144D01*
X854630Y901780D02*
X862584D01*
X847090Y906526D02*
X849884D01*
X846836Y906780D02*
X847090Y906526D01*
X849884D02*
X854630Y901780D01*
X873760Y924560D02*
X875030Y923290D01*
X862584Y911780D02*
Y916940D01*
X875030D02*
Y923290D01*
X861100Y990560D02*
Y997150D01*
X925830Y975360D02*
Y979170D01*
X932180Y985520D01*
X978392Y957860D02*
X978399Y957866D01*
X950280Y957860D02*
X950285Y957855D01*
X862584Y901780D02*
X866220D01*
X965805Y894255D02*
X965980Y894429D01*
X970770Y926179D02*
Y926255D01*
X972679Y928163D02*
X972754D01*
X970770Y926255D02*
X972679Y928163D01*
X972754D02*
X978522Y933932D01*
Y938372D01*
X957560Y972840D02*
X957580Y972820D01*
X950280Y972860D02*
X950300Y972840D01*
X957560D01*
X956199Y928370D02*
Y929529D01*
X957580Y930910D01*
X950300Y977880D02*
X957560D01*
X950280Y977860D02*
X950300Y977880D01*
X957560D02*
X957580Y977900D01*
X978522Y938372D02*
X979950Y939800D01*
X933265Y906290D02*
X943610D01*
X932670Y906885D02*
X933265Y906290D01*
X943610Y923580D02*
X943910D01*
X949960Y919670D02*
X954740Y914890D01*
X949960Y919670D02*
Y925830D01*
X954740Y914890D02*
X955040D01*
X949960Y925830D02*
X952500Y928370D01*
X956199D01*
X957390Y923290D02*
Y927180D01*
X956199Y928370D02*
X957390Y927180D01*
X953770Y923290D02*
X960120Y916940D01*
X956310Y939800D02*
X962170D01*
X957390Y923290D02*
X966280Y914400D01*
X960120Y911860D02*
Y916940D01*
X961581Y910399D02*
X966280D01*
X960120Y911860D02*
X961581Y910399D01*
X839470Y920750D02*
X849630Y930910D01*
X839470Y913260D02*
Y920750D01*
X822260Y896050D02*
X839470Y913260D01*
X949960Y1051560D02*
Y1055182D01*
X949720Y1055423D02*
X949960Y1055182D01*
X948690Y1050290D02*
X949960Y1051560D01*
X944880Y1050290D02*
X948690D01*
X939800Y1045210D02*
X944880Y1050290D01*
X939720Y1032122D02*
Y1040210D01*
X929720Y1050210D02*
Y1055423D01*
Y1050210D02*
X939720Y1040210D01*
Y1055423D02*
X939760Y1055383D01*
Y1050330D02*
X939800Y1050290D01*
X939760Y1050330D02*
Y1055383D01*
X950280Y982860D02*
X950400Y982980D01*
X910590Y1026160D02*
X911071D01*
X912341Y1027430D01*
X878713Y920877D02*
X878840Y920750D01*
X878586Y924560D02*
X878713Y924433D01*
Y920877D02*
Y924433D01*
X895350Y891540D02*
X895933Y892123D01*
Y894663D01*
X896620Y895350D01*
X873073Y908148D02*
X873494Y907728D01*
X873073Y908148D02*
Y912547D01*
X872490Y913130D02*
X873073Y912547D01*
X875146Y906000D02*
X875221D01*
X873494Y907652D02*
X875146Y906000D01*
X873494Y907652D02*
Y907728D01*
X875030Y916940D02*
X881380Y910590D01*
X806260Y929450D02*
X807720Y930910D01*
X806260Y920050D02*
Y929450D01*
X866183Y928667D02*
X868680Y931164D01*
X864829Y928667D02*
X866183D01*
X864489Y928326D02*
X864829Y928667D01*
X814260Y920050D02*
Y924750D01*
X816610Y927100D01*
X928330Y999810D02*
Y1012230D01*
X927100Y1013460D02*
X928330Y1012230D01*
X934720Y1032122D02*
Y1040130D01*
X902670Y1011700D02*
X902970D01*
X909320Y1043940D02*
X915403D01*
X915570Y1043773D01*
X948986Y1028996D02*
Y1031388D01*
X941410Y1021420D02*
X948986Y1028996D01*
X908330Y999810D02*
Y1002510D01*
X907996Y1002844D02*
X908330Y1002510D01*
X904696Y1002844D02*
X907996D01*
X902970Y1004570D02*
X904696Y1002844D01*
X933940Y1067545D02*
Y1068070D01*
X929720Y1055423D02*
Y1063325D01*
X933940Y1067545D01*
X950864Y1057356D02*
X955530Y1062022D01*
X949720Y1056622D02*
X950454Y1057356D01*
X955530Y1062022D02*
Y1068070D01*
X950454Y1057356D02*
X950864D01*
X949720Y1055423D02*
Y1056622D01*
X925030Y1055732D02*
Y1067760D01*
X925340Y1068070D01*
X948986Y1031388D02*
X949720Y1032122D01*
X923330Y999810D02*
Y1009610D01*
X923290Y1009650D02*
X923330Y1009610D01*
X918330Y999810D02*
Y1009115D01*
X915745Y1011700D02*
X918330Y1009115D01*
X904398Y1010272D02*
X908698D01*
X902970Y1011700D02*
X904398Y1010272D01*
X912996Y1000144D02*
Y1005974D01*
Y1000144D02*
X913330Y999810D01*
X908698Y1010272D02*
X912996Y1005974D01*
X856040Y1022210D02*
Y1029910D01*
Y1022210D02*
X856100Y1022150D01*
X855980Y1029970D02*
X856040Y1029910D01*
X871100Y1022150D02*
X871200Y1022250D01*
X881280D02*
X881380Y1022350D01*
X871200Y1022250D02*
X881280D01*
X891340Y987860D02*
X901380D01*
X890270Y986790D02*
X891340Y987860D01*
X861100Y1022150D02*
Y1033820D01*
X862330Y1035050D01*
X869950D01*
X883920Y986790D02*
X887850Y982860D01*
X901380D01*
X866120Y1031220D02*
X866140Y1031240D01*
X866100Y1022150D02*
X866120Y1022170D01*
Y1031220D01*
X866100Y997150D02*
X866584Y996666D01*
Y992696D02*
Y996666D01*
Y992696D02*
X868680Y990600D01*
X875030D01*
X887770Y977860D01*
X901380D01*
X880110Y901700D02*
X881380Y902970D01*
Y910590D01*
X871220Y901700D02*
X880110D01*
X857210Y898906D02*
X868426D01*
X871220Y901700D01*
X875145Y905924D02*
X875221Y906000D01*
X870364Y905924D02*
X875145D01*
X866220Y901780D02*
X870364Y905924D01*
X862584Y906780D02*
X864870D01*
X867410Y909320D01*
Y918464D01*
X846836Y906780D02*
Y911780D01*
D19*
X795156Y852424D02*
D03*
Y846074D02*
D03*
X789940Y852424D02*
D03*
Y846074D02*
D03*
X975360Y1015746D02*
D03*
Y1022096D02*
D03*
X967740Y1015746D02*
D03*
Y1022096D02*
D03*
X868680Y931164D02*
D03*
Y924814D02*
D03*
X859790Y931164D02*
D03*
Y924814D02*
D03*
X849917Y931319D02*
D03*
Y924969D02*
D03*
D20*
X1205230Y690250D02*
D03*
Y744850D02*
D03*
X1179830Y690250D02*
D03*
Y744850D02*
D03*
X1154430Y690250D02*
D03*
Y744850D02*
D03*
X1129030Y690250D02*
D03*
Y744850D02*
D03*
X1103630Y690250D02*
D03*
Y744850D02*
D03*
X1078230Y690250D02*
D03*
Y744850D02*
D03*
X1052830Y690250D02*
D03*
Y744850D02*
D03*
X1027430Y690250D02*
D03*
Y744850D02*
D03*
X1002030Y690250D02*
D03*
Y744850D02*
D03*
X976630Y690250D02*
D03*
Y744850D02*
D03*
X951230Y690250D02*
D03*
Y744850D02*
D03*
X925830Y690250D02*
D03*
Y744850D02*
D03*
X900430Y690250D02*
D03*
Y744850D02*
D03*
X875030Y690250D02*
D03*
Y744850D02*
D03*
X849630Y690250D02*
D03*
Y744850D02*
D03*
X824230Y690250D02*
D03*
Y744850D02*
D03*
X798830Y690250D02*
D03*
Y744850D02*
D03*
X773430Y690250D02*
D03*
Y744850D02*
D03*
X748030Y690250D02*
D03*
Y744850D02*
D03*
X722630Y690250D02*
D03*
Y744850D02*
D03*
D21*
X1179830Y1045210D02*
D03*
X1205230D02*
D03*
X1230630D02*
D03*
X1179830Y1000810D02*
D03*
X1205230D02*
D03*
X1230630D02*
D03*
D22*
X1157510Y946150D02*
D03*
X1151890D02*
D03*
X985517Y957866D02*
D03*
X979896D02*
D03*
D23*
X882396Y941070D02*
D03*
X888746D02*
D03*
X1008126Y929640D02*
D03*
X1014476D02*
D03*
X1008126Y923290D02*
D03*
X1014476D02*
D03*
X1141984Y967740D02*
D03*
X1135634D02*
D03*
X1144270Y1023620D02*
D03*
X1137920D02*
D03*
X1144524Y1012190D02*
D03*
X1138174D02*
D03*
X1144524Y1000760D02*
D03*
X1138174D02*
D03*
X884936Y924560D02*
D03*
X878586D02*
D03*
X884936Y930910D02*
D03*
X878586D02*
D03*
D24*
X1030960Y1023170D02*
D03*
Y1012170D02*
D03*
Y1001170D02*
D03*
Y990170D02*
D03*
Y979170D02*
D03*
Y968170D02*
D03*
Y957170D02*
D03*
Y946170D02*
D03*
Y935170D02*
D03*
X1122960D02*
D03*
Y946170D02*
D03*
Y957170D02*
D03*
Y968170D02*
D03*
Y979170D02*
D03*
Y990170D02*
D03*
Y1001170D02*
D03*
Y1012170D02*
D03*
Y1023170D02*
D03*
D25*
X1013460Y941070D02*
D03*
X1004860D02*
D03*
X988550Y939800D02*
D03*
X979950D02*
D03*
X970770D02*
D03*
X962170D02*
D03*
X976340Y1060450D02*
D03*
X967740D02*
D03*
X965980Y894429D02*
D03*
X974580D02*
D03*
X979950Y926179D02*
D03*
X988550D02*
D03*
X972040Y1002030D02*
D03*
X963440D02*
D03*
X757410Y1051560D02*
D03*
X748810D02*
D03*
X867900Y886460D02*
D03*
X859300D02*
D03*
X933940Y1068070D02*
D03*
X925340D02*
D03*
X946930D02*
D03*
X955530D02*
D03*
X932670Y895350D02*
D03*
X924070D02*
D03*
X901210D02*
D03*
X909810D02*
D03*
X963440Y990600D02*
D03*
X972040D02*
D03*
X962170Y926179D02*
D03*
X970770D02*
D03*
X746760Y910590D02*
D03*
X755360D02*
D03*
D26*
X1010920Y906290D02*
D03*
Y914890D02*
D03*
X1151890Y977410D02*
D03*
Y986010D02*
D03*
Y959630D02*
D03*
Y968230D02*
D03*
X871220Y1042180D02*
D03*
Y1050780D02*
D03*
X849502Y944390D02*
D03*
X955040Y906290D02*
D03*
Y914890D02*
D03*
X986854Y906290D02*
D03*
Y914890D02*
D03*
X855980Y1059960D02*
D03*
Y1068560D02*
D03*
X902970Y1020300D02*
D03*
Y1011700D02*
D03*
X887730Y1002520D02*
D03*
Y993920D02*
D03*
X933450Y1020300D02*
D03*
Y1011700D02*
D03*
X943610Y906290D02*
D03*
Y914890D02*
D03*
Y923580D02*
D03*
Y932180D02*
D03*
X875221Y897400D02*
D03*
Y906000D02*
D03*
X808990Y1062500D02*
D03*
Y1071100D02*
D03*
Y1044720D02*
D03*
Y1053320D02*
D03*
X915670Y1020300D02*
D03*
Y1011700D02*
D03*
X849502Y952990D02*
D03*
X835660D02*
D03*
Y944390D02*
D03*
X821690Y952990D02*
D03*
Y944390D02*
D03*
X807720Y952990D02*
D03*
Y944390D02*
D03*
X855980Y1042180D02*
D03*
Y1050780D02*
D03*
D27*
X1143628Y940057D02*
D03*
Y946169D02*
D03*
X1165713Y940067D02*
D03*
Y946179D02*
D03*
X999032Y957870D02*
D03*
Y951758D02*
D03*
X969039Y957870D02*
D03*
Y951758D02*
D03*
D28*
X1017270Y979170D02*
D03*
Y990600D02*
D03*
X891540Y924560D02*
D03*
Y930910D02*
D03*
X894080Y1010920D02*
D03*
D29*
X1003300Y1045990D02*
D03*
Y1079990D02*
D03*
D30*
X864680Y946270D02*
D03*
Y961270D02*
D03*
D31*
X904940Y910480D02*
D03*
X927940D02*
D03*
Y928480D02*
D03*
X904940D02*
D03*
D32*
X801687Y969670D02*
D03*
Y979170D02*
D03*
Y988670D02*
D03*
X828992D02*
D03*
Y979170D02*
D03*
Y969670D02*
D03*
D33*
X976150Y976630D02*
D03*
X966950D02*
D03*
D34*
X846836Y901780D02*
D03*
Y906780D02*
D03*
Y911780D02*
D03*
X862584D02*
D03*
Y906780D02*
D03*
Y901780D02*
D03*
D35*
X852210Y914654D02*
D03*
X857210D02*
D03*
Y898906D02*
D03*
X852210D02*
D03*
D36*
X968820Y1033130D02*
D03*
X976820D02*
D03*
Y1047130D02*
D03*
X968820D02*
D03*
D37*
X966280Y906399D02*
D03*
Y910399D02*
D03*
Y914400D02*
D03*
X970280Y906399D02*
D03*
Y910399D02*
D03*
Y914400D02*
D03*
X974280Y906399D02*
D03*
Y910399D02*
D03*
Y914400D02*
D03*
D38*
X953870Y1043773D02*
D03*
X915570D02*
D03*
D39*
X949720Y1032122D02*
D03*
X944720D02*
D03*
X939720D02*
D03*
X934720D02*
D03*
X929720D02*
D03*
X924720D02*
D03*
X919720D02*
D03*
Y1055423D02*
D03*
X924720D02*
D03*
X929720D02*
D03*
X934720D02*
D03*
X939720D02*
D03*
X944720D02*
D03*
X949720D02*
D03*
D40*
X778256Y1073150D02*
D03*
X727710D02*
D03*
X777240Y889000D02*
D03*
X726694D02*
D03*
D41*
X798260Y920050D02*
D03*
X806260D02*
D03*
X814260D02*
D03*
X822260D02*
D03*
Y896050D02*
D03*
X814260D02*
D03*
X806260D02*
D03*
X798260D02*
D03*
D42*
X816610Y1026775D02*
D03*
Y1007765D02*
D03*
D43*
X687660Y1021330D02*
D03*
Y1013330D02*
D03*
Y965330D02*
D03*
Y957330D02*
D03*
D44*
Y1006830D02*
D03*
Y971830D02*
D03*
Y1001830D02*
D03*
Y976830D02*
D03*
Y996830D02*
D03*
Y981830D02*
D03*
Y991830D02*
D03*
Y986830D02*
D03*
D45*
X681910Y1040430D02*
D03*
Y938230D02*
D03*
X642610Y1040430D02*
D03*
Y938230D02*
D03*
D46*
X950280Y957860D02*
D03*
Y962860D02*
D03*
Y967860D02*
D03*
Y972860D02*
D03*
Y977860D02*
D03*
Y982860D02*
D03*
Y987860D02*
D03*
Y992860D02*
D03*
X901380D02*
D03*
Y987860D02*
D03*
Y982860D02*
D03*
Y977860D02*
D03*
Y972860D02*
D03*
Y967860D02*
D03*
Y962860D02*
D03*
Y957860D02*
D03*
D47*
X943330Y999810D02*
D03*
X938330D02*
D03*
X933330D02*
D03*
X928330D02*
D03*
X923330D02*
D03*
X918330D02*
D03*
X913330D02*
D03*
X908330D02*
D03*
Y950910D02*
D03*
X913330D02*
D03*
X918330D02*
D03*
X923330D02*
D03*
X928330D02*
D03*
X933330D02*
D03*
X938330D02*
D03*
X943330D02*
D03*
D49*
X822350Y1047680D02*
D03*
X831850D02*
D03*
X841350D02*
D03*
Y1070680D02*
D03*
X822350D02*
D03*
D78*
X1186180Y894080D02*
D03*
D79*
X1211580Y868680D02*
D03*
Y919480D02*
D03*
X1160780D02*
D03*
Y868680D02*
D03*
D83*
X974090Y883920D02*
D03*
X1002030Y920750D02*
D03*
X1151890Y993140D02*
D03*
X891540Y935990D02*
D03*
X832928Y922492D02*
D03*
X895350Y1029970D02*
D03*
X999490Y929640D02*
D03*
X858520Y985520D02*
D03*
X872490D02*
D03*
X924560Y1022350D02*
D03*
X941070Y1021080D02*
D03*
X933450Y1026160D02*
D03*
X908050Y1037590D02*
D03*
X922020Y1038860D02*
D03*
X928370Y1042670D02*
D03*
X924560Y1047750D02*
D03*
X956310Y1018540D02*
D03*
X961390Y1023620D02*
D03*
X957580Y1012190D02*
D03*
X1137920Y972820D02*
D03*
X1016000Y967740D02*
D03*
X948690Y939800D02*
D03*
X957580Y894080D02*
D03*
X1013460Y949960D02*
D03*
X1021080Y915670D02*
D03*
X895350Y878840D02*
D03*
X991870Y948690D02*
D03*
X882650Y957580D02*
D03*
X966470Y1009650D02*
D03*
X948690Y1022350D02*
D03*
X852170Y963930D02*
D03*
X838200Y935990D02*
D03*
X895350Y1059180D02*
D03*
X951230Y897890D02*
D03*
X972820Y966470D02*
D03*
X746760Y919480D02*
D03*
X897890Y1040130D02*
D03*
X830580Y1078230D02*
D03*
X902970Y1026160D02*
D03*
X972820Y1009650D02*
D03*
X955040Y999490D02*
D03*
X664210Y1003300D02*
D03*
X932180Y985520D02*
D03*
X806450Y887730D02*
D03*
X895350Y891540D02*
D03*
X872490Y913130D02*
D03*
X848360Y1037590D02*
D03*
Y1068070D02*
D03*
X816610Y1036320D02*
D03*
X855980Y1074420D02*
D03*
X902970Y1004570D02*
D03*
X881380Y1022350D02*
D03*
X673100Y970280D02*
D03*
D86*
X999032Y957870D02*
G03*
X1003300Y962138I0J4268D01*
G01*
X789940Y792480D02*
X795156Y797696D01*
Y846074D01*
X782320Y792480D02*
X789940Y800100D01*
Y846074D01*
X900433Y947093D02*
X903094Y944432D01*
X913330Y948210D02*
Y950910D01*
X912132Y947013D02*
X913330Y948210D01*
X912132Y946798D02*
Y947013D01*
X880364Y951230D02*
Y951876D01*
X909738Y944618D02*
X909952D01*
X912132Y946798D01*
X908540Y943420D02*
X909738Y944618D01*
X907528Y944432D02*
X908540Y943420D01*
X903094Y944432D02*
X907528D01*
X862948Y980897D02*
X874270Y969575D01*
Y969575D02*
Y969575D01*
X837059Y980897D02*
X862948D01*
X878484Y953756D02*
Y965361D01*
X874270Y969575D02*
X878484Y965361D01*
X828992Y988670D02*
X831088D01*
X835482Y984276D01*
Y982474D02*
X837059Y980897D01*
X835482Y982474D02*
Y984276D01*
X878484Y953756D02*
X880364Y951876D01*
X897562Y950707D02*
X901704D01*
X895020Y948165D02*
X897562Y950707D01*
X904525Y947886D02*
X908006D01*
X901704Y950707D02*
X904525Y947886D01*
X895020Y944036D02*
Y948165D01*
X896198Y942858D02*
X898570Y940486D01*
X899160D01*
X895020Y944036D02*
X896198Y942858D01*
X837059Y977443D02*
X861517D01*
X869950Y969010D01*
X835482Y975866D02*
X837059Y977443D01*
X875030Y951230D02*
Y963930D01*
X869950Y969010D02*
X875030Y963930D01*
X835482Y974064D02*
Y975866D01*
X831088Y969670D02*
X835482Y974064D01*
X828992Y969670D02*
X831088D01*
X790440Y858258D02*
X790702Y858520D01*
X790440Y854232D02*
Y858258D01*
X795020Y858520D02*
X795156Y858384D01*
Y852424D02*
Y858384D01*
X789940Y853733D02*
X790440Y854232D01*
X789940Y852424D02*
Y853733D01*
X985517Y957866D02*
X999032D01*
X1003300Y962138D02*
Y1045990D01*
X950280Y957860D02*
X978392D01*
D87*
X871100Y997150D02*
D03*
X866100D02*
D03*
X861100D02*
D03*
X856100D02*
D03*
Y1022150D02*
D03*
X861100D02*
D03*
X866100D02*
D03*
X871100D02*
D03*
D88*
X863600Y1009650D02*
D03*
D89*
X925830Y975360D02*
D03*
D90*
X794041Y849754D02*
X795156Y850646D01*
X796172Y849630D01*
X795156Y849122D02*
X796172Y848106D01*
X794140D02*
X796172D01*
X794140D02*
X795156Y849122D01*
X788825Y849754D02*
X789940Y850646D01*
X790956Y849630D01*
X789940Y849122D02*
X790956Y848106D01*
X788924D02*
X790956D01*
X788924D02*
X789940Y849122D01*
X884174Y941070D02*
X885066Y939955D01*
X884174Y941070D02*
X885190Y942086D01*
X885698Y941070D02*
X886714Y942086D01*
Y940054D02*
Y942086D01*
X885698Y941070D02*
X886714Y940054D01*
X1009904Y929640D02*
X1010796Y928525D01*
X1009904Y929640D02*
X1010920Y930656D01*
X1011428Y929640D02*
X1012444Y930656D01*
Y928624D02*
Y930656D01*
X1011428Y929640D02*
X1012444Y928624D01*
X1009904Y923290D02*
X1010796Y922175D01*
X1009904Y923290D02*
X1010920Y924306D01*
X1011428Y923290D02*
X1012444Y924306D01*
Y922274D02*
Y924306D01*
X1011428Y923290D02*
X1012444Y922274D01*
X1139314Y968855D02*
X1140206Y967740D01*
X1139190Y966724D02*
X1140206Y967740D01*
X1137666Y966724D02*
X1138682Y967740D01*
X1137666Y966724D02*
Y968756D01*
X1138682Y967740D01*
X1141600Y1024735D02*
X1142492Y1023620D01*
X1141476Y1022604D02*
X1142492Y1023620D01*
X1139952Y1022604D02*
X1140968Y1023620D01*
X1139952Y1022604D02*
Y1024636D01*
X1140968Y1023620D01*
X1141854Y1013305D02*
X1142746Y1012190D01*
X1141730Y1011174D02*
X1142746Y1012190D01*
X1140206Y1011174D02*
X1141222Y1012190D01*
X1140206Y1011174D02*
Y1013206D01*
X1141222Y1012190D01*
X1141854Y1001875D02*
X1142746Y1000760D01*
X1141730Y999744D02*
X1142746Y1000760D01*
X1140206Y999744D02*
X1141222Y1000760D01*
X1140206Y999744D02*
Y1001776D01*
X1141222Y1000760D01*
X881888Y924560D02*
X882904Y923544D01*
Y925576D01*
X881888Y924560D02*
X882904Y925576D01*
X880364Y924560D02*
X881380Y925576D01*
X880364Y924560D02*
X881256Y923445D01*
X881888Y930910D02*
X882904Y929894D01*
Y931926D01*
X881888Y930910D02*
X882904Y931926D01*
X880364Y930910D02*
X881380Y931926D01*
X880364Y930910D02*
X881256Y929795D01*
X975360Y1017524D02*
X976475Y1018416D01*
X974344Y1018540D02*
X975360Y1017524D01*
X974344Y1020064D02*
X975360Y1019048D01*
X974344Y1020064D02*
X976376D01*
X975360Y1019048D02*
X976376Y1020064D01*
X967740Y1017524D02*
X968855Y1018416D01*
X966724Y1018540D02*
X967740Y1017524D01*
X966724Y1020064D02*
X967740Y1019048D01*
X966724Y1020064D02*
X968756D01*
X967740Y1019048D02*
X968756Y1020064D01*
X867565Y928494D02*
X868680Y929386D01*
X869696Y928370D01*
X868680Y927862D02*
X869696Y926846D01*
X867664D02*
X869696D01*
X867664D02*
X868680Y927862D01*
X858675Y928494D02*
X859790Y929386D01*
X860806Y928370D01*
X859790Y927862D02*
X860806Y926846D01*
X858774D02*
X860806D01*
X858774D02*
X859790Y927862D01*
X848801Y928649D02*
X849917Y929541D01*
X850932Y928525D01*
X849917Y928017D02*
X850932Y927001D01*
X848901D02*
X850932D01*
X848901D02*
X849917Y928017D01*
D91*
X938530Y882650D02*
Y896620D01*
X925830Y869950D02*
X938530Y882650D01*
X925830Y744850D02*
Y869950D01*
D92*
X708660Y1054100D02*
X727710Y1073150D01*
X699540Y1044980D02*
X708660Y1054100D01*
X722630Y1040130D01*
X707390Y938530D02*
X756920D01*
X682210D02*
X707390D01*
Y951230D01*
X777240Y905510D02*
Y918210D01*
Y889000D02*
Y905510D01*
X681910Y938230D02*
X682210Y938530D01*
X756920D02*
X777240Y918210D01*
X681910Y1040430D02*
Y1041330D01*
X685560Y1044980D01*
X699540D01*
X642610Y938230D02*
X681910D01*
X642610Y1040430D02*
X681910D01*
D93*
X904940Y928480D02*
X905440D01*
X904440D02*
X904940D01*
X901210Y889962D02*
X903442Y887730D01*
X930438D01*
X901210Y889962D02*
Y895350D01*
X932670Y889962D02*
Y895350D01*
X930438Y887730D02*
X932670Y889962D01*
X894080Y897890D02*
Y918120D01*
X904440Y928480D01*
X894080Y897890D02*
X896620Y895350D01*
X901210D01*
X932670D02*
Y906885D01*
D94*
X815955Y1007110D02*
X816610Y1007765D01*
D95*
X795156Y848487D02*
D03*
X789940Y848487D02*
D03*
X975360Y1019683D02*
D03*
X967740Y1019683D02*
D03*
X868680Y927227D02*
D03*
X859790Y927226D02*
D03*
X849917Y927382D02*
D03*
D96*
X886333Y941070D02*
D03*
X1012061Y929640D02*
D03*
X1012065Y923290D02*
D03*
X1138047Y967740D02*
D03*
X1140333Y1023620D02*
D03*
X1140587Y1012190D02*
D03*
Y1000760D02*
D03*
X882523Y924560D02*
D03*
X882523Y930910D02*
D03*
D97*
X676910Y1018230D02*
D03*
Y960430D02*
D03*
D98*
X934720Y970280D02*
D03*
X923290Y976630D02*
D03*
X918210Y971550D02*
D03*
X1156970Y1000760D02*
D03*
X1140460Y986790D02*
D03*
X1045210Y1000760D02*
D03*
X1016000Y1012190D02*
D03*
X1230630Y1071880D02*
D03*
X1003300Y781050D02*
D03*
X1022350D02*
D03*
X1042670D02*
D03*
X1062990D02*
D03*
X1083310D02*
D03*
X1103630D02*
D03*
X1123950Y782320D02*
D03*
X1144270Y781050D02*
D03*
X1164590Y782320D02*
D03*
X1198880Y773430D02*
D03*
X1230630Y974090D02*
D03*
X1045210Y979170D02*
D03*
X1205230Y972820D02*
D03*
X980440Y1009650D02*
D03*
D99*
X789940Y792480D02*
D03*
X782320D02*
D03*
X899160Y945820D02*
D03*
Y940486D02*
D03*
X790702Y858520D02*
D03*
X795020D02*
D03*
X875030Y951230D02*
D03*
X880364D02*
D03*
X857319Y908847D02*
D03*
X855188Y928352D02*
D03*
X873760Y938530D02*
D03*
X878801Y935073D02*
D03*
X921231Y941029D02*
D03*
X890270Y969010D02*
D03*
X891540Y962660D02*
D03*
X952540Y1004530D02*
D03*
X678180Y991870D02*
D03*
X675640Y982980D02*
D03*
X984250Y985520D02*
D03*
X985520Y990600D02*
D03*
X796290Y1060450D02*
D03*
X852170Y910590D02*
D03*
X801370Y1040130D02*
D03*
X788670Y966470D02*
D03*
X789940Y1003300D02*
D03*
X763270Y1051560D02*
D03*
X957580Y972820D02*
D03*
Y930910D02*
D03*
Y977900D02*
D03*
X956310Y939800D02*
D03*
X800100Y932180D02*
D03*
X939800Y1045210D02*
D03*
Y1050290D02*
D03*
X979170Y996950D02*
D03*
X910590Y1026160D02*
D03*
X939800Y1009650D02*
D03*
X878840Y920750D02*
D03*
X807720Y930910D02*
D03*
X816610Y927100D02*
D03*
X864489Y928326D02*
D03*
X927100Y1013460D02*
D03*
X944880Y1038860D02*
D03*
X923290Y1009650D02*
D03*
X855980Y1029970D02*
D03*
X890270Y986790D02*
D03*
X869950Y1035050D02*
D03*
X883920Y986790D02*
D03*
X866140Y1031240D02*
D03*
X914400Y939800D02*
D03*
X889000Y915670D02*
D03*
D100*
X722630Y1040130D02*
D03*
X707390Y951230D02*
D03*
D101*
X953770Y923290D02*
D03*
M02*
