G04*
G04 #@! TF.GenerationSoftware,Altium Limited,Altium Designer,22.11.1 (43)*
G04*
G04 Layer_Physical_Order=2*
G04 Layer_Color=36540*
%FSLAX44Y44*%
%MOMM*%
G71*
G04*
G04 #@! TF.SameCoordinates,C87C4AAE-CCE6-480D-B445-E4D188558650*
G04*
G04*
G04 #@! TF.FilePolarity,Positive*
G04*
G01*
G75*
%ADD11C,0.5080*%
%ADD13C,0.2540*%
%ADD17C,0.2032*%
%ADD92C,0.6500*%
%ADD93C,0.6350*%
%ADD94C,0.6096*%
%ADD95C,1.2700*%
%ADD96C,1.5240*%
D11*
X843280Y1057910D02*
X880110D01*
X835660Y1065530D02*
Y1073150D01*
X830580Y1078230D02*
X835660Y1073150D01*
Y1065530D02*
X843280Y1057910D01*
D13*
X1195070Y969010D02*
G03*
X1184910Y979170I-10160J0D01*
G01*
X1219200Y962660D02*
G03*
X1230630Y974090I0J11430D01*
G01*
X1195070Y969010D02*
G03*
X1201420Y962660I6350J0D01*
G01*
X993140Y1041400D02*
X1024890D01*
X1031240Y1035050D01*
X880110Y1057910D02*
X889000D01*
X1060450Y902970D02*
X1066800Y909320D01*
Y920750D01*
X1055370Y902970D02*
X1060450D01*
X1051560Y906780D02*
X1055370Y902970D01*
X1048781Y906780D02*
X1051560D01*
X1045210Y909320D02*
X1046241D01*
X1048781Y906780D01*
X985520Y911860D02*
X995680Y922020D01*
X984250Y910590D02*
X985520Y911860D01*
X965200Y910590D02*
X984250D01*
X961390Y914400D02*
X965200Y910590D01*
X961390Y914400D02*
Y927100D01*
X996950Y930910D02*
X998220Y929640D01*
X1018540D01*
X1032510Y915670D01*
X1051560D01*
X1057910Y909320D01*
X985520Y990600D02*
X998220D01*
X947420Y1016000D02*
Y1022350D01*
X932180Y1000760D02*
X947420Y1016000D01*
X932180Y985520D02*
Y1000760D01*
X839470Y914400D02*
Y935990D01*
Y914400D02*
X849630Y904240D01*
X873760D01*
X777240Y1051560D02*
X805180Y1023620D01*
X768350Y1051560D02*
X777240D01*
X805180Y1023620D02*
X833120D01*
X891550Y1008454D02*
Y1018550D01*
X902970Y1029970D01*
X916940Y855980D02*
X933450Y872490D01*
X969010D01*
X885190Y855980D02*
X916940D01*
X880110Y1000760D02*
X892810D01*
X895350Y998220D02*
X909320D01*
X892810Y1000760D02*
X895350Y998220D01*
X902970Y1029970D02*
X925830Y1052830D01*
X948690Y900430D02*
Y932180D01*
Y900430D02*
X958850Y890270D01*
X1057910Y920750D02*
X1069340Y932180D01*
Y970280D01*
X853440Y890270D02*
X887730D01*
X835660Y908050D02*
X853440Y890270D01*
X975360Y1088390D02*
X986790Y1076960D01*
Y1029970D02*
X993140Y1023620D01*
X986790Y1029970D02*
Y1076960D01*
X1078230Y979170D02*
X1184910D01*
X1069340Y970280D02*
X1078230Y979170D01*
X887730Y890270D02*
X905510Y908050D01*
X896620Y1065530D02*
X918210D01*
X889000Y1057910D02*
X896620Y1065530D01*
X918210D02*
X925830Y1057910D01*
Y1052830D02*
Y1057910D01*
X914400Y1023501D02*
Y1032510D01*
X915670Y1012190D02*
Y1022231D01*
X914400Y1023501D02*
X915670Y1022231D01*
X914400Y1032510D02*
X932815Y1050925D01*
Y1057275D02*
X933450Y1057910D01*
X932815Y1050925D02*
Y1057275D01*
X930910Y1032510D02*
X948690D01*
X924560Y1026160D02*
X930910Y1032510D01*
X857250Y963930D02*
Y980440D01*
X873760Y947420D02*
X892810D01*
X857250Y963930D02*
X873760Y947420D01*
X877570Y998220D02*
X880110Y1000760D01*
X858520Y998220D02*
X877570D01*
X833120Y1023620D02*
X858520Y998220D01*
X919480Y964311D02*
X937641D01*
X905510Y949960D02*
X919480Y963930D01*
X905510Y908050D02*
Y949960D01*
X958121Y1008921D02*
X958850Y1009650D01*
X955581Y1008921D02*
X958121D01*
X948544Y1001884D02*
X955581Y1008921D01*
X939800Y996950D02*
X944734Y1001884D01*
X948544D01*
X909320Y998220D02*
X929640Y977900D01*
X937641Y964311D02*
X951230Y977900D01*
X929640D02*
X938312D01*
X1201420Y962660D02*
X1219200D01*
X939800Y979388D02*
Y996950D01*
X951230Y995680D02*
X955040Y999490D01*
X951230Y977900D02*
Y995680D01*
X938312Y977900D02*
X939800Y979388D01*
D17*
X979170Y872490D02*
X985520Y878840D01*
Y911860D01*
X849630Y915670D02*
X878840D01*
X883920Y910590D01*
X897890Y1033780D02*
X919480Y1055370D01*
X889000Y1033780D02*
X897890D01*
D92*
X676910Y1018230D02*
D03*
Y960430D02*
D03*
D93*
X988060Y967740D02*
D03*
X1031240Y1035050D02*
D03*
X1156970Y1032510D02*
D03*
X1162050Y961390D02*
D03*
X995680Y922020D02*
D03*
X996950Y930910D02*
D03*
X1057910Y909320D02*
D03*
X958850Y948690D02*
D03*
X998220Y990600D02*
D03*
X806450Y930910D02*
D03*
X751840Y1041400D02*
D03*
X782320Y1055370D02*
D03*
X979170Y872490D02*
D03*
X885190Y855980D02*
D03*
X891550Y1008454D02*
D03*
X899160Y1005840D02*
D03*
X1031240Y908050D02*
D03*
X948690Y932180D02*
D03*
X958850Y890270D02*
D03*
X1049020Y922020D02*
D03*
X1057910Y920750D02*
D03*
X835660Y908050D02*
D03*
X849630Y915670D02*
D03*
X1032510Y890270D02*
D03*
X975360Y1088390D02*
D03*
X993140Y1041400D02*
D03*
Y1023620D02*
D03*
X1070610Y1037590D02*
D03*
X1079500D02*
D03*
X1066800Y920750D02*
D03*
X976630Y979170D02*
D03*
X967078Y979064D02*
D03*
X900430Y864870D02*
D03*
X883920Y901700D02*
D03*
Y910590D02*
D03*
X891540Y906780D02*
D03*
X957580Y1059180D02*
D03*
X977900Y1012190D02*
D03*
X970280Y1014730D02*
D03*
X981710Y999490D02*
D03*
X896620Y1041400D02*
D03*
X919480Y1055370D02*
D03*
X948690Y1032510D02*
D03*
X900430Y1057910D02*
D03*
X915670Y1012190D02*
D03*
X899160Y937260D02*
D03*
X885190Y1050290D02*
D03*
X814070Y1037590D02*
D03*
X857250Y980440D02*
D03*
X892810Y947420D02*
D03*
X848360Y1068070D02*
D03*
X847090Y1019810D02*
D03*
X878840Y1035050D02*
D03*
X864870Y873760D02*
D03*
X911860Y938530D02*
D03*
X947420Y1022350D02*
D03*
X900430Y1049020D02*
D03*
X956310D02*
D03*
X961390Y1029970D02*
D03*
X958850Y1009650D02*
D03*
X816610Y929640D02*
D03*
X843280Y974090D02*
D03*
Y982980D02*
D03*
X849630Y989330D02*
D03*
X970280Y928370D02*
D03*
X974090Y880110D02*
D03*
X1012190Y892810D02*
D03*
X971550Y918210D02*
D03*
X969010Y872490D02*
D03*
X798830Y797560D02*
D03*
X779780D02*
D03*
X800100Y861060D02*
D03*
X789940D02*
D03*
X1163320Y795020D02*
D03*
X1144270D02*
D03*
X1123950D02*
D03*
X1103630D02*
D03*
X1082040D02*
D03*
X1060450D02*
D03*
X1041400Y793750D02*
D03*
X1022350Y795020D02*
D03*
X1000760D02*
D03*
X803910Y886460D02*
D03*
X746760Y923290D02*
D03*
X787400Y966470D02*
D03*
X782320Y1003300D02*
D03*
X664210Y1007110D02*
D03*
X671830Y994410D02*
D03*
X673100Y980440D02*
D03*
X768350Y1051560D02*
D03*
X866140Y927100D02*
D03*
X857250Y928370D02*
D03*
X871220Y934720D02*
D03*
X858520Y1078230D02*
D03*
X849630Y1033780D02*
D03*
X881380Y1042670D02*
D03*
X933450Y1057910D02*
D03*
X795020Y1062990D02*
D03*
X883920Y1022350D02*
D03*
X928370Y1016000D02*
D03*
X878840Y932180D02*
D03*
X949960Y1076960D02*
D03*
X889000Y1066800D02*
D03*
X908050Y1078230D02*
D03*
X889000Y1033780D02*
D03*
X798830Y933450D02*
D03*
X891540Y839470D02*
D03*
X873760Y904240D02*
D03*
X925830Y852170D02*
D03*
X877920Y877251D02*
D03*
X934720Y970280D02*
D03*
X923290Y976630D02*
D03*
X918210Y971550D02*
D03*
X1156970Y1000760D02*
D03*
X1140460Y986790D02*
D03*
X1151890Y993140D02*
D03*
X832928Y922492D02*
D03*
X1230630Y1071880D02*
D03*
X1137920Y972820D02*
D03*
X1045210Y909320D02*
D03*
X1198880Y773430D02*
D03*
X1230630Y974090D02*
D03*
X1205230Y972820D02*
D03*
X838200Y935990D02*
D03*
X889000Y1057910D02*
D03*
X985520Y990600D02*
D03*
X830580Y1078230D02*
D03*
X955040Y999490D02*
D03*
X801370Y1040130D02*
D03*
X881380Y993140D02*
D03*
X673100Y970280D02*
D03*
D94*
X902970Y1029970D02*
D03*
X887730Y957580D02*
D03*
X878840Y955040D02*
D03*
X969010Y1023620D02*
D03*
X961390Y927100D02*
D03*
X962660Y1017270D02*
D03*
X868680Y985520D02*
D03*
X891540Y932180D02*
D03*
X887730Y966470D02*
D03*
X890270Y994410D02*
D03*
X924560Y1026160D02*
D03*
X932180Y985520D02*
D03*
D95*
X722630Y1040130D02*
D03*
X707390Y951230D02*
D03*
D96*
X1187450Y863600D02*
D03*
X1212850Y838200D02*
D03*
Y889000D02*
D03*
X1162050D02*
D03*
Y838200D02*
D03*
M02*
