G04*
G04 #@! TF.GenerationSoftware,Altium Limited,Altium Designer,22.11.1 (43)*
G04*
G04 Layer_Color=65535*
%FSLAX44Y44*%
%MOMM*%
G71*
G04*
G04 #@! TF.SameCoordinates,08DCA11F-4F28-4CA3-8F65-8E8C9E671095*
G04*
G04*
G04 #@! TF.FilePolarity,Positive*
G04*
G01*
G75*
%ADD10C,0.2540*%
%ADD11C,0.1000*%
%ADD12C,0.2000*%
%ADD13C,0.1524*%
%ADD14C,0.1270*%
%ADD15C,0.2032*%
%ADD16C,0.0762*%
G36*
X842899Y903685D02*
Y899875D01*
X840359D01*
Y903685D01*
X842899D01*
D02*
G37*
D10*
X852529Y891794D02*
G03*
X852529Y891794I-359J0D01*
G01*
X729234Y1087120D02*
X776986D01*
X729234Y1058926D02*
X776986D01*
X729234D02*
Y1087120D01*
X776986Y1058926D02*
Y1087120D01*
X829818Y1004716D02*
Y1029716D01*
X803656Y1004716D02*
Y1029716D01*
X727964Y875030D02*
X775716D01*
X727964Y903224D02*
X775716D01*
Y875030D02*
Y903224D01*
X727964Y875030D02*
Y903224D01*
X720091Y769617D02*
X715013D01*
X717552D01*
Y756922D01*
X715013Y754382D01*
X712473D01*
X709934Y756922D01*
X725169Y767078D02*
X727708Y769617D01*
X732787D01*
X735326Y767078D01*
Y764539D01*
X732787Y762000D01*
X730247D01*
X732787D01*
X735326Y759461D01*
Y756922D01*
X732787Y754382D01*
X727708D01*
X725169Y756922D01*
X911862Y1076959D02*
Y1070611D01*
X913132Y1069341D01*
X915671D01*
X916940Y1070611D01*
Y1076959D01*
X923288Y1069341D02*
Y1076959D01*
X919480Y1073150D01*
X924558D01*
X1197610Y769618D02*
X1194224D01*
X1195917D01*
Y761154D01*
X1194224Y759462D01*
X1192532D01*
X1190839Y761154D01*
X1200996Y759462D02*
X1204381D01*
X1202688D01*
Y769618D01*
X1200996Y767926D01*
X713742Y1053677D02*
Y1050292D01*
Y1051984D01*
X722206D01*
X723898Y1050292D01*
Y1048599D01*
X722206Y1046906D01*
X723898Y1063834D02*
Y1057063D01*
X717127Y1063834D01*
X715434D01*
X713742Y1062141D01*
Y1058756D01*
X715434Y1057063D01*
D11*
X875370Y990220D02*
G03*
X875370Y990220I-500J0D01*
G01*
X857870Y990720D02*
X871870D01*
X857870Y1005720D02*
X871870D01*
D12*
X894440Y909780D02*
G03*
X894440Y909780I-1000J0D01*
G01*
X919430Y1064772D02*
G03*
X919430Y1064772I-1000J0D01*
G01*
X873470Y1011272D02*
G03*
X873470Y1011272I-1000J0D01*
G01*
X799260Y928500D02*
G03*
X799260Y928500I-1000J0D01*
G01*
X790380Y1019510D02*
G03*
X790380Y1019510I-1000J0D01*
G01*
X960830Y957860D02*
G03*
X960830Y957860I-1000J0D01*
G01*
X822850Y1034180D02*
G03*
X822850Y1034180I-1000J0D01*
G01*
X704280Y1026410D02*
X719180D01*
X704280Y937010D02*
Y1026410D01*
Y937010D02*
X719180D01*
X746380Y1026410D02*
X758480D01*
X746380Y937010D02*
X758480D01*
D13*
X805307Y962660D02*
X825373D01*
X805307Y995680D02*
X825373D01*
X843153Y918337D02*
X848522D01*
X866267Y915468D02*
Y918337D01*
X860898Y895223D02*
X866267D01*
X843153D02*
X848522D01*
X843153Y915468D02*
Y918337D01*
X860898D02*
X866267D01*
Y895223D02*
Y898092D01*
X843153Y895223D02*
Y898092D01*
X1178306Y734961D02*
X1174074D01*
X1171958Y732845D01*
X1174074Y730729D01*
X1178306D01*
X1175132D01*
Y734961D01*
X1171958Y728613D02*
X1178306D01*
Y725439D01*
X1177248Y724381D01*
X1173016D01*
X1171958Y725439D01*
Y728613D01*
X1173016Y718033D02*
X1171958Y719091D01*
Y721207D01*
X1173016Y722265D01*
X1177248D01*
X1178306Y721207D01*
Y719091D01*
X1177248Y718033D01*
X1178306Y712743D02*
X1171958D01*
X1175132Y715917D01*
Y711685D01*
X932117Y733877D02*
X931059Y734935D01*
Y737051D01*
X932117Y738109D01*
X936349D01*
X937407Y737051D01*
Y734935D01*
X936349Y733877D01*
X934233D01*
Y735993D01*
X937407Y731761D02*
X931059D01*
Y728587D01*
X932117Y727529D01*
X934233D01*
X935291Y728587D01*
Y731761D01*
X931059Y725413D02*
Y723297D01*
Y724355D01*
X937407D01*
Y725413D01*
Y723297D01*
X931059Y716949D02*
Y719065D01*
X932117Y720123D01*
X936349D01*
X937407Y719065D01*
Y716949D01*
X936349Y715891D01*
X932117D01*
X931059Y716949D01*
X937407Y710601D02*
X931059D01*
X934233Y713775D01*
Y709543D01*
X938465Y707427D02*
Y703195D01*
X931059Y701079D02*
Y698963D01*
Y700021D01*
X937407D01*
Y701079D01*
Y698963D01*
X931059Y692615D02*
Y694731D01*
X932117Y695789D01*
X936349D01*
X937407Y694731D01*
Y692615D01*
X936349Y691557D01*
X932117D01*
X931059Y692615D01*
X937407Y685209D02*
Y689441D01*
X933175Y685209D01*
X932117D01*
X931059Y686267D01*
Y688383D01*
X932117Y689441D01*
Y683093D02*
X931059Y682035D01*
Y679919D01*
X932117Y678861D01*
X933175D01*
X934233Y679919D01*
X935291Y678861D01*
X936349D01*
X937407Y679919D01*
Y682035D01*
X936349Y683093D01*
X935291D01*
X934233Y682035D01*
X933175Y683093D01*
X932117D01*
X934233Y682035D02*
Y679919D01*
X911797Y733877D02*
X910740Y734935D01*
Y737051D01*
X911797Y738109D01*
X916029D01*
X917087Y737051D01*
Y734935D01*
X916029Y733877D01*
X913913D01*
Y735993D01*
X917087Y731761D02*
X910740D01*
Y728587D01*
X911797Y727529D01*
X913913D01*
X914971Y728587D01*
Y731761D01*
X910740Y725413D02*
Y723297D01*
Y724355D01*
X917087D01*
Y725413D01*
Y723297D01*
X910740Y716949D02*
Y719065D01*
X911797Y720123D01*
X916029D01*
X917087Y719065D01*
Y716949D01*
X916029Y715891D01*
X911797D01*
X910740Y716949D01*
X917087Y709543D02*
Y713775D01*
X912855Y709543D01*
X911797D01*
X910740Y710601D01*
Y712717D01*
X911797Y713775D01*
X918145Y707427D02*
Y703195D01*
X910740Y701079D02*
Y698963D01*
Y700021D01*
X917087D01*
Y701079D01*
Y698963D01*
X910740Y692615D02*
Y694731D01*
X911797Y695789D01*
X916029D01*
X917087Y694731D01*
Y692615D01*
X916029Y691557D01*
X911797D01*
X910740Y692615D01*
X917087Y689441D02*
Y687325D01*
Y688383D01*
X910740D01*
X911797Y689441D01*
Y684151D02*
X910740Y683093D01*
Y680977D01*
X911797Y679919D01*
X912855D01*
X913913Y680977D01*
X914971Y679919D01*
X916029D01*
X917087Y680977D01*
Y683093D01*
X916029Y684151D01*
X914971D01*
X913913Y683093D01*
X912855Y684151D01*
X911797D01*
X913913Y683093D02*
Y680977D01*
X892747Y733877D02*
X891690Y734935D01*
Y737051D01*
X892747Y738109D01*
X896979D01*
X898037Y737051D01*
Y734935D01*
X896979Y733877D01*
X894863D01*
Y735993D01*
X898037Y731761D02*
X891690D01*
Y728587D01*
X892747Y727529D01*
X894863D01*
X895921Y728587D01*
Y731761D01*
X891690Y725413D02*
Y723297D01*
Y724355D01*
X898037D01*
Y725413D01*
Y723297D01*
X891690Y716949D02*
Y719065D01*
X892747Y720123D01*
X896979D01*
X898037Y719065D01*
Y716949D01*
X896979Y715891D01*
X892747D01*
X891690Y716949D01*
X898037Y709543D02*
Y713775D01*
X893805Y709543D01*
X892747D01*
X891690Y710601D01*
Y712717D01*
X892747Y713775D01*
X899095Y707427D02*
Y703195D01*
X891690Y701079D02*
Y698963D01*
Y700021D01*
X898037D01*
Y701079D01*
Y698963D01*
X891690Y692615D02*
Y694731D01*
X892747Y695789D01*
X896979D01*
X898037Y694731D01*
Y692615D01*
X896979Y691557D01*
X892747D01*
X891690Y692615D01*
X898037Y689441D02*
Y687325D01*
Y688383D01*
X891690D01*
X892747Y689441D01*
X891690Y684151D02*
Y679919D01*
X892747D01*
X896979Y684151D01*
X898037D01*
X871157Y733877D02*
X870099Y734935D01*
Y737051D01*
X871157Y738109D01*
X875389D01*
X876447Y737051D01*
Y734935D01*
X875389Y733877D01*
X873273D01*
Y735993D01*
X876447Y731761D02*
X870099D01*
Y728587D01*
X871157Y727529D01*
X873273D01*
X874331Y728587D01*
Y731761D01*
X870099Y725413D02*
Y723297D01*
Y724355D01*
X876447D01*
Y725413D01*
Y723297D01*
X870099Y716949D02*
Y719065D01*
X871157Y720123D01*
X875389D01*
X876447Y719065D01*
Y716949D01*
X875389Y715891D01*
X871157D01*
X870099Y716949D01*
X876447Y709543D02*
Y713775D01*
X872215Y709543D01*
X871157D01*
X870099Y710601D01*
Y712717D01*
X871157Y713775D01*
X877505Y707427D02*
Y703195D01*
X870099Y701079D02*
Y698963D01*
Y700021D01*
X876447D01*
Y701079D01*
Y698963D01*
X870099Y692615D02*
Y694731D01*
X871157Y695789D01*
X875389D01*
X876447Y694731D01*
Y692615D01*
X875389Y691557D01*
X871157D01*
X870099Y692615D01*
X876447Y689441D02*
Y687325D01*
Y688383D01*
X870099D01*
X871157Y689441D01*
X870099Y679919D02*
X871157Y682035D01*
X873273Y684151D01*
X875389D01*
X876447Y683093D01*
Y680977D01*
X875389Y679919D01*
X874331D01*
X873273Y680977D01*
Y684151D01*
X850837Y733877D02*
X849780Y734935D01*
Y737051D01*
X850837Y738109D01*
X855069D01*
X856127Y737051D01*
Y734935D01*
X855069Y733877D01*
X852953D01*
Y735993D01*
X856127Y731761D02*
X849780D01*
Y728587D01*
X850837Y727529D01*
X852953D01*
X854011Y728587D01*
Y731761D01*
X849780Y725413D02*
Y723297D01*
Y724355D01*
X856127D01*
Y725413D01*
Y723297D01*
X849780Y716949D02*
Y719065D01*
X850837Y720123D01*
X855069D01*
X856127Y719065D01*
Y716949D01*
X855069Y715891D01*
X850837D01*
X849780Y716949D01*
X856127Y709543D02*
Y713775D01*
X851895Y709543D01*
X850837D01*
X849780Y710601D01*
Y712717D01*
X850837Y713775D01*
X857185Y707427D02*
Y703195D01*
X849780Y701079D02*
Y698963D01*
Y700021D01*
X856127D01*
Y701079D01*
Y698963D01*
X849780Y692615D02*
Y694731D01*
X850837Y695789D01*
X855069D01*
X856127Y694731D01*
Y692615D01*
X855069Y691557D01*
X850837D01*
X849780Y692615D01*
X856127Y689441D02*
Y687325D01*
Y688383D01*
X849780D01*
X850837Y689441D01*
X849780Y679919D02*
Y684151D01*
X852953D01*
X851895Y682035D01*
Y680977D01*
X852953Y679919D01*
X855069D01*
X856127Y680977D01*
Y683093D01*
X855069Y684151D01*
X829459Y738109D02*
X835807D01*
Y734935D01*
X834749Y733877D01*
X830517D01*
X829459Y734935D01*
Y738109D01*
Y731761D02*
X835807D01*
Y728587D01*
X834749Y727529D01*
X833691D01*
X832633Y728587D01*
Y731761D01*
Y728587D01*
X831575Y727529D01*
X830517D01*
X829459Y728587D01*
Y731761D01*
X830517Y721181D02*
X829459Y722239D01*
Y724355D01*
X830517Y725413D01*
X834749D01*
X835807Y724355D01*
Y722239D01*
X834749Y721181D01*
X832633D01*
Y723297D01*
X836865Y719065D02*
Y714833D01*
X835807Y712717D02*
X829459D01*
Y709543D01*
X830517Y708485D01*
X832633D01*
X833691Y709543D01*
Y712717D01*
Y710601D02*
X835807Y708485D01*
X829459Y706369D02*
X835807Y702137D01*
X829459D02*
X835807Y706369D01*
X809139Y738109D02*
X815487D01*
Y734935D01*
X814429Y733877D01*
X810197D01*
X809139Y734935D01*
Y738109D01*
Y731761D02*
X815487D01*
Y728587D01*
X814429Y727529D01*
X813371D01*
X812313Y728587D01*
Y731761D01*
Y728587D01*
X811255Y727529D01*
X810197D01*
X809139Y728587D01*
Y731761D01*
X810197Y721181D02*
X809139Y722239D01*
Y724355D01*
X810197Y725413D01*
X814429D01*
X815487Y724355D01*
Y722239D01*
X814429Y721181D01*
X812313D01*
Y723297D01*
X816545Y719065D02*
Y714833D01*
X809139Y712717D02*
Y708485D01*
Y710601D01*
X815487D01*
X809139Y706369D02*
X815487Y702137D01*
X809139D02*
X815487Y706369D01*
X794893Y738109D02*
X788544D01*
Y734935D01*
X789603Y733877D01*
X791719D01*
X792776Y734935D01*
Y738109D01*
X788544Y731761D02*
X794893D01*
X792776Y729645D01*
X794893Y727529D01*
X788544D01*
X794893Y725413D02*
X788544D01*
X790660Y723297D01*
X788544Y721181D01*
X794893D01*
Y719065D02*
Y716949D01*
Y718007D01*
X788544D01*
X789603Y719065D01*
X774573Y739379D02*
X770340D01*
X768224Y737263D01*
X770340Y735147D01*
X774573D01*
X771398D01*
Y739379D01*
X768224Y733031D02*
X774573D01*
Y729857D01*
X773514Y728799D01*
X769283D01*
X768224Y729857D01*
Y733031D01*
X769283Y722451D02*
X768224Y723509D01*
Y725625D01*
X769283Y726683D01*
X773514D01*
X774573Y725625D01*
Y723509D01*
X773514Y722451D01*
X774573Y716103D02*
Y720335D01*
X770340Y716103D01*
X769283D01*
X768224Y717161D01*
Y719277D01*
X769283Y720335D01*
X754252Y739379D02*
X750021D01*
X747905Y737263D01*
X750021Y735147D01*
X754252D01*
X751078D01*
Y739379D01*
X747905Y733031D02*
X754252D01*
Y729857D01*
X753195Y728799D01*
X748962D01*
X747905Y729857D01*
Y733031D01*
X748962Y722451D02*
X747905Y723509D01*
Y725625D01*
X748962Y726683D01*
X753195D01*
X754252Y725625D01*
Y723509D01*
X753195Y722451D01*
X754252Y720335D02*
Y718219D01*
Y719277D01*
X747905D01*
X748962Y720335D01*
X985098Y965834D02*
Y959486D01*
X989330D01*
X991446D02*
X993562D01*
X992504D01*
Y965834D01*
X991446Y964776D01*
X841376Y981288D02*
X846666D01*
X847724Y982346D01*
Y984462D01*
X846666Y985520D01*
X841376D01*
X847724Y987636D02*
Y989752D01*
Y988694D01*
X841376D01*
X842434Y987636D01*
D14*
X979250Y943890D02*
X989250D01*
X979250Y953490D02*
X989250D01*
X950240Y905590D02*
Y915590D01*
X959840Y905590D02*
Y915590D01*
X961470Y943890D02*
X971470D01*
X961470Y953490D02*
X971470D01*
X842090Y957860D02*
X852090D01*
X842090Y967460D02*
X852090D01*
X896900Y1057903D02*
Y1067903D01*
X906500Y1057903D02*
Y1067903D01*
X965280Y908119D02*
X975280D01*
X965280Y898519D02*
X975280D01*
X982055Y914480D02*
Y924480D01*
X991655Y914480D02*
Y924480D01*
X979250Y939869D02*
X989250D01*
X979250Y930269D02*
X989250D01*
X914240Y906980D02*
X919640D01*
X914240Y931980D02*
X919640D01*
X912220Y1058773D02*
X914720D01*
X912220Y1048773D02*
Y1058773D01*
Y1028773D02*
Y1038773D01*
Y1028773D02*
X914720D01*
X954720D02*
X957220D01*
Y1038773D01*
X954720Y1058773D02*
X957220D01*
Y1048773D02*
Y1058773D01*
X870070Y1026572D02*
Y1028172D01*
Y1037571D02*
Y1039172D01*
X890070Y1037571D02*
Y1039172D01*
Y1026572D02*
Y1028172D01*
X851180Y1059260D02*
Y1069260D01*
X860780Y1059260D02*
Y1069260D01*
X907770Y1011000D02*
Y1021000D01*
X898170Y1011000D02*
Y1021000D01*
X892530Y993220D02*
Y1003220D01*
X882930Y993220D02*
Y1003220D01*
X938250Y1011000D02*
Y1021000D01*
X928650Y1011000D02*
Y1021000D01*
X938810Y905590D02*
Y915590D01*
X948410Y905590D02*
Y915590D01*
X938810Y922880D02*
Y932880D01*
X948410Y922880D02*
Y932880D01*
X962740Y989610D02*
X972740D01*
X962740Y999210D02*
X972740D01*
X748110Y1046760D02*
X758110D01*
X748110Y1056360D02*
X758110D01*
X793060Y893050D02*
Y923050D01*
X827460Y893050D02*
Y923050D01*
X870422Y896700D02*
Y906700D01*
X880022Y896700D02*
Y906700D01*
X858600Y881660D02*
X868600D01*
X858600Y891260D02*
X868600D01*
X804190Y1061800D02*
Y1071800D01*
X813790Y1061800D02*
Y1071800D01*
X804190Y1044020D02*
Y1054020D01*
X813790Y1044020D02*
Y1054020D01*
X957300Y1011000D02*
Y1021000D01*
X947700Y1011000D02*
Y1021000D01*
X938610Y1074140D02*
X948610D01*
X938610Y1064540D02*
X948610D01*
X920470Y1011000D02*
Y1021000D01*
X910870Y1011000D02*
Y1021000D01*
X923370Y890550D02*
X933370D01*
X923370Y900150D02*
X933370D01*
X900510D02*
X910510D01*
X900510Y890550D02*
X910510D01*
X962740Y987780D02*
X972740D01*
X962740Y978180D02*
X972740D01*
X961470Y939869D02*
X971470D01*
X961470Y930269D02*
X971470D01*
X746060Y915390D02*
X756060D01*
X746060Y905790D02*
X756060D01*
X947880Y950360D02*
X950830D01*
Y953310D01*
Y997410D02*
Y1000360D01*
X947880D02*
X950830D01*
X900830D02*
X903780D01*
X900830Y997410D02*
Y1000360D01*
Y950360D02*
Y953310D01*
Y950360D02*
X903780D01*
X844703Y943690D02*
Y953690D01*
X854303Y943690D02*
Y953690D01*
X840460Y943690D02*
Y953690D01*
X830860Y943690D02*
Y953690D01*
X826490Y943690D02*
Y953690D01*
X816890Y943690D02*
Y953690D01*
X858330Y940435D02*
Y967105D01*
X871030D01*
Y940435D02*
Y967105D01*
X858330Y940435D02*
X871030D01*
X860870Y952500D02*
X868490D01*
X866585Y953770D02*
X868490Y952500D01*
X864680Y955040D02*
X866585Y953770D01*
X862775D02*
X864680Y955040D01*
X860870Y952500D02*
X862775Y953770D01*
X866585D01*
X812520Y943690D02*
Y953690D01*
X802920Y943690D02*
Y953690D01*
X816215Y1051180D02*
Y1067180D01*
X847485Y1051180D02*
Y1067180D01*
X851180Y1041480D02*
Y1051480D01*
X860780Y1041480D02*
Y1051480D01*
X841588Y1002029D02*
Y997797D01*
X842434Y996951D01*
X844127D01*
X844974Y997797D01*
Y1002029D01*
X846666Y997797D02*
X847513Y996951D01*
X849206D01*
X850052Y997797D01*
Y1001183D01*
X849206Y1002029D01*
X847513D01*
X846666Y1001183D01*
Y1000336D01*
X847513Y999490D01*
X850052D01*
D15*
X749052Y802782D02*
Y808113D01*
X753051D01*
X751718Y805447D01*
Y804115D01*
X753051Y802782D01*
X755717D01*
X757050Y804115D01*
Y806780D01*
X755717Y808113D01*
X749052Y800116D02*
X754384D01*
X757050Y797450D01*
X754384Y794784D01*
X749052D01*
X770579Y839863D02*
X777244D01*
X778577Y838530D01*
Y835864D01*
X777244Y834532D01*
X770579D01*
X771912Y826534D02*
X770579Y827867D01*
Y830533D01*
X771912Y831866D01*
X773245D01*
X774578Y830533D01*
Y827867D01*
X775911Y826534D01*
X777244D01*
X778577Y827867D01*
Y830533D01*
X777244Y831866D01*
X770579Y823868D02*
X778577D01*
Y819870D01*
X777244Y818537D01*
X775911D01*
X774578Y819870D01*
Y823868D01*
Y819870D01*
X773245Y818537D01*
X771912D01*
X770579Y819870D01*
Y823868D01*
X779910Y815871D02*
Y810539D01*
X770579Y807874D02*
X778577D01*
Y803875D01*
X777244Y802542D01*
X771912D01*
X770579Y803875D01*
Y807874D01*
X778577Y799876D02*
X770579D01*
X773245Y797210D01*
X770579Y794545D01*
X778577D01*
X792169Y839863D02*
X798834D01*
X800167Y838530D01*
Y835864D01*
X798834Y834532D01*
X792169D01*
X793502Y826534D02*
X792169Y827867D01*
Y830533D01*
X793502Y831866D01*
X794835D01*
X796168Y830533D01*
Y827867D01*
X797501Y826534D01*
X798834D01*
X800167Y827867D01*
Y830533D01*
X798834Y831866D01*
X792169Y823868D02*
X800167D01*
Y819870D01*
X798834Y818537D01*
X797501D01*
X796168Y819870D01*
Y823868D01*
Y819870D01*
X794835Y818537D01*
X793502D01*
X792169Y819870D01*
Y823868D01*
X801500Y815871D02*
Y810539D01*
X792169Y807874D02*
X800167D01*
Y803875D01*
X798834Y802542D01*
X793502D01*
X792169Y803875D01*
Y807874D01*
X800167Y799876D02*
X792169D01*
Y795878D01*
X793502Y794545D01*
X796168D01*
X797501Y795878D01*
Y799876D01*
X812615Y810402D02*
X811282Y811734D01*
Y814400D01*
X812615Y815733D01*
X817947D01*
X819280Y814400D01*
Y811734D01*
X817947Y810402D01*
X815281D01*
Y813067D01*
X819280Y807736D02*
X811282D01*
X819280Y802404D01*
X811282D01*
Y799738D02*
X819280D01*
Y795740D01*
X817947Y794407D01*
X812615D01*
X811282Y795740D01*
Y799738D01*
X831539Y855103D02*
X838204D01*
X839537Y853770D01*
Y851105D01*
X838204Y849772D01*
X831539D01*
X839537Y847106D02*
X834205D01*
X831539Y844440D01*
X834205Y841774D01*
X839537D01*
X835538D01*
Y847106D01*
X839537Y839108D02*
X831539D01*
Y835110D01*
X832872Y833777D01*
X835538D01*
X836871Y835110D01*
Y839108D01*
Y836443D02*
X839537Y833777D01*
X831539Y831111D02*
Y825779D01*
Y828445D01*
X839537D01*
X832872Y823114D02*
X831539Y821781D01*
Y819115D01*
X832872Y817782D01*
X834205D01*
X835538Y819115D01*
Y820448D01*
Y819115D01*
X836871Y817782D01*
X838204D01*
X839537Y819115D01*
Y821781D01*
X838204Y823114D01*
X840870Y815116D02*
Y809785D01*
X831539Y807119D02*
Y801787D01*
Y804453D01*
X839537D01*
X831539Y799121D02*
X839537Y793790D01*
X831539D02*
X839537Y799121D01*
X850589Y855103D02*
X857254D01*
X858587Y853770D01*
Y851105D01*
X857254Y849772D01*
X850589D01*
X858587Y847106D02*
X853255D01*
X850589Y844440D01*
X853255Y841774D01*
X858587D01*
X854588D01*
Y847106D01*
X858587Y839108D02*
X850589D01*
Y835110D01*
X851922Y833777D01*
X854588D01*
X855921Y835110D01*
Y839108D01*
Y836443D02*
X858587Y833777D01*
X850589Y831111D02*
Y825779D01*
Y828445D01*
X858587D01*
X851922Y823114D02*
X850589Y821781D01*
Y819115D01*
X851922Y817782D01*
X853255D01*
X854588Y819115D01*
Y820448D01*
Y819115D01*
X855921Y817782D01*
X857254D01*
X858587Y819115D01*
Y821781D01*
X857254Y823114D01*
X859920Y815116D02*
Y809785D01*
X858587Y807119D02*
X850589D01*
Y803120D01*
X851922Y801787D01*
X854588D01*
X855921Y803120D01*
Y807119D01*
Y804453D02*
X858587Y801787D01*
X850589Y799121D02*
X858587Y793790D01*
X850589D02*
X858587Y799121D01*
X872242Y861202D02*
X870909Y862534D01*
Y865200D01*
X872242Y866533D01*
X877574D01*
X878907Y865200D01*
Y862534D01*
X877574Y861202D01*
X874908D01*
Y863867D01*
X878907Y858536D02*
X870909D01*
Y854537D01*
X872242Y853204D01*
X874908D01*
X876241Y854537D01*
Y858536D01*
X870909Y850538D02*
Y847873D01*
Y849205D01*
X878907D01*
Y850538D01*
Y847873D01*
X870909Y839875D02*
Y842541D01*
X872242Y843874D01*
X877574D01*
X878907Y842541D01*
Y839875D01*
X877574Y838542D01*
X872242D01*
X870909Y839875D01*
X878907Y830545D02*
Y835876D01*
X873575Y830545D01*
X872242D01*
X870909Y831878D01*
Y834544D01*
X872242Y835876D01*
X880240Y827879D02*
Y822548D01*
X870909Y819882D02*
Y817216D01*
Y818549D01*
X878907D01*
Y819882D01*
Y817216D01*
X870909Y809219D02*
Y811884D01*
X872242Y813217D01*
X877574D01*
X878907Y811884D01*
Y809219D01*
X877574Y807886D01*
X872242D01*
X870909Y809219D01*
X878907Y805220D02*
Y802554D01*
Y803887D01*
X870909D01*
X872242Y805220D01*
X878907Y793224D02*
Y798555D01*
X873575Y793224D01*
X872242D01*
X870909Y794557D01*
Y797222D01*
X872242Y798555D01*
X891229Y852563D02*
Y849897D01*
Y851230D01*
X899227D01*
Y852563D01*
Y849897D01*
Y840567D02*
Y845899D01*
X893895Y840567D01*
X892562D01*
X891229Y841900D01*
Y844566D01*
X892562Y845899D01*
Y832570D02*
X891229Y833903D01*
Y836568D01*
X892562Y837901D01*
X897894D01*
X899227Y836568D01*
Y833903D01*
X897894Y832570D01*
X899227Y824572D02*
Y829904D01*
X893895Y824572D01*
X892562D01*
X891229Y825905D01*
Y828571D01*
X892562Y829904D01*
X900560Y821907D02*
Y816575D01*
X892562Y808577D02*
X891229Y809910D01*
Y812576D01*
X892562Y813909D01*
X893895D01*
X895228Y812576D01*
Y809910D01*
X896561Y808577D01*
X897894D01*
X899227Y809910D01*
Y812576D01*
X897894Y813909D01*
X892562Y800580D02*
X891229Y801913D01*
Y804579D01*
X892562Y805912D01*
X897894D01*
X899227Y804579D01*
Y801913D01*
X897894Y800580D01*
X891229Y797914D02*
X899227D01*
Y792583D01*
X912819Y852563D02*
Y849897D01*
Y851230D01*
X920817D01*
Y852563D01*
Y849897D01*
Y840567D02*
Y845899D01*
X915485Y840567D01*
X914152D01*
X912819Y841900D01*
Y844566D01*
X914152Y845899D01*
Y832570D02*
X912819Y833903D01*
Y836568D01*
X914152Y837901D01*
X919484D01*
X920817Y836568D01*
Y833903D01*
X919484Y832570D01*
X920817Y824572D02*
Y829904D01*
X915485Y824572D01*
X914152D01*
X912819Y825905D01*
Y828571D01*
X914152Y829904D01*
X922150Y821907D02*
Y816575D01*
X914152Y808577D02*
X912819Y809910D01*
Y812576D01*
X914152Y813909D01*
X915485D01*
X916818Y812576D01*
Y809910D01*
X918151Y808577D01*
X919484D01*
X920817Y809910D01*
Y812576D01*
X919484Y813909D01*
X912819Y805912D02*
X920817D01*
Y801913D01*
X919484Y800580D01*
X914152D01*
X912819Y801913D01*
Y805912D01*
X920817Y797914D02*
X915485D01*
X912819Y795248D01*
X915485Y792583D01*
X920817D01*
X916818D01*
Y797914D01*
X933265Y814463D02*
X931932Y813130D01*
Y810464D01*
X933265Y809132D01*
X934598D01*
X935931Y810464D01*
Y811797D01*
Y810464D01*
X937264Y809132D01*
X938597D01*
X939930Y810464D01*
Y813130D01*
X938597Y814463D01*
X934598Y806466D02*
X939930Y803800D01*
X934598Y801134D01*
X933265Y798468D02*
X931932Y797135D01*
Y794470D01*
X933265Y793137D01*
X934598D01*
X935931Y794470D01*
Y795803D01*
Y794470D01*
X937264Y793137D01*
X938597D01*
X939930Y794470D01*
Y797135D01*
X938597Y798468D01*
X985840Y815071D02*
X984507Y813738D01*
Y811072D01*
X985840Y809739D01*
X987173D01*
X988506Y811072D01*
Y812405D01*
Y811072D01*
X989839Y809739D01*
X991172D01*
X992505Y811072D01*
Y813738D01*
X991172Y815071D01*
X987173Y807073D02*
X992505Y804408D01*
X987173Y801742D01*
X985840Y799076D02*
X984507Y797743D01*
Y795077D01*
X985840Y793744D01*
X987173D01*
X988506Y795077D01*
Y796410D01*
Y795077D01*
X989839Y793744D01*
X991172D01*
X992505Y795077D01*
Y797743D01*
X991172Y799076D01*
X1004638Y853833D02*
Y851167D01*
Y852500D01*
X1012635D01*
Y853833D01*
Y851167D01*
Y841837D02*
Y847169D01*
X1007303Y841837D01*
X1005971D01*
X1004638Y843170D01*
Y845836D01*
X1005971Y847169D01*
Y833840D02*
X1004638Y835173D01*
Y837838D01*
X1005971Y839171D01*
X1011302D01*
X1012635Y837838D01*
Y835173D01*
X1011302Y833840D01*
X1012635Y827175D02*
X1004638D01*
X1008636Y831174D01*
Y825842D01*
X1013968Y823176D02*
Y817845D01*
X1005971Y809847D02*
X1004638Y811180D01*
Y813846D01*
X1005971Y815179D01*
X1007303D01*
X1008636Y813846D01*
Y811180D01*
X1009969Y809847D01*
X1011302D01*
X1012635Y811180D01*
Y813846D01*
X1011302Y815179D01*
X1004638Y807182D02*
X1012635D01*
Y803183D01*
X1011302Y801850D01*
X1005971D01*
X1004638Y803183D01*
Y807182D01*
X1012635Y799184D02*
X1007303D01*
X1004638Y796518D01*
X1007303Y793853D01*
X1012635D01*
X1008636D01*
Y799184D01*
X1024958Y852563D02*
Y849897D01*
Y851230D01*
X1032955D01*
Y852563D01*
Y849897D01*
Y840567D02*
Y845899D01*
X1027624Y840567D01*
X1026291D01*
X1024958Y841900D01*
Y844566D01*
X1026291Y845899D01*
Y832570D02*
X1024958Y833903D01*
Y836568D01*
X1026291Y837901D01*
X1031622D01*
X1032955Y836568D01*
Y833903D01*
X1031622Y832570D01*
X1032955Y825905D02*
X1024958D01*
X1028956Y829904D01*
Y824572D01*
X1034288Y821907D02*
Y816575D01*
X1026291Y808577D02*
X1024958Y809910D01*
Y812576D01*
X1026291Y813909D01*
X1027624D01*
X1028956Y812576D01*
Y809910D01*
X1030289Y808577D01*
X1031622D01*
X1032955Y809910D01*
Y812576D01*
X1031622Y813909D01*
X1026291Y800580D02*
X1024958Y801913D01*
Y804579D01*
X1026291Y805912D01*
X1031622D01*
X1032955Y804579D01*
Y801913D01*
X1031622Y800580D01*
X1024958Y797914D02*
X1032955D01*
Y792583D01*
X1045341Y861202D02*
X1044008Y862534D01*
Y865200D01*
X1045341Y866533D01*
X1050672D01*
X1052005Y865200D01*
Y862534D01*
X1050672Y861202D01*
X1048006D01*
Y863867D01*
X1052005Y858536D02*
X1044008D01*
Y854537D01*
X1045341Y853204D01*
X1048006D01*
X1049339Y854537D01*
Y858536D01*
X1044008Y850538D02*
Y847873D01*
Y849205D01*
X1052005D01*
Y850538D01*
Y847873D01*
X1044008Y839875D02*
Y842541D01*
X1045341Y843874D01*
X1050672D01*
X1052005Y842541D01*
Y839875D01*
X1050672Y838542D01*
X1045341D01*
X1044008Y839875D01*
X1052005Y830545D02*
Y835876D01*
X1046674Y830545D01*
X1045341D01*
X1044008Y831878D01*
Y834544D01*
X1045341Y835876D01*
X1053338Y827879D02*
Y822548D01*
X1044008Y819882D02*
Y817216D01*
Y818549D01*
X1052005D01*
Y819882D01*
Y817216D01*
X1044008Y809219D02*
Y811884D01*
X1045341Y813217D01*
X1050672D01*
X1052005Y811884D01*
Y809219D01*
X1050672Y807886D01*
X1045341D01*
X1044008Y809219D01*
X1052005Y805220D02*
Y802554D01*
Y803887D01*
X1044008D01*
X1045341Y805220D01*
X1052005Y793224D02*
Y798555D01*
X1046674Y793224D01*
X1045341D01*
X1044008Y794557D01*
Y797222D01*
X1045341Y798555D01*
X1064517Y854441D02*
X1071182D01*
X1072514Y853108D01*
Y850442D01*
X1071182Y849109D01*
X1064517D01*
X1072514Y846443D02*
X1067183D01*
X1064517Y843778D01*
X1067183Y841112D01*
X1072514D01*
X1068516D01*
Y846443D01*
X1072514Y838446D02*
X1064517D01*
Y834447D01*
X1065850Y833114D01*
X1068516D01*
X1069849Y834447D01*
Y838446D01*
Y835780D02*
X1072514Y833114D01*
X1064517Y830449D02*
Y825117D01*
Y827783D01*
X1072514D01*
Y818453D02*
X1064517D01*
X1068516Y822451D01*
Y817120D01*
X1073847Y814454D02*
Y809122D01*
X1072514Y806456D02*
X1064517D01*
Y802458D01*
X1065850Y801125D01*
X1068516D01*
X1069849Y802458D01*
Y806456D01*
Y803791D02*
X1072514Y801125D01*
X1064517Y798459D02*
X1072514Y793127D01*
X1064517D02*
X1072514Y798459D01*
X1086107Y855711D02*
X1092772D01*
X1094105Y854378D01*
Y851712D01*
X1092772Y850379D01*
X1086107D01*
X1094105Y847713D02*
X1088773D01*
X1086107Y845048D01*
X1088773Y842382D01*
X1094105D01*
X1090106D01*
Y847713D01*
X1094105Y839716D02*
X1086107D01*
Y835717D01*
X1087440Y834384D01*
X1090106D01*
X1091439Y835717D01*
Y839716D01*
Y837050D02*
X1094105Y834384D01*
X1086107Y831719D02*
Y826387D01*
Y829053D01*
X1094105D01*
Y819723D02*
X1086107D01*
X1090106Y823721D01*
Y818390D01*
X1095437Y815724D02*
Y810392D01*
X1086107Y807726D02*
Y802395D01*
Y805061D01*
X1094105D01*
X1086107Y799729D02*
X1094105Y794397D01*
X1086107D02*
X1094105Y799729D01*
X1107760Y809739D02*
X1106427Y811072D01*
Y813738D01*
X1107760Y815071D01*
X1113092D01*
X1114425Y813738D01*
Y811072D01*
X1113092Y809739D01*
X1110426D01*
Y812405D01*
X1114425Y807073D02*
X1106427D01*
X1114425Y801742D01*
X1106427D01*
Y799076D02*
X1114425D01*
Y795077D01*
X1113092Y793744D01*
X1107760D01*
X1106427Y795077D01*
Y799076D01*
X1148400Y842759D02*
X1147067Y844092D01*
Y846758D01*
X1148400Y848091D01*
X1149733D01*
X1151066Y846758D01*
Y844092D01*
X1152399Y842759D01*
X1153732D01*
X1155064Y844092D01*
Y846758D01*
X1153732Y848091D01*
X1147067Y836095D02*
Y838761D01*
X1148400Y840093D01*
X1153732D01*
X1155064Y838761D01*
Y836095D01*
X1153732Y834762D01*
X1148400D01*
X1147067Y836095D01*
X1155064Y832096D02*
X1147067D01*
X1149733Y829430D01*
X1147067Y826764D01*
X1155064D01*
X1156397Y824099D02*
Y818767D01*
X1155064Y816101D02*
X1147067D01*
Y812103D01*
X1148400Y810770D01*
X1151066D01*
X1152399Y812103D01*
Y816101D01*
Y813435D02*
X1155064Y810770D01*
X1148400Y802772D02*
X1147067Y804105D01*
Y806771D01*
X1148400Y808104D01*
X1149733D01*
X1151066Y806771D01*
Y804105D01*
X1152399Y802772D01*
X1153732D01*
X1155064Y804105D01*
Y806771D01*
X1153732Y808104D01*
X1147067Y800106D02*
Y794775D01*
Y797441D01*
X1155064D01*
X1169927Y802119D02*
Y807451D01*
X1173926D01*
X1172593Y804785D01*
Y803452D01*
X1173926Y802119D01*
X1176592D01*
X1177924Y803452D01*
Y806118D01*
X1176592Y807451D01*
X1169927Y799453D02*
X1175259D01*
X1177924Y796788D01*
X1175259Y794122D01*
X1169927D01*
X1157478Y734453D02*
X1153246D01*
X1151130Y732337D01*
X1153246Y730221D01*
X1157478D01*
X1154304D01*
Y734453D01*
X1151130Y728105D02*
X1157478D01*
Y724931D01*
X1156420Y723873D01*
X1152188D01*
X1151130Y724931D01*
Y728105D01*
X1152188Y717525D02*
X1151130Y718583D01*
Y720699D01*
X1152188Y721757D01*
X1156420D01*
X1157478Y720699D01*
Y718583D01*
X1156420Y717525D01*
X1152188Y715409D02*
X1151130Y714351D01*
Y712235D01*
X1152188Y711177D01*
X1153246D01*
X1154304Y712235D01*
Y713293D01*
Y712235D01*
X1155362Y711177D01*
X1156420D01*
X1157478Y712235D01*
Y714351D01*
X1156420Y715409D01*
X1135888Y729373D02*
X1129540D01*
Y726199D01*
X1130598Y725141D01*
X1132714D01*
X1133772Y726199D01*
Y729373D01*
X1129540Y723025D02*
X1135888D01*
X1133772Y720909D01*
X1135888Y718793D01*
X1129540D01*
X1135888Y716677D02*
X1129540D01*
X1131656Y714561D01*
X1129540Y712445D01*
X1135888D01*
Y706097D02*
Y710329D01*
X1131656Y706097D01*
X1130598D01*
X1129540Y707155D01*
Y709271D01*
X1130598Y710329D01*
X1110490Y726411D02*
X1109432Y727469D01*
Y729585D01*
X1110490Y730643D01*
X1114722D01*
X1115780Y729585D01*
Y727469D01*
X1114722Y726411D01*
X1112606D01*
Y728527D01*
X1115780Y724295D02*
X1109432D01*
Y721121D01*
X1110490Y720063D01*
X1112606D01*
X1113664Y721121D01*
Y724295D01*
X1109432Y717947D02*
Y715831D01*
Y716889D01*
X1115780D01*
Y717947D01*
Y715831D01*
X1109432Y709483D02*
Y711599D01*
X1110490Y712657D01*
X1114722D01*
X1115780Y711599D01*
Y709483D01*
X1114722Y708425D01*
X1110490D01*
X1109432Y709483D01*
X1115780Y702077D02*
Y706309D01*
X1111548Y702077D01*
X1110490D01*
X1109432Y703135D01*
Y705251D01*
X1110490Y706309D01*
X1116838Y699961D02*
Y695730D01*
X1109432Y693614D02*
Y691498D01*
Y692555D01*
X1115780D01*
Y693614D01*
Y691498D01*
X1109432Y685150D02*
Y687266D01*
X1110490Y688324D01*
X1114722D01*
X1115780Y687266D01*
Y685150D01*
X1114722Y684092D01*
X1110490D01*
X1109432Y685150D01*
X1115780Y681976D02*
Y679860D01*
Y680918D01*
X1109432D01*
X1110490Y681976D01*
Y676686D02*
X1109432Y675628D01*
Y673512D01*
X1110490Y672454D01*
X1111548D01*
X1112606Y673512D01*
Y674570D01*
Y673512D01*
X1113664Y672454D01*
X1114722D01*
X1115780Y673512D01*
Y675628D01*
X1114722Y676686D01*
X1091440Y727681D02*
X1090382Y728739D01*
Y730855D01*
X1091440Y731913D01*
X1095672D01*
X1096730Y730855D01*
Y728739D01*
X1095672Y727681D01*
X1093556D01*
Y729797D01*
X1096730Y725565D02*
X1090382D01*
Y722391D01*
X1091440Y721333D01*
X1093556D01*
X1094614Y722391D01*
Y725565D01*
X1090382Y719217D02*
Y717101D01*
Y718159D01*
X1096730D01*
Y719217D01*
Y717101D01*
X1090382Y710753D02*
Y712869D01*
X1091440Y713927D01*
X1095672D01*
X1096730Y712869D01*
Y710753D01*
X1095672Y709695D01*
X1091440D01*
X1090382Y710753D01*
X1096730Y703347D02*
Y707579D01*
X1092498Y703347D01*
X1091440D01*
X1090382Y704405D01*
Y706521D01*
X1091440Y707579D01*
X1097788Y701232D02*
Y697000D01*
X1090382Y694883D02*
Y692768D01*
Y693826D01*
X1096730D01*
Y694883D01*
Y692768D01*
X1090382Y686420D02*
Y688536D01*
X1091440Y689594D01*
X1095672D01*
X1096730Y688536D01*
Y686420D01*
X1095672Y685362D01*
X1091440D01*
X1090382Y686420D01*
X1096730Y683246D02*
Y681130D01*
Y682188D01*
X1090382D01*
X1091440Y683246D01*
X1096730Y674782D02*
X1090382D01*
X1093556Y677956D01*
Y673724D01*
X1070062Y728951D02*
Y733183D01*
X1076410D01*
Y728951D01*
X1073236Y733183D02*
Y731067D01*
X1071120Y722603D02*
X1070062Y723661D01*
Y725777D01*
X1071120Y726835D01*
X1072178D01*
X1073236Y725777D01*
Y723661D01*
X1074294Y722603D01*
X1075352D01*
X1076410Y723661D01*
Y725777D01*
X1075352Y726835D01*
X1076410Y720487D02*
X1070062D01*
Y717313D01*
X1071120Y716255D01*
X1073236D01*
X1074294Y717313D01*
Y720487D01*
X1070062Y714139D02*
Y712023D01*
Y713081D01*
X1076410D01*
Y714139D01*
Y712023D01*
Y704617D02*
Y708849D01*
X1072178Y704617D01*
X1071120D01*
X1070062Y705675D01*
Y707791D01*
X1071120Y708849D01*
X1077468Y702502D02*
Y698270D01*
X1071120Y691922D02*
X1070062Y692980D01*
Y695096D01*
X1071120Y696153D01*
X1072178D01*
X1073236Y695096D01*
Y692980D01*
X1074294Y691922D01*
X1075352D01*
X1076410Y692980D01*
Y695096D01*
X1075352Y696153D01*
X1071120Y685574D02*
X1070062Y686632D01*
Y688748D01*
X1071120Y689806D01*
X1072178D01*
X1073236Y688748D01*
Y686632D01*
X1074294Y685574D01*
X1075352D01*
X1076410Y686632D01*
Y688748D01*
X1075352Y689806D01*
X1071120Y683458D02*
X1070062Y682400D01*
Y680284D01*
X1071120Y679226D01*
X1075352D01*
X1076410Y680284D01*
Y682400D01*
X1075352Y683458D01*
X1071120D01*
X1049742Y727681D02*
Y731913D01*
X1056090D01*
Y727681D01*
X1052916Y731913D02*
Y729797D01*
X1050800Y721333D02*
X1049742Y722391D01*
Y724507D01*
X1050800Y725565D01*
X1051858D01*
X1052916Y724507D01*
Y722391D01*
X1053974Y721333D01*
X1055032D01*
X1056090Y722391D01*
Y724507D01*
X1055032Y725565D01*
X1056090Y719217D02*
X1049742D01*
Y716043D01*
X1050800Y714985D01*
X1052916D01*
X1053974Y716043D01*
Y719217D01*
X1049742Y712869D02*
Y710753D01*
Y711811D01*
X1056090D01*
Y712869D01*
Y710753D01*
Y703347D02*
Y707579D01*
X1051858Y703347D01*
X1050800D01*
X1049742Y704405D01*
Y706521D01*
X1050800Y707579D01*
X1057148Y701232D02*
Y697000D01*
X1050800Y690652D02*
X1049742Y691710D01*
Y693826D01*
X1050800Y694883D01*
X1051858D01*
X1052916Y693826D01*
Y691710D01*
X1053974Y690652D01*
X1055032D01*
X1056090Y691710D01*
Y693826D01*
X1055032Y694883D01*
X1050800Y684304D02*
X1049742Y685362D01*
Y687478D01*
X1050800Y688536D01*
X1055032D01*
X1056090Y687478D01*
Y685362D01*
X1055032Y684304D01*
X1049742Y682188D02*
X1056090D01*
Y677956D01*
X1049742Y675840D02*
X1056090D01*
X1053974D01*
X1049742Y671608D01*
X1052916Y674782D01*
X1056090Y671608D01*
X1028152Y728951D02*
Y733183D01*
X1034500D01*
Y728951D01*
X1031326Y733183D02*
Y731067D01*
X1029210Y722603D02*
X1028152Y723661D01*
Y725777D01*
X1029210Y726835D01*
X1030268D01*
X1031326Y725777D01*
Y723661D01*
X1032384Y722603D01*
X1033442D01*
X1034500Y723661D01*
Y725777D01*
X1033442Y726835D01*
X1034500Y720487D02*
X1028152D01*
Y717313D01*
X1029210Y716255D01*
X1031326D01*
X1032384Y717313D01*
Y720487D01*
X1028152Y714139D02*
Y712023D01*
Y713081D01*
X1034500D01*
Y714139D01*
Y712023D01*
Y704617D02*
Y708849D01*
X1030268Y704617D01*
X1029210D01*
X1028152Y705675D01*
Y707791D01*
X1029210Y708849D01*
X1035558Y702502D02*
Y698270D01*
X1034500Y696153D02*
X1028152D01*
X1030268Y694038D01*
X1028152Y691922D01*
X1034500D01*
X1028152Y689806D02*
Y687690D01*
Y688748D01*
X1034500D01*
Y689806D01*
Y687690D01*
X1029210Y680284D02*
X1028152Y681342D01*
Y683458D01*
X1029210Y684516D01*
X1030268D01*
X1031326Y683458D01*
Y681342D01*
X1032384Y680284D01*
X1033442D01*
X1034500Y681342D01*
Y683458D01*
X1033442Y684516D01*
X1028152Y674994D02*
Y677110D01*
X1029210Y678168D01*
X1033442D01*
X1034500Y677110D01*
Y674994D01*
X1033442Y673936D01*
X1029210D01*
X1028152Y674994D01*
X1009102Y728951D02*
Y733183D01*
X1015450D01*
Y728951D01*
X1012276Y733183D02*
Y731067D01*
X1010160Y722603D02*
X1009102Y723661D01*
Y725777D01*
X1010160Y726835D01*
X1011218D01*
X1012276Y725777D01*
Y723661D01*
X1013334Y722603D01*
X1014392D01*
X1015450Y723661D01*
Y725777D01*
X1014392Y726835D01*
X1015450Y720487D02*
X1009102D01*
Y717313D01*
X1010160Y716255D01*
X1012276D01*
X1013334Y717313D01*
Y720487D01*
X1009102Y714139D02*
Y712023D01*
Y713081D01*
X1015450D01*
Y714139D01*
Y712023D01*
Y704617D02*
Y708849D01*
X1011218Y704617D01*
X1010160D01*
X1009102Y705675D01*
Y707791D01*
X1010160Y708849D01*
X1016508Y702502D02*
Y698270D01*
X1015450Y696153D02*
X1009102D01*
X1011218Y694038D01*
X1009102Y691922D01*
X1015450D01*
X1009102Y686632D02*
Y688748D01*
X1010160Y689806D01*
X1014392D01*
X1015450Y688748D01*
Y686632D01*
X1014392Y685574D01*
X1010160D01*
X1009102Y686632D01*
X1010160Y679226D02*
X1009102Y680284D01*
Y682400D01*
X1010160Y683458D01*
X1011218D01*
X1012276Y682400D01*
Y680284D01*
X1013334Y679226D01*
X1014392D01*
X1015450Y680284D01*
Y682400D01*
X1014392Y683458D01*
X1009102Y677110D02*
Y674994D01*
Y676052D01*
X1015450D01*
Y677110D01*
Y674994D01*
X989840Y728951D02*
X988782Y730009D01*
Y732125D01*
X989840Y733183D01*
X994072D01*
X995130Y732125D01*
Y730009D01*
X994072Y728951D01*
X991956D01*
Y731067D01*
X995130Y726835D02*
X988782D01*
Y723661D01*
X989840Y722603D01*
X991956D01*
X993014Y723661D01*
Y726835D01*
X988782Y720487D02*
Y718371D01*
Y719429D01*
X995130D01*
Y720487D01*
Y718371D01*
X988782Y712023D02*
Y714139D01*
X989840Y715197D01*
X994072D01*
X995130Y714139D01*
Y712023D01*
X994072Y710965D01*
X989840D01*
X988782Y712023D01*
X995130Y708849D02*
Y706733D01*
Y707791D01*
X988782D01*
X989840Y708849D01*
X996188Y703559D02*
Y699327D01*
X988782Y697212D02*
Y695096D01*
Y696153D01*
X995130D01*
Y697212D01*
Y695096D01*
X988782Y688748D02*
Y690864D01*
X989840Y691922D01*
X994072D01*
X995130Y690864D01*
Y688748D01*
X994072Y687690D01*
X989840D01*
X988782Y688748D01*
X995130Y685574D02*
Y683458D01*
Y684516D01*
X988782D01*
X989840Y685574D01*
Y680284D02*
X988782Y679226D01*
Y677110D01*
X989840Y676052D01*
X990898D01*
X991956Y677110D01*
Y678168D01*
Y677110D01*
X993014Y676052D01*
X994072D01*
X995130Y677110D01*
Y679226D01*
X994072Y680284D01*
X1134744Y815071D02*
X1126747D01*
Y811072D01*
X1128080Y809739D01*
X1130746D01*
X1132079Y811072D01*
Y815071D01*
Y812405D02*
X1134744Y809739D01*
X1126747Y807073D02*
Y801742D01*
Y804408D01*
X1134744D01*
X1128080Y793744D02*
X1126747Y795077D01*
Y797743D01*
X1128080Y799076D01*
X1133412D01*
X1134744Y797743D01*
Y795077D01*
X1133412Y793744D01*
X873761Y1054102D02*
X880109D01*
X881379Y1055372D01*
Y1057911D01*
X880109Y1059180D01*
X873761D01*
Y1066798D02*
X875031Y1064259D01*
X877570Y1061720D01*
X880109D01*
X881379Y1062989D01*
Y1065528D01*
X880109Y1066798D01*
X878840D01*
X877570Y1065528D01*
Y1061720D01*
X791210Y1089659D02*
X789941Y1090929D01*
X787402D01*
X786132Y1089659D01*
Y1088390D01*
X787402Y1087120D01*
X789941D01*
X791210Y1085850D01*
Y1084581D01*
X789941Y1083311D01*
X787402D01*
X786132Y1084581D01*
X798828Y1083311D02*
X793750D01*
X798828Y1088390D01*
Y1089659D01*
X797558Y1090929D01*
X795019D01*
X793750Y1089659D01*
X834392Y930909D02*
Y924561D01*
X835662Y923291D01*
X838201D01*
X839470Y924561D01*
Y930909D01*
X842010Y929639D02*
X843279Y930909D01*
X845818D01*
X847088Y929639D01*
Y928370D01*
X845818Y927100D01*
X847088Y925830D01*
Y924561D01*
X845818Y923291D01*
X843279D01*
X842010Y924561D01*
Y925830D01*
X843279Y927100D01*
X842010Y928370D01*
Y929639D01*
X843279Y927100D02*
X845818D01*
X830581Y902972D02*
X836929D01*
X838199Y904242D01*
Y906781D01*
X836929Y908050D01*
X830581D01*
Y910590D02*
Y915668D01*
X831851D01*
X836929Y910590D01*
X838199D01*
X726441Y867410D02*
X725171Y866140D01*
Y863601D01*
X726441Y862332D01*
X727710D01*
X728980Y863601D01*
Y866140D01*
X730250Y867410D01*
X731519D01*
X732789Y866140D01*
Y863601D01*
X731519Y862332D01*
X732789Y869949D02*
Y872488D01*
Y871219D01*
X725171D01*
X726441Y869949D01*
X900431Y876302D02*
X901701D01*
X904240Y878841D01*
X901701Y881380D01*
X900431D01*
X904240Y878841D02*
X908049D01*
Y883919D02*
Y886458D01*
Y885189D01*
X900431D01*
X901701Y883919D01*
X891539Y957578D02*
X885191D01*
X883921Y956308D01*
Y953769D01*
X885191Y952500D01*
X891539D01*
X890269Y949960D02*
X891539Y948691D01*
Y946152D01*
X890269Y944882D01*
X889000D01*
X887730Y946152D01*
Y947421D01*
Y946152D01*
X886460Y944882D01*
X885191D01*
X883921Y946152D01*
Y948691D01*
X885191Y949960D01*
D16*
X831850Y962660D02*
Y960544D01*
X829734D01*
Y962660D01*
X831850D01*
M02*
