G04*
G04 #@! TF.GenerationSoftware,Altium Limited,Altium Designer,22.11.1 (43)*
G04*
G04 Layer_Physical_Order=6*
G04 Layer_Color=16711680*
%FSLAX44Y44*%
%MOMM*%
G71*
G04*
G04 #@! TF.SameCoordinates,81CC0E8B-20A0-439E-BAEA-CE75FBAB7F8A*
G04*
G04*
G04 #@! TF.FilePolarity,Positive*
G04*
G01*
G75*
%ADD11C,0.5080*%
%ADD13C,0.2540*%
%ADD17C,0.2032*%
%ADD78C,2.0066*%
%ADD79C,2.2098*%
%ADD83C,0.5080*%
%ADD85C,0.2692*%
%ADD93C,0.6500*%
%ADD94C,0.6350*%
%ADD95C,0.4064*%
%ADD96C,1.2700*%
%AMCUSTOMSHAPE98*
4,1,120,0.7550,0.0000,0.7540,0.0395,0.7509,0.0789,0.7457,0.1181,0.7385,0.1570,0.7293,0.1954,0.7181,0.2333,0.7049,0.2706,0.6897,0.3071,0.6727,0.3428,0.6539,0.3775,0.6332,0.4112,0.6108,0.4438,0.5868,0.4751,0.5611,0.5052,0.5339,0.5339,0.5052,0.5611,0.4752,0.5867,0.4438,0.6108,0.4112,0.6332,0.3775,0.6539,0.3428,0.6727,0.3071,0.6897,0.2706,0.7049,0.2333,0.7181,0.1954,0.7293,0.1570,0.7385,0.1181,0.7457,0.0789,0.7509,0.0395,0.7540,-0.0000,0.7550,-0.0395,0.7540,-0.0789,0.7509,-0.1181,0.7457,-0.1570,0.7385,-0.1954,0.7293,-0.2333,0.7181,-0.2706,0.7049,-0.3071,0.6897,-0.3428,0.6727,-0.3775,0.6539,-0.4112,0.6332,-0.4438,0.6108,-0.4752,0.5867,-0.5052,0.5611,-0.5339,0.5339,-0.5611,0.5052,-0.5868,0.4751,-0.6108,0.4438,-0.6332,0.4112,-0.6539,0.3775,-0.6727,0.3428,-0.6897,0.3071,-0.7049,0.2706,-0.7181,0.2333,-0.7293,0.1954,-0.7385,0.1570,-0.7457,0.1181,-0.7509,0.0789,-0.7540,0.0395,-0.7550,0.0000,-0.7540,-0.0395,-0.7509,-0.0789,-0.7457,-0.1181,-0.7385,-0.1570,-0.7293,-0.1954,-0.7181,-0.2333,-0.7049,-0.2706,-0.6897,-0.3071,-0.6727,-0.3428,-0.6539,-0.3775,-0.6332,-0.4112,-0.6108,-0.4438,-0.5868,-0.4751,-0.5611,-0.5052,-0.5339,-0.5339,-0.5052,-0.5611,-0.4752,-0.5867,-0.4438,-0.6108,-0.4112,-0.6332,-0.3775,-0.6539,-0.3428,-0.6727,-0.3071,-0.6897,-0.2706,-0.7049,-0.2333,-0.7181,-0.1954,-0.7293,-0.1570,-0.7385,-0.1181,-0.7457,-0.0789,-0.7509,-0.0395,-0.7540,-0.0000,-0.7550,0.0395,-0.7540,0.0789,-0.7509,0.1181,-0.7457,0.1570,-0.7385,0.1954,-0.7293,0.2333,-0.7181,0.2706,-0.7049,0.3071,-0.6897,0.3428,-0.6727,0.3775,-0.6539,0.4112,-0.6332,0.4438,-0.6108,0.4752,-0.5867,0.5052,-0.5611,0.5339,-0.5339,0.5611,-0.5052,0.5868,-0.4751,0.6108,-0.4438,0.6332,-0.4112,0.6539,-0.3775,0.6727,-0.3428,0.6897,-0.3071,0.7049,-0.2706,0.7181,-0.2333,0.7293,-0.1954,0.7385,-0.1570,0.7457,-0.1181,0.7509,-0.0789,0.7540,-0.0395,0.7550,0.0000,0.0*%
%ADD98CUSTOMSHAPE98*%

%AMCUSTOMSHAPE99*
4,1,120,0.7550,0.0000,0.7540,0.0395,0.7509,0.0789,0.7457,0.1181,0.7385,0.1570,0.7293,0.1954,0.7180,0.2333,0.7049,0.2706,0.6897,0.3071,0.6727,0.3428,0.6539,0.3775,0.6332,0.4112,0.6108,0.4438,0.5867,0.4751,0.5611,0.5052,0.5339,0.5339,0.5052,0.5611,0.4751,0.5867,0.4438,0.6108,0.4112,0.6332,0.3775,0.6539,0.3428,0.6727,0.3071,0.6897,0.2706,0.7049,0.2333,0.7180,0.1954,0.7293,0.1570,0.7385,0.1181,0.7457,0.0789,0.7509,0.0395,0.7540,0.0000,0.7550,-0.0395,0.7540,-0.0789,0.7509,-0.1181,0.7457,-0.1570,0.7385,-0.1954,0.7293,-0.2333,0.7180,-0.2706,0.7049,-0.3071,0.6897,-0.3428,0.6727,-0.3775,0.6539,-0.4112,0.6332,-0.4438,0.6108,-0.4751,0.5867,-0.5052,0.5611,-0.5339,0.5339,-0.5611,0.5052,-0.5867,0.4751,-0.6108,0.4438,-0.6332,0.4112,-0.6539,0.3775,-0.6727,0.3428,-0.6897,0.3071,-0.7049,0.2706,-0.7180,0.2333,-0.7293,0.1954,-0.7385,0.1570,-0.7457,0.1181,-0.7509,0.0789,-0.7540,0.0395,-0.7550,0.0000,-0.7540,-0.0395,-0.7509,-0.0789,-0.7457,-0.1181,-0.7385,-0.1570,-0.7293,-0.1954,-0.7180,-0.2333,-0.7049,-0.2706,-0.6897,-0.3071,-0.6727,-0.3428,-0.6539,-0.3775,-0.6332,-0.4112,-0.6108,-0.4438,-0.5867,-0.4751,-0.5611,-0.5052,-0.5339,-0.5339,-0.5052,-0.5611,-0.4751,-0.5867,-0.4438,-0.6108,-0.4112,-0.6332,-0.3775,-0.6539,-0.3428,-0.6727,-0.3071,-0.6897,-0.2706,-0.7049,-0.2333,-0.7180,-0.1954,-0.7293,-0.1570,-0.7385,-0.1181,-0.7457,-0.0789,-0.7509,-0.0395,-0.7540,0.0000,-0.7550,0.0395,-0.7540,0.0789,-0.7509,0.1181,-0.7457,0.1570,-0.7385,0.1954,-0.7293,0.2333,-0.7180,0.2706,-0.7049,0.3071,-0.6897,0.3428,-0.6727,0.3775,-0.6539,0.4112,-0.6332,0.4438,-0.6108,0.4751,-0.5867,0.5052,-0.5611,0.5339,-0.5339,0.5611,-0.5052,0.5867,-0.4751,0.6108,-0.4438,0.6332,-0.4112,0.6539,-0.3775,0.6727,-0.3428,0.6897,-0.3071,0.7049,-0.2706,0.7180,-0.2333,0.7293,-0.1954,0.7385,-0.1570,0.7457,-0.1181,0.7509,-0.0789,0.7540,-0.0395,0.7550,0.0000,0.0*%
%ADD99CUSTOMSHAPE99*%

G36*
X988060Y1036320D02*
X1238250D01*
Y793750D01*
X793242D01*
Y793848D01*
X791308Y795782D01*
X788572D01*
X787895Y795105D01*
X786130Y794129D01*
X784365Y795105D01*
X783688Y795782D01*
X780952D01*
X779018Y793848D01*
Y793750D01*
X679450D01*
Y883920D01*
X679450Y883920D01*
X679450Y883920D01*
X678962Y888875D01*
X675169Y898031D01*
X668161Y905039D01*
X659005Y908832D01*
X654050Y909320D01*
X626117Y909320D01*
X623783Y910287D01*
X621997Y912073D01*
X621030Y914407D01*
Y915670D01*
Y1052830D01*
X621030Y1052830D01*
X621030Y1052830D01*
X621030Y1057630D01*
X624703Y1066498D01*
X631491Y1073286D01*
X640360Y1076960D01*
X645160Y1076960D01*
X826770Y1076960D01*
Y1076652D01*
X829002Y1074420D01*
X830957D01*
X832114Y1071626D01*
X813694Y1053206D01*
X812486Y1050290D01*
Y1036320D01*
X812800Y1035562D01*
Y1034742D01*
X813380Y1034162D01*
X813694Y1033404D01*
X814452Y1033090D01*
X815032Y1032510D01*
X815852D01*
X816610Y1032196D01*
X817368Y1032510D01*
X818188D01*
X818768Y1033090D01*
X819526Y1033404D01*
X819840Y1034162D01*
X820420Y1034742D01*
Y1035562D01*
X820734Y1036320D01*
Y1048582D01*
X841709Y1069557D01*
X844024Y1068334D01*
X844236Y1068070D01*
Y1037590D01*
X844550Y1036832D01*
Y1036012D01*
X845130Y1035432D01*
X845444Y1034674D01*
X846202Y1034360D01*
X846782Y1033780D01*
X847602D01*
X848360Y1033466D01*
X849118Y1033780D01*
X849938D01*
X850518Y1034360D01*
X851276Y1034674D01*
X851590Y1035432D01*
X852170Y1036012D01*
Y1036832D01*
X852484Y1037590D01*
Y1068070D01*
X854258Y1070184D01*
X854696Y1070296D01*
X855980D01*
X856738Y1070610D01*
X857558D01*
X858138Y1071190D01*
X858896Y1071504D01*
X859210Y1072262D01*
X859790Y1072842D01*
Y1073662D01*
X860104Y1074420D01*
X861487Y1076679D01*
X862186Y1076960D01*
X988060Y1076960D01*
Y1036320D01*
D02*
G37*
%LPC*%
G36*
X797658Y1063752D02*
X794922D01*
X792988Y1061818D01*
Y1059082D01*
X794922Y1057148D01*
X797658D01*
X799592Y1059082D01*
Y1061818D01*
X797658Y1063752D01*
D02*
G37*
G36*
X896928Y1062990D02*
X893772D01*
X891540Y1060758D01*
Y1057602D01*
X893772Y1055370D01*
X896928D01*
X899160Y1057602D01*
Y1060758D01*
X896928Y1062990D01*
D02*
G37*
G36*
X764638Y1054862D02*
X761902D01*
X759968Y1052928D01*
Y1050192D01*
X761902Y1048258D01*
X764638D01*
X766572Y1050192D01*
Y1052928D01*
X764638Y1054862D01*
D02*
G37*
G36*
X941168Y1053592D02*
X938432D01*
X936498Y1051658D01*
Y1048922D01*
X938432Y1046988D01*
X941168D01*
X943102Y1048922D01*
Y1051658D01*
X941168Y1053592D01*
D02*
G37*
G36*
X929948Y1046480D02*
X926792D01*
X926095Y1045783D01*
X925656Y1045965D01*
X907601D01*
X905851Y1045241D01*
X902138Y1041527D01*
X901700Y1041708D01*
X899468Y1043940D01*
X896312D01*
X894080Y1041708D01*
Y1038552D01*
X895843Y1036788D01*
X896012Y1036444D01*
X895102Y1033780D01*
X893772D01*
X891540Y1031548D01*
Y1028392D01*
X893772Y1026160D01*
X896366D01*
X896928Y1026160D01*
X899160Y1024582D01*
X899160Y1024582D01*
X899231Y1024511D01*
X901392Y1022350D01*
X904548D01*
X905225Y1023027D01*
X906927Y1024483D01*
X908966Y1023114D01*
X909222Y1022858D01*
X910393D01*
X913196Y1020055D01*
Y1008135D01*
X912105Y1007044D01*
X905884D01*
X904548Y1008380D01*
X901392D01*
X899983Y1006972D01*
X897189Y1008129D01*
Y1009015D01*
X896465Y1010765D01*
X885190Y1022039D01*
Y1023928D01*
X882958Y1026160D01*
X879802D01*
X878774Y1026586D01*
Y1036320D01*
X878050Y1038070D01*
X875510Y1040610D01*
X873760Y1041334D01*
X867410D01*
X865660Y1040610D01*
X857835Y1032785D01*
X857348Y1033272D01*
X854612D01*
X852678Y1031338D01*
Y1028602D01*
X854612Y1026668D01*
X857348D01*
X858175Y1027496D01*
X858520D01*
X860270Y1028220D01*
X860872Y1028822D01*
X863666Y1027665D01*
Y995680D01*
X864390Y993930D01*
X867532Y990788D01*
X866375Y987994D01*
X861434D01*
X860098Y989330D01*
X856942D01*
X854710Y987098D01*
Y983942D01*
X856942Y981710D01*
X860098D01*
X861434Y983046D01*
X869576D01*
X870912Y981710D01*
X874068D01*
X875350Y982991D01*
X878144Y981834D01*
Y978662D01*
X878868Y976912D01*
X886968Y968813D01*
Y967642D01*
X888902Y965708D01*
X889200Y964990D01*
X888238Y964028D01*
X888238Y961331D01*
X886235Y959384D01*
X884228Y961390D01*
X881072D01*
X878840Y959158D01*
Y956041D01*
X876837Y954093D01*
X876398Y954532D01*
X873662D01*
X871728Y952598D01*
Y949862D01*
X873026Y948565D01*
Y945026D01*
X873026Y945026D01*
X873191Y944626D01*
X872392Y941832D01*
X870458Y939898D01*
Y937547D01*
X845778D01*
X844029Y936823D01*
X840591Y933384D01*
X809915D01*
X809088Y934212D01*
X806352D01*
X804418Y932278D01*
Y929542D01*
X806352Y927608D01*
X809088D01*
X809915Y928436D01*
X813308D01*
Y925732D01*
X815242Y923798D01*
X817978D01*
X818805Y924626D01*
X828888D01*
X829118Y924070D01*
Y920914D01*
X831349Y918682D01*
X834506D01*
X835842Y920018D01*
X858654D01*
X859632Y920423D01*
X861215Y918054D01*
X858884Y915723D01*
X858159Y913974D01*
Y913562D01*
X857765Y913167D01*
X855472Y911958D01*
X853538Y913892D01*
X850802D01*
X848868Y911958D01*
Y909222D01*
X850802Y907288D01*
X853538D01*
X853813Y907563D01*
X854017Y907479D01*
X855951Y905545D01*
X858686D01*
X860621Y907479D01*
Y909025D01*
X862383Y910787D01*
X863108Y912537D01*
Y912949D01*
X868435Y918276D01*
X876645D01*
X877472Y917448D01*
X877628D01*
X878840Y914708D01*
X878840Y914654D01*
Y911552D01*
X881072Y909320D01*
X884228D01*
X886460Y911552D01*
Y911882D01*
X887632Y912368D01*
X890368D01*
X892302Y914302D01*
Y915084D01*
X901569Y924351D01*
X916940D01*
X916940Y924351D01*
X918884Y925156D01*
X923175Y929447D01*
X923175Y929447D01*
X923980Y931391D01*
Y939109D01*
X924533Y939661D01*
Y942397D01*
X922598Y944331D01*
X919863D01*
X918511Y942979D01*
X915768Y943102D01*
X915427Y943102D01*
X913032D01*
X911098Y941168D01*
Y940730D01*
X909108Y938739D01*
X902619D01*
X902462Y939118D01*
Y941853D01*
X901163Y943153D01*
X902462Y944452D01*
Y947188D01*
X900528Y949122D01*
X897792D01*
X896759Y948089D01*
X895849Y947712D01*
X885467D01*
X883666Y949862D01*
Y952598D01*
X884152Y953770D01*
X884228D01*
X886460Y956002D01*
X886460Y959075D01*
X888494Y960950D01*
X890172Y959358D01*
X890199Y959358D01*
X890199Y959358D01*
X890214Y959358D01*
X892908D01*
X894390Y960840D01*
X894560Y960910D01*
X896465Y962815D01*
X897189Y964565D01*
Y1001011D01*
X899983Y1002169D01*
X901392Y1000760D01*
X904548D01*
X905884Y1002096D01*
X913130D01*
X914880Y1002820D01*
X917420Y1005360D01*
X917912Y1006549D01*
X919889Y1007249D01*
X920938Y1007332D01*
X921922Y1006348D01*
X924658D01*
X926592Y1008282D01*
Y1010158D01*
X928468D01*
X929295Y1010986D01*
X936498D01*
Y1008282D01*
X938432Y1006348D01*
X941168D01*
X943102Y1008282D01*
Y1010986D01*
X950896D01*
X951281Y1010626D01*
X951250Y1009823D01*
X950877Y1007536D01*
X949238Y1005898D01*
Y1003162D01*
X951172Y1001228D01*
X951236Y1001074D01*
X951230Y1001068D01*
Y997912D01*
X953462Y995680D01*
X956618D01*
X958454Y997516D01*
X958850Y997912D01*
X961644Y998277D01*
X964720Y995200D01*
X966470Y994476D01*
X976975D01*
X977802Y993648D01*
X980538D01*
X982472Y995582D01*
Y998318D01*
X980538Y1000252D01*
X977802D01*
X976975Y999424D01*
X967495D01*
X964375Y1002545D01*
Y1005626D01*
X964892Y1005840D01*
X968048D01*
X969645Y1007437D01*
X971242Y1005840D01*
X974398D01*
X976181Y1007623D01*
X978599Y1005205D01*
X982281D01*
X984885Y1007809D01*
Y1011491D01*
X982281Y1014095D01*
X978599D01*
X976181Y1011677D01*
X974398Y1013460D01*
X971242D01*
X969645Y1011863D01*
X968048Y1013460D01*
X964892D01*
X964375Y1013674D01*
Y1019300D01*
X963864Y1020532D01*
Y1020706D01*
X965200Y1022042D01*
Y1025198D01*
X962968Y1027430D01*
X959812D01*
X957580Y1025198D01*
Y1022350D01*
X954732D01*
X952500Y1023928D01*
X950268Y1026160D01*
X948379D01*
X941550Y1032990D01*
X940887Y1033264D01*
X941320Y1036109D01*
X942824Y1036246D01*
X943512Y1035558D01*
X946248D01*
X948182Y1037492D01*
Y1040228D01*
X946248Y1042162D01*
X943512D01*
X942685Y1041334D01*
X932180D01*
Y1044248D01*
X929948Y1046480D01*
D02*
G37*
G36*
X802738Y1043432D02*
X800002D01*
X798068Y1041498D01*
Y1038762D01*
X800002Y1036828D01*
X802738D01*
X804672Y1038762D01*
Y1041498D01*
X802738Y1043432D01*
D02*
G37*
G36*
X678782Y1022750D02*
X675038D01*
X672390Y1020102D01*
Y1016358D01*
X675038Y1013710D01*
X678782D01*
X681430Y1016358D01*
Y1020102D01*
X678782Y1022750D01*
D02*
G37*
G36*
X1017841Y1016635D02*
X1014159D01*
X1011555Y1014031D01*
Y1010349D01*
X1014159Y1007745D01*
X1017841D01*
X1020445Y1010349D01*
Y1014031D01*
X1017841Y1016635D01*
D02*
G37*
G36*
X791308Y1006602D02*
X788572D01*
X786638Y1004668D01*
Y1001932D01*
X788572Y999998D01*
X791308D01*
X793242Y1001932D01*
Y1004668D01*
X791308Y1006602D01*
D02*
G37*
G36*
X1047051Y1005205D02*
X1043369D01*
X1040765Y1002601D01*
Y998919D01*
X1043369Y996315D01*
X1047051D01*
X1049655Y998919D01*
Y1002601D01*
X1047051Y1005205D01*
D02*
G37*
G36*
X1158811D02*
X1155129D01*
X1152525Y1002601D01*
Y999744D01*
X1152525Y998919D01*
X1150546Y996950D01*
X1150312D01*
X1148080Y994718D01*
Y991562D01*
X1150312Y989330D01*
X1153468D01*
X1155700Y991562D01*
X1155700Y994718D01*
X1157833Y996315D01*
X1158811D01*
X1161415Y998919D01*
Y1002601D01*
X1158811Y1005205D01*
D02*
G37*
G36*
X1142301Y991235D02*
X1138619D01*
X1136015Y988631D01*
Y984949D01*
X1138619Y982345D01*
X1142301D01*
X1144905Y984949D01*
Y988631D01*
X1142301Y991235D01*
D02*
G37*
G36*
X985618Y988822D02*
X982882D01*
X980948Y986888D01*
Y984152D01*
X982882Y982218D01*
X985618D01*
X987552Y984152D01*
Y986888D01*
X985618Y988822D01*
D02*
G37*
G36*
X676812Y995172D02*
X676771Y995131D01*
X674919Y993279D01*
X674878Y993238D01*
Y990502D01*
X674919Y990461D01*
X676304Y989076D01*
X675586Y986282D01*
X674272Y986282D01*
X672338Y984348D01*
Y981612D01*
X674272Y979678D01*
X677008D01*
X678901Y981571D01*
X678942Y981612D01*
Y984348D01*
X678901Y984389D01*
X677516Y985774D01*
X678234Y988568D01*
X679548Y988568D01*
X681482Y990502D01*
Y993238D01*
X679589Y995131D01*
X679548Y995172D01*
X676812D01*
D02*
G37*
G36*
X1047051Y983615D02*
X1043369D01*
X1040765Y981011D01*
Y977329D01*
X1043369Y974725D01*
X1047051D01*
X1049655Y977329D01*
Y981011D01*
X1047051Y983615D01*
D02*
G37*
G36*
X1232471Y978535D02*
X1228789D01*
X1226185Y975931D01*
Y972249D01*
X1228789Y969645D01*
X1232471D01*
X1235075Y972249D01*
Y975931D01*
X1232471Y978535D01*
D02*
G37*
G36*
X958948Y981202D02*
X956212D01*
X955385Y980374D01*
X943610D01*
X941860Y979650D01*
X939320Y977110D01*
X938596Y975360D01*
Y955040D01*
X939320Y953290D01*
X953008Y939603D01*
Y939516D01*
X952020Y938529D01*
X951296Y936779D01*
Y908050D01*
X952020Y906300D01*
X954547Y903774D01*
X952669Y901700D01*
X949652D01*
X947420Y899468D01*
Y896312D01*
X949652Y894080D01*
X952808D01*
X955040Y896312D01*
Y898239D01*
X957834Y898598D01*
X959812Y896620D01*
X962968D01*
X965200Y898852D01*
Y902008D01*
X962968Y904240D01*
X961079D01*
X956244Y909075D01*
Y927608D01*
X958948D01*
X960882Y929542D01*
Y930713D01*
X963140Y932970D01*
X963864Y934720D01*
Y942340D01*
X963140Y944090D01*
X963140Y944090D01*
X946084Y961145D01*
Y970346D01*
X955385D01*
X956212Y969518D01*
X958948D01*
X960882Y971452D01*
Y974188D01*
X959710Y975360D01*
X960882Y976532D01*
Y979268D01*
X958948Y981202D01*
D02*
G37*
G36*
X1139498Y976630D02*
X1136342D01*
X1134110Y974398D01*
Y971242D01*
X1136342Y969010D01*
X1139498D01*
X1141730Y971242D01*
Y974398D01*
X1139498Y976630D01*
D02*
G37*
G36*
X1207071Y977265D02*
X1203389D01*
X1200785Y974661D01*
Y970979D01*
X1203389Y968375D01*
X1207071D01*
X1209675Y970979D01*
Y974661D01*
X1207071Y977265D01*
D02*
G37*
G36*
X1017578Y971550D02*
X1014422D01*
X1012190Y969318D01*
Y966162D01*
X1014422Y963930D01*
X1017578D01*
X1019810Y966162D01*
Y969318D01*
X1017578Y971550D01*
D02*
G37*
G36*
X790038Y969772D02*
X787302D01*
X785368Y967838D01*
Y965102D01*
X787302Y963168D01*
X790038D01*
X791972Y965102D01*
Y967838D01*
X790038Y969772D01*
D02*
G37*
G36*
X974398Y970280D02*
X971242D01*
X969010Y968048D01*
Y964892D01*
X971242Y962660D01*
X974398D01*
X976630Y964892D01*
Y968048D01*
X974398Y970280D01*
D02*
G37*
G36*
X853748Y967740D02*
X850592D01*
X848360Y965508D01*
Y962352D01*
X850592Y960120D01*
X853748D01*
X855980Y962352D01*
Y965508D01*
X853748Y967740D01*
D02*
G37*
G36*
X664210Y1007424D02*
X663452Y1007110D01*
X662632D01*
X662052Y1006530D01*
X661294Y1006216D01*
X660980Y1005458D01*
X660400Y1004878D01*
Y1004058D01*
X660086Y1003300D01*
Y979170D01*
X661294Y976254D01*
X670184Y967364D01*
X670942Y967050D01*
X671522Y966470D01*
X672342D01*
X672529Y966393D01*
X673662Y963575D01*
X672390Y962302D01*
Y958558D01*
X675038Y955910D01*
X678782D01*
X681430Y958558D01*
Y962302D01*
X678782Y964950D01*
X677253D01*
X676173Y967744D01*
X676330Y968122D01*
X676910Y968702D01*
Y969522D01*
X677224Y970280D01*
X676910Y971038D01*
Y971858D01*
X676330Y972438D01*
X676016Y973196D01*
X668334Y980878D01*
Y1003300D01*
X668020Y1004058D01*
Y1004878D01*
X667440Y1005458D01*
X667126Y1006216D01*
X666368Y1006530D01*
X665788Y1007110D01*
X664968D01*
X664210Y1007424D01*
D02*
G37*
G36*
X1015038Y953770D02*
X1011882D01*
X1009650Y951538D01*
Y948382D01*
X1011882Y946150D01*
X1015038D01*
X1017270Y948382D01*
Y951538D01*
X1015038Y953770D01*
D02*
G37*
G36*
X993448Y952500D02*
X990292D01*
X988060Y950268D01*
Y947112D01*
X990292Y944880D01*
X993448D01*
X995680Y947112D01*
Y950268D01*
X993448Y952500D01*
D02*
G37*
G36*
X1001068Y933450D02*
X997912D01*
X995680Y931218D01*
Y928062D01*
X997841Y925901D01*
X997912Y925830D01*
X998928Y923036D01*
X998220Y922328D01*
Y919172D01*
X1000452Y916940D01*
X1003608D01*
X1005840Y919172D01*
Y922328D01*
X1003679Y924489D01*
X1003608Y924560D01*
X1002592Y927354D01*
X1003300Y928062D01*
Y931218D01*
X1001068Y933450D01*
D02*
G37*
G36*
X748338Y923290D02*
X745182D01*
X742950Y921058D01*
Y917902D01*
X745182Y915670D01*
X748338D01*
X750570Y917902D01*
Y921058D01*
X748338Y923290D01*
D02*
G37*
G36*
X1022658Y919480D02*
X1019502D01*
X1017270Y917248D01*
Y914092D01*
X1019502Y911860D01*
X1022658D01*
X1024890Y914092D01*
Y917248D01*
X1022658Y919480D01*
D02*
G37*
G36*
X880418Y891540D02*
X877262D01*
X875030Y889308D01*
Y886152D01*
X877262Y883920D01*
X880418D01*
X882650Y886152D01*
Y889308D01*
X880418Y891540D01*
D02*
G37*
G36*
X1188428Y905383D02*
X1183932D01*
X1179777Y903662D01*
X1176598Y900483D01*
X1174877Y896328D01*
Y891832D01*
X1176598Y887677D01*
X1179777Y884498D01*
X1183932Y882777D01*
X1188428D01*
X1192583Y884498D01*
X1195762Y887677D01*
X1197483Y891832D01*
Y896328D01*
X1195762Y900483D01*
X1192583Y903662D01*
X1188428Y905383D01*
D02*
G37*
G36*
X975668Y887730D02*
X972512D01*
X970280Y885498D01*
Y882342D01*
X972512Y880110D01*
X975668D01*
X977900Y882342D01*
Y885498D01*
X975668Y887730D01*
D02*
G37*
G36*
X896928Y882650D02*
X893772D01*
X891540Y880418D01*
Y877262D01*
X893772Y875030D01*
X896928D01*
X899160Y877262D01*
Y880418D01*
X896928Y882650D01*
D02*
G37*
G36*
X797150Y861822D02*
X794414D01*
X792861Y860269D01*
X791308Y861822D01*
X788572D01*
X786638Y859888D01*
Y857152D01*
X788572Y855218D01*
X791308D01*
X792861Y856771D01*
X794414Y855218D01*
X797150D01*
X799084Y857152D01*
Y859888D01*
X797150Y861822D01*
D02*
G37*
%LPD*%
G36*
X887796Y1001005D02*
Y991535D01*
X885288Y990092D01*
X884117D01*
X872424Y1001785D01*
Y1012638D01*
X875218Y1013582D01*
X887796Y1001005D01*
D02*
G37*
G36*
X887730Y937568D02*
Y934412D01*
X889962Y932180D01*
X893118D01*
X894179Y933241D01*
X910246D01*
X910246Y933241D01*
X912190Y934046D01*
X914642Y936498D01*
X915687D01*
X915768Y936498D01*
X918482Y935260D01*
Y932530D01*
X915801Y929849D01*
X900430D01*
X900430Y929849D01*
X898486Y929044D01*
X898486Y929044D01*
X888414Y918972D01*
X887632D01*
X886173Y917513D01*
X883180Y917703D01*
X882142Y919382D01*
X882142Y919734D01*
Y922118D01*
X880208Y924052D01*
X877472D01*
X876645Y923224D01*
X868008D01*
X866897Y924939D01*
X866637Y925806D01*
X867791Y926959D01*
Y929694D01*
X867680Y929805D01*
X868838Y932598D01*
X876605D01*
X877433Y931771D01*
X880169D01*
X882103Y933705D01*
Y936441D01*
X883901Y938594D01*
X887305D01*
X887730Y937568D01*
D02*
G37*
D11*
X664210Y979170D02*
X673100Y970280D01*
X664210Y979170D02*
Y1003300D01*
X848360Y1037590D02*
Y1068070D01*
X816610Y1036320D02*
Y1050290D01*
X840740Y1074420D01*
X855980D01*
D13*
X891540Y935990D02*
X910246D01*
X916940Y927100D02*
X921231Y931391D01*
Y941029D01*
X992009Y773545D02*
X995795D01*
X1003300Y781050D01*
X1014845Y773545D02*
X1022350Y781050D01*
X1012329Y773545D02*
X1014845D01*
X1032649D02*
X1035165D01*
X1042670Y781050D01*
X1055485Y773545D02*
X1062990Y781050D01*
X1052969Y773545D02*
X1055485D01*
X1075805D02*
X1083310Y781050D01*
X1073219Y773545D02*
X1075805D01*
X1096125D02*
X1103630Y781050D01*
X1093609Y773545D02*
X1096125D01*
X1115175D02*
X1123950Y782320D01*
X1113929Y773545D02*
X1115175D01*
X1136765D02*
X1144270Y781050D01*
X1134249Y773545D02*
X1136765D01*
X1158835Y777811D02*
X1160081D01*
X1154569Y773545D02*
X1158835Y777811D01*
X1160081D02*
X1164590Y782320D01*
X1174819Y773545D02*
X1174933Y773430D01*
X1198880D01*
X910246Y935990D02*
X914056Y939800D01*
X914400D01*
X900430Y927100D02*
X916940D01*
X889000Y915670D02*
X900430Y927100D01*
D17*
X953770Y908050D02*
X961390Y900430D01*
X948690Y909097D02*
Y939800D01*
X832928Y922492D02*
X858654D01*
X864489Y928326D01*
X860634Y912537D02*
Y913974D01*
X857319Y909222D02*
X860634Y912537D01*
X857319Y908847D02*
Y909222D01*
X860634Y913974D02*
X867410Y920750D01*
X849219Y927100D02*
X850235Y928116D01*
X854952D01*
X855188Y928352D01*
X816610Y927100D02*
X849219D01*
X841616Y930910D02*
X845778Y935073D01*
X878801D01*
X880618Y978662D02*
Y986362D01*
Y978662D02*
X890270Y969010D01*
X876380Y990600D02*
X880618Y986362D01*
X892810Y962660D02*
X894715Y964565D01*
Y1009015D01*
X891540Y962660D02*
X892810D01*
X881380Y1022350D02*
X894715Y1009015D01*
X896175Y1029970D02*
X898794Y1032590D01*
X900510D02*
X901700Y1033780D01*
X895350Y1029970D02*
X896175D01*
X898794Y1032590D02*
X900510D01*
X923290Y1009650D02*
Y1010131D01*
X922020Y1011401D02*
X923290Y1010131D01*
X922020Y1011401D02*
Y1014730D01*
X925830Y1018540D01*
X932180D01*
X933450Y1017270D02*
X937260D01*
X932180Y1018540D02*
X933450Y1017270D01*
X858520Y985520D02*
X872490D01*
X937260Y1017270D02*
X941070Y1021080D01*
X908050Y1037590D02*
X908558Y1037082D01*
X913638D01*
X919480Y1031240D01*
X939800D01*
X948690Y1022350D01*
X901700Y1037590D02*
X907601Y1043491D01*
X925893Y1043253D02*
X927787D01*
X925656Y1043491D02*
X925893Y1043253D01*
X907601Y1043491D02*
X925656D01*
X922020Y1038860D02*
X944880D01*
X939319Y1045210D02*
X939800D01*
X924560Y1047750D02*
X936779D01*
X927787Y1043253D02*
X928370Y1042670D01*
X936779Y1047750D02*
X939319Y1045210D01*
X951230Y1013460D02*
X956310Y1018540D01*
X961390Y1019810D02*
Y1023620D01*
X961900Y1001520D02*
Y1019300D01*
X961390Y1019810D02*
X961900Y1019300D01*
X961050Y1023280D02*
X961390Y1023620D01*
X961900Y1001520D02*
X966470Y996950D01*
X953770Y908050D02*
Y936779D01*
X956310Y939319D01*
X927100Y1013460D02*
X951230D01*
X937260Y990600D02*
X985520D01*
X932180Y985520D02*
X937260Y990600D01*
X901700Y1033780D02*
Y1037590D01*
X867410Y920750D02*
X878840D01*
X944880Y972820D02*
X957580D01*
X943610Y971550D02*
X944880Y972820D01*
X943610Y960120D02*
Y971550D01*
Y960120D02*
X961390Y942340D01*
Y934720D02*
Y942340D01*
X957580Y930910D02*
X961390Y934720D01*
X956310Y939319D02*
Y939800D01*
X943610Y977900D02*
X957580D01*
X941070Y975360D02*
X943610Y977900D01*
X941070Y955040D02*
Y975360D01*
Y955040D02*
X956310Y939800D01*
X966470Y996950D02*
X979170D01*
X910590Y1026160D02*
X915670Y1021080D01*
Y1007110D02*
Y1021080D01*
X913130Y1004570D02*
X915670Y1007110D01*
X872490Y913130D02*
X894080Y891540D01*
X895350D01*
X807720Y930910D02*
X841616D01*
X902970Y1004570D02*
X913130D01*
X855980Y1029970D02*
X858520D01*
X867410Y1038860D01*
X873760D01*
X876300Y1036320D01*
Y1016000D02*
Y1036320D01*
X890270Y986790D02*
Y1002030D01*
X876300Y1016000D02*
X890270Y1002030D01*
X869950Y1000760D02*
Y1035050D01*
Y1000760D02*
X883920Y986790D01*
X866140Y995680D02*
Y1031240D01*
X871220Y990600D02*
X876380D01*
X866140Y995680D02*
X871220Y990600D01*
D78*
X1186180Y894080D02*
D03*
D79*
X1211580Y868680D02*
D03*
Y919480D02*
D03*
X1160780D02*
D03*
Y868680D02*
D03*
D83*
X961390Y900430D02*
D03*
X878840Y887730D02*
D03*
X882650Y913130D02*
D03*
X995680Y906780D02*
D03*
X974090Y883920D02*
D03*
X1002030Y920750D02*
D03*
X1151890Y993140D02*
D03*
X891540Y935990D02*
D03*
X832928Y922492D02*
D03*
X895350Y1029970D02*
D03*
X999490Y929640D02*
D03*
X858520Y985520D02*
D03*
X872490D02*
D03*
X924560Y1022350D02*
D03*
X941070Y1021080D02*
D03*
X933450Y1026160D02*
D03*
X908050Y1037590D02*
D03*
X922020Y1038860D02*
D03*
X928370Y1042670D02*
D03*
X924560Y1047750D02*
D03*
X956310Y1018540D02*
D03*
X961390Y1023620D02*
D03*
X957580Y1012190D02*
D03*
X1137920Y972820D02*
D03*
X1016000Y967740D02*
D03*
X948690Y939800D02*
D03*
X957580Y894080D02*
D03*
X1013460Y949960D02*
D03*
X1021080Y915670D02*
D03*
X895350Y878840D02*
D03*
X991870Y948690D02*
D03*
X966470Y1009650D02*
D03*
X948690Y1022350D02*
D03*
X852170Y963930D02*
D03*
X838200Y935990D02*
D03*
X895350Y1059180D02*
D03*
X951230Y897890D02*
D03*
X972820Y966470D02*
D03*
X746760Y919480D02*
D03*
X897890Y1040130D02*
D03*
X830580Y1078230D02*
D03*
X902970Y1026160D02*
D03*
X972820Y1009650D02*
D03*
X955040Y999490D02*
D03*
X664210Y1003300D02*
D03*
X932180Y985520D02*
D03*
X806450Y887730D02*
D03*
X895350Y891540D02*
D03*
X872490Y913130D02*
D03*
X848360Y1037590D02*
D03*
Y1068070D02*
D03*
X816610Y1036320D02*
D03*
X855980Y1074420D02*
D03*
X902970Y1004570D02*
D03*
X881380Y1022350D02*
D03*
X673100Y970280D02*
D03*
D85*
X898703Y945363D02*
X899160Y945820D01*
X897015Y945363D02*
X898703D01*
X789940Y778764D02*
X793889Y774815D01*
X789940Y778764D02*
Y792480D01*
X773569Y774815D02*
X782320Y783566D01*
Y792480D01*
X896532Y944880D02*
X897015Y945363D01*
X880889Y944880D02*
X896532D01*
X879312Y946457D02*
Y950087D01*
Y946457D02*
X880889Y944880D01*
X875857Y945026D02*
Y948714D01*
X897015Y940943D02*
X898703D01*
X899160Y940486D01*
X875857Y945026D02*
X879458Y941426D01*
X896532D02*
X897015Y940943D01*
X879458Y941426D02*
X896532D01*
D93*
X676910Y1018230D02*
D03*
Y960430D02*
D03*
D94*
X982980Y853440D02*
D03*
X929640Y852170D02*
D03*
X885190Y842010D02*
D03*
X990600Y1021080D02*
D03*
X934720Y970280D02*
D03*
X923290Y976630D02*
D03*
X918210Y971550D02*
D03*
X1156970Y1000760D02*
D03*
X1140460Y986790D02*
D03*
X1045210Y1000760D02*
D03*
X1016000Y1012190D02*
D03*
X1230630Y1071880D02*
D03*
X1003300Y781050D02*
D03*
X1022350D02*
D03*
X1042670D02*
D03*
X1062990D02*
D03*
X1083310D02*
D03*
X1103630D02*
D03*
X1123950Y782320D02*
D03*
X1144270Y781050D02*
D03*
X1164590Y782320D02*
D03*
X1198880Y773430D02*
D03*
X1230630Y974090D02*
D03*
X1045210Y979170D02*
D03*
X1205230Y972820D02*
D03*
X980440Y1009650D02*
D03*
D95*
X795782Y858520D02*
D03*
X789940D02*
D03*
Y792480D02*
D03*
X782320D02*
D03*
X899160Y945820D02*
D03*
Y940486D02*
D03*
X875030Y951230D02*
D03*
X880364D02*
D03*
X857319Y908847D02*
D03*
X855188Y928352D02*
D03*
X873760Y938530D02*
D03*
X878801Y935073D02*
D03*
X921231Y941029D02*
D03*
X890270Y969010D02*
D03*
X891540Y962660D02*
D03*
X882650Y957580D02*
D03*
X952540Y1004530D02*
D03*
X678180Y991870D02*
D03*
X675640Y982980D02*
D03*
X984250Y985520D02*
D03*
X985520Y990600D02*
D03*
X796290Y1060450D02*
D03*
X852170Y910590D02*
D03*
X801370Y1040130D02*
D03*
X788670Y966470D02*
D03*
X789940Y1003300D02*
D03*
X763270Y1051560D02*
D03*
X957580Y972820D02*
D03*
Y930910D02*
D03*
Y977900D02*
D03*
X956310Y939800D02*
D03*
X800100Y932180D02*
D03*
X939800Y1045210D02*
D03*
Y1050290D02*
D03*
X979170Y996950D02*
D03*
X910590Y1026160D02*
D03*
X939800Y1009650D02*
D03*
X878840Y920750D02*
D03*
X807720Y930910D02*
D03*
X816610Y927100D02*
D03*
X864489Y928326D02*
D03*
X927100Y1013460D02*
D03*
X944880Y1038860D02*
D03*
X923290Y1009650D02*
D03*
X855980Y1029970D02*
D03*
X890270Y986790D02*
D03*
X869950Y1035050D02*
D03*
X883920Y986790D02*
D03*
X866140Y1031240D02*
D03*
X914400Y939800D02*
D03*
X889000Y915670D02*
D03*
D96*
X722630Y1040130D02*
D03*
X707390Y951230D02*
D03*
D98*
X1174819Y773545D02*
D03*
X1154569D02*
D03*
X1154499Y753225D02*
D03*
X1134249Y773545D02*
D03*
X1134179Y753225D02*
D03*
X1113929Y773545D02*
D03*
X1113859Y753225D02*
D03*
X1093609Y773545D02*
D03*
X1093539Y753225D02*
D03*
X1073219Y773545D02*
D03*
X1073149Y753225D02*
D03*
X1052969Y773545D02*
D03*
X1052899Y753225D02*
D03*
X1032649Y773545D02*
D03*
X1032579Y753225D02*
D03*
X1012329Y773545D02*
D03*
X1012259Y753225D02*
D03*
X992009Y773545D02*
D03*
X991939Y753225D02*
D03*
X936059Y774815D02*
D03*
X915809D02*
D03*
X915739Y754495D02*
D03*
X895489Y774815D02*
D03*
X895419Y754495D02*
D03*
X875169Y774815D02*
D03*
X875099Y754495D02*
D03*
X854849Y774815D02*
D03*
X854779Y754495D02*
D03*
X834459Y774815D02*
D03*
X834389Y754495D02*
D03*
X814209Y774815D02*
D03*
X814139Y754495D02*
D03*
X793889Y774815D02*
D03*
X793819Y754495D02*
D03*
X773569Y774815D02*
D03*
X773499Y754495D02*
D03*
X753249Y774815D02*
D03*
X753179Y754495D02*
D03*
D99*
X1174749Y753225D02*
D03*
X935989Y754495D02*
D03*
M02*
