G04*
G04 #@! TF.GenerationSoftware,Altium Limited,Altium Designer,22.11.1 (43)*
G04*
G04 Layer_Color=128*
%FSLAX44Y44*%
%MOMM*%
G71*
G04*
G04 #@! TF.SameCoordinates,E8E94C48-FAC0-404F-821C-2D709FEA352C*
G04*
G04*
G04 #@! TF.FilePolarity,Positive*
G04*
G01*
G75*
G36*
X834854Y782354D02*
X835248Y782323D01*
X835640Y782272D01*
X836029Y782200D01*
X836413Y782107D01*
X836792Y781995D01*
X837165Y781863D01*
X837530Y781712D01*
X837887Y781542D01*
X838234Y781353D01*
X838571Y781146D01*
X838897Y780923D01*
X839210Y780682D01*
X839511Y780425D01*
X839798Y780153D01*
X840070Y779867D01*
X840327Y779566D01*
X840567Y779252D01*
X840791Y778927D01*
X840998Y778589D01*
X841186Y778242D01*
X841356Y777885D01*
X841508Y777520D01*
X841639Y777148D01*
X841752Y776769D01*
X841844Y776384D01*
X841916Y775996D01*
X841968Y775604D01*
X841999Y775210D01*
X842009Y774815D01*
X841999Y774419D01*
X841968Y774025D01*
X841916Y773633D01*
X841844Y773245D01*
X841752Y772860D01*
X841639Y772482D01*
X841508Y772109D01*
X841356Y771744D01*
X841186Y771387D01*
X840998Y771040D01*
X840791Y770703D01*
X840567Y770377D01*
X840327Y770063D01*
X840070Y769762D01*
X839798Y769476D01*
X839511Y769204D01*
X839210Y768947D01*
X838897Y768706D01*
X838571Y768483D01*
X838234Y768276D01*
X837887Y768087D01*
X837530Y767917D01*
X837165Y767766D01*
X836792Y767634D01*
X836413Y767522D01*
X836029Y767430D01*
X835640Y767357D01*
X835248Y767306D01*
X834854Y767275D01*
X834459Y767264D01*
X834064Y767275D01*
X833670Y767306D01*
X833278Y767357D01*
X832889Y767430D01*
X832505Y767522D01*
X832126Y767634D01*
X831753Y767766D01*
X831388Y767917D01*
X831031Y768087D01*
X830684Y768276D01*
X830347Y768483D01*
X830021Y768706D01*
X829707Y768947D01*
X829407Y769204D01*
X829120Y769476D01*
X828848Y769762D01*
X828591Y770063D01*
X828351Y770377D01*
X828127Y770703D01*
X827920Y771040D01*
X827732Y771387D01*
X827562Y771744D01*
X827410Y772109D01*
X827279Y772482D01*
X827166Y772860D01*
X827074Y773245D01*
X827002Y773633D01*
X826950Y774025D01*
X826919Y774419D01*
X826909Y774815D01*
X826919Y775210D01*
X826950Y775604D01*
X827002Y775996D01*
X827074Y776384D01*
X827166Y776769D01*
X827279Y777148D01*
X827410Y777520D01*
X827562Y777885D01*
X827732Y778242D01*
X827920Y778589D01*
X828127Y778927D01*
X828351Y779252D01*
X828591Y779566D01*
X828848Y779867D01*
X829120Y780153D01*
X829407Y780425D01*
X829707Y780682D01*
X830021Y780923D01*
X830347Y781146D01*
X830684Y781353D01*
X831031Y781542D01*
X831388Y781712D01*
X831753Y781863D01*
X832126Y781995D01*
X832505Y782107D01*
X832889Y782200D01*
X833278Y782272D01*
X833670Y782323D01*
X834064Y782354D01*
X834459Y782365D01*
X834854Y782354D01*
D02*
G37*
G36*
X814604D02*
X814998Y782323D01*
X815390Y782272D01*
X815779Y782200D01*
X816163Y782107D01*
X816542Y781995D01*
X816915Y781863D01*
X817280Y781712D01*
X817637Y781542D01*
X817984Y781353D01*
X818321Y781146D01*
X818647Y780923D01*
X818960Y780682D01*
X819261Y780425D01*
X819548Y780153D01*
X819820Y779867D01*
X820077Y779566D01*
X820317Y779252D01*
X820541Y778927D01*
X820748Y778589D01*
X820936Y778242D01*
X821106Y777885D01*
X821258Y777520D01*
X821389Y777148D01*
X821502Y776769D01*
X821594Y776384D01*
X821666Y775996D01*
X821718Y775604D01*
X821749Y775210D01*
X821759Y774815D01*
X821749Y774419D01*
X821718Y774025D01*
X821666Y773633D01*
X821594Y773245D01*
X821502Y772860D01*
X821389Y772482D01*
X821258Y772109D01*
X821106Y771744D01*
X820936Y771387D01*
X820748Y771040D01*
X820541Y770703D01*
X820317Y770377D01*
X820077Y770063D01*
X819820Y769762D01*
X819548Y769476D01*
X819261Y769204D01*
X818960Y768947D01*
X818647Y768706D01*
X818321Y768483D01*
X817984Y768276D01*
X817637Y768087D01*
X817280Y767917D01*
X816915Y767766D01*
X816542Y767634D01*
X816163Y767522D01*
X815779Y767430D01*
X815390Y767357D01*
X814998Y767306D01*
X814604Y767275D01*
X814209Y767264D01*
X813814Y767275D01*
X813420Y767306D01*
X813028Y767357D01*
X812639Y767430D01*
X812255Y767522D01*
X811876Y767634D01*
X811503Y767766D01*
X811138Y767917D01*
X810781Y768087D01*
X810434Y768276D01*
X810097Y768483D01*
X809771Y768706D01*
X809458Y768947D01*
X809157Y769204D01*
X808870Y769476D01*
X808598Y769762D01*
X808342Y770063D01*
X808101Y770377D01*
X807877Y770703D01*
X807671Y771040D01*
X807482Y771387D01*
X807312Y771744D01*
X807160Y772109D01*
X807029Y772482D01*
X806916Y772860D01*
X806824Y773245D01*
X806752Y773633D01*
X806700Y774025D01*
X806669Y774419D01*
X806659Y774815D01*
X806669Y775210D01*
X806700Y775604D01*
X806752Y775996D01*
X806824Y776384D01*
X806916Y776769D01*
X807029Y777148D01*
X807160Y777520D01*
X807312Y777885D01*
X807482Y778242D01*
X807671Y778589D01*
X807877Y778927D01*
X808101Y779252D01*
X808342Y779566D01*
X808598Y779867D01*
X808870Y780153D01*
X809157Y780425D01*
X809458Y780682D01*
X809771Y780923D01*
X810097Y781146D01*
X810434Y781353D01*
X810781Y781542D01*
X811138Y781712D01*
X811503Y781863D01*
X811876Y781995D01*
X812255Y782107D01*
X812639Y782200D01*
X813028Y782272D01*
X813420Y782323D01*
X813814Y782354D01*
X814209Y782365D01*
X814604Y782354D01*
D02*
G37*
G36*
X794284D02*
X794678Y782323D01*
X795070Y782272D01*
X795459Y782200D01*
X795843Y782107D01*
X796222Y781995D01*
X796595Y781863D01*
X796960Y781712D01*
X797317Y781542D01*
X797664Y781353D01*
X798001Y781146D01*
X798327Y780923D01*
X798641Y780682D01*
X798941Y780425D01*
X799228Y780153D01*
X799500Y779867D01*
X799757Y779566D01*
X799997Y779252D01*
X800221Y778927D01*
X800428Y778589D01*
X800616Y778242D01*
X800786Y777885D01*
X800938Y777520D01*
X801069Y777148D01*
X801182Y776769D01*
X801274Y776384D01*
X801346Y775996D01*
X801398Y775604D01*
X801429Y775210D01*
X801439Y774815D01*
X801429Y774419D01*
X801398Y774025D01*
X801346Y773633D01*
X801274Y773245D01*
X801182Y772860D01*
X801069Y772482D01*
X800938Y772109D01*
X800786Y771744D01*
X800616Y771387D01*
X800428Y771040D01*
X800221Y770703D01*
X799997Y770377D01*
X799757Y770063D01*
X799500Y769762D01*
X799228Y769476D01*
X798941Y769204D01*
X798641Y768947D01*
X798327Y768706D01*
X798001Y768483D01*
X797664Y768276D01*
X797317Y768087D01*
X796960Y767917D01*
X796595Y767766D01*
X796222Y767634D01*
X795843Y767522D01*
X795459Y767430D01*
X795070Y767357D01*
X794678Y767306D01*
X794284Y767275D01*
X793889Y767264D01*
X793494Y767275D01*
X793100Y767306D01*
X792708Y767357D01*
X792319Y767430D01*
X791935Y767522D01*
X791556Y767634D01*
X791183Y767766D01*
X790818Y767917D01*
X790462Y768087D01*
X790114Y768276D01*
X789777Y768483D01*
X789451Y768706D01*
X789138Y768947D01*
X788837Y769204D01*
X788550Y769476D01*
X788278Y769762D01*
X788021Y770063D01*
X787781Y770377D01*
X787557Y770703D01*
X787350Y771040D01*
X787162Y771387D01*
X786992Y771744D01*
X786840Y772109D01*
X786709Y772482D01*
X786596Y772860D01*
X786504Y773245D01*
X786432Y773633D01*
X786380Y774025D01*
X786349Y774419D01*
X786339Y774815D01*
X786349Y775210D01*
X786380Y775604D01*
X786432Y775996D01*
X786504Y776384D01*
X786596Y776769D01*
X786709Y777148D01*
X786840Y777520D01*
X786992Y777885D01*
X787162Y778242D01*
X787350Y778589D01*
X787557Y778927D01*
X787781Y779252D01*
X788021Y779566D01*
X788278Y779867D01*
X788550Y780153D01*
X788837Y780425D01*
X789138Y780682D01*
X789451Y780923D01*
X789777Y781146D01*
X790114Y781353D01*
X790462Y781542D01*
X790818Y781712D01*
X791183Y781863D01*
X791556Y781995D01*
X791935Y782107D01*
X792319Y782200D01*
X792708Y782272D01*
X793100Y782323D01*
X793494Y782354D01*
X793889Y782365D01*
X794284Y782354D01*
D02*
G37*
G36*
X773964D02*
X774358Y782323D01*
X774750Y782272D01*
X775139Y782200D01*
X775523Y782107D01*
X775902Y781995D01*
X776275Y781863D01*
X776640Y781712D01*
X776997Y781542D01*
X777344Y781353D01*
X777681Y781146D01*
X778007Y780923D01*
X778320Y780682D01*
X778621Y780425D01*
X778908Y780153D01*
X779180Y779867D01*
X779437Y779566D01*
X779677Y779252D01*
X779901Y778927D01*
X780108Y778589D01*
X780296Y778242D01*
X780466Y777885D01*
X780618Y777520D01*
X780750Y777148D01*
X780862Y776769D01*
X780954Y776384D01*
X781026Y775996D01*
X781078Y775604D01*
X781109Y775210D01*
X781119Y774815D01*
X781109Y774419D01*
X781078Y774025D01*
X781026Y773633D01*
X780954Y773245D01*
X780862Y772860D01*
X780750Y772482D01*
X780618Y772109D01*
X780466Y771744D01*
X780296Y771387D01*
X780108Y771040D01*
X779901Y770703D01*
X779677Y770377D01*
X779437Y770063D01*
X779180Y769762D01*
X778908Y769476D01*
X778621Y769204D01*
X778320Y768947D01*
X778007Y768706D01*
X777681Y768483D01*
X777344Y768276D01*
X776997Y768087D01*
X776640Y767917D01*
X776275Y767766D01*
X775902Y767634D01*
X775523Y767522D01*
X775139Y767430D01*
X774750Y767357D01*
X774358Y767306D01*
X773964Y767275D01*
X773569Y767264D01*
X773174Y767275D01*
X772780Y767306D01*
X772388Y767357D01*
X771999Y767430D01*
X771615Y767522D01*
X771236Y767634D01*
X770863Y767766D01*
X770498Y767917D01*
X770142Y768087D01*
X769794Y768276D01*
X769457Y768483D01*
X769131Y768706D01*
X768818Y768947D01*
X768517Y769204D01*
X768230Y769476D01*
X767958Y769762D01*
X767701Y770063D01*
X767461Y770377D01*
X767237Y770703D01*
X767030Y771040D01*
X766842Y771387D01*
X766672Y771744D01*
X766520Y772109D01*
X766389Y772482D01*
X766276Y772860D01*
X766184Y773245D01*
X766112Y773633D01*
X766060Y774025D01*
X766030Y774419D01*
X766019Y774815D01*
X766030Y775210D01*
X766060Y775604D01*
X766112Y775996D01*
X766184Y776384D01*
X766276Y776769D01*
X766389Y777148D01*
X766520Y777520D01*
X766672Y777885D01*
X766842Y778242D01*
X767030Y778589D01*
X767237Y778927D01*
X767461Y779252D01*
X767701Y779566D01*
X767958Y779867D01*
X768230Y780153D01*
X768517Y780425D01*
X768818Y780682D01*
X769131Y780923D01*
X769457Y781146D01*
X769794Y781353D01*
X770142Y781542D01*
X770498Y781712D01*
X770863Y781863D01*
X771236Y781995D01*
X771615Y782107D01*
X771999Y782200D01*
X772388Y782272D01*
X772780Y782323D01*
X773174Y782354D01*
X773569Y782365D01*
X773964Y782354D01*
D02*
G37*
G36*
X753644D02*
X754038Y782323D01*
X754430Y782272D01*
X754819Y782200D01*
X755203Y782107D01*
X755582Y781995D01*
X755955Y781863D01*
X756320Y781712D01*
X756677Y781542D01*
X757024Y781353D01*
X757361Y781146D01*
X757687Y780923D01*
X758000Y780682D01*
X758301Y780425D01*
X758588Y780153D01*
X758860Y779867D01*
X759117Y779566D01*
X759357Y779252D01*
X759581Y778927D01*
X759788Y778589D01*
X759976Y778242D01*
X760146Y777885D01*
X760298Y777520D01*
X760430Y777148D01*
X760542Y776769D01*
X760634Y776384D01*
X760706Y775996D01*
X760758Y775604D01*
X760789Y775210D01*
X760799Y774815D01*
X760789Y774419D01*
X760758Y774025D01*
X760706Y773633D01*
X760634Y773245D01*
X760542Y772860D01*
X760430Y772482D01*
X760298Y772109D01*
X760146Y771744D01*
X759976Y771387D01*
X759788Y771040D01*
X759581Y770703D01*
X759357Y770377D01*
X759117Y770063D01*
X758860Y769762D01*
X758588Y769476D01*
X758301Y769204D01*
X758000Y768947D01*
X757687Y768706D01*
X757361Y768483D01*
X757024Y768276D01*
X756677Y768087D01*
X756320Y767917D01*
X755955Y767766D01*
X755582Y767634D01*
X755203Y767522D01*
X754819Y767430D01*
X754430Y767357D01*
X754038Y767306D01*
X753644Y767275D01*
X753249Y767264D01*
X752854Y767275D01*
X752460Y767306D01*
X752068Y767357D01*
X751679Y767430D01*
X751295Y767522D01*
X750916Y767634D01*
X750543Y767766D01*
X750178Y767917D01*
X749821Y768087D01*
X749474Y768276D01*
X749137Y768483D01*
X748811Y768706D01*
X748498Y768947D01*
X748197Y769204D01*
X747910Y769476D01*
X747638Y769762D01*
X747382Y770063D01*
X747141Y770377D01*
X746917Y770703D01*
X746711Y771040D01*
X746522Y771387D01*
X746352Y771744D01*
X746200Y772109D01*
X746069Y772482D01*
X745956Y772860D01*
X745864Y773245D01*
X745792Y773633D01*
X745740Y774025D01*
X745710Y774419D01*
X745699Y774815D01*
X745710Y775210D01*
X745740Y775604D01*
X745792Y775996D01*
X745864Y776384D01*
X745956Y776769D01*
X746069Y777148D01*
X746200Y777520D01*
X746352Y777885D01*
X746522Y778242D01*
X746711Y778589D01*
X746917Y778927D01*
X747141Y779252D01*
X747382Y779566D01*
X747638Y779867D01*
X747910Y780153D01*
X748197Y780425D01*
X748498Y780682D01*
X748811Y780923D01*
X749137Y781146D01*
X749474Y781353D01*
X749821Y781542D01*
X750178Y781712D01*
X750543Y781863D01*
X750916Y781995D01*
X751295Y782107D01*
X751679Y782200D01*
X752068Y782272D01*
X752460Y782323D01*
X752854Y782354D01*
X753249Y782365D01*
X753644Y782354D01*
D02*
G37*
G36*
X834784Y762034D02*
X835178Y762003D01*
X835570Y761952D01*
X835959Y761880D01*
X836343Y761787D01*
X836722Y761675D01*
X837095Y761543D01*
X837460Y761392D01*
X837816Y761222D01*
X838164Y761033D01*
X838501Y760826D01*
X838827Y760603D01*
X839140Y760362D01*
X839441Y760105D01*
X839728Y759833D01*
X840000Y759547D01*
X840256Y759246D01*
X840497Y758932D01*
X840721Y758607D01*
X840928Y758270D01*
X841116Y757922D01*
X841286Y757565D01*
X841438Y757200D01*
X841569Y756827D01*
X841682Y756449D01*
X841774Y756064D01*
X841846Y755676D01*
X841898Y755284D01*
X841928Y754890D01*
X841939Y754495D01*
X841928Y754099D01*
X841898Y753705D01*
X841846Y753314D01*
X841774Y752925D01*
X841682Y752541D01*
X841569Y752162D01*
X841438Y751789D01*
X841286Y751424D01*
X841116Y751067D01*
X840928Y750720D01*
X840721Y750383D01*
X840497Y750057D01*
X840256Y749743D01*
X840000Y749443D01*
X839728Y749156D01*
X839441Y748884D01*
X839140Y748627D01*
X838827Y748386D01*
X838501Y748163D01*
X838164Y747956D01*
X837816Y747767D01*
X837460Y747597D01*
X837095Y747446D01*
X836722Y747314D01*
X836343Y747202D01*
X835959Y747110D01*
X835570Y747037D01*
X835178Y746986D01*
X834784Y746955D01*
X834389Y746944D01*
X833994Y746955D01*
X833600Y746986D01*
X833208Y747037D01*
X832819Y747110D01*
X832435Y747202D01*
X832056Y747314D01*
X831683Y747446D01*
X831318Y747597D01*
X830961Y747767D01*
X830614Y747956D01*
X830277Y748163D01*
X829951Y748386D01*
X829637Y748627D01*
X829337Y748884D01*
X829050Y749156D01*
X828778Y749443D01*
X828521Y749743D01*
X828281Y750057D01*
X828057Y750383D01*
X827850Y750720D01*
X827662Y751067D01*
X827492Y751424D01*
X827340Y751789D01*
X827208Y752162D01*
X827096Y752541D01*
X827004Y752925D01*
X826932Y753314D01*
X826880Y753705D01*
X826849Y754099D01*
X826839Y754495D01*
X826849Y754890D01*
X826880Y755284D01*
X826932Y755676D01*
X827004Y756064D01*
X827096Y756449D01*
X827208Y756827D01*
X827340Y757200D01*
X827492Y757565D01*
X827662Y757922D01*
X827850Y758270D01*
X828057Y758607D01*
X828281Y758932D01*
X828521Y759246D01*
X828778Y759547D01*
X829050Y759833D01*
X829337Y760105D01*
X829637Y760362D01*
X829951Y760603D01*
X830277Y760826D01*
X830614Y761033D01*
X830961Y761222D01*
X831318Y761392D01*
X831683Y761543D01*
X832056Y761675D01*
X832435Y761787D01*
X832819Y761880D01*
X833208Y761952D01*
X833600Y762003D01*
X833994Y762034D01*
X834389Y762045D01*
X834784Y762034D01*
D02*
G37*
G36*
X814534D02*
X814928Y762003D01*
X815320Y761952D01*
X815709Y761880D01*
X816093Y761787D01*
X816472Y761675D01*
X816845Y761543D01*
X817210Y761392D01*
X817567Y761222D01*
X817914Y761033D01*
X818251Y760826D01*
X818577Y760603D01*
X818890Y760362D01*
X819191Y760105D01*
X819478Y759833D01*
X819750Y759547D01*
X820006Y759246D01*
X820247Y758932D01*
X820471Y758607D01*
X820678Y758270D01*
X820866Y757922D01*
X821036Y757565D01*
X821188Y757200D01*
X821319Y756827D01*
X821432Y756449D01*
X821524Y756064D01*
X821596Y755676D01*
X821648Y755284D01*
X821679Y754890D01*
X821689Y754495D01*
X821679Y754099D01*
X821648Y753705D01*
X821596Y753314D01*
X821524Y752925D01*
X821432Y752541D01*
X821319Y752162D01*
X821188Y751789D01*
X821036Y751424D01*
X820866Y751067D01*
X820678Y750720D01*
X820471Y750383D01*
X820247Y750057D01*
X820006Y749743D01*
X819750Y749443D01*
X819478Y749156D01*
X819191Y748884D01*
X818890Y748627D01*
X818577Y748386D01*
X818251Y748163D01*
X817914Y747956D01*
X817567Y747767D01*
X817210Y747597D01*
X816845Y747446D01*
X816472Y747314D01*
X816093Y747202D01*
X815709Y747110D01*
X815320Y747037D01*
X814928Y746986D01*
X814534Y746955D01*
X814139Y746944D01*
X813744Y746955D01*
X813350Y746986D01*
X812958Y747037D01*
X812569Y747110D01*
X812185Y747202D01*
X811806Y747314D01*
X811433Y747446D01*
X811068Y747597D01*
X810711Y747767D01*
X810364Y747956D01*
X810027Y748163D01*
X809701Y748386D01*
X809388Y748627D01*
X809087Y748884D01*
X808800Y749156D01*
X808528Y749443D01*
X808271Y749743D01*
X808031Y750057D01*
X807807Y750383D01*
X807600Y750720D01*
X807412Y751067D01*
X807242Y751424D01*
X807090Y751789D01*
X806958Y752162D01*
X806846Y752541D01*
X806754Y752925D01*
X806682Y753314D01*
X806630Y753705D01*
X806599Y754099D01*
X806589Y754495D01*
X806599Y754890D01*
X806630Y755284D01*
X806682Y755676D01*
X806754Y756064D01*
X806846Y756449D01*
X806958Y756827D01*
X807090Y757200D01*
X807242Y757565D01*
X807412Y757922D01*
X807600Y758270D01*
X807807Y758607D01*
X808031Y758932D01*
X808271Y759246D01*
X808528Y759547D01*
X808800Y759833D01*
X809087Y760105D01*
X809388Y760362D01*
X809701Y760603D01*
X810027Y760826D01*
X810364Y761033D01*
X810711Y761222D01*
X811068Y761392D01*
X811433Y761543D01*
X811806Y761675D01*
X812185Y761787D01*
X812569Y761880D01*
X812958Y761952D01*
X813350Y762003D01*
X813744Y762034D01*
X814139Y762045D01*
X814534Y762034D01*
D02*
G37*
G36*
X794214D02*
X794608Y762003D01*
X795000Y761952D01*
X795389Y761880D01*
X795773Y761787D01*
X796152Y761675D01*
X796525Y761543D01*
X796890Y761392D01*
X797247Y761222D01*
X797594Y761033D01*
X797931Y760826D01*
X798257Y760603D01*
X798570Y760362D01*
X798871Y760105D01*
X799158Y759833D01*
X799430Y759547D01*
X799687Y759246D01*
X799927Y758932D01*
X800151Y758607D01*
X800358Y758270D01*
X800546Y757922D01*
X800716Y757565D01*
X800868Y757200D01*
X800999Y756827D01*
X801112Y756449D01*
X801204Y756064D01*
X801276Y755676D01*
X801328Y755284D01*
X801359Y754890D01*
X801369Y754495D01*
X801359Y754099D01*
X801328Y753705D01*
X801276Y753314D01*
X801204Y752925D01*
X801112Y752541D01*
X800999Y752162D01*
X800868Y751789D01*
X800716Y751424D01*
X800546Y751067D01*
X800358Y750720D01*
X800151Y750383D01*
X799927Y750057D01*
X799687Y749743D01*
X799430Y749443D01*
X799158Y749156D01*
X798871Y748884D01*
X798570Y748627D01*
X798257Y748386D01*
X797931Y748163D01*
X797594Y747956D01*
X797247Y747767D01*
X796890Y747597D01*
X796525Y747446D01*
X796152Y747314D01*
X795773Y747202D01*
X795389Y747110D01*
X795000Y747037D01*
X794608Y746986D01*
X794214Y746955D01*
X793819Y746944D01*
X793424Y746955D01*
X793030Y746986D01*
X792638Y747037D01*
X792249Y747110D01*
X791865Y747202D01*
X791486Y747314D01*
X791113Y747446D01*
X790748Y747597D01*
X790391Y747767D01*
X790044Y747956D01*
X789707Y748163D01*
X789381Y748386D01*
X789068Y748627D01*
X788767Y748884D01*
X788480Y749156D01*
X788208Y749443D01*
X787951Y749743D01*
X787711Y750057D01*
X787487Y750383D01*
X787280Y750720D01*
X787092Y751067D01*
X786922Y751424D01*
X786770Y751789D01*
X786638Y752162D01*
X786526Y752541D01*
X786434Y752925D01*
X786362Y753314D01*
X786310Y753705D01*
X786279Y754099D01*
X786269Y754495D01*
X786279Y754890D01*
X786310Y755284D01*
X786362Y755676D01*
X786434Y756064D01*
X786526Y756449D01*
X786638Y756827D01*
X786770Y757200D01*
X786922Y757565D01*
X787092Y757922D01*
X787280Y758270D01*
X787487Y758607D01*
X787711Y758932D01*
X787951Y759246D01*
X788208Y759547D01*
X788480Y759833D01*
X788767Y760105D01*
X789068Y760362D01*
X789381Y760603D01*
X789707Y760826D01*
X790044Y761033D01*
X790391Y761222D01*
X790748Y761392D01*
X791113Y761543D01*
X791486Y761675D01*
X791865Y761787D01*
X792249Y761880D01*
X792638Y761952D01*
X793030Y762003D01*
X793424Y762034D01*
X793819Y762045D01*
X794214Y762034D01*
D02*
G37*
G36*
X773894D02*
X774288Y762003D01*
X774680Y761952D01*
X775069Y761880D01*
X775453Y761787D01*
X775832Y761675D01*
X776205Y761543D01*
X776570Y761392D01*
X776927Y761222D01*
X777274Y761033D01*
X777611Y760826D01*
X777937Y760603D01*
X778250Y760362D01*
X778551Y760105D01*
X778838Y759833D01*
X779110Y759547D01*
X779367Y759246D01*
X779607Y758932D01*
X779831Y758607D01*
X780038Y758270D01*
X780226Y757922D01*
X780396Y757565D01*
X780548Y757200D01*
X780679Y756827D01*
X780792Y756449D01*
X780884Y756064D01*
X780956Y755676D01*
X781008Y755284D01*
X781039Y754890D01*
X781049Y754495D01*
X781039Y754099D01*
X781008Y753705D01*
X780956Y753314D01*
X780884Y752925D01*
X780792Y752541D01*
X780679Y752162D01*
X780548Y751789D01*
X780396Y751424D01*
X780226Y751067D01*
X780038Y750720D01*
X779831Y750383D01*
X779607Y750057D01*
X779367Y749743D01*
X779110Y749443D01*
X778838Y749156D01*
X778551Y748884D01*
X778250Y748627D01*
X777937Y748386D01*
X777611Y748163D01*
X777274Y747956D01*
X776927Y747767D01*
X776570Y747597D01*
X776205Y747446D01*
X775832Y747314D01*
X775453Y747202D01*
X775069Y747110D01*
X774680Y747037D01*
X774288Y746986D01*
X773894Y746955D01*
X773499Y746944D01*
X773104Y746955D01*
X772710Y746986D01*
X772318Y747037D01*
X771929Y747110D01*
X771545Y747202D01*
X771166Y747314D01*
X770793Y747446D01*
X770428Y747597D01*
X770071Y747767D01*
X769724Y747956D01*
X769387Y748163D01*
X769061Y748386D01*
X768747Y748627D01*
X768447Y748884D01*
X768160Y749156D01*
X767888Y749443D01*
X767631Y749743D01*
X767391Y750057D01*
X767167Y750383D01*
X766960Y750720D01*
X766772Y751067D01*
X766602Y751424D01*
X766450Y751789D01*
X766319Y752162D01*
X766206Y752541D01*
X766114Y752925D01*
X766042Y753314D01*
X765990Y753705D01*
X765959Y754099D01*
X765949Y754495D01*
X765959Y754890D01*
X765990Y755284D01*
X766042Y755676D01*
X766114Y756064D01*
X766206Y756449D01*
X766319Y756827D01*
X766450Y757200D01*
X766602Y757565D01*
X766772Y757922D01*
X766960Y758270D01*
X767167Y758607D01*
X767391Y758932D01*
X767631Y759246D01*
X767888Y759547D01*
X768160Y759833D01*
X768447Y760105D01*
X768747Y760362D01*
X769061Y760603D01*
X769387Y760826D01*
X769724Y761033D01*
X770071Y761222D01*
X770428Y761392D01*
X770793Y761543D01*
X771166Y761675D01*
X771545Y761787D01*
X771929Y761880D01*
X772318Y761952D01*
X772710Y762003D01*
X773104Y762034D01*
X773499Y762045D01*
X773894Y762034D01*
D02*
G37*
G36*
X753574D02*
X753968Y762003D01*
X754360Y761952D01*
X754749Y761880D01*
X755133Y761787D01*
X755512Y761675D01*
X755885Y761543D01*
X756250Y761392D01*
X756607Y761222D01*
X756954Y761033D01*
X757291Y760826D01*
X757617Y760603D01*
X757930Y760362D01*
X758231Y760105D01*
X758518Y759833D01*
X758790Y759547D01*
X759046Y759246D01*
X759287Y758932D01*
X759511Y758607D01*
X759718Y758270D01*
X759906Y757922D01*
X760076Y757565D01*
X760228Y757200D01*
X760359Y756827D01*
X760472Y756449D01*
X760564Y756064D01*
X760636Y755676D01*
X760688Y755284D01*
X760719Y754890D01*
X760729Y754495D01*
X760719Y754099D01*
X760688Y753705D01*
X760636Y753314D01*
X760564Y752925D01*
X760472Y752541D01*
X760359Y752162D01*
X760228Y751789D01*
X760076Y751424D01*
X759906Y751067D01*
X759718Y750720D01*
X759511Y750383D01*
X759287Y750057D01*
X759046Y749743D01*
X758790Y749443D01*
X758518Y749156D01*
X758231Y748884D01*
X757930Y748627D01*
X757617Y748386D01*
X757291Y748163D01*
X756954Y747956D01*
X756607Y747767D01*
X756250Y747597D01*
X755885Y747446D01*
X755512Y747314D01*
X755133Y747202D01*
X754749Y747110D01*
X754360Y747037D01*
X753968Y746986D01*
X753574Y746955D01*
X753179Y746944D01*
X752784Y746955D01*
X752390Y746986D01*
X751998Y747037D01*
X751609Y747110D01*
X751225Y747202D01*
X750846Y747314D01*
X750473Y747446D01*
X750108Y747597D01*
X749751Y747767D01*
X749404Y747956D01*
X749067Y748163D01*
X748741Y748386D01*
X748428Y748627D01*
X748127Y748884D01*
X747840Y749156D01*
X747568Y749443D01*
X747311Y749743D01*
X747071Y750057D01*
X746847Y750383D01*
X746640Y750720D01*
X746452Y751067D01*
X746282Y751424D01*
X746130Y751789D01*
X745999Y752162D01*
X745886Y752541D01*
X745794Y752925D01*
X745722Y753314D01*
X745670Y753705D01*
X745639Y754099D01*
X745629Y754495D01*
X745639Y754890D01*
X745670Y755284D01*
X745722Y755676D01*
X745794Y756064D01*
X745886Y756449D01*
X745999Y756827D01*
X746130Y757200D01*
X746282Y757565D01*
X746452Y757922D01*
X746640Y758270D01*
X746847Y758607D01*
X747071Y758932D01*
X747311Y759246D01*
X747568Y759547D01*
X747840Y759833D01*
X748127Y760105D01*
X748428Y760362D01*
X748741Y760603D01*
X749067Y760826D01*
X749404Y761033D01*
X749751Y761222D01*
X750108Y761392D01*
X750473Y761543D01*
X750846Y761675D01*
X751225Y761787D01*
X751609Y761880D01*
X751998Y761952D01*
X752390Y762003D01*
X752784Y762034D01*
X753179Y762045D01*
X753574Y762034D01*
D02*
G37*
G36*
X936454Y782354D02*
X936848Y782323D01*
X937240Y782272D01*
X937629Y782200D01*
X938013Y782107D01*
X938392Y781995D01*
X938765Y781863D01*
X939130Y781712D01*
X939487Y781542D01*
X939834Y781353D01*
X940171Y781146D01*
X940497Y780923D01*
X940810Y780682D01*
X941111Y780425D01*
X941398Y780153D01*
X941670Y779867D01*
X941926Y779566D01*
X942167Y779252D01*
X942391Y778927D01*
X942598Y778589D01*
X942786Y778242D01*
X942956Y777885D01*
X943108Y777520D01*
X943239Y777148D01*
X943352Y776769D01*
X943444Y776384D01*
X943516Y775996D01*
X943568Y775604D01*
X943599Y775210D01*
X943609Y774815D01*
X943599Y774419D01*
X943568Y774025D01*
X943516Y773633D01*
X943444Y773245D01*
X943352Y772860D01*
X943239Y772482D01*
X943108Y772109D01*
X942956Y771744D01*
X942786Y771387D01*
X942598Y771040D01*
X942391Y770703D01*
X942167Y770377D01*
X941926Y770063D01*
X941670Y769762D01*
X941398Y769476D01*
X941111Y769204D01*
X940810Y768947D01*
X940497Y768706D01*
X940171Y768483D01*
X939834Y768276D01*
X939487Y768087D01*
X939130Y767917D01*
X938765Y767766D01*
X938392Y767634D01*
X938013Y767522D01*
X937629Y767430D01*
X937240Y767357D01*
X936848Y767306D01*
X936454Y767275D01*
X936059Y767264D01*
X935664Y767275D01*
X935270Y767306D01*
X934878Y767357D01*
X934489Y767430D01*
X934105Y767522D01*
X933726Y767634D01*
X933353Y767766D01*
X932988Y767917D01*
X932631Y768087D01*
X932284Y768276D01*
X931947Y768483D01*
X931621Y768706D01*
X931308Y768947D01*
X931007Y769204D01*
X930720Y769476D01*
X930448Y769762D01*
X930191Y770063D01*
X929951Y770377D01*
X929727Y770703D01*
X929520Y771040D01*
X929332Y771387D01*
X929162Y771744D01*
X929010Y772109D01*
X928878Y772482D01*
X928766Y772860D01*
X928674Y773245D01*
X928602Y773633D01*
X928550Y774025D01*
X928519Y774419D01*
X928509Y774815D01*
X928519Y775210D01*
X928550Y775604D01*
X928602Y775996D01*
X928674Y776384D01*
X928766Y776769D01*
X928878Y777148D01*
X929010Y777520D01*
X929162Y777885D01*
X929332Y778242D01*
X929520Y778589D01*
X929727Y778927D01*
X929951Y779252D01*
X930191Y779566D01*
X930448Y779867D01*
X930720Y780153D01*
X931007Y780425D01*
X931308Y780682D01*
X931621Y780923D01*
X931947Y781146D01*
X932284Y781353D01*
X932631Y781542D01*
X932988Y781712D01*
X933353Y781863D01*
X933726Y781995D01*
X934105Y782107D01*
X934489Y782200D01*
X934878Y782272D01*
X935270Y782323D01*
X935664Y782354D01*
X936059Y782365D01*
X936454Y782354D01*
D02*
G37*
G36*
X916204D02*
X916598Y782323D01*
X916990Y782272D01*
X917379Y782200D01*
X917763Y782107D01*
X918142Y781995D01*
X918515Y781863D01*
X918880Y781712D01*
X919237Y781542D01*
X919584Y781353D01*
X919921Y781146D01*
X920247Y780923D01*
X920561Y780682D01*
X920861Y780425D01*
X921148Y780153D01*
X921420Y779867D01*
X921677Y779566D01*
X921917Y779252D01*
X922141Y778927D01*
X922348Y778589D01*
X922536Y778242D01*
X922706Y777885D01*
X922858Y777520D01*
X922990Y777148D01*
X923102Y776769D01*
X923194Y776384D01*
X923266Y775996D01*
X923318Y775604D01*
X923349Y775210D01*
X923359Y774815D01*
X923349Y774419D01*
X923318Y774025D01*
X923266Y773633D01*
X923194Y773245D01*
X923102Y772860D01*
X922990Y772482D01*
X922858Y772109D01*
X922706Y771744D01*
X922536Y771387D01*
X922348Y771040D01*
X922141Y770703D01*
X921917Y770377D01*
X921677Y770063D01*
X921420Y769762D01*
X921148Y769476D01*
X920861Y769204D01*
X920561Y768947D01*
X920247Y768706D01*
X919921Y768483D01*
X919584Y768276D01*
X919237Y768087D01*
X918880Y767917D01*
X918515Y767766D01*
X918142Y767634D01*
X917763Y767522D01*
X917379Y767430D01*
X916990Y767357D01*
X916598Y767306D01*
X916204Y767275D01*
X915809Y767264D01*
X915414Y767275D01*
X915020Y767306D01*
X914628Y767357D01*
X914239Y767430D01*
X913855Y767522D01*
X913476Y767634D01*
X913103Y767766D01*
X912738Y767917D01*
X912382Y768087D01*
X912034Y768276D01*
X911697Y768483D01*
X911371Y768706D01*
X911058Y768947D01*
X910757Y769204D01*
X910470Y769476D01*
X910198Y769762D01*
X909941Y770063D01*
X909701Y770377D01*
X909477Y770703D01*
X909270Y771040D01*
X909082Y771387D01*
X908912Y771744D01*
X908760Y772109D01*
X908629Y772482D01*
X908516Y772860D01*
X908424Y773245D01*
X908352Y773633D01*
X908300Y774025D01*
X908270Y774419D01*
X908259Y774815D01*
X908270Y775210D01*
X908300Y775604D01*
X908352Y775996D01*
X908424Y776384D01*
X908516Y776769D01*
X908629Y777148D01*
X908760Y777520D01*
X908912Y777885D01*
X909082Y778242D01*
X909270Y778589D01*
X909477Y778927D01*
X909701Y779252D01*
X909941Y779566D01*
X910198Y779867D01*
X910470Y780153D01*
X910757Y780425D01*
X911058Y780682D01*
X911371Y780923D01*
X911697Y781146D01*
X912034Y781353D01*
X912382Y781542D01*
X912738Y781712D01*
X913103Y781863D01*
X913476Y781995D01*
X913855Y782107D01*
X914239Y782200D01*
X914628Y782272D01*
X915020Y782323D01*
X915414Y782354D01*
X915809Y782365D01*
X916204Y782354D01*
D02*
G37*
G36*
X895884D02*
X896278Y782323D01*
X896670Y782272D01*
X897059Y782200D01*
X897443Y782107D01*
X897822Y781995D01*
X898195Y781863D01*
X898560Y781712D01*
X898917Y781542D01*
X899264Y781353D01*
X899601Y781146D01*
X899927Y780923D01*
X900240Y780682D01*
X900541Y780425D01*
X900828Y780153D01*
X901100Y779867D01*
X901357Y779566D01*
X901597Y779252D01*
X901821Y778927D01*
X902028Y778589D01*
X902216Y778242D01*
X902386Y777885D01*
X902538Y777520D01*
X902670Y777148D01*
X902782Y776769D01*
X902874Y776384D01*
X902946Y775996D01*
X902998Y775604D01*
X903029Y775210D01*
X903039Y774815D01*
X903029Y774419D01*
X902998Y774025D01*
X902946Y773633D01*
X902874Y773245D01*
X902782Y772860D01*
X902670Y772482D01*
X902538Y772109D01*
X902386Y771744D01*
X902216Y771387D01*
X902028Y771040D01*
X901821Y770703D01*
X901597Y770377D01*
X901357Y770063D01*
X901100Y769762D01*
X900828Y769476D01*
X900541Y769204D01*
X900240Y768947D01*
X899927Y768706D01*
X899601Y768483D01*
X899264Y768276D01*
X898917Y768087D01*
X898560Y767917D01*
X898195Y767766D01*
X897822Y767634D01*
X897443Y767522D01*
X897059Y767430D01*
X896670Y767357D01*
X896278Y767306D01*
X895884Y767275D01*
X895489Y767264D01*
X895094Y767275D01*
X894700Y767306D01*
X894308Y767357D01*
X893919Y767430D01*
X893535Y767522D01*
X893156Y767634D01*
X892783Y767766D01*
X892418Y767917D01*
X892061Y768087D01*
X891714Y768276D01*
X891377Y768483D01*
X891051Y768706D01*
X890738Y768947D01*
X890437Y769204D01*
X890150Y769476D01*
X889878Y769762D01*
X889622Y770063D01*
X889381Y770377D01*
X889157Y770703D01*
X888951Y771040D01*
X888762Y771387D01*
X888592Y771744D01*
X888440Y772109D01*
X888309Y772482D01*
X888196Y772860D01*
X888104Y773245D01*
X888032Y773633D01*
X887980Y774025D01*
X887950Y774419D01*
X887939Y774815D01*
X887950Y775210D01*
X887980Y775604D01*
X888032Y775996D01*
X888104Y776384D01*
X888196Y776769D01*
X888309Y777148D01*
X888440Y777520D01*
X888592Y777885D01*
X888762Y778242D01*
X888951Y778589D01*
X889157Y778927D01*
X889381Y779252D01*
X889622Y779566D01*
X889878Y779867D01*
X890150Y780153D01*
X890437Y780425D01*
X890738Y780682D01*
X891051Y780923D01*
X891377Y781146D01*
X891714Y781353D01*
X892061Y781542D01*
X892418Y781712D01*
X892783Y781863D01*
X893156Y781995D01*
X893535Y782107D01*
X893919Y782200D01*
X894308Y782272D01*
X894700Y782323D01*
X895094Y782354D01*
X895489Y782365D01*
X895884Y782354D01*
D02*
G37*
G36*
X875564D02*
X875958Y782323D01*
X876350Y782272D01*
X876739Y782200D01*
X877123Y782107D01*
X877502Y781995D01*
X877875Y781863D01*
X878240Y781712D01*
X878597Y781542D01*
X878944Y781353D01*
X879281Y781146D01*
X879607Y780923D01*
X879921Y780682D01*
X880221Y780425D01*
X880508Y780153D01*
X880780Y779867D01*
X881037Y779566D01*
X881277Y779252D01*
X881501Y778927D01*
X881708Y778589D01*
X881896Y778242D01*
X882066Y777885D01*
X882218Y777520D01*
X882349Y777148D01*
X882462Y776769D01*
X882554Y776384D01*
X882626Y775996D01*
X882678Y775604D01*
X882709Y775210D01*
X882719Y774815D01*
X882709Y774419D01*
X882678Y774025D01*
X882626Y773633D01*
X882554Y773245D01*
X882462Y772860D01*
X882349Y772482D01*
X882218Y772109D01*
X882066Y771744D01*
X881896Y771387D01*
X881708Y771040D01*
X881501Y770703D01*
X881277Y770377D01*
X881037Y770063D01*
X880780Y769762D01*
X880508Y769476D01*
X880221Y769204D01*
X879921Y768947D01*
X879607Y768706D01*
X879281Y768483D01*
X878944Y768276D01*
X878597Y768087D01*
X878240Y767917D01*
X877875Y767766D01*
X877502Y767634D01*
X877123Y767522D01*
X876739Y767430D01*
X876350Y767357D01*
X875958Y767306D01*
X875564Y767275D01*
X875169Y767264D01*
X874774Y767275D01*
X874380Y767306D01*
X873988Y767357D01*
X873599Y767430D01*
X873215Y767522D01*
X872836Y767634D01*
X872463Y767766D01*
X872098Y767917D01*
X871741Y768087D01*
X871394Y768276D01*
X871057Y768483D01*
X870731Y768706D01*
X870418Y768947D01*
X870117Y769204D01*
X869830Y769476D01*
X869558Y769762D01*
X869302Y770063D01*
X869061Y770377D01*
X868837Y770703D01*
X868631Y771040D01*
X868442Y771387D01*
X868272Y771744D01*
X868120Y772109D01*
X867989Y772482D01*
X867876Y772860D01*
X867784Y773245D01*
X867712Y773633D01*
X867660Y774025D01*
X867629Y774419D01*
X867619Y774815D01*
X867629Y775210D01*
X867660Y775604D01*
X867712Y775996D01*
X867784Y776384D01*
X867876Y776769D01*
X867989Y777148D01*
X868120Y777520D01*
X868272Y777885D01*
X868442Y778242D01*
X868631Y778589D01*
X868837Y778927D01*
X869061Y779252D01*
X869302Y779566D01*
X869558Y779867D01*
X869830Y780153D01*
X870117Y780425D01*
X870418Y780682D01*
X870731Y780923D01*
X871057Y781146D01*
X871394Y781353D01*
X871741Y781542D01*
X872098Y781712D01*
X872463Y781863D01*
X872836Y781995D01*
X873215Y782107D01*
X873599Y782200D01*
X873988Y782272D01*
X874380Y782323D01*
X874774Y782354D01*
X875169Y782365D01*
X875564Y782354D01*
D02*
G37*
G36*
X855244D02*
X855638Y782323D01*
X856030Y782272D01*
X856419Y782200D01*
X856803Y782107D01*
X857182Y781995D01*
X857555Y781863D01*
X857920Y781712D01*
X858277Y781542D01*
X858624Y781353D01*
X858961Y781146D01*
X859287Y780923D01*
X859601Y780682D01*
X859901Y780425D01*
X860188Y780153D01*
X860460Y779867D01*
X860717Y779566D01*
X860957Y779252D01*
X861181Y778927D01*
X861388Y778589D01*
X861576Y778242D01*
X861746Y777885D01*
X861898Y777520D01*
X862029Y777148D01*
X862142Y776769D01*
X862234Y776384D01*
X862306Y775996D01*
X862358Y775604D01*
X862389Y775210D01*
X862399Y774815D01*
X862389Y774419D01*
X862358Y774025D01*
X862306Y773633D01*
X862234Y773245D01*
X862142Y772860D01*
X862029Y772482D01*
X861898Y772109D01*
X861746Y771744D01*
X861576Y771387D01*
X861388Y771040D01*
X861181Y770703D01*
X860957Y770377D01*
X860717Y770063D01*
X860460Y769762D01*
X860188Y769476D01*
X859901Y769204D01*
X859601Y768947D01*
X859287Y768706D01*
X858961Y768483D01*
X858624Y768276D01*
X858277Y768087D01*
X857920Y767917D01*
X857555Y767766D01*
X857182Y767634D01*
X856803Y767522D01*
X856419Y767430D01*
X856030Y767357D01*
X855638Y767306D01*
X855244Y767275D01*
X854849Y767264D01*
X854454Y767275D01*
X854060Y767306D01*
X853668Y767357D01*
X853279Y767430D01*
X852895Y767522D01*
X852516Y767634D01*
X852143Y767766D01*
X851778Y767917D01*
X851422Y768087D01*
X851074Y768276D01*
X850737Y768483D01*
X850411Y768706D01*
X850098Y768947D01*
X849797Y769204D01*
X849510Y769476D01*
X849238Y769762D01*
X848981Y770063D01*
X848741Y770377D01*
X848517Y770703D01*
X848310Y771040D01*
X848122Y771387D01*
X847952Y771744D01*
X847800Y772109D01*
X847669Y772482D01*
X847556Y772860D01*
X847464Y773245D01*
X847392Y773633D01*
X847340Y774025D01*
X847309Y774419D01*
X847299Y774815D01*
X847309Y775210D01*
X847340Y775604D01*
X847392Y775996D01*
X847464Y776384D01*
X847556Y776769D01*
X847669Y777148D01*
X847800Y777520D01*
X847952Y777885D01*
X848122Y778242D01*
X848310Y778589D01*
X848517Y778927D01*
X848741Y779252D01*
X848981Y779566D01*
X849238Y779867D01*
X849510Y780153D01*
X849797Y780425D01*
X850098Y780682D01*
X850411Y780923D01*
X850737Y781146D01*
X851074Y781353D01*
X851422Y781542D01*
X851778Y781712D01*
X852143Y781863D01*
X852516Y781995D01*
X852895Y782107D01*
X853279Y782200D01*
X853668Y782272D01*
X854060Y782323D01*
X854454Y782354D01*
X854849Y782365D01*
X855244Y782354D01*
D02*
G37*
G36*
X936384Y762034D02*
X936778Y762003D01*
X937170Y761952D01*
X937559Y761879D01*
X937943Y761787D01*
X938322Y761675D01*
X938695Y761543D01*
X939060Y761392D01*
X939417Y761221D01*
X939764Y761033D01*
X940101Y760826D01*
X940427Y760602D01*
X940740Y760362D01*
X941041Y760105D01*
X941328Y759833D01*
X941600Y759546D01*
X941856Y759246D01*
X942097Y758932D01*
X942321Y758607D01*
X942527Y758270D01*
X942716Y757922D01*
X942886Y757565D01*
X943037Y757200D01*
X943169Y756827D01*
X943282Y756449D01*
X943374Y756064D01*
X943446Y755676D01*
X943497Y755284D01*
X943529Y754890D01*
X943539Y754495D01*
X943529Y754099D01*
X943497Y753705D01*
X943446Y753314D01*
X943374Y752925D01*
X943282Y752541D01*
X943169Y752162D01*
X943037Y751789D01*
X942886Y751424D01*
X942716Y751067D01*
X942527Y750720D01*
X942321Y750383D01*
X942097Y750057D01*
X941856Y749743D01*
X941600Y749443D01*
X941328Y749156D01*
X941041Y748884D01*
X940740Y748627D01*
X940427Y748387D01*
X940101Y748163D01*
X939764Y747956D01*
X939417Y747768D01*
X939060Y747597D01*
X938695Y747446D01*
X938322Y747314D01*
X937943Y747202D01*
X937559Y747110D01*
X937170Y747038D01*
X936778Y746986D01*
X936384Y746955D01*
X935989Y746945D01*
X935594Y746955D01*
X935200Y746986D01*
X934808Y747038D01*
X934419Y747110D01*
X934035Y747202D01*
X933656Y747314D01*
X933283Y747446D01*
X932918Y747597D01*
X932561Y747768D01*
X932214Y747956D01*
X931877Y748163D01*
X931551Y748387D01*
X931238Y748627D01*
X930937Y748884D01*
X930650Y749156D01*
X930378Y749443D01*
X930122Y749743D01*
X929881Y750057D01*
X929657Y750383D01*
X929451Y750720D01*
X929262Y751067D01*
X929092Y751424D01*
X928941Y751789D01*
X928809Y752162D01*
X928696Y752541D01*
X928604Y752925D01*
X928532Y753314D01*
X928481Y753705D01*
X928449Y754099D01*
X928439Y754495D01*
X928449Y754890D01*
X928481Y755284D01*
X928532Y755676D01*
X928604Y756064D01*
X928696Y756449D01*
X928809Y756827D01*
X928941Y757200D01*
X929092Y757565D01*
X929262Y757922D01*
X929451Y758270D01*
X929657Y758607D01*
X929881Y758932D01*
X930122Y759246D01*
X930378Y759546D01*
X930650Y759833D01*
X930937Y760105D01*
X931238Y760362D01*
X931551Y760602D01*
X931877Y760826D01*
X932214Y761033D01*
X932561Y761221D01*
X932918Y761392D01*
X933283Y761543D01*
X933656Y761675D01*
X934035Y761787D01*
X934419Y761879D01*
X934808Y761952D01*
X935200Y762003D01*
X935594Y762034D01*
X935989Y762044D01*
X936384Y762034D01*
D02*
G37*
G36*
X916134Y762034D02*
X916528Y762003D01*
X916920Y761952D01*
X917309Y761880D01*
X917693Y761787D01*
X918072Y761675D01*
X918445Y761543D01*
X918810Y761392D01*
X919167Y761222D01*
X919514Y761033D01*
X919851Y760826D01*
X920177Y760603D01*
X920490Y760362D01*
X920791Y760105D01*
X921078Y759833D01*
X921350Y759547D01*
X921607Y759246D01*
X921847Y758932D01*
X922071Y758607D01*
X922278Y758270D01*
X922466Y757922D01*
X922636Y757565D01*
X922788Y757200D01*
X922919Y756827D01*
X923032Y756449D01*
X923124Y756064D01*
X923196Y755676D01*
X923248Y755284D01*
X923279Y754890D01*
X923289Y754495D01*
X923279Y754099D01*
X923248Y753705D01*
X923196Y753314D01*
X923124Y752925D01*
X923032Y752541D01*
X922919Y752162D01*
X922788Y751789D01*
X922636Y751424D01*
X922466Y751067D01*
X922278Y750720D01*
X922071Y750383D01*
X921847Y750057D01*
X921607Y749743D01*
X921350Y749443D01*
X921078Y749156D01*
X920791Y748884D01*
X920490Y748627D01*
X920177Y748386D01*
X919851Y748163D01*
X919514Y747956D01*
X919167Y747767D01*
X918810Y747597D01*
X918445Y747446D01*
X918072Y747314D01*
X917693Y747202D01*
X917309Y747110D01*
X916920Y747037D01*
X916528Y746986D01*
X916134Y746955D01*
X915739Y746944D01*
X915344Y746955D01*
X914950Y746986D01*
X914558Y747037D01*
X914169Y747110D01*
X913785Y747202D01*
X913406Y747314D01*
X913033Y747446D01*
X912668Y747597D01*
X912311Y747767D01*
X911964Y747956D01*
X911627Y748163D01*
X911301Y748386D01*
X910987Y748627D01*
X910687Y748884D01*
X910400Y749156D01*
X910128Y749443D01*
X909871Y749743D01*
X909631Y750057D01*
X909407Y750383D01*
X909200Y750720D01*
X909012Y751067D01*
X908842Y751424D01*
X908690Y751789D01*
X908559Y752162D01*
X908446Y752541D01*
X908354Y752925D01*
X908282Y753314D01*
X908230Y753705D01*
X908199Y754099D01*
X908189Y754495D01*
X908199Y754890D01*
X908230Y755284D01*
X908282Y755676D01*
X908354Y756064D01*
X908446Y756449D01*
X908559Y756827D01*
X908690Y757200D01*
X908842Y757565D01*
X909012Y757922D01*
X909200Y758270D01*
X909407Y758607D01*
X909631Y758932D01*
X909871Y759246D01*
X910128Y759547D01*
X910400Y759833D01*
X910687Y760105D01*
X910987Y760362D01*
X911301Y760603D01*
X911627Y760826D01*
X911964Y761033D01*
X912311Y761222D01*
X912668Y761392D01*
X913033Y761543D01*
X913406Y761675D01*
X913785Y761787D01*
X914169Y761880D01*
X914558Y761952D01*
X914950Y762003D01*
X915344Y762034D01*
X915739Y762045D01*
X916134Y762034D01*
D02*
G37*
G36*
X895814D02*
X896208Y762003D01*
X896600Y761952D01*
X896989Y761880D01*
X897373Y761787D01*
X897752Y761675D01*
X898125Y761543D01*
X898490Y761392D01*
X898847Y761222D01*
X899194Y761033D01*
X899531Y760826D01*
X899857Y760603D01*
X900170Y760362D01*
X900471Y760105D01*
X900758Y759833D01*
X901030Y759547D01*
X901286Y759246D01*
X901527Y758932D01*
X901751Y758607D01*
X901958Y758270D01*
X902146Y757922D01*
X902316Y757565D01*
X902468Y757200D01*
X902599Y756827D01*
X902712Y756449D01*
X902804Y756064D01*
X902876Y755676D01*
X902928Y755284D01*
X902959Y754890D01*
X902969Y754495D01*
X902959Y754099D01*
X902928Y753705D01*
X902876Y753314D01*
X902804Y752925D01*
X902712Y752541D01*
X902599Y752162D01*
X902468Y751789D01*
X902316Y751424D01*
X902146Y751067D01*
X901958Y750720D01*
X901751Y750383D01*
X901527Y750057D01*
X901286Y749743D01*
X901030Y749443D01*
X900758Y749156D01*
X900471Y748884D01*
X900170Y748627D01*
X899857Y748386D01*
X899531Y748163D01*
X899194Y747956D01*
X898847Y747767D01*
X898490Y747597D01*
X898125Y747446D01*
X897752Y747314D01*
X897373Y747202D01*
X896989Y747110D01*
X896600Y747037D01*
X896208Y746986D01*
X895814Y746955D01*
X895419Y746944D01*
X895024Y746955D01*
X894630Y746986D01*
X894238Y747037D01*
X893849Y747110D01*
X893465Y747202D01*
X893086Y747314D01*
X892713Y747446D01*
X892348Y747597D01*
X891991Y747767D01*
X891644Y747956D01*
X891307Y748163D01*
X890981Y748386D01*
X890667Y748627D01*
X890367Y748884D01*
X890080Y749156D01*
X889808Y749443D01*
X889551Y749743D01*
X889311Y750057D01*
X889087Y750383D01*
X888880Y750720D01*
X888692Y751067D01*
X888522Y751424D01*
X888370Y751789D01*
X888239Y752162D01*
X888126Y752541D01*
X888034Y752925D01*
X887962Y753314D01*
X887910Y753705D01*
X887879Y754099D01*
X887869Y754495D01*
X887879Y754890D01*
X887910Y755284D01*
X887962Y755676D01*
X888034Y756064D01*
X888126Y756449D01*
X888239Y756827D01*
X888370Y757200D01*
X888522Y757565D01*
X888692Y757922D01*
X888880Y758270D01*
X889087Y758607D01*
X889311Y758932D01*
X889551Y759246D01*
X889808Y759547D01*
X890080Y759833D01*
X890367Y760105D01*
X890667Y760362D01*
X890981Y760603D01*
X891307Y760826D01*
X891644Y761033D01*
X891991Y761222D01*
X892348Y761392D01*
X892713Y761543D01*
X893086Y761675D01*
X893465Y761787D01*
X893849Y761880D01*
X894238Y761952D01*
X894630Y762003D01*
X895024Y762034D01*
X895419Y762045D01*
X895814Y762034D01*
D02*
G37*
G36*
X875494D02*
X875888Y762003D01*
X876280Y761952D01*
X876669Y761880D01*
X877053Y761787D01*
X877432Y761675D01*
X877805Y761543D01*
X878170Y761392D01*
X878527Y761222D01*
X878874Y761033D01*
X879211Y760826D01*
X879537Y760603D01*
X879850Y760362D01*
X880151Y760105D01*
X880438Y759833D01*
X880710Y759547D01*
X880966Y759246D01*
X881207Y758932D01*
X881431Y758607D01*
X881638Y758270D01*
X881826Y757922D01*
X881996Y757565D01*
X882148Y757200D01*
X882279Y756827D01*
X882392Y756449D01*
X882484Y756064D01*
X882556Y755676D01*
X882608Y755284D01*
X882639Y754890D01*
X882649Y754495D01*
X882639Y754099D01*
X882608Y753705D01*
X882556Y753314D01*
X882484Y752925D01*
X882392Y752541D01*
X882279Y752162D01*
X882148Y751789D01*
X881996Y751424D01*
X881826Y751067D01*
X881638Y750720D01*
X881431Y750383D01*
X881207Y750057D01*
X880966Y749743D01*
X880710Y749443D01*
X880438Y749156D01*
X880151Y748884D01*
X879850Y748627D01*
X879537Y748386D01*
X879211Y748163D01*
X878874Y747956D01*
X878527Y747767D01*
X878170Y747597D01*
X877805Y747446D01*
X877432Y747314D01*
X877053Y747202D01*
X876669Y747110D01*
X876280Y747037D01*
X875888Y746986D01*
X875494Y746955D01*
X875099Y746944D01*
X874704Y746955D01*
X874310Y746986D01*
X873918Y747037D01*
X873529Y747110D01*
X873145Y747202D01*
X872766Y747314D01*
X872393Y747446D01*
X872028Y747597D01*
X871671Y747767D01*
X871324Y747956D01*
X870987Y748163D01*
X870661Y748386D01*
X870348Y748627D01*
X870047Y748884D01*
X869760Y749156D01*
X869488Y749443D01*
X869231Y749743D01*
X868991Y750057D01*
X868767Y750383D01*
X868560Y750720D01*
X868372Y751067D01*
X868202Y751424D01*
X868050Y751789D01*
X867918Y752162D01*
X867806Y752541D01*
X867714Y752925D01*
X867642Y753314D01*
X867590Y753705D01*
X867559Y754099D01*
X867549Y754495D01*
X867559Y754890D01*
X867590Y755284D01*
X867642Y755676D01*
X867714Y756064D01*
X867806Y756449D01*
X867918Y756827D01*
X868050Y757200D01*
X868202Y757565D01*
X868372Y757922D01*
X868560Y758270D01*
X868767Y758607D01*
X868991Y758932D01*
X869231Y759246D01*
X869488Y759547D01*
X869760Y759833D01*
X870047Y760105D01*
X870348Y760362D01*
X870661Y760603D01*
X870987Y760826D01*
X871324Y761033D01*
X871671Y761222D01*
X872028Y761392D01*
X872393Y761543D01*
X872766Y761675D01*
X873145Y761787D01*
X873529Y761880D01*
X873918Y761952D01*
X874310Y762003D01*
X874704Y762034D01*
X875099Y762045D01*
X875494Y762034D01*
D02*
G37*
G36*
X855174D02*
X855568Y762003D01*
X855960Y761952D01*
X856349Y761880D01*
X856733Y761787D01*
X857112Y761675D01*
X857485Y761543D01*
X857850Y761392D01*
X858207Y761222D01*
X858554Y761033D01*
X858891Y760826D01*
X859217Y760603D01*
X859530Y760362D01*
X859831Y760105D01*
X860118Y759833D01*
X860390Y759547D01*
X860647Y759246D01*
X860887Y758932D01*
X861111Y758607D01*
X861318Y758270D01*
X861506Y757922D01*
X861676Y757565D01*
X861828Y757200D01*
X861959Y756827D01*
X862072Y756449D01*
X862164Y756064D01*
X862236Y755676D01*
X862288Y755284D01*
X862319Y754890D01*
X862329Y754495D01*
X862319Y754099D01*
X862288Y753705D01*
X862236Y753314D01*
X862164Y752925D01*
X862072Y752541D01*
X861959Y752162D01*
X861828Y751789D01*
X861676Y751424D01*
X861506Y751067D01*
X861318Y750720D01*
X861111Y750383D01*
X860887Y750057D01*
X860647Y749743D01*
X860390Y749443D01*
X860118Y749156D01*
X859831Y748884D01*
X859530Y748627D01*
X859217Y748386D01*
X858891Y748163D01*
X858554Y747956D01*
X858207Y747767D01*
X857850Y747597D01*
X857485Y747446D01*
X857112Y747314D01*
X856733Y747202D01*
X856349Y747110D01*
X855960Y747037D01*
X855568Y746986D01*
X855174Y746955D01*
X854779Y746944D01*
X854384Y746955D01*
X853990Y746986D01*
X853598Y747037D01*
X853209Y747110D01*
X852825Y747202D01*
X852446Y747314D01*
X852073Y747446D01*
X851708Y747597D01*
X851351Y747767D01*
X851004Y747956D01*
X850667Y748163D01*
X850341Y748386D01*
X850027Y748627D01*
X849727Y748884D01*
X849440Y749156D01*
X849168Y749443D01*
X848911Y749743D01*
X848671Y750057D01*
X848447Y750383D01*
X848240Y750720D01*
X848052Y751067D01*
X847882Y751424D01*
X847730Y751789D01*
X847598Y752162D01*
X847486Y752541D01*
X847394Y752925D01*
X847322Y753314D01*
X847270Y753705D01*
X847239Y754099D01*
X847229Y754495D01*
X847239Y754890D01*
X847270Y755284D01*
X847322Y755676D01*
X847394Y756064D01*
X847486Y756449D01*
X847598Y756827D01*
X847730Y757200D01*
X847882Y757565D01*
X848052Y757922D01*
X848240Y758270D01*
X848447Y758607D01*
X848671Y758932D01*
X848911Y759246D01*
X849168Y759547D01*
X849440Y759833D01*
X849727Y760105D01*
X850027Y760362D01*
X850341Y760603D01*
X850667Y760826D01*
X851004Y761033D01*
X851351Y761222D01*
X851708Y761392D01*
X852073Y761543D01*
X852446Y761675D01*
X852825Y761787D01*
X853209Y761880D01*
X853598Y761952D01*
X853990Y762003D01*
X854384Y762034D01*
X854779Y762045D01*
X855174Y762034D01*
D02*
G37*
G36*
X1073614Y781084D02*
X1074008Y781053D01*
X1074400Y781002D01*
X1074789Y780930D01*
X1075173Y780837D01*
X1075552Y780725D01*
X1075925Y780593D01*
X1076290Y780442D01*
X1076647Y780272D01*
X1076994Y780083D01*
X1077331Y779876D01*
X1077657Y779653D01*
X1077970Y779412D01*
X1078271Y779155D01*
X1078558Y778883D01*
X1078830Y778597D01*
X1079087Y778296D01*
X1079327Y777982D01*
X1079551Y777657D01*
X1079758Y777319D01*
X1079946Y776972D01*
X1080116Y776615D01*
X1080268Y776250D01*
X1080399Y775878D01*
X1080512Y775499D01*
X1080604Y775114D01*
X1080676Y774726D01*
X1080728Y774334D01*
X1080759Y773940D01*
X1080769Y773545D01*
X1080759Y773149D01*
X1080728Y772755D01*
X1080676Y772364D01*
X1080604Y771975D01*
X1080512Y771590D01*
X1080399Y771212D01*
X1080268Y770839D01*
X1080116Y770474D01*
X1079946Y770117D01*
X1079758Y769770D01*
X1079551Y769433D01*
X1079327Y769107D01*
X1079087Y768793D01*
X1078830Y768493D01*
X1078558Y768206D01*
X1078271Y767934D01*
X1077970Y767677D01*
X1077657Y767436D01*
X1077331Y767213D01*
X1076994Y767006D01*
X1076647Y766817D01*
X1076290Y766647D01*
X1075925Y766496D01*
X1075552Y766364D01*
X1075173Y766252D01*
X1074789Y766160D01*
X1074400Y766087D01*
X1074008Y766036D01*
X1073614Y766005D01*
X1073219Y765994D01*
X1072824Y766005D01*
X1072430Y766036D01*
X1072038Y766087D01*
X1071649Y766160D01*
X1071265Y766252D01*
X1070886Y766364D01*
X1070513Y766496D01*
X1070148Y766647D01*
X1069791Y766817D01*
X1069444Y767006D01*
X1069107Y767213D01*
X1068781Y767436D01*
X1068467Y767677D01*
X1068167Y767934D01*
X1067880Y768206D01*
X1067608Y768493D01*
X1067351Y768793D01*
X1067111Y769107D01*
X1066887Y769433D01*
X1066680Y769770D01*
X1066492Y770117D01*
X1066322Y770474D01*
X1066170Y770839D01*
X1066039Y771212D01*
X1065926Y771590D01*
X1065834Y771975D01*
X1065762Y772364D01*
X1065710Y772755D01*
X1065679Y773149D01*
X1065669Y773545D01*
X1065679Y773940D01*
X1065710Y774334D01*
X1065762Y774726D01*
X1065834Y775114D01*
X1065926Y775499D01*
X1066039Y775878D01*
X1066170Y776250D01*
X1066322Y776615D01*
X1066492Y776972D01*
X1066680Y777319D01*
X1066887Y777657D01*
X1067111Y777982D01*
X1067351Y778296D01*
X1067608Y778597D01*
X1067880Y778883D01*
X1068167Y779155D01*
X1068467Y779412D01*
X1068781Y779653D01*
X1069107Y779876D01*
X1069444Y780083D01*
X1069791Y780272D01*
X1070148Y780442D01*
X1070513Y780593D01*
X1070886Y780725D01*
X1071265Y780837D01*
X1071649Y780930D01*
X1072038Y781002D01*
X1072430Y781053D01*
X1072824Y781084D01*
X1073219Y781095D01*
X1073614Y781084D01*
D02*
G37*
G36*
X1053364D02*
X1053758Y781053D01*
X1054150Y781002D01*
X1054539Y780930D01*
X1054923Y780837D01*
X1055302Y780725D01*
X1055675Y780593D01*
X1056040Y780442D01*
X1056397Y780272D01*
X1056744Y780083D01*
X1057081Y779876D01*
X1057407Y779653D01*
X1057720Y779412D01*
X1058021Y779155D01*
X1058308Y778883D01*
X1058580Y778597D01*
X1058837Y778296D01*
X1059077Y777982D01*
X1059301Y777657D01*
X1059508Y777319D01*
X1059696Y776972D01*
X1059866Y776615D01*
X1060018Y776250D01*
X1060150Y775878D01*
X1060262Y775499D01*
X1060354Y775114D01*
X1060426Y774726D01*
X1060478Y774334D01*
X1060509Y773940D01*
X1060519Y773545D01*
X1060509Y773149D01*
X1060478Y772755D01*
X1060426Y772364D01*
X1060354Y771975D01*
X1060262Y771590D01*
X1060150Y771212D01*
X1060018Y770839D01*
X1059866Y770474D01*
X1059696Y770117D01*
X1059508Y769770D01*
X1059301Y769433D01*
X1059077Y769107D01*
X1058837Y768793D01*
X1058580Y768493D01*
X1058308Y768206D01*
X1058021Y767934D01*
X1057720Y767677D01*
X1057407Y767436D01*
X1057081Y767213D01*
X1056744Y767006D01*
X1056397Y766817D01*
X1056040Y766647D01*
X1055675Y766496D01*
X1055302Y766364D01*
X1054923Y766252D01*
X1054539Y766160D01*
X1054150Y766087D01*
X1053758Y766036D01*
X1053364Y766005D01*
X1052969Y765994D01*
X1052574Y766005D01*
X1052180Y766036D01*
X1051788Y766087D01*
X1051399Y766160D01*
X1051015Y766252D01*
X1050636Y766364D01*
X1050263Y766496D01*
X1049898Y766647D01*
X1049541Y766817D01*
X1049194Y767006D01*
X1048857Y767213D01*
X1048531Y767436D01*
X1048218Y767677D01*
X1047917Y767934D01*
X1047630Y768206D01*
X1047358Y768493D01*
X1047102Y768793D01*
X1046861Y769107D01*
X1046637Y769433D01*
X1046431Y769770D01*
X1046242Y770117D01*
X1046072Y770474D01*
X1045920Y770839D01*
X1045789Y771212D01*
X1045676Y771590D01*
X1045584Y771975D01*
X1045512Y772364D01*
X1045460Y772755D01*
X1045430Y773149D01*
X1045419Y773545D01*
X1045430Y773940D01*
X1045460Y774334D01*
X1045512Y774726D01*
X1045584Y775114D01*
X1045676Y775499D01*
X1045789Y775878D01*
X1045920Y776250D01*
X1046072Y776615D01*
X1046242Y776972D01*
X1046431Y777319D01*
X1046637Y777657D01*
X1046861Y777982D01*
X1047102Y778296D01*
X1047358Y778597D01*
X1047630Y778883D01*
X1047917Y779155D01*
X1048218Y779412D01*
X1048531Y779653D01*
X1048857Y779876D01*
X1049194Y780083D01*
X1049541Y780272D01*
X1049898Y780442D01*
X1050263Y780593D01*
X1050636Y780725D01*
X1051015Y780837D01*
X1051399Y780930D01*
X1051788Y781002D01*
X1052180Y781053D01*
X1052574Y781084D01*
X1052969Y781095D01*
X1053364Y781084D01*
D02*
G37*
G36*
X1033044D02*
X1033438Y781053D01*
X1033830Y781002D01*
X1034219Y780930D01*
X1034603Y780837D01*
X1034982Y780725D01*
X1035355Y780593D01*
X1035720Y780442D01*
X1036077Y780272D01*
X1036424Y780083D01*
X1036761Y779876D01*
X1037087Y779653D01*
X1037401Y779412D01*
X1037701Y779155D01*
X1037988Y778883D01*
X1038260Y778597D01*
X1038517Y778296D01*
X1038757Y777982D01*
X1038981Y777657D01*
X1039188Y777319D01*
X1039376Y776972D01*
X1039546Y776615D01*
X1039698Y776250D01*
X1039829Y775878D01*
X1039942Y775499D01*
X1040034Y775114D01*
X1040106Y774726D01*
X1040158Y774334D01*
X1040189Y773940D01*
X1040199Y773545D01*
X1040189Y773149D01*
X1040158Y772755D01*
X1040106Y772364D01*
X1040034Y771975D01*
X1039942Y771590D01*
X1039829Y771212D01*
X1039698Y770839D01*
X1039546Y770474D01*
X1039376Y770117D01*
X1039188Y769770D01*
X1038981Y769433D01*
X1038757Y769107D01*
X1038517Y768793D01*
X1038260Y768493D01*
X1037988Y768206D01*
X1037701Y767934D01*
X1037401Y767677D01*
X1037087Y767436D01*
X1036761Y767213D01*
X1036424Y767006D01*
X1036077Y766817D01*
X1035720Y766647D01*
X1035355Y766496D01*
X1034982Y766364D01*
X1034603Y766252D01*
X1034219Y766160D01*
X1033830Y766087D01*
X1033438Y766036D01*
X1033044Y766005D01*
X1032649Y765994D01*
X1032254Y766005D01*
X1031860Y766036D01*
X1031468Y766087D01*
X1031079Y766160D01*
X1030695Y766252D01*
X1030316Y766364D01*
X1029943Y766496D01*
X1029578Y766647D01*
X1029221Y766817D01*
X1028874Y767006D01*
X1028537Y767213D01*
X1028211Y767436D01*
X1027898Y767677D01*
X1027597Y767934D01*
X1027310Y768206D01*
X1027038Y768493D01*
X1026781Y768793D01*
X1026541Y769107D01*
X1026317Y769433D01*
X1026111Y769770D01*
X1025922Y770117D01*
X1025752Y770474D01*
X1025600Y770839D01*
X1025469Y771212D01*
X1025356Y771590D01*
X1025264Y771975D01*
X1025192Y772364D01*
X1025140Y772755D01*
X1025109Y773149D01*
X1025099Y773545D01*
X1025109Y773940D01*
X1025140Y774334D01*
X1025192Y774726D01*
X1025264Y775114D01*
X1025356Y775499D01*
X1025469Y775878D01*
X1025600Y776250D01*
X1025752Y776615D01*
X1025922Y776972D01*
X1026111Y777319D01*
X1026317Y777657D01*
X1026541Y777982D01*
X1026781Y778296D01*
X1027038Y778597D01*
X1027310Y778883D01*
X1027597Y779155D01*
X1027898Y779412D01*
X1028211Y779653D01*
X1028537Y779876D01*
X1028874Y780083D01*
X1029221Y780272D01*
X1029578Y780442D01*
X1029943Y780593D01*
X1030316Y780725D01*
X1030695Y780837D01*
X1031079Y780930D01*
X1031468Y781002D01*
X1031860Y781053D01*
X1032254Y781084D01*
X1032649Y781095D01*
X1033044Y781084D01*
D02*
G37*
G36*
X1012724D02*
X1013118Y781053D01*
X1013510Y781002D01*
X1013899Y780930D01*
X1014283Y780837D01*
X1014662Y780725D01*
X1015035Y780593D01*
X1015400Y780442D01*
X1015757Y780272D01*
X1016104Y780083D01*
X1016441Y779876D01*
X1016767Y779653D01*
X1017081Y779412D01*
X1017381Y779155D01*
X1017668Y778883D01*
X1017940Y778597D01*
X1018197Y778296D01*
X1018437Y777982D01*
X1018661Y777657D01*
X1018868Y777319D01*
X1019056Y776972D01*
X1019226Y776615D01*
X1019378Y776250D01*
X1019510Y775878D01*
X1019622Y775499D01*
X1019714Y775114D01*
X1019786Y774726D01*
X1019838Y774334D01*
X1019869Y773940D01*
X1019879Y773545D01*
X1019869Y773149D01*
X1019838Y772755D01*
X1019786Y772364D01*
X1019714Y771975D01*
X1019622Y771590D01*
X1019510Y771212D01*
X1019378Y770839D01*
X1019226Y770474D01*
X1019056Y770117D01*
X1018868Y769770D01*
X1018661Y769433D01*
X1018437Y769107D01*
X1018197Y768793D01*
X1017940Y768493D01*
X1017668Y768206D01*
X1017381Y767934D01*
X1017081Y767677D01*
X1016767Y767436D01*
X1016441Y767213D01*
X1016104Y767006D01*
X1015757Y766817D01*
X1015400Y766647D01*
X1015035Y766496D01*
X1014662Y766364D01*
X1014283Y766252D01*
X1013899Y766160D01*
X1013510Y766087D01*
X1013118Y766036D01*
X1012724Y766005D01*
X1012329Y765994D01*
X1011934Y766005D01*
X1011540Y766036D01*
X1011148Y766087D01*
X1010759Y766160D01*
X1010375Y766252D01*
X1009996Y766364D01*
X1009623Y766496D01*
X1009258Y766647D01*
X1008902Y766817D01*
X1008554Y767006D01*
X1008217Y767213D01*
X1007891Y767436D01*
X1007578Y767677D01*
X1007277Y767934D01*
X1006990Y768206D01*
X1006718Y768493D01*
X1006461Y768793D01*
X1006221Y769107D01*
X1005997Y769433D01*
X1005790Y769770D01*
X1005602Y770117D01*
X1005432Y770474D01*
X1005280Y770839D01*
X1005149Y771212D01*
X1005036Y771590D01*
X1004944Y771975D01*
X1004872Y772364D01*
X1004820Y772755D01*
X1004790Y773149D01*
X1004779Y773545D01*
X1004790Y773940D01*
X1004820Y774334D01*
X1004872Y774726D01*
X1004944Y775114D01*
X1005036Y775499D01*
X1005149Y775878D01*
X1005280Y776250D01*
X1005432Y776615D01*
X1005602Y776972D01*
X1005790Y777319D01*
X1005997Y777657D01*
X1006221Y777982D01*
X1006461Y778296D01*
X1006718Y778597D01*
X1006990Y778883D01*
X1007277Y779155D01*
X1007578Y779412D01*
X1007891Y779653D01*
X1008217Y779876D01*
X1008554Y780083D01*
X1008902Y780272D01*
X1009258Y780442D01*
X1009623Y780593D01*
X1009996Y780725D01*
X1010375Y780837D01*
X1010759Y780930D01*
X1011148Y781002D01*
X1011540Y781053D01*
X1011934Y781084D01*
X1012329Y781095D01*
X1012724Y781084D01*
D02*
G37*
G36*
X992404D02*
X992798Y781053D01*
X993190Y781002D01*
X993579Y780930D01*
X993963Y780837D01*
X994342Y780725D01*
X994715Y780593D01*
X995080Y780442D01*
X995437Y780272D01*
X995784Y780083D01*
X996121Y779876D01*
X996447Y779653D01*
X996760Y779412D01*
X997061Y779155D01*
X997348Y778883D01*
X997620Y778597D01*
X997877Y778296D01*
X998117Y777982D01*
X998341Y777657D01*
X998548Y777319D01*
X998736Y776972D01*
X998906Y776615D01*
X999058Y776250D01*
X999190Y775878D01*
X999302Y775499D01*
X999394Y775114D01*
X999466Y774726D01*
X999518Y774334D01*
X999549Y773940D01*
X999559Y773545D01*
X999549Y773149D01*
X999518Y772755D01*
X999466Y772364D01*
X999394Y771975D01*
X999302Y771590D01*
X999190Y771212D01*
X999058Y770839D01*
X998906Y770474D01*
X998736Y770117D01*
X998548Y769770D01*
X998341Y769433D01*
X998117Y769107D01*
X997877Y768793D01*
X997620Y768493D01*
X997348Y768206D01*
X997061Y767934D01*
X996760Y767677D01*
X996447Y767436D01*
X996121Y767213D01*
X995784Y767006D01*
X995437Y766817D01*
X995080Y766647D01*
X994715Y766496D01*
X994342Y766364D01*
X993963Y766252D01*
X993579Y766160D01*
X993190Y766087D01*
X992798Y766036D01*
X992404Y766005D01*
X992009Y765994D01*
X991614Y766005D01*
X991220Y766036D01*
X990828Y766087D01*
X990439Y766160D01*
X990055Y766252D01*
X989676Y766364D01*
X989303Y766496D01*
X988938Y766647D01*
X988581Y766817D01*
X988234Y767006D01*
X987897Y767213D01*
X987571Y767436D01*
X987258Y767677D01*
X986957Y767934D01*
X986670Y768206D01*
X986398Y768493D01*
X986142Y768793D01*
X985901Y769107D01*
X985677Y769433D01*
X985471Y769770D01*
X985282Y770117D01*
X985112Y770474D01*
X984960Y770839D01*
X984829Y771212D01*
X984716Y771590D01*
X984624Y771975D01*
X984552Y772364D01*
X984500Y772755D01*
X984470Y773149D01*
X984459Y773545D01*
X984470Y773940D01*
X984500Y774334D01*
X984552Y774726D01*
X984624Y775114D01*
X984716Y775499D01*
X984829Y775878D01*
X984960Y776250D01*
X985112Y776615D01*
X985282Y776972D01*
X985471Y777319D01*
X985677Y777657D01*
X985901Y777982D01*
X986142Y778296D01*
X986398Y778597D01*
X986670Y778883D01*
X986957Y779155D01*
X987258Y779412D01*
X987571Y779653D01*
X987897Y779876D01*
X988234Y780083D01*
X988581Y780272D01*
X988938Y780442D01*
X989303Y780593D01*
X989676Y780725D01*
X990055Y780837D01*
X990439Y780930D01*
X990828Y781002D01*
X991220Y781053D01*
X991614Y781084D01*
X992009Y781095D01*
X992404Y781084D01*
D02*
G37*
G36*
X1073544Y760764D02*
X1073938Y760733D01*
X1074330Y760682D01*
X1074719Y760610D01*
X1075103Y760517D01*
X1075482Y760405D01*
X1075855Y760273D01*
X1076220Y760122D01*
X1076577Y759952D01*
X1076924Y759763D01*
X1077261Y759557D01*
X1077587Y759333D01*
X1077900Y759092D01*
X1078201Y758835D01*
X1078488Y758563D01*
X1078760Y758277D01*
X1079016Y757976D01*
X1079257Y757662D01*
X1079481Y757337D01*
X1079688Y757000D01*
X1079876Y756652D01*
X1080046Y756295D01*
X1080198Y755930D01*
X1080329Y755557D01*
X1080442Y755179D01*
X1080534Y754794D01*
X1080606Y754406D01*
X1080658Y754014D01*
X1080688Y753620D01*
X1080699Y753225D01*
X1080688Y752829D01*
X1080658Y752435D01*
X1080606Y752044D01*
X1080534Y751655D01*
X1080442Y751271D01*
X1080329Y750892D01*
X1080198Y750519D01*
X1080046Y750154D01*
X1079876Y749797D01*
X1079688Y749450D01*
X1079481Y749112D01*
X1079257Y748787D01*
X1079016Y748473D01*
X1078760Y748173D01*
X1078488Y747886D01*
X1078201Y747614D01*
X1077900Y747357D01*
X1077587Y747116D01*
X1077261Y746893D01*
X1076924Y746686D01*
X1076577Y746497D01*
X1076220Y746327D01*
X1075855Y746176D01*
X1075482Y746044D01*
X1075103Y745932D01*
X1074719Y745839D01*
X1074330Y745767D01*
X1073938Y745716D01*
X1073544Y745685D01*
X1073149Y745674D01*
X1072754Y745685D01*
X1072360Y745716D01*
X1071968Y745767D01*
X1071579Y745839D01*
X1071195Y745932D01*
X1070816Y746044D01*
X1070443Y746176D01*
X1070078Y746327D01*
X1069721Y746497D01*
X1069374Y746686D01*
X1069037Y746893D01*
X1068711Y747116D01*
X1068397Y747357D01*
X1068097Y747614D01*
X1067810Y747886D01*
X1067538Y748173D01*
X1067281Y748473D01*
X1067041Y748787D01*
X1066817Y749112D01*
X1066610Y749450D01*
X1066422Y749797D01*
X1066252Y750154D01*
X1066100Y750519D01*
X1065968Y750892D01*
X1065856Y751271D01*
X1065764Y751655D01*
X1065692Y752044D01*
X1065640Y752435D01*
X1065609Y752829D01*
X1065599Y753225D01*
X1065609Y753620D01*
X1065640Y754014D01*
X1065692Y754406D01*
X1065764Y754794D01*
X1065856Y755179D01*
X1065968Y755557D01*
X1066100Y755930D01*
X1066252Y756295D01*
X1066422Y756652D01*
X1066610Y757000D01*
X1066817Y757337D01*
X1067041Y757662D01*
X1067281Y757976D01*
X1067538Y758277D01*
X1067810Y758563D01*
X1068097Y758835D01*
X1068397Y759092D01*
X1068711Y759333D01*
X1069037Y759557D01*
X1069374Y759763D01*
X1069721Y759952D01*
X1070078Y760122D01*
X1070443Y760273D01*
X1070816Y760405D01*
X1071195Y760517D01*
X1071579Y760610D01*
X1071968Y760682D01*
X1072360Y760733D01*
X1072754Y760764D01*
X1073149Y760775D01*
X1073544Y760764D01*
D02*
G37*
G36*
X1053294D02*
X1053688Y760733D01*
X1054080Y760682D01*
X1054469Y760610D01*
X1054853Y760517D01*
X1055232Y760405D01*
X1055605Y760273D01*
X1055970Y760122D01*
X1056327Y759952D01*
X1056674Y759763D01*
X1057011Y759557D01*
X1057337Y759333D01*
X1057650Y759092D01*
X1057951Y758835D01*
X1058238Y758563D01*
X1058510Y758277D01*
X1058766Y757976D01*
X1059007Y757662D01*
X1059231Y757337D01*
X1059438Y757000D01*
X1059626Y756652D01*
X1059796Y756295D01*
X1059948Y755930D01*
X1060079Y755557D01*
X1060192Y755179D01*
X1060284Y754794D01*
X1060356Y754406D01*
X1060408Y754014D01*
X1060439Y753620D01*
X1060449Y753225D01*
X1060439Y752829D01*
X1060408Y752435D01*
X1060356Y752044D01*
X1060284Y751655D01*
X1060192Y751271D01*
X1060079Y750892D01*
X1059948Y750519D01*
X1059796Y750154D01*
X1059626Y749797D01*
X1059438Y749450D01*
X1059231Y749112D01*
X1059007Y748787D01*
X1058766Y748473D01*
X1058510Y748173D01*
X1058238Y747886D01*
X1057951Y747614D01*
X1057650Y747357D01*
X1057337Y747116D01*
X1057011Y746893D01*
X1056674Y746686D01*
X1056327Y746497D01*
X1055970Y746327D01*
X1055605Y746176D01*
X1055232Y746044D01*
X1054853Y745932D01*
X1054469Y745839D01*
X1054080Y745767D01*
X1053688Y745716D01*
X1053294Y745685D01*
X1052899Y745674D01*
X1052504Y745685D01*
X1052110Y745716D01*
X1051718Y745767D01*
X1051329Y745839D01*
X1050945Y745932D01*
X1050566Y746044D01*
X1050193Y746176D01*
X1049828Y746327D01*
X1049471Y746497D01*
X1049124Y746686D01*
X1048787Y746893D01*
X1048461Y747116D01*
X1048148Y747357D01*
X1047847Y747614D01*
X1047560Y747886D01*
X1047288Y748173D01*
X1047031Y748473D01*
X1046791Y748787D01*
X1046567Y749112D01*
X1046360Y749450D01*
X1046172Y749797D01*
X1046002Y750154D01*
X1045850Y750519D01*
X1045719Y750892D01*
X1045606Y751271D01*
X1045514Y751655D01*
X1045442Y752044D01*
X1045390Y752435D01*
X1045359Y752829D01*
X1045349Y753225D01*
X1045359Y753620D01*
X1045390Y754014D01*
X1045442Y754406D01*
X1045514Y754794D01*
X1045606Y755179D01*
X1045719Y755557D01*
X1045850Y755930D01*
X1046002Y756295D01*
X1046172Y756652D01*
X1046360Y757000D01*
X1046567Y757337D01*
X1046791Y757662D01*
X1047031Y757976D01*
X1047288Y758277D01*
X1047560Y758563D01*
X1047847Y758835D01*
X1048148Y759092D01*
X1048461Y759333D01*
X1048787Y759557D01*
X1049124Y759763D01*
X1049471Y759952D01*
X1049828Y760122D01*
X1050193Y760273D01*
X1050566Y760405D01*
X1050945Y760517D01*
X1051329Y760610D01*
X1051718Y760682D01*
X1052110Y760733D01*
X1052504Y760764D01*
X1052899Y760775D01*
X1053294Y760764D01*
D02*
G37*
G36*
X1032974D02*
X1033368Y760733D01*
X1033760Y760682D01*
X1034149Y760610D01*
X1034533Y760517D01*
X1034912Y760405D01*
X1035285Y760273D01*
X1035650Y760122D01*
X1036007Y759952D01*
X1036354Y759763D01*
X1036691Y759557D01*
X1037017Y759333D01*
X1037330Y759092D01*
X1037631Y758835D01*
X1037918Y758563D01*
X1038190Y758277D01*
X1038447Y757976D01*
X1038687Y757662D01*
X1038911Y757337D01*
X1039118Y757000D01*
X1039306Y756652D01*
X1039476Y756295D01*
X1039628Y755930D01*
X1039759Y755557D01*
X1039872Y755179D01*
X1039964Y754794D01*
X1040036Y754406D01*
X1040088Y754014D01*
X1040119Y753620D01*
X1040129Y753225D01*
X1040119Y752829D01*
X1040088Y752435D01*
X1040036Y752044D01*
X1039964Y751655D01*
X1039872Y751271D01*
X1039759Y750892D01*
X1039628Y750519D01*
X1039476Y750154D01*
X1039306Y749797D01*
X1039118Y749450D01*
X1038911Y749112D01*
X1038687Y748787D01*
X1038447Y748473D01*
X1038190Y748173D01*
X1037918Y747886D01*
X1037631Y747614D01*
X1037330Y747357D01*
X1037017Y747116D01*
X1036691Y746893D01*
X1036354Y746686D01*
X1036007Y746497D01*
X1035650Y746327D01*
X1035285Y746176D01*
X1034912Y746044D01*
X1034533Y745932D01*
X1034149Y745839D01*
X1033760Y745767D01*
X1033368Y745716D01*
X1032974Y745685D01*
X1032579Y745674D01*
X1032184Y745685D01*
X1031790Y745716D01*
X1031398Y745767D01*
X1031009Y745839D01*
X1030625Y745932D01*
X1030246Y746044D01*
X1029873Y746176D01*
X1029508Y746327D01*
X1029151Y746497D01*
X1028804Y746686D01*
X1028467Y746893D01*
X1028141Y747116D01*
X1027828Y747357D01*
X1027527Y747614D01*
X1027240Y747886D01*
X1026968Y748173D01*
X1026711Y748473D01*
X1026471Y748787D01*
X1026247Y749112D01*
X1026040Y749450D01*
X1025852Y749797D01*
X1025682Y750154D01*
X1025530Y750519D01*
X1025398Y750892D01*
X1025286Y751271D01*
X1025194Y751655D01*
X1025122Y752044D01*
X1025070Y752435D01*
X1025039Y752829D01*
X1025029Y753225D01*
X1025039Y753620D01*
X1025070Y754014D01*
X1025122Y754406D01*
X1025194Y754794D01*
X1025286Y755179D01*
X1025398Y755557D01*
X1025530Y755930D01*
X1025682Y756295D01*
X1025852Y756652D01*
X1026040Y757000D01*
X1026247Y757337D01*
X1026471Y757662D01*
X1026711Y757976D01*
X1026968Y758277D01*
X1027240Y758563D01*
X1027527Y758835D01*
X1027828Y759092D01*
X1028141Y759333D01*
X1028467Y759557D01*
X1028804Y759763D01*
X1029151Y759952D01*
X1029508Y760122D01*
X1029873Y760273D01*
X1030246Y760405D01*
X1030625Y760517D01*
X1031009Y760610D01*
X1031398Y760682D01*
X1031790Y760733D01*
X1032184Y760764D01*
X1032579Y760775D01*
X1032974Y760764D01*
D02*
G37*
G36*
X1012654D02*
X1013048Y760733D01*
X1013440Y760682D01*
X1013829Y760610D01*
X1014213Y760517D01*
X1014592Y760405D01*
X1014965Y760273D01*
X1015330Y760122D01*
X1015687Y759952D01*
X1016034Y759763D01*
X1016371Y759557D01*
X1016697Y759333D01*
X1017010Y759092D01*
X1017311Y758835D01*
X1017598Y758563D01*
X1017870Y758277D01*
X1018127Y757976D01*
X1018367Y757662D01*
X1018591Y757337D01*
X1018798Y757000D01*
X1018986Y756652D01*
X1019156Y756295D01*
X1019308Y755930D01*
X1019439Y755557D01*
X1019552Y755179D01*
X1019644Y754794D01*
X1019716Y754406D01*
X1019768Y754014D01*
X1019799Y753620D01*
X1019809Y753225D01*
X1019799Y752829D01*
X1019768Y752435D01*
X1019716Y752044D01*
X1019644Y751655D01*
X1019552Y751271D01*
X1019439Y750892D01*
X1019308Y750519D01*
X1019156Y750154D01*
X1018986Y749797D01*
X1018798Y749450D01*
X1018591Y749112D01*
X1018367Y748787D01*
X1018127Y748473D01*
X1017870Y748173D01*
X1017598Y747886D01*
X1017311Y747614D01*
X1017010Y747357D01*
X1016697Y747116D01*
X1016371Y746893D01*
X1016034Y746686D01*
X1015687Y746497D01*
X1015330Y746327D01*
X1014965Y746176D01*
X1014592Y746044D01*
X1014213Y745932D01*
X1013829Y745839D01*
X1013440Y745767D01*
X1013048Y745716D01*
X1012654Y745685D01*
X1012259Y745674D01*
X1011864Y745685D01*
X1011470Y745716D01*
X1011078Y745767D01*
X1010689Y745839D01*
X1010305Y745932D01*
X1009926Y746044D01*
X1009553Y746176D01*
X1009188Y746327D01*
X1008831Y746497D01*
X1008484Y746686D01*
X1008147Y746893D01*
X1007821Y747116D01*
X1007507Y747357D01*
X1007207Y747614D01*
X1006920Y747886D01*
X1006648Y748173D01*
X1006391Y748473D01*
X1006151Y748787D01*
X1005927Y749112D01*
X1005720Y749450D01*
X1005532Y749797D01*
X1005362Y750154D01*
X1005210Y750519D01*
X1005079Y750892D01*
X1004966Y751271D01*
X1004874Y751655D01*
X1004802Y752044D01*
X1004750Y752435D01*
X1004719Y752829D01*
X1004709Y753225D01*
X1004719Y753620D01*
X1004750Y754014D01*
X1004802Y754406D01*
X1004874Y754794D01*
X1004966Y755179D01*
X1005079Y755557D01*
X1005210Y755930D01*
X1005362Y756295D01*
X1005532Y756652D01*
X1005720Y757000D01*
X1005927Y757337D01*
X1006151Y757662D01*
X1006391Y757976D01*
X1006648Y758277D01*
X1006920Y758563D01*
X1007207Y758835D01*
X1007507Y759092D01*
X1007821Y759333D01*
X1008147Y759557D01*
X1008484Y759763D01*
X1008831Y759952D01*
X1009188Y760122D01*
X1009553Y760273D01*
X1009926Y760405D01*
X1010305Y760517D01*
X1010689Y760610D01*
X1011078Y760682D01*
X1011470Y760733D01*
X1011864Y760764D01*
X1012259Y760775D01*
X1012654Y760764D01*
D02*
G37*
G36*
X992334D02*
X992728Y760733D01*
X993120Y760682D01*
X993509Y760610D01*
X993893Y760517D01*
X994272Y760405D01*
X994645Y760273D01*
X995010Y760122D01*
X995367Y759952D01*
X995714Y759763D01*
X996051Y759557D01*
X996377Y759333D01*
X996690Y759092D01*
X996991Y758835D01*
X997278Y758563D01*
X997550Y758277D01*
X997806Y757976D01*
X998047Y757662D01*
X998271Y757337D01*
X998478Y757000D01*
X998666Y756652D01*
X998836Y756295D01*
X998988Y755930D01*
X999119Y755557D01*
X999232Y755179D01*
X999324Y754794D01*
X999396Y754406D01*
X999448Y754014D01*
X999479Y753620D01*
X999489Y753225D01*
X999479Y752829D01*
X999448Y752435D01*
X999396Y752044D01*
X999324Y751655D01*
X999232Y751271D01*
X999119Y750892D01*
X998988Y750519D01*
X998836Y750154D01*
X998666Y749797D01*
X998478Y749450D01*
X998271Y749112D01*
X998047Y748787D01*
X997806Y748473D01*
X997550Y748173D01*
X997278Y747886D01*
X996991Y747614D01*
X996690Y747357D01*
X996377Y747116D01*
X996051Y746893D01*
X995714Y746686D01*
X995367Y746497D01*
X995010Y746327D01*
X994645Y746176D01*
X994272Y746044D01*
X993893Y745932D01*
X993509Y745839D01*
X993120Y745767D01*
X992728Y745716D01*
X992334Y745685D01*
X991939Y745674D01*
X991544Y745685D01*
X991150Y745716D01*
X990758Y745767D01*
X990369Y745839D01*
X989985Y745932D01*
X989606Y746044D01*
X989233Y746176D01*
X988868Y746327D01*
X988511Y746497D01*
X988164Y746686D01*
X987827Y746893D01*
X987501Y747116D01*
X987188Y747357D01*
X986887Y747614D01*
X986600Y747886D01*
X986328Y748173D01*
X986071Y748473D01*
X985831Y748787D01*
X985607Y749112D01*
X985400Y749450D01*
X985212Y749797D01*
X985042Y750154D01*
X984890Y750519D01*
X984759Y750892D01*
X984646Y751271D01*
X984554Y751655D01*
X984482Y752044D01*
X984430Y752435D01*
X984399Y752829D01*
X984389Y753225D01*
X984399Y753620D01*
X984430Y754014D01*
X984482Y754406D01*
X984554Y754794D01*
X984646Y755179D01*
X984759Y755557D01*
X984890Y755930D01*
X985042Y756295D01*
X985212Y756652D01*
X985400Y757000D01*
X985607Y757337D01*
X985831Y757662D01*
X986071Y757976D01*
X986328Y758277D01*
X986600Y758563D01*
X986887Y758835D01*
X987188Y759092D01*
X987501Y759333D01*
X987827Y759557D01*
X988164Y759763D01*
X988511Y759952D01*
X988868Y760122D01*
X989233Y760273D01*
X989606Y760405D01*
X989985Y760517D01*
X990369Y760610D01*
X990758Y760682D01*
X991150Y760733D01*
X991544Y760764D01*
X991939Y760775D01*
X992334Y760764D01*
D02*
G37*
G36*
X1175214Y781084D02*
X1175608Y781053D01*
X1176000Y781002D01*
X1176389Y780930D01*
X1176773Y780837D01*
X1177152Y780725D01*
X1177525Y780593D01*
X1177890Y780442D01*
X1178247Y780272D01*
X1178594Y780083D01*
X1178931Y779876D01*
X1179257Y779653D01*
X1179570Y779412D01*
X1179871Y779155D01*
X1180158Y778883D01*
X1180430Y778597D01*
X1180686Y778296D01*
X1180927Y777982D01*
X1181151Y777657D01*
X1181358Y777319D01*
X1181546Y776972D01*
X1181716Y776615D01*
X1181868Y776250D01*
X1181999Y775878D01*
X1182112Y775499D01*
X1182204Y775114D01*
X1182276Y774726D01*
X1182328Y774334D01*
X1182359Y773940D01*
X1182369Y773545D01*
X1182359Y773149D01*
X1182328Y772755D01*
X1182276Y772364D01*
X1182204Y771975D01*
X1182112Y771590D01*
X1181999Y771212D01*
X1181868Y770839D01*
X1181716Y770474D01*
X1181546Y770117D01*
X1181358Y769770D01*
X1181151Y769433D01*
X1180927Y769107D01*
X1180686Y768793D01*
X1180430Y768493D01*
X1180158Y768206D01*
X1179871Y767934D01*
X1179570Y767677D01*
X1179257Y767436D01*
X1178931Y767213D01*
X1178594Y767006D01*
X1178247Y766817D01*
X1177890Y766647D01*
X1177525Y766496D01*
X1177152Y766364D01*
X1176773Y766252D01*
X1176389Y766160D01*
X1176000Y766087D01*
X1175608Y766036D01*
X1175214Y766005D01*
X1174819Y765994D01*
X1174424Y766005D01*
X1174030Y766036D01*
X1173638Y766087D01*
X1173249Y766160D01*
X1172865Y766252D01*
X1172486Y766364D01*
X1172113Y766496D01*
X1171748Y766647D01*
X1171391Y766817D01*
X1171044Y767006D01*
X1170707Y767213D01*
X1170381Y767436D01*
X1170068Y767677D01*
X1169767Y767934D01*
X1169480Y768206D01*
X1169208Y768493D01*
X1168951Y768793D01*
X1168711Y769107D01*
X1168487Y769433D01*
X1168280Y769770D01*
X1168092Y770117D01*
X1167922Y770474D01*
X1167770Y770839D01*
X1167638Y771212D01*
X1167526Y771590D01*
X1167434Y771975D01*
X1167362Y772364D01*
X1167310Y772755D01*
X1167279Y773149D01*
X1167269Y773545D01*
X1167279Y773940D01*
X1167310Y774334D01*
X1167362Y774726D01*
X1167434Y775114D01*
X1167526Y775499D01*
X1167638Y775878D01*
X1167770Y776250D01*
X1167922Y776615D01*
X1168092Y776972D01*
X1168280Y777319D01*
X1168487Y777657D01*
X1168711Y777982D01*
X1168951Y778296D01*
X1169208Y778597D01*
X1169480Y778883D01*
X1169767Y779155D01*
X1170068Y779412D01*
X1170381Y779653D01*
X1170707Y779876D01*
X1171044Y780083D01*
X1171391Y780272D01*
X1171748Y780442D01*
X1172113Y780593D01*
X1172486Y780725D01*
X1172865Y780837D01*
X1173249Y780930D01*
X1173638Y781002D01*
X1174030Y781053D01*
X1174424Y781084D01*
X1174819Y781095D01*
X1175214Y781084D01*
D02*
G37*
G36*
X1154964D02*
X1155358Y781053D01*
X1155750Y781002D01*
X1156139Y780930D01*
X1156523Y780837D01*
X1156902Y780725D01*
X1157275Y780593D01*
X1157640Y780442D01*
X1157997Y780272D01*
X1158344Y780083D01*
X1158681Y779876D01*
X1159007Y779653D01*
X1159321Y779412D01*
X1159621Y779155D01*
X1159908Y778883D01*
X1160180Y778597D01*
X1160437Y778296D01*
X1160677Y777982D01*
X1160901Y777657D01*
X1161108Y777319D01*
X1161296Y776972D01*
X1161466Y776615D01*
X1161618Y776250D01*
X1161749Y775878D01*
X1161862Y775499D01*
X1161954Y775114D01*
X1162026Y774726D01*
X1162078Y774334D01*
X1162109Y773940D01*
X1162119Y773545D01*
X1162109Y773149D01*
X1162078Y772755D01*
X1162026Y772364D01*
X1161954Y771975D01*
X1161862Y771590D01*
X1161749Y771212D01*
X1161618Y770839D01*
X1161466Y770474D01*
X1161296Y770117D01*
X1161108Y769770D01*
X1160901Y769433D01*
X1160677Y769107D01*
X1160437Y768793D01*
X1160180Y768493D01*
X1159908Y768206D01*
X1159621Y767934D01*
X1159321Y767677D01*
X1159007Y767436D01*
X1158681Y767213D01*
X1158344Y767006D01*
X1157997Y766817D01*
X1157640Y766647D01*
X1157275Y766496D01*
X1156902Y766364D01*
X1156523Y766252D01*
X1156139Y766160D01*
X1155750Y766087D01*
X1155358Y766036D01*
X1154964Y766005D01*
X1154569Y765994D01*
X1154174Y766005D01*
X1153780Y766036D01*
X1153388Y766087D01*
X1152999Y766160D01*
X1152615Y766252D01*
X1152236Y766364D01*
X1151863Y766496D01*
X1151498Y766647D01*
X1151142Y766817D01*
X1150794Y767006D01*
X1150457Y767213D01*
X1150131Y767436D01*
X1149818Y767677D01*
X1149517Y767934D01*
X1149230Y768206D01*
X1148958Y768493D01*
X1148701Y768793D01*
X1148461Y769107D01*
X1148237Y769433D01*
X1148030Y769770D01*
X1147842Y770117D01*
X1147672Y770474D01*
X1147520Y770839D01*
X1147389Y771212D01*
X1147276Y771590D01*
X1147184Y771975D01*
X1147112Y772364D01*
X1147060Y772755D01*
X1147029Y773149D01*
X1147019Y773545D01*
X1147029Y773940D01*
X1147060Y774334D01*
X1147112Y774726D01*
X1147184Y775114D01*
X1147276Y775499D01*
X1147389Y775878D01*
X1147520Y776250D01*
X1147672Y776615D01*
X1147842Y776972D01*
X1148030Y777319D01*
X1148237Y777657D01*
X1148461Y777982D01*
X1148701Y778296D01*
X1148958Y778597D01*
X1149230Y778883D01*
X1149517Y779155D01*
X1149818Y779412D01*
X1150131Y779653D01*
X1150457Y779876D01*
X1150794Y780083D01*
X1151142Y780272D01*
X1151498Y780442D01*
X1151863Y780593D01*
X1152236Y780725D01*
X1152615Y780837D01*
X1152999Y780930D01*
X1153388Y781002D01*
X1153780Y781053D01*
X1154174Y781084D01*
X1154569Y781095D01*
X1154964Y781084D01*
D02*
G37*
G36*
X1134644D02*
X1135038Y781053D01*
X1135430Y781002D01*
X1135819Y780930D01*
X1136203Y780837D01*
X1136582Y780725D01*
X1136955Y780593D01*
X1137320Y780442D01*
X1137677Y780272D01*
X1138024Y780083D01*
X1138361Y779876D01*
X1138687Y779653D01*
X1139000Y779412D01*
X1139301Y779155D01*
X1139588Y778883D01*
X1139860Y778597D01*
X1140117Y778296D01*
X1140357Y777982D01*
X1140581Y777657D01*
X1140788Y777319D01*
X1140976Y776972D01*
X1141146Y776615D01*
X1141298Y776250D01*
X1141430Y775878D01*
X1141542Y775499D01*
X1141634Y775114D01*
X1141706Y774726D01*
X1141758Y774334D01*
X1141789Y773940D01*
X1141799Y773545D01*
X1141789Y773149D01*
X1141758Y772755D01*
X1141706Y772364D01*
X1141634Y771975D01*
X1141542Y771590D01*
X1141430Y771212D01*
X1141298Y770839D01*
X1141146Y770474D01*
X1140976Y770117D01*
X1140788Y769770D01*
X1140581Y769433D01*
X1140357Y769107D01*
X1140117Y768793D01*
X1139860Y768493D01*
X1139588Y768206D01*
X1139301Y767934D01*
X1139000Y767677D01*
X1138687Y767436D01*
X1138361Y767213D01*
X1138024Y767006D01*
X1137677Y766817D01*
X1137320Y766647D01*
X1136955Y766496D01*
X1136582Y766364D01*
X1136203Y766252D01*
X1135819Y766160D01*
X1135430Y766087D01*
X1135038Y766036D01*
X1134644Y766005D01*
X1134249Y765994D01*
X1133854Y766005D01*
X1133460Y766036D01*
X1133068Y766087D01*
X1132679Y766160D01*
X1132295Y766252D01*
X1131916Y766364D01*
X1131543Y766496D01*
X1131178Y766647D01*
X1130822Y766817D01*
X1130474Y767006D01*
X1130137Y767213D01*
X1129811Y767436D01*
X1129498Y767677D01*
X1129197Y767934D01*
X1128910Y768206D01*
X1128638Y768493D01*
X1128382Y768793D01*
X1128141Y769107D01*
X1127917Y769433D01*
X1127710Y769770D01*
X1127522Y770117D01*
X1127352Y770474D01*
X1127200Y770839D01*
X1127069Y771212D01*
X1126956Y771590D01*
X1126864Y771975D01*
X1126792Y772364D01*
X1126740Y772755D01*
X1126710Y773149D01*
X1126699Y773545D01*
X1126710Y773940D01*
X1126740Y774334D01*
X1126792Y774726D01*
X1126864Y775114D01*
X1126956Y775499D01*
X1127069Y775878D01*
X1127200Y776250D01*
X1127352Y776615D01*
X1127522Y776972D01*
X1127710Y777319D01*
X1127917Y777657D01*
X1128141Y777982D01*
X1128382Y778296D01*
X1128638Y778597D01*
X1128910Y778883D01*
X1129197Y779155D01*
X1129498Y779412D01*
X1129811Y779653D01*
X1130137Y779876D01*
X1130474Y780083D01*
X1130822Y780272D01*
X1131178Y780442D01*
X1131543Y780593D01*
X1131916Y780725D01*
X1132295Y780837D01*
X1132679Y780930D01*
X1133068Y781002D01*
X1133460Y781053D01*
X1133854Y781084D01*
X1134249Y781095D01*
X1134644Y781084D01*
D02*
G37*
G36*
X1114324D02*
X1114718Y781053D01*
X1115110Y781002D01*
X1115499Y780930D01*
X1115883Y780837D01*
X1116262Y780725D01*
X1116635Y780593D01*
X1117000Y780442D01*
X1117357Y780272D01*
X1117704Y780083D01*
X1118041Y779876D01*
X1118367Y779653D01*
X1118680Y779412D01*
X1118981Y779155D01*
X1119268Y778883D01*
X1119540Y778597D01*
X1119797Y778296D01*
X1120037Y777982D01*
X1120261Y777657D01*
X1120468Y777319D01*
X1120656Y776972D01*
X1120826Y776615D01*
X1120978Y776250D01*
X1121109Y775878D01*
X1121222Y775499D01*
X1121314Y775114D01*
X1121386Y774726D01*
X1121438Y774334D01*
X1121469Y773940D01*
X1121479Y773545D01*
X1121469Y773149D01*
X1121438Y772755D01*
X1121386Y772364D01*
X1121314Y771975D01*
X1121222Y771590D01*
X1121109Y771212D01*
X1120978Y770839D01*
X1120826Y770474D01*
X1120656Y770117D01*
X1120468Y769770D01*
X1120261Y769433D01*
X1120037Y769107D01*
X1119797Y768793D01*
X1119540Y768493D01*
X1119268Y768206D01*
X1118981Y767934D01*
X1118680Y767677D01*
X1118367Y767436D01*
X1118041Y767213D01*
X1117704Y767006D01*
X1117357Y766817D01*
X1117000Y766647D01*
X1116635Y766496D01*
X1116262Y766364D01*
X1115883Y766252D01*
X1115499Y766160D01*
X1115110Y766087D01*
X1114718Y766036D01*
X1114324Y766005D01*
X1113929Y765994D01*
X1113534Y766005D01*
X1113140Y766036D01*
X1112748Y766087D01*
X1112359Y766160D01*
X1111975Y766252D01*
X1111596Y766364D01*
X1111223Y766496D01*
X1110858Y766647D01*
X1110501Y766817D01*
X1110154Y767006D01*
X1109817Y767213D01*
X1109491Y767436D01*
X1109178Y767677D01*
X1108877Y767934D01*
X1108590Y768206D01*
X1108318Y768493D01*
X1108062Y768793D01*
X1107821Y769107D01*
X1107597Y769433D01*
X1107391Y769770D01*
X1107202Y770117D01*
X1107032Y770474D01*
X1106880Y770839D01*
X1106749Y771212D01*
X1106636Y771590D01*
X1106544Y771975D01*
X1106472Y772364D01*
X1106420Y772755D01*
X1106389Y773149D01*
X1106379Y773545D01*
X1106389Y773940D01*
X1106420Y774334D01*
X1106472Y774726D01*
X1106544Y775114D01*
X1106636Y775499D01*
X1106749Y775878D01*
X1106880Y776250D01*
X1107032Y776615D01*
X1107202Y776972D01*
X1107391Y777319D01*
X1107597Y777657D01*
X1107821Y777982D01*
X1108062Y778296D01*
X1108318Y778597D01*
X1108590Y778883D01*
X1108877Y779155D01*
X1109178Y779412D01*
X1109491Y779653D01*
X1109817Y779876D01*
X1110154Y780083D01*
X1110501Y780272D01*
X1110858Y780442D01*
X1111223Y780593D01*
X1111596Y780725D01*
X1111975Y780837D01*
X1112359Y780930D01*
X1112748Y781002D01*
X1113140Y781053D01*
X1113534Y781084D01*
X1113929Y781095D01*
X1114324Y781084D01*
D02*
G37*
G36*
X1094004D02*
X1094398Y781053D01*
X1094790Y781002D01*
X1095179Y780930D01*
X1095563Y780837D01*
X1095942Y780725D01*
X1096315Y780593D01*
X1096680Y780442D01*
X1097037Y780272D01*
X1097384Y780083D01*
X1097721Y779876D01*
X1098047Y779653D01*
X1098361Y779412D01*
X1098661Y779155D01*
X1098948Y778883D01*
X1099220Y778597D01*
X1099477Y778296D01*
X1099717Y777982D01*
X1099941Y777657D01*
X1100148Y777319D01*
X1100336Y776972D01*
X1100506Y776615D01*
X1100658Y776250D01*
X1100789Y775878D01*
X1100902Y775499D01*
X1100994Y775114D01*
X1101066Y774726D01*
X1101118Y774334D01*
X1101149Y773940D01*
X1101159Y773545D01*
X1101149Y773149D01*
X1101118Y772755D01*
X1101066Y772364D01*
X1100994Y771975D01*
X1100902Y771590D01*
X1100789Y771212D01*
X1100658Y770839D01*
X1100506Y770474D01*
X1100336Y770117D01*
X1100148Y769770D01*
X1099941Y769433D01*
X1099717Y769107D01*
X1099477Y768793D01*
X1099220Y768493D01*
X1098948Y768206D01*
X1098661Y767934D01*
X1098361Y767677D01*
X1098047Y767436D01*
X1097721Y767213D01*
X1097384Y767006D01*
X1097037Y766817D01*
X1096680Y766647D01*
X1096315Y766496D01*
X1095942Y766364D01*
X1095563Y766252D01*
X1095179Y766160D01*
X1094790Y766087D01*
X1094398Y766036D01*
X1094004Y766005D01*
X1093609Y765994D01*
X1093214Y766005D01*
X1092820Y766036D01*
X1092428Y766087D01*
X1092039Y766160D01*
X1091655Y766252D01*
X1091276Y766364D01*
X1090903Y766496D01*
X1090538Y766647D01*
X1090182Y766817D01*
X1089834Y767006D01*
X1089497Y767213D01*
X1089171Y767436D01*
X1088858Y767677D01*
X1088557Y767934D01*
X1088270Y768206D01*
X1087998Y768493D01*
X1087741Y768793D01*
X1087501Y769107D01*
X1087277Y769433D01*
X1087070Y769770D01*
X1086882Y770117D01*
X1086712Y770474D01*
X1086560Y770839D01*
X1086429Y771212D01*
X1086316Y771590D01*
X1086224Y771975D01*
X1086152Y772364D01*
X1086100Y772755D01*
X1086069Y773149D01*
X1086059Y773545D01*
X1086069Y773940D01*
X1086100Y774334D01*
X1086152Y774726D01*
X1086224Y775114D01*
X1086316Y775499D01*
X1086429Y775878D01*
X1086560Y776250D01*
X1086712Y776615D01*
X1086882Y776972D01*
X1087070Y777319D01*
X1087277Y777657D01*
X1087501Y777982D01*
X1087741Y778296D01*
X1087998Y778597D01*
X1088270Y778883D01*
X1088557Y779155D01*
X1088858Y779412D01*
X1089171Y779653D01*
X1089497Y779876D01*
X1089834Y780083D01*
X1090182Y780272D01*
X1090538Y780442D01*
X1090903Y780593D01*
X1091276Y780725D01*
X1091655Y780837D01*
X1092039Y780930D01*
X1092428Y781002D01*
X1092820Y781053D01*
X1093214Y781084D01*
X1093609Y781095D01*
X1094004Y781084D01*
D02*
G37*
G36*
X1175144Y760764D02*
X1175538Y760733D01*
X1175930Y760682D01*
X1176319Y760609D01*
X1176703Y760517D01*
X1177082Y760405D01*
X1177455Y760273D01*
X1177820Y760122D01*
X1178176Y759951D01*
X1178524Y759763D01*
X1178861Y759557D01*
X1179187Y759333D01*
X1179500Y759092D01*
X1179801Y758835D01*
X1180088Y758563D01*
X1180360Y758276D01*
X1180616Y757976D01*
X1180857Y757662D01*
X1181081Y757337D01*
X1181288Y757000D01*
X1181476Y756652D01*
X1181646Y756295D01*
X1181797Y755930D01*
X1181929Y755557D01*
X1182042Y755179D01*
X1182134Y754794D01*
X1182206Y754406D01*
X1182258Y754014D01*
X1182289Y753620D01*
X1182299Y753225D01*
X1182289Y752829D01*
X1182258Y752435D01*
X1182206Y752044D01*
X1182134Y751655D01*
X1182042Y751271D01*
X1181929Y750892D01*
X1181797Y750519D01*
X1181646Y750154D01*
X1181476Y749797D01*
X1181288Y749450D01*
X1181081Y749112D01*
X1180857Y748787D01*
X1180616Y748473D01*
X1180360Y748173D01*
X1180088Y747886D01*
X1179801Y747614D01*
X1179500Y747357D01*
X1179187Y747117D01*
X1178861Y746893D01*
X1178524Y746686D01*
X1178176Y746498D01*
X1177820Y746327D01*
X1177455Y746176D01*
X1177082Y746044D01*
X1176703Y745932D01*
X1176319Y745840D01*
X1175930Y745768D01*
X1175538Y745716D01*
X1175144Y745685D01*
X1174749Y745675D01*
X1174354Y745685D01*
X1173960Y745716D01*
X1173568Y745768D01*
X1173179Y745840D01*
X1172795Y745932D01*
X1172416Y746044D01*
X1172043Y746176D01*
X1171678Y746327D01*
X1171321Y746498D01*
X1170974Y746686D01*
X1170637Y746893D01*
X1170311Y747117D01*
X1169998Y747357D01*
X1169697Y747614D01*
X1169410Y747886D01*
X1169138Y748173D01*
X1168882Y748473D01*
X1168641Y748787D01*
X1168417Y749112D01*
X1168211Y749450D01*
X1168022Y749797D01*
X1167852Y750154D01*
X1167701Y750519D01*
X1167569Y750892D01*
X1167456Y751271D01*
X1167364Y751655D01*
X1167292Y752044D01*
X1167241Y752435D01*
X1167209Y752829D01*
X1167199Y753225D01*
X1167209Y753620D01*
X1167241Y754014D01*
X1167292Y754406D01*
X1167364Y754794D01*
X1167456Y755179D01*
X1167569Y755557D01*
X1167701Y755930D01*
X1167852Y756295D01*
X1168022Y756652D01*
X1168211Y757000D01*
X1168417Y757337D01*
X1168641Y757662D01*
X1168882Y757976D01*
X1169138Y758276D01*
X1169410Y758563D01*
X1169697Y758835D01*
X1169998Y759092D01*
X1170311Y759333D01*
X1170637Y759557D01*
X1170974Y759763D01*
X1171321Y759951D01*
X1171678Y760122D01*
X1172043Y760273D01*
X1172416Y760405D01*
X1172795Y760517D01*
X1173179Y760609D01*
X1173568Y760682D01*
X1173960Y760733D01*
X1174354Y760764D01*
X1174749Y760774D01*
X1175144Y760764D01*
D02*
G37*
G36*
X1154894Y760764D02*
X1155288Y760733D01*
X1155680Y760682D01*
X1156069Y760610D01*
X1156453Y760517D01*
X1156832Y760405D01*
X1157205Y760273D01*
X1157570Y760122D01*
X1157927Y759952D01*
X1158274Y759763D01*
X1158611Y759557D01*
X1158937Y759333D01*
X1159250Y759092D01*
X1159551Y758835D01*
X1159838Y758563D01*
X1160110Y758277D01*
X1160367Y757976D01*
X1160607Y757662D01*
X1160831Y757337D01*
X1161038Y757000D01*
X1161226Y756652D01*
X1161396Y756295D01*
X1161548Y755930D01*
X1161679Y755557D01*
X1161792Y755179D01*
X1161884Y754794D01*
X1161956Y754406D01*
X1162008Y754014D01*
X1162039Y753620D01*
X1162049Y753225D01*
X1162039Y752829D01*
X1162008Y752435D01*
X1161956Y752044D01*
X1161884Y751655D01*
X1161792Y751271D01*
X1161679Y750892D01*
X1161548Y750519D01*
X1161396Y750154D01*
X1161226Y749797D01*
X1161038Y749450D01*
X1160831Y749112D01*
X1160607Y748787D01*
X1160367Y748473D01*
X1160110Y748173D01*
X1159838Y747886D01*
X1159551Y747614D01*
X1159250Y747357D01*
X1158937Y747116D01*
X1158611Y746893D01*
X1158274Y746686D01*
X1157927Y746497D01*
X1157570Y746327D01*
X1157205Y746176D01*
X1156832Y746044D01*
X1156453Y745932D01*
X1156069Y745839D01*
X1155680Y745767D01*
X1155288Y745716D01*
X1154894Y745685D01*
X1154499Y745674D01*
X1154104Y745685D01*
X1153710Y745716D01*
X1153318Y745767D01*
X1152929Y745839D01*
X1152545Y745932D01*
X1152166Y746044D01*
X1151793Y746176D01*
X1151428Y746327D01*
X1151071Y746497D01*
X1150724Y746686D01*
X1150387Y746893D01*
X1150061Y747116D01*
X1149747Y747357D01*
X1149447Y747614D01*
X1149160Y747886D01*
X1148888Y748173D01*
X1148631Y748473D01*
X1148391Y748787D01*
X1148167Y749112D01*
X1147960Y749450D01*
X1147772Y749797D01*
X1147602Y750154D01*
X1147450Y750519D01*
X1147318Y750892D01*
X1147206Y751271D01*
X1147114Y751655D01*
X1147042Y752044D01*
X1146990Y752435D01*
X1146959Y752829D01*
X1146949Y753225D01*
X1146959Y753620D01*
X1146990Y754014D01*
X1147042Y754406D01*
X1147114Y754794D01*
X1147206Y755179D01*
X1147318Y755557D01*
X1147450Y755930D01*
X1147602Y756295D01*
X1147772Y756652D01*
X1147960Y757000D01*
X1148167Y757337D01*
X1148391Y757662D01*
X1148631Y757976D01*
X1148888Y758277D01*
X1149160Y758563D01*
X1149447Y758835D01*
X1149747Y759092D01*
X1150061Y759333D01*
X1150387Y759557D01*
X1150724Y759763D01*
X1151071Y759952D01*
X1151428Y760122D01*
X1151793Y760273D01*
X1152166Y760405D01*
X1152545Y760517D01*
X1152929Y760610D01*
X1153318Y760682D01*
X1153710Y760733D01*
X1154104Y760764D01*
X1154499Y760775D01*
X1154894Y760764D01*
D02*
G37*
G36*
X1134574D02*
X1134968Y760733D01*
X1135360Y760682D01*
X1135749Y760610D01*
X1136133Y760517D01*
X1136512Y760405D01*
X1136885Y760273D01*
X1137250Y760122D01*
X1137607Y759952D01*
X1137954Y759763D01*
X1138291Y759557D01*
X1138617Y759333D01*
X1138930Y759092D01*
X1139231Y758835D01*
X1139518Y758563D01*
X1139790Y758277D01*
X1140046Y757976D01*
X1140287Y757662D01*
X1140511Y757337D01*
X1140718Y757000D01*
X1140906Y756652D01*
X1141076Y756295D01*
X1141228Y755930D01*
X1141359Y755557D01*
X1141472Y755179D01*
X1141564Y754794D01*
X1141636Y754406D01*
X1141688Y754014D01*
X1141719Y753620D01*
X1141729Y753225D01*
X1141719Y752829D01*
X1141688Y752435D01*
X1141636Y752044D01*
X1141564Y751655D01*
X1141472Y751271D01*
X1141359Y750892D01*
X1141228Y750519D01*
X1141076Y750154D01*
X1140906Y749797D01*
X1140718Y749450D01*
X1140511Y749112D01*
X1140287Y748787D01*
X1140046Y748473D01*
X1139790Y748173D01*
X1139518Y747886D01*
X1139231Y747614D01*
X1138930Y747357D01*
X1138617Y747116D01*
X1138291Y746893D01*
X1137954Y746686D01*
X1137607Y746497D01*
X1137250Y746327D01*
X1136885Y746176D01*
X1136512Y746044D01*
X1136133Y745932D01*
X1135749Y745839D01*
X1135360Y745767D01*
X1134968Y745716D01*
X1134574Y745685D01*
X1134179Y745674D01*
X1133784Y745685D01*
X1133390Y745716D01*
X1132998Y745767D01*
X1132609Y745839D01*
X1132225Y745932D01*
X1131846Y746044D01*
X1131473Y746176D01*
X1131108Y746327D01*
X1130751Y746497D01*
X1130404Y746686D01*
X1130067Y746893D01*
X1129741Y747116D01*
X1129427Y747357D01*
X1129127Y747614D01*
X1128840Y747886D01*
X1128568Y748173D01*
X1128311Y748473D01*
X1128071Y748787D01*
X1127847Y749112D01*
X1127640Y749450D01*
X1127452Y749797D01*
X1127282Y750154D01*
X1127130Y750519D01*
X1126999Y750892D01*
X1126886Y751271D01*
X1126794Y751655D01*
X1126722Y752044D01*
X1126670Y752435D01*
X1126639Y752829D01*
X1126629Y753225D01*
X1126639Y753620D01*
X1126670Y754014D01*
X1126722Y754406D01*
X1126794Y754794D01*
X1126886Y755179D01*
X1126999Y755557D01*
X1127130Y755930D01*
X1127282Y756295D01*
X1127452Y756652D01*
X1127640Y757000D01*
X1127847Y757337D01*
X1128071Y757662D01*
X1128311Y757976D01*
X1128568Y758277D01*
X1128840Y758563D01*
X1129127Y758835D01*
X1129427Y759092D01*
X1129741Y759333D01*
X1130067Y759557D01*
X1130404Y759763D01*
X1130751Y759952D01*
X1131108Y760122D01*
X1131473Y760273D01*
X1131846Y760405D01*
X1132225Y760517D01*
X1132609Y760610D01*
X1132998Y760682D01*
X1133390Y760733D01*
X1133784Y760764D01*
X1134179Y760775D01*
X1134574Y760764D01*
D02*
G37*
G36*
X1114254D02*
X1114648Y760733D01*
X1115040Y760682D01*
X1115429Y760610D01*
X1115813Y760517D01*
X1116192Y760405D01*
X1116565Y760273D01*
X1116930Y760122D01*
X1117287Y759952D01*
X1117634Y759763D01*
X1117971Y759557D01*
X1118297Y759333D01*
X1118610Y759092D01*
X1118911Y758835D01*
X1119198Y758563D01*
X1119470Y758277D01*
X1119726Y757976D01*
X1119967Y757662D01*
X1120191Y757337D01*
X1120398Y757000D01*
X1120586Y756652D01*
X1120756Y756295D01*
X1120908Y755930D01*
X1121039Y755557D01*
X1121152Y755179D01*
X1121244Y754794D01*
X1121316Y754406D01*
X1121368Y754014D01*
X1121399Y753620D01*
X1121409Y753225D01*
X1121399Y752829D01*
X1121368Y752435D01*
X1121316Y752044D01*
X1121244Y751655D01*
X1121152Y751271D01*
X1121039Y750892D01*
X1120908Y750519D01*
X1120756Y750154D01*
X1120586Y749797D01*
X1120398Y749450D01*
X1120191Y749112D01*
X1119967Y748787D01*
X1119726Y748473D01*
X1119470Y748173D01*
X1119198Y747886D01*
X1118911Y747614D01*
X1118610Y747357D01*
X1118297Y747116D01*
X1117971Y746893D01*
X1117634Y746686D01*
X1117287Y746497D01*
X1116930Y746327D01*
X1116565Y746176D01*
X1116192Y746044D01*
X1115813Y745932D01*
X1115429Y745839D01*
X1115040Y745767D01*
X1114648Y745716D01*
X1114254Y745685D01*
X1113859Y745674D01*
X1113464Y745685D01*
X1113070Y745716D01*
X1112678Y745767D01*
X1112289Y745839D01*
X1111905Y745932D01*
X1111526Y746044D01*
X1111153Y746176D01*
X1110788Y746327D01*
X1110431Y746497D01*
X1110084Y746686D01*
X1109747Y746893D01*
X1109421Y747116D01*
X1109108Y747357D01*
X1108807Y747614D01*
X1108520Y747886D01*
X1108248Y748173D01*
X1107991Y748473D01*
X1107751Y748787D01*
X1107527Y749112D01*
X1107320Y749450D01*
X1107132Y749797D01*
X1106962Y750154D01*
X1106810Y750519D01*
X1106678Y750892D01*
X1106566Y751271D01*
X1106474Y751655D01*
X1106402Y752044D01*
X1106350Y752435D01*
X1106319Y752829D01*
X1106309Y753225D01*
X1106319Y753620D01*
X1106350Y754014D01*
X1106402Y754406D01*
X1106474Y754794D01*
X1106566Y755179D01*
X1106678Y755557D01*
X1106810Y755930D01*
X1106962Y756295D01*
X1107132Y756652D01*
X1107320Y757000D01*
X1107527Y757337D01*
X1107751Y757662D01*
X1107991Y757976D01*
X1108248Y758277D01*
X1108520Y758563D01*
X1108807Y758835D01*
X1109108Y759092D01*
X1109421Y759333D01*
X1109747Y759557D01*
X1110084Y759763D01*
X1110431Y759952D01*
X1110788Y760122D01*
X1111153Y760273D01*
X1111526Y760405D01*
X1111905Y760517D01*
X1112289Y760610D01*
X1112678Y760682D01*
X1113070Y760733D01*
X1113464Y760764D01*
X1113859Y760775D01*
X1114254Y760764D01*
D02*
G37*
G36*
X1093934D02*
X1094328Y760733D01*
X1094720Y760682D01*
X1095109Y760610D01*
X1095493Y760517D01*
X1095872Y760405D01*
X1096245Y760273D01*
X1096610Y760122D01*
X1096967Y759952D01*
X1097314Y759763D01*
X1097651Y759557D01*
X1097977Y759333D01*
X1098290Y759092D01*
X1098591Y758835D01*
X1098878Y758563D01*
X1099150Y758277D01*
X1099407Y757976D01*
X1099647Y757662D01*
X1099871Y757337D01*
X1100078Y757000D01*
X1100266Y756652D01*
X1100436Y756295D01*
X1100588Y755930D01*
X1100719Y755557D01*
X1100832Y755179D01*
X1100924Y754794D01*
X1100996Y754406D01*
X1101048Y754014D01*
X1101079Y753620D01*
X1101089Y753225D01*
X1101079Y752829D01*
X1101048Y752435D01*
X1100996Y752044D01*
X1100924Y751655D01*
X1100832Y751271D01*
X1100719Y750892D01*
X1100588Y750519D01*
X1100436Y750154D01*
X1100266Y749797D01*
X1100078Y749450D01*
X1099871Y749112D01*
X1099647Y748787D01*
X1099407Y748473D01*
X1099150Y748173D01*
X1098878Y747886D01*
X1098591Y747614D01*
X1098290Y747357D01*
X1097977Y747116D01*
X1097651Y746893D01*
X1097314Y746686D01*
X1096967Y746497D01*
X1096610Y746327D01*
X1096245Y746176D01*
X1095872Y746044D01*
X1095493Y745932D01*
X1095109Y745839D01*
X1094720Y745767D01*
X1094328Y745716D01*
X1093934Y745685D01*
X1093539Y745674D01*
X1093144Y745685D01*
X1092750Y745716D01*
X1092358Y745767D01*
X1091969Y745839D01*
X1091585Y745932D01*
X1091206Y746044D01*
X1090833Y746176D01*
X1090468Y746327D01*
X1090111Y746497D01*
X1089764Y746686D01*
X1089427Y746893D01*
X1089101Y747116D01*
X1088788Y747357D01*
X1088487Y747614D01*
X1088200Y747886D01*
X1087928Y748173D01*
X1087671Y748473D01*
X1087431Y748787D01*
X1087207Y749112D01*
X1087000Y749450D01*
X1086812Y749797D01*
X1086642Y750154D01*
X1086490Y750519D01*
X1086358Y750892D01*
X1086246Y751271D01*
X1086154Y751655D01*
X1086082Y752044D01*
X1086030Y752435D01*
X1085999Y752829D01*
X1085989Y753225D01*
X1085999Y753620D01*
X1086030Y754014D01*
X1086082Y754406D01*
X1086154Y754794D01*
X1086246Y755179D01*
X1086358Y755557D01*
X1086490Y755930D01*
X1086642Y756295D01*
X1086812Y756652D01*
X1087000Y757000D01*
X1087207Y757337D01*
X1087431Y757662D01*
X1087671Y757976D01*
X1087928Y758277D01*
X1088200Y758563D01*
X1088487Y758835D01*
X1088788Y759092D01*
X1089101Y759333D01*
X1089427Y759557D01*
X1089764Y759763D01*
X1090111Y759952D01*
X1090468Y760122D01*
X1090833Y760273D01*
X1091206Y760405D01*
X1091585Y760517D01*
X1091969Y760610D01*
X1092358Y760682D01*
X1092750Y760733D01*
X1093144Y760764D01*
X1093539Y760775D01*
X1093934Y760764D01*
D02*
G37*
M02*
