%FSTAX23Y23*%
%MOIN*%
%SFA1B1*%

%IPPOS*%
%ADD15C,0.005000*%
%ADD101C,0.006665*%
%LNesp32c3phils-1*%
%LPD*%
G54D15*
X0465Y035D02*
X0466Y0352D01*
X0465Y0354*
X0467Y0353*
X0469Y0354*
X0468Y0352*
X0469Y035*
X0467Y0351*
X0465Y035*
X0477Y034D02*
X0478Y0341D01*
X0479*
X0478Y0342*
X0479Y0343*
X0478*
X0477Y0344*
X0476Y0343*
X0475*
X0476Y0342*
X0475Y0341*
X0476*
X0477Y034*
Y036D02*
X0478Y0361D01*
X0479*
X0478Y0362*
X0479Y0363*
X0478*
X0477Y0364*
X0476Y0363*
X0475*
X0476Y0362*
X0475Y0361*
X0476*
X0477Y036*
X0457D02*
X0458Y0361D01*
X0459*
X0458Y0362*
X0459Y0363*
X0458*
X0457Y0364*
X0456Y0363*
X0455*
X0456Y0362*
X0455Y0361*
X0456*
X0457Y036*
Y034D02*
X0458Y0341D01*
X0459*
X0458Y0342*
X0459Y0343*
X0458*
X0457Y0344*
X0456Y0343*
X0455*
X0456Y0342*
X0455Y0341*
X0456*
X0457Y034*
X02645Y03988D02*
Y04028D01*
X02685*
Y03988*
X02645*
Y03761D02*
Y03801D01*
X02685*
Y03761*
X02645*
X03525Y0344D02*
X03505Y0348D01*
X03545*
X03525Y0344*
X0395Y03055D02*
X0393Y03095D01*
X0397*
X0395Y03055*
X04025D02*
X04005Y03095D01*
X04045*
X04025Y03055*
X04105D02*
X04085Y03095D01*
X04125*
X04105Y03055*
X04185D02*
X04165Y03095D01*
X04205*
X04185Y03055*
X04265D02*
X04245Y03095D01*
X04285*
X04265Y03055*
X04345D02*
X04325Y03095D01*
X04365*
X04345Y03055*
X04425Y0306D02*
X04405Y031D01*
X04445*
X04425Y0306*
X04505Y03055D02*
X04485Y03095D01*
X04525*
X04505Y03055*
X04585Y0306D02*
X04565Y031D01*
X04605*
X04585Y0306*
X0472Y03025D02*
X047Y03065D01*
X0474*
X0472Y03025*
X04555Y0392D02*
X04535Y0396D01*
X04575*
X04555Y0392*
X04115D02*
X04095Y0396D01*
X04135*
X04115Y0392*
X04845Y0419D02*
X04825Y0423D01*
X04865*
X04845Y0419*
X0449Y03865D02*
X0447Y03905D01*
X0451*
X0449Y03865*
X04845Y03815D02*
X04825Y03855D01*
X04865*
X04845Y03815*
X04115Y03835D02*
X04095Y03875D01*
X04135*
X04115Y03835*
X0401Y0379D02*
X0399Y0383D01*
X0403*
X0401Y0379*
X04475Y0381D02*
X04455Y0385D01*
X04495*
X04475Y0381*
X04745D02*
X04725Y0385D01*
X04765*
X04745Y0381*
X0401Y03965D02*
X0399Y04005D01*
X0403*
X0401Y03965*
X0399Y0372D02*
X0397Y0376D01*
X0401*
X0399Y0372*
X0402Y03585D02*
X04Y03625D01*
X0404*
X0402Y03585*
X03945Y03605D02*
X03925Y03645D01*
X03965*
X03945Y03605*
X03905Y03715D02*
X03885Y03755D01*
X03925*
X03905Y03715*
X0351Y0377D02*
X0349Y0381D01*
X0353*
X0351Y0377*
X03475Y0375D02*
X03455Y0379D01*
X03495*
X03475Y0375*
X03459Y03725D02*
X03439Y03765D01*
X03479*
X03459Y03725*
X03443D02*
X03423Y03765D01*
X03463*
X03443Y03725*
X0377Y03965D02*
X0375Y04005D01*
X0379*
X0377Y03965*
X0378Y03985D02*
X0376Y04025D01*
X038*
X0378Y03985*
X0375Y03934D02*
X0373Y03974D01*
X0377*
X0375Y03934*
X03805Y03955D02*
X03785Y03995D01*
X03825*
X03805Y03955*
X0376Y03985D02*
X0374Y04025D01*
X0378*
X0376Y03985*
X03735Y04005D02*
X03715Y04045D01*
X03755*
X03735Y04005*
X0267Y03885D02*
X0265Y03925D01*
X0269*
X0267Y03885*
X0266Y0385D02*
X0264Y0389D01*
X0268*
X0266Y0385*
X03355Y03775D02*
X03335Y03815D01*
X03375*
X03355Y03775*
X033Y03665D02*
X0328Y03705D01*
X0332*
X033Y03665*
X03525Y0415D02*
X03505Y0419D01*
X03545*
X03525Y0415*
X03745Y03515D02*
X03725Y03555D01*
X03765*
X03745Y03515*
X0393Y0362D02*
X0391Y0366D01*
X0395*
X0393Y0362*
X03875Y0386D02*
X03855Y039D01*
X03895*
X03875Y0386*
X0388Y0388D02*
X0386Y0392D01*
X039*
X0388Y0388*
X0383Y03785D02*
X0381Y03825D01*
X0385*
X0383Y03785*
X0294Y036D02*
X0292Y0364D01*
X0296*
X0294Y036*
X03135Y04155D02*
X03115Y04195D01*
X03155*
X03135Y04155*
X03573Y04035D02*
X03553Y04075D01*
X03593*
X03573Y04035*
X03535D02*
X03515Y04075D01*
X03555*
X03535Y04035*
Y04075D02*
X03515Y04115D01*
X03555*
X03535Y04075*
X0327Y04225D02*
X0325Y04265D01*
X0329*
X0327Y04225*
X03555Y0402D02*
X03535Y0406D01*
X03575*
X03555Y0402*
X0383Y03955D02*
X0381Y03995D01*
X0385*
X0383Y03955*
X0386D02*
X0384Y03995D01*
X0388*
X0386Y03955*
X0344Y03675D02*
X0342Y03715D01*
X0346*
X0344Y03675*
X0376Y03915D02*
X0374Y03955D01*
X0378*
X0376Y03915*
X03355Y03565D02*
X03335Y03605D01*
X03375*
X03355Y03565*
X03155Y04075D02*
X03135Y04115D01*
X03175*
X03155Y04075*
X03105Y03785D02*
X03085Y03825D01*
X03125*
X03105Y03785*
X0311Y0393D02*
X0309Y0397D01*
X0313*
X0311Y0393*
X02615D02*
X02595Y0397D01*
X02635*
X02615Y0393*
X03375Y03565D02*
X03355Y03605D01*
X03395*
X03375Y03565*
X03005Y0412D02*
X02985Y0416D01*
X03025*
X03005Y0412*
X03635Y0401D02*
X03615Y0405D01*
X03655*
X03635Y0401*
X03545Y03701D02*
X03525Y03741D01*
X03565*
X03545Y03701*
Y03685D02*
X03525Y03725D01*
X03565*
X03545Y03685*
X03385Y0386D02*
X03365Y039D01*
X03405*
X03385Y0386*
X0351Y03665D02*
X0349Y03705D01*
X0353*
X0351Y03665*
X0367Y0386D02*
X0365Y039D01*
X0369*
X0367Y0386*
X0378Y035D02*
X0376Y0354D01*
X038*
X0378Y035*
X0374Y03665D02*
X0372Y03705D01*
X0376*
X0374Y03665*
X0377Y0381D02*
X0375Y0385D01*
X0379*
X0377Y0381*
Y03645D02*
X0375Y03685D01*
X0379*
X0377Y03645*
Y0383D02*
X0375Y0387D01*
X0379*
X0377Y0383*
X03755Y03615D02*
X03735Y03655D01*
X03775*
X03755Y03615*
X03765Y0368D02*
X03745Y0372D01*
X03785*
X03765Y0368*
X0315Y0365D02*
X0313Y0369D01*
X0317*
X0315Y0365*
X03175Y03475D02*
X03155Y03515D01*
X03195*
X03175Y03475*
X037Y04095D02*
X0368Y04135D01*
X0372*
X037Y04095*
X03645Y04105D02*
X03625Y04145D01*
X03665*
X03645Y04105*
X037Y04115D02*
X0368Y04155D01*
X0372*
X037Y04115*
X03855Y03905D02*
X03835Y03945D01*
X03875*
X03855Y03905*
X03585Y0402D02*
X03565Y0406D01*
X03605*
X03585Y0402*
X037Y03955D02*
X0368Y03995D01*
X0372*
X037Y03955*
X0363Y0399D02*
X0361Y0403D01*
X0365*
X0363Y0399*
X0346Y03605D02*
X0344Y03645D01*
X0348*
X0346Y03605*
X03525Y0349D02*
X03505Y0353D01*
X03545*
X03525Y0349*
X03435Y03575D02*
X03415Y03615D01*
X03455*
X03435Y03575*
X0334Y04065D02*
X0332Y04105D01*
X0336*
X0334Y04065*
Y04185D02*
X0332Y04225D01*
X0336*
X0334Y04185*
X03215Y0406D02*
X03195Y041D01*
X03235*
X03215Y0406*
X0337Y0421D02*
X0335Y0425D01*
X0339*
X0337Y0421*
X0346Y0366D02*
X0344Y037D01*
X0348*
X0346Y0366*
X0318Y03645D02*
X0316Y03685D01*
X032*
X0318Y03645*
X0337Y03635D02*
X0335Y03675D01*
X0339*
X0337Y03635*
X03215Y0363D02*
X03195Y0367D01*
X03235*
X03215Y0363*
X03403Y03634D02*
X03383Y03674D01*
X03423*
X03403Y03634*
X0328Y03615D02*
X0326Y03655D01*
X033*
X0328Y03615*
X0365Y0397D02*
X0363Y0401D01*
X0367*
X0365Y0397*
X03635Y0407D02*
X03615Y0411D01*
X03655*
X03635Y0407*
X03655Y04085D02*
X03635Y04125D01*
X03675*
X03655Y04085*
X03705Y03985D02*
X03685Y04025D01*
X03725*
X03705Y03985*
X03555Y03935D02*
X03535Y03975D01*
X03575*
X03555Y03935*
X0372Y0407D02*
X037Y0411D01*
X0374*
X0372Y0407*
X03635Y03955D02*
X03615Y03995D01*
X03655*
X03635Y03955*
X0337Y04035D02*
X0335Y04075D01*
X0339*
X0337Y04035*
X0347Y04005D02*
X0345Y04045D01*
X0349*
X0347Y04005*
X03505Y03865D02*
X03485Y03905D01*
X03525*
X03505Y03865*
X03425Y04055D02*
X03405Y04095D01*
X03445*
X03425Y04055*
X0348Y03865D02*
X0346Y03905D01*
X035*
X0348Y03865*
X0341Y0404D02*
X0339Y0408D01*
X0343*
X0341Y0404*
X0351Y03795D02*
X0349Y03835D01*
X0353*
X0351Y03795*
X0344Y03865D02*
X0342Y03905D01*
X0346*
X0344Y03865*
X036Y0368D02*
X0358Y0372D01*
X0362*
X036Y0368*
X035Y03585D02*
X0348Y03625D01*
X0352*
X035Y03585*
X03625Y03685D02*
X03605Y03725D01*
X03645*
X03625Y03685*
X0265Y038D02*
X0263Y0384D01*
X0267*
X0265Y038*
G54D101*
X02865Y04095D02*
D01*
X02864Y04096*
X02864Y04097*
X02864Y04099*
X02864Y041*
X02863Y04101*
X02863Y04103*
X02862Y04104*
X02861Y04105*
X02861Y04106*
X0286Y04107*
X02859Y04108*
X02858Y04109*
X02857Y0411*
X02856Y04111*
X02855Y04112*
X02853Y04112*
X02852Y04113*
X02851Y04114*
X02849Y04114*
X02848Y04114*
X02847Y04114*
X02845Y04114*
X02844*
X02842Y04114*
X02841Y04114*
X0284Y04114*
X02838Y04114*
X02837Y04113*
X02836Y04112*
X02835Y04112*
X02833Y04111*
X02832Y0411*
X02831Y04109*
X0283Y04108*
X02829Y04107*
X02828Y04106*
X02828Y04105*
X02827Y04104*
X02826Y04103*
X02826Y04101*
X02825Y041*
X02825Y04099*
X02825Y04097*
X02825Y04096*
X02825Y04095*
X02825Y04093*
X02825Y04092*
X02825Y0409*
X02825Y04089*
X02826Y04088*
X02826Y04086*
X02827Y04085*
X02828Y04084*
X02828Y04083*
X02829Y04082*
X0283Y04081*
X02831Y0408*
X02832Y04079*
X02833Y04078*
X02835Y04077*
X02836Y04077*
X02837Y04076*
X02838Y04075*
X0284Y04075*
X02841Y04075*
X02842Y04075*
X02844Y04075*
X02845*
X02847Y04075*
X02848Y04075*
X02849Y04075*
X02851Y04075*
X02852Y04076*
X02853Y04077*
X02855Y04077*
X02856Y04078*
X02857Y04079*
X02858Y0408*
X02859Y04081*
X0286Y04082*
X02861Y04083*
X02861Y04084*
X02862Y04085*
X02863Y04086*
X02863Y04088*
X02864Y04089*
X02864Y0409*
X02864Y04092*
X02864Y04093*
X02865Y04095*
X02805Y03745D02*
D01*
X02804Y03746*
X02804Y03747*
X02804Y03749*
X02804Y0375*
X02803Y03751*
X02803Y03753*
X02802Y03754*
X02801Y03755*
X02801Y03756*
X028Y03757*
X02799Y03758*
X02798Y03759*
X02797Y0376*
X02796Y03761*
X02795Y03762*
X02793Y03762*
X02792Y03763*
X02791Y03764*
X02789Y03764*
X02788Y03764*
X02787Y03764*
X02785Y03764*
X02784*
X02782Y03764*
X02781Y03764*
X0278Y03764*
X02778Y03764*
X02777Y03763*
X02776Y03762*
X02775Y03762*
X02773Y03761*
X02772Y0376*
X02771Y03759*
X0277Y03758*
X02769Y03757*
X02768Y03756*
X02768Y03755*
X02767Y03754*
X02766Y03753*
X02766Y03751*
X02765Y0375*
X02765Y03749*
X02765Y03747*
X02765Y03746*
X02765Y03745*
X02765Y03743*
X02765Y03742*
X02765Y0374*
X02765Y03739*
X02766Y03738*
X02766Y03736*
X02767Y03735*
X02768Y03734*
X02768Y03733*
X02769Y03732*
X0277Y03731*
X02771Y0373*
X02772Y03729*
X02773Y03728*
X02775Y03727*
X02776Y03727*
X02777Y03726*
X02778Y03725*
X0278Y03725*
X02781Y03725*
X02782Y03725*
X02784Y03725*
X02785*
X02787Y03725*
X02788Y03725*
X02789Y03725*
X02791Y03725*
X02792Y03726*
X02793Y03727*
X02795Y03727*
X02796Y03728*
X02797Y03729*
X02798Y0373*
X02799Y03731*
X028Y03732*
X02801Y03733*
X02801Y03734*
X02802Y03735*
X02803Y03736*
X02803Y03738*
X02804Y03739*
X02804Y0374*
X02804Y03742*
X02804Y03743*
X02805Y03745*
M02*