%FSTAX23Y23*%
%MOIN*%
%SFA1B1*%

%IPPOS*%
%LNesp32c3phils-1*%
%LPD*%
G36*
X03286Y0308D02*
X03287Y0308D01*
X03289Y03079*
X0329Y03079*
X03292Y03079*
X03293Y03078*
X03295Y03078*
X03296Y03077*
X03297Y03076*
X03299Y03076*
X033Y03075*
X03301Y03074*
X03303Y03073*
X03304Y03072*
X03305Y03071*
X03306Y0307*
X03307Y03069*
X03308Y03067*
X03309Y03066*
X0331Y03065*
X0331Y03063*
X03311Y03062*
X03312Y03061*
X03312Y03059*
X03313Y03058*
X03313Y03056*
X03313Y03055*
X03314Y03053*
X03314Y03052*
X03314Y0305*
X03314Y03048*
X03314Y03047*
X03313Y03045*
X03313Y03044*
X03313Y03042*
X03312Y03041*
X03312Y03039*
X03311Y03038*
X0331Y03036*
X0331Y03035*
X03309Y03034*
X03308Y03032*
X03307Y03031*
X03306Y0303*
X03305Y03029*
X03304Y03028*
X03303Y03027*
X03301Y03026*
X033Y03025*
X03299Y03024*
X03297Y03023*
X03296Y03023*
X03295Y03022*
X03293Y03022*
X03292Y03021*
X0329Y03021*
X03289Y03021*
X03287Y0302*
X03286Y0302*
X03284Y0302*
X03282Y0302*
X03281Y0302*
X03279Y03021*
X03278Y03021*
X03276Y03021*
X03275Y03022*
X03273Y03022*
X03272Y03023*
X0327Y03023*
X03269Y03024*
X03268Y03025*
X03266Y03026*
X03265Y03027*
X03264Y03028*
X03263Y03029*
X03262Y0303*
X03261Y03031*
X0326Y03032*
X03259Y03034*
X03258Y03035*
X03257Y03036*
X03257Y03038*
X03256Y03039*
X03256Y03041*
X03255Y03042*
X03255Y03044*
X03255Y03045*
X03254Y03047*
X03254Y03048*
X03254Y0305*
X03254Y03052*
X03254Y03053*
X03255Y03055*
X03255Y03056*
X03255Y03058*
X03256Y03059*
X03256Y03061*
X03257Y03062*
X03257Y03063*
X03258Y03065*
X03259Y03066*
X0326Y03067*
X03261Y03069*
X03262Y0307*
X03263Y03071*
X03264Y03072*
X03265Y03073*
X03266Y03074*
X03268Y03075*
X03269Y03076*
X0327Y03076*
X03272Y03077*
X03273Y03078*
X03275Y03078*
X03276Y03079*
X03278Y03079*
X03279Y03079*
X03281Y0308*
X03282Y0308*
X03284Y0308*
X03286Y0308*
G37*
G36*
X03206D02*
X03207Y0308D01*
X03209Y03079*
X0321Y03079*
X03212Y03079*
X03213Y03078*
X03215Y03078*
X03216Y03077*
X03217Y03076*
X03219Y03076*
X0322Y03075*
X03221Y03074*
X03223Y03073*
X03224Y03072*
X03225Y03071*
X03226Y0307*
X03227Y03069*
X03228Y03067*
X03229Y03066*
X0323Y03065*
X0323Y03063*
X03231Y03062*
X03232Y03061*
X03232Y03059*
X03233Y03058*
X03233Y03056*
X03233Y03055*
X03234Y03053*
X03234Y03052*
X03234Y0305*
X03234Y03048*
X03234Y03047*
X03233Y03045*
X03233Y03044*
X03233Y03042*
X03232Y03041*
X03232Y03039*
X03231Y03038*
X0323Y03036*
X0323Y03035*
X03229Y03034*
X03228Y03032*
X03227Y03031*
X03226Y0303*
X03225Y03029*
X03224Y03028*
X03223Y03027*
X03221Y03026*
X0322Y03025*
X03219Y03024*
X03217Y03023*
X03216Y03023*
X03215Y03022*
X03213Y03022*
X03212Y03021*
X0321Y03021*
X03209Y03021*
X03207Y0302*
X03206Y0302*
X03204Y0302*
X03202Y0302*
X03201Y0302*
X03199Y03021*
X03198Y03021*
X03196Y03021*
X03195Y03022*
X03193Y03022*
X03192Y03023*
X0319Y03023*
X03189Y03024*
X03188Y03025*
X03186Y03026*
X03185Y03027*
X03184Y03028*
X03183Y03029*
X03182Y0303*
X03181Y03031*
X0318Y03032*
X03179Y03034*
X03178Y03035*
X03177Y03036*
X03177Y03038*
X03176Y03039*
X03176Y03041*
X03175Y03042*
X03175Y03044*
X03175Y03045*
X03174Y03047*
X03174Y03048*
X03174Y0305*
X03174Y03052*
X03174Y03053*
X03175Y03055*
X03175Y03056*
X03175Y03058*
X03176Y03059*
X03176Y03061*
X03177Y03062*
X03177Y03063*
X03178Y03065*
X03179Y03066*
X0318Y03067*
X03181Y03069*
X03182Y0307*
X03183Y03071*
X03184Y03072*
X03185Y03073*
X03186Y03074*
X03188Y03075*
X03189Y03076*
X0319Y03076*
X03192Y03077*
X03193Y03078*
X03195Y03078*
X03196Y03079*
X03198Y03079*
X03199Y03079*
X03201Y0308*
X03202Y0308*
X03204Y0308*
X03206Y0308*
G37*
G36*
X03126D02*
X03127Y0308D01*
X03129Y03079*
X0313Y03079*
X03132Y03079*
X03133Y03078*
X03135Y03078*
X03136Y03077*
X03137Y03076*
X03139Y03076*
X0314Y03075*
X03141Y03074*
X03143Y03073*
X03144Y03072*
X03145Y03071*
X03146Y0307*
X03147Y03069*
X03148Y03067*
X03149Y03066*
X0315Y03065*
X0315Y03063*
X03151Y03062*
X03152Y03061*
X03152Y03059*
X03153Y03058*
X03153Y03056*
X03153Y03055*
X03154Y03053*
X03154Y03052*
X03154Y0305*
X03154Y03048*
X03154Y03047*
X03153Y03045*
X03153Y03044*
X03153Y03042*
X03152Y03041*
X03152Y03039*
X03151Y03038*
X0315Y03036*
X0315Y03035*
X03149Y03034*
X03148Y03032*
X03147Y03031*
X03146Y0303*
X03145Y03029*
X03144Y03028*
X03143Y03027*
X03141Y03026*
X0314Y03025*
X03139Y03024*
X03137Y03023*
X03136Y03023*
X03135Y03022*
X03133Y03022*
X03132Y03021*
X0313Y03021*
X03129Y03021*
X03127Y0302*
X03126Y0302*
X03124Y0302*
X03122Y0302*
X03121Y0302*
X03119Y03021*
X03118Y03021*
X03116Y03021*
X03115Y03022*
X03113Y03022*
X03112Y03023*
X0311Y03023*
X03109Y03024*
X03108Y03025*
X03106Y03026*
X03105Y03027*
X03104Y03028*
X03103Y03029*
X03102Y0303*
X03101Y03031*
X031Y03032*
X03099Y03034*
X03098Y03035*
X03097Y03036*
X03097Y03038*
X03096Y03039*
X03096Y03041*
X03095Y03042*
X03095Y03044*
X03095Y03045*
X03094Y03047*
X03094Y03048*
X03094Y0305*
X03094Y03052*
X03094Y03053*
X03095Y03055*
X03095Y03056*
X03095Y03058*
X03096Y03059*
X03096Y03061*
X03097Y03062*
X03097Y03063*
X03098Y03065*
X03099Y03066*
X031Y03067*
X03101Y03069*
X03102Y0307*
X03103Y03071*
X03104Y03072*
X03105Y03073*
X03106Y03074*
X03108Y03075*
X03109Y03076*
X0311Y03076*
X03112Y03077*
X03113Y03078*
X03115Y03078*
X03116Y03079*
X03118Y03079*
X03119Y03079*
X03121Y0308*
X03122Y0308*
X03124Y0308*
X03126Y0308*
G37*
G36*
X03046D02*
X03047Y0308D01*
X03049Y03079*
X0305Y03079*
X03052Y03079*
X03053Y03078*
X03055Y03078*
X03056Y03077*
X03057Y03076*
X03059Y03076*
X0306Y03075*
X03061Y03074*
X03063Y03073*
X03064Y03072*
X03065Y03071*
X03066Y0307*
X03067Y03069*
X03068Y03067*
X03069Y03066*
X0307Y03065*
X0307Y03063*
X03071Y03062*
X03072Y03061*
X03072Y03059*
X03073Y03058*
X03073Y03056*
X03073Y03055*
X03074Y03053*
X03074Y03052*
X03074Y0305*
X03074Y03048*
X03074Y03047*
X03073Y03045*
X03073Y03044*
X03073Y03042*
X03072Y03041*
X03072Y03039*
X03071Y03038*
X0307Y03036*
X0307Y03035*
X03069Y03034*
X03068Y03032*
X03067Y03031*
X03066Y0303*
X03065Y03029*
X03064Y03028*
X03063Y03027*
X03061Y03026*
X0306Y03025*
X03059Y03024*
X03057Y03023*
X03056Y03023*
X03055Y03022*
X03053Y03022*
X03052Y03021*
X0305Y03021*
X03049Y03021*
X03047Y0302*
X03046Y0302*
X03044Y0302*
X03042Y0302*
X03041Y0302*
X03039Y03021*
X03038Y03021*
X03036Y03021*
X03035Y03022*
X03033Y03022*
X03032Y03023*
X0303Y03023*
X03029Y03024*
X03028Y03025*
X03026Y03026*
X03025Y03027*
X03024Y03028*
X03023Y03029*
X03022Y0303*
X03021Y03031*
X0302Y03032*
X03019Y03034*
X03018Y03035*
X03017Y03036*
X03017Y03038*
X03016Y03039*
X03016Y03041*
X03015Y03042*
X03015Y03044*
X03015Y03045*
X03014Y03047*
X03014Y03048*
X03014Y0305*
X03014Y03052*
X03014Y03053*
X03015Y03055*
X03015Y03056*
X03015Y03058*
X03016Y03059*
X03016Y03061*
X03017Y03062*
X03017Y03063*
X03018Y03065*
X03019Y03066*
X0302Y03067*
X03021Y03069*
X03022Y0307*
X03023Y03071*
X03024Y03072*
X03025Y03073*
X03026Y03074*
X03028Y03075*
X03029Y03076*
X0303Y03076*
X03032Y03077*
X03033Y03078*
X03035Y03078*
X03036Y03079*
X03038Y03079*
X03039Y03079*
X03041Y0308*
X03042Y0308*
X03044Y0308*
X03046Y0308*
G37*
G36*
X02966D02*
X02967Y0308D01*
X02969Y03079*
X0297Y03079*
X02972Y03079*
X02973Y03078*
X02975Y03078*
X02976Y03077*
X02978Y03076*
X02979Y03076*
X0298Y03075*
X02982Y03074*
X02983Y03073*
X02984Y03072*
X02985Y03071*
X02986Y0307*
X02987Y03069*
X02988Y03067*
X02989Y03066*
X0299Y03065*
X02991Y03063*
X02991Y03062*
X02992Y03061*
X02992Y03059*
X02993Y03058*
X02993Y03056*
X02994Y03055*
X02994Y03053*
X02994Y03052*
X02994Y0305*
X02994Y03048*
X02994Y03047*
X02994Y03045*
X02993Y03044*
X02993Y03042*
X02992Y03041*
X02992Y03039*
X02991Y03038*
X02991Y03036*
X0299Y03035*
X02989Y03034*
X02988Y03032*
X02987Y03031*
X02986Y0303*
X02985Y03029*
X02984Y03028*
X02983Y03027*
X02982Y03026*
X0298Y03025*
X02979Y03024*
X02978Y03023*
X02976Y03023*
X02975Y03022*
X02973Y03022*
X02972Y03021*
X0297Y03021*
X02969Y03021*
X02967Y0302*
X02966Y0302*
X02964Y0302*
X02963Y0302*
X02961Y0302*
X0296Y03021*
X02958Y03021*
X02957Y03021*
X02955Y03022*
X02954Y03022*
X02952Y03023*
X02951Y03023*
X02949Y03024*
X02948Y03025*
X02947Y03026*
X02946Y03027*
X02944Y03028*
X02943Y03029*
X02942Y0303*
X02941Y03031*
X0294Y03032*
X02939Y03034*
X02938Y03035*
X02938Y03036*
X02937Y03038*
X02936Y03039*
X02936Y03041*
X02936Y03042*
X02935Y03044*
X02935Y03045*
X02935Y03047*
X02935Y03048*
X02934Y0305*
X02935Y03052*
X02935Y03053*
X02935Y03055*
X02935Y03056*
X02936Y03058*
X02936Y03059*
X02936Y03061*
X02937Y03062*
X02938Y03063*
X02938Y03065*
X02939Y03066*
X0294Y03067*
X02941Y03069*
X02942Y0307*
X02943Y03071*
X02944Y03072*
X02946Y03073*
X02947Y03074*
X02948Y03075*
X02949Y03076*
X02951Y03076*
X02952Y03077*
X02954Y03078*
X02955Y03078*
X02957Y03079*
X02958Y03079*
X0296Y03079*
X02961Y0308*
X02963Y0308*
X02964Y0308*
X02966Y0308*
G37*
G36*
X02966Y03D02*
X02968Y03D01*
X02969Y02999*
X02971Y02999*
X02972Y02999*
X02974Y02998*
X02975Y02998*
X02977Y02997*
X02978Y02996*
X02979Y02996*
X02981Y02995*
X02982Y02994*
X02983Y02993*
X02984Y02992*
X02986Y02991*
X02987Y0299*
X02988Y02989*
X02989Y02987*
X02989Y02986*
X0299Y02985*
X02991Y02983*
X02992Y02982*
X02992Y02981*
X02993Y02979*
X02993Y02978*
X02994Y02976*
X02994Y02975*
X02994Y02973*
X02994Y02972*
X02994Y0297*
X02994Y02968*
X02994Y02967*
X02994Y02965*
X02994Y02964*
X02993Y02962*
X02993Y02961*
X02992Y02959*
X02992Y02958*
X02991Y02956*
X0299Y02955*
X02989Y02954*
X02989Y02952*
X02988Y02951*
X02987Y0295*
X02986Y02949*
X02984Y02948*
X02983Y02947*
X02982Y02946*
X02981Y02945*
X02979Y02944*
X02978Y02943*
X02977Y02943*
X02975Y02942*
X02974Y02942*
X02972Y02941*
X02971Y02941*
X02969Y02941*
X02968Y0294*
X02966Y0294*
X02964Y0294*
X02963Y0294*
X02961Y0294*
X0296Y02941*
X02958Y02941*
X02957Y02941*
X02955Y02942*
X02954Y02942*
X02952Y02943*
X02951Y02943*
X0295Y02944*
X02948Y02945*
X02947Y02946*
X02946Y02947*
X02945Y02948*
X02943Y02949*
X02942Y0295*
X02941Y02951*
X0294Y02952*
X0294Y02954*
X02939Y02955*
X02938Y02956*
X02937Y02958*
X02937Y02959*
X02936Y02961*
X02936Y02962*
X02935Y02964*
X02935Y02965*
X02935Y02967*
X02935Y02968*
X02935Y0297*
X02935Y02972*
X02935Y02973*
X02935Y02975*
X02935Y02976*
X02936Y02978*
X02936Y02979*
X02937Y02981*
X02937Y02982*
X02938Y02983*
X02939Y02985*
X0294Y02986*
X0294Y02987*
X02941Y02989*
X02942Y0299*
X02943Y02991*
X02945Y02992*
X02946Y02993*
X02947Y02994*
X02948Y02995*
X0295Y02996*
X02951Y02996*
X02952Y02997*
X02954Y02998*
X02955Y02998*
X02957Y02999*
X02958Y02999*
X0296Y02999*
X02961Y03*
X02963Y03*
X02964Y03*
X02966Y03*
G37*
G36*
X03286D02*
X03287Y03D01*
X03289Y02999*
X0329Y02999*
X03292Y02999*
X03293Y02998*
X03295Y02998*
X03296Y02997*
X03298Y02996*
X03299Y02996*
X033Y02995*
X03302Y02994*
X03303Y02993*
X03304Y02992*
X03305Y02991*
X03306Y0299*
X03307Y02989*
X03308Y02987*
X03309Y02986*
X0331Y02985*
X03311Y02983*
X03311Y02982*
X03312Y02981*
X03312Y02979*
X03313Y02978*
X03313Y02976*
X03314Y02975*
X03314Y02973*
X03314Y02972*
X03314Y0297*
X03314Y02968*
X03314Y02967*
X03314Y02965*
X03313Y02964*
X03313Y02962*
X03312Y02961*
X03312Y02959*
X03311Y02958*
X03311Y02956*
X0331Y02955*
X03309Y02954*
X03308Y02952*
X03307Y02951*
X03306Y0295*
X03305Y02949*
X03304Y02948*
X03303Y02947*
X03302Y02946*
X033Y02945*
X03299Y02944*
X03298Y02943*
X03296Y02943*
X03295Y02942*
X03293Y02942*
X03292Y02941*
X0329Y02941*
X03289Y02941*
X03287Y0294*
X03286Y0294*
X03284Y0294*
X03283Y0294*
X03281Y0294*
X0328Y02941*
X03278Y02941*
X03277Y02941*
X03275Y02942*
X03274Y02942*
X03272Y02943*
X03271Y02943*
X03269Y02944*
X03268Y02945*
X03267Y02946*
X03266Y02947*
X03264Y02948*
X03263Y02949*
X03262Y0295*
X03261Y02951*
X0326Y02952*
X03259Y02954*
X03258Y02955*
X03258Y02956*
X03257Y02958*
X03256Y02959*
X03256Y02961*
X03256Y02962*
X03255Y02964*
X03255Y02965*
X03255Y02967*
X03255Y02968*
X03254Y0297*
X03255Y02972*
X03255Y02973*
X03255Y02975*
X03255Y02976*
X03256Y02978*
X03256Y02979*
X03256Y02981*
X03257Y02982*
X03258Y02983*
X03258Y02985*
X03259Y02986*
X0326Y02987*
X03261Y02989*
X03262Y0299*
X03263Y02991*
X03264Y02992*
X03266Y02993*
X03267Y02994*
X03268Y02995*
X03269Y02996*
X03271Y02996*
X03272Y02997*
X03274Y02998*
X03275Y02998*
X03277Y02999*
X03278Y02999*
X0328Y02999*
X03281Y03*
X03283Y03*
X03284Y03*
X03286Y03*
G37*
G36*
X03206D02*
X03207Y03D01*
X03209Y02999*
X0321Y02999*
X03212Y02999*
X03213Y02998*
X03215Y02998*
X03216Y02997*
X03218Y02996*
X03219Y02996*
X0322Y02995*
X03222Y02994*
X03223Y02993*
X03224Y02992*
X03225Y02991*
X03226Y0299*
X03227Y02989*
X03228Y02987*
X03229Y02986*
X0323Y02985*
X03231Y02983*
X03231Y02982*
X03232Y02981*
X03232Y02979*
X03233Y02978*
X03233Y02976*
X03234Y02975*
X03234Y02973*
X03234Y02972*
X03234Y0297*
X03234Y02968*
X03234Y02967*
X03234Y02965*
X03233Y02964*
X03233Y02962*
X03232Y02961*
X03232Y02959*
X03231Y02958*
X03231Y02956*
X0323Y02955*
X03229Y02954*
X03228Y02952*
X03227Y02951*
X03226Y0295*
X03225Y02949*
X03224Y02948*
X03223Y02947*
X03222Y02946*
X0322Y02945*
X03219Y02944*
X03218Y02943*
X03216Y02943*
X03215Y02942*
X03213Y02942*
X03212Y02941*
X0321Y02941*
X03209Y02941*
X03207Y0294*
X03206Y0294*
X03204Y0294*
X03203Y0294*
X03201Y0294*
X032Y02941*
X03198Y02941*
X03197Y02941*
X03195Y02942*
X03194Y02942*
X03192Y02943*
X03191Y02943*
X03189Y02944*
X03188Y02945*
X03187Y02946*
X03186Y02947*
X03184Y02948*
X03183Y02949*
X03182Y0295*
X03181Y02951*
X0318Y02952*
X03179Y02954*
X03178Y02955*
X03178Y02956*
X03177Y02958*
X03176Y02959*
X03176Y02961*
X03176Y02962*
X03175Y02964*
X03175Y02965*
X03175Y02967*
X03175Y02968*
X03174Y0297*
X03175Y02972*
X03175Y02973*
X03175Y02975*
X03175Y02976*
X03176Y02978*
X03176Y02979*
X03176Y02981*
X03177Y02982*
X03178Y02983*
X03178Y02985*
X03179Y02986*
X0318Y02987*
X03181Y02989*
X03182Y0299*
X03183Y02991*
X03184Y02992*
X03186Y02993*
X03187Y02994*
X03188Y02995*
X03189Y02996*
X03191Y02996*
X03192Y02997*
X03194Y02998*
X03195Y02998*
X03197Y02999*
X03198Y02999*
X032Y02999*
X03201Y03*
X03203Y03*
X03204Y03*
X03206Y03*
G37*
G36*
X03126D02*
X03127Y03D01*
X03129Y02999*
X0313Y02999*
X03132Y02999*
X03133Y02998*
X03135Y02998*
X03136Y02997*
X03138Y02996*
X03139Y02996*
X0314Y02995*
X03142Y02994*
X03143Y02993*
X03144Y02992*
X03145Y02991*
X03146Y0299*
X03147Y02989*
X03148Y02987*
X03149Y02986*
X0315Y02985*
X03151Y02983*
X03151Y02982*
X03152Y02981*
X03152Y02979*
X03153Y02978*
X03153Y02976*
X03154Y02975*
X03154Y02973*
X03154Y02972*
X03154Y0297*
X03154Y02968*
X03154Y02967*
X03154Y02965*
X03153Y02964*
X03153Y02962*
X03152Y02961*
X03152Y02959*
X03151Y02958*
X03151Y02956*
X0315Y02955*
X03149Y02954*
X03148Y02952*
X03147Y02951*
X03146Y0295*
X03145Y02949*
X03144Y02948*
X03143Y02947*
X03142Y02946*
X0314Y02945*
X03139Y02944*
X03138Y02943*
X03136Y02943*
X03135Y02942*
X03133Y02942*
X03132Y02941*
X0313Y02941*
X03129Y02941*
X03127Y0294*
X03126Y0294*
X03124Y0294*
X03123Y0294*
X03121Y0294*
X0312Y02941*
X03118Y02941*
X03117Y02941*
X03115Y02942*
X03114Y02942*
X03112Y02943*
X03111Y02943*
X03109Y02944*
X03108Y02945*
X03107Y02946*
X03106Y02947*
X03104Y02948*
X03103Y02949*
X03102Y0295*
X03101Y02951*
X031Y02952*
X03099Y02954*
X03098Y02955*
X03098Y02956*
X03097Y02958*
X03096Y02959*
X03096Y02961*
X03096Y02962*
X03095Y02964*
X03095Y02965*
X03095Y02967*
X03095Y02968*
X03094Y0297*
X03095Y02972*
X03095Y02973*
X03095Y02975*
X03095Y02976*
X03096Y02978*
X03096Y02979*
X03096Y02981*
X03097Y02982*
X03098Y02983*
X03098Y02985*
X03099Y02986*
X031Y02987*
X03101Y02989*
X03102Y0299*
X03103Y02991*
X03104Y02992*
X03106Y02993*
X03107Y02994*
X03108Y02995*
X03109Y02996*
X03111Y02996*
X03112Y02997*
X03114Y02998*
X03115Y02998*
X03117Y02999*
X03118Y02999*
X0312Y02999*
X03121Y03*
X03123Y03*
X03124Y03*
X03126Y03*
G37*
G36*
X03046D02*
X03047Y03D01*
X03049Y02999*
X0305Y02999*
X03052Y02999*
X03053Y02998*
X03055Y02998*
X03056Y02997*
X03058Y02996*
X03059Y02996*
X0306Y02995*
X03062Y02994*
X03063Y02993*
X03064Y02992*
X03065Y02991*
X03066Y0299*
X03067Y02989*
X03068Y02987*
X03069Y02986*
X0307Y02985*
X03071Y02983*
X03071Y02982*
X03072Y02981*
X03072Y02979*
X03073Y02978*
X03073Y02976*
X03074Y02975*
X03074Y02973*
X03074Y02972*
X03074Y0297*
X03074Y02968*
X03074Y02967*
X03074Y02965*
X03073Y02964*
X03073Y02962*
X03072Y02961*
X03072Y02959*
X03071Y02958*
X03071Y02956*
X0307Y02955*
X03069Y02954*
X03068Y02952*
X03067Y02951*
X03066Y0295*
X03065Y02949*
X03064Y02948*
X03063Y02947*
X03062Y02946*
X0306Y02945*
X03059Y02944*
X03058Y02943*
X03056Y02943*
X03055Y02942*
X03053Y02942*
X03052Y02941*
X0305Y02941*
X03049Y02941*
X03047Y0294*
X03046Y0294*
X03044Y0294*
X03043Y0294*
X03041Y0294*
X0304Y02941*
X03038Y02941*
X03037Y02941*
X03035Y02942*
X03034Y02942*
X03032Y02943*
X03031Y02943*
X03029Y02944*
X03028Y02945*
X03027Y02946*
X03026Y02947*
X03024Y02948*
X03023Y02949*
X03022Y0295*
X03021Y02951*
X0302Y02952*
X03019Y02954*
X03018Y02955*
X03018Y02956*
X03017Y02958*
X03016Y02959*
X03016Y02961*
X03016Y02962*
X03015Y02964*
X03015Y02965*
X03015Y02967*
X03015Y02968*
X03014Y0297*
X03015Y02972*
X03015Y02973*
X03015Y02975*
X03015Y02976*
X03016Y02978*
X03016Y02979*
X03016Y02981*
X03017Y02982*
X03018Y02983*
X03018Y02985*
X03019Y02986*
X0302Y02987*
X03021Y02989*
X03022Y0299*
X03023Y02991*
X03024Y02992*
X03026Y02993*
X03027Y02994*
X03028Y02995*
X03029Y02996*
X03031Y02996*
X03032Y02997*
X03034Y02998*
X03035Y02998*
X03037Y02999*
X03038Y02999*
X0304Y02999*
X03041Y03*
X03043Y03*
X03044Y03*
X03046Y03*
G37*
G36*
X03686Y0308D02*
X03687Y0308D01*
X03689Y03079*
X0369Y03079*
X03692Y03079*
X03693Y03078*
X03695Y03078*
X03696Y03077*
X03697Y03076*
X03699Y03076*
X037Y03075*
X03701Y03074*
X03703Y03073*
X03704Y03072*
X03705Y03071*
X03706Y0307*
X03707Y03069*
X03708Y03067*
X03709Y03066*
X0371Y03065*
X0371Y03063*
X03711Y03062*
X03712Y03061*
X03712Y03059*
X03713Y03058*
X03713Y03056*
X03713Y03055*
X03714Y03053*
X03714Y03052*
X03714Y0305*
X03714Y03048*
X03714Y03047*
X03713Y03045*
X03713Y03044*
X03713Y03042*
X03712Y03041*
X03712Y03039*
X03711Y03038*
X0371Y03036*
X0371Y03035*
X03709Y03034*
X03708Y03032*
X03707Y03031*
X03706Y0303*
X03705Y03029*
X03704Y03028*
X03703Y03027*
X03701Y03026*
X037Y03025*
X03699Y03024*
X03697Y03023*
X03696Y03023*
X03695Y03022*
X03693Y03022*
X03692Y03021*
X0369Y03021*
X03689Y03021*
X03687Y0302*
X03686Y0302*
X03684Y0302*
X03682Y0302*
X03681Y0302*
X03679Y03021*
X03678Y03021*
X03676Y03021*
X03675Y03022*
X03673Y03022*
X03672Y03023*
X0367Y03023*
X03669Y03024*
X03668Y03025*
X03666Y03026*
X03665Y03027*
X03664Y03028*
X03663Y03029*
X03662Y0303*
X03661Y03031*
X0366Y03032*
X03659Y03034*
X03658Y03035*
X03657Y03036*
X03657Y03038*
X03656Y03039*
X03656Y03041*
X03655Y03042*
X03655Y03044*
X03655Y03045*
X03654Y03047*
X03654Y03048*
X03654Y0305*
X03654Y03052*
X03654Y03053*
X03655Y03055*
X03655Y03056*
X03655Y03058*
X03656Y03059*
X03656Y03061*
X03657Y03062*
X03657Y03063*
X03658Y03065*
X03659Y03066*
X0366Y03067*
X03661Y03069*
X03662Y0307*
X03663Y03071*
X03664Y03072*
X03665Y03073*
X03666Y03074*
X03668Y03075*
X03669Y03076*
X0367Y03076*
X03672Y03077*
X03673Y03078*
X03675Y03078*
X03676Y03079*
X03678Y03079*
X03679Y03079*
X03681Y0308*
X03682Y0308*
X03684Y0308*
X03686Y0308*
G37*
G36*
X03606D02*
X03607Y0308D01*
X03609Y03079*
X0361Y03079*
X03612Y03079*
X03613Y03078*
X03615Y03078*
X03616Y03077*
X03617Y03076*
X03619Y03076*
X0362Y03075*
X03621Y03074*
X03623Y03073*
X03624Y03072*
X03625Y03071*
X03626Y0307*
X03627Y03069*
X03628Y03067*
X03629Y03066*
X0363Y03065*
X0363Y03063*
X03631Y03062*
X03632Y03061*
X03632Y03059*
X03633Y03058*
X03633Y03056*
X03633Y03055*
X03634Y03053*
X03634Y03052*
X03634Y0305*
X03634Y03048*
X03634Y03047*
X03633Y03045*
X03633Y03044*
X03633Y03042*
X03632Y03041*
X03632Y03039*
X03631Y03038*
X0363Y03036*
X0363Y03035*
X03629Y03034*
X03628Y03032*
X03627Y03031*
X03626Y0303*
X03625Y03029*
X03624Y03028*
X03623Y03027*
X03621Y03026*
X0362Y03025*
X03619Y03024*
X03617Y03023*
X03616Y03023*
X03615Y03022*
X03613Y03022*
X03612Y03021*
X0361Y03021*
X03609Y03021*
X03607Y0302*
X03606Y0302*
X03604Y0302*
X03602Y0302*
X03601Y0302*
X03599Y03021*
X03598Y03021*
X03596Y03021*
X03595Y03022*
X03593Y03022*
X03592Y03023*
X0359Y03023*
X03589Y03024*
X03588Y03025*
X03586Y03026*
X03585Y03027*
X03584Y03028*
X03583Y03029*
X03582Y0303*
X03581Y03031*
X0358Y03032*
X03579Y03034*
X03578Y03035*
X03577Y03036*
X03577Y03038*
X03576Y03039*
X03576Y03041*
X03575Y03042*
X03575Y03044*
X03575Y03045*
X03574Y03047*
X03574Y03048*
X03574Y0305*
X03574Y03052*
X03574Y03053*
X03575Y03055*
X03575Y03056*
X03575Y03058*
X03576Y03059*
X03576Y03061*
X03577Y03062*
X03577Y03063*
X03578Y03065*
X03579Y03066*
X0358Y03067*
X03581Y03069*
X03582Y0307*
X03583Y03071*
X03584Y03072*
X03585Y03073*
X03586Y03074*
X03588Y03075*
X03589Y03076*
X0359Y03076*
X03592Y03077*
X03593Y03078*
X03595Y03078*
X03596Y03079*
X03598Y03079*
X03599Y03079*
X03601Y0308*
X03602Y0308*
X03604Y0308*
X03606Y0308*
G37*
G36*
X03526D02*
X03527Y0308D01*
X03529Y03079*
X0353Y03079*
X03532Y03079*
X03533Y03078*
X03535Y03078*
X03536Y03077*
X03537Y03076*
X03539Y03076*
X0354Y03075*
X03541Y03074*
X03543Y03073*
X03544Y03072*
X03545Y03071*
X03546Y0307*
X03547Y03069*
X03548Y03067*
X03549Y03066*
X0355Y03065*
X0355Y03063*
X03551Y03062*
X03552Y03061*
X03552Y03059*
X03553Y03058*
X03553Y03056*
X03553Y03055*
X03554Y03053*
X03554Y03052*
X03554Y0305*
X03554Y03048*
X03554Y03047*
X03553Y03045*
X03553Y03044*
X03553Y03042*
X03552Y03041*
X03552Y03039*
X03551Y03038*
X0355Y03036*
X0355Y03035*
X03549Y03034*
X03548Y03032*
X03547Y03031*
X03546Y0303*
X03545Y03029*
X03544Y03028*
X03543Y03027*
X03541Y03026*
X0354Y03025*
X03539Y03024*
X03537Y03023*
X03536Y03023*
X03535Y03022*
X03533Y03022*
X03532Y03021*
X0353Y03021*
X03529Y03021*
X03527Y0302*
X03526Y0302*
X03524Y0302*
X03522Y0302*
X03521Y0302*
X03519Y03021*
X03518Y03021*
X03516Y03021*
X03515Y03022*
X03513Y03022*
X03512Y03023*
X0351Y03023*
X03509Y03024*
X03508Y03025*
X03506Y03026*
X03505Y03027*
X03504Y03028*
X03503Y03029*
X03502Y0303*
X03501Y03031*
X035Y03032*
X03499Y03034*
X03498Y03035*
X03497Y03036*
X03497Y03038*
X03496Y03039*
X03496Y03041*
X03495Y03042*
X03495Y03044*
X03495Y03045*
X03494Y03047*
X03494Y03048*
X03494Y0305*
X03494Y03052*
X03494Y03053*
X03495Y03055*
X03495Y03056*
X03495Y03058*
X03496Y03059*
X03496Y03061*
X03497Y03062*
X03497Y03063*
X03498Y03065*
X03499Y03066*
X035Y03067*
X03501Y03069*
X03502Y0307*
X03503Y03071*
X03504Y03072*
X03505Y03073*
X03506Y03074*
X03508Y03075*
X03509Y03076*
X0351Y03076*
X03512Y03077*
X03513Y03078*
X03515Y03078*
X03516Y03079*
X03518Y03079*
X03519Y03079*
X03521Y0308*
X03522Y0308*
X03524Y0308*
X03526Y0308*
G37*
G36*
X03446D02*
X03447Y0308D01*
X03449Y03079*
X0345Y03079*
X03452Y03079*
X03453Y03078*
X03455Y03078*
X03456Y03077*
X03457Y03076*
X03459Y03076*
X0346Y03075*
X03461Y03074*
X03463Y03073*
X03464Y03072*
X03465Y03071*
X03466Y0307*
X03467Y03069*
X03468Y03067*
X03469Y03066*
X0347Y03065*
X0347Y03063*
X03471Y03062*
X03472Y03061*
X03472Y03059*
X03473Y03058*
X03473Y03056*
X03473Y03055*
X03474Y03053*
X03474Y03052*
X03474Y0305*
X03474Y03048*
X03474Y03047*
X03473Y03045*
X03473Y03044*
X03473Y03042*
X03472Y03041*
X03472Y03039*
X03471Y03038*
X0347Y03036*
X0347Y03035*
X03469Y03034*
X03468Y03032*
X03467Y03031*
X03466Y0303*
X03465Y03029*
X03464Y03028*
X03463Y03027*
X03461Y03026*
X0346Y03025*
X03459Y03024*
X03457Y03023*
X03456Y03023*
X03455Y03022*
X03453Y03022*
X03452Y03021*
X0345Y03021*
X03449Y03021*
X03447Y0302*
X03446Y0302*
X03444Y0302*
X03442Y0302*
X03441Y0302*
X03439Y03021*
X03438Y03021*
X03436Y03021*
X03435Y03022*
X03433Y03022*
X03432Y03023*
X0343Y03023*
X03429Y03024*
X03428Y03025*
X03426Y03026*
X03425Y03027*
X03424Y03028*
X03423Y03029*
X03422Y0303*
X03421Y03031*
X0342Y03032*
X03419Y03034*
X03418Y03035*
X03417Y03036*
X03417Y03038*
X03416Y03039*
X03416Y03041*
X03415Y03042*
X03415Y03044*
X03415Y03045*
X03414Y03047*
X03414Y03048*
X03414Y0305*
X03414Y03052*
X03414Y03053*
X03415Y03055*
X03415Y03056*
X03415Y03058*
X03416Y03059*
X03416Y03061*
X03417Y03062*
X03417Y03063*
X03418Y03065*
X03419Y03066*
X0342Y03067*
X03421Y03069*
X03422Y0307*
X03423Y03071*
X03424Y03072*
X03425Y03073*
X03426Y03074*
X03428Y03075*
X03429Y03076*
X0343Y03076*
X03432Y03077*
X03433Y03078*
X03435Y03078*
X03436Y03079*
X03438Y03079*
X03439Y03079*
X03441Y0308*
X03442Y0308*
X03444Y0308*
X03446Y0308*
G37*
G36*
X03366D02*
X03367Y0308D01*
X03369Y03079*
X0337Y03079*
X03372Y03079*
X03373Y03078*
X03375Y03078*
X03376Y03077*
X03378Y03076*
X03379Y03076*
X0338Y03075*
X03382Y03074*
X03383Y03073*
X03384Y03072*
X03385Y03071*
X03386Y0307*
X03387Y03069*
X03388Y03067*
X03389Y03066*
X0339Y03065*
X03391Y03063*
X03391Y03062*
X03392Y03061*
X03392Y03059*
X03393Y03058*
X03393Y03056*
X03394Y03055*
X03394Y03053*
X03394Y03052*
X03394Y0305*
X03394Y03048*
X03394Y03047*
X03394Y03045*
X03393Y03044*
X03393Y03042*
X03392Y03041*
X03392Y03039*
X03391Y03038*
X03391Y03036*
X0339Y03035*
X03389Y03034*
X03388Y03032*
X03387Y03031*
X03386Y0303*
X03385Y03029*
X03384Y03028*
X03383Y03027*
X03382Y03026*
X0338Y03025*
X03379Y03024*
X03378Y03023*
X03376Y03023*
X03375Y03022*
X03373Y03022*
X03372Y03021*
X0337Y03021*
X03369Y03021*
X03367Y0302*
X03366Y0302*
X03364Y0302*
X03363Y0302*
X03361Y0302*
X0336Y03021*
X03358Y03021*
X03357Y03021*
X03355Y03022*
X03354Y03022*
X03352Y03023*
X03351Y03023*
X03349Y03024*
X03348Y03025*
X03347Y03026*
X03346Y03027*
X03344Y03028*
X03343Y03029*
X03342Y0303*
X03341Y03031*
X0334Y03032*
X03339Y03034*
X03338Y03035*
X03338Y03036*
X03337Y03038*
X03336Y03039*
X03336Y03041*
X03336Y03042*
X03335Y03044*
X03335Y03045*
X03335Y03047*
X03335Y03048*
X03334Y0305*
X03335Y03052*
X03335Y03053*
X03335Y03055*
X03335Y03056*
X03336Y03058*
X03336Y03059*
X03336Y03061*
X03337Y03062*
X03338Y03063*
X03338Y03065*
X03339Y03066*
X0334Y03067*
X03341Y03069*
X03342Y0307*
X03343Y03071*
X03344Y03072*
X03346Y03073*
X03347Y03074*
X03348Y03075*
X03349Y03076*
X03351Y03076*
X03352Y03077*
X03354Y03078*
X03355Y03078*
X03357Y03079*
X03358Y03079*
X0336Y03079*
X03361Y0308*
X03363Y0308*
X03364Y0308*
X03366Y0308*
G37*
G36*
X03686Y03D02*
X03687Y03D01*
X03689Y02999*
X0369Y02999*
X03692Y02999*
X03693Y02998*
X03695Y02998*
X03696Y02997*
X03698Y02996*
X03699Y02996*
X037Y02995*
X03702Y02994*
X03703Y02993*
X03704Y02992*
X03705Y02991*
X03706Y0299*
X03707Y02989*
X03708Y02987*
X03709Y02986*
X0371Y02985*
X03711Y02983*
X03711Y02982*
X03712Y02981*
X03712Y02979*
X03713Y02978*
X03713Y02976*
X03714Y02975*
X03714Y02973*
X03714Y02972*
X03714Y0297*
X03714Y02968*
X03714Y02967*
X03714Y02965*
X03713Y02964*
X03713Y02962*
X03712Y02961*
X03712Y02959*
X03711Y02958*
X03711Y02956*
X0371Y02955*
X03709Y02954*
X03708Y02952*
X03707Y02951*
X03706Y0295*
X03705Y02949*
X03704Y02948*
X03703Y02947*
X03702Y02946*
X037Y02945*
X03699Y02944*
X03698Y02943*
X03696Y02943*
X03695Y02942*
X03693Y02942*
X03692Y02941*
X0369Y02941*
X03689Y02941*
X03687Y0294*
X03686Y0294*
X03684Y0294*
X03683Y0294*
X03681Y0294*
X0368Y02941*
X03678Y02941*
X03677Y02941*
X03675Y02942*
X03674Y02942*
X03672Y02943*
X03671Y02943*
X03669Y02944*
X03668Y02945*
X03667Y02946*
X03666Y02947*
X03664Y02948*
X03663Y02949*
X03662Y0295*
X03661Y02951*
X0366Y02952*
X03659Y02954*
X03658Y02955*
X03658Y02956*
X03657Y02958*
X03656Y02959*
X03656Y02961*
X03656Y02962*
X03655Y02964*
X03655Y02965*
X03655Y02967*
X03655Y02968*
X03654Y0297*
X03655Y02972*
X03655Y02973*
X03655Y02975*
X03655Y02976*
X03656Y02978*
X03656Y02979*
X03656Y02981*
X03657Y02982*
X03658Y02983*
X03658Y02985*
X03659Y02986*
X0366Y02987*
X03661Y02989*
X03662Y0299*
X03663Y02991*
X03664Y02992*
X03666Y02993*
X03667Y02994*
X03668Y02995*
X03669Y02996*
X03671Y02996*
X03672Y02997*
X03674Y02998*
X03675Y02998*
X03677Y02999*
X03678Y02999*
X0368Y02999*
X03681Y03*
X03683Y03*
X03684Y03*
X03686Y03*
G37*
G36*
X03606D02*
X03607Y03D01*
X03609Y02999*
X0361Y02999*
X03612Y02999*
X03613Y02998*
X03615Y02998*
X03616Y02997*
X03618Y02996*
X03619Y02996*
X0362Y02995*
X03622Y02994*
X03623Y02993*
X03624Y02992*
X03625Y02991*
X03626Y0299*
X03627Y02989*
X03628Y02987*
X03629Y02986*
X0363Y02985*
X03631Y02983*
X03631Y02982*
X03632Y02981*
X03632Y02979*
X03633Y02978*
X03633Y02976*
X03634Y02975*
X03634Y02973*
X03634Y02972*
X03634Y0297*
X03634Y02968*
X03634Y02967*
X03634Y02965*
X03633Y02964*
X03633Y02962*
X03632Y02961*
X03632Y02959*
X03631Y02958*
X03631Y02956*
X0363Y02955*
X03629Y02954*
X03628Y02952*
X03627Y02951*
X03626Y0295*
X03625Y02949*
X03624Y02948*
X03623Y02947*
X03622Y02946*
X0362Y02945*
X03619Y02944*
X03618Y02943*
X03616Y02943*
X03615Y02942*
X03613Y02942*
X03612Y02941*
X0361Y02941*
X03609Y02941*
X03607Y0294*
X03606Y0294*
X03604Y0294*
X03603Y0294*
X03601Y0294*
X036Y02941*
X03598Y02941*
X03597Y02941*
X03595Y02942*
X03594Y02942*
X03592Y02943*
X03591Y02943*
X03589Y02944*
X03588Y02945*
X03587Y02946*
X03586Y02947*
X03584Y02948*
X03583Y02949*
X03582Y0295*
X03581Y02951*
X0358Y02952*
X03579Y02954*
X03578Y02955*
X03578Y02956*
X03577Y02958*
X03576Y02959*
X03576Y02961*
X03576Y02962*
X03575Y02964*
X03575Y02965*
X03575Y02967*
X03575Y02968*
X03574Y0297*
X03575Y02972*
X03575Y02973*
X03575Y02975*
X03575Y02976*
X03576Y02978*
X03576Y02979*
X03576Y02981*
X03577Y02982*
X03578Y02983*
X03578Y02985*
X03579Y02986*
X0358Y02987*
X03581Y02989*
X03582Y0299*
X03583Y02991*
X03584Y02992*
X03586Y02993*
X03587Y02994*
X03588Y02995*
X03589Y02996*
X03591Y02996*
X03592Y02997*
X03594Y02998*
X03595Y02998*
X03597Y02999*
X03598Y02999*
X036Y02999*
X03601Y03*
X03603Y03*
X03604Y03*
X03606Y03*
G37*
G36*
X03526D02*
X03527Y03D01*
X03529Y02999*
X0353Y02999*
X03532Y02999*
X03533Y02998*
X03535Y02998*
X03536Y02997*
X03538Y02996*
X03539Y02996*
X0354Y02995*
X03542Y02994*
X03543Y02993*
X03544Y02992*
X03545Y02991*
X03546Y0299*
X03547Y02989*
X03548Y02987*
X03549Y02986*
X0355Y02985*
X03551Y02983*
X03551Y02982*
X03552Y02981*
X03552Y02979*
X03553Y02978*
X03553Y02976*
X03554Y02975*
X03554Y02973*
X03554Y02972*
X03554Y0297*
X03554Y02968*
X03554Y02967*
X03554Y02965*
X03553Y02964*
X03553Y02962*
X03552Y02961*
X03552Y02959*
X03551Y02958*
X03551Y02956*
X0355Y02955*
X03549Y02954*
X03548Y02952*
X03547Y02951*
X03546Y0295*
X03545Y02949*
X03544Y02948*
X03543Y02947*
X03542Y02946*
X0354Y02945*
X03539Y02944*
X03538Y02943*
X03536Y02943*
X03535Y02942*
X03533Y02942*
X03532Y02941*
X0353Y02941*
X03529Y02941*
X03527Y0294*
X03526Y0294*
X03524Y0294*
X03523Y0294*
X03521Y0294*
X0352Y02941*
X03518Y02941*
X03517Y02941*
X03515Y02942*
X03514Y02942*
X03512Y02943*
X03511Y02943*
X03509Y02944*
X03508Y02945*
X03507Y02946*
X03506Y02947*
X03504Y02948*
X03503Y02949*
X03502Y0295*
X03501Y02951*
X035Y02952*
X03499Y02954*
X03498Y02955*
X03498Y02956*
X03497Y02958*
X03496Y02959*
X03496Y02961*
X03496Y02962*
X03495Y02964*
X03495Y02965*
X03495Y02967*
X03495Y02968*
X03494Y0297*
X03495Y02972*
X03495Y02973*
X03495Y02975*
X03495Y02976*
X03496Y02978*
X03496Y02979*
X03496Y02981*
X03497Y02982*
X03498Y02983*
X03498Y02985*
X03499Y02986*
X035Y02987*
X03501Y02989*
X03502Y0299*
X03503Y02991*
X03504Y02992*
X03506Y02993*
X03507Y02994*
X03508Y02995*
X03509Y02996*
X03511Y02996*
X03512Y02997*
X03514Y02998*
X03515Y02998*
X03517Y02999*
X03518Y02999*
X0352Y02999*
X03521Y03*
X03523Y03*
X03524Y03*
X03526Y03*
G37*
G36*
X03446D02*
X03447Y03D01*
X03449Y02999*
X0345Y02999*
X03452Y02999*
X03453Y02998*
X03455Y02998*
X03456Y02997*
X03458Y02996*
X03459Y02996*
X0346Y02995*
X03462Y02994*
X03463Y02993*
X03464Y02992*
X03465Y02991*
X03466Y0299*
X03467Y02989*
X03468Y02987*
X03469Y02986*
X0347Y02985*
X03471Y02983*
X03471Y02982*
X03472Y02981*
X03472Y02979*
X03473Y02978*
X03473Y02976*
X03474Y02975*
X03474Y02973*
X03474Y02972*
X03474Y0297*
X03474Y02968*
X03474Y02967*
X03474Y02965*
X03473Y02964*
X03473Y02962*
X03472Y02961*
X03472Y02959*
X03471Y02958*
X03471Y02956*
X0347Y02955*
X03469Y02954*
X03468Y02952*
X03467Y02951*
X03466Y0295*
X03465Y02949*
X03464Y02948*
X03463Y02947*
X03462Y02946*
X0346Y02945*
X03459Y02944*
X03458Y02943*
X03456Y02943*
X03455Y02942*
X03453Y02942*
X03452Y02941*
X0345Y02941*
X03449Y02941*
X03447Y0294*
X03446Y0294*
X03444Y0294*
X03443Y0294*
X03441Y0294*
X0344Y02941*
X03438Y02941*
X03437Y02941*
X03435Y02942*
X03434Y02942*
X03432Y02943*
X03431Y02943*
X03429Y02944*
X03428Y02945*
X03427Y02946*
X03426Y02947*
X03424Y02948*
X03423Y02949*
X03422Y0295*
X03421Y02951*
X0342Y02952*
X03419Y02954*
X03418Y02955*
X03418Y02956*
X03417Y02958*
X03416Y02959*
X03416Y02961*
X03416Y02962*
X03415Y02964*
X03415Y02965*
X03415Y02967*
X03415Y02968*
X03414Y0297*
X03415Y02972*
X03415Y02973*
X03415Y02975*
X03415Y02976*
X03416Y02978*
X03416Y02979*
X03416Y02981*
X03417Y02982*
X03418Y02983*
X03418Y02985*
X03419Y02986*
X0342Y02987*
X03421Y02989*
X03422Y0299*
X03423Y02991*
X03424Y02992*
X03426Y02993*
X03427Y02994*
X03428Y02995*
X03429Y02996*
X03431Y02996*
X03432Y02997*
X03434Y02998*
X03435Y02998*
X03437Y02999*
X03438Y02999*
X0344Y02999*
X03441Y03*
X03443Y03*
X03444Y03*
X03446Y03*
G37*
G36*
X03366D02*
X03368Y03D01*
X03369Y02999*
X03371Y02999*
X03372Y02999*
X03374Y02998*
X03375Y02998*
X03377Y02997*
X03378Y02996*
X03379Y02996*
X03381Y02995*
X03382Y02994*
X03383Y02993*
X03384Y02992*
X03386Y02991*
X03387Y0299*
X03388Y02989*
X03389Y02987*
X03389Y02986*
X0339Y02985*
X03391Y02983*
X03392Y02982*
X03392Y02981*
X03393Y02979*
X03393Y02978*
X03394Y02976*
X03394Y02975*
X03394Y02973*
X03394Y02972*
X03394Y0297*
X03394Y02968*
X03394Y02967*
X03394Y02965*
X03394Y02964*
X03393Y02962*
X03393Y02961*
X03392Y02959*
X03392Y02958*
X03391Y02956*
X0339Y02955*
X03389Y02954*
X03389Y02952*
X03388Y02951*
X03387Y0295*
X03386Y02949*
X03384Y02948*
X03383Y02947*
X03382Y02946*
X03381Y02945*
X03379Y02944*
X03378Y02943*
X03377Y02943*
X03375Y02942*
X03374Y02942*
X03372Y02941*
X03371Y02941*
X03369Y02941*
X03368Y0294*
X03366Y0294*
X03364Y0294*
X03363Y0294*
X03361Y0294*
X0336Y02941*
X03358Y02941*
X03357Y02941*
X03355Y02942*
X03354Y02942*
X03352Y02943*
X03351Y02943*
X0335Y02944*
X03348Y02945*
X03347Y02946*
X03346Y02947*
X03345Y02948*
X03343Y02949*
X03342Y0295*
X03341Y02951*
X0334Y02952*
X0334Y02954*
X03339Y02955*
X03338Y02956*
X03337Y02958*
X03337Y02959*
X03336Y02961*
X03336Y02962*
X03335Y02964*
X03335Y02965*
X03335Y02967*
X03335Y02968*
X03335Y0297*
X03335Y02972*
X03335Y02973*
X03335Y02975*
X03335Y02976*
X03336Y02978*
X03336Y02979*
X03337Y02981*
X03337Y02982*
X03338Y02983*
X03339Y02985*
X0334Y02986*
X0334Y02987*
X03341Y02989*
X03342Y0299*
X03343Y02991*
X03345Y02992*
X03346Y02993*
X03347Y02994*
X03348Y02995*
X0335Y02996*
X03351Y02996*
X03352Y02997*
X03354Y02998*
X03355Y02998*
X03357Y02999*
X03358Y02999*
X0336Y02999*
X03361Y03*
X03363Y03*
X03364Y03*
X03366Y03*
G37*
G36*
X04226Y03075D02*
X04227Y03075D01*
X04229Y03074*
X0423Y03074*
X04232Y03074*
X04233Y03073*
X04235Y03073*
X04236Y03072*
X04237Y03071*
X04239Y03071*
X0424Y0307*
X04241Y03069*
X04243Y03068*
X04244Y03067*
X04245Y03066*
X04246Y03065*
X04247Y03064*
X04248Y03062*
X04249Y03061*
X0425Y0306*
X0425Y03058*
X04251Y03057*
X04252Y03056*
X04252Y03054*
X04253Y03053*
X04253Y03051*
X04253Y0305*
X04254Y03048*
X04254Y03047*
X04254Y03045*
X04254Y03043*
X04254Y03042*
X04253Y0304*
X04253Y03039*
X04253Y03037*
X04252Y03036*
X04252Y03034*
X04251Y03033*
X0425Y03031*
X0425Y0303*
X04249Y03029*
X04248Y03027*
X04247Y03026*
X04246Y03025*
X04245Y03024*
X04244Y03023*
X04243Y03022*
X04241Y03021*
X0424Y0302*
X04239Y03019*
X04237Y03018*
X04236Y03018*
X04235Y03017*
X04233Y03017*
X04232Y03016*
X0423Y03016*
X04229Y03016*
X04227Y03015*
X04226Y03015*
X04224Y03015*
X04222Y03015*
X04221Y03015*
X04219Y03016*
X04218Y03016*
X04216Y03016*
X04215Y03017*
X04213Y03017*
X04212Y03018*
X0421Y03018*
X04209Y03019*
X04208Y0302*
X04206Y03021*
X04205Y03022*
X04204Y03023*
X04203Y03024*
X04202Y03025*
X04201Y03026*
X042Y03027*
X04199Y03029*
X04198Y0303*
X04197Y03031*
X04197Y03033*
X04196Y03034*
X04196Y03036*
X04195Y03037*
X04195Y03039*
X04195Y0304*
X04194Y03042*
X04194Y03043*
X04194Y03045*
X04194Y03047*
X04194Y03048*
X04195Y0305*
X04195Y03051*
X04195Y03053*
X04196Y03054*
X04196Y03056*
X04197Y03057*
X04197Y03058*
X04198Y0306*
X04199Y03061*
X042Y03062*
X04201Y03064*
X04202Y03065*
X04203Y03066*
X04204Y03067*
X04205Y03068*
X04206Y03069*
X04208Y0307*
X04209Y03071*
X0421Y03071*
X04212Y03072*
X04213Y03073*
X04215Y03073*
X04216Y03074*
X04218Y03074*
X04219Y03074*
X04221Y03075*
X04222Y03075*
X04224Y03075*
X04226Y03075*
G37*
G36*
X04146D02*
X04147Y03075D01*
X04149Y03074*
X0415Y03074*
X04152Y03074*
X04153Y03073*
X04155Y03073*
X04156Y03072*
X04157Y03071*
X04159Y03071*
X0416Y0307*
X04161Y03069*
X04163Y03068*
X04164Y03067*
X04165Y03066*
X04166Y03065*
X04167Y03064*
X04168Y03062*
X04169Y03061*
X0417Y0306*
X0417Y03058*
X04171Y03057*
X04172Y03056*
X04172Y03054*
X04173Y03053*
X04173Y03051*
X04173Y0305*
X04174Y03048*
X04174Y03047*
X04174Y03045*
X04174Y03043*
X04174Y03042*
X04173Y0304*
X04173Y03039*
X04173Y03037*
X04172Y03036*
X04172Y03034*
X04171Y03033*
X0417Y03031*
X0417Y0303*
X04169Y03029*
X04168Y03027*
X04167Y03026*
X04166Y03025*
X04165Y03024*
X04164Y03023*
X04163Y03022*
X04161Y03021*
X0416Y0302*
X04159Y03019*
X04157Y03018*
X04156Y03018*
X04155Y03017*
X04153Y03017*
X04152Y03016*
X0415Y03016*
X04149Y03016*
X04147Y03015*
X04146Y03015*
X04144Y03015*
X04142Y03015*
X04141Y03015*
X04139Y03016*
X04138Y03016*
X04136Y03016*
X04135Y03017*
X04133Y03017*
X04132Y03018*
X0413Y03018*
X04129Y03019*
X04128Y0302*
X04126Y03021*
X04125Y03022*
X04124Y03023*
X04123Y03024*
X04122Y03025*
X04121Y03026*
X0412Y03027*
X04119Y03029*
X04118Y0303*
X04117Y03031*
X04117Y03033*
X04116Y03034*
X04116Y03036*
X04115Y03037*
X04115Y03039*
X04115Y0304*
X04114Y03042*
X04114Y03043*
X04114Y03045*
X04114Y03047*
X04114Y03048*
X04115Y0305*
X04115Y03051*
X04115Y03053*
X04116Y03054*
X04116Y03056*
X04117Y03057*
X04117Y03058*
X04118Y0306*
X04119Y03061*
X0412Y03062*
X04121Y03064*
X04122Y03065*
X04123Y03066*
X04124Y03067*
X04125Y03068*
X04126Y03069*
X04128Y0307*
X04129Y03071*
X0413Y03071*
X04132Y03072*
X04133Y03073*
X04135Y03073*
X04136Y03074*
X04138Y03074*
X04139Y03074*
X04141Y03075*
X04142Y03075*
X04144Y03075*
X04146Y03075*
G37*
G36*
X04066D02*
X04067Y03075D01*
X04069Y03074*
X0407Y03074*
X04072Y03074*
X04073Y03073*
X04075Y03073*
X04076Y03072*
X04077Y03071*
X04079Y03071*
X0408Y0307*
X04081Y03069*
X04083Y03068*
X04084Y03067*
X04085Y03066*
X04086Y03065*
X04087Y03064*
X04088Y03062*
X04089Y03061*
X0409Y0306*
X0409Y03058*
X04091Y03057*
X04092Y03056*
X04092Y03054*
X04093Y03053*
X04093Y03051*
X04093Y0305*
X04094Y03048*
X04094Y03047*
X04094Y03045*
X04094Y03043*
X04094Y03042*
X04093Y0304*
X04093Y03039*
X04093Y03037*
X04092Y03036*
X04092Y03034*
X04091Y03033*
X0409Y03031*
X0409Y0303*
X04089Y03029*
X04088Y03027*
X04087Y03026*
X04086Y03025*
X04085Y03024*
X04084Y03023*
X04083Y03022*
X04081Y03021*
X0408Y0302*
X04079Y03019*
X04077Y03018*
X04076Y03018*
X04075Y03017*
X04073Y03017*
X04072Y03016*
X0407Y03016*
X04069Y03016*
X04067Y03015*
X04066Y03015*
X04064Y03015*
X04062Y03015*
X04061Y03015*
X04059Y03016*
X04058Y03016*
X04056Y03016*
X04055Y03017*
X04053Y03017*
X04052Y03018*
X0405Y03018*
X04049Y03019*
X04048Y0302*
X04046Y03021*
X04045Y03022*
X04044Y03023*
X04043Y03024*
X04042Y03025*
X04041Y03026*
X0404Y03027*
X04039Y03029*
X04038Y0303*
X04037Y03031*
X04037Y03033*
X04036Y03034*
X04036Y03036*
X04035Y03037*
X04035Y03039*
X04035Y0304*
X04034Y03042*
X04034Y03043*
X04034Y03045*
X04034Y03047*
X04034Y03048*
X04035Y0305*
X04035Y03051*
X04035Y03053*
X04036Y03054*
X04036Y03056*
X04037Y03057*
X04037Y03058*
X04038Y0306*
X04039Y03061*
X0404Y03062*
X04041Y03064*
X04042Y03065*
X04043Y03066*
X04044Y03067*
X04045Y03068*
X04046Y03069*
X04048Y0307*
X04049Y03071*
X0405Y03071*
X04052Y03072*
X04053Y03073*
X04055Y03073*
X04056Y03074*
X04058Y03074*
X04059Y03074*
X04061Y03075*
X04062Y03075*
X04064Y03075*
X04066Y03075*
G37*
G36*
X03986D02*
X03987Y03075D01*
X03989Y03074*
X0399Y03074*
X03992Y03074*
X03993Y03073*
X03995Y03073*
X03996Y03072*
X03997Y03071*
X03999Y03071*
X04Y0307*
X04001Y03069*
X04003Y03068*
X04004Y03067*
X04005Y03066*
X04006Y03065*
X04007Y03064*
X04008Y03062*
X04009Y03061*
X0401Y0306*
X0401Y03058*
X04011Y03057*
X04012Y03056*
X04012Y03054*
X04013Y03053*
X04013Y03051*
X04013Y0305*
X04014Y03048*
X04014Y03047*
X04014Y03045*
X04014Y03043*
X04014Y03042*
X04013Y0304*
X04013Y03039*
X04013Y03037*
X04012Y03036*
X04012Y03034*
X04011Y03033*
X0401Y03031*
X0401Y0303*
X04009Y03029*
X04008Y03027*
X04007Y03026*
X04006Y03025*
X04005Y03024*
X04004Y03023*
X04003Y03022*
X04001Y03021*
X04Y0302*
X03999Y03019*
X03997Y03018*
X03996Y03018*
X03995Y03017*
X03993Y03017*
X03992Y03016*
X0399Y03016*
X03989Y03016*
X03987Y03015*
X03986Y03015*
X03984Y03015*
X03982Y03015*
X03981Y03015*
X03979Y03016*
X03978Y03016*
X03976Y03016*
X03975Y03017*
X03973Y03017*
X03972Y03018*
X0397Y03018*
X03969Y03019*
X03968Y0302*
X03966Y03021*
X03965Y03022*
X03964Y03023*
X03963Y03024*
X03962Y03025*
X03961Y03026*
X0396Y03027*
X03959Y03029*
X03958Y0303*
X03957Y03031*
X03957Y03033*
X03956Y03034*
X03956Y03036*
X03955Y03037*
X03955Y03039*
X03955Y0304*
X03954Y03042*
X03954Y03043*
X03954Y03045*
X03954Y03047*
X03954Y03048*
X03955Y0305*
X03955Y03051*
X03955Y03053*
X03956Y03054*
X03956Y03056*
X03957Y03057*
X03957Y03058*
X03958Y0306*
X03959Y03061*
X0396Y03062*
X03961Y03064*
X03962Y03065*
X03963Y03066*
X03964Y03067*
X03965Y03068*
X03966Y03069*
X03968Y0307*
X03969Y03071*
X0397Y03071*
X03972Y03072*
X03973Y03073*
X03975Y03073*
X03976Y03074*
X03978Y03074*
X03979Y03074*
X03981Y03075*
X03982Y03075*
X03984Y03075*
X03986Y03075*
G37*
G36*
X03906D02*
X03907Y03075D01*
X03909Y03074*
X0391Y03074*
X03912Y03074*
X03913Y03073*
X03915Y03073*
X03916Y03072*
X03918Y03071*
X03919Y03071*
X0392Y0307*
X03922Y03069*
X03923Y03068*
X03924Y03067*
X03925Y03066*
X03926Y03065*
X03927Y03064*
X03928Y03062*
X03929Y03061*
X0393Y0306*
X03931Y03058*
X03931Y03057*
X03932Y03056*
X03932Y03054*
X03933Y03053*
X03933Y03051*
X03934Y0305*
X03934Y03048*
X03934Y03047*
X03934Y03045*
X03934Y03043*
X03934Y03042*
X03934Y0304*
X03933Y03039*
X03933Y03037*
X03932Y03036*
X03932Y03034*
X03931Y03033*
X03931Y03031*
X0393Y0303*
X03929Y03029*
X03928Y03027*
X03927Y03026*
X03926Y03025*
X03925Y03024*
X03924Y03023*
X03923Y03022*
X03922Y03021*
X0392Y0302*
X03919Y03019*
X03918Y03018*
X03916Y03018*
X03915Y03017*
X03913Y03017*
X03912Y03016*
X0391Y03016*
X03909Y03016*
X03907Y03015*
X03906Y03015*
X03904Y03015*
X03903Y03015*
X03901Y03015*
X039Y03016*
X03898Y03016*
X03897Y03016*
X03895Y03017*
X03894Y03017*
X03892Y03018*
X03891Y03018*
X03889Y03019*
X03888Y0302*
X03887Y03021*
X03886Y03022*
X03884Y03023*
X03883Y03024*
X03882Y03025*
X03881Y03026*
X0388Y03027*
X03879Y03029*
X03878Y0303*
X03878Y03031*
X03877Y03033*
X03876Y03034*
X03876Y03036*
X03876Y03037*
X03875Y03039*
X03875Y0304*
X03875Y03042*
X03875Y03043*
X03874Y03045*
X03875Y03047*
X03875Y03048*
X03875Y0305*
X03875Y03051*
X03876Y03053*
X03876Y03054*
X03876Y03056*
X03877Y03057*
X03878Y03058*
X03878Y0306*
X03879Y03061*
X0388Y03062*
X03881Y03064*
X03882Y03065*
X03883Y03066*
X03884Y03067*
X03886Y03068*
X03887Y03069*
X03888Y0307*
X03889Y03071*
X03891Y03071*
X03892Y03072*
X03894Y03073*
X03895Y03073*
X03897Y03074*
X03898Y03074*
X039Y03074*
X03901Y03075*
X03903Y03075*
X03904Y03075*
X03906Y03075*
G37*
G36*
X03906Y02995D02*
X03908Y02995D01*
X03909Y02994*
X03911Y02994*
X03912Y02994*
X03914Y02993*
X03915Y02993*
X03917Y02992*
X03918Y02991*
X03919Y02991*
X03921Y0299*
X03922Y02989*
X03923Y02988*
X03924Y02987*
X03926Y02986*
X03927Y02985*
X03928Y02984*
X03929Y02982*
X03929Y02981*
X0393Y0298*
X03931Y02978*
X03932Y02977*
X03932Y02976*
X03933Y02974*
X03933Y02973*
X03934Y02971*
X03934Y0297*
X03934Y02968*
X03934Y02967*
X03934Y02965*
X03934Y02963*
X03934Y02962*
X03934Y0296*
X03934Y02959*
X03933Y02957*
X03933Y02956*
X03932Y02954*
X03932Y02953*
X03931Y02951*
X0393Y0295*
X03929Y02949*
X03929Y02947*
X03928Y02946*
X03927Y02945*
X03926Y02944*
X03924Y02943*
X03923Y02942*
X03922Y02941*
X03921Y0294*
X03919Y02939*
X03918Y02938*
X03917Y02938*
X03915Y02937*
X03914Y02937*
X03912Y02936*
X03911Y02936*
X03909Y02936*
X03908Y02935*
X03906Y02935*
X03904Y02935*
X03903Y02935*
X03901Y02935*
X039Y02936*
X03898Y02936*
X03897Y02936*
X03895Y02937*
X03894Y02937*
X03892Y02938*
X03891Y02938*
X0389Y02939*
X03888Y0294*
X03887Y02941*
X03886Y02942*
X03885Y02943*
X03883Y02944*
X03882Y02945*
X03881Y02946*
X0388Y02947*
X0388Y02949*
X03879Y0295*
X03878Y02951*
X03877Y02953*
X03877Y02954*
X03876Y02956*
X03876Y02957*
X03875Y02959*
X03875Y0296*
X03875Y02962*
X03875Y02963*
X03875Y02965*
X03875Y02967*
X03875Y02968*
X03875Y0297*
X03875Y02971*
X03876Y02973*
X03876Y02974*
X03877Y02976*
X03877Y02977*
X03878Y02978*
X03879Y0298*
X0388Y02981*
X0388Y02982*
X03881Y02984*
X03882Y02985*
X03883Y02986*
X03885Y02987*
X03886Y02988*
X03887Y02989*
X03888Y0299*
X0389Y02991*
X03891Y02991*
X03892Y02992*
X03894Y02993*
X03895Y02993*
X03897Y02994*
X03898Y02994*
X039Y02994*
X03901Y02995*
X03903Y02995*
X03904Y02995*
X03906Y02995*
G37*
G36*
X04226D02*
X04227Y02995D01*
X04229Y02994*
X0423Y02994*
X04232Y02994*
X04233Y02993*
X04235Y02993*
X04236Y02992*
X04238Y02991*
X04239Y02991*
X0424Y0299*
X04242Y02989*
X04243Y02988*
X04244Y02987*
X04245Y02986*
X04246Y02985*
X04247Y02984*
X04248Y02982*
X04249Y02981*
X0425Y0298*
X04251Y02978*
X04251Y02977*
X04252Y02976*
X04252Y02974*
X04253Y02973*
X04253Y02971*
X04254Y0297*
X04254Y02968*
X04254Y02967*
X04254Y02965*
X04254Y02963*
X04254Y02962*
X04254Y0296*
X04253Y02959*
X04253Y02957*
X04252Y02956*
X04252Y02954*
X04251Y02953*
X04251Y02951*
X0425Y0295*
X04249Y02949*
X04248Y02947*
X04247Y02946*
X04246Y02945*
X04245Y02944*
X04244Y02943*
X04243Y02942*
X04242Y02941*
X0424Y0294*
X04239Y02939*
X04238Y02938*
X04236Y02938*
X04235Y02937*
X04233Y02937*
X04232Y02936*
X0423Y02936*
X04229Y02936*
X04227Y02935*
X04226Y02935*
X04224Y02935*
X04223Y02935*
X04221Y02935*
X0422Y02936*
X04218Y02936*
X04217Y02936*
X04215Y02937*
X04214Y02937*
X04212Y02938*
X04211Y02938*
X04209Y02939*
X04208Y0294*
X04207Y02941*
X04206Y02942*
X04204Y02943*
X04203Y02944*
X04202Y02945*
X04201Y02946*
X042Y02947*
X04199Y02949*
X04198Y0295*
X04198Y02951*
X04197Y02953*
X04196Y02954*
X04196Y02956*
X04196Y02957*
X04195Y02959*
X04195Y0296*
X04195Y02962*
X04195Y02963*
X04194Y02965*
X04195Y02967*
X04195Y02968*
X04195Y0297*
X04195Y02971*
X04196Y02973*
X04196Y02974*
X04196Y02976*
X04197Y02977*
X04198Y02978*
X04198Y0298*
X04199Y02981*
X042Y02982*
X04201Y02984*
X04202Y02985*
X04203Y02986*
X04204Y02987*
X04206Y02988*
X04207Y02989*
X04208Y0299*
X04209Y02991*
X04211Y02991*
X04212Y02992*
X04214Y02993*
X04215Y02993*
X04217Y02994*
X04218Y02994*
X0422Y02994*
X04221Y02995*
X04223Y02995*
X04224Y02995*
X04226Y02995*
G37*
G36*
X04146D02*
X04147Y02995D01*
X04149Y02994*
X0415Y02994*
X04152Y02994*
X04153Y02993*
X04155Y02993*
X04156Y02992*
X04158Y02991*
X04159Y02991*
X0416Y0299*
X04162Y02989*
X04163Y02988*
X04164Y02987*
X04165Y02986*
X04166Y02985*
X04167Y02984*
X04168Y02982*
X04169Y02981*
X0417Y0298*
X04171Y02978*
X04171Y02977*
X04172Y02976*
X04172Y02974*
X04173Y02973*
X04173Y02971*
X04174Y0297*
X04174Y02968*
X04174Y02967*
X04174Y02965*
X04174Y02963*
X04174Y02962*
X04174Y0296*
X04173Y02959*
X04173Y02957*
X04172Y02956*
X04172Y02954*
X04171Y02953*
X04171Y02951*
X0417Y0295*
X04169Y02949*
X04168Y02947*
X04167Y02946*
X04166Y02945*
X04165Y02944*
X04164Y02943*
X04163Y02942*
X04162Y02941*
X0416Y0294*
X04159Y02939*
X04158Y02938*
X04156Y02938*
X04155Y02937*
X04153Y02937*
X04152Y02936*
X0415Y02936*
X04149Y02936*
X04147Y02935*
X04146Y02935*
X04144Y02935*
X04143Y02935*
X04141Y02935*
X0414Y02936*
X04138Y02936*
X04137Y02936*
X04135Y02937*
X04134Y02937*
X04132Y02938*
X04131Y02938*
X04129Y02939*
X04128Y0294*
X04127Y02941*
X04126Y02942*
X04124Y02943*
X04123Y02944*
X04122Y02945*
X04121Y02946*
X0412Y02947*
X04119Y02949*
X04118Y0295*
X04118Y02951*
X04117Y02953*
X04116Y02954*
X04116Y02956*
X04116Y02957*
X04115Y02959*
X04115Y0296*
X04115Y02962*
X04115Y02963*
X04114Y02965*
X04115Y02967*
X04115Y02968*
X04115Y0297*
X04115Y02971*
X04116Y02973*
X04116Y02974*
X04116Y02976*
X04117Y02977*
X04118Y02978*
X04118Y0298*
X04119Y02981*
X0412Y02982*
X04121Y02984*
X04122Y02985*
X04123Y02986*
X04124Y02987*
X04126Y02988*
X04127Y02989*
X04128Y0299*
X04129Y02991*
X04131Y02991*
X04132Y02992*
X04134Y02993*
X04135Y02993*
X04137Y02994*
X04138Y02994*
X0414Y02994*
X04141Y02995*
X04143Y02995*
X04144Y02995*
X04146Y02995*
G37*
G36*
X04066D02*
X04067Y02995D01*
X04069Y02994*
X0407Y02994*
X04072Y02994*
X04073Y02993*
X04075Y02993*
X04076Y02992*
X04078Y02991*
X04079Y02991*
X0408Y0299*
X04082Y02989*
X04083Y02988*
X04084Y02987*
X04085Y02986*
X04086Y02985*
X04087Y02984*
X04088Y02982*
X04089Y02981*
X0409Y0298*
X04091Y02978*
X04091Y02977*
X04092Y02976*
X04092Y02974*
X04093Y02973*
X04093Y02971*
X04094Y0297*
X04094Y02968*
X04094Y02967*
X04094Y02965*
X04094Y02963*
X04094Y02962*
X04094Y0296*
X04093Y02959*
X04093Y02957*
X04092Y02956*
X04092Y02954*
X04091Y02953*
X04091Y02951*
X0409Y0295*
X04089Y02949*
X04088Y02947*
X04087Y02946*
X04086Y02945*
X04085Y02944*
X04084Y02943*
X04083Y02942*
X04082Y02941*
X0408Y0294*
X04079Y02939*
X04078Y02938*
X04076Y02938*
X04075Y02937*
X04073Y02937*
X04072Y02936*
X0407Y02936*
X04069Y02936*
X04067Y02935*
X04066Y02935*
X04064Y02935*
X04063Y02935*
X04061Y02935*
X0406Y02936*
X04058Y02936*
X04057Y02936*
X04055Y02937*
X04054Y02937*
X04052Y02938*
X04051Y02938*
X04049Y02939*
X04048Y0294*
X04047Y02941*
X04046Y02942*
X04044Y02943*
X04043Y02944*
X04042Y02945*
X04041Y02946*
X0404Y02947*
X04039Y02949*
X04038Y0295*
X04038Y02951*
X04037Y02953*
X04036Y02954*
X04036Y02956*
X04036Y02957*
X04035Y02959*
X04035Y0296*
X04035Y02962*
X04035Y02963*
X04034Y02965*
X04035Y02967*
X04035Y02968*
X04035Y0297*
X04035Y02971*
X04036Y02973*
X04036Y02974*
X04036Y02976*
X04037Y02977*
X04038Y02978*
X04038Y0298*
X04039Y02981*
X0404Y02982*
X04041Y02984*
X04042Y02985*
X04043Y02986*
X04044Y02987*
X04046Y02988*
X04047Y02989*
X04048Y0299*
X04049Y02991*
X04051Y02991*
X04052Y02992*
X04054Y02993*
X04055Y02993*
X04057Y02994*
X04058Y02994*
X0406Y02994*
X04061Y02995*
X04063Y02995*
X04064Y02995*
X04066Y02995*
G37*
G36*
X03986D02*
X03987Y02995D01*
X03989Y02994*
X0399Y02994*
X03992Y02994*
X03993Y02993*
X03995Y02993*
X03996Y02992*
X03998Y02991*
X03999Y02991*
X04Y0299*
X04002Y02989*
X04003Y02988*
X04004Y02987*
X04005Y02986*
X04006Y02985*
X04007Y02984*
X04008Y02982*
X04009Y02981*
X0401Y0298*
X04011Y02978*
X04011Y02977*
X04012Y02976*
X04012Y02974*
X04013Y02973*
X04013Y02971*
X04014Y0297*
X04014Y02968*
X04014Y02967*
X04014Y02965*
X04014Y02963*
X04014Y02962*
X04014Y0296*
X04013Y02959*
X04013Y02957*
X04012Y02956*
X04012Y02954*
X04011Y02953*
X04011Y02951*
X0401Y0295*
X04009Y02949*
X04008Y02947*
X04007Y02946*
X04006Y02945*
X04005Y02944*
X04004Y02943*
X04003Y02942*
X04002Y02941*
X04Y0294*
X03999Y02939*
X03998Y02938*
X03996Y02938*
X03995Y02937*
X03993Y02937*
X03992Y02936*
X0399Y02936*
X03989Y02936*
X03987Y02935*
X03986Y02935*
X03984Y02935*
X03983Y02935*
X03981Y02935*
X0398Y02936*
X03978Y02936*
X03977Y02936*
X03975Y02937*
X03974Y02937*
X03972Y02938*
X03971Y02938*
X03969Y02939*
X03968Y0294*
X03967Y02941*
X03966Y02942*
X03964Y02943*
X03963Y02944*
X03962Y02945*
X03961Y02946*
X0396Y02947*
X03959Y02949*
X03958Y0295*
X03958Y02951*
X03957Y02953*
X03956Y02954*
X03956Y02956*
X03956Y02957*
X03955Y02959*
X03955Y0296*
X03955Y02962*
X03955Y02963*
X03954Y02965*
X03955Y02967*
X03955Y02968*
X03955Y0297*
X03955Y02971*
X03956Y02973*
X03956Y02974*
X03956Y02976*
X03957Y02977*
X03958Y02978*
X03958Y0298*
X03959Y02981*
X0396Y02982*
X03961Y02984*
X03962Y02985*
X03963Y02986*
X03964Y02987*
X03966Y02988*
X03967Y02989*
X03968Y0299*
X03969Y02991*
X03971Y02991*
X03972Y02992*
X03974Y02993*
X03975Y02993*
X03977Y02994*
X03978Y02994*
X0398Y02994*
X03981Y02995*
X03983Y02995*
X03984Y02995*
X03986Y02995*
G37*
G36*
X04626Y03075D02*
X04627Y03075D01*
X04629Y03074*
X0463Y03074*
X04632Y03074*
X04633Y03073*
X04635Y03073*
X04636Y03072*
X04637Y03071*
X04639Y03071*
X0464Y0307*
X04641Y03069*
X04643Y03068*
X04644Y03067*
X04645Y03066*
X04646Y03065*
X04647Y03064*
X04648Y03062*
X04649Y03061*
X0465Y0306*
X0465Y03058*
X04651Y03057*
X04652Y03056*
X04652Y03054*
X04653Y03053*
X04653Y03051*
X04653Y0305*
X04654Y03048*
X04654Y03047*
X04654Y03045*
X04654Y03043*
X04654Y03042*
X04653Y0304*
X04653Y03039*
X04653Y03037*
X04652Y03036*
X04652Y03034*
X04651Y03033*
X0465Y03031*
X0465Y0303*
X04649Y03029*
X04648Y03027*
X04647Y03026*
X04646Y03025*
X04645Y03024*
X04644Y03023*
X04643Y03022*
X04641Y03021*
X0464Y0302*
X04639Y03019*
X04637Y03018*
X04636Y03018*
X04635Y03017*
X04633Y03017*
X04632Y03016*
X0463Y03016*
X04629Y03016*
X04627Y03015*
X04626Y03015*
X04624Y03015*
X04622Y03015*
X04621Y03015*
X04619Y03016*
X04618Y03016*
X04616Y03016*
X04615Y03017*
X04613Y03017*
X04612Y03018*
X0461Y03018*
X04609Y03019*
X04608Y0302*
X04606Y03021*
X04605Y03022*
X04604Y03023*
X04603Y03024*
X04602Y03025*
X04601Y03026*
X046Y03027*
X04599Y03029*
X04598Y0303*
X04597Y03031*
X04597Y03033*
X04596Y03034*
X04596Y03036*
X04595Y03037*
X04595Y03039*
X04595Y0304*
X04594Y03042*
X04594Y03043*
X04594Y03045*
X04594Y03047*
X04594Y03048*
X04595Y0305*
X04595Y03051*
X04595Y03053*
X04596Y03054*
X04596Y03056*
X04597Y03057*
X04597Y03058*
X04598Y0306*
X04599Y03061*
X046Y03062*
X04601Y03064*
X04602Y03065*
X04603Y03066*
X04604Y03067*
X04605Y03068*
X04606Y03069*
X04608Y0307*
X04609Y03071*
X0461Y03071*
X04612Y03072*
X04613Y03073*
X04615Y03073*
X04616Y03074*
X04618Y03074*
X04619Y03074*
X04621Y03075*
X04622Y03075*
X04624Y03075*
X04626Y03075*
G37*
G36*
X04546D02*
X04547Y03075D01*
X04549Y03074*
X0455Y03074*
X04552Y03074*
X04553Y03073*
X04555Y03073*
X04556Y03072*
X04557Y03071*
X04559Y03071*
X0456Y0307*
X04561Y03069*
X04563Y03068*
X04564Y03067*
X04565Y03066*
X04566Y03065*
X04567Y03064*
X04568Y03062*
X04569Y03061*
X0457Y0306*
X0457Y03058*
X04571Y03057*
X04572Y03056*
X04572Y03054*
X04573Y03053*
X04573Y03051*
X04573Y0305*
X04574Y03048*
X04574Y03047*
X04574Y03045*
X04574Y03043*
X04574Y03042*
X04573Y0304*
X04573Y03039*
X04573Y03037*
X04572Y03036*
X04572Y03034*
X04571Y03033*
X0457Y03031*
X0457Y0303*
X04569Y03029*
X04568Y03027*
X04567Y03026*
X04566Y03025*
X04565Y03024*
X04564Y03023*
X04563Y03022*
X04561Y03021*
X0456Y0302*
X04559Y03019*
X04557Y03018*
X04556Y03018*
X04555Y03017*
X04553Y03017*
X04552Y03016*
X0455Y03016*
X04549Y03016*
X04547Y03015*
X04546Y03015*
X04544Y03015*
X04542Y03015*
X04541Y03015*
X04539Y03016*
X04538Y03016*
X04536Y03016*
X04535Y03017*
X04533Y03017*
X04532Y03018*
X0453Y03018*
X04529Y03019*
X04528Y0302*
X04526Y03021*
X04525Y03022*
X04524Y03023*
X04523Y03024*
X04522Y03025*
X04521Y03026*
X0452Y03027*
X04519Y03029*
X04518Y0303*
X04517Y03031*
X04517Y03033*
X04516Y03034*
X04516Y03036*
X04515Y03037*
X04515Y03039*
X04515Y0304*
X04514Y03042*
X04514Y03043*
X04514Y03045*
X04514Y03047*
X04514Y03048*
X04515Y0305*
X04515Y03051*
X04515Y03053*
X04516Y03054*
X04516Y03056*
X04517Y03057*
X04517Y03058*
X04518Y0306*
X04519Y03061*
X0452Y03062*
X04521Y03064*
X04522Y03065*
X04523Y03066*
X04524Y03067*
X04525Y03068*
X04526Y03069*
X04528Y0307*
X04529Y03071*
X0453Y03071*
X04532Y03072*
X04533Y03073*
X04535Y03073*
X04536Y03074*
X04538Y03074*
X04539Y03074*
X04541Y03075*
X04542Y03075*
X04544Y03075*
X04546Y03075*
G37*
G36*
X04466D02*
X04467Y03075D01*
X04469Y03074*
X0447Y03074*
X04472Y03074*
X04473Y03073*
X04475Y03073*
X04476Y03072*
X04477Y03071*
X04479Y03071*
X0448Y0307*
X04481Y03069*
X04483Y03068*
X04484Y03067*
X04485Y03066*
X04486Y03065*
X04487Y03064*
X04488Y03062*
X04489Y03061*
X0449Y0306*
X0449Y03058*
X04491Y03057*
X04492Y03056*
X04492Y03054*
X04493Y03053*
X04493Y03051*
X04493Y0305*
X04494Y03048*
X04494Y03047*
X04494Y03045*
X04494Y03043*
X04494Y03042*
X04493Y0304*
X04493Y03039*
X04493Y03037*
X04492Y03036*
X04492Y03034*
X04491Y03033*
X0449Y03031*
X0449Y0303*
X04489Y03029*
X04488Y03027*
X04487Y03026*
X04486Y03025*
X04485Y03024*
X04484Y03023*
X04483Y03022*
X04481Y03021*
X0448Y0302*
X04479Y03019*
X04477Y03018*
X04476Y03018*
X04475Y03017*
X04473Y03017*
X04472Y03016*
X0447Y03016*
X04469Y03016*
X04467Y03015*
X04466Y03015*
X04464Y03015*
X04462Y03015*
X04461Y03015*
X04459Y03016*
X04458Y03016*
X04456Y03016*
X04455Y03017*
X04453Y03017*
X04452Y03018*
X0445Y03018*
X04449Y03019*
X04448Y0302*
X04446Y03021*
X04445Y03022*
X04444Y03023*
X04443Y03024*
X04442Y03025*
X04441Y03026*
X0444Y03027*
X04439Y03029*
X04438Y0303*
X04437Y03031*
X04437Y03033*
X04436Y03034*
X04436Y03036*
X04435Y03037*
X04435Y03039*
X04435Y0304*
X04434Y03042*
X04434Y03043*
X04434Y03045*
X04434Y03047*
X04434Y03048*
X04435Y0305*
X04435Y03051*
X04435Y03053*
X04436Y03054*
X04436Y03056*
X04437Y03057*
X04437Y03058*
X04438Y0306*
X04439Y03061*
X0444Y03062*
X04441Y03064*
X04442Y03065*
X04443Y03066*
X04444Y03067*
X04445Y03068*
X04446Y03069*
X04448Y0307*
X04449Y03071*
X0445Y03071*
X04452Y03072*
X04453Y03073*
X04455Y03073*
X04456Y03074*
X04458Y03074*
X04459Y03074*
X04461Y03075*
X04462Y03075*
X04464Y03075*
X04466Y03075*
G37*
G36*
X04386D02*
X04387Y03075D01*
X04389Y03074*
X0439Y03074*
X04392Y03074*
X04393Y03073*
X04395Y03073*
X04396Y03072*
X04397Y03071*
X04399Y03071*
X044Y0307*
X04401Y03069*
X04403Y03068*
X04404Y03067*
X04405Y03066*
X04406Y03065*
X04407Y03064*
X04408Y03062*
X04409Y03061*
X0441Y0306*
X0441Y03058*
X04411Y03057*
X04412Y03056*
X04412Y03054*
X04413Y03053*
X04413Y03051*
X04413Y0305*
X04414Y03048*
X04414Y03047*
X04414Y03045*
X04414Y03043*
X04414Y03042*
X04413Y0304*
X04413Y03039*
X04413Y03037*
X04412Y03036*
X04412Y03034*
X04411Y03033*
X0441Y03031*
X0441Y0303*
X04409Y03029*
X04408Y03027*
X04407Y03026*
X04406Y03025*
X04405Y03024*
X04404Y03023*
X04403Y03022*
X04401Y03021*
X044Y0302*
X04399Y03019*
X04397Y03018*
X04396Y03018*
X04395Y03017*
X04393Y03017*
X04392Y03016*
X0439Y03016*
X04389Y03016*
X04387Y03015*
X04386Y03015*
X04384Y03015*
X04382Y03015*
X04381Y03015*
X04379Y03016*
X04378Y03016*
X04376Y03016*
X04375Y03017*
X04373Y03017*
X04372Y03018*
X0437Y03018*
X04369Y03019*
X04368Y0302*
X04366Y03021*
X04365Y03022*
X04364Y03023*
X04363Y03024*
X04362Y03025*
X04361Y03026*
X0436Y03027*
X04359Y03029*
X04358Y0303*
X04357Y03031*
X04357Y03033*
X04356Y03034*
X04356Y03036*
X04355Y03037*
X04355Y03039*
X04355Y0304*
X04354Y03042*
X04354Y03043*
X04354Y03045*
X04354Y03047*
X04354Y03048*
X04355Y0305*
X04355Y03051*
X04355Y03053*
X04356Y03054*
X04356Y03056*
X04357Y03057*
X04357Y03058*
X04358Y0306*
X04359Y03061*
X0436Y03062*
X04361Y03064*
X04362Y03065*
X04363Y03066*
X04364Y03067*
X04365Y03068*
X04366Y03069*
X04368Y0307*
X04369Y03071*
X0437Y03071*
X04372Y03072*
X04373Y03073*
X04375Y03073*
X04376Y03074*
X04378Y03074*
X04379Y03074*
X04381Y03075*
X04382Y03075*
X04384Y03075*
X04386Y03075*
G37*
G36*
X04306D02*
X04307Y03075D01*
X04309Y03074*
X0431Y03074*
X04312Y03074*
X04313Y03073*
X04315Y03073*
X04316Y03072*
X04318Y03071*
X04319Y03071*
X0432Y0307*
X04322Y03069*
X04323Y03068*
X04324Y03067*
X04325Y03066*
X04326Y03065*
X04327Y03064*
X04328Y03062*
X04329Y03061*
X0433Y0306*
X04331Y03058*
X04331Y03057*
X04332Y03056*
X04332Y03054*
X04333Y03053*
X04333Y03051*
X04334Y0305*
X04334Y03048*
X04334Y03047*
X04334Y03045*
X04334Y03043*
X04334Y03042*
X04334Y0304*
X04333Y03039*
X04333Y03037*
X04332Y03036*
X04332Y03034*
X04331Y03033*
X04331Y03031*
X0433Y0303*
X04329Y03029*
X04328Y03027*
X04327Y03026*
X04326Y03025*
X04325Y03024*
X04324Y03023*
X04323Y03022*
X04322Y03021*
X0432Y0302*
X04319Y03019*
X04318Y03018*
X04316Y03018*
X04315Y03017*
X04313Y03017*
X04312Y03016*
X0431Y03016*
X04309Y03016*
X04307Y03015*
X04306Y03015*
X04304Y03015*
X04303Y03015*
X04301Y03015*
X043Y03016*
X04298Y03016*
X04297Y03016*
X04295Y03017*
X04294Y03017*
X04292Y03018*
X04291Y03018*
X04289Y03019*
X04288Y0302*
X04287Y03021*
X04286Y03022*
X04284Y03023*
X04283Y03024*
X04282Y03025*
X04281Y03026*
X0428Y03027*
X04279Y03029*
X04278Y0303*
X04278Y03031*
X04277Y03033*
X04276Y03034*
X04276Y03036*
X04276Y03037*
X04275Y03039*
X04275Y0304*
X04275Y03042*
X04275Y03043*
X04274Y03045*
X04275Y03047*
X04275Y03048*
X04275Y0305*
X04275Y03051*
X04276Y03053*
X04276Y03054*
X04276Y03056*
X04277Y03057*
X04278Y03058*
X04278Y0306*
X04279Y03061*
X0428Y03062*
X04281Y03064*
X04282Y03065*
X04283Y03066*
X04284Y03067*
X04286Y03068*
X04287Y03069*
X04288Y0307*
X04289Y03071*
X04291Y03071*
X04292Y03072*
X04294Y03073*
X04295Y03073*
X04297Y03074*
X04298Y03074*
X043Y03074*
X04301Y03075*
X04303Y03075*
X04304Y03075*
X04306Y03075*
G37*
G36*
X04626Y02995D02*
X04627Y02995D01*
X04629Y02994*
X0463Y02994*
X04632Y02994*
X04633Y02993*
X04635Y02993*
X04636Y02992*
X04638Y02991*
X04639Y02991*
X0464Y0299*
X04642Y02989*
X04643Y02988*
X04644Y02987*
X04645Y02986*
X04646Y02985*
X04647Y02984*
X04648Y02982*
X04649Y02981*
X0465Y0298*
X04651Y02978*
X04651Y02977*
X04652Y02976*
X04652Y02974*
X04653Y02973*
X04653Y02971*
X04654Y0297*
X04654Y02968*
X04654Y02967*
X04654Y02965*
X04654Y02963*
X04654Y02962*
X04654Y0296*
X04653Y02959*
X04653Y02957*
X04652Y02956*
X04652Y02954*
X04651Y02953*
X04651Y02951*
X0465Y0295*
X04649Y02949*
X04648Y02947*
X04647Y02946*
X04646Y02945*
X04645Y02944*
X04644Y02943*
X04643Y02942*
X04642Y02941*
X0464Y0294*
X04639Y02939*
X04638Y02938*
X04636Y02938*
X04635Y02937*
X04633Y02937*
X04632Y02936*
X0463Y02936*
X04629Y02936*
X04627Y02935*
X04626Y02935*
X04624Y02935*
X04623Y02935*
X04621Y02935*
X0462Y02936*
X04618Y02936*
X04617Y02936*
X04615Y02937*
X04614Y02937*
X04612Y02938*
X04611Y02938*
X04609Y02939*
X04608Y0294*
X04607Y02941*
X04606Y02942*
X04604Y02943*
X04603Y02944*
X04602Y02945*
X04601Y02946*
X046Y02947*
X04599Y02949*
X04598Y0295*
X04598Y02951*
X04597Y02953*
X04596Y02954*
X04596Y02956*
X04596Y02957*
X04595Y02959*
X04595Y0296*
X04595Y02962*
X04595Y02963*
X04594Y02965*
X04595Y02967*
X04595Y02968*
X04595Y0297*
X04595Y02971*
X04596Y02973*
X04596Y02974*
X04596Y02976*
X04597Y02977*
X04598Y02978*
X04598Y0298*
X04599Y02981*
X046Y02982*
X04601Y02984*
X04602Y02985*
X04603Y02986*
X04604Y02987*
X04606Y02988*
X04607Y02989*
X04608Y0299*
X04609Y02991*
X04611Y02991*
X04612Y02992*
X04614Y02993*
X04615Y02993*
X04617Y02994*
X04618Y02994*
X0462Y02994*
X04621Y02995*
X04623Y02995*
X04624Y02995*
X04626Y02995*
G37*
G36*
X04546D02*
X04547Y02995D01*
X04549Y02994*
X0455Y02994*
X04552Y02994*
X04553Y02993*
X04555Y02993*
X04556Y02992*
X04558Y02991*
X04559Y02991*
X0456Y0299*
X04562Y02989*
X04563Y02988*
X04564Y02987*
X04565Y02986*
X04566Y02985*
X04567Y02984*
X04568Y02982*
X04569Y02981*
X0457Y0298*
X04571Y02978*
X04571Y02977*
X04572Y02976*
X04572Y02974*
X04573Y02973*
X04573Y02971*
X04574Y0297*
X04574Y02968*
X04574Y02967*
X04574Y02965*
X04574Y02963*
X04574Y02962*
X04574Y0296*
X04573Y02959*
X04573Y02957*
X04572Y02956*
X04572Y02954*
X04571Y02953*
X04571Y02951*
X0457Y0295*
X04569Y02949*
X04568Y02947*
X04567Y02946*
X04566Y02945*
X04565Y02944*
X04564Y02943*
X04563Y02942*
X04562Y02941*
X0456Y0294*
X04559Y02939*
X04558Y02938*
X04556Y02938*
X04555Y02937*
X04553Y02937*
X04552Y02936*
X0455Y02936*
X04549Y02936*
X04547Y02935*
X04546Y02935*
X04544Y02935*
X04543Y02935*
X04541Y02935*
X0454Y02936*
X04538Y02936*
X04537Y02936*
X04535Y02937*
X04534Y02937*
X04532Y02938*
X04531Y02938*
X04529Y02939*
X04528Y0294*
X04527Y02941*
X04526Y02942*
X04524Y02943*
X04523Y02944*
X04522Y02945*
X04521Y02946*
X0452Y02947*
X04519Y02949*
X04518Y0295*
X04518Y02951*
X04517Y02953*
X04516Y02954*
X04516Y02956*
X04516Y02957*
X04515Y02959*
X04515Y0296*
X04515Y02962*
X04515Y02963*
X04514Y02965*
X04515Y02967*
X04515Y02968*
X04515Y0297*
X04515Y02971*
X04516Y02973*
X04516Y02974*
X04516Y02976*
X04517Y02977*
X04518Y02978*
X04518Y0298*
X04519Y02981*
X0452Y02982*
X04521Y02984*
X04522Y02985*
X04523Y02986*
X04524Y02987*
X04526Y02988*
X04527Y02989*
X04528Y0299*
X04529Y02991*
X04531Y02991*
X04532Y02992*
X04534Y02993*
X04535Y02993*
X04537Y02994*
X04538Y02994*
X0454Y02994*
X04541Y02995*
X04543Y02995*
X04544Y02995*
X04546Y02995*
G37*
G36*
X04466D02*
X04467Y02995D01*
X04469Y02994*
X0447Y02994*
X04472Y02994*
X04473Y02993*
X04475Y02993*
X04476Y02992*
X04478Y02991*
X04479Y02991*
X0448Y0299*
X04482Y02989*
X04483Y02988*
X04484Y02987*
X04485Y02986*
X04486Y02985*
X04487Y02984*
X04488Y02982*
X04489Y02981*
X0449Y0298*
X04491Y02978*
X04491Y02977*
X04492Y02976*
X04492Y02974*
X04493Y02973*
X04493Y02971*
X04494Y0297*
X04494Y02968*
X04494Y02967*
X04494Y02965*
X04494Y02963*
X04494Y02962*
X04494Y0296*
X04493Y02959*
X04493Y02957*
X04492Y02956*
X04492Y02954*
X04491Y02953*
X04491Y02951*
X0449Y0295*
X04489Y02949*
X04488Y02947*
X04487Y02946*
X04486Y02945*
X04485Y02944*
X04484Y02943*
X04483Y02942*
X04482Y02941*
X0448Y0294*
X04479Y02939*
X04478Y02938*
X04476Y02938*
X04475Y02937*
X04473Y02937*
X04472Y02936*
X0447Y02936*
X04469Y02936*
X04467Y02935*
X04466Y02935*
X04464Y02935*
X04463Y02935*
X04461Y02935*
X0446Y02936*
X04458Y02936*
X04457Y02936*
X04455Y02937*
X04454Y02937*
X04452Y02938*
X04451Y02938*
X04449Y02939*
X04448Y0294*
X04447Y02941*
X04446Y02942*
X04444Y02943*
X04443Y02944*
X04442Y02945*
X04441Y02946*
X0444Y02947*
X04439Y02949*
X04438Y0295*
X04438Y02951*
X04437Y02953*
X04436Y02954*
X04436Y02956*
X04436Y02957*
X04435Y02959*
X04435Y0296*
X04435Y02962*
X04435Y02963*
X04434Y02965*
X04435Y02967*
X04435Y02968*
X04435Y0297*
X04435Y02971*
X04436Y02973*
X04436Y02974*
X04436Y02976*
X04437Y02977*
X04438Y02978*
X04438Y0298*
X04439Y02981*
X0444Y02982*
X04441Y02984*
X04442Y02985*
X04443Y02986*
X04444Y02987*
X04446Y02988*
X04447Y02989*
X04448Y0299*
X04449Y02991*
X04451Y02991*
X04452Y02992*
X04454Y02993*
X04455Y02993*
X04457Y02994*
X04458Y02994*
X0446Y02994*
X04461Y02995*
X04463Y02995*
X04464Y02995*
X04466Y02995*
G37*
G36*
X04386D02*
X04387Y02995D01*
X04389Y02994*
X0439Y02994*
X04392Y02994*
X04393Y02993*
X04395Y02993*
X04396Y02992*
X04398Y02991*
X04399Y02991*
X044Y0299*
X04402Y02989*
X04403Y02988*
X04404Y02987*
X04405Y02986*
X04406Y02985*
X04407Y02984*
X04408Y02982*
X04409Y02981*
X0441Y0298*
X04411Y02978*
X04411Y02977*
X04412Y02976*
X04412Y02974*
X04413Y02973*
X04413Y02971*
X04414Y0297*
X04414Y02968*
X04414Y02967*
X04414Y02965*
X04414Y02963*
X04414Y02962*
X04414Y0296*
X04413Y02959*
X04413Y02957*
X04412Y02956*
X04412Y02954*
X04411Y02953*
X04411Y02951*
X0441Y0295*
X04409Y02949*
X04408Y02947*
X04407Y02946*
X04406Y02945*
X04405Y02944*
X04404Y02943*
X04403Y02942*
X04402Y02941*
X044Y0294*
X04399Y02939*
X04398Y02938*
X04396Y02938*
X04395Y02937*
X04393Y02937*
X04392Y02936*
X0439Y02936*
X04389Y02936*
X04387Y02935*
X04386Y02935*
X04384Y02935*
X04383Y02935*
X04381Y02935*
X0438Y02936*
X04378Y02936*
X04377Y02936*
X04375Y02937*
X04374Y02937*
X04372Y02938*
X04371Y02938*
X04369Y02939*
X04368Y0294*
X04367Y02941*
X04366Y02942*
X04364Y02943*
X04363Y02944*
X04362Y02945*
X04361Y02946*
X0436Y02947*
X04359Y02949*
X04358Y0295*
X04358Y02951*
X04357Y02953*
X04356Y02954*
X04356Y02956*
X04356Y02957*
X04355Y02959*
X04355Y0296*
X04355Y02962*
X04355Y02963*
X04354Y02965*
X04355Y02967*
X04355Y02968*
X04355Y0297*
X04355Y02971*
X04356Y02973*
X04356Y02974*
X04356Y02976*
X04357Y02977*
X04358Y02978*
X04358Y0298*
X04359Y02981*
X0436Y02982*
X04361Y02984*
X04362Y02985*
X04363Y02986*
X04364Y02987*
X04366Y02988*
X04367Y02989*
X04368Y0299*
X04369Y02991*
X04371Y02991*
X04372Y02992*
X04374Y02993*
X04375Y02993*
X04377Y02994*
X04378Y02994*
X0438Y02994*
X04381Y02995*
X04383Y02995*
X04384Y02995*
X04386Y02995*
G37*
G36*
X04306D02*
X04308Y02995D01*
X04309Y02994*
X04311Y02994*
X04312Y02994*
X04314Y02993*
X04315Y02993*
X04317Y02992*
X04318Y02991*
X04319Y02991*
X04321Y0299*
X04322Y02989*
X04323Y02988*
X04324Y02987*
X04326Y02986*
X04327Y02985*
X04328Y02984*
X04329Y02982*
X04329Y02981*
X0433Y0298*
X04331Y02978*
X04332Y02977*
X04332Y02976*
X04333Y02974*
X04333Y02973*
X04334Y02971*
X04334Y0297*
X04334Y02968*
X04334Y02967*
X04334Y02965*
X04334Y02963*
X04334Y02962*
X04334Y0296*
X04334Y02959*
X04333Y02957*
X04333Y02956*
X04332Y02954*
X04332Y02953*
X04331Y02951*
X0433Y0295*
X04329Y02949*
X04329Y02947*
X04328Y02946*
X04327Y02945*
X04326Y02944*
X04324Y02943*
X04323Y02942*
X04322Y02941*
X04321Y0294*
X04319Y02939*
X04318Y02938*
X04317Y02938*
X04315Y02937*
X04314Y02937*
X04312Y02936*
X04311Y02936*
X04309Y02936*
X04308Y02935*
X04306Y02935*
X04304Y02935*
X04303Y02935*
X04301Y02935*
X043Y02936*
X04298Y02936*
X04297Y02936*
X04295Y02937*
X04294Y02937*
X04292Y02938*
X04291Y02938*
X0429Y02939*
X04288Y0294*
X04287Y02941*
X04286Y02942*
X04285Y02943*
X04283Y02944*
X04282Y02945*
X04281Y02946*
X0428Y02947*
X0428Y02949*
X04279Y0295*
X04278Y02951*
X04277Y02953*
X04277Y02954*
X04276Y02956*
X04276Y02957*
X04275Y02959*
X04275Y0296*
X04275Y02962*
X04275Y02963*
X04275Y02965*
X04275Y02967*
X04275Y02968*
X04275Y0297*
X04275Y02971*
X04276Y02973*
X04276Y02974*
X04277Y02976*
X04277Y02977*
X04278Y02978*
X04279Y0298*
X0428Y02981*
X0428Y02982*
X04281Y02984*
X04282Y02985*
X04283Y02986*
X04285Y02987*
X04286Y02988*
X04287Y02989*
X04288Y0299*
X0429Y02991*
X04291Y02991*
X04292Y02992*
X04294Y02993*
X04295Y02993*
X04297Y02994*
X04298Y02994*
X043Y02994*
X04301Y02995*
X04303Y02995*
X04304Y02995*
X04306Y02995*
G37*
M02*