%FSTAX23Y23*%
%MOIN*%
%SFA1B1*%

%IPPOS*%
%LNesp32c3phils-1*%
%LPD*%
G36*
X03286Y0308D02*
X03288Y0308D01*
X03289Y03079*
X03291Y03079*
X03292Y03079*
X03294Y03078*
X03295Y03078*
X03297Y03077*
X03298Y03076*
X033Y03076*
X03301Y03075*
X03302Y03074*
X03303Y03073*
X03305Y03072*
X03306Y03071*
X03307Y0307*
X03308Y03069*
X03309Y03067*
X0331Y03066*
X03311Y03065*
X03311Y03063*
X03312Y03062*
X03313Y03061*
X03313Y03059*
X03313Y03058*
X03314Y03056*
X03314Y03055*
X03314Y03053*
X03314Y03052*
X03314Y0305*
X03314Y03048*
X03314Y03047*
X03314Y03045*
X03314Y03044*
X03313Y03042*
X03313Y03041*
X03313Y03039*
X03312Y03038*
X03311Y03036*
X03311Y03035*
X0331Y03034*
X03309Y03032*
X03308Y03031*
X03307Y0303*
X03306Y03029*
X03305Y03028*
X03303Y03027*
X03302Y03026*
X03301Y03025*
X033Y03024*
X03298Y03023*
X03297Y03023*
X03295Y03022*
X03294Y03022*
X03292Y03021*
X03291Y03021*
X03289Y03021*
X03288Y0302*
X03286Y0302*
X03285Y0302*
X03283Y0302*
X03282Y0302*
X0328Y03021*
X03279Y03021*
X03277Y03021*
X03276Y03022*
X03274Y03022*
X03273Y03023*
X03271Y03023*
X0327Y03024*
X03269Y03025*
X03267Y03026*
X03266Y03027*
X03265Y03028*
X03264Y03029*
X03263Y0303*
X03262Y03031*
X03261Y03032*
X0326Y03034*
X03259Y03035*
X03258Y03036*
X03258Y03038*
X03257Y03039*
X03257Y03041*
X03256Y03042*
X03256Y03044*
X03255Y03045*
X03255Y03047*
X03255Y03048*
X03255Y0305*
X03255Y03052*
X03255Y03053*
X03255Y03055*
X03256Y03056*
X03256Y03058*
X03257Y03059*
X03257Y03061*
X03258Y03062*
X03258Y03063*
X03259Y03065*
X0326Y03066*
X03261Y03067*
X03262Y03069*
X03263Y0307*
X03264Y03071*
X03265Y03072*
X03266Y03073*
X03267Y03074*
X03269Y03075*
X0327Y03076*
X03271Y03076*
X03273Y03077*
X03274Y03078*
X03276Y03078*
X03277Y03079*
X03279Y03079*
X0328Y03079*
X03282Y0308*
X03283Y0308*
X03285Y0308*
X03286Y0308*
G37*
G36*
X03207D02*
X03208Y0308D01*
X0321Y03079*
X03211Y03079*
X03213Y03079*
X03214Y03078*
X03216Y03078*
X03217Y03077*
X03219Y03076*
X0322Y03076*
X03221Y03075*
X03223Y03074*
X03224Y03073*
X03225Y03072*
X03226Y03071*
X03227Y0307*
X03228Y03069*
X03229Y03067*
X0323Y03066*
X03231Y03065*
X03232Y03063*
X03232Y03062*
X03233Y03061*
X03233Y03059*
X03234Y03058*
X03234Y03056*
X03234Y03055*
X03235Y03053*
X03235Y03052*
X03235Y0305*
X03235Y03048*
X03235Y03047*
X03234Y03045*
X03234Y03044*
X03234Y03042*
X03233Y03041*
X03233Y03039*
X03232Y03038*
X03232Y03036*
X03231Y03035*
X0323Y03034*
X03229Y03032*
X03228Y03031*
X03227Y0303*
X03226Y03029*
X03225Y03028*
X03224Y03027*
X03223Y03026*
X03221Y03025*
X0322Y03024*
X03219Y03023*
X03217Y03023*
X03216Y03022*
X03214Y03022*
X03213Y03021*
X03211Y03021*
X0321Y03021*
X03208Y0302*
X03207Y0302*
X03205Y0302*
X03203Y0302*
X03202Y0302*
X032Y03021*
X03199Y03021*
X03197Y03021*
X03196Y03022*
X03194Y03022*
X03193Y03023*
X03192Y03023*
X0319Y03024*
X03189Y03025*
X03188Y03026*
X03186Y03027*
X03185Y03028*
X03184Y03029*
X03183Y0303*
X03182Y03031*
X03181Y03032*
X0318Y03034*
X03179Y03035*
X03179Y03036*
X03178Y03038*
X03177Y03039*
X03177Y03041*
X03176Y03042*
X03176Y03044*
X03176Y03045*
X03175Y03047*
X03175Y03048*
X03175Y0305*
X03175Y03052*
X03175Y03053*
X03176Y03055*
X03176Y03056*
X03176Y03058*
X03177Y03059*
X03177Y03061*
X03178Y03062*
X03179Y03063*
X03179Y03065*
X0318Y03066*
X03181Y03067*
X03182Y03069*
X03183Y0307*
X03184Y03071*
X03185Y03072*
X03186Y03073*
X03188Y03074*
X03189Y03075*
X0319Y03076*
X03192Y03076*
X03193Y03077*
X03194Y03078*
X03196Y03078*
X03197Y03079*
X03199Y03079*
X032Y03079*
X03202Y0308*
X03203Y0308*
X03205Y0308*
X03207Y0308*
G37*
G36*
X03127D02*
X03128Y0308D01*
X0313Y03079*
X03131Y03079*
X03133Y03079*
X03134Y03078*
X03136Y03078*
X03137Y03077*
X03139Y03076*
X0314Y03076*
X03141Y03075*
X03143Y03074*
X03144Y03073*
X03145Y03072*
X03146Y03071*
X03147Y0307*
X03148Y03069*
X03149Y03067*
X0315Y03066*
X03151Y03065*
X03152Y03063*
X03152Y03062*
X03153Y03061*
X03153Y03059*
X03154Y03058*
X03154Y03056*
X03154Y03055*
X03155Y03053*
X03155Y03052*
X03155Y0305*
X03155Y03048*
X03155Y03047*
X03154Y03045*
X03154Y03044*
X03154Y03042*
X03153Y03041*
X03153Y03039*
X03152Y03038*
X03152Y03036*
X03151Y03035*
X0315Y03034*
X03149Y03032*
X03148Y03031*
X03147Y0303*
X03146Y03029*
X03145Y03028*
X03144Y03027*
X03143Y03026*
X03141Y03025*
X0314Y03024*
X03139Y03023*
X03137Y03023*
X03136Y03022*
X03134Y03022*
X03133Y03021*
X03131Y03021*
X0313Y03021*
X03128Y0302*
X03127Y0302*
X03125Y0302*
X03123Y0302*
X03122Y0302*
X0312Y03021*
X03119Y03021*
X03117Y03021*
X03116Y03022*
X03114Y03022*
X03113Y03023*
X03112Y03023*
X0311Y03024*
X03109Y03025*
X03108Y03026*
X03106Y03027*
X03105Y03028*
X03104Y03029*
X03103Y0303*
X03102Y03031*
X03101Y03032*
X031Y03034*
X03099Y03035*
X03099Y03036*
X03098Y03038*
X03097Y03039*
X03097Y03041*
X03096Y03042*
X03096Y03044*
X03096Y03045*
X03095Y03047*
X03095Y03048*
X03095Y0305*
X03095Y03052*
X03095Y03053*
X03096Y03055*
X03096Y03056*
X03096Y03058*
X03097Y03059*
X03097Y03061*
X03098Y03062*
X03099Y03063*
X03099Y03065*
X031Y03066*
X03101Y03067*
X03102Y03069*
X03103Y0307*
X03104Y03071*
X03105Y03072*
X03106Y03073*
X03108Y03074*
X03109Y03075*
X0311Y03076*
X03112Y03076*
X03113Y03077*
X03114Y03078*
X03116Y03078*
X03117Y03079*
X03119Y03079*
X0312Y03079*
X03122Y0308*
X03123Y0308*
X03125Y0308*
X03127Y0308*
G37*
G36*
X03047D02*
X03048Y0308D01*
X0305Y03079*
X03051Y03079*
X03053Y03079*
X03054Y03078*
X03056Y03078*
X03057Y03077*
X03059Y03076*
X0306Y03076*
X03061Y03075*
X03063Y03074*
X03064Y03073*
X03065Y03072*
X03066Y03071*
X03067Y0307*
X03068Y03069*
X03069Y03067*
X0307Y03066*
X03071Y03065*
X03072Y03063*
X03072Y03062*
X03073Y03061*
X03073Y03059*
X03074Y03058*
X03074Y03056*
X03074Y03055*
X03075Y03053*
X03075Y03052*
X03075Y0305*
X03075Y03048*
X03075Y03047*
X03074Y03045*
X03074Y03044*
X03074Y03042*
X03073Y03041*
X03073Y03039*
X03072Y03038*
X03072Y03036*
X03071Y03035*
X0307Y03034*
X03069Y03032*
X03068Y03031*
X03067Y0303*
X03066Y03029*
X03065Y03028*
X03064Y03027*
X03063Y03026*
X03061Y03025*
X0306Y03024*
X03059Y03023*
X03057Y03023*
X03056Y03022*
X03054Y03022*
X03053Y03021*
X03051Y03021*
X0305Y03021*
X03048Y0302*
X03047Y0302*
X03045Y0302*
X03043Y0302*
X03042Y0302*
X0304Y03021*
X03039Y03021*
X03037Y03021*
X03036Y03022*
X03034Y03022*
X03033Y03023*
X03032Y03023*
X0303Y03024*
X03029Y03025*
X03028Y03026*
X03026Y03027*
X03025Y03028*
X03024Y03029*
X03023Y0303*
X03022Y03031*
X03021Y03032*
X0302Y03034*
X03019Y03035*
X03019Y03036*
X03018Y03038*
X03017Y03039*
X03017Y03041*
X03016Y03042*
X03016Y03044*
X03016Y03045*
X03015Y03047*
X03015Y03048*
X03015Y0305*
X03015Y03052*
X03015Y03053*
X03016Y03055*
X03016Y03056*
X03016Y03058*
X03017Y03059*
X03017Y03061*
X03018Y03062*
X03019Y03063*
X03019Y03065*
X0302Y03066*
X03021Y03067*
X03022Y03069*
X03023Y0307*
X03024Y03071*
X03025Y03072*
X03026Y03073*
X03028Y03074*
X03029Y03075*
X0303Y03076*
X03032Y03076*
X03033Y03077*
X03034Y03078*
X03036Y03078*
X03037Y03079*
X03039Y03079*
X0304Y03079*
X03042Y0308*
X03043Y0308*
X03045Y0308*
X03047Y0308*
G37*
G36*
X02967D02*
X02968Y0308D01*
X0297Y03079*
X02971Y03079*
X02973Y03079*
X02974Y03078*
X02976Y03078*
X02977Y03077*
X02979Y03076*
X0298Y03076*
X02981Y03075*
X02983Y03074*
X02984Y03073*
X02985Y03072*
X02986Y03071*
X02987Y0307*
X02988Y03069*
X02989Y03067*
X0299Y03066*
X02991Y03065*
X02992Y03063*
X02992Y03062*
X02993Y03061*
X02993Y03059*
X02994Y03058*
X02994Y03056*
X02994Y03055*
X02995Y03053*
X02995Y03052*
X02995Y0305*
X02995Y03048*
X02995Y03047*
X02994Y03045*
X02994Y03044*
X02994Y03042*
X02993Y03041*
X02993Y03039*
X02992Y03038*
X02992Y03036*
X02991Y03035*
X0299Y03034*
X02989Y03032*
X02988Y03031*
X02987Y0303*
X02986Y03029*
X02985Y03028*
X02984Y03027*
X02983Y03026*
X02981Y03025*
X0298Y03024*
X02979Y03023*
X02977Y03023*
X02976Y03022*
X02974Y03022*
X02973Y03021*
X02971Y03021*
X0297Y03021*
X02968Y0302*
X02967Y0302*
X02965Y0302*
X02963Y0302*
X02962Y0302*
X0296Y03021*
X02959Y03021*
X02957Y03021*
X02956Y03022*
X02954Y03022*
X02953Y03023*
X02952Y03023*
X0295Y03024*
X02949Y03025*
X02948Y03026*
X02946Y03027*
X02945Y03028*
X02944Y03029*
X02943Y0303*
X02942Y03031*
X02941Y03032*
X0294Y03034*
X02939Y03035*
X02939Y03036*
X02938Y03038*
X02937Y03039*
X02937Y03041*
X02936Y03042*
X02936Y03044*
X02936Y03045*
X02935Y03047*
X02935Y03048*
X02935Y0305*
X02935Y03052*
X02935Y03053*
X02936Y03055*
X02936Y03056*
X02936Y03058*
X02937Y03059*
X02937Y03061*
X02938Y03062*
X02939Y03063*
X02939Y03065*
X0294Y03066*
X02941Y03067*
X02942Y03069*
X02943Y0307*
X02944Y03071*
X02945Y03072*
X02946Y03073*
X02948Y03074*
X02949Y03075*
X0295Y03076*
X02952Y03076*
X02953Y03077*
X02954Y03078*
X02956Y03078*
X02957Y03079*
X02959Y03079*
X0296Y03079*
X02962Y0308*
X02963Y0308*
X02965Y0308*
X02967Y0308*
G37*
G36*
X03286Y03D02*
X03288Y03D01*
X03289Y02999*
X03291Y02999*
X03292Y02999*
X03294Y02998*
X03295Y02998*
X03297Y02997*
X03298Y02996*
X03299Y02996*
X03301Y02995*
X03302Y02994*
X03303Y02993*
X03304Y02992*
X03306Y02991*
X03307Y0299*
X03308Y02989*
X03309Y02987*
X03309Y02986*
X0331Y02985*
X03311Y02983*
X03312Y02982*
X03312Y02981*
X03313Y02979*
X03313Y02978*
X03314Y02976*
X03314Y02975*
X03314Y02973*
X03314Y02972*
X03314Y0297*
X03314Y02968*
X03314Y02967*
X03314Y02965*
X03314Y02964*
X03313Y02962*
X03313Y02961*
X03312Y02959*
X03312Y02958*
X03311Y02956*
X0331Y02955*
X03309Y02954*
X03309Y02952*
X03308Y02951*
X03307Y0295*
X03306Y02949*
X03304Y02948*
X03303Y02947*
X03302Y02946*
X03301Y02945*
X03299Y02944*
X03298Y02943*
X03297Y02943*
X03295Y02942*
X03294Y02942*
X03292Y02941*
X03291Y02941*
X03289Y02941*
X03288Y0294*
X03286Y0294*
X03284Y0294*
X03283Y0294*
X03281Y0294*
X0328Y02941*
X03278Y02941*
X03277Y02941*
X03275Y02942*
X03274Y02942*
X03272Y02943*
X03271Y02943*
X0327Y02944*
X03268Y02945*
X03267Y02946*
X03266Y02947*
X03265Y02948*
X03263Y02949*
X03262Y0295*
X03261Y02951*
X0326Y02952*
X0326Y02954*
X03259Y02955*
X03258Y02956*
X03257Y02958*
X03257Y02959*
X03256Y02961*
X03256Y02962*
X03255Y02964*
X03255Y02965*
X03255Y02967*
X03255Y02968*
X03255Y0297*
X03255Y02972*
X03255Y02973*
X03255Y02975*
X03255Y02976*
X03256Y02978*
X03256Y02979*
X03257Y02981*
X03257Y02982*
X03258Y02983*
X03259Y02985*
X0326Y02986*
X0326Y02987*
X03261Y02989*
X03262Y0299*
X03263Y02991*
X03265Y02992*
X03266Y02993*
X03267Y02994*
X03268Y02995*
X0327Y02996*
X03271Y02996*
X03272Y02997*
X03274Y02998*
X03275Y02998*
X03277Y02999*
X03278Y02999*
X0328Y02999*
X03281Y03*
X03283Y03*
X03284Y03*
X03286Y03*
G37*
G36*
X03206D02*
X03208Y03D01*
X03209Y02999*
X03211Y02999*
X03212Y02999*
X03214Y02998*
X03215Y02998*
X03217Y02997*
X03218Y02996*
X0322Y02996*
X03221Y02995*
X03222Y02994*
X03223Y02993*
X03225Y02992*
X03226Y02991*
X03227Y0299*
X03228Y02989*
X03229Y02987*
X0323Y02986*
X03231Y02985*
X03231Y02983*
X03232Y02982*
X03233Y02981*
X03233Y02979*
X03233Y02978*
X03234Y02976*
X03234Y02975*
X03234Y02973*
X03234Y02972*
X03234Y0297*
X03234Y02968*
X03234Y02967*
X03234Y02965*
X03234Y02964*
X03233Y02962*
X03233Y02961*
X03233Y02959*
X03232Y02958*
X03231Y02956*
X03231Y02955*
X0323Y02954*
X03229Y02952*
X03228Y02951*
X03227Y0295*
X03226Y02949*
X03225Y02948*
X03223Y02947*
X03222Y02946*
X03221Y02945*
X0322Y02944*
X03218Y02943*
X03217Y02943*
X03215Y02942*
X03214Y02942*
X03212Y02941*
X03211Y02941*
X03209Y02941*
X03208Y0294*
X03206Y0294*
X03205Y0294*
X03203Y0294*
X03202Y0294*
X032Y02941*
X03199Y02941*
X03197Y02941*
X03196Y02942*
X03194Y02942*
X03193Y02943*
X03191Y02943*
X0319Y02944*
X03189Y02945*
X03187Y02946*
X03186Y02947*
X03185Y02948*
X03184Y02949*
X03183Y0295*
X03182Y02951*
X03181Y02952*
X0318Y02954*
X03179Y02955*
X03178Y02956*
X03178Y02958*
X03177Y02959*
X03177Y02961*
X03176Y02962*
X03176Y02964*
X03175Y02965*
X03175Y02967*
X03175Y02968*
X03175Y0297*
X03175Y02972*
X03175Y02973*
X03175Y02975*
X03176Y02976*
X03176Y02978*
X03177Y02979*
X03177Y02981*
X03178Y02982*
X03178Y02983*
X03179Y02985*
X0318Y02986*
X03181Y02987*
X03182Y02989*
X03183Y0299*
X03184Y02991*
X03185Y02992*
X03186Y02993*
X03187Y02994*
X03189Y02995*
X0319Y02996*
X03191Y02996*
X03193Y02997*
X03194Y02998*
X03196Y02998*
X03197Y02999*
X03199Y02999*
X032Y02999*
X03202Y03*
X03203Y03*
X03205Y03*
X03206Y03*
G37*
G36*
X03126D02*
X03128Y03D01*
X03129Y02999*
X03131Y02999*
X03132Y02999*
X03134Y02998*
X03135Y02998*
X03137Y02997*
X03138Y02996*
X0314Y02996*
X03141Y02995*
X03142Y02994*
X03143Y02993*
X03145Y02992*
X03146Y02991*
X03147Y0299*
X03148Y02989*
X03149Y02987*
X0315Y02986*
X03151Y02985*
X03151Y02983*
X03152Y02982*
X03153Y02981*
X03153Y02979*
X03153Y02978*
X03154Y02976*
X03154Y02975*
X03154Y02973*
X03154Y02972*
X03154Y0297*
X03154Y02968*
X03154Y02967*
X03154Y02965*
X03154Y02964*
X03153Y02962*
X03153Y02961*
X03153Y02959*
X03152Y02958*
X03151Y02956*
X03151Y02955*
X0315Y02954*
X03149Y02952*
X03148Y02951*
X03147Y0295*
X03146Y02949*
X03145Y02948*
X03143Y02947*
X03142Y02946*
X03141Y02945*
X0314Y02944*
X03138Y02943*
X03137Y02943*
X03135Y02942*
X03134Y02942*
X03132Y02941*
X03131Y02941*
X03129Y02941*
X03128Y0294*
X03126Y0294*
X03125Y0294*
X03123Y0294*
X03122Y0294*
X0312Y02941*
X03119Y02941*
X03117Y02941*
X03116Y02942*
X03114Y02942*
X03113Y02943*
X03111Y02943*
X0311Y02944*
X03109Y02945*
X03107Y02946*
X03106Y02947*
X03105Y02948*
X03104Y02949*
X03103Y0295*
X03102Y02951*
X03101Y02952*
X031Y02954*
X03099Y02955*
X03098Y02956*
X03098Y02958*
X03097Y02959*
X03097Y02961*
X03096Y02962*
X03096Y02964*
X03095Y02965*
X03095Y02967*
X03095Y02968*
X03095Y0297*
X03095Y02972*
X03095Y02973*
X03095Y02975*
X03096Y02976*
X03096Y02978*
X03097Y02979*
X03097Y02981*
X03098Y02982*
X03098Y02983*
X03099Y02985*
X031Y02986*
X03101Y02987*
X03102Y02989*
X03103Y0299*
X03104Y02991*
X03105Y02992*
X03106Y02993*
X03107Y02994*
X03109Y02995*
X0311Y02996*
X03111Y02996*
X03113Y02997*
X03114Y02998*
X03116Y02998*
X03117Y02999*
X03119Y02999*
X0312Y02999*
X03122Y03*
X03123Y03*
X03125Y03*
X03126Y03*
G37*
G36*
X03046D02*
X03048Y03D01*
X03049Y02999*
X03051Y02999*
X03052Y02999*
X03054Y02998*
X03055Y02998*
X03057Y02997*
X03058Y02996*
X0306Y02996*
X03061Y02995*
X03062Y02994*
X03063Y02993*
X03065Y02992*
X03066Y02991*
X03067Y0299*
X03068Y02989*
X03069Y02987*
X0307Y02986*
X03071Y02985*
X03071Y02983*
X03072Y02982*
X03073Y02981*
X03073Y02979*
X03073Y02978*
X03074Y02976*
X03074Y02975*
X03074Y02973*
X03074Y02972*
X03074Y0297*
X03074Y02968*
X03074Y02967*
X03074Y02965*
X03074Y02964*
X03073Y02962*
X03073Y02961*
X03073Y02959*
X03072Y02958*
X03071Y02956*
X03071Y02955*
X0307Y02954*
X03069Y02952*
X03068Y02951*
X03067Y0295*
X03066Y02949*
X03065Y02948*
X03063Y02947*
X03062Y02946*
X03061Y02945*
X0306Y02944*
X03058Y02943*
X03057Y02943*
X03055Y02942*
X03054Y02942*
X03052Y02941*
X03051Y02941*
X03049Y02941*
X03048Y0294*
X03046Y0294*
X03045Y0294*
X03043Y0294*
X03042Y0294*
X0304Y02941*
X03039Y02941*
X03037Y02941*
X03036Y02942*
X03034Y02942*
X03033Y02943*
X03031Y02943*
X0303Y02944*
X03029Y02945*
X03027Y02946*
X03026Y02947*
X03025Y02948*
X03024Y02949*
X03023Y0295*
X03022Y02951*
X03021Y02952*
X0302Y02954*
X03019Y02955*
X03018Y02956*
X03018Y02958*
X03017Y02959*
X03017Y02961*
X03016Y02962*
X03016Y02964*
X03015Y02965*
X03015Y02967*
X03015Y02968*
X03015Y0297*
X03015Y02972*
X03015Y02973*
X03015Y02975*
X03016Y02976*
X03016Y02978*
X03017Y02979*
X03017Y02981*
X03018Y02982*
X03018Y02983*
X03019Y02985*
X0302Y02986*
X03021Y02987*
X03022Y02989*
X03023Y0299*
X03024Y02991*
X03025Y02992*
X03026Y02993*
X03027Y02994*
X03029Y02995*
X0303Y02996*
X03031Y02996*
X03033Y02997*
X03034Y02998*
X03036Y02998*
X03037Y02999*
X03039Y02999*
X0304Y02999*
X03042Y03*
X03043Y03*
X03045Y03*
X03046Y03*
G37*
G36*
X02966D02*
X02968Y03D01*
X02969Y02999*
X02971Y02999*
X02972Y02999*
X02974Y02998*
X02975Y02998*
X02977Y02997*
X02978Y02996*
X0298Y02996*
X02981Y02995*
X02982Y02994*
X02983Y02993*
X02985Y02992*
X02986Y02991*
X02987Y0299*
X02988Y02989*
X02989Y02987*
X0299Y02986*
X02991Y02985*
X02991Y02983*
X02992Y02982*
X02993Y02981*
X02993Y02979*
X02993Y02978*
X02994Y02976*
X02994Y02975*
X02994Y02973*
X02994Y02972*
X02994Y0297*
X02994Y02968*
X02994Y02967*
X02994Y02965*
X02994Y02964*
X02993Y02962*
X02993Y02961*
X02993Y02959*
X02992Y02958*
X02991Y02956*
X02991Y02955*
X0299Y02954*
X02989Y02952*
X02988Y02951*
X02987Y0295*
X02986Y02949*
X02985Y02948*
X02983Y02947*
X02982Y02946*
X02981Y02945*
X0298Y02944*
X02978Y02943*
X02977Y02943*
X02975Y02942*
X02974Y02942*
X02972Y02941*
X02971Y02941*
X02969Y02941*
X02968Y0294*
X02966Y0294*
X02965Y0294*
X02963Y0294*
X02962Y0294*
X0296Y02941*
X02959Y02941*
X02957Y02941*
X02956Y02942*
X02954Y02942*
X02953Y02943*
X02951Y02943*
X0295Y02944*
X02949Y02945*
X02947Y02946*
X02946Y02947*
X02945Y02948*
X02944Y02949*
X02943Y0295*
X02942Y02951*
X02941Y02952*
X0294Y02954*
X02939Y02955*
X02938Y02956*
X02938Y02958*
X02937Y02959*
X02937Y02961*
X02936Y02962*
X02936Y02964*
X02935Y02965*
X02935Y02967*
X02935Y02968*
X02935Y0297*
X02935Y02972*
X02935Y02973*
X02935Y02975*
X02936Y02976*
X02936Y02978*
X02937Y02979*
X02937Y02981*
X02938Y02982*
X02938Y02983*
X02939Y02985*
X0294Y02986*
X02941Y02987*
X02942Y02989*
X02943Y0299*
X02944Y02991*
X02945Y02992*
X02946Y02993*
X02947Y02994*
X02949Y02995*
X0295Y02996*
X02951Y02996*
X02953Y02997*
X02954Y02998*
X02956Y02998*
X02957Y02999*
X02959Y02999*
X0296Y02999*
X02962Y03*
X02963Y03*
X02965Y03*
X02966Y03*
G37*
G36*
X03686Y0308D02*
X03688Y0308D01*
X03689Y03079*
X03691Y03079*
X03692Y03079*
X03694Y03078*
X03695Y03078*
X03697Y03077*
X03698Y03076*
X037Y03076*
X03701Y03075*
X03702Y03074*
X03703Y03073*
X03705Y03072*
X03706Y03071*
X03707Y0307*
X03708Y03069*
X03709Y03067*
X0371Y03066*
X03711Y03065*
X03711Y03063*
X03712Y03062*
X03713Y03061*
X03713Y03059*
X03713Y03058*
X03714Y03056*
X03714Y03055*
X03714Y03053*
X03714Y03052*
X03714Y0305*
X03714Y03048*
X03714Y03047*
X03714Y03045*
X03714Y03044*
X03713Y03042*
X03713Y03041*
X03713Y03039*
X03712Y03038*
X03711Y03036*
X03711Y03035*
X0371Y03034*
X03709Y03032*
X03708Y03031*
X03707Y0303*
X03706Y03029*
X03705Y03028*
X03703Y03027*
X03702Y03026*
X03701Y03025*
X037Y03024*
X03698Y03023*
X03697Y03023*
X03695Y03022*
X03694Y03022*
X03692Y03021*
X03691Y03021*
X03689Y03021*
X03688Y0302*
X03686Y0302*
X03685Y0302*
X03683Y0302*
X03682Y0302*
X0368Y03021*
X03679Y03021*
X03677Y03021*
X03676Y03022*
X03674Y03022*
X03673Y03023*
X03671Y03023*
X0367Y03024*
X03669Y03025*
X03667Y03026*
X03666Y03027*
X03665Y03028*
X03664Y03029*
X03663Y0303*
X03662Y03031*
X03661Y03032*
X0366Y03034*
X03659Y03035*
X03658Y03036*
X03658Y03038*
X03657Y03039*
X03657Y03041*
X03656Y03042*
X03656Y03044*
X03655Y03045*
X03655Y03047*
X03655Y03048*
X03655Y0305*
X03655Y03052*
X03655Y03053*
X03655Y03055*
X03656Y03056*
X03656Y03058*
X03657Y03059*
X03657Y03061*
X03658Y03062*
X03658Y03063*
X03659Y03065*
X0366Y03066*
X03661Y03067*
X03662Y03069*
X03663Y0307*
X03664Y03071*
X03665Y03072*
X03666Y03073*
X03667Y03074*
X03669Y03075*
X0367Y03076*
X03671Y03076*
X03673Y03077*
X03674Y03078*
X03676Y03078*
X03677Y03079*
X03679Y03079*
X0368Y03079*
X03682Y0308*
X03683Y0308*
X03685Y0308*
X03686Y0308*
G37*
G36*
X03607D02*
X03608Y0308D01*
X0361Y03079*
X03611Y03079*
X03613Y03079*
X03614Y03078*
X03616Y03078*
X03617Y03077*
X03619Y03076*
X0362Y03076*
X03621Y03075*
X03623Y03074*
X03624Y03073*
X03625Y03072*
X03626Y03071*
X03627Y0307*
X03628Y03069*
X03629Y03067*
X0363Y03066*
X03631Y03065*
X03632Y03063*
X03632Y03062*
X03633Y03061*
X03633Y03059*
X03634Y03058*
X03634Y03056*
X03634Y03055*
X03635Y03053*
X03635Y03052*
X03635Y0305*
X03635Y03048*
X03635Y03047*
X03634Y03045*
X03634Y03044*
X03634Y03042*
X03633Y03041*
X03633Y03039*
X03632Y03038*
X03632Y03036*
X03631Y03035*
X0363Y03034*
X03629Y03032*
X03628Y03031*
X03627Y0303*
X03626Y03029*
X03625Y03028*
X03624Y03027*
X03623Y03026*
X03621Y03025*
X0362Y03024*
X03619Y03023*
X03617Y03023*
X03616Y03022*
X03614Y03022*
X03613Y03021*
X03611Y03021*
X0361Y03021*
X03608Y0302*
X03607Y0302*
X03605Y0302*
X03603Y0302*
X03602Y0302*
X036Y03021*
X03599Y03021*
X03597Y03021*
X03596Y03022*
X03594Y03022*
X03593Y03023*
X03592Y03023*
X0359Y03024*
X03589Y03025*
X03588Y03026*
X03586Y03027*
X03585Y03028*
X03584Y03029*
X03583Y0303*
X03582Y03031*
X03581Y03032*
X0358Y03034*
X03579Y03035*
X03579Y03036*
X03578Y03038*
X03577Y03039*
X03577Y03041*
X03576Y03042*
X03576Y03044*
X03576Y03045*
X03575Y03047*
X03575Y03048*
X03575Y0305*
X03575Y03052*
X03575Y03053*
X03576Y03055*
X03576Y03056*
X03576Y03058*
X03577Y03059*
X03577Y03061*
X03578Y03062*
X03579Y03063*
X03579Y03065*
X0358Y03066*
X03581Y03067*
X03582Y03069*
X03583Y0307*
X03584Y03071*
X03585Y03072*
X03586Y03073*
X03588Y03074*
X03589Y03075*
X0359Y03076*
X03592Y03076*
X03593Y03077*
X03594Y03078*
X03596Y03078*
X03597Y03079*
X03599Y03079*
X036Y03079*
X03602Y0308*
X03603Y0308*
X03605Y0308*
X03607Y0308*
G37*
G36*
X03527D02*
X03528Y0308D01*
X0353Y03079*
X03531Y03079*
X03533Y03079*
X03534Y03078*
X03536Y03078*
X03537Y03077*
X03539Y03076*
X0354Y03076*
X03541Y03075*
X03543Y03074*
X03544Y03073*
X03545Y03072*
X03546Y03071*
X03547Y0307*
X03548Y03069*
X03549Y03067*
X0355Y03066*
X03551Y03065*
X03552Y03063*
X03552Y03062*
X03553Y03061*
X03553Y03059*
X03554Y03058*
X03554Y03056*
X03554Y03055*
X03555Y03053*
X03555Y03052*
X03555Y0305*
X03555Y03048*
X03555Y03047*
X03554Y03045*
X03554Y03044*
X03554Y03042*
X03553Y03041*
X03553Y03039*
X03552Y03038*
X03552Y03036*
X03551Y03035*
X0355Y03034*
X03549Y03032*
X03548Y03031*
X03547Y0303*
X03546Y03029*
X03545Y03028*
X03544Y03027*
X03543Y03026*
X03541Y03025*
X0354Y03024*
X03539Y03023*
X03537Y03023*
X03536Y03022*
X03534Y03022*
X03533Y03021*
X03531Y03021*
X0353Y03021*
X03528Y0302*
X03527Y0302*
X03525Y0302*
X03523Y0302*
X03522Y0302*
X0352Y03021*
X03519Y03021*
X03517Y03021*
X03516Y03022*
X03514Y03022*
X03513Y03023*
X03512Y03023*
X0351Y03024*
X03509Y03025*
X03508Y03026*
X03506Y03027*
X03505Y03028*
X03504Y03029*
X03503Y0303*
X03502Y03031*
X03501Y03032*
X035Y03034*
X03499Y03035*
X03499Y03036*
X03498Y03038*
X03497Y03039*
X03497Y03041*
X03496Y03042*
X03496Y03044*
X03496Y03045*
X03495Y03047*
X03495Y03048*
X03495Y0305*
X03495Y03052*
X03495Y03053*
X03496Y03055*
X03496Y03056*
X03496Y03058*
X03497Y03059*
X03497Y03061*
X03498Y03062*
X03499Y03063*
X03499Y03065*
X035Y03066*
X03501Y03067*
X03502Y03069*
X03503Y0307*
X03504Y03071*
X03505Y03072*
X03506Y03073*
X03508Y03074*
X03509Y03075*
X0351Y03076*
X03512Y03076*
X03513Y03077*
X03514Y03078*
X03516Y03078*
X03517Y03079*
X03519Y03079*
X0352Y03079*
X03522Y0308*
X03523Y0308*
X03525Y0308*
X03527Y0308*
G37*
G36*
X03447D02*
X03448Y0308D01*
X0345Y03079*
X03451Y03079*
X03453Y03079*
X03454Y03078*
X03456Y03078*
X03457Y03077*
X03459Y03076*
X0346Y03076*
X03461Y03075*
X03463Y03074*
X03464Y03073*
X03465Y03072*
X03466Y03071*
X03467Y0307*
X03468Y03069*
X03469Y03067*
X0347Y03066*
X03471Y03065*
X03472Y03063*
X03472Y03062*
X03473Y03061*
X03473Y03059*
X03474Y03058*
X03474Y03056*
X03474Y03055*
X03475Y03053*
X03475Y03052*
X03475Y0305*
X03475Y03048*
X03475Y03047*
X03474Y03045*
X03474Y03044*
X03474Y03042*
X03473Y03041*
X03473Y03039*
X03472Y03038*
X03472Y03036*
X03471Y03035*
X0347Y03034*
X03469Y03032*
X03468Y03031*
X03467Y0303*
X03466Y03029*
X03465Y03028*
X03464Y03027*
X03463Y03026*
X03461Y03025*
X0346Y03024*
X03459Y03023*
X03457Y03023*
X03456Y03022*
X03454Y03022*
X03453Y03021*
X03451Y03021*
X0345Y03021*
X03448Y0302*
X03447Y0302*
X03445Y0302*
X03443Y0302*
X03442Y0302*
X0344Y03021*
X03439Y03021*
X03437Y03021*
X03436Y03022*
X03434Y03022*
X03433Y03023*
X03432Y03023*
X0343Y03024*
X03429Y03025*
X03428Y03026*
X03426Y03027*
X03425Y03028*
X03424Y03029*
X03423Y0303*
X03422Y03031*
X03421Y03032*
X0342Y03034*
X03419Y03035*
X03419Y03036*
X03418Y03038*
X03417Y03039*
X03417Y03041*
X03416Y03042*
X03416Y03044*
X03416Y03045*
X03415Y03047*
X03415Y03048*
X03415Y0305*
X03415Y03052*
X03415Y03053*
X03416Y03055*
X03416Y03056*
X03416Y03058*
X03417Y03059*
X03417Y03061*
X03418Y03062*
X03419Y03063*
X03419Y03065*
X0342Y03066*
X03421Y03067*
X03422Y03069*
X03423Y0307*
X03424Y03071*
X03425Y03072*
X03426Y03073*
X03428Y03074*
X03429Y03075*
X0343Y03076*
X03432Y03076*
X03433Y03077*
X03434Y03078*
X03436Y03078*
X03437Y03079*
X03439Y03079*
X0344Y03079*
X03442Y0308*
X03443Y0308*
X03445Y0308*
X03447Y0308*
G37*
G36*
X03367D02*
X03368Y0308D01*
X0337Y03079*
X03371Y03079*
X03373Y03079*
X03374Y03078*
X03376Y03078*
X03377Y03077*
X03379Y03076*
X0338Y03076*
X03381Y03075*
X03383Y03074*
X03384Y03073*
X03385Y03072*
X03386Y03071*
X03387Y0307*
X03388Y03069*
X03389Y03067*
X0339Y03066*
X03391Y03065*
X03392Y03063*
X03392Y03062*
X03393Y03061*
X03393Y03059*
X03394Y03058*
X03394Y03056*
X03394Y03055*
X03395Y03053*
X03395Y03052*
X03395Y0305*
X03395Y03048*
X03395Y03047*
X03394Y03045*
X03394Y03044*
X03394Y03042*
X03393Y03041*
X03393Y03039*
X03392Y03038*
X03392Y03036*
X03391Y03035*
X0339Y03034*
X03389Y03032*
X03388Y03031*
X03387Y0303*
X03386Y03029*
X03385Y03028*
X03384Y03027*
X03383Y03026*
X03381Y03025*
X0338Y03024*
X03379Y03023*
X03377Y03023*
X03376Y03022*
X03374Y03022*
X03373Y03021*
X03371Y03021*
X0337Y03021*
X03368Y0302*
X03367Y0302*
X03365Y0302*
X03363Y0302*
X03362Y0302*
X0336Y03021*
X03359Y03021*
X03357Y03021*
X03356Y03022*
X03354Y03022*
X03353Y03023*
X03352Y03023*
X0335Y03024*
X03349Y03025*
X03348Y03026*
X03346Y03027*
X03345Y03028*
X03344Y03029*
X03343Y0303*
X03342Y03031*
X03341Y03032*
X0334Y03034*
X03339Y03035*
X03339Y03036*
X03338Y03038*
X03337Y03039*
X03337Y03041*
X03336Y03042*
X03336Y03044*
X03336Y03045*
X03335Y03047*
X03335Y03048*
X03335Y0305*
X03335Y03052*
X03335Y03053*
X03336Y03055*
X03336Y03056*
X03336Y03058*
X03337Y03059*
X03337Y03061*
X03338Y03062*
X03339Y03063*
X03339Y03065*
X0334Y03066*
X03341Y03067*
X03342Y03069*
X03343Y0307*
X03344Y03071*
X03345Y03072*
X03346Y03073*
X03348Y03074*
X03349Y03075*
X0335Y03076*
X03352Y03076*
X03353Y03077*
X03354Y03078*
X03356Y03078*
X03357Y03079*
X03359Y03079*
X0336Y03079*
X03362Y0308*
X03363Y0308*
X03365Y0308*
X03367Y0308*
G37*
G36*
X03686Y03D02*
X03688Y03D01*
X03689Y02999*
X03691Y02999*
X03692Y02999*
X03694Y02998*
X03695Y02998*
X03697Y02997*
X03698Y02996*
X03699Y02996*
X03701Y02995*
X03702Y02994*
X03703Y02993*
X03704Y02992*
X03706Y02991*
X03707Y0299*
X03708Y02989*
X03709Y02987*
X03709Y02986*
X0371Y02985*
X03711Y02983*
X03712Y02982*
X03712Y02981*
X03713Y02979*
X03713Y02978*
X03714Y02976*
X03714Y02975*
X03714Y02973*
X03714Y02972*
X03714Y0297*
X03714Y02968*
X03714Y02967*
X03714Y02965*
X03714Y02964*
X03713Y02962*
X03713Y02961*
X03712Y02959*
X03712Y02958*
X03711Y02956*
X0371Y02955*
X03709Y02954*
X03709Y02952*
X03708Y02951*
X03707Y0295*
X03706Y02949*
X03704Y02948*
X03703Y02947*
X03702Y02946*
X03701Y02945*
X03699Y02944*
X03698Y02943*
X03697Y02943*
X03695Y02942*
X03694Y02942*
X03692Y02941*
X03691Y02941*
X03689Y02941*
X03688Y0294*
X03686Y0294*
X03684Y0294*
X03683Y0294*
X03681Y0294*
X0368Y02941*
X03678Y02941*
X03677Y02941*
X03675Y02942*
X03674Y02942*
X03672Y02943*
X03671Y02943*
X0367Y02944*
X03668Y02945*
X03667Y02946*
X03666Y02947*
X03665Y02948*
X03663Y02949*
X03662Y0295*
X03661Y02951*
X0366Y02952*
X0366Y02954*
X03659Y02955*
X03658Y02956*
X03657Y02958*
X03657Y02959*
X03656Y02961*
X03656Y02962*
X03655Y02964*
X03655Y02965*
X03655Y02967*
X03655Y02968*
X03655Y0297*
X03655Y02972*
X03655Y02973*
X03655Y02975*
X03655Y02976*
X03656Y02978*
X03656Y02979*
X03657Y02981*
X03657Y02982*
X03658Y02983*
X03659Y02985*
X0366Y02986*
X0366Y02987*
X03661Y02989*
X03662Y0299*
X03663Y02991*
X03665Y02992*
X03666Y02993*
X03667Y02994*
X03668Y02995*
X0367Y02996*
X03671Y02996*
X03672Y02997*
X03674Y02998*
X03675Y02998*
X03677Y02999*
X03678Y02999*
X0368Y02999*
X03681Y03*
X03683Y03*
X03684Y03*
X03686Y03*
G37*
G36*
X03606D02*
X03608Y03D01*
X03609Y02999*
X03611Y02999*
X03612Y02999*
X03614Y02998*
X03615Y02998*
X03617Y02997*
X03618Y02996*
X0362Y02996*
X03621Y02995*
X03622Y02994*
X03623Y02993*
X03625Y02992*
X03626Y02991*
X03627Y0299*
X03628Y02989*
X03629Y02987*
X0363Y02986*
X03631Y02985*
X03631Y02983*
X03632Y02982*
X03633Y02981*
X03633Y02979*
X03633Y02978*
X03634Y02976*
X03634Y02975*
X03634Y02973*
X03634Y02972*
X03634Y0297*
X03634Y02968*
X03634Y02967*
X03634Y02965*
X03634Y02964*
X03633Y02962*
X03633Y02961*
X03633Y02959*
X03632Y02958*
X03631Y02956*
X03631Y02955*
X0363Y02954*
X03629Y02952*
X03628Y02951*
X03627Y0295*
X03626Y02949*
X03625Y02948*
X03623Y02947*
X03622Y02946*
X03621Y02945*
X0362Y02944*
X03618Y02943*
X03617Y02943*
X03615Y02942*
X03614Y02942*
X03612Y02941*
X03611Y02941*
X03609Y02941*
X03608Y0294*
X03606Y0294*
X03605Y0294*
X03603Y0294*
X03602Y0294*
X036Y02941*
X03599Y02941*
X03597Y02941*
X03596Y02942*
X03594Y02942*
X03593Y02943*
X03591Y02943*
X0359Y02944*
X03589Y02945*
X03587Y02946*
X03586Y02947*
X03585Y02948*
X03584Y02949*
X03583Y0295*
X03582Y02951*
X03581Y02952*
X0358Y02954*
X03579Y02955*
X03578Y02956*
X03578Y02958*
X03577Y02959*
X03577Y02961*
X03576Y02962*
X03576Y02964*
X03575Y02965*
X03575Y02967*
X03575Y02968*
X03575Y0297*
X03575Y02972*
X03575Y02973*
X03575Y02975*
X03576Y02976*
X03576Y02978*
X03577Y02979*
X03577Y02981*
X03578Y02982*
X03578Y02983*
X03579Y02985*
X0358Y02986*
X03581Y02987*
X03582Y02989*
X03583Y0299*
X03584Y02991*
X03585Y02992*
X03586Y02993*
X03587Y02994*
X03589Y02995*
X0359Y02996*
X03591Y02996*
X03593Y02997*
X03594Y02998*
X03596Y02998*
X03597Y02999*
X03599Y02999*
X036Y02999*
X03602Y03*
X03603Y03*
X03605Y03*
X03606Y03*
G37*
G36*
X03526D02*
X03528Y03D01*
X03529Y02999*
X03531Y02999*
X03532Y02999*
X03534Y02998*
X03535Y02998*
X03537Y02997*
X03538Y02996*
X0354Y02996*
X03541Y02995*
X03542Y02994*
X03543Y02993*
X03545Y02992*
X03546Y02991*
X03547Y0299*
X03548Y02989*
X03549Y02987*
X0355Y02986*
X03551Y02985*
X03551Y02983*
X03552Y02982*
X03553Y02981*
X03553Y02979*
X03553Y02978*
X03554Y02976*
X03554Y02975*
X03554Y02973*
X03554Y02972*
X03554Y0297*
X03554Y02968*
X03554Y02967*
X03554Y02965*
X03554Y02964*
X03553Y02962*
X03553Y02961*
X03553Y02959*
X03552Y02958*
X03551Y02956*
X03551Y02955*
X0355Y02954*
X03549Y02952*
X03548Y02951*
X03547Y0295*
X03546Y02949*
X03545Y02948*
X03543Y02947*
X03542Y02946*
X03541Y02945*
X0354Y02944*
X03538Y02943*
X03537Y02943*
X03535Y02942*
X03534Y02942*
X03532Y02941*
X03531Y02941*
X03529Y02941*
X03528Y0294*
X03526Y0294*
X03525Y0294*
X03523Y0294*
X03522Y0294*
X0352Y02941*
X03519Y02941*
X03517Y02941*
X03516Y02942*
X03514Y02942*
X03513Y02943*
X03511Y02943*
X0351Y02944*
X03509Y02945*
X03507Y02946*
X03506Y02947*
X03505Y02948*
X03504Y02949*
X03503Y0295*
X03502Y02951*
X03501Y02952*
X035Y02954*
X03499Y02955*
X03498Y02956*
X03498Y02958*
X03497Y02959*
X03497Y02961*
X03496Y02962*
X03496Y02964*
X03495Y02965*
X03495Y02967*
X03495Y02968*
X03495Y0297*
X03495Y02972*
X03495Y02973*
X03495Y02975*
X03496Y02976*
X03496Y02978*
X03497Y02979*
X03497Y02981*
X03498Y02982*
X03498Y02983*
X03499Y02985*
X035Y02986*
X03501Y02987*
X03502Y02989*
X03503Y0299*
X03504Y02991*
X03505Y02992*
X03506Y02993*
X03507Y02994*
X03509Y02995*
X0351Y02996*
X03511Y02996*
X03513Y02997*
X03514Y02998*
X03516Y02998*
X03517Y02999*
X03519Y02999*
X0352Y02999*
X03522Y03*
X03523Y03*
X03525Y03*
X03526Y03*
G37*
G36*
X03446D02*
X03448Y03D01*
X03449Y02999*
X03451Y02999*
X03452Y02999*
X03454Y02998*
X03455Y02998*
X03457Y02997*
X03458Y02996*
X0346Y02996*
X03461Y02995*
X03462Y02994*
X03463Y02993*
X03465Y02992*
X03466Y02991*
X03467Y0299*
X03468Y02989*
X03469Y02987*
X0347Y02986*
X03471Y02985*
X03471Y02983*
X03472Y02982*
X03473Y02981*
X03473Y02979*
X03473Y02978*
X03474Y02976*
X03474Y02975*
X03474Y02973*
X03474Y02972*
X03474Y0297*
X03474Y02968*
X03474Y02967*
X03474Y02965*
X03474Y02964*
X03473Y02962*
X03473Y02961*
X03473Y02959*
X03472Y02958*
X03471Y02956*
X03471Y02955*
X0347Y02954*
X03469Y02952*
X03468Y02951*
X03467Y0295*
X03466Y02949*
X03465Y02948*
X03463Y02947*
X03462Y02946*
X03461Y02945*
X0346Y02944*
X03458Y02943*
X03457Y02943*
X03455Y02942*
X03454Y02942*
X03452Y02941*
X03451Y02941*
X03449Y02941*
X03448Y0294*
X03446Y0294*
X03445Y0294*
X03443Y0294*
X03442Y0294*
X0344Y02941*
X03439Y02941*
X03437Y02941*
X03436Y02942*
X03434Y02942*
X03433Y02943*
X03431Y02943*
X0343Y02944*
X03429Y02945*
X03427Y02946*
X03426Y02947*
X03425Y02948*
X03424Y02949*
X03423Y0295*
X03422Y02951*
X03421Y02952*
X0342Y02954*
X03419Y02955*
X03418Y02956*
X03418Y02958*
X03417Y02959*
X03417Y02961*
X03416Y02962*
X03416Y02964*
X03415Y02965*
X03415Y02967*
X03415Y02968*
X03415Y0297*
X03415Y02972*
X03415Y02973*
X03415Y02975*
X03416Y02976*
X03416Y02978*
X03417Y02979*
X03417Y02981*
X03418Y02982*
X03418Y02983*
X03419Y02985*
X0342Y02986*
X03421Y02987*
X03422Y02989*
X03423Y0299*
X03424Y02991*
X03425Y02992*
X03426Y02993*
X03427Y02994*
X03429Y02995*
X0343Y02996*
X03431Y02996*
X03433Y02997*
X03434Y02998*
X03436Y02998*
X03437Y02999*
X03439Y02999*
X0344Y02999*
X03442Y03*
X03443Y03*
X03445Y03*
X03446Y03*
G37*
G36*
X03366D02*
X03368Y03D01*
X03369Y02999*
X03371Y02999*
X03372Y02999*
X03374Y02998*
X03375Y02998*
X03377Y02997*
X03378Y02996*
X0338Y02996*
X03381Y02995*
X03382Y02994*
X03383Y02993*
X03385Y02992*
X03386Y02991*
X03387Y0299*
X03388Y02989*
X03389Y02987*
X0339Y02986*
X03391Y02985*
X03391Y02983*
X03392Y02982*
X03393Y02981*
X03393Y02979*
X03393Y02978*
X03394Y02976*
X03394Y02975*
X03394Y02973*
X03394Y02972*
X03394Y0297*
X03394Y02968*
X03394Y02967*
X03394Y02965*
X03394Y02964*
X03393Y02962*
X03393Y02961*
X03393Y02959*
X03392Y02958*
X03391Y02956*
X03391Y02955*
X0339Y02954*
X03389Y02952*
X03388Y02951*
X03387Y0295*
X03386Y02949*
X03385Y02948*
X03383Y02947*
X03382Y02946*
X03381Y02945*
X0338Y02944*
X03378Y02943*
X03377Y02943*
X03375Y02942*
X03374Y02942*
X03372Y02941*
X03371Y02941*
X03369Y02941*
X03368Y0294*
X03366Y0294*
X03365Y0294*
X03363Y0294*
X03362Y0294*
X0336Y02941*
X03359Y02941*
X03357Y02941*
X03356Y02942*
X03354Y02942*
X03353Y02943*
X03351Y02943*
X0335Y02944*
X03349Y02945*
X03347Y02946*
X03346Y02947*
X03345Y02948*
X03344Y02949*
X03343Y0295*
X03342Y02951*
X03341Y02952*
X0334Y02954*
X03339Y02955*
X03338Y02956*
X03338Y02958*
X03337Y02959*
X03337Y02961*
X03336Y02962*
X03336Y02964*
X03335Y02965*
X03335Y02967*
X03335Y02968*
X03335Y0297*
X03335Y02972*
X03335Y02973*
X03335Y02975*
X03336Y02976*
X03336Y02978*
X03337Y02979*
X03337Y02981*
X03338Y02982*
X03338Y02983*
X03339Y02985*
X0334Y02986*
X03341Y02987*
X03342Y02989*
X03343Y0299*
X03344Y02991*
X03345Y02992*
X03346Y02993*
X03347Y02994*
X03349Y02995*
X0335Y02996*
X03351Y02996*
X03353Y02997*
X03354Y02998*
X03356Y02998*
X03357Y02999*
X03359Y02999*
X0336Y02999*
X03362Y03*
X03363Y03*
X03365Y03*
X03366Y03*
G37*
G36*
X04226Y03075D02*
X04228Y03075D01*
X04229Y03074*
X04231Y03074*
X04232Y03074*
X04234Y03073*
X04235Y03073*
X04237Y03072*
X04238Y03071*
X0424Y03071*
X04241Y0307*
X04242Y03069*
X04243Y03068*
X04245Y03067*
X04246Y03066*
X04247Y03065*
X04248Y03064*
X04249Y03062*
X0425Y03061*
X04251Y0306*
X04251Y03058*
X04252Y03057*
X04253Y03056*
X04253Y03054*
X04253Y03053*
X04254Y03051*
X04254Y0305*
X04254Y03048*
X04254Y03047*
X04254Y03045*
X04254Y03043*
X04254Y03042*
X04254Y0304*
X04254Y03039*
X04253Y03037*
X04253Y03036*
X04253Y03034*
X04252Y03033*
X04251Y03031*
X04251Y0303*
X0425Y03029*
X04249Y03027*
X04248Y03026*
X04247Y03025*
X04246Y03024*
X04245Y03023*
X04243Y03022*
X04242Y03021*
X04241Y0302*
X0424Y03019*
X04238Y03018*
X04237Y03018*
X04235Y03017*
X04234Y03017*
X04232Y03016*
X04231Y03016*
X04229Y03016*
X04228Y03015*
X04226Y03015*
X04225Y03015*
X04223Y03015*
X04222Y03015*
X0422Y03016*
X04219Y03016*
X04217Y03016*
X04216Y03017*
X04214Y03017*
X04213Y03018*
X04211Y03018*
X0421Y03019*
X04209Y0302*
X04207Y03021*
X04206Y03022*
X04205Y03023*
X04204Y03024*
X04203Y03025*
X04202Y03026*
X04201Y03027*
X042Y03029*
X04199Y0303*
X04198Y03031*
X04198Y03033*
X04197Y03034*
X04197Y03036*
X04196Y03037*
X04196Y03039*
X04195Y0304*
X04195Y03042*
X04195Y03043*
X04195Y03045*
X04195Y03047*
X04195Y03048*
X04195Y0305*
X04196Y03051*
X04196Y03053*
X04197Y03054*
X04197Y03056*
X04198Y03057*
X04198Y03058*
X04199Y0306*
X042Y03061*
X04201Y03062*
X04202Y03064*
X04203Y03065*
X04204Y03066*
X04205Y03067*
X04206Y03068*
X04207Y03069*
X04209Y0307*
X0421Y03071*
X04211Y03071*
X04213Y03072*
X04214Y03073*
X04216Y03073*
X04217Y03074*
X04219Y03074*
X0422Y03074*
X04222Y03075*
X04223Y03075*
X04225Y03075*
X04226Y03075*
G37*
G36*
X04147D02*
X04148Y03075D01*
X0415Y03074*
X04151Y03074*
X04153Y03074*
X04154Y03073*
X04156Y03073*
X04157Y03072*
X04159Y03071*
X0416Y03071*
X04161Y0307*
X04163Y03069*
X04164Y03068*
X04165Y03067*
X04166Y03066*
X04167Y03065*
X04168Y03064*
X04169Y03062*
X0417Y03061*
X04171Y0306*
X04172Y03058*
X04172Y03057*
X04173Y03056*
X04173Y03054*
X04174Y03053*
X04174Y03051*
X04174Y0305*
X04175Y03048*
X04175Y03047*
X04175Y03045*
X04175Y03043*
X04175Y03042*
X04174Y0304*
X04174Y03039*
X04174Y03037*
X04173Y03036*
X04173Y03034*
X04172Y03033*
X04172Y03031*
X04171Y0303*
X0417Y03029*
X04169Y03027*
X04168Y03026*
X04167Y03025*
X04166Y03024*
X04165Y03023*
X04164Y03022*
X04163Y03021*
X04161Y0302*
X0416Y03019*
X04159Y03018*
X04157Y03018*
X04156Y03017*
X04154Y03017*
X04153Y03016*
X04151Y03016*
X0415Y03016*
X04148Y03015*
X04147Y03015*
X04145Y03015*
X04143Y03015*
X04142Y03015*
X0414Y03016*
X04139Y03016*
X04137Y03016*
X04136Y03017*
X04134Y03017*
X04133Y03018*
X04132Y03018*
X0413Y03019*
X04129Y0302*
X04128Y03021*
X04126Y03022*
X04125Y03023*
X04124Y03024*
X04123Y03025*
X04122Y03026*
X04121Y03027*
X0412Y03029*
X04119Y0303*
X04119Y03031*
X04118Y03033*
X04117Y03034*
X04117Y03036*
X04116Y03037*
X04116Y03039*
X04116Y0304*
X04115Y03042*
X04115Y03043*
X04115Y03045*
X04115Y03047*
X04115Y03048*
X04116Y0305*
X04116Y03051*
X04116Y03053*
X04117Y03054*
X04117Y03056*
X04118Y03057*
X04119Y03058*
X04119Y0306*
X0412Y03061*
X04121Y03062*
X04122Y03064*
X04123Y03065*
X04124Y03066*
X04125Y03067*
X04126Y03068*
X04128Y03069*
X04129Y0307*
X0413Y03071*
X04132Y03071*
X04133Y03072*
X04134Y03073*
X04136Y03073*
X04137Y03074*
X04139Y03074*
X0414Y03074*
X04142Y03075*
X04143Y03075*
X04145Y03075*
X04147Y03075*
G37*
G36*
X04067D02*
X04068Y03075D01*
X0407Y03074*
X04071Y03074*
X04073Y03074*
X04074Y03073*
X04076Y03073*
X04077Y03072*
X04079Y03071*
X0408Y03071*
X04081Y0307*
X04083Y03069*
X04084Y03068*
X04085Y03067*
X04086Y03066*
X04087Y03065*
X04088Y03064*
X04089Y03062*
X0409Y03061*
X04091Y0306*
X04092Y03058*
X04092Y03057*
X04093Y03056*
X04093Y03054*
X04094Y03053*
X04094Y03051*
X04094Y0305*
X04095Y03048*
X04095Y03047*
X04095Y03045*
X04095Y03043*
X04095Y03042*
X04094Y0304*
X04094Y03039*
X04094Y03037*
X04093Y03036*
X04093Y03034*
X04092Y03033*
X04092Y03031*
X04091Y0303*
X0409Y03029*
X04089Y03027*
X04088Y03026*
X04087Y03025*
X04086Y03024*
X04085Y03023*
X04084Y03022*
X04083Y03021*
X04081Y0302*
X0408Y03019*
X04079Y03018*
X04077Y03018*
X04076Y03017*
X04074Y03017*
X04073Y03016*
X04071Y03016*
X0407Y03016*
X04068Y03015*
X04067Y03015*
X04065Y03015*
X04063Y03015*
X04062Y03015*
X0406Y03016*
X04059Y03016*
X04057Y03016*
X04056Y03017*
X04054Y03017*
X04053Y03018*
X04052Y03018*
X0405Y03019*
X04049Y0302*
X04048Y03021*
X04046Y03022*
X04045Y03023*
X04044Y03024*
X04043Y03025*
X04042Y03026*
X04041Y03027*
X0404Y03029*
X04039Y0303*
X04039Y03031*
X04038Y03033*
X04037Y03034*
X04037Y03036*
X04036Y03037*
X04036Y03039*
X04036Y0304*
X04035Y03042*
X04035Y03043*
X04035Y03045*
X04035Y03047*
X04035Y03048*
X04036Y0305*
X04036Y03051*
X04036Y03053*
X04037Y03054*
X04037Y03056*
X04038Y03057*
X04039Y03058*
X04039Y0306*
X0404Y03061*
X04041Y03062*
X04042Y03064*
X04043Y03065*
X04044Y03066*
X04045Y03067*
X04046Y03068*
X04048Y03069*
X04049Y0307*
X0405Y03071*
X04052Y03071*
X04053Y03072*
X04054Y03073*
X04056Y03073*
X04057Y03074*
X04059Y03074*
X0406Y03074*
X04062Y03075*
X04063Y03075*
X04065Y03075*
X04067Y03075*
G37*
G36*
X03987D02*
X03988Y03075D01*
X0399Y03074*
X03991Y03074*
X03993Y03074*
X03994Y03073*
X03996Y03073*
X03997Y03072*
X03999Y03071*
X04Y03071*
X04001Y0307*
X04003Y03069*
X04004Y03068*
X04005Y03067*
X04006Y03066*
X04007Y03065*
X04008Y03064*
X04009Y03062*
X0401Y03061*
X04011Y0306*
X04012Y03058*
X04012Y03057*
X04013Y03056*
X04013Y03054*
X04014Y03053*
X04014Y03051*
X04014Y0305*
X04015Y03048*
X04015Y03047*
X04015Y03045*
X04015Y03043*
X04015Y03042*
X04014Y0304*
X04014Y03039*
X04014Y03037*
X04013Y03036*
X04013Y03034*
X04012Y03033*
X04012Y03031*
X04011Y0303*
X0401Y03029*
X04009Y03027*
X04008Y03026*
X04007Y03025*
X04006Y03024*
X04005Y03023*
X04004Y03022*
X04003Y03021*
X04001Y0302*
X04Y03019*
X03999Y03018*
X03997Y03018*
X03996Y03017*
X03994Y03017*
X03993Y03016*
X03991Y03016*
X0399Y03016*
X03988Y03015*
X03987Y03015*
X03985Y03015*
X03983Y03015*
X03982Y03015*
X0398Y03016*
X03979Y03016*
X03977Y03016*
X03976Y03017*
X03974Y03017*
X03973Y03018*
X03972Y03018*
X0397Y03019*
X03969Y0302*
X03968Y03021*
X03966Y03022*
X03965Y03023*
X03964Y03024*
X03963Y03025*
X03962Y03026*
X03961Y03027*
X0396Y03029*
X03959Y0303*
X03959Y03031*
X03958Y03033*
X03957Y03034*
X03957Y03036*
X03956Y03037*
X03956Y03039*
X03956Y0304*
X03955Y03042*
X03955Y03043*
X03955Y03045*
X03955Y03047*
X03955Y03048*
X03956Y0305*
X03956Y03051*
X03956Y03053*
X03957Y03054*
X03957Y03056*
X03958Y03057*
X03959Y03058*
X03959Y0306*
X0396Y03061*
X03961Y03062*
X03962Y03064*
X03963Y03065*
X03964Y03066*
X03965Y03067*
X03966Y03068*
X03968Y03069*
X03969Y0307*
X0397Y03071*
X03972Y03071*
X03973Y03072*
X03974Y03073*
X03976Y03073*
X03977Y03074*
X03979Y03074*
X0398Y03074*
X03982Y03075*
X03983Y03075*
X03985Y03075*
X03987Y03075*
G37*
G36*
X03907D02*
X03908Y03075D01*
X0391Y03074*
X03911Y03074*
X03913Y03074*
X03914Y03073*
X03916Y03073*
X03917Y03072*
X03919Y03071*
X0392Y03071*
X03921Y0307*
X03923Y03069*
X03924Y03068*
X03925Y03067*
X03926Y03066*
X03927Y03065*
X03928Y03064*
X03929Y03062*
X0393Y03061*
X03931Y0306*
X03932Y03058*
X03932Y03057*
X03933Y03056*
X03933Y03054*
X03934Y03053*
X03934Y03051*
X03934Y0305*
X03935Y03048*
X03935Y03047*
X03935Y03045*
X03935Y03043*
X03935Y03042*
X03934Y0304*
X03934Y03039*
X03934Y03037*
X03933Y03036*
X03933Y03034*
X03932Y03033*
X03932Y03031*
X03931Y0303*
X0393Y03029*
X03929Y03027*
X03928Y03026*
X03927Y03025*
X03926Y03024*
X03925Y03023*
X03924Y03022*
X03923Y03021*
X03921Y0302*
X0392Y03019*
X03919Y03018*
X03917Y03018*
X03916Y03017*
X03914Y03017*
X03913Y03016*
X03911Y03016*
X0391Y03016*
X03908Y03015*
X03907Y03015*
X03905Y03015*
X03903Y03015*
X03902Y03015*
X039Y03016*
X03899Y03016*
X03897Y03016*
X03896Y03017*
X03894Y03017*
X03893Y03018*
X03892Y03018*
X0389Y03019*
X03889Y0302*
X03888Y03021*
X03886Y03022*
X03885Y03023*
X03884Y03024*
X03883Y03025*
X03882Y03026*
X03881Y03027*
X0388Y03029*
X03879Y0303*
X03879Y03031*
X03878Y03033*
X03877Y03034*
X03877Y03036*
X03876Y03037*
X03876Y03039*
X03876Y0304*
X03875Y03042*
X03875Y03043*
X03875Y03045*
X03875Y03047*
X03875Y03048*
X03876Y0305*
X03876Y03051*
X03876Y03053*
X03877Y03054*
X03877Y03056*
X03878Y03057*
X03879Y03058*
X03879Y0306*
X0388Y03061*
X03881Y03062*
X03882Y03064*
X03883Y03065*
X03884Y03066*
X03885Y03067*
X03886Y03068*
X03888Y03069*
X03889Y0307*
X0389Y03071*
X03892Y03071*
X03893Y03072*
X03894Y03073*
X03896Y03073*
X03897Y03074*
X03899Y03074*
X039Y03074*
X03902Y03075*
X03903Y03075*
X03905Y03075*
X03907Y03075*
G37*
G36*
X04226Y02995D02*
X04228Y02995D01*
X04229Y02994*
X04231Y02994*
X04232Y02994*
X04234Y02993*
X04235Y02993*
X04237Y02992*
X04238Y02991*
X04239Y02991*
X04241Y0299*
X04242Y02989*
X04243Y02988*
X04244Y02987*
X04246Y02986*
X04247Y02985*
X04248Y02984*
X04249Y02982*
X04249Y02981*
X0425Y0298*
X04251Y02978*
X04252Y02977*
X04252Y02976*
X04253Y02974*
X04253Y02973*
X04254Y02971*
X04254Y0297*
X04254Y02968*
X04254Y02967*
X04254Y02965*
X04254Y02963*
X04254Y02962*
X04254Y0296*
X04254Y02959*
X04253Y02957*
X04253Y02956*
X04252Y02954*
X04252Y02953*
X04251Y02951*
X0425Y0295*
X04249Y02949*
X04249Y02947*
X04248Y02946*
X04247Y02945*
X04246Y02944*
X04244Y02943*
X04243Y02942*
X04242Y02941*
X04241Y0294*
X04239Y02939*
X04238Y02938*
X04237Y02938*
X04235Y02937*
X04234Y02937*
X04232Y02936*
X04231Y02936*
X04229Y02936*
X04228Y02935*
X04226Y02935*
X04224Y02935*
X04223Y02935*
X04221Y02935*
X0422Y02936*
X04218Y02936*
X04217Y02936*
X04215Y02937*
X04214Y02937*
X04212Y02938*
X04211Y02938*
X0421Y02939*
X04208Y0294*
X04207Y02941*
X04206Y02942*
X04205Y02943*
X04203Y02944*
X04202Y02945*
X04201Y02946*
X042Y02947*
X042Y02949*
X04199Y0295*
X04198Y02951*
X04197Y02953*
X04197Y02954*
X04196Y02956*
X04196Y02957*
X04195Y02959*
X04195Y0296*
X04195Y02962*
X04195Y02963*
X04195Y02965*
X04195Y02967*
X04195Y02968*
X04195Y0297*
X04195Y02971*
X04196Y02973*
X04196Y02974*
X04197Y02976*
X04197Y02977*
X04198Y02978*
X04199Y0298*
X042Y02981*
X042Y02982*
X04201Y02984*
X04202Y02985*
X04203Y02986*
X04205Y02987*
X04206Y02988*
X04207Y02989*
X04208Y0299*
X0421Y02991*
X04211Y02991*
X04212Y02992*
X04214Y02993*
X04215Y02993*
X04217Y02994*
X04218Y02994*
X0422Y02994*
X04221Y02995*
X04223Y02995*
X04224Y02995*
X04226Y02995*
G37*
G36*
X04146D02*
X04148Y02995D01*
X04149Y02994*
X04151Y02994*
X04152Y02994*
X04154Y02993*
X04155Y02993*
X04157Y02992*
X04158Y02991*
X0416Y02991*
X04161Y0299*
X04162Y02989*
X04163Y02988*
X04165Y02987*
X04166Y02986*
X04167Y02985*
X04168Y02984*
X04169Y02982*
X0417Y02981*
X04171Y0298*
X04171Y02978*
X04172Y02977*
X04173Y02976*
X04173Y02974*
X04173Y02973*
X04174Y02971*
X04174Y0297*
X04174Y02968*
X04174Y02967*
X04174Y02965*
X04174Y02963*
X04174Y02962*
X04174Y0296*
X04174Y02959*
X04173Y02957*
X04173Y02956*
X04173Y02954*
X04172Y02953*
X04171Y02951*
X04171Y0295*
X0417Y02949*
X04169Y02947*
X04168Y02946*
X04167Y02945*
X04166Y02944*
X04165Y02943*
X04163Y02942*
X04162Y02941*
X04161Y0294*
X0416Y02939*
X04158Y02938*
X04157Y02938*
X04155Y02937*
X04154Y02937*
X04152Y02936*
X04151Y02936*
X04149Y02936*
X04148Y02935*
X04146Y02935*
X04145Y02935*
X04143Y02935*
X04142Y02935*
X0414Y02936*
X04139Y02936*
X04137Y02936*
X04136Y02937*
X04134Y02937*
X04133Y02938*
X04131Y02938*
X0413Y02939*
X04129Y0294*
X04127Y02941*
X04126Y02942*
X04125Y02943*
X04124Y02944*
X04123Y02945*
X04122Y02946*
X04121Y02947*
X0412Y02949*
X04119Y0295*
X04118Y02951*
X04118Y02953*
X04117Y02954*
X04117Y02956*
X04116Y02957*
X04116Y02959*
X04115Y0296*
X04115Y02962*
X04115Y02963*
X04115Y02965*
X04115Y02967*
X04115Y02968*
X04115Y0297*
X04116Y02971*
X04116Y02973*
X04117Y02974*
X04117Y02976*
X04118Y02977*
X04118Y02978*
X04119Y0298*
X0412Y02981*
X04121Y02982*
X04122Y02984*
X04123Y02985*
X04124Y02986*
X04125Y02987*
X04126Y02988*
X04127Y02989*
X04129Y0299*
X0413Y02991*
X04131Y02991*
X04133Y02992*
X04134Y02993*
X04136Y02993*
X04137Y02994*
X04139Y02994*
X0414Y02994*
X04142Y02995*
X04143Y02995*
X04145Y02995*
X04146Y02995*
G37*
G36*
X04066D02*
X04068Y02995D01*
X04069Y02994*
X04071Y02994*
X04072Y02994*
X04074Y02993*
X04075Y02993*
X04077Y02992*
X04078Y02991*
X0408Y02991*
X04081Y0299*
X04082Y02989*
X04083Y02988*
X04085Y02987*
X04086Y02986*
X04087Y02985*
X04088Y02984*
X04089Y02982*
X0409Y02981*
X04091Y0298*
X04091Y02978*
X04092Y02977*
X04093Y02976*
X04093Y02974*
X04093Y02973*
X04094Y02971*
X04094Y0297*
X04094Y02968*
X04094Y02967*
X04094Y02965*
X04094Y02963*
X04094Y02962*
X04094Y0296*
X04094Y02959*
X04093Y02957*
X04093Y02956*
X04093Y02954*
X04092Y02953*
X04091Y02951*
X04091Y0295*
X0409Y02949*
X04089Y02947*
X04088Y02946*
X04087Y02945*
X04086Y02944*
X04085Y02943*
X04083Y02942*
X04082Y02941*
X04081Y0294*
X0408Y02939*
X04078Y02938*
X04077Y02938*
X04075Y02937*
X04074Y02937*
X04072Y02936*
X04071Y02936*
X04069Y02936*
X04068Y02935*
X04066Y02935*
X04065Y02935*
X04063Y02935*
X04062Y02935*
X0406Y02936*
X04059Y02936*
X04057Y02936*
X04056Y02937*
X04054Y02937*
X04053Y02938*
X04051Y02938*
X0405Y02939*
X04049Y0294*
X04047Y02941*
X04046Y02942*
X04045Y02943*
X04044Y02944*
X04043Y02945*
X04042Y02946*
X04041Y02947*
X0404Y02949*
X04039Y0295*
X04038Y02951*
X04038Y02953*
X04037Y02954*
X04037Y02956*
X04036Y02957*
X04036Y02959*
X04035Y0296*
X04035Y02962*
X04035Y02963*
X04035Y02965*
X04035Y02967*
X04035Y02968*
X04035Y0297*
X04036Y02971*
X04036Y02973*
X04037Y02974*
X04037Y02976*
X04038Y02977*
X04038Y02978*
X04039Y0298*
X0404Y02981*
X04041Y02982*
X04042Y02984*
X04043Y02985*
X04044Y02986*
X04045Y02987*
X04046Y02988*
X04047Y02989*
X04049Y0299*
X0405Y02991*
X04051Y02991*
X04053Y02992*
X04054Y02993*
X04056Y02993*
X04057Y02994*
X04059Y02994*
X0406Y02994*
X04062Y02995*
X04063Y02995*
X04065Y02995*
X04066Y02995*
G37*
G36*
X03986D02*
X03988Y02995D01*
X03989Y02994*
X03991Y02994*
X03992Y02994*
X03994Y02993*
X03995Y02993*
X03997Y02992*
X03998Y02991*
X04Y02991*
X04001Y0299*
X04002Y02989*
X04003Y02988*
X04005Y02987*
X04006Y02986*
X04007Y02985*
X04008Y02984*
X04009Y02982*
X0401Y02981*
X04011Y0298*
X04011Y02978*
X04012Y02977*
X04013Y02976*
X04013Y02974*
X04013Y02973*
X04014Y02971*
X04014Y0297*
X04014Y02968*
X04014Y02967*
X04014Y02965*
X04014Y02963*
X04014Y02962*
X04014Y0296*
X04014Y02959*
X04013Y02957*
X04013Y02956*
X04013Y02954*
X04012Y02953*
X04011Y02951*
X04011Y0295*
X0401Y02949*
X04009Y02947*
X04008Y02946*
X04007Y02945*
X04006Y02944*
X04005Y02943*
X04003Y02942*
X04002Y02941*
X04001Y0294*
X04Y02939*
X03998Y02938*
X03997Y02938*
X03995Y02937*
X03994Y02937*
X03992Y02936*
X03991Y02936*
X03989Y02936*
X03988Y02935*
X03986Y02935*
X03985Y02935*
X03983Y02935*
X03982Y02935*
X0398Y02936*
X03979Y02936*
X03977Y02936*
X03976Y02937*
X03974Y02937*
X03973Y02938*
X03971Y02938*
X0397Y02939*
X03969Y0294*
X03967Y02941*
X03966Y02942*
X03965Y02943*
X03964Y02944*
X03963Y02945*
X03962Y02946*
X03961Y02947*
X0396Y02949*
X03959Y0295*
X03958Y02951*
X03958Y02953*
X03957Y02954*
X03957Y02956*
X03956Y02957*
X03956Y02959*
X03955Y0296*
X03955Y02962*
X03955Y02963*
X03955Y02965*
X03955Y02967*
X03955Y02968*
X03955Y0297*
X03956Y02971*
X03956Y02973*
X03957Y02974*
X03957Y02976*
X03958Y02977*
X03958Y02978*
X03959Y0298*
X0396Y02981*
X03961Y02982*
X03962Y02984*
X03963Y02985*
X03964Y02986*
X03965Y02987*
X03966Y02988*
X03967Y02989*
X03969Y0299*
X0397Y02991*
X03971Y02991*
X03973Y02992*
X03974Y02993*
X03976Y02993*
X03977Y02994*
X03979Y02994*
X0398Y02994*
X03982Y02995*
X03983Y02995*
X03985Y02995*
X03986Y02995*
G37*
G36*
X03906D02*
X03908Y02995D01*
X03909Y02994*
X03911Y02994*
X03912Y02994*
X03914Y02993*
X03915Y02993*
X03917Y02992*
X03918Y02991*
X0392Y02991*
X03921Y0299*
X03922Y02989*
X03923Y02988*
X03925Y02987*
X03926Y02986*
X03927Y02985*
X03928Y02984*
X03929Y02982*
X0393Y02981*
X03931Y0298*
X03931Y02978*
X03932Y02977*
X03933Y02976*
X03933Y02974*
X03933Y02973*
X03934Y02971*
X03934Y0297*
X03934Y02968*
X03934Y02967*
X03934Y02965*
X03934Y02963*
X03934Y02962*
X03934Y0296*
X03934Y02959*
X03933Y02957*
X03933Y02956*
X03933Y02954*
X03932Y02953*
X03931Y02951*
X03931Y0295*
X0393Y02949*
X03929Y02947*
X03928Y02946*
X03927Y02945*
X03926Y02944*
X03925Y02943*
X03923Y02942*
X03922Y02941*
X03921Y0294*
X0392Y02939*
X03918Y02938*
X03917Y02938*
X03915Y02937*
X03914Y02937*
X03912Y02936*
X03911Y02936*
X03909Y02936*
X03908Y02935*
X03906Y02935*
X03905Y02935*
X03903Y02935*
X03902Y02935*
X039Y02936*
X03899Y02936*
X03897Y02936*
X03896Y02937*
X03894Y02937*
X03893Y02938*
X03891Y02938*
X0389Y02939*
X03889Y0294*
X03887Y02941*
X03886Y02942*
X03885Y02943*
X03884Y02944*
X03883Y02945*
X03882Y02946*
X03881Y02947*
X0388Y02949*
X03879Y0295*
X03878Y02951*
X03878Y02953*
X03877Y02954*
X03877Y02956*
X03876Y02957*
X03876Y02959*
X03875Y0296*
X03875Y02962*
X03875Y02963*
X03875Y02965*
X03875Y02967*
X03875Y02968*
X03875Y0297*
X03876Y02971*
X03876Y02973*
X03877Y02974*
X03877Y02976*
X03878Y02977*
X03878Y02978*
X03879Y0298*
X0388Y02981*
X03881Y02982*
X03882Y02984*
X03883Y02985*
X03884Y02986*
X03885Y02987*
X03886Y02988*
X03887Y02989*
X03889Y0299*
X0389Y02991*
X03891Y02991*
X03893Y02992*
X03894Y02993*
X03896Y02993*
X03897Y02994*
X03899Y02994*
X039Y02994*
X03902Y02995*
X03903Y02995*
X03905Y02995*
X03906Y02995*
G37*
G36*
X04626Y03075D02*
X04628Y03075D01*
X04629Y03074*
X04631Y03074*
X04632Y03074*
X04634Y03073*
X04635Y03073*
X04637Y03072*
X04638Y03071*
X0464Y03071*
X04641Y0307*
X04642Y03069*
X04643Y03068*
X04645Y03067*
X04646Y03066*
X04647Y03065*
X04648Y03064*
X04649Y03062*
X0465Y03061*
X04651Y0306*
X04651Y03058*
X04652Y03057*
X04653Y03056*
X04653Y03054*
X04653Y03053*
X04654Y03051*
X04654Y0305*
X04654Y03048*
X04654Y03047*
X04654Y03045*
X04654Y03043*
X04654Y03042*
X04654Y0304*
X04654Y03039*
X04653Y03037*
X04653Y03036*
X04653Y03034*
X04652Y03033*
X04651Y03031*
X04651Y0303*
X0465Y03029*
X04649Y03027*
X04648Y03026*
X04647Y03025*
X04646Y03024*
X04645Y03023*
X04643Y03022*
X04642Y03021*
X04641Y0302*
X0464Y03019*
X04638Y03018*
X04637Y03018*
X04635Y03017*
X04634Y03017*
X04632Y03016*
X04631Y03016*
X04629Y03016*
X04628Y03015*
X04626Y03015*
X04625Y03015*
X04623Y03015*
X04622Y03015*
X0462Y03016*
X04619Y03016*
X04617Y03016*
X04616Y03017*
X04614Y03017*
X04613Y03018*
X04611Y03018*
X0461Y03019*
X04609Y0302*
X04607Y03021*
X04606Y03022*
X04605Y03023*
X04604Y03024*
X04603Y03025*
X04602Y03026*
X04601Y03027*
X046Y03029*
X04599Y0303*
X04598Y03031*
X04598Y03033*
X04597Y03034*
X04597Y03036*
X04596Y03037*
X04596Y03039*
X04595Y0304*
X04595Y03042*
X04595Y03043*
X04595Y03045*
X04595Y03047*
X04595Y03048*
X04595Y0305*
X04596Y03051*
X04596Y03053*
X04597Y03054*
X04597Y03056*
X04598Y03057*
X04598Y03058*
X04599Y0306*
X046Y03061*
X04601Y03062*
X04602Y03064*
X04603Y03065*
X04604Y03066*
X04605Y03067*
X04606Y03068*
X04607Y03069*
X04609Y0307*
X0461Y03071*
X04611Y03071*
X04613Y03072*
X04614Y03073*
X04616Y03073*
X04617Y03074*
X04619Y03074*
X0462Y03074*
X04622Y03075*
X04623Y03075*
X04625Y03075*
X04626Y03075*
G37*
G36*
X04547D02*
X04548Y03075D01*
X0455Y03074*
X04551Y03074*
X04553Y03074*
X04554Y03073*
X04556Y03073*
X04557Y03072*
X04559Y03071*
X0456Y03071*
X04561Y0307*
X04563Y03069*
X04564Y03068*
X04565Y03067*
X04566Y03066*
X04567Y03065*
X04568Y03064*
X04569Y03062*
X0457Y03061*
X04571Y0306*
X04572Y03058*
X04572Y03057*
X04573Y03056*
X04573Y03054*
X04574Y03053*
X04574Y03051*
X04574Y0305*
X04575Y03048*
X04575Y03047*
X04575Y03045*
X04575Y03043*
X04575Y03042*
X04574Y0304*
X04574Y03039*
X04574Y03037*
X04573Y03036*
X04573Y03034*
X04572Y03033*
X04572Y03031*
X04571Y0303*
X0457Y03029*
X04569Y03027*
X04568Y03026*
X04567Y03025*
X04566Y03024*
X04565Y03023*
X04564Y03022*
X04563Y03021*
X04561Y0302*
X0456Y03019*
X04559Y03018*
X04557Y03018*
X04556Y03017*
X04554Y03017*
X04553Y03016*
X04551Y03016*
X0455Y03016*
X04548Y03015*
X04547Y03015*
X04545Y03015*
X04543Y03015*
X04542Y03015*
X0454Y03016*
X04539Y03016*
X04537Y03016*
X04536Y03017*
X04534Y03017*
X04533Y03018*
X04532Y03018*
X0453Y03019*
X04529Y0302*
X04528Y03021*
X04526Y03022*
X04525Y03023*
X04524Y03024*
X04523Y03025*
X04522Y03026*
X04521Y03027*
X0452Y03029*
X04519Y0303*
X04519Y03031*
X04518Y03033*
X04517Y03034*
X04517Y03036*
X04516Y03037*
X04516Y03039*
X04516Y0304*
X04515Y03042*
X04515Y03043*
X04515Y03045*
X04515Y03047*
X04515Y03048*
X04516Y0305*
X04516Y03051*
X04516Y03053*
X04517Y03054*
X04517Y03056*
X04518Y03057*
X04519Y03058*
X04519Y0306*
X0452Y03061*
X04521Y03062*
X04522Y03064*
X04523Y03065*
X04524Y03066*
X04525Y03067*
X04526Y03068*
X04528Y03069*
X04529Y0307*
X0453Y03071*
X04532Y03071*
X04533Y03072*
X04534Y03073*
X04536Y03073*
X04537Y03074*
X04539Y03074*
X0454Y03074*
X04542Y03075*
X04543Y03075*
X04545Y03075*
X04547Y03075*
G37*
G36*
X04467D02*
X04468Y03075D01*
X0447Y03074*
X04471Y03074*
X04473Y03074*
X04474Y03073*
X04476Y03073*
X04477Y03072*
X04479Y03071*
X0448Y03071*
X04481Y0307*
X04483Y03069*
X04484Y03068*
X04485Y03067*
X04486Y03066*
X04487Y03065*
X04488Y03064*
X04489Y03062*
X0449Y03061*
X04491Y0306*
X04492Y03058*
X04492Y03057*
X04493Y03056*
X04493Y03054*
X04494Y03053*
X04494Y03051*
X04494Y0305*
X04495Y03048*
X04495Y03047*
X04495Y03045*
X04495Y03043*
X04495Y03042*
X04494Y0304*
X04494Y03039*
X04494Y03037*
X04493Y03036*
X04493Y03034*
X04492Y03033*
X04492Y03031*
X04491Y0303*
X0449Y03029*
X04489Y03027*
X04488Y03026*
X04487Y03025*
X04486Y03024*
X04485Y03023*
X04484Y03022*
X04483Y03021*
X04481Y0302*
X0448Y03019*
X04479Y03018*
X04477Y03018*
X04476Y03017*
X04474Y03017*
X04473Y03016*
X04471Y03016*
X0447Y03016*
X04468Y03015*
X04467Y03015*
X04465Y03015*
X04463Y03015*
X04462Y03015*
X0446Y03016*
X04459Y03016*
X04457Y03016*
X04456Y03017*
X04454Y03017*
X04453Y03018*
X04452Y03018*
X0445Y03019*
X04449Y0302*
X04448Y03021*
X04446Y03022*
X04445Y03023*
X04444Y03024*
X04443Y03025*
X04442Y03026*
X04441Y03027*
X0444Y03029*
X04439Y0303*
X04439Y03031*
X04438Y03033*
X04437Y03034*
X04437Y03036*
X04436Y03037*
X04436Y03039*
X04436Y0304*
X04435Y03042*
X04435Y03043*
X04435Y03045*
X04435Y03047*
X04435Y03048*
X04436Y0305*
X04436Y03051*
X04436Y03053*
X04437Y03054*
X04437Y03056*
X04438Y03057*
X04439Y03058*
X04439Y0306*
X0444Y03061*
X04441Y03062*
X04442Y03064*
X04443Y03065*
X04444Y03066*
X04445Y03067*
X04446Y03068*
X04448Y03069*
X04449Y0307*
X0445Y03071*
X04452Y03071*
X04453Y03072*
X04454Y03073*
X04456Y03073*
X04457Y03074*
X04459Y03074*
X0446Y03074*
X04462Y03075*
X04463Y03075*
X04465Y03075*
X04467Y03075*
G37*
G36*
X04387D02*
X04388Y03075D01*
X0439Y03074*
X04391Y03074*
X04393Y03074*
X04394Y03073*
X04396Y03073*
X04397Y03072*
X04399Y03071*
X044Y03071*
X04401Y0307*
X04403Y03069*
X04404Y03068*
X04405Y03067*
X04406Y03066*
X04407Y03065*
X04408Y03064*
X04409Y03062*
X0441Y03061*
X04411Y0306*
X04412Y03058*
X04412Y03057*
X04413Y03056*
X04413Y03054*
X04414Y03053*
X04414Y03051*
X04414Y0305*
X04415Y03048*
X04415Y03047*
X04415Y03045*
X04415Y03043*
X04415Y03042*
X04414Y0304*
X04414Y03039*
X04414Y03037*
X04413Y03036*
X04413Y03034*
X04412Y03033*
X04412Y03031*
X04411Y0303*
X0441Y03029*
X04409Y03027*
X04408Y03026*
X04407Y03025*
X04406Y03024*
X04405Y03023*
X04404Y03022*
X04403Y03021*
X04401Y0302*
X044Y03019*
X04399Y03018*
X04397Y03018*
X04396Y03017*
X04394Y03017*
X04393Y03016*
X04391Y03016*
X0439Y03016*
X04388Y03015*
X04387Y03015*
X04385Y03015*
X04383Y03015*
X04382Y03015*
X0438Y03016*
X04379Y03016*
X04377Y03016*
X04376Y03017*
X04374Y03017*
X04373Y03018*
X04372Y03018*
X0437Y03019*
X04369Y0302*
X04368Y03021*
X04366Y03022*
X04365Y03023*
X04364Y03024*
X04363Y03025*
X04362Y03026*
X04361Y03027*
X0436Y03029*
X04359Y0303*
X04359Y03031*
X04358Y03033*
X04357Y03034*
X04357Y03036*
X04356Y03037*
X04356Y03039*
X04356Y0304*
X04355Y03042*
X04355Y03043*
X04355Y03045*
X04355Y03047*
X04355Y03048*
X04356Y0305*
X04356Y03051*
X04356Y03053*
X04357Y03054*
X04357Y03056*
X04358Y03057*
X04359Y03058*
X04359Y0306*
X0436Y03061*
X04361Y03062*
X04362Y03064*
X04363Y03065*
X04364Y03066*
X04365Y03067*
X04366Y03068*
X04368Y03069*
X04369Y0307*
X0437Y03071*
X04372Y03071*
X04373Y03072*
X04374Y03073*
X04376Y03073*
X04377Y03074*
X04379Y03074*
X0438Y03074*
X04382Y03075*
X04383Y03075*
X04385Y03075*
X04387Y03075*
G37*
G36*
X04307D02*
X04308Y03075D01*
X0431Y03074*
X04311Y03074*
X04313Y03074*
X04314Y03073*
X04316Y03073*
X04317Y03072*
X04319Y03071*
X0432Y03071*
X04321Y0307*
X04323Y03069*
X04324Y03068*
X04325Y03067*
X04326Y03066*
X04327Y03065*
X04328Y03064*
X04329Y03062*
X0433Y03061*
X04331Y0306*
X04332Y03058*
X04332Y03057*
X04333Y03056*
X04333Y03054*
X04334Y03053*
X04334Y03051*
X04334Y0305*
X04335Y03048*
X04335Y03047*
X04335Y03045*
X04335Y03043*
X04335Y03042*
X04334Y0304*
X04334Y03039*
X04334Y03037*
X04333Y03036*
X04333Y03034*
X04332Y03033*
X04332Y03031*
X04331Y0303*
X0433Y03029*
X04329Y03027*
X04328Y03026*
X04327Y03025*
X04326Y03024*
X04325Y03023*
X04324Y03022*
X04323Y03021*
X04321Y0302*
X0432Y03019*
X04319Y03018*
X04317Y03018*
X04316Y03017*
X04314Y03017*
X04313Y03016*
X04311Y03016*
X0431Y03016*
X04308Y03015*
X04307Y03015*
X04305Y03015*
X04303Y03015*
X04302Y03015*
X043Y03016*
X04299Y03016*
X04297Y03016*
X04296Y03017*
X04294Y03017*
X04293Y03018*
X04292Y03018*
X0429Y03019*
X04289Y0302*
X04288Y03021*
X04286Y03022*
X04285Y03023*
X04284Y03024*
X04283Y03025*
X04282Y03026*
X04281Y03027*
X0428Y03029*
X04279Y0303*
X04279Y03031*
X04278Y03033*
X04277Y03034*
X04277Y03036*
X04276Y03037*
X04276Y03039*
X04276Y0304*
X04275Y03042*
X04275Y03043*
X04275Y03045*
X04275Y03047*
X04275Y03048*
X04276Y0305*
X04276Y03051*
X04276Y03053*
X04277Y03054*
X04277Y03056*
X04278Y03057*
X04279Y03058*
X04279Y0306*
X0428Y03061*
X04281Y03062*
X04282Y03064*
X04283Y03065*
X04284Y03066*
X04285Y03067*
X04286Y03068*
X04288Y03069*
X04289Y0307*
X0429Y03071*
X04292Y03071*
X04293Y03072*
X04294Y03073*
X04296Y03073*
X04297Y03074*
X04299Y03074*
X043Y03074*
X04302Y03075*
X04303Y03075*
X04305Y03075*
X04307Y03075*
G37*
G36*
X04626Y02995D02*
X04628Y02995D01*
X04629Y02994*
X04631Y02994*
X04632Y02994*
X04634Y02993*
X04635Y02993*
X04637Y02992*
X04638Y02991*
X04639Y02991*
X04641Y0299*
X04642Y02989*
X04643Y02988*
X04644Y02987*
X04646Y02986*
X04647Y02985*
X04648Y02984*
X04649Y02982*
X04649Y02981*
X0465Y0298*
X04651Y02978*
X04652Y02977*
X04652Y02976*
X04653Y02974*
X04653Y02973*
X04654Y02971*
X04654Y0297*
X04654Y02968*
X04654Y02967*
X04654Y02965*
X04654Y02963*
X04654Y02962*
X04654Y0296*
X04654Y02959*
X04653Y02957*
X04653Y02956*
X04652Y02954*
X04652Y02953*
X04651Y02951*
X0465Y0295*
X04649Y02949*
X04649Y02947*
X04648Y02946*
X04647Y02945*
X04646Y02944*
X04644Y02943*
X04643Y02942*
X04642Y02941*
X04641Y0294*
X04639Y02939*
X04638Y02938*
X04637Y02938*
X04635Y02937*
X04634Y02937*
X04632Y02936*
X04631Y02936*
X04629Y02936*
X04628Y02935*
X04626Y02935*
X04624Y02935*
X04623Y02935*
X04621Y02935*
X0462Y02936*
X04618Y02936*
X04617Y02936*
X04615Y02937*
X04614Y02937*
X04612Y02938*
X04611Y02938*
X0461Y02939*
X04608Y0294*
X04607Y02941*
X04606Y02942*
X04605Y02943*
X04603Y02944*
X04602Y02945*
X04601Y02946*
X046Y02947*
X046Y02949*
X04599Y0295*
X04598Y02951*
X04597Y02953*
X04597Y02954*
X04596Y02956*
X04596Y02957*
X04595Y02959*
X04595Y0296*
X04595Y02962*
X04595Y02963*
X04595Y02965*
X04595Y02967*
X04595Y02968*
X04595Y0297*
X04595Y02971*
X04596Y02973*
X04596Y02974*
X04597Y02976*
X04597Y02977*
X04598Y02978*
X04599Y0298*
X046Y02981*
X046Y02982*
X04601Y02984*
X04602Y02985*
X04603Y02986*
X04605Y02987*
X04606Y02988*
X04607Y02989*
X04608Y0299*
X0461Y02991*
X04611Y02991*
X04612Y02992*
X04614Y02993*
X04615Y02993*
X04617Y02994*
X04618Y02994*
X0462Y02994*
X04621Y02995*
X04623Y02995*
X04624Y02995*
X04626Y02995*
G37*
G36*
X04546D02*
X04548Y02995D01*
X04549Y02994*
X04551Y02994*
X04552Y02994*
X04554Y02993*
X04555Y02993*
X04557Y02992*
X04558Y02991*
X0456Y02991*
X04561Y0299*
X04562Y02989*
X04563Y02988*
X04565Y02987*
X04566Y02986*
X04567Y02985*
X04568Y02984*
X04569Y02982*
X0457Y02981*
X04571Y0298*
X04571Y02978*
X04572Y02977*
X04573Y02976*
X04573Y02974*
X04573Y02973*
X04574Y02971*
X04574Y0297*
X04574Y02968*
X04574Y02967*
X04574Y02965*
X04574Y02963*
X04574Y02962*
X04574Y0296*
X04574Y02959*
X04573Y02957*
X04573Y02956*
X04573Y02954*
X04572Y02953*
X04571Y02951*
X04571Y0295*
X0457Y02949*
X04569Y02947*
X04568Y02946*
X04567Y02945*
X04566Y02944*
X04565Y02943*
X04563Y02942*
X04562Y02941*
X04561Y0294*
X0456Y02939*
X04558Y02938*
X04557Y02938*
X04555Y02937*
X04554Y02937*
X04552Y02936*
X04551Y02936*
X04549Y02936*
X04548Y02935*
X04546Y02935*
X04545Y02935*
X04543Y02935*
X04542Y02935*
X0454Y02936*
X04539Y02936*
X04537Y02936*
X04536Y02937*
X04534Y02937*
X04533Y02938*
X04531Y02938*
X0453Y02939*
X04529Y0294*
X04527Y02941*
X04526Y02942*
X04525Y02943*
X04524Y02944*
X04523Y02945*
X04522Y02946*
X04521Y02947*
X0452Y02949*
X04519Y0295*
X04518Y02951*
X04518Y02953*
X04517Y02954*
X04517Y02956*
X04516Y02957*
X04516Y02959*
X04515Y0296*
X04515Y02962*
X04515Y02963*
X04515Y02965*
X04515Y02967*
X04515Y02968*
X04515Y0297*
X04516Y02971*
X04516Y02973*
X04517Y02974*
X04517Y02976*
X04518Y02977*
X04518Y02978*
X04519Y0298*
X0452Y02981*
X04521Y02982*
X04522Y02984*
X04523Y02985*
X04524Y02986*
X04525Y02987*
X04526Y02988*
X04527Y02989*
X04529Y0299*
X0453Y02991*
X04531Y02991*
X04533Y02992*
X04534Y02993*
X04536Y02993*
X04537Y02994*
X04539Y02994*
X0454Y02994*
X04542Y02995*
X04543Y02995*
X04545Y02995*
X04546Y02995*
G37*
G36*
X04466D02*
X04468Y02995D01*
X04469Y02994*
X04471Y02994*
X04472Y02994*
X04474Y02993*
X04475Y02993*
X04477Y02992*
X04478Y02991*
X0448Y02991*
X04481Y0299*
X04482Y02989*
X04483Y02988*
X04485Y02987*
X04486Y02986*
X04487Y02985*
X04488Y02984*
X04489Y02982*
X0449Y02981*
X04491Y0298*
X04491Y02978*
X04492Y02977*
X04493Y02976*
X04493Y02974*
X04493Y02973*
X04494Y02971*
X04494Y0297*
X04494Y02968*
X04494Y02967*
X04494Y02965*
X04494Y02963*
X04494Y02962*
X04494Y0296*
X04494Y02959*
X04493Y02957*
X04493Y02956*
X04493Y02954*
X04492Y02953*
X04491Y02951*
X04491Y0295*
X0449Y02949*
X04489Y02947*
X04488Y02946*
X04487Y02945*
X04486Y02944*
X04485Y02943*
X04483Y02942*
X04482Y02941*
X04481Y0294*
X0448Y02939*
X04478Y02938*
X04477Y02938*
X04475Y02937*
X04474Y02937*
X04472Y02936*
X04471Y02936*
X04469Y02936*
X04468Y02935*
X04466Y02935*
X04465Y02935*
X04463Y02935*
X04462Y02935*
X0446Y02936*
X04459Y02936*
X04457Y02936*
X04456Y02937*
X04454Y02937*
X04453Y02938*
X04451Y02938*
X0445Y02939*
X04449Y0294*
X04447Y02941*
X04446Y02942*
X04445Y02943*
X04444Y02944*
X04443Y02945*
X04442Y02946*
X04441Y02947*
X0444Y02949*
X04439Y0295*
X04438Y02951*
X04438Y02953*
X04437Y02954*
X04437Y02956*
X04436Y02957*
X04436Y02959*
X04435Y0296*
X04435Y02962*
X04435Y02963*
X04435Y02965*
X04435Y02967*
X04435Y02968*
X04435Y0297*
X04436Y02971*
X04436Y02973*
X04437Y02974*
X04437Y02976*
X04438Y02977*
X04438Y02978*
X04439Y0298*
X0444Y02981*
X04441Y02982*
X04442Y02984*
X04443Y02985*
X04444Y02986*
X04445Y02987*
X04446Y02988*
X04447Y02989*
X04449Y0299*
X0445Y02991*
X04451Y02991*
X04453Y02992*
X04454Y02993*
X04456Y02993*
X04457Y02994*
X04459Y02994*
X0446Y02994*
X04462Y02995*
X04463Y02995*
X04465Y02995*
X04466Y02995*
G37*
G36*
X04386D02*
X04388Y02995D01*
X04389Y02994*
X04391Y02994*
X04392Y02994*
X04394Y02993*
X04395Y02993*
X04397Y02992*
X04398Y02991*
X044Y02991*
X04401Y0299*
X04402Y02989*
X04403Y02988*
X04405Y02987*
X04406Y02986*
X04407Y02985*
X04408Y02984*
X04409Y02982*
X0441Y02981*
X04411Y0298*
X04411Y02978*
X04412Y02977*
X04413Y02976*
X04413Y02974*
X04413Y02973*
X04414Y02971*
X04414Y0297*
X04414Y02968*
X04414Y02967*
X04414Y02965*
X04414Y02963*
X04414Y02962*
X04414Y0296*
X04414Y02959*
X04413Y02957*
X04413Y02956*
X04413Y02954*
X04412Y02953*
X04411Y02951*
X04411Y0295*
X0441Y02949*
X04409Y02947*
X04408Y02946*
X04407Y02945*
X04406Y02944*
X04405Y02943*
X04403Y02942*
X04402Y02941*
X04401Y0294*
X044Y02939*
X04398Y02938*
X04397Y02938*
X04395Y02937*
X04394Y02937*
X04392Y02936*
X04391Y02936*
X04389Y02936*
X04388Y02935*
X04386Y02935*
X04385Y02935*
X04383Y02935*
X04382Y02935*
X0438Y02936*
X04379Y02936*
X04377Y02936*
X04376Y02937*
X04374Y02937*
X04373Y02938*
X04371Y02938*
X0437Y02939*
X04369Y0294*
X04367Y02941*
X04366Y02942*
X04365Y02943*
X04364Y02944*
X04363Y02945*
X04362Y02946*
X04361Y02947*
X0436Y02949*
X04359Y0295*
X04358Y02951*
X04358Y02953*
X04357Y02954*
X04357Y02956*
X04356Y02957*
X04356Y02959*
X04355Y0296*
X04355Y02962*
X04355Y02963*
X04355Y02965*
X04355Y02967*
X04355Y02968*
X04355Y0297*
X04356Y02971*
X04356Y02973*
X04357Y02974*
X04357Y02976*
X04358Y02977*
X04358Y02978*
X04359Y0298*
X0436Y02981*
X04361Y02982*
X04362Y02984*
X04363Y02985*
X04364Y02986*
X04365Y02987*
X04366Y02988*
X04367Y02989*
X04369Y0299*
X0437Y02991*
X04371Y02991*
X04373Y02992*
X04374Y02993*
X04376Y02993*
X04377Y02994*
X04379Y02994*
X0438Y02994*
X04382Y02995*
X04383Y02995*
X04385Y02995*
X04386Y02995*
G37*
G36*
X04306D02*
X04308Y02995D01*
X04309Y02994*
X04311Y02994*
X04312Y02994*
X04314Y02993*
X04315Y02993*
X04317Y02992*
X04318Y02991*
X0432Y02991*
X04321Y0299*
X04322Y02989*
X04323Y02988*
X04325Y02987*
X04326Y02986*
X04327Y02985*
X04328Y02984*
X04329Y02982*
X0433Y02981*
X04331Y0298*
X04331Y02978*
X04332Y02977*
X04333Y02976*
X04333Y02974*
X04333Y02973*
X04334Y02971*
X04334Y0297*
X04334Y02968*
X04334Y02967*
X04334Y02965*
X04334Y02963*
X04334Y02962*
X04334Y0296*
X04334Y02959*
X04333Y02957*
X04333Y02956*
X04333Y02954*
X04332Y02953*
X04331Y02951*
X04331Y0295*
X0433Y02949*
X04329Y02947*
X04328Y02946*
X04327Y02945*
X04326Y02944*
X04325Y02943*
X04323Y02942*
X04322Y02941*
X04321Y0294*
X0432Y02939*
X04318Y02938*
X04317Y02938*
X04315Y02937*
X04314Y02937*
X04312Y02936*
X04311Y02936*
X04309Y02936*
X04308Y02935*
X04306Y02935*
X04305Y02935*
X04303Y02935*
X04302Y02935*
X043Y02936*
X04299Y02936*
X04297Y02936*
X04296Y02937*
X04294Y02937*
X04293Y02938*
X04291Y02938*
X0429Y02939*
X04289Y0294*
X04287Y02941*
X04286Y02942*
X04285Y02943*
X04284Y02944*
X04283Y02945*
X04282Y02946*
X04281Y02947*
X0428Y02949*
X04279Y0295*
X04278Y02951*
X04278Y02953*
X04277Y02954*
X04277Y02956*
X04276Y02957*
X04276Y02959*
X04275Y0296*
X04275Y02962*
X04275Y02963*
X04275Y02965*
X04275Y02967*
X04275Y02968*
X04275Y0297*
X04276Y02971*
X04276Y02973*
X04277Y02974*
X04277Y02976*
X04278Y02977*
X04278Y02978*
X04279Y0298*
X0428Y02981*
X04281Y02982*
X04282Y02984*
X04283Y02985*
X04284Y02986*
X04285Y02987*
X04286Y02988*
X04287Y02989*
X04289Y0299*
X0429Y02991*
X04291Y02991*
X04293Y02992*
X04294Y02993*
X04296Y02993*
X04297Y02994*
X04299Y02994*
X043Y02994*
X04302Y02995*
X04303Y02995*
X04305Y02995*
X04306Y02995*
G37*
M02*