%FSTAX23Y23*%
%MOIN*%
%SFA1B1*%

%IPPOS*%
%AMD20*
4,1,8,0.010600,-0.006200,0.010600,0.006200,0.005000,0.011800,-0.005000,0.011800,-0.010600,0.006200,-0.010600,-0.006200,-0.005000,-0.011800,0.005000,-0.011800,0.010600,-0.006200,0.0*
1,1,0.011268,0.005000,-0.006200*
1,1,0.011268,0.005000,0.006200*
1,1,0.011268,-0.005000,0.006200*
1,1,0.011268,-0.005000,-0.006200*
%
%AMD25*
4,1,8,-0.006200,-0.010600,0.006200,-0.010600,0.011800,-0.005000,0.011800,0.005000,0.006200,0.010600,-0.006200,0.010600,-0.011800,0.005000,-0.011800,-0.005000,-0.006200,-0.010600,0.0*
1,1,0.011268,-0.006200,-0.005000*
1,1,0.011268,0.006200,-0.005000*
1,1,0.011268,0.006200,0.005000*
1,1,0.011268,-0.006200,0.005000*
%
%AMD37*
4,1,8,-0.014600,-0.005300,0.014600,-0.005300,0.015900,-0.004000,0.015900,0.004000,0.014600,0.005300,-0.014600,0.005300,-0.015900,0.004000,-0.015900,-0.004000,-0.014600,-0.005300,0.0*
1,1,0.002661,-0.014600,-0.004000*
1,1,0.002661,0.014600,-0.004000*
1,1,0.002661,0.014600,0.004000*
1,1,0.002661,-0.014600,0.004000*
%
%AMD38*
4,1,8,-0.004000,-0.015900,0.004000,-0.015900,0.005300,-0.014600,0.005300,0.014600,0.004000,0.015900,-0.004000,0.015900,-0.005300,0.014600,-0.005300,-0.014600,-0.004000,-0.015900,0.0*
1,1,0.002661,-0.004000,-0.014600*
1,1,0.002661,0.004000,-0.014600*
1,1,0.002661,0.004000,0.014600*
1,1,0.002661,-0.004000,0.014600*
%
%AMD40*
4,1,8,-0.017500,0.011200,-0.017500,-0.011200,-0.013700,-0.015000,0.013700,-0.015000,0.017500,-0.011200,0.017500,0.011200,0.013700,0.015000,-0.013700,0.015000,-0.017500,0.011200,0.0*
1,1,0.007504,-0.013700,0.011200*
1,1,0.007504,-0.013700,-0.011200*
1,1,0.007504,0.013700,-0.011200*
1,1,0.007504,0.013700,0.011200*
%
%ADD17R,0.010000X0.010000*%
%ADD18C,0.015000*%
%ADD19R,0.038500X0.022000*%
G04~CAMADD=20~8~0.0~0.0~236.2~212.6~56.3~0.0~15~0.0~0.0~0.0~0.0~0~0.0~0.0~0.0~0.0~0~0.0~0.0~0.0~270.0~212.0~236.0*
%ADD20D20*%
%ADD21R,0.020079X0.028740*%
%ADD22R,0.011000X0.010000*%
%ADD23R,0.010000X0.011000*%
%ADD24R,0.019685X0.011811*%
G04~CAMADD=25~8~0.0~0.0~236.2~212.6~56.3~0.0~15~0.0~0.0~0.0~0.0~0~0.0~0.0~0.0~0.0~0~0.0~0.0~0.0~180.0~236.0~212.0*
%ADD25D25*%
%ADD26C,0.009000*%
%ADD27R,0.051181X0.043307*%
%ADD28R,0.023228X0.013780*%
%ADD29R,0.013780X0.023228*%
%ADD30R,0.060000X0.060000*%
%ADD31R,0.015748X0.015748*%
%ADD32R,0.010000X0.010000*%
%ADD33R,0.086614X0.039370*%
%ADD34R,0.045275X0.023622*%
%ADD35R,0.045275X0.011811*%
%ADD36R,0.078740X0.085827*%
G04~CAMADD=37~8~0.0~0.0~318.9~106.3~13.3~0.0~15~0.0~0.0~0.0~0.0~0~0.0~0.0~0.0~0.0~0~0.0~0.0~0.0~180.0~318.0~106.0*
%ADD37D37*%
G04~CAMADD=38~8~0.0~0.0~106.3~318.9~13.3~0.0~15~0.0~0.0~0.0~0.0~0~0.0~0.0~0.0~0.0~0~0.0~0.0~0.0~180.0~106.0~318.0*
%ADD38D38*%
%ADD39R,0.092126X0.092126*%
G04~CAMADD=40~8~0.0~0.0~300.0~350.0~37.5~0.0~15~0.0~0.0~0.0~0.0~0~0.0~0.0~0.0~0.0~0~0.0~0.0~0.0~90.0~350.0~300.0*
%ADD40D40*%
%ADD41R,0.023622X0.051968*%
%LNesp32c3phils-1*%
%LPD*%
G36*
X03498Y04109D02*
X0349D01*
Y04131*
X03498*
Y04109*
G37*
G36*
X03478D02*
X0347D01*
Y04131*
X03478*
Y04109*
G37*
G36*
X03458D02*
X03451D01*
Y04131*
X03458*
Y04109*
G37*
G36*
X03439D02*
X03431D01*
Y04131*
X03439*
Y04109*
G37*
G36*
X03488Y04062D02*
X03468D01*
Y0407*
X03488*
Y04062*
G37*
G36*
X0346D02*
X03441D01*
Y0407*
X0346*
Y04062*
G37*
G36*
X03498Y04001D02*
X0349D01*
Y04023*
X03498*
Y04001*
G37*
G36*
X03478D02*
X0347D01*
Y04023*
X03478*
Y04001*
G37*
G36*
X03458D02*
X03451D01*
Y04023*
X03458*
Y04001*
G37*
G36*
X03439D02*
X03431D01*
Y04023*
X03439*
Y04001*
G37*
G54D17*
X03484Y0364D03*
X03459D03*
X03484Y03665D03*
X03459D03*
X03486Y0387D03*
X03461D03*
X03486Y0384D03*
X03461D03*
G54D18*
X03515Y03635D03*
Y0366D03*
X0352Y0398D03*
G54D19*
X03156Y03817D03*
Y03855D03*
Y03892D03*
X03263D03*
Y03855D03*
Y03817D03*
G54D20*
X03891Y03735D03*
X03858D03*
X03821D03*
X03788D03*
X03351Y0379D03*
X03318D03*
X03803Y03556D03*
X03836D03*
X03858Y03681D03*
X03891D03*
X03826Y03915D03*
X03793D03*
X02981Y0414D03*
X02948D03*
X03416Y0349D03*
X03383D03*
X03698Y0421D03*
X03731D03*
X03671Y03525D03*
X03638D03*
X03548D03*
X03581D03*
X03793Y0387D03*
X03826D03*
X03788Y03681D03*
X03821D03*
X0294Y03585D03*
X02973D03*
G54D21*
X03848Y0379D03*
X03811D03*
G54D22*
X03334Y0355D03*
Y0357D03*
Y03589D03*
X03396D03*
Y0357D03*
Y0355D03*
G54D23*
X03355Y03601D03*
X03374D03*
Y03539D03*
X03355D03*
G54D24*
X03432Y03914D03*
Y03945D03*
X03377D03*
Y03914D03*
G54D25*
X0376Y03568D03*
Y03601D03*
X0355Y04167D03*
Y04201D03*
X03885Y03603D03*
Y03636D03*
X0337Y04173D03*
Y04206D03*
X03555Y04016D03*
Y03983D03*
X03495Y03946D03*
Y03913D03*
X03675Y04016D03*
Y03983D03*
X03715Y03568D03*
Y03601D03*
Y03636D03*
Y0367D03*
X03445Y03533D03*
Y03566D03*
X03185Y04183D03*
Y04216D03*
Y04113D03*
Y04146D03*
X0375Y04016D03*
Y03983D03*
X03605Y04016D03*
Y03983D03*
X03344Y03718D03*
Y03751D03*
X0329D03*
Y03718D03*
X03235Y03751D03*
Y03718D03*
X0318Y03751D03*
Y03718D03*
X0337Y04103D03*
Y04136D03*
G54D26*
X03804Y03603D03*
Y03619D03*
Y03635D03*
X0382Y03603D03*
Y03619D03*
Y03635D03*
X03835Y03603D03*
Y03619D03*
Y03635D03*
G54D27*
X03564Y03655D03*
X03655D03*
Y03584D03*
X03564D03*
G54D28*
X03755Y04109D03*
X03604D03*
G54D29*
X03739Y04063D03*
X03719D03*
X03699D03*
X0368D03*
X0366D03*
X0364D03*
X0362D03*
Y04155D03*
X0364D03*
X0366D03*
X0368D03*
X03699D03*
X03719D03*
X03739D03*
G54D30*
X03064Y04225D03*
X02865D03*
X0306Y035D03*
X02861D03*
G54D31*
X03142Y03622D03*
X03174D03*
X03205D03*
X03237D03*
Y03527D03*
X03205D03*
X03174D03*
X03142D03*
G54D32*
X03415Y03666D03*
Y03641D03*
X0339Y03666D03*
Y03641D03*
X03365Y03666D03*
Y03641D03*
G54D33*
X03215Y04042D03*
Y03967D03*
G54D34*
X03062Y0399D03*
Y03959D03*
Y0377D03*
Y03739D03*
G54D35*
X03062Y03933D03*
Y03796D03*
Y03914D03*
Y03815D03*
Y03894D03*
Y03835D03*
Y03874D03*
Y03855D03*
G54D36*
X03039Y04066D03*
Y03663D03*
X02884Y04066D03*
Y03663D03*
G54D37*
X03741Y03771D03*
Y0379D03*
Y0381D03*
Y0383D03*
Y03849D03*
Y03869D03*
Y03889D03*
Y03908D03*
X03548D03*
Y03889D03*
Y03869D03*
Y03849D03*
Y0383D03*
Y0381D03*
Y0379D03*
Y03771D03*
G54D38*
X03713Y03936D03*
X03694D03*
X03674D03*
X03654D03*
X03635D03*
X03615D03*
X03595D03*
X03576D03*
Y03743D03*
X03595D03*
X03615D03*
X03635D03*
X03654D03*
X03674D03*
X03694D03*
X03713D03*
G54D39*
X03645Y0384D03*
G54D40*
X03404Y03725D03*
Y03785D03*
G54D41*
X03237Y04124D03*
X03275D03*
X03312D03*
Y04215D03*
X03237D03*
M02*