%FSTAX23Y23*%
%MOIN*%
%SFA1B1*%

%IPPOS*%
%AMD99*
4,1,120,0.029800,0.000000,0.029700,0.001600,0.029600,0.003200,0.029400,0.004700,0.029100,0.006200,0.028800,0.007700,0.028300,0.009200,0.027800,0.010700,0.027200,0.012100,0.026500,0.013500,0.025800,0.014900,0.025000,0.016200,0.024100,0.017500,0.023200,0.018800,0.022100,0.019900,0.021100,0.021100,0.019900,0.022100,0.018800,0.023100,0.017500,0.024100,0.016200,0.025000,0.014900,0.025800,0.013500,0.026500,0.012100,0.027200,0.010700,0.027800,0.009200,0.028300,0.007700,0.028800,0.006200,0.029100,0.004700,0.029400,0.003200,0.029600,0.001600,0.029700,0.000000,0.029800,-0.001500,0.029700,-0.003100,0.029600,-0.004600,0.029400,-0.006100,0.029100,-0.007600,0.028800,-0.009100,0.028300,-0.010600,0.027800,-0.012000,0.027200,-0.013400,0.026500,-0.014800,0.025800,-0.016100,0.025000,-0.017400,0.024100,-0.018700,0.023100,-0.019800,0.022100,-0.021000,0.021100,-0.022000,0.019900,-0.023100,0.018800,-0.024000,0.017500,-0.024900,0.016200,-0.025700,0.014900,-0.026400,0.013500,-0.027100,0.012100,-0.027700,0.010700,-0.028200,0.009200,-0.028700,0.007700,-0.029000,0.006200,-0.029300,0.004700,-0.029500,0.003200,-0.029600,0.001600,-0.029700,0.000000,-0.029600,-0.001500,-0.029500,-0.003100,-0.029300,-0.004600,-0.029000,-0.006100,-0.028700,-0.007600,-0.028200,-0.009100,-0.027700,-0.010600,-0.027100,-0.012000,-0.026400,-0.013400,-0.025700,-0.014800,-0.024900,-0.016100,-0.024000,-0.017400,-0.023100,-0.018700,-0.022000,-0.019800,-0.021000,-0.021000,-0.019800,-0.022000,-0.018700,-0.023000,-0.017400,-0.024000,-0.016100,-0.024900,-0.014800,-0.025700,-0.013400,-0.026400,-0.012000,-0.027100,-0.010600,-0.027700,-0.009100,-0.028200,-0.007600,-0.028700,-0.006100,-0.029000,-0.004600,-0.029300,-0.003100,-0.029500,-0.001500,-0.029600,0.000000,-0.029700,0.001600,-0.029600,0.003200,-0.029500,0.004700,-0.029300,0.006200,-0.029000,0.007700,-0.028700,0.009200,-0.028200,0.010700,-0.027700,0.012100,-0.027100,0.013500,-0.026400,0.014900,-0.025700,0.016200,-0.024900,0.017500,-0.024000,0.018800,-0.023000,0.019900,-0.022000,0.021100,-0.021000,0.022100,-0.019800,0.023200,-0.018700,0.024100,-0.017400,0.025000,-0.016100,0.025800,-0.014800,0.026500,-0.013400,0.027200,-0.012000,0.027800,-0.010600,0.028300,-0.009100,0.028800,-0.007600,0.029100,-0.006100,0.029400,-0.004600,0.029600,-0.003100,0.029700,-0.001500,0.029800,0.000000,0.0*
%
%AMD100*
4,1,120,0.029800,0.000000,0.029700,0.001600,0.029600,0.003200,0.029400,0.004700,0.029100,0.006200,0.028800,0.007700,0.028300,0.009200,0.027800,0.010700,0.027200,0.012100,0.026500,0.013500,0.025800,0.014900,0.025000,0.016200,0.024100,0.017500,0.023100,0.018800,0.022100,0.019900,0.021100,0.021100,0.019900,0.022100,0.018800,0.023100,0.017500,0.024100,0.016200,0.025000,0.014900,0.025800,0.013500,0.026500,0.012100,0.027200,0.010700,0.027800,0.009200,0.028300,0.007700,0.028800,0.006200,0.029100,0.004700,0.029400,0.003200,0.029600,0.001600,0.029700,0.000000,0.029800,-0.001500,0.029700,-0.003100,0.029600,-0.004600,0.029400,-0.006100,0.029100,-0.007600,0.028800,-0.009100,0.028300,-0.010600,0.027800,-0.012000,0.027200,-0.013400,0.026500,-0.014800,0.025800,-0.016100,0.025000,-0.017400,0.024100,-0.018700,0.023100,-0.019800,0.022100,-0.021000,0.021100,-0.022000,0.019900,-0.023000,0.018800,-0.024000,0.017500,-0.024900,0.016200,-0.025700,0.014900,-0.026400,0.013500,-0.027100,0.012100,-0.027700,0.010700,-0.028200,0.009200,-0.028700,0.007700,-0.029000,0.006200,-0.029300,0.004700,-0.029500,0.003200,-0.029600,0.001600,-0.029700,0.000000,-0.029600,-0.001500,-0.029500,-0.003100,-0.029300,-0.004600,-0.029000,-0.006100,-0.028700,-0.007600,-0.028200,-0.009100,-0.027700,-0.010600,-0.027100,-0.012000,-0.026400,-0.013400,-0.025700,-0.014800,-0.024900,-0.016100,-0.024000,-0.017400,-0.023000,-0.018700,-0.022000,-0.019800,-0.021000,-0.021000,-0.019800,-0.022000,-0.018700,-0.023000,-0.017400,-0.024000,-0.016100,-0.024900,-0.014800,-0.025700,-0.013400,-0.026400,-0.012000,-0.027100,-0.010600,-0.027700,-0.009100,-0.028200,-0.007600,-0.028700,-0.006100,-0.029000,-0.004600,-0.029300,-0.003100,-0.029500,-0.001500,-0.029600,0.000000,-0.029700,0.001600,-0.029600,0.003200,-0.029500,0.004700,-0.029300,0.006200,-0.029000,0.007700,-0.028700,0.009200,-0.028200,0.010700,-0.027700,0.012100,-0.027100,0.013500,-0.026400,0.014900,-0.025700,0.016200,-0.024900,0.017500,-0.024000,0.018800,-0.023000,0.019900,-0.022000,0.021100,-0.021000,0.022100,-0.019800,0.023100,-0.018700,0.024100,-0.017400,0.025000,-0.016100,0.025800,-0.014800,0.026500,-0.013400,0.027200,-0.012000,0.027800,-0.010600,0.028300,-0.009100,0.028800,-0.007600,0.029100,-0.006100,0.029400,-0.004600,0.029600,-0.003100,0.029700,-0.001500,0.029800,0.000000,0.0*
%
%ADD11C,0.020000*%
%ADD13C,0.010000*%
%ADD17C,0.008000*%
%ADD27C,0.015000*%
%ADD78C,0.079000*%
%ADD79C,0.087000*%
%ADD84C,0.010598*%
%ADD95C,0.025591*%
%ADD96C,0.020000*%
%ADD97C,0.050000*%
%ADD99D99*%
%ADD100D100*%
%LNesp32c3phils-1*%
%LPD*%
G36*
X0389Y04075D02*
X0488D01*
Y03125*
X02675*
Y0348*
X02674Y03489*
X0267Y03509*
X02663Y03527*
X02652Y03543*
X02638Y03557*
X02622Y03568*
X02604Y03575*
X02584Y03579*
X02575Y0358*
X02465*
X02455Y03583*
X02448Y0359*
X02445Y036*
Y03605*
Y04145*
Y04154*
X02448Y04172*
X02455Y0419*
X02466Y04205*
X02479Y04218*
X02495Y04229*
X02512Y04236*
X0253Y0424*
X03258*
X03258Y04237*
X03262Y04233*
X03267Y04232*
X03272*
X03277Y04233*
X03281Y04237*
X03282Y0424*
X03294*
X03296Y04235*
X03205Y04144*
X03202Y0414*
X03201Y04135*
Y0408*
X03202Y04078*
Y04077*
X03202Y04076*
X03202Y04074*
X03203Y04073*
X03203Y04072*
X03204Y04071*
X03205Y0407*
X03206Y04069*
X03207Y04068*
X03208Y04068*
X03209Y04067*
X03211Y04067*
X03212Y04067*
X03213*
X03215Y04066*
X03216Y04067*
X03217*
X03218Y04067*
X0322Y04067*
X03221Y04068*
X03222Y04068*
X03223Y04069*
X03224Y0407*
X03225Y04071*
X03226Y04072*
X03226Y04073*
X03227Y04074*
X03227Y04076*
X03228Y04077*
Y04078*
X03228Y0408*
Y04129*
X03315Y04216*
X03326*
X03326Y04216*
X03327Y04214*
X03328Y04211*
X03328Y04211*
X03327Y0421*
X03327Y04208*
X03327Y04207*
Y04206*
X03326Y04205*
Y04085*
X03327Y04083*
Y04082*
X03327Y04081*
X03327Y04079*
X03328Y04078*
X03328Y04077*
X03329Y04076*
X0333Y04075*
X03331Y04074*
X03332Y04073*
X03333Y04073*
X03334Y04072*
X03336Y04072*
X03337Y04072*
X03338*
X0334Y04071*
X03341Y04072*
X03342*
X03343Y04072*
X03345Y04072*
X03346Y04073*
X03347Y04073*
X03348Y04074*
X03349Y04075*
X0335Y04076*
X03351Y04077*
X03351Y04078*
X03352Y04079*
X03352Y04081*
X03353Y04082*
Y04083*
X03353Y04085*
Y04205*
X03353Y04206*
Y04207*
X03352Y04208*
X03352Y0421*
X03351Y04211*
X03351Y04211*
X03352Y04214*
X03353Y04216*
X03353Y04216*
X0337*
X03371Y04217*
X03372*
X03373Y04217*
X03375Y04217*
X03376Y04218*
X03377Y04218*
X03378Y04219*
X03379Y0422*
X0338Y04221*
X03381Y04222*
X03381Y04223*
X03382Y04224*
X03382Y04226*
X03383Y04227*
Y04228*
X03383Y0423*
X03383Y04231*
Y04232*
X03382Y04233*
X03382Y04235*
X03383Y04238*
X03384Y04239*
X03384Y0424*
X0389*
Y04075*
G37*
%LNesp32c3phils-2*%
%LPC*%
G36*
X03137Y04185D02*
X03132D01*
X03129Y04183*
X03126Y0418*
X03124Y04177*
Y04172*
X03126Y04169*
X03129Y04166*
X03132Y04164*
X03137*
X0314Y04166*
X03143Y04169*
X03145Y04172*
Y04177*
X03143Y0418*
X0314Y04183*
X03137Y04185*
G37*
G36*
X03527Y0418D02*
X03522D01*
X03519Y04178*
X03516Y04175*
X03514Y04172*
Y04167*
X03516Y04164*
X03519Y04161*
X03522Y04159*
X03527*
X0353Y04161*
X03533Y04164*
X03535Y04167*
Y04172*
X03533Y04175*
X0353Y04178*
X03527Y0418*
G37*
G36*
X03007Y0415D02*
X03002D01*
X02999Y04148*
X02996Y04145*
X02994Y04142*
Y04137*
X02996Y04134*
X02999Y04131*
X03002Y04129*
X03007*
X0301Y04131*
X03013Y04134*
X03015Y04137*
Y04142*
X03013Y04145*
X0301Y04148*
X03007Y0415*
G37*
G36*
X03702Y04145D02*
X03697D01*
X03694Y04143*
X03691Y0414*
X03689Y04137*
Y04132*
X03691Y04129*
X03694Y04126*
X03697Y04124*
X037*
X03719Y04105*
X03718Y04102*
X03717Y041*
X03714Y04098*
X03712Y04097*
X03668*
X03665Y04102*
X03665Y04102*
Y04107*
X03663Y0411*
X0366Y04113*
X03657Y04115*
X03652*
X03649Y04113*
X03647Y04112*
X0357*
X03567Y04111*
X03564Y0411*
X03552Y04097*
X03547Y04099*
X03546Y04102*
X03542Y04106*
X03537Y04108*
X03532*
X03527Y04106*
X03523Y04102*
X03522Y04097*
Y04092*
X03523Y04087*
X03527Y04083*
X03532Y04082*
X03537*
X03537Y04082*
X03542Y04078*
Y04072*
X03535Y04065*
X03532*
X03529Y04063*
X03526Y0406*
X03524Y04057*
Y04052*
X03526Y04049*
X03529Y04046*
X03532Y04044*
X03537*
X0354Y04046*
X03541Y04045*
X03544Y04042*
X03544Y04042*
Y04037*
X03546Y04034*
X03549Y04031*
X03552Y04029*
X03557*
X0356Y04031*
X03563Y04034*
X03565Y04037*
Y0404*
X03569Y04043*
X03573Y04043*
X03574Y04042*
Y04037*
X03576Y04034*
X03579Y04031*
X03582Y04029*
X03585*
X03597Y04017*
Y03967*
X03592Y03962*
X03562*
X0356Y03963*
X03557Y03965*
X03552*
X03549Y03963*
X03546Y0396*
X03544Y03957*
Y03952*
X03546Y03949*
X03549Y03946*
X03552Y03944*
X03557*
X0356Y03946*
X03562Y03947*
X03595*
X03597Y03948*
X036Y03949*
X0361Y03959*
X03611Y03962*
X03612Y03965*
Y0402*
X03611Y04022*
X0361Y04025*
X03595Y04039*
Y04042*
X03595Y04042*
X03598Y04047*
X03698*
X03698Y04047*
X03695Y04042*
X0366*
X03657Y04041*
X03654Y0404*
X03634Y04019*
X03632Y0402*
X03627*
X03624Y04018*
X03621Y04015*
X03619Y04012*
Y04007*
X03621Y04004*
X03624Y04001*
X03624Y04*
X03627Y03998*
X03627Y03995*
Y03982*
X03626Y0398*
X03624Y03977*
Y03972*
X03626Y03969*
X03629Y03966*
X03632Y03964*
X03637*
X0364Y03966*
X03643Y03969*
X03645Y03972*
Y03975*
X03647Y03977*
X03649Y03979*
X03652*
X03655Y03981*
X03657Y03982*
X03686*
X03689Y03977*
X03689Y03977*
Y03972*
X03691Y03969*
X03694Y03966*
X03697Y03964*
X03702*
X03705Y03966*
X03708Y03969*
X0371Y03972*
Y03977*
X0371Y03977*
X03713Y03982*
X03745*
X03747Y03983*
X0375Y03984*
X03755Y0399*
X03759Y03987*
X03759Y03987*
Y03982*
X03761Y03979*
X03764Y03976*
X03767Y03974*
X03772*
X03775Y03976*
X03777Y03978*
X03782Y03976*
X03782Y03976*
Y0394*
X03783Y03937*
X03784Y03934*
X03799Y03919*
X03802Y03918*
X03805Y03917*
X03847*
X03849Y03916*
X03852Y03914*
X03857*
X0386Y03916*
X03863Y03919*
X03865Y03922*
Y03927*
X03863Y0393*
X0386Y03933*
X03857Y03935*
X03852*
X03849Y03933*
X03847Y03932*
X03807*
X03797Y03942*
Y03961*
X03802Y03964*
X03802Y03964*
X03807*
X0381Y03966*
X03813Y03969*
X03814Y03971*
X0382*
X03821Y03969*
X03824Y03966*
X03827Y03964*
X03832*
X03835Y03966*
X03838Y03969*
X0384Y03972*
Y03977*
X03838Y0398*
X03835Y03983*
X03832Y03985*
X03827*
X03824Y03983*
X03821Y0398*
X0382Y03978*
X03814*
X03813Y0398*
X0381Y03983*
X03807Y03985*
X03802*
X03802Y03985*
X03797Y03988*
Y03993*
X03796Y03995*
X03795Y03998*
X0379Y04002*
X0379Y04002*
Y04007*
X03788Y0401*
X03785Y04013*
X03782Y04015*
X03777*
X03774Y04013*
X03773Y04013*
X0377Y04011*
X03766Y04013*
X03765Y04013*
X03762Y04015*
X03761Y04018*
X0376Y0402*
X03761Y04022*
X03762Y04025*
Y0408*
X03761Y04082*
X0376Y04085*
X0371Y04134*
Y04137*
X03708Y0414*
X03705Y04143*
X03702Y04145*
G37*
G36*
X03157Y04105D02*
X03152D01*
X03149Y04103*
X03146Y041*
X03144Y04097*
Y04092*
X03146Y04089*
X03149Y04086*
X03152Y04084*
X03157*
X0316Y04086*
X03163Y04089*
X03165Y04092*
Y04097*
X03163Y041*
X0316Y04103*
X03157Y04105*
G37*
G36*
X0344Y04097D02*
X03415D01*
X03412Y04096*
X03409Y04095*
X03377Y04062*
X03375Y04063*
X03372Y04065*
X03367*
X03364Y04063*
X03361Y0406*
X03359Y04057*
Y04052*
X03361Y04049*
X03364Y04046*
X03367Y04044*
X03372*
X03375Y04046*
X03377Y04047*
X0338*
X03382Y04048*
X03385Y04049*
X03394Y04059*
X03397Y04058*
X03399Y04057*
X03401Y04054*
X03402Y04052*
Y0392*
X03403Y03917*
X03404Y03914*
X03422Y03897*
X0342Y03892*
X03408*
X03405Y03891*
X03403Y0389*
X03401Y03888*
X03392*
X0339Y03889*
X03387Y03891*
X03382*
X03379Y03889*
X03376Y03886*
X03374Y03882*
Y03878*
X03376Y03874*
X03379Y03871*
X03382Y0387*
X03387*
X0339Y03871*
X03393Y03873*
X03404*
X03407Y03874*
X03409Y03875*
X03411Y03877*
X03432*
X03434Y03876*
X03437Y03874*
X03442*
X03442Y03874*
X03447Y03871*
Y0387*
X03448Y03867*
X03449Y03864*
X03499Y03815*
Y03812*
X03501Y03809*
X03504Y03806*
X03506Y03805*
Y03799*
X03504Y03798*
X03501Y03795*
X03499Y03792*
Y03787*
X03501Y03784*
X03504Y03781*
X03507Y03779*
X03512*
X03515Y03781*
X03518Y03784*
X03518Y03784*
X0352Y03784*
X03527Y03792*
X03529Y03794*
X03529Y03797*
Y03972*
X03529Y03975*
X03527Y03977*
X0348Y04024*
Y04027*
X03478Y0403*
X03475Y04033*
X03472Y04035*
X03467*
X03464Y04033*
X03462Y04031*
X03457Y04033*
X03457Y04033*
Y0408*
X03456Y04082*
X03455Y04085*
X03445Y04095*
X03442Y04096*
X0344Y04097*
G37*
G36*
X02668Y04024D02*
X02661D01*
X02656Y04022*
X02651Y04017*
X02649Y04011*
Y04005*
X02651Y03999*
X02656Y03995*
X02661Y03992*
X02668*
X02673Y03995*
X02678Y03999*
X0268Y04005*
Y04011*
X02678Y04017*
X02673Y04022*
X02668Y04024*
G37*
G36*
X04012Y03995D02*
X04007D01*
X04004Y03993*
X04001Y0399*
X03999Y03987*
Y03982*
X04001Y03979*
X04004Y03976*
X04007Y03974*
X04012*
X04015Y03976*
X04018Y03979*
X0402Y03982*
Y03987*
X04018Y0399*
X04015Y03993*
X04012Y03995*
G37*
G36*
X03862Y03985D02*
X03857D01*
X03854Y03983*
X03851Y0398*
X03849Y03977*
Y03972*
X03851Y03969*
X03854Y03966*
X03857Y03964*
X03862*
X03865Y03966*
X03868Y03969*
X0387Y03972*
Y03977*
X03868Y0398*
X03865Y03983*
X03862Y03985*
G37*
G36*
X03112Y0396D02*
X03107D01*
X03104Y03958*
X03101Y03955*
X03099Y03952*
Y03947*
X03101Y03944*
X03104Y03941*
X03107Y03939*
X03112*
X03115Y03941*
X03118Y03944*
X0312Y03947*
Y03952*
X03118Y03955*
X03115Y03958*
X03112Y0396*
G37*
G36*
X04557Y0395D02*
X04552D01*
X04549Y03948*
X04546Y03945*
X04544Y03942*
Y03937*
X04546Y03934*
X04549Y03931*
X04552Y03929*
X04557*
X0456Y03931*
X04563Y03934*
X04565Y03937*
Y03942*
X04563Y03945*
X0456Y03948*
X04557Y0395*
G37*
G36*
X04117D02*
X04112D01*
X04109Y03948*
X04106Y03945*
X04104Y03942*
Y03937*
X04106Y03934*
X04109Y03931*
X04112Y03929*
X04117*
X0412Y03931*
X04123Y03934*
X04125Y03937*
Y03942*
X04123Y03945*
X0412Y03948*
X04117Y0395*
G37*
G36*
X03752Y03965D02*
X03748D01*
X03744Y03963*
X03741Y0396*
X03739Y03956*
Y03952*
X03741Y03948*
X03744Y03945*
X03747Y03944*
X03748Y03943*
X0375Y03939*
X03749Y03937*
Y03932*
X03751Y03929*
X03754Y03926*
X03757Y03924*
X03762*
X03765Y03926*
X03768Y03929*
X0377Y03932*
Y03937*
X03768Y0394*
X03765Y03943*
X03762Y03945*
X03761Y03946*
X03759Y0395*
X0376Y03952*
Y03956*
X03759Y0396*
X03756Y03963*
X03752Y03965*
G37*
G36*
X02672Y03915D02*
X02667D01*
X02664Y03913*
X02661Y0391*
X02659Y03907*
Y03902*
X02661Y03899*
X02664Y03896*
X02667Y03894*
X02672*
X02675Y03896*
X02678Y03899*
X0268Y03902*
Y03907*
X02678Y0391*
X02675Y03913*
X02672Y03915*
G37*
G36*
X03877Y0389D02*
X03872D01*
X03869Y03888*
X03866Y03885*
X03864Y03882*
Y03877*
X03866Y03874*
X03869Y03871*
X03872Y03869*
X03877*
X0388Y03871*
X03883Y03874*
X03885Y03876*
X0389Y03875*
Y03884*
X03885Y03883*
X03883Y03885*
X0388Y03888*
X03877Y0389*
G37*
G36*
X04492Y03895D02*
X04487D01*
X04484Y03893*
X04481Y0389*
X04479Y03887*
Y03882*
X04481Y03879*
X04484Y03876*
X04487Y03874*
X04492*
X04495Y03876*
X04498Y03879*
X045Y03882*
Y03887*
X04498Y0389*
X04495Y03893*
X04492Y03895*
G37*
G36*
X02662Y0388D02*
X02657D01*
X02654Y03878*
X02651Y03875*
X02649Y03872*
Y03867*
X02651Y03864*
X02654Y03861*
X02657Y03859*
X02662*
X02665Y03861*
X02668Y03864*
X0267Y03867*
Y03872*
X02668Y03875*
X02665Y03878*
X02662Y0388*
G37*
G36*
X04117Y03865D02*
X04112D01*
X04109Y03863*
X04106Y0386*
X04104Y03857*
Y03852*
X04106Y03849*
X04109Y03846*
X04112Y03844*
X04117*
X0412Y03846*
X04123Y03849*
X04125Y03852*
Y03857*
X04123Y0386*
X0412Y03863*
X04117Y03865*
G37*
G36*
X04847Y03845D02*
X04842D01*
X04839Y03843*
X04836Y0384*
X04834Y03837*
Y03832*
X04836Y03829*
X04839Y03826*
X04842Y03824*
X04847*
X0485Y03826*
X04853Y03829*
X04855Y03832*
Y03837*
X04853Y0384*
X0485Y03843*
X04847Y03845*
G37*
G36*
X04747Y0384D02*
X04742D01*
X04739Y03838*
X04736Y03835*
X04734Y03832*
Y03827*
X04736Y03824*
X04739Y03821*
X04742Y03819*
X04747*
X0475Y03821*
X04753Y03824*
X04755Y03827*
Y03832*
X04753Y03835*
X0475Y03838*
X04747Y0384*
G37*
G36*
X04477D02*
X04472D01*
X04469Y03838*
X04466Y03835*
X04464Y03832*
Y03827*
X04466Y03824*
X04469Y03821*
X04472Y03819*
X04477*
X0448Y03821*
X04483Y03824*
X04485Y03827*
Y03832*
X04483Y03835*
X0448Y03838*
X04477Y0384*
G37*
G36*
X03772Y0386D02*
X03767D01*
X03764Y03858*
X03762Y03857*
X03715*
X03712Y03856*
X03709Y03855*
X03699Y03845*
X03698Y03842*
X03697Y0384*
Y0376*
X03698Y03757*
X03699Y03754*
X03754Y037*
Y03697*
X03754Y03697*
X03749Y03693*
X03748Y0369*
X03747Y03688*
Y03642*
X03746Y0364*
X03744Y03637*
Y03632*
X03746Y03629*
X03749Y03626*
X03752Y03624*
X03757*
X0376Y03626*
X03763Y03629*
X03765Y03632*
Y03637*
X03763Y0364*
X03762Y03642*
Y03651*
X03767Y03654*
X03767Y03654*
X03772*
X03775Y03656*
X03778Y03659*
X0378Y03662*
Y03665*
X0379Y03674*
X03791Y03677*
X03792Y0368*
Y0371*
X03791Y03712*
X0379Y03715*
X03722Y03782*
Y03822*
X03722Y03822*
X03762*
X03764Y03821*
X03767Y03819*
X03772*
X03775Y03821*
X03778Y03824*
X0378Y03827*
Y03832*
X03778Y03835*
X03778Y03836*
X03776Y0384*
X03778Y03843*
X03778Y03844*
X0378Y03847*
Y03852*
X03778Y03855*
X03775Y03858*
X03772Y0386*
G37*
G36*
X02615Y03963D02*
X02613Y03963D01*
X02612*
X02611Y03962*
X02609Y03962*
X02608Y03961*
X02607Y03961*
X02606Y0396*
X02605Y03959*
X02604Y03958*
X02603Y03957*
X02603Y03956*
X02602Y03955*
X02602Y03953*
X02602Y03952*
Y03951*
X02601Y0395*
Y03855*
X02602Y03849*
X02605Y03845*
X0264Y0381*
X02641Y03809*
X02642Y03808*
X02643Y03808*
X02644Y03807*
X02646Y03807*
X02647Y03807*
X02648*
X0265Y03806*
X02651Y03807*
X02652*
X02653Y03807*
X02655Y03807*
X02656Y03808*
X02657Y03808*
X02658Y03809*
X02659Y0381*
X0266Y03811*
X02661Y03812*
X02661Y03813*
X02662Y03814*
X02662Y03816*
X02663Y03817*
Y03818*
X02663Y0382*
X02663Y03821*
Y03822*
X02662Y03823*
X02662Y03825*
X02661Y03826*
X02661Y03827*
X0266Y03828*
X02659Y03829*
X02628Y0386*
Y0395*
X02628Y03951*
Y03952*
X02627Y03953*
X02627Y03955*
X02626Y03956*
X02626Y03957*
X02625Y03958*
X02624Y03959*
X02623Y0396*
X02622Y03961*
X02621Y03961*
X0262Y03962*
X02618Y03962*
X02617Y03963*
X02616*
X02615Y03963*
G37*
G36*
X04012Y0382D02*
X04007D01*
X04004Y03818*
X04001Y03815*
X03999Y03812*
Y03807*
X04001Y03804*
X04004Y03801*
X04007Y03799*
X04012*
X04015Y03801*
X04018Y03804*
X0402Y03807*
Y03812*
X04018Y03815*
X04015Y03818*
X04012Y0382*
G37*
G36*
X03107Y03815D02*
X03102D01*
X03099Y03813*
X03096Y0381*
X03094Y03807*
Y03802*
X03096Y03799*
X03099Y03796*
X03102Y03794*
X03107*
X0311Y03796*
X03113Y03799*
X03115Y03802*
Y03807*
X03113Y0381*
X0311Y03813*
X03107Y03815*
G37*
G36*
X03832Y03818D02*
X03827D01*
X03822Y03816*
X03818Y03812*
X03817Y03807*
Y03802*
X03818Y03797*
X03822Y03793*
X03827Y03792*
X03832*
X03837Y03793*
X03841Y03797*
X03843Y03802*
Y03807*
X03841Y03812*
X03837Y03816*
X03832Y03818*
G37*
G36*
X03357Y03808D02*
X03352D01*
X03347Y03806*
X03343Y03802*
X03342Y03797*
Y03792*
X03343Y03787*
X03347Y03783*
X03352Y03782*
X03357*
X03362Y03783*
X03366Y03787*
X03368Y03792*
Y03797*
X03366Y03802*
X03362Y03806*
X03357Y03808*
G37*
G36*
X02668Y03797D02*
X02661D01*
X02656Y03794*
X02651Y0379*
X02649Y03784*
Y03778*
X02651Y03772*
X02656Y03767*
X02661Y03765*
X02668*
X02673Y03767*
X02678Y03772*
X0268Y03778*
Y03784*
X02678Y0379*
X02673Y03794*
X02668Y03797*
G37*
G36*
X03477Y0378D02*
X03472D01*
X03469Y03778*
X03466Y03775*
X03464Y03772*
Y03767*
X03466Y03764*
X03469Y03761*
X03472Y03759*
X03477*
X0348Y03761*
X03483Y03764*
X03485Y03767*
Y03772*
X03483Y03775*
X0348Y03778*
X03477Y0378*
G37*
G36*
X03461Y03755D02*
X03457D01*
X03453Y03753*
X03451Y03751*
X03449Y03753*
X03445Y03755*
X03441*
X03437Y03753*
X03434Y0375*
X03433Y03747*
Y03742*
X03434Y03739*
X03436Y03737*
Y03722*
X03437Y03719*
X03439Y03716*
X03446Y03709*
X03443Y03704*
X03442Y03705*
X03437*
X03434Y03703*
X03431Y037*
X03429Y03697*
Y03692*
X03429Y03692*
X03426Y03687*
X03328*
X03325Y03686*
X03323Y03685*
X0331Y03672*
X03187*
X03185Y03673*
X03182Y03675*
X03177*
X03174Y03673*
X03171Y0367*
X03169Y03667*
Y03662*
X03171Y03659*
X03174Y03656*
X03177Y03654*
X03182*
X03185Y03656*
X03187Y03657*
X03201*
X03204Y03652*
X03204Y03652*
Y03647*
X03206Y03644*
X03209Y03641*
X03212Y03639*
X03217*
X0322Y03641*
X03222Y03642*
X03266*
X03269Y03637*
X03269Y03637*
Y03632*
X03271Y03629*
X03274Y03626*
X03277Y03624*
X03282*
X03285Y03626*
X03287Y03627*
X03383*
X03386Y03628*
X03388Y03629*
X03403Y03644*
X03405*
X03409Y03645*
X03412Y03648*
X03414Y03652*
Y03656*
X03412Y0366*
X03409Y03663*
X03405Y03665*
X03401*
X03397Y03663*
X03394Y0366*
X03393Y03656*
Y03654*
X03382Y03644*
X03381Y03644*
X0338Y03645*
X03379Y0365*
X0338Y03652*
Y03657*
X03378Y0366*
X03375Y03663*
X03372Y03665*
X03367*
X03364Y03663*
X03361Y0366*
X03359Y03657*
X03322*
X0332Y03662*
X03331Y03672*
X03452*
X03454Y03671*
X03457Y03669*
X03462*
X03465Y03671*
X03468Y03674*
X0347Y03677*
Y03682*
X03468Y03685*
X03465Y03688*
X03462Y0369*
X03457*
X03454Y03689*
X03453Y03689*
X0345Y03692*
X0345Y03692*
X0345Y03692*
Y03697*
X03454Y037*
X03455Y037*
X03457Y03698*
X03461Y03697*
X03461*
X03501*
X03501Y03697*
X03503Y03692*
X03501Y0369*
X03499Y03687*
Y03682*
X03501Y03679*
X03504Y03676*
X03507Y03674*
X03512*
X03515Y03676*
X03516Y03676*
X03583*
X03586Y03677*
X03589Y03679*
X03599Y03689*
X03602*
X03605Y03691*
X03608Y03694*
X03609Y03695*
X03614Y03697*
X03615Y03697*
X03616Y03695*
Y03668*
X03606Y03658*
X03545*
X03541Y03657*
X03539Y03655*
X03498Y03615*
X03497*
X03494Y03613*
X03491Y0361*
X03489Y03607*
Y03602*
X03491Y03599*
X03494Y03596*
X03497Y03594*
X03502*
X03505Y03596*
X03508Y03599*
X0351Y03602*
Y03603*
X03548Y03641*
X0361*
X03613Y03642*
X03615Y03644*
X0363Y03659*
X03632Y03661*
X03633Y03665*
Y03698*
X03633Y03699*
X03635Y03702*
Y03707*
X03633Y0371*
X0363Y03713*
X03627Y03715*
X03622*
X03619Y03713*
X03616Y0371*
X03614Y03707*
Y03705*
X03609Y03704*
X03608Y03705*
X03605Y03708*
X03602Y0371*
X03597*
X03594Y03708*
X03591Y03705*
X03589Y03702*
X0358Y03693*
X03554*
X03552Y03698*
X03553Y03699*
X03555Y03703*
Y03707*
X03553Y03711*
X03551Y03713*
X03553Y03715*
X03555Y03719*
Y03723*
X03553Y03727*
X0355Y0373*
X03547Y03731*
X03542*
X03539Y0373*
X03537Y03728*
X03535*
X03533Y03728*
X0347*
X03467Y03731*
Y03737*
X03468Y03739*
X0347Y03742*
Y03747*
X03468Y0375*
X03465Y03753*
X03461Y03755*
G37*
G36*
X03907Y03748D02*
X03902D01*
X03897Y03746*
X03895Y03743*
X0389Y03744*
X0389Y03744*
Y03725*
X0389Y03725*
X03895Y03726*
X03897Y03723*
X03902Y03722*
X03907*
X03912Y03723*
X03916Y03727*
X03918Y03732*
Y03737*
X03916Y03742*
X03912Y03746*
X03907Y03748*
G37*
G36*
X03992Y0375D02*
X03987D01*
X03984Y03748*
X03981Y03745*
X03979Y03742*
Y03737*
X03981Y03734*
X03984Y03731*
X03987Y03729*
X03992*
X03995Y03731*
X03998Y03734*
X04Y03737*
Y03742*
X03998Y03745*
X03995Y03748*
X03992Y0375*
G37*
G36*
X03932Y0365D02*
X03927D01*
X03924Y03648*
X03921Y03645*
X03919Y03642*
Y03637*
X03921Y03634*
X03924Y03631*
X03927Y03629*
X0393*
X03932Y03627*
X03934Y03625*
Y03622*
X03936Y03619*
X03939Y03616*
X03942Y03614*
X03947*
X0395Y03616*
X03953Y03619*
X03955Y03622*
Y03627*
X03953Y0363*
X0395Y03633*
X03947Y03635*
X03944*
X03942Y03637*
X0394Y03639*
Y03642*
X03938Y03645*
X03935Y03648*
X03932Y0365*
G37*
G36*
X03462Y03635D02*
X03457D01*
X03454Y03633*
X03452Y03632*
X03415*
X03412Y03631*
X03409Y0363*
X03375Y03595*
X03372*
X03369Y03593*
X03368Y03593*
X03365Y03591*
X03361Y03593*
X0336Y03593*
X03357Y03595*
X03352*
X03349Y03593*
X03346Y0359*
X03344Y03587*
Y03582*
X03346Y03579*
X03349Y03576*
X03352Y03574*
X03357*
X0336Y03576*
X03361Y03576*
X03365Y03578*
X03368Y03576*
X03369Y03576*
X03372Y03574*
X03377*
X0338Y03576*
X03383Y03579*
X03385Y03582*
Y03585*
X03417Y03617*
X03452*
X03454Y03616*
X03457Y03614*
X03462*
X03465Y03616*
X03468Y03619*
X0347Y03622*
Y03627*
X03468Y0363*
X03465Y03633*
X03462Y03635*
G37*
G36*
X02942Y03633D02*
X02937D01*
X02932Y03631*
X02928Y03627*
X02927Y03622*
Y03617*
X02928Y03612*
X02932Y03608*
X02937Y03607*
X02942*
X02947Y03608*
X02951Y03612*
X02953Y03617*
Y03622*
X02951Y03627*
X02947Y03631*
X02942Y03633*
G37*
G36*
X04022Y03615D02*
X04017D01*
X04014Y03613*
X04011Y0361*
X04009Y03607*
Y03602*
X04011Y03599*
X04014Y03596*
X04017Y03594*
X04022*
X04025Y03596*
X04028Y03599*
X0403Y03602*
Y03607*
X04028Y0361*
X04025Y03613*
X04022Y03615*
G37*
G36*
X03747Y03545D02*
X03742D01*
X03739Y03543*
X03736Y0354*
X03734Y03537*
Y03532*
X03736Y03529*
X03739Y03526*
X03742Y03524*
X03747*
X0375Y03526*
X03753Y03529*
X03755Y03532*
Y03537*
X03753Y0354*
X0375Y03543*
X03747Y03545*
G37*
G36*
X04675Y03562D02*
X04664D01*
X04653Y03559*
X04643Y03554*
X04635Y03546*
X0463Y03536*
X04627Y03525*
Y03514*
X0463Y03503*
X04635Y03493*
X04643Y03485*
X04653Y0348*
X04664Y03477*
X04675*
X04686Y0348*
X04696Y03485*
X04704Y03493*
X04709Y03503*
X04712Y03514*
Y03525*
X04709Y03536*
X04704Y03546*
X04696Y03554*
X04686Y03559*
X04675Y03562*
G37*
G36*
X03527Y0347D02*
X03522D01*
X03519Y03468*
X03516Y03465*
X03514Y03462*
Y03457*
X03516Y03454*
X03519Y03451*
X03522Y03449*
X03527*
X0353Y03451*
X03533Y03454*
X03535Y03457*
Y03462*
X03533Y03465*
X0353Y03468*
X03527Y0347*
G37*
%LNesp32c3phils-3*%
%LPD*%
G36*
X03624Y04092D02*
X03624Y04092D01*
Y04087*
X03626Y04084*
X03629Y04081*
X03632Y04079*
X03637*
X0364Y04081*
X03642Y04082*
X03712*
X03714Y04081*
X03717Y04079*
X03722*
X03725Y04081*
X03728Y04084*
X0373Y04087*
X03732Y04088*
X03735Y04089*
X03747Y04077*
Y04033*
X03747Y04033*
X03742Y04031*
X0374Y04033*
X03737Y04035*
X03734*
X0371Y0406*
X03707Y04061*
X03705Y04062*
X03581*
X03579Y04063*
X03575Y04065*
X03571*
X03567Y04063*
X03564Y0406*
X03563Y04057*
Y04053*
X03561Y04051*
X03558Y04049*
X03557Y0405*
X03552*
X03551Y04049*
X03546Y04052*
X03546Y04056*
X03555Y04064*
X03556Y04067*
X03557Y0407*
Y04082*
X03572Y04097*
X03621*
X03624Y04092*
G37*
G36*
X03442Y04076D02*
Y04D01*
X03443Y03997*
X03444Y03994*
X03497Y03942*
Y03892*
X03496Y0389*
X03495Y03888*
X03489*
X03488Y0389*
X03485Y03893*
X03482Y03895*
X03479*
X03432Y03942*
Y04067*
X03433Y04069*
X03435Y04072*
Y04076*
X03435Y04077*
X03439Y04079*
X03442Y04076*
G37*
G54D11*
X02615Y03855D02*
X0265Y0382D01*
X02615Y03855D02*
Y0395D01*
X0334Y04085D02*
Y04205D01*
X03215Y0408D02*
Y04135D01*
X0331Y0423*
X0337*
G54D13*
X03905Y03045D02*
X0392D01*
X0395Y03075*
X03995Y03045D02*
X04025Y03075D01*
X03985Y03045D02*
X03995D01*
X04065D02*
X04075D01*
X04105Y03075*
X04155Y03045D02*
X04185Y03075D01*
X04145Y03045D02*
X04155D01*
X04235D02*
X04265Y03075D01*
X04225Y03045D02*
X04235D01*
X04315D02*
X04345Y03075D01*
X04305Y03045D02*
X04315D01*
X0439D02*
X04425Y0308D01*
X04385Y03045D02*
X0439D01*
X04475D02*
X04505Y03075D01*
X04465Y03045D02*
X04475D01*
X04562Y03062D02*
X04567D01*
X04545Y03045D02*
X04562Y03062D01*
X04567D02*
X04585Y0308D01*
X04625Y03045D02*
X04625Y03045D01*
X0472*
X0351Y03685D02*
X03583D01*
X03598Y037*
X036*
X03625Y03665D02*
Y03705D01*
X0361Y0365D02*
X03625Y03665D01*
X03545Y0365D02*
X0361D01*
X035Y03605D02*
X03545Y0365D01*
G54D17*
X0351Y0379D02*
X03515D01*
X03522Y03797*
Y03972*
X0378Y04003D02*
Y04005D01*
Y04003D02*
X0379Y03993D01*
Y0394D02*
Y03993D01*
X0374Y0401D02*
X03755Y04025D01*
X03725Y0401D02*
X0374D01*
X0379Y0394D02*
X03805Y03925D01*
X03705Y04055D02*
X03735Y04025D01*
X03755D02*
Y0408D01*
X03745Y0399D02*
X0376Y04005D01*
X0365Y0399D02*
X03745D01*
X0369Y039D02*
X0388D01*
X0367Y0388D02*
X0369Y039D01*
X03573Y04055D02*
X03705D01*
X03535D02*
X0355Y0407D01*
X0357Y04105D02*
X03655D01*
X0355Y04085D02*
X0357Y04105D01*
X0355Y0407D02*
Y04085D01*
X03383Y03635D02*
X03403Y03654D01*
X0328Y03635D02*
X03383D01*
X03415Y03625D02*
X0346D01*
X03375Y03585D02*
X03415Y03625D01*
X03408Y03885D02*
X0344D01*
X03385Y0388D02*
X03385Y03881D01*
X03404*
X03408Y03885*
X0378Y0352D02*
Y03555D01*
X0374Y03595D02*
X0378Y03555D01*
X0374Y03595D02*
Y03685D01*
X0372Y0383D02*
X0377D01*
X03715Y03825D02*
X0372Y0383D01*
X03715Y0378D02*
Y03825D01*
Y0378D02*
X03785Y0371D01*
Y0368D02*
Y0371D01*
X0377Y03665D02*
X03785Y0368D01*
X03755Y03688D02*
X03765Y03698D01*
X03755Y03635D02*
Y03688D01*
X03765Y03698D02*
Y037D01*
X03715Y0385D02*
X0377D01*
X03705Y0384D02*
X03715Y0385D01*
X03705Y0376D02*
Y0384D01*
Y0376D02*
X03765Y037D01*
X03645Y04125D02*
X0369D01*
X037Y04115*
Y04135D02*
X03755Y0408D01*
X03805Y03925D02*
X03855D01*
X03585Y0404D02*
X03605Y0402D01*
X03635Y04011D02*
X03636D01*
X03635Y03995D02*
X03645Y04005D01*
X03635Y03975D02*
Y03995D01*
X03645Y04005D02*
X037D01*
X03636Y04011D02*
X0366Y04035D01*
X037*
X03725Y0401*
X03605Y03965D02*
Y0402D01*
X03595Y03955D02*
X03605Y03965D01*
X03435Y03595D02*
X0352Y0351D01*
X03525*
X03328Y0368D02*
X0346D01*
X03313Y03665D02*
X03328Y0368D01*
X0318Y03665D02*
X03313D01*
X03365Y0365D02*
X0337Y03655D01*
X03215Y0365D02*
X03365D01*
X03635Y0409D02*
X0372D01*
X03555Y03955D02*
X03595D01*
X0337Y04055D02*
X0338D01*
X03415Y0409*
X0344*
X0345Y0408*
Y04D02*
Y0408D01*
X0347Y04025D02*
X03522Y03972D01*
X03505Y03885D02*
Y03945D01*
X0345Y04D02*
X03505Y03945D01*
X03425Y0394D02*
Y04075D01*
Y0394D02*
X0348Y03885D01*
X0341Y0392D02*
Y0406D01*
X0345Y039D02*
X03455Y03895D01*
X0343Y039D02*
X0345D01*
X03455Y0387D02*
Y03895D01*
X0341Y0392D02*
X0343Y039D01*
X03455Y0387D02*
X0351Y03815D01*
G54D27*
X03525Y0346D03*
X0395Y03075D03*
X04025D03*
X04105D03*
X04185D03*
X04265D03*
X04345D03*
X04425Y0308D03*
X04505Y03075D03*
X04585Y0308D03*
X0472Y03045D03*
X04555Y0394D03*
X04115D03*
X04845Y0421D03*
X0449Y03885D03*
X04845Y03835D03*
X04115Y03855D03*
X0401Y0381D03*
X04475Y0383D03*
X04745D03*
X0401Y03985D03*
X0399Y0374D03*
X0402Y03605D03*
X03945Y03625D03*
X0351Y0379D03*
X03475Y0377D03*
X03459Y03745D03*
X03443D03*
X0377Y03985D03*
X0378Y04005D03*
X0375Y03954D03*
X03805Y03975D03*
X0376Y04005D03*
X03735Y04025D03*
X0267Y03905D03*
X0266Y0387D03*
X03525Y0417D03*
X03745Y03535D03*
X0393Y0364D03*
X03875Y0388D03*
X0388Y039D03*
X03135Y04175D03*
X03573Y04055D03*
X03535D03*
X03555Y0404D03*
X0383Y03975D03*
X0386D03*
X0344Y03695D03*
X0376Y03935D03*
X03355Y03585D03*
X03155Y04095D03*
X03105Y03805D03*
X0311Y0395D03*
X03375Y03585D03*
X03005Y0414D03*
X03635Y0403D03*
X03545Y03721D03*
Y03705D03*
X03385Y0388D03*
X0351Y03685D03*
X0367Y0388D03*
X0378Y0352D03*
X0374Y03685D03*
X0377Y0383D03*
Y03665D03*
Y0385D03*
X03755Y03635D03*
X03765Y037D03*
X0315Y0367D03*
X03175Y03495D03*
X037Y04115D03*
X03645Y04125D03*
X037Y04135D03*
X03855Y03925D03*
X03585Y0404D03*
X037Y03975D03*
X0363Y0401D03*
X0346Y03625D03*
Y0368D03*
X0318Y03665D03*
X0337Y03655D03*
X03215Y0365D03*
X03403Y03654D03*
X0328Y03635D03*
X0365Y0399D03*
X03635Y0409D03*
X03655Y04105D03*
X03705Y04005D03*
X03555Y03955D03*
X0372Y0409D03*
X03635Y03975D03*
X0337Y04055D03*
X0347Y04025D03*
X03505Y03885D03*
X03425Y04075D03*
X0348Y03885D03*
X0341Y0406D03*
X0351Y03815D03*
X0344Y03885D03*
X036Y037D03*
X035Y03605D03*
X03625Y03705D03*
G54D78*
X0467Y0352D03*
G54D79*
X0477Y0342D03*
Y0362D03*
X0457D03*
Y0342D03*
G54D84*
X03443Y03745D02*
X03445Y03743D01*
Y03722D02*
X03461Y03706D01*
X03466Y0372D02*
X03535D01*
X03445Y03722D02*
Y03743D01*
X03458Y03728D02*
Y0374D01*
X03459Y03741D02*
Y03745D01*
X03458Y03728D02*
X03466Y0372D01*
X03458Y0374D02*
X03459Y03741D01*
X03461Y03706D02*
X03535D01*
X03544Y03706D02*
X03545Y03705D01*
X03535Y0372D02*
X03535Y0372D01*
X03544*
X03545Y03721*
X03535Y03706D02*
X03535Y03706D01*
X03544*
G54D95*
X02665Y04008D03*
Y03781D03*
G54D96*
X03905Y03735D03*
X03355Y03795D03*
X033Y03685D03*
X0383Y03805D03*
X0294Y0362D03*
X03535Y04095D03*
X0327Y04245D03*
X02615Y0395D03*
X03525Y0351D03*
X03435Y03595D03*
X0334Y04085D03*
Y04205D03*
X03215Y0408D03*
X0337Y0423D03*
X0265Y0382D03*
G54D97*
X02845Y04095D03*
X02785Y03745D03*
G54D99*
X04625Y03045D03*
X04545D03*
X04545Y02965D03*
X04465Y03045D03*
X04465Y02965D03*
X04385Y03045D03*
X04385Y02965D03*
X04305Y03045D03*
X04305Y02965D03*
X04225Y03045D03*
X04224Y02965D03*
X04145Y03045D03*
X04145Y02965D03*
X04065Y03045D03*
X04065Y02965D03*
X03985Y03045D03*
X03985Y02965D03*
X03905Y03045D03*
X03905Y02965D03*
X03685Y0305D03*
X03605D03*
X03605Y0297D03*
X03525Y0305D03*
X03525Y0297D03*
X03445Y0305D03*
X03445Y0297D03*
X03365Y0305D03*
X03365Y0297D03*
X03285Y0305D03*
X03284Y0297D03*
X03205Y0305D03*
X03205Y0297D03*
X03125Y0305D03*
X03125Y0297D03*
X03045Y0305D03*
X03045Y0297D03*
X02965Y0305D03*
X02965Y0297D03*
G54D100*
X04624Y02965D03*
X03684Y0297D03*
M02*