%FSTAX23Y23*%
%MOIN*%
%SFA1B1*%

%IPPOS*%
%ADD10C,0.010000*%
%ADD11C,0.003937*%
%ADD12C,0.007874*%
%ADD13C,0.006000*%
%ADD14C,0.005000*%
%ADD15C,0.008000*%
%ADD16C,0.003000*%
%LNesp32c3phils-1*%
%LPD*%
G36*
X03318Y03557D02*
Y03542D01*
X03308*
Y03557*
X03318*
G37*
G54D10*
X03356Y03511D02*
D01*
X03356Y03511*
X03356Y03511*
X03356Y03511*
X03356Y03511*
X03356Y03511*
X03356Y03511*
X03356Y03511*
X03356Y03511*
X03356Y03511*
X03356Y03511*
X03356Y03511*
X03355Y03512*
X03355Y03512*
X03355Y03512*
X03355Y03512*
X03355Y03512*
X03355Y03512*
X03355Y03512*
X03355Y03512*
X03355Y03512*
X03355Y03512*
X03355Y03512*
X03354*
X03354Y03512*
X03354Y03512*
X03354Y03512*
X03354Y03512*
X03354Y03512*
X03354Y03512*
X03354Y03512*
X03354Y03512*
X03354Y03512*
X03354Y03512*
X03353Y03511*
X03353Y03511*
X03353Y03511*
X03353Y03511*
X03353Y03511*
X03353Y03511*
X03353Y03511*
X03353Y03511*
X03353Y03511*
X03353Y03511*
X03353Y03511*
X03353Y03511*
X03353Y0351*
X03353Y0351*
X03353Y0351*
X03353Y0351*
X03353Y0351*
X03353Y0351*
X03353Y0351*
X03353Y0351*
X03353Y0351*
X03353Y0351*
X03353Y0351*
X03354Y03509*
X03354Y03509*
X03354Y03509*
X03354Y03509*
X03354Y03509*
X03354Y03509*
X03354Y03509*
X03354Y03509*
X03354Y03509*
X03354Y03509*
X03354Y03509*
X03355*
X03355Y03509*
X03355Y03509*
X03355Y03509*
X03355Y03509*
X03355Y03509*
X03355Y03509*
X03355Y03509*
X03355Y03509*
X03355Y03509*
X03355Y03509*
X03356Y0351*
X03356Y0351*
X03356Y0351*
X03356Y0351*
X03356Y0351*
X03356Y0351*
X03356Y0351*
X03356Y0351*
X03356Y0351*
X03356Y0351*
X03356Y0351*
X03356Y03511*
X02871Y0428D02*
X03059D01*
X02871Y04169D02*
X03059D01*
X02871D02*
Y0428D01*
X03059Y04169D02*
Y0428D01*
X03267Y03955D02*
Y04054D01*
X03164Y03955D02*
Y04054D01*
X02866Y03445D02*
X03054D01*
X02866Y03556D02*
X03054D01*
Y03445D02*
Y03556D01*
X02866Y03445D02*
Y03556D01*
X02835Y03029D02*
X02815D01*
X02825*
Y0298*
X02815Y0297*
X02805*
X02795Y0298*
X02854Y03019D02*
X02864Y03029D01*
X02884*
X02894Y03019*
Y03009*
X02884Y03*
X02874*
X02884*
X02894Y0299*
Y0298*
X02884Y0297*
X02864*
X02854Y0298*
X0359Y04239D02*
Y04215D01*
X03595Y0421*
X03605*
X0361Y04215*
Y04239*
X03634Y0421D02*
Y04239D01*
X0362Y04225*
X03639*
X04715Y03029D02*
X04701D01*
X04708*
Y02996*
X04701Y0299*
X04695*
X04688Y02996*
X04728Y0299D02*
X04741D01*
X04734*
Y03029*
X04728Y03023*
X0281Y04148D02*
Y04135D01*
Y04141*
X02843*
X02849Y04135*
Y04128*
X02843Y04121*
X02849Y04188D02*
Y04161D01*
X02823Y04188*
X02816*
X0281Y04181*
Y04168*
X02816Y04161*
G54D11*
X03446Y03898D02*
D01*
X03446Y03898*
X03446Y03898*
X03446Y03898*
X03446Y03899*
X03446Y03899*
X03446Y03899*
X03446Y03899*
X03446Y03899*
X03445Y03899*
X03445Y03899*
X03445Y03899*
X03445Y03899*
X03445Y039*
X03445Y039*
X03445Y039*
X03445Y039*
X03445Y039*
X03444Y039*
X03444Y039*
X03444Y039*
X03444Y039*
X03444Y039*
X03444*
X03444Y039*
X03444Y039*
X03443Y039*
X03443Y039*
X03443Y039*
X03443Y039*
X03443Y039*
X03443Y039*
X03443Y039*
X03443Y03899*
X03442Y03899*
X03442Y03899*
X03442Y03899*
X03442Y03899*
X03442Y03899*
X03442Y03899*
X03442Y03899*
X03442Y03899*
X03442Y03898*
X03442Y03898*
X03442Y03898*
X03442Y03898*
X03442Y03898*
X03442Y03898*
X03442Y03898*
X03442Y03897*
X03442Y03897*
X03442Y03897*
X03442Y03897*
X03442Y03897*
X03442Y03897*
X03442Y03897*
X03442Y03897*
X03443Y03897*
X03443Y03896*
X03443Y03896*
X03443Y03896*
X03443Y03896*
X03443Y03896*
X03443Y03896*
X03443Y03896*
X03444Y03896*
X03444Y03896*
X03444Y03896*
X03444*
X03444Y03896*
X03444Y03896*
X03444Y03896*
X03444Y03896*
X03445Y03896*
X03445Y03896*
X03445Y03896*
X03445Y03896*
X03445Y03896*
X03445Y03897*
X03445Y03897*
X03445Y03897*
X03445Y03897*
X03446Y03897*
X03446Y03897*
X03446Y03897*
X03446Y03897*
X03446Y03897*
X03446Y03898*
X03446Y03898*
X03446Y03898*
X03446Y03898*
X03377Y039D02*
X03432D01*
X03377Y03959D02*
X03432D01*
G54D12*
X03521Y03581D02*
D01*
X03521Y03582*
X03521Y03582*
X03521Y03582*
X03521Y03582*
X03521Y03583*
X03521Y03583*
X0352Y03583*
X0352Y03583*
X0352Y03584*
X0352Y03584*
X0352Y03584*
X0352Y03584*
X03519Y03584*
X03519Y03585*
X03519Y03585*
X03519Y03585*
X03518Y03585*
X03518Y03585*
X03518Y03585*
X03518Y03585*
X03517Y03585*
X03517Y03585*
X03517*
X03517Y03585*
X03516Y03585*
X03516Y03585*
X03516Y03585*
X03516Y03585*
X03515Y03585*
X03515Y03585*
X03515Y03585*
X03515Y03584*
X03514Y03584*
X03514Y03584*
X03514Y03584*
X03514Y03584*
X03514Y03583*
X03514Y03583*
X03513Y03583*
X03513Y03583*
X03513Y03582*
X03513Y03582*
X03513Y03582*
X03513Y03582*
X03513Y03581*
X03513Y03581*
X03513Y03581*
X03513Y0358*
X03513Y0358*
X03513Y0358*
X03513Y0358*
X03514Y03579*
X03514Y03579*
X03514Y03579*
X03514Y03579*
X03514Y03579*
X03514Y03578*
X03515Y03578*
X03515Y03578*
X03515Y03578*
X03515Y03578*
X03516Y03578*
X03516Y03578*
X03516Y03577*
X03516Y03577*
X03517Y03577*
X03517Y03577*
X03517*
X03517Y03577*
X03518Y03577*
X03518Y03577*
X03518Y03578*
X03518Y03578*
X03519Y03578*
X03519Y03578*
X03519Y03578*
X03519Y03578*
X0352Y03578*
X0352Y03579*
X0352Y03579*
X0352Y03579*
X0352Y03579*
X0352Y03579*
X03521Y0358*
X03521Y0358*
X03521Y0358*
X03521Y0358*
X03521Y03581*
X03521Y03581*
X03521Y03581*
X03619Y04192D02*
D01*
X03619Y04192*
X03619Y04192*
X03619Y04192*
X03619Y04193*
X03619Y04193*
X03619Y04193*
X03619Y04193*
X03619Y04194*
X03619Y04194*
X03618Y04194*
X03618Y04194*
X03618Y04194*
X03618Y04195*
X03618Y04195*
X03617Y04195*
X03617Y04195*
X03617Y04195*
X03617Y04195*
X03616Y04195*
X03616Y04195*
X03616Y04195*
X03616Y04195*
X03615*
X03615Y04195*
X03615Y04195*
X03614Y04195*
X03614Y04195*
X03614Y04195*
X03614Y04195*
X03613Y04195*
X03613Y04195*
X03613Y04195*
X03613Y04194*
X03613Y04194*
X03612Y04194*
X03612Y04194*
X03612Y04194*
X03612Y04193*
X03612Y04193*
X03612Y04193*
X03612Y04193*
X03612Y04192*
X03611Y04192*
X03611Y04192*
X03611Y04192*
X03611Y04191*
X03611Y04191*
X03612Y04191*
X03612Y0419*
X03612Y0419*
X03612Y0419*
X03612Y0419*
X03612Y04189*
X03612Y04189*
X03612Y04189*
X03613Y04189*
X03613Y04189*
X03613Y04188*
X03613Y04188*
X03613Y04188*
X03614Y04188*
X03614Y04188*
X03614Y04188*
X03614Y04188*
X03615Y04188*
X03615Y04188*
X03615Y04188*
X03616*
X03616Y04188*
X03616Y04188*
X03616Y04188*
X03617Y04188*
X03617Y04188*
X03617Y04188*
X03617Y04188*
X03618Y04188*
X03618Y04188*
X03618Y04189*
X03618Y04189*
X03618Y04189*
X03619Y04189*
X03619Y04189*
X03619Y0419*
X03619Y0419*
X03619Y0419*
X03619Y0419*
X03619Y04191*
X03619Y04191*
X03619Y04191*
X03619Y04192*
X03438Y03981D02*
D01*
X03438Y03981*
X03438Y03981*
X03438Y03982*
X03438Y03982*
X03438Y03982*
X03438Y03982*
X03438Y03983*
X03438Y03983*
X03438Y03983*
X03437Y03983*
X03437Y03984*
X03437Y03984*
X03437Y03984*
X03437Y03984*
X03436Y03984*
X03436Y03984*
X03436Y03985*
X03436Y03985*
X03435Y03985*
X03435Y03985*
X03435Y03985*
X03435Y03985*
X03434*
X03434Y03985*
X03434Y03985*
X03433Y03985*
X03433Y03985*
X03433Y03985*
X03433Y03984*
X03432Y03984*
X03432Y03984*
X03432Y03984*
X03432Y03984*
X03432Y03984*
X03431Y03983*
X03431Y03983*
X03431Y03983*
X03431Y03983*
X03431Y03982*
X03431Y03982*
X03431Y03982*
X03431Y03982*
X03431Y03981*
X0343Y03981*
X0343Y03981*
X0343Y03981*
X03431Y0398*
X03431Y0398*
X03431Y0398*
X03431Y0398*
X03431Y03979*
X03431Y03979*
X03431Y03979*
X03431Y03979*
X03431Y03978*
X03432Y03978*
X03432Y03978*
X03432Y03978*
X03432Y03978*
X03432Y03977*
X03433Y03977*
X03433Y03977*
X03433Y03977*
X03433Y03977*
X03434Y03977*
X03434Y03977*
X03434Y03977*
X03435*
X03435Y03977*
X03435Y03977*
X03435Y03977*
X03436Y03977*
X03436Y03977*
X03436Y03977*
X03436Y03977*
X03437Y03978*
X03437Y03978*
X03437Y03978*
X03437Y03978*
X03437Y03978*
X03438Y03979*
X03438Y03979*
X03438Y03979*
X03438Y03979*
X03438Y0398*
X03438Y0398*
X03438Y0398*
X03438Y0398*
X03438Y03981*
X03438Y03981*
X03146Y03655D02*
D01*
X03146Y03655*
X03146Y03656*
X03146Y03656*
X03146Y03656*
X03146Y03656*
X03146Y03657*
X03146Y03657*
X03146Y03657*
X03145Y03657*
X03145Y03658*
X03145Y03658*
X03145Y03658*
X03145Y03658*
X03144Y03658*
X03144Y03658*
X03144Y03659*
X03144Y03659*
X03143Y03659*
X03143Y03659*
X03143Y03659*
X03143Y03659*
X03142Y03659*
X03142*
X03142Y03659*
X03142Y03659*
X03141Y03659*
X03141Y03659*
X03141Y03659*
X03141Y03659*
X0314Y03658*
X0314Y03658*
X0314Y03658*
X0314Y03658*
X03139Y03658*
X03139Y03658*
X03139Y03657*
X03139Y03657*
X03139Y03657*
X03139Y03657*
X03139Y03656*
X03138Y03656*
X03138Y03656*
X03138Y03656*
X03138Y03655*
X03138Y03655*
X03138Y03655*
X03138Y03654*
X03138Y03654*
X03138Y03654*
X03139Y03654*
X03139Y03653*
X03139Y03653*
X03139Y03653*
X03139Y03653*
X03139Y03652*
X03139Y03652*
X0314Y03652*
X0314Y03652*
X0314Y03652*
X0314Y03652*
X03141Y03651*
X03141Y03651*
X03141Y03651*
X03141Y03651*
X03142Y03651*
X03142Y03651*
X03142Y03651*
X03142*
X03143Y03651*
X03143Y03651*
X03143Y03651*
X03143Y03651*
X03144Y03651*
X03144Y03651*
X03144Y03652*
X03144Y03652*
X03145Y03652*
X03145Y03652*
X03145Y03652*
X03145Y03652*
X03145Y03653*
X03146Y03653*
X03146Y03653*
X03146Y03653*
X03146Y03654*
X03146Y03654*
X03146Y03654*
X03146Y03654*
X03146Y03655*
X03146Y03655*
X03111Y04013D02*
D01*
X03111Y04014*
X03111Y04014*
X03111Y04014*
X03111Y04014*
X03111Y04015*
X03111Y04015*
X03111Y04015*
X03111Y04015*
X0311Y04016*
X0311Y04016*
X0311Y04016*
X0311Y04016*
X0311Y04016*
X03109Y04017*
X03109Y04017*
X03109Y04017*
X03109Y04017*
X03109Y04017*
X03108Y04017*
X03108Y04017*
X03108Y04017*
X03107Y04017*
X03107*
X03107Y04017*
X03107Y04017*
X03106Y04017*
X03106Y04017*
X03106Y04017*
X03106Y04017*
X03105Y04017*
X03105Y04017*
X03105Y04016*
X03105Y04016*
X03104Y04016*
X03104Y04016*
X03104Y04016*
X03104Y04015*
X03104Y04015*
X03104Y04015*
X03104Y04015*
X03104Y04014*
X03103Y04014*
X03103Y04014*
X03103Y04014*
X03103Y04013*
X03103Y04013*
X03103Y04013*
X03103Y04013*
X03104Y04012*
X03104Y04012*
X03104Y04012*
X03104Y04011*
X03104Y04011*
X03104Y04011*
X03104Y04011*
X03104Y04011*
X03105Y0401*
X03105Y0401*
X03105Y0401*
X03105Y0401*
X03106Y0401*
X03106Y0401*
X03106Y0401*
X03106Y04009*
X03107Y04009*
X03107Y04009*
X03107Y04009*
X03107*
X03108Y04009*
X03108Y04009*
X03108Y04009*
X03109Y0401*
X03109Y0401*
X03109Y0401*
X03109Y0401*
X03109Y0401*
X0311Y0401*
X0311Y0401*
X0311Y04011*
X0311Y04011*
X0311Y04011*
X03111Y04011*
X03111Y04011*
X03111Y04012*
X03111Y04012*
X03111Y04012*
X03111Y04013*
X03111Y04013*
X03111Y04013*
X03111Y04013*
X03782Y03771D02*
D01*
X03782Y03771*
X03782Y03771*
X03782Y03771*
X03782Y03772*
X03782Y03772*
X03782Y03772*
X03782Y03772*
X03782Y03773*
X03782Y03773*
X03781Y03773*
X03781Y03773*
X03781Y03774*
X03781Y03774*
X03781Y03774*
X0378Y03774*
X0378Y03774*
X0378Y03774*
X0378Y03774*
X03779Y03774*
X03779Y03774*
X03779Y03775*
X03778Y03775*
X03778*
X03778Y03775*
X03778Y03774*
X03777Y03774*
X03777Y03774*
X03777Y03774*
X03777Y03774*
X03776Y03774*
X03776Y03774*
X03776Y03774*
X03776Y03774*
X03776Y03773*
X03775Y03773*
X03775Y03773*
X03775Y03773*
X03775Y03772*
X03775Y03772*
X03775Y03772*
X03775Y03772*
X03775Y03771*
X03774Y03771*
X03774Y03771*
X03774Y03771*
X03774Y0377*
X03774Y0377*
X03775Y0377*
X03775Y0377*
X03775Y03769*
X03775Y03769*
X03775Y03769*
X03775Y03769*
X03775Y03768*
X03775Y03768*
X03776Y03768*
X03776Y03768*
X03776Y03767*
X03776Y03767*
X03776Y03767*
X03777Y03767*
X03777Y03767*
X03777Y03767*
X03777Y03767*
X03778Y03767*
X03778Y03767*
X03778Y03767*
X03778*
X03779Y03767*
X03779Y03767*
X03779Y03767*
X0378Y03767*
X0378Y03767*
X0378Y03767*
X0378Y03767*
X03781Y03767*
X03781Y03767*
X03781Y03768*
X03781Y03768*
X03781Y03768*
X03782Y03768*
X03782Y03769*
X03782Y03769*
X03782Y03769*
X03782Y03769*
X03782Y0377*
X03782Y0377*
X03782Y0377*
X03782Y0377*
X03782Y03771*
X03239Y04071D02*
D01*
X03239Y04071*
X03239Y04072*
X03239Y04072*
X03239Y04072*
X03239Y04072*
X03239Y04073*
X03239Y04073*
X03238Y04073*
X03238Y04073*
X03238Y04074*
X03238Y04074*
X03238Y04074*
X03238Y04074*
X03237Y04074*
X03237Y04074*
X03237Y04075*
X03237Y04075*
X03236Y04075*
X03236Y04075*
X03236Y04075*
X03236Y04075*
X03235Y04075*
X03235*
X03235Y04075*
X03234Y04075*
X03234Y04075*
X03234Y04075*
X03234Y04075*
X03233Y04075*
X03233Y04074*
X03233Y04074*
X03233Y04074*
X03232Y04074*
X03232Y04074*
X03232Y04074*
X03232Y04073*
X03232Y04073*
X03232Y04073*
X03232Y04073*
X03231Y04072*
X03231Y04072*
X03231Y04072*
X03231Y04072*
X03231Y04071*
X03231Y04071*
X03231Y04071*
X03231Y04071*
X03231Y0407*
X03231Y0407*
X03231Y0407*
X03232Y04069*
X03232Y04069*
X03232Y04069*
X03232Y04069*
X03232Y04069*
X03232Y04068*
X03232Y04068*
X03233Y04068*
X03233Y04068*
X03233Y04068*
X03233Y04068*
X03234Y04067*
X03234Y04067*
X03234Y04067*
X03234Y04067*
X03235Y04067*
X03235Y04067*
X03235*
X03236Y04067*
X03236Y04067*
X03236Y04067*
X03236Y04067*
X03237Y04067*
X03237Y04068*
X03237Y04068*
X03237Y04068*
X03238Y04068*
X03238Y04068*
X03238Y04068*
X03238Y04069*
X03238Y04069*
X03238Y04069*
X03239Y04069*
X03239Y04069*
X03239Y0407*
X03239Y0407*
X03239Y0407*
X03239Y04071*
X03239Y04071*
X03239Y04071*
X02772Y0404D02*
X02831D01*
X02772Y03689D02*
Y0404D01*
Y03689D02*
X02831D01*
X02938Y0404D02*
X02986D01*
X02938Y03689D02*
X02986D01*
G54D13*
X0317Y0379D02*
X03249D01*
X0317Y0392D02*
X03249D01*
X03319Y03615D02*
X0334D01*
X0341Y03604D02*
Y03615D01*
X03389Y03524D02*
X0341D01*
X03319D02*
X0334D01*
X03319Y03604D02*
Y03615D01*
X03389D02*
X0341D01*
Y03524D02*
Y03535D01*
X03319Y03524D02*
Y03535D01*
X04639Y02893D02*
X04622D01*
X04614Y02885*
X04622Y02876*
X04639*
X04626*
Y02893*
X04614Y02868D02*
X04639D01*
Y02856*
X04634Y02851*
X04618*
X04614Y02856*
Y02868*
X04618Y02826D02*
X04614Y02831D01*
Y02839*
X04618Y02843*
X04634*
X04639Y02839*
Y02831*
X04634Y02826*
X04639Y02806D02*
X04614D01*
X04626Y02818*
Y02801*
X03669Y02889D02*
X03665Y02893D01*
Y02901*
X03669Y02905*
X03686*
X0369Y02901*
Y02893*
X03686Y02889*
X03678*
Y02897*
X0369Y0288D02*
X03665D01*
Y02868*
X03669Y02864*
X03678*
X03682Y02868*
Y0288*
X03665Y02855D02*
Y02847D01*
Y02851*
X0369*
Y02855*
Y02847*
X03665Y02822D02*
Y0283D01*
X03669Y02835*
X03686*
X0369Y0283*
Y02822*
X03686Y02818*
X03669*
X03665Y02822*
X0369Y02797D02*
X03665D01*
X03678Y0281*
Y02793*
X03694Y02785D02*
Y02768D01*
X03665Y0276D02*
Y02751D01*
Y02755*
X0369*
Y0276*
Y02751*
X03665Y02726D02*
Y02735D01*
X03669Y02739*
X03686*
X0369Y02735*
Y02726*
X03686Y02722*
X03669*
X03665Y02726*
X0369Y02697D02*
Y02714D01*
X03673Y02697*
X03669*
X03665Y02701*
Y0271*
X03669Y02714*
Y02689D02*
X03665Y02685D01*
Y02676*
X03669Y02672*
X03673*
X03678Y02676*
X03682Y02672*
X03686*
X0369Y02676*
Y02685*
X03686Y02689*
X03682*
X03678Y02685*
X03673Y02689*
X03669*
X03678Y02685D02*
Y02676D01*
X03589Y02889D02*
X03585Y02893D01*
Y02901*
X03589Y02905*
X03606*
X0361Y02901*
Y02893*
X03606Y02889*
X03598*
Y02897*
X0361Y0288D02*
X03585D01*
Y02868*
X03589Y02864*
X03598*
X03602Y02868*
Y0288*
X03585Y02855D02*
Y02847D01*
Y02851*
X0361*
Y02855*
Y02847*
X03585Y02822D02*
Y0283D01*
X03589Y02835*
X03606*
X0361Y0283*
Y02822*
X03606Y02818*
X03589*
X03585Y02822*
X0361Y02793D02*
Y0281D01*
X03593Y02793*
X03589*
X03585Y02797*
Y02805*
X03589Y0281*
X03614Y02785D02*
Y02768D01*
X03585Y0276D02*
Y02751D01*
Y02755*
X0361*
Y0276*
Y02751*
X03585Y02726D02*
Y02735D01*
X03589Y02739*
X03606*
X0361Y02735*
Y02726*
X03606Y02722*
X03589*
X03585Y02726*
X0361Y02714D02*
Y02706D01*
Y0271*
X03585*
X03589Y02714*
Y02693D02*
X03585Y02689D01*
Y02681*
X03589Y02676*
X03593*
X03598Y02681*
X03602Y02676*
X03606*
X0361Y02681*
Y02689*
X03606Y02693*
X03602*
X03598Y02689*
X03593Y02693*
X03589*
X03598Y02689D02*
Y02681D01*
X03514Y02889D02*
X0351Y02893D01*
Y02901*
X03514Y02905*
X03531*
X03535Y02901*
Y02893*
X03531Y02889*
X03523*
Y02897*
X03535Y0288D02*
X0351D01*
Y02868*
X03514Y02864*
X03523*
X03527Y02868*
Y0288*
X0351Y02855D02*
Y02847D01*
Y02851*
X03535*
Y02855*
Y02847*
X0351Y02822D02*
Y0283D01*
X03514Y02835*
X03531*
X03535Y0283*
Y02822*
X03531Y02818*
X03514*
X0351Y02822*
X03535Y02793D02*
Y0281D01*
X03518Y02793*
X03514*
X0351Y02797*
Y02805*
X03514Y0281*
X03539Y02785D02*
Y02768D01*
X0351Y0276D02*
Y02751D01*
Y02755*
X03535*
Y0276*
Y02751*
X0351Y02726D02*
Y02735D01*
X03514Y02739*
X03531*
X03535Y02735*
Y02726*
X03531Y02722*
X03514*
X0351Y02726*
X03535Y02714D02*
Y02706D01*
Y0271*
X0351*
X03514Y02714*
X0351Y02693D02*
Y02676D01*
X03514*
X03531Y02693*
X03535*
X03429Y02889D02*
X03425Y02893D01*
Y02901*
X03429Y02905*
X03446*
X0345Y02901*
Y02893*
X03446Y02889*
X03438*
Y02897*
X0345Y0288D02*
X03425D01*
Y02868*
X03429Y02864*
X03438*
X03442Y02868*
Y0288*
X03425Y02855D02*
Y02847D01*
Y02851*
X0345*
Y02855*
Y02847*
X03425Y02822D02*
Y0283D01*
X03429Y02835*
X03446*
X0345Y0283*
Y02822*
X03446Y02818*
X03429*
X03425Y02822*
X0345Y02793D02*
Y0281D01*
X03433Y02793*
X03429*
X03425Y02797*
Y02805*
X03429Y0281*
X03454Y02785D02*
Y02768D01*
X03425Y0276D02*
Y02751D01*
Y02755*
X0345*
Y0276*
Y02751*
X03425Y02726D02*
Y02735D01*
X03429Y02739*
X03446*
X0345Y02735*
Y02726*
X03446Y02722*
X03429*
X03425Y02726*
X0345Y02714D02*
Y02706D01*
Y0271*
X03425*
X03429Y02714*
X03425Y02676D02*
X03429Y02685D01*
X03438Y02693*
X03446*
X0345Y02689*
Y02681*
X03446Y02676*
X03442*
X03438Y02681*
Y02693*
X03349Y02889D02*
X03345Y02893D01*
Y02901*
X03349Y02905*
X03366*
X0337Y02901*
Y02893*
X03366Y02889*
X03358*
Y02897*
X0337Y0288D02*
X03345D01*
Y02868*
X03349Y02864*
X03358*
X03362Y02868*
Y0288*
X03345Y02855D02*
Y02847D01*
Y02851*
X0337*
Y02855*
Y02847*
X03345Y02822D02*
Y0283D01*
X03349Y02835*
X03366*
X0337Y0283*
Y02822*
X03366Y02818*
X03349*
X03345Y02822*
X0337Y02793D02*
Y0281D01*
X03353Y02793*
X03349*
X03345Y02797*
Y02805*
X03349Y0281*
X03374Y02785D02*
Y02768D01*
X03345Y0276D02*
Y02751D01*
Y02755*
X0337*
Y0276*
Y02751*
X03345Y02726D02*
Y02735D01*
X03349Y02739*
X03366*
X0337Y02735*
Y02726*
X03366Y02722*
X03349*
X03345Y02726*
X0337Y02714D02*
Y02706D01*
Y0271*
X03345*
X03349Y02714*
X03345Y02676D02*
Y02693D01*
X03358*
X03353Y02685*
Y02681*
X03358Y02676*
X03366*
X0337Y02681*
Y02689*
X03366Y02693*
X03265Y02905D02*
X0329D01*
Y02893*
X03286Y02889*
X03269*
X03265Y02893*
Y02905*
Y0288D02*
X0329D01*
Y02868*
X03286Y02864*
X03282*
X03278Y02868*
Y0288*
Y02868*
X03273Y02864*
X03269*
X03265Y02868*
Y0288*
X03269Y02839D02*
X03265Y02843D01*
Y02851*
X03269Y02855*
X03286*
X0329Y02851*
Y02843*
X03286Y02839*
X03278*
Y02847*
X03294Y0283D02*
Y02814D01*
X0329Y02805D02*
X03265D01*
Y02793*
X03269Y02789*
X03278*
X03282Y02793*
Y02805*
Y02797D02*
X0329Y02789D01*
X03265Y0278D02*
X0329Y02764D01*
X03265D02*
X0329Y0278D01*
X03185Y02905D02*
X0321D01*
Y02893*
X03206Y02889*
X03189*
X03185Y02893*
Y02905*
Y0288D02*
X0321D01*
Y02868*
X03206Y02864*
X03202*
X03198Y02868*
Y0288*
Y02868*
X03193Y02864*
X03189*
X03185Y02868*
Y0288*
X03189Y02839D02*
X03185Y02843D01*
Y02851*
X03189Y02855*
X03206*
X0321Y02851*
Y02843*
X03206Y02839*
X03198*
Y02847*
X03214Y0283D02*
Y02814D01*
X03185Y02805D02*
Y02789D01*
Y02797*
X0321*
X03185Y0278D02*
X0321Y02764D01*
X03185D02*
X0321Y0278D01*
X03129Y02905D02*
X03104D01*
Y02893*
X03108Y02889*
X03117*
X03121Y02893*
Y02905*
X03104Y0288D02*
X03129D01*
X03121Y02872*
X03129Y02864*
X03104*
X03129Y02855D02*
X03104D01*
X03112Y02847*
X03104Y02839*
X03129*
Y0283D02*
Y02822D01*
Y02826*
X03104*
X03108Y0283*
X03049Y0291D02*
X03032D01*
X03024Y02902*
X03032Y02894*
X03049*
X03037*
Y0291*
X03024Y02885D02*
X03049D01*
Y02873*
X03045Y02869*
X03028*
X03024Y02873*
Y02885*
X03028Y02844D02*
X03024Y02848D01*
Y02856*
X03028Y0286*
X03045*
X03049Y02856*
Y02848*
X03045Y02844*
X03049Y02819D02*
Y02835D01*
X03032Y02819*
X03028*
X03024Y02823*
Y02831*
X03028Y02835*
X02969Y0291D02*
X02952D01*
X02944Y02902*
X02952Y02894*
X02969*
X02957*
Y0291*
X02944Y02885D02*
X02969D01*
Y02873*
X02965Y02869*
X02948*
X02944Y02873*
Y02885*
X02948Y02844D02*
X02944Y02848D01*
Y02856*
X02948Y0286*
X02965*
X02969Y02856*
Y02848*
X02965Y02844*
X02969Y02835D02*
Y02827D01*
Y02831*
X02944*
X02948Y02835*
X03878Y03802D02*
Y03777D01*
X03895*
X03903D02*
X03911D01*
X03907*
Y03802*
X03903Y03798*
X03312Y03863D02*
X03333D01*
X03337Y03867*
Y03875*
X03333Y0388*
X03312*
X03337Y03888D02*
Y03896D01*
Y03892*
X03312*
X03316Y03888*
G54D14*
X03855Y03716D02*
X03894D01*
X03855Y03753D02*
X03894D01*
X03741Y03565D02*
Y03604D01*
X03778Y03565D02*
Y03604D01*
X03785Y03716D02*
X03824D01*
X03785Y03753D02*
X03824D01*
X03315Y03771D02*
X03354D01*
X03315Y03808D02*
X03354D01*
X03531Y04164D02*
Y04204D01*
X03568Y04164D02*
Y04204D01*
X038Y03575D02*
X03839D01*
X038Y03537D02*
X03839D01*
X03866Y036D02*
Y03639D01*
X03904Y036D02*
Y03639D01*
X03855Y037D02*
X03894D01*
X03855Y03662D02*
X03894D01*
X03599Y0357D02*
X0362D01*
X03599Y03669D02*
X0362D01*
X03591Y04168D02*
X03601D01*
X03591Y04129D02*
Y04168D01*
Y0405D02*
Y04089D01*
Y0405D02*
X03601D01*
X03758D02*
X03768D01*
Y04089*
X03758Y04168D02*
X03768D01*
Y04129D02*
Y04168D01*
X03425Y04041D02*
Y04047D01*
Y04084D02*
Y04091D01*
X03504Y04084D02*
Y04091D01*
Y04041D02*
Y04047D01*
X03351Y0417D02*
Y04209D01*
X03388Y0417D02*
Y04209D01*
X03573Y0398D02*
Y04019D01*
X03536Y0398D02*
Y04019D01*
X03513Y0391D02*
Y03949D01*
X03476Y0391D02*
Y03949D01*
X03693Y0398D02*
Y04019D01*
X03656Y0398D02*
Y04019D01*
X03696Y03565D02*
Y03604D01*
X03733Y03565D02*
Y03604D01*
X03696Y03633D02*
Y03672D01*
X03733Y03633D02*
Y03672D01*
X0379Y03896D02*
X03829D01*
X0379Y03933D02*
X03829D01*
X02945Y04121D02*
X02984D01*
X02945Y04158D02*
X02984D01*
X03122Y03515D02*
Y03634D01*
X03257Y03515D02*
Y03634D01*
X03426Y0353D02*
Y03569D01*
X03464Y0353D02*
Y03569D01*
X0338Y03471D02*
X03419D01*
X0338Y03508D02*
X03419D01*
X03166Y0418D02*
Y04219D01*
X03203Y0418D02*
Y04219D01*
X03166Y0411D02*
Y04149D01*
X03203Y0411D02*
Y04149D01*
X03768Y0398D02*
Y04019D01*
X03731Y0398D02*
Y04019D01*
X03695Y04228D02*
X03734D01*
X03695Y04191D02*
X03734D01*
X03623Y0398D02*
Y04019D01*
X03586Y0398D02*
Y04019D01*
X03635Y03506D02*
X03674D01*
X03635Y03543D02*
X03674D01*
X03545D02*
X03584D01*
X03545Y03506D02*
X03584D01*
X0379Y03888D02*
X03829D01*
X0379Y03851D02*
X03829D01*
X03785Y037D02*
X03824D01*
X03785Y03662D02*
X03824D01*
X02937Y03603D02*
X02976D01*
X02937Y03566D02*
X02976D01*
X03731Y03741D02*
X03743D01*
Y03753*
Y03926D02*
Y03938D01*
X03731D02*
X03743D01*
X03546D02*
X03558D01*
X03546Y03926D02*
Y03938D01*
Y03741D02*
Y03753D01*
Y03741D02*
X03558D01*
X03325Y03715D02*
Y03754D01*
X03363Y03715D02*
Y03754D01*
X03308Y03715D02*
Y03754D01*
X03271Y03715D02*
Y03754D01*
X03253Y03715D02*
Y03754D01*
X03216Y03715D02*
Y03754D01*
X03379Y03702D02*
Y03807D01*
X03429*
Y03702D02*
Y03807D01*
X03379Y03702D02*
X03429D01*
X03389Y0375D02*
X03419D01*
X03411Y03755D02*
X03419Y0375D01*
X03404Y0376D02*
X03411Y03755D01*
X03396D02*
X03404Y0376D01*
X03389Y0375D02*
X03396Y03755D01*
X03411*
X03198Y03715D02*
Y03754D01*
X03161Y03715D02*
Y03754D01*
X03213Y04138D02*
Y04201D01*
X03336Y04138D02*
Y04201D01*
X03351Y041D02*
Y04139D01*
X03388Y041D02*
Y04139D01*
X03313Y03944D02*
Y03928D01*
X03316Y03925*
X03323*
X03326Y03928*
Y03944*
X03333Y03928D02*
X03336Y03925D01*
X03343*
X03346Y03928*
Y03941*
X03343Y03944*
X03336*
X03333Y03941*
Y03938*
X03336Y03935*
X03346*
G54D15*
X02949Y0316D02*
Y03181D01*
X02964*
X02959Y03171*
Y03165*
X02964Y0316*
X02975*
X0298Y03165*
Y03176*
X02975Y03181*
X02949Y0315D02*
X0297D01*
X0298Y03139*
X0297Y03129*
X02949*
X03033Y03306D02*
X0306D01*
X03065Y03301*
Y0329*
X0306Y03285*
X03033*
X03039Y03254D02*
X03033Y03259D01*
Y03269*
X03039Y03275*
X03044*
X03049Y03269*
Y03259*
X03054Y03254*
X0306*
X03065Y03259*
Y03269*
X0306Y03275*
X03033Y03243D02*
X03065D01*
Y03227*
X0306Y03222*
X03054*
X03049Y03227*
Y03243*
Y03227*
X03044Y03222*
X03039*
X03033Y03227*
Y03243*
X0307Y03212D02*
Y03191D01*
X03033Y0318D02*
X03065D01*
Y03164*
X0306Y03159*
X03039*
X03033Y03164*
Y0318*
X03065Y03149D02*
X03033D01*
X03044Y03138*
X03033Y03128*
X03065*
X03118Y03306D02*
X03145D01*
X0315Y03301*
Y0329*
X03145Y03285*
X03118*
X03124Y03254D02*
X03118Y03259D01*
Y03269*
X03124Y03275*
X03129*
X03134Y03269*
Y03259*
X03139Y03254*
X03145*
X0315Y03259*
Y03269*
X03145Y03275*
X03118Y03243D02*
X0315D01*
Y03227*
X03145Y03222*
X03139*
X03134Y03227*
Y03243*
Y03227*
X03129Y03222*
X03124*
X03118Y03227*
Y03243*
X03155Y03212D02*
Y03191D01*
X03118Y0318D02*
X0315D01*
Y03164*
X03145Y03159*
X03124*
X03118Y03164*
Y0318*
X0315Y03149D02*
X03118D01*
Y03133*
X03124Y03128*
X03134*
X03139Y03133*
Y03149*
X03199Y0319D02*
X03194Y03195D01*
Y03206*
X03199Y03211*
X0322*
X03225Y03206*
Y03195*
X0322Y0319*
X03209*
Y03201*
X03225Y0318D02*
X03194D01*
X03225Y03159*
X03194*
Y03148D02*
X03225D01*
Y03132*
X0322Y03127*
X03199*
X03194Y03132*
Y03148*
X03273Y03366D02*
X033D01*
X03305Y03361*
Y0335*
X033Y03345*
X03273*
X03305Y03335D02*
X03284D01*
X03273Y03324*
X03284Y03314*
X03305*
X03289*
Y03335*
X03305Y03303D02*
X03273D01*
Y03287*
X03279Y03282*
X03289*
X03294Y03287*
Y03303*
Y03293D02*
X03305Y03282D01*
X03273Y03272D02*
Y03251D01*
Y03261*
X03305*
X03279Y0324D02*
X03273Y03235D01*
Y03224*
X03279Y03219*
X03284*
X03289Y03224*
Y0323*
Y03224*
X03294Y03219*
X033*
X03305Y03224*
Y03235*
X033Y0324*
X0331Y03209D02*
Y03188D01*
X03273Y03177D02*
Y03156D01*
Y03167*
X03305*
X03273Y03146D02*
X03305Y03125D01*
X03273D02*
X03305Y03146D01*
X03348Y03366D02*
X03375D01*
X0338Y03361*
Y0335*
X03375Y03345*
X03348*
X0338Y03335D02*
X03359D01*
X03348Y03324*
X03359Y03314*
X0338*
X03364*
Y03335*
X0338Y03303D02*
X03348D01*
Y03287*
X03354Y03282*
X03364*
X03369Y03287*
Y03303*
Y03293D02*
X0338Y03282D01*
X03348Y03272D02*
Y03251D01*
Y03261*
X0338*
X03354Y0324D02*
X03348Y03235D01*
Y03224*
X03354Y03219*
X03359*
X03364Y03224*
Y0323*
Y03224*
X03369Y03219*
X03375*
X0338Y03224*
Y03235*
X03375Y0324*
X03385Y03209D02*
Y03188D01*
X0338Y03177D02*
X03348D01*
Y03161*
X03354Y03156*
X03364*
X03369Y03161*
Y03177*
Y03167D02*
X0338Y03156D01*
X03348Y03146D02*
X0338Y03125D01*
X03348D02*
X0338Y03146D01*
X03434Y0339D02*
X03428Y03395D01*
Y03406*
X03434Y03411*
X03455*
X0346Y03406*
Y03395*
X03455Y0339*
X03444*
Y03401*
X0346Y0338D02*
X03428D01*
Y03364*
X03434Y03359*
X03444*
X03449Y03364*
Y0338*
X03428Y03348D02*
Y03338D01*
Y03343*
X0346*
Y03348*
Y03338*
X03428Y03306D02*
Y03317D01*
X03434Y03322*
X03455*
X0346Y03317*
Y03306*
X03455Y03301*
X03434*
X03428Y03306*
X0346Y03269D02*
Y0329D01*
X03439Y03269*
X03434*
X03428Y03275*
Y03285*
X03434Y0329*
X03465Y03259D02*
Y03238D01*
X03428Y03227D02*
Y03217D01*
Y03222*
X0346*
Y03227*
Y03217*
X03428Y03185D02*
Y03196D01*
X03434Y03201*
X03455*
X0346Y03196*
Y03185*
X03455Y0318*
X03434*
X03428Y03185*
X0346Y0317D02*
Y03159D01*
Y03164*
X03428*
X03434Y0317*
X0346Y03122D02*
Y03143D01*
X03439Y03122*
X03434*
X03428Y03128*
Y03138*
X03434Y03143*
X03508Y03356D02*
Y03346D01*
Y03351*
X0354*
Y03356*
Y03346*
Y03309D02*
Y0333D01*
X03519Y03309*
X03514*
X03508Y03314*
Y03325*
X03514Y0333*
Y03277D02*
X03508Y03283D01*
Y03293*
X03514Y03298*
X03535*
X0354Y03293*
Y03283*
X03535Y03277*
X0354Y03246D02*
Y03267D01*
X03519Y03246*
X03514*
X03508Y03251*
Y03262*
X03514Y03267*
X03545Y03235D02*
Y03214D01*
X03514Y03183D02*
X03508Y03188D01*
Y03199*
X03514Y03204*
X03519*
X03524Y03199*
Y03188*
X03529Y03183*
X03535*
X0354Y03188*
Y03199*
X03535Y03204*
X03514Y03151D02*
X03508Y03157D01*
Y03167*
X03514Y03172*
X03535*
X0354Y03167*
Y03157*
X03535Y03151*
X03508Y03141D02*
X0354D01*
Y0312*
X03593Y03356D02*
Y03346D01*
Y03351*
X03625*
Y03356*
Y03346*
Y03309D02*
Y0333D01*
X03604Y03309*
X03599*
X03593Y03314*
Y03325*
X03599Y0333*
Y03277D02*
X03593Y03283D01*
Y03293*
X03599Y03298*
X0362*
X03625Y03293*
Y03283*
X0362Y03277*
X03625Y03246D02*
Y03267D01*
X03604Y03246*
X03599*
X03593Y03251*
Y03262*
X03599Y03267*
X0363Y03235D02*
Y03214D01*
X03599Y03183D02*
X03593Y03188D01*
Y03199*
X03599Y03204*
X03604*
X03609Y03199*
Y03188*
X03614Y03183*
X0362*
X03625Y03188*
Y03199*
X0362Y03204*
X03593Y03172D02*
X03625D01*
Y03157*
X0362Y03151*
X03599*
X03593Y03157*
Y03172*
X03625Y03141D02*
X03604D01*
X03593Y0313*
X03604Y0312*
X03625*
X03609*
Y03141*
X03674Y03206D02*
X03669Y03201D01*
Y0319*
X03674Y03185*
X03679*
X03684Y0319*
Y03196*
Y0319*
X0369Y03185*
X03695*
X037Y0319*
Y03201*
X03695Y03206*
X03679Y03175D02*
X037Y03164D01*
X03679Y03154*
X03674Y03143D02*
X03669Y03138D01*
Y03127*
X03674Y03122*
X03679*
X03684Y03127*
Y03133*
Y03127*
X0369Y03122*
X03695*
X037Y03127*
Y03138*
X03695Y03143*
X03881Y03208D02*
X03876Y03203D01*
Y03193*
X03881Y03187*
X03886*
X03891Y03193*
Y03198*
Y03193*
X03897Y03187*
X03902*
X03907Y03193*
Y03203*
X03902Y03208*
X03886Y03177D02*
X03907Y03166D01*
X03886Y03156*
X03881Y03145D02*
X03876Y0314D01*
Y0313*
X03881Y03124*
X03886*
X03891Y0313*
Y03135*
Y0313*
X03897Y03124*
X03902*
X03907Y0313*
Y0314*
X03902Y03145*
X03955Y03361D02*
Y03351D01*
Y03356*
X03986*
Y03361*
Y03351*
Y03314D02*
Y03335D01*
X03965Y03314*
X0396*
X03955Y03319*
Y0333*
X0396Y03335*
Y03282D02*
X03955Y03288D01*
Y03298*
X0396Y03303*
X03981*
X03986Y03298*
Y03288*
X03981Y03282*
X03986Y03256D02*
X03955D01*
X03971Y03272*
Y03251*
X03992Y0324D02*
Y03219D01*
X0396Y03188D02*
X03955Y03193D01*
Y03204*
X0396Y03209*
X03965*
X03971Y03204*
Y03193*
X03976Y03188*
X03981*
X03986Y03193*
Y03204*
X03981Y03209*
X03955Y03177D02*
X03986D01*
Y03162*
X03981Y03156*
X0396*
X03955Y03162*
Y03177*
X03986Y03146D02*
X03965D01*
X03955Y03135*
X03965Y03125*
X03986*
X03971*
Y03146*
X04035Y03356D02*
Y03346D01*
Y03351*
X04066*
Y03356*
Y03346*
Y03309D02*
Y0333D01*
X04045Y03309*
X0404*
X04035Y03314*
Y03325*
X0404Y0333*
Y03277D02*
X04035Y03283D01*
Y03293*
X0404Y03298*
X04061*
X04066Y03293*
Y03283*
X04061Y03277*
X04066Y03251D02*
X04035D01*
X04051Y03267*
Y03246*
X04072Y03235D02*
Y03214D01*
X0404Y03183D02*
X04035Y03188D01*
Y03199*
X0404Y03204*
X04045*
X04051Y03199*
Y03188*
X04056Y03183*
X04061*
X04066Y03188*
Y03199*
X04061Y03204*
X0404Y03151D02*
X04035Y03157D01*
Y03167*
X0404Y03172*
X04061*
X04066Y03167*
Y03157*
X04061Y03151*
X04035Y03141D02*
X04066D01*
Y0312*
X04115Y0339D02*
X0411Y03395D01*
Y03406*
X04115Y03411*
X04136*
X04141Y03406*
Y03395*
X04136Y0339*
X04126*
Y03401*
X04141Y0338D02*
X0411D01*
Y03364*
X04115Y03359*
X04126*
X04131Y03364*
Y0338*
X0411Y03348D02*
Y03338D01*
Y03343*
X04141*
Y03348*
Y03338*
X0411Y03306D02*
Y03317D01*
X04115Y03322*
X04136*
X04141Y03317*
Y03306*
X04136Y03301*
X04115*
X0411Y03306*
X04141Y03269D02*
Y0329D01*
X0412Y03269*
X04115*
X0411Y03275*
Y03285*
X04115Y0329*
X04147Y03259D02*
Y03238D01*
X0411Y03227D02*
Y03217D01*
Y03222*
X04141*
Y03227*
Y03217*
X0411Y03185D02*
Y03196D01*
X04115Y03201*
X04136*
X04141Y03196*
Y03185*
X04136Y0318*
X04115*
X0411Y03185*
X04141Y0317D02*
Y03159D01*
Y03164*
X0411*
X04115Y0317*
X04141Y03122D02*
Y03143D01*
X0412Y03122*
X04115*
X0411Y03128*
Y03138*
X04115Y03143*
X04191Y03363D02*
X04217D01*
X04222Y03358*
Y03348*
X04217Y03342*
X04191*
X04222Y03332D02*
X04201D01*
X04191Y03321*
X04201Y03311*
X04222*
X04206*
Y03332*
X04222Y033D02*
X04191D01*
Y03285*
X04196Y03279*
X04206*
X04212Y03285*
Y033*
Y0329D02*
X04222Y03279D01*
X04191Y03269D02*
Y03248D01*
Y03258*
X04222*
Y03222D02*
X04191D01*
X04206Y03237*
Y03217*
X04227Y03206D02*
Y03185D01*
X04222Y03175D02*
X04191D01*
Y03159*
X04196Y03154*
X04206*
X04212Y03159*
Y03175*
Y03164D02*
X04222Y03154D01*
X04191Y03143D02*
X04222Y03122D01*
X04191D02*
X04222Y03143D01*
X04276Y03368D02*
X04302D01*
X04307Y03363*
Y03353*
X04302Y03347*
X04276*
X04307Y03337D02*
X04286D01*
X04276Y03326*
X04286Y03316*
X04307*
X04291*
Y03337*
X04307Y03305D02*
X04276D01*
Y0329*
X04281Y03284*
X04291*
X04297Y0329*
Y03305*
Y03295D02*
X04307Y03284D01*
X04276Y03274D02*
Y03253D01*
Y03263*
X04307*
Y03227D02*
X04276D01*
X04291Y03242*
Y03222*
X04312Y03211D02*
Y0319D01*
X04276Y0318D02*
Y03159D01*
Y03169*
X04307*
X04276Y03148D02*
X04307Y03127D01*
X04276D02*
X04307Y03148D01*
X04361Y03187D02*
X04356Y03193D01*
Y03203*
X04361Y03208*
X04382*
X04387Y03203*
Y03193*
X04382Y03187*
X04371*
Y03198*
X04387Y03177D02*
X04356D01*
X04387Y03156*
X04356*
Y03145D02*
X04387D01*
Y0313*
X04382Y03124*
X04361*
X04356Y0313*
Y03145*
X04521Y03317D02*
X04516Y03323D01*
Y03333*
X04521Y03338*
X04526*
X04531Y03333*
Y03323*
X04537Y03317*
X04542*
X04547Y03323*
Y03333*
X04542Y03338*
X04516Y03291D02*
Y03302D01*
X04521Y03307*
X04542*
X04547Y03302*
Y03291*
X04542Y03286*
X04521*
X04516Y03291*
X04547Y03275D02*
X04516D01*
X04526Y03265*
X04516Y03254*
X04547*
X04552Y03244D02*
Y03223D01*
X04547Y03212D02*
X04516D01*
Y03197*
X04521Y03192*
X04531*
X04537Y03197*
Y03212*
Y03202D02*
X04547Y03192D01*
X04521Y0316D02*
X04516Y03165D01*
Y03176*
X04521Y03181*
X04526*
X04531Y03176*
Y03165*
X04537Y0316*
X04542*
X04547Y03165*
Y03176*
X04542Y03181*
X04516Y0315D02*
Y03129D01*
Y03139*
X04547*
X04606Y03157D02*
Y03178D01*
X04621*
X04616Y03168*
Y03163*
X04621Y03157*
X04632*
X04637Y03163*
Y03173*
X04632Y03178*
X04606Y03147D02*
X04627D01*
X04637Y03136*
X04627Y03126*
X04606*
X04557Y02891D02*
X0454D01*
X04532Y02883*
X0454Y02874*
X04557*
X04544*
Y02891*
X04532Y02866D02*
X04557D01*
Y02854*
X04552Y02849*
X04536*
X04532Y02854*
Y02866*
X04536Y02824D02*
X04532Y02829D01*
Y02837*
X04536Y02841*
X04552*
X04557Y02837*
Y02829*
X04552Y02824*
X04536Y02816D02*
X04532Y02812D01*
Y02804*
X04536Y02799*
X0454*
X04544Y02804*
Y02808*
Y02804*
X04548Y02799*
X04552*
X04557Y02804*
Y02812*
X04552Y02816*
X04472Y02871D02*
X04447D01*
Y02859*
X04451Y02854*
X04459*
X04463Y02859*
Y02871*
X04447Y02846D02*
X04472D01*
X04463Y02838*
X04472Y02829*
X04447*
X04472Y02821D02*
X04447D01*
X04455Y02813*
X04447Y02804*
X04472*
Y02779D02*
Y02796D01*
X04455Y02779*
X04451*
X04447Y02784*
Y02792*
X04451Y02796*
X04372Y02859D02*
X04367Y02864D01*
Y02872*
X04372Y02876*
X04388*
X04392Y02872*
Y02864*
X04388Y02859*
X0438*
Y02868*
X04392Y02851D02*
X04367D01*
Y02839*
X04372Y02834*
X0438*
X04384Y02839*
Y02851*
X04367Y02826D02*
Y02818D01*
Y02822*
X04392*
Y02826*
Y02818*
X04367Y02793D02*
Y02801D01*
X04372Y02805*
X04388*
X04392Y02801*
Y02793*
X04388Y02789*
X04372*
X04367Y02793*
X04392Y02764D02*
Y0278D01*
X04376Y02764*
X04372*
X04367Y02768*
Y02776*
X04372Y0278*
X04397Y02755D02*
Y02739D01*
X04367Y0273D02*
Y02722D01*
Y02726*
X04392*
Y0273*
Y02722*
X04367Y02697D02*
Y02705D01*
X04372Y02709*
X04388*
X04392Y02705*
Y02697*
X04388Y02693*
X04372*
X04367Y02697*
X04392Y02684D02*
Y02676D01*
Y0268*
X04367*
X04372Y02684*
Y02664D02*
X04367Y02659D01*
Y02651*
X04372Y02647*
X04376*
X0438Y02651*
Y02655*
Y02651*
X04384Y02647*
X04388*
X04392Y02651*
Y02659*
X04388Y02664*
X04297Y02864D02*
X04292Y02869D01*
Y02877*
X04297Y02881*
X04313*
X04317Y02877*
Y02869*
X04313Y02864*
X04305*
Y02873*
X04317Y02856D02*
X04292D01*
Y02844*
X04297Y02839*
X04305*
X04309Y02844*
Y02856*
X04292Y02831D02*
Y02823D01*
Y02827*
X04317*
Y02831*
Y02823*
X04292Y02798D02*
Y02806D01*
X04297Y0281*
X04313*
X04317Y02806*
Y02798*
X04313Y02794*
X04297*
X04292Y02798*
X04317Y02769D02*
Y02785D01*
X04301Y02769*
X04297*
X04292Y02773*
Y02781*
X04297Y02785*
X04322Y0276D02*
Y02744D01*
X04292Y02735D02*
Y02727D01*
Y02731*
X04317*
Y02735*
Y02727*
X04292Y02702D02*
Y0271D01*
X04297Y02714*
X04313*
X04317Y0271*
Y02702*
X04313Y02698*
X04297*
X04292Y02702*
X04317Y02689D02*
Y02681D01*
Y02685*
X04292*
X04297Y02689*
X04317Y02656D02*
X04292D01*
X04305Y02669*
Y02652*
X04212Y02869D02*
Y02886D01*
X04237*
Y02869*
X04225Y02886D02*
Y02878D01*
X04217Y02844D02*
X04212Y02849D01*
Y02857*
X04217Y02861*
X04221*
X04225Y02857*
Y02849*
X04229Y02844*
X04233*
X04237Y02849*
Y02857*
X04233Y02861*
X04237Y02836D02*
X04212D01*
Y02824*
X04217Y02819*
X04225*
X04229Y02824*
Y02836*
X04212Y02811D02*
Y02803D01*
Y02807*
X04237*
Y02811*
Y02803*
Y02774D02*
Y0279D01*
X04221Y02774*
X04217*
X04212Y02778*
Y02786*
X04217Y0279*
X04242Y02765D02*
Y02749D01*
X04217Y02724D02*
X04212Y02728D01*
Y02736*
X04217Y0274*
X04221*
X04225Y02736*
Y02728*
X04229Y02724*
X04233*
X04237Y02728*
Y02736*
X04233Y0274*
X04217Y02699D02*
X04212Y02703D01*
Y02711*
X04217Y02715*
X04221*
X04225Y02711*
Y02703*
X04229Y02699*
X04233*
X04237Y02703*
Y02711*
X04233Y02715*
X04217Y0269D02*
X04212Y02686D01*
Y02678*
X04217Y02674*
X04233*
X04237Y02678*
Y02686*
X04233Y0269*
X04217*
X04132Y02864D02*
Y02881D01*
X04157*
Y02864*
X04145Y02881D02*
Y02873D01*
X04137Y02839D02*
X04132Y02844D01*
Y02852*
X04137Y02856*
X04141*
X04145Y02852*
Y02844*
X04149Y02839*
X04153*
X04157Y02844*
Y02852*
X04153Y02856*
X04157Y02831D02*
X04132D01*
Y02819*
X04137Y02814*
X04145*
X04149Y02819*
Y02831*
X04132Y02806D02*
Y02798D01*
Y02802*
X04157*
Y02806*
Y02798*
Y02769D02*
Y02785D01*
X04141Y02769*
X04137*
X04132Y02773*
Y02781*
X04137Y02785*
X04162Y0276D02*
Y02744D01*
X04137Y02719D02*
X04132Y02723D01*
Y02731*
X04137Y02735*
X04141*
X04145Y02731*
Y02723*
X04149Y02719*
X04153*
X04157Y02723*
Y02731*
X04153Y02735*
X04137Y02694D02*
X04132Y02698D01*
Y02706*
X04137Y0271*
X04153*
X04157Y02706*
Y02698*
X04153Y02694*
X04132Y02685D02*
X04157D01*
Y02669*
X04132Y0266D02*
X04157D01*
X04149*
X04132Y02644*
X04145Y02656*
X04157Y02644*
X04047Y02869D02*
Y02886D01*
X04072*
Y02869*
X0406Y02886D02*
Y02878D01*
X04052Y02844D02*
X04047Y02849D01*
Y02857*
X04052Y02861*
X04056*
X0406Y02857*
Y02849*
X04064Y02844*
X04068*
X04072Y02849*
Y02857*
X04068Y02861*
X04072Y02836D02*
X04047D01*
Y02824*
X04052Y02819*
X0406*
X04064Y02824*
Y02836*
X04047Y02811D02*
Y02803D01*
Y02807*
X04072*
Y02811*
Y02803*
Y02774D02*
Y0279D01*
X04056Y02774*
X04052*
X04047Y02778*
Y02786*
X04052Y0279*
X04077Y02765D02*
Y02749D01*
X04072Y0274D02*
X04047D01*
X04056Y02732*
X04047Y02724*
X04072*
X04047Y02715D02*
Y02707D01*
Y02711*
X04072*
Y02715*
Y02707*
X04052Y02678D02*
X04047Y02682D01*
Y0269*
X04052Y02694*
X04056*
X0406Y0269*
Y02682*
X04064Y02678*
X04068*
X04072Y02682*
Y0269*
X04068Y02694*
X04047Y02657D02*
Y02665D01*
X04052Y02669*
X04068*
X04072Y02665*
Y02657*
X04068Y02653*
X04052*
X04047Y02657*
X03972Y02869D02*
Y02886D01*
X03997*
Y02869*
X03985Y02886D02*
Y02878D01*
X03977Y02844D02*
X03972Y02849D01*
Y02857*
X03977Y02861*
X03981*
X03985Y02857*
Y02849*
X03989Y02844*
X03993*
X03997Y02849*
Y02857*
X03993Y02861*
X03997Y02836D02*
X03972D01*
Y02824*
X03977Y02819*
X03985*
X03989Y02824*
Y02836*
X03972Y02811D02*
Y02803D01*
Y02807*
X03997*
Y02811*
Y02803*
Y02774D02*
Y0279D01*
X03981Y02774*
X03977*
X03972Y02778*
Y02786*
X03977Y0279*
X04002Y02765D02*
Y02749D01*
X03997Y0274D02*
X03972D01*
X03981Y02732*
X03972Y02724*
X03997*
X03972Y02703D02*
Y02711D01*
X03977Y02715*
X03993*
X03997Y02711*
Y02703*
X03993Y02699*
X03977*
X03972Y02703*
X03977Y02674D02*
X03972Y02678D01*
Y02686*
X03977Y0269*
X03981*
X03985Y02686*
Y02678*
X03989Y02674*
X03993*
X03997Y02678*
Y02686*
X03993Y0269*
X03972Y02665D02*
Y02657D01*
Y02661*
X03997*
Y02665*
Y02657*
X03897Y02869D02*
X03892Y02874D01*
Y02882*
X03897Y02886*
X03913*
X03917Y02882*
Y02874*
X03913Y02869*
X03905*
Y02878*
X03917Y02861D02*
X03892D01*
Y02849*
X03897Y02844*
X03905*
X03909Y02849*
Y02861*
X03892Y02836D02*
Y02828D01*
Y02832*
X03917*
Y02836*
Y02828*
X03892Y02803D02*
Y02811D01*
X03897Y02815*
X03913*
X03917Y02811*
Y02803*
X03913Y02799*
X03897*
X03892Y02803*
X03917Y0279D02*
Y02782D01*
Y02786*
X03892*
X03897Y0279*
X03922Y02769D02*
Y02753D01*
X03892Y02744D02*
Y02736D01*
Y0274*
X03917*
Y02744*
Y02736*
X03892Y02711D02*
Y02719D01*
X03897Y02724*
X03913*
X03917Y02719*
Y02711*
X03913Y02707*
X03897*
X03892Y02711*
X03917Y02699D02*
Y0269D01*
Y02694*
X03892*
X03897Y02699*
Y02678D02*
X03892Y02674D01*
Y02665*
X03897Y02661*
X03901*
X03905Y02665*
Y02669*
Y02665*
X03909Y02661*
X03913*
X03917Y02665*
Y02674*
X03913Y02678*
X04467Y03208D02*
X04436D01*
Y03193*
X04441Y03187*
X04451*
X04457Y03193*
Y03208*
Y03198D02*
X04467Y03187D01*
X04436Y03177D02*
Y03156D01*
Y03166*
X04467*
X04441Y03124D02*
X04436Y0313D01*
Y0314*
X04441Y03145*
X04462*
X04467Y0314*
Y0313*
X04462Y03124*
X0344Y0415D02*
X03464D01*
X03469Y04155*
Y04165*
X03464Y0417*
X0344*
Y04199D02*
X03445Y04189D01*
X03455Y0418*
X03464*
X03469Y04184*
Y04194*
X03464Y04199*
X0346*
X03455Y04194*
Y0418*
X03115Y04289D02*
X0311Y04294D01*
X031*
X03095Y04289*
Y04285*
X031Y0428*
X0311*
X03115Y04275*
Y0427*
X0311Y04265*
X031*
X03095Y0427*
X03144Y04265D02*
X03125D01*
X03144Y04285*
Y04289*
X03139Y04294*
X03129*
X03125Y04289*
X03285Y03664D02*
Y0364D01*
X0329Y03635*
X033*
X03305Y0364*
Y03664*
X03315Y03659D02*
X03319Y03664D01*
X03329*
X03334Y03659*
Y03655*
X03329Y0365*
X03334Y03645*
Y0364*
X03329Y03635*
X03319*
X03315Y0364*
Y03645*
X03319Y0365*
X03315Y03655*
Y03659*
X03319Y0365D02*
X03329D01*
X0327Y03555D02*
X03294D01*
X03299Y0356*
Y0357*
X03294Y03575*
X0327*
Y03585D02*
Y03604D01*
X03275*
X03294Y03585*
X03299*
X0286Y03415D02*
X02855Y0341D01*
Y034*
X0286Y03395*
X02865*
X0287Y034*
Y0341*
X02875Y03415*
X02879*
X02884Y0341*
Y034*
X02879Y03395*
X02884Y03424D02*
Y03434D01*
Y03429*
X02855*
X0286Y03424*
X03545Y0345D02*
X0355D01*
X0356Y0346*
X0355Y0347*
X03545*
X0356Y0346D02*
X03574D01*
Y03479D02*
Y03489D01*
Y03484*
X03545*
X0355Y03479*
X03509Y03769D02*
X03485D01*
X0348Y03764*
Y03754*
X03485Y0375*
X03509*
X03504Y0374D02*
X03509Y03735D01*
Y03725*
X03504Y0372*
X035*
X03495Y03725*
Y0373*
Y03725*
X0349Y0372*
X03485*
X0348Y03725*
Y03735*
X03485Y0374*
G54D16*
X03275Y0379D02*
Y03781D01*
X03266*
Y0379*
X03275*
M02*