G04*
G04 #@! TF.GenerationSoftware,Altium Limited,Altium Designer,23.1.1 (15)*
G04*
G04 Layer_Color=2752767*
%FSLAX44Y44*%
%MOMM*%
G71*
G04*
G04 #@! TF.SameCoordinates,834500F6-C2E4-4EAC-996A-B368302F4D9C*
G04*
G04*
G04 #@! TF.FilePolarity,Positive*
G04*
G01*
G75*
%ADD158C,0.0508*%
%ADD159C,0.0677*%
%ADD160C,0.0339*%
D158*
X34718Y365668D02*
X35734Y367700D01*
X34718Y369732D01*
X36750Y368716D01*
X38782Y369732D01*
X37766Y367700D01*
X38782Y365668D01*
X36750Y366684D01*
X34718Y365668D01*
X35734Y366684D02*
X36242Y367700D01*
X35734Y368716D01*
X36750Y368208D01*
X37766Y368716D01*
X37258Y367700D01*
X37766Y366684D01*
X36750Y367192D01*
X35734Y366684D01*
X34718Y340668D02*
X35734Y342700D01*
X34718Y344732D01*
X36750Y343716D01*
X38782Y344732D01*
X37766Y342700D01*
X38782Y340668D01*
X36750Y341684D01*
X34718Y340668D01*
X35734Y341684D02*
X36242Y342700D01*
X35734Y343716D01*
X36750Y343208D01*
X37766Y343716D01*
X37258Y342700D01*
X37766Y341684D01*
X36750Y342192D01*
X35734Y341684D01*
X34718Y290668D02*
X35734Y292700D01*
X34718Y294732D01*
X36750Y293716D01*
X38782Y294732D01*
X37766Y292700D01*
X38782Y290668D01*
X36750Y291684D01*
X34718Y290668D01*
X35734Y291684D02*
X36242Y292700D01*
X35734Y293716D01*
X36750Y293208D01*
X37766Y293716D01*
X37258Y292700D01*
X37766Y291684D01*
X36750Y292192D01*
X35734Y291684D01*
X34718Y315668D02*
X35734Y317700D01*
X34718Y319732D01*
X36750Y318716D01*
X38782Y319732D01*
X37766Y317700D01*
X38782Y315668D01*
X36750Y316684D01*
X34718Y315668D01*
X35734Y316684D02*
X36242Y317700D01*
X35734Y318716D01*
X36750Y318208D01*
X37766Y318716D01*
X37258Y317700D01*
X37766Y316684D01*
X36750Y317192D01*
X35734Y316684D01*
X352298Y17272D02*
X353314Y18288D01*
X354330D01*
X353314Y19304D01*
X354330Y20320D01*
X353314D01*
X352298Y21336D01*
X351282Y20320D01*
X350266D01*
X351282Y19304D01*
X350266Y18288D01*
X351282D01*
X352298Y17272D01*
Y18288D02*
X352806Y18796D01*
X353314D01*
X352806Y19304D01*
X353314Y19812D01*
X352806D01*
X352298Y20320D01*
X351790Y19812D01*
X351282D01*
X351790Y19304D01*
X351282Y18796D01*
X351790D01*
X352298Y18288D01*
X377698Y17272D02*
X378714Y18288D01*
X379730D01*
X378714Y19304D01*
X379730Y20320D01*
X378714D01*
X377698Y21336D01*
X376682Y20320D01*
X375666D01*
X376682Y19304D01*
X375666Y18288D01*
X376682D01*
X377698Y17272D01*
Y18288D02*
X378206Y18796D01*
X378714D01*
X378206Y19304D01*
X378714Y19812D01*
X378206D01*
X377698Y20320D01*
X377190Y19812D01*
X376682D01*
X377190Y19304D01*
X376682Y18796D01*
X377190D01*
X377698Y18288D01*
X1058352Y86868D02*
X1059368Y87884D01*
X1060384D01*
X1059368Y88900D01*
X1060384Y89916D01*
X1059368D01*
X1058352Y90932D01*
X1057336Y89916D01*
X1056320D01*
X1057336Y88900D01*
X1056320Y87884D01*
X1057336D01*
X1058352Y86868D01*
X1038352D02*
X1039368Y87884D01*
X1040384D01*
X1039368Y88900D01*
X1040384Y89916D01*
X1039368D01*
X1038352Y90932D01*
X1037336Y89916D01*
X1036320D01*
X1037336Y88900D01*
X1036320Y87884D01*
X1037336D01*
X1038352Y86868D01*
X1018352D02*
X1019368Y87884D01*
X1020384D01*
X1019368Y88900D01*
X1020384Y89916D01*
X1019368D01*
X1018352Y90932D01*
X1017336Y89916D01*
X1016320D01*
X1017336Y88900D01*
X1016320Y87884D01*
X1017336D01*
X1018352Y86868D01*
X998352D02*
X999368Y87884D01*
X1000384D01*
X999368Y88900D01*
X1000384Y89916D01*
X999368D01*
X998352Y90932D01*
X997336Y89916D01*
X996320D01*
X997336Y88900D01*
X996320Y87884D01*
X997336D01*
X998352Y86868D01*
X1287780Y282956D02*
Y287020D01*
X1291844D01*
Y282956D01*
X1287780D01*
X1288796Y283972D02*
Y286004D01*
X1290828D01*
Y283972D01*
X1288796D01*
X1287780Y257556D02*
Y261620D01*
X1291844D01*
Y257556D01*
X1287780D01*
X1288796Y258572D02*
Y260604D01*
X1290828D01*
Y258572D01*
X1288796D01*
X1287780Y232156D02*
Y236220D01*
X1291844D01*
Y232156D01*
X1287780D01*
X1288796Y233172D02*
Y235204D01*
X1290828D01*
Y233172D01*
X1288796D01*
X1287780Y206756D02*
Y210820D01*
X1291844D01*
Y206756D01*
X1287780D01*
X1288796Y207772D02*
Y209804D01*
X1290828D01*
Y207772D01*
X1288796D01*
X1363980Y206756D02*
Y210820D01*
X1368044D01*
Y206756D01*
X1363980D01*
X1364996Y207772D02*
Y209804D01*
X1367028D01*
Y207772D01*
X1364996D01*
X1363980Y232156D02*
Y236220D01*
X1368044D01*
Y232156D01*
X1363980D01*
X1364996Y233172D02*
Y235204D01*
X1367028D01*
Y233172D01*
X1364996D01*
X1363980Y257556D02*
Y261620D01*
X1368044D01*
Y257556D01*
X1363980D01*
X1364996Y258572D02*
Y260604D01*
X1367028D01*
Y258572D01*
X1364996D01*
X1363980Y282956D02*
Y287020D01*
X1368044D01*
Y282956D01*
X1363980D01*
X1364996Y283972D02*
Y286004D01*
X1367028D01*
Y283972D01*
X1364996D01*
X1216914Y343686D02*
X1218946Y345718D01*
X1220978Y343686D01*
X1218946Y341654D01*
X1216914Y343686D01*
Y383286D02*
X1218946Y385318D01*
X1220978Y383286D01*
X1218946Y381254D01*
X1216914Y383286D01*
X1292006Y446184D02*
X1293022D01*
X1294038Y447200D01*
X1295054Y446184D01*
X1296070D01*
Y447200D01*
X1295054Y448216D01*
X1296070Y449232D01*
Y450248D01*
X1295054D01*
X1294038Y449232D01*
X1293022Y450248D01*
X1292006D01*
Y449232D01*
X1293022Y448216D01*
X1292006Y447200D01*
Y446184D01*
X1217006Y466184D02*
X1218022D01*
X1219038Y467200D01*
X1220054Y466184D01*
X1221070D01*
Y467200D01*
X1220054Y468216D01*
X1221070Y469232D01*
Y470248D01*
X1220054D01*
X1219038Y469232D01*
X1218022Y470248D01*
X1217006D01*
Y469232D01*
X1218022Y468216D01*
X1217006Y467200D01*
Y466184D01*
X1169054Y30480D02*
X1170070Y31496D01*
X1171086D01*
X1170070Y32512D01*
X1171086Y33528D01*
X1170070D01*
X1169054Y34544D01*
X1168038Y33528D01*
X1167022D01*
X1168038Y32512D01*
X1167022Y31496D01*
X1168038D01*
X1169054Y30480D01*
X1194054D02*
X1195070Y31496D01*
X1196086D01*
X1195070Y32512D01*
X1196086Y33528D01*
X1195070D01*
X1194054Y34544D01*
X1193038Y33528D01*
X1192022D01*
X1193038Y32512D01*
X1192022Y31496D01*
X1193038D01*
X1194054Y30480D01*
X943864Y25400D02*
X944880Y26416D01*
X945896D01*
X944880Y27432D01*
X945896Y28448D01*
X944880D01*
X943864Y29464D01*
X942848Y28448D01*
X941832D01*
X942848Y27432D01*
X941832Y26416D01*
X942848D01*
X943864Y25400D01*
Y26416D02*
X944372Y26924D01*
X944880D01*
X944372Y27432D01*
X944880Y27940D01*
X944372D01*
X943864Y28448D01*
X943356Y27940D01*
X942848D01*
X943356Y27432D01*
X942848Y26924D01*
X943356D01*
X943864Y26416D01*
X918464Y25400D02*
X919480Y26416D01*
X920496D01*
X919480Y27432D01*
X920496Y28448D01*
X919480D01*
X918464Y29464D01*
X917448Y28448D01*
X916432D01*
X917448Y27432D01*
X916432Y26416D01*
X917448D01*
X918464Y25400D01*
Y26416D02*
X918972Y26924D01*
X919480D01*
X918972Y27432D01*
X919480Y27940D01*
X918972D01*
X918464Y28448D01*
X917956Y27940D01*
X917448D01*
X917956Y27432D01*
X917448Y26924D01*
X917956D01*
X918464Y26416D01*
X195834Y17272D02*
X196850Y18288D01*
X197866D01*
X196850Y19304D01*
X197866Y20320D01*
X196850D01*
X195834Y21336D01*
X194818Y20320D01*
X193802D01*
X194818Y19304D01*
X193802Y18288D01*
X194818D01*
X195834Y17272D01*
X221234D02*
X222250Y18288D01*
X223266D01*
X222250Y19304D01*
X223266Y20320D01*
X222250D01*
X221234Y21336D01*
X220218Y20320D01*
X219202D01*
X220218Y19304D01*
X219202Y18288D01*
X220218D01*
X221234Y17272D01*
X246634D02*
X247650Y18288D01*
X248666D01*
X247650Y19304D01*
X248666Y20320D01*
X247650D01*
X246634Y21336D01*
X245618Y20320D01*
X244602D01*
X245618Y19304D01*
X244602Y18288D01*
X245618D01*
X246634Y17272D01*
X272034D02*
X273050Y18288D01*
X274066D01*
X273050Y19304D01*
X274066Y20320D01*
X273050D01*
X272034Y21336D01*
X271018Y20320D01*
X270002D01*
X271018Y19304D01*
X270002Y18288D01*
X271018D01*
X272034Y17272D01*
X297434D02*
X298450Y18288D01*
X299466D01*
X298450Y19304D01*
X299466Y20320D01*
X298450D01*
X297434Y21336D01*
X296418Y20320D01*
X295402D01*
X296418Y19304D01*
X295402Y18288D01*
X296418D01*
X297434Y17272D01*
X322834D02*
X323850Y18288D01*
X324866D01*
X323850Y19304D01*
X324866Y20320D01*
X323850D01*
X322834Y21336D01*
X321818Y20320D01*
X320802D01*
X321818Y19304D01*
X320802Y18288D01*
X321818D01*
X322834Y17272D01*
X1015516Y512318D02*
X1017548Y514350D01*
X1019580Y512318D01*
X1017548Y510286D01*
X1015516Y512318D01*
X1055116D02*
X1057148Y514350D01*
X1059180Y512318D01*
X1057148Y510286D01*
X1055116Y512318D01*
X1248568Y713088D02*
X1249584Y715120D01*
X1248568Y717152D01*
X1250600Y716136D01*
X1252632Y717152D01*
X1251616Y715120D01*
X1252632Y713088D01*
X1250600Y714104D01*
X1248568Y713088D01*
X1369568D02*
X1370584Y715120D01*
X1369568Y717152D01*
X1371600Y716136D01*
X1373632Y717152D01*
X1372616Y715120D01*
X1373632Y713088D01*
X1371600Y714104D01*
X1369568Y713088D01*
X1292584Y705104D02*
Y704088D01*
X1294616D01*
Y705104D01*
X1295632D01*
Y707136D01*
X1294616D01*
Y708152D01*
X1292584D01*
Y707136D01*
X1291568D01*
Y705104D01*
X1292584D01*
X1327584D02*
Y704088D01*
X1329616D01*
Y705104D01*
X1330632D01*
Y707136D01*
X1329616D01*
Y708152D01*
X1327584D01*
Y707136D01*
X1326568D01*
Y705104D01*
X1327584D01*
X1161034D02*
Y704088D01*
X1163066D01*
Y705104D01*
X1164082D01*
Y707136D01*
X1163066D01*
Y708152D01*
X1161034D01*
Y707136D01*
X1160018D01*
Y705104D01*
X1161034D01*
X1126034D02*
Y704088D01*
X1128066D01*
Y705104D01*
X1129082D01*
Y707136D01*
X1128066D01*
Y708152D01*
X1126034D01*
Y707136D01*
X1125018D01*
Y705104D01*
X1126034D01*
X1091034D02*
Y704088D01*
X1093066D01*
Y705104D01*
X1094082D01*
Y707136D01*
X1093066D01*
Y708152D01*
X1091034D01*
Y707136D01*
X1090018D01*
Y705104D01*
X1091034D01*
X1056034D02*
Y704088D01*
X1058066D01*
Y705104D01*
X1059082D01*
Y707136D01*
X1058066D01*
Y708152D01*
X1056034D01*
Y707136D01*
X1055018D01*
Y705104D01*
X1056034D01*
X1021034D02*
Y704088D01*
X1023066D01*
Y705104D01*
X1024082D01*
Y707136D01*
X1023066D01*
Y708152D01*
X1021034D01*
Y707136D01*
X1020018D01*
Y705104D01*
X1021034D01*
X986034D02*
Y704088D01*
X988066D01*
Y705104D01*
X989082D01*
Y707136D01*
X988066D01*
Y708152D01*
X986034D01*
Y707136D01*
X985018D01*
Y705104D01*
X986034D01*
X951034D02*
Y704088D01*
X953066D01*
Y705104D01*
X954082D01*
Y707136D01*
X953066D01*
Y708152D01*
X951034D01*
Y707136D01*
X950018D01*
Y705104D01*
X951034D01*
X916034D02*
Y704088D01*
X918066D01*
Y705104D01*
X919082D01*
Y707136D01*
X918066D01*
Y708152D01*
X916034D01*
Y707136D01*
X915018D01*
Y705104D01*
X916034D01*
X881034D02*
Y704088D01*
X883066D01*
Y705104D01*
X884082D01*
Y707136D01*
X883066D01*
Y708152D01*
X881034D01*
Y707136D01*
X880018D01*
Y705104D01*
X881034D01*
X846034D02*
Y704088D01*
X848066D01*
Y705104D01*
X849082D01*
Y707136D01*
X848066D01*
Y708152D01*
X846034D01*
Y707136D01*
X845018D01*
Y705104D01*
X846034D01*
X811034D02*
Y704088D01*
X813066D01*
Y705104D01*
X814082D01*
Y707136D01*
X813066D01*
Y708152D01*
X811034D01*
Y707136D01*
X810018D01*
Y705104D01*
X811034D01*
X776034D02*
Y704088D01*
X778066D01*
Y705104D01*
X779082D01*
Y707136D01*
X778066D01*
Y708152D01*
X776034D01*
Y707136D01*
X775018D01*
Y705104D01*
X776034D01*
X741034D02*
Y704088D01*
X743066D01*
Y705104D01*
X744082D01*
Y707136D01*
X743066D01*
Y708152D01*
X741034D01*
Y707136D01*
X740018D01*
Y705104D01*
X741034D01*
X706034D02*
Y704088D01*
X708066D01*
Y705104D01*
X709082D01*
Y707136D01*
X708066D01*
Y708152D01*
X706034D01*
Y707136D01*
X705018D01*
Y705104D01*
X706034D01*
X671034D02*
Y704088D01*
X673066D01*
Y705104D01*
X674082D01*
Y707136D01*
X673066D01*
Y708152D01*
X671034D01*
Y707136D01*
X670018D01*
Y705104D01*
X671034D01*
X636034D02*
Y704088D01*
X638066D01*
Y705104D01*
X639082D01*
Y707136D01*
X638066D01*
Y708152D01*
X636034D01*
Y707136D01*
X635018D01*
Y705104D01*
X636034D01*
X332258Y702940D02*
X330226Y707004D01*
X334290D01*
X332258Y702940D01*
X367258D02*
X365226Y707004D01*
X369290D01*
X367258Y702940D01*
X402258D02*
X400226Y707004D01*
X404290D01*
X402258Y702940D01*
X437258D02*
X435226Y707004D01*
X439290D01*
X437258Y702940D01*
X472258D02*
X470226Y707004D01*
X474290D01*
X472258Y702940D01*
X507258D02*
X505226Y707004D01*
X509290D01*
X507258Y702940D01*
X542258D02*
X540226Y707004D01*
X544290D01*
X542258Y702940D01*
X577258D02*
X575226Y707004D01*
X579290D01*
X577258Y702940D01*
X26572D02*
X24540Y707004D01*
X28604D01*
X26572Y702940D01*
X61572D02*
X59540Y707004D01*
X63604D01*
X61572Y702940D01*
X96572D02*
X94540Y707004D01*
X98604D01*
X96572Y702940D01*
X131572D02*
X129540Y707004D01*
X133604D01*
X131572Y702940D01*
X166572D02*
X164540Y707004D01*
X168604D01*
X166572Y702940D01*
X201572D02*
X199540Y707004D01*
X203604D01*
X201572Y702940D01*
X236572D02*
X234540Y707004D01*
X238604D01*
X236572Y702940D01*
X271572D02*
X269540Y707004D01*
X273604D01*
X271572Y702940D01*
X1153668Y632968D02*
Y637032D01*
X1157732D01*
Y632968D01*
X1153668D01*
Y582168D02*
Y586232D01*
X1157732D01*
Y582168D01*
X1153668D01*
X1128268D02*
Y586232D01*
X1132332D01*
Y582168D01*
X1128268D01*
X1102868Y632968D02*
Y637032D01*
X1106932D01*
Y632968D01*
X1102868D01*
X1077468D02*
Y637032D01*
X1081532D01*
Y632968D01*
X1077468D01*
Y531368D02*
Y535432D01*
X1081532D01*
Y531368D01*
X1077468D01*
X1052068Y582168D02*
Y586232D01*
X1056132D01*
Y582168D01*
X1052068D01*
Y531368D02*
Y535432D01*
X1056132D01*
Y531368D01*
X1052068D01*
Y480568D02*
Y484632D01*
X1056132D01*
Y480568D01*
X1052068D01*
X1026668D02*
Y484632D01*
X1030732D01*
Y480568D01*
X1026668D01*
X1001268D02*
Y484632D01*
X1005332D01*
Y480568D01*
X1001268D01*
X975868D02*
Y484632D01*
X979932D01*
Y480568D01*
X975868D01*
X937768Y556768D02*
Y560832D01*
X941832D01*
Y556768D01*
X937768D01*
X950468Y480568D02*
Y484632D01*
X954532D01*
Y480568D01*
X950468D01*
X925068Y582168D02*
Y586232D01*
X929132D01*
Y582168D01*
X925068D01*
Y531368D02*
Y535432D01*
X929132D01*
Y531368D01*
X925068D01*
Y480568D02*
Y484632D01*
X929132D01*
Y480568D01*
X925068D01*
X899668Y531368D02*
Y535432D01*
X903732D01*
Y531368D01*
X899668D01*
Y480568D02*
Y484632D01*
X903732D01*
Y480568D01*
X899668D01*
X874268Y632968D02*
Y637032D01*
X878332D01*
Y632968D01*
X874268D01*
Y531368D02*
Y535432D01*
X878332D01*
Y531368D01*
X874268D01*
Y480568D02*
Y484632D01*
X878332D01*
Y480568D01*
X874268D01*
X848868Y582168D02*
Y586232D01*
X852932D01*
Y582168D01*
X848868D01*
Y480568D02*
Y484632D01*
X852932D01*
Y480568D01*
X848868D01*
X823468Y632968D02*
Y637032D01*
X827532D01*
Y632968D01*
X823468D01*
X810768Y556768D02*
Y560832D01*
X814832D01*
Y556768D01*
X810768D01*
X798068Y632968D02*
Y637032D01*
X802132D01*
Y632968D01*
X798068D01*
X772668Y582168D02*
Y586232D01*
X776732D01*
Y582168D01*
X772668D01*
X747268Y632968D02*
Y637032D01*
X751332D01*
Y632968D01*
X747268D01*
Y480568D02*
Y484632D01*
X751332D01*
Y480568D01*
X747268D01*
X721868Y582168D02*
Y586232D01*
X725932D01*
Y582168D01*
X721868D01*
Y480568D02*
Y484632D01*
X725932D01*
Y480568D01*
X721868D01*
X645668Y582168D02*
Y586232D01*
X649732D01*
Y582168D01*
X645668D01*
X607568Y556768D02*
Y560832D01*
X611632D01*
Y556768D01*
X607568D01*
X594868Y632968D02*
Y637032D01*
X598932D01*
Y632968D01*
X594868D01*
X582168Y607568D02*
Y611632D01*
X586232D01*
Y607568D01*
X582168D01*
Y556768D02*
Y560832D01*
X586232D01*
Y556768D01*
X582168D01*
Y505968D02*
Y510032D01*
X586232D01*
Y505968D01*
X582168D01*
X569468Y632968D02*
Y637032D01*
X573532D01*
Y632968D01*
X569468D01*
X556768Y607568D02*
Y611632D01*
X560832D01*
Y607568D01*
X556768D01*
X569468Y582168D02*
Y586232D01*
X573532D01*
Y582168D01*
X569468D01*
X556768Y556768D02*
Y560832D01*
X560832D01*
Y556768D01*
X556768D01*
X569468Y480568D02*
Y484632D01*
X573532D01*
Y480568D01*
X569468D01*
X531368Y607568D02*
Y611632D01*
X535432D01*
Y607568D01*
X531368D01*
X544068Y582168D02*
Y586232D01*
X548132D01*
Y582168D01*
X544068D01*
X518668Y632968D02*
Y637032D01*
X522732D01*
Y632968D01*
X518668D01*
X505968Y607568D02*
Y611632D01*
X510032D01*
Y607568D01*
X505968D01*
X518668Y582168D02*
Y586232D01*
X522732D01*
Y582168D01*
X518668D01*
X493268Y632968D02*
Y637032D01*
X497332D01*
Y632968D01*
X493268D01*
X480568Y607568D02*
Y611632D01*
X484632D01*
Y607568D01*
X480568D01*
X455168D02*
Y611632D01*
X459232D01*
Y607568D01*
X455168D01*
X442468Y632968D02*
Y637032D01*
X446532D01*
Y632968D01*
X442468D01*
X429768Y607568D02*
Y611632D01*
X433832D01*
Y607568D01*
X429768D01*
Y556768D02*
Y560832D01*
X433832D01*
Y556768D01*
X429768D01*
X442468Y480568D02*
Y484632D01*
X446532D01*
Y480568D01*
X442468D01*
X417068Y632968D02*
Y637032D01*
X421132D01*
Y632968D01*
X417068D01*
X404368Y607568D02*
Y611632D01*
X408432D01*
Y607568D01*
X404368D01*
X417068Y582168D02*
Y586232D01*
X421132D01*
Y582168D01*
X417068D01*
X378968Y607568D02*
Y611632D01*
X383032D01*
Y607568D01*
X378968D01*
X391668Y582168D02*
Y586232D01*
X395732D01*
Y582168D01*
X391668D01*
X378968Y556768D02*
Y560832D01*
X383032D01*
Y556768D01*
X378968D01*
X366268Y632968D02*
Y637032D01*
X370332D01*
Y632968D01*
X366268D01*
X353568Y607568D02*
Y611632D01*
X357632D01*
Y607568D01*
X353568D01*
X328168D02*
Y611632D01*
X332232D01*
Y607568D01*
X328168D01*
Y505968D02*
Y510032D01*
X332232D01*
Y505968D01*
X328168D01*
X315468Y632968D02*
Y637032D01*
X319532D01*
Y632968D01*
X315468D01*
X302768Y607568D02*
Y611632D01*
X306832D01*
Y607568D01*
X302768D01*
X315468Y582168D02*
Y586232D01*
X319532D01*
Y582168D01*
X315468D01*
X302768Y556768D02*
Y560832D01*
X306832D01*
Y556768D01*
X302768D01*
Y505968D02*
Y510032D01*
X306832D01*
Y505968D01*
X302768D01*
X315468Y480568D02*
Y484632D01*
X319532D01*
Y480568D01*
X315468D01*
X290068Y632968D02*
Y637032D01*
X294132D01*
Y632968D01*
X290068D01*
Y582168D02*
Y586232D01*
X294132D01*
Y582168D01*
X290068D01*
X277368Y556768D02*
Y560832D01*
X281432D01*
Y556768D01*
X277368D01*
X290068Y480568D02*
Y484632D01*
X294132D01*
Y480568D01*
X290068D01*
X251968Y607568D02*
Y611632D01*
X256032D01*
Y607568D01*
X251968D01*
Y505968D02*
Y510032D01*
X256032D01*
Y505968D01*
X251968D01*
X226568Y607568D02*
Y611632D01*
X230632D01*
Y607568D01*
X226568D01*
X201168D02*
Y611632D01*
X205232D01*
Y607568D01*
X201168D01*
Y505968D02*
Y510032D01*
X205232D01*
Y505968D01*
X201168D01*
X213868Y480568D02*
Y484632D01*
X217932D01*
Y480568D01*
X213868D01*
X188468Y632968D02*
Y637032D01*
X192532D01*
Y632968D01*
X188468D01*
X175768Y607568D02*
Y611632D01*
X179832D01*
Y607568D01*
X175768D01*
X163068Y582168D02*
Y586232D01*
X167132D01*
Y582168D01*
X163068D01*
X150368Y505968D02*
Y510032D01*
X154432D01*
Y505968D01*
X150368D01*
X163068Y480568D02*
Y484632D01*
X167132D01*
Y480568D01*
X163068D01*
X86868Y632968D02*
Y637032D01*
X90932D01*
Y632968D01*
X86868D01*
Y582168D02*
Y586232D01*
X90932D01*
Y582168D01*
X86868D01*
Y531368D02*
Y535432D01*
X90932D01*
Y531368D01*
X86868D01*
X74168Y505968D02*
Y510032D01*
X78232D01*
Y505968D01*
X74168D01*
Y353568D02*
Y357632D01*
X78232D01*
Y353568D01*
X74168D01*
X86868Y328168D02*
Y332232D01*
X90932D01*
Y328168D01*
X86868D01*
X48768Y658368D02*
Y662432D01*
X52832D01*
Y658368D01*
X48768D01*
X61468Y328168D02*
Y332232D01*
X65532D01*
Y328168D01*
X61468D01*
X23368Y505968D02*
Y510032D01*
X27432D01*
Y505968D01*
X23368D01*
X36068Y480568D02*
Y484632D01*
X40132D01*
Y480568D01*
X36068D01*
X23368Y455168D02*
Y459232D01*
X27432D01*
Y455168D01*
X23368D01*
Y404368D02*
Y408432D01*
X27432D01*
Y404368D01*
X23368D01*
Y302768D02*
Y306832D01*
X27432D01*
Y302768D01*
X23368D01*
X36068Y277368D02*
Y281432D01*
X40132D01*
Y277368D01*
X36068D01*
X23368Y251968D02*
Y256032D01*
X27432D01*
Y251968D01*
X23368D01*
X1318768Y124968D02*
Y129032D01*
X1322832D01*
Y124968D01*
X1318768D01*
Y23368D02*
Y27432D01*
X1322832D01*
Y23368D01*
X1318768D01*
X1293368Y124968D02*
Y129032D01*
X1297432D01*
Y124968D01*
X1293368D01*
X1306068Y99568D02*
Y103632D01*
X1310132D01*
Y99568D01*
X1306068D01*
X1293368Y74168D02*
Y78232D01*
X1297432D01*
Y74168D01*
X1293368D01*
X1306068Y48768D02*
Y52832D01*
X1310132D01*
Y48768D01*
X1306068D01*
X1293368Y23368D02*
Y27432D01*
X1297432D01*
Y23368D01*
X1293368D01*
X1267968Y124968D02*
Y129032D01*
X1272032D01*
Y124968D01*
X1267968D01*
X1280668Y99568D02*
Y103632D01*
X1284732D01*
Y99568D01*
X1280668D01*
X1267968Y74168D02*
Y78232D01*
X1272032D01*
Y74168D01*
X1267968D01*
X1280668Y48768D02*
Y52832D01*
X1284732D01*
Y48768D01*
X1280668D01*
X1267968Y23368D02*
Y27432D01*
X1272032D01*
Y23368D01*
X1267968D01*
X1242568Y124968D02*
Y129032D01*
X1246632D01*
Y124968D01*
X1242568D01*
X1255268Y99568D02*
Y103632D01*
X1259332D01*
Y99568D01*
X1255268D01*
X1242568Y74168D02*
Y78232D01*
X1246632D01*
Y74168D01*
X1242568D01*
X1255268Y48768D02*
Y52832D01*
X1259332D01*
Y48768D01*
X1255268D01*
X1242568Y23368D02*
Y27432D01*
X1246632D01*
Y23368D01*
X1242568D01*
X1217168Y124968D02*
Y129032D01*
X1221232D01*
Y124968D01*
X1217168D01*
X1229868Y99568D02*
Y103632D01*
X1233932D01*
Y99568D01*
X1229868D01*
X1217168Y74168D02*
Y78232D01*
X1221232D01*
Y74168D01*
X1217168D01*
X1229868Y48768D02*
Y52832D01*
X1233932D01*
Y48768D01*
X1229868D01*
X1217168Y23368D02*
Y27432D01*
X1221232D01*
Y23368D01*
X1217168D01*
X1191768Y124968D02*
Y129032D01*
X1195832D01*
Y124968D01*
X1191768D01*
X1204468Y99568D02*
Y103632D01*
X1208532D01*
Y99568D01*
X1204468D01*
X1191768Y74168D02*
Y78232D01*
X1195832D01*
Y74168D01*
X1191768D01*
X1204468Y48768D02*
Y52832D01*
X1208532D01*
Y48768D01*
X1204468D01*
X1166368Y124968D02*
Y129032D01*
X1170432D01*
Y124968D01*
X1166368D01*
X1179068Y99568D02*
Y103632D01*
X1183132D01*
Y99568D01*
X1179068D01*
X1140968Y124968D02*
Y129032D01*
X1145032D01*
Y124968D01*
X1140968D01*
X1153668Y99568D02*
Y103632D01*
X1157732D01*
Y99568D01*
X1153668D01*
X1128268Y150368D02*
Y154432D01*
X1132332D01*
Y150368D01*
X1128268D01*
X1115568Y23368D02*
Y27432D01*
X1119632D01*
Y23368D01*
X1115568D01*
X1090168Y175768D02*
Y179832D01*
X1094232D01*
Y175768D01*
X1090168D01*
X1102868Y150368D02*
Y154432D01*
X1106932D01*
Y150368D01*
X1102868D01*
Y48768D02*
Y52832D01*
X1106932D01*
Y48768D01*
X1102868D01*
X1090168Y23368D02*
Y27432D01*
X1094232D01*
Y23368D01*
X1090168D01*
X1064768Y378968D02*
Y383032D01*
X1068832D01*
Y378968D01*
X1064768D01*
Y328168D02*
Y332232D01*
X1068832D01*
Y328168D01*
X1064768D01*
Y277368D02*
Y281432D01*
X1068832D01*
Y277368D01*
X1064768D01*
Y226568D02*
Y230632D01*
X1068832D01*
Y226568D01*
X1064768D01*
X1077468Y201168D02*
Y205232D01*
X1081532D01*
Y201168D01*
X1077468D01*
Y48768D02*
Y52832D01*
X1081532D01*
Y48768D01*
X1077468D01*
X1052068Y404368D02*
Y408432D01*
X1056132D01*
Y404368D01*
X1052068D01*
X1039368Y378968D02*
Y383032D01*
X1043432D01*
Y378968D01*
X1039368D01*
X1052068Y353568D02*
Y357632D01*
X1056132D01*
Y353568D01*
X1052068D01*
X1039368Y328168D02*
Y332232D01*
X1043432D01*
Y328168D01*
X1039368D01*
X1052068Y302768D02*
Y306832D01*
X1056132D01*
Y302768D01*
X1052068D01*
X1039368Y277368D02*
Y281432D01*
X1043432D01*
Y277368D01*
X1039368D01*
X1052068Y251968D02*
Y256032D01*
X1056132D01*
Y251968D01*
X1052068D01*
X1039368Y226568D02*
Y230632D01*
X1043432D01*
Y226568D01*
X1039368D01*
X1052068Y201168D02*
Y205232D01*
X1056132D01*
Y201168D01*
X1052068D01*
X1039368Y23368D02*
Y27432D01*
X1043432D01*
Y23368D01*
X1039368D01*
X1026668Y404368D02*
Y408432D01*
X1030732D01*
Y404368D01*
X1026668D01*
X1013968Y378968D02*
Y383032D01*
X1018032D01*
Y378968D01*
X1013968D01*
X1026668Y353568D02*
Y357632D01*
X1030732D01*
Y353568D01*
X1026668D01*
X1013968Y328168D02*
Y332232D01*
X1018032D01*
Y328168D01*
X1013968D01*
X1026668Y302768D02*
Y306832D01*
X1030732D01*
Y302768D01*
X1026668D01*
X1013968Y277368D02*
Y281432D01*
X1018032D01*
Y277368D01*
X1013968D01*
X1026668Y251968D02*
Y256032D01*
X1030732D01*
Y251968D01*
X1026668D01*
X1013968Y226568D02*
Y230632D01*
X1018032D01*
Y226568D01*
X1013968D01*
X1026668Y201168D02*
Y205232D01*
X1030732D01*
Y201168D01*
X1026668D01*
Y99568D02*
Y103632D01*
X1030732D01*
Y99568D01*
X1026668D01*
X1013968Y23368D02*
Y27432D01*
X1018032D01*
Y23368D01*
X1013968D01*
X1001268Y404368D02*
Y408432D01*
X1005332D01*
Y404368D01*
X1001268D01*
X988568Y378968D02*
Y383032D01*
X992632D01*
Y378968D01*
X988568D01*
X1001268Y353568D02*
Y357632D01*
X1005332D01*
Y353568D01*
X1001268D01*
X988568Y328168D02*
Y332232D01*
X992632D01*
Y328168D01*
X988568D01*
X1001268Y302768D02*
Y306832D01*
X1005332D01*
Y302768D01*
X1001268D01*
X988568Y277368D02*
Y281432D01*
X992632D01*
Y277368D01*
X988568D01*
X1001268Y251968D02*
Y256032D01*
X1005332D01*
Y251968D01*
X1001268D01*
X988568Y226568D02*
Y230632D01*
X992632D01*
Y226568D01*
X988568D01*
X1001268Y201168D02*
Y205232D01*
X1005332D01*
Y201168D01*
X1001268D01*
Y99568D02*
Y103632D01*
X1005332D01*
Y99568D01*
X1001268D01*
X988568Y74168D02*
Y78232D01*
X992632D01*
Y74168D01*
X988568D01*
X975868Y404368D02*
Y408432D01*
X979932D01*
Y404368D01*
X975868D01*
X963168Y378968D02*
Y383032D01*
X967232D01*
Y378968D01*
X963168D01*
X975868Y353568D02*
Y357632D01*
X979932D01*
Y353568D01*
X975868D01*
X963168Y328168D02*
Y332232D01*
X967232D01*
Y328168D01*
X963168D01*
X975868Y302768D02*
Y306832D01*
X979932D01*
Y302768D01*
X975868D01*
X963168Y277368D02*
Y281432D01*
X967232D01*
Y277368D01*
X963168D01*
Y226568D02*
Y230632D01*
X967232D01*
Y226568D01*
X963168D01*
X975868Y99568D02*
Y103632D01*
X979932D01*
Y99568D01*
X975868D01*
X963168Y74168D02*
Y78232D01*
X967232D01*
Y74168D01*
X963168D01*
X975868Y48768D02*
Y52832D01*
X979932D01*
Y48768D01*
X975868D01*
X963168Y23368D02*
Y27432D01*
X967232D01*
Y23368D01*
X963168D01*
X950468Y404368D02*
Y408432D01*
X954532D01*
Y404368D01*
X950468D01*
X937768Y378968D02*
Y383032D01*
X941832D01*
Y378968D01*
X937768D01*
X950468Y353568D02*
Y357632D01*
X954532D01*
Y353568D01*
X950468D01*
X937768Y328168D02*
Y332232D01*
X941832D01*
Y328168D01*
X937768D01*
X950468Y302768D02*
Y306832D01*
X954532D01*
Y302768D01*
X950468D01*
X937768Y277368D02*
Y281432D01*
X941832D01*
Y277368D01*
X937768D01*
X950468Y251968D02*
Y256032D01*
X954532D01*
Y251968D01*
X950468D01*
X925068Y404368D02*
Y408432D01*
X929132D01*
Y404368D01*
X925068D01*
X912368Y378968D02*
Y383032D01*
X916432D01*
Y378968D01*
X912368D01*
X925068Y353568D02*
Y357632D01*
X929132D01*
Y353568D01*
X925068D01*
X912368Y328168D02*
Y332232D01*
X916432D01*
Y328168D01*
X912368D01*
Y277368D02*
Y281432D01*
X916432D01*
Y277368D01*
X912368D01*
Y124968D02*
Y129032D01*
X916432D01*
Y124968D01*
X912368D01*
Y74168D02*
Y78232D01*
X916432D01*
Y74168D01*
X912368D01*
X925068Y48768D02*
Y52832D01*
X929132D01*
Y48768D01*
X925068D01*
X899668Y404368D02*
Y408432D01*
X903732D01*
Y404368D01*
X899668D01*
X886968Y378968D02*
Y383032D01*
X891032D01*
Y378968D01*
X886968D01*
X899668Y353568D02*
Y357632D01*
X903732D01*
Y353568D01*
X899668D01*
X886968Y328168D02*
Y332232D01*
X891032D01*
Y328168D01*
X886968D01*
Y277368D02*
Y281432D01*
X891032D01*
Y277368D01*
X886968D01*
Y124968D02*
Y129032D01*
X891032D01*
Y124968D01*
X886968D01*
X899668Y48768D02*
Y52832D01*
X903732D01*
Y48768D01*
X899668D01*
X886968Y23368D02*
Y27432D01*
X891032D01*
Y23368D01*
X886968D01*
X874268Y404368D02*
Y408432D01*
X878332D01*
Y404368D01*
X874268D01*
X861568Y378968D02*
Y383032D01*
X865632D01*
Y378968D01*
X861568D01*
X874268Y353568D02*
Y357632D01*
X878332D01*
Y353568D01*
X874268D01*
X861568Y328168D02*
Y332232D01*
X865632D01*
Y328168D01*
X861568D01*
Y277368D02*
Y281432D01*
X865632D01*
Y277368D01*
X861568D01*
Y124968D02*
Y129032D01*
X865632D01*
Y124968D01*
X861568D01*
X874268Y99568D02*
Y103632D01*
X878332D01*
Y99568D01*
X874268D01*
Y48768D02*
Y52832D01*
X878332D01*
Y48768D01*
X874268D01*
X861568Y23368D02*
Y27432D01*
X865632D01*
Y23368D01*
X861568D01*
X848868Y404368D02*
Y408432D01*
X852932D01*
Y404368D01*
X848868D01*
Y353568D02*
Y357632D01*
X852932D01*
Y353568D01*
X848868D01*
X836168Y277368D02*
Y281432D01*
X840232D01*
Y277368D01*
X836168D01*
X848868Y201168D02*
Y205232D01*
X852932D01*
Y201168D01*
X848868D01*
X836168Y124968D02*
Y129032D01*
X840232D01*
Y124968D01*
X836168D01*
X848868Y99568D02*
Y103632D01*
X852932D01*
Y99568D01*
X848868D01*
X836168Y23368D02*
Y27432D01*
X840232D01*
Y23368D01*
X836168D01*
X810768Y277368D02*
Y281432D01*
X814832D01*
Y277368D01*
X810768D01*
X823468Y201168D02*
Y205232D01*
X827532D01*
Y201168D01*
X823468D01*
X810768Y124968D02*
Y129032D01*
X814832D01*
Y124968D01*
X810768D01*
X823468Y99568D02*
Y103632D01*
X827532D01*
Y99568D01*
X823468D01*
X810768Y23368D02*
Y27432D01*
X814832D01*
Y23368D01*
X810768D01*
X798068Y201168D02*
Y205232D01*
X802132D01*
Y201168D01*
X798068D01*
X785368Y124968D02*
Y129032D01*
X789432D01*
Y124968D01*
X785368D01*
X798068Y99568D02*
Y103632D01*
X802132D01*
Y99568D01*
X798068D01*
X759968Y378968D02*
Y383032D01*
X764032D01*
Y378968D01*
X759968D01*
Y328168D02*
Y332232D01*
X764032D01*
Y328168D01*
X759968D01*
X772668Y201168D02*
Y205232D01*
X776732D01*
Y201168D01*
X772668D01*
X759968Y124968D02*
Y129032D01*
X764032D01*
Y124968D01*
X759968D01*
X772668Y99568D02*
Y103632D01*
X776732D01*
Y99568D01*
X772668D01*
Y48768D02*
Y52832D01*
X776732D01*
Y48768D01*
X772668D01*
X759968Y23368D02*
Y27432D01*
X764032D01*
Y23368D01*
X759968D01*
X747268Y404368D02*
Y408432D01*
X751332D01*
Y404368D01*
X747268D01*
X734568Y378968D02*
Y383032D01*
X738632D01*
Y378968D01*
X734568D01*
X747268Y353568D02*
Y357632D01*
X751332D01*
Y353568D01*
X747268D01*
X734568Y328168D02*
Y332232D01*
X738632D01*
Y328168D01*
X734568D01*
X747268Y302768D02*
Y306832D01*
X751332D01*
Y302768D01*
X747268D01*
Y201168D02*
Y205232D01*
X751332D01*
Y201168D01*
X747268D01*
X734568Y124968D02*
Y129032D01*
X738632D01*
Y124968D01*
X734568D01*
Y23368D02*
Y27432D01*
X738632D01*
Y23368D01*
X734568D01*
X721868Y404368D02*
Y408432D01*
X725932D01*
Y404368D01*
X721868D01*
X709168Y378968D02*
Y383032D01*
X713232D01*
Y378968D01*
X709168D01*
X721868Y353568D02*
Y357632D01*
X725932D01*
Y353568D01*
X721868D01*
X709168Y328168D02*
Y332232D01*
X713232D01*
Y328168D01*
X709168D01*
X721868Y302768D02*
Y306832D01*
X725932D01*
Y302768D01*
X721868D01*
X709168Y124968D02*
Y129032D01*
X713232D01*
Y124968D01*
X709168D01*
X721868Y99568D02*
Y103632D01*
X725932D01*
Y99568D01*
X721868D01*
X709168Y23368D02*
Y27432D01*
X713232D01*
Y23368D01*
X709168D01*
X696468Y404368D02*
Y408432D01*
X700532D01*
Y404368D01*
X696468D01*
X683768Y378968D02*
Y383032D01*
X687832D01*
Y378968D01*
X683768D01*
X696468Y353568D02*
Y357632D01*
X700532D01*
Y353568D01*
X696468D01*
X683768Y328168D02*
Y332232D01*
X687832D01*
Y328168D01*
X683768D01*
X696468Y302768D02*
Y306832D01*
X700532D01*
Y302768D01*
X696468D01*
X683768Y124968D02*
Y129032D01*
X687832D01*
Y124968D01*
X683768D01*
X696468Y99568D02*
Y103632D01*
X700532D01*
Y99568D01*
X696468D01*
X671068Y404368D02*
Y408432D01*
X675132D01*
Y404368D01*
X671068D01*
X658368Y378968D02*
Y383032D01*
X662432D01*
Y378968D01*
X658368D01*
X671068Y353568D02*
Y357632D01*
X675132D01*
Y353568D01*
X671068D01*
X658368Y328168D02*
Y332232D01*
X662432D01*
Y328168D01*
X658368D01*
X671068Y251968D02*
Y256032D01*
X675132D01*
Y251968D01*
X671068D01*
X658368Y124968D02*
Y129032D01*
X662432D01*
Y124968D01*
X658368D01*
X671068Y48768D02*
Y52832D01*
X675132D01*
Y48768D01*
X671068D01*
X658368Y23368D02*
Y27432D01*
X662432D01*
Y23368D01*
X658368D01*
X645668Y404368D02*
Y408432D01*
X649732D01*
Y404368D01*
X645668D01*
X632968Y378968D02*
Y383032D01*
X637032D01*
Y378968D01*
X632968D01*
X645668Y353568D02*
Y357632D01*
X649732D01*
Y353568D01*
X645668D01*
Y48768D02*
Y52832D01*
X649732D01*
Y48768D01*
X645668D01*
X632968Y23368D02*
Y27432D01*
X637032D01*
Y23368D01*
X632968D01*
X620268Y404368D02*
Y408432D01*
X624332D01*
Y404368D01*
X620268D01*
X607568Y378968D02*
Y383032D01*
X611632D01*
Y378968D01*
X607568D01*
X620268Y302768D02*
Y306832D01*
X624332D01*
Y302768D01*
X620268D01*
Y48768D02*
Y52832D01*
X624332D01*
Y48768D01*
X620268D01*
X607568Y23368D02*
Y27432D01*
X611632D01*
Y23368D01*
X607568D01*
X594868Y404368D02*
Y408432D01*
X598932D01*
Y404368D01*
X594868D01*
X582168Y328168D02*
Y332232D01*
X586232D01*
Y328168D01*
X582168D01*
X594868Y302768D02*
Y306832D01*
X598932D01*
Y302768D01*
X594868D01*
Y48768D02*
Y52832D01*
X598932D01*
Y48768D01*
X594868D01*
X569468Y404368D02*
Y408432D01*
X573532D01*
Y404368D01*
X569468D01*
Y302768D02*
Y306832D01*
X573532D01*
Y302768D01*
X569468D01*
Y251968D02*
Y256032D01*
X573532D01*
Y251968D01*
X569468D01*
X531368Y226568D02*
Y230632D01*
X535432D01*
Y226568D01*
X531368D01*
X544068Y201168D02*
Y205232D01*
X548132D01*
Y201168D01*
X544068D01*
X531368Y175768D02*
Y179832D01*
X535432D01*
Y175768D01*
X531368D01*
X544068Y150368D02*
Y154432D01*
X548132D01*
Y150368D01*
X544068D01*
X531368Y124968D02*
Y129032D01*
X535432D01*
Y124968D01*
X531368D01*
X505968Y328168D02*
Y332232D01*
X510032D01*
Y328168D01*
X505968D01*
X518668Y302768D02*
Y306832D01*
X522732D01*
Y302768D01*
X518668D01*
X505968Y226568D02*
Y230632D01*
X510032D01*
Y226568D01*
X505968D01*
X518668Y201168D02*
Y205232D01*
X522732D01*
Y201168D01*
X518668D01*
X480568Y226568D02*
Y230632D01*
X484632D01*
Y226568D01*
X480568D01*
X493268Y201168D02*
Y205232D01*
X497332D01*
Y201168D01*
X493268D01*
X467868Y302768D02*
Y306832D01*
X471932D01*
Y302768D01*
X467868D01*
Y201168D02*
Y205232D01*
X471932D01*
Y201168D01*
X467868D01*
X455168Y74168D02*
Y78232D01*
X459232D01*
Y74168D01*
X455168D01*
X442468Y404368D02*
Y408432D01*
X446532D01*
Y404368D01*
X442468D01*
X429768Y175768D02*
Y179832D01*
X433832D01*
Y175768D01*
X429768D01*
Y124968D02*
Y129032D01*
X433832D01*
Y124968D01*
X429768D01*
Y74168D02*
Y78232D01*
X433832D01*
Y74168D01*
X429768D01*
X391668Y251968D02*
Y256032D01*
X395732D01*
Y251968D01*
X391668D01*
X378968Y74168D02*
Y78232D01*
X383032D01*
Y74168D01*
X378968D01*
X366268Y48768D02*
Y52832D01*
X370332D01*
Y48768D01*
X366268D01*
X328168Y378968D02*
Y383032D01*
X332232D01*
Y378968D01*
X328168D01*
Y328168D02*
Y332232D01*
X332232D01*
Y328168D01*
X328168D01*
X340868Y150368D02*
Y154432D01*
X344932D01*
Y150368D01*
X340868D01*
Y99568D02*
Y103632D01*
X344932D01*
Y99568D01*
X340868D01*
X328168Y74168D02*
Y78232D01*
X332232D01*
Y74168D01*
X328168D01*
X340868Y48768D02*
Y52832D01*
X344932D01*
Y48768D01*
X340868D01*
X315468Y404368D02*
Y408432D01*
X319532D01*
Y404368D01*
X315468D01*
X302768Y378968D02*
Y383032D01*
X306832D01*
Y378968D01*
X302768D01*
X315468Y353568D02*
Y357632D01*
X319532D01*
Y353568D01*
X315468D01*
Y201168D02*
Y205232D01*
X319532D01*
Y201168D01*
X315468D01*
Y150368D02*
Y154432D01*
X319532D01*
Y150368D01*
X315468D01*
X302768Y74168D02*
Y78232D01*
X306832D01*
Y74168D01*
X302768D01*
X290068Y404368D02*
Y408432D01*
X294132D01*
Y404368D01*
X290068D01*
X251968Y378968D02*
Y383032D01*
X256032D01*
Y378968D01*
X251968D01*
Y328168D02*
Y332232D01*
X256032D01*
Y328168D01*
X251968D01*
Y175768D02*
Y179832D01*
X256032D01*
Y175768D01*
X251968D01*
X264668Y150368D02*
Y154432D01*
X268732D01*
Y150368D01*
X264668D01*
X251968Y124968D02*
Y129032D01*
X256032D01*
Y124968D01*
X251968D01*
X264668Y99568D02*
Y103632D01*
X268732D01*
Y99568D01*
X264668D01*
X251968Y74168D02*
Y78232D01*
X256032D01*
Y74168D01*
X251968D01*
X264668Y48768D02*
Y52832D01*
X268732D01*
Y48768D01*
X264668D01*
X226568Y328168D02*
Y332232D01*
X230632D01*
Y328168D01*
X226568D01*
X239268Y201168D02*
Y205232D01*
X243332D01*
Y201168D01*
X239268D01*
Y150368D02*
Y154432D01*
X243332D01*
Y150368D01*
X239268D01*
Y99568D02*
Y103632D01*
X243332D01*
Y99568D01*
X239268D01*
Y48768D02*
Y52832D01*
X243332D01*
Y48768D01*
X239268D01*
X213868Y404368D02*
Y408432D01*
X217932D01*
Y404368D01*
X213868D01*
X201168Y378968D02*
Y383032D01*
X205232D01*
Y378968D01*
X201168D01*
X213868Y353568D02*
Y357632D01*
X217932D01*
Y353568D01*
X213868D01*
X201168Y328168D02*
Y332232D01*
X205232D01*
Y328168D01*
X201168D01*
Y175768D02*
Y179832D01*
X205232D01*
Y175768D01*
X201168D01*
Y124968D02*
Y129032D01*
X205232D01*
Y124968D01*
X201168D01*
Y74168D02*
Y78232D01*
X205232D01*
Y74168D01*
X201168D01*
X175768Y328168D02*
Y332232D01*
X179832D01*
Y328168D01*
X175768D01*
X188468Y201168D02*
Y205232D01*
X192532D01*
Y201168D01*
X188468D01*
X175768Y175768D02*
Y179832D01*
X179832D01*
Y175768D01*
X175768D01*
X188468Y150368D02*
Y154432D01*
X192532D01*
Y150368D01*
X188468D01*
X175768Y124968D02*
Y129032D01*
X179832D01*
Y124968D01*
X175768D01*
X188468Y99568D02*
Y103632D01*
X192532D01*
Y99568D01*
X188468D01*
X175768Y74168D02*
Y78232D01*
X179832D01*
Y74168D01*
X175768D01*
X188468Y48768D02*
Y52832D01*
X192532D01*
Y48768D01*
X188468D01*
X175768Y23368D02*
Y27432D01*
X179832D01*
Y23368D01*
X175768D01*
X163068Y404368D02*
Y408432D01*
X167132D01*
Y404368D01*
X163068D01*
X150368Y378968D02*
Y383032D01*
X154432D01*
Y378968D01*
X150368D01*
X163068Y353568D02*
Y357632D01*
X167132D01*
Y353568D01*
X163068D01*
X150368Y328168D02*
Y332232D01*
X154432D01*
Y328168D01*
X150368D01*
X163068Y251968D02*
Y256032D01*
X167132D01*
Y251968D01*
X163068D01*
X150368Y226568D02*
Y230632D01*
X154432D01*
Y226568D01*
X150368D01*
X163068Y201168D02*
Y205232D01*
X167132D01*
Y201168D01*
X163068D01*
X150368Y175768D02*
Y179832D01*
X154432D01*
Y175768D01*
X150368D01*
X163068Y150368D02*
Y154432D01*
X167132D01*
Y150368D01*
X163068D01*
X150368Y124968D02*
Y129032D01*
X154432D01*
Y124968D01*
X150368D01*
X163068Y99568D02*
Y103632D01*
X167132D01*
Y99568D01*
X163068D01*
X150368Y74168D02*
Y78232D01*
X154432D01*
Y74168D01*
X150368D01*
X163068Y48768D02*
Y52832D01*
X167132D01*
Y48768D01*
X163068D01*
X150368Y23368D02*
Y27432D01*
X154432D01*
Y23368D01*
X150368D01*
X124968Y378968D02*
Y383032D01*
X129032D01*
Y378968D01*
X124968D01*
X137668Y353568D02*
Y357632D01*
X141732D01*
Y353568D01*
X137668D01*
Y201168D02*
Y205232D01*
X141732D01*
Y201168D01*
X137668D01*
X124968Y175768D02*
Y179832D01*
X129032D01*
Y175768D01*
X124968D01*
X137668Y150368D02*
Y154432D01*
X141732D01*
Y150368D01*
X137668D01*
X124968Y124968D02*
Y129032D01*
X129032D01*
Y124968D01*
X124968D01*
X137668Y99568D02*
Y103632D01*
X141732D01*
Y99568D01*
X137668D01*
X124968Y74168D02*
Y78232D01*
X129032D01*
Y74168D01*
X124968D01*
X137668Y48768D02*
Y52832D01*
X141732D01*
Y48768D01*
X137668D01*
X124968Y23368D02*
Y27432D01*
X129032D01*
Y23368D01*
X124968D01*
X99568Y175768D02*
Y179832D01*
X103632D01*
Y175768D01*
X99568D01*
X112268Y150368D02*
Y154432D01*
X116332D01*
Y150368D01*
X112268D01*
X99568Y124968D02*
Y129032D01*
X103632D01*
Y124968D01*
X99568D01*
X112268Y99568D02*
Y103632D01*
X116332D01*
Y99568D01*
X112268D01*
X99568Y74168D02*
Y78232D01*
X103632D01*
Y74168D01*
X99568D01*
X112268Y48768D02*
Y52832D01*
X116332D01*
Y48768D01*
X112268D01*
X99568Y23368D02*
Y27432D01*
X103632D01*
Y23368D01*
X99568D01*
X74168Y175768D02*
Y179832D01*
X78232D01*
Y175768D01*
X74168D01*
X86868Y150368D02*
Y154432D01*
X90932D01*
Y150368D01*
X86868D01*
Y99568D02*
Y103632D01*
X90932D01*
Y99568D01*
X86868D01*
Y48768D02*
Y52832D01*
X90932D01*
Y48768D01*
X86868D01*
X74168Y23368D02*
Y27432D01*
X78232D01*
Y23368D01*
X74168D01*
X48768Y175768D02*
Y179832D01*
X52832D01*
Y175768D01*
X48768D01*
X61468Y150368D02*
Y154432D01*
X65532D01*
Y150368D01*
X61468D01*
X23368Y175768D02*
Y179832D01*
X27432D01*
Y175768D01*
X23368D01*
X36068Y150368D02*
Y154432D01*
X40132D01*
Y150368D01*
X36068D01*
X23368Y23368D02*
Y27432D01*
X27432D01*
Y23368D01*
X23368D01*
X1216386Y284348D02*
Y288412D01*
X1220450D01*
Y284348D01*
X1216386D01*
Y275336D02*
Y279400D01*
X1220450D01*
Y275336D01*
X1216386D01*
Y266324D02*
Y270388D01*
X1220450D01*
Y266324D01*
X1216386D01*
X1150386Y284348D02*
Y288412D01*
X1154450D01*
Y284348D01*
X1150386D01*
Y275336D02*
Y279400D01*
X1154450D01*
Y275336D01*
X1150386D01*
Y266324D02*
Y270388D01*
X1154450D01*
Y266324D01*
X1150386D01*
X1183386D02*
Y270388D01*
X1187450D01*
Y266324D01*
X1183386D01*
Y275336D02*
Y279400D01*
X1187450D01*
Y275336D01*
X1183386D01*
Y284348D02*
Y288412D01*
X1187450D01*
Y284348D01*
X1183386D01*
X1282192Y567540D02*
Y571604D01*
X1286256D01*
Y567540D01*
X1282192D01*
Y585621D02*
Y589685D01*
X1286256D01*
Y585621D01*
X1282192D01*
Y576580D02*
Y580644D01*
X1286256D01*
Y576580D01*
X1282192D01*
Y558528D02*
Y562592D01*
X1286256D01*
Y558528D01*
X1282192D01*
Y549516D02*
Y553580D01*
X1286256D01*
Y549516D01*
X1282192D01*
X1297940Y567540D02*
Y571604D01*
X1302004D01*
Y567540D01*
X1297940D01*
X1266444D02*
Y571604D01*
X1270508D01*
Y567540D01*
X1266444D01*
X1290066D02*
Y571604D01*
X1294130D01*
Y567540D01*
X1290066D01*
X1274318D02*
Y571604D01*
X1278382D01*
Y567540D01*
X1274318D01*
X1221740D02*
Y571604D01*
X1225804D01*
Y567540D01*
X1221740D01*
Y585621D02*
Y589685D01*
X1225804D01*
Y585621D01*
X1221740D01*
Y576580D02*
Y580644D01*
X1225804D01*
Y576580D01*
X1221740D01*
Y558528D02*
Y562592D01*
X1225804D01*
Y558528D01*
X1221740D01*
Y549516D02*
Y553580D01*
X1225804D01*
Y549516D01*
X1221740D01*
X1237488Y567540D02*
Y571604D01*
X1241552D01*
Y567540D01*
X1237488D01*
X1205992D02*
Y571604D01*
X1210056D01*
Y567540D01*
X1205992D01*
X1229614D02*
Y571604D01*
X1233678D01*
Y567540D01*
X1229614D01*
X1213866D02*
Y571604D01*
X1217930D01*
Y567540D01*
X1213866D01*
X1282192Y631340D02*
Y635404D01*
X1286256D01*
Y631340D01*
X1282192D01*
Y649421D02*
Y653485D01*
X1286256D01*
Y649421D01*
X1282192D01*
Y640380D02*
Y644444D01*
X1286256D01*
Y640380D01*
X1282192D01*
Y622328D02*
Y626392D01*
X1286256D01*
Y622328D01*
X1282192D01*
Y613316D02*
Y617380D01*
X1286256D01*
Y613316D01*
X1282192D01*
X1297940Y631340D02*
Y635404D01*
X1302004D01*
Y631340D01*
X1297940D01*
X1266444D02*
Y635404D01*
X1270508D01*
Y631340D01*
X1266444D01*
X1290066D02*
Y635404D01*
X1294130D01*
Y631340D01*
X1290066D01*
X1274318D02*
Y635404D01*
X1278382D01*
Y631340D01*
X1274318D01*
X1213866D02*
Y635404D01*
X1217930D01*
Y631340D01*
X1213866D01*
X1229614D02*
Y635404D01*
X1233678D01*
Y631340D01*
X1229614D01*
X1205992D02*
Y635404D01*
X1210056D01*
Y631340D01*
X1205992D01*
X1237488D02*
Y635404D01*
X1241552D01*
Y631340D01*
X1237488D01*
X1221740Y613316D02*
Y617380D01*
X1225804D01*
Y613316D01*
X1221740D01*
Y622328D02*
Y626392D01*
X1225804D01*
Y622328D01*
X1221740D01*
Y640380D02*
Y644444D01*
X1225804D01*
Y640380D01*
X1221740D01*
Y649421D02*
Y653485D01*
X1225804D01*
Y649421D01*
X1221740D01*
Y631340D02*
Y635404D01*
X1225804D01*
Y631340D01*
X1221740D01*
X1299464Y543052D02*
Y547116D01*
X1303528D01*
Y543052D01*
X1299464D01*
X1290892D02*
Y547116D01*
X1294955D01*
Y543052D01*
X1290892D01*
X1273746D02*
Y547116D01*
X1277811D01*
Y543052D01*
X1273746D01*
X1265174D02*
Y547116D01*
X1269238D01*
Y543052D01*
X1265174D01*
X827278Y537718D02*
X825246Y541782D01*
X829310D01*
X827278Y537718D01*
Y538734D02*
X826262Y540766D01*
X828294D01*
X827278Y538734D01*
X846074Y537210D02*
X844042Y541274D01*
X848106D01*
X846074Y537210D01*
Y538226D02*
X845058Y540258D01*
X847090D01*
X846074Y538226D01*
X846328Y519938D02*
X844296Y524002D01*
X848360D01*
X846328Y519938D01*
Y520954D02*
X845312Y522986D01*
X847344D01*
X846328Y520954D01*
X846836Y501650D02*
X844804Y505714D01*
X848868D01*
X846836Y501650D01*
Y502666D02*
X845820Y504698D01*
X847852D01*
X846836Y502666D01*
X795528Y537718D02*
X793496Y541782D01*
X797560D01*
X795528Y537718D01*
Y538734D02*
X794512Y540766D01*
X796544D01*
X795528Y538734D01*
X766064Y539496D02*
X764032Y543560D01*
X768096D01*
X766064Y539496D01*
Y540512D02*
X765048Y542544D01*
X767080D01*
X766064Y540512D01*
X765048Y521462D02*
X763016Y525526D01*
X767080D01*
X765048Y521462D01*
Y522478D02*
X764032Y524510D01*
X766064D01*
X765048Y522478D01*
X764286Y503174D02*
X762254Y507238D01*
X766318D01*
X764286Y503174D01*
Y504190D02*
X763270Y506222D01*
X765302D01*
X764286Y504190D01*
D159*
X491807Y171000D02*
G03*
X491807Y171000I-2032J0D01*
G01*
X510157D02*
G03*
X510157Y171000I-2032J0D01*
G01*
X482632Y161825D02*
G03*
X482632Y161825I-2032J0D01*
G01*
X500982D02*
G03*
X500982Y161825I-2032J0D01*
G01*
X519332D02*
G03*
X519332Y161825I-2032J0D01*
G01*
X491807Y152650D02*
G03*
X491807Y152650I-2032J0D01*
G01*
X510157D02*
G03*
X510157Y152650I-2032J0D01*
G01*
X482632Y143475D02*
G03*
X482632Y143475I-2032J0D01*
G01*
X500982D02*
G03*
X500982Y143475I-2032J0D01*
G01*
X519332D02*
G03*
X519332Y143475I-2032J0D01*
G01*
X491807Y134300D02*
G03*
X491807Y134300I-2032J0D01*
G01*
X510157D02*
G03*
X510157Y134300I-2032J0D01*
G01*
X1050752Y65245D02*
G03*
X1050752Y65245I-2032J0D01*
G01*
X323542Y247904D02*
G03*
X323542Y247904I-2032J0D01*
G01*
X323596Y280416D02*
G03*
X323596Y280416I-2032J0D01*
G01*
X349250Y254000D02*
G03*
X349250Y254000I-2032J0D01*
G01*
X390144Y103378D02*
G03*
X390144Y103378I-2032J0D01*
G01*
X347980Y207772D02*
G03*
X347980Y207772I-2032J0D01*
G01*
X331216D02*
G03*
X331216Y207772I-2032J0D01*
G01*
X503936Y505206D02*
G03*
X503936Y505206I-2032J0D01*
G01*
X392556D02*
G03*
X392556Y505206I-2032J0D01*
G01*
X507746Y536448D02*
G03*
X507746Y536448I-2032J0D01*
G01*
X458724D02*
G03*
X458724Y536448I-2032J0D01*
G01*
X350012Y536702D02*
G03*
X350012Y536702I-2032J0D01*
G01*
X674116Y554736D02*
G03*
X674116Y554736I-2032J0D01*
G01*
X684784Y548640D02*
G03*
X684784Y548640I-2032J0D01*
G01*
X674116Y541782D02*
G03*
X674116Y541782I-2032J0D01*
G01*
X605790Y525272D02*
G03*
X605790Y525272I-2032J0D01*
G01*
X596646Y533400D02*
G03*
X596646Y533400I-2032J0D01*
G01*
X605790Y541274D02*
G03*
X605790Y541274I-2032J0D01*
G01*
X698754Y509016D02*
G03*
X698754Y509016I-2032J0D01*
G01*
X617474Y498348D02*
G03*
X617474Y498348I-2032J0D01*
G01*
X928624Y99314D02*
G03*
X928624Y99314I-2032J0D01*
G01*
X549148Y343154D02*
G03*
X549148Y343154I-2032J0D01*
G01*
X439928Y342900D02*
G03*
X439928Y342900I-2032J0D01*
G01*
X720344Y281432D02*
G03*
X720344Y281432I-2032J0D01*
G01*
X657860Y266700D02*
G03*
X657860Y266700I-2032J0D01*
G01*
Y253238D02*
G03*
X657860Y253238I-2032J0D01*
G01*
X737362Y281432D02*
G03*
X737362Y281432I-2032J0D01*
G01*
X291694Y544105D02*
G03*
X291694Y544105I-2032J0D01*
G01*
X247752Y544164D02*
G03*
X247752Y544164I-2032J0D01*
G01*
X203556Y544139D02*
G03*
X203556Y544139I-2032J0D01*
G01*
X159614D02*
G03*
X159614Y544139I-2032J0D01*
G01*
X991362Y153416D02*
G03*
X991362Y153416I-2032J0D01*
G01*
Y164677D02*
G03*
X991362Y164677I-2032J0D01*
G01*
Y175937D02*
G03*
X991362Y175937I-2032J0D01*
G01*
Y187198D02*
G03*
X991362Y187198I-2032J0D01*
G01*
X966649Y208272D02*
G03*
X966649Y208272I-2032J0D01*
G01*
X821797Y373994D02*
G03*
X821797Y373994I-2032J0D01*
G01*
X864870Y162814D02*
G03*
X864870Y162814I-2032J0D01*
G01*
X878078D02*
G03*
X878078Y162814I-2032J0D01*
G01*
X891286D02*
G03*
X891286Y162814I-2032J0D01*
G01*
X904494D02*
G03*
X904494Y162814I-2032J0D01*
G01*
X182880Y231394D02*
G03*
X182880Y231394I-2032J0D01*
G01*
X213106Y290068D02*
G03*
X213106Y290068I-2032J0D01*
G01*
X650240Y67310D02*
G03*
X650240Y67310I-2032J0D01*
G01*
X623824D02*
G03*
X623824Y67310I-2032J0D01*
G01*
X637032D02*
G03*
X637032Y67310I-2032J0D01*
G01*
X894842Y187198D02*
G03*
X894842Y187198I-2032J0D01*
G01*
X467360Y317754D02*
G03*
X467360Y317754I-2032J0D01*
G01*
X358902Y317500D02*
G03*
X358902Y317500I-2032J0D01*
G01*
X514604Y383286D02*
G03*
X514604Y383286I-2032J0D01*
G01*
X489071Y383089D02*
G03*
X489071Y383089I-2032J0D01*
G01*
X402844Y382270D02*
G03*
X402844Y382270I-2032J0D01*
G01*
X377190D02*
G03*
X377190Y382270I-2032J0D01*
G01*
X960882Y153162D02*
G03*
X960882Y153162I-2032J0D01*
G01*
Y164084D02*
G03*
X960882Y164084I-2032J0D01*
G01*
Y175260D02*
G03*
X960882Y175260I-2032J0D01*
G01*
X752348Y101854D02*
G03*
X752348Y101854I-2032J0D01*
G01*
X591820Y103124D02*
G03*
X591820Y103124I-2032J0D01*
G01*
X435610Y231140D02*
G03*
X435610Y231140I-2032J0D01*
G01*
X390144Y204724D02*
G03*
X390144Y204724I-2032J0D01*
G01*
Y217424D02*
G03*
X390144Y217424I-2032J0D01*
G01*
X282584Y223997D02*
G03*
X282584Y223997I-2032J0D01*
G01*
X391668Y242824D02*
G03*
X391668Y242824I-2032J0D01*
G01*
X365760Y208788D02*
G03*
X365760Y208788I-2032J0D01*
G01*
X272796Y369062D02*
G03*
X272796Y369062I-2032J0D01*
G01*
X390144Y192024D02*
G03*
X390144Y192024I-2032J0D01*
G01*
X228854Y369062D02*
G03*
X228854Y369062I-2032J0D01*
G01*
X390144Y179324D02*
G03*
X390144Y179324I-2032J0D01*
G01*
X184658Y368808D02*
G03*
X184658Y368808I-2032J0D01*
G01*
X390144Y166624D02*
G03*
X390144Y166624I-2032J0D01*
G01*
X140716Y369062D02*
G03*
X140716Y369062I-2032J0D01*
G01*
X390144Y141224D02*
G03*
X390144Y141224I-2032J0D01*
G01*
X593852Y153670D02*
G03*
X593852Y153670I-2032J0D01*
G01*
Y141224D02*
G03*
X593852Y141224I-2032J0D01*
G01*
X807466Y327406D02*
G03*
X807466Y327406I-2032J0D01*
G01*
Y340106D02*
G03*
X807466Y340106I-2032J0D01*
G01*
X376936Y336550D02*
G03*
X376936Y336550I-2032J0D01*
G01*
X426212Y323850D02*
G03*
X426212Y323850I-2032J0D01*
G01*
X593852Y128524D02*
G03*
X593852Y128524I-2032J0D01*
G01*
X486156Y336804D02*
G03*
X486156Y336804I-2032J0D01*
G01*
X593787Y115750D02*
G03*
X593787Y115750I-2032J0D01*
G01*
X535432Y309372D02*
G03*
X535432Y309372I-2032J0D01*
G01*
X540258Y506730D02*
G03*
X540258Y506730I-2032J0D01*
G01*
X428244D02*
G03*
X428244Y506730I-2032J0D01*
G01*
X399034Y536448D02*
G03*
X399034Y536448I-2032J0D01*
G01*
X709168Y619760D02*
G03*
X709168Y619760I-2032J0D01*
G01*
X1129030D02*
G03*
X1129030Y619760I-2032J0D01*
G01*
X1059180D02*
G03*
X1059180Y619760I-2032J0D01*
G01*
X989330D02*
G03*
X989330Y619760I-2032J0D01*
G01*
X919226D02*
G03*
X919226Y619760I-2032J0D01*
G01*
X849376D02*
G03*
X849376Y619760I-2032J0D01*
G01*
X779272D02*
G03*
X779272Y619760I-2032J0D01*
G01*
X639318D02*
G03*
X639318Y619760I-2032J0D01*
G01*
D160*
X1049736Y65245D02*
G03*
X1049736Y65245I-1016J0D01*
G01*
X322526Y247904D02*
G03*
X322526Y247904I-1016J0D01*
G01*
X322580Y280416D02*
G03*
X322580Y280416I-1016J0D01*
G01*
X348234Y254000D02*
G03*
X348234Y254000I-1016J0D01*
G01*
X389128Y103378D02*
G03*
X389128Y103378I-1016J0D01*
G01*
X346964Y207772D02*
G03*
X346964Y207772I-1016J0D01*
G01*
X330200D02*
G03*
X330200Y207772I-1016J0D01*
G01*
X502920Y505206D02*
G03*
X502920Y505206I-1016J0D01*
G01*
X391540D02*
G03*
X391540Y505206I-1016J0D01*
G01*
X506730Y536448D02*
G03*
X506730Y536448I-1016J0D01*
G01*
X457708D02*
G03*
X457708Y536448I-1016J0D01*
G01*
X348996Y536702D02*
G03*
X348996Y536702I-1016J0D01*
G01*
X673100Y554736D02*
G03*
X673100Y554736I-1016J0D01*
G01*
X683768Y548640D02*
G03*
X683768Y548640I-1016J0D01*
G01*
X673100Y541782D02*
G03*
X673100Y541782I-1016J0D01*
G01*
X604774Y525272D02*
G03*
X604774Y525272I-1016J0D01*
G01*
X595630Y533400D02*
G03*
X595630Y533400I-1016J0D01*
G01*
X604774Y541274D02*
G03*
X604774Y541274I-1016J0D01*
G01*
X697738Y509016D02*
G03*
X697738Y509016I-1016J0D01*
G01*
X616458Y498348D02*
G03*
X616458Y498348I-1016J0D01*
G01*
X927608Y99314D02*
G03*
X927608Y99314I-1016J0D01*
G01*
X548132Y343154D02*
G03*
X548132Y343154I-1016J0D01*
G01*
X438912Y342900D02*
G03*
X438912Y342900I-1016J0D01*
G01*
X719328Y281432D02*
G03*
X719328Y281432I-1016J0D01*
G01*
X656844Y266700D02*
G03*
X656844Y266700I-1016J0D01*
G01*
Y253238D02*
G03*
X656844Y253238I-1016J0D01*
G01*
X736346Y281432D02*
G03*
X736346Y281432I-1016J0D01*
G01*
X290678Y544105D02*
G03*
X290678Y544105I-1016J0D01*
G01*
X246736Y544164D02*
G03*
X246736Y544164I-1016J0D01*
G01*
X202540Y544139D02*
G03*
X202540Y544139I-1016J0D01*
G01*
X158598D02*
G03*
X158598Y544139I-1016J0D01*
G01*
X990346Y153416D02*
G03*
X990346Y153416I-1016J0D01*
G01*
Y164677D02*
G03*
X990346Y164677I-1016J0D01*
G01*
Y175937D02*
G03*
X990346Y175937I-1016J0D01*
G01*
Y187198D02*
G03*
X990346Y187198I-1016J0D01*
G01*
X965633Y208272D02*
G03*
X965633Y208272I-1016J0D01*
G01*
X820781Y373994D02*
G03*
X820781Y373994I-1016J0D01*
G01*
X863854Y162814D02*
G03*
X863854Y162814I-1016J0D01*
G01*
X877062D02*
G03*
X877062Y162814I-1016J0D01*
G01*
X890270D02*
G03*
X890270Y162814I-1016J0D01*
G01*
X903478D02*
G03*
X903478Y162814I-1016J0D01*
G01*
X181864Y231394D02*
G03*
X181864Y231394I-1016J0D01*
G01*
X212090Y290068D02*
G03*
X212090Y290068I-1016J0D01*
G01*
X649224Y67310D02*
G03*
X649224Y67310I-1016J0D01*
G01*
X622808D02*
G03*
X622808Y67310I-1016J0D01*
G01*
X636016D02*
G03*
X636016Y67310I-1016J0D01*
G01*
X893826Y187198D02*
G03*
X893826Y187198I-1016J0D01*
G01*
X466344Y317754D02*
G03*
X466344Y317754I-1016J0D01*
G01*
X357886Y317500D02*
G03*
X357886Y317500I-1016J0D01*
G01*
X513588Y383286D02*
G03*
X513588Y383286I-1016J0D01*
G01*
X488055Y383089D02*
G03*
X488055Y383089I-1016J0D01*
G01*
X401828Y382270D02*
G03*
X401828Y382270I-1016J0D01*
G01*
X376174D02*
G03*
X376174Y382270I-1016J0D01*
G01*
X959866Y153162D02*
G03*
X959866Y153162I-1016J0D01*
G01*
Y164084D02*
G03*
X959866Y164084I-1016J0D01*
G01*
Y175260D02*
G03*
X959866Y175260I-1016J0D01*
G01*
X751332Y101854D02*
G03*
X751332Y101854I-1016J0D01*
G01*
X590804Y103124D02*
G03*
X590804Y103124I-1016J0D01*
G01*
X434594Y231140D02*
G03*
X434594Y231140I-1016J0D01*
G01*
X389128Y204724D02*
G03*
X389128Y204724I-1016J0D01*
G01*
Y217424D02*
G03*
X389128Y217424I-1016J0D01*
G01*
X281568Y223997D02*
G03*
X281568Y223997I-1016J0D01*
G01*
X390652Y242824D02*
G03*
X390652Y242824I-1016J0D01*
G01*
X364744Y208788D02*
G03*
X364744Y208788I-1016J0D01*
G01*
X271780Y369062D02*
G03*
X271780Y369062I-1016J0D01*
G01*
X389128Y192024D02*
G03*
X389128Y192024I-1016J0D01*
G01*
X227838Y369062D02*
G03*
X227838Y369062I-1016J0D01*
G01*
X389128Y179324D02*
G03*
X389128Y179324I-1016J0D01*
G01*
X183642Y368808D02*
G03*
X183642Y368808I-1016J0D01*
G01*
X389128Y166624D02*
G03*
X389128Y166624I-1016J0D01*
G01*
X139700Y369062D02*
G03*
X139700Y369062I-1016J0D01*
G01*
X389128Y141224D02*
G03*
X389128Y141224I-1016J0D01*
G01*
X592836Y153670D02*
G03*
X592836Y153670I-1016J0D01*
G01*
Y141224D02*
G03*
X592836Y141224I-1016J0D01*
G01*
X806450Y327406D02*
G03*
X806450Y327406I-1016J0D01*
G01*
Y340106D02*
G03*
X806450Y340106I-1016J0D01*
G01*
X375920Y336550D02*
G03*
X375920Y336550I-1016J0D01*
G01*
X425196Y323850D02*
G03*
X425196Y323850I-1016J0D01*
G01*
X592836Y128524D02*
G03*
X592836Y128524I-1016J0D01*
G01*
X485140Y336804D02*
G03*
X485140Y336804I-1016J0D01*
G01*
X592771Y115750D02*
G03*
X592771Y115750I-1016J0D01*
G01*
X534416Y309372D02*
G03*
X534416Y309372I-1016J0D01*
G01*
X539242Y506730D02*
G03*
X539242Y506730I-1016J0D01*
G01*
X427228D02*
G03*
X427228Y506730I-1016J0D01*
G01*
X398018Y536448D02*
G03*
X398018Y536448I-1016J0D01*
G01*
X708152Y619760D02*
G03*
X708152Y619760I-1016J0D01*
G01*
X1128014D02*
G03*
X1128014Y619760I-1016J0D01*
G01*
X1058164D02*
G03*
X1058164Y619760I-1016J0D01*
G01*
X988314D02*
G03*
X988314Y619760I-1016J0D01*
G01*
X918210D02*
G03*
X918210Y619760I-1016J0D01*
G01*
X848360D02*
G03*
X848360Y619760I-1016J0D01*
G01*
X778256D02*
G03*
X778256Y619760I-1016J0D01*
G01*
X638302D02*
G03*
X638302Y619760I-1016J0D01*
G01*
M02*
