G04*
G04 #@! TF.GenerationSoftware,Altium Limited,Altium Designer,23.1.1 (15)*
G04*
G04 Layer_Color=128*
%FSLAX44Y44*%
%MOMM*%
G71*
G04*
G04 #@! TF.SameCoordinates,834500F6-C2E4-4EAC-996A-B368302F4D9C*
G04*
G04*
G04 #@! TF.FilePolarity,Positive*
G04*
G01*
G75*
%ADD158C,0.0508*%
D158*
X31750Y367700D02*
X41750D01*
X36750Y362700D02*
Y372700D01*
X31750Y342700D02*
X41750D01*
X36750Y337700D02*
Y347700D01*
X31750Y292700D02*
X41750D01*
X36750Y287700D02*
Y297700D01*
X31750Y317700D02*
X41750D01*
X36750Y312700D02*
Y322700D01*
X346548Y19304D02*
X358048D01*
X352298Y13554D02*
Y25054D01*
X371948Y19304D02*
X383448D01*
X377698Y13554D02*
Y25054D01*
X1053852Y88900D02*
X1062852D01*
X1058352Y84400D02*
Y93400D01*
X1033852Y88900D02*
X1042852D01*
X1038352Y84400D02*
Y93400D01*
X1013852Y88900D02*
X1022852D01*
X1018352Y84400D02*
Y93400D01*
X993852Y88900D02*
X1002852D01*
X998352Y84400D02*
Y93400D01*
X1281437Y284988D02*
X1298187D01*
X1289812Y276613D02*
Y293363D01*
X1281437Y259588D02*
X1298187D01*
X1289812Y251213D02*
Y267963D01*
X1281437Y234188D02*
X1298187D01*
X1289812Y225813D02*
Y242563D01*
X1281437Y208788D02*
X1298187D01*
X1289812Y200413D02*
Y217163D01*
X1357637Y208788D02*
X1374387D01*
X1366012Y200413D02*
Y217163D01*
X1357637Y234188D02*
X1374387D01*
X1366012Y225813D02*
Y242563D01*
X1357637Y259588D02*
X1374387D01*
X1366012Y251213D02*
Y267963D01*
X1357637Y284988D02*
X1374387D01*
X1366012Y276613D02*
Y293363D01*
X1210696Y343686D02*
X1227196D01*
X1218946Y335436D02*
Y351936D01*
X1210696Y383286D02*
X1227196D01*
X1218946Y375036D02*
Y391536D01*
X1288538Y448216D02*
X1299538D01*
X1294038Y442716D02*
Y453716D01*
X1213538Y468216D02*
X1224538D01*
X1219038Y462716D02*
Y473716D01*
X1164554Y32512D02*
X1173554D01*
X1169054Y28012D02*
Y37012D01*
X1189554Y32512D02*
X1198554D01*
X1194054Y28012D02*
Y37012D01*
X938114Y27432D02*
X949614D01*
X943864Y21682D02*
Y33182D01*
X912714Y27432D02*
X924214D01*
X918464Y21682D02*
Y33182D01*
X191334Y19304D02*
X200334D01*
X195834Y14804D02*
Y23804D01*
X216734Y19304D02*
X225734D01*
X221234Y14804D02*
Y23804D01*
X242134Y19304D02*
X251134D01*
X246634Y14804D02*
Y23804D01*
X267534Y19304D02*
X276534D01*
X272034Y14804D02*
Y23804D01*
X292934Y19304D02*
X301934D01*
X297434Y14804D02*
Y23804D01*
X318334Y19304D02*
X327334D01*
X322834Y14804D02*
Y23804D01*
X488775Y171000D02*
X490775D01*
X489775Y170000D02*
Y172000D01*
X507125Y171000D02*
X509125D01*
X508125Y170000D02*
Y172000D01*
X479600Y161825D02*
X481600D01*
X480600Y160825D02*
Y162825D01*
X497950Y161825D02*
X499950D01*
X498950Y160825D02*
Y162825D01*
X516300Y161825D02*
X518300D01*
X517300Y160825D02*
Y162825D01*
X488775Y152650D02*
X490775D01*
X489775Y151650D02*
Y153650D01*
X507125Y152650D02*
X509125D01*
X508125Y151650D02*
Y153650D01*
X479600Y143475D02*
X481600D01*
X480600Y142475D02*
Y144475D01*
X497950Y143475D02*
X499950D01*
X498950Y142475D02*
Y144475D01*
X516300Y143475D02*
X518300D01*
X517300Y142475D02*
Y144475D01*
X488775Y134300D02*
X490775D01*
X489775Y133300D02*
Y135300D01*
X507125Y134300D02*
X509125D01*
X508125Y133300D02*
Y135300D01*
X1009298Y512318D02*
X1025798D01*
X1017548Y504068D02*
Y520568D01*
X1048898Y512318D02*
X1065398D01*
X1057148Y504068D02*
Y520568D01*
X1238600Y715120D02*
X1262600D01*
X1250600Y703120D02*
Y727120D01*
X1359600Y715120D02*
X1383600D01*
X1371600Y703120D02*
Y727120D01*
X1287600Y706120D02*
X1299600D01*
X1293600Y700120D02*
Y712120D01*
X1322600Y706120D02*
X1334600D01*
X1328600Y700120D02*
Y712120D01*
X1156050Y706120D02*
X1168050D01*
X1162050Y700120D02*
Y712120D01*
X1121050Y706120D02*
X1133050D01*
X1127050Y700120D02*
Y712120D01*
X1086050Y706120D02*
X1098050D01*
X1092050Y700120D02*
Y712120D01*
X1051050Y706120D02*
X1063050D01*
X1057050Y700120D02*
Y712120D01*
X1016050Y706120D02*
X1028050D01*
X1022050Y700120D02*
Y712120D01*
X981050Y706120D02*
X993050D01*
X987050Y700120D02*
Y712120D01*
X946050Y706120D02*
X958050D01*
X952050Y700120D02*
Y712120D01*
X911050Y706120D02*
X923050D01*
X917050Y700120D02*
Y712120D01*
X876050Y706120D02*
X888050D01*
X882050Y700120D02*
Y712120D01*
X841050Y706120D02*
X853050D01*
X847050Y700120D02*
Y712120D01*
X806050Y706120D02*
X818050D01*
X812050Y700120D02*
Y712120D01*
X771050Y706120D02*
X783050D01*
X777050Y700120D02*
Y712120D01*
X736050Y706120D02*
X748050D01*
X742050Y700120D02*
Y712120D01*
X701050Y706120D02*
X713050D01*
X707050Y700120D02*
Y712120D01*
X666050Y706120D02*
X678050D01*
X672050Y700120D02*
Y712120D01*
X631050Y706120D02*
X643050D01*
X637050Y700120D02*
Y712120D01*
X325258Y704972D02*
X339258D01*
X332258Y697972D02*
Y711972D01*
X360258Y704972D02*
X374258D01*
X367258Y697972D02*
Y711972D01*
X395258Y704972D02*
X409258D01*
X402258Y697972D02*
Y711972D01*
X430258Y704972D02*
X444258D01*
X437258Y697972D02*
Y711972D01*
X465258Y704972D02*
X479258D01*
X472258Y697972D02*
Y711972D01*
X500258Y704972D02*
X514258D01*
X507258Y697972D02*
Y711972D01*
X535258Y704972D02*
X549258D01*
X542258Y697972D02*
Y711972D01*
X570258Y704972D02*
X584258D01*
X577258Y697972D02*
Y711972D01*
X19572Y704972D02*
X33572D01*
X26572Y697972D02*
Y711972D01*
X54572Y704972D02*
X68572D01*
X61572Y697972D02*
Y711972D01*
X89572Y704972D02*
X103572D01*
X96572Y697972D02*
Y711972D01*
X124572Y704972D02*
X138572D01*
X131572Y697972D02*
Y711972D01*
X159572Y704972D02*
X173572D01*
X166572Y697972D02*
Y711972D01*
X194572Y704972D02*
X208572D01*
X201572Y697972D02*
Y711972D01*
X229572Y704972D02*
X243572D01*
X236572Y697972D02*
Y711972D01*
X264572Y704972D02*
X278572D01*
X271572Y697972D02*
Y711972D01*
X1154200Y635000D02*
X1157200D01*
X1155700Y633500D02*
Y636500D01*
X1154200Y584200D02*
X1157200D01*
X1155700Y582700D02*
Y585700D01*
X1128800Y584200D02*
X1131800D01*
X1130300Y582700D02*
Y585700D01*
X1103400Y635000D02*
X1106400D01*
X1104900Y633500D02*
Y636500D01*
X1078000Y635000D02*
X1081000D01*
X1079500Y633500D02*
Y636500D01*
X1078000Y533400D02*
X1081000D01*
X1079500Y531900D02*
Y534900D01*
X1052600Y584200D02*
X1055600D01*
X1054100Y582700D02*
Y585700D01*
X1052600Y533400D02*
X1055600D01*
X1054100Y531900D02*
Y534900D01*
X1052600Y482600D02*
X1055600D01*
X1054100Y481100D02*
Y484100D01*
X1027200Y482600D02*
X1030200D01*
X1028700Y481100D02*
Y484100D01*
X1001800Y482600D02*
X1004800D01*
X1003300Y481100D02*
Y484100D01*
X976400Y482600D02*
X979400D01*
X977900Y481100D02*
Y484100D01*
X938300Y558800D02*
X941300D01*
X939800Y557300D02*
Y560300D01*
X951000Y482600D02*
X954000D01*
X952500Y481100D02*
Y484100D01*
X925600Y584200D02*
X928600D01*
X927100Y582700D02*
Y585700D01*
X925600Y533400D02*
X928600D01*
X927100Y531900D02*
Y534900D01*
X925600Y482600D02*
X928600D01*
X927100Y481100D02*
Y484100D01*
X900200Y533400D02*
X903200D01*
X901700Y531900D02*
Y534900D01*
X900200Y482600D02*
X903200D01*
X901700Y481100D02*
Y484100D01*
X874800Y635000D02*
X877800D01*
X876300Y633500D02*
Y636500D01*
X874800Y533400D02*
X877800D01*
X876300Y531900D02*
Y534900D01*
X874800Y482600D02*
X877800D01*
X876300Y481100D02*
Y484100D01*
X849400Y584200D02*
X852400D01*
X850900Y582700D02*
Y585700D01*
X849400Y482600D02*
X852400D01*
X850900Y481100D02*
Y484100D01*
X824000Y635000D02*
X827000D01*
X825500Y633500D02*
Y636500D01*
X811300Y558800D02*
X814300D01*
X812800Y557300D02*
Y560300D01*
X798600Y635000D02*
X801600D01*
X800100Y633500D02*
Y636500D01*
X773200Y584200D02*
X776200D01*
X774700Y582700D02*
Y585700D01*
X747800Y635000D02*
X750800D01*
X749300Y633500D02*
Y636500D01*
X747800Y482600D02*
X750800D01*
X749300Y481100D02*
Y484100D01*
X722400Y584200D02*
X725400D01*
X723900Y582700D02*
Y585700D01*
X722400Y482600D02*
X725400D01*
X723900Y481100D02*
Y484100D01*
X646200Y584200D02*
X649200D01*
X647700Y582700D02*
Y585700D01*
X608100Y558800D02*
X611100D01*
X609600Y557300D02*
Y560300D01*
X595400Y635000D02*
X598400D01*
X596900Y633500D02*
Y636500D01*
X582700Y609600D02*
X585700D01*
X584200Y608100D02*
Y611100D01*
X582700Y558800D02*
X585700D01*
X584200Y557300D02*
Y560300D01*
X582700Y508000D02*
X585700D01*
X584200Y506500D02*
Y509500D01*
X570000Y635000D02*
X573000D01*
X571500Y633500D02*
Y636500D01*
X557300Y609600D02*
X560300D01*
X558800Y608100D02*
Y611100D01*
X570000Y584200D02*
X573000D01*
X571500Y582700D02*
Y585700D01*
X557300Y558800D02*
X560300D01*
X558800Y557300D02*
Y560300D01*
X570000Y482600D02*
X573000D01*
X571500Y481100D02*
Y484100D01*
X531900Y609600D02*
X534900D01*
X533400Y608100D02*
Y611100D01*
X544600Y584200D02*
X547600D01*
X546100Y582700D02*
Y585700D01*
X519200Y635000D02*
X522200D01*
X520700Y633500D02*
Y636500D01*
X506500Y609600D02*
X509500D01*
X508000Y608100D02*
Y611100D01*
X519200Y584200D02*
X522200D01*
X520700Y582700D02*
Y585700D01*
X493800Y635000D02*
X496800D01*
X495300Y633500D02*
Y636500D01*
X481100Y609600D02*
X484100D01*
X482600Y608100D02*
Y611100D01*
X455700Y609600D02*
X458700D01*
X457200Y608100D02*
Y611100D01*
X443000Y635000D02*
X446000D01*
X444500Y633500D02*
Y636500D01*
X430300Y609600D02*
X433300D01*
X431800Y608100D02*
Y611100D01*
X430300Y558800D02*
X433300D01*
X431800Y557300D02*
Y560300D01*
X443000Y482600D02*
X446000D01*
X444500Y481100D02*
Y484100D01*
X417600Y635000D02*
X420600D01*
X419100Y633500D02*
Y636500D01*
X404900Y609600D02*
X407900D01*
X406400Y608100D02*
Y611100D01*
X417600Y584200D02*
X420600D01*
X419100Y582700D02*
Y585700D01*
X379500Y609600D02*
X382500D01*
X381000Y608100D02*
Y611100D01*
X392200Y584200D02*
X395200D01*
X393700Y582700D02*
Y585700D01*
X379500Y558800D02*
X382500D01*
X381000Y557300D02*
Y560300D01*
X366800Y635000D02*
X369800D01*
X368300Y633500D02*
Y636500D01*
X354100Y609600D02*
X357100D01*
X355600Y608100D02*
Y611100D01*
X328700Y609600D02*
X331700D01*
X330200Y608100D02*
Y611100D01*
X328700Y508000D02*
X331700D01*
X330200Y506500D02*
Y509500D01*
X316000Y635000D02*
X319000D01*
X317500Y633500D02*
Y636500D01*
X303300Y609600D02*
X306300D01*
X304800Y608100D02*
Y611100D01*
X316000Y584200D02*
X319000D01*
X317500Y582700D02*
Y585700D01*
X303300Y558800D02*
X306300D01*
X304800Y557300D02*
Y560300D01*
X303300Y508000D02*
X306300D01*
X304800Y506500D02*
Y509500D01*
X316000Y482600D02*
X319000D01*
X317500Y481100D02*
Y484100D01*
X290600Y635000D02*
X293600D01*
X292100Y633500D02*
Y636500D01*
X290600Y584200D02*
X293600D01*
X292100Y582700D02*
Y585700D01*
X277900Y558800D02*
X280900D01*
X279400Y557300D02*
Y560300D01*
X290600Y482600D02*
X293600D01*
X292100Y481100D02*
Y484100D01*
X252500Y609600D02*
X255500D01*
X254000Y608100D02*
Y611100D01*
X252500Y508000D02*
X255500D01*
X254000Y506500D02*
Y509500D01*
X227100Y609600D02*
X230100D01*
X228600Y608100D02*
Y611100D01*
X201700Y609600D02*
X204700D01*
X203200Y608100D02*
Y611100D01*
X201700Y508000D02*
X204700D01*
X203200Y506500D02*
Y509500D01*
X214400Y482600D02*
X217400D01*
X215900Y481100D02*
Y484100D01*
X189000Y635000D02*
X192000D01*
X190500Y633500D02*
Y636500D01*
X176300Y609600D02*
X179300D01*
X177800Y608100D02*
Y611100D01*
X163600Y584200D02*
X166600D01*
X165100Y582700D02*
Y585700D01*
X150900Y508000D02*
X153900D01*
X152400Y506500D02*
Y509500D01*
X163600Y482600D02*
X166600D01*
X165100Y481100D02*
Y484100D01*
X87400Y635000D02*
X90400D01*
X88900Y633500D02*
Y636500D01*
X87400Y584200D02*
X90400D01*
X88900Y582700D02*
Y585700D01*
X87400Y533400D02*
X90400D01*
X88900Y531900D02*
Y534900D01*
X74700Y508000D02*
X77700D01*
X76200Y506500D02*
Y509500D01*
X74700Y355600D02*
X77700D01*
X76200Y354100D02*
Y357100D01*
X87400Y330200D02*
X90400D01*
X88900Y328700D02*
Y331700D01*
X49300Y660400D02*
X52300D01*
X50800Y658900D02*
Y661900D01*
X62000Y330200D02*
X65000D01*
X63500Y328700D02*
Y331700D01*
X23900Y508000D02*
X26900D01*
X25400Y506500D02*
Y509500D01*
X36600Y482600D02*
X39600D01*
X38100Y481100D02*
Y484100D01*
X23900Y457200D02*
X26900D01*
X25400Y455700D02*
Y458700D01*
X23900Y406400D02*
X26900D01*
X25400Y404900D02*
Y407900D01*
X23900Y304800D02*
X26900D01*
X25400Y303300D02*
Y306300D01*
X36600Y279400D02*
X39600D01*
X38100Y277900D02*
Y280900D01*
X23900Y254000D02*
X26900D01*
X25400Y252500D02*
Y255500D01*
X1319300Y127000D02*
X1322300D01*
X1320800Y125500D02*
Y128500D01*
X1319300Y25400D02*
X1322300D01*
X1320800Y23900D02*
Y26900D01*
X1293900Y127000D02*
X1296900D01*
X1295400Y125500D02*
Y128500D01*
X1306600Y101600D02*
X1309600D01*
X1308100Y100100D02*
Y103100D01*
X1293900Y76200D02*
X1296900D01*
X1295400Y74700D02*
Y77700D01*
X1306600Y50800D02*
X1309600D01*
X1308100Y49300D02*
Y52300D01*
X1293900Y25400D02*
X1296900D01*
X1295400Y23900D02*
Y26900D01*
X1268500Y127000D02*
X1271500D01*
X1270000Y125500D02*
Y128500D01*
X1281200Y101600D02*
X1284200D01*
X1282700Y100100D02*
Y103100D01*
X1268500Y76200D02*
X1271500D01*
X1270000Y74700D02*
Y77700D01*
X1281200Y50800D02*
X1284200D01*
X1282700Y49300D02*
Y52300D01*
X1268500Y25400D02*
X1271500D01*
X1270000Y23900D02*
Y26900D01*
X1243100Y127000D02*
X1246100D01*
X1244600Y125500D02*
Y128500D01*
X1255800Y101600D02*
X1258800D01*
X1257300Y100100D02*
Y103100D01*
X1243100Y76200D02*
X1246100D01*
X1244600Y74700D02*
Y77700D01*
X1255800Y50800D02*
X1258800D01*
X1257300Y49300D02*
Y52300D01*
X1243100Y25400D02*
X1246100D01*
X1244600Y23900D02*
Y26900D01*
X1217700Y127000D02*
X1220700D01*
X1219200Y125500D02*
Y128500D01*
X1230400Y101600D02*
X1233400D01*
X1231900Y100100D02*
Y103100D01*
X1217700Y76200D02*
X1220700D01*
X1219200Y74700D02*
Y77700D01*
X1230400Y50800D02*
X1233400D01*
X1231900Y49300D02*
Y52300D01*
X1217700Y25400D02*
X1220700D01*
X1219200Y23900D02*
Y26900D01*
X1192300Y127000D02*
X1195300D01*
X1193800Y125500D02*
Y128500D01*
X1205000Y101600D02*
X1208000D01*
X1206500Y100100D02*
Y103100D01*
X1192300Y76200D02*
X1195300D01*
X1193800Y74700D02*
Y77700D01*
X1205000Y50800D02*
X1208000D01*
X1206500Y49300D02*
Y52300D01*
X1166900Y127000D02*
X1169900D01*
X1168400Y125500D02*
Y128500D01*
X1179600Y101600D02*
X1182600D01*
X1181100Y100100D02*
Y103100D01*
X1141500Y127000D02*
X1144500D01*
X1143000Y125500D02*
Y128500D01*
X1154200Y101600D02*
X1157200D01*
X1155700Y100100D02*
Y103100D01*
X1128800Y152400D02*
X1131800D01*
X1130300Y150900D02*
Y153900D01*
X1116100Y25400D02*
X1119100D01*
X1117600Y23900D02*
Y26900D01*
X1090700Y177800D02*
X1093700D01*
X1092200Y176300D02*
Y179300D01*
X1103400Y152400D02*
X1106400D01*
X1104900Y150900D02*
Y153900D01*
X1103400Y50800D02*
X1106400D01*
X1104900Y49300D02*
Y52300D01*
X1090700Y25400D02*
X1093700D01*
X1092200Y23900D02*
Y26900D01*
X1065300Y381000D02*
X1068300D01*
X1066800Y379500D02*
Y382500D01*
X1065300Y330200D02*
X1068300D01*
X1066800Y328700D02*
Y331700D01*
X1065300Y279400D02*
X1068300D01*
X1066800Y277900D02*
Y280900D01*
X1065300Y228600D02*
X1068300D01*
X1066800Y227100D02*
Y230100D01*
X1078000Y203200D02*
X1081000D01*
X1079500Y201700D02*
Y204700D01*
X1078000Y50800D02*
X1081000D01*
X1079500Y49300D02*
Y52300D01*
X1052600Y406400D02*
X1055600D01*
X1054100Y404900D02*
Y407900D01*
X1039900Y381000D02*
X1042900D01*
X1041400Y379500D02*
Y382500D01*
X1052600Y355600D02*
X1055600D01*
X1054100Y354100D02*
Y357100D01*
X1039900Y330200D02*
X1042900D01*
X1041400Y328700D02*
Y331700D01*
X1052600Y304800D02*
X1055600D01*
X1054100Y303300D02*
Y306300D01*
X1039900Y279400D02*
X1042900D01*
X1041400Y277900D02*
Y280900D01*
X1052600Y254000D02*
X1055600D01*
X1054100Y252500D02*
Y255500D01*
X1039900Y228600D02*
X1042900D01*
X1041400Y227100D02*
Y230100D01*
X1052600Y203200D02*
X1055600D01*
X1054100Y201700D02*
Y204700D01*
X1039900Y25400D02*
X1042900D01*
X1041400Y23900D02*
Y26900D01*
X1027200Y406400D02*
X1030200D01*
X1028700Y404900D02*
Y407900D01*
X1014500Y381000D02*
X1017500D01*
X1016000Y379500D02*
Y382500D01*
X1027200Y355600D02*
X1030200D01*
X1028700Y354100D02*
Y357100D01*
X1014500Y330200D02*
X1017500D01*
X1016000Y328700D02*
Y331700D01*
X1027200Y304800D02*
X1030200D01*
X1028700Y303300D02*
Y306300D01*
X1014500Y279400D02*
X1017500D01*
X1016000Y277900D02*
Y280900D01*
X1027200Y254000D02*
X1030200D01*
X1028700Y252500D02*
Y255500D01*
X1014500Y228600D02*
X1017500D01*
X1016000Y227100D02*
Y230100D01*
X1027200Y203200D02*
X1030200D01*
X1028700Y201700D02*
Y204700D01*
X1027200Y101600D02*
X1030200D01*
X1028700Y100100D02*
Y103100D01*
X1014500Y25400D02*
X1017500D01*
X1016000Y23900D02*
Y26900D01*
X1001800Y406400D02*
X1004800D01*
X1003300Y404900D02*
Y407900D01*
X989100Y381000D02*
X992100D01*
X990600Y379500D02*
Y382500D01*
X1001800Y355600D02*
X1004800D01*
X1003300Y354100D02*
Y357100D01*
X989100Y330200D02*
X992100D01*
X990600Y328700D02*
Y331700D01*
X1001800Y304800D02*
X1004800D01*
X1003300Y303300D02*
Y306300D01*
X989100Y279400D02*
X992100D01*
X990600Y277900D02*
Y280900D01*
X1001800Y254000D02*
X1004800D01*
X1003300Y252500D02*
Y255500D01*
X989100Y228600D02*
X992100D01*
X990600Y227100D02*
Y230100D01*
X1001800Y203200D02*
X1004800D01*
X1003300Y201700D02*
Y204700D01*
X1001800Y101600D02*
X1004800D01*
X1003300Y100100D02*
Y103100D01*
X989100Y76200D02*
X992100D01*
X990600Y74700D02*
Y77700D01*
X976400Y406400D02*
X979400D01*
X977900Y404900D02*
Y407900D01*
X963700Y381000D02*
X966700D01*
X965200Y379500D02*
Y382500D01*
X976400Y355600D02*
X979400D01*
X977900Y354100D02*
Y357100D01*
X963700Y330200D02*
X966700D01*
X965200Y328700D02*
Y331700D01*
X976400Y304800D02*
X979400D01*
X977900Y303300D02*
Y306300D01*
X963700Y279400D02*
X966700D01*
X965200Y277900D02*
Y280900D01*
X963700Y228600D02*
X966700D01*
X965200Y227100D02*
Y230100D01*
X976400Y101600D02*
X979400D01*
X977900Y100100D02*
Y103100D01*
X963700Y76200D02*
X966700D01*
X965200Y74700D02*
Y77700D01*
X976400Y50800D02*
X979400D01*
X977900Y49300D02*
Y52300D01*
X963700Y25400D02*
X966700D01*
X965200Y23900D02*
Y26900D01*
X951000Y406400D02*
X954000D01*
X952500Y404900D02*
Y407900D01*
X938300Y381000D02*
X941300D01*
X939800Y379500D02*
Y382500D01*
X951000Y355600D02*
X954000D01*
X952500Y354100D02*
Y357100D01*
X938300Y330200D02*
X941300D01*
X939800Y328700D02*
Y331700D01*
X951000Y304800D02*
X954000D01*
X952500Y303300D02*
Y306300D01*
X938300Y279400D02*
X941300D01*
X939800Y277900D02*
Y280900D01*
X951000Y254000D02*
X954000D01*
X952500Y252500D02*
Y255500D01*
X925600Y406400D02*
X928600D01*
X927100Y404900D02*
Y407900D01*
X912900Y381000D02*
X915900D01*
X914400Y379500D02*
Y382500D01*
X925600Y355600D02*
X928600D01*
X927100Y354100D02*
Y357100D01*
X912900Y330200D02*
X915900D01*
X914400Y328700D02*
Y331700D01*
X912900Y279400D02*
X915900D01*
X914400Y277900D02*
Y280900D01*
X912900Y127000D02*
X915900D01*
X914400Y125500D02*
Y128500D01*
X912900Y76200D02*
X915900D01*
X914400Y74700D02*
Y77700D01*
X925600Y50800D02*
X928600D01*
X927100Y49300D02*
Y52300D01*
X900200Y406400D02*
X903200D01*
X901700Y404900D02*
Y407900D01*
X887500Y381000D02*
X890500D01*
X889000Y379500D02*
Y382500D01*
X900200Y355600D02*
X903200D01*
X901700Y354100D02*
Y357100D01*
X887500Y330200D02*
X890500D01*
X889000Y328700D02*
Y331700D01*
X887500Y279400D02*
X890500D01*
X889000Y277900D02*
Y280900D01*
X887500Y127000D02*
X890500D01*
X889000Y125500D02*
Y128500D01*
X900200Y50800D02*
X903200D01*
X901700Y49300D02*
Y52300D01*
X887500Y25400D02*
X890500D01*
X889000Y23900D02*
Y26900D01*
X874800Y406400D02*
X877800D01*
X876300Y404900D02*
Y407900D01*
X862100Y381000D02*
X865100D01*
X863600Y379500D02*
Y382500D01*
X874800Y355600D02*
X877800D01*
X876300Y354100D02*
Y357100D01*
X862100Y330200D02*
X865100D01*
X863600Y328700D02*
Y331700D01*
X862100Y279400D02*
X865100D01*
X863600Y277900D02*
Y280900D01*
X862100Y127000D02*
X865100D01*
X863600Y125500D02*
Y128500D01*
X874800Y101600D02*
X877800D01*
X876300Y100100D02*
Y103100D01*
X874800Y50800D02*
X877800D01*
X876300Y49300D02*
Y52300D01*
X862100Y25400D02*
X865100D01*
X863600Y23900D02*
Y26900D01*
X849400Y406400D02*
X852400D01*
X850900Y404900D02*
Y407900D01*
X849400Y355600D02*
X852400D01*
X850900Y354100D02*
Y357100D01*
X836700Y279400D02*
X839700D01*
X838200Y277900D02*
Y280900D01*
X849400Y203200D02*
X852400D01*
X850900Y201700D02*
Y204700D01*
X836700Y127000D02*
X839700D01*
X838200Y125500D02*
Y128500D01*
X849400Y101600D02*
X852400D01*
X850900Y100100D02*
Y103100D01*
X836700Y25400D02*
X839700D01*
X838200Y23900D02*
Y26900D01*
X811300Y279400D02*
X814300D01*
X812800Y277900D02*
Y280900D01*
X824000Y203200D02*
X827000D01*
X825500Y201700D02*
Y204700D01*
X811300Y127000D02*
X814300D01*
X812800Y125500D02*
Y128500D01*
X824000Y101600D02*
X827000D01*
X825500Y100100D02*
Y103100D01*
X811300Y25400D02*
X814300D01*
X812800Y23900D02*
Y26900D01*
X798600Y203200D02*
X801600D01*
X800100Y201700D02*
Y204700D01*
X785900Y127000D02*
X788900D01*
X787400Y125500D02*
Y128500D01*
X798600Y101600D02*
X801600D01*
X800100Y100100D02*
Y103100D01*
X760500Y381000D02*
X763500D01*
X762000Y379500D02*
Y382500D01*
X760500Y330200D02*
X763500D01*
X762000Y328700D02*
Y331700D01*
X773200Y203200D02*
X776200D01*
X774700Y201700D02*
Y204700D01*
X760500Y127000D02*
X763500D01*
X762000Y125500D02*
Y128500D01*
X773200Y101600D02*
X776200D01*
X774700Y100100D02*
Y103100D01*
X773200Y50800D02*
X776200D01*
X774700Y49300D02*
Y52300D01*
X760500Y25400D02*
X763500D01*
X762000Y23900D02*
Y26900D01*
X747800Y406400D02*
X750800D01*
X749300Y404900D02*
Y407900D01*
X735100Y381000D02*
X738100D01*
X736600Y379500D02*
Y382500D01*
X747800Y355600D02*
X750800D01*
X749300Y354100D02*
Y357100D01*
X735100Y330200D02*
X738100D01*
X736600Y328700D02*
Y331700D01*
X747800Y304800D02*
X750800D01*
X749300Y303300D02*
Y306300D01*
X747800Y203200D02*
X750800D01*
X749300Y201700D02*
Y204700D01*
X735100Y127000D02*
X738100D01*
X736600Y125500D02*
Y128500D01*
X735100Y25400D02*
X738100D01*
X736600Y23900D02*
Y26900D01*
X722400Y406400D02*
X725400D01*
X723900Y404900D02*
Y407900D01*
X709700Y381000D02*
X712700D01*
X711200Y379500D02*
Y382500D01*
X722400Y355600D02*
X725400D01*
X723900Y354100D02*
Y357100D01*
X709700Y330200D02*
X712700D01*
X711200Y328700D02*
Y331700D01*
X722400Y304800D02*
X725400D01*
X723900Y303300D02*
Y306300D01*
X709700Y127000D02*
X712700D01*
X711200Y125500D02*
Y128500D01*
X722400Y101600D02*
X725400D01*
X723900Y100100D02*
Y103100D01*
X709700Y25400D02*
X712700D01*
X711200Y23900D02*
Y26900D01*
X697000Y406400D02*
X700000D01*
X698500Y404900D02*
Y407900D01*
X684300Y381000D02*
X687300D01*
X685800Y379500D02*
Y382500D01*
X697000Y355600D02*
X700000D01*
X698500Y354100D02*
Y357100D01*
X684300Y330200D02*
X687300D01*
X685800Y328700D02*
Y331700D01*
X697000Y304800D02*
X700000D01*
X698500Y303300D02*
Y306300D01*
X684300Y127000D02*
X687300D01*
X685800Y125500D02*
Y128500D01*
X697000Y101600D02*
X700000D01*
X698500Y100100D02*
Y103100D01*
X671600Y406400D02*
X674600D01*
X673100Y404900D02*
Y407900D01*
X658900Y381000D02*
X661900D01*
X660400Y379500D02*
Y382500D01*
X671600Y355600D02*
X674600D01*
X673100Y354100D02*
Y357100D01*
X658900Y330200D02*
X661900D01*
X660400Y328700D02*
Y331700D01*
X671600Y254000D02*
X674600D01*
X673100Y252500D02*
Y255500D01*
X658900Y127000D02*
X661900D01*
X660400Y125500D02*
Y128500D01*
X671600Y50800D02*
X674600D01*
X673100Y49300D02*
Y52300D01*
X658900Y25400D02*
X661900D01*
X660400Y23900D02*
Y26900D01*
X646200Y406400D02*
X649200D01*
X647700Y404900D02*
Y407900D01*
X633500Y381000D02*
X636500D01*
X635000Y379500D02*
Y382500D01*
X646200Y355600D02*
X649200D01*
X647700Y354100D02*
Y357100D01*
X646200Y50800D02*
X649200D01*
X647700Y49300D02*
Y52300D01*
X633500Y25400D02*
X636500D01*
X635000Y23900D02*
Y26900D01*
X620800Y406400D02*
X623800D01*
X622300Y404900D02*
Y407900D01*
X608100Y381000D02*
X611100D01*
X609600Y379500D02*
Y382500D01*
X620800Y304800D02*
X623800D01*
X622300Y303300D02*
Y306300D01*
X620800Y50800D02*
X623800D01*
X622300Y49300D02*
Y52300D01*
X608100Y25400D02*
X611100D01*
X609600Y23900D02*
Y26900D01*
X595400Y406400D02*
X598400D01*
X596900Y404900D02*
Y407900D01*
X582700Y330200D02*
X585700D01*
X584200Y328700D02*
Y331700D01*
X595400Y304800D02*
X598400D01*
X596900Y303300D02*
Y306300D01*
X595400Y50800D02*
X598400D01*
X596900Y49300D02*
Y52300D01*
X570000Y406400D02*
X573000D01*
X571500Y404900D02*
Y407900D01*
X570000Y304800D02*
X573000D01*
X571500Y303300D02*
Y306300D01*
X570000Y254000D02*
X573000D01*
X571500Y252500D02*
Y255500D01*
X531900Y228600D02*
X534900D01*
X533400Y227100D02*
Y230100D01*
X544600Y203200D02*
X547600D01*
X546100Y201700D02*
Y204700D01*
X531900Y177800D02*
X534900D01*
X533400Y176300D02*
Y179300D01*
X544600Y152400D02*
X547600D01*
X546100Y150900D02*
Y153900D01*
X531900Y127000D02*
X534900D01*
X533400Y125500D02*
Y128500D01*
X506500Y330200D02*
X509500D01*
X508000Y328700D02*
Y331700D01*
X519200Y304800D02*
X522200D01*
X520700Y303300D02*
Y306300D01*
X506500Y228600D02*
X509500D01*
X508000Y227100D02*
Y230100D01*
X519200Y203200D02*
X522200D01*
X520700Y201700D02*
Y204700D01*
X481100Y228600D02*
X484100D01*
X482600Y227100D02*
Y230100D01*
X493800Y203200D02*
X496800D01*
X495300Y201700D02*
Y204700D01*
X468400Y304800D02*
X471400D01*
X469900Y303300D02*
Y306300D01*
X468400Y203200D02*
X471400D01*
X469900Y201700D02*
Y204700D01*
X455700Y76200D02*
X458700D01*
X457200Y74700D02*
Y77700D01*
X443000Y406400D02*
X446000D01*
X444500Y404900D02*
Y407900D01*
X430300Y177800D02*
X433300D01*
X431800Y176300D02*
Y179300D01*
X430300Y127000D02*
X433300D01*
X431800Y125500D02*
Y128500D01*
X430300Y76200D02*
X433300D01*
X431800Y74700D02*
Y77700D01*
X392200Y254000D02*
X395200D01*
X393700Y252500D02*
Y255500D01*
X379500Y76200D02*
X382500D01*
X381000Y74700D02*
Y77700D01*
X366800Y50800D02*
X369800D01*
X368300Y49300D02*
Y52300D01*
X328700Y381000D02*
X331700D01*
X330200Y379500D02*
Y382500D01*
X328700Y330200D02*
X331700D01*
X330200Y328700D02*
Y331700D01*
X341400Y152400D02*
X344400D01*
X342900Y150900D02*
Y153900D01*
X341400Y101600D02*
X344400D01*
X342900Y100100D02*
Y103100D01*
X328700Y76200D02*
X331700D01*
X330200Y74700D02*
Y77700D01*
X341400Y50800D02*
X344400D01*
X342900Y49300D02*
Y52300D01*
X316000Y406400D02*
X319000D01*
X317500Y404900D02*
Y407900D01*
X303300Y381000D02*
X306300D01*
X304800Y379500D02*
Y382500D01*
X316000Y355600D02*
X319000D01*
X317500Y354100D02*
Y357100D01*
X316000Y203200D02*
X319000D01*
X317500Y201700D02*
Y204700D01*
X316000Y152400D02*
X319000D01*
X317500Y150900D02*
Y153900D01*
X303300Y76200D02*
X306300D01*
X304800Y74700D02*
Y77700D01*
X290600Y406400D02*
X293600D01*
X292100Y404900D02*
Y407900D01*
X252500Y381000D02*
X255500D01*
X254000Y379500D02*
Y382500D01*
X252500Y330200D02*
X255500D01*
X254000Y328700D02*
Y331700D01*
X252500Y177800D02*
X255500D01*
X254000Y176300D02*
Y179300D01*
X265200Y152400D02*
X268200D01*
X266700Y150900D02*
Y153900D01*
X252500Y127000D02*
X255500D01*
X254000Y125500D02*
Y128500D01*
X265200Y101600D02*
X268200D01*
X266700Y100100D02*
Y103100D01*
X252500Y76200D02*
X255500D01*
X254000Y74700D02*
Y77700D01*
X265200Y50800D02*
X268200D01*
X266700Y49300D02*
Y52300D01*
X227100Y330200D02*
X230100D01*
X228600Y328700D02*
Y331700D01*
X239800Y203200D02*
X242800D01*
X241300Y201700D02*
Y204700D01*
X239800Y152400D02*
X242800D01*
X241300Y150900D02*
Y153900D01*
X239800Y101600D02*
X242800D01*
X241300Y100100D02*
Y103100D01*
X239800Y50800D02*
X242800D01*
X241300Y49300D02*
Y52300D01*
X214400Y406400D02*
X217400D01*
X215900Y404900D02*
Y407900D01*
X201700Y381000D02*
X204700D01*
X203200Y379500D02*
Y382500D01*
X214400Y355600D02*
X217400D01*
X215900Y354100D02*
Y357100D01*
X201700Y330200D02*
X204700D01*
X203200Y328700D02*
Y331700D01*
X201700Y177800D02*
X204700D01*
X203200Y176300D02*
Y179300D01*
X201700Y127000D02*
X204700D01*
X203200Y125500D02*
Y128500D01*
X201700Y76200D02*
X204700D01*
X203200Y74700D02*
Y77700D01*
X176300Y330200D02*
X179300D01*
X177800Y328700D02*
Y331700D01*
X189000Y203200D02*
X192000D01*
X190500Y201700D02*
Y204700D01*
X176300Y177800D02*
X179300D01*
X177800Y176300D02*
Y179300D01*
X189000Y152400D02*
X192000D01*
X190500Y150900D02*
Y153900D01*
X176300Y127000D02*
X179300D01*
X177800Y125500D02*
Y128500D01*
X189000Y101600D02*
X192000D01*
X190500Y100100D02*
Y103100D01*
X176300Y76200D02*
X179300D01*
X177800Y74700D02*
Y77700D01*
X189000Y50800D02*
X192000D01*
X190500Y49300D02*
Y52300D01*
X176300Y25400D02*
X179300D01*
X177800Y23900D02*
Y26900D01*
X163600Y406400D02*
X166600D01*
X165100Y404900D02*
Y407900D01*
X150900Y381000D02*
X153900D01*
X152400Y379500D02*
Y382500D01*
X163600Y355600D02*
X166600D01*
X165100Y354100D02*
Y357100D01*
X150900Y330200D02*
X153900D01*
X152400Y328700D02*
Y331700D01*
X163600Y254000D02*
X166600D01*
X165100Y252500D02*
Y255500D01*
X150900Y228600D02*
X153900D01*
X152400Y227100D02*
Y230100D01*
X163600Y203200D02*
X166600D01*
X165100Y201700D02*
Y204700D01*
X150900Y177800D02*
X153900D01*
X152400Y176300D02*
Y179300D01*
X163600Y152400D02*
X166600D01*
X165100Y150900D02*
Y153900D01*
X150900Y127000D02*
X153900D01*
X152400Y125500D02*
Y128500D01*
X163600Y101600D02*
X166600D01*
X165100Y100100D02*
Y103100D01*
X150900Y76200D02*
X153900D01*
X152400Y74700D02*
Y77700D01*
X163600Y50800D02*
X166600D01*
X165100Y49300D02*
Y52300D01*
X150900Y25400D02*
X153900D01*
X152400Y23900D02*
Y26900D01*
X125500Y381000D02*
X128500D01*
X127000Y379500D02*
Y382500D01*
X138200Y355600D02*
X141200D01*
X139700Y354100D02*
Y357100D01*
X138200Y203200D02*
X141200D01*
X139700Y201700D02*
Y204700D01*
X125500Y177800D02*
X128500D01*
X127000Y176300D02*
Y179300D01*
X138200Y152400D02*
X141200D01*
X139700Y150900D02*
Y153900D01*
X125500Y127000D02*
X128500D01*
X127000Y125500D02*
Y128500D01*
X138200Y101600D02*
X141200D01*
X139700Y100100D02*
Y103100D01*
X125500Y76200D02*
X128500D01*
X127000Y74700D02*
Y77700D01*
X138200Y50800D02*
X141200D01*
X139700Y49300D02*
Y52300D01*
X125500Y25400D02*
X128500D01*
X127000Y23900D02*
Y26900D01*
X100100Y177800D02*
X103100D01*
X101600Y176300D02*
Y179300D01*
X112800Y152400D02*
X115800D01*
X114300Y150900D02*
Y153900D01*
X100100Y127000D02*
X103100D01*
X101600Y125500D02*
Y128500D01*
X112800Y101600D02*
X115800D01*
X114300Y100100D02*
Y103100D01*
X100100Y76200D02*
X103100D01*
X101600Y74700D02*
Y77700D01*
X112800Y50800D02*
X115800D01*
X114300Y49300D02*
Y52300D01*
X100100Y25400D02*
X103100D01*
X101600Y23900D02*
Y26900D01*
X74700Y177800D02*
X77700D01*
X76200Y176300D02*
Y179300D01*
X87400Y152400D02*
X90400D01*
X88900Y150900D02*
Y153900D01*
X87400Y101600D02*
X90400D01*
X88900Y100100D02*
Y103100D01*
X87400Y50800D02*
X90400D01*
X88900Y49300D02*
Y52300D01*
X74700Y25400D02*
X77700D01*
X76200Y23900D02*
Y26900D01*
X49300Y177800D02*
X52300D01*
X50800Y176300D02*
Y179300D01*
X62000Y152400D02*
X65000D01*
X63500Y150900D02*
Y153900D01*
X23900Y177800D02*
X26900D01*
X25400Y176300D02*
Y179300D01*
X36600Y152400D02*
X39600D01*
X38100Y150900D02*
Y153900D01*
X23900Y25400D02*
X26900D01*
X25400Y23900D02*
Y26900D01*
X1046815Y65245D02*
X1050625D01*
X1048720Y63340D02*
Y67150D01*
X319605Y247904D02*
X323415D01*
X321510Y245999D02*
Y249809D01*
X319659Y280416D02*
X323469D01*
X321564Y278511D02*
Y282321D01*
X345313Y254000D02*
X349123D01*
X347218Y252095D02*
Y255905D01*
X1216918Y286380D02*
X1219918D01*
X1218418Y284880D02*
Y287880D01*
X1216918Y277368D02*
X1219918D01*
X1218418Y275868D02*
Y278868D01*
X1216918Y268356D02*
X1219918D01*
X1218418Y266856D02*
Y269856D01*
X1150918Y286380D02*
X1153918D01*
X1152418Y284880D02*
Y287880D01*
X1150918Y277368D02*
X1153918D01*
X1152418Y275868D02*
Y278868D01*
X1150918Y268356D02*
X1153918D01*
X1152418Y266856D02*
Y269856D01*
X386207Y103378D02*
X390017D01*
X388112Y101473D02*
Y105283D01*
X344043Y207772D02*
X347853D01*
X345948Y205867D02*
Y209677D01*
X327279Y207772D02*
X331089D01*
X329184Y205867D02*
Y209677D01*
X1183918Y268356D02*
X1186918D01*
X1185418Y266856D02*
Y269856D01*
X1183918Y277368D02*
X1186918D01*
X1185418Y275868D02*
Y278868D01*
X1183918Y286380D02*
X1186918D01*
X1185418Y284880D02*
Y287880D01*
X1282724Y569572D02*
X1285724D01*
X1284224Y568072D02*
Y571072D01*
X1282724Y587653D02*
X1285724D01*
X1284224Y586153D02*
Y589153D01*
X1282724Y578612D02*
X1285724D01*
X1284224Y577112D02*
Y580112D01*
X1282724Y560560D02*
X1285724D01*
X1284224Y559060D02*
Y562060D01*
X1282724Y551548D02*
X1285724D01*
X1284224Y550048D02*
Y553048D01*
X1298472Y569572D02*
X1301472D01*
X1299972Y568072D02*
Y571072D01*
X1266976Y569572D02*
X1269976D01*
X1268476Y568072D02*
Y571072D01*
X1290598Y569572D02*
X1293598D01*
X1292098Y568072D02*
Y571072D01*
X1274850Y569572D02*
X1277850D01*
X1276350Y568072D02*
Y571072D01*
X1222272Y569572D02*
X1225272D01*
X1223772Y568072D02*
Y571072D01*
X1222272Y587653D02*
X1225272D01*
X1223772Y586153D02*
Y589153D01*
X1222272Y578612D02*
X1225272D01*
X1223772Y577112D02*
Y580112D01*
X1222272Y560560D02*
X1225272D01*
X1223772Y559060D02*
Y562060D01*
X1222272Y551548D02*
X1225272D01*
X1223772Y550048D02*
Y553048D01*
X1238020Y569572D02*
X1241020D01*
X1239520Y568072D02*
Y571072D01*
X1206524Y569572D02*
X1209524D01*
X1208024Y568072D02*
Y571072D01*
X1230146Y569572D02*
X1233146D01*
X1231646Y568072D02*
Y571072D01*
X1214398Y569572D02*
X1217398D01*
X1215898Y568072D02*
Y571072D01*
X1282724Y633372D02*
X1285724D01*
X1284224Y631872D02*
Y634872D01*
X1282724Y651453D02*
X1285724D01*
X1284224Y649953D02*
Y652953D01*
X1282724Y642412D02*
X1285724D01*
X1284224Y640912D02*
Y643912D01*
X1282724Y624360D02*
X1285724D01*
X1284224Y622860D02*
Y625860D01*
X1282724Y615348D02*
X1285724D01*
X1284224Y613848D02*
Y616848D01*
X1298472Y633372D02*
X1301472D01*
X1299972Y631872D02*
Y634872D01*
X1266976Y633372D02*
X1269976D01*
X1268476Y631872D02*
Y634872D01*
X1290598Y633372D02*
X1293598D01*
X1292098Y631872D02*
Y634872D01*
X1274850Y633372D02*
X1277850D01*
X1276350Y631872D02*
Y634872D01*
X1214398Y633372D02*
X1217398D01*
X1215898Y631872D02*
Y634872D01*
X1230146Y633372D02*
X1233146D01*
X1231646Y631872D02*
Y634872D01*
X1206524Y633372D02*
X1209524D01*
X1208024Y631872D02*
Y634872D01*
X1238020Y633372D02*
X1241020D01*
X1239520Y631872D02*
Y634872D01*
X1222272Y615348D02*
X1225272D01*
X1223772Y613848D02*
Y616848D01*
X1222272Y624360D02*
X1225272D01*
X1223772Y622860D02*
Y625860D01*
X1222272Y642412D02*
X1225272D01*
X1223772Y640912D02*
Y643912D01*
X1222272Y651453D02*
X1225272D01*
X1223772Y649953D02*
Y652953D01*
X1222272Y633372D02*
X1225272D01*
X1223772Y631872D02*
Y634872D01*
X1299996Y545084D02*
X1302996D01*
X1301496Y543584D02*
Y546584D01*
X1291423Y545084D02*
X1294424D01*
X1292923Y543584D02*
Y546584D01*
X1274278Y545084D02*
X1277279D01*
X1275779Y543584D02*
Y546584D01*
X1265706Y545084D02*
X1268706D01*
X1267206Y543584D02*
Y546584D01*
X499999Y505206D02*
X503809D01*
X501904Y503301D02*
Y507111D01*
X388619Y505206D02*
X392429D01*
X390524Y503301D02*
Y507111D01*
X503809Y536448D02*
X507619D01*
X505714Y534543D02*
Y538353D01*
X454787Y536448D02*
X458597D01*
X456692Y534543D02*
Y538353D01*
X346075Y536702D02*
X349885D01*
X347980Y534797D02*
Y538607D01*
X670179Y554736D02*
X673989D01*
X672084Y552831D02*
Y556641D01*
X680847Y548640D02*
X684657D01*
X682752Y546735D02*
Y550545D01*
X670179Y541782D02*
X673989D01*
X672084Y539877D02*
Y543687D01*
X601853Y525272D02*
X605663D01*
X603758Y523367D02*
Y527177D01*
X592709Y533400D02*
X596519D01*
X594614Y531495D02*
Y535305D01*
X601853Y541274D02*
X605663D01*
X603758Y539369D02*
Y543179D01*
X694817Y509016D02*
X698627D01*
X696722Y507111D02*
Y510921D01*
X613537Y498348D02*
X617347D01*
X615442Y496443D02*
Y500253D01*
X924687Y99314D02*
X928497D01*
X926592Y97409D02*
Y101219D01*
X545211Y343154D02*
X549021D01*
X547116Y341249D02*
Y345059D01*
X435991Y342900D02*
X439801D01*
X437896Y340995D02*
Y344805D01*
X716407Y281432D02*
X720217D01*
X718312Y279527D02*
Y283337D01*
X653923Y266700D02*
X657733D01*
X655828Y264795D02*
Y268605D01*
X653923Y253238D02*
X657733D01*
X655828Y251333D02*
Y255143D01*
X733425Y281432D02*
X737235D01*
X735330Y279527D02*
Y283337D01*
X287757Y544105D02*
X291567D01*
X289662Y542200D02*
Y546010D01*
X243815Y544164D02*
X247625D01*
X245720Y542259D02*
Y546069D01*
X199619Y544139D02*
X203429D01*
X201524Y542234D02*
Y546044D01*
X155677Y544139D02*
X159487D01*
X157582Y542234D02*
Y546044D01*
X987425Y153416D02*
X991235D01*
X989330Y151511D02*
Y155321D01*
X987425Y164677D02*
X991235D01*
X989330Y162772D02*
Y166582D01*
X987425Y175937D02*
X991235D01*
X989330Y174032D02*
Y177842D01*
X987425Y187198D02*
X991235D01*
X989330Y185293D02*
Y189103D01*
X962712Y208272D02*
X966522D01*
X964617Y206367D02*
Y210177D01*
X817860Y373994D02*
X821670D01*
X819765Y372090D02*
Y375900D01*
X860933Y162814D02*
X864743D01*
X862838Y160909D02*
Y164719D01*
X874141Y162814D02*
X877951D01*
X876046Y160909D02*
Y164719D01*
X887349Y162814D02*
X891159D01*
X889254Y160909D02*
Y164719D01*
X900557Y162814D02*
X904367D01*
X902462Y160909D02*
Y164719D01*
X178943Y231394D02*
X182753D01*
X180848Y229489D02*
Y233299D01*
X209169Y290068D02*
X212979D01*
X211074Y288163D02*
Y291973D01*
X646303Y67310D02*
X650113D01*
X648208Y65405D02*
Y69215D01*
X619887Y67310D02*
X623697D01*
X621792Y65405D02*
Y69215D01*
X633095Y67310D02*
X636905D01*
X635000Y65405D02*
Y69215D01*
X890905Y187198D02*
X894715D01*
X892810Y185293D02*
Y189103D01*
X463423Y317754D02*
X467233D01*
X465328Y315849D02*
Y319659D01*
X354965Y317500D02*
X358775D01*
X356870Y315595D02*
Y319405D01*
X510667Y383286D02*
X514477D01*
X512572Y381381D02*
Y385191D01*
X485134Y383089D02*
X488944D01*
X487039Y381185D02*
Y384995D01*
X398907Y382270D02*
X402717D01*
X400812Y380365D02*
Y384175D01*
X373253Y382270D02*
X377063D01*
X375158Y380365D02*
Y384175D01*
X956945Y153162D02*
X960755D01*
X958850Y151257D02*
Y155067D01*
X956945Y164084D02*
X960755D01*
X958850Y162179D02*
Y165989D01*
X956945Y175260D02*
X960755D01*
X958850Y173355D02*
Y177165D01*
X748411Y101854D02*
X752221D01*
X750316Y99949D02*
Y103759D01*
X587883Y103124D02*
X591693D01*
X589788Y101219D02*
Y105029D01*
X431673Y231140D02*
X435483D01*
X433578Y229235D02*
Y233045D01*
X386207Y204724D02*
X390017D01*
X388112Y202819D02*
Y206629D01*
X386207Y217424D02*
X390017D01*
X388112Y215519D02*
Y219329D01*
X278647Y223997D02*
X282457D01*
X280552Y222092D02*
Y225902D01*
X387731Y242824D02*
X391541D01*
X389636Y240919D02*
Y244729D01*
X361823Y208788D02*
X365633D01*
X363728Y206883D02*
Y210693D01*
X268859Y369062D02*
X272669D01*
X270764Y367157D02*
Y370967D01*
X386207Y192024D02*
X390017D01*
X388112Y190119D02*
Y193929D01*
X224917Y369062D02*
X228727D01*
X226822Y367157D02*
Y370967D01*
X386207Y179324D02*
X390017D01*
X388112Y177419D02*
Y181229D01*
X180721Y368808D02*
X184531D01*
X182626Y366903D02*
Y370713D01*
X386207Y166624D02*
X390017D01*
X388112Y164719D02*
Y168529D01*
X136779Y369062D02*
X140589D01*
X138684Y367157D02*
Y370967D01*
X386207Y141224D02*
X390017D01*
X388112Y139319D02*
Y143129D01*
X589915Y153670D02*
X593725D01*
X591820Y151765D02*
Y155575D01*
X589915Y141224D02*
X593725D01*
X591820Y139319D02*
Y143129D01*
X803529Y327406D02*
X807339D01*
X805434Y325501D02*
Y329311D01*
X803529Y340106D02*
X807339D01*
X805434Y338201D02*
Y342011D01*
X372999Y336550D02*
X376809D01*
X374904Y334645D02*
Y338455D01*
X422275Y323850D02*
X426085D01*
X424180Y321945D02*
Y325755D01*
X589915Y128524D02*
X593725D01*
X591820Y126619D02*
Y130429D01*
X482219Y336804D02*
X486029D01*
X484124Y334899D02*
Y338709D01*
X589850Y115750D02*
X593660D01*
X591755Y113845D02*
Y117655D01*
X531495Y309372D02*
X535305D01*
X533400Y307467D02*
Y311277D01*
X536321Y506730D02*
X540131D01*
X538226Y504825D02*
Y508635D01*
X424307Y506730D02*
X428117D01*
X426212Y504825D02*
Y508635D01*
X395097Y536448D02*
X398907D01*
X397002Y534543D02*
Y538353D01*
X823722Y539750D02*
X830834D01*
X827278Y536194D02*
Y543306D01*
X842518Y539242D02*
X849630D01*
X846074Y535686D02*
Y542798D01*
X842772Y521970D02*
X849884D01*
X846328Y518414D02*
Y525526D01*
X843280Y503682D02*
X850392D01*
X846836Y500126D02*
Y507238D01*
X791972Y539750D02*
X799084D01*
X795528Y536194D02*
Y543306D01*
X762508Y541528D02*
X769620D01*
X766064Y537972D02*
Y545084D01*
X761492Y523494D02*
X768604D01*
X765048Y519938D02*
Y527050D01*
X760730Y505206D02*
X767842D01*
X764286Y501650D02*
Y508762D01*
X705231Y619760D02*
X709041D01*
X707136Y617855D02*
Y621665D01*
X1125093Y619760D02*
X1128903D01*
X1126998Y617855D02*
Y621665D01*
X1055243Y619760D02*
X1059053D01*
X1057148Y617855D02*
Y621665D01*
X985393Y619760D02*
X989203D01*
X987298Y617855D02*
Y621665D01*
X915289Y619760D02*
X919099D01*
X917194Y617855D02*
Y621665D01*
X845439Y619760D02*
X849249D01*
X847344Y617855D02*
Y621665D01*
X775335Y619760D02*
X779145D01*
X777240Y617855D02*
Y621665D01*
X635381Y619760D02*
X639191D01*
X637286Y617855D02*
Y621665D01*
M02*
