G04*
G04 #@! TF.GenerationSoftware,Altium Limited,Altium Designer,23.1.1 (15)*
G04*
G04 Layer_Physical_Order=1*
G04 Layer_Color=255*
%FSLAX44Y44*%
%MOMM*%
G71*
G04*
G04 #@! TF.SameCoordinates,834500F6-C2E4-4EAC-996A-B368302F4D9C*
G04*
G04*
G04 #@! TF.FilePolarity,Positive*
G04*
G01*
G75*
%ADD11C,0.2540*%
%ADD12C,0.7620*%
G04:AMPARAMS|DCode=21|XSize=1mm|YSize=0.9mm|CornerRadius=0.1125mm|HoleSize=0mm|Usage=FLASHONLY|Rotation=90.000|XOffset=0mm|YOffset=0mm|HoleType=Round|Shape=RoundedRectangle|*
%AMROUNDEDRECTD21*
21,1,1.0000,0.6750,0,0,90.0*
21,1,0.7750,0.9000,0,0,90.0*
1,1,0.2250,0.3375,0.3875*
1,1,0.2250,0.3375,-0.3875*
1,1,0.2250,-0.3375,-0.3875*
1,1,0.2250,-0.3375,0.3875*
%
%ADD21ROUNDEDRECTD21*%
%ADD22R,0.9000X1.4000*%
%ADD23R,1.4000X0.9000*%
%ADD24R,0.8000X1.3000*%
%ADD25R,2.1000X3.0000*%
G04:AMPARAMS|DCode=26|XSize=1mm|YSize=0.9mm|CornerRadius=0.1125mm|HoleSize=0mm|Usage=FLASHONLY|Rotation=180.000|XOffset=0mm|YOffset=0mm|HoleType=Round|Shape=RoundedRectangle|*
%AMROUNDEDRECTD26*
21,1,1.0000,0.6750,0,0,180.0*
21,1,0.7750,0.9000,0,0,180.0*
1,1,0.2250,-0.3875,0.3375*
1,1,0.2250,0.3875,0.3375*
1,1,0.2250,0.3875,-0.3375*
1,1,0.2250,-0.3875,-0.3375*
%
%ADD26ROUNDEDRECTD26*%
%ADD27R,2.4100X2.3700*%
G04:AMPARAMS|DCode=28|XSize=0.95mm|YSize=0.85mm|CornerRadius=0.1063mm|HoleSize=0mm|Usage=FLASHONLY|Rotation=270.000|XOffset=0mm|YOffset=0mm|HoleType=Round|Shape=RoundedRectangle|*
%AMROUNDEDRECTD28*
21,1,0.9500,0.6375,0,0,270.0*
21,1,0.7375,0.8500,0,0,270.0*
1,1,0.2125,-0.3188,-0.3688*
1,1,0.2125,-0.3188,0.3688*
1,1,0.2125,0.3188,0.3688*
1,1,0.2125,0.3188,-0.3688*
%
%ADD28ROUNDEDRECTD28*%
%ADD29R,1.2000X0.5500*%
G04:AMPARAMS|DCode=30|XSize=0.95mm|YSize=0.85mm|CornerRadius=0.1063mm|HoleSize=0mm|Usage=FLASHONLY|Rotation=180.000|XOffset=0mm|YOffset=0mm|HoleType=Round|Shape=RoundedRectangle|*
%AMROUNDEDRECTD30*
21,1,0.9500,0.6375,0,0,180.0*
21,1,0.7375,0.8500,0,0,180.0*
1,1,0.2125,-0.3688,0.3188*
1,1,0.2125,0.3688,0.3188*
1,1,0.2125,0.3688,-0.3188*
1,1,0.2125,-0.3688,-0.3188*
%
%ADD30ROUNDEDRECTD30*%
%ADD31R,1.8800X1.1000*%
%ADD32R,1.6000X5.6000*%
%ADD33R,1.5300X2.7200*%
%ADD34R,3.8100X4.2400*%
%ADD35R,0.6000X1.1000*%
%ADD36R,1.7000X1.0000*%
%ADD37R,1.3300X1.3300*%
%ADD38R,2.0000X0.9000*%
%ADD39R,0.9000X2.0000*%
%ADD40R,1.1500X0.6000*%
%ADD41R,1.1000X0.6000*%
%ADD42R,1.0500X0.6000*%
%ADD43R,1.6500X0.6500*%
%ADD44R,0.9000X0.7000*%
%ADD45R,1.9812X0.5588*%
%ADD46R,1.1500X1.4700*%
%ADD47R,0.7000X0.9000*%
%ADD48O,0.8500X1.9000*%
%ADD49R,0.6500X1.6500*%
%ADD50R,0.6000X1.2000*%
%ADD51R,1.3000X4.4000*%
%ADD52R,0.9000X0.8000*%
%ADD53R,0.6000X1.0500*%
%ADD54R,2.6000X1.2000*%
%ADD55R,2.6000X1.1000*%
%ADD56R,1.7000X1.1000*%
%ADD57R,0.4500X0.7500*%
%ADD58R,2.4000X1.6000*%
%ADD59R,0.6200X0.6750*%
%ADD60R,0.4350X1.4950*%
%ADD120C,0.5588*%
%ADD121C,0.5080*%
%ADD122C,0.4318*%
%ADD123C,0.3048*%
%ADD124C,0.3810*%
%ADD125C,1.2700*%
%ADD126C,1.1430*%
%ADD127R,1.5080X1.5080*%
%ADD128C,1.5080*%
%ADD129R,1.7250X1.7250*%
%ADD130C,1.7250*%
%ADD131C,1.3500*%
%ADD132R,1.3500X1.3500*%
%ADD133C,2.3000*%
%ADD134R,2.4750X2.4750*%
%ADD135C,2.4750*%
%ADD136O,3.3000X1.6500*%
G04:AMPARAMS|DCode=137|XSize=1.5mm|YSize=1.5mm|CornerRadius=0.1875mm|HoleSize=0mm|Usage=FLASHONLY|Rotation=180.000|XOffset=0mm|YOffset=0mm|HoleType=Round|Shape=RoundedRectangle|*
%AMROUNDEDRECTD137*
21,1,1.5000,1.1250,0,0,180.0*
21,1,1.1250,1.5000,0,0,180.0*
1,1,0.3750,-0.5625,0.5625*
1,1,0.3750,0.5625,0.5625*
1,1,0.3750,0.5625,-0.5625*
1,1,0.3750,-0.5625,-0.5625*
%
%ADD137ROUNDEDRECTD137*%
%ADD138C,1.5000*%
%ADD139R,1.5000X1.5000*%
%ADD140C,0.3000*%
%ADD141R,2.4750X2.4750*%
%ADD142C,3.6000*%
%ADD143C,1.8000*%
%ADD144R,1.8000X1.8000*%
%ADD145C,2.1000*%
%ADD146C,0.6000*%
%ADD147C,0.7620*%
%ADD148C,1.2700*%
G36*
X1390650Y702564D02*
X1384046Y695960D01*
X1361440D01*
X1352550Y704850D01*
Y717804D01*
X1348232Y722122D01*
X1274826D01*
X1269492Y716788D01*
Y706374D01*
X1259078Y695960D01*
X1239012D01*
X1231392Y703580D01*
Y737870D01*
X1390650D01*
Y702564D01*
D02*
G37*
G36*
X1306068Y713994D02*
Y689864D01*
X1281684Y665480D01*
X1253490D01*
X1243838Y655828D01*
Y611124D01*
X1203452D01*
Y667004D01*
X1226566Y690118D01*
X1269238D01*
X1279398Y700278D01*
Y712978D01*
X1282700Y716280D01*
X1303782Y716280D01*
X1306068Y713994D01*
D02*
G37*
G36*
X1341628Y662178D02*
X1304544Y625094D01*
X1304544Y610870D01*
X1263904D01*
Y655828D01*
X1288288D01*
X1315720Y683260D01*
Y716280D01*
X1341628D01*
X1341628Y662178D01*
D02*
G37*
G36*
X1304544Y529590D02*
X1263904D01*
Y591820D01*
X1304544D01*
Y529590D01*
D02*
G37*
G36*
X1186688Y694182D02*
X1162812Y670306D01*
Y536194D01*
X1104646D01*
X1079246Y510794D01*
Y467360D01*
X838704D01*
Y483724D01*
X837874D01*
Y489226D01*
X843910Y495262D01*
X845666Y494792D01*
X848006D01*
X850267Y495398D01*
X852295Y496568D01*
X853950Y498223D01*
X855120Y500251D01*
X855726Y502512D01*
Y504852D01*
X855120Y507113D01*
X853950Y509141D01*
X852295Y510796D01*
X850267Y511966D01*
X849258Y512237D01*
Y513551D01*
X849759Y513686D01*
X851787Y514856D01*
X853442Y516511D01*
X854612Y518539D01*
X855218Y520800D01*
Y523140D01*
X854612Y525401D01*
X853442Y527429D01*
X851787Y529084D01*
X850293Y529946D01*
X850229Y531376D01*
X851533Y532128D01*
X853188Y533783D01*
X854358Y535811D01*
X854964Y538072D01*
Y540412D01*
X854358Y542673D01*
X853188Y544701D01*
X851533Y546356D01*
X849505Y547526D01*
X847244Y548132D01*
X844904D01*
X842643Y547526D01*
X840615Y546356D01*
X838960Y544701D01*
X837790Y542673D01*
X837382Y541150D01*
X836087Y541224D01*
X835562Y543181D01*
X834392Y545209D01*
X832737Y546864D01*
X830709Y548034D01*
X828448Y548640D01*
X826108D01*
X823847Y548034D01*
X821819Y546864D01*
X820164Y545209D01*
X818994Y543181D01*
X818388Y540920D01*
Y538580D01*
X818858Y536824D01*
X812182Y530148D01*
X811340Y528888D01*
X811044Y527401D01*
Y483724D01*
X810214D01*
Y467360D01*
X800604D01*
Y483724D01*
X799774D01*
Y531936D01*
X800987Y532636D01*
X802642Y534291D01*
X803812Y536319D01*
X804418Y538580D01*
Y540920D01*
X803812Y543181D01*
X802642Y545209D01*
X800987Y546864D01*
X798959Y548034D01*
X796698Y548640D01*
X794358D01*
X792097Y548034D01*
X790069Y546864D01*
X788414Y545209D01*
X787244Y543181D01*
X786638Y540920D01*
Y538580D01*
X787244Y536319D01*
X788414Y534291D01*
X790069Y532636D01*
X792004Y531519D01*
Y522741D01*
X790831Y522255D01*
X774484Y538602D01*
X774954Y540358D01*
Y542698D01*
X774348Y544959D01*
X773178Y546987D01*
X771523Y548642D01*
X769495Y549812D01*
X767234Y550418D01*
X764894D01*
X762633Y549812D01*
X760605Y548642D01*
X758950Y546987D01*
X757780Y544959D01*
X757174Y542698D01*
Y540358D01*
X757780Y538097D01*
X758950Y536069D01*
X760605Y534414D01*
X762489Y533327D01*
X762556Y532821D01*
X762406Y531990D01*
X761617Y531778D01*
X759589Y530608D01*
X757934Y528953D01*
X756764Y526925D01*
X756158Y524664D01*
Y522324D01*
X756764Y520063D01*
X757934Y518035D01*
X759589Y516380D01*
X761617Y515210D01*
X761991Y515109D01*
Y513795D01*
X760855Y513490D01*
X758827Y512320D01*
X757172Y510665D01*
X756002Y508637D01*
X755396Y506376D01*
Y504036D01*
X756002Y501775D01*
X757172Y499747D01*
X758827Y498092D01*
X760855Y496922D01*
X763116Y496316D01*
X765456D01*
X767212Y496786D01*
X772944Y491054D01*
Y483724D01*
X772114D01*
Y467360D01*
X276877D01*
X276554Y468496D01*
X276554Y468630D01*
Y490076D01*
X274649D01*
Y495438D01*
X276069Y495721D01*
X277281Y496531D01*
X278091Y497743D01*
X278376Y499173D01*
Y505923D01*
X278091Y507353D01*
X277281Y508565D01*
X276069Y509375D01*
X274639Y509660D01*
X266889D01*
X265459Y509375D01*
X264247Y508565D01*
X263437Y507353D01*
X263152Y505923D01*
Y499173D01*
X263437Y497743D01*
X264247Y496531D01*
X265459Y495721D01*
X266879Y495438D01*
Y490076D01*
X264974D01*
Y468630D01*
X264974Y468496D01*
X264650Y467360D01*
X232851D01*
X232527Y468496D01*
X232527Y468630D01*
Y490076D01*
X230622D01*
Y495472D01*
X231873Y495721D01*
X233085Y496531D01*
X233895Y497743D01*
X234180Y499173D01*
Y505923D01*
X233895Y507353D01*
X233085Y508565D01*
X231873Y509375D01*
X230443Y509660D01*
X222693D01*
X221263Y509375D01*
X220051Y508565D01*
X219241Y507353D01*
X218956Y505923D01*
Y499173D01*
X219241Y497743D01*
X220051Y496531D01*
X221263Y495721D01*
X222693Y495436D01*
X222853D01*
Y490076D01*
X220947D01*
Y468630D01*
X220947Y468496D01*
X220624Y467360D01*
X188824D01*
X188501Y468496D01*
X188501Y468630D01*
Y490076D01*
X186595D01*
Y495455D01*
X187931Y495721D01*
X189143Y496531D01*
X189953Y497743D01*
X190238Y499173D01*
Y505923D01*
X189953Y507353D01*
X189143Y508565D01*
X187931Y509375D01*
X186501Y509660D01*
X178751D01*
X177321Y509375D01*
X176109Y508565D01*
X175299Y507353D01*
X175014Y505923D01*
Y499173D01*
X175299Y497743D01*
X176109Y496531D01*
X177321Y495721D01*
X178751Y495436D01*
X178826D01*
Y490076D01*
X176921D01*
Y468630D01*
X176921Y468496D01*
X176597Y467360D01*
X144798D01*
X144474Y468496D01*
X144474Y468630D01*
Y490076D01*
X142569D01*
Y495438D01*
X143989Y495721D01*
X145201Y496531D01*
X146011Y497743D01*
X146296Y499173D01*
Y505923D01*
X146011Y507353D01*
X145201Y508565D01*
X143989Y509375D01*
X142559Y509660D01*
X134809D01*
X133379Y509375D01*
X132167Y508565D01*
X131357Y507353D01*
X131072Y505923D01*
Y499173D01*
X131357Y497743D01*
X132167Y496531D01*
X133379Y495721D01*
X134799Y495438D01*
Y490076D01*
X132894D01*
Y468630D01*
X132894Y468496D01*
X132570Y467360D01*
X118618D01*
X83058Y431800D01*
X83058Y348234D01*
X103632Y327660D01*
Y322671D01*
X102750Y321766D01*
X102362Y321766D01*
X81170D01*
Y319861D01*
X79416D01*
X79209Y320899D01*
X78399Y322111D01*
X77187Y322921D01*
X75757Y323206D01*
X68007D01*
X66577Y322921D01*
X65365Y322111D01*
X64555Y320899D01*
X64270Y319469D01*
Y312719D01*
X64555Y311289D01*
X65365Y310077D01*
X66577Y309267D01*
X68007Y308982D01*
X75757D01*
X77187Y309267D01*
X78399Y310077D01*
X79209Y311289D01*
X79369Y312091D01*
X81170D01*
Y310186D01*
X102362D01*
X102750Y310186D01*
X103632Y309281D01*
Y283301D01*
X102750Y282396D01*
X102362Y282396D01*
X81170D01*
Y280491D01*
X79416D01*
X79209Y281529D01*
X78399Y282741D01*
X77187Y283551D01*
X75757Y283836D01*
X68007D01*
X66577Y283551D01*
X65365Y282741D01*
X64555Y281529D01*
X64270Y280099D01*
Y273349D01*
X64555Y271919D01*
X65365Y270707D01*
X66577Y269897D01*
X68007Y269612D01*
X75757D01*
X77187Y269897D01*
X78399Y270707D01*
X79209Y271919D01*
X79369Y272721D01*
X81170D01*
Y270816D01*
X102362D01*
X102750Y270816D01*
X103632Y269911D01*
Y249682D01*
X92964Y239014D01*
X3810D01*
Y737870D01*
X1186688D01*
Y694182D01*
D02*
G37*
G36*
X803874Y409654D02*
X804445D01*
Y385171D01*
X804761Y383585D01*
X805659Y382240D01*
X813415Y374484D01*
Y372731D01*
X814382Y370397D01*
X816168Y368611D01*
X818502Y367645D01*
X821028D01*
X822631Y368309D01*
X823901Y367491D01*
Y337616D01*
X800947Y314662D01*
X799774Y315148D01*
Y409654D01*
X800604D01*
Y426212D01*
X803874D01*
Y409654D01*
D02*
G37*
G36*
X1079500Y208534D02*
X1136904Y151130D01*
X1398270D01*
Y3810D01*
X581540D01*
Y65750D01*
X581343Y66741D01*
X580781Y67581D01*
X579941Y68143D01*
X578950Y68340D01*
X398950D01*
X397959Y68143D01*
X397119Y67581D01*
X396557Y66741D01*
X396360Y65750D01*
Y3810D01*
X3810D01*
Y201422D01*
X112268D01*
X145288Y234442D01*
Y269911D01*
X146170Y270816D01*
X146558Y270816D01*
X167750D01*
Y272721D01*
X173112D01*
X173395Y271301D01*
X174205Y270089D01*
X175417Y269279D01*
X176847Y268994D01*
X183597D01*
X185027Y269279D01*
X186239Y270089D01*
X187049Y271301D01*
X187334Y272731D01*
Y280481D01*
X187049Y281911D01*
X186239Y283123D01*
X185027Y283933D01*
X183597Y284218D01*
X176847D01*
X175417Y283933D01*
X174205Y283123D01*
X173395Y281911D01*
X173112Y280491D01*
X167750D01*
Y282396D01*
X146558D01*
X146170Y282396D01*
X145288Y283301D01*
Y309281D01*
X146170Y310186D01*
X146558Y310186D01*
X167750D01*
Y312091D01*
X172096D01*
X172379Y310671D01*
X173189Y309459D01*
X174401Y308649D01*
X175831Y308364D01*
X182581D01*
X184011Y308649D01*
X185223Y309459D01*
X186033Y310671D01*
X186318Y312101D01*
Y319851D01*
X186033Y321281D01*
X185223Y322493D01*
X184011Y323303D01*
X182581Y323588D01*
X175831D01*
X174401Y323303D01*
X173189Y322493D01*
X172379Y321281D01*
X172096Y319861D01*
X167750D01*
Y321766D01*
X146558D01*
X146170Y321766D01*
X145288Y322671D01*
Y334264D01*
X118364Y361188D01*
Y415801D01*
X128762Y426212D01*
X132571D01*
X132894Y425076D01*
X132894Y424942D01*
Y403496D01*
X132307Y402469D01*
X132167Y402375D01*
X131357Y401163D01*
X131072Y399733D01*
Y392983D01*
X131357Y391553D01*
X132167Y390341D01*
X133379Y389531D01*
X134809Y389246D01*
X142559D01*
X143989Y389531D01*
X145201Y390341D01*
X146011Y391553D01*
X146296Y392983D01*
Y399733D01*
X146011Y401163D01*
X145201Y402375D01*
X145061Y402469D01*
X144474Y403496D01*
Y424942D01*
X144474Y425076D01*
X144797Y426212D01*
X176597D01*
X176921Y425076D01*
X176921Y424942D01*
Y403496D01*
X176281Y402491D01*
X176109Y402375D01*
X175299Y401163D01*
X175014Y399733D01*
Y392983D01*
X175299Y391553D01*
X176109Y390341D01*
X177321Y389531D01*
X178751Y389246D01*
X186501D01*
X187931Y389531D01*
X189143Y390341D01*
X189953Y391553D01*
X190238Y392983D01*
Y399733D01*
X189953Y401163D01*
X189143Y402375D01*
X189035Y402447D01*
X188501Y403496D01*
Y424942D01*
X188501Y425076D01*
X188824Y426212D01*
X220624D01*
X220947Y425076D01*
X220947Y424942D01*
Y403496D01*
X220413Y402447D01*
X220305Y402375D01*
X219495Y401163D01*
X219210Y399733D01*
Y392983D01*
X219495Y391553D01*
X220305Y390341D01*
X221517Y389531D01*
X222947Y389246D01*
X230697D01*
X232127Y389531D01*
X233339Y390341D01*
X234149Y391553D01*
X234434Y392983D01*
Y399733D01*
X234149Y401163D01*
X233339Y402375D01*
X233167Y402491D01*
X232527Y403496D01*
Y424942D01*
X232527Y425076D01*
X232851Y426212D01*
X264651D01*
X264974Y425076D01*
X264974Y424942D01*
Y403496D01*
X264387Y402469D01*
X264247Y402375D01*
X263437Y401163D01*
X263152Y399733D01*
Y392983D01*
X263437Y391553D01*
X264247Y390341D01*
X265459Y389531D01*
X266889Y389246D01*
X274639D01*
X276069Y389531D01*
X277281Y390341D01*
X278091Y391553D01*
X278376Y392983D01*
Y399733D01*
X278091Y401163D01*
X277281Y402375D01*
X277141Y402469D01*
X276554Y403496D01*
Y424942D01*
X276554Y425076D01*
X276877Y426212D01*
X772114D01*
Y409654D01*
X772944D01*
Y315396D01*
X755057Y297509D01*
X541782D01*
X540295Y297213D01*
X539035Y296371D01*
X530653Y287989D01*
X529811Y286729D01*
X529515Y285242D01*
Y265290D01*
X448385D01*
Y287782D01*
X448089Y289269D01*
X447247Y290529D01*
X434547Y303229D01*
X433287Y304071D01*
X431800Y304367D01*
X300388D01*
X295363Y309391D01*
X294103Y310234D01*
X292616Y310529D01*
X276660D01*
X276567Y310993D01*
X275757Y312205D01*
X274545Y313015D01*
X273115Y313300D01*
X265365D01*
X263935Y313015D01*
X262723Y312205D01*
X261913Y310993D01*
X261768Y310268D01*
X259836D01*
Y312118D01*
X244256D01*
Y301038D01*
X259836D01*
Y302498D01*
X261691D01*
X261913Y301383D01*
X262723Y300171D01*
X263935Y299361D01*
X265365Y299076D01*
X273115D01*
X274545Y299361D01*
X275757Y300171D01*
X276567Y301383D01*
X276841Y302760D01*
X291007D01*
X296032Y297735D01*
X296102Y297024D01*
X291893Y292815D01*
X291051Y291555D01*
X290755Y290068D01*
Y281009D01*
X285919Y276173D01*
X249682D01*
X248195Y275877D01*
X246935Y275035D01*
X233473Y261573D01*
X232631Y260313D01*
X232335Y258826D01*
Y254624D01*
X230915Y254341D01*
X229703Y253531D01*
X228893Y252319D01*
X228723Y251467D01*
X226816D01*
Y253190D01*
X211236D01*
Y242110D01*
X226816D01*
Y243697D01*
X228696D01*
X228893Y242709D01*
X229703Y241497D01*
X230915Y240687D01*
X232345Y240402D01*
X240095D01*
X241525Y240687D01*
X242737Y241497D01*
X243547Y242709D01*
X243832Y244139D01*
Y250889D01*
X243547Y252319D01*
X242737Y253531D01*
X241525Y254341D01*
X240105Y254624D01*
Y257217D01*
X251291Y268403D01*
X287528D01*
X289015Y268699D01*
X290275Y269541D01*
X297387Y276653D01*
X298229Y277913D01*
X298525Y279400D01*
Y288459D01*
X301583Y291517D01*
X416221D01*
X427915Y279823D01*
Y265290D01*
X424760D01*
Y240210D01*
X540440D01*
Y265290D01*
X537285D01*
Y283633D01*
X543391Y289739D01*
X752812D01*
X753298Y288566D01*
X711367Y246635D01*
X586490D01*
Y249790D01*
X561410D01*
Y235710D01*
Y223010D01*
Y210310D01*
Y197610D01*
Y184910D01*
Y172210D01*
Y159510D01*
Y146810D01*
Y134110D01*
Y121410D01*
Y108710D01*
Y98093D01*
X561033Y97841D01*
X560471Y97001D01*
X560274Y96010D01*
Y84836D01*
X560471Y83845D01*
X561033Y83005D01*
X561873Y82443D01*
X562864Y82246D01*
X608421D01*
X613487Y77180D01*
X613487Y64684D01*
X613684Y63693D01*
X614246Y62853D01*
X617462Y59637D01*
X617462Y59637D01*
X618302Y59075D01*
X619293Y58878D01*
X651002Y58878D01*
X651993Y59075D01*
X652833Y59637D01*
X655119Y61923D01*
X655681Y62763D01*
X655878Y63754D01*
Y70104D01*
X655681Y71095D01*
X655119Y71935D01*
X652833Y74221D01*
X651993Y74783D01*
X651002Y74980D01*
X642677D01*
X640892Y76765D01*
Y89916D01*
X640695Y90907D01*
X640133Y91747D01*
X638355Y93525D01*
X637515Y94087D01*
X636524Y94284D01*
X627033D01*
X626471Y94985D01*
X627253Y96040D01*
X628077Y95876D01*
X635827D01*
X637257Y96161D01*
X638469Y96971D01*
X639279Y98183D01*
X639462Y99103D01*
X673405D01*
X683939Y88569D01*
Y62104D01*
X676784D01*
Y47024D01*
X698864D01*
Y50679D01*
X739784D01*
Y47024D01*
X761864D01*
Y62104D01*
X739784D01*
Y58449D01*
X698864D01*
Y62104D01*
X691709D01*
Y90178D01*
X691413Y91665D01*
X690571Y92925D01*
X677761Y105735D01*
X676501Y106577D01*
X675014Y106873D01*
X639462D01*
X639279Y107793D01*
X638469Y109005D01*
X637257Y109815D01*
X635827Y110100D01*
X628077D01*
X626647Y109815D01*
X625435Y109005D01*
X624625Y107793D01*
X624441Y106868D01*
X623171D01*
X623031Y107571D01*
X622235Y108763D01*
X621043Y109559D01*
X619637Y109839D01*
X612262D01*
X610857Y109559D01*
X609665Y108763D01*
X608869Y107571D01*
X608743Y106936D01*
X594957D01*
X593618Y108274D01*
X593647Y109303D01*
X593783Y109717D01*
X595352Y110367D01*
X597138Y112153D01*
X598105Y114487D01*
Y117013D01*
X597138Y119347D01*
X595352Y121133D01*
X594621Y121436D01*
Y122811D01*
X595417Y123141D01*
X597203Y124927D01*
X598170Y127261D01*
Y129787D01*
X597203Y132121D01*
X595417Y133907D01*
X594616Y134239D01*
Y135509D01*
X595417Y135841D01*
X597203Y137627D01*
X598170Y139961D01*
Y142487D01*
X597203Y144821D01*
X595417Y146607D01*
X594923Y146812D01*
Y148082D01*
X595417Y148287D01*
X597203Y150073D01*
X598170Y152407D01*
Y154933D01*
X597203Y157267D01*
X595417Y159053D01*
X593083Y160020D01*
X590557D01*
X588223Y159053D01*
X587760Y158590D01*
X586490Y159116D01*
Y162665D01*
X679881D01*
X681368Y162961D01*
X682628Y163803D01*
X845773Y326948D01*
X846615Y328208D01*
X846911Y329695D01*
Y383540D01*
X846615Y385027D01*
X845773Y386287D01*
X837874Y394186D01*
Y409654D01*
X838704D01*
Y426212D01*
X1079500D01*
Y208534D01*
D02*
G37*
G36*
X1258316Y506984D02*
X1263904Y501396D01*
X1304544D01*
X1304544Y486156D01*
X1312164Y478536D01*
Y350012D01*
X1292352Y330200D01*
X1248918D01*
X1227582Y308864D01*
Y248158D01*
X1209294D01*
Y326390D01*
X1205484Y330200D01*
Y357124D01*
X1262380D01*
X1276350Y371094D01*
Y470408D01*
X1258824Y487934D01*
X1240790D01*
Y517398D01*
X1258316D01*
Y506984D01*
D02*
G37*
G36*
X1243838Y537972D02*
X1231646Y525780D01*
Y481330D01*
X1236726Y476250D01*
Y381508D01*
X1224788Y369570D01*
X1191006D01*
X1161542Y340106D01*
Y248158D01*
X1143254D01*
Y362966D01*
X1203452Y423164D01*
Y591820D01*
X1243838D01*
Y537972D01*
D02*
G37*
G36*
X1194562Y232664D02*
X1206246Y220980D01*
X1270000D01*
X1276350Y227330D01*
Y289814D01*
X1284478Y297942D01*
X1372870D01*
X1378966Y291846D01*
Y202946D01*
X1371600Y195580D01*
X1199134D01*
X1176274Y218440D01*
Y306578D01*
X1194562D01*
Y232664D01*
D02*
G37*
G36*
X625856Y91694D02*
X636524D01*
X638302Y89916D01*
Y75692D01*
X641604Y72390D01*
X651002D01*
X653288Y70104D01*
Y63754D01*
X651002Y61468D01*
X619293Y61468D01*
X616077Y64684D01*
X616077Y78253D01*
X609493Y84836D01*
X562864D01*
Y96010D01*
X586490D01*
Y96012D01*
X621538D01*
X625856Y91694D01*
D02*
G37*
%LPC*%
G36*
X1173590Y717660D02*
X1150510D01*
Y694580D01*
X1173590D01*
Y717660D01*
D02*
G37*
G36*
X1093569D02*
X1090531D01*
X1087596Y716873D01*
X1084964Y715354D01*
X1082816Y713206D01*
X1081296Y710574D01*
X1080510Y707639D01*
Y704601D01*
X1081296Y701666D01*
X1082816Y699034D01*
X1084964Y696886D01*
X1087596Y695367D01*
X1090531Y694580D01*
X1093569D01*
X1096504Y695367D01*
X1099136Y696886D01*
X1101284Y699034D01*
X1102803Y701666D01*
X1103590Y704601D01*
Y707639D01*
X1102803Y710574D01*
X1101284Y713206D01*
X1099136Y715354D01*
X1096504Y716873D01*
X1093569Y717660D01*
D02*
G37*
G36*
X1023569D02*
X1020531D01*
X1017596Y716873D01*
X1014964Y715354D01*
X1012816Y713206D01*
X1011296Y710574D01*
X1010510Y707639D01*
Y704601D01*
X1011296Y701666D01*
X1012816Y699034D01*
X1014964Y696886D01*
X1017596Y695367D01*
X1020531Y694580D01*
X1023569D01*
X1026504Y695367D01*
X1029136Y696886D01*
X1031284Y699034D01*
X1032803Y701666D01*
X1033590Y704601D01*
Y707639D01*
X1032803Y710574D01*
X1031284Y713206D01*
X1029136Y715354D01*
X1026504Y716873D01*
X1023569Y717660D01*
D02*
G37*
G36*
X953569D02*
X950531D01*
X947596Y716873D01*
X944964Y715354D01*
X942816Y713206D01*
X941296Y710574D01*
X940510Y707639D01*
Y704601D01*
X941296Y701666D01*
X942816Y699034D01*
X944964Y696886D01*
X947596Y695367D01*
X950531Y694580D01*
X953569D01*
X956504Y695367D01*
X959136Y696886D01*
X961284Y699034D01*
X962803Y701666D01*
X963590Y704601D01*
Y707639D01*
X962803Y710574D01*
X961284Y713206D01*
X959136Y715354D01*
X956504Y716873D01*
X953569Y717660D01*
D02*
G37*
G36*
X883569D02*
X880531D01*
X877596Y716873D01*
X874964Y715354D01*
X872816Y713206D01*
X871296Y710574D01*
X870510Y707639D01*
Y704601D01*
X871296Y701666D01*
X872816Y699034D01*
X874964Y696886D01*
X877596Y695367D01*
X880531Y694580D01*
X883569D01*
X886504Y695367D01*
X889136Y696886D01*
X891284Y699034D01*
X892803Y701666D01*
X893590Y704601D01*
Y707639D01*
X892803Y710574D01*
X891284Y713206D01*
X889136Y715354D01*
X886504Y716873D01*
X883569Y717660D01*
D02*
G37*
G36*
X813569D02*
X810531D01*
X807596Y716873D01*
X804964Y715354D01*
X802816Y713206D01*
X801296Y710574D01*
X800510Y707639D01*
Y704601D01*
X801296Y701666D01*
X802816Y699034D01*
X804964Y696886D01*
X807596Y695367D01*
X810531Y694580D01*
X813569D01*
X816504Y695367D01*
X819136Y696886D01*
X821284Y699034D01*
X822803Y701666D01*
X823590Y704601D01*
Y707639D01*
X822803Y710574D01*
X821284Y713206D01*
X819136Y715354D01*
X816504Y716873D01*
X813569Y717660D01*
D02*
G37*
G36*
X743569D02*
X740531D01*
X737596Y716873D01*
X734964Y715354D01*
X732816Y713206D01*
X731296Y710574D01*
X730510Y707639D01*
Y704601D01*
X731296Y701666D01*
X732816Y699034D01*
X734964Y696886D01*
X737596Y695367D01*
X740531Y694580D01*
X743569D01*
X746504Y695367D01*
X749136Y696886D01*
X751284Y699034D01*
X752803Y701666D01*
X753590Y704601D01*
Y707639D01*
X752803Y710574D01*
X751284Y713206D01*
X749136Y715354D01*
X746504Y716873D01*
X743569Y717660D01*
D02*
G37*
G36*
X673569D02*
X670531D01*
X667596Y716873D01*
X664964Y715354D01*
X662816Y713206D01*
X661296Y710574D01*
X660510Y707639D01*
Y704601D01*
X661296Y701666D01*
X662816Y699034D01*
X664964Y696886D01*
X667596Y695367D01*
X670531Y694580D01*
X673569D01*
X676504Y695367D01*
X679136Y696886D01*
X681284Y699034D01*
X682803Y701666D01*
X683590Y704601D01*
Y707639D01*
X682803Y710574D01*
X681284Y713206D01*
X679136Y715354D01*
X676504Y716873D01*
X673569Y717660D01*
D02*
G37*
G36*
X578975Y718012D02*
X575541D01*
X572225Y717123D01*
X569251Y715407D01*
X566823Y712979D01*
X565107Y710005D01*
X564218Y706689D01*
Y703255D01*
X565107Y699939D01*
X566823Y696965D01*
X569251Y694537D01*
X572225Y692821D01*
X575541Y691932D01*
X578975D01*
X582291Y692821D01*
X585265Y694537D01*
X587693Y696965D01*
X589409Y699939D01*
X590298Y703255D01*
Y706689D01*
X589409Y710005D01*
X587693Y712979D01*
X585265Y715407D01*
X582291Y717123D01*
X578975Y718012D01*
D02*
G37*
G36*
X508975D02*
X505541D01*
X502225Y717123D01*
X499251Y715407D01*
X496823Y712979D01*
X495107Y710005D01*
X494218Y706689D01*
Y703255D01*
X495107Y699939D01*
X496823Y696965D01*
X499251Y694537D01*
X502225Y692821D01*
X505541Y691932D01*
X508975D01*
X512291Y692821D01*
X515265Y694537D01*
X517693Y696965D01*
X519409Y699939D01*
X520298Y703255D01*
Y706689D01*
X519409Y710005D01*
X517693Y712979D01*
X515265Y715407D01*
X512291Y717123D01*
X508975Y718012D01*
D02*
G37*
G36*
X438975D02*
X435541D01*
X432225Y717123D01*
X429251Y715407D01*
X426823Y712979D01*
X425107Y710005D01*
X424218Y706689D01*
Y703255D01*
X425107Y699939D01*
X426823Y696965D01*
X429251Y694537D01*
X432225Y692821D01*
X435541Y691932D01*
X438975D01*
X442291Y692821D01*
X445265Y694537D01*
X447693Y696965D01*
X449409Y699939D01*
X450298Y703255D01*
Y706689D01*
X449409Y710005D01*
X447693Y712979D01*
X445265Y715407D01*
X442291Y717123D01*
X438975Y718012D01*
D02*
G37*
G36*
X368975D02*
X365541D01*
X362225Y717123D01*
X359251Y715407D01*
X356823Y712979D01*
X355107Y710005D01*
X354218Y706689D01*
Y703255D01*
X355107Y699939D01*
X356823Y696965D01*
X359251Y694537D01*
X362225Y692821D01*
X365541Y691932D01*
X368975D01*
X372291Y692821D01*
X375265Y694537D01*
X377693Y696965D01*
X379409Y699939D01*
X380298Y703255D01*
Y706689D01*
X379409Y710005D01*
X377693Y712979D01*
X375265Y715407D01*
X372291Y717123D01*
X368975Y718012D01*
D02*
G37*
G36*
X273289D02*
X269855D01*
X266539Y717123D01*
X263565Y715407D01*
X261137Y712979D01*
X259421Y710005D01*
X258532Y706689D01*
Y703255D01*
X259421Y699939D01*
X261137Y696965D01*
X263565Y694537D01*
X266539Y692821D01*
X269855Y691932D01*
X273289D01*
X276605Y692821D01*
X279579Y694537D01*
X282007Y696965D01*
X283723Y699939D01*
X284612Y703255D01*
Y706689D01*
X283723Y710005D01*
X282007Y712979D01*
X279579Y715407D01*
X276605Y717123D01*
X273289Y718012D01*
D02*
G37*
G36*
X203289D02*
X199855D01*
X196539Y717123D01*
X193565Y715407D01*
X191137Y712979D01*
X189421Y710005D01*
X188532Y706689D01*
Y703255D01*
X189421Y699939D01*
X191137Y696965D01*
X193565Y694537D01*
X196539Y692821D01*
X199855Y691932D01*
X203289D01*
X206605Y692821D01*
X209579Y694537D01*
X212007Y696965D01*
X213723Y699939D01*
X214612Y703255D01*
Y706689D01*
X213723Y710005D01*
X212007Y712979D01*
X209579Y715407D01*
X206605Y717123D01*
X203289Y718012D01*
D02*
G37*
G36*
X133289D02*
X129855D01*
X126539Y717123D01*
X123565Y715407D01*
X121137Y712979D01*
X119421Y710005D01*
X118532Y706689D01*
Y703255D01*
X119421Y699939D01*
X121137Y696965D01*
X123565Y694537D01*
X126539Y692821D01*
X129855Y691932D01*
X133289D01*
X136605Y692821D01*
X139579Y694537D01*
X142007Y696965D01*
X143723Y699939D01*
X144612Y703255D01*
Y706689D01*
X143723Y710005D01*
X142007Y712979D01*
X139579Y715407D01*
X136605Y717123D01*
X133289Y718012D01*
D02*
G37*
G36*
X63289D02*
X59855D01*
X56539Y717123D01*
X53565Y715407D01*
X51137Y712979D01*
X49421Y710005D01*
X48532Y706689D01*
Y703255D01*
X49421Y699939D01*
X51137Y696965D01*
X53565Y694537D01*
X56539Y692821D01*
X59855Y691932D01*
X63289D01*
X66605Y692821D01*
X69579Y694537D01*
X72007Y696965D01*
X73723Y699939D01*
X74612Y703255D01*
Y706689D01*
X73723Y710005D01*
X72007Y712979D01*
X69579Y715407D01*
X66605Y717123D01*
X63289Y718012D01*
D02*
G37*
G36*
X238289D02*
X234855D01*
X231539Y717123D01*
X228565Y715407D01*
X226137Y712979D01*
X224421Y710005D01*
X223532Y706689D01*
Y703255D01*
X224421Y699939D01*
X226137Y696965D01*
X227507Y695595D01*
Y682702D01*
X227813Y680381D01*
X228709Y678219D01*
X230134Y676362D01*
X231991Y674937D01*
X234153Y674041D01*
X236474Y673735D01*
X238795Y674041D01*
X240957Y674937D01*
X242814Y676362D01*
X244239Y678219D01*
X245135Y680381D01*
X245441Y682702D01*
Y695399D01*
X247007Y696965D01*
X248723Y699939D01*
X249612Y703255D01*
Y706689D01*
X248723Y710005D01*
X247007Y712979D01*
X244579Y715407D01*
X241605Y717123D01*
X238289Y718012D01*
D02*
G37*
G36*
X168289D02*
X164855D01*
X161539Y717123D01*
X158565Y715407D01*
X156137Y712979D01*
X154421Y710005D01*
X153532Y706689D01*
Y703255D01*
X154421Y699939D01*
X156137Y696965D01*
X157657Y695445D01*
Y682702D01*
X157963Y680381D01*
X158859Y678219D01*
X160284Y676362D01*
X162141Y674937D01*
X164303Y674041D01*
X166624Y673735D01*
X168945Y674041D01*
X171107Y674937D01*
X172964Y676362D01*
X174389Y678219D01*
X175285Y680381D01*
X175591Y682702D01*
Y695549D01*
X177007Y696965D01*
X178723Y699939D01*
X179612Y703255D01*
Y706689D01*
X178723Y710005D01*
X177007Y712979D01*
X174579Y715407D01*
X171605Y717123D01*
X168289Y718012D01*
D02*
G37*
G36*
X98289D02*
X94855D01*
X91539Y717123D01*
X88565Y715407D01*
X86137Y712979D01*
X84421Y710005D01*
X83532Y706689D01*
Y703255D01*
X84421Y699939D01*
X86137Y696965D01*
X87553Y695549D01*
Y682702D01*
X87859Y680381D01*
X88755Y678219D01*
X90180Y676362D01*
X92037Y674937D01*
X94199Y674041D01*
X96520Y673735D01*
X98841Y674041D01*
X101003Y674937D01*
X102860Y676362D01*
X104285Y678219D01*
X105181Y680381D01*
X105487Y682702D01*
Y695445D01*
X107007Y696965D01*
X108723Y699939D01*
X109612Y703255D01*
Y706689D01*
X108723Y710005D01*
X107007Y712979D01*
X104579Y715407D01*
X101605Y717123D01*
X98289Y718012D01*
D02*
G37*
G36*
X28289D02*
X24855D01*
X21539Y717123D01*
X18565Y715407D01*
X16137Y712979D01*
X14421Y710005D01*
X13532Y706689D01*
Y703255D01*
X14421Y699939D01*
X16137Y696965D01*
X17449Y695653D01*
Y682702D01*
X17755Y680381D01*
X18651Y678219D01*
X20076Y676362D01*
X21933Y674937D01*
X24095Y674041D01*
X26416Y673735D01*
X28737Y674041D01*
X30899Y674937D01*
X32756Y676362D01*
X34181Y678219D01*
X35077Y680381D01*
X35383Y682702D01*
Y695341D01*
X37007Y696965D01*
X38723Y699939D01*
X39612Y703255D01*
Y706689D01*
X38723Y710005D01*
X37007Y712979D01*
X34579Y715407D01*
X31605Y717123D01*
X28289Y718012D01*
D02*
G37*
G36*
X543975D02*
X540541D01*
X537225Y717123D01*
X534251Y715407D01*
X531823Y712979D01*
X530107Y710005D01*
X529218Y706689D01*
Y703255D01*
X530107Y699939D01*
X531823Y696965D01*
X534251Y694537D01*
X537225Y692821D01*
X537534Y692738D01*
Y684484D01*
X518602D01*
Y671904D01*
X547182D01*
Y678189D01*
X547183Y678194D01*
X547182Y678199D01*
Y684484D01*
X547116D01*
Y692774D01*
X547291Y692821D01*
X550265Y694537D01*
X552693Y696965D01*
X554409Y699939D01*
X555298Y703255D01*
Y706689D01*
X554409Y710005D01*
X552693Y712979D01*
X550265Y715407D01*
X547291Y717123D01*
X543975Y718012D01*
D02*
G37*
G36*
X473975D02*
X470541D01*
X467225Y717123D01*
X464251Y715407D01*
X461823Y712979D01*
X460107Y710005D01*
X459218Y706689D01*
Y703255D01*
X460107Y699939D01*
X461823Y696965D01*
X464251Y694537D01*
X467225Y692821D01*
X467482Y692752D01*
Y684484D01*
X448498D01*
Y671904D01*
X477078D01*
Y678189D01*
X477079Y678194D01*
X477078Y678199D01*
Y684484D01*
X477064D01*
Y692760D01*
X477291Y692821D01*
X480265Y694537D01*
X482693Y696965D01*
X484409Y699939D01*
X485298Y703255D01*
Y706689D01*
X484409Y710005D01*
X482693Y712979D01*
X480265Y715407D01*
X477291Y717123D01*
X473975Y718012D01*
D02*
G37*
G36*
X403975D02*
X400541D01*
X397225Y717123D01*
X394251Y715407D01*
X391823Y712979D01*
X390107Y710005D01*
X389218Y706689D01*
Y703255D01*
X390107Y699939D01*
X391823Y696965D01*
X394251Y694537D01*
X397225Y692821D01*
X397430Y692766D01*
Y684484D01*
X378394D01*
Y671904D01*
X406974D01*
Y678040D01*
X407012Y678231D01*
Y692746D01*
X407291Y692821D01*
X410265Y694537D01*
X412693Y696965D01*
X414409Y699939D01*
X415298Y703255D01*
Y706689D01*
X414409Y710005D01*
X412693Y712979D01*
X410265Y715407D01*
X407291Y717123D01*
X403975Y718012D01*
D02*
G37*
G36*
X333975D02*
X330541D01*
X327225Y717123D01*
X324251Y715407D01*
X321823Y712979D01*
X320107Y710005D01*
X319218Y706689D01*
Y703255D01*
X320107Y699939D01*
X321823Y696965D01*
X324251Y694537D01*
X327225Y692821D01*
X327505Y692746D01*
Y684484D01*
X308544D01*
Y671904D01*
X337124D01*
Y678189D01*
X337125Y678194D01*
X337124Y678199D01*
Y684484D01*
X337087D01*
Y692766D01*
X337291Y692821D01*
X340265Y694537D01*
X342693Y696965D01*
X344409Y699939D01*
X345298Y703255D01*
Y706689D01*
X344409Y710005D01*
X342693Y712979D01*
X340265Y715407D01*
X337291Y717123D01*
X333975Y718012D01*
D02*
G37*
G36*
X1128569Y717660D02*
X1125531D01*
X1122596Y716873D01*
X1119964Y715354D01*
X1117816Y713206D01*
X1116296Y710574D01*
X1115510Y707639D01*
Y704601D01*
X1116296Y701666D01*
X1117816Y699034D01*
X1118698Y698152D01*
Y684590D01*
X1111458D01*
Y667510D01*
X1142538D01*
Y684590D01*
X1135350D01*
Y698100D01*
X1136284Y699034D01*
X1137803Y701666D01*
X1138590Y704601D01*
Y707639D01*
X1137803Y710574D01*
X1136284Y713206D01*
X1134136Y715354D01*
X1131504Y716873D01*
X1128569Y717660D01*
D02*
G37*
G36*
X1058569D02*
X1055531D01*
X1052596Y716873D01*
X1049964Y715354D01*
X1047816Y713206D01*
X1046296Y710574D01*
X1045510Y707639D01*
Y704601D01*
X1046296Y701666D01*
X1047816Y699034D01*
X1048773Y698077D01*
Y684590D01*
X1041608D01*
Y667510D01*
X1072688D01*
Y684590D01*
X1065425D01*
Y698175D01*
X1066284Y699034D01*
X1067804Y701666D01*
X1068590Y704601D01*
Y707639D01*
X1067804Y710574D01*
X1066284Y713206D01*
X1064136Y715354D01*
X1061504Y716873D01*
X1058569Y717660D01*
D02*
G37*
G36*
X988569D02*
X985531D01*
X982596Y716873D01*
X979964Y715354D01*
X977816Y713206D01*
X976296Y710574D01*
X975510Y707639D01*
Y704601D01*
X976296Y701666D01*
X977816Y699034D01*
X978848Y698002D01*
Y684590D01*
X971758D01*
Y667510D01*
X1002838D01*
Y684590D01*
X995500D01*
Y698250D01*
X996284Y699034D01*
X997803Y701666D01*
X998590Y704601D01*
Y707639D01*
X997803Y710574D01*
X996284Y713206D01*
X994136Y715354D01*
X991504Y716873D01*
X988569Y717660D01*
D02*
G37*
G36*
X918569D02*
X915531D01*
X912596Y716873D01*
X909964Y715354D01*
X907816Y713206D01*
X906296Y710574D01*
X905510Y707639D01*
Y704601D01*
X906296Y701666D01*
X907816Y699034D01*
X908796Y698054D01*
Y684590D01*
X901654D01*
Y667510D01*
X932734D01*
Y684590D01*
X925448D01*
Y698198D01*
X926284Y699034D01*
X927804Y701666D01*
X928590Y704601D01*
Y707639D01*
X927804Y710574D01*
X926284Y713206D01*
X924136Y715354D01*
X921504Y716873D01*
X918569Y717660D01*
D02*
G37*
G36*
X848569D02*
X845531D01*
X842596Y716873D01*
X839964Y715354D01*
X837816Y713206D01*
X836296Y710574D01*
X835510Y707639D01*
Y704601D01*
X836296Y701666D01*
X837816Y699034D01*
X838724Y698126D01*
Y684590D01*
X831804D01*
Y667510D01*
X862884D01*
Y684590D01*
X855376D01*
Y698126D01*
X856284Y699034D01*
X857803Y701666D01*
X858590Y704601D01*
Y707639D01*
X857803Y710574D01*
X856284Y713206D01*
X854136Y715354D01*
X851504Y716873D01*
X848569Y717660D01*
D02*
G37*
G36*
X778569D02*
X775531D01*
X772596Y716873D01*
X769964Y715354D01*
X767816Y713206D01*
X766296Y710574D01*
X765510Y707639D01*
Y704601D01*
X766296Y701666D01*
X767816Y699034D01*
X768819Y698031D01*
Y684590D01*
X761700D01*
Y667510D01*
X792780D01*
Y684590D01*
X785471D01*
Y698221D01*
X786284Y699034D01*
X787804Y701666D01*
X788590Y704601D01*
Y707639D01*
X787804Y710574D01*
X786284Y713206D01*
X784136Y715354D01*
X781504Y716873D01*
X778569Y717660D01*
D02*
G37*
G36*
X708569D02*
X705531D01*
X702596Y716873D01*
X699964Y715354D01*
X697816Y713206D01*
X696296Y710574D01*
X695510Y707639D01*
Y704601D01*
X696296Y701666D01*
X697816Y699034D01*
X698767Y698083D01*
Y684590D01*
X691596D01*
Y667510D01*
X722676D01*
Y684590D01*
X715419D01*
Y698169D01*
X716284Y699034D01*
X717803Y701666D01*
X718590Y704601D01*
Y707639D01*
X717803Y710574D01*
X716284Y713206D01*
X714136Y715354D01*
X711504Y716873D01*
X708569Y717660D01*
D02*
G37*
G36*
X638569D02*
X635531D01*
X632596Y716873D01*
X629964Y715354D01*
X627816Y713206D01*
X626297Y710574D01*
X625510Y707639D01*
Y704601D01*
X626297Y701666D01*
X627816Y699034D01*
X628842Y698008D01*
Y684590D01*
X621746D01*
Y667510D01*
X652826D01*
Y684590D01*
X645494D01*
Y698244D01*
X646284Y699034D01*
X647804Y701666D01*
X648590Y704601D01*
Y707639D01*
X647804Y710574D01*
X646284Y713206D01*
X644136Y715354D01*
X641504Y716873D01*
X638569Y717660D01*
D02*
G37*
G36*
X528182Y654484D02*
X518602D01*
Y641904D01*
X528182D01*
Y654484D01*
D02*
G37*
G36*
X458078D02*
X448498D01*
Y641904D01*
X458078D01*
Y654484D01*
D02*
G37*
G36*
X387974D02*
X378394D01*
Y641904D01*
X387974D01*
Y654484D01*
D02*
G37*
G36*
X318124D02*
X308544D01*
Y641904D01*
X318124D01*
Y654484D01*
D02*
G37*
G36*
X547182D02*
X537602D01*
Y648199D01*
X537601Y648194D01*
Y632664D01*
X531250D01*
Y616584D01*
X553330D01*
Y632664D01*
X547183D01*
Y648194D01*
X547182Y648199D01*
Y654484D01*
D02*
G37*
G36*
X477078D02*
X467498D01*
Y648199D01*
X467497Y648194D01*
Y632664D01*
X461146D01*
Y616584D01*
X483226D01*
Y632664D01*
X477079D01*
Y648194D01*
X477078Y648199D01*
Y654484D01*
D02*
G37*
G36*
X406974D02*
X397394D01*
Y648199D01*
X397393Y648194D01*
Y632664D01*
X391042D01*
Y616584D01*
X413122D01*
Y632664D01*
X406975D01*
Y648194D01*
X406974Y648199D01*
Y654484D01*
D02*
G37*
G36*
X337124D02*
X327544D01*
Y648199D01*
X327543Y648194D01*
Y632664D01*
X321192D01*
Y616584D01*
X343272D01*
Y632664D01*
X337125D01*
Y648194D01*
X337124Y648199D01*
Y654484D01*
D02*
G37*
G36*
X1142538Y640590D02*
X1111458D01*
Y623510D01*
X1118672D01*
Y616010D01*
X1111458D01*
Y616010D01*
X1110788D01*
Y616010D01*
X1079708D01*
Y599930D01*
X1110788D01*
X1111458Y598937D01*
Y598930D01*
X1142538D01*
Y616010D01*
X1135324D01*
Y623510D01*
X1142538D01*
Y640590D01*
D02*
G37*
G36*
X1072688D02*
X1041608D01*
Y623510D01*
X1048822D01*
Y616010D01*
X1041608D01*
Y616010D01*
X1040684D01*
Y616010D01*
X1009604D01*
Y599930D01*
X1040684D01*
X1041608Y599095D01*
Y598930D01*
X1072688D01*
Y616010D01*
X1065474D01*
Y623510D01*
X1072688D01*
Y640590D01*
D02*
G37*
G36*
X1002838D02*
X971758D01*
Y623510D01*
X978972D01*
Y616010D01*
X971758D01*
Y616010D01*
X970834D01*
Y616010D01*
X939754D01*
Y599930D01*
X970834D01*
X971758Y599095D01*
Y598930D01*
X1002838D01*
Y616010D01*
X995624D01*
Y623510D01*
X1002838D01*
Y640590D01*
D02*
G37*
G36*
X722676D02*
X691596D01*
Y623510D01*
X698810D01*
Y616010D01*
X691596D01*
Y616010D01*
X691180D01*
Y616010D01*
X660100D01*
Y599930D01*
X691180D01*
X691596Y598930D01*
X722676D01*
Y616010D01*
X715462D01*
Y623510D01*
X722676D01*
Y640590D01*
D02*
G37*
G36*
X652826D02*
X621746D01*
Y623510D01*
X628960D01*
Y616010D01*
X621746D01*
Y616010D01*
X621584D01*
Y616010D01*
X590504D01*
Y599930D01*
X621584D01*
X621746Y598930D01*
X652826D01*
Y616010D01*
X645612D01*
Y623510D01*
X652826D01*
Y640590D01*
D02*
G37*
G36*
X932734D02*
X901654D01*
Y623510D01*
X908868D01*
Y616010D01*
X870920D01*
Y599930D01*
X901654D01*
Y598930D01*
X932734D01*
Y616010D01*
X925520D01*
Y623510D01*
X932734D01*
Y640590D01*
D02*
G37*
G36*
X862884D02*
X831804D01*
Y623510D01*
X839018D01*
Y616010D01*
X800816D01*
Y599930D01*
X831804D01*
Y598930D01*
X862884D01*
Y616010D01*
X855670D01*
Y623510D01*
X862884D01*
Y640590D01*
D02*
G37*
G36*
X792780D02*
X761700D01*
Y623510D01*
X768914D01*
Y616010D01*
X730966D01*
Y599930D01*
X761700D01*
Y598930D01*
X792780D01*
Y616010D01*
X785566D01*
Y623510D01*
X792780D01*
Y640590D01*
D02*
G37*
G36*
X530724Y605664D02*
Y605664D01*
X530017Y605664D01*
X508644D01*
Y601509D01*
X502374D01*
X500887Y601213D01*
X499627Y600371D01*
X496363Y597107D01*
X495521Y595847D01*
X495225Y594360D01*
Y567182D01*
X495521Y565695D01*
X496363Y564435D01*
X501697Y559101D01*
X502957Y558259D01*
X504444Y557963D01*
X509016D01*
Y556514D01*
X533908D01*
Y567182D01*
X509016D01*
Y565733D01*
X506053D01*
X502995Y568791D01*
Y592751D01*
X503983Y593739D01*
X508644D01*
Y589584D01*
X530724D01*
Y589584D01*
X531250D01*
Y589584D01*
X553330D01*
Y605664D01*
X531957D01*
X531250Y605664D01*
Y605664D01*
X530724D01*
D02*
G37*
G36*
X460366D02*
Y605664D01*
X459913Y605664D01*
X438286D01*
Y589584D01*
X460366D01*
Y589584D01*
X461146D01*
Y589584D01*
X468301D01*
Y579882D01*
X459740D01*
Y569214D01*
X484632D01*
Y579882D01*
X476071D01*
Y589584D01*
X483226D01*
Y605664D01*
X461599D01*
X461146Y605664D01*
Y605664D01*
X460366D01*
D02*
G37*
G36*
X232614Y665857D02*
X221334D01*
Y654027D01*
X223089D01*
Y649834D01*
X223385Y648347D01*
X224227Y647087D01*
X240077Y631237D01*
X241337Y630395D01*
X242824Y630099D01*
X268233D01*
X276336Y621996D01*
Y597287D01*
X275475Y597115D01*
X274263Y596305D01*
X273453Y595093D01*
X273168Y593663D01*
Y585913D01*
X273453Y584483D01*
X274123Y583479D01*
X274622Y582416D01*
Y566836D01*
X285702D01*
Y582416D01*
X286297Y583271D01*
X287107Y584483D01*
X287392Y585913D01*
Y593663D01*
X287107Y595093D01*
X286297Y596305D01*
X285085Y597115D01*
X284106Y597310D01*
Y623605D01*
X283810Y625092D01*
X282968Y626352D01*
X272589Y636731D01*
X271329Y637573D01*
X269842Y637869D01*
X244433D01*
X230859Y651443D01*
Y654027D01*
X232614D01*
Y665857D01*
D02*
G37*
G36*
X162764D02*
X151484D01*
Y654027D01*
X153239D01*
Y652374D01*
X153535Y650887D01*
X154377Y649627D01*
X159813Y644191D01*
X161073Y643349D01*
X162560Y643053D01*
X201693D01*
X232453Y612293D01*
Y597298D01*
X231533Y597115D01*
X230321Y596305D01*
X229511Y595093D01*
X229226Y593663D01*
Y585913D01*
X229511Y584483D01*
X230181Y583479D01*
X230680Y582416D01*
Y566836D01*
X241760D01*
Y582416D01*
X242355Y583271D01*
X243165Y584483D01*
X243450Y585913D01*
Y593663D01*
X243165Y595093D01*
X242355Y596305D01*
X241143Y597115D01*
X240223Y597298D01*
Y613902D01*
X239927Y615389D01*
X239085Y616649D01*
X206049Y649685D01*
X204789Y650527D01*
X203302Y650823D01*
X164169D01*
X162235Y652757D01*
X162761Y654027D01*
X162764D01*
Y665857D01*
D02*
G37*
G36*
X92660D02*
X81380D01*
Y654027D01*
X83135D01*
Y650088D01*
X83431Y648601D01*
X84273Y647341D01*
X105203Y626411D01*
X106463Y625569D01*
X107950Y625273D01*
X180001D01*
X188198Y617076D01*
Y597287D01*
X187337Y597115D01*
X186125Y596305D01*
X185315Y595093D01*
X185030Y593663D01*
Y585913D01*
X185315Y584483D01*
X185985Y583479D01*
X186484Y582416D01*
Y566836D01*
X197564D01*
Y582416D01*
X198159Y583271D01*
X198969Y584483D01*
X199254Y585913D01*
Y593663D01*
X198969Y595093D01*
X198159Y596305D01*
X196947Y597115D01*
X195968Y597310D01*
Y618685D01*
X195672Y620172D01*
X194830Y621432D01*
X184357Y631905D01*
X183097Y632747D01*
X181610Y633043D01*
X109559D01*
X90905Y651697D01*
Y654027D01*
X92660D01*
Y665857D01*
D02*
G37*
G36*
X22556D02*
X11276D01*
Y654027D01*
X13031D01*
Y644093D01*
X13327Y642606D01*
X14169Y641346D01*
X20976Y634539D01*
X22236Y633697D01*
X23723Y633401D01*
X69511D01*
X94564Y608348D01*
X95825Y607506D01*
X97311Y607210D01*
X141676D01*
X144061Y604825D01*
Y597298D01*
X143141Y597115D01*
X141929Y596305D01*
X141119Y595093D01*
X140834Y593663D01*
Y585913D01*
X141119Y584483D01*
X141929Y583271D01*
X142542Y582416D01*
Y566836D01*
X153622D01*
Y582416D01*
X154107Y583485D01*
X154773Y584483D01*
X155058Y585913D01*
Y593663D01*
X154773Y595093D01*
X153963Y596305D01*
X152751Y597115D01*
X151831Y597298D01*
Y606434D01*
X151535Y607921D01*
X150693Y609181D01*
X146032Y613842D01*
X144772Y614684D01*
X143285Y614979D01*
X98920D01*
X73867Y640033D01*
X72607Y640875D01*
X71120Y641171D01*
X25332D01*
X20801Y645702D01*
Y654027D01*
X22556D01*
Y665857D01*
D02*
G37*
G36*
X457024Y582858D02*
X444944D01*
Y569038D01*
X443810D01*
Y566383D01*
X442146D01*
X440659Y566087D01*
X439399Y565245D01*
X437181Y563027D01*
X436339Y561767D01*
X436043Y560280D01*
Y529082D01*
X436339Y527595D01*
X437181Y526335D01*
X458395Y505121D01*
Y501257D01*
X458348Y501237D01*
X456929Y500149D01*
X455841Y498730D01*
X455157Y497079D01*
X454923Y495306D01*
Y484806D01*
X455157Y483033D01*
X455841Y481382D01*
X456929Y479963D01*
X458348Y478875D01*
X460000Y478191D01*
X461772Y477957D01*
X463545Y478191D01*
X465196Y478875D01*
X466615Y479963D01*
X467703Y481382D01*
X468387Y483033D01*
X468621Y484806D01*
Y495306D01*
X468387Y497079D01*
X467703Y498730D01*
X466615Y500149D01*
X466165Y500494D01*
Y506730D01*
X465869Y508217D01*
X465027Y509477D01*
X443813Y530691D01*
Y541958D01*
X451426D01*
X451952Y540688D01*
X451309Y540045D01*
X450342Y537711D01*
Y535185D01*
X451309Y532851D01*
X453095Y531065D01*
X455429Y530098D01*
X457955D01*
X460289Y531065D01*
X460338Y531114D01*
X468301D01*
Y522986D01*
X468597Y521499D01*
X469439Y520239D01*
X483287Y506391D01*
Y500884D01*
X482329Y500149D01*
X481241Y498730D01*
X480557Y497079D01*
X480323Y495306D01*
Y484806D01*
X480557Y483033D01*
X481241Y481382D01*
X482329Y479963D01*
X483748Y478875D01*
X485400Y478191D01*
X487172Y477957D01*
X488945Y478191D01*
X490596Y478875D01*
X492015Y479963D01*
X493103Y481382D01*
X493787Y483033D01*
X494021Y484806D01*
Y495306D01*
X493787Y497079D01*
X493103Y498730D01*
X492089Y500051D01*
X492169Y500474D01*
X492573Y501321D01*
X496808D01*
X498307Y499823D01*
X500641Y498856D01*
X503167D01*
X505501Y499823D01*
X506829Y501150D01*
X508217Y500788D01*
X508270Y500563D01*
X507729Y500149D01*
X506641Y498730D01*
X505957Y497079D01*
X505723Y495306D01*
Y484806D01*
X505957Y483033D01*
X506641Y481382D01*
X507729Y479963D01*
X509148Y478875D01*
X510799Y478191D01*
X512572Y477957D01*
X514344Y478191D01*
X515996Y478875D01*
X517415Y479963D01*
X518503Y481382D01*
X519187Y483033D01*
X519421Y484806D01*
Y495306D01*
X519187Y497079D01*
X518503Y498730D01*
X517415Y500149D01*
X516497Y500853D01*
Y511628D01*
X518692D01*
Y525708D01*
X506612D01*
Y511628D01*
X508727D01*
Y508645D01*
X507457Y508392D01*
X507287Y508803D01*
X505501Y510589D01*
X504674Y510932D01*
X503692Y511628D01*
Y525708D01*
X501537D01*
Y529986D01*
X502807Y530779D01*
X504451Y530098D01*
X506977D01*
X509311Y531065D01*
X509360Y531114D01*
X533325D01*
X533908Y531114D01*
X534595Y530129D01*
Y512080D01*
X532843Y510327D01*
X531876Y507993D01*
Y505467D01*
X532843Y503133D01*
X534629Y501347D01*
X536963Y500380D01*
X539489D01*
X541823Y501347D01*
X543609Y503133D01*
X544576Y505467D01*
Y507993D01*
X543609Y510327D01*
X542365Y511572D01*
Y545846D01*
X542069Y547333D01*
X541227Y548593D01*
X537925Y551895D01*
X536665Y552737D01*
X535178Y553033D01*
X533908D01*
Y554482D01*
X509016D01*
Y543814D01*
X533908D01*
X534595Y542829D01*
Y542767D01*
X533908Y541782D01*
X533325Y541782D01*
X509360D01*
X509311Y541831D01*
X506977Y542798D01*
X504451D01*
X502807Y542117D01*
X501954Y542530D01*
X501507Y542881D01*
X501241Y544218D01*
X500399Y545479D01*
X493983Y551895D01*
X492723Y552737D01*
X491236Y553033D01*
X484632D01*
Y554482D01*
X459740D01*
Y553033D01*
X457890D01*
Y555038D01*
X457890D01*
Y555958D01*
X457890D01*
Y557963D01*
X459740D01*
Y556514D01*
X484632D01*
Y567182D01*
X459740D01*
Y565733D01*
X457890D01*
Y569038D01*
X457024D01*
Y582858D01*
D02*
G37*
G36*
X320666Y605664D02*
Y605664D01*
X298586D01*
Y589584D01*
X320666D01*
Y589584D01*
X321192D01*
Y589584D01*
X343272D01*
Y593739D01*
X357839D01*
X359632Y591946D01*
Y579882D01*
X351071D01*
Y569214D01*
X375963D01*
Y579882D01*
X367402D01*
Y589015D01*
X368436Y589584D01*
X368672Y589584D01*
X382821D01*
Y568588D01*
X383117Y567101D01*
X383959Y565841D01*
X390699Y559101D01*
X391959Y558259D01*
X393446Y557963D01*
X400347D01*
Y556514D01*
X425239D01*
Y567182D01*
X400347D01*
Y565733D01*
X395055D01*
X390591Y570197D01*
Y588501D01*
X391042Y589584D01*
X413122D01*
Y605664D01*
X391749D01*
X391042Y605664D01*
Y605664D01*
X390516D01*
X390516Y605664D01*
X389809Y605664D01*
X368436D01*
Y594864D01*
X367166Y594739D01*
X367106Y595042D01*
X366264Y596302D01*
X362195Y600371D01*
X360935Y601213D01*
X359448Y601509D01*
X343272D01*
Y605664D01*
X321192D01*
Y605664D01*
X320666D01*
D02*
G37*
G36*
X347296Y582858D02*
X335216D01*
Y569292D01*
X334082D01*
Y566637D01*
X329580D01*
X328093Y566341D01*
X326833Y565499D01*
X322119Y560785D01*
X321277Y559525D01*
X320981Y558038D01*
Y531716D01*
X321277Y530230D01*
X322119Y528969D01*
X346127Y504961D01*
Y499614D01*
X345169Y498879D01*
X344081Y497460D01*
X343397Y495808D01*
X343163Y494036D01*
Y483536D01*
X343397Y481763D01*
X344081Y480112D01*
X345169Y478693D01*
X346588Y477605D01*
X348240Y476921D01*
X350012Y476687D01*
X351785Y476921D01*
X353436Y477605D01*
X354855Y478693D01*
X355943Y480112D01*
X356627Y481763D01*
X356861Y483536D01*
Y494036D01*
X356627Y495808D01*
X355943Y497460D01*
X354855Y498879D01*
X353897Y499614D01*
Y506570D01*
X353601Y508057D01*
X352759Y509317D01*
X328751Y533325D01*
Y556429D01*
X331189Y558867D01*
X334082D01*
Y556562D01*
X334082Y556212D01*
Y555292D01*
X334082Y554942D01*
Y542212D01*
X342714D01*
X343240Y540942D01*
X342597Y540299D01*
X341630Y537965D01*
Y535439D01*
X342597Y533105D01*
X344383Y531319D01*
X346717Y530352D01*
X349243D01*
X351083Y531114D01*
X359505D01*
Y522562D01*
X359801Y521076D01*
X360643Y519815D01*
X371527Y508931D01*
Y499614D01*
X370569Y498879D01*
X369481Y497460D01*
X368797Y495808D01*
X368563Y494036D01*
Y483536D01*
X368797Y481763D01*
X369481Y480112D01*
X370569Y478693D01*
X371988Y477605D01*
X373639Y476921D01*
X375412Y476687D01*
X377184Y476921D01*
X378836Y477605D01*
X380255Y478693D01*
X381343Y480112D01*
X382027Y481763D01*
X382261Y483536D01*
Y494036D01*
X382027Y495808D01*
X381343Y497460D01*
X380255Y498879D01*
X379297Y499614D01*
Y501321D01*
X385429D01*
X386927Y499823D01*
X389261Y498856D01*
X391787D01*
X394121Y499823D01*
X395724Y501426D01*
X396591Y501249D01*
X396994Y501036D01*
Y499665D01*
X395969Y498879D01*
X394881Y497460D01*
X394197Y495808D01*
X393963Y494036D01*
Y483536D01*
X394197Y481763D01*
X394881Y480112D01*
X395969Y478693D01*
X397388Y477605D01*
X399039Y476921D01*
X400812Y476687D01*
X402584Y476921D01*
X404236Y477605D01*
X405655Y478693D01*
X406743Y480112D01*
X407427Y481763D01*
X407661Y483536D01*
Y494036D01*
X407427Y495808D01*
X406743Y497460D01*
X405655Y498879D01*
X404764Y499562D01*
Y511628D01*
X406986D01*
Y525708D01*
X394906D01*
Y511628D01*
X396994D01*
Y509375D01*
X396591Y509163D01*
X395724Y508986D01*
X394121Y510589D01*
X393016Y511047D01*
X391986Y511628D01*
Y525708D01*
X389831D01*
Y533849D01*
X391101Y534102D01*
X391619Y532851D01*
X393405Y531065D01*
X395739Y530098D01*
X398265D01*
X400599Y531065D01*
X400648Y531114D01*
X424359D01*
Y527695D01*
X423465Y526801D01*
X422623Y525541D01*
X422327Y524054D01*
Y511826D01*
X420829Y510327D01*
X419862Y507993D01*
Y505467D01*
X420829Y503133D01*
X422615Y501347D01*
X424949Y500380D01*
X427475D01*
X429809Y501347D01*
X431595Y503133D01*
X432562Y505467D01*
Y507993D01*
X431595Y510327D01*
X430097Y511826D01*
Y522445D01*
X430991Y523340D01*
X431833Y524600D01*
X432129Y526086D01*
Y546608D01*
X431833Y548095D01*
X430991Y549355D01*
X428451Y551895D01*
X427191Y552737D01*
X425704Y553033D01*
X425239D01*
Y554482D01*
X400347D01*
Y543814D01*
X424359D01*
Y541782D01*
X400648D01*
X400599Y541831D01*
X398265Y542798D01*
X395739D01*
X393405Y541831D01*
X391619Y540045D01*
X391101Y538794D01*
X389831Y539047D01*
Y544202D01*
X389535Y545689D01*
X388693Y546949D01*
X383747Y551895D01*
X382487Y552737D01*
X381000Y553033D01*
X375963D01*
Y554482D01*
X351071D01*
Y553033D01*
X348162D01*
Y554942D01*
X348162Y555292D01*
Y556212D01*
X348162Y556562D01*
Y557963D01*
X351071D01*
Y556514D01*
X375963D01*
Y567182D01*
X351071D01*
Y565733D01*
X348162D01*
Y569292D01*
X347296D01*
Y582858D01*
D02*
G37*
G36*
X668471Y563218D02*
X667480Y563020D01*
X666640Y562459D01*
X666640Y562459D01*
X664919Y560738D01*
X664919Y560738D01*
X664357Y559897D01*
X664160Y558907D01*
Y549948D01*
X663927Y549693D01*
X662890Y549081D01*
X662300Y549198D01*
X636565D01*
X635574Y549001D01*
X634734Y548439D01*
X634172Y547599D01*
X633975Y546608D01*
Y500224D01*
X627587Y493836D01*
X626414Y494322D01*
Y546608D01*
X626217Y547599D01*
X625655Y548439D01*
X624815Y549001D01*
X623824Y549198D01*
X578104D01*
X577113Y549001D01*
X576273Y548439D01*
X574749Y546915D01*
X574187Y546075D01*
X573990Y545084D01*
Y535940D01*
X574187Y534949D01*
X574749Y534109D01*
X576273Y532585D01*
X577113Y532023D01*
X578104Y531826D01*
X585730Y531826D01*
X586944Y530612D01*
Y522478D01*
X587141Y521487D01*
X587703Y520647D01*
X591259Y517091D01*
X592099Y516529D01*
X593090Y516332D01*
X603955D01*
X605994Y514293D01*
Y479298D01*
X606191Y478307D01*
X606753Y477467D01*
X607593Y476905D01*
X608584Y476708D01*
X623824D01*
X624420Y476827D01*
X624479Y476529D01*
X625041Y475689D01*
X626057Y474673D01*
X626897Y474111D01*
X627888Y473914D01*
X636565D01*
X637556Y474111D01*
X638396Y474673D01*
X639121Y475397D01*
X640083Y476165D01*
X641275Y475369D01*
X642681Y475089D01*
X649055D01*
X650461Y475369D01*
X651653Y476165D01*
X652200Y476984D01*
X655828D01*
Y473856D01*
X666908D01*
Y490936D01*
X655828D01*
Y487862D01*
X652236D01*
X651653Y488735D01*
X650461Y489531D01*
X649055Y489811D01*
X644615D01*
X644129Y490984D01*
X650682Y497536D01*
X664318D01*
X665309Y497733D01*
X665613Y497936D01*
X665917Y497733D01*
X666908Y497536D01*
X684530D01*
X685521Y497733D01*
X686361Y498295D01*
X686923Y499135D01*
X687120Y500126D01*
Y511796D01*
X687175Y512074D01*
Y535431D01*
X690933Y539189D01*
X691495Y540029D01*
X691692Y541020D01*
Y553974D01*
X691495Y554965D01*
X690933Y555805D01*
X688841Y557898D01*
X688841Y557898D01*
X684279Y562459D01*
X683439Y563020D01*
X682448Y563218D01*
X668471Y563218D01*
D02*
G37*
G36*
X295202Y560416D02*
X284122D01*
Y547324D01*
X283312Y545368D01*
Y542842D01*
X283352Y542745D01*
X283110Y542583D01*
X282300Y541371D01*
X282016Y539941D01*
Y533191D01*
X282300Y531761D01*
X283110Y530549D01*
X284323Y529739D01*
X285753Y529454D01*
X293503D01*
X294933Y529739D01*
X296145Y530549D01*
X296955Y531761D01*
X297239Y533191D01*
Y539941D01*
X296955Y541371D01*
X296145Y542583D01*
X295957Y542709D01*
X296012Y542842D01*
Y545368D01*
X295202Y547324D01*
Y560416D01*
D02*
G37*
G36*
X251260D02*
X240180D01*
Y547383D01*
X239370Y545427D01*
Y542901D01*
X239470Y542660D01*
X239355Y542583D01*
X238545Y541371D01*
X238260Y539941D01*
Y533191D01*
X238545Y531761D01*
X239355Y530549D01*
X240567Y529739D01*
X241997Y529454D01*
X249747D01*
X251177Y529739D01*
X252389Y530549D01*
X253199Y531761D01*
X253484Y533191D01*
Y539941D01*
X253199Y541371D01*
X252389Y542583D01*
X252036Y542819D01*
X252070Y542901D01*
Y545427D01*
X251260Y547383D01*
Y560416D01*
D02*
G37*
G36*
X207064D02*
X195984D01*
Y547358D01*
X195174Y545402D01*
Y542876D01*
X195211Y542788D01*
X194905Y542583D01*
X194095Y541371D01*
X193810Y539941D01*
Y533191D01*
X194095Y531761D01*
X194905Y530549D01*
X196117Y529739D01*
X197547Y529454D01*
X205297D01*
X206727Y529739D01*
X207939Y530549D01*
X208749Y531761D01*
X209034Y533191D01*
Y539941D01*
X208749Y541371D01*
X207939Y542583D01*
X207793Y542681D01*
X207874Y542876D01*
Y545402D01*
X207064Y547358D01*
Y560416D01*
D02*
G37*
G36*
X163122D02*
X152042D01*
Y547358D01*
X151232Y545402D01*
Y542876D01*
X151269Y542788D01*
X150963Y542583D01*
X150153Y541371D01*
X149868Y539941D01*
Y533191D01*
X150153Y531761D01*
X150963Y530549D01*
X152175Y529739D01*
X153605Y529454D01*
X161355D01*
X162785Y529739D01*
X163997Y530549D01*
X164807Y531761D01*
X165092Y533191D01*
Y539941D01*
X164807Y541371D01*
X163997Y542583D01*
X163851Y542681D01*
X163932Y542876D01*
Y545402D01*
X163122Y547358D01*
Y560416D01*
D02*
G37*
G36*
X568661Y548124D02*
X561911D01*
X560481Y547839D01*
X559269Y547029D01*
X558459Y545817D01*
X558174Y544387D01*
Y536637D01*
X558459Y535207D01*
X559269Y533995D01*
X560481Y533185D01*
X561401Y533002D01*
Y529112D01*
X555746D01*
Y515032D01*
X574826D01*
Y529112D01*
X569171D01*
Y533002D01*
X570091Y533185D01*
X571303Y533995D01*
X572113Y535207D01*
X572398Y536637D01*
Y544387D01*
X572113Y545817D01*
X571303Y547029D01*
X570091Y547839D01*
X568661Y548124D01*
D02*
G37*
G36*
X276202Y560416D02*
X265122D01*
Y544836D01*
X266777D01*
Y526638D01*
X265459Y526375D01*
X264247Y525565D01*
X263437Y524353D01*
X263152Y522923D01*
Y516173D01*
X263437Y514743D01*
X264247Y513531D01*
X265459Y512721D01*
X266889Y512436D01*
X274639D01*
X276069Y512721D01*
X277281Y513531D01*
X278091Y514743D01*
X278276Y515672D01*
X282119D01*
X282300Y514761D01*
X283110Y513549D01*
X284323Y512739D01*
X285753Y512454D01*
X293503D01*
X294933Y512739D01*
X296145Y513549D01*
X296955Y514761D01*
X297239Y516191D01*
Y522941D01*
X296955Y524371D01*
X296145Y525583D01*
X294933Y526393D01*
X293503Y526678D01*
X285753D01*
X284323Y526393D01*
X283110Y525583D01*
X282300Y524371D01*
X282115Y523442D01*
X278273D01*
X278091Y524353D01*
X277281Y525565D01*
X276069Y526375D01*
X274639Y526660D01*
X274547D01*
Y544836D01*
X276202D01*
Y560416D01*
D02*
G37*
G36*
X232260D02*
X221180D01*
Y544836D01*
X222835D01*
Y526660D01*
X222693D01*
X221263Y526375D01*
X220051Y525565D01*
X219241Y524353D01*
X218956Y522923D01*
Y516173D01*
X219241Y514743D01*
X220051Y513531D01*
X221263Y512721D01*
X222693Y512436D01*
X230443D01*
X231873Y512721D01*
X233085Y513531D01*
X233895Y514743D01*
X234080Y515672D01*
X238363D01*
X238545Y514761D01*
X239355Y513549D01*
X240567Y512739D01*
X241997Y512454D01*
X249747D01*
X251177Y512739D01*
X252389Y513549D01*
X253199Y514761D01*
X253484Y516191D01*
Y522941D01*
X253199Y524371D01*
X252389Y525583D01*
X251177Y526393D01*
X249747Y526678D01*
X241997D01*
X240567Y526393D01*
X239355Y525583D01*
X238545Y524371D01*
X238360Y523442D01*
X234077D01*
X233895Y524353D01*
X233085Y525565D01*
X231873Y526375D01*
X230605Y526628D01*
Y544836D01*
X232260D01*
Y560416D01*
D02*
G37*
G36*
X188064D02*
X176984D01*
Y544836D01*
X178639D01*
Y526638D01*
X177321Y526375D01*
X176109Y525565D01*
X175299Y524353D01*
X175014Y522923D01*
Y516173D01*
X175299Y514743D01*
X176109Y513531D01*
X177321Y512721D01*
X178751Y512436D01*
X186501D01*
X187931Y512721D01*
X189143Y513531D01*
X189953Y514743D01*
X190138Y515672D01*
X193913D01*
X194095Y514761D01*
X194905Y513549D01*
X196117Y512739D01*
X197547Y512454D01*
X205297D01*
X206727Y512739D01*
X207939Y513549D01*
X208749Y514761D01*
X209034Y516191D01*
Y522941D01*
X208749Y524371D01*
X207939Y525583D01*
X206727Y526393D01*
X205297Y526678D01*
X197547D01*
X196117Y526393D01*
X194905Y525583D01*
X194095Y524371D01*
X193910Y523442D01*
X190135D01*
X189953Y524353D01*
X189143Y525565D01*
X187931Y526375D01*
X186501Y526660D01*
X186409D01*
Y544836D01*
X188064D01*
Y560416D01*
D02*
G37*
G36*
X144122D02*
X133042D01*
Y544836D01*
X134697D01*
Y526638D01*
X133379Y526375D01*
X132167Y525565D01*
X131357Y524353D01*
X131072Y522923D01*
Y516173D01*
X131357Y514743D01*
X132167Y513531D01*
X133379Y512721D01*
X134809Y512436D01*
X142559D01*
X143989Y512721D01*
X145201Y513531D01*
X146011Y514743D01*
X146196Y515672D01*
X149971D01*
X150153Y514761D01*
X150963Y513549D01*
X152175Y512739D01*
X153605Y512454D01*
X161355D01*
X162785Y512739D01*
X163997Y513549D01*
X164807Y514761D01*
X165092Y516191D01*
Y522941D01*
X164807Y524371D01*
X163997Y525583D01*
X162785Y526393D01*
X161355Y526678D01*
X153605D01*
X152175Y526393D01*
X150963Y525583D01*
X150153Y524371D01*
X149968Y523442D01*
X146193D01*
X146011Y524353D01*
X145201Y525565D01*
X143989Y526375D01*
X142559Y526660D01*
X142467D01*
Y544836D01*
X144122D01*
Y560416D01*
D02*
G37*
G36*
X52539Y622758D02*
X47029D01*
X41588Y621896D01*
X36349Y620194D01*
X31440Y617693D01*
X26983Y614454D01*
X23087Y610559D01*
X19849Y606102D01*
X17348Y601193D01*
X15646Y595954D01*
X14784Y590513D01*
Y587758D01*
X14784Y537758D01*
X14784Y535003D01*
X15646Y529562D01*
X17348Y524323D01*
X19849Y519414D01*
X23087Y514957D01*
X26983Y511062D01*
X31440Y507823D01*
X36349Y505322D01*
X41588Y503620D01*
X47029Y502758D01*
X52539D01*
X57980Y503620D01*
X63219Y505322D01*
X68128Y507823D01*
X72585Y511062D01*
X76480Y514957D01*
X79719Y519414D01*
X82220Y524323D01*
X83922Y529562D01*
X84784Y535003D01*
Y537758D01*
X84784Y587758D01*
Y590513D01*
X83922Y595954D01*
X82220Y601193D01*
X79719Y606102D01*
X76480Y610559D01*
X72585Y614454D01*
X68128Y617693D01*
X63219Y620194D01*
X57980Y621896D01*
X52539Y622758D01*
D02*
G37*
G36*
X1032463Y527233D02*
X1002633D01*
Y497403D01*
X1032463D01*
Y527233D01*
D02*
G37*
G36*
X697985Y515366D02*
X695459D01*
X693125Y514399D01*
X691339Y512613D01*
X690372Y510279D01*
Y507753D01*
X691127Y505930D01*
X690259Y505349D01*
X689449Y504137D01*
X689164Y502707D01*
Y495957D01*
X689449Y494527D01*
X690259Y493315D01*
X691471Y492505D01*
X692901Y492220D01*
X700651D01*
X702081Y492505D01*
X703293Y493315D01*
X704103Y494527D01*
X704388Y495957D01*
Y502707D01*
X704103Y504137D01*
X703293Y505349D01*
X702340Y505986D01*
X703072Y507753D01*
Y510279D01*
X702105Y512613D01*
X700319Y514399D01*
X697985Y515366D01*
D02*
G37*
G36*
X685908Y490936D02*
X674828D01*
Y473856D01*
X685908D01*
Y478511D01*
X689253D01*
X689449Y477527D01*
X690259Y476315D01*
X691471Y475505D01*
X692901Y475220D01*
X700651D01*
X702081Y475505D01*
X703293Y476315D01*
X704103Y477527D01*
X704130Y477659D01*
X705424D01*
X705451Y477527D01*
X706261Y476315D01*
X707473Y475505D01*
X708903Y475220D01*
X716653D01*
X718083Y475505D01*
X719295Y476315D01*
X720105Y477527D01*
X720390Y478957D01*
Y485707D01*
X720105Y487137D01*
X719295Y488349D01*
X718083Y489159D01*
X716653Y489444D01*
X708903D01*
X707473Y489159D01*
X706261Y488349D01*
X705451Y487137D01*
X705424Y487005D01*
X704130D01*
X704103Y487137D01*
X703293Y488349D01*
X702081Y489159D01*
X700651Y489444D01*
X692901D01*
X691471Y489159D01*
X690259Y488349D01*
X689449Y487137D01*
X689278Y486281D01*
X685908D01*
Y490936D01*
D02*
G37*
G36*
X46830Y377780D02*
X26670D01*
Y357620D01*
X46830D01*
Y377780D01*
D02*
G37*
G36*
X38077Y327780D02*
X35423D01*
X32859Y327093D01*
X30561Y325766D01*
X28684Y323889D01*
X27357Y321591D01*
X26670Y319027D01*
Y316373D01*
X27357Y313809D01*
X28684Y311511D01*
X30561Y309634D01*
X32859Y308307D01*
X35423Y307620D01*
X38077D01*
X40641Y308307D01*
X40646Y308310D01*
X52609Y296347D01*
X53869Y295505D01*
X55356Y295209D01*
X64372D01*
X64555Y294289D01*
X65365Y293077D01*
X66577Y292267D01*
X68007Y291982D01*
X75757D01*
X77187Y292267D01*
X78399Y293077D01*
X79209Y294289D01*
X79494Y295719D01*
Y302469D01*
X79209Y303899D01*
X78399Y305111D01*
X77187Y305921D01*
X75757Y306206D01*
X68007D01*
X66577Y305921D01*
X65365Y305111D01*
X64555Y303899D01*
X64372Y302979D01*
X56965D01*
X46140Y313804D01*
X46143Y313809D01*
X46830Y316373D01*
Y319027D01*
X46143Y321591D01*
X44816Y323889D01*
X42939Y325766D01*
X40641Y327093D01*
X38077Y327780D01*
D02*
G37*
G36*
Y302780D02*
X35423D01*
X32859Y302093D01*
X30561Y300766D01*
X28684Y298889D01*
X27357Y296591D01*
X26670Y294027D01*
Y291373D01*
X27357Y288809D01*
X28684Y286511D01*
X30561Y284634D01*
X32859Y283307D01*
X35423Y282620D01*
X38077D01*
X40641Y283307D01*
X40646Y283310D01*
X45001Y278955D01*
Y265218D01*
X45297Y263731D01*
X46139Y262471D01*
X51633Y256977D01*
X52893Y256135D01*
X54380Y255839D01*
X64372D01*
X64555Y254919D01*
X65365Y253707D01*
X66577Y252897D01*
X68007Y252612D01*
X75757D01*
X77187Y252897D01*
X78399Y253707D01*
X79209Y254919D01*
X79494Y256349D01*
Y263099D01*
X79209Y264529D01*
X78399Y265741D01*
X77187Y266551D01*
X75757Y266836D01*
X68007D01*
X66577Y266551D01*
X65365Y265741D01*
X64555Y264529D01*
X64372Y263609D01*
X55989D01*
X52771Y266827D01*
Y280564D01*
X52475Y282051D01*
X51633Y283311D01*
X46140Y288804D01*
X46143Y288809D01*
X46830Y291373D01*
Y294027D01*
X46143Y296591D01*
X44816Y298889D01*
X42939Y300766D01*
X40641Y302093D01*
X38077Y302780D01*
D02*
G37*
%LPD*%
G36*
X682448Y560628D02*
X687010Y556066D01*
X689102Y553974D01*
Y541020D01*
X684585Y536503D01*
Y512074D01*
X684530Y512064D01*
Y500126D01*
X666908D01*
Y515936D01*
X666750D01*
Y558907D01*
X668471Y560628D01*
X682448Y560628D01*
D02*
G37*
G36*
X623824Y479298D02*
X608584D01*
Y515366D01*
X605028Y518922D01*
X593090D01*
X589534Y522478D01*
Y532765D01*
X587883Y534416D01*
X578104Y534416D01*
X576580Y535940D01*
Y545084D01*
X578104Y546608D01*
X623824D01*
Y479298D01*
D02*
G37*
G36*
X664160Y544748D02*
Y515936D01*
X664318Y515142D01*
Y500126D01*
X649609D01*
X637795Y488312D01*
Y477734D01*
X636565Y476504D01*
X627888D01*
X626872Y477520D01*
Y489458D01*
X636565Y499151D01*
Y546608D01*
X662300D01*
X664160Y544748D01*
D02*
G37*
%LPC*%
G36*
X537972Y418155D02*
X536199Y417921D01*
X534548Y417237D01*
X533129Y416149D01*
X532041Y414730D01*
X531357Y413078D01*
X531123Y411306D01*
Y400806D01*
X531357Y399034D01*
X532041Y397382D01*
X533129Y395963D01*
X534548Y394875D01*
X536199Y394191D01*
X537972Y393957D01*
X539744Y394191D01*
X541396Y394875D01*
X542815Y395963D01*
X543903Y397382D01*
X544587Y399034D01*
X544821Y400806D01*
Y411306D01*
X544587Y413078D01*
X543903Y414730D01*
X542815Y416149D01*
X541396Y417237D01*
X539744Y417921D01*
X537972Y418155D01*
D02*
G37*
G36*
X512572D02*
X510799Y417921D01*
X509148Y417237D01*
X507729Y416149D01*
X506641Y414730D01*
X505957Y413078D01*
X505723Y411306D01*
Y400806D01*
X505957Y399034D01*
X506641Y397382D01*
X507729Y395963D01*
X509148Y394875D01*
X510799Y394191D01*
X512572Y393957D01*
X514344Y394191D01*
X515996Y394875D01*
X517415Y395963D01*
X518503Y397382D01*
X519187Y399034D01*
X519421Y400806D01*
Y411306D01*
X519187Y413078D01*
X518503Y414730D01*
X517415Y416149D01*
X515996Y417237D01*
X514344Y417921D01*
X512572Y418155D01*
D02*
G37*
G36*
X426212Y416885D02*
X424440Y416651D01*
X422788Y415967D01*
X421369Y414879D01*
X420281Y413460D01*
X419597Y411809D01*
X419363Y410036D01*
Y399536D01*
X419597Y397763D01*
X420281Y396112D01*
X421369Y394693D01*
X422788Y393605D01*
X424440Y392921D01*
X426212Y392687D01*
X427985Y392921D01*
X429636Y393605D01*
X431055Y394693D01*
X432143Y396112D01*
X432827Y397763D01*
X433061Y399536D01*
Y410036D01*
X432827Y411809D01*
X432143Y413460D01*
X431055Y414879D01*
X429636Y415967D01*
X427985Y416651D01*
X426212Y416885D01*
D02*
G37*
G36*
X400812D02*
X399039Y416651D01*
X397388Y415967D01*
X395969Y414879D01*
X394881Y413460D01*
X394197Y411809D01*
X393963Y410036D01*
Y399536D01*
X394197Y397763D01*
X394881Y396112D01*
X395969Y394693D01*
X397388Y393605D01*
X399039Y392921D01*
X400812Y392687D01*
X402584Y392921D01*
X404236Y393605D01*
X405655Y394693D01*
X406743Y396112D01*
X407427Y397763D01*
X407661Y399536D01*
Y410036D01*
X407427Y411809D01*
X406743Y413460D01*
X405655Y414879D01*
X404236Y415967D01*
X402584Y416651D01*
X400812Y416885D01*
D02*
G37*
G36*
X513835Y389636D02*
X511309D01*
X508975Y388669D01*
X507189Y386883D01*
X506222Y384549D01*
Y382023D01*
X507189Y379689D01*
X508975Y377903D01*
X511309Y376936D01*
X513835D01*
X516169Y377903D01*
X517955Y379689D01*
X518922Y382023D01*
Y384549D01*
X517955Y386883D01*
X516169Y388669D01*
X513835Y389636D01*
D02*
G37*
G36*
X487172Y418155D02*
X485400Y417921D01*
X483748Y417237D01*
X482329Y416149D01*
X481241Y414730D01*
X480557Y413078D01*
X480323Y411306D01*
Y400806D01*
X480557Y399034D01*
X481241Y397382D01*
X482329Y395963D01*
X483221Y395279D01*
Y388252D01*
X481656Y386687D01*
X480689Y384353D01*
Y381826D01*
X481656Y379492D01*
X483442Y377706D01*
X485776Y376740D01*
X488302D01*
X490636Y377706D01*
X492422Y379492D01*
X493389Y381826D01*
Y384353D01*
X492422Y386687D01*
X490990Y388119D01*
Y395177D01*
X492015Y395963D01*
X493103Y397382D01*
X493787Y399034D01*
X494021Y400806D01*
Y411306D01*
X493787Y413078D01*
X493103Y414730D01*
X492015Y416149D01*
X490596Y417237D01*
X488945Y417921D01*
X487172Y418155D01*
D02*
G37*
G36*
X402075Y388620D02*
X399549D01*
X397215Y387653D01*
X395429Y385867D01*
X394462Y383533D01*
Y381007D01*
X395429Y378673D01*
X397215Y376887D01*
X399549Y375920D01*
X402075D01*
X404409Y376887D01*
X406195Y378673D01*
X407162Y381007D01*
Y383533D01*
X406195Y385867D01*
X404409Y387653D01*
X402075Y388620D01*
D02*
G37*
G36*
X375412Y416885D02*
X373639Y416651D01*
X371988Y415967D01*
X370569Y414879D01*
X369481Y413460D01*
X368797Y411809D01*
X368563Y410036D01*
Y399536D01*
X368797Y397763D01*
X369481Y396112D01*
X370569Y394693D01*
X371400Y394056D01*
Y387493D01*
X369775Y385867D01*
X368808Y383533D01*
Y381007D01*
X369775Y378673D01*
X371561Y376887D01*
X373895Y375920D01*
X376421D01*
X378755Y376887D01*
X380541Y378673D01*
X381508Y381007D01*
Y383533D01*
X380541Y385867D01*
X379170Y387239D01*
Y393861D01*
X380255Y394693D01*
X381343Y396112D01*
X382027Y397763D01*
X382261Y399536D01*
Y410036D01*
X382027Y411809D01*
X381343Y413460D01*
X380255Y414879D01*
X378836Y415967D01*
X377184Y416651D01*
X375412Y416885D01*
D02*
G37*
G36*
X274639Y386470D02*
X266889D01*
X265459Y386185D01*
X264247Y385375D01*
X263437Y384163D01*
X263152Y382733D01*
Y375983D01*
X263437Y374553D01*
X264247Y373341D01*
X265356Y372599D01*
X264414Y370325D01*
Y367799D01*
X265381Y365465D01*
X267167Y363679D01*
X269501Y362712D01*
X272027D01*
X274361Y363679D01*
X276147Y365465D01*
X277114Y367799D01*
Y370325D01*
X276172Y372599D01*
X277281Y373341D01*
X278091Y374553D01*
X278376Y375983D01*
Y382733D01*
X278091Y384163D01*
X277281Y385375D01*
X276069Y386185D01*
X274639Y386470D01*
D02*
G37*
G36*
X230697D02*
X222947D01*
X221517Y386185D01*
X220305Y385375D01*
X219495Y384163D01*
X219210Y382733D01*
Y375983D01*
X219495Y374553D01*
X220305Y373341D01*
X221414Y372599D01*
X220472Y370325D01*
Y367799D01*
X221439Y365465D01*
X223225Y363679D01*
X225559Y362712D01*
X228085D01*
X230419Y363679D01*
X232205Y365465D01*
X233172Y367799D01*
Y370325D01*
X232230Y372599D01*
X233339Y373341D01*
X234149Y374553D01*
X234434Y375983D01*
Y382733D01*
X234149Y384163D01*
X233339Y385375D01*
X232127Y386185D01*
X230697Y386470D01*
D02*
G37*
G36*
X142559D02*
X134809D01*
X133379Y386185D01*
X132167Y385375D01*
X131357Y384163D01*
X131072Y382733D01*
Y375983D01*
X131357Y374553D01*
X132167Y373341D01*
X133276Y372599D01*
X132334Y370325D01*
Y367799D01*
X133301Y365465D01*
X135087Y363679D01*
X137421Y362712D01*
X139947D01*
X142281Y363679D01*
X144067Y365465D01*
X145034Y367799D01*
Y370325D01*
X144092Y372599D01*
X145201Y373341D01*
X146011Y374553D01*
X146296Y375983D01*
Y382733D01*
X146011Y384163D01*
X145201Y385375D01*
X143989Y386185D01*
X142559Y386470D01*
D02*
G37*
G36*
X186501D02*
X178751D01*
X177321Y386185D01*
X176109Y385375D01*
X175299Y384163D01*
X175014Y382733D01*
Y375983D01*
X175299Y374553D01*
X176109Y373341D01*
X176306Y373209D01*
X177243Y372405D01*
X176843Y371439D01*
X176276Y370071D01*
Y367545D01*
X177243Y365211D01*
X179029Y363425D01*
X181363Y362458D01*
X183889D01*
X186223Y363425D01*
X188009Y365211D01*
X188976Y367545D01*
Y370071D01*
X188409Y371439D01*
X188009Y372405D01*
X188946Y373209D01*
X189143Y373341D01*
X189953Y374553D01*
X190238Y375983D01*
Y382733D01*
X189953Y384163D01*
X189143Y385375D01*
X187931Y386185D01*
X186501Y386470D01*
D02*
G37*
G36*
X461772Y418155D02*
X460000Y417921D01*
X458348Y417237D01*
X456929Y416149D01*
X455841Y414730D01*
X455157Y413078D01*
X454923Y411306D01*
Y400806D01*
X455157Y399034D01*
X455841Y397382D01*
X456929Y395963D01*
X457887Y395228D01*
Y362028D01*
X454986D01*
Y349948D01*
X469066D01*
Y352036D01*
X471678D01*
Y350520D01*
X496570D01*
Y361188D01*
X471678D01*
Y359806D01*
X469066D01*
Y362028D01*
X465657D01*
Y395228D01*
X466615Y395963D01*
X467703Y397382D01*
X468387Y399034D01*
X468621Y400806D01*
Y411306D01*
X468387Y413078D01*
X467703Y414730D01*
X466615Y416149D01*
X465196Y417237D01*
X463545Y417921D01*
X461772Y418155D01*
D02*
G37*
G36*
X350012Y416885D02*
X348240Y416651D01*
X346588Y415967D01*
X345169Y414879D01*
X344081Y413460D01*
X343397Y411809D01*
X343163Y410036D01*
Y399536D01*
X343397Y397763D01*
X344081Y396112D01*
X345169Y394693D01*
X346127Y393958D01*
Y361520D01*
X342972D01*
Y349440D01*
X357052D01*
Y351655D01*
X362458D01*
Y350266D01*
X387350D01*
Y360934D01*
X362458D01*
Y359425D01*
X357052D01*
Y361520D01*
X353897D01*
Y393958D01*
X354855Y394693D01*
X355943Y396112D01*
X356627Y397763D01*
X356861Y399536D01*
Y410036D01*
X356627Y411809D01*
X355943Y413460D01*
X354855Y414879D01*
X353436Y415967D01*
X351785Y416651D01*
X350012Y416885D01*
D02*
G37*
G36*
X496570Y348488D02*
X471678D01*
Y337820D01*
X477774D01*
Y335788D01*
X471678D01*
Y325120D01*
X496570D01*
Y335788D01*
X490474D01*
Y337820D01*
X496570D01*
Y348488D01*
D02*
G37*
G36*
X387350Y348234D02*
X362458D01*
Y337566D01*
X368554D01*
Y335534D01*
X362458D01*
Y324866D01*
X387350D01*
Y335534D01*
X381254D01*
Y337566D01*
X387350D01*
Y348234D01*
D02*
G37*
G36*
X466591Y324104D02*
X464065D01*
X461731Y323137D01*
X459945Y321351D01*
X458978Y319017D01*
Y316491D01*
X459945Y314157D01*
X461731Y312371D01*
X464065Y311404D01*
X466591D01*
X468925Y312371D01*
X470408Y313854D01*
X471678Y313832D01*
Y312420D01*
X496570D01*
Y323088D01*
X471678D01*
Y321676D01*
X470408Y321654D01*
X468925Y323137D01*
X466591Y324104D01*
D02*
G37*
G36*
X439159Y349250D02*
X436633D01*
X434299Y348283D01*
X434250Y348234D01*
X411734D01*
Y337566D01*
X434250D01*
X434299Y337517D01*
X436020Y336804D01*
X435772Y335557D01*
X435444Y335534D01*
X435357Y335534D01*
X411734D01*
Y324866D01*
X417830D01*
Y322834D01*
X411734D01*
Y312166D01*
X436626D01*
Y322834D01*
X430530D01*
Y324866D01*
X436626D01*
X436626Y335283D01*
X436627Y335536D01*
X437239Y336550D01*
X439159D01*
X439584Y336726D01*
X453064D01*
Y348806D01*
X440231D01*
X439159Y349250D01*
D02*
G37*
G36*
X358133Y323850D02*
X355607D01*
X353273Y322883D01*
X351487Y321097D01*
X350520Y318763D01*
Y316237D01*
X351487Y313903D01*
X353273Y312117D01*
X355607Y311150D01*
X358133D01*
X360467Y312117D01*
X361188Y312838D01*
X362458Y312312D01*
Y312166D01*
X387350D01*
Y322834D01*
X362458D01*
Y322688D01*
X361188Y322162D01*
X360467Y322883D01*
X358133Y323850D01*
D02*
G37*
G36*
X199581Y323588D02*
X192831D01*
X191401Y323303D01*
X190189Y322493D01*
X189379Y321281D01*
X189094Y319851D01*
Y312101D01*
X189379Y310671D01*
X190189Y309459D01*
X191401Y308649D01*
X192831Y308364D01*
X199581D01*
X201011Y308649D01*
X202223Y309459D01*
X202960Y310561D01*
X203573Y310711D01*
X204348Y310769D01*
X204811Y310077D01*
X206023Y309267D01*
X207453Y308982D01*
X215203D01*
X216633Y309267D01*
X217845Y310077D01*
X218655Y311289D01*
X218837Y312201D01*
X222256D01*
Y310538D01*
X237836D01*
Y321618D01*
X222256D01*
Y319971D01*
X218840D01*
X218655Y320899D01*
X217845Y322111D01*
X216633Y322921D01*
X215203Y323206D01*
X207453D01*
X206023Y322921D01*
X204811Y322111D01*
X204312Y321364D01*
X203746Y321328D01*
X202915Y321457D01*
X202223Y322493D01*
X201011Y323303D01*
X199581Y323588D01*
D02*
G37*
G36*
X548379Y349504D02*
X545853D01*
X543519Y348537D01*
X543470Y348488D01*
X520954D01*
Y337820D01*
X543470D01*
X543519Y337771D01*
X545240Y337058D01*
X544992Y335811D01*
X544664Y335788D01*
X544577Y335788D01*
X520954D01*
Y325120D01*
X529515D01*
Y323088D01*
X520954D01*
Y312420D01*
X526646D01*
X527352Y311364D01*
X527050Y310635D01*
Y308109D01*
X528017Y305775D01*
X529803Y303989D01*
X532137Y303022D01*
X534663D01*
X536997Y303989D01*
X538783Y305775D01*
X539750Y308109D01*
Y310635D01*
X539448Y311364D01*
X540154Y312420D01*
X545846D01*
Y323088D01*
X537285D01*
Y325120D01*
X545846D01*
X545846Y335537D01*
X545847Y335790D01*
X546459Y336804D01*
X548379D01*
X548838Y336994D01*
X562284D01*
Y349074D01*
X549417D01*
X548379Y349504D01*
D02*
G37*
G36*
X215203Y306206D02*
X207453D01*
X206023Y305921D01*
X204811Y305111D01*
X204001Y303899D01*
X203716Y302469D01*
Y295719D01*
X204001Y294289D01*
X204811Y293077D01*
X205309Y292744D01*
X204724Y291331D01*
Y288805D01*
X205691Y286471D01*
X207477Y284685D01*
X209811Y283718D01*
X212337D01*
X214671Y284685D01*
X216457Y286471D01*
X217424Y288805D01*
Y291331D01*
X216949Y292478D01*
X217845Y293077D01*
X218597Y294201D01*
X222256D01*
Y291538D01*
X237836D01*
Y302618D01*
X222256D01*
Y301971D01*
X218940D01*
Y302469D01*
X218655Y303899D01*
X217845Y305111D01*
X216633Y305921D01*
X215203Y306206D01*
D02*
G37*
G36*
X200597Y284218D02*
X193847D01*
X192417Y283933D01*
X191205Y283123D01*
X190395Y281911D01*
X190110Y280481D01*
Y272731D01*
X190395Y271301D01*
X191205Y270089D01*
X192417Y269279D01*
X193337Y269096D01*
Y262690D01*
X189236D01*
Y262653D01*
X187966Y262284D01*
X187365Y263183D01*
X186153Y263993D01*
X184723Y264278D01*
X176973D01*
X175543Y263993D01*
X174331Y263183D01*
X173521Y261971D01*
X173236Y260541D01*
Y253791D01*
X173521Y252361D01*
X174331Y251149D01*
X175543Y250339D01*
X176973Y250054D01*
X184723D01*
X186153Y250339D01*
X187365Y251149D01*
X187966Y252048D01*
X189236Y251679D01*
Y251610D01*
X204816D01*
Y262690D01*
X201107D01*
Y269096D01*
X202027Y269279D01*
X203239Y270089D01*
X204049Y271301D01*
X204334Y272731D01*
Y280481D01*
X204049Y281911D01*
X203239Y283123D01*
X202027Y283933D01*
X200597Y284218D01*
D02*
G37*
G36*
X267273Y258182D02*
X259523D01*
X258093Y257897D01*
X256881Y257087D01*
X256071Y255875D01*
X255786Y254445D01*
Y247695D01*
X256071Y246265D01*
X256881Y245053D01*
X258093Y244243D01*
X259523Y243958D01*
X267273D01*
X268703Y244243D01*
X269915Y245053D01*
X270725Y246265D01*
X270907Y247177D01*
X272298D01*
Y245514D01*
X288378D01*
Y256594D01*
X272298D01*
Y254947D01*
X270910D01*
X270725Y255875D01*
X269915Y257087D01*
X268703Y257897D01*
X267273Y258182D01*
D02*
G37*
G36*
X322773Y254254D02*
X320247D01*
X317913Y253287D01*
X316127Y251501D01*
X315160Y249167D01*
Y247450D01*
X313220D01*
Y236370D01*
X329800D01*
Y247450D01*
X327860D01*
Y249167D01*
X326893Y251501D01*
X325107Y253287D01*
X322773Y254254D01*
D02*
G37*
G36*
X322827Y286766D02*
X320301D01*
X317967Y285799D01*
X316181Y284013D01*
X315214Y281679D01*
Y279560D01*
X303577Y267923D01*
X302735Y266663D01*
X302439Y265176D01*
Y247094D01*
X294298D01*
Y236014D01*
X310378D01*
Y247094D01*
X310209D01*
Y263567D01*
X320708Y274066D01*
X322827D01*
X325161Y275033D01*
X326947Y276819D01*
X327914Y279153D01*
Y281679D01*
X326947Y284013D01*
X325161Y285799D01*
X322827Y286766D01*
D02*
G37*
G36*
X348481Y260350D02*
X345955D01*
X343621Y259383D01*
X341835Y257597D01*
X340868Y255263D01*
Y252737D01*
X341835Y250403D01*
X343333Y248904D01*
Y247450D01*
X338220D01*
Y236370D01*
X354800D01*
Y238025D01*
X356631D01*
X356783Y237265D01*
X357593Y236053D01*
X358805Y235243D01*
X360235Y234958D01*
X366985D01*
X368415Y235243D01*
X369627Y236053D01*
X370437Y237265D01*
X370722Y238695D01*
Y246445D01*
X370437Y247875D01*
X369627Y249087D01*
X368415Y249897D01*
X366985Y250182D01*
X360235D01*
X358805Y249897D01*
X357593Y249087D01*
X356783Y247875D01*
X356498Y246445D01*
Y245795D01*
X354800D01*
Y247450D01*
X351103D01*
Y248904D01*
X352601Y250403D01*
X353568Y252737D01*
Y255263D01*
X352601Y257597D01*
X350815Y259383D01*
X348481Y260350D01*
D02*
G37*
G36*
X184723Y247278D02*
X176973D01*
X175543Y246993D01*
X174331Y246183D01*
X173521Y244971D01*
X173236Y243541D01*
Y236791D01*
X173521Y235361D01*
X174331Y234149D01*
X174946Y233738D01*
X174498Y232657D01*
Y230131D01*
X175465Y227797D01*
X177251Y226011D01*
X179585Y225044D01*
X182111D01*
X184445Y226011D01*
X186231Y227797D01*
X187198Y230131D01*
Y232657D01*
X186750Y233738D01*
X187365Y234149D01*
X187966Y235048D01*
X189236Y234886D01*
Y232610D01*
X204816D01*
Y243690D01*
X189236D01*
X188280Y244447D01*
X188175Y244971D01*
X187365Y246183D01*
X186153Y246993D01*
X184723Y247278D01*
D02*
G37*
G36*
X383572Y265171D02*
X377197D01*
X375791Y264891D01*
X374599Y264095D01*
X373803Y262903D01*
X373523Y261497D01*
Y254123D01*
X373803Y252717D01*
X374599Y251525D01*
X375364Y251014D01*
X375374Y250990D01*
X375381Y249647D01*
X375364Y249603D01*
X374593Y249087D01*
X373783Y247875D01*
X373498Y246445D01*
Y238695D01*
X373783Y237265D01*
X374593Y236053D01*
X375805Y235243D01*
X376239Y235156D01*
Y233861D01*
X375121Y233639D01*
X373861Y232797D01*
X367859Y226795D01*
X354800D01*
Y228450D01*
X338220D01*
Y217370D01*
X354800D01*
Y219025D01*
X369468D01*
X370955Y219321D01*
X372215Y220163D01*
X378217Y226165D01*
X391410D01*
Y224306D01*
X390140Y223457D01*
X389375Y223774D01*
X386849D01*
X384515Y222807D01*
X382729Y221021D01*
X381762Y218687D01*
Y216161D01*
X382729Y213827D01*
X384515Y212041D01*
X385316Y211709D01*
Y210439D01*
X384515Y210107D01*
X382729Y208321D01*
X381762Y205987D01*
Y203461D01*
X382729Y201127D01*
X384515Y199341D01*
X385316Y199009D01*
Y197739D01*
X384515Y197407D01*
X382729Y195621D01*
X381762Y193287D01*
Y190761D01*
X382729Y188427D01*
X384515Y186641D01*
X385316Y186309D01*
Y185039D01*
X384515Y184707D01*
X382729Y182921D01*
X381762Y180587D01*
Y178061D01*
X382729Y175727D01*
X384515Y173941D01*
X385316Y173609D01*
Y172339D01*
X384515Y172007D01*
X382729Y170221D01*
X381762Y167887D01*
Y165361D01*
X382729Y163027D01*
X384515Y161241D01*
X386849Y160274D01*
X389375D01*
X390354Y160679D01*
X391410Y159974D01*
Y148106D01*
X390140Y147257D01*
X389375Y147574D01*
X386849D01*
X384515Y146607D01*
X382729Y144821D01*
X381762Y142487D01*
Y139961D01*
X382729Y137627D01*
X384515Y135841D01*
X386849Y134874D01*
X389375D01*
X390354Y135280D01*
X391410Y134574D01*
Y132335D01*
X310132D01*
X308646Y132039D01*
X307385Y131197D01*
X302414Y126226D01*
X301241Y126712D01*
Y173682D01*
X305396D01*
Y184762D01*
X289316D01*
Y183107D01*
X270951D01*
X267283Y186775D01*
Y226960D01*
X268703Y227243D01*
X269915Y228053D01*
X270725Y229265D01*
X271010Y230695D01*
Y237445D01*
X270725Y238875D01*
X269915Y240087D01*
X268703Y240897D01*
X267273Y241182D01*
X259523D01*
X258093Y240897D01*
X256881Y240087D01*
X256071Y238875D01*
X255786Y237445D01*
Y230695D01*
X256071Y229265D01*
X256881Y228053D01*
X258093Y227243D01*
X259513Y226960D01*
Y185166D01*
X259809Y183679D01*
X260651Y182419D01*
X266595Y176475D01*
X267855Y175633D01*
X269342Y175337D01*
X289316D01*
Y173682D01*
X293471D01*
Y124467D01*
X289607Y120603D01*
X288765Y119343D01*
X288469Y117856D01*
Y41233D01*
X275899Y28663D01*
X273356Y29344D01*
X270712D01*
X268159Y28660D01*
X265869Y27338D01*
X264000Y25469D01*
X262678Y23179D01*
X261994Y20626D01*
Y17982D01*
X262678Y15429D01*
X264000Y13139D01*
X265869Y11270D01*
X268159Y9948D01*
X270712Y9264D01*
X273356D01*
X275909Y9948D01*
X278199Y11270D01*
X280068Y13139D01*
X281390Y15429D01*
X282074Y17982D01*
Y20626D01*
X281393Y23169D01*
X292376Y34152D01*
X293549Y33666D01*
Y28654D01*
X291269Y27338D01*
X289400Y25469D01*
X288078Y23179D01*
X287394Y20626D01*
Y17982D01*
X288078Y15429D01*
X289400Y13139D01*
X291269Y11270D01*
X293559Y9948D01*
X296112Y9264D01*
X298756D01*
X301309Y9948D01*
X303599Y11270D01*
X305468Y13139D01*
X306790Y15429D01*
X307474Y17982D01*
Y20626D01*
X306790Y23179D01*
X305468Y25469D01*
X303599Y27338D01*
X301319Y28654D01*
Y114143D01*
X311741Y124565D01*
X391410D01*
Y119635D01*
X338508D01*
X337021Y119339D01*
X335761Y118497D01*
X320087Y102823D01*
X319245Y101563D01*
X318949Y100076D01*
Y29344D01*
X312794D01*
Y9264D01*
X332874D01*
Y29344D01*
X326719D01*
Y98467D01*
X340117Y111865D01*
X391410D01*
Y110260D01*
X390823Y109636D01*
X390354Y109323D01*
X389375Y109728D01*
X386849D01*
X384515Y108761D01*
X382729Y106975D01*
X381762Y104641D01*
Y102115D01*
X382729Y99781D01*
X384515Y97995D01*
X386849Y97028D01*
X389375D01*
X390354Y97434D01*
X391410Y96728D01*
Y94235D01*
X368480D01*
X366993Y93939D01*
X365733Y93097D01*
X349551Y76915D01*
X348709Y75655D01*
X348413Y74168D01*
Y30469D01*
X341133D01*
Y8139D01*
X363463D01*
Y30469D01*
X356183D01*
Y72559D01*
X370089Y86465D01*
X391410D01*
Y83310D01*
X416490D01*
Y96010D01*
Y108710D01*
Y121410D01*
Y134110D01*
Y146810D01*
Y159510D01*
Y172210D01*
Y184910D01*
Y197610D01*
Y210310D01*
Y223010D01*
Y235710D01*
Y249790D01*
X391410D01*
Y249515D01*
X390899Y249174D01*
X388373D01*
X386960Y248589D01*
X386627Y249087D01*
X385717Y249696D01*
X385549Y250754D01*
X385612Y251153D01*
X386169Y251525D01*
X386965Y252717D01*
X387245Y254123D01*
Y261497D01*
X386965Y262903D01*
X386169Y264095D01*
X384977Y264891D01*
X383572Y265171D01*
D02*
G37*
G36*
X965880Y214622D02*
X963354D01*
X961020Y213656D01*
X959449Y212085D01*
X958038D01*
Y213418D01*
X940958D01*
Y202838D01*
X958038D01*
Y204316D01*
X959593D01*
X961020Y202889D01*
X963354Y201922D01*
X965880D01*
X968214Y202889D01*
X970000Y204675D01*
X970967Y207009D01*
Y209536D01*
X970000Y211869D01*
X968214Y213656D01*
X965880Y214622D01*
D02*
G37*
G36*
X288378Y237594D02*
X272298D01*
Y226514D01*
X273578D01*
X274284Y225458D01*
X274202Y225260D01*
Y222734D01*
X274954Y220919D01*
X274535Y220639D01*
X273725Y219427D01*
X273440Y217997D01*
Y210247D01*
X273725Y208817D01*
X274535Y207605D01*
X275747Y206795D01*
X277177Y206510D01*
X283927D01*
X285357Y206795D01*
X286569Y207605D01*
X287379Y208817D01*
X287664Y210247D01*
Y217997D01*
X287379Y219427D01*
X286569Y220639D01*
X286150Y220919D01*
X286902Y222734D01*
Y225260D01*
X286820Y225458D01*
X287526Y226514D01*
X288378D01*
Y237594D01*
D02*
G37*
G36*
X926840Y231389D02*
X920464D01*
X919059Y231109D01*
X917867Y230313D01*
X917071Y229121D01*
X916791Y227715D01*
Y220340D01*
X917071Y218935D01*
X917867Y217743D01*
X918395Y217390D01*
Y213418D01*
X914958D01*
Y202838D01*
X932038D01*
Y213418D01*
X928755D01*
Y217287D01*
X929437Y217743D01*
X930233Y218935D01*
X930513Y220340D01*
Y227715D01*
X930233Y229121D01*
X929437Y230313D01*
X928245Y231109D01*
X926840Y231389D01*
D02*
G37*
G36*
X300927Y221734D02*
X294177D01*
X292747Y221449D01*
X291535Y220639D01*
X290725Y219427D01*
X290440Y217997D01*
Y210247D01*
X290725Y208817D01*
X291535Y207605D01*
X292747Y206795D01*
X293667Y206612D01*
Y203762D01*
X289316D01*
Y192682D01*
X305396D01*
Y203762D01*
X301437D01*
Y206612D01*
X302357Y206795D01*
X303569Y207605D01*
X304379Y208817D01*
X304664Y210247D01*
Y217997D01*
X304379Y219427D01*
X303569Y220639D01*
X302357Y221449D01*
X300927Y221734D01*
D02*
G37*
G36*
X364991Y215138D02*
X362465D01*
X360131Y214171D01*
X358345Y212385D01*
X357378Y210051D01*
Y207932D01*
X342053Y192607D01*
X327396D01*
Y194262D01*
X311316D01*
Y183182D01*
X327396D01*
Y184837D01*
X343662D01*
X345149Y185133D01*
X346409Y185975D01*
X362872Y202438D01*
X364991D01*
X367325Y203405D01*
X369111Y205191D01*
X370078Y207525D01*
Y210051D01*
X369111Y212385D01*
X367325Y214171D01*
X364991Y215138D01*
D02*
G37*
G36*
X820704Y170068D02*
X806624D01*
Y150988D01*
X820704D01*
Y156643D01*
X823860D01*
X824143Y155223D01*
X824953Y154011D01*
X826165Y153201D01*
X827595Y152916D01*
X834345D01*
X835775Y153201D01*
X836987Y154011D01*
X837797Y155223D01*
X838082Y156653D01*
Y164403D01*
X837797Y165833D01*
X836987Y167045D01*
X835775Y167855D01*
X834345Y168140D01*
X827595D01*
X826165Y167855D01*
X824953Y167045D01*
X824143Y165833D01*
X823860Y164413D01*
X820704D01*
Y170068D01*
D02*
G37*
G36*
X883920Y204774D02*
X857504D01*
X856513Y204577D01*
X855673Y204015D01*
X855111Y203175D01*
X854914Y202184D01*
Y172269D01*
X851859Y169214D01*
X843788Y169214D01*
X842797Y169017D01*
X841957Y168455D01*
X840433Y166931D01*
X839871Y166091D01*
X839674Y165100D01*
Y155956D01*
X839871Y154965D01*
X840433Y154125D01*
X841957Y152601D01*
X842797Y152039D01*
X843788Y151842D01*
X903732D01*
X904723Y152039D01*
X905563Y152601D01*
X912421Y159459D01*
X912983Y160299D01*
X913180Y161290D01*
Y177997D01*
X917759Y182576D01*
X930656D01*
X931647Y182773D01*
X932487Y183335D01*
X933049Y184175D01*
X933246Y185166D01*
Y193040D01*
X933049Y194031D01*
X932487Y194871D01*
X931647Y195433D01*
X930656Y195630D01*
X887787D01*
X886510Y196907D01*
Y202184D01*
X886313Y203175D01*
X885751Y204015D01*
X884911Y204577D01*
X883920Y204774D01*
D02*
G37*
G36*
X991362Y195630D02*
X942340D01*
X941349Y195433D01*
X940509Y194871D01*
X939947Y194031D01*
X939750Y193040D01*
X939750Y154188D01*
X939947Y153197D01*
X940509Y152357D01*
X940509Y152357D01*
X942072Y150793D01*
X942072Y150793D01*
X942912Y150232D01*
X943903Y150035D01*
X950695D01*
X954225Y146505D01*
X955065Y145943D01*
X956056Y145746D01*
X992124D01*
X993115Y145943D01*
X993955Y146505D01*
X993955Y146505D01*
X996495Y149045D01*
X996495Y149045D01*
X997057Y149885D01*
X997254Y150876D01*
Y189738D01*
X997057Y190729D01*
X996495Y191569D01*
X993193Y194871D01*
X993193Y194871D01*
X992353Y195433D01*
X991362Y195630D01*
D02*
G37*
G36*
X940517Y106926D02*
X933767D01*
X932337Y106641D01*
X931125Y105831D01*
X930993Y105634D01*
X930189Y104697D01*
X929223Y105097D01*
X927855Y105664D01*
X925329D01*
X922995Y104697D01*
X921209Y102911D01*
X920242Y100577D01*
Y98051D01*
X921209Y95717D01*
X922995Y93931D01*
X925329Y92964D01*
X927855D01*
X929223Y93531D01*
X930189Y93931D01*
X930993Y92994D01*
X931125Y92797D01*
X932337Y91987D01*
X933767Y91702D01*
X940517D01*
X941947Y91987D01*
X943159Y92797D01*
X943969Y94009D01*
X944254Y95439D01*
Y103189D01*
X943969Y104619D01*
X943159Y105831D01*
X941947Y106641D01*
X940517Y106926D01*
D02*
G37*
G36*
X1059575Y98190D02*
X1057129D01*
X1054766Y97557D01*
X1052648Y96334D01*
X1050918Y94604D01*
X1049695Y92486D01*
X1049062Y90123D01*
Y87677D01*
X1049695Y85314D01*
X1050918Y83196D01*
X1052648Y81466D01*
X1054766Y80243D01*
X1057129Y79610D01*
X1059575D01*
X1061938Y80243D01*
X1064056Y81466D01*
X1065786Y83196D01*
X1067009Y85314D01*
X1067642Y87677D01*
Y90123D01*
X1067009Y92486D01*
X1065786Y94604D01*
X1064056Y96334D01*
X1061938Y97557D01*
X1059575Y98190D01*
D02*
G37*
G36*
X957517Y121912D02*
X950767D01*
X949337Y121627D01*
X948125Y120817D01*
X947315Y119605D01*
X947030Y118175D01*
Y110425D01*
X947315Y108995D01*
X948125Y107783D01*
X948442Y107571D01*
Y106043D01*
X948125Y105831D01*
X947315Y104619D01*
X947030Y103189D01*
Y95439D01*
X947315Y94009D01*
X948125Y92797D01*
X949337Y91987D01*
X950122Y91830D01*
Y86350D01*
X948332D01*
Y70270D01*
X959412D01*
Y86350D01*
X957892D01*
Y91777D01*
X958947Y91987D01*
X960159Y92797D01*
X960969Y94009D01*
X961254Y95439D01*
Y103189D01*
X960969Y104619D01*
X960159Y105831D01*
X959842Y106043D01*
Y107571D01*
X960159Y107783D01*
X960969Y108995D01*
X961254Y110425D01*
Y118175D01*
X960969Y119605D01*
X960159Y120817D01*
X958947Y121627D01*
X957517Y121912D01*
D02*
G37*
G36*
X1039575Y98190D02*
X1037129D01*
X1034766Y97557D01*
X1032648Y96334D01*
X1030918Y94604D01*
X1029695Y92486D01*
X1029062Y90123D01*
Y87677D01*
X1029695Y85314D01*
X1030918Y83196D01*
X1032648Y81466D01*
X1034467Y80416D01*
Y75523D01*
X1033473Y74529D01*
X1032631Y73269D01*
X1032335Y71782D01*
Y63370D01*
X1027605D01*
Y72036D01*
X1027309Y73523D01*
X1026467Y74783D01*
X1022237Y79013D01*
Y80416D01*
X1024056Y81466D01*
X1025786Y83196D01*
X1027009Y85314D01*
X1027642Y87677D01*
Y90123D01*
X1027009Y92486D01*
X1025786Y94604D01*
X1024056Y96334D01*
X1021938Y97557D01*
X1019575Y98190D01*
X1017129D01*
X1014766Y97557D01*
X1012648Y96334D01*
X1010918Y94604D01*
X1009695Y92486D01*
X1009062Y90123D01*
Y87677D01*
X1009695Y85314D01*
X1010918Y83196D01*
X1012648Y81466D01*
X1014467Y80416D01*
Y77404D01*
X1014763Y75917D01*
X1015605Y74657D01*
X1019835Y70427D01*
Y63370D01*
X1017180D01*
Y45290D01*
X1055260D01*
Y63370D01*
X1055194D01*
Y65245D01*
X1055070Y65870D01*
Y66508D01*
X1054826Y67097D01*
X1054702Y67722D01*
X1054347Y68253D01*
X1054103Y68842D01*
X1053652Y69293D01*
X1053298Y69823D01*
X1052768Y70177D01*
X1052317Y70628D01*
X1051728Y70872D01*
X1051198Y71226D01*
X1050572Y71351D01*
X1049983Y71595D01*
X1049345D01*
X1048720Y71719D01*
X1048095Y71595D01*
X1047457D01*
X1046868Y71351D01*
X1046242Y71226D01*
X1045712Y70872D01*
X1045123Y70628D01*
X1044672Y70177D01*
X1044142Y69823D01*
X1043788Y69293D01*
X1043337Y68842D01*
X1043093Y68253D01*
X1042738Y67722D01*
X1042614Y67097D01*
X1042370Y66508D01*
Y65870D01*
X1042246Y65245D01*
Y63370D01*
X1040105D01*
Y70173D01*
X1041099Y71167D01*
X1041941Y72427D01*
X1042237Y73914D01*
Y80416D01*
X1044056Y81466D01*
X1045786Y83196D01*
X1047009Y85314D01*
X1047642Y87677D01*
Y90123D01*
X1047009Y92486D01*
X1045786Y94604D01*
X1044056Y96334D01*
X1041938Y97557D01*
X1039575Y98190D01*
D02*
G37*
G36*
X751579Y108204D02*
X749053D01*
X746719Y107237D01*
X744933Y105451D01*
X743966Y103117D01*
Y100591D01*
X744933Y98257D01*
X746431Y96758D01*
Y88900D01*
X746727Y87413D01*
X747569Y86153D01*
X753919Y79803D01*
X755179Y78961D01*
X756666Y78665D01*
X779941D01*
X786047Y72559D01*
Y62104D01*
X778892D01*
Y47024D01*
X800972D01*
Y50679D01*
X841892D01*
Y47024D01*
X863972D01*
Y62104D01*
X841892D01*
Y58449D01*
X800972D01*
Y62104D01*
X793817D01*
Y74168D01*
X793521Y75655D01*
X792679Y76915D01*
X784297Y85297D01*
X783037Y86139D01*
X781550Y86435D01*
X758275D01*
X754201Y90509D01*
Y96758D01*
X755699Y98257D01*
X756666Y100591D01*
Y103117D01*
X755699Y105451D01*
X753913Y107237D01*
X751579Y108204D01*
D02*
G37*
G36*
X1174679Y42639D02*
X1163429D01*
X1161706Y42296D01*
X1160246Y41320D01*
X1159270Y39860D01*
X1158927Y38137D01*
Y26887D01*
X1159270Y25164D01*
X1160246Y23704D01*
X1161706Y22728D01*
X1163429Y22385D01*
X1174679D01*
X1176401Y22728D01*
X1177862Y23704D01*
X1178838Y25164D01*
X1179180Y26887D01*
Y38137D01*
X1178838Y39860D01*
X1177862Y41320D01*
X1176401Y42296D01*
X1174679Y42639D01*
D02*
G37*
G36*
X1355024Y140168D02*
X1349514D01*
X1344073Y139306D01*
X1338834Y137604D01*
X1333925Y135103D01*
X1329468Y131865D01*
X1325573Y127969D01*
X1322334Y123512D01*
X1319833Y118603D01*
X1318131Y113364D01*
X1317269Y107923D01*
Y105168D01*
X1317269Y55168D01*
Y52414D01*
X1318131Y46972D01*
X1319833Y41733D01*
X1322334Y36824D01*
X1325573Y32367D01*
X1329468Y28472D01*
X1333925Y25233D01*
X1338834Y22732D01*
X1344073Y21030D01*
X1349514Y20168D01*
X1355024Y20168D01*
X1360465Y21030D01*
X1365704Y22732D01*
X1370613Y25233D01*
X1375070Y28472D01*
X1378965Y32367D01*
X1382204Y36824D01*
X1384705Y41733D01*
X1386407Y46972D01*
X1387269Y52414D01*
Y55168D01*
X1387269Y105168D01*
Y107923D01*
X1386407Y113364D01*
X1384705Y118603D01*
X1382204Y123512D01*
X1378966Y127969D01*
X1375070Y131865D01*
X1370613Y135103D01*
X1365704Y137604D01*
X1360465Y139306D01*
X1355024Y140168D01*
D02*
G37*
G36*
X52487Y140116D02*
X46978D01*
X41536Y139254D01*
X36297Y137552D01*
X31388Y135051D01*
X26931Y131812D01*
X23036Y127917D01*
X19797Y123460D01*
X17296Y118551D01*
X15594Y113312D01*
X14732Y107871D01*
Y105116D01*
X14732Y55116D01*
X14732Y52361D01*
X15594Y46920D01*
X17296Y41681D01*
X19798Y36772D01*
X23036Y32315D01*
X26931Y28419D01*
X31388Y25181D01*
X36297Y22680D01*
X41536Y20978D01*
X46978Y20116D01*
X52487Y20116D01*
X57928Y20978D01*
X63168Y22680D01*
X68076Y25181D01*
X72533Y28419D01*
X76429Y32315D01*
X79667Y36772D01*
X82168Y41681D01*
X83870Y46920D01*
X84732Y52361D01*
Y55116D01*
X84732Y105116D01*
Y107871D01*
X83870Y113312D01*
X82168Y118551D01*
X79667Y123460D01*
X76429Y127917D01*
X72533Y131812D01*
X68076Y135051D01*
X63168Y137552D01*
X57928Y139254D01*
X52487Y140116D01*
D02*
G37*
G36*
X949912Y64350D02*
X938832D01*
Y48270D01*
X939840D01*
Y38597D01*
X932699D01*
Y16267D01*
X955029D01*
Y38597D01*
X948904D01*
Y48270D01*
X949912D01*
Y64350D01*
D02*
G37*
G36*
X247956Y29344D02*
X245312D01*
X242759Y28660D01*
X240469Y27338D01*
X238600Y25469D01*
X237278Y23179D01*
X236594Y20626D01*
Y17982D01*
X237278Y15429D01*
X238600Y13139D01*
X240469Y11270D01*
X242759Y9948D01*
X245312Y9264D01*
X247956D01*
X250509Y9948D01*
X252799Y11270D01*
X254668Y13139D01*
X255990Y15429D01*
X256674Y17982D01*
Y20626D01*
X255990Y23179D01*
X254668Y25469D01*
X252799Y27338D01*
X250509Y28660D01*
X247956Y29344D01*
D02*
G37*
G36*
X222556D02*
X219912D01*
X217359Y28660D01*
X215069Y27338D01*
X213200Y25469D01*
X211878Y23179D01*
X211194Y20626D01*
Y17982D01*
X211878Y15429D01*
X213200Y13139D01*
X215069Y11270D01*
X217359Y9948D01*
X219912Y9264D01*
X222556D01*
X225109Y9948D01*
X227399Y11270D01*
X229268Y13139D01*
X230590Y15429D01*
X231274Y17982D01*
Y20626D01*
X230590Y23179D01*
X229268Y25469D01*
X227399Y27338D01*
X225109Y28660D01*
X222556Y29344D01*
D02*
G37*
%LPD*%
G36*
X883920Y195834D02*
X886714Y193040D01*
X930656D01*
Y185166D01*
X916686D01*
X910590Y179070D01*
Y161290D01*
X903732Y154432D01*
X843788D01*
X842264Y155956D01*
Y165100D01*
X843788Y166624D01*
X852932Y166624D01*
X857504Y171196D01*
Y202184D01*
X883920D01*
Y195834D01*
D02*
G37*
G36*
X994664Y189738D02*
Y150876D01*
X992124Y148336D01*
X956056D01*
X951768Y152625D01*
X943903D01*
X942340Y154188D01*
X942340Y193040D01*
X991362D01*
X994664Y189738D01*
D02*
G37*
D11*
X54380Y259724D02*
X71882D01*
X48886Y265218D02*
Y280564D01*
Y265218D02*
X54380Y259724D01*
X36750Y292700D02*
X48886Y280564D01*
X72000Y276606D02*
X91960D01*
X72000Y315976D02*
X91960D01*
X36750Y317700D02*
X55356Y299094D01*
X71882D01*
X352298Y19304D02*
Y74168D01*
X368480Y90350D02*
X403950D01*
X352298Y74168D02*
X368480Y90350D01*
X813664Y160528D02*
X830970D01*
X565286Y522072D02*
Y540512D01*
Y522072D02*
X565286Y522072D01*
X1023720Y54330D02*
Y72036D01*
X1018352Y77404D02*
X1023720Y72036D01*
X1018352Y77404D02*
Y88900D01*
X1036220Y71782D02*
X1038352Y73914D01*
X1036220Y54330D02*
Y71782D01*
X1038352Y73914D02*
Y88900D01*
X269307Y306645D02*
X292616D01*
X298779Y300482D02*
X431800D01*
X292616Y306645D02*
X298779Y300482D01*
X249682Y272288D02*
X287528D01*
X294640Y290068D02*
X299974Y295402D01*
X294640Y279400D02*
Y290068D01*
X287528Y272288D02*
X294640Y279400D01*
X417830Y295402D02*
X431800Y281432D01*
X299974Y295402D02*
X417830D01*
X431800Y300482D02*
X444500Y287782D01*
X321510Y241910D02*
Y247904D01*
X306324Y265176D02*
X321564Y280416D01*
X347218Y242618D02*
Y254000D01*
X346510Y241910D02*
X347218Y242618D01*
X236220Y258826D02*
X249682Y272288D01*
X304594Y241554D02*
X306324Y243284D01*
Y265176D01*
X302338Y241554D02*
X304594D01*
X388112Y103378D02*
X403622D01*
X403950Y103050D01*
X403876Y141224D02*
X403950Y141150D01*
X388112Y141224D02*
X403876D01*
Y166624D02*
X403950Y166550D01*
X388112Y166624D02*
X403876D01*
Y179324D02*
X403950Y179250D01*
X388112Y179324D02*
X403876D01*
X388112Y192024D02*
X403876D01*
X403950Y191950D01*
X388112Y204724D02*
X403876D01*
X403950Y204650D01*
X388112Y217424D02*
X403876D01*
X403950Y217350D01*
X23723Y637286D02*
X71120D01*
X97311Y611095D01*
X16916Y644093D02*
X23723Y637286D01*
X97311Y611095D02*
X143285D01*
X16916Y644093D02*
Y659942D01*
X375412Y505206D02*
Y510540D01*
Y488786D02*
Y505206D01*
X390524D01*
X487426D02*
X501904D01*
X487172Y504952D02*
X487426Y505206D01*
X487172Y504952D02*
Y508000D01*
Y490056D02*
Y504952D01*
X491236Y549148D02*
X497652Y542732D01*
Y518668D02*
Y542732D01*
X505714Y536448D02*
X521462D01*
X439928Y529082D02*
Y560280D01*
X442146Y562498D02*
X450850D01*
X439928Y560280D02*
X442146Y562498D01*
X462280Y490564D02*
Y506730D01*
X439928Y529082D02*
X462280Y506730D01*
X472186Y522986D02*
X487172Y508000D01*
X472186Y522986D02*
Y536448D01*
X363390Y522562D02*
Y536575D01*
Y522562D02*
X375412Y510540D01*
X456692Y536448D02*
X472186D01*
X347980Y536702D02*
X348107Y536575D01*
X363390D01*
X696722Y499386D02*
Y509016D01*
Y499386D02*
X696776Y499332D01*
X680368Y482396D02*
X696776D01*
X712778Y482332D02*
Y482332D01*
X696776D02*
X712778D01*
X696776D02*
Y482396D01*
X376608Y230050D02*
X403950D01*
X369468Y222910D02*
X376608Y230050D01*
X346510Y222910D02*
X369468D01*
X926592Y99314D02*
X937142D01*
X504444Y561848D02*
X521462D01*
X499110Y567182D02*
X504444Y561848D01*
X499110Y567182D02*
Y594360D01*
X502374Y597624D01*
X519684D01*
X512572Y490056D02*
X512612Y490096D01*
Y518628D02*
X512652Y518668D01*
X512612Y490096D02*
Y518628D01*
X472186Y574548D02*
Y597624D01*
X461772Y356242D02*
X462026Y355988D01*
X461772Y356242D02*
Y406056D01*
X462026Y355988D02*
X462093Y355921D01*
X484057D02*
X484124Y355854D01*
X462093Y355921D02*
X484057D01*
X533400Y343154D02*
X533460Y343094D01*
X555184D02*
X555244Y343034D01*
X533460Y343094D02*
X555184D01*
X393446Y561848D02*
X412793D01*
X382476Y597624D02*
X386706Y593394D01*
X379476Y597624D02*
X382476D01*
X386706Y568588D02*
X393446Y561848D01*
X386706Y568588D02*
Y593394D01*
X400879Y518601D02*
X400946Y518668D01*
X400812Y488786D02*
X400879Y488853D01*
Y518601D01*
X332232Y597624D02*
X359448D01*
X363517Y574548D02*
Y593555D01*
X359448Y597624D02*
X363517Y593555D01*
X350012Y355480D02*
X350012Y355480D01*
X350072Y355540D01*
X374844D01*
X374904Y355600D01*
X350012Y355480D02*
Y404786D01*
X445957Y342833D02*
X446024Y342766D01*
X424180Y342900D02*
X424247Y342833D01*
X445957D01*
X949570Y208200D02*
X964545D01*
X964617Y208272D01*
X827629Y391753D02*
Y419669D01*
X821289Y390909D02*
Y419669D01*
X814929Y390084D02*
X827786Y377228D01*
X833989Y392577D02*
Y419669D01*
X832866Y333903D02*
Y379332D01*
X843026Y329695D02*
Y383540D01*
X833989Y392577D02*
X843026Y383540D01*
X837946Y331799D02*
Y381436D01*
X827629Y391753D02*
X837946Y381436D01*
X814929Y390084D02*
Y419669D01*
X827786Y336007D02*
Y377228D01*
X821289Y390909D02*
X832866Y379332D01*
X696429Y204650D02*
X827786Y336007D01*
X679881Y166550D02*
X843026Y329695D01*
X690913Y191950D02*
X832866Y333903D01*
X685397Y179250D02*
X837946Y331799D01*
X533400Y252750D02*
Y285242D01*
X541782Y293624D02*
X756666D01*
X533400Y285242D02*
X541782Y293624D01*
X362950Y241910D02*
X363610Y242570D01*
X346510Y241910D02*
X362950D01*
X211074Y290068D02*
Y298840D01*
X211328Y299094D01*
X180848Y231394D02*
Y240166D01*
X181856Y239158D02*
X196018D01*
X197026Y238150D01*
X180848Y240166D02*
X181856Y239158D01*
X211328Y299094D02*
X212336Y298086D01*
X229038D02*
X230046Y297078D01*
X212336Y298086D02*
X229038D01*
X465328Y317754D02*
X484124D01*
X356870Y317500D02*
X374904D01*
X487105Y405989D02*
X487172Y406056D01*
X487105Y383156D02*
Y405989D01*
X487039Y383089D02*
X487105Y383156D01*
X375285Y382397D02*
Y404659D01*
X375158Y382270D02*
X375285Y382397D01*
Y404659D02*
X375412Y404786D01*
X949498Y208128D02*
X949570Y208200D01*
X789932Y54564D02*
Y74168D01*
X781550Y82550D02*
X789932Y74168D01*
X756666Y82550D02*
X781550D01*
X750316Y88900D02*
Y101854D01*
Y88900D02*
X756666Y82550D01*
X687824Y54564D02*
Y90178D01*
X675014Y102988D02*
X687824Y90178D01*
X631952Y102988D02*
X675014D01*
X615950Y102978D02*
X615955Y102983D01*
X631947D01*
X631952Y102988D01*
X687824Y54564D02*
X750824D01*
X789932D02*
X852932D01*
X589788Y103124D02*
X589861Y103051D01*
X615877D02*
X615950Y102978D01*
X589861Y103051D02*
X615877D01*
X380610Y242570D02*
X403770D01*
X573950Y103050D02*
X574024Y103124D01*
X589788D01*
X954142Y114300D02*
X954142Y114300D01*
X954142Y99314D02*
Y114300D01*
X954007Y99179D02*
X954142Y99314D01*
X953872Y78310D02*
X954007Y78445D01*
Y99179D01*
X292354Y39624D02*
Y117856D01*
X297356Y122858D02*
Y179222D01*
X297434Y115752D02*
X310132Y128450D01*
X292354Y117856D02*
X297356Y122858D01*
X310132Y128450D02*
X403950D01*
X297434Y19304D02*
Y115752D01*
X272034Y19304D02*
X292354Y39624D01*
X322834Y19304D02*
Y100076D01*
X338508Y115750D01*
X403950D01*
X280552Y223997D02*
Y231840D01*
Y214122D02*
Y223997D01*
X269342Y179222D02*
X297356D01*
X343662Y188722D02*
X363728Y208788D01*
X319356Y188722D02*
X343662D01*
X263398Y185166D02*
Y234070D01*
Y185166D02*
X269342Y179222D01*
X380497Y242683D02*
Y257697D01*
X380384Y257810D02*
X380497Y257697D01*
Y242683D02*
X380610Y242570D01*
X403770D02*
X403950Y242750D01*
X297552Y198418D02*
Y214122D01*
X297356Y198222D02*
X297552Y198418D01*
X280338Y232054D02*
X280552Y231840D01*
X263406Y251062D02*
X280330D01*
X263398Y251070D02*
X263406Y251062D01*
X280330D02*
X280338Y251054D01*
X270764Y369062D02*
Y379358D01*
X226822Y369062D02*
Y379358D01*
X182626Y368808D02*
Y379358D01*
X138684Y369062D02*
Y379358D01*
X270764Y396358D02*
X270764Y396358D01*
X270764Y396358D02*
Y414286D01*
X226737Y396443D02*
X226822Y396358D01*
X226737Y396443D02*
Y414286D01*
X182711Y396443D02*
Y414286D01*
X182626Y396358D02*
X182711Y396443D01*
X138684Y396358D02*
Y414286D01*
X236220Y247514D02*
Y258826D01*
X219094Y247582D02*
X236152D01*
X236220Y247514D01*
X219026Y247650D02*
X219094Y247582D01*
X180856Y257158D02*
X197018D01*
X180848Y257166D02*
X180856Y257158D01*
X197018D02*
X197026Y257150D01*
X197222Y257346D01*
Y276606D01*
X156960D02*
X180222D01*
X431800Y252750D02*
Y281432D01*
X269045Y306383D02*
X269307Y306645D01*
X444500Y252750D02*
Y287782D01*
X252241Y306383D02*
X269045D01*
X252046Y306578D02*
X252241Y306383D01*
X211336Y316086D02*
X230038D01*
X211328Y316094D02*
X211336Y316086D01*
X230038D02*
X230046Y316078D01*
X196324Y316094D02*
X211328D01*
X196206Y315976D02*
X196324Y316094D01*
X156960Y315976D02*
X179206D01*
X374904Y336550D02*
Y342900D01*
Y330200D02*
Y336550D01*
X573950Y153850D02*
X574130Y153670D01*
X591820D01*
X424180Y323850D02*
Y330200D01*
Y317500D02*
Y323850D01*
X573950Y141150D02*
X574024Y141224D01*
X591820D01*
X484124Y336804D02*
Y343154D01*
Y330454D02*
Y336804D01*
X573950Y128450D02*
X574024Y128524D01*
X591820D01*
X573950Y115750D02*
X591755D01*
X573950Y115750D02*
X573950Y115750D01*
X533400Y309372D02*
Y317754D01*
Y330454D01*
X783189Y312963D02*
Y419669D01*
X789529Y312119D02*
Y419669D01*
X573950Y166550D02*
X679881D01*
X707460Y230050D02*
X789529Y312119D01*
X573950Y217350D02*
X701945D01*
X573950Y204650D02*
X696429D01*
X573950Y242750D02*
X712976D01*
X783189Y312963D01*
X756666Y293624D02*
X776829Y313787D01*
X701945Y217350D02*
X795889Y311294D01*
X573950Y179250D02*
X685397D01*
X573950Y230050D02*
X707460D01*
X776829Y313787D02*
Y419669D01*
X573950Y191950D02*
X690913D01*
X795889Y311294D02*
Y419669D01*
X143285Y611095D02*
X147946Y606434D01*
Y589788D02*
Y606434D01*
X107950Y629158D02*
X181610D01*
X192278Y589788D02*
Y595435D01*
Y574880D02*
Y589788D01*
X192083Y595630D02*
Y618685D01*
X181610Y629158D02*
X192083Y618685D01*
X87020Y650088D02*
X107950Y629158D01*
X147946Y574762D02*
X148082Y574626D01*
X147946Y574762D02*
Y589788D01*
X192024Y574626D02*
X192278Y574880D01*
X192083Y595630D02*
X192278Y595435D01*
X236338Y589788D02*
Y613902D01*
X203302Y646938D02*
X236338Y613902D01*
X236220Y589670D02*
X236338Y589788D01*
X236220Y574626D02*
Y589670D01*
X280162Y574626D02*
X280221Y574685D01*
Y589729D01*
X280280Y589788D01*
X280221Y589847D02*
X280280Y589788D01*
X280221Y589847D02*
Y623605D01*
X87020Y650088D02*
Y659942D01*
X157124Y652374D02*
X162560Y646938D01*
X203302D01*
X157124Y652374D02*
Y659942D01*
X242824Y633984D02*
X269842D01*
X280221Y623605D01*
X226974Y649834D02*
X242824Y633984D01*
X226974Y649834D02*
Y659942D01*
X236220Y574626D02*
X236279Y574685D01*
X157582Y536668D02*
Y552626D01*
X157480Y536566D02*
X157582Y536668D01*
X138582Y519650D02*
X138684Y519548D01*
X138582Y519650D02*
Y552626D01*
X138684Y479286D02*
Y502548D01*
X157471Y519557D02*
X157480Y519566D01*
X138684Y519548D02*
X138693Y519557D01*
X157471D01*
X182524Y519650D02*
X182626Y519548D01*
X182524Y519650D02*
Y552626D01*
X201524Y536668D02*
Y552626D01*
X201422Y536566D02*
X201524Y536668D01*
X201413Y519557D02*
X201422Y519566D01*
X182626Y519548D02*
X182635Y519557D01*
X201413D01*
X182626Y502548D02*
X182711Y502463D01*
Y479286D02*
Y502463D01*
X226577Y519557D02*
X226720Y519700D01*
X226568Y519548D02*
X226577Y519557D01*
X226720Y519700D02*
Y552626D01*
X245720Y536718D02*
Y552626D01*
Y536718D02*
X245872Y536566D01*
X226577Y519557D02*
X245863D01*
X245872Y519566D01*
X226568Y502548D02*
X226737Y502379D01*
Y479286D02*
Y502379D01*
X270662Y519650D02*
Y552626D01*
Y519650D02*
X270764Y519548D01*
X270764Y479286D02*
Y502548D01*
X270764Y502548D01*
X289662Y536600D02*
Y552626D01*
X289628Y536566D02*
X289662Y536600D01*
X270773Y519557D02*
X289619D01*
X289628Y519566D01*
X270764Y519548D02*
X270773Y519557D01*
X425704Y549148D02*
X428244Y546608D01*
X426212Y524054D02*
X428244Y526086D01*
Y546608D01*
X426212Y506730D02*
Y524054D01*
X412793Y549148D02*
X425704D01*
X350012Y488786D02*
Y506570D01*
X324866Y531716D02*
Y558038D01*
Y531716D02*
X350012Y506570D01*
X329580Y562752D02*
X341122D01*
X324866Y558038D02*
X329580Y562752D01*
X341256Y562886D02*
Y575818D01*
X341122Y562752D02*
X341256Y562886D01*
X538226Y506730D02*
X538480Y506984D01*
Y545846D01*
X535178Y549148D02*
X538480Y545846D01*
X521462Y549148D02*
X535178D01*
X461772Y490056D02*
X462280Y490564D01*
X450850Y562498D02*
X450984Y562632D01*
Y575818D01*
X397002Y536448D02*
X412793D01*
X385946Y518668D02*
Y544202D01*
X381000Y549148D02*
X385946Y544202D01*
X363517Y549148D02*
X381000D01*
X472186D02*
X491236D01*
X451500D02*
X472186D01*
X450850Y548498D02*
X451500Y549148D01*
X451500Y561848D02*
X472186D01*
X450850Y562498D02*
X451500Y561848D01*
X341518Y549148D02*
X363517D01*
X341122Y548752D02*
X341518Y549148D01*
X341122Y562752D02*
X342026Y561848D01*
X363517D01*
X795889Y473709D02*
Y539389D01*
X795528Y539750D02*
X795889Y539389D01*
X814929Y527401D02*
X827278Y539750D01*
X814929Y473709D02*
Y527401D01*
X821289Y473709D02*
Y514457D01*
X846074Y539242D01*
X827629Y503271D02*
X846328Y521970D01*
X827629Y473709D02*
Y503271D01*
X833989Y490835D02*
X846836Y503682D01*
X833989Y473709D02*
Y490835D01*
X766064Y541528D02*
X789529Y518063D01*
Y473709D02*
Y518063D01*
X765048Y523494D02*
X783189Y505353D01*
Y473709D02*
Y505353D01*
X776829Y473709D02*
Y492663D01*
X764286Y505206D02*
X776829Y492663D01*
D12*
X1048720Y54330D02*
Y65245D01*
X1048720Y54330D02*
X1048720Y54330D01*
X637036Y607720D02*
X637286Y607470D01*
X606044Y607970D02*
X606294Y607720D01*
X637036D01*
X675640Y607970D02*
X675890Y607720D01*
X706886D01*
X707136Y607470D01*
X746756Y607720D02*
X776990D01*
X777240Y607470D01*
X746506Y607970D02*
X746756Y607720D01*
X847094D02*
X847344Y607470D01*
X816356Y607970D02*
X816606Y607720D01*
X847094D01*
X886460Y607970D02*
X886710Y607720D01*
X916944D01*
X917194Y607470D01*
X987048Y607720D02*
X987298Y607470D01*
X955294Y607970D02*
X955544Y607720D01*
X987048D01*
X1025144Y607970D02*
X1025394Y607720D01*
X1056898D01*
X1057148Y607470D01*
X1095498Y607720D02*
X1126748D01*
X1095248Y607970D02*
X1095498Y607720D01*
X1126748D02*
X1126998Y607470D01*
D21*
X847970Y160528D02*
D03*
X830970D02*
D03*
X582286Y540512D02*
D03*
X565286D02*
D03*
X937142Y114300D02*
D03*
X954142D02*
D03*
X954142Y99314D02*
D03*
X937142D02*
D03*
X380610Y242570D02*
D03*
X363610D02*
D03*
X180222Y276606D02*
D03*
X197222D02*
D03*
X179206Y315976D02*
D03*
X196206D02*
D03*
X263280Y589788D02*
D03*
X280280D02*
D03*
X219338D02*
D03*
X236338D02*
D03*
X175142D02*
D03*
X192142D02*
D03*
X130946D02*
D03*
X147946D02*
D03*
X280552Y214122D02*
D03*
X297552D02*
D03*
D22*
X794664Y160528D02*
D03*
X813664D02*
D03*
D23*
X565286Y503072D02*
D03*
Y522072D02*
D03*
D24*
X1011220Y54330D02*
D03*
X1023720D02*
D03*
X1036220D02*
D03*
X1048720D02*
D03*
D25*
X1074220Y26830D02*
D03*
X985720D02*
D03*
D26*
X245872Y519566D02*
D03*
Y536566D02*
D03*
X201422D02*
D03*
Y519566D02*
D03*
X631952Y102988D02*
D03*
Y85988D02*
D03*
X263398Y251070D02*
D03*
Y234070D02*
D03*
X236220Y230514D02*
D03*
Y247514D02*
D03*
X180848Y257166D02*
D03*
Y240166D02*
D03*
X269240Y306188D02*
D03*
Y289188D02*
D03*
X211328Y316094D02*
D03*
Y299094D02*
D03*
X71882Y259724D02*
D03*
Y276724D02*
D03*
Y299094D02*
D03*
Y316094D02*
D03*
X270764Y379358D02*
D03*
Y396358D02*
D03*
X226822Y379358D02*
D03*
Y396358D02*
D03*
X182626Y379358D02*
D03*
Y396358D02*
D03*
X138684Y379358D02*
D03*
Y396358D02*
D03*
X712778Y499332D02*
D03*
Y482332D02*
D03*
X696776Y482332D02*
D03*
Y499332D02*
D03*
X289628Y519566D02*
D03*
Y536566D02*
D03*
X270764Y502548D02*
D03*
Y519548D02*
D03*
X226568D02*
D03*
Y502548D02*
D03*
X182626Y519548D02*
D03*
Y502548D02*
D03*
X138684Y519548D02*
D03*
Y502548D02*
D03*
X157480Y519566D02*
D03*
Y536566D02*
D03*
D27*
X870712Y251722D02*
D03*
Y189222D02*
D03*
D28*
X947820Y175260D02*
D03*
X934320D02*
D03*
X947820Y159512D02*
D03*
X934320D02*
D03*
X923652Y224028D02*
D03*
X937152D02*
D03*
X380384Y257810D02*
D03*
X366884D02*
D03*
X632368Y482450D02*
D03*
X645868D02*
D03*
D29*
X923498Y208128D02*
D03*
Y189128D02*
D03*
X949498Y208128D02*
D03*
Y198628D02*
D03*
Y189128D02*
D03*
D30*
X904494Y187560D02*
D03*
Y201060D02*
D03*
X615950Y116478D02*
D03*
Y102978D02*
D03*
X600202Y90316D02*
D03*
Y76816D02*
D03*
D31*
X1284224Y536116D02*
D03*
Y494616D02*
D03*
D32*
X1218418Y277368D02*
D03*
X1185418D02*
D03*
X1152418D02*
D03*
D33*
X1222808Y502666D02*
D03*
X1249628D02*
D03*
D34*
X1284224Y633372D02*
D03*
Y569572D02*
D03*
X1223772D02*
D03*
Y633372D02*
D03*
D35*
X944372Y56310D02*
D03*
X934872Y78310D02*
D03*
X953872D02*
D03*
D36*
X852932Y16564D02*
D03*
X789932D02*
D03*
X852932Y54564D02*
D03*
X789932D02*
D03*
X750824Y16564D02*
D03*
X687824D02*
D03*
X750824Y54564D02*
D03*
X687824D02*
D03*
D37*
X480600Y171000D02*
D03*
X498950D02*
D03*
X517300D02*
D03*
X480600Y152650D02*
D03*
X498950D02*
D03*
X517300D02*
D03*
X480600Y134300D02*
D03*
X498950D02*
D03*
X517300D02*
D03*
D38*
X403950Y77650D02*
D03*
Y90350D02*
D03*
Y115750D02*
D03*
Y128450D02*
D03*
Y141150D02*
D03*
Y153850D02*
D03*
Y166550D02*
D03*
Y179250D02*
D03*
Y191950D02*
D03*
Y204650D02*
D03*
Y217350D02*
D03*
Y242750D02*
D03*
X573950Y103050D02*
D03*
Y90350D02*
D03*
Y77650D02*
D03*
Y204650D02*
D03*
Y191950D02*
D03*
Y242750D02*
D03*
Y217350D02*
D03*
Y115750D02*
D03*
Y128450D02*
D03*
Y230050D02*
D03*
Y153850D02*
D03*
Y141150D02*
D03*
Y166550D02*
D03*
Y179250D02*
D03*
X403950Y103050D02*
D03*
Y230050D02*
D03*
D39*
X457200Y252750D02*
D03*
X469900D02*
D03*
X482600D02*
D03*
X495300D02*
D03*
X508000D02*
D03*
X520700D02*
D03*
X546100D02*
D03*
X431800D02*
D03*
X533400D02*
D03*
X444500D02*
D03*
D40*
X321510Y241910D02*
D03*
Y232410D02*
D03*
Y222910D02*
D03*
X346510Y241910D02*
D03*
Y222910D02*
D03*
D41*
X302338Y241554D02*
D03*
X280338Y232054D02*
D03*
Y251054D02*
D03*
X297356Y198222D02*
D03*
Y179222D02*
D03*
X319356Y188722D02*
D03*
D42*
X197026Y257150D02*
D03*
Y238150D02*
D03*
X219026Y247650D02*
D03*
X252046Y306578D02*
D03*
X230046Y297078D02*
D03*
Y316078D02*
D03*
D43*
X91960Y276606D02*
D03*
Y263906D02*
D03*
X156960D02*
D03*
Y276606D02*
D03*
Y315976D02*
D03*
Y303276D02*
D03*
X91960D02*
D03*
Y315976D02*
D03*
D44*
X555244Y328034D02*
D03*
Y343034D02*
D03*
X462026Y340988D02*
D03*
Y355988D02*
D03*
X446024Y357766D02*
D03*
Y342766D02*
D03*
X350012Y340480D02*
D03*
Y355480D02*
D03*
D45*
X533400Y317754D02*
D03*
Y330454D02*
D03*
Y355854D02*
D03*
X484124Y343154D02*
D03*
Y330454D02*
D03*
Y317754D02*
D03*
X533400Y343154D02*
D03*
X484124Y355854D02*
D03*
X424180Y317500D02*
D03*
Y330200D02*
D03*
Y355600D02*
D03*
X374904Y342900D02*
D03*
Y330200D02*
D03*
Y317500D02*
D03*
X424180Y342900D02*
D03*
X374904Y355600D02*
D03*
X472186Y536448D02*
D03*
Y549148D02*
D03*
Y561848D02*
D03*
X521462Y574548D02*
D03*
Y549148D02*
D03*
Y536448D02*
D03*
X472186Y574548D02*
D03*
X521462Y561848D02*
D03*
X412793Y536448D02*
D03*
Y549148D02*
D03*
Y574548D02*
D03*
X363517Y561848D02*
D03*
Y549148D02*
D03*
Y536448D02*
D03*
Y574548D02*
D03*
X412793Y561848D02*
D03*
D46*
X597752Y487934D02*
D03*
X615352D02*
D03*
X695162Y526138D02*
D03*
X677562D02*
D03*
D47*
X497652Y518668D02*
D03*
X512652D02*
D03*
X385946D02*
D03*
X400946D02*
D03*
X450984Y575818D02*
D03*
X435984D02*
D03*
X326256D02*
D03*
X341256D02*
D03*
D48*
X537972Y490056D02*
D03*
X487172D02*
D03*
X461772D02*
D03*
X537972Y406056D02*
D03*
X512572D02*
D03*
X487172D02*
D03*
X461772D02*
D03*
X512572Y490056D02*
D03*
X375412Y404786D02*
D03*
X400812D02*
D03*
X426212D02*
D03*
X350012Y488786D02*
D03*
X375412D02*
D03*
X426212D02*
D03*
X350012Y404786D02*
D03*
X400812Y488786D02*
D03*
D49*
X270764Y479286D02*
D03*
X283464D02*
D03*
Y414286D02*
D03*
X270764D02*
D03*
X226737D02*
D03*
X239437D02*
D03*
Y479286D02*
D03*
X226737D02*
D03*
X182711D02*
D03*
X195411D02*
D03*
Y414286D02*
D03*
X182711D02*
D03*
X138684Y479286D02*
D03*
X151384D02*
D03*
Y414286D02*
D03*
X138684D02*
D03*
D50*
X661368Y507396D02*
D03*
X670868D02*
D03*
X680368D02*
D03*
Y482396D02*
D03*
X670868D02*
D03*
X661368D02*
D03*
D51*
X616174Y523494D02*
D03*
X644174D02*
D03*
D52*
X450850Y562498D02*
D03*
Y548498D02*
D03*
X341122Y548752D02*
D03*
Y562752D02*
D03*
D53*
X280162Y574626D02*
D03*
X289662Y552626D02*
D03*
X270662D02*
D03*
X236220Y574626D02*
D03*
X245720Y552626D02*
D03*
X226720D02*
D03*
X192024Y574626D02*
D03*
X201524Y552626D02*
D03*
X182524D02*
D03*
X148082Y574626D02*
D03*
X157582Y552626D02*
D03*
X138582D02*
D03*
D54*
X1126998Y563470D02*
D03*
Y607470D02*
D03*
X1057148D02*
D03*
Y563470D02*
D03*
X987298D02*
D03*
Y607470D02*
D03*
X917194D02*
D03*
Y563470D02*
D03*
X847344Y607470D02*
D03*
Y563470D02*
D03*
X777240Y607470D02*
D03*
Y563470D02*
D03*
X707136Y607470D02*
D03*
Y563470D02*
D03*
X637286Y607470D02*
D03*
Y563470D02*
D03*
X1126998Y632050D02*
D03*
Y676050D02*
D03*
X1057148D02*
D03*
Y632050D02*
D03*
X987298Y676050D02*
D03*
Y632050D02*
D03*
X917194Y676050D02*
D03*
Y632050D02*
D03*
X847344Y676050D02*
D03*
Y632050D02*
D03*
X777240Y676050D02*
D03*
Y632050D02*
D03*
X707136Y676050D02*
D03*
Y632050D02*
D03*
X637286Y676050D02*
D03*
Y632050D02*
D03*
D55*
X1095248Y580970D02*
D03*
Y607970D02*
D03*
X1025144D02*
D03*
Y580970D02*
D03*
X955294D02*
D03*
Y607970D02*
D03*
X886460D02*
D03*
Y580970D02*
D03*
X816356Y607970D02*
D03*
Y580970D02*
D03*
X746506Y607970D02*
D03*
Y580970D02*
D03*
X675640Y607970D02*
D03*
Y580970D02*
D03*
X606044Y607970D02*
D03*
Y580970D02*
D03*
D56*
X542290Y597624D02*
D03*
Y624624D02*
D03*
X519684D02*
D03*
Y597624D02*
D03*
X472186D02*
D03*
Y624624D02*
D03*
X449326D02*
D03*
Y597624D02*
D03*
X402082D02*
D03*
Y624624D02*
D03*
X379476D02*
D03*
Y597624D02*
D03*
X332232D02*
D03*
Y624624D02*
D03*
X309626D02*
D03*
Y597624D02*
D03*
D57*
X542392Y678194D02*
D03*
X532892D02*
D03*
X523392D02*
D03*
Y648194D02*
D03*
X532892D02*
D03*
X542392D02*
D03*
X462788D02*
D03*
X453288D02*
D03*
Y678194D02*
D03*
X462788D02*
D03*
X472288D02*
D03*
Y648194D02*
D03*
X392684D02*
D03*
X383184D02*
D03*
Y678194D02*
D03*
X392684D02*
D03*
X402184D02*
D03*
Y648194D02*
D03*
X322834D02*
D03*
X313334D02*
D03*
Y678194D02*
D03*
X322834D02*
D03*
X332334D02*
D03*
Y648194D02*
D03*
D58*
X532892Y663194D02*
D03*
X462788D02*
D03*
X392684D02*
D03*
X322834D02*
D03*
D59*
X236474Y682702D02*
D03*
X245974Y659942D02*
D03*
X226974D02*
D03*
X166624Y682702D02*
D03*
X176124Y659942D02*
D03*
X157124D02*
D03*
X96520Y682702D02*
D03*
X106020Y659942D02*
D03*
X87020D02*
D03*
X16916D02*
D03*
X35916D02*
D03*
X26416Y682702D02*
D03*
D60*
X833989Y473709D02*
D03*
X827629D02*
D03*
X821289D02*
D03*
X814929D02*
D03*
X808589D02*
D03*
X802229D02*
D03*
X795889D02*
D03*
X789529D02*
D03*
X783189D02*
D03*
X776829D02*
D03*
Y419669D02*
D03*
X783189D02*
D03*
X789529D02*
D03*
X795889D02*
D03*
X802229D02*
D03*
X808589D02*
D03*
X814929D02*
D03*
X821289D02*
D03*
X827629D02*
D03*
X833989D02*
D03*
D120*
X661341Y482423D02*
X661368Y482396D01*
X645868Y482450D02*
X645895Y482423D01*
X661341D01*
D121*
X923498Y208128D02*
X923575Y208205D01*
Y223951D01*
X923652Y224028D01*
D122*
X542290Y624624D02*
X542392Y624726D01*
Y648194D01*
X472186Y624624D02*
X472288Y624726D01*
Y648194D01*
X402082Y624624D02*
X402184Y624726D01*
Y648194D01*
X332232Y624624D02*
X332334Y624726D01*
Y648194D01*
X519684Y597624D02*
X542290D01*
X449326D02*
X472186D01*
X382476D02*
X402082D01*
X309626D02*
X332232D01*
X332296Y678232D02*
Y704934D01*
X332258Y704972D02*
X332296Y704934D01*
Y678232D02*
X332334Y678194D01*
X402221Y678231D02*
Y704935D01*
X402184Y678194D02*
X402221Y678231D01*
Y704935D02*
X402258Y704972D01*
X472273Y678209D02*
Y704957D01*
Y678209D02*
X472288Y678194D01*
X472258Y704972D02*
X472273Y704957D01*
X542325Y678261D02*
Y704905D01*
Y678261D02*
X542392Y678194D01*
X542258Y704972D02*
X542325Y704905D01*
D123*
X808589Y385171D02*
Y419669D01*
Y385171D02*
X819765Y373994D01*
D124*
X943864Y27432D02*
X944372Y27940D01*
Y56310D01*
D125*
X236474Y704874D02*
X236572Y704972D01*
X236474Y682702D02*
Y704874D01*
X166572Y704972D02*
X166624Y704920D01*
Y682702D02*
Y704920D01*
X96520Y682702D02*
Y704920D01*
X96572Y704972D01*
X26416Y682702D02*
Y704816D01*
X26572Y704972D01*
D126*
X1126998Y619760D02*
Y632050D01*
Y607470D02*
Y619760D01*
X1057148D02*
Y632050D01*
Y607470D02*
Y619760D01*
X987298D02*
Y632050D01*
Y607470D02*
Y619760D01*
X917194D02*
Y632050D01*
Y607470D02*
Y619760D01*
X847344D02*
Y632050D01*
Y607470D02*
Y619760D01*
X777240D02*
Y632050D01*
Y607470D02*
Y619760D01*
X707136D02*
Y632050D01*
Y607470D02*
Y619760D01*
X637286D02*
Y632050D01*
Y607470D02*
Y619760D01*
X637168Y676168D02*
Y706002D01*
Y676168D02*
X637286Y676050D01*
X637050Y706120D02*
X637168Y706002D01*
X707093Y676093D02*
Y706077D01*
Y676093D02*
X707136Y676050D01*
X707050Y706120D02*
X707093Y706077D01*
X777050Y706120D02*
X777145Y706025D01*
Y676145D02*
Y706025D01*
Y676145D02*
X777240Y676050D01*
X847050Y676335D02*
Y706120D01*
Y676335D02*
X847335Y676050D01*
X847344D01*
X917122Y676122D02*
Y706048D01*
Y676122D02*
X917194Y676050D01*
X917050Y706120D02*
X917122Y706048D01*
X987174Y676174D02*
X987298Y676050D01*
X987050Y706120D02*
X987174Y705996D01*
Y676174D02*
Y705996D01*
X1057099Y676099D02*
X1057148Y676050D01*
X1057050Y706120D02*
X1057099Y706071D01*
Y676099D02*
Y706071D01*
X1127024Y706094D02*
X1127050Y706120D01*
X1127024Y676076D02*
Y706094D01*
X1126998Y676050D02*
X1127024Y676076D01*
D127*
X36750Y367700D02*
D03*
D128*
Y342700D02*
D03*
Y292700D02*
D03*
Y317700D02*
D03*
D129*
X352298Y19304D02*
D03*
X943864Y27432D02*
D03*
D130*
X377698Y19304D02*
D03*
X918464Y27432D02*
D03*
D131*
X1058352Y88900D02*
D03*
X1038352D02*
D03*
X1018352D02*
D03*
D132*
X998352D02*
D03*
D133*
X1289812Y284988D02*
D03*
Y259588D02*
D03*
Y234188D02*
D03*
Y208788D02*
D03*
X1366012D02*
D03*
Y234188D02*
D03*
Y259588D02*
D03*
Y284988D02*
D03*
D134*
X1218946Y343686D02*
D03*
D135*
Y383286D02*
D03*
X1057148Y512318D02*
D03*
D136*
X1294038Y448216D02*
D03*
X1219038Y468216D02*
D03*
D137*
X1169054Y32512D02*
D03*
D138*
X1194054D02*
D03*
X195834Y19304D02*
D03*
X221234D02*
D03*
X246634D02*
D03*
X272034D02*
D03*
X297434D02*
D03*
D139*
X322834D02*
D03*
D140*
X489775Y171000D02*
D03*
X508125D02*
D03*
X480600Y161825D02*
D03*
X498950D02*
D03*
X517300D02*
D03*
X489775Y152650D02*
D03*
X508125D02*
D03*
X480600Y143475D02*
D03*
X498950D02*
D03*
X517300D02*
D03*
X489775Y134300D02*
D03*
X508125D02*
D03*
D141*
X1017548Y512318D02*
D03*
D142*
X1250600Y715120D02*
D03*
X1371600D02*
D03*
D143*
X1293600Y706120D02*
D03*
X1127050D02*
D03*
X1092050D02*
D03*
X1057050D02*
D03*
X1022050D02*
D03*
X987050D02*
D03*
X952050D02*
D03*
X917050D02*
D03*
X882050D02*
D03*
X847050D02*
D03*
X812050D02*
D03*
X777050D02*
D03*
X742050D02*
D03*
X707050D02*
D03*
X672050D02*
D03*
X637050D02*
D03*
D144*
X1328600D02*
D03*
X1162050D02*
D03*
D145*
X332258Y704972D02*
D03*
X367258D02*
D03*
X402258D02*
D03*
X437258D02*
D03*
X472258D02*
D03*
X507258D02*
D03*
X542258D02*
D03*
X577258D02*
D03*
X26572D02*
D03*
X61572D02*
D03*
X96572D02*
D03*
X131572D02*
D03*
X166572D02*
D03*
X201572D02*
D03*
X236572D02*
D03*
X271572D02*
D03*
D146*
X1155700Y635000D02*
D03*
Y584200D02*
D03*
X1130300D02*
D03*
X1104900Y635000D02*
D03*
X1079500D02*
D03*
Y533400D02*
D03*
X1054100Y584200D02*
D03*
Y533400D02*
D03*
Y482600D02*
D03*
X1028700D02*
D03*
X1003300D02*
D03*
X977900D02*
D03*
X939800Y558800D02*
D03*
X952500Y482600D02*
D03*
X927100Y584200D02*
D03*
Y533400D02*
D03*
Y482600D02*
D03*
X901700Y533400D02*
D03*
Y482600D02*
D03*
X876300Y635000D02*
D03*
Y533400D02*
D03*
Y482600D02*
D03*
X850900Y584200D02*
D03*
Y482600D02*
D03*
X825500Y635000D02*
D03*
X812800Y558800D02*
D03*
X800100Y635000D02*
D03*
X774700Y584200D02*
D03*
X749300Y635000D02*
D03*
Y482600D02*
D03*
X723900Y584200D02*
D03*
Y482600D02*
D03*
X647700Y584200D02*
D03*
X609600Y558800D02*
D03*
X596900Y635000D02*
D03*
X584200Y609600D02*
D03*
Y558800D02*
D03*
Y508000D02*
D03*
X571500Y635000D02*
D03*
X558800Y609600D02*
D03*
X571500Y584200D02*
D03*
X558800Y558800D02*
D03*
X571500Y482600D02*
D03*
X533400Y609600D02*
D03*
X546100Y584200D02*
D03*
X520700Y635000D02*
D03*
X508000Y609600D02*
D03*
X520700Y584200D02*
D03*
X495300Y635000D02*
D03*
X482600Y609600D02*
D03*
X457200D02*
D03*
X444500Y635000D02*
D03*
X431800Y609600D02*
D03*
Y558800D02*
D03*
X444500Y482600D02*
D03*
X419100Y635000D02*
D03*
X406400Y609600D02*
D03*
X419100Y584200D02*
D03*
X381000Y609600D02*
D03*
X393700Y584200D02*
D03*
X381000Y558800D02*
D03*
X368300Y635000D02*
D03*
X355600Y609600D02*
D03*
X330200D02*
D03*
Y508000D02*
D03*
X317500Y635000D02*
D03*
X304800Y609600D02*
D03*
X317500Y584200D02*
D03*
X304800Y558800D02*
D03*
Y508000D02*
D03*
X317500Y482600D02*
D03*
X292100Y635000D02*
D03*
Y584200D02*
D03*
X279400Y558800D02*
D03*
X292100Y482600D02*
D03*
X254000Y609600D02*
D03*
Y508000D02*
D03*
X228600Y609600D02*
D03*
X203200D02*
D03*
Y508000D02*
D03*
X215900Y482600D02*
D03*
X190500Y635000D02*
D03*
X177800Y609600D02*
D03*
X165100Y584200D02*
D03*
X152400Y508000D02*
D03*
X165100Y482600D02*
D03*
X88900Y635000D02*
D03*
Y584200D02*
D03*
Y533400D02*
D03*
X76200Y508000D02*
D03*
Y355600D02*
D03*
X88900Y330200D02*
D03*
X50800Y660400D02*
D03*
X63500Y330200D02*
D03*
X25400Y508000D02*
D03*
X38100Y482600D02*
D03*
X25400Y457200D02*
D03*
Y406400D02*
D03*
Y304800D02*
D03*
X38100Y279400D02*
D03*
X25400Y254000D02*
D03*
X1320800Y127000D02*
D03*
Y25400D02*
D03*
X1295400Y127000D02*
D03*
X1308100Y101600D02*
D03*
X1295400Y76200D02*
D03*
X1308100Y50800D02*
D03*
X1295400Y25400D02*
D03*
X1270000Y127000D02*
D03*
X1282700Y101600D02*
D03*
X1270000Y76200D02*
D03*
X1282700Y50800D02*
D03*
X1270000Y25400D02*
D03*
X1244600Y127000D02*
D03*
X1257300Y101600D02*
D03*
X1244600Y76200D02*
D03*
X1257300Y50800D02*
D03*
X1244600Y25400D02*
D03*
X1219200Y127000D02*
D03*
X1231900Y101600D02*
D03*
X1219200Y76200D02*
D03*
X1231900Y50800D02*
D03*
X1219200Y25400D02*
D03*
X1193800Y127000D02*
D03*
X1206500Y101600D02*
D03*
X1193800Y76200D02*
D03*
X1206500Y50800D02*
D03*
X1168400Y127000D02*
D03*
X1181100Y101600D02*
D03*
X1143000Y127000D02*
D03*
X1155700Y101600D02*
D03*
X1130300Y152400D02*
D03*
X1117600Y25400D02*
D03*
X1092200Y177800D02*
D03*
X1104900Y152400D02*
D03*
Y50800D02*
D03*
X1092200Y25400D02*
D03*
X1066800Y381000D02*
D03*
Y330200D02*
D03*
Y279400D02*
D03*
Y228600D02*
D03*
X1079500Y203200D02*
D03*
Y50800D02*
D03*
X1054100Y406400D02*
D03*
X1041400Y381000D02*
D03*
X1054100Y355600D02*
D03*
X1041400Y330200D02*
D03*
X1054100Y304800D02*
D03*
X1041400Y279400D02*
D03*
X1054100Y254000D02*
D03*
X1041400Y228600D02*
D03*
X1054100Y203200D02*
D03*
X1041400Y25400D02*
D03*
X1028700Y406400D02*
D03*
X1016000Y381000D02*
D03*
X1028700Y355600D02*
D03*
X1016000Y330200D02*
D03*
X1028700Y304800D02*
D03*
X1016000Y279400D02*
D03*
X1028700Y254000D02*
D03*
X1016000Y228600D02*
D03*
X1028700Y203200D02*
D03*
Y101600D02*
D03*
X1016000Y25400D02*
D03*
X1003300Y406400D02*
D03*
X990600Y381000D02*
D03*
X1003300Y355600D02*
D03*
X990600Y330200D02*
D03*
X1003300Y304800D02*
D03*
X990600Y279400D02*
D03*
X1003300Y254000D02*
D03*
X990600Y228600D02*
D03*
X1003300Y203200D02*
D03*
Y101600D02*
D03*
X990600Y76200D02*
D03*
X977900Y406400D02*
D03*
X965200Y381000D02*
D03*
X977900Y355600D02*
D03*
X965200Y330200D02*
D03*
X977900Y304800D02*
D03*
X965200Y279400D02*
D03*
Y228600D02*
D03*
X977900Y101600D02*
D03*
X965200Y76200D02*
D03*
X977900Y50800D02*
D03*
X965200Y25400D02*
D03*
X952500Y406400D02*
D03*
X939800Y381000D02*
D03*
X952500Y355600D02*
D03*
X939800Y330200D02*
D03*
X952500Y304800D02*
D03*
X939800Y279400D02*
D03*
X952500Y254000D02*
D03*
X927100Y406400D02*
D03*
X914400Y381000D02*
D03*
X927100Y355600D02*
D03*
X914400Y330200D02*
D03*
Y279400D02*
D03*
Y127000D02*
D03*
Y76200D02*
D03*
X927100Y50800D02*
D03*
X901700Y406400D02*
D03*
X889000Y381000D02*
D03*
X901700Y355600D02*
D03*
X889000Y330200D02*
D03*
Y279400D02*
D03*
Y127000D02*
D03*
X901700Y50800D02*
D03*
X889000Y25400D02*
D03*
X876300Y406400D02*
D03*
X863600Y381000D02*
D03*
X876300Y355600D02*
D03*
X863600Y330200D02*
D03*
Y279400D02*
D03*
Y127000D02*
D03*
X876300Y101600D02*
D03*
Y50800D02*
D03*
X863600Y25400D02*
D03*
X850900Y406400D02*
D03*
Y355600D02*
D03*
X838200Y279400D02*
D03*
X850900Y203200D02*
D03*
X838200Y127000D02*
D03*
X850900Y101600D02*
D03*
X838200Y25400D02*
D03*
X812800Y279400D02*
D03*
X825500Y203200D02*
D03*
X812800Y127000D02*
D03*
X825500Y101600D02*
D03*
X812800Y25400D02*
D03*
X800100Y203200D02*
D03*
X787400Y127000D02*
D03*
X800100Y101600D02*
D03*
X762000Y381000D02*
D03*
Y330200D02*
D03*
X774700Y203200D02*
D03*
X762000Y127000D02*
D03*
X774700Y101600D02*
D03*
Y50800D02*
D03*
X762000Y25400D02*
D03*
X749300Y406400D02*
D03*
X736600Y381000D02*
D03*
X749300Y355600D02*
D03*
X736600Y330200D02*
D03*
X749300Y304800D02*
D03*
Y203200D02*
D03*
X736600Y127000D02*
D03*
Y25400D02*
D03*
X723900Y406400D02*
D03*
X711200Y381000D02*
D03*
X723900Y355600D02*
D03*
X711200Y330200D02*
D03*
X723900Y304800D02*
D03*
X711200Y127000D02*
D03*
X723900Y101600D02*
D03*
X711200Y25400D02*
D03*
X698500Y406400D02*
D03*
X685800Y381000D02*
D03*
X698500Y355600D02*
D03*
X685800Y330200D02*
D03*
X698500Y304800D02*
D03*
X685800Y127000D02*
D03*
X698500Y101600D02*
D03*
X673100Y406400D02*
D03*
X660400Y381000D02*
D03*
X673100Y355600D02*
D03*
X660400Y330200D02*
D03*
X673100Y254000D02*
D03*
X660400Y127000D02*
D03*
X673100Y50800D02*
D03*
X660400Y25400D02*
D03*
X647700Y406400D02*
D03*
X635000Y381000D02*
D03*
X647700Y355600D02*
D03*
Y50800D02*
D03*
X635000Y25400D02*
D03*
X622300Y406400D02*
D03*
X609600Y381000D02*
D03*
X622300Y304800D02*
D03*
Y50800D02*
D03*
X609600Y25400D02*
D03*
X596900Y406400D02*
D03*
X584200Y330200D02*
D03*
X596900Y304800D02*
D03*
Y50800D02*
D03*
X571500Y406400D02*
D03*
Y304800D02*
D03*
Y254000D02*
D03*
X533400Y228600D02*
D03*
X546100Y203200D02*
D03*
X533400Y177800D02*
D03*
X546100Y152400D02*
D03*
X533400Y127000D02*
D03*
X508000Y330200D02*
D03*
X520700Y304800D02*
D03*
X508000Y228600D02*
D03*
X520700Y203200D02*
D03*
X482600Y228600D02*
D03*
X495300Y203200D02*
D03*
X469900Y304800D02*
D03*
Y203200D02*
D03*
X457200Y76200D02*
D03*
X444500Y406400D02*
D03*
X431800Y177800D02*
D03*
Y127000D02*
D03*
Y76200D02*
D03*
X393700Y254000D02*
D03*
X381000Y76200D02*
D03*
X368300Y50800D02*
D03*
X330200Y381000D02*
D03*
Y330200D02*
D03*
X342900Y152400D02*
D03*
Y101600D02*
D03*
X330200Y76200D02*
D03*
X342900Y50800D02*
D03*
X317500Y406400D02*
D03*
X304800Y381000D02*
D03*
X317500Y355600D02*
D03*
Y203200D02*
D03*
Y152400D02*
D03*
X304800Y76200D02*
D03*
X292100Y406400D02*
D03*
X254000Y381000D02*
D03*
Y330200D02*
D03*
Y177800D02*
D03*
X266700Y152400D02*
D03*
X254000Y127000D02*
D03*
X266700Y101600D02*
D03*
X254000Y76200D02*
D03*
X266700Y50800D02*
D03*
X228600Y330200D02*
D03*
X241300Y203200D02*
D03*
Y152400D02*
D03*
Y101600D02*
D03*
Y50800D02*
D03*
X215900Y406400D02*
D03*
X203200Y381000D02*
D03*
X215900Y355600D02*
D03*
X203200Y330200D02*
D03*
Y177800D02*
D03*
Y127000D02*
D03*
Y76200D02*
D03*
X177800Y330200D02*
D03*
X190500Y203200D02*
D03*
X177800Y177800D02*
D03*
X190500Y152400D02*
D03*
X177800Y127000D02*
D03*
X190500Y101600D02*
D03*
X177800Y76200D02*
D03*
X190500Y50800D02*
D03*
X177800Y25400D02*
D03*
X165100Y406400D02*
D03*
X152400Y381000D02*
D03*
X165100Y355600D02*
D03*
X152400Y330200D02*
D03*
X165100Y254000D02*
D03*
X152400Y228600D02*
D03*
X165100Y203200D02*
D03*
X152400Y177800D02*
D03*
X165100Y152400D02*
D03*
X152400Y127000D02*
D03*
X165100Y101600D02*
D03*
X152400Y76200D02*
D03*
X165100Y50800D02*
D03*
X152400Y25400D02*
D03*
X127000Y381000D02*
D03*
X139700Y355600D02*
D03*
Y203200D02*
D03*
X127000Y177800D02*
D03*
X139700Y152400D02*
D03*
X127000Y127000D02*
D03*
X139700Y101600D02*
D03*
X127000Y76200D02*
D03*
X139700Y50800D02*
D03*
X127000Y25400D02*
D03*
X101600Y177800D02*
D03*
X114300Y152400D02*
D03*
X101600Y127000D02*
D03*
X114300Y101600D02*
D03*
X101600Y76200D02*
D03*
X114300Y50800D02*
D03*
X101600Y25400D02*
D03*
X76200Y177800D02*
D03*
X88900Y152400D02*
D03*
Y101600D02*
D03*
Y50800D02*
D03*
X76200Y25400D02*
D03*
X50800Y177800D02*
D03*
X63500Y152400D02*
D03*
X25400Y177800D02*
D03*
X38100Y152400D02*
D03*
X25400Y25400D02*
D03*
X1218418Y286380D02*
D03*
Y277368D02*
D03*
Y268356D02*
D03*
X1152418Y286380D02*
D03*
Y277368D02*
D03*
Y268356D02*
D03*
X1185418D02*
D03*
Y277368D02*
D03*
Y286380D02*
D03*
X1284224Y569572D02*
D03*
Y587653D02*
D03*
Y578612D02*
D03*
Y560560D02*
D03*
Y551548D02*
D03*
X1299972Y569572D02*
D03*
X1268476D02*
D03*
X1292098D02*
D03*
X1276350D02*
D03*
X1223772D02*
D03*
Y587653D02*
D03*
Y578612D02*
D03*
Y560560D02*
D03*
Y551548D02*
D03*
X1239520Y569572D02*
D03*
X1208024D02*
D03*
X1231646D02*
D03*
X1215898D02*
D03*
X1284224Y633372D02*
D03*
Y651453D02*
D03*
Y642412D02*
D03*
Y624360D02*
D03*
Y615348D02*
D03*
X1299972Y633372D02*
D03*
X1268476D02*
D03*
X1292098D02*
D03*
X1276350D02*
D03*
X1215898D02*
D03*
X1231646D02*
D03*
X1208024D02*
D03*
X1239520D02*
D03*
X1223772Y615348D02*
D03*
Y624360D02*
D03*
Y642412D02*
D03*
Y651453D02*
D03*
Y633372D02*
D03*
X1301496Y545084D02*
D03*
X1292923D02*
D03*
X1275779D02*
D03*
X1267206D02*
D03*
D147*
X1048720Y65245D02*
D03*
X321510Y247904D02*
D03*
X321564Y280416D02*
D03*
X347218Y254000D02*
D03*
X388112Y103378D02*
D03*
X345948Y207772D02*
D03*
X329184D02*
D03*
X501904Y505206D02*
D03*
X390524D02*
D03*
X505714Y536448D02*
D03*
X456692D02*
D03*
X347980Y536702D02*
D03*
X672084Y554736D02*
D03*
X682752Y548640D02*
D03*
X672084Y541782D02*
D03*
X603758Y525272D02*
D03*
X594614Y533400D02*
D03*
X603758Y541274D02*
D03*
X696722Y509016D02*
D03*
X615442Y498348D02*
D03*
X926592Y99314D02*
D03*
X547116Y343154D02*
D03*
X437896Y342900D02*
D03*
X718312Y281432D02*
D03*
X655828Y266700D02*
D03*
Y253238D02*
D03*
X735330Y281432D02*
D03*
X289662Y544105D02*
D03*
X245720Y544164D02*
D03*
X201524Y544139D02*
D03*
X157582D02*
D03*
X989330Y153416D02*
D03*
Y164677D02*
D03*
Y175937D02*
D03*
Y187198D02*
D03*
X964617Y208272D02*
D03*
X819765Y373994D02*
D03*
X862838Y162814D02*
D03*
X876046D02*
D03*
X889254D02*
D03*
X902462D02*
D03*
X180848Y231394D02*
D03*
X211074Y290068D02*
D03*
X648208Y67310D02*
D03*
X621792D02*
D03*
X635000D02*
D03*
X892810Y187198D02*
D03*
X465328Y317754D02*
D03*
X356870Y317500D02*
D03*
X512572Y383286D02*
D03*
X487039Y383089D02*
D03*
X400812Y382270D02*
D03*
X375158D02*
D03*
X958850Y153162D02*
D03*
Y164084D02*
D03*
Y175260D02*
D03*
X750316Y101854D02*
D03*
X589788Y103124D02*
D03*
X433578Y231140D02*
D03*
X388112Y204724D02*
D03*
Y217424D02*
D03*
X280552Y223997D02*
D03*
X389636Y242824D02*
D03*
X363728Y208788D02*
D03*
X270764Y369062D02*
D03*
X388112Y192024D02*
D03*
X226822Y369062D02*
D03*
X388112Y179324D02*
D03*
X182626Y368808D02*
D03*
X388112Y166624D02*
D03*
X138684Y369062D02*
D03*
X388112Y141224D02*
D03*
X591820Y153670D02*
D03*
Y141224D02*
D03*
X805434Y327406D02*
D03*
Y340106D02*
D03*
X374904Y336550D02*
D03*
X424180Y323850D02*
D03*
X591820Y128524D02*
D03*
X484124Y336804D02*
D03*
X591755Y115750D02*
D03*
X533400Y309372D02*
D03*
X538226Y506730D02*
D03*
X426212D02*
D03*
X397002Y536448D02*
D03*
X707136Y619760D02*
D03*
X1126998D02*
D03*
X1057148D02*
D03*
X987298D02*
D03*
X917194D02*
D03*
X847344D02*
D03*
X777240D02*
D03*
X637286D02*
D03*
D148*
X827278Y539750D02*
D03*
X846074Y539242D02*
D03*
X846328Y521970D02*
D03*
X846836Y503682D02*
D03*
X795528Y539750D02*
D03*
X766064Y541528D02*
D03*
X765048Y523494D02*
D03*
X764286Y505206D02*
D03*
M02*
