G04*
G04 #@! TF.GenerationSoftware,Altium Limited,Altium Designer,23.1.1 (15)*
G04*
G04 Layer_Physical_Order=3*
G04 Layer_Color=16440176*
%FSLAX44Y44*%
%MOMM*%
G71*
G04*
G04 #@! TF.SameCoordinates,834500F6-C2E4-4EAC-996A-B368302F4D9C*
G04*
G04*
G04 #@! TF.FilePolarity,Positive*
G04*
G01*
G75*
%ADD121C,0.5080*%
%ADD128C,1.5080*%
%ADD130C,1.7250*%
%ADD132R,1.3500X1.3500*%
%ADD135C,2.4750*%
%ADD138C,1.5000*%
%ADD140C,0.3000*%
%ADD141R,2.4750X2.4750*%
%ADD143C,1.8000*%
%ADD144R,1.8000X1.8000*%
%ADD145C,2.1000*%
%ADD146C,0.6000*%
%ADD147C,0.7620*%
G36*
X1186434Y694436D02*
X1186688Y694182D01*
X1162812Y670306D01*
Y536194D01*
X1104646D01*
X1079246Y510794D01*
Y467360D01*
X118618D01*
X83058Y431800D01*
Y348234D01*
X103632Y327660D01*
Y249682D01*
X92964Y239014D01*
X3810D01*
Y737870D01*
X1186434D01*
Y694436D01*
D02*
G37*
G36*
X1079500Y208534D02*
X1136904Y151130D01*
X1398270D01*
Y3810D01*
X581540D01*
Y65750D01*
X581343Y66741D01*
X580781Y67581D01*
X579941Y68143D01*
X578950Y68340D01*
X398950D01*
X397959Y68143D01*
X397119Y67581D01*
X396557Y66741D01*
X396360Y65750D01*
Y3810D01*
X3810D01*
Y201422D01*
X112268D01*
X145288Y234442D01*
Y334264D01*
X118364Y361188D01*
Y415798D01*
X128778Y426212D01*
X1079500D01*
Y208534D01*
D02*
G37*
%LPC*%
G36*
X28289Y718012D02*
X24855D01*
X21539Y717123D01*
X18565Y715407D01*
X16137Y712979D01*
X14421Y710005D01*
X13532Y706689D01*
Y703255D01*
X14421Y699939D01*
X16137Y696965D01*
X18565Y694537D01*
X21539Y692821D01*
X24855Y691932D01*
X28289D01*
X31605Y692821D01*
X34579Y694537D01*
X37007Y696965D01*
X38723Y699939D01*
X39612Y703255D01*
Y706689D01*
X38723Y710005D01*
X37007Y712979D01*
X34579Y715407D01*
X31605Y717123D01*
X28289Y718012D01*
D02*
G37*
G36*
X1128261Y626110D02*
X1125735D01*
X1123401Y625143D01*
X1121615Y623357D01*
X1120648Y621023D01*
Y618497D01*
X1121615Y616163D01*
X1123401Y614377D01*
X1125735Y613410D01*
X1128261D01*
X1130595Y614377D01*
X1132381Y616163D01*
X1133348Y618497D01*
Y621023D01*
X1132381Y623357D01*
X1130595Y625143D01*
X1128261Y626110D01*
D02*
G37*
G36*
X1058411D02*
X1055885D01*
X1053551Y625143D01*
X1051765Y623357D01*
X1050798Y621023D01*
Y618497D01*
X1051765Y616163D01*
X1053551Y614377D01*
X1055885Y613410D01*
X1058411D01*
X1060745Y614377D01*
X1062531Y616163D01*
X1063498Y618497D01*
Y621023D01*
X1062531Y623357D01*
X1060745Y625143D01*
X1058411Y626110D01*
D02*
G37*
G36*
X918457D02*
X915931D01*
X913597Y625143D01*
X911811Y623357D01*
X910844Y621023D01*
Y618497D01*
X911811Y616163D01*
X913597Y614377D01*
X915931Y613410D01*
X918457D01*
X920791Y614377D01*
X922577Y616163D01*
X923544Y618497D01*
Y621023D01*
X922577Y623357D01*
X920791Y625143D01*
X918457Y626110D01*
D02*
G37*
G36*
X848607D02*
X846081D01*
X843747Y625143D01*
X841961Y623357D01*
X840994Y621023D01*
Y618497D01*
X841961Y616163D01*
X843747Y614377D01*
X846081Y613410D01*
X848607D01*
X850941Y614377D01*
X852727Y616163D01*
X853694Y618497D01*
Y621023D01*
X852727Y623357D01*
X850941Y625143D01*
X848607Y626110D01*
D02*
G37*
G36*
X778503D02*
X775977D01*
X773643Y625143D01*
X771857Y623357D01*
X770890Y621023D01*
Y618497D01*
X771857Y616163D01*
X773643Y614377D01*
X775977Y613410D01*
X778503D01*
X780837Y614377D01*
X782623Y616163D01*
X783590Y618497D01*
Y621023D01*
X782623Y623357D01*
X780837Y625143D01*
X778503Y626110D01*
D02*
G37*
G36*
X638549D02*
X636023D01*
X633689Y625143D01*
X631903Y623357D01*
X630936Y621023D01*
Y618497D01*
X631903Y616163D01*
X633689Y614377D01*
X636023Y613410D01*
X638549D01*
X640883Y614377D01*
X642669Y616163D01*
X643636Y618497D01*
Y621023D01*
X642669Y623357D01*
X640883Y625143D01*
X638549Y626110D01*
D02*
G37*
G36*
X796698Y548640D02*
X794358D01*
X792097Y548034D01*
X790069Y546864D01*
X788414Y545209D01*
X787244Y543181D01*
X786638Y540920D01*
Y538580D01*
X787244Y536319D01*
X788414Y534291D01*
X790069Y532636D01*
X792097Y531466D01*
X794358Y530860D01*
X796698D01*
X798959Y531466D01*
X800987Y532636D01*
X802642Y534291D01*
X803812Y536319D01*
X804418Y538580D01*
Y540920D01*
X803812Y543181D01*
X802642Y545209D01*
X800987Y546864D01*
X798959Y548034D01*
X796698Y548640D01*
D02*
G37*
G36*
X52539Y622758D02*
X47029D01*
X41588Y621896D01*
X36349Y620194D01*
X31440Y617693D01*
X26983Y614454D01*
X23087Y610559D01*
X19849Y606102D01*
X17348Y601193D01*
X15646Y595954D01*
X14784Y590513D01*
Y587758D01*
X14784Y537758D01*
X14784Y535003D01*
X15646Y529562D01*
X17348Y524323D01*
X19849Y519414D01*
X23087Y514957D01*
X26983Y511062D01*
X31440Y507823D01*
X36349Y505322D01*
X41588Y503620D01*
X47029Y502758D01*
X52539D01*
X57980Y503620D01*
X63219Y505322D01*
X68128Y507823D01*
X72585Y511062D01*
X76480Y514957D01*
X79719Y519414D01*
X82220Y524323D01*
X83922Y529562D01*
X84784Y535003D01*
Y537758D01*
X84784Y587758D01*
Y590513D01*
X83922Y595954D01*
X82220Y601193D01*
X79719Y606102D01*
X76480Y610559D01*
X72585Y614454D01*
X68128Y617693D01*
X63219Y620194D01*
X57980Y621896D01*
X52539Y622758D01*
D02*
G37*
G36*
X697985Y515366D02*
X695459D01*
X693125Y514399D01*
X691339Y512613D01*
X690372Y510279D01*
Y507753D01*
X691339Y505419D01*
X693125Y503633D01*
X695459Y502666D01*
X697985D01*
X700319Y503633D01*
X702105Y505419D01*
X703072Y507753D01*
Y510279D01*
X702105Y512613D01*
X700319Y514399D01*
X697985Y515366D01*
D02*
G37*
G36*
X539489Y513080D02*
X536963D01*
X534629Y512113D01*
X532843Y510327D01*
X531876Y507993D01*
Y505467D01*
X532843Y503133D01*
X534629Y501347D01*
X536963Y500380D01*
X539489D01*
X541823Y501347D01*
X543609Y503133D01*
X544576Y505467D01*
Y507993D01*
X543609Y510327D01*
X541823Y512113D01*
X539489Y513080D01*
D02*
G37*
G36*
X603504Y555548D02*
X154432D01*
X153441Y555351D01*
X152601Y554789D01*
X148537Y550725D01*
X147975Y549885D01*
X147778Y548894D01*
Y532638D01*
X147975Y531647D01*
X148537Y530807D01*
X152093Y527251D01*
X152933Y526689D01*
X153924Y526492D01*
X373069D01*
X377648Y521913D01*
Y505968D01*
X377845Y504977D01*
X378407Y504137D01*
X385011Y497533D01*
X385851Y496971D01*
X386842Y496774D01*
X424083D01*
X424333Y496824D01*
X424588D01*
X424824Y496922D01*
X425074Y496971D01*
X425286Y497113D01*
X425522Y497211D01*
X425532Y497214D01*
X426892D01*
X426902Y497211D01*
X427138Y497113D01*
X427350Y496971D01*
X427600Y496922D01*
X427836Y496824D01*
X428091D01*
X428341Y496774D01*
X504952D01*
X505943Y496971D01*
X506783Y497533D01*
X510339Y501089D01*
X510901Y501929D01*
X511098Y502920D01*
Y514293D01*
X513137Y516332D01*
X608076Y516332D01*
X609067Y516529D01*
X609907Y517091D01*
X611939Y519123D01*
X612501Y519963D01*
X612698Y520954D01*
Y546354D01*
X612501Y547345D01*
X611939Y548185D01*
X605335Y554789D01*
X604495Y555351D01*
X603504Y555548D01*
D02*
G37*
G36*
X767234Y550418D02*
X764894D01*
X762633Y549812D01*
X760605Y548642D01*
X758950Y546987D01*
X757780Y544959D01*
X757174Y542698D01*
Y540358D01*
X757780Y538097D01*
X758950Y536069D01*
X760605Y534414D01*
X762489Y533327D01*
X762556Y532821D01*
X762406Y531990D01*
X761617Y531778D01*
X759589Y530608D01*
X757934Y528953D01*
X756764Y526925D01*
X756158Y524664D01*
Y522324D01*
X756764Y520063D01*
X757934Y518035D01*
X759589Y516380D01*
X761617Y515210D01*
X761991Y515109D01*
Y513795D01*
X760855Y513490D01*
X758827Y512320D01*
X757172Y510665D01*
X756002Y508637D01*
X755396Y506376D01*
Y504036D01*
X756002Y501775D01*
X757172Y499747D01*
X758827Y498092D01*
X760855Y496922D01*
X763116Y496316D01*
X765456D01*
X767717Y496922D01*
X769745Y498092D01*
X771400Y499747D01*
X772570Y501775D01*
X773176Y504036D01*
Y506376D01*
X772570Y508637D01*
X771400Y510665D01*
X769745Y512320D01*
X767717Y513490D01*
X767343Y513591D01*
Y514905D01*
X768479Y515210D01*
X770507Y516380D01*
X772162Y518035D01*
X773332Y520063D01*
X773938Y522324D01*
Y524664D01*
X773332Y526925D01*
X772162Y528953D01*
X770507Y530608D01*
X768623Y531695D01*
X768556Y532201D01*
X768706Y533032D01*
X769495Y533244D01*
X771523Y534414D01*
X773178Y536069D01*
X774348Y538097D01*
X774954Y540358D01*
Y542698D01*
X774348Y544959D01*
X773178Y546987D01*
X771523Y548642D01*
X769495Y549812D01*
X767234Y550418D01*
D02*
G37*
G36*
X828448Y548640D02*
X826108D01*
X823847Y548034D01*
X821819Y546864D01*
X820164Y545209D01*
X818994Y543181D01*
X818388Y540920D01*
Y538580D01*
X818994Y536319D01*
X820164Y534291D01*
X821819Y532636D01*
X823847Y531466D01*
X826108Y530860D01*
X828448D01*
X830709Y531466D01*
X832737Y532636D01*
X834392Y534291D01*
X835562Y536319D01*
X835970Y537842D01*
X837265Y537768D01*
X837790Y535811D01*
X838960Y533783D01*
X840615Y532128D01*
X842109Y531266D01*
X842173Y529836D01*
X840869Y529084D01*
X839214Y527429D01*
X838044Y525401D01*
X837438Y523140D01*
Y520800D01*
X838044Y518539D01*
X839214Y516511D01*
X840869Y514856D01*
X842897Y513686D01*
X843906Y513415D01*
Y512100D01*
X843405Y511966D01*
X841377Y510796D01*
X839722Y509141D01*
X838552Y507113D01*
X837946Y504852D01*
Y502512D01*
X838552Y500251D01*
X839722Y498223D01*
X841377Y496568D01*
X843405Y495398D01*
X845666Y494792D01*
X848006D01*
X850267Y495398D01*
X852295Y496568D01*
X853950Y498223D01*
X855120Y500251D01*
X855726Y502512D01*
Y504852D01*
X855120Y507113D01*
X853950Y509141D01*
X852295Y510796D01*
X850267Y511966D01*
X849258Y512237D01*
Y513551D01*
X849759Y513686D01*
X851787Y514856D01*
X853442Y516511D01*
X854612Y518539D01*
X855218Y520800D01*
Y523140D01*
X854612Y525401D01*
X853442Y527429D01*
X851787Y529084D01*
X850293Y529946D01*
X850229Y531376D01*
X851533Y532128D01*
X853188Y533783D01*
X854358Y535811D01*
X854964Y538072D01*
Y540412D01*
X854358Y542673D01*
X853188Y544701D01*
X851533Y546356D01*
X849505Y547526D01*
X847244Y548132D01*
X844904D01*
X842643Y547526D01*
X840615Y546356D01*
X838960Y544701D01*
X837790Y542673D01*
X837382Y541150D01*
X836087Y541224D01*
X835562Y543181D01*
X834392Y545209D01*
X832737Y546864D01*
X830709Y548034D01*
X828448Y548640D01*
D02*
G37*
G36*
X616705Y504698D02*
X614179D01*
X611845Y503731D01*
X610059Y501945D01*
X609092Y499611D01*
Y497085D01*
X610059Y494751D01*
X611845Y492965D01*
X614179Y491998D01*
X616705D01*
X619039Y492965D01*
X620825Y494751D01*
X621792Y497085D01*
Y499611D01*
X620825Y501945D01*
X619039Y503731D01*
X616705Y504698D01*
D02*
G37*
G36*
X1172210Y724712D02*
X55372D01*
X54381Y724515D01*
X53541Y723953D01*
X47953Y718365D01*
X47391Y717525D01*
X47194Y716534D01*
Y694182D01*
X47391Y693191D01*
X47953Y692351D01*
X92914Y647389D01*
Y517455D01*
X37539Y462079D01*
X36977Y461239D01*
X36780Y460248D01*
Y401631D01*
X26109Y390959D01*
X25547Y390119D01*
X25350Y389128D01*
Y358902D01*
X25547Y357911D01*
X26109Y357071D01*
X26949Y356509D01*
X27940Y356312D01*
X55118D01*
X56109Y356509D01*
X56949Y357071D01*
X80571Y380693D01*
X81133Y381533D01*
X81330Y382524D01*
Y433267D01*
X137975Y489913D01*
X138537Y490753D01*
X138734Y491744D01*
X138734Y618941D01*
X158807Y639014D01*
X658023D01*
X662128Y634723D01*
Y538480D01*
X662325Y537489D01*
X662887Y536649D01*
X666189Y533347D01*
X667029Y532785D01*
X668020Y532588D01*
X693928D01*
X694919Y532785D01*
X695759Y533347D01*
X700331Y537919D01*
X700893Y538759D01*
X701090Y539750D01*
Y615030D01*
X702360Y615556D01*
X703539Y614377D01*
X705873Y613410D01*
X708399D01*
X710733Y614377D01*
X712519Y616163D01*
X713486Y618497D01*
Y621023D01*
X712519Y623357D01*
X710733Y625143D01*
X708399Y626110D01*
X705873D01*
X703539Y625143D01*
X702360Y623964D01*
X701090Y624490D01*
Y627831D01*
X712273Y639014D01*
X934267D01*
X955498Y617602D01*
Y507238D01*
X955695Y506247D01*
X956257Y505407D01*
X970481Y491183D01*
X971321Y490621D01*
X972312Y490424D01*
X1037590D01*
X1038581Y490621D01*
X1039421Y491183D01*
X1039983Y492023D01*
X1040180Y493014D01*
Y617163D01*
X1062031Y639014D01*
X1121918D01*
X1122909Y639211D01*
X1123749Y639773D01*
X1174041Y690065D01*
X1174603Y690905D01*
X1174800Y691896D01*
Y722122D01*
X1174603Y723113D01*
X1174041Y723953D01*
X1173201Y724515D01*
X1172210Y724712D01*
D02*
G37*
G36*
X38077Y327780D02*
X35423D01*
X32859Y327093D01*
X30561Y325766D01*
X28684Y323889D01*
X27357Y321591D01*
X26670Y319027D01*
Y316373D01*
X27357Y313809D01*
X28684Y311511D01*
X30561Y309634D01*
X32859Y308307D01*
X35423Y307620D01*
X38077D01*
X40641Y308307D01*
X42939Y309634D01*
X44816Y311511D01*
X46143Y313809D01*
X46830Y316373D01*
Y319027D01*
X46143Y321591D01*
X44816Y323889D01*
X42939Y325766D01*
X40641Y327093D01*
X38077Y327780D01*
D02*
G37*
G36*
Y302780D02*
X35423D01*
X32859Y302093D01*
X30561Y300766D01*
X28684Y298889D01*
X27357Y296591D01*
X26670Y294027D01*
Y291373D01*
X27357Y288809D01*
X28684Y286511D01*
X30561Y284634D01*
X32859Y283307D01*
X35423Y282620D01*
X38077D01*
X40641Y283307D01*
X42939Y284634D01*
X44816Y286511D01*
X46143Y288809D01*
X46830Y291373D01*
Y294027D01*
X46143Y296591D01*
X44816Y298889D01*
X42939Y300766D01*
X40641Y302093D01*
X38077Y302780D01*
D02*
G37*
%LPD*%
G36*
X610108Y546354D02*
Y520954D01*
X608076Y518922D01*
X512064Y518922D01*
X508508Y515366D01*
Y502920D01*
X504952Y499364D01*
X428341D01*
X428088Y500634D01*
X429809Y501347D01*
X431595Y503133D01*
X432562Y505467D01*
Y507993D01*
X431595Y510327D01*
X429809Y512113D01*
X427475Y513080D01*
X424949D01*
X422615Y512113D01*
X420829Y510327D01*
X419862Y507993D01*
Y505467D01*
X420829Y503133D01*
X422615Y501347D01*
X424336Y500634D01*
X424083Y499364D01*
X386842D01*
X380238Y505968D01*
Y522986D01*
X374142Y529082D01*
X153924D01*
X150368Y532638D01*
Y548894D01*
X154432Y552958D01*
X603504D01*
X610108Y546354D01*
D02*
G37*
%LPC*%
G36*
X506977Y542798D02*
X504451D01*
X502117Y541831D01*
X500331Y540045D01*
X499364Y537711D01*
Y535185D01*
X500331Y532851D01*
X502117Y531065D01*
X504451Y530098D01*
X506977D01*
X509311Y531065D01*
X511097Y532851D01*
X512064Y535185D01*
Y537711D01*
X511097Y540045D01*
X509311Y541831D01*
X506977Y542798D01*
D02*
G37*
G36*
X398265D02*
X395739D01*
X393405Y541831D01*
X391619Y540045D01*
X390652Y537711D01*
Y535185D01*
X391619Y532851D01*
X393405Y531065D01*
X395739Y530098D01*
X398265D01*
X400599Y531065D01*
X402385Y532851D01*
X403352Y535185D01*
Y537711D01*
X402385Y540045D01*
X400599Y541831D01*
X398265Y542798D01*
D02*
G37*
%LPD*%
G36*
X1172210Y691896D02*
X1121918Y641604D01*
X1060958D01*
X1037590Y618236D01*
Y493014D01*
X972312D01*
X958088Y507238D01*
Y618668D01*
X935346Y641604D01*
X711200D01*
X698500Y628904D01*
Y539750D01*
X693928Y535178D01*
X668020D01*
X664718Y538480D01*
Y635762D01*
X659130Y641604D01*
X157734D01*
X136144Y620014D01*
X136144Y491744D01*
X78740Y434340D01*
Y382524D01*
X55118Y358902D01*
X27940D01*
Y389128D01*
X39370Y400558D01*
Y460248D01*
X95504Y516382D01*
Y648462D01*
X49784Y694182D01*
Y716534D01*
X55372Y722122D01*
X1172210D01*
Y691896D01*
D02*
G37*
%LPC*%
G36*
X1128569Y717660D02*
X1125531D01*
X1122596Y716873D01*
X1119964Y715354D01*
X1117816Y713206D01*
X1116296Y710574D01*
X1115510Y707639D01*
Y704601D01*
X1116296Y701666D01*
X1117816Y699034D01*
X1119964Y696886D01*
X1122596Y695367D01*
X1125531Y694580D01*
X1128569D01*
X1131504Y695367D01*
X1134136Y696886D01*
X1136284Y699034D01*
X1137803Y701666D01*
X1138590Y704601D01*
Y707639D01*
X1137803Y710574D01*
X1136284Y713206D01*
X1134136Y715354D01*
X1131504Y716873D01*
X1128569Y717660D01*
D02*
G37*
G36*
X1058569D02*
X1055531D01*
X1052596Y716873D01*
X1049964Y715354D01*
X1047816Y713206D01*
X1046296Y710574D01*
X1045510Y707639D01*
Y704601D01*
X1046296Y701666D01*
X1047816Y699034D01*
X1049964Y696886D01*
X1052596Y695367D01*
X1055531Y694580D01*
X1058569D01*
X1061504Y695367D01*
X1064136Y696886D01*
X1066284Y699034D01*
X1067804Y701666D01*
X1068590Y704601D01*
Y707639D01*
X1067804Y710574D01*
X1066284Y713206D01*
X1064136Y715354D01*
X1061504Y716873D01*
X1058569Y717660D01*
D02*
G37*
G36*
X988569D02*
X985531D01*
X982596Y716873D01*
X979964Y715354D01*
X977816Y713206D01*
X976296Y710574D01*
X975510Y707639D01*
Y704601D01*
X976296Y701666D01*
X977816Y699034D01*
X979964Y696886D01*
X982596Y695367D01*
X985531Y694580D01*
X988569D01*
X991504Y695367D01*
X994136Y696886D01*
X996284Y699034D01*
X997803Y701666D01*
X998590Y704601D01*
Y707639D01*
X997803Y710574D01*
X996284Y713206D01*
X994136Y715354D01*
X991504Y716873D01*
X988569Y717660D01*
D02*
G37*
G36*
X918569D02*
X915531D01*
X912596Y716873D01*
X909964Y715354D01*
X907816Y713206D01*
X906296Y710574D01*
X905510Y707639D01*
Y704601D01*
X906296Y701666D01*
X907816Y699034D01*
X909964Y696886D01*
X912596Y695367D01*
X915531Y694580D01*
X918569D01*
X921504Y695367D01*
X924136Y696886D01*
X926284Y699034D01*
X927804Y701666D01*
X928590Y704601D01*
Y707639D01*
X927804Y710574D01*
X926284Y713206D01*
X924136Y715354D01*
X921504Y716873D01*
X918569Y717660D01*
D02*
G37*
G36*
X848569D02*
X845531D01*
X842596Y716873D01*
X839964Y715354D01*
X837816Y713206D01*
X836296Y710574D01*
X835510Y707639D01*
Y704601D01*
X836296Y701666D01*
X837816Y699034D01*
X839964Y696886D01*
X842596Y695367D01*
X845531Y694580D01*
X848569D01*
X851504Y695367D01*
X854136Y696886D01*
X856284Y699034D01*
X857803Y701666D01*
X858590Y704601D01*
Y707639D01*
X857803Y710574D01*
X856284Y713206D01*
X854136Y715354D01*
X851504Y716873D01*
X848569Y717660D01*
D02*
G37*
G36*
X778569D02*
X775531D01*
X772596Y716873D01*
X769964Y715354D01*
X767816Y713206D01*
X766296Y710574D01*
X765510Y707639D01*
Y704601D01*
X766296Y701666D01*
X767816Y699034D01*
X769964Y696886D01*
X772596Y695367D01*
X775531Y694580D01*
X778569D01*
X781504Y695367D01*
X784136Y696886D01*
X786284Y699034D01*
X787804Y701666D01*
X788590Y704601D01*
Y707639D01*
X787804Y710574D01*
X786284Y713206D01*
X784136Y715354D01*
X781504Y716873D01*
X778569Y717660D01*
D02*
G37*
G36*
X708569D02*
X705531D01*
X702596Y716873D01*
X699964Y715354D01*
X697816Y713206D01*
X696296Y710574D01*
X695510Y707639D01*
Y704601D01*
X696296Y701666D01*
X697816Y699034D01*
X699964Y696886D01*
X702596Y695367D01*
X705531Y694580D01*
X708569D01*
X711504Y695367D01*
X714136Y696886D01*
X716284Y699034D01*
X717803Y701666D01*
X718590Y704601D01*
Y707639D01*
X717803Y710574D01*
X716284Y713206D01*
X714136Y715354D01*
X711504Y716873D01*
X708569Y717660D01*
D02*
G37*
G36*
X638569D02*
X635531D01*
X632596Y716873D01*
X629964Y715354D01*
X627816Y713206D01*
X626297Y710574D01*
X625510Y707639D01*
Y704601D01*
X626297Y701666D01*
X627816Y699034D01*
X629964Y696886D01*
X632596Y695367D01*
X635531Y694580D01*
X638569D01*
X641504Y695367D01*
X644136Y696886D01*
X646284Y699034D01*
X647804Y701666D01*
X648590Y704601D01*
Y707639D01*
X647804Y710574D01*
X646284Y713206D01*
X644136Y715354D01*
X641504Y716873D01*
X638569Y717660D01*
D02*
G37*
G36*
X543975Y718012D02*
X540541D01*
X537225Y717123D01*
X534251Y715407D01*
X531823Y712979D01*
X530107Y710005D01*
X529218Y706689D01*
Y703255D01*
X530107Y699939D01*
X531823Y696965D01*
X534251Y694537D01*
X537225Y692821D01*
X540541Y691932D01*
X543975D01*
X547291Y692821D01*
X550265Y694537D01*
X552693Y696965D01*
X554409Y699939D01*
X555298Y703255D01*
Y706689D01*
X554409Y710005D01*
X552693Y712979D01*
X550265Y715407D01*
X547291Y717123D01*
X543975Y718012D01*
D02*
G37*
G36*
X473975D02*
X470541D01*
X467225Y717123D01*
X464251Y715407D01*
X461823Y712979D01*
X460107Y710005D01*
X459218Y706689D01*
Y703255D01*
X460107Y699939D01*
X461823Y696965D01*
X464251Y694537D01*
X467225Y692821D01*
X470541Y691932D01*
X473975D01*
X477291Y692821D01*
X480265Y694537D01*
X482693Y696965D01*
X484409Y699939D01*
X485298Y703255D01*
Y706689D01*
X484409Y710005D01*
X482693Y712979D01*
X480265Y715407D01*
X477291Y717123D01*
X473975Y718012D01*
D02*
G37*
G36*
X403975D02*
X400541D01*
X397225Y717123D01*
X394251Y715407D01*
X391823Y712979D01*
X390107Y710005D01*
X389218Y706689D01*
Y703255D01*
X390107Y699939D01*
X391823Y696965D01*
X394251Y694537D01*
X397225Y692821D01*
X400541Y691932D01*
X403975D01*
X407291Y692821D01*
X410265Y694537D01*
X412693Y696965D01*
X414409Y699939D01*
X415298Y703255D01*
Y706689D01*
X414409Y710005D01*
X412693Y712979D01*
X410265Y715407D01*
X407291Y717123D01*
X403975Y718012D01*
D02*
G37*
G36*
X333975D02*
X330541D01*
X327225Y717123D01*
X324251Y715407D01*
X321823Y712979D01*
X320107Y710005D01*
X319218Y706689D01*
Y703255D01*
X320107Y699939D01*
X321823Y696965D01*
X324251Y694537D01*
X327225Y692821D01*
X330541Y691932D01*
X333975D01*
X337291Y692821D01*
X340265Y694537D01*
X342693Y696965D01*
X344409Y699939D01*
X345298Y703255D01*
Y706689D01*
X344409Y710005D01*
X342693Y712979D01*
X340265Y715407D01*
X337291Y717123D01*
X333975Y718012D01*
D02*
G37*
G36*
X238289D02*
X234855D01*
X231539Y717123D01*
X228565Y715407D01*
X226137Y712979D01*
X224421Y710005D01*
X223532Y706689D01*
Y703255D01*
X224421Y699939D01*
X226137Y696965D01*
X228565Y694537D01*
X231539Y692821D01*
X234855Y691932D01*
X238289D01*
X241605Y692821D01*
X244579Y694537D01*
X247007Y696965D01*
X248723Y699939D01*
X249612Y703255D01*
Y706689D01*
X248723Y710005D01*
X247007Y712979D01*
X244579Y715407D01*
X241605Y717123D01*
X238289Y718012D01*
D02*
G37*
G36*
X168289D02*
X164855D01*
X161539Y717123D01*
X158565Y715407D01*
X156137Y712979D01*
X154421Y710005D01*
X153532Y706689D01*
Y703255D01*
X154421Y699939D01*
X156137Y696965D01*
X158565Y694537D01*
X161539Y692821D01*
X164855Y691932D01*
X168289D01*
X171605Y692821D01*
X174579Y694537D01*
X177007Y696965D01*
X178723Y699939D01*
X179612Y703255D01*
Y706689D01*
X178723Y710005D01*
X177007Y712979D01*
X174579Y715407D01*
X171605Y717123D01*
X168289Y718012D01*
D02*
G37*
G36*
X98289D02*
X94855D01*
X91539Y717123D01*
X88565Y715407D01*
X86137Y712979D01*
X84421Y710005D01*
X83532Y706689D01*
Y703255D01*
X84421Y699939D01*
X86137Y696965D01*
X88565Y694537D01*
X91539Y692821D01*
X94855Y691932D01*
X98289D01*
X101605Y692821D01*
X104579Y694537D01*
X107007Y696965D01*
X108723Y699939D01*
X109612Y703255D01*
Y706689D01*
X108723Y710005D01*
X107007Y712979D01*
X104579Y715407D01*
X101605Y717123D01*
X98289Y718012D01*
D02*
G37*
G36*
X988561Y626110D02*
X986035D01*
X983701Y625143D01*
X981915Y623357D01*
X980948Y621023D01*
Y618497D01*
X981915Y616163D01*
X983701Y614377D01*
X986035Y613410D01*
X988561D01*
X990895Y614377D01*
X992681Y616163D01*
X993648Y618497D01*
Y621023D01*
X992681Y623357D01*
X990895Y625143D01*
X988561Y626110D01*
D02*
G37*
G36*
X272027Y375412D02*
X269501D01*
X267167Y374445D01*
X265381Y372659D01*
X264414Y370325D01*
Y367799D01*
X265381Y365465D01*
X267167Y363679D01*
X269501Y362712D01*
X272027D01*
X274361Y363679D01*
X276147Y365465D01*
X277114Y367799D01*
Y370325D01*
X276147Y372659D01*
X274361Y374445D01*
X272027Y375412D01*
D02*
G37*
G36*
X228085D02*
X225559D01*
X223225Y374445D01*
X221439Y372659D01*
X220472Y370325D01*
Y367799D01*
X221439Y365465D01*
X223225Y363679D01*
X225559Y362712D01*
X228085D01*
X230419Y363679D01*
X232205Y365465D01*
X233172Y367799D01*
Y370325D01*
X232205Y372659D01*
X230419Y374445D01*
X228085Y375412D01*
D02*
G37*
G36*
X139947D02*
X137421D01*
X135087Y374445D01*
X133301Y372659D01*
X132334Y370325D01*
Y367799D01*
X133301Y365465D01*
X135087Y363679D01*
X137421Y362712D01*
X139947D01*
X142281Y363679D01*
X144067Y365465D01*
X145034Y367799D01*
Y370325D01*
X144067Y372659D01*
X142281Y374445D01*
X139947Y375412D01*
D02*
G37*
G36*
X183889Y375158D02*
X181363D01*
X179029Y374191D01*
X177243Y372405D01*
X176276Y370071D01*
Y367545D01*
X177243Y365211D01*
X179029Y363425D01*
X181363Y362458D01*
X183889D01*
X186223Y363425D01*
X188009Y365211D01*
X188976Y367545D01*
Y370071D01*
X188009Y372405D01*
X186223Y374191D01*
X183889Y375158D01*
D02*
G37*
G36*
X548379Y349504D02*
X545853D01*
X543519Y348537D01*
X541733Y346751D01*
X540766Y344417D01*
Y341891D01*
X541733Y339557D01*
X543519Y337771D01*
X545853Y336804D01*
X548379D01*
X550713Y337771D01*
X552499Y339557D01*
X553466Y341891D01*
Y344417D01*
X552499Y346751D01*
X550713Y348537D01*
X548379Y349504D01*
D02*
G37*
G36*
X534663Y315722D02*
X532137D01*
X529803Y314755D01*
X528017Y312969D01*
X527050Y310635D01*
Y308109D01*
X528017Y305775D01*
X529803Y303989D01*
X532137Y303022D01*
X534663D01*
X536997Y303989D01*
X538783Y305775D01*
X539750Y308109D01*
Y310635D01*
X538783Y312969D01*
X536997Y314755D01*
X534663Y315722D01*
D02*
G37*
G36*
X322773Y254254D02*
X320247D01*
X317913Y253287D01*
X316127Y251501D01*
X315160Y249167D01*
Y246641D01*
X316127Y244307D01*
X317913Y242521D01*
X320247Y241554D01*
X322773D01*
X325107Y242521D01*
X326893Y244307D01*
X327860Y246641D01*
Y249167D01*
X326893Y251501D01*
X325107Y253287D01*
X322773Y254254D01*
D02*
G37*
G36*
X390899Y249174D02*
X388373D01*
X386039Y248207D01*
X384253Y246421D01*
X383286Y244087D01*
Y241561D01*
X384253Y239227D01*
X386039Y237441D01*
X388373Y236474D01*
X390899D01*
X393233Y237441D01*
X395019Y239227D01*
X395986Y241561D01*
Y244087D01*
X395019Y246421D01*
X393233Y248207D01*
X390899Y249174D01*
D02*
G37*
G36*
X281815Y230347D02*
X279289D01*
X276955Y229380D01*
X275169Y227594D01*
X274202Y225260D01*
Y222734D01*
X275169Y220400D01*
X276955Y218614D01*
X279289Y217647D01*
X281815D01*
X284149Y218614D01*
X285935Y220400D01*
X286902Y222734D01*
Y225260D01*
X285935Y227594D01*
X284149Y229380D01*
X281815Y230347D01*
D02*
G37*
G36*
X364991Y215138D02*
X362465D01*
X360131Y214171D01*
X358345Y212385D01*
X357378Y210051D01*
Y207525D01*
X358345Y205191D01*
X360131Y203405D01*
X362465Y202438D01*
X364991D01*
X367325Y203405D01*
X369111Y205191D01*
X370078Y207525D01*
Y210051D01*
X369111Y212385D01*
X367325Y214171D01*
X364991Y215138D01*
D02*
G37*
G36*
X389375Y223774D02*
X386849D01*
X384515Y222807D01*
X382729Y221021D01*
X381762Y218687D01*
Y216161D01*
X382729Y213827D01*
X384515Y212041D01*
X385316Y211709D01*
Y210439D01*
X384515Y210107D01*
X382729Y208321D01*
X381762Y205987D01*
Y203461D01*
X382729Y201127D01*
X384515Y199341D01*
X385316Y199009D01*
Y197739D01*
X384515Y197407D01*
X382729Y195621D01*
X381762Y193287D01*
Y190761D01*
X382729Y188427D01*
X384515Y186641D01*
X385316Y186309D01*
Y185039D01*
X384515Y184707D01*
X382729Y182921D01*
X381762Y180587D01*
Y178061D01*
X382729Y175727D01*
X384515Y173941D01*
X385316Y173609D01*
Y172339D01*
X384515Y172007D01*
X382729Y170221D01*
X381762Y167887D01*
Y165361D01*
X382729Y163027D01*
X384515Y161241D01*
X386849Y160274D01*
X389375D01*
X391709Y161241D01*
X393495Y163027D01*
X394462Y165361D01*
Y167887D01*
X393495Y170221D01*
X391709Y172007D01*
X390908Y172339D01*
Y173609D01*
X391709Y173941D01*
X393495Y175727D01*
X394462Y178061D01*
Y180587D01*
X393495Y182921D01*
X391709Y184707D01*
X390908Y185039D01*
Y186309D01*
X391709Y186641D01*
X393495Y188427D01*
X394462Y190761D01*
Y193287D01*
X393495Y195621D01*
X391709Y197407D01*
X390908Y197739D01*
Y199009D01*
X391709Y199341D01*
X393495Y201127D01*
X394462Y203461D01*
Y205987D01*
X393495Y208321D01*
X391709Y210107D01*
X390908Y210439D01*
Y211709D01*
X391709Y212041D01*
X393495Y213827D01*
X394462Y216161D01*
Y218687D01*
X393495Y221021D01*
X391709Y222807D01*
X389375Y223774D01*
D02*
G37*
G36*
X589788Y391210D02*
X368554D01*
X367563Y391013D01*
X366723Y390451D01*
X363167Y386895D01*
X362605Y386055D01*
X362408Y385064D01*
Y334575D01*
X350213Y322379D01*
X349651Y321539D01*
X349454Y320548D01*
Y314202D01*
X349553Y313704D01*
X349651Y313213D01*
X349651Y313212D01*
X349651Y313211D01*
X349942Y312777D01*
X350212Y312372D01*
X350213Y312371D01*
X350213Y312371D01*
X350213Y312371D01*
X352499Y310082D01*
X352500Y310082D01*
X352500Y310081D01*
X352926Y309797D01*
X353339Y309520D01*
X353340Y309520D01*
X353340Y309519D01*
X353829Y309422D01*
X354330Y309322D01*
X354331Y309322D01*
X354332Y309322D01*
X367058D01*
X487934Y309322D01*
X488925Y309519D01*
X489765Y310081D01*
X497893Y318209D01*
X498455Y319049D01*
X498652Y320040D01*
X498652Y348431D01*
X508565Y358344D01*
X577793D01*
X707845Y228293D01*
X708685Y227731D01*
X709676Y227534D01*
X917645D01*
X929082Y216097D01*
Y170180D01*
X929279Y169189D01*
X929841Y168349D01*
X951278Y146911D01*
X950752Y145641D01*
X926959D01*
X912710Y159891D01*
X912983Y160299D01*
X913180Y161290D01*
Y191516D01*
X912983Y192507D01*
X912421Y193347D01*
X910897Y194871D01*
X910057Y195433D01*
X909066Y195630D01*
X698557D01*
X643943Y250243D01*
X609145Y285041D01*
X608305Y285603D01*
X607314Y285800D01*
X328423D01*
X328173Y285750D01*
X327918D01*
X327682Y285652D01*
X327432Y285603D01*
X327220Y285461D01*
X326984Y285363D01*
X326804Y285183D01*
X326592Y285041D01*
X325407Y285554D01*
X325161Y285799D01*
X322827Y286766D01*
X320301D01*
X317967Y285799D01*
X317721Y285554D01*
X316536Y285041D01*
X316324Y285183D01*
X316144Y285363D01*
X315908Y285461D01*
X315696Y285603D01*
X315446Y285652D01*
X315210Y285750D01*
X314955D01*
X314705Y285800D01*
X267095D01*
X267039Y285883D01*
X266765Y286299D01*
X247715Y305603D01*
X247708Y305608D01*
X247703Y305615D01*
X247290Y305892D01*
X246879Y306170D01*
X246870Y306172D01*
X246863Y306177D01*
X246375Y306274D01*
X245889Y306374D01*
X245881Y306372D01*
X245872Y306374D01*
X184912D01*
X183921Y306177D01*
X183081Y305615D01*
X170889Y293423D01*
X170327Y292583D01*
X170130Y291592D01*
X170130Y257810D01*
X170130Y231140D01*
X170327Y230149D01*
X170889Y229309D01*
X175715Y224483D01*
X175715Y224483D01*
X176555Y223921D01*
X177546Y223724D01*
X206191D01*
X210008Y219907D01*
Y15240D01*
X210205Y14249D01*
X210767Y13409D01*
X215339Y8837D01*
X216179Y8275D01*
X217170Y8078D01*
X225044D01*
X226035Y8275D01*
X226875Y8837D01*
X231955Y13917D01*
X232517Y14757D01*
X232714Y15748D01*
Y247085D01*
X247199Y261570D01*
X330651D01*
X337008Y255213D01*
Y235966D01*
X337205Y234975D01*
X337767Y234135D01*
X339545Y232357D01*
X339545Y232357D01*
X340385Y231795D01*
X341376Y231598D01*
X367030D01*
X368021Y231795D01*
X368861Y232357D01*
X371147Y234643D01*
X371709Y235483D01*
X371906Y236474D01*
Y251657D01*
X384613Y264364D01*
X584905D01*
X613360Y235909D01*
Y64770D01*
X613557Y63779D01*
X614119Y62939D01*
X617421Y59637D01*
X618261Y59075D01*
X619252Y58878D01*
X651002D01*
X651993Y59075D01*
X652833Y59637D01*
X655119Y61923D01*
X655681Y62763D01*
X655878Y63754D01*
Y133801D01*
X673919Y151842D01*
X903732D01*
X904723Y152039D01*
X905436Y152515D01*
X921152Y136799D01*
X922832Y135677D01*
X924814Y135282D01*
X967486D01*
X969468Y135677D01*
X971149Y136799D01*
X977752Y143404D01*
X977753Y143404D01*
X978875Y145084D01*
X979106Y146243D01*
X980484Y146662D01*
X980641Y146505D01*
X981481Y145943D01*
X982472Y145746D01*
X1022550D01*
X1147526Y21279D01*
X1147944Y21001D01*
X1148362Y20721D01*
X1148365Y20721D01*
X1148367Y20719D01*
X1148859Y20622D01*
X1149353Y20524D01*
X1175512D01*
X1176503Y20721D01*
X1177343Y21283D01*
X1180137Y24077D01*
X1180699Y24917D01*
X1180896Y25908D01*
Y63754D01*
X1180699Y64745D01*
X1180137Y65585D01*
X1050851Y194871D01*
X1050011Y195433D01*
X1049020Y195630D01*
X981964D01*
X980973Y195433D01*
X980539Y195143D01*
X979269Y195691D01*
Y258572D01*
X978875Y260554D01*
X977753Y262234D01*
X935843Y304144D01*
X934162Y305267D01*
X932180Y305662D01*
X842631D01*
X824945Y323348D01*
Y370194D01*
X825148Y370397D01*
X826115Y372731D01*
Y375258D01*
X825148Y377592D01*
X823362Y379378D01*
X821028Y380345D01*
X818502D01*
X816168Y379378D01*
X814382Y377592D01*
X813415Y375258D01*
Y372731D01*
X814382Y370397D01*
X814585Y370194D01*
Y321203D01*
X814980Y319221D01*
X816103Y317540D01*
X836824Y296819D01*
X838504Y295697D01*
X840486Y295303D01*
X930035D01*
X968911Y256427D01*
Y214618D01*
X967641Y213893D01*
X965880Y214622D01*
X963354D01*
X961020Y213656D01*
X959233Y211869D01*
X958267Y209536D01*
Y207009D01*
X959233Y204675D01*
X961020Y202889D01*
X963354Y201922D01*
X965880D01*
X967641Y202652D01*
X968911Y201926D01*
Y149211D01*
X966012Y146313D01*
X965658Y146384D01*
X965240Y147762D01*
X966777Y149299D01*
X967339Y150139D01*
X967536Y151130D01*
Y179324D01*
X967339Y180315D01*
X966777Y181155D01*
X956106Y191827D01*
Y227838D01*
X955909Y228829D01*
X955347Y229669D01*
X929439Y255577D01*
X928599Y256139D01*
X927608Y256336D01*
X725735D01*
X591619Y390451D01*
X590779Y391013D01*
X589788Y391210D01*
D02*
G37*
G36*
X389375Y147574D02*
X386849D01*
X384515Y146607D01*
X382729Y144821D01*
X381762Y142487D01*
Y139961D01*
X382729Y137627D01*
X384515Y135841D01*
X386849Y134874D01*
X389375D01*
X391709Y135841D01*
X393495Y137627D01*
X394462Y139961D01*
Y142487D01*
X393495Y144821D01*
X391709Y146607D01*
X389375Y147574D01*
D02*
G37*
G36*
Y109728D02*
X386849D01*
X384515Y108761D01*
X382729Y106975D01*
X381762Y104641D01*
Y102115D01*
X382729Y99781D01*
X384515Y97995D01*
X386849Y97028D01*
X389375D01*
X391709Y97995D01*
X393495Y99781D01*
X394462Y102115D01*
Y104641D01*
X393495Y106975D01*
X391709Y108761D01*
X389375Y109728D01*
D02*
G37*
G36*
X593083Y160020D02*
X590557D01*
X588223Y159053D01*
X586437Y157267D01*
X585470Y154933D01*
Y152407D01*
X586437Y150073D01*
X588223Y148287D01*
X588717Y148082D01*
Y146812D01*
X588223Y146607D01*
X586437Y144821D01*
X585470Y142487D01*
Y139961D01*
X586437Y137627D01*
X588223Y135841D01*
X589024Y135509D01*
Y134239D01*
X588223Y133907D01*
X586437Y132121D01*
X585470Y129787D01*
Y127261D01*
X586437Y124927D01*
X588223Y123141D01*
X588954Y122838D01*
Y121463D01*
X588158Y121133D01*
X586372Y119347D01*
X585405Y117013D01*
Y114487D01*
X586372Y112153D01*
X587925Y110600D01*
X587896Y109571D01*
X587760Y109157D01*
X586191Y108507D01*
X584405Y106721D01*
X583438Y104387D01*
Y101861D01*
X584405Y99527D01*
X586191Y97741D01*
X588525Y96774D01*
X591051D01*
X593385Y97741D01*
X595171Y99527D01*
X596138Y101861D01*
Y104387D01*
X595171Y106721D01*
X593618Y108274D01*
X593647Y109303D01*
X593783Y109717D01*
X595352Y110367D01*
X597138Y112153D01*
X598105Y114487D01*
Y117013D01*
X597138Y119347D01*
X595352Y121133D01*
X594621Y121436D01*
Y122811D01*
X595417Y123141D01*
X597203Y124927D01*
X598170Y127261D01*
Y129787D01*
X597203Y132121D01*
X595417Y133907D01*
X594616Y134239D01*
Y135509D01*
X595417Y135841D01*
X597203Y137627D01*
X598170Y139961D01*
Y142487D01*
X597203Y144821D01*
X595417Y146607D01*
X594923Y146812D01*
Y148082D01*
X595417Y148287D01*
X597203Y150073D01*
X598170Y152407D01*
Y154933D01*
X597203Y157267D01*
X595417Y159053D01*
X593083Y160020D01*
D02*
G37*
G36*
X751579Y108204D02*
X749053D01*
X746719Y107237D01*
X744933Y105451D01*
X743966Y103117D01*
Y100591D01*
X744933Y98257D01*
X746719Y96471D01*
X749053Y95504D01*
X751579D01*
X753913Y96471D01*
X755699Y98257D01*
X756666Y100591D01*
Y103117D01*
X755699Y105451D01*
X753913Y107237D01*
X751579Y108204D01*
D02*
G37*
G36*
X927855Y105664D02*
X925329D01*
X922995Y104697D01*
X921209Y102911D01*
X920242Y100577D01*
Y98051D01*
X921209Y95717D01*
X922995Y93931D01*
X925329Y92964D01*
X927855D01*
X930189Y93931D01*
X931975Y95717D01*
X932942Y98051D01*
Y100577D01*
X931975Y102911D01*
X930189Y104697D01*
X927855Y105664D01*
D02*
G37*
G36*
X1059575Y98190D02*
X1057129D01*
X1054766Y97557D01*
X1052648Y96334D01*
X1050918Y94604D01*
X1049695Y92486D01*
X1049062Y90123D01*
Y87677D01*
X1049695Y85314D01*
X1050918Y83196D01*
X1052648Y81466D01*
X1054766Y80243D01*
X1057129Y79610D01*
X1059575D01*
X1061938Y80243D01*
X1064056Y81466D01*
X1065786Y83196D01*
X1067009Y85314D01*
X1067642Y87677D01*
Y90123D01*
X1067009Y92486D01*
X1065786Y94604D01*
X1064056Y96334D01*
X1061938Y97557D01*
X1059575Y98190D01*
D02*
G37*
G36*
X1039575D02*
X1037129D01*
X1034766Y97557D01*
X1032648Y96334D01*
X1030918Y94604D01*
X1029695Y92486D01*
X1029062Y90123D01*
Y87677D01*
X1029695Y85314D01*
X1030918Y83196D01*
X1032648Y81466D01*
X1034766Y80243D01*
X1037129Y79610D01*
X1039575D01*
X1041938Y80243D01*
X1044056Y81466D01*
X1045786Y83196D01*
X1047009Y85314D01*
X1047642Y87677D01*
Y90123D01*
X1047009Y92486D01*
X1045786Y94604D01*
X1044056Y96334D01*
X1041938Y97557D01*
X1039575Y98190D01*
D02*
G37*
G36*
X1019575D02*
X1017129D01*
X1014766Y97557D01*
X1012648Y96334D01*
X1010918Y94604D01*
X1009695Y92486D01*
X1009062Y90123D01*
Y87677D01*
X1009695Y85314D01*
X1010918Y83196D01*
X1012648Y81466D01*
X1014766Y80243D01*
X1017129Y79610D01*
X1019575D01*
X1021938Y80243D01*
X1024056Y81466D01*
X1025786Y83196D01*
X1027009Y85314D01*
X1027642Y87677D01*
Y90123D01*
X1027009Y92486D01*
X1025786Y94604D01*
X1024056Y96334D01*
X1021938Y97557D01*
X1019575Y98190D01*
D02*
G37*
G36*
X1049983Y71595D02*
X1047457D01*
X1045123Y70628D01*
X1043337Y68842D01*
X1042370Y66508D01*
Y63982D01*
X1043337Y61648D01*
X1045123Y59861D01*
X1047457Y58895D01*
X1049983D01*
X1052317Y59861D01*
X1054103Y61648D01*
X1055070Y63982D01*
Y66508D01*
X1054103Y68842D01*
X1052317Y70628D01*
X1049983Y71595D01*
D02*
G37*
G36*
X1355024Y140168D02*
X1349514D01*
X1344073Y139306D01*
X1338834Y137604D01*
X1333925Y135103D01*
X1329468Y131865D01*
X1325573Y127969D01*
X1322334Y123512D01*
X1319833Y118603D01*
X1318131Y113364D01*
X1317269Y107923D01*
Y105168D01*
X1317269Y55168D01*
Y52414D01*
X1318131Y46972D01*
X1319833Y41733D01*
X1322334Y36824D01*
X1325573Y32367D01*
X1329468Y28472D01*
X1333925Y25233D01*
X1338834Y22732D01*
X1344073Y21030D01*
X1349514Y20168D01*
X1355024Y20168D01*
X1360465Y21030D01*
X1365704Y22732D01*
X1370613Y25233D01*
X1375070Y28472D01*
X1378965Y32367D01*
X1382204Y36824D01*
X1384705Y41733D01*
X1386407Y46972D01*
X1387269Y52414D01*
Y55168D01*
X1387269Y105168D01*
Y107923D01*
X1386407Y113364D01*
X1384705Y118603D01*
X1382204Y123512D01*
X1378966Y127969D01*
X1375070Y131865D01*
X1370613Y135103D01*
X1365704Y137604D01*
X1360465Y139306D01*
X1355024Y140168D01*
D02*
G37*
G36*
X52487Y140116D02*
X46978D01*
X41536Y139254D01*
X36297Y137552D01*
X31388Y135051D01*
X26931Y131812D01*
X23036Y127917D01*
X19797Y123460D01*
X17296Y118551D01*
X15594Y113312D01*
X14732Y107871D01*
Y105116D01*
X14732Y55116D01*
X14732Y52361D01*
X15594Y46920D01*
X17296Y41681D01*
X19798Y36772D01*
X23036Y32315D01*
X26931Y28419D01*
X31388Y25181D01*
X36297Y22680D01*
X41536Y20978D01*
X46978Y20116D01*
X52487Y20116D01*
X57928Y20978D01*
X63168Y22680D01*
X68076Y25181D01*
X72533Y28419D01*
X76429Y32315D01*
X79667Y36772D01*
X82168Y41681D01*
X83870Y46920D01*
X84732Y52361D01*
Y55116D01*
X84732Y105116D01*
Y107871D01*
X83870Y113312D01*
X82168Y118551D01*
X79667Y123460D01*
X76429Y127917D01*
X72533Y131812D01*
X68076Y135051D01*
X63168Y137552D01*
X57928Y139254D01*
X52487Y140116D01*
D02*
G37*
G36*
X955029Y38597D02*
X932699D01*
Y16267D01*
X955029D01*
Y38597D01*
D02*
G37*
G36*
X332874Y29344D02*
X312794D01*
Y9264D01*
X332874D01*
Y29344D01*
D02*
G37*
G36*
X298756D02*
X296112D01*
X293559Y28660D01*
X291269Y27338D01*
X289400Y25469D01*
X288078Y23179D01*
X287394Y20626D01*
Y17982D01*
X288078Y15429D01*
X289400Y13139D01*
X291269Y11270D01*
X293559Y9948D01*
X296112Y9264D01*
X298756D01*
X301309Y9948D01*
X303599Y11270D01*
X305468Y13139D01*
X306790Y15429D01*
X307474Y17982D01*
Y20626D01*
X306790Y23179D01*
X305468Y25469D01*
X303599Y27338D01*
X301309Y28660D01*
X298756Y29344D01*
D02*
G37*
G36*
X273356D02*
X270712D01*
X268159Y28660D01*
X265869Y27338D01*
X264000Y25469D01*
X262678Y23179D01*
X261994Y20626D01*
Y17982D01*
X262678Y15429D01*
X264000Y13139D01*
X265869Y11270D01*
X268159Y9948D01*
X270712Y9264D01*
X273356D01*
X275909Y9948D01*
X278199Y11270D01*
X280068Y13139D01*
X281390Y15429D01*
X282074Y17982D01*
Y20626D01*
X281390Y23179D01*
X280068Y25469D01*
X278199Y27338D01*
X275909Y28660D01*
X273356Y29344D01*
D02*
G37*
G36*
X247956D02*
X245312D01*
X242759Y28660D01*
X240469Y27338D01*
X238600Y25469D01*
X237278Y23179D01*
X236594Y20626D01*
Y17982D01*
X237278Y15429D01*
X238600Y13139D01*
X240469Y11270D01*
X242759Y9948D01*
X245312Y9264D01*
X247956D01*
X250509Y9948D01*
X252799Y11270D01*
X254668Y13139D01*
X255990Y15429D01*
X256674Y17982D01*
Y20626D01*
X255990Y23179D01*
X254668Y25469D01*
X252799Y27338D01*
X250509Y28660D01*
X247956Y29344D01*
D02*
G37*
G36*
X363463Y30469D02*
X341133D01*
Y8139D01*
X363463D01*
Y30469D01*
D02*
G37*
%LPD*%
G36*
X724662Y253746D02*
X927608D01*
X953516Y227838D01*
Y190754D01*
X964946Y179324D01*
Y151130D01*
X962152Y148336D01*
X953516D01*
X931672Y170180D01*
Y217170D01*
X918718Y230124D01*
X709676D01*
X578866Y360934D01*
X507492D01*
X496062Y349504D01*
X496062Y320040D01*
X487934Y311912D01*
X367058Y311912D01*
X354332D01*
X352044Y314202D01*
Y320548D01*
X364998Y333502D01*
Y385064D01*
X368554Y388620D01*
X589788D01*
X724662Y253746D01*
D02*
G37*
G36*
X264922Y284480D02*
Y283210D01*
X314705D01*
X315411Y282154D01*
X315214Y281679D01*
Y279153D01*
X316181Y276819D01*
X317967Y275033D01*
X320301Y274066D01*
X322827D01*
X325161Y275033D01*
X326947Y276819D01*
X327914Y279153D01*
Y281679D01*
X327717Y282154D01*
X328423Y283210D01*
X607314D01*
X642112Y248412D01*
X697484Y193040D01*
X909066D01*
X910590Y191516D01*
Y161290D01*
X903732Y154432D01*
X672846D01*
X653288Y134874D01*
Y63754D01*
X651002Y61468D01*
X619252D01*
X615950Y64770D01*
Y236982D01*
X585978Y266954D01*
X383540D01*
X369316Y252730D01*
Y236474D01*
X367030Y234188D01*
X341376D01*
X339598Y235966D01*
Y256286D01*
X331724Y264160D01*
X246126D01*
X230124Y248158D01*
Y15748D01*
X225044Y10668D01*
X217170D01*
X212598Y15240D01*
Y220980D01*
X207264Y226314D01*
X177546D01*
X172720Y231140D01*
X172720Y257810D01*
X172720Y291592D01*
X184912Y303784D01*
X245872D01*
X264922Y284480D01*
D02*
G37*
G36*
X1178306Y63754D02*
Y25908D01*
X1175512Y23114D01*
X1149353D01*
X1023620Y148336D01*
X982472D01*
X979269Y151538D01*
Y190345D01*
X981964Y193040D01*
X1049020D01*
X1178306Y63754D01*
D02*
G37*
%LPC*%
G36*
X439159Y349250D02*
X436633D01*
X434299Y348283D01*
X432513Y346497D01*
X431546Y344163D01*
Y341637D01*
X432513Y339303D01*
X434299Y337517D01*
X436633Y336550D01*
X439159D01*
X441493Y337517D01*
X443279Y339303D01*
X444246Y341637D01*
Y344163D01*
X443279Y346497D01*
X441493Y348283D01*
X439159Y349250D01*
D02*
G37*
G36*
X485387Y343154D02*
X482861D01*
X480527Y342187D01*
X478741Y340401D01*
X477774Y338067D01*
Y335541D01*
X478741Y333207D01*
X480527Y331421D01*
X482861Y330454D01*
X485387D01*
X487721Y331421D01*
X489507Y333207D01*
X490474Y335541D01*
Y338067D01*
X489507Y340401D01*
X487721Y342187D01*
X485387Y343154D01*
D02*
G37*
G36*
X376167Y342900D02*
X373641D01*
X371307Y341933D01*
X369521Y340147D01*
X368554Y337813D01*
Y335287D01*
X369521Y332953D01*
X371307Y331167D01*
X373641Y330200D01*
X376167D01*
X378501Y331167D01*
X380287Y332953D01*
X381254Y335287D01*
Y337813D01*
X380287Y340147D01*
X378501Y341933D01*
X376167Y342900D01*
D02*
G37*
G36*
X425443Y330200D02*
X422917D01*
X420583Y329233D01*
X418797Y327447D01*
X417830Y325113D01*
Y322587D01*
X418797Y320253D01*
X420583Y318467D01*
X422917Y317500D01*
X425443D01*
X427777Y318467D01*
X429563Y320253D01*
X430530Y322587D01*
Y325113D01*
X429563Y327447D01*
X427777Y329233D01*
X425443Y330200D01*
D02*
G37*
%LPD*%
D121*
X840486Y300482D02*
X932180D01*
X974090Y258572D01*
X819765Y321203D02*
X840486Y300482D01*
X819765Y321203D02*
Y373994D01*
X974090Y147066D02*
Y258572D01*
X967486Y140462D02*
X974090Y147066D01*
X924814Y140462D02*
X967486D01*
X902462Y162814D02*
X924814Y140462D01*
D128*
X36750Y367700D02*
D03*
Y342700D02*
D03*
D130*
X377698Y19304D02*
D03*
X918464Y27432D02*
D03*
D132*
X998352Y88900D02*
D03*
D135*
X1057148Y512318D02*
D03*
D138*
X1169054Y32512D02*
D03*
X1194054D02*
D03*
X195834Y19304D02*
D03*
X221234D02*
D03*
D140*
X489775Y171000D02*
D03*
X508125D02*
D03*
X480600Y161825D02*
D03*
X498950D02*
D03*
X517300D02*
D03*
X489775Y152650D02*
D03*
X508125D02*
D03*
X480600Y143475D02*
D03*
X498950D02*
D03*
X517300D02*
D03*
X489775Y134300D02*
D03*
X508125D02*
D03*
D141*
X1017548Y512318D02*
D03*
D143*
X1092050Y706120D02*
D03*
X1022050D02*
D03*
X952050D02*
D03*
X882050D02*
D03*
X812050D02*
D03*
X742050D02*
D03*
X672050D02*
D03*
D144*
X1162050D02*
D03*
D145*
X367258Y704972D02*
D03*
X437258D02*
D03*
X507258D02*
D03*
X577258D02*
D03*
X61572D02*
D03*
X131572D02*
D03*
X201572D02*
D03*
X271572D02*
D03*
D146*
X1155700Y635000D02*
D03*
Y584200D02*
D03*
X1130300D02*
D03*
X1104900Y635000D02*
D03*
X1079500D02*
D03*
Y533400D02*
D03*
X1054100Y584200D02*
D03*
Y533400D02*
D03*
Y482600D02*
D03*
X1028700D02*
D03*
X1003300D02*
D03*
X977900D02*
D03*
X939800Y558800D02*
D03*
X952500Y482600D02*
D03*
X927100Y584200D02*
D03*
Y533400D02*
D03*
Y482600D02*
D03*
X901700Y533400D02*
D03*
Y482600D02*
D03*
X876300Y635000D02*
D03*
Y533400D02*
D03*
Y482600D02*
D03*
X850900Y584200D02*
D03*
Y482600D02*
D03*
X825500Y635000D02*
D03*
X812800Y558800D02*
D03*
X800100Y635000D02*
D03*
X774700Y584200D02*
D03*
X749300Y635000D02*
D03*
Y482600D02*
D03*
X723900Y584200D02*
D03*
Y482600D02*
D03*
X647700Y584200D02*
D03*
X609600Y558800D02*
D03*
X596900Y635000D02*
D03*
X584200Y609600D02*
D03*
Y558800D02*
D03*
Y508000D02*
D03*
X571500Y635000D02*
D03*
X558800Y609600D02*
D03*
X571500Y584200D02*
D03*
X558800Y558800D02*
D03*
X571500Y482600D02*
D03*
X533400Y609600D02*
D03*
X546100Y584200D02*
D03*
X520700Y635000D02*
D03*
X508000Y609600D02*
D03*
X520700Y584200D02*
D03*
X495300Y635000D02*
D03*
X482600Y609600D02*
D03*
X457200D02*
D03*
X444500Y635000D02*
D03*
X431800Y609600D02*
D03*
Y558800D02*
D03*
X444500Y482600D02*
D03*
X419100Y635000D02*
D03*
X406400Y609600D02*
D03*
X419100Y584200D02*
D03*
X381000Y609600D02*
D03*
X393700Y584200D02*
D03*
X381000Y558800D02*
D03*
X368300Y635000D02*
D03*
X355600Y609600D02*
D03*
X330200D02*
D03*
Y508000D02*
D03*
X317500Y635000D02*
D03*
X304800Y609600D02*
D03*
X317500Y584200D02*
D03*
X304800Y558800D02*
D03*
Y508000D02*
D03*
X317500Y482600D02*
D03*
X292100Y635000D02*
D03*
Y584200D02*
D03*
X279400Y558800D02*
D03*
X292100Y482600D02*
D03*
X254000Y609600D02*
D03*
Y508000D02*
D03*
X228600Y609600D02*
D03*
X203200D02*
D03*
Y508000D02*
D03*
X215900Y482600D02*
D03*
X190500Y635000D02*
D03*
X177800Y609600D02*
D03*
X165100Y584200D02*
D03*
X152400Y508000D02*
D03*
X165100Y482600D02*
D03*
X88900Y635000D02*
D03*
Y584200D02*
D03*
Y533400D02*
D03*
X76200Y508000D02*
D03*
Y355600D02*
D03*
X88900Y330200D02*
D03*
X50800Y660400D02*
D03*
X63500Y330200D02*
D03*
X25400Y508000D02*
D03*
X38100Y482600D02*
D03*
X25400Y457200D02*
D03*
Y406400D02*
D03*
Y304800D02*
D03*
X38100Y279400D02*
D03*
X25400Y254000D02*
D03*
X1320800Y127000D02*
D03*
Y25400D02*
D03*
X1295400Y127000D02*
D03*
X1308100Y101600D02*
D03*
X1295400Y76200D02*
D03*
X1308100Y50800D02*
D03*
X1295400Y25400D02*
D03*
X1270000Y127000D02*
D03*
X1282700Y101600D02*
D03*
X1270000Y76200D02*
D03*
X1282700Y50800D02*
D03*
X1270000Y25400D02*
D03*
X1244600Y127000D02*
D03*
X1257300Y101600D02*
D03*
X1244600Y76200D02*
D03*
X1257300Y50800D02*
D03*
X1244600Y25400D02*
D03*
X1219200Y127000D02*
D03*
X1231900Y101600D02*
D03*
X1219200Y76200D02*
D03*
X1231900Y50800D02*
D03*
X1219200Y25400D02*
D03*
X1193800Y127000D02*
D03*
X1206500Y101600D02*
D03*
X1193800Y76200D02*
D03*
X1206500Y50800D02*
D03*
X1168400Y127000D02*
D03*
X1181100Y101600D02*
D03*
X1143000Y127000D02*
D03*
X1155700Y101600D02*
D03*
X1130300Y152400D02*
D03*
X1117600Y25400D02*
D03*
X1092200Y177800D02*
D03*
X1104900Y152400D02*
D03*
Y50800D02*
D03*
X1092200Y25400D02*
D03*
X1066800Y381000D02*
D03*
Y330200D02*
D03*
Y279400D02*
D03*
Y228600D02*
D03*
X1079500Y203200D02*
D03*
Y50800D02*
D03*
X1054100Y406400D02*
D03*
X1041400Y381000D02*
D03*
X1054100Y355600D02*
D03*
X1041400Y330200D02*
D03*
X1054100Y304800D02*
D03*
X1041400Y279400D02*
D03*
X1054100Y254000D02*
D03*
X1041400Y228600D02*
D03*
X1054100Y203200D02*
D03*
X1041400Y25400D02*
D03*
X1028700Y406400D02*
D03*
X1016000Y381000D02*
D03*
X1028700Y355600D02*
D03*
X1016000Y330200D02*
D03*
X1028700Y304800D02*
D03*
X1016000Y279400D02*
D03*
X1028700Y254000D02*
D03*
X1016000Y228600D02*
D03*
X1028700Y203200D02*
D03*
Y101600D02*
D03*
X1016000Y25400D02*
D03*
X1003300Y406400D02*
D03*
X990600Y381000D02*
D03*
X1003300Y355600D02*
D03*
X990600Y330200D02*
D03*
X1003300Y304800D02*
D03*
X990600Y279400D02*
D03*
X1003300Y254000D02*
D03*
X990600Y228600D02*
D03*
X1003300Y203200D02*
D03*
Y101600D02*
D03*
X990600Y76200D02*
D03*
X977900Y406400D02*
D03*
X965200Y381000D02*
D03*
X977900Y355600D02*
D03*
X965200Y330200D02*
D03*
X977900Y304800D02*
D03*
X965200Y279400D02*
D03*
Y228600D02*
D03*
X977900Y101600D02*
D03*
X965200Y76200D02*
D03*
X977900Y50800D02*
D03*
X965200Y25400D02*
D03*
X952500Y406400D02*
D03*
X939800Y381000D02*
D03*
X952500Y355600D02*
D03*
X939800Y330200D02*
D03*
X952500Y304800D02*
D03*
X939800Y279400D02*
D03*
X952500Y254000D02*
D03*
X927100Y406400D02*
D03*
X914400Y381000D02*
D03*
X927100Y355600D02*
D03*
X914400Y330200D02*
D03*
Y279400D02*
D03*
Y127000D02*
D03*
Y76200D02*
D03*
X927100Y50800D02*
D03*
X901700Y406400D02*
D03*
X889000Y381000D02*
D03*
X901700Y355600D02*
D03*
X889000Y330200D02*
D03*
Y279400D02*
D03*
Y127000D02*
D03*
X901700Y50800D02*
D03*
X889000Y25400D02*
D03*
X876300Y406400D02*
D03*
X863600Y381000D02*
D03*
X876300Y355600D02*
D03*
X863600Y330200D02*
D03*
Y279400D02*
D03*
Y127000D02*
D03*
X876300Y101600D02*
D03*
Y50800D02*
D03*
X863600Y25400D02*
D03*
X850900Y406400D02*
D03*
Y355600D02*
D03*
X838200Y279400D02*
D03*
X850900Y203200D02*
D03*
X838200Y127000D02*
D03*
X850900Y101600D02*
D03*
X838200Y25400D02*
D03*
X812800Y279400D02*
D03*
X825500Y203200D02*
D03*
X812800Y127000D02*
D03*
X825500Y101600D02*
D03*
X812800Y25400D02*
D03*
X800100Y203200D02*
D03*
X787400Y127000D02*
D03*
X800100Y101600D02*
D03*
X762000Y381000D02*
D03*
Y330200D02*
D03*
X774700Y203200D02*
D03*
X762000Y127000D02*
D03*
X774700Y101600D02*
D03*
Y50800D02*
D03*
X762000Y25400D02*
D03*
X749300Y406400D02*
D03*
X736600Y381000D02*
D03*
X749300Y355600D02*
D03*
X736600Y330200D02*
D03*
X749300Y304800D02*
D03*
Y203200D02*
D03*
X736600Y127000D02*
D03*
Y25400D02*
D03*
X723900Y406400D02*
D03*
X711200Y381000D02*
D03*
X723900Y355600D02*
D03*
X711200Y330200D02*
D03*
X723900Y304800D02*
D03*
X711200Y127000D02*
D03*
X723900Y101600D02*
D03*
X711200Y25400D02*
D03*
X698500Y406400D02*
D03*
X685800Y381000D02*
D03*
X698500Y355600D02*
D03*
X685800Y330200D02*
D03*
X698500Y304800D02*
D03*
X685800Y127000D02*
D03*
X698500Y101600D02*
D03*
X673100Y406400D02*
D03*
X660400Y381000D02*
D03*
X673100Y355600D02*
D03*
X660400Y330200D02*
D03*
X673100Y254000D02*
D03*
X660400Y127000D02*
D03*
X673100Y50800D02*
D03*
X660400Y25400D02*
D03*
X647700Y406400D02*
D03*
X635000Y381000D02*
D03*
X647700Y355600D02*
D03*
Y50800D02*
D03*
X635000Y25400D02*
D03*
X622300Y406400D02*
D03*
X609600Y381000D02*
D03*
X622300Y304800D02*
D03*
Y50800D02*
D03*
X609600Y25400D02*
D03*
X596900Y406400D02*
D03*
X584200Y330200D02*
D03*
X596900Y304800D02*
D03*
Y50800D02*
D03*
X571500Y406400D02*
D03*
Y304800D02*
D03*
Y254000D02*
D03*
X533400Y228600D02*
D03*
X546100Y203200D02*
D03*
X533400Y177800D02*
D03*
X546100Y152400D02*
D03*
X533400Y127000D02*
D03*
X508000Y330200D02*
D03*
X520700Y304800D02*
D03*
X508000Y228600D02*
D03*
X520700Y203200D02*
D03*
X482600Y228600D02*
D03*
X495300Y203200D02*
D03*
X469900Y304800D02*
D03*
Y203200D02*
D03*
X457200Y76200D02*
D03*
X444500Y406400D02*
D03*
X431800Y177800D02*
D03*
Y127000D02*
D03*
Y76200D02*
D03*
X393700Y254000D02*
D03*
X381000Y76200D02*
D03*
X368300Y50800D02*
D03*
X330200Y381000D02*
D03*
Y330200D02*
D03*
X342900Y152400D02*
D03*
Y101600D02*
D03*
X330200Y76200D02*
D03*
X342900Y50800D02*
D03*
X317500Y406400D02*
D03*
X304800Y381000D02*
D03*
X317500Y355600D02*
D03*
Y203200D02*
D03*
Y152400D02*
D03*
X304800Y76200D02*
D03*
X292100Y406400D02*
D03*
X254000Y381000D02*
D03*
Y330200D02*
D03*
Y177800D02*
D03*
X266700Y152400D02*
D03*
X254000Y127000D02*
D03*
X266700Y101600D02*
D03*
X254000Y76200D02*
D03*
X266700Y50800D02*
D03*
X228600Y330200D02*
D03*
X241300Y203200D02*
D03*
Y152400D02*
D03*
Y101600D02*
D03*
Y50800D02*
D03*
X215900Y406400D02*
D03*
X203200Y381000D02*
D03*
X215900Y355600D02*
D03*
X203200Y330200D02*
D03*
Y177800D02*
D03*
Y127000D02*
D03*
Y76200D02*
D03*
X177800Y330200D02*
D03*
X190500Y203200D02*
D03*
X177800Y177800D02*
D03*
X190500Y152400D02*
D03*
X177800Y127000D02*
D03*
X190500Y101600D02*
D03*
X177800Y76200D02*
D03*
X190500Y50800D02*
D03*
X177800Y25400D02*
D03*
X165100Y406400D02*
D03*
X152400Y381000D02*
D03*
X165100Y355600D02*
D03*
X152400Y330200D02*
D03*
X165100Y254000D02*
D03*
X152400Y228600D02*
D03*
X165100Y203200D02*
D03*
X152400Y177800D02*
D03*
X165100Y152400D02*
D03*
X152400Y127000D02*
D03*
X165100Y101600D02*
D03*
X152400Y76200D02*
D03*
X165100Y50800D02*
D03*
X152400Y25400D02*
D03*
X127000Y381000D02*
D03*
X139700Y355600D02*
D03*
Y203200D02*
D03*
X127000Y177800D02*
D03*
X139700Y152400D02*
D03*
X127000Y127000D02*
D03*
X139700Y101600D02*
D03*
X127000Y76200D02*
D03*
X139700Y50800D02*
D03*
X127000Y25400D02*
D03*
X101600Y177800D02*
D03*
X114300Y152400D02*
D03*
X101600Y127000D02*
D03*
X114300Y101600D02*
D03*
X101600Y76200D02*
D03*
X114300Y50800D02*
D03*
X101600Y25400D02*
D03*
X76200Y177800D02*
D03*
X88900Y152400D02*
D03*
Y101600D02*
D03*
Y50800D02*
D03*
X76200Y25400D02*
D03*
X50800Y177800D02*
D03*
X63500Y152400D02*
D03*
X25400Y177800D02*
D03*
X38100Y152400D02*
D03*
X25400Y25400D02*
D03*
D147*
X347218Y254000D02*
D03*
X345948Y207772D02*
D03*
X329184D02*
D03*
X501904Y505206D02*
D03*
X390524D02*
D03*
X456692Y536448D02*
D03*
X347980Y536702D02*
D03*
X672084Y554736D02*
D03*
X682752Y548640D02*
D03*
X672084Y541782D02*
D03*
X603758Y525272D02*
D03*
X594614Y533400D02*
D03*
X603758Y541274D02*
D03*
X718312Y281432D02*
D03*
X655828Y266700D02*
D03*
Y253238D02*
D03*
X735330Y281432D02*
D03*
X289662Y544105D02*
D03*
X245720Y544164D02*
D03*
X201524Y544139D02*
D03*
X157582D02*
D03*
X989330Y153416D02*
D03*
Y164677D02*
D03*
Y175937D02*
D03*
Y187198D02*
D03*
X819765Y373994D02*
D03*
X862838Y162814D02*
D03*
X876046D02*
D03*
X889254D02*
D03*
X902462D02*
D03*
X180848Y231394D02*
D03*
X211074Y290068D02*
D03*
X648208Y67310D02*
D03*
X621792D02*
D03*
X635000D02*
D03*
X892810Y187198D02*
D03*
X465328Y317754D02*
D03*
X356870Y317500D02*
D03*
X512572Y383286D02*
D03*
X487039Y383089D02*
D03*
X400812Y382270D02*
D03*
X375158D02*
D03*
X958850Y153162D02*
D03*
Y164084D02*
D03*
Y175260D02*
D03*
X433578Y231140D02*
D03*
X805434Y327406D02*
D03*
Y340106D02*
D03*
M02*
