%FSTAX23Y23*%
%MOIN*%
%SFA1B1*%

%IPPOS*%
%AMD52*
4,1,8,-0.036500,0.016200,-0.036500,-0.016200,-0.016200,-0.036500,0.016200,-0.036500,0.036500,-0.016200,0.036500,0.016200,0.016200,0.036500,-0.016200,0.036500,-0.036500,0.016200,0.0*
1,1,0.040480,-0.016200,0.016200*
1,1,0.040480,-0.016200,-0.016200*
1,1,0.040480,0.016200,-0.016200*
1,1,0.040480,0.016200,0.016200*
%
%AMD56*
4,1,8,0.035500,-0.015700,0.035500,0.015700,0.015700,0.035500,-0.015700,0.035500,-0.035500,0.015700,-0.035500,-0.015700,-0.015700,-0.035500,0.015700,-0.035500,0.035500,-0.015700,0.0*
1,1,0.039496,0.015700,-0.015700*
1,1,0.039496,0.015700,0.015700*
1,1,0.039496,-0.015700,0.015700*
1,1,0.039496,-0.015700,-0.015700*
%
%AMD58*
4,1,8,-0.015000,-0.033900,0.015000,-0.033900,0.033900,-0.015000,0.033900,0.015000,0.015000,0.033900,-0.015000,0.033900,-0.033900,0.015000,-0.033900,-0.015000,-0.015000,-0.033900,0.0*
1,1,0.037921,-0.015000,-0.015000*
1,1,0.037921,0.015000,-0.015000*
1,1,0.037921,0.015000,0.015000*
1,1,0.037921,-0.015000,0.015000*
%
%ADD41R,0.108393X0.108393*%
%ADD42C,0.108393*%
%ADD43C,0.067370*%
%ADD44C,0.048000*%
%ADD45C,0.071189*%
%ADD46R,0.071189X0.071189*%
%ADD47R,0.071189X0.071189*%
%ADD48C,0.165480*%
%ADD49C,0.089000*%
%ADD50C,0.059181*%
%ADD51C,0.072960*%
G04~CAMADD=52~8~0.0~0.0~729.6~729.6~202.4~0.0~15~0.0~0.0~0.0~0.0~0~0.0~0.0~0.0~0.0~0~0.0~0.0~0.0~90.0~730.0~730.0*
%ADD52D52*%
%ADD53C,0.079000*%
%ADD54C,0.087000*%
%ADD55C,0.070992*%
G04~CAMADD=56~8~0.0~0.0~709.9~709.9~197.5~0.0~15~0.0~0.0~0.0~0.0~0~0.0~0.0~0.0~0.0~0~0.0~0.0~0.0~270.0~710.0~710.0*
%ADD56D56*%
%ADD57C,0.067842*%
G04~CAMADD=58~8~0.0~0.0~678.4~678.4~189.6~0.0~15~0.0~0.0~0.0~0.0~0~0.0~0.0~0.0~0.0~0~0.0~0.0~0.0~180.0~678.0~678.0*
%ADD58D58*%
%ADD59C,0.062724*%
%ADD60R,0.062724X0.062724*%
%ADD61C,0.058000*%
%ADD62C,0.067055*%
%ADD63C,0.086740*%
%ADD64C,0.204850*%
%LNmain-1*%
%LPD*%
G54D41*
X00913Y02538D03*
X0091Y01863D03*
G54D42*
X00913Y02734D03*
X0091Y0206D03*
G54D43*
X0052Y02853D03*
Y0242D03*
X00516Y01745D03*
Y02178D03*
G54D44*
X0801Y0223D03*
Y0129D03*
X061Y0223D03*
X0704D03*
G54D45*
X0565Y0419D03*
X0525Y0528D03*
X0495Y01325D03*
X0355Y0365D03*
X01175Y01425D03*
Y01025D03*
X00525D03*
X04025Y006D03*
X0535Y0429D03*
G54D46*
X0565Y0429D03*
X01175Y01525D03*
Y01125D03*
X00525D03*
X04025Y005D03*
X0535Y0419D03*
G54D47*
X0515Y0528D03*
X0505Y01325D03*
X0345Y0365D03*
G54D48*
X0704Y0103D03*
Y0356D03*
X0881Y0223D03*
X0587D03*
X0148Y0498D03*
Y0691D03*
X0377D03*
X03765Y04985D03*
G54D49*
X0511Y0157D03*
X04954D03*
X043Y00484D03*
Y0064D03*
X044Y0682D03*
Y06975D03*
Y06284D03*
Y0644D03*
G54D50*
X0471Y0201D03*
Y0211D03*
X0441Y0201D03*
Y0211D03*
X0471Y0231D03*
Y0221D03*
X0441D03*
Y0231D03*
X02925Y01875D03*
X02825D03*
Y01575D03*
X02925D03*
X02725Y01875D03*
X02625D03*
X02725Y01575D03*
X02625D03*
X0471Y0256D03*
Y0266D03*
X0441Y0256D03*
Y0266D03*
X0471Y0286D03*
Y0276D03*
X0441D03*
Y0286D03*
X0471Y0307D03*
Y0317D03*
X0441Y0307D03*
Y0317D03*
X0471Y0337D03*
Y0327D03*
X0441D03*
Y0337D03*
X0472Y0357D03*
Y0367D03*
X0442Y0357D03*
Y0367D03*
X0472Y0387D03*
Y0377D03*
X0442D03*
Y0387D03*
X0471Y0406D03*
Y0416D03*
X0441Y0406D03*
Y0416D03*
X0471Y0436D03*
Y0426D03*
X0441D03*
Y0436D03*
X02275Y00375D03*
Y00475D03*
X01975Y00375D03*
Y00475D03*
X02275Y00675D03*
Y00575D03*
X01975D03*
Y00675D03*
X035Y01875D03*
X034D03*
X035Y01575D03*
X034D03*
X032Y01875D03*
X033D03*
Y01575D03*
X032D03*
G54D51*
X0358Y042D03*
Y041D03*
X0368Y042D03*
Y041D03*
X0358Y039D03*
X0368Y04D03*
X0358D03*
G54D52*
X0368Y039D03*
G54D53*
X0441Y0473D03*
G54D54*
X0431Y0463D03*
X0451D03*
Y0483D03*
X0431D03*
G54D55*
X0498Y0303D03*
Y0313D03*
Y0343D03*
Y0363D03*
Y0383D03*
Y0373D03*
Y0353D03*
Y0333D03*
Y0323D03*
G54D56*
X0498Y0393D03*
G54D57*
X01225Y0335D03*
X01325D03*
X01425D03*
X01525D03*
X01625D03*
X01725D03*
X01825D03*
X02125D03*
X02225D03*
X02325D03*
X02525D03*
X02725D03*
X02825D03*
X03025D03*
X03125D03*
X03225D03*
X03425D03*
X03325D03*
X02925D03*
X02625D03*
X02425D03*
X02025D03*
X01925D03*
X01225Y0275D03*
X01325D03*
X01425D03*
X01525D03*
X01625D03*
X01725D03*
X01825D03*
X02125D03*
X02225D03*
X02325D03*
X02525D03*
X02725D03*
X02825D03*
X03025D03*
X03125D03*
X03225D03*
X03425D03*
X03325D03*
X02925D03*
X02625D03*
X02425D03*
X02025D03*
X01925D03*
X027Y04175D03*
X023D03*
X022D03*
X024D03*
X025D03*
X026D03*
X028D03*
X029D03*
X03D03*
X027Y0365D03*
X023D03*
X022D03*
X024D03*
X025D03*
X026D03*
X028D03*
X029D03*
X03D03*
X02075Y01275D03*
X02175D03*
X02275D03*
X02475D03*
X02375D03*
G54D58*
X03525Y0335D03*
Y0275D03*
X021Y04175D03*
Y0365D03*
X02575Y01275D03*
G54D59*
X01675Y045D03*
Y046D03*
X01775Y045D03*
Y046D03*
X01875Y045D03*
Y046D03*
X01975Y045D03*
Y046D03*
X02075Y045D03*
Y046D03*
X02175Y045D03*
Y046D03*
X02275Y045D03*
Y046D03*
X02375Y045D03*
Y046D03*
X02475Y045D03*
Y046D03*
X02575Y045D03*
Y046D03*
X02675Y045D03*
Y046D03*
X02775Y045D03*
Y046D03*
X02875Y045D03*
Y046D03*
X02975Y045D03*
Y046D03*
X03075Y045D03*
Y046D03*
X03175Y045D03*
Y046D03*
X03275Y045D03*
Y046D03*
X03375Y045D03*
Y046D03*
X03475Y045D03*
Y046D03*
X03575Y045D03*
G54D60*
X03575Y046D03*
G54D61*
X0535Y0449D03*
X0182Y0402D03*
X0506Y057D03*
X0543Y0467D03*
X0505D03*
X029Y039D03*
X0179Y0358D03*
X0155D03*
X0165D03*
X0502Y0209D03*
Y0224D03*
X0409Y0201D03*
Y0231D03*
X017Y0215D03*
Y0197D03*
X0451Y0082D03*
X0207Y0314D03*
X0283Y0307D03*
X0253Y0308D03*
X0374Y0248D03*
X0314Y0249D03*
X0301Y0256D03*
X03795Y02555D03*
X04395Y0128D03*
X0321Y0262D03*
X0363D03*
X039Y0126D03*
X0466Y0127D03*
X0295Y003D03*
X02475Y00725D03*
X03125Y0045D03*
X02575Y00725D03*
X03425Y03125D03*
X03175D03*
X01725Y032D03*
X0245D03*
X04425Y0115D03*
X03475Y01125D03*
X046Y0115D03*
X0405Y011D03*
X041Y01175D03*
X036Y0125D03*
X0305Y0155D03*
X03Y01375D03*
X02025Y01625D03*
X02175Y0245D03*
X0205D03*
X03425Y0205D03*
X032D03*
X02325Y03475D03*
X0345Y00925D03*
X03125Y00625D03*
X0315Y00825D03*
X02625Y01475D03*
X02525Y00825D03*
G54D62*
X032Y0423D03*
X0289Y0289D03*
X0303Y0321D03*
X039Y0472D03*
X0361Y0503D03*
X0345Y051D03*
G54D63*
X0357Y0441D03*
X0374D03*
G54D64*
X05515Y03745D03*
Y0021D03*
Y07315D03*
X1087Y0021D03*
Y07315D03*
Y0375D03*
X0016Y03745D03*
Y07315D03*
Y0021D03*
M02*