%FSTAX23Y23*%
%MOIN*%
%SFA1B1*%

%IPPOS*%
%AMD25*
4,1,8,0.035800,0.011800,-0.035800,0.011800,-0.038800,0.008900,-0.038800,-0.008900,-0.035800,-0.011800,0.035800,-0.011800,0.038800,-0.008900,0.038800,0.008900,0.035800,0.011800,0.0*
1,1,0.005906,0.035800,0.008900*
1,1,0.005906,-0.035800,0.008900*
1,1,0.005906,-0.035800,-0.008900*
1,1,0.005906,0.035800,-0.008900*
%
%ADD21R,0.067000X0.036000*%
%ADD22R,0.031496X0.031496*%
%ADD23R,0.060992X0.025685*%
%ADD24R,0.025685X0.060992*%
G04~CAMADD=25~8~0.0~0.0~775.6~236.2~29.5~0.0~15~0.0~0.0~0.0~0.0~0~0.0~0.0~0.0~0.0~0~0.0~0.0~0.0~0.0~775.6~236.2*
%ADD25D25*%
%ADD26R,0.036000X0.067000*%
%ADD27R,0.039370X0.055118*%
%ADD28R,0.056299X0.043307*%
%ADD29R,0.031496X0.031496*%
%ADD30R,0.059842X0.070079*%
%ADD31R,0.055118X0.039370*%
%ADD32R,0.070866X0.047244*%
%LNmain-1*%
%LPD*%
G54D21*
X014Y03686D03*
Y03794D03*
X0119Y03686D03*
Y03794D03*
X016Y03686D03*
Y03794D03*
X0506Y05516D03*
Y05624D03*
X0517Y05516D03*
Y05624D03*
X0465Y05566D03*
Y05674D03*
X0505Y04756D03*
Y04864D03*
X0455Y05406D03*
Y05514D03*
X0441Y05406D03*
Y05514D03*
X0162Y01746D03*
Y01854D03*
X0432Y01384D03*
Y01276D03*
X038D03*
Y01384D03*
X037Y01276D03*
Y01384D03*
X02175Y01396D03*
Y01504D03*
X02925Y01996D03*
Y02104D03*
X02625Y01996D03*
Y02104D03*
X032Y01374D03*
Y01266D03*
X0475Y01379D03*
Y01271D03*
X042Y01276D03*
Y01384D03*
G54D22*
X0119Y03999D03*
Y0394D03*
X014Y04009D03*
Y0395D03*
X016Y04009D03*
Y0395D03*
X0162Y02089D03*
Y0203D03*
G54D23*
X0455Y05563D03*
Y05676D03*
G54D24*
X05063Y0496D03*
X05176D03*
G54D25*
X04957Y05615D03*
Y05565D03*
Y05515D03*
Y05465D03*
X04762D03*
Y05515D03*
Y05565D03*
Y05615D03*
G54D26*
X05136Y0516D03*
X05244D03*
X01944Y0146D03*
X01836D03*
X04934Y0209D03*
X04826D03*
X04196Y0231D03*
X04304D03*
X04928Y0224D03*
X0482D03*
X04206Y0201D03*
X04314D03*
X04206Y0436D03*
X04314D03*
X04206Y0406D03*
X04314D03*
X04206Y0387D03*
X04314D03*
X04206Y0357D03*
X04314D03*
X04196Y0337D03*
X04304D03*
X04206Y0307D03*
X04314D03*
X04206Y0286D03*
X04314D03*
X04206Y0256D03*
X04314D03*
X02479Y0045D03*
X02371D03*
X02479Y00575D03*
X02371D03*
X02904Y0075D03*
X02796D03*
X03429D03*
X03321D03*
X03254Y0365D03*
X03146D03*
X02904Y00975D03*
X02796D03*
X01746Y00675D03*
X01854D03*
X01746Y00375D03*
X01854D03*
G54D27*
X05255Y0461D03*
X0533D03*
X05292Y04696D03*
Y04956D03*
X0533Y0487D03*
X05255D03*
G54D28*
X0431Y05425D03*
Y05494D03*
X0542Y04834D03*
Y04765D03*
G54D29*
X01899Y0158D03*
X0184D03*
G54D30*
X03012Y00625D03*
Y00425D03*
Y00525D03*
X02687Y00625D03*
Y00425D03*
Y00525D03*
X03612Y00925D03*
Y01125D03*
Y01025D03*
X03937Y00925D03*
Y01125D03*
Y01025D03*
X0355Y00625D03*
Y00425D03*
Y00525D03*
X03225Y00625D03*
Y00425D03*
Y00525D03*
X05062Y01025D03*
Y01125D03*
Y00925D03*
X04737Y01025D03*
Y01125D03*
Y00925D03*
X04187D03*
Y01125D03*
Y01025D03*
X04512Y00925D03*
Y01125D03*
Y01025D03*
X03387D03*
Y01125D03*
Y00925D03*
X03062Y01025D03*
Y01125D03*
Y00925D03*
G54D31*
X027Y00875D03*
X02613Y00837D03*
Y00912D03*
X03988Y01362D03*
Y01287D03*
X04075Y01325D03*
X04481Y01362D03*
Y01287D03*
X04568Y01325D03*
G54D32*
X02275Y021D03*
Y018D03*
X01874D03*
Y02D03*
Y021D03*
M02*