G04*
G04 #@! TF.GenerationSoftware,Altium Limited,Altium Designer,23.1.1 (15)*
G04*
G04 Layer_Color=32896*
%FSLAX44Y44*%
%MOMM*%
G71*
G04*
G04 #@! TF.SameCoordinates,834500F6-C2E4-4EAC-996A-B368302F4D9C*
G04*
G04*
G04 #@! TF.FilePolarity,Positive*
G04*
G01*
G75*
%ADD10C,0.2000*%
%ADD17C,0.2500*%
%ADD18C,0.6000*%
G36*
X1008038Y146771D02*
X1008291Y146724D01*
X1008508Y146649D01*
X1008696Y146574D01*
X1008780Y146527D01*
X1008846Y146489D01*
X1008912Y146452D01*
X1008959Y146414D01*
X1008996Y146386D01*
X1009024Y146367D01*
X1009043Y146358D01*
X1009053Y146348D01*
X1009231Y146170D01*
X1009372Y145972D01*
X1009485Y145765D01*
X1009579Y145559D01*
X1009635Y145380D01*
X1009663Y145305D01*
X1009682Y145239D01*
X1009692Y145183D01*
X1009701Y145145D01*
X1009710Y145117D01*
Y145108D01*
X1008912Y144967D01*
X1008874Y145173D01*
X1008818Y145352D01*
X1008752Y145502D01*
X1008686Y145625D01*
X1008620Y145718D01*
X1008564Y145784D01*
X1008526Y145831D01*
X1008517Y145841D01*
X1008395Y145935D01*
X1008263Y146010D01*
X1008141Y146057D01*
X1008019Y146094D01*
X1007906Y146113D01*
X1007822Y146132D01*
X1007746D01*
X1007577Y146123D01*
X1007427Y146085D01*
X1007295Y146038D01*
X1007182Y145991D01*
X1007098Y145935D01*
X1007032Y145888D01*
X1006985Y145850D01*
X1006976Y145841D01*
X1006872Y145728D01*
X1006797Y145606D01*
X1006750Y145484D01*
X1006712Y145371D01*
X1006694Y145267D01*
X1006675Y145192D01*
Y145136D01*
Y145126D01*
Y145117D01*
Y145014D01*
X1006694Y144920D01*
X1006741Y144760D01*
X1006806Y144619D01*
X1006882Y144497D01*
X1006957Y144412D01*
X1007023Y144346D01*
X1007070Y144309D01*
X1007079Y144299D01*
X1007088D01*
X1007248Y144215D01*
X1007399Y144149D01*
X1007558Y144102D01*
X1007699Y144074D01*
X1007822Y144055D01*
X1007925Y144036D01*
X1008047D01*
X1008085Y144046D01*
X1008132D01*
X1008226Y143341D01*
X1008103Y143369D01*
X1007991Y143388D01*
X1007897Y143407D01*
X1007812Y143416D01*
X1007746Y143425D01*
X1007662D01*
X1007464Y143407D01*
X1007286Y143369D01*
X1007126Y143313D01*
X1006994Y143247D01*
X1006891Y143181D01*
X1006816Y143125D01*
X1006769Y143087D01*
X1006750Y143068D01*
X1006628Y142927D01*
X1006534Y142777D01*
X1006468Y142627D01*
X1006431Y142476D01*
X1006402Y142354D01*
X1006393Y142251D01*
X1006384Y142213D01*
Y142185D01*
Y142166D01*
Y142157D01*
X1006402Y141950D01*
X1006449Y141762D01*
X1006506Y141602D01*
X1006581Y141461D01*
X1006656Y141348D01*
X1006712Y141264D01*
X1006759Y141208D01*
X1006778Y141189D01*
X1006929Y141057D01*
X1007088Y140963D01*
X1007248Y140897D01*
X1007399Y140850D01*
X1007530Y140822D01*
X1007634Y140813D01*
X1007671Y140803D01*
X1007728D01*
X1007897Y140813D01*
X1008056Y140850D01*
X1008197Y140897D01*
X1008310Y140954D01*
X1008404Y141001D01*
X1008479Y141048D01*
X1008517Y141085D01*
X1008536Y141095D01*
X1008649Y141226D01*
X1008743Y141377D01*
X1008827Y141536D01*
X1008893Y141706D01*
X1008940Y141847D01*
X1008959Y141912D01*
X1008968Y141969D01*
X1008977Y142016D01*
X1008987Y142053D01*
X1008996Y142072D01*
Y142081D01*
X1009795Y141978D01*
X1009776Y141828D01*
X1009748Y141687D01*
X1009663Y141424D01*
X1009560Y141198D01*
X1009504Y141104D01*
X1009447Y141010D01*
X1009391Y140926D01*
X1009334Y140860D01*
X1009287Y140794D01*
X1009241Y140747D01*
X1009212Y140709D01*
X1009184Y140681D01*
X1009165Y140662D01*
X1009156Y140653D01*
X1009043Y140568D01*
X1008930Y140484D01*
X1008818Y140418D01*
X1008696Y140362D01*
X1008460Y140268D01*
X1008235Y140211D01*
X1008132Y140192D01*
X1008038Y140174D01*
X1007953Y140164D01*
X1007878Y140155D01*
X1007822Y140146D01*
X1007737D01*
X1007558Y140155D01*
X1007399Y140174D01*
X1007239Y140202D01*
X1007088Y140239D01*
X1006947Y140287D01*
X1006825Y140333D01*
X1006703Y140390D01*
X1006600Y140446D01*
X1006496Y140493D01*
X1006412Y140550D01*
X1006337Y140597D01*
X1006280Y140644D01*
X1006233Y140681D01*
X1006196Y140709D01*
X1006177Y140728D01*
X1006167Y140738D01*
X1006055Y140850D01*
X1005961Y140972D01*
X1005876Y141095D01*
X1005801Y141217D01*
X1005744Y141330D01*
X1005688Y141452D01*
X1005613Y141677D01*
X1005594Y141781D01*
X1005575Y141875D01*
X1005556Y141959D01*
X1005547Y142035D01*
X1005538Y142091D01*
Y142138D01*
Y142166D01*
Y142176D01*
X1005547Y142401D01*
X1005585Y142608D01*
X1005641Y142786D01*
X1005697Y142937D01*
X1005754Y143059D01*
X1005810Y143153D01*
X1005848Y143209D01*
X1005857Y143228D01*
X1005989Y143369D01*
X1006130Y143491D01*
X1006280Y143585D01*
X1006431Y143660D01*
X1006562Y143717D01*
X1006665Y143754D01*
X1006703Y143764D01*
X1006731Y143773D01*
X1006750Y143783D01*
X1006759D01*
X1006600Y143867D01*
X1006468Y143952D01*
X1006355Y144046D01*
X1006261Y144130D01*
X1006186Y144206D01*
X1006130Y144271D01*
X1006102Y144309D01*
X1006092Y144328D01*
X1006017Y144459D01*
X1005961Y144591D01*
X1005914Y144722D01*
X1005885Y144845D01*
X1005867Y144948D01*
X1005857Y145023D01*
Y145079D01*
Y145098D01*
X1005867Y145258D01*
X1005895Y145418D01*
X1005932Y145559D01*
X1005979Y145681D01*
X1006026Y145784D01*
X1006064Y145869D01*
X1006092Y145916D01*
X1006102Y145935D01*
X1006196Y146076D01*
X1006308Y146198D01*
X1006421Y146301D01*
X1006534Y146395D01*
X1006628Y146461D01*
X1006712Y146517D01*
X1006769Y146546D01*
X1006778Y146555D01*
X1006788D01*
X1006957Y146630D01*
X1007126Y146686D01*
X1007295Y146734D01*
X1007446Y146762D01*
X1007568Y146781D01*
X1007671Y146790D01*
X1007906D01*
X1008038Y146771D01*
D02*
G37*
G36*
X1015575Y140258D02*
X1013094D01*
X1012868Y140268D01*
X1012671Y140277D01*
X1012492Y140296D01*
X1012342Y140315D01*
X1012220Y140333D01*
X1012126Y140343D01*
X1012069Y140362D01*
X1012051D01*
X1011891Y140409D01*
X1011759Y140456D01*
X1011637Y140512D01*
X1011534Y140568D01*
X1011449Y140606D01*
X1011383Y140644D01*
X1011346Y140672D01*
X1011336Y140681D01*
X1011233Y140766D01*
X1011139Y140869D01*
X1011064Y140972D01*
X1010989Y141067D01*
X1010932Y141160D01*
X1010895Y141226D01*
X1010866Y141273D01*
X1010857Y141292D01*
X1010791Y141442D01*
X1010744Y141593D01*
X1010707Y141734D01*
X1010688Y141865D01*
X1010669Y141978D01*
X1010660Y142072D01*
Y142128D01*
Y142138D01*
Y142147D01*
X1010669Y142354D01*
X1010707Y142542D01*
X1010763Y142702D01*
X1010819Y142852D01*
X1010876Y142965D01*
X1010932Y143049D01*
X1010970Y143106D01*
X1010979Y143125D01*
X1011111Y143275D01*
X1011252Y143397D01*
X1011412Y143501D01*
X1011553Y143585D01*
X1011684Y143651D01*
X1011797Y143689D01*
X1011834Y143707D01*
X1011863Y143717D01*
X1011881Y143726D01*
X1011891D01*
X1011731Y143820D01*
X1011590Y143914D01*
X1011477Y144017D01*
X1011383Y144111D01*
X1011308Y144187D01*
X1011252Y144262D01*
X1011224Y144299D01*
X1011214Y144318D01*
X1011139Y144459D01*
X1011083Y144591D01*
X1011036Y144722D01*
X1011007Y144845D01*
X1010989Y144948D01*
X1010979Y145033D01*
Y145079D01*
Y145098D01*
X1010989Y145258D01*
X1011017Y145418D01*
X1011064Y145559D01*
X1011111Y145690D01*
X1011158Y145803D01*
X1011205Y145878D01*
X1011233Y145935D01*
X1011242Y145954D01*
X1011346Y146094D01*
X1011459Y146226D01*
X1011581Y146329D01*
X1011693Y146414D01*
X1011787Y146480D01*
X1011872Y146527D01*
X1011928Y146555D01*
X1011938Y146564D01*
X1011947D01*
X1012126Y146630D01*
X1012323Y146677D01*
X1012521Y146715D01*
X1012708Y146734D01*
X1012878Y146752D01*
X1012953D01*
X1013018Y146762D01*
X1015575D01*
Y140258D01*
D02*
G37*
G36*
X1019606Y146865D02*
X1019823Y146837D01*
X1020030Y146799D01*
X1020208Y146762D01*
X1020349Y146724D01*
X1020415Y146705D01*
X1020462Y146686D01*
X1020499Y146668D01*
X1020527Y146658D01*
X1020546Y146649D01*
X1020556D01*
X1020744Y146555D01*
X1020913Y146452D01*
X1021054Y146339D01*
X1021167Y146235D01*
X1021251Y146141D01*
X1021317Y146066D01*
X1021364Y146010D01*
X1021373Y146000D01*
Y145991D01*
X1021467Y145831D01*
X1021533Y145672D01*
X1021580Y145512D01*
X1021608Y145371D01*
X1021627Y145249D01*
X1021646Y145155D01*
Y145117D01*
Y145089D01*
Y145079D01*
Y145070D01*
X1021637Y144910D01*
X1021608Y144760D01*
X1021571Y144619D01*
X1021533Y144497D01*
X1021496Y144403D01*
X1021458Y144328D01*
X1021430Y144281D01*
X1021420Y144262D01*
X1021326Y144130D01*
X1021214Y144008D01*
X1021101Y143905D01*
X1020988Y143820D01*
X1020894Y143745D01*
X1020809Y143698D01*
X1020753Y143660D01*
X1020744Y143651D01*
X1020734D01*
X1020659Y143613D01*
X1020574Y143576D01*
X1020387Y143510D01*
X1020170Y143444D01*
X1019964Y143378D01*
X1019776Y143322D01*
X1019691Y143303D01*
X1019616Y143284D01*
X1019560Y143266D01*
X1019513Y143256D01*
X1019484Y143247D01*
X1019475D01*
X1019315Y143209D01*
X1019165Y143172D01*
X1019033Y143134D01*
X1018921Y143106D01*
X1018808Y143078D01*
X1018714Y143049D01*
X1018629Y143031D01*
X1018563Y143003D01*
X1018498Y142984D01*
X1018451Y142974D01*
X1018375Y142946D01*
X1018328Y142937D01*
X1018319Y142927D01*
X1018178Y142871D01*
X1018056Y142805D01*
X1017952Y142739D01*
X1017877Y142683D01*
X1017812Y142627D01*
X1017774Y142589D01*
X1017746Y142561D01*
X1017736Y142551D01*
X1017671Y142467D01*
X1017624Y142373D01*
X1017595Y142279D01*
X1017567Y142204D01*
X1017558Y142128D01*
X1017548Y142072D01*
Y142025D01*
Y142016D01*
X1017558Y141903D01*
X1017577Y141800D01*
X1017605Y141706D01*
X1017642Y141630D01*
X1017680Y141555D01*
X1017708Y141508D01*
X1017727Y141471D01*
X1017736Y141461D01*
X1017812Y141367D01*
X1017906Y141292D01*
X1017999Y141226D01*
X1018084Y141160D01*
X1018169Y141123D01*
X1018234Y141085D01*
X1018281Y141067D01*
X1018300Y141057D01*
X1018441Y141010D01*
X1018592Y140972D01*
X1018742Y140954D01*
X1018874Y140935D01*
X1018986Y140926D01*
X1019080Y140916D01*
X1019165D01*
X1019372Y140926D01*
X1019560Y140944D01*
X1019729Y140972D01*
X1019879Y141010D01*
X1020001Y141048D01*
X1020095Y141076D01*
X1020123Y141085D01*
X1020152Y141095D01*
X1020161Y141104D01*
X1020170D01*
X1020321Y141179D01*
X1020462Y141264D01*
X1020565Y141348D01*
X1020659Y141433D01*
X1020734Y141499D01*
X1020781Y141565D01*
X1020809Y141602D01*
X1020819Y141612D01*
X1020885Y141734D01*
X1020950Y141865D01*
X1020988Y142006D01*
X1021026Y142128D01*
X1021054Y142251D01*
X1021073Y142335D01*
Y142373D01*
X1021082Y142401D01*
Y142410D01*
Y142420D01*
X1021890Y142345D01*
X1021871Y142110D01*
X1021834Y141884D01*
X1021777Y141687D01*
X1021712Y141508D01*
X1021646Y141367D01*
X1021618Y141311D01*
X1021599Y141264D01*
X1021571Y141226D01*
X1021561Y141198D01*
X1021543Y141179D01*
Y141170D01*
X1021402Y140991D01*
X1021251Y140832D01*
X1021091Y140700D01*
X1020941Y140587D01*
X1020809Y140503D01*
X1020697Y140446D01*
X1020659Y140428D01*
X1020631Y140409D01*
X1020612Y140399D01*
X1020603D01*
X1020368Y140315D01*
X1020123Y140249D01*
X1019879Y140211D01*
X1019644Y140174D01*
X1019531Y140164D01*
X1019437Y140155D01*
X1019353D01*
X1019278Y140146D01*
X1019127D01*
X1018874Y140155D01*
X1018639Y140183D01*
X1018422Y140230D01*
X1018244Y140277D01*
X1018093Y140315D01*
X1018028Y140343D01*
X1017971Y140362D01*
X1017934Y140380D01*
X1017906Y140390D01*
X1017887Y140399D01*
X1017877D01*
X1017680Y140503D01*
X1017511Y140615D01*
X1017360Y140738D01*
X1017238Y140850D01*
X1017144Y140944D01*
X1017078Y141029D01*
X1017031Y141085D01*
X1017022Y141095D01*
Y141104D01*
X1016919Y141283D01*
X1016843Y141452D01*
X1016796Y141612D01*
X1016759Y141762D01*
X1016740Y141894D01*
X1016721Y141997D01*
Y142035D01*
Y142063D01*
Y142072D01*
Y142081D01*
X1016731Y142269D01*
X1016759Y142448D01*
X1016806Y142608D01*
X1016853Y142739D01*
X1016909Y142852D01*
X1016947Y142937D01*
X1016984Y142984D01*
X1016994Y143003D01*
X1017107Y143144D01*
X1017238Y143275D01*
X1017379Y143388D01*
X1017520Y143491D01*
X1017642Y143566D01*
X1017746Y143623D01*
X1017783Y143642D01*
X1017812Y143660D01*
X1017830Y143670D01*
X1017840D01*
X1017915Y143707D01*
X1018009Y143736D01*
X1018112Y143773D01*
X1018225Y143811D01*
X1018460Y143876D01*
X1018704Y143942D01*
X1018817Y143970D01*
X1018921Y143999D01*
X1019024Y144027D01*
X1019109Y144046D01*
X1019174Y144065D01*
X1019231Y144074D01*
X1019268Y144083D01*
X1019278D01*
X1019466Y144130D01*
X1019635Y144168D01*
X1019785Y144215D01*
X1019917Y144252D01*
X1020039Y144299D01*
X1020142Y144337D01*
X1020236Y144375D01*
X1020321Y144403D01*
X1020387Y144440D01*
X1020443Y144469D01*
X1020481Y144487D01*
X1020518Y144516D01*
X1020565Y144544D01*
X1020574Y144553D01*
X1020659Y144647D01*
X1020715Y144741D01*
X1020762Y144835D01*
X1020791Y144929D01*
X1020809Y145004D01*
X1020819Y145070D01*
Y145108D01*
Y145126D01*
X1020800Y145277D01*
X1020762Y145408D01*
X1020706Y145521D01*
X1020640Y145625D01*
X1020584Y145700D01*
X1020527Y145765D01*
X1020490Y145803D01*
X1020471Y145813D01*
X1020396Y145859D01*
X1020321Y145906D01*
X1020142Y145982D01*
X1019954Y146029D01*
X1019766Y146066D01*
X1019597Y146085D01*
X1019522Y146094D01*
X1019466Y146104D01*
X1019334D01*
X1019071Y146094D01*
X1018836Y146057D01*
X1018648Y146000D01*
X1018488Y145944D01*
X1018366Y145888D01*
X1018272Y145831D01*
X1018225Y145794D01*
X1018206Y145784D01*
X1018075Y145653D01*
X1017971Y145512D01*
X1017887Y145361D01*
X1017830Y145211D01*
X1017793Y145070D01*
X1017765Y144967D01*
X1017755Y144920D01*
X1017746Y144892D01*
Y144873D01*
Y144863D01*
X1016919Y144929D01*
X1016937Y145136D01*
X1016984Y145324D01*
X1017031Y145502D01*
X1017097Y145653D01*
X1017154Y145775D01*
X1017201Y145869D01*
X1017219Y145897D01*
X1017238Y145925D01*
X1017248Y145935D01*
Y145944D01*
X1017370Y146104D01*
X1017501Y146245D01*
X1017642Y146367D01*
X1017783Y146461D01*
X1017906Y146546D01*
X1017999Y146593D01*
X1018037Y146611D01*
X1018065Y146630D01*
X1018084Y146639D01*
X1018093D01*
X1018300Y146715D01*
X1018526Y146771D01*
X1018733Y146818D01*
X1018930Y146846D01*
X1019109Y146865D01*
X1019174D01*
X1019240Y146875D01*
X1019362D01*
X1019606Y146865D01*
D02*
G37*
G36*
X1062907Y78709D02*
X1063066Y78699D01*
X1063217Y78671D01*
X1063358Y78643D01*
X1063489Y78605D01*
X1063611Y78568D01*
X1063724Y78520D01*
X1063828Y78474D01*
X1063922Y78427D01*
X1063997Y78380D01*
X1064062Y78342D01*
X1064119Y78304D01*
X1064166Y78276D01*
X1064194Y78248D01*
X1064213Y78239D01*
X1064222Y78229D01*
X1064316Y78135D01*
X1064401Y78032D01*
X1064485Y77919D01*
X1064551Y77806D01*
X1064664Y77581D01*
X1064739Y77355D01*
X1064767Y77252D01*
X1064796Y77148D01*
X1064814Y77064D01*
X1064833Y76989D01*
X1064843Y76923D01*
Y76876D01*
X1064852Y76848D01*
Y76838D01*
X1064034Y76754D01*
X1064016Y76970D01*
X1063978Y77158D01*
X1063922Y77327D01*
X1063856Y77459D01*
X1063799Y77571D01*
X1063743Y77646D01*
X1063705Y77694D01*
X1063687Y77712D01*
X1063546Y77825D01*
X1063395Y77910D01*
X1063235Y77976D01*
X1063094Y78013D01*
X1062963Y78041D01*
X1062850Y78051D01*
X1062813Y78060D01*
X1062756D01*
X1062559Y78051D01*
X1062380Y78013D01*
X1062230Y77957D01*
X1062098Y77900D01*
X1061995Y77835D01*
X1061929Y77787D01*
X1061882Y77750D01*
X1061863Y77731D01*
X1061751Y77600D01*
X1061666Y77468D01*
X1061600Y77336D01*
X1061563Y77205D01*
X1061535Y77101D01*
X1061525Y77007D01*
X1061516Y76951D01*
Y76942D01*
Y76932D01*
X1061535Y76763D01*
X1061572Y76585D01*
X1061638Y76425D01*
X1061704Y76274D01*
X1061779Y76152D01*
X1061845Y76049D01*
X1061863Y76011D01*
X1061882Y75983D01*
X1061901Y75974D01*
Y75964D01*
X1061976Y75861D01*
X1062070Y75757D01*
X1062173Y75645D01*
X1062286Y75532D01*
X1062521Y75306D01*
X1062756Y75081D01*
X1062878Y74977D01*
X1062982Y74883D01*
X1063085Y74799D01*
X1063170Y74724D01*
X1063235Y74667D01*
X1063292Y74620D01*
X1063329Y74592D01*
X1063339Y74583D01*
X1063574Y74385D01*
X1063790Y74198D01*
X1063969Y74028D01*
X1064109Y73887D01*
X1064232Y73765D01*
X1064316Y73681D01*
X1064363Y73624D01*
X1064382Y73615D01*
Y73605D01*
X1064514Y73446D01*
X1064617Y73295D01*
X1064711Y73145D01*
X1064786Y73013D01*
X1064843Y72901D01*
X1064880Y72816D01*
X1064899Y72760D01*
X1064908Y72750D01*
Y72741D01*
X1064946Y72637D01*
X1064965Y72543D01*
X1064984Y72449D01*
X1064993Y72365D01*
X1065002Y72290D01*
Y72233D01*
Y72196D01*
Y72186D01*
X1060689D01*
Y72957D01*
X1063893D01*
X1063781Y73117D01*
X1063724Y73183D01*
X1063677Y73248D01*
X1063630Y73305D01*
X1063593Y73342D01*
X1063564Y73370D01*
X1063555Y73380D01*
X1063508Y73427D01*
X1063452Y73474D01*
X1063320Y73596D01*
X1063170Y73737D01*
X1063010Y73878D01*
X1062860Y74000D01*
X1062794Y74057D01*
X1062737Y74113D01*
X1062690Y74151D01*
X1062653Y74179D01*
X1062634Y74198D01*
X1062625Y74207D01*
X1062474Y74338D01*
X1062324Y74461D01*
X1062192Y74583D01*
X1062070Y74686D01*
X1061957Y74790D01*
X1061863Y74883D01*
X1061769Y74968D01*
X1061694Y75043D01*
X1061619Y75118D01*
X1061563Y75175D01*
X1061516Y75222D01*
X1061469Y75269D01*
X1061422Y75325D01*
X1061403Y75344D01*
X1061271Y75504D01*
X1061159Y75645D01*
X1061065Y75786D01*
X1060989Y75898D01*
X1060933Y76002D01*
X1060895Y76077D01*
X1060877Y76124D01*
X1060867Y76143D01*
X1060811Y76284D01*
X1060773Y76425D01*
X1060736Y76556D01*
X1060717Y76669D01*
X1060707Y76772D01*
X1060698Y76848D01*
Y76895D01*
Y76913D01*
X1060707Y77055D01*
X1060726Y77186D01*
X1060745Y77318D01*
X1060783Y77430D01*
X1060877Y77656D01*
X1060971Y77835D01*
X1061027Y77919D01*
X1061074Y77985D01*
X1061121Y78051D01*
X1061168Y78098D01*
X1061206Y78135D01*
X1061224Y78173D01*
X1061243Y78182D01*
X1061253Y78192D01*
X1061356Y78286D01*
X1061469Y78370D01*
X1061591Y78436D01*
X1061713Y78492D01*
X1061957Y78586D01*
X1062202Y78652D01*
X1062305Y78671D01*
X1062409Y78690D01*
X1062502Y78699D01*
X1062578Y78709D01*
X1062643Y78718D01*
X1062737D01*
X1062907Y78709D01*
D02*
G37*
G36*
X1070660Y72186D02*
X1068179D01*
X1067953Y72196D01*
X1067756Y72205D01*
X1067577Y72224D01*
X1067427Y72243D01*
X1067305Y72262D01*
X1067211Y72271D01*
X1067154Y72290D01*
X1067136D01*
X1066976Y72337D01*
X1066844Y72384D01*
X1066722Y72440D01*
X1066619Y72496D01*
X1066534Y72534D01*
X1066468Y72572D01*
X1066431Y72600D01*
X1066421Y72609D01*
X1066318Y72694D01*
X1066224Y72797D01*
X1066149Y72901D01*
X1066074Y72994D01*
X1066017Y73088D01*
X1065980Y73154D01*
X1065952Y73201D01*
X1065942Y73220D01*
X1065876Y73370D01*
X1065829Y73521D01*
X1065792Y73662D01*
X1065773Y73793D01*
X1065754Y73906D01*
X1065745Y74000D01*
Y74057D01*
Y74066D01*
Y74075D01*
X1065754Y74282D01*
X1065792Y74470D01*
X1065848Y74630D01*
X1065904Y74780D01*
X1065961Y74893D01*
X1066017Y74977D01*
X1066055Y75034D01*
X1066064Y75053D01*
X1066196Y75203D01*
X1066337Y75325D01*
X1066497Y75429D01*
X1066638Y75513D01*
X1066769Y75579D01*
X1066882Y75617D01*
X1066919Y75635D01*
X1066948Y75645D01*
X1066966Y75654D01*
X1066976D01*
X1066816Y75748D01*
X1066675Y75842D01*
X1066562Y75946D01*
X1066468Y76040D01*
X1066393Y76115D01*
X1066337Y76190D01*
X1066309Y76227D01*
X1066299Y76246D01*
X1066224Y76387D01*
X1066168Y76519D01*
X1066121Y76650D01*
X1066093Y76772D01*
X1066074Y76876D01*
X1066064Y76961D01*
Y77007D01*
Y77026D01*
X1066074Y77186D01*
X1066102Y77346D01*
X1066149Y77487D01*
X1066196Y77618D01*
X1066243Y77731D01*
X1066290Y77806D01*
X1066318Y77863D01*
X1066327Y77881D01*
X1066431Y78022D01*
X1066544Y78154D01*
X1066666Y78257D01*
X1066778Y78342D01*
X1066872Y78408D01*
X1066957Y78455D01*
X1067013Y78483D01*
X1067023Y78492D01*
X1067032D01*
X1067211Y78558D01*
X1067408Y78605D01*
X1067606Y78643D01*
X1067794Y78661D01*
X1067963Y78680D01*
X1068038D01*
X1068104Y78690D01*
X1070660D01*
Y72186D01*
D02*
G37*
G36*
X1074692Y78793D02*
X1074908Y78765D01*
X1075115Y78727D01*
X1075293Y78690D01*
X1075434Y78652D01*
X1075500Y78633D01*
X1075547Y78615D01*
X1075584Y78596D01*
X1075613Y78586D01*
X1075631Y78577D01*
X1075641D01*
X1075829Y78483D01*
X1075998Y78380D01*
X1076139Y78267D01*
X1076252Y78163D01*
X1076336Y78069D01*
X1076402Y77994D01*
X1076449Y77938D01*
X1076459Y77929D01*
Y77919D01*
X1076553Y77759D01*
X1076618Y77600D01*
X1076665Y77440D01*
X1076693Y77299D01*
X1076712Y77177D01*
X1076731Y77083D01*
Y77045D01*
Y77017D01*
Y77007D01*
Y76998D01*
X1076722Y76838D01*
X1076693Y76688D01*
X1076656Y76547D01*
X1076618Y76425D01*
X1076581Y76331D01*
X1076543Y76256D01*
X1076515Y76209D01*
X1076506Y76190D01*
X1076412Y76058D01*
X1076299Y75936D01*
X1076186Y75833D01*
X1076073Y75748D01*
X1075979Y75673D01*
X1075895Y75626D01*
X1075838Y75588D01*
X1075829Y75579D01*
X1075819D01*
X1075744Y75541D01*
X1075660Y75504D01*
X1075472Y75438D01*
X1075256Y75372D01*
X1075049Y75306D01*
X1074861Y75250D01*
X1074776Y75231D01*
X1074701Y75212D01*
X1074645Y75194D01*
X1074598Y75184D01*
X1074569Y75175D01*
X1074560D01*
X1074400Y75137D01*
X1074250Y75100D01*
X1074118Y75062D01*
X1074006Y75034D01*
X1073893Y75006D01*
X1073799Y74977D01*
X1073714Y74959D01*
X1073649Y74931D01*
X1073583Y74912D01*
X1073536Y74902D01*
X1073460Y74874D01*
X1073413Y74865D01*
X1073404Y74855D01*
X1073263Y74799D01*
X1073141Y74733D01*
X1073038Y74667D01*
X1072962Y74611D01*
X1072897Y74555D01*
X1072859Y74517D01*
X1072831Y74489D01*
X1072822Y74479D01*
X1072756Y74395D01*
X1072709Y74301D01*
X1072681Y74207D01*
X1072652Y74132D01*
X1072643Y74057D01*
X1072634Y74000D01*
Y73953D01*
Y73944D01*
X1072643Y73831D01*
X1072662Y73728D01*
X1072690Y73634D01*
X1072728Y73558D01*
X1072765Y73483D01*
X1072793Y73436D01*
X1072812Y73399D01*
X1072822Y73389D01*
X1072897Y73295D01*
X1072991Y73220D01*
X1073085Y73154D01*
X1073169Y73088D01*
X1073254Y73051D01*
X1073319Y73013D01*
X1073366Y72994D01*
X1073385Y72985D01*
X1073526Y72938D01*
X1073677Y72901D01*
X1073827Y72882D01*
X1073959Y72863D01*
X1074071Y72854D01*
X1074165Y72844D01*
X1074250D01*
X1074457Y72854D01*
X1074645Y72872D01*
X1074814Y72901D01*
X1074964Y72938D01*
X1075086Y72976D01*
X1075180Y73004D01*
X1075209Y73013D01*
X1075237Y73023D01*
X1075246Y73032D01*
X1075256D01*
X1075406Y73107D01*
X1075547Y73192D01*
X1075650Y73277D01*
X1075744Y73361D01*
X1075819Y73427D01*
X1075866Y73493D01*
X1075895Y73530D01*
X1075904Y73540D01*
X1075970Y73662D01*
X1076036Y73793D01*
X1076073Y73934D01*
X1076111Y74057D01*
X1076139Y74179D01*
X1076158Y74263D01*
Y74301D01*
X1076167Y74329D01*
Y74338D01*
Y74348D01*
X1076975Y74273D01*
X1076957Y74038D01*
X1076919Y73812D01*
X1076863Y73615D01*
X1076797Y73436D01*
X1076731Y73295D01*
X1076703Y73239D01*
X1076684Y73192D01*
X1076656Y73154D01*
X1076646Y73126D01*
X1076628Y73107D01*
Y73098D01*
X1076487Y72919D01*
X1076336Y72760D01*
X1076177Y72628D01*
X1076026Y72515D01*
X1075895Y72431D01*
X1075782Y72374D01*
X1075744Y72355D01*
X1075716Y72337D01*
X1075697Y72327D01*
X1075688D01*
X1075453Y72243D01*
X1075209Y72177D01*
X1074964Y72139D01*
X1074729Y72102D01*
X1074616Y72092D01*
X1074522Y72083D01*
X1074438D01*
X1074363Y72073D01*
X1074212D01*
X1073959Y72083D01*
X1073724Y72111D01*
X1073508Y72158D01*
X1073329Y72205D01*
X1073179Y72243D01*
X1073113Y72271D01*
X1073056Y72290D01*
X1073019Y72309D01*
X1072991Y72318D01*
X1072972Y72327D01*
X1072962D01*
X1072765Y72431D01*
X1072596Y72543D01*
X1072446Y72666D01*
X1072323Y72778D01*
X1072229Y72872D01*
X1072164Y72957D01*
X1072117Y73013D01*
X1072107Y73023D01*
Y73032D01*
X1072004Y73211D01*
X1071929Y73380D01*
X1071882Y73540D01*
X1071844Y73690D01*
X1071825Y73822D01*
X1071806Y73925D01*
Y73962D01*
Y73991D01*
Y74000D01*
Y74009D01*
X1071816Y74198D01*
X1071844Y74376D01*
X1071891Y74536D01*
X1071938Y74667D01*
X1071994Y74780D01*
X1072032Y74865D01*
X1072070Y74912D01*
X1072079Y74931D01*
X1072192Y75072D01*
X1072323Y75203D01*
X1072464Y75316D01*
X1072605Y75419D01*
X1072728Y75494D01*
X1072831Y75551D01*
X1072868Y75570D01*
X1072897Y75588D01*
X1072915Y75598D01*
X1072925D01*
X1073000Y75635D01*
X1073094Y75664D01*
X1073197Y75701D01*
X1073310Y75739D01*
X1073545Y75805D01*
X1073789Y75870D01*
X1073902Y75898D01*
X1074006Y75927D01*
X1074109Y75955D01*
X1074194Y75974D01*
X1074259Y75992D01*
X1074316Y76002D01*
X1074353Y76011D01*
X1074363D01*
X1074551Y76058D01*
X1074720Y76096D01*
X1074870Y76143D01*
X1075002Y76180D01*
X1075124Y76227D01*
X1075227Y76265D01*
X1075321Y76303D01*
X1075406Y76331D01*
X1075472Y76368D01*
X1075528Y76397D01*
X1075566Y76415D01*
X1075603Y76444D01*
X1075650Y76472D01*
X1075660Y76481D01*
X1075744Y76575D01*
X1075801Y76669D01*
X1075848Y76763D01*
X1075876Y76857D01*
X1075895Y76932D01*
X1075904Y76998D01*
Y77036D01*
Y77055D01*
X1075885Y77205D01*
X1075848Y77336D01*
X1075791Y77449D01*
X1075725Y77553D01*
X1075669Y77628D01*
X1075613Y77694D01*
X1075575Y77731D01*
X1075556Y77741D01*
X1075481Y77787D01*
X1075406Y77835D01*
X1075227Y77910D01*
X1075039Y77957D01*
X1074851Y77994D01*
X1074682Y78013D01*
X1074607Y78022D01*
X1074551Y78032D01*
X1074419D01*
X1074156Y78022D01*
X1073921Y77985D01*
X1073733Y77929D01*
X1073573Y77872D01*
X1073451Y77816D01*
X1073357Y77759D01*
X1073310Y77722D01*
X1073291Y77712D01*
X1073160Y77581D01*
X1073056Y77440D01*
X1072972Y77289D01*
X1072915Y77139D01*
X1072878Y76998D01*
X1072850Y76895D01*
X1072840Y76848D01*
X1072831Y76820D01*
Y76801D01*
Y76791D01*
X1072004Y76857D01*
X1072023Y77064D01*
X1072070Y77252D01*
X1072117Y77430D01*
X1072182Y77581D01*
X1072239Y77703D01*
X1072286Y77797D01*
X1072305Y77825D01*
X1072323Y77853D01*
X1072333Y77863D01*
Y77872D01*
X1072455Y78032D01*
X1072587Y78173D01*
X1072728Y78295D01*
X1072868Y78389D01*
X1072991Y78474D01*
X1073085Y78520D01*
X1073122Y78539D01*
X1073150Y78558D01*
X1073169Y78568D01*
X1073179D01*
X1073385Y78643D01*
X1073611Y78699D01*
X1073818Y78746D01*
X1074015Y78774D01*
X1074194Y78793D01*
X1074259D01*
X1074325Y78802D01*
X1074447D01*
X1074692Y78793D01*
D02*
G37*
G36*
X312497Y269789D02*
X312722Y269751D01*
X312920Y269695D01*
X313098Y269629D01*
X313239Y269564D01*
X313295Y269535D01*
X313342Y269517D01*
X313380Y269488D01*
X313408Y269479D01*
X313427Y269460D01*
X313437D01*
X313615Y269319D01*
X313775Y269169D01*
X313906Y269009D01*
X314019Y268859D01*
X314104Y268727D01*
X314160Y268614D01*
X314179Y268577D01*
X314198Y268549D01*
X314207Y268530D01*
Y268520D01*
X314292Y268285D01*
X314357Y268041D01*
X314395Y267797D01*
X314433Y267562D01*
X314442Y267449D01*
X314451Y267355D01*
Y267270D01*
X314461Y267195D01*
Y267045D01*
X314451Y266791D01*
X314423Y266556D01*
X314376Y266340D01*
X314329Y266161D01*
X314292Y266011D01*
X314263Y265945D01*
X314245Y265889D01*
X314226Y265851D01*
X314216Y265823D01*
X314207Y265804D01*
Y265795D01*
X314104Y265597D01*
X313991Y265428D01*
X313869Y265278D01*
X313756Y265156D01*
X313662Y265062D01*
X313577Y264996D01*
X313521Y264949D01*
X313512Y264940D01*
X313502D01*
X313324Y264836D01*
X313155Y264761D01*
X312995Y264714D01*
X312844Y264676D01*
X312713Y264658D01*
X312609Y264639D01*
X312572D01*
X312544D01*
X312534D01*
X312525D01*
X312337Y264648D01*
X312158Y264676D01*
X311999Y264723D01*
X311867Y264771D01*
X311754Y264827D01*
X311670Y264865D01*
X311623Y264902D01*
X311604Y264911D01*
X311463Y265024D01*
X311331Y265156D01*
X311218Y265297D01*
X311115Y265438D01*
X311040Y265560D01*
X310984Y265663D01*
X310965Y265701D01*
X310946Y265729D01*
X310937Y265748D01*
Y265757D01*
X310899Y265833D01*
X310871Y265926D01*
X310833Y266030D01*
X310796Y266143D01*
X310730Y266378D01*
X310664Y266622D01*
X310636Y266735D01*
X310608Y266838D01*
X310579Y266942D01*
X310561Y267026D01*
X310542Y267092D01*
X310532Y267148D01*
X310523Y267186D01*
Y267195D01*
X310476Y267383D01*
X310438Y267552D01*
X310392Y267703D01*
X310354Y267834D01*
X310307Y267956D01*
X310269Y268060D01*
X310232Y268154D01*
X310203Y268238D01*
X310166Y268304D01*
X310138Y268361D01*
X310119Y268398D01*
X310091Y268436D01*
X310063Y268483D01*
X310053Y268492D01*
X309959Y268577D01*
X309865Y268633D01*
X309771Y268680D01*
X309677Y268708D01*
X309602Y268727D01*
X309536Y268736D01*
X309499D01*
X309480D01*
X309329Y268718D01*
X309198Y268680D01*
X309085Y268624D01*
X308982Y268558D01*
X308907Y268501D01*
X308841Y268445D01*
X308803Y268407D01*
X308794Y268389D01*
X308747Y268314D01*
X308700Y268238D01*
X308625Y268060D01*
X308578Y267872D01*
X308540Y267684D01*
X308521Y267515D01*
X308512Y267439D01*
X308503Y267383D01*
Y267252D01*
X308512Y266988D01*
X308549Y266754D01*
X308606Y266565D01*
X308662Y266406D01*
X308719Y266284D01*
X308775Y266190D01*
X308813Y266143D01*
X308822Y266124D01*
X308954Y265992D01*
X309095Y265889D01*
X309245Y265804D01*
X309395Y265748D01*
X309536Y265710D01*
X309640Y265682D01*
X309687Y265673D01*
X309715Y265663D01*
X309734D01*
X309743D01*
X309677Y264836D01*
X309471Y264855D01*
X309282Y264902D01*
X309104Y264949D01*
X308954Y265015D01*
X308831Y265071D01*
X308738Y265118D01*
X308709Y265137D01*
X308681Y265156D01*
X308672Y265165D01*
X308662D01*
X308503Y265287D01*
X308361Y265419D01*
X308239Y265560D01*
X308145Y265701D01*
X308061Y265823D01*
X308014Y265917D01*
X307995Y265955D01*
X307976Y265983D01*
X307967Y266002D01*
Y266011D01*
X307892Y266218D01*
X307835Y266443D01*
X307788Y266650D01*
X307760Y266847D01*
X307741Y267026D01*
Y267092D01*
X307732Y267158D01*
Y267280D01*
X307741Y267524D01*
X307770Y267740D01*
X307807Y267947D01*
X307845Y268126D01*
X307882Y268267D01*
X307901Y268332D01*
X307920Y268379D01*
X307939Y268417D01*
X307948Y268445D01*
X307957Y268464D01*
Y268473D01*
X308051Y268661D01*
X308155Y268831D01*
X308268Y268971D01*
X308371Y269084D01*
X308465Y269169D01*
X308540Y269235D01*
X308596Y269282D01*
X308606Y269291D01*
X308615D01*
X308775Y269385D01*
X308935Y269451D01*
X309095Y269498D01*
X309236Y269526D01*
X309358Y269545D01*
X309452Y269564D01*
X309489D01*
X309517D01*
X309527D01*
X309536D01*
X309696Y269554D01*
X309846Y269526D01*
X309987Y269488D01*
X310110Y269451D01*
X310203Y269413D01*
X310279Y269375D01*
X310326Y269347D01*
X310345Y269338D01*
X310476Y269244D01*
X310598Y269131D01*
X310702Y269018D01*
X310786Y268906D01*
X310861Y268812D01*
X310908Y268727D01*
X310946Y268671D01*
X310955Y268661D01*
Y268652D01*
X310993Y268577D01*
X311031Y268492D01*
X311096Y268304D01*
X311162Y268088D01*
X311228Y267881D01*
X311284Y267693D01*
X311303Y267609D01*
X311322Y267533D01*
X311341Y267477D01*
X311350Y267430D01*
X311360Y267402D01*
Y267393D01*
X311397Y267233D01*
X311435Y267082D01*
X311472Y266951D01*
X311500Y266838D01*
X311529Y266725D01*
X311557Y266631D01*
X311576Y266547D01*
X311604Y266481D01*
X311623Y266415D01*
X311632Y266368D01*
X311660Y266293D01*
X311670Y266246D01*
X311679Y266237D01*
X311735Y266096D01*
X311801Y265973D01*
X311867Y265870D01*
X311923Y265795D01*
X311980Y265729D01*
X312017Y265692D01*
X312046Y265663D01*
X312055Y265654D01*
X312139Y265588D01*
X312234Y265541D01*
X312327Y265513D01*
X312403Y265485D01*
X312478Y265475D01*
X312534Y265466D01*
X312581D01*
X312591D01*
X312703Y265475D01*
X312807Y265494D01*
X312901Y265522D01*
X312976Y265560D01*
X313051Y265597D01*
X313098Y265626D01*
X313136Y265644D01*
X313145Y265654D01*
X313239Y265729D01*
X313314Y265823D01*
X313380Y265917D01*
X313446Y266002D01*
X313483Y266086D01*
X313521Y266152D01*
X313540Y266199D01*
X313549Y266218D01*
X313596Y266359D01*
X313634Y266509D01*
X313653Y266660D01*
X313671Y266791D01*
X313681Y266904D01*
X313690Y266998D01*
Y267082D01*
X313681Y267289D01*
X313662Y267477D01*
X313634Y267646D01*
X313596Y267797D01*
X313559Y267919D01*
X313530Y268013D01*
X313521Y268041D01*
X313512Y268069D01*
X313502Y268079D01*
Y268088D01*
X313427Y268238D01*
X313342Y268379D01*
X313258Y268483D01*
X313173Y268577D01*
X313107Y268652D01*
X313042Y268699D01*
X313004Y268727D01*
X312995Y268736D01*
X312873Y268802D01*
X312741Y268868D01*
X312600Y268906D01*
X312478Y268943D01*
X312356Y268971D01*
X312271Y268990D01*
X312234D01*
X312205Y269000D01*
X312196D01*
X312187D01*
X312262Y269808D01*
X312497Y269789D01*
D02*
G37*
G36*
X314348Y261011D02*
X314339Y260786D01*
X314329Y260588D01*
X314310Y260410D01*
X314292Y260259D01*
X314273Y260137D01*
X314263Y260043D01*
X314245Y259987D01*
Y259968D01*
X314198Y259808D01*
X314151Y259677D01*
X314094Y259555D01*
X314038Y259451D01*
X314000Y259367D01*
X313963Y259301D01*
X313935Y259263D01*
X313925Y259254D01*
X313841Y259151D01*
X313737Y259056D01*
X313634Y258981D01*
X313540Y258906D01*
X313446Y258850D01*
X313380Y258812D01*
X313333Y258784D01*
X313314Y258775D01*
X313164Y258709D01*
X313013Y258662D01*
X312873Y258624D01*
X312741Y258605D01*
X312628Y258587D01*
X312534Y258577D01*
X312478D01*
X312468D01*
X312459D01*
X312252Y258587D01*
X312064Y258624D01*
X311905Y258681D01*
X311754Y258737D01*
X311641Y258793D01*
X311557Y258850D01*
X311500Y258887D01*
X311482Y258897D01*
X311331Y259028D01*
X311209Y259169D01*
X311106Y259329D01*
X311021Y259470D01*
X310955Y259602D01*
X310918Y259714D01*
X310899Y259752D01*
X310890Y259780D01*
X310880Y259799D01*
Y259808D01*
X310786Y259649D01*
X310692Y259508D01*
X310589Y259395D01*
X310495Y259301D01*
X310420Y259226D01*
X310345Y259169D01*
X310307Y259141D01*
X310288Y259132D01*
X310147Y259056D01*
X310016Y259000D01*
X309884Y258953D01*
X309762Y258925D01*
X309659Y258906D01*
X309574Y258897D01*
X309527D01*
X309508D01*
X309348Y258906D01*
X309189Y258934D01*
X309048Y258981D01*
X308916Y259028D01*
X308803Y259075D01*
X308728Y259122D01*
X308672Y259151D01*
X308653Y259160D01*
X308512Y259263D01*
X308380Y259376D01*
X308277Y259498D01*
X308192Y259611D01*
X308127Y259705D01*
X308080Y259790D01*
X308051Y259846D01*
X308042Y259855D01*
Y259865D01*
X307976Y260043D01*
X307929Y260241D01*
X307892Y260438D01*
X307873Y260626D01*
X307854Y260795D01*
Y260870D01*
X307845Y260936D01*
Y263492D01*
X314348D01*
Y261011D01*
D02*
G37*
G36*
X310166Y256970D02*
X310100Y256829D01*
X310034Y256688D01*
X309969Y256557D01*
X309912Y256444D01*
X309865Y256350D01*
X309828Y256294D01*
X309818Y256284D01*
Y256275D01*
X309715Y256106D01*
X309611Y255955D01*
X309517Y255824D01*
X309433Y255720D01*
X309367Y255626D01*
X309311Y255570D01*
X309273Y255523D01*
X309264Y255513D01*
X314348D01*
Y254715D01*
X307817D01*
Y255231D01*
X307976Y255326D01*
X308127Y255429D01*
X308277Y255551D01*
X308409Y255664D01*
X308521Y255777D01*
X308615Y255861D01*
X308643Y255899D01*
X308672Y255927D01*
X308681Y255936D01*
X308690Y255946D01*
X308850Y256143D01*
X309001Y256341D01*
X309132Y256528D01*
X309236Y256716D01*
X309329Y256876D01*
X309367Y256942D01*
X309395Y256998D01*
X309424Y257045D01*
X309433Y257083D01*
X309452Y257102D01*
Y257111D01*
X310222D01*
X310166Y256970D01*
D02*
G37*
G36*
X443653Y496867D02*
Y496679D01*
X443643Y496500D01*
X443634Y496331D01*
X443615Y496171D01*
X443596Y496030D01*
X443578Y495899D01*
X443549Y495777D01*
X443531Y495664D01*
X443512Y495560D01*
X443484Y495476D01*
X443465Y495401D01*
X443446Y495344D01*
X443427Y495297D01*
X443418Y495260D01*
X443408Y495241D01*
Y495232D01*
X443305Y495025D01*
X443173Y494837D01*
X443042Y494687D01*
X442901Y494555D01*
X442779Y494451D01*
X442675Y494376D01*
X442638Y494357D01*
X442610Y494339D01*
X442591Y494320D01*
X442581D01*
X442346Y494217D01*
X442102Y494141D01*
X441848Y494085D01*
X441613Y494047D01*
X441510Y494038D01*
X441407Y494029D01*
X441313Y494019D01*
X441237D01*
X441172Y494010D01*
X441087D01*
X440749Y494029D01*
X440598Y494047D01*
X440457Y494066D01*
X440317Y494094D01*
X440194Y494123D01*
X440081Y494151D01*
X439978Y494188D01*
X439884Y494226D01*
X439809Y494254D01*
X439734Y494282D01*
X439677Y494310D01*
X439630Y494339D01*
X439602Y494348D01*
X439583Y494367D01*
X439574D01*
X439367Y494508D01*
X439198Y494668D01*
X439067Y494818D01*
X438954Y494968D01*
X438869Y495100D01*
X438813Y495203D01*
X438794Y495241D01*
X438775Y495269D01*
X438766Y495288D01*
Y495297D01*
X438728Y495410D01*
X438691Y495532D01*
X438634Y495786D01*
X438597Y496049D01*
X438568Y496303D01*
X438559Y496416D01*
X438550Y496529D01*
Y496623D01*
X438540Y496707D01*
Y496773D01*
Y496820D01*
Y496857D01*
Y496867D01*
Y500626D01*
X439405D01*
Y496867D01*
Y496651D01*
X439424Y496444D01*
X439442Y496265D01*
X439471Y496096D01*
X439499Y495946D01*
X439537Y495805D01*
X439565Y495683D01*
X439602Y495579D01*
X439640Y495495D01*
X439677Y495410D01*
X439715Y495354D01*
X439743Y495297D01*
X439771Y495260D01*
X439790Y495232D01*
X439800Y495222D01*
X439809Y495213D01*
X439894Y495138D01*
X439988Y495072D01*
X440194Y494968D01*
X440410Y494893D01*
X440636Y494846D01*
X440843Y494809D01*
X440927Y494799D01*
X441012D01*
X441068Y494790D01*
X441162D01*
X441360Y494799D01*
X441538Y494827D01*
X441707Y494856D01*
X441839Y494903D01*
X441952Y494940D01*
X442036Y494968D01*
X442083Y494997D01*
X442102Y495006D01*
X442234Y495091D01*
X442346Y495194D01*
X442440Y495297D01*
X442506Y495391D01*
X442563Y495485D01*
X442610Y495551D01*
X442628Y495598D01*
X442638Y495617D01*
X442666Y495701D01*
X442685Y495786D01*
X442722Y495983D01*
X442751Y496190D01*
X442769Y496397D01*
X442779Y496576D01*
Y496660D01*
X442788Y496726D01*
Y496782D01*
Y496829D01*
Y496857D01*
Y496867D01*
Y500626D01*
X443653D01*
Y496867D01*
D02*
G37*
G36*
X435467Y500645D02*
X435617Y500635D01*
X435881Y500579D01*
X436003Y500541D01*
X436116Y500504D01*
X436219Y500457D01*
X436313Y500410D01*
X436388Y500363D01*
X436463Y500316D01*
X436529Y500278D01*
X436576Y500241D01*
X436614Y500213D01*
X436642Y500184D01*
X436661Y500175D01*
X436670Y500165D01*
X436755Y500071D01*
X436839Y499977D01*
X436905Y499874D01*
X436961Y499771D01*
X437055Y499573D01*
X437112Y499385D01*
X437149Y499226D01*
X437159Y499151D01*
X437168Y499094D01*
X437178Y499038D01*
Y499000D01*
Y498981D01*
Y498972D01*
X437168Y498803D01*
X437140Y498643D01*
X437102Y498502D01*
X437055Y498380D01*
X437018Y498286D01*
X436980Y498211D01*
X436952Y498173D01*
X436943Y498154D01*
X436839Y498041D01*
X436726Y497938D01*
X436604Y497844D01*
X436482Y497769D01*
X436369Y497713D01*
X436285Y497675D01*
X436247Y497656D01*
X436219Y497647D01*
X436210Y497637D01*
X436200D01*
X436416Y497572D01*
X436595Y497487D01*
X436755Y497384D01*
X436886Y497290D01*
X436990Y497196D01*
X437065Y497121D01*
X437102Y497074D01*
X437121Y497064D01*
Y497055D01*
X437225Y496886D01*
X437309Y496707D01*
X437365Y496538D01*
X437403Y496369D01*
X437422Y496218D01*
X437431Y496153D01*
Y496096D01*
X437441Y496059D01*
Y496021D01*
Y496002D01*
Y495993D01*
X437431Y495842D01*
X437412Y495692D01*
X437384Y495551D01*
X437347Y495410D01*
X437253Y495175D01*
X437206Y495062D01*
X437149Y494968D01*
X437093Y494874D01*
X437046Y494799D01*
X436990Y494734D01*
X436952Y494677D01*
X436914Y494630D01*
X436886Y494602D01*
X436867Y494583D01*
X436858Y494574D01*
X436745Y494470D01*
X436623Y494386D01*
X436492Y494310D01*
X436360Y494245D01*
X436238Y494198D01*
X436106Y494151D01*
X435852Y494085D01*
X435740Y494057D01*
X435636Y494038D01*
X435542Y494029D01*
X435458Y494019D01*
X435392Y494010D01*
X435298D01*
X435119Y494019D01*
X434960Y494038D01*
X434800Y494066D01*
X434650Y494094D01*
X434518Y494141D01*
X434386Y494188D01*
X434264Y494235D01*
X434161Y494292D01*
X434067Y494348D01*
X433982Y494395D01*
X433917Y494442D01*
X433851Y494489D01*
X433804Y494517D01*
X433775Y494546D01*
X433757Y494564D01*
X433747Y494574D01*
X433644Y494687D01*
X433550Y494799D01*
X433475Y494912D01*
X433409Y495034D01*
X433343Y495147D01*
X433296Y495269D01*
X433230Y495485D01*
X433202Y495589D01*
X433183Y495683D01*
X433174Y495767D01*
X433165Y495833D01*
X433155Y495889D01*
Y495936D01*
Y495965D01*
Y495974D01*
X433165Y496190D01*
X433202Y496387D01*
X433259Y496566D01*
X433315Y496716D01*
X433371Y496839D01*
X433428Y496933D01*
X433465Y496989D01*
X433475Y496998D01*
Y497008D01*
X433606Y497158D01*
X433747Y497290D01*
X433898Y497393D01*
X434039Y497487D01*
X434170Y497553D01*
X434283Y497600D01*
X434321Y497619D01*
X434349Y497628D01*
X434368Y497637D01*
X434377D01*
X434208Y497713D01*
X434067Y497797D01*
X433945Y497882D01*
X433841Y497966D01*
X433766Y498041D01*
X433710Y498098D01*
X433672Y498135D01*
X433663Y498154D01*
X433578Y498286D01*
X433522Y498418D01*
X433475Y498549D01*
X433447Y498681D01*
X433428Y498784D01*
X433418Y498869D01*
Y498925D01*
Y498934D01*
Y498944D01*
X433428Y499075D01*
X433437Y499198D01*
X433503Y499432D01*
X433587Y499639D01*
X433681Y499818D01*
X433775Y499959D01*
X433823Y500015D01*
X433860Y500071D01*
X433898Y500109D01*
X433926Y500137D01*
X433935Y500147D01*
X433945Y500156D01*
X434048Y500241D01*
X434151Y500325D01*
X434264Y500391D01*
X434377Y500447D01*
X434603Y500532D01*
X434828Y500588D01*
X434922Y500617D01*
X435016Y500626D01*
X435101Y500635D01*
X435176Y500645D01*
X435232Y500654D01*
X435317D01*
X435467Y500645D01*
D02*
G37*
G36*
X555394Y497897D02*
Y497709D01*
X555385Y497530D01*
X555375Y497361D01*
X555356Y497201D01*
X555338Y497061D01*
X555319Y496929D01*
X555291Y496807D01*
X555272Y496694D01*
X555253Y496591D01*
X555225Y496506D01*
X555206Y496431D01*
X555187Y496374D01*
X555168Y496327D01*
X555159Y496290D01*
X555150Y496271D01*
Y496262D01*
X555046Y496055D01*
X554915Y495867D01*
X554783Y495717D01*
X554642Y495585D01*
X554520Y495482D01*
X554417Y495406D01*
X554379Y495388D01*
X554351Y495369D01*
X554332Y495350D01*
X554323D01*
X554088Y495247D01*
X553843Y495172D01*
X553590Y495115D01*
X553355Y495078D01*
X553251Y495068D01*
X553148Y495059D01*
X553054Y495049D01*
X552979D01*
X552913Y495040D01*
X552828D01*
X552490Y495059D01*
X552340Y495078D01*
X552199Y495096D01*
X552058Y495125D01*
X551936Y495153D01*
X551823Y495181D01*
X551719Y495219D01*
X551625Y495256D01*
X551550Y495284D01*
X551475Y495312D01*
X551419Y495341D01*
X551372Y495369D01*
X551343Y495378D01*
X551325Y495397D01*
X551315D01*
X551109Y495538D01*
X550939Y495698D01*
X550808Y495848D01*
X550695Y495998D01*
X550610Y496130D01*
X550554Y496233D01*
X550535Y496271D01*
X550516Y496299D01*
X550507Y496318D01*
Y496327D01*
X550469Y496440D01*
X550432Y496562D01*
X550376Y496816D01*
X550338Y497079D01*
X550310Y497333D01*
X550300Y497446D01*
X550291Y497559D01*
Y497653D01*
X550281Y497737D01*
Y497803D01*
Y497850D01*
Y497887D01*
Y497897D01*
Y501656D01*
X551146D01*
Y497897D01*
Y497681D01*
X551165Y497474D01*
X551184Y497295D01*
X551212Y497126D01*
X551240Y496976D01*
X551278Y496835D01*
X551306Y496713D01*
X551343Y496609D01*
X551381Y496525D01*
X551419Y496440D01*
X551456Y496384D01*
X551484Y496327D01*
X551513Y496290D01*
X551531Y496262D01*
X551541Y496252D01*
X551550Y496243D01*
X551635Y496168D01*
X551729Y496102D01*
X551936Y495998D01*
X552152Y495923D01*
X552377Y495876D01*
X552584Y495839D01*
X552669Y495829D01*
X552753D01*
X552809Y495820D01*
X552904D01*
X553101Y495829D01*
X553279Y495858D01*
X553449Y495886D01*
X553580Y495933D01*
X553693Y495970D01*
X553778Y495998D01*
X553825Y496027D01*
X553843Y496036D01*
X553975Y496121D01*
X554088Y496224D01*
X554182Y496327D01*
X554247Y496421D01*
X554304Y496515D01*
X554351Y496581D01*
X554370Y496628D01*
X554379Y496647D01*
X554407Y496731D01*
X554426Y496816D01*
X554464Y497014D01*
X554492Y497220D01*
X554511Y497427D01*
X554520Y497606D01*
Y497690D01*
X554529Y497756D01*
Y497812D01*
Y497859D01*
Y497887D01*
Y497897D01*
Y501656D01*
X555394D01*
Y497897D01*
D02*
G37*
G36*
X549445Y497446D02*
Y496713D01*
X546616D01*
Y495153D01*
X545817D01*
Y496713D01*
X544934D01*
Y497446D01*
X545817D01*
Y501656D01*
X546466D01*
X549445Y497446D01*
D02*
G37*
G36*
X441867Y547420D02*
X438982D01*
Y546311D01*
X438992Y546207D01*
Y546132D01*
X439001Y546066D01*
X439010Y546019D01*
Y545982D01*
X439020Y545963D01*
Y545953D01*
X439067Y545803D01*
X439095Y545737D01*
X439123Y545681D01*
X439151Y545625D01*
X439170Y545587D01*
X439180Y545568D01*
X439189Y545559D01*
X439245Y545484D01*
X439311Y545408D01*
X439452Y545267D01*
X439518Y545202D01*
X439574Y545155D01*
X439612Y545126D01*
X439621Y545117D01*
X439753Y545023D01*
X439894Y544920D01*
X440044Y544816D01*
X440185Y544713D01*
X440317Y544628D01*
X440420Y544562D01*
X440458Y544534D01*
X440486Y544515D01*
X440505Y544497D01*
X440514D01*
X441867Y543642D01*
Y542570D01*
X440101Y543689D01*
X439913Y543820D01*
X439743Y543942D01*
X439603Y544064D01*
X439471Y544168D01*
X439377Y544262D01*
X439302Y544337D01*
X439255Y544384D01*
X439236Y544403D01*
X439180Y544478D01*
X439114Y544562D01*
X439010Y544732D01*
X438973Y544807D01*
X438935Y544863D01*
X438916Y544901D01*
X438907Y544920D01*
X438879Y544751D01*
X438851Y544591D01*
X438804Y544450D01*
X438766Y544309D01*
X438719Y544187D01*
X438663Y544074D01*
X438616Y543970D01*
X438569Y543876D01*
X438512Y543801D01*
X438465Y543726D01*
X438428Y543670D01*
X438390Y543623D01*
X438362Y543585D01*
X438334Y543557D01*
X438324Y543548D01*
X438315Y543538D01*
X438221Y543463D01*
X438127Y543388D01*
X437930Y543275D01*
X437732Y543200D01*
X437544Y543143D01*
X437384Y543106D01*
X437319Y543096D01*
X437253D01*
X437206Y543087D01*
X437168D01*
X437150D01*
X437140D01*
X436943Y543096D01*
X436764Y543125D01*
X436595Y543172D01*
X436454Y543219D01*
X436332Y543275D01*
X436238Y543313D01*
X436182Y543350D01*
X436172Y543360D01*
X436163D01*
X436012Y543472D01*
X435881Y543585D01*
X435768Y543707D01*
X435684Y543820D01*
X435618Y543923D01*
X435580Y544008D01*
X435552Y544064D01*
X435542Y544074D01*
Y544083D01*
X435514Y544168D01*
X435486Y544271D01*
X435439Y544478D01*
X435411Y544703D01*
X435383Y544910D01*
X435373Y545108D01*
Y545192D01*
X435364Y545267D01*
Y548284D01*
X441867D01*
Y547420D01*
D02*
G37*
G36*
X440307Y539506D02*
X441867D01*
Y538708D01*
X440307D01*
Y537824D01*
X439574D01*
Y538708D01*
X435364D01*
Y539356D01*
X439574Y542335D01*
X440307D01*
Y539506D01*
D02*
G37*
G36*
X439133Y537035D02*
X439414Y537016D01*
X439678Y536988D01*
X439922Y536941D01*
X440138Y536894D01*
X440336Y536847D01*
X440514Y536790D01*
X440674Y536725D01*
X440805Y536668D01*
X440928Y536612D01*
X441022Y536565D01*
X441106Y536508D01*
X441172Y536471D01*
X441209Y536443D01*
X441238Y536424D01*
X441247Y536414D01*
X441379Y536292D01*
X441492Y536161D01*
X441586Y536029D01*
X441670Y535898D01*
X441745Y535757D01*
X441802Y535625D01*
X441849Y535493D01*
X441886Y535362D01*
X441914Y535249D01*
X441943Y535136D01*
X441961Y535042D01*
X441971Y534958D01*
Y534883D01*
X441980Y534836D01*
Y534789D01*
X441971Y534572D01*
X441933Y534375D01*
X441896Y534197D01*
X441839Y534037D01*
X441792Y533915D01*
X441745Y533821D01*
X441736Y533783D01*
X441717Y533755D01*
X441708Y533745D01*
Y533736D01*
X441595Y533576D01*
X441463Y533426D01*
X441332Y533304D01*
X441200Y533200D01*
X441078Y533116D01*
X440984Y533059D01*
X440946Y533041D01*
X440918Y533022D01*
X440909Y533012D01*
X440899D01*
X440702Y532918D01*
X440495Y532853D01*
X440307Y532806D01*
X440129Y532777D01*
X439978Y532749D01*
X439922D01*
X439866Y532740D01*
X439819D01*
X439790D01*
X439772D01*
X439762D01*
X439593Y532749D01*
X439433Y532768D01*
X439273Y532796D01*
X439133Y532824D01*
X439001Y532871D01*
X438869Y532918D01*
X438757Y532965D01*
X438653Y533022D01*
X438559Y533078D01*
X438475Y533125D01*
X438409Y533172D01*
X438343Y533219D01*
X438296Y533247D01*
X438268Y533275D01*
X438249Y533294D01*
X438240Y533304D01*
X438136Y533407D01*
X438042Y533520D01*
X437967Y533642D01*
X437901Y533755D01*
X437836Y533868D01*
X437789Y533980D01*
X437723Y534197D01*
X437695Y534291D01*
X437676Y534384D01*
X437667Y534460D01*
X437657Y534535D01*
X437648Y534591D01*
Y534666D01*
X437657Y534836D01*
X437685Y534995D01*
X437714Y535146D01*
X437751Y535277D01*
X437798Y535390D01*
X437826Y535475D01*
X437854Y535531D01*
X437864Y535540D01*
Y535550D01*
X437958Y535700D01*
X438061Y535832D01*
X438165Y535954D01*
X438277Y536048D01*
X438371Y536133D01*
X438447Y536198D01*
X438503Y536236D01*
X438512Y536245D01*
X438343D01*
X438174Y536236D01*
X438024Y536227D01*
X437873Y536208D01*
X437742Y536198D01*
X437620Y536180D01*
X437507Y536161D01*
X437403Y536133D01*
X437309Y536114D01*
X437234Y536095D01*
X437168Y536076D01*
X437112Y536067D01*
X437074Y536048D01*
X437046Y536039D01*
X437027Y536029D01*
X437018D01*
X436830Y535935D01*
X436661Y535841D01*
X436529Y535738D01*
X436417Y535644D01*
X436323Y535559D01*
X436257Y535493D01*
X436219Y535447D01*
X436210Y535428D01*
X436135Y535315D01*
X436088Y535202D01*
X436050Y535089D01*
X436022Y534977D01*
X436003Y534892D01*
X435994Y534817D01*
Y534751D01*
X436012Y534582D01*
X436050Y534422D01*
X436106Y534291D01*
X436163Y534168D01*
X436229Y534074D01*
X436285Y534009D01*
X436323Y533971D01*
X436341Y533952D01*
X436426Y533886D01*
X436529Y533821D01*
X436642Y533764D01*
X436755Y533727D01*
X436858Y533689D01*
X436943Y533661D01*
X436999Y533651D01*
X437009Y533642D01*
X437018D01*
X436952Y532843D01*
X436689Y532900D01*
X436454Y532984D01*
X436247Y533078D01*
X436078Y533181D01*
X435947Y533285D01*
X435890Y533322D01*
X435843Y533369D01*
X435815Y533398D01*
X435787Y533426D01*
X435778Y533435D01*
X435768Y533445D01*
X435693Y533539D01*
X435627Y533642D01*
X435514Y533849D01*
X435439Y534055D01*
X435392Y534253D01*
X435355Y534431D01*
X435345Y534507D01*
Y534572D01*
X435336Y534629D01*
Y534704D01*
X435345Y534892D01*
X435364Y535070D01*
X435402Y535240D01*
X435449Y535400D01*
X435514Y535540D01*
X435571Y535681D01*
X435646Y535804D01*
X435712Y535916D01*
X435778Y536010D01*
X435853Y536104D01*
X435909Y536180D01*
X435965Y536236D01*
X436022Y536283D01*
X436059Y536320D01*
X436078Y536339D01*
X436088Y536349D01*
X436257Y536471D01*
X436454Y536574D01*
X436661Y536668D01*
X436877Y536753D01*
X437103Y536819D01*
X437328Y536875D01*
X437563Y536922D01*
X437779Y536959D01*
X437995Y536988D01*
X438193Y537006D01*
X438371Y537025D01*
X438522Y537035D01*
X438653D01*
X438747Y537044D01*
X438785D01*
X438813D01*
X438822D01*
X438832D01*
X439133Y537035D01*
D02*
G37*
G36*
X375214Y535910D02*
X375468Y535863D01*
X375684Y535788D01*
X375872Y535713D01*
X375957Y535666D01*
X376023Y535628D01*
X376088Y535590D01*
X376135Y535553D01*
X376173Y535524D01*
X376201Y535506D01*
X376220Y535496D01*
X376229Y535487D01*
X376408Y535308D01*
X376549Y535111D01*
X376662Y534904D01*
X376756Y534697D01*
X376812Y534519D01*
X376840Y534444D01*
X376859Y534378D01*
X376869Y534322D01*
X376878Y534284D01*
X376887Y534256D01*
Y534246D01*
X376088Y534105D01*
X376051Y534312D01*
X375994Y534491D01*
X375929Y534641D01*
X375863Y534763D01*
X375797Y534857D01*
X375741Y534923D01*
X375703Y534970D01*
X375694Y534979D01*
X375572Y535073D01*
X375440Y535149D01*
X375318Y535196D01*
X375196Y535233D01*
X375083Y535252D01*
X374998Y535271D01*
X374923D01*
X374754Y535261D01*
X374604Y535224D01*
X374472Y535177D01*
X374359Y535130D01*
X374275Y535073D01*
X374209Y535026D01*
X374162Y534989D01*
X374152Y534979D01*
X374049Y534867D01*
X373974Y534744D01*
X373927Y534622D01*
X373889Y534510D01*
X373871Y534406D01*
X373852Y534331D01*
Y534275D01*
Y534265D01*
Y534256D01*
Y534152D01*
X373871Y534058D01*
X373918Y533899D01*
X373983Y533758D01*
X374058Y533635D01*
X374134Y533551D01*
X374199Y533485D01*
X374246Y533448D01*
X374256Y533438D01*
X374265D01*
X374425Y533354D01*
X374575Y533288D01*
X374735Y533241D01*
X374876Y533213D01*
X374998Y533194D01*
X375102Y533175D01*
X375224D01*
X375261Y533184D01*
X375308D01*
X375402Y532480D01*
X375280Y532508D01*
X375167Y532527D01*
X375073Y532545D01*
X374989Y532555D01*
X374923Y532564D01*
X374838D01*
X374641Y532545D01*
X374463Y532508D01*
X374303Y532451D01*
X374171Y532386D01*
X374068Y532320D01*
X373993Y532263D01*
X373946Y532226D01*
X373927Y532207D01*
X373805Y532066D01*
X373711Y531916D01*
X373645Y531765D01*
X373607Y531615D01*
X373579Y531493D01*
X373570Y531389D01*
X373560Y531352D01*
Y531324D01*
Y531305D01*
Y531295D01*
X373579Y531089D01*
X373626Y530901D01*
X373683Y530741D01*
X373758Y530600D01*
X373833Y530487D01*
X373889Y530403D01*
X373936Y530346D01*
X373955Y530327D01*
X374105Y530196D01*
X374265Y530102D01*
X374425Y530036D01*
X374575Y529989D01*
X374707Y529961D01*
X374810Y529952D01*
X374848Y529942D01*
X374904D01*
X375073Y529952D01*
X375233Y529989D01*
X375374Y530036D01*
X375487Y530093D01*
X375581Y530140D01*
X375656Y530187D01*
X375694Y530224D01*
X375713Y530233D01*
X375825Y530365D01*
X375919Y530515D01*
X376004Y530675D01*
X376070Y530844D01*
X376117Y530985D01*
X376135Y531051D01*
X376145Y531107D01*
X376154Y531155D01*
X376164Y531192D01*
X376173Y531211D01*
Y531220D01*
X376972Y531117D01*
X376953Y530966D01*
X376925Y530826D01*
X376840Y530562D01*
X376737Y530337D01*
X376680Y530243D01*
X376624Y530149D01*
X376568Y530064D01*
X376511Y529999D01*
X376464Y529933D01*
X376417Y529886D01*
X376389Y529848D01*
X376361Y529820D01*
X376342Y529801D01*
X376333Y529792D01*
X376220Y529707D01*
X376107Y529623D01*
X375994Y529557D01*
X375872Y529500D01*
X375637Y529406D01*
X375412Y529350D01*
X375308Y529331D01*
X375214Y529313D01*
X375130Y529303D01*
X375055Y529294D01*
X374998Y529284D01*
X374914D01*
X374735Y529294D01*
X374575Y529313D01*
X374416Y529341D01*
X374265Y529378D01*
X374124Y529425D01*
X374002Y529472D01*
X373880Y529529D01*
X373777Y529585D01*
X373673Y529632D01*
X373589Y529688D01*
X373513Y529735D01*
X373457Y529782D01*
X373410Y529820D01*
X373372Y529848D01*
X373354Y529867D01*
X373344Y529876D01*
X373231Y529989D01*
X373138Y530111D01*
X373053Y530233D01*
X372978Y530356D01*
X372921Y530468D01*
X372865Y530591D01*
X372790Y530816D01*
X372771Y530919D01*
X372752Y531013D01*
X372733Y531098D01*
X372724Y531173D01*
X372715Y531230D01*
Y531277D01*
Y531305D01*
Y531314D01*
X372724Y531540D01*
X372761Y531746D01*
X372818Y531925D01*
X372874Y532076D01*
X372931Y532198D01*
X372987Y532292D01*
X373025Y532348D01*
X373034Y532367D01*
X373166Y532508D01*
X373307Y532630D01*
X373457Y532724D01*
X373607Y532799D01*
X373739Y532855D01*
X373842Y532893D01*
X373880Y532902D01*
X373908Y532912D01*
X373927Y532921D01*
X373936D01*
X373777Y533006D01*
X373645Y533091D01*
X373532Y533184D01*
X373438Y533269D01*
X373363Y533344D01*
X373307Y533410D01*
X373278Y533448D01*
X373269Y533466D01*
X373194Y533598D01*
X373138Y533730D01*
X373091Y533861D01*
X373062Y533983D01*
X373044Y534087D01*
X373034Y534162D01*
Y534218D01*
Y534237D01*
X373044Y534397D01*
X373072Y534557D01*
X373109Y534697D01*
X373156Y534820D01*
X373203Y534923D01*
X373241Y535008D01*
X373269Y535055D01*
X373278Y535073D01*
X373372Y535214D01*
X373485Y535337D01*
X373598Y535440D01*
X373711Y535534D01*
X373805Y535600D01*
X373889Y535656D01*
X373946Y535684D01*
X373955Y535694D01*
X373965D01*
X374134Y535769D01*
X374303Y535825D01*
X374472Y535872D01*
X374622Y535900D01*
X374744Y535919D01*
X374848Y535929D01*
X375083D01*
X375214Y535910D01*
D02*
G37*
G36*
X383203Y529397D02*
X382338D01*
Y532282D01*
X381229D01*
X381126Y532273D01*
X381051D01*
X380985Y532263D01*
X380938Y532254D01*
X380900D01*
X380881Y532245D01*
X380872D01*
X380722Y532198D01*
X380656Y532169D01*
X380600Y532141D01*
X380543Y532113D01*
X380505Y532094D01*
X380487Y532085D01*
X380477Y532076D01*
X380402Y532019D01*
X380327Y531953D01*
X380186Y531812D01*
X380120Y531746D01*
X380073Y531690D01*
X380045Y531653D01*
X380036Y531643D01*
X379942Y531512D01*
X379838Y531371D01*
X379735Y531220D01*
X379632Y531079D01*
X379547Y530948D01*
X379481Y530844D01*
X379453Y530807D01*
X379434Y530779D01*
X379415Y530760D01*
Y530750D01*
X378560Y529397D01*
X377489D01*
X378607Y531164D01*
X378739Y531352D01*
X378861Y531521D01*
X378983Y531662D01*
X379086Y531794D01*
X379180Y531888D01*
X379256Y531963D01*
X379302Y532010D01*
X379321Y532029D01*
X379397Y532085D01*
X379481Y532151D01*
X379650Y532254D01*
X379725Y532292D01*
X379782Y532329D01*
X379819Y532348D01*
X379838Y532357D01*
X379669Y532386D01*
X379509Y532414D01*
X379368Y532461D01*
X379227Y532498D01*
X379105Y532545D01*
X378992Y532602D01*
X378889Y532649D01*
X378795Y532696D01*
X378720Y532752D01*
X378645Y532799D01*
X378588Y532837D01*
X378541Y532874D01*
X378504Y532902D01*
X378475Y532931D01*
X378466Y532940D01*
X378457Y532949D01*
X378382Y533044D01*
X378306Y533137D01*
X378194Y533335D01*
X378118Y533532D01*
X378062Y533720D01*
X378024Y533880D01*
X378015Y533946D01*
Y534011D01*
X378006Y534058D01*
Y534096D01*
Y534115D01*
Y534124D01*
X378015Y534322D01*
X378043Y534500D01*
X378090Y534669D01*
X378137Y534810D01*
X378194Y534933D01*
X378231Y535026D01*
X378269Y535083D01*
X378278Y535092D01*
Y535102D01*
X378391Y535252D01*
X378504Y535384D01*
X378626Y535496D01*
X378739Y535581D01*
X378842Y535647D01*
X378927Y535684D01*
X378983Y535713D01*
X378992Y535722D01*
X379002D01*
X379086Y535750D01*
X379190Y535778D01*
X379397Y535825D01*
X379622Y535854D01*
X379829Y535882D01*
X380026Y535891D01*
X380111D01*
X380186Y535900D01*
X383203D01*
Y529397D01*
D02*
G37*
G36*
X369961Y535919D02*
X370111Y535910D01*
X370374Y535854D01*
X370497Y535816D01*
X370609Y535778D01*
X370713Y535731D01*
X370807Y535684D01*
X370882Y535637D01*
X370957Y535590D01*
X371023Y535553D01*
X371070Y535515D01*
X371107Y535487D01*
X371136Y535459D01*
X371155Y535449D01*
X371164Y535440D01*
X371249Y535346D01*
X371333Y535252D01*
X371399Y535149D01*
X371455Y535045D01*
X371549Y534848D01*
X371606Y534660D01*
X371643Y534500D01*
X371653Y534425D01*
X371662Y534369D01*
X371671Y534312D01*
Y534275D01*
Y534256D01*
Y534246D01*
X371662Y534077D01*
X371634Y533918D01*
X371596Y533777D01*
X371549Y533654D01*
X371512Y533560D01*
X371474Y533485D01*
X371446Y533448D01*
X371436Y533429D01*
X371333Y533316D01*
X371220Y533213D01*
X371098Y533119D01*
X370976Y533044D01*
X370863Y532987D01*
X370779Y532949D01*
X370741Y532931D01*
X370713Y532921D01*
X370703Y532912D01*
X370694D01*
X370910Y532846D01*
X371089Y532761D01*
X371249Y532658D01*
X371380Y532564D01*
X371483Y532470D01*
X371559Y532395D01*
X371596Y532348D01*
X371615Y532339D01*
Y532329D01*
X371718Y532160D01*
X371803Y531982D01*
X371859Y531812D01*
X371897Y531643D01*
X371916Y531493D01*
X371925Y531427D01*
Y531371D01*
X371935Y531333D01*
Y531295D01*
Y531277D01*
Y531267D01*
X371925Y531117D01*
X371906Y530966D01*
X371878Y530826D01*
X371841Y530685D01*
X371747Y530450D01*
X371700Y530337D01*
X371643Y530243D01*
X371587Y530149D01*
X371540Y530074D01*
X371483Y530008D01*
X371446Y529952D01*
X371408Y529905D01*
X371380Y529876D01*
X371361Y529857D01*
X371352Y529848D01*
X371239Y529745D01*
X371117Y529660D01*
X370985Y529585D01*
X370854Y529519D01*
X370732Y529472D01*
X370600Y529425D01*
X370346Y529359D01*
X370233Y529331D01*
X370130Y529313D01*
X370036Y529303D01*
X369952Y529294D01*
X369886Y529284D01*
X369792D01*
X369613Y529294D01*
X369453Y529313D01*
X369294Y529341D01*
X369143Y529369D01*
X369012Y529416D01*
X368880Y529463D01*
X368758Y529510D01*
X368655Y529566D01*
X368561Y529623D01*
X368476Y529670D01*
X368410Y529717D01*
X368344Y529764D01*
X368298Y529792D01*
X368269Y529820D01*
X368251Y529839D01*
X368241Y529848D01*
X368138Y529961D01*
X368044Y530074D01*
X367969Y530187D01*
X367903Y530309D01*
X367837Y530421D01*
X367790Y530544D01*
X367724Y530760D01*
X367696Y530863D01*
X367677Y530957D01*
X367668Y531042D01*
X367658Y531107D01*
X367649Y531164D01*
Y531211D01*
Y531239D01*
Y531248D01*
X367658Y531465D01*
X367696Y531662D01*
X367752Y531841D01*
X367809Y531991D01*
X367865Y532113D01*
X367922Y532207D01*
X367959Y532263D01*
X367969Y532273D01*
Y532282D01*
X368100Y532433D01*
X368241Y532564D01*
X368391Y532668D01*
X368532Y532761D01*
X368664Y532827D01*
X368777Y532874D01*
X368814Y532893D01*
X368843Y532902D01*
X368861Y532912D01*
X368871D01*
X368702Y532987D01*
X368561Y533072D01*
X368438Y533156D01*
X368335Y533241D01*
X368260Y533316D01*
X368204Y533372D01*
X368166Y533410D01*
X368157Y533429D01*
X368072Y533560D01*
X368016Y533692D01*
X367969Y533824D01*
X367940Y533955D01*
X367922Y534058D01*
X367912Y534143D01*
Y534199D01*
Y534209D01*
Y534218D01*
X367922Y534350D01*
X367931Y534472D01*
X367997Y534707D01*
X368081Y534914D01*
X368175Y535092D01*
X368269Y535233D01*
X368316Y535290D01*
X368354Y535346D01*
X368391Y535384D01*
X368420Y535412D01*
X368429Y535421D01*
X368438Y535431D01*
X368542Y535515D01*
X368645Y535600D01*
X368758Y535666D01*
X368871Y535722D01*
X369096Y535807D01*
X369322Y535863D01*
X369416Y535891D01*
X369510Y535900D01*
X369594Y535910D01*
X369670Y535919D01*
X369726Y535929D01*
X369811D01*
X369961Y535919D01*
D02*
G37*
G36*
X553627Y547420D02*
X550742D01*
Y546311D01*
X550752Y546207D01*
Y546132D01*
X550761Y546066D01*
X550770Y546019D01*
Y545982D01*
X550780Y545963D01*
Y545953D01*
X550827Y545803D01*
X550855Y545737D01*
X550883Y545681D01*
X550911Y545625D01*
X550930Y545587D01*
X550940Y545568D01*
X550949Y545559D01*
X551005Y545484D01*
X551071Y545408D01*
X551212Y545267D01*
X551278Y545202D01*
X551334Y545155D01*
X551372Y545126D01*
X551381Y545117D01*
X551513Y545023D01*
X551654Y544920D01*
X551804Y544816D01*
X551945Y544713D01*
X552077Y544628D01*
X552180Y544562D01*
X552218Y544534D01*
X552246Y544515D01*
X552265Y544497D01*
X552274D01*
X553627Y543642D01*
Y542570D01*
X551861Y543689D01*
X551673Y543820D01*
X551503Y543942D01*
X551362Y544064D01*
X551231Y544168D01*
X551137Y544262D01*
X551062Y544337D01*
X551015Y544384D01*
X550996Y544403D01*
X550940Y544478D01*
X550874Y544562D01*
X550770Y544732D01*
X550733Y544807D01*
X550695Y544863D01*
X550676Y544901D01*
X550667Y544920D01*
X550639Y544751D01*
X550611Y544591D01*
X550564Y544450D01*
X550526Y544309D01*
X550479Y544187D01*
X550423Y544074D01*
X550376Y543970D01*
X550329Y543876D01*
X550272Y543801D01*
X550225Y543726D01*
X550188Y543670D01*
X550150Y543623D01*
X550122Y543585D01*
X550094Y543557D01*
X550084Y543548D01*
X550075Y543538D01*
X549981Y543463D01*
X549887Y543388D01*
X549690Y543275D01*
X549492Y543200D01*
X549304Y543143D01*
X549145Y543106D01*
X549079Y543096D01*
X549013D01*
X548966Y543087D01*
X548928D01*
X548910D01*
X548900D01*
X548703Y543096D01*
X548524Y543125D01*
X548355Y543172D01*
X548214Y543219D01*
X548092Y543275D01*
X547998Y543313D01*
X547942Y543350D01*
X547932Y543360D01*
X547923D01*
X547772Y543472D01*
X547641Y543585D01*
X547528Y543707D01*
X547444Y543820D01*
X547378Y543923D01*
X547340Y544008D01*
X547312Y544064D01*
X547303Y544074D01*
Y544083D01*
X547274Y544168D01*
X547246Y544271D01*
X547199Y544478D01*
X547171Y544703D01*
X547143Y544910D01*
X547133Y545108D01*
Y545192D01*
X547124Y545267D01*
Y548284D01*
X553627D01*
Y547420D01*
D02*
G37*
G36*
X552058Y542034D02*
X552199Y542006D01*
X552462Y541922D01*
X552688Y541818D01*
X552782Y541762D01*
X552876Y541706D01*
X552960Y541649D01*
X553026Y541593D01*
X553092Y541546D01*
X553139Y541499D01*
X553176Y541471D01*
X553204Y541442D01*
X553223Y541424D01*
X553233Y541414D01*
X553317Y541301D01*
X553402Y541189D01*
X553468Y541076D01*
X553524Y540954D01*
X553618Y540719D01*
X553674Y540493D01*
X553693Y540390D01*
X553712Y540296D01*
X553721Y540211D01*
X553731Y540136D01*
X553740Y540080D01*
Y539995D01*
X553731Y539817D01*
X553712Y539657D01*
X553684Y539497D01*
X553646Y539347D01*
X553599Y539206D01*
X553552Y539084D01*
X553496Y538961D01*
X553439Y538858D01*
X553392Y538755D01*
X553336Y538670D01*
X553289Y538595D01*
X553242Y538538D01*
X553204Y538491D01*
X553176Y538454D01*
X553158Y538435D01*
X553148Y538426D01*
X553035Y538313D01*
X552913Y538219D01*
X552791Y538134D01*
X552669Y538059D01*
X552556Y538003D01*
X552434Y537946D01*
X552208Y537871D01*
X552105Y537852D01*
X552011Y537834D01*
X551926Y537815D01*
X551851Y537805D01*
X551795Y537796D01*
X551748D01*
X551720D01*
X551710D01*
X551485Y537805D01*
X551278Y537843D01*
X551099Y537899D01*
X550949Y537956D01*
X550827Y538012D01*
X550733Y538069D01*
X550676Y538106D01*
X550658Y538116D01*
X550517Y538247D01*
X550395Y538388D01*
X550300Y538538D01*
X550225Y538689D01*
X550169Y538820D01*
X550131Y538924D01*
X550122Y538961D01*
X550112Y538989D01*
X550103Y539008D01*
Y539018D01*
X550019Y538858D01*
X549934Y538726D01*
X549840Y538614D01*
X549755Y538520D01*
X549680Y538444D01*
X549614Y538388D01*
X549577Y538360D01*
X549558Y538350D01*
X549426Y538275D01*
X549295Y538219D01*
X549163Y538172D01*
X549041Y538144D01*
X548938Y538125D01*
X548863Y538116D01*
X548806D01*
X548787D01*
X548628Y538125D01*
X548468Y538153D01*
X548327Y538191D01*
X548205Y538238D01*
X548101Y538285D01*
X548017Y538322D01*
X547970Y538350D01*
X547951Y538360D01*
X547810Y538454D01*
X547688Y538567D01*
X547584Y538679D01*
X547491Y538792D01*
X547425Y538886D01*
X547368Y538971D01*
X547340Y539027D01*
X547331Y539036D01*
Y539046D01*
X547256Y539215D01*
X547199Y539384D01*
X547152Y539553D01*
X547124Y539704D01*
X547105Y539826D01*
X547096Y539929D01*
Y540164D01*
X547115Y540296D01*
X547162Y540550D01*
X547237Y540766D01*
X547312Y540954D01*
X547359Y541038D01*
X547397Y541104D01*
X547434Y541170D01*
X547472Y541217D01*
X547500Y541254D01*
X547519Y541283D01*
X547528Y541301D01*
X547537Y541311D01*
X547716Y541489D01*
X547913Y541630D01*
X548120Y541743D01*
X548327Y541837D01*
X548506Y541894D01*
X548581Y541922D01*
X548647Y541940D01*
X548703Y541950D01*
X548740Y541959D01*
X548769Y541969D01*
X548778D01*
X548919Y541170D01*
X548712Y541132D01*
X548534Y541076D01*
X548383Y541010D01*
X548261Y540944D01*
X548167Y540878D01*
X548101Y540822D01*
X548054Y540784D01*
X548045Y540775D01*
X547951Y540653D01*
X547876Y540521D01*
X547829Y540399D01*
X547791Y540277D01*
X547772Y540164D01*
X547754Y540080D01*
Y540005D01*
X547763Y539835D01*
X547801Y539685D01*
X547848Y539553D01*
X547895Y539441D01*
X547951Y539356D01*
X547998Y539290D01*
X548036Y539243D01*
X548045Y539234D01*
X548158Y539131D01*
X548280Y539055D01*
X548402Y539008D01*
X548515Y538971D01*
X548618Y538952D01*
X548693Y538933D01*
X548750D01*
X548759D01*
X548769D01*
X548872D01*
X548966Y538952D01*
X549126Y538999D01*
X549267Y539065D01*
X549389Y539140D01*
X549473Y539215D01*
X549539Y539281D01*
X549577Y539328D01*
X549586Y539337D01*
Y539347D01*
X549671Y539506D01*
X549737Y539657D01*
X549784Y539817D01*
X549812Y539958D01*
X549831Y540080D01*
X549849Y540183D01*
Y540305D01*
X549840Y540343D01*
Y540390D01*
X550545Y540484D01*
X550517Y540362D01*
X550498Y540249D01*
X550479Y540155D01*
X550470Y540070D01*
X550460Y540005D01*
Y539920D01*
X550479Y539723D01*
X550517Y539544D01*
X550573Y539384D01*
X550639Y539253D01*
X550705Y539149D01*
X550761Y539074D01*
X550799Y539027D01*
X550817Y539008D01*
X550958Y538886D01*
X551109Y538792D01*
X551259Y538726D01*
X551409Y538689D01*
X551532Y538661D01*
X551635Y538651D01*
X551673Y538642D01*
X551701D01*
X551720D01*
X551729D01*
X551936Y538661D01*
X552124Y538708D01*
X552284Y538764D01*
X552424Y538839D01*
X552537Y538914D01*
X552622Y538971D01*
X552678Y539018D01*
X552697Y539036D01*
X552829Y539187D01*
X552923Y539347D01*
X552988Y539506D01*
X553035Y539657D01*
X553064Y539788D01*
X553073Y539892D01*
X553082Y539929D01*
Y539986D01*
X553073Y540155D01*
X553035Y540315D01*
X552988Y540456D01*
X552932Y540568D01*
X552885Y540662D01*
X552838Y540737D01*
X552800Y540775D01*
X552791Y540794D01*
X552659Y540907D01*
X552509Y541001D01*
X552349Y541085D01*
X552180Y541151D01*
X552039Y541198D01*
X551973Y541217D01*
X551917Y541226D01*
X551870Y541236D01*
X551832Y541245D01*
X551814Y541254D01*
X551804D01*
X551908Y542053D01*
X552058Y542034D01*
D02*
G37*
G36*
X550893Y537035D02*
X551175Y537016D01*
X551438Y536988D01*
X551682Y536941D01*
X551898Y536894D01*
X552095Y536847D01*
X552274Y536790D01*
X552434Y536725D01*
X552565Y536668D01*
X552688Y536612D01*
X552782Y536565D01*
X552866Y536508D01*
X552932Y536471D01*
X552970Y536443D01*
X552998Y536424D01*
X553007Y536414D01*
X553139Y536292D01*
X553251Y536161D01*
X553345Y536029D01*
X553430Y535898D01*
X553505Y535757D01*
X553562Y535625D01*
X553609Y535493D01*
X553646Y535362D01*
X553674Y535249D01*
X553703Y535136D01*
X553721Y535042D01*
X553731Y534958D01*
Y534883D01*
X553740Y534836D01*
Y534789D01*
X553731Y534572D01*
X553693Y534375D01*
X553656Y534197D01*
X553599Y534037D01*
X553552Y533915D01*
X553505Y533821D01*
X553496Y533783D01*
X553477Y533755D01*
X553468Y533745D01*
Y533736D01*
X553355Y533576D01*
X553223Y533426D01*
X553092Y533304D01*
X552960Y533200D01*
X552838Y533116D01*
X552744Y533059D01*
X552706Y533041D01*
X552678Y533022D01*
X552669Y533012D01*
X552659D01*
X552462Y532918D01*
X552255Y532853D01*
X552067Y532806D01*
X551889Y532777D01*
X551738Y532749D01*
X551682D01*
X551626Y532740D01*
X551579D01*
X551550D01*
X551532D01*
X551522D01*
X551353Y532749D01*
X551193Y532768D01*
X551034Y532796D01*
X550893Y532824D01*
X550761Y532871D01*
X550629Y532918D01*
X550517Y532965D01*
X550413Y533022D01*
X550319Y533078D01*
X550235Y533125D01*
X550169Y533172D01*
X550103Y533219D01*
X550056Y533247D01*
X550028Y533275D01*
X550009Y533294D01*
X550000Y533304D01*
X549896Y533407D01*
X549802Y533520D01*
X549727Y533642D01*
X549661Y533755D01*
X549596Y533868D01*
X549549Y533980D01*
X549483Y534197D01*
X549455Y534291D01*
X549436Y534384D01*
X549426Y534460D01*
X549417Y534535D01*
X549408Y534591D01*
Y534666D01*
X549417Y534836D01*
X549445Y534995D01*
X549473Y535146D01*
X549511Y535277D01*
X549558Y535390D01*
X549586Y535475D01*
X549614Y535531D01*
X549624Y535540D01*
Y535550D01*
X549718Y535700D01*
X549821Y535832D01*
X549925Y535954D01*
X550037Y536048D01*
X550131Y536133D01*
X550206Y536198D01*
X550263Y536236D01*
X550272Y536245D01*
X550103D01*
X549934Y536236D01*
X549784Y536227D01*
X549633Y536208D01*
X549502Y536198D01*
X549380Y536180D01*
X549267Y536161D01*
X549163Y536133D01*
X549069Y536114D01*
X548994Y536095D01*
X548928Y536076D01*
X548872Y536067D01*
X548834Y536048D01*
X548806Y536039D01*
X548787Y536029D01*
X548778D01*
X548590Y535935D01*
X548421Y535841D01*
X548289Y535738D01*
X548177Y535644D01*
X548083Y535559D01*
X548017Y535493D01*
X547979Y535447D01*
X547970Y535428D01*
X547895Y535315D01*
X547848Y535202D01*
X547810Y535089D01*
X547782Y534977D01*
X547763Y534892D01*
X547754Y534817D01*
Y534751D01*
X547772Y534582D01*
X547810Y534422D01*
X547866Y534291D01*
X547923Y534168D01*
X547989Y534074D01*
X548045Y534009D01*
X548083Y533971D01*
X548101Y533952D01*
X548186Y533886D01*
X548289Y533821D01*
X548402Y533764D01*
X548515Y533727D01*
X548618Y533689D01*
X548703Y533661D01*
X548759Y533651D01*
X548769Y533642D01*
X548778D01*
X548712Y532843D01*
X548449Y532900D01*
X548214Y532984D01*
X548007Y533078D01*
X547838Y533181D01*
X547707Y533285D01*
X547650Y533322D01*
X547603Y533369D01*
X547575Y533398D01*
X547547Y533426D01*
X547537Y533435D01*
X547528Y533445D01*
X547453Y533539D01*
X547387Y533642D01*
X547274Y533849D01*
X547199Y534055D01*
X547152Y534253D01*
X547115Y534431D01*
X547105Y534507D01*
Y534572D01*
X547096Y534629D01*
Y534704D01*
X547105Y534892D01*
X547124Y535070D01*
X547162Y535240D01*
X547209Y535400D01*
X547274Y535540D01*
X547331Y535681D01*
X547406Y535804D01*
X547472Y535916D01*
X547537Y536010D01*
X547613Y536104D01*
X547669Y536180D01*
X547725Y536236D01*
X547782Y536283D01*
X547819Y536320D01*
X547838Y536339D01*
X547848Y536349D01*
X548017Y536471D01*
X548214Y536574D01*
X548421Y536668D01*
X548637Y536753D01*
X548863Y536819D01*
X549088Y536875D01*
X549323Y536922D01*
X549539Y536959D01*
X549755Y536988D01*
X549953Y537006D01*
X550131Y537025D01*
X550282Y537035D01*
X550413D01*
X550507Y537044D01*
X550545D01*
X550573D01*
X550582D01*
X550592D01*
X550893Y537035D01*
D02*
G37*
G36*
X486664Y536716D02*
X486824Y536706D01*
X486974Y536678D01*
X487115Y536650D01*
X487247Y536612D01*
X487369Y536575D01*
X487482Y536528D01*
X487585Y536481D01*
X487679Y536434D01*
X487754Y536387D01*
X487820Y536349D01*
X487877Y536312D01*
X487924Y536283D01*
X487952Y536255D01*
X487971Y536246D01*
X487980Y536236D01*
X488074Y536142D01*
X488158Y536039D01*
X488243Y535926D01*
X488309Y535813D01*
X488422Y535588D01*
X488497Y535362D01*
X488525Y535259D01*
X488553Y535156D01*
X488572Y535071D01*
X488591Y534996D01*
X488600Y534930D01*
Y534883D01*
X488610Y534855D01*
Y534846D01*
X487792Y534761D01*
X487773Y534977D01*
X487735Y535165D01*
X487679Y535334D01*
X487613Y535466D01*
X487557Y535578D01*
X487501Y535654D01*
X487463Y535701D01*
X487444Y535719D01*
X487303Y535832D01*
X487153Y535917D01*
X486993Y535983D01*
X486852Y536020D01*
X486721Y536048D01*
X486608Y536058D01*
X486570Y536067D01*
X486514D01*
X486316Y536058D01*
X486138Y536020D01*
X485988Y535964D01*
X485856Y535908D01*
X485753Y535842D01*
X485687Y535795D01*
X485640Y535757D01*
X485621Y535738D01*
X485508Y535607D01*
X485424Y535475D01*
X485358Y535344D01*
X485320Y535212D01*
X485292Y535109D01*
X485283Y535015D01*
X485273Y534958D01*
Y534949D01*
Y534939D01*
X485292Y534770D01*
X485330Y534592D01*
X485395Y534432D01*
X485461Y534282D01*
X485536Y534159D01*
X485602Y534056D01*
X485621Y534019D01*
X485640Y533990D01*
X485659Y533981D01*
Y533971D01*
X485734Y533868D01*
X485828Y533765D01*
X485931Y533652D01*
X486044Y533539D01*
X486279Y533314D01*
X486514Y533088D01*
X486636Y532985D01*
X486739Y532891D01*
X486843Y532806D01*
X486927Y532731D01*
X486993Y532675D01*
X487049Y532628D01*
X487087Y532599D01*
X487096Y532590D01*
X487331Y532393D01*
X487548Y532205D01*
X487726Y532035D01*
X487867Y531894D01*
X487989Y531772D01*
X488074Y531688D01*
X488121Y531631D01*
X488140Y531622D01*
Y531613D01*
X488271Y531453D01*
X488375Y531302D01*
X488469Y531152D01*
X488544Y531021D01*
X488600Y530908D01*
X488638Y530823D01*
X488657Y530767D01*
X488666Y530757D01*
Y530748D01*
X488703Y530645D01*
X488722Y530551D01*
X488741Y530457D01*
X488750Y530372D01*
X488760Y530297D01*
Y530241D01*
Y530203D01*
Y530193D01*
X484446D01*
Y530964D01*
X487651D01*
X487538Y531124D01*
X487482Y531190D01*
X487435Y531255D01*
X487388Y531312D01*
X487350Y531349D01*
X487322Y531378D01*
X487313Y531387D01*
X487266Y531434D01*
X487209Y531481D01*
X487078Y531603D01*
X486927Y531744D01*
X486768Y531885D01*
X486617Y532007D01*
X486551Y532064D01*
X486495Y532120D01*
X486448Y532158D01*
X486410Y532186D01*
X486392Y532205D01*
X486382Y532214D01*
X486232Y532346D01*
X486082Y532468D01*
X485950Y532590D01*
X485828Y532693D01*
X485715Y532797D01*
X485621Y532891D01*
X485527Y532975D01*
X485452Y533050D01*
X485377Y533126D01*
X485320Y533182D01*
X485273Y533229D01*
X485226Y533276D01*
X485179Y533332D01*
X485160Y533351D01*
X485029Y533511D01*
X484916Y533652D01*
X484822Y533793D01*
X484747Y533906D01*
X484691Y534009D01*
X484653Y534084D01*
X484634Y534131D01*
X484625Y534150D01*
X484568Y534291D01*
X484531Y534432D01*
X484493Y534563D01*
X484474Y534676D01*
X484465Y534780D01*
X484456Y534855D01*
Y534902D01*
Y534921D01*
X484465Y535062D01*
X484484Y535193D01*
X484503Y535325D01*
X484540Y535438D01*
X484634Y535663D01*
X484728Y535842D01*
X484785Y535926D01*
X484832Y535992D01*
X484879Y536058D01*
X484925Y536105D01*
X484963Y536142D01*
X484982Y536180D01*
X485001Y536189D01*
X485010Y536199D01*
X485113Y536293D01*
X485226Y536377D01*
X485349Y536443D01*
X485471Y536499D01*
X485715Y536594D01*
X485959Y536659D01*
X486063Y536678D01*
X486166Y536697D01*
X486260Y536706D01*
X486335Y536716D01*
X486401Y536725D01*
X486495D01*
X486664Y536716D01*
D02*
G37*
G36*
X494869Y530193D02*
X494004D01*
Y533079D01*
X492895D01*
X492792Y533069D01*
X492716D01*
X492651Y533060D01*
X492604Y533050D01*
X492566D01*
X492547Y533041D01*
X492538D01*
X492388Y532994D01*
X492322Y532966D01*
X492265Y532938D01*
X492209Y532910D01*
X492171Y532891D01*
X492153Y532881D01*
X492143Y532872D01*
X492068Y532816D01*
X491993Y532750D01*
X491852Y532609D01*
X491786Y532543D01*
X491739Y532487D01*
X491711Y532449D01*
X491702Y532440D01*
X491608Y532308D01*
X491504Y532167D01*
X491401Y532017D01*
X491297Y531876D01*
X491213Y531744D01*
X491147Y531641D01*
X491119Y531603D01*
X491100Y531575D01*
X491081Y531556D01*
Y531547D01*
X490226Y530193D01*
X489155D01*
X490273Y531960D01*
X490405Y532148D01*
X490527Y532317D01*
X490649Y532458D01*
X490752Y532590D01*
X490846Y532684D01*
X490922Y532759D01*
X490969Y532806D01*
X490987Y532825D01*
X491062Y532881D01*
X491147Y532947D01*
X491316Y533050D01*
X491391Y533088D01*
X491448Y533126D01*
X491485Y533144D01*
X491504Y533154D01*
X491335Y533182D01*
X491175Y533210D01*
X491034Y533257D01*
X490893Y533295D01*
X490771Y533342D01*
X490658Y533398D01*
X490555Y533445D01*
X490461Y533492D01*
X490386Y533549D01*
X490311Y533596D01*
X490254Y533633D01*
X490207Y533671D01*
X490170Y533699D01*
X490141Y533727D01*
X490132Y533736D01*
X490123Y533746D01*
X490047Y533840D01*
X489972Y533934D01*
X489860Y534131D01*
X489784Y534329D01*
X489728Y534517D01*
X489690Y534676D01*
X489681Y534742D01*
Y534808D01*
X489672Y534855D01*
Y534893D01*
Y534911D01*
Y534921D01*
X489681Y535118D01*
X489709Y535297D01*
X489756Y535466D01*
X489803Y535607D01*
X489860Y535729D01*
X489897Y535823D01*
X489935Y535879D01*
X489944Y535889D01*
Y535898D01*
X490057Y536048D01*
X490170Y536180D01*
X490292Y536293D01*
X490405Y536377D01*
X490508Y536443D01*
X490592Y536481D01*
X490649Y536509D01*
X490658Y536518D01*
X490668D01*
X490752Y536547D01*
X490856Y536575D01*
X491062Y536622D01*
X491288Y536650D01*
X491495Y536678D01*
X491692Y536688D01*
X491777D01*
X491852Y536697D01*
X494869D01*
Y530193D01*
D02*
G37*
G36*
X481627Y536716D02*
X481777Y536706D01*
X482040Y536650D01*
X482163Y536612D01*
X482275Y536575D01*
X482379Y536528D01*
X482473Y536481D01*
X482548Y536434D01*
X482623Y536387D01*
X482689Y536349D01*
X482736Y536312D01*
X482773Y536283D01*
X482802Y536255D01*
X482820Y536246D01*
X482830Y536236D01*
X482914Y536142D01*
X482999Y536048D01*
X483065Y535945D01*
X483121Y535842D01*
X483215Y535644D01*
X483271Y535456D01*
X483309Y535297D01*
X483318Y535221D01*
X483328Y535165D01*
X483337Y535109D01*
Y535071D01*
Y535052D01*
Y535043D01*
X483328Y534874D01*
X483300Y534714D01*
X483262Y534573D01*
X483215Y534451D01*
X483177Y534357D01*
X483140Y534282D01*
X483112Y534244D01*
X483102Y534225D01*
X482999Y534112D01*
X482886Y534009D01*
X482764Y533915D01*
X482642Y533840D01*
X482529Y533783D01*
X482444Y533746D01*
X482407Y533727D01*
X482379Y533718D01*
X482369Y533708D01*
X482360D01*
X482576Y533643D01*
X482755Y533558D01*
X482914Y533455D01*
X483046Y533361D01*
X483149Y533267D01*
X483224Y533191D01*
X483262Y533144D01*
X483281Y533135D01*
Y533126D01*
X483384Y532957D01*
X483469Y532778D01*
X483525Y532609D01*
X483563Y532440D01*
X483582Y532289D01*
X483591Y532223D01*
Y532167D01*
X483600Y532130D01*
Y532092D01*
Y532073D01*
Y532064D01*
X483591Y531913D01*
X483572Y531763D01*
X483544Y531622D01*
X483506Y531481D01*
X483413Y531246D01*
X483366Y531133D01*
X483309Y531039D01*
X483253Y530945D01*
X483206Y530870D01*
X483149Y530804D01*
X483112Y530748D01*
X483074Y530701D01*
X483046Y530673D01*
X483027Y530654D01*
X483018Y530645D01*
X482905Y530541D01*
X482783Y530457D01*
X482651Y530381D01*
X482520Y530316D01*
X482397Y530269D01*
X482266Y530222D01*
X482012Y530156D01*
X481899Y530128D01*
X481796Y530109D01*
X481702Y530099D01*
X481618Y530090D01*
X481552Y530081D01*
X481458D01*
X481279Y530090D01*
X481119Y530109D01*
X480960Y530137D01*
X480809Y530165D01*
X480678Y530212D01*
X480546Y530259D01*
X480424Y530306D01*
X480321Y530363D01*
X480227Y530419D01*
X480142Y530466D01*
X480076Y530513D01*
X480010Y530560D01*
X479963Y530588D01*
X479935Y530616D01*
X479916Y530635D01*
X479907Y530645D01*
X479804Y530757D01*
X479710Y530870D01*
X479635Y530983D01*
X479569Y531105D01*
X479503Y531218D01*
X479456Y531340D01*
X479390Y531556D01*
X479362Y531660D01*
X479343Y531754D01*
X479334Y531838D01*
X479324Y531904D01*
X479315Y531960D01*
Y532007D01*
Y532035D01*
Y532045D01*
X479324Y532261D01*
X479362Y532458D01*
X479418Y532637D01*
X479475Y532787D01*
X479531Y532910D01*
X479588Y533004D01*
X479625Y533060D01*
X479635Y533069D01*
Y533079D01*
X479766Y533229D01*
X479907Y533361D01*
X480057Y533464D01*
X480198Y533558D01*
X480330Y533624D01*
X480443Y533671D01*
X480480Y533689D01*
X480508Y533699D01*
X480527Y533708D01*
X480537D01*
X480368Y533783D01*
X480227Y533868D01*
X480104Y533953D01*
X480001Y534037D01*
X479926Y534112D01*
X479869Y534169D01*
X479832Y534206D01*
X479822Y534225D01*
X479738Y534357D01*
X479682Y534488D01*
X479635Y534620D01*
X479606Y534752D01*
X479588Y534855D01*
X479578Y534939D01*
Y534996D01*
Y535005D01*
Y535015D01*
X479588Y535146D01*
X479597Y535268D01*
X479663Y535503D01*
X479747Y535710D01*
X479841Y535889D01*
X479935Y536030D01*
X479982Y536086D01*
X480020Y536142D01*
X480057Y536180D01*
X480086Y536208D01*
X480095Y536218D01*
X480104Y536227D01*
X480208Y536312D01*
X480311Y536396D01*
X480424Y536462D01*
X480537Y536518D01*
X480762Y536603D01*
X480988Y536659D01*
X481082Y536688D01*
X481176Y536697D01*
X481260Y536706D01*
X481335Y536716D01*
X481392Y536725D01*
X481477D01*
X481627Y536716D01*
D02*
G37*
G36*
X336196Y696377D02*
X336450Y696330D01*
X336666Y696255D01*
X336854Y696180D01*
X336939Y696133D01*
X337004Y696095D01*
X337070Y696057D01*
X337117Y696020D01*
X337155Y695992D01*
X337183Y695973D01*
X337202Y695963D01*
X337211Y695954D01*
X337390Y695775D01*
X337531Y695578D01*
X337644Y695371D01*
X337737Y695164D01*
X337794Y694986D01*
X337822Y694911D01*
X337841Y694845D01*
X337850Y694789D01*
X337860Y694751D01*
X337869Y694723D01*
Y694713D01*
X337070Y694572D01*
X337033Y694779D01*
X336976Y694958D01*
X336910Y695108D01*
X336845Y695230D01*
X336779Y695324D01*
X336722Y695390D01*
X336685Y695437D01*
X336675Y695446D01*
X336553Y695540D01*
X336422Y695616D01*
X336300Y695663D01*
X336177Y695700D01*
X336065Y695719D01*
X335980Y695738D01*
X335905D01*
X335736Y695728D01*
X335585Y695691D01*
X335454Y695644D01*
X335341Y695597D01*
X335256Y695540D01*
X335191Y695493D01*
X335144Y695456D01*
X335134Y695446D01*
X335031Y695334D01*
X334956Y695211D01*
X334909Y695089D01*
X334871Y694977D01*
X334852Y694873D01*
X334833Y694798D01*
Y694742D01*
Y694732D01*
Y694723D01*
Y694619D01*
X334852Y694525D01*
X334899Y694366D01*
X334965Y694225D01*
X335040Y694102D01*
X335115Y694018D01*
X335181Y693952D01*
X335228Y693914D01*
X335238Y693905D01*
X335247D01*
X335407Y693821D01*
X335557Y693755D01*
X335717Y693708D01*
X335858Y693680D01*
X335980Y693661D01*
X336083Y693642D01*
X336206D01*
X336243Y693651D01*
X336290D01*
X336384Y692946D01*
X336262Y692975D01*
X336149Y692993D01*
X336055Y693012D01*
X335971Y693022D01*
X335905Y693031D01*
X335820D01*
X335623Y693012D01*
X335444Y692975D01*
X335285Y692918D01*
X335153Y692853D01*
X335050Y692787D01*
X334974Y692730D01*
X334927Y692693D01*
X334909Y692674D01*
X334786Y692533D01*
X334692Y692383D01*
X334627Y692232D01*
X334589Y692082D01*
X334561Y691960D01*
X334552Y691856D01*
X334542Y691819D01*
Y691791D01*
Y691772D01*
Y691762D01*
X334561Y691556D01*
X334608Y691368D01*
X334664Y691208D01*
X334739Y691067D01*
X334815Y690954D01*
X334871Y690870D01*
X334918Y690813D01*
X334937Y690794D01*
X335087Y690663D01*
X335247Y690569D01*
X335407Y690503D01*
X335557Y690456D01*
X335689Y690428D01*
X335792Y690418D01*
X335830Y690409D01*
X335886D01*
X336055Y690418D01*
X336215Y690456D01*
X336356Y690503D01*
X336469Y690559D01*
X336563Y690606D01*
X336638Y690653D01*
X336675Y690691D01*
X336694Y690700D01*
X336807Y690832D01*
X336901Y690982D01*
X336986Y691142D01*
X337051Y691311D01*
X337098Y691452D01*
X337117Y691518D01*
X337127Y691574D01*
X337136Y691621D01*
X337145Y691659D01*
X337155Y691678D01*
Y691687D01*
X337954Y691584D01*
X337935Y691433D01*
X337907Y691292D01*
X337822Y691029D01*
X337719Y690804D01*
X337662Y690710D01*
X337606Y690616D01*
X337550Y690531D01*
X337493Y690465D01*
X337446Y690400D01*
X337399Y690353D01*
X337371Y690315D01*
X337343Y690287D01*
X337324Y690268D01*
X337314Y690259D01*
X337202Y690174D01*
X337089Y690090D01*
X336976Y690024D01*
X336854Y689967D01*
X336619Y689873D01*
X336394Y689817D01*
X336290Y689798D01*
X336196Y689779D01*
X336112Y689770D01*
X336036Y689761D01*
X335980Y689751D01*
X335895D01*
X335717Y689761D01*
X335557Y689779D01*
X335397Y689808D01*
X335247Y689845D01*
X335106Y689892D01*
X334984Y689939D01*
X334862Y689996D01*
X334758Y690052D01*
X334655Y690099D01*
X334570Y690155D01*
X334495Y690202D01*
X334439Y690249D01*
X334392Y690287D01*
X334354Y690315D01*
X334335Y690334D01*
X334326Y690343D01*
X334213Y690456D01*
X334119Y690578D01*
X334035Y690700D01*
X333960Y690823D01*
X333903Y690935D01*
X333847Y691058D01*
X333772Y691283D01*
X333753Y691386D01*
X333734Y691480D01*
X333715Y691565D01*
X333706Y691640D01*
X333696Y691697D01*
Y691744D01*
Y691772D01*
Y691781D01*
X333706Y692007D01*
X333743Y692214D01*
X333800Y692392D01*
X333856Y692542D01*
X333913Y692665D01*
X333969Y692759D01*
X334006Y692815D01*
X334016Y692834D01*
X334147Y692975D01*
X334288Y693097D01*
X334439Y693191D01*
X334589Y693266D01*
X334721Y693323D01*
X334824Y693360D01*
X334862Y693370D01*
X334890Y693379D01*
X334909Y693388D01*
X334918D01*
X334758Y693473D01*
X334627Y693557D01*
X334514Y693651D01*
X334420Y693736D01*
X334345Y693811D01*
X334288Y693877D01*
X334260Y693914D01*
X334251Y693933D01*
X334176Y694065D01*
X334119Y694196D01*
X334072Y694328D01*
X334044Y694450D01*
X334025Y694554D01*
X334016Y694629D01*
Y694685D01*
Y694704D01*
X334025Y694864D01*
X334053Y695023D01*
X334091Y695164D01*
X334138Y695287D01*
X334185Y695390D01*
X334223Y695475D01*
X334251Y695522D01*
X334260Y695540D01*
X334354Y695681D01*
X334467Y695804D01*
X334580Y695907D01*
X334692Y696001D01*
X334786Y696067D01*
X334871Y696123D01*
X334927Y696151D01*
X334937Y696161D01*
X334946D01*
X335115Y696236D01*
X335285Y696292D01*
X335454Y696339D01*
X335604Y696367D01*
X335726Y696386D01*
X335830Y696396D01*
X336065D01*
X336196Y696377D01*
D02*
G37*
G36*
X340623Y696236D02*
X340726Y696086D01*
X340848Y695935D01*
X340961Y695804D01*
X341074Y695691D01*
X341158Y695597D01*
X341196Y695569D01*
X341224Y695540D01*
X341233Y695531D01*
X341243Y695522D01*
X341440Y695362D01*
X341638Y695211D01*
X341826Y695080D01*
X342014Y694977D01*
X342173Y694883D01*
X342239Y694845D01*
X342295Y694817D01*
X342342Y694789D01*
X342380Y694779D01*
X342399Y694760D01*
X342408D01*
Y693990D01*
X342267Y694046D01*
X342126Y694112D01*
X341985Y694178D01*
X341854Y694243D01*
X341741Y694300D01*
X341647Y694347D01*
X341591Y694384D01*
X341581Y694394D01*
X341572D01*
X341403Y694497D01*
X341252Y694601D01*
X341121Y694695D01*
X341017Y694779D01*
X340923Y694845D01*
X340867Y694901D01*
X340820Y694939D01*
X340811Y694948D01*
Y689864D01*
X340012D01*
Y696396D01*
X340529D01*
X340623Y696236D01*
D02*
G37*
G36*
X349250Y689864D02*
X346910D01*
X346694Y689873D01*
X346496Y689883D01*
X346318Y689902D01*
X346167Y689920D01*
X346036Y689939D01*
X345942Y689949D01*
X345914Y689958D01*
X345886Y689967D01*
X345867D01*
X345698Y690014D01*
X345547Y690071D01*
X345416Y690118D01*
X345303Y690174D01*
X345209Y690221D01*
X345143Y690259D01*
X345106Y690287D01*
X345087Y690296D01*
X344964Y690381D01*
X344861Y690484D01*
X344758Y690578D01*
X344673Y690672D01*
X344598Y690757D01*
X344542Y690823D01*
X344504Y690870D01*
X344495Y690888D01*
X344401Y691039D01*
X344307Y691199D01*
X344231Y691349D01*
X344175Y691499D01*
X344119Y691631D01*
X344081Y691734D01*
X344072Y691772D01*
X344062Y691800D01*
X344053Y691819D01*
Y691828D01*
X343997Y692054D01*
X343950Y692279D01*
X343921Y692495D01*
X343893Y692702D01*
X343884Y692881D01*
Y692956D01*
X343874Y693022D01*
Y693069D01*
Y693116D01*
Y693135D01*
Y693144D01*
X343884Y693463D01*
X343912Y693755D01*
X343959Y694018D01*
X343978Y694140D01*
X344006Y694243D01*
X344034Y694347D01*
X344053Y694431D01*
X344072Y694507D01*
X344100Y694572D01*
X344109Y694629D01*
X344128Y694666D01*
X344137Y694685D01*
Y694695D01*
X344241Y694939D01*
X344363Y695155D01*
X344495Y695343D01*
X344617Y695503D01*
X344730Y695634D01*
X344823Y695728D01*
X344861Y695757D01*
X344889Y695785D01*
X344899Y695794D01*
X344908Y695804D01*
X345059Y695926D01*
X345218Y696020D01*
X345378Y696104D01*
X345528Y696170D01*
X345660Y696217D01*
X345763Y696245D01*
X345801Y696264D01*
X345829D01*
X345848Y696273D01*
X345857D01*
X346017Y696302D01*
X346205Y696330D01*
X346393Y696349D01*
X346581Y696358D01*
X346750Y696367D01*
X349250D01*
Y689864D01*
D02*
G37*
G36*
X405830Y696386D02*
X405990Y696377D01*
X406140Y696349D01*
X406281Y696320D01*
X406413Y696283D01*
X406535Y696245D01*
X406648Y696198D01*
X406751Y696151D01*
X406845Y696104D01*
X406920Y696057D01*
X406986Y696020D01*
X407042Y695982D01*
X407089Y695954D01*
X407118Y695926D01*
X407136Y695916D01*
X407146Y695907D01*
X407240Y695813D01*
X407324Y695710D01*
X407409Y695597D01*
X407475Y695484D01*
X407588Y695258D01*
X407663Y695033D01*
X407691Y694930D01*
X407719Y694826D01*
X407738Y694742D01*
X407757Y694666D01*
X407766Y694601D01*
Y694554D01*
X407775Y694525D01*
Y694516D01*
X406958Y694431D01*
X406939Y694648D01*
X406901Y694836D01*
X406845Y695005D01*
X406779Y695136D01*
X406723Y695249D01*
X406666Y695324D01*
X406629Y695371D01*
X406610Y695390D01*
X406469Y695503D01*
X406319Y695587D01*
X406159Y695653D01*
X406018Y695691D01*
X405886Y695719D01*
X405774Y695728D01*
X405736Y695738D01*
X405680D01*
X405482Y695728D01*
X405304Y695691D01*
X405153Y695634D01*
X405022Y695578D01*
X404918Y695512D01*
X404853Y695465D01*
X404806Y695428D01*
X404787Y695409D01*
X404674Y695277D01*
X404590Y695146D01*
X404524Y695014D01*
X404486Y694883D01*
X404458Y694779D01*
X404449Y694685D01*
X404439Y694629D01*
Y694619D01*
Y694610D01*
X404458Y694441D01*
X404496Y694262D01*
X404561Y694102D01*
X404627Y693952D01*
X404702Y693830D01*
X404768Y693727D01*
X404787Y693689D01*
X404806Y693661D01*
X404824Y693651D01*
Y693642D01*
X404900Y693539D01*
X404994Y693435D01*
X405097Y693323D01*
X405210Y693210D01*
X405445Y692984D01*
X405680Y692759D01*
X405802Y692655D01*
X405905Y692561D01*
X406009Y692477D01*
X406093Y692402D01*
X406159Y692345D01*
X406215Y692298D01*
X406253Y692270D01*
X406262Y692261D01*
X406497Y692063D01*
X406713Y691875D01*
X406892Y691706D01*
X407033Y691565D01*
X407155Y691443D01*
X407240Y691358D01*
X407287Y691302D01*
X407305Y691292D01*
Y691283D01*
X407437Y691123D01*
X407541Y690973D01*
X407634Y690823D01*
X407710Y690691D01*
X407766Y690578D01*
X407804Y690494D01*
X407822Y690437D01*
X407832Y690428D01*
Y690418D01*
X407869Y690315D01*
X407888Y690221D01*
X407907Y690127D01*
X407916Y690043D01*
X407926Y689967D01*
Y689911D01*
Y689873D01*
Y689864D01*
X403612D01*
Y690635D01*
X406817D01*
X406704Y690794D01*
X406648Y690860D01*
X406601Y690926D01*
X406554Y690982D01*
X406516Y691020D01*
X406488Y691048D01*
X406479Y691058D01*
X406432Y691105D01*
X406375Y691152D01*
X406244Y691274D01*
X406093Y691415D01*
X405933Y691556D01*
X405783Y691678D01*
X405717Y691734D01*
X405661Y691791D01*
X405614Y691828D01*
X405576Y691856D01*
X405558Y691875D01*
X405548Y691885D01*
X405398Y692016D01*
X405247Y692138D01*
X405116Y692261D01*
X404994Y692364D01*
X404881Y692467D01*
X404787Y692561D01*
X404693Y692646D01*
X404618Y692721D01*
X404543Y692796D01*
X404486Y692853D01*
X404439Y692900D01*
X404392Y692946D01*
X404345Y693003D01*
X404326Y693022D01*
X404195Y693182D01*
X404082Y693323D01*
X403988Y693463D01*
X403913Y693576D01*
X403856Y693680D01*
X403819Y693755D01*
X403800Y693802D01*
X403791Y693821D01*
X403734Y693961D01*
X403697Y694102D01*
X403659Y694234D01*
X403640Y694347D01*
X403631Y694450D01*
X403621Y694525D01*
Y694572D01*
Y694591D01*
X403631Y694732D01*
X403650Y694864D01*
X403669Y694995D01*
X403706Y695108D01*
X403800Y695334D01*
X403894Y695512D01*
X403950Y695597D01*
X403997Y695663D01*
X404044Y695728D01*
X404091Y695775D01*
X404129Y695813D01*
X404148Y695851D01*
X404167Y695860D01*
X404176Y695869D01*
X404279Y695963D01*
X404392Y696048D01*
X404514Y696114D01*
X404636Y696170D01*
X404881Y696264D01*
X405125Y696330D01*
X405229Y696349D01*
X405332Y696367D01*
X405426Y696377D01*
X405501Y696386D01*
X405567Y696396D01*
X405661D01*
X405830Y696386D01*
D02*
G37*
G36*
X410473Y696236D02*
X410576Y696086D01*
X410698Y695935D01*
X410811Y695804D01*
X410924Y695691D01*
X411008Y695597D01*
X411046Y695569D01*
X411074Y695540D01*
X411083Y695531D01*
X411093Y695522D01*
X411290Y695362D01*
X411488Y695211D01*
X411676Y695080D01*
X411864Y694977D01*
X412023Y694883D01*
X412089Y694845D01*
X412146Y694817D01*
X412192Y694789D01*
X412230Y694779D01*
X412249Y694760D01*
X412258D01*
Y693990D01*
X412117Y694046D01*
X411976Y694112D01*
X411835Y694178D01*
X411704Y694243D01*
X411591Y694300D01*
X411497Y694347D01*
X411441Y694384D01*
X411431Y694394D01*
X411422D01*
X411253Y694497D01*
X411102Y694601D01*
X410971Y694695D01*
X410867Y694779D01*
X410773Y694845D01*
X410717Y694901D01*
X410670Y694939D01*
X410661Y694948D01*
Y689864D01*
X409862D01*
Y696396D01*
X410379D01*
X410473Y696236D01*
D02*
G37*
G36*
X419100Y689864D02*
X416760D01*
X416544Y689873D01*
X416346Y689883D01*
X416168Y689902D01*
X416017Y689920D01*
X415886Y689939D01*
X415792Y689949D01*
X415764Y689958D01*
X415736Y689967D01*
X415717D01*
X415548Y690014D01*
X415397Y690071D01*
X415266Y690118D01*
X415153Y690174D01*
X415059Y690221D01*
X414993Y690259D01*
X414955Y690287D01*
X414937Y690296D01*
X414814Y690381D01*
X414711Y690484D01*
X414608Y690578D01*
X414523Y690672D01*
X414448Y690757D01*
X414392Y690823D01*
X414354Y690870D01*
X414345Y690888D01*
X414251Y691039D01*
X414157Y691199D01*
X414081Y691349D01*
X414025Y691499D01*
X413969Y691631D01*
X413931Y691734D01*
X413922Y691772D01*
X413912Y691800D01*
X413903Y691819D01*
Y691828D01*
X413847Y692054D01*
X413800Y692279D01*
X413771Y692495D01*
X413743Y692702D01*
X413734Y692881D01*
Y692956D01*
X413724Y693022D01*
Y693069D01*
Y693116D01*
Y693135D01*
Y693144D01*
X413734Y693463D01*
X413762Y693755D01*
X413809Y694018D01*
X413828Y694140D01*
X413856Y694243D01*
X413884Y694347D01*
X413903Y694431D01*
X413922Y694507D01*
X413950Y694572D01*
X413959Y694629D01*
X413978Y694666D01*
X413988Y694685D01*
Y694695D01*
X414091Y694939D01*
X414213Y695155D01*
X414345Y695343D01*
X414467Y695503D01*
X414580Y695634D01*
X414674Y695728D01*
X414711Y695757D01*
X414739Y695785D01*
X414749Y695794D01*
X414758Y695804D01*
X414908Y695926D01*
X415068Y696020D01*
X415228Y696104D01*
X415378Y696170D01*
X415510Y696217D01*
X415613Y696245D01*
X415651Y696264D01*
X415679D01*
X415698Y696273D01*
X415707D01*
X415867Y696302D01*
X416055Y696330D01*
X416243Y696349D01*
X416431Y696358D01*
X416600Y696367D01*
X419100D01*
Y689864D01*
D02*
G37*
G36*
X480577Y696236D02*
X480680Y696086D01*
X480802Y695935D01*
X480915Y695804D01*
X481028Y695691D01*
X481112Y695597D01*
X481150Y695569D01*
X481178Y695540D01*
X481188Y695531D01*
X481197Y695522D01*
X481394Y695362D01*
X481592Y695211D01*
X481780Y695080D01*
X481968Y694977D01*
X482127Y694883D01*
X482193Y694845D01*
X482249Y694817D01*
X482296Y694789D01*
X482334Y694779D01*
X482353Y694760D01*
X482362D01*
Y693990D01*
X482221Y694046D01*
X482080Y694112D01*
X481939Y694178D01*
X481808Y694243D01*
X481695Y694300D01*
X481601Y694347D01*
X481545Y694384D01*
X481535Y694394D01*
X481526D01*
X481357Y694497D01*
X481206Y694601D01*
X481075Y694695D01*
X480971Y694779D01*
X480877Y694845D01*
X480821Y694901D01*
X480774Y694939D01*
X480765Y694948D01*
Y689864D01*
X479966D01*
Y696396D01*
X480483D01*
X480577Y696236D01*
D02*
G37*
G36*
X475521D02*
X475624Y696086D01*
X475746Y695935D01*
X475859Y695804D01*
X475972Y695691D01*
X476056Y695597D01*
X476094Y695569D01*
X476122Y695540D01*
X476131Y695531D01*
X476141Y695522D01*
X476338Y695362D01*
X476535Y695211D01*
X476724Y695080D01*
X476911Y694977D01*
X477071Y694883D01*
X477137Y694845D01*
X477193Y694817D01*
X477240Y694789D01*
X477278Y694779D01*
X477297Y694760D01*
X477306D01*
Y693990D01*
X477165Y694046D01*
X477024Y694112D01*
X476883Y694178D01*
X476752Y694243D01*
X476639Y694300D01*
X476545Y694347D01*
X476488Y694384D01*
X476479Y694394D01*
X476470D01*
X476301Y694497D01*
X476150Y694601D01*
X476019Y694695D01*
X475915Y694779D01*
X475821Y694845D01*
X475765Y694901D01*
X475718Y694939D01*
X475709Y694948D01*
Y689864D01*
X474910D01*
Y696396D01*
X475426D01*
X475521Y696236D01*
D02*
G37*
G36*
X489204Y689864D02*
X486864D01*
X486648Y689873D01*
X486450Y689883D01*
X486272Y689902D01*
X486121Y689920D01*
X485990Y689939D01*
X485896Y689949D01*
X485868Y689958D01*
X485840Y689967D01*
X485821D01*
X485652Y690014D01*
X485501Y690071D01*
X485370Y690118D01*
X485257Y690174D01*
X485163Y690221D01*
X485097Y690259D01*
X485060Y690287D01*
X485041Y690296D01*
X484919Y690381D01*
X484815Y690484D01*
X484712Y690578D01*
X484627Y690672D01*
X484552Y690757D01*
X484496Y690823D01*
X484458Y690870D01*
X484449Y690888D01*
X484355Y691039D01*
X484261Y691199D01*
X484185Y691349D01*
X484129Y691499D01*
X484073Y691631D01*
X484035Y691734D01*
X484026Y691772D01*
X484016Y691800D01*
X484007Y691819D01*
Y691828D01*
X483951Y692054D01*
X483904Y692279D01*
X483875Y692495D01*
X483847Y692702D01*
X483838Y692881D01*
Y692956D01*
X483828Y693022D01*
Y693069D01*
Y693116D01*
Y693135D01*
Y693144D01*
X483838Y693463D01*
X483866Y693755D01*
X483913Y694018D01*
X483932Y694140D01*
X483960Y694243D01*
X483988Y694347D01*
X484007Y694431D01*
X484026Y694507D01*
X484054Y694572D01*
X484063Y694629D01*
X484082Y694666D01*
X484091Y694685D01*
Y694695D01*
X484195Y694939D01*
X484317Y695155D01*
X484449Y695343D01*
X484571Y695503D01*
X484684Y695634D01*
X484777Y695728D01*
X484815Y695757D01*
X484843Y695785D01*
X484853Y695794D01*
X484862Y695804D01*
X485013Y695926D01*
X485172Y696020D01*
X485332Y696104D01*
X485482Y696170D01*
X485614Y696217D01*
X485717Y696245D01*
X485755Y696264D01*
X485783D01*
X485802Y696273D01*
X485811D01*
X485971Y696302D01*
X486159Y696330D01*
X486347Y696349D01*
X486535Y696358D01*
X486704Y696367D01*
X489204D01*
Y689864D01*
D02*
G37*
G36*
X550681Y696236D02*
X550784Y696086D01*
X550906Y695935D01*
X551019Y695804D01*
X551132Y695691D01*
X551216Y695597D01*
X551254Y695569D01*
X551282Y695540D01*
X551292Y695531D01*
X551301Y695522D01*
X551498Y695362D01*
X551696Y695211D01*
X551884Y695080D01*
X552071Y694977D01*
X552231Y694883D01*
X552297Y694845D01*
X552354Y694817D01*
X552401Y694789D01*
X552438Y694779D01*
X552457Y694760D01*
X552466D01*
Y693990D01*
X552325Y694046D01*
X552184Y694112D01*
X552043Y694178D01*
X551912Y694243D01*
X551799Y694300D01*
X551705Y694347D01*
X551649Y694384D01*
X551639Y694394D01*
X551630D01*
X551461Y694497D01*
X551310Y694601D01*
X551179Y694695D01*
X551075Y694779D01*
X550981Y694845D01*
X550925Y694901D01*
X550878Y694939D01*
X550869Y694948D01*
Y689864D01*
X550070D01*
Y696396D01*
X550587D01*
X550681Y696236D01*
D02*
G37*
G36*
X559308Y689864D02*
X556968D01*
X556752Y689873D01*
X556554Y689883D01*
X556376Y689902D01*
X556226Y689920D01*
X556094Y689939D01*
X556000Y689949D01*
X555972Y689958D01*
X555943Y689967D01*
X555925D01*
X555756Y690014D01*
X555605Y690071D01*
X555474Y690118D01*
X555361Y690174D01*
X555267Y690221D01*
X555201Y690259D01*
X555163Y690287D01*
X555145Y690296D01*
X555023Y690381D01*
X554919Y690484D01*
X554816Y690578D01*
X554731Y690672D01*
X554656Y690757D01*
X554600Y690823D01*
X554562Y690870D01*
X554553Y690888D01*
X554459Y691039D01*
X554365Y691199D01*
X554290Y691349D01*
X554233Y691499D01*
X554177Y691631D01*
X554139Y691734D01*
X554130Y691772D01*
X554120Y691800D01*
X554111Y691819D01*
Y691828D01*
X554054Y692054D01*
X554007Y692279D01*
X553979Y692495D01*
X553951Y692702D01*
X553942Y692881D01*
Y692956D01*
X553932Y693022D01*
Y693069D01*
Y693116D01*
Y693135D01*
Y693144D01*
X553942Y693463D01*
X553970Y693755D01*
X554017Y694018D01*
X554036Y694140D01*
X554064Y694243D01*
X554092Y694347D01*
X554111Y694431D01*
X554130Y694507D01*
X554158Y694572D01*
X554167Y694629D01*
X554186Y694666D01*
X554196Y694685D01*
Y694695D01*
X554299Y694939D01*
X554421Y695155D01*
X554553Y695343D01*
X554675Y695503D01*
X554788Y695634D01*
X554882Y695728D01*
X554919Y695757D01*
X554947Y695785D01*
X554957Y695794D01*
X554966Y695804D01*
X555117Y695926D01*
X555276Y696020D01*
X555436Y696104D01*
X555586Y696170D01*
X555718Y696217D01*
X555821Y696245D01*
X555859Y696264D01*
X555887D01*
X555906Y696273D01*
X555915D01*
X556075Y696302D01*
X556263Y696330D01*
X556451Y696349D01*
X556639Y696358D01*
X556808Y696367D01*
X559308D01*
Y689864D01*
D02*
G37*
G36*
X546151Y696377D02*
X546386Y696339D01*
X546583Y696273D01*
X546752Y696208D01*
X546893Y696133D01*
X546950Y696104D01*
X546997Y696067D01*
X547034Y696048D01*
X547062Y696029D01*
X547072Y696010D01*
X547081D01*
X547250Y695860D01*
X547391Y695681D01*
X547514Y695503D01*
X547607Y695334D01*
X547683Y695174D01*
X547720Y695108D01*
X547739Y695042D01*
X547758Y694995D01*
X547777Y694958D01*
X547786Y694939D01*
Y694930D01*
X547824Y694789D01*
X547861Y694648D01*
X547918Y694337D01*
X547965Y694027D01*
X547993Y693736D01*
X548002Y693595D01*
X548012Y693473D01*
Y693360D01*
X548021Y693257D01*
Y693182D01*
Y693116D01*
Y693078D01*
Y693069D01*
X548012Y692740D01*
X547993Y692430D01*
X547965Y692148D01*
X547918Y691885D01*
X547871Y691640D01*
X547814Y691424D01*
X547758Y691227D01*
X547701Y691058D01*
X547645Y690907D01*
X547579Y690776D01*
X547532Y690663D01*
X547485Y690578D01*
X547438Y690503D01*
X547410Y690456D01*
X547391Y690428D01*
X547382Y690418D01*
X547279Y690306D01*
X547166Y690202D01*
X547044Y690108D01*
X546921Y690033D01*
X546799Y689967D01*
X546677Y689911D01*
X546555Y689873D01*
X546442Y689836D01*
X546329Y689808D01*
X546226Y689789D01*
X546132Y689770D01*
X546057Y689761D01*
X545991Y689751D01*
X545897D01*
X545643Y689770D01*
X545408Y689808D01*
X545211Y689873D01*
X545042Y689939D01*
X544901Y690005D01*
X544854Y690043D01*
X544807Y690071D01*
X544769Y690090D01*
X544741Y690108D01*
X544732Y690127D01*
X544722D01*
X544553Y690287D01*
X544412Y690456D01*
X544290Y690644D01*
X544196Y690813D01*
X544121Y690973D01*
X544083Y691039D01*
X544064Y691105D01*
X544046Y691152D01*
X544027Y691189D01*
X544017Y691208D01*
Y691217D01*
X543970Y691358D01*
X543933Y691499D01*
X543876Y691800D01*
X543829Y692110D01*
X543801Y692411D01*
X543792Y692542D01*
X543783Y692665D01*
Y692777D01*
X543773Y692881D01*
Y692956D01*
Y693022D01*
Y693059D01*
Y693069D01*
Y693247D01*
X543783Y693416D01*
Y693567D01*
X543792Y693717D01*
X543811Y693849D01*
X543820Y693980D01*
X543829Y694093D01*
X543848Y694196D01*
X543858Y694290D01*
X543876Y694375D01*
X543886Y694441D01*
X543895Y694497D01*
X543905Y694544D01*
X543914Y694572D01*
X543923Y694591D01*
Y694601D01*
X543980Y694807D01*
X544046Y694995D01*
X544121Y695155D01*
X544177Y695296D01*
X544243Y695418D01*
X544281Y695503D01*
X544318Y695550D01*
X544328Y695569D01*
X544431Y695710D01*
X544534Y695832D01*
X544647Y695935D01*
X544751Y696029D01*
X544845Y696095D01*
X544920Y696142D01*
X544967Y696170D01*
X544976Y696180D01*
X544985D01*
X545136Y696255D01*
X545296Y696302D01*
X545446Y696339D01*
X545587Y696367D01*
X545709Y696386D01*
X545812Y696396D01*
X545897D01*
X546151Y696377D01*
D02*
G37*
G36*
X873270Y696386D02*
X873420Y696367D01*
X873570Y696339D01*
X873702Y696302D01*
X873956Y696198D01*
X874068Y696151D01*
X874162Y696095D01*
X874256Y696029D01*
X874332Y695982D01*
X874407Y695926D01*
X874463Y695879D01*
X874510Y695841D01*
X874538Y695813D01*
X874557Y695794D01*
X874566Y695785D01*
X874670Y695672D01*
X874754Y695540D01*
X874839Y695418D01*
X874905Y695287D01*
X874961Y695146D01*
X875008Y695014D01*
X875074Y694770D01*
X875102Y694648D01*
X875121Y694544D01*
X875130Y694441D01*
X875140Y694356D01*
X875149Y694290D01*
Y694243D01*
Y694206D01*
Y694196D01*
X875140Y694018D01*
X875121Y693858D01*
X875102Y693698D01*
X875064Y693548D01*
X875018Y693416D01*
X874971Y693285D01*
X874924Y693172D01*
X874867Y693069D01*
X874820Y692975D01*
X874773Y692890D01*
X874726Y692824D01*
X874679Y692759D01*
X874642Y692712D01*
X874623Y692683D01*
X874604Y692665D01*
X874595Y692655D01*
X874491Y692552D01*
X874379Y692467D01*
X874266Y692383D01*
X874144Y692317D01*
X874031Y692261D01*
X873918Y692214D01*
X873702Y692148D01*
X873608Y692120D01*
X873514Y692101D01*
X873439Y692091D01*
X873363Y692082D01*
X873307Y692073D01*
X873232D01*
X873053Y692082D01*
X872884Y692110D01*
X872734Y692148D01*
X872593Y692195D01*
X872489Y692232D01*
X872405Y692270D01*
X872348Y692298D01*
X872330Y692308D01*
X872179Y692402D01*
X872048Y692505D01*
X871935Y692608D01*
X871841Y692702D01*
X871775Y692796D01*
X871719Y692862D01*
X871681Y692909D01*
X871672Y692928D01*
Y692853D01*
Y692806D01*
Y692777D01*
Y692768D01*
X871681Y692580D01*
X871691Y692402D01*
X871710Y692242D01*
X871728Y692091D01*
X871756Y691969D01*
X871775Y691875D01*
X871785Y691838D01*
Y691809D01*
X871794Y691800D01*
Y691791D01*
X871841Y691621D01*
X871888Y691471D01*
X871935Y691339D01*
X871982Y691227D01*
X872020Y691142D01*
X872057Y691076D01*
X872076Y691029D01*
X872085Y691020D01*
X872161Y690917D01*
X872236Y690832D01*
X872311Y690757D01*
X872386Y690691D01*
X872442Y690635D01*
X872499Y690597D01*
X872536Y690578D01*
X872546Y690569D01*
X872649Y690512D01*
X872762Y690475D01*
X872865Y690447D01*
X872969Y690428D01*
X873053Y690418D01*
X873119Y690409D01*
X873185D01*
X873335Y690418D01*
X873476Y690447D01*
X873598Y690484D01*
X873702Y690531D01*
X873777Y690569D01*
X873843Y690606D01*
X873880Y690635D01*
X873890Y690644D01*
X873984Y690747D01*
X874059Y690870D01*
X874125Y691001D01*
X874172Y691133D01*
X874209Y691245D01*
X874238Y691349D01*
X874247Y691386D01*
Y691405D01*
X874256Y691424D01*
Y691433D01*
X875027Y691368D01*
X874971Y691095D01*
X874895Y690860D01*
X874801Y690653D01*
X874707Y690484D01*
X874613Y690353D01*
X874566Y690296D01*
X874529Y690249D01*
X874501Y690221D01*
X874473Y690193D01*
X874463Y690183D01*
X874454Y690174D01*
X874360Y690099D01*
X874256Y690033D01*
X874050Y689930D01*
X873843Y689855D01*
X873645Y689808D01*
X873467Y689770D01*
X873392Y689761D01*
X873326D01*
X873279Y689751D01*
X873204D01*
X872941Y689770D01*
X872706Y689808D01*
X872489Y689873D01*
X872311Y689949D01*
X872236Y689977D01*
X872161Y690014D01*
X872104Y690052D01*
X872048Y690080D01*
X872010Y690099D01*
X871982Y690118D01*
X871963Y690136D01*
X871954D01*
X871766Y690296D01*
X871597Y690475D01*
X871465Y690663D01*
X871352Y690841D01*
X871258Y691001D01*
X871221Y691076D01*
X871193Y691133D01*
X871174Y691189D01*
X871155Y691227D01*
X871146Y691245D01*
Y691255D01*
X871099Y691396D01*
X871052Y691556D01*
X870986Y691875D01*
X870939Y692214D01*
X870911Y692533D01*
X870892Y692674D01*
X870882Y692815D01*
Y692937D01*
X870873Y693040D01*
Y693125D01*
Y693191D01*
Y693238D01*
Y693247D01*
Y693463D01*
X870882Y693670D01*
X870901Y693858D01*
X870920Y694037D01*
X870939Y694196D01*
X870958Y694347D01*
X870986Y694488D01*
X871014Y694610D01*
X871042Y694713D01*
X871061Y694807D01*
X871089Y694892D01*
X871108Y694958D01*
X871127Y695005D01*
X871146Y695042D01*
X871155Y695061D01*
Y695070D01*
X871268Y695296D01*
X871390Y695493D01*
X871531Y695663D01*
X871653Y695804D01*
X871775Y695907D01*
X871869Y695982D01*
X871907Y696010D01*
X871935Y696029D01*
X871944Y696048D01*
X871954D01*
X872151Y696161D01*
X872348Y696245D01*
X872546Y696311D01*
X872724Y696349D01*
X872884Y696377D01*
X872950Y696386D01*
X872997D01*
X873044Y696396D01*
X873110D01*
X873270Y696386D01*
D02*
G37*
G36*
X881380Y689864D02*
X879040D01*
X878824Y689873D01*
X878626Y689883D01*
X878448Y689902D01*
X878298Y689920D01*
X878166Y689939D01*
X878072Y689949D01*
X878044Y689958D01*
X878016Y689967D01*
X877997D01*
X877828Y690014D01*
X877677Y690071D01*
X877546Y690118D01*
X877433Y690174D01*
X877339Y690221D01*
X877273Y690259D01*
X877235Y690287D01*
X877217Y690296D01*
X877094Y690381D01*
X876991Y690484D01*
X876888Y690578D01*
X876803Y690672D01*
X876728Y690757D01*
X876672Y690823D01*
X876634Y690870D01*
X876625Y690888D01*
X876531Y691039D01*
X876437Y691199D01*
X876361Y691349D01*
X876305Y691499D01*
X876249Y691631D01*
X876211Y691734D01*
X876202Y691772D01*
X876192Y691800D01*
X876183Y691819D01*
Y691828D01*
X876126Y692054D01*
X876079Y692279D01*
X876051Y692495D01*
X876023Y692702D01*
X876014Y692881D01*
Y692956D01*
X876004Y693022D01*
Y693069D01*
Y693116D01*
Y693135D01*
Y693144D01*
X876014Y693463D01*
X876042Y693755D01*
X876089Y694018D01*
X876108Y694140D01*
X876136Y694243D01*
X876164Y694347D01*
X876183Y694431D01*
X876202Y694507D01*
X876230Y694572D01*
X876239Y694629D01*
X876258Y694666D01*
X876267Y694685D01*
Y694695D01*
X876371Y694939D01*
X876493Y695155D01*
X876625Y695343D01*
X876747Y695503D01*
X876860Y695634D01*
X876954Y695728D01*
X876991Y695757D01*
X877019Y695785D01*
X877029Y695794D01*
X877038Y695804D01*
X877188Y695926D01*
X877348Y696020D01*
X877508Y696104D01*
X877658Y696170D01*
X877790Y696217D01*
X877893Y696245D01*
X877931Y696264D01*
X877959D01*
X877978Y696273D01*
X877987D01*
X878147Y696302D01*
X878335Y696330D01*
X878523Y696349D01*
X878711Y696358D01*
X878880Y696367D01*
X881380D01*
Y689864D01*
D02*
G37*
G36*
X811276D02*
X808936D01*
X808720Y689873D01*
X808522Y689883D01*
X808344Y689902D01*
X808194Y689920D01*
X808062Y689939D01*
X807968Y689949D01*
X807940Y689958D01*
X807912Y689967D01*
X807893D01*
X807724Y690014D01*
X807573Y690071D01*
X807442Y690118D01*
X807329Y690174D01*
X807235Y690221D01*
X807169Y690259D01*
X807132Y690287D01*
X807113Y690296D01*
X806991Y690381D01*
X806887Y690484D01*
X806784Y690578D01*
X806699Y690672D01*
X806624Y690757D01*
X806568Y690823D01*
X806530Y690870D01*
X806521Y690888D01*
X806427Y691039D01*
X806333Y691199D01*
X806257Y691349D01*
X806201Y691499D01*
X806145Y691631D01*
X806107Y691734D01*
X806098Y691772D01*
X806088Y691800D01*
X806079Y691819D01*
Y691828D01*
X806022Y692054D01*
X805975Y692279D01*
X805947Y692495D01*
X805919Y692702D01*
X805910Y692881D01*
Y692956D01*
X805900Y693022D01*
Y693069D01*
Y693116D01*
Y693135D01*
Y693144D01*
X805910Y693463D01*
X805938Y693755D01*
X805985Y694018D01*
X806004Y694140D01*
X806032Y694243D01*
X806060Y694347D01*
X806079Y694431D01*
X806098Y694507D01*
X806126Y694572D01*
X806135Y694629D01*
X806154Y694666D01*
X806163Y694685D01*
Y694695D01*
X806267Y694939D01*
X806389Y695155D01*
X806521Y695343D01*
X806643Y695503D01*
X806756Y695634D01*
X806850Y695728D01*
X806887Y695757D01*
X806915Y695785D01*
X806925Y695794D01*
X806934Y695804D01*
X807085Y695926D01*
X807244Y696020D01*
X807404Y696104D01*
X807554Y696170D01*
X807686Y696217D01*
X807789Y696245D01*
X807827Y696264D01*
X807855D01*
X807874Y696273D01*
X807883D01*
X808043Y696302D01*
X808231Y696330D01*
X808419Y696349D01*
X808607Y696358D01*
X808776Y696367D01*
X811276D01*
Y689864D01*
D02*
G37*
G36*
X803081Y696386D02*
X803231Y696377D01*
X803494Y696320D01*
X803617Y696283D01*
X803729Y696245D01*
X803833Y696198D01*
X803927Y696151D01*
X804002Y696104D01*
X804077Y696057D01*
X804143Y696020D01*
X804190Y695982D01*
X804228Y695954D01*
X804256Y695926D01*
X804275Y695916D01*
X804284Y695907D01*
X804369Y695813D01*
X804453Y695719D01*
X804519Y695616D01*
X804575Y695512D01*
X804669Y695315D01*
X804726Y695127D01*
X804763Y694967D01*
X804773Y694892D01*
X804782Y694836D01*
X804791Y694779D01*
Y694742D01*
Y694723D01*
Y694713D01*
X804782Y694544D01*
X804754Y694384D01*
X804716Y694243D01*
X804669Y694121D01*
X804632Y694027D01*
X804594Y693952D01*
X804566Y693914D01*
X804556Y693896D01*
X804453Y693783D01*
X804340Y693680D01*
X804218Y693586D01*
X804096Y693510D01*
X803983Y693454D01*
X803899Y693416D01*
X803861Y693398D01*
X803833Y693388D01*
X803823Y693379D01*
X803814D01*
X804030Y693313D01*
X804209Y693229D01*
X804369Y693125D01*
X804500Y693031D01*
X804603Y692937D01*
X804679Y692862D01*
X804716Y692815D01*
X804735Y692806D01*
Y692796D01*
X804838Y692627D01*
X804923Y692448D01*
X804979Y692279D01*
X805017Y692110D01*
X805036Y691960D01*
X805045Y691894D01*
Y691838D01*
X805054Y691800D01*
Y691762D01*
Y691744D01*
Y691734D01*
X805045Y691584D01*
X805026Y691433D01*
X804998Y691292D01*
X804960Y691152D01*
X804867Y690917D01*
X804820Y690804D01*
X804763Y690710D01*
X804707Y690616D01*
X804660Y690541D01*
X804603Y690475D01*
X804566Y690418D01*
X804528Y690371D01*
X804500Y690343D01*
X804481Y690324D01*
X804472Y690315D01*
X804359Y690212D01*
X804237Y690127D01*
X804105Y690052D01*
X803974Y689986D01*
X803852Y689939D01*
X803720Y689892D01*
X803466Y689826D01*
X803354Y689798D01*
X803250Y689779D01*
X803156Y689770D01*
X803072Y689761D01*
X803006Y689751D01*
X802912D01*
X802733Y689761D01*
X802573Y689779D01*
X802414Y689808D01*
X802263Y689836D01*
X802132Y689883D01*
X802000Y689930D01*
X801878Y689977D01*
X801775Y690033D01*
X801681Y690090D01*
X801596Y690136D01*
X801530Y690183D01*
X801464Y690230D01*
X801417Y690259D01*
X801389Y690287D01*
X801370Y690306D01*
X801361Y690315D01*
X801258Y690428D01*
X801164Y690541D01*
X801089Y690653D01*
X801023Y690776D01*
X800957Y690888D01*
X800910Y691011D01*
X800844Y691227D01*
X800816Y691330D01*
X800797Y691424D01*
X800788Y691509D01*
X800778Y691574D01*
X800769Y691631D01*
Y691678D01*
Y691706D01*
Y691715D01*
X800778Y691932D01*
X800816Y692129D01*
X800872Y692308D01*
X800929Y692458D01*
X800985Y692580D01*
X801042Y692674D01*
X801079Y692730D01*
X801089Y692740D01*
Y692749D01*
X801220Y692900D01*
X801361Y693031D01*
X801512Y693135D01*
X801652Y693229D01*
X801784Y693294D01*
X801897Y693341D01*
X801934Y693360D01*
X801963Y693370D01*
X801981Y693379D01*
X801991D01*
X801822Y693454D01*
X801681Y693539D01*
X801559Y693623D01*
X801455Y693708D01*
X801380Y693783D01*
X801323Y693839D01*
X801286Y693877D01*
X801276Y693896D01*
X801192Y694027D01*
X801136Y694159D01*
X801089Y694290D01*
X801060Y694422D01*
X801042Y694525D01*
X801032Y694610D01*
Y694666D01*
Y694676D01*
Y694685D01*
X801042Y694817D01*
X801051Y694939D01*
X801117Y695174D01*
X801201Y695381D01*
X801295Y695559D01*
X801389Y695700D01*
X801436Y695757D01*
X801474Y695813D01*
X801512Y695851D01*
X801540Y695879D01*
X801549Y695888D01*
X801559Y695898D01*
X801662Y695982D01*
X801765Y696067D01*
X801878Y696133D01*
X801991Y696189D01*
X802216Y696273D01*
X802442Y696330D01*
X802536Y696358D01*
X802630Y696367D01*
X802714Y696377D01*
X802790Y696386D01*
X802846Y696396D01*
X802931D01*
X803081Y696386D01*
D02*
G37*
G36*
X741172Y689864D02*
X738832D01*
X738616Y689873D01*
X738418Y689883D01*
X738240Y689902D01*
X738090Y689920D01*
X737958Y689939D01*
X737864Y689949D01*
X737836Y689958D01*
X737807Y689967D01*
X737789D01*
X737620Y690014D01*
X737469Y690071D01*
X737338Y690118D01*
X737225Y690174D01*
X737131Y690221D01*
X737065Y690259D01*
X737028Y690287D01*
X737009Y690296D01*
X736887Y690381D01*
X736783Y690484D01*
X736680Y690578D01*
X736595Y690672D01*
X736520Y690757D01*
X736464Y690823D01*
X736426Y690870D01*
X736417Y690888D01*
X736323Y691039D01*
X736229Y691199D01*
X736153Y691349D01*
X736097Y691499D01*
X736041Y691631D01*
X736003Y691734D01*
X735994Y691772D01*
X735984Y691800D01*
X735975Y691819D01*
Y691828D01*
X735919Y692054D01*
X735872Y692279D01*
X735843Y692495D01*
X735815Y692702D01*
X735806Y692881D01*
Y692956D01*
X735796Y693022D01*
Y693069D01*
Y693116D01*
Y693135D01*
Y693144D01*
X735806Y693463D01*
X735834Y693755D01*
X735881Y694018D01*
X735900Y694140D01*
X735928Y694243D01*
X735956Y694347D01*
X735975Y694431D01*
X735994Y694507D01*
X736022Y694572D01*
X736031Y694629D01*
X736050Y694666D01*
X736059Y694685D01*
Y694695D01*
X736163Y694939D01*
X736285Y695155D01*
X736417Y695343D01*
X736539Y695503D01*
X736652Y695634D01*
X736746Y695728D01*
X736783Y695757D01*
X736811Y695785D01*
X736821Y695794D01*
X736830Y695804D01*
X736981Y695926D01*
X737140Y696020D01*
X737300Y696104D01*
X737450Y696170D01*
X737582Y696217D01*
X737685Y696245D01*
X737723Y696264D01*
X737751D01*
X737770Y696273D01*
X737779D01*
X737939Y696302D01*
X738127Y696330D01*
X738315Y696349D01*
X738503Y696358D01*
X738672Y696367D01*
X741172D01*
Y689864D01*
D02*
G37*
G36*
X734885Y695512D02*
X731699D01*
X731924Y695240D01*
X732141Y694948D01*
X732328Y694666D01*
X732507Y694394D01*
X732582Y694272D01*
X732648Y694159D01*
X732714Y694055D01*
X732761Y693971D01*
X732798Y693896D01*
X732827Y693849D01*
X732845Y693811D01*
X732855Y693802D01*
X733043Y693426D01*
X733212Y693050D01*
X733353Y692693D01*
X733409Y692533D01*
X733466Y692373D01*
X733522Y692232D01*
X733560Y692101D01*
X733597Y691988D01*
X733625Y691894D01*
X733654Y691809D01*
X733672Y691753D01*
X733682Y691715D01*
Y691706D01*
X733776Y691321D01*
X733813Y691133D01*
X733842Y690964D01*
X733870Y690804D01*
X733898Y690644D01*
X733917Y690512D01*
X733935Y690381D01*
X733945Y690268D01*
X733954Y690165D01*
X733964Y690071D01*
Y689996D01*
X733973Y689939D01*
Y689902D01*
Y689873D01*
Y689864D01*
X733156D01*
X733127Y690221D01*
X733080Y690550D01*
X733033Y690851D01*
X733005Y690992D01*
X732977Y691123D01*
X732958Y691236D01*
X732930Y691339D01*
X732911Y691433D01*
X732892Y691509D01*
X732874Y691565D01*
X732864Y691612D01*
X732855Y691640D01*
Y691650D01*
X732714Y692082D01*
X732563Y692486D01*
X732488Y692683D01*
X732413Y692871D01*
X732328Y693040D01*
X732253Y693210D01*
X732188Y693360D01*
X732122Y693492D01*
X732065Y693604D01*
X732018Y693708D01*
X731971Y693792D01*
X731943Y693849D01*
X731924Y693886D01*
X731915Y693896D01*
X731802Y694093D01*
X731689Y694290D01*
X731577Y694469D01*
X731464Y694638D01*
X731360Y694789D01*
X731257Y694939D01*
X731154Y695070D01*
X731069Y695183D01*
X730985Y695296D01*
X730909Y695390D01*
X730834Y695465D01*
X730778Y695531D01*
X730740Y695587D01*
X730703Y695625D01*
X730684Y695644D01*
X730674Y695653D01*
Y696283D01*
X734885D01*
Y695512D01*
D02*
G37*
G36*
X662977Y696386D02*
X663155Y696367D01*
X663324Y696330D01*
X663484Y696283D01*
X663625Y696217D01*
X663766Y696161D01*
X663888Y696086D01*
X664001Y696020D01*
X664095Y695954D01*
X664189Y695879D01*
X664264Y695822D01*
X664321Y695766D01*
X664368Y695710D01*
X664405Y695672D01*
X664424Y695653D01*
X664433Y695644D01*
X664555Y695475D01*
X664659Y695277D01*
X664753Y695070D01*
X664837Y694854D01*
X664903Y694629D01*
X664960Y694403D01*
X665006Y694168D01*
X665044Y693952D01*
X665072Y693736D01*
X665091Y693539D01*
X665110Y693360D01*
X665119Y693210D01*
Y693078D01*
X665129Y692984D01*
Y692946D01*
Y692918D01*
Y692909D01*
Y692900D01*
X665119Y692599D01*
X665100Y692317D01*
X665072Y692054D01*
X665025Y691809D01*
X664978Y691593D01*
X664931Y691396D01*
X664875Y691217D01*
X664809Y691058D01*
X664753Y690926D01*
X664696Y690804D01*
X664649Y690710D01*
X664593Y690625D01*
X664555Y690559D01*
X664527Y690522D01*
X664509Y690494D01*
X664499Y690484D01*
X664377Y690353D01*
X664245Y690240D01*
X664114Y690146D01*
X663982Y690061D01*
X663841Y689986D01*
X663710Y689930D01*
X663578Y689883D01*
X663447Y689845D01*
X663334Y689817D01*
X663221Y689789D01*
X663127Y689770D01*
X663042Y689761D01*
X662967D01*
X662920Y689751D01*
X662873D01*
X662657Y689761D01*
X662460Y689798D01*
X662281Y689836D01*
X662121Y689892D01*
X661999Y689939D01*
X661905Y689986D01*
X661868Y689996D01*
X661839Y690014D01*
X661830Y690024D01*
X661821D01*
X661661Y690136D01*
X661510Y690268D01*
X661388Y690400D01*
X661285Y690531D01*
X661200Y690653D01*
X661144Y690747D01*
X661125Y690785D01*
X661106Y690813D01*
X661097Y690823D01*
Y690832D01*
X661003Y691029D01*
X660937Y691236D01*
X660890Y691424D01*
X660862Y691603D01*
X660834Y691753D01*
Y691809D01*
X660824Y691866D01*
Y691913D01*
Y691941D01*
Y691960D01*
Y691969D01*
X660834Y692138D01*
X660853Y692298D01*
X660881Y692458D01*
X660909Y692599D01*
X660956Y692730D01*
X661003Y692862D01*
X661050Y692975D01*
X661106Y693078D01*
X661163Y693172D01*
X661210Y693257D01*
X661257Y693323D01*
X661304Y693388D01*
X661332Y693435D01*
X661360Y693463D01*
X661379Y693482D01*
X661388Y693492D01*
X661492Y693595D01*
X661605Y693689D01*
X661727Y693764D01*
X661839Y693830D01*
X661952Y693896D01*
X662065Y693943D01*
X662281Y694008D01*
X662375Y694037D01*
X662469Y694055D01*
X662544Y694065D01*
X662619Y694074D01*
X662676Y694084D01*
X662751D01*
X662920Y694074D01*
X663080Y694046D01*
X663230Y694018D01*
X663362Y693980D01*
X663475Y693933D01*
X663559Y693905D01*
X663616Y693877D01*
X663625Y693867D01*
X663634D01*
X663785Y693774D01*
X663916Y693670D01*
X664038Y693567D01*
X664133Y693454D01*
X664217Y693360D01*
X664283Y693285D01*
X664321Y693229D01*
X664330Y693219D01*
Y693388D01*
X664321Y693557D01*
X664311Y693708D01*
X664292Y693858D01*
X664283Y693990D01*
X664264Y694112D01*
X664245Y694225D01*
X664217Y694328D01*
X664198Y694422D01*
X664180Y694497D01*
X664161Y694563D01*
X664151Y694619D01*
X664133Y694657D01*
X664123Y694685D01*
X664114Y694704D01*
Y694713D01*
X664020Y694901D01*
X663926Y695070D01*
X663822Y695202D01*
X663728Y695315D01*
X663644Y695409D01*
X663578Y695475D01*
X663531Y695512D01*
X663512Y695522D01*
X663400Y695597D01*
X663287Y695644D01*
X663174Y695681D01*
X663061Y695710D01*
X662977Y695728D01*
X662901Y695738D01*
X662836D01*
X662666Y695719D01*
X662507Y695681D01*
X662375Y695625D01*
X662253Y695569D01*
X662159Y695503D01*
X662093Y695446D01*
X662056Y695409D01*
X662037Y695390D01*
X661971Y695305D01*
X661905Y695202D01*
X661849Y695089D01*
X661811Y694977D01*
X661774Y694873D01*
X661745Y694789D01*
X661736Y694732D01*
X661727Y694723D01*
Y694713D01*
X660928Y694779D01*
X660984Y695042D01*
X661069Y695277D01*
X661163Y695484D01*
X661266Y695653D01*
X661369Y695785D01*
X661407Y695841D01*
X661454Y695888D01*
X661482Y695916D01*
X661510Y695945D01*
X661520Y695954D01*
X661529Y695963D01*
X661623Y696039D01*
X661727Y696104D01*
X661933Y696217D01*
X662140Y696292D01*
X662337Y696339D01*
X662516Y696377D01*
X662591Y696386D01*
X662657D01*
X662713Y696396D01*
X662789D01*
X662977Y696386D01*
D02*
G37*
G36*
X671322Y689864D02*
X668982D01*
X668766Y689873D01*
X668568Y689883D01*
X668390Y689902D01*
X668240Y689920D01*
X668108Y689939D01*
X668014Y689949D01*
X667986Y689958D01*
X667958Y689967D01*
X667939D01*
X667770Y690014D01*
X667619Y690071D01*
X667488Y690118D01*
X667375Y690174D01*
X667281Y690221D01*
X667215Y690259D01*
X667178Y690287D01*
X667159Y690296D01*
X667037Y690381D01*
X666933Y690484D01*
X666830Y690578D01*
X666745Y690672D01*
X666670Y690757D01*
X666614Y690823D01*
X666576Y690870D01*
X666567Y690888D01*
X666473Y691039D01*
X666379Y691199D01*
X666303Y691349D01*
X666247Y691499D01*
X666191Y691631D01*
X666153Y691734D01*
X666144Y691772D01*
X666134Y691800D01*
X666125Y691819D01*
Y691828D01*
X666068Y692054D01*
X666021Y692279D01*
X665993Y692495D01*
X665965Y692702D01*
X665956Y692881D01*
Y692956D01*
X665946Y693022D01*
Y693069D01*
Y693116D01*
Y693135D01*
Y693144D01*
X665956Y693463D01*
X665984Y693755D01*
X666031Y694018D01*
X666050Y694140D01*
X666078Y694243D01*
X666106Y694347D01*
X666125Y694431D01*
X666144Y694507D01*
X666172Y694572D01*
X666181Y694629D01*
X666200Y694666D01*
X666209Y694685D01*
Y694695D01*
X666313Y694939D01*
X666435Y695155D01*
X666567Y695343D01*
X666689Y695503D01*
X666802Y695634D01*
X666896Y695728D01*
X666933Y695757D01*
X666961Y695785D01*
X666971Y695794D01*
X666980Y695804D01*
X667131Y695926D01*
X667290Y696020D01*
X667450Y696104D01*
X667600Y696170D01*
X667732Y696217D01*
X667835Y696245D01*
X667873Y696264D01*
X667901D01*
X667920Y696273D01*
X667929D01*
X668089Y696302D01*
X668277Y696330D01*
X668465Y696349D01*
X668653Y696358D01*
X668822Y696367D01*
X671322D01*
Y689864D01*
D02*
G37*
G36*
X1154662Y692937D02*
X1153910Y692834D01*
X1153845Y692937D01*
X1153760Y693022D01*
X1153685Y693106D01*
X1153610Y693172D01*
X1153534Y693219D01*
X1153478Y693266D01*
X1153440Y693285D01*
X1153431Y693294D01*
X1153309Y693351D01*
X1153187Y693398D01*
X1153074Y693426D01*
X1152961Y693454D01*
X1152867Y693463D01*
X1152792Y693473D01*
X1152613D01*
X1152501Y693454D01*
X1152303Y693407D01*
X1152134Y693341D01*
X1151984Y693276D01*
X1151871Y693200D01*
X1151786Y693135D01*
X1151739Y693087D01*
X1151721Y693078D01*
Y693069D01*
X1151589Y692909D01*
X1151495Y692740D01*
X1151429Y692561D01*
X1151382Y692383D01*
X1151354Y692232D01*
X1151345Y692167D01*
Y692110D01*
X1151335Y692063D01*
Y692026D01*
Y692007D01*
Y691997D01*
Y691866D01*
X1151354Y691744D01*
X1151401Y691509D01*
X1151467Y691311D01*
X1151533Y691152D01*
X1151608Y691020D01*
X1151674Y690917D01*
X1151702Y690888D01*
X1151721Y690860D01*
X1151730Y690851D01*
X1151739Y690841D01*
X1151815Y690766D01*
X1151890Y690700D01*
X1152059Y690588D01*
X1152219Y690512D01*
X1152378Y690465D01*
X1152510Y690428D01*
X1152623Y690418D01*
X1152660Y690409D01*
X1152717D01*
X1152895Y690418D01*
X1153055Y690456D01*
X1153196Y690503D01*
X1153309Y690559D01*
X1153412Y690616D01*
X1153487Y690663D01*
X1153525Y690700D01*
X1153544Y690710D01*
X1153657Y690841D01*
X1153751Y690982D01*
X1153826Y691142D01*
X1153882Y691283D01*
X1153920Y691424D01*
X1153948Y691527D01*
X1153957Y691574D01*
X1153967Y691603D01*
Y691621D01*
Y691631D01*
X1154803Y691565D01*
X1154784Y691415D01*
X1154756Y691274D01*
X1154672Y691011D01*
X1154568Y690785D01*
X1154512Y690682D01*
X1154455Y690597D01*
X1154408Y690512D01*
X1154352Y690437D01*
X1154305Y690381D01*
X1154258Y690334D01*
X1154220Y690296D01*
X1154202Y690259D01*
X1154183Y690249D01*
X1154174Y690240D01*
X1154061Y690155D01*
X1153948Y690080D01*
X1153826Y690014D01*
X1153704Y689958D01*
X1153469Y689873D01*
X1153234Y689817D01*
X1153130Y689789D01*
X1153027Y689779D01*
X1152942Y689770D01*
X1152867Y689761D01*
X1152801Y689751D01*
X1152717D01*
X1152519Y689761D01*
X1152331Y689789D01*
X1152153Y689826D01*
X1151993Y689873D01*
X1151843Y689939D01*
X1151702Y690005D01*
X1151570Y690071D01*
X1151457Y690146D01*
X1151354Y690221D01*
X1151260Y690287D01*
X1151185Y690362D01*
X1151119Y690418D01*
X1151072Y690465D01*
X1151034Y690503D01*
X1151016Y690531D01*
X1151006Y690541D01*
X1150912Y690663D01*
X1150837Y690794D01*
X1150762Y690917D01*
X1150706Y691048D01*
X1150612Y691302D01*
X1150555Y691546D01*
X1150536Y691650D01*
X1150518Y691753D01*
X1150508Y691838D01*
X1150499Y691913D01*
X1150489Y691979D01*
Y692026D01*
Y692054D01*
Y692063D01*
X1150499Y692232D01*
X1150518Y692392D01*
X1150546Y692552D01*
X1150583Y692693D01*
X1150630Y692824D01*
X1150677Y692956D01*
X1150734Y693069D01*
X1150781Y693172D01*
X1150837Y693266D01*
X1150894Y693351D01*
X1150940Y693416D01*
X1150987Y693482D01*
X1151025Y693529D01*
X1151053Y693557D01*
X1151072Y693576D01*
X1151081Y693586D01*
X1151194Y693689D01*
X1151307Y693783D01*
X1151429Y693858D01*
X1151551Y693924D01*
X1151674Y693990D01*
X1151796Y694037D01*
X1152021Y694102D01*
X1152125Y694131D01*
X1152219Y694149D01*
X1152303Y694159D01*
X1152378Y694168D01*
X1152435Y694178D01*
X1152642D01*
X1152754Y694159D01*
X1152980Y694112D01*
X1153187Y694046D01*
X1153375Y693971D01*
X1153525Y693896D01*
X1153591Y693858D01*
X1153647Y693830D01*
X1153694Y693802D01*
X1153722Y693783D01*
X1153741Y693774D01*
X1153751Y693764D01*
X1153403Y695522D01*
X1150800D01*
Y696283D01*
X1154033D01*
X1154662Y692937D01*
D02*
G37*
G36*
X1161034Y689864D02*
X1158694D01*
X1158478Y689873D01*
X1158280Y689883D01*
X1158102Y689902D01*
X1157952Y689920D01*
X1157820Y689939D01*
X1157726Y689949D01*
X1157698Y689958D01*
X1157670Y689967D01*
X1157651D01*
X1157482Y690014D01*
X1157331Y690071D01*
X1157200Y690118D01*
X1157087Y690174D01*
X1156993Y690221D01*
X1156927Y690259D01*
X1156889Y690287D01*
X1156871Y690296D01*
X1156749Y690381D01*
X1156645Y690484D01*
X1156542Y690578D01*
X1156457Y690672D01*
X1156382Y690757D01*
X1156326Y690823D01*
X1156288Y690870D01*
X1156279Y690888D01*
X1156185Y691039D01*
X1156091Y691199D01*
X1156015Y691349D01*
X1155959Y691499D01*
X1155903Y691631D01*
X1155865Y691734D01*
X1155856Y691772D01*
X1155846Y691800D01*
X1155837Y691819D01*
Y691828D01*
X1155780Y692054D01*
X1155733Y692279D01*
X1155705Y692495D01*
X1155677Y692702D01*
X1155668Y692881D01*
Y692956D01*
X1155658Y693022D01*
Y693069D01*
Y693116D01*
Y693135D01*
Y693144D01*
X1155668Y693463D01*
X1155696Y693755D01*
X1155743Y694018D01*
X1155762Y694140D01*
X1155790Y694243D01*
X1155818Y694347D01*
X1155837Y694431D01*
X1155856Y694507D01*
X1155884Y694572D01*
X1155893Y694629D01*
X1155912Y694666D01*
X1155921Y694685D01*
Y694695D01*
X1156025Y694939D01*
X1156147Y695155D01*
X1156279Y695343D01*
X1156401Y695503D01*
X1156514Y695634D01*
X1156608Y695728D01*
X1156645Y695757D01*
X1156673Y695785D01*
X1156683Y695794D01*
X1156692Y695804D01*
X1156842Y695926D01*
X1157002Y696020D01*
X1157162Y696104D01*
X1157312Y696170D01*
X1157444Y696217D01*
X1157547Y696245D01*
X1157585Y696264D01*
X1157613D01*
X1157632Y696273D01*
X1157641D01*
X1157801Y696302D01*
X1157989Y696330D01*
X1158177Y696349D01*
X1158365Y696358D01*
X1158534Y696367D01*
X1161034D01*
Y689864D01*
D02*
G37*
G36*
X1091184D02*
X1088844D01*
X1088628Y689873D01*
X1088430Y689883D01*
X1088252Y689902D01*
X1088102Y689920D01*
X1087970Y689939D01*
X1087876Y689949D01*
X1087848Y689958D01*
X1087820Y689967D01*
X1087801D01*
X1087632Y690014D01*
X1087481Y690071D01*
X1087350Y690118D01*
X1087237Y690174D01*
X1087143Y690221D01*
X1087077Y690259D01*
X1087039Y690287D01*
X1087021Y690296D01*
X1086898Y690381D01*
X1086795Y690484D01*
X1086692Y690578D01*
X1086607Y690672D01*
X1086532Y690757D01*
X1086476Y690823D01*
X1086438Y690870D01*
X1086429Y690888D01*
X1086335Y691039D01*
X1086241Y691199D01*
X1086165Y691349D01*
X1086109Y691499D01*
X1086053Y691631D01*
X1086015Y691734D01*
X1086006Y691772D01*
X1085996Y691800D01*
X1085987Y691819D01*
Y691828D01*
X1085930Y692054D01*
X1085883Y692279D01*
X1085855Y692495D01*
X1085827Y692702D01*
X1085818Y692881D01*
Y692956D01*
X1085808Y693022D01*
Y693069D01*
Y693116D01*
Y693135D01*
Y693144D01*
X1085818Y693463D01*
X1085846Y693755D01*
X1085893Y694018D01*
X1085912Y694140D01*
X1085940Y694243D01*
X1085968Y694347D01*
X1085987Y694431D01*
X1086006Y694507D01*
X1086034Y694572D01*
X1086043Y694629D01*
X1086062Y694666D01*
X1086071Y694685D01*
Y694695D01*
X1086175Y694939D01*
X1086297Y695155D01*
X1086429Y695343D01*
X1086551Y695503D01*
X1086664Y695634D01*
X1086758Y695728D01*
X1086795Y695757D01*
X1086823Y695785D01*
X1086833Y695794D01*
X1086842Y695804D01*
X1086992Y695926D01*
X1087152Y696020D01*
X1087312Y696104D01*
X1087462Y696170D01*
X1087594Y696217D01*
X1087697Y696245D01*
X1087735Y696264D01*
X1087763D01*
X1087782Y696273D01*
X1087791D01*
X1087951Y696302D01*
X1088139Y696330D01*
X1088327Y696349D01*
X1088515Y696358D01*
X1088684Y696367D01*
X1091184D01*
Y689864D01*
D02*
G37*
G36*
X1085226Y692157D02*
Y691424D01*
X1082397D01*
Y689864D01*
X1081598D01*
Y691424D01*
X1080715D01*
Y692157D01*
X1081598D01*
Y696367D01*
X1082246D01*
X1085226Y692157D01*
D02*
G37*
G36*
X1013336Y696377D02*
X1013590Y696330D01*
X1013806Y696255D01*
X1013994Y696180D01*
X1014079Y696133D01*
X1014145Y696095D01*
X1014210Y696057D01*
X1014257Y696020D01*
X1014295Y695992D01*
X1014323Y695973D01*
X1014342Y695963D01*
X1014351Y695954D01*
X1014530Y695775D01*
X1014671Y695578D01*
X1014784Y695371D01*
X1014878Y695164D01*
X1014934Y694986D01*
X1014962Y694911D01*
X1014981Y694845D01*
X1014990Y694789D01*
X1015000Y694751D01*
X1015009Y694723D01*
Y694713D01*
X1014210Y694572D01*
X1014173Y694779D01*
X1014116Y694958D01*
X1014051Y695108D01*
X1013985Y695230D01*
X1013919Y695324D01*
X1013863Y695390D01*
X1013825Y695437D01*
X1013816Y695446D01*
X1013693Y695540D01*
X1013562Y695616D01*
X1013440Y695663D01*
X1013317Y695700D01*
X1013205Y695719D01*
X1013120Y695738D01*
X1013045D01*
X1012876Y695728D01*
X1012725Y695691D01*
X1012594Y695644D01*
X1012481Y695597D01*
X1012396Y695540D01*
X1012331Y695493D01*
X1012284Y695456D01*
X1012274Y695446D01*
X1012171Y695334D01*
X1012096Y695211D01*
X1012049Y695089D01*
X1012011Y694977D01*
X1011992Y694873D01*
X1011974Y694798D01*
Y694742D01*
Y694732D01*
Y694723D01*
Y694619D01*
X1011992Y694525D01*
X1012039Y694366D01*
X1012105Y694225D01*
X1012180Y694102D01*
X1012255Y694018D01*
X1012321Y693952D01*
X1012368Y693914D01*
X1012378Y693905D01*
X1012387D01*
X1012547Y693821D01*
X1012697Y693755D01*
X1012857Y693708D01*
X1012998Y693680D01*
X1013120Y693661D01*
X1013223Y693642D01*
X1013346D01*
X1013383Y693651D01*
X1013430D01*
X1013524Y692946D01*
X1013402Y692975D01*
X1013289Y692993D01*
X1013195Y693012D01*
X1013111Y693022D01*
X1013045Y693031D01*
X1012960D01*
X1012763Y693012D01*
X1012585Y692975D01*
X1012425Y692918D01*
X1012293Y692853D01*
X1012190Y692787D01*
X1012115Y692730D01*
X1012068Y692693D01*
X1012049Y692674D01*
X1011927Y692533D01*
X1011833Y692383D01*
X1011767Y692232D01*
X1011729Y692082D01*
X1011701Y691960D01*
X1011692Y691856D01*
X1011682Y691819D01*
Y691791D01*
Y691772D01*
Y691762D01*
X1011701Y691556D01*
X1011748Y691368D01*
X1011804Y691208D01*
X1011880Y691067D01*
X1011955Y690954D01*
X1012011Y690870D01*
X1012058Y690813D01*
X1012077Y690794D01*
X1012227Y690663D01*
X1012387Y690569D01*
X1012547Y690503D01*
X1012697Y690456D01*
X1012829Y690428D01*
X1012932Y690418D01*
X1012970Y690409D01*
X1013026D01*
X1013195Y690418D01*
X1013355Y690456D01*
X1013496Y690503D01*
X1013609Y690559D01*
X1013703Y690606D01*
X1013778Y690653D01*
X1013816Y690691D01*
X1013834Y690700D01*
X1013947Y690832D01*
X1014041Y690982D01*
X1014126Y691142D01*
X1014192Y691311D01*
X1014239Y691452D01*
X1014257Y691518D01*
X1014267Y691574D01*
X1014276Y691621D01*
X1014286Y691659D01*
X1014295Y691678D01*
Y691687D01*
X1015094Y691584D01*
X1015075Y691433D01*
X1015047Y691292D01*
X1014962Y691029D01*
X1014859Y690804D01*
X1014802Y690710D01*
X1014746Y690616D01*
X1014690Y690531D01*
X1014633Y690465D01*
X1014586Y690400D01*
X1014539Y690353D01*
X1014511Y690315D01*
X1014483Y690287D01*
X1014464Y690268D01*
X1014455Y690259D01*
X1014342Y690174D01*
X1014229Y690090D01*
X1014116Y690024D01*
X1013994Y689967D01*
X1013759Y689873D01*
X1013534Y689817D01*
X1013430Y689798D01*
X1013336Y689779D01*
X1013252Y689770D01*
X1013176Y689761D01*
X1013120Y689751D01*
X1013036D01*
X1012857Y689761D01*
X1012697Y689779D01*
X1012538Y689808D01*
X1012387Y689845D01*
X1012246Y689892D01*
X1012124Y689939D01*
X1012002Y689996D01*
X1011898Y690052D01*
X1011795Y690099D01*
X1011710Y690155D01*
X1011635Y690202D01*
X1011579Y690249D01*
X1011532Y690287D01*
X1011494Y690315D01*
X1011476Y690334D01*
X1011466Y690343D01*
X1011353Y690456D01*
X1011259Y690578D01*
X1011175Y690700D01*
X1011100Y690823D01*
X1011043Y690935D01*
X1010987Y691058D01*
X1010912Y691283D01*
X1010893Y691386D01*
X1010874Y691480D01*
X1010855Y691565D01*
X1010846Y691640D01*
X1010836Y691697D01*
Y691744D01*
Y691772D01*
Y691781D01*
X1010846Y692007D01*
X1010883Y692214D01*
X1010940Y692392D01*
X1010996Y692542D01*
X1011053Y692665D01*
X1011109Y692759D01*
X1011147Y692815D01*
X1011156Y692834D01*
X1011288Y692975D01*
X1011429Y693097D01*
X1011579Y693191D01*
X1011729Y693266D01*
X1011861Y693323D01*
X1011964Y693360D01*
X1012002Y693370D01*
X1012030Y693379D01*
X1012049Y693388D01*
X1012058D01*
X1011898Y693473D01*
X1011767Y693557D01*
X1011654Y693651D01*
X1011560Y693736D01*
X1011485Y693811D01*
X1011429Y693877D01*
X1011400Y693914D01*
X1011391Y693933D01*
X1011316Y694065D01*
X1011259Y694196D01*
X1011212Y694328D01*
X1011184Y694450D01*
X1011165Y694554D01*
X1011156Y694629D01*
Y694685D01*
Y694704D01*
X1011165Y694864D01*
X1011194Y695023D01*
X1011231Y695164D01*
X1011278Y695287D01*
X1011325Y695390D01*
X1011363Y695475D01*
X1011391Y695522D01*
X1011400Y695540D01*
X1011494Y695681D01*
X1011607Y695804D01*
X1011720Y695907D01*
X1011833Y696001D01*
X1011927Y696067D01*
X1012011Y696123D01*
X1012068Y696151D01*
X1012077Y696161D01*
X1012086D01*
X1012255Y696236D01*
X1012425Y696292D01*
X1012594Y696339D01*
X1012744Y696367D01*
X1012866Y696386D01*
X1012970Y696396D01*
X1013205D01*
X1013336Y696377D01*
D02*
G37*
G36*
X1021334Y689864D02*
X1018994D01*
X1018778Y689873D01*
X1018580Y689883D01*
X1018402Y689902D01*
X1018251Y689920D01*
X1018120Y689939D01*
X1018026Y689949D01*
X1017998Y689958D01*
X1017970Y689967D01*
X1017951D01*
X1017782Y690014D01*
X1017631Y690071D01*
X1017500Y690118D01*
X1017387Y690174D01*
X1017293Y690221D01*
X1017227Y690259D01*
X1017189Y690287D01*
X1017171Y690296D01*
X1017048Y690381D01*
X1016945Y690484D01*
X1016842Y690578D01*
X1016757Y690672D01*
X1016682Y690757D01*
X1016626Y690823D01*
X1016588Y690870D01*
X1016579Y690888D01*
X1016485Y691039D01*
X1016391Y691199D01*
X1016316Y691349D01*
X1016259Y691499D01*
X1016203Y691631D01*
X1016165Y691734D01*
X1016156Y691772D01*
X1016146Y691800D01*
X1016137Y691819D01*
Y691828D01*
X1016080Y692054D01*
X1016033Y692279D01*
X1016005Y692495D01*
X1015977Y692702D01*
X1015968Y692881D01*
Y692956D01*
X1015958Y693022D01*
Y693069D01*
Y693116D01*
Y693135D01*
Y693144D01*
X1015968Y693463D01*
X1015996Y693755D01*
X1016043Y694018D01*
X1016062Y694140D01*
X1016090Y694243D01*
X1016118Y694347D01*
X1016137Y694431D01*
X1016156Y694507D01*
X1016184Y694572D01*
X1016193Y694629D01*
X1016212Y694666D01*
X1016221Y694685D01*
Y694695D01*
X1016325Y694939D01*
X1016447Y695155D01*
X1016579Y695343D01*
X1016701Y695503D01*
X1016814Y695634D01*
X1016908Y695728D01*
X1016945Y695757D01*
X1016973Y695785D01*
X1016983Y695794D01*
X1016992Y695804D01*
X1017142Y695926D01*
X1017302Y696020D01*
X1017462Y696104D01*
X1017612Y696170D01*
X1017744Y696217D01*
X1017847Y696245D01*
X1017885Y696264D01*
X1017913D01*
X1017932Y696273D01*
X1017941D01*
X1018101Y696302D01*
X1018289Y696330D01*
X1018477Y696349D01*
X1018665Y696358D01*
X1018834Y696367D01*
X1021334D01*
Y689864D01*
D02*
G37*
G36*
X943016Y696386D02*
X943176Y696377D01*
X943326Y696349D01*
X943467Y696320D01*
X943599Y696283D01*
X943721Y696245D01*
X943834Y696198D01*
X943937Y696151D01*
X944031Y696104D01*
X944106Y696057D01*
X944172Y696020D01*
X944229Y695982D01*
X944276Y695954D01*
X944304Y695926D01*
X944323Y695916D01*
X944332Y695907D01*
X944426Y695813D01*
X944510Y695710D01*
X944595Y695597D01*
X944661Y695484D01*
X944774Y695258D01*
X944849Y695033D01*
X944877Y694930D01*
X944905Y694826D01*
X944924Y694742D01*
X944943Y694666D01*
X944952Y694601D01*
Y694554D01*
X944961Y694525D01*
Y694516D01*
X944144Y694431D01*
X944125Y694648D01*
X944088Y694836D01*
X944031Y695005D01*
X943965Y695136D01*
X943909Y695249D01*
X943853Y695324D01*
X943815Y695371D01*
X943796Y695390D01*
X943655Y695503D01*
X943505Y695587D01*
X943345Y695653D01*
X943204Y695691D01*
X943073Y695719D01*
X942960Y695728D01*
X942922Y695738D01*
X942866D01*
X942668Y695728D01*
X942490Y695691D01*
X942339Y695634D01*
X942208Y695578D01*
X942104Y695512D01*
X942039Y695465D01*
X941992Y695428D01*
X941973Y695409D01*
X941860Y695277D01*
X941776Y695146D01*
X941710Y695014D01*
X941672Y694883D01*
X941644Y694779D01*
X941635Y694685D01*
X941625Y694629D01*
Y694619D01*
Y694610D01*
X941644Y694441D01*
X941682Y694262D01*
X941747Y694102D01*
X941813Y693952D01*
X941888Y693830D01*
X941954Y693727D01*
X941973Y693689D01*
X941992Y693661D01*
X942011Y693651D01*
Y693642D01*
X942086Y693539D01*
X942180Y693435D01*
X942283Y693323D01*
X942396Y693210D01*
X942631Y692984D01*
X942866Y692759D01*
X942988Y692655D01*
X943091Y692561D01*
X943195Y692477D01*
X943279Y692402D01*
X943345Y692345D01*
X943401Y692298D01*
X943439Y692270D01*
X943448Y692261D01*
X943683Y692063D01*
X943900Y691875D01*
X944078Y691706D01*
X944219Y691565D01*
X944341Y691443D01*
X944426Y691358D01*
X944473Y691302D01*
X944492Y691292D01*
Y691283D01*
X944623Y691123D01*
X944727Y690973D01*
X944821Y690823D01*
X944896Y690691D01*
X944952Y690578D01*
X944990Y690494D01*
X945008Y690437D01*
X945018Y690428D01*
Y690418D01*
X945055Y690315D01*
X945074Y690221D01*
X945093Y690127D01*
X945102Y690043D01*
X945112Y689967D01*
Y689911D01*
Y689873D01*
Y689864D01*
X940798D01*
Y690635D01*
X944003D01*
X943890Y690794D01*
X943834Y690860D01*
X943787Y690926D01*
X943740Y690982D01*
X943702Y691020D01*
X943674Y691048D01*
X943665Y691058D01*
X943618Y691105D01*
X943561Y691152D01*
X943430Y691274D01*
X943279Y691415D01*
X943120Y691556D01*
X942969Y691678D01*
X942903Y691734D01*
X942847Y691791D01*
X942800Y691828D01*
X942762Y691856D01*
X942744Y691875D01*
X942734Y691885D01*
X942584Y692016D01*
X942433Y692138D01*
X942302Y692261D01*
X942180Y692364D01*
X942067Y692467D01*
X941973Y692561D01*
X941879Y692646D01*
X941804Y692721D01*
X941729Y692796D01*
X941672Y692853D01*
X941625Y692900D01*
X941578Y692946D01*
X941531Y693003D01*
X941513Y693022D01*
X941381Y693182D01*
X941268Y693323D01*
X941174Y693463D01*
X941099Y693576D01*
X941043Y693680D01*
X941005Y693755D01*
X940986Y693802D01*
X940977Y693821D01*
X940920Y693961D01*
X940883Y694102D01*
X940845Y694234D01*
X940826Y694347D01*
X940817Y694450D01*
X940808Y694525D01*
Y694572D01*
Y694591D01*
X940817Y694732D01*
X940836Y694864D01*
X940855Y694995D01*
X940892Y695108D01*
X940986Y695334D01*
X941080Y695512D01*
X941136Y695597D01*
X941183Y695663D01*
X941230Y695728D01*
X941277Y695775D01*
X941315Y695813D01*
X941334Y695851D01*
X941353Y695860D01*
X941362Y695869D01*
X941466Y695963D01*
X941578Y696048D01*
X941700Y696114D01*
X941823Y696170D01*
X942067Y696264D01*
X942311Y696330D01*
X942415Y696349D01*
X942518Y696367D01*
X942612Y696377D01*
X942687Y696386D01*
X942753Y696396D01*
X942847D01*
X943016Y696386D01*
D02*
G37*
G36*
X951230Y689864D02*
X948890D01*
X948674Y689873D01*
X948476Y689883D01*
X948298Y689902D01*
X948148Y689920D01*
X948016Y689939D01*
X947922Y689949D01*
X947894Y689958D01*
X947866Y689967D01*
X947847D01*
X947678Y690014D01*
X947527Y690071D01*
X947396Y690118D01*
X947283Y690174D01*
X947189Y690221D01*
X947123Y690259D01*
X947085Y690287D01*
X947067Y690296D01*
X946945Y690381D01*
X946841Y690484D01*
X946738Y690578D01*
X946653Y690672D01*
X946578Y690757D01*
X946522Y690823D01*
X946484Y690870D01*
X946475Y690888D01*
X946381Y691039D01*
X946287Y691199D01*
X946211Y691349D01*
X946155Y691499D01*
X946099Y691631D01*
X946061Y691734D01*
X946052Y691772D01*
X946042Y691800D01*
X946033Y691819D01*
Y691828D01*
X945976Y692054D01*
X945929Y692279D01*
X945901Y692495D01*
X945873Y692702D01*
X945864Y692881D01*
Y692956D01*
X945854Y693022D01*
Y693069D01*
Y693116D01*
Y693135D01*
Y693144D01*
X945864Y693463D01*
X945892Y693755D01*
X945939Y694018D01*
X945958Y694140D01*
X945986Y694243D01*
X946014Y694347D01*
X946033Y694431D01*
X946052Y694507D01*
X946080Y694572D01*
X946089Y694629D01*
X946108Y694666D01*
X946117Y694685D01*
Y694695D01*
X946221Y694939D01*
X946343Y695155D01*
X946475Y695343D01*
X946597Y695503D01*
X946710Y695634D01*
X946804Y695728D01*
X946841Y695757D01*
X946869Y695785D01*
X946879Y695794D01*
X946888Y695804D01*
X947038Y695926D01*
X947198Y696020D01*
X947358Y696104D01*
X947508Y696170D01*
X947640Y696217D01*
X947743Y696245D01*
X947781Y696264D01*
X947809D01*
X947828Y696273D01*
X947837D01*
X947997Y696302D01*
X948185Y696330D01*
X948373Y696349D01*
X948561Y696358D01*
X948730Y696367D01*
X951230D01*
Y689864D01*
D02*
G37*
G36*
X426757Y548637D02*
X427086Y548599D01*
X427378Y548552D01*
X427519Y548515D01*
X427641Y548487D01*
X427753Y548458D01*
X427857Y548421D01*
X427951Y548392D01*
X428026Y548374D01*
X428082Y548345D01*
X428129Y548336D01*
X428158Y548317D01*
X428167D01*
X428449Y548176D01*
X428703Y548017D01*
X428919Y547847D01*
X429003Y547763D01*
X429088Y547688D01*
X429163Y547612D01*
X429229Y547537D01*
X429285Y547472D01*
X429323Y547415D01*
X429361Y547378D01*
X429389Y547340D01*
X429398Y547321D01*
X429408Y547312D01*
X429483Y547180D01*
X429548Y547049D01*
X429652Y546767D01*
X429727Y546485D01*
X429774Y546212D01*
X429793Y546081D01*
X429812Y545968D01*
X429821Y545864D01*
Y545780D01*
X429831Y545705D01*
Y545601D01*
X429821Y545413D01*
X429802Y545235D01*
X429784Y545066D01*
X429746Y544906D01*
X429699Y544756D01*
X429652Y544614D01*
X429605Y544483D01*
X429548Y544361D01*
X429501Y544257D01*
X429454Y544154D01*
X429408Y544079D01*
X429361Y544004D01*
X429323Y543957D01*
X429304Y543910D01*
X429285Y543891D01*
X429276Y543881D01*
X429163Y543750D01*
X429050Y543637D01*
X428919Y543534D01*
X428787Y543430D01*
X428524Y543261D01*
X428261Y543130D01*
X428139Y543073D01*
X428026Y543026D01*
X427923Y542989D01*
X427838Y542961D01*
X427763Y542932D01*
X427706Y542914D01*
X427669Y542904D01*
X427659D01*
X427443Y543769D01*
X427594Y543806D01*
X427735Y543853D01*
X427866Y543900D01*
X427989Y543947D01*
X428101Y544004D01*
X428195Y544060D01*
X428289Y544126D01*
X428374Y544182D01*
X428449Y544229D01*
X428505Y544286D01*
X428562Y544333D01*
X428609Y544370D01*
X428637Y544408D01*
X428665Y544436D01*
X428675Y544445D01*
X428684Y544455D01*
X428759Y544549D01*
X428815Y544652D01*
X428919Y544859D01*
X428994Y545056D01*
X429041Y545254D01*
X429079Y545423D01*
X429088Y545489D01*
Y545554D01*
X429097Y545611D01*
Y545676D01*
X429088Y545893D01*
X429050Y546099D01*
X429003Y546287D01*
X428947Y546456D01*
X428891Y546588D01*
X428862Y546645D01*
X428844Y546692D01*
X428825Y546729D01*
X428806Y546757D01*
X428797Y546776D01*
Y546785D01*
X428665Y546964D01*
X428524Y547114D01*
X428364Y547246D01*
X428214Y547349D01*
X428082Y547434D01*
X427970Y547490D01*
X427923Y547509D01*
X427895Y547528D01*
X427876Y547537D01*
X427866D01*
X427622Y547612D01*
X427378Y547669D01*
X427133Y547716D01*
X426908Y547744D01*
X426804Y547753D01*
X426710Y547763D01*
X426626D01*
X426560Y547772D01*
X426504D01*
X426457D01*
X426428D01*
X426419D01*
X426175Y547763D01*
X425949Y547744D01*
X425742Y547706D01*
X425554Y547669D01*
X425395Y547641D01*
X425329Y547622D01*
X425272Y547603D01*
X425225Y547594D01*
X425197Y547584D01*
X425178Y547575D01*
X425169D01*
X424953Y547481D01*
X424756Y547378D01*
X424596Y547265D01*
X424455Y547143D01*
X424342Y547039D01*
X424267Y546955D01*
X424220Y546889D01*
X424201Y546879D01*
Y546870D01*
X424079Y546673D01*
X423985Y546456D01*
X423919Y546250D01*
X423881Y546052D01*
X423853Y545874D01*
X423844Y545799D01*
Y545733D01*
X423834Y545686D01*
Y545611D01*
X423844Y545376D01*
X423881Y545160D01*
X423938Y544981D01*
X423994Y544821D01*
X424060Y544699D01*
X424107Y544605D01*
X424145Y544549D01*
X424164Y544530D01*
X424304Y544380D01*
X424464Y544239D01*
X424633Y544126D01*
X424803Y544032D01*
X424953Y543957D01*
X425028Y543928D01*
X425084Y543910D01*
X425131Y543891D01*
X425169Y543872D01*
X425188Y543863D01*
X425197D01*
X425000Y543017D01*
X424831Y543073D01*
X424680Y543130D01*
X424539Y543205D01*
X424398Y543271D01*
X424276Y543346D01*
X424164Y543430D01*
X424051Y543506D01*
X423957Y543581D01*
X423881Y543656D01*
X423806Y543722D01*
X423741Y543787D01*
X423694Y543834D01*
X423647Y543881D01*
X423618Y543919D01*
X423609Y543938D01*
X423600Y543947D01*
X423515Y544079D01*
X423430Y544210D01*
X423365Y544342D01*
X423308Y544483D01*
X423224Y544765D01*
X423167Y545019D01*
X423139Y545141D01*
X423130Y545244D01*
X423120Y545348D01*
X423111Y545432D01*
X423102Y545498D01*
Y545592D01*
X423120Y545902D01*
X423167Y546203D01*
X423224Y546466D01*
X423261Y546588D01*
X423299Y546701D01*
X423336Y546804D01*
X423374Y546898D01*
X423402Y546973D01*
X423430Y547049D01*
X423459Y547096D01*
X423477Y547133D01*
X423487Y547161D01*
X423496Y547171D01*
X423656Y547425D01*
X423844Y547641D01*
X424032Y547829D01*
X424220Y547988D01*
X424389Y548111D01*
X424464Y548158D01*
X424530Y548195D01*
X424577Y548233D01*
X424615Y548251D01*
X424643Y548261D01*
X424652Y548270D01*
X424944Y548402D01*
X425244Y548496D01*
X425545Y548562D01*
X425817Y548609D01*
X425940Y548628D01*
X426062Y548637D01*
X426156Y548646D01*
X426250D01*
X426316Y548656D01*
X426372D01*
X426410D01*
X426419D01*
X426757Y548637D01*
D02*
G37*
G36*
X429718Y537970D02*
X428947D01*
Y541175D01*
X428787Y541062D01*
X428722Y541006D01*
X428656Y540959D01*
X428599Y540912D01*
X428562Y540874D01*
X428534Y540846D01*
X428524Y540836D01*
X428477Y540789D01*
X428430Y540733D01*
X428308Y540602D01*
X428167Y540451D01*
X428026Y540291D01*
X427904Y540141D01*
X427848Y540075D01*
X427791Y540019D01*
X427753Y539972D01*
X427725Y539934D01*
X427706Y539916D01*
X427697Y539906D01*
X427565Y539756D01*
X427443Y539605D01*
X427321Y539474D01*
X427218Y539352D01*
X427114Y539239D01*
X427020Y539145D01*
X426936Y539051D01*
X426861Y538976D01*
X426786Y538900D01*
X426729Y538844D01*
X426682Y538797D01*
X426635Y538750D01*
X426579Y538703D01*
X426560Y538684D01*
X426400Y538553D01*
X426259Y538440D01*
X426118Y538346D01*
X426006Y538271D01*
X425902Y538214D01*
X425827Y538177D01*
X425780Y538158D01*
X425761Y538149D01*
X425620Y538092D01*
X425479Y538055D01*
X425348Y538017D01*
X425235Y537998D01*
X425131Y537989D01*
X425056Y537980D01*
X425009D01*
X424991D01*
X424850Y537989D01*
X424718Y538008D01*
X424586Y538027D01*
X424474Y538064D01*
X424248Y538158D01*
X424070Y538252D01*
X423985Y538308D01*
X423919Y538355D01*
X423853Y538402D01*
X423806Y538449D01*
X423769Y538487D01*
X423731Y538506D01*
X423722Y538525D01*
X423712Y538534D01*
X423618Y538637D01*
X423534Y538750D01*
X423468Y538872D01*
X423412Y538994D01*
X423318Y539239D01*
X423252Y539483D01*
X423233Y539587D01*
X423214Y539690D01*
X423205Y539784D01*
X423195Y539859D01*
X423186Y539925D01*
Y540019D01*
X423195Y540188D01*
X423205Y540348D01*
X423233Y540498D01*
X423261Y540639D01*
X423299Y540771D01*
X423336Y540893D01*
X423383Y541006D01*
X423430Y541109D01*
X423477Y541203D01*
X423524Y541278D01*
X423562Y541344D01*
X423600Y541400D01*
X423628Y541447D01*
X423656Y541476D01*
X423665Y541494D01*
X423675Y541504D01*
X423769Y541598D01*
X423872Y541682D01*
X423985Y541767D01*
X424098Y541833D01*
X424323Y541945D01*
X424549Y542021D01*
X424652Y542049D01*
X424756Y542077D01*
X424840Y542096D01*
X424915Y542115D01*
X424981Y542124D01*
X425028D01*
X425056Y542133D01*
X425066D01*
X425150Y541316D01*
X424934Y541297D01*
X424746Y541259D01*
X424577Y541203D01*
X424445Y541137D01*
X424333Y541081D01*
X424257Y541025D01*
X424211Y540987D01*
X424192Y540968D01*
X424079Y540827D01*
X423994Y540677D01*
X423928Y540517D01*
X423891Y540376D01*
X423863Y540244D01*
X423853Y540132D01*
X423844Y540094D01*
Y540038D01*
X423853Y539840D01*
X423891Y539662D01*
X423947Y539511D01*
X424004Y539380D01*
X424070Y539276D01*
X424117Y539211D01*
X424154Y539164D01*
X424173Y539145D01*
X424304Y539032D01*
X424436Y538947D01*
X424568Y538882D01*
X424699Y538844D01*
X424803Y538816D01*
X424897Y538806D01*
X424953Y538797D01*
X424962D01*
X424972D01*
X425141Y538816D01*
X425319Y538853D01*
X425479Y538919D01*
X425630Y538985D01*
X425752Y539060D01*
X425855Y539126D01*
X425893Y539145D01*
X425921Y539164D01*
X425930Y539183D01*
X425940D01*
X426043Y539258D01*
X426146Y539352D01*
X426259Y539455D01*
X426372Y539568D01*
X426598Y539803D01*
X426823Y540038D01*
X426926Y540160D01*
X427020Y540263D01*
X427105Y540367D01*
X427180Y540451D01*
X427237Y540517D01*
X427284Y540573D01*
X427312Y540611D01*
X427321Y540620D01*
X427519Y540855D01*
X427706Y541072D01*
X427876Y541250D01*
X428017Y541391D01*
X428139Y541513D01*
X428223Y541598D01*
X428280Y541645D01*
X428289Y541664D01*
X428299D01*
X428458Y541795D01*
X428609Y541898D01*
X428759Y541992D01*
X428891Y542068D01*
X429003Y542124D01*
X429088Y542162D01*
X429144Y542180D01*
X429154Y542190D01*
X429163D01*
X429267Y542227D01*
X429361Y542246D01*
X429454Y542265D01*
X429539Y542274D01*
X429614Y542284D01*
X429671D01*
X429708D01*
X429718D01*
Y537970D01*
D02*
G37*
G36*
X428158Y534559D02*
X429718D01*
Y533760D01*
X428158D01*
Y532876D01*
X427425D01*
Y533760D01*
X423214D01*
Y534408D01*
X427425Y537387D01*
X428158D01*
Y534559D01*
D02*
G37*
G36*
X538517Y548872D02*
X538846Y548834D01*
X539138Y548787D01*
X539279Y548750D01*
X539401Y548722D01*
X539514Y548694D01*
X539617Y548656D01*
X539711Y548628D01*
X539786Y548609D01*
X539842Y548581D01*
X539889Y548571D01*
X539918Y548553D01*
X539927D01*
X540209Y548412D01*
X540463Y548252D01*
X540679Y548083D01*
X540763Y547998D01*
X540848Y547923D01*
X540923Y547848D01*
X540989Y547772D01*
X541045Y547707D01*
X541083Y547650D01*
X541121Y547613D01*
X541149Y547575D01*
X541158Y547556D01*
X541167Y547547D01*
X541243Y547415D01*
X541309Y547284D01*
X541412Y547002D01*
X541487Y546720D01*
X541534Y546447D01*
X541553Y546316D01*
X541572Y546203D01*
X541581Y546100D01*
Y546015D01*
X541590Y545940D01*
Y545836D01*
X541581Y545648D01*
X541562Y545470D01*
X541544Y545301D01*
X541506Y545141D01*
X541459Y544991D01*
X541412Y544850D01*
X541365Y544718D01*
X541309Y544596D01*
X541261Y544493D01*
X541214Y544389D01*
X541167Y544314D01*
X541121Y544239D01*
X541083Y544192D01*
X541064Y544145D01*
X541045Y544126D01*
X541036Y544117D01*
X540923Y543985D01*
X540810Y543872D01*
X540679Y543769D01*
X540547Y543666D01*
X540284Y543496D01*
X540021Y543365D01*
X539899Y543308D01*
X539786Y543261D01*
X539683Y543224D01*
X539598Y543196D01*
X539523Y543167D01*
X539467Y543149D01*
X539429Y543139D01*
X539420D01*
X539203Y544004D01*
X539354Y544041D01*
X539495Y544089D01*
X539626Y544136D01*
X539748Y544183D01*
X539861Y544239D01*
X539955Y544295D01*
X540049Y544361D01*
X540134Y544417D01*
X540209Y544464D01*
X540265Y544521D01*
X540322Y544568D01*
X540369Y544605D01*
X540397Y544643D01*
X540425Y544671D01*
X540434Y544680D01*
X540444Y544690D01*
X540519Y544784D01*
X540575Y544887D01*
X540679Y545094D01*
X540754Y545291D01*
X540801Y545489D01*
X540839Y545658D01*
X540848Y545724D01*
Y545789D01*
X540857Y545846D01*
Y545912D01*
X540848Y546128D01*
X540810Y546335D01*
X540763Y546523D01*
X540707Y546692D01*
X540651Y546823D01*
X540622Y546880D01*
X540604Y546927D01*
X540585Y546964D01*
X540566Y546992D01*
X540557Y547011D01*
Y547021D01*
X540425Y547199D01*
X540284Y547350D01*
X540124Y547481D01*
X539974Y547584D01*
X539842Y547669D01*
X539730Y547725D01*
X539683Y547744D01*
X539655Y547763D01*
X539636Y547772D01*
X539626D01*
X539382Y547848D01*
X539138Y547904D01*
X538893Y547951D01*
X538668Y547979D01*
X538564Y547989D01*
X538470Y547998D01*
X538386D01*
X538320Y548007D01*
X538264D01*
X538217D01*
X538188D01*
X538179D01*
X537935Y547998D01*
X537709Y547979D01*
X537502Y547942D01*
X537314Y547904D01*
X537155Y547876D01*
X537089Y547857D01*
X537032Y547838D01*
X536985Y547829D01*
X536957Y547820D01*
X536938Y547810D01*
X536929D01*
X536713Y547716D01*
X536516Y547613D01*
X536356Y547500D01*
X536215Y547378D01*
X536102Y547274D01*
X536027Y547190D01*
X535980Y547124D01*
X535961Y547115D01*
Y547105D01*
X535839Y546908D01*
X535745Y546692D01*
X535679Y546485D01*
X535642Y546288D01*
X535613Y546109D01*
X535604Y546034D01*
Y545968D01*
X535594Y545921D01*
Y545846D01*
X535604Y545611D01*
X535642Y545395D01*
X535698Y545216D01*
X535754Y545056D01*
X535820Y544934D01*
X535867Y544840D01*
X535905Y544784D01*
X535924Y544765D01*
X536064Y544615D01*
X536224Y544474D01*
X536393Y544361D01*
X536562Y544267D01*
X536713Y544192D01*
X536788Y544164D01*
X536844Y544145D01*
X536892Y544126D01*
X536929Y544107D01*
X536948Y544098D01*
X536957D01*
X536760Y543252D01*
X536591Y543308D01*
X536440Y543365D01*
X536299Y543440D01*
X536158Y543506D01*
X536036Y543581D01*
X535924Y543666D01*
X535811Y543741D01*
X535717Y543816D01*
X535642Y543891D01*
X535566Y543957D01*
X535501Y544023D01*
X535454Y544070D01*
X535407Y544117D01*
X535378Y544154D01*
X535369Y544173D01*
X535360Y544183D01*
X535275Y544314D01*
X535190Y544446D01*
X535125Y544577D01*
X535068Y544718D01*
X534984Y545000D01*
X534927Y545254D01*
X534899Y545376D01*
X534890Y545479D01*
X534880Y545583D01*
X534871Y545667D01*
X534861Y545733D01*
Y545827D01*
X534880Y546137D01*
X534927Y546438D01*
X534984Y546701D01*
X535021Y546823D01*
X535059Y546936D01*
X535096Y547039D01*
X535134Y547133D01*
X535162Y547209D01*
X535190Y547284D01*
X535219Y547331D01*
X535237Y547368D01*
X535247Y547397D01*
X535256Y547406D01*
X535416Y547660D01*
X535604Y547876D01*
X535792Y548064D01*
X535980Y548224D01*
X536149Y548346D01*
X536224Y548393D01*
X536290Y548430D01*
X536337Y548468D01*
X536375Y548487D01*
X536403Y548496D01*
X536412Y548506D01*
X536703Y548637D01*
X537004Y548731D01*
X537305Y548797D01*
X537578Y548844D01*
X537700Y548863D01*
X537822Y548872D01*
X537916Y548881D01*
X538010D01*
X538076Y548891D01*
X538132D01*
X538170D01*
X538179D01*
X538517Y548872D01*
D02*
G37*
G36*
X541478Y538205D02*
X540707D01*
Y541410D01*
X540547Y541297D01*
X540481Y541241D01*
X540416Y541194D01*
X540359Y541147D01*
X540322Y541109D01*
X540294Y541081D01*
X540284Y541072D01*
X540237Y541025D01*
X540190Y540968D01*
X540068Y540837D01*
X539927Y540686D01*
X539786Y540527D01*
X539664Y540376D01*
X539608Y540311D01*
X539551Y540254D01*
X539514Y540207D01*
X539485Y540169D01*
X539467Y540151D01*
X539457Y540141D01*
X539325Y539991D01*
X539203Y539841D01*
X539081Y539709D01*
X538978Y539587D01*
X538874Y539474D01*
X538781Y539380D01*
X538696Y539286D01*
X538621Y539211D01*
X538545Y539136D01*
X538489Y539079D01*
X538442Y539032D01*
X538395Y538985D01*
X538339Y538938D01*
X538320Y538920D01*
X538160Y538788D01*
X538019Y538675D01*
X537878Y538581D01*
X537766Y538506D01*
X537662Y538450D01*
X537587Y538412D01*
X537540Y538393D01*
X537521Y538384D01*
X537380Y538327D01*
X537239Y538290D01*
X537108Y538252D01*
X536995Y538233D01*
X536892Y538224D01*
X536816Y538215D01*
X536769D01*
X536750D01*
X536609Y538224D01*
X536478Y538243D01*
X536346Y538262D01*
X536234Y538299D01*
X536008Y538393D01*
X535830Y538487D01*
X535745Y538544D01*
X535679Y538591D01*
X535613Y538638D01*
X535566Y538685D01*
X535529Y538722D01*
X535491Y538741D01*
X535482Y538760D01*
X535472Y538769D01*
X535378Y538873D01*
X535294Y538985D01*
X535228Y539108D01*
X535172Y539230D01*
X535078Y539474D01*
X535012Y539718D01*
X534993Y539822D01*
X534974Y539925D01*
X534965Y540019D01*
X534955Y540094D01*
X534946Y540160D01*
Y540254D01*
X534955Y540423D01*
X534965Y540583D01*
X534993Y540733D01*
X535021Y540874D01*
X535059Y541006D01*
X535096Y541128D01*
X535143Y541241D01*
X535190Y541344D01*
X535237Y541438D01*
X535284Y541513D01*
X535322Y541579D01*
X535360Y541636D01*
X535388Y541683D01*
X535416Y541711D01*
X535425Y541730D01*
X535435Y541739D01*
X535529Y541833D01*
X535632Y541917D01*
X535745Y542002D01*
X535858Y542068D01*
X536083Y542181D01*
X536309Y542256D01*
X536412Y542284D01*
X536516Y542312D01*
X536600Y542331D01*
X536675Y542350D01*
X536741Y542359D01*
X536788D01*
X536816Y542369D01*
X536826D01*
X536910Y541551D01*
X536694Y541532D01*
X536506Y541495D01*
X536337Y541438D01*
X536205Y541372D01*
X536093Y541316D01*
X536017Y541260D01*
X535970Y541222D01*
X535952Y541203D01*
X535839Y541062D01*
X535754Y540912D01*
X535689Y540752D01*
X535651Y540611D01*
X535623Y540480D01*
X535613Y540367D01*
X535604Y540329D01*
Y540273D01*
X535613Y540075D01*
X535651Y539897D01*
X535707Y539747D01*
X535764Y539615D01*
X535830Y539512D01*
X535877Y539446D01*
X535914Y539399D01*
X535933Y539380D01*
X536064Y539267D01*
X536196Y539183D01*
X536328Y539117D01*
X536459Y539079D01*
X536562Y539051D01*
X536656Y539042D01*
X536713Y539032D01*
X536722D01*
X536732D01*
X536901Y539051D01*
X537079Y539089D01*
X537239Y539155D01*
X537390Y539220D01*
X537512Y539296D01*
X537615Y539361D01*
X537653Y539380D01*
X537681Y539399D01*
X537690Y539418D01*
X537700D01*
X537803Y539493D01*
X537906Y539587D01*
X538019Y539690D01*
X538132Y539803D01*
X538358Y540038D01*
X538583Y540273D01*
X538686Y540395D01*
X538781Y540498D01*
X538865Y540602D01*
X538940Y540686D01*
X538997Y540752D01*
X539044Y540809D01*
X539072Y540846D01*
X539081Y540856D01*
X539279Y541091D01*
X539467Y541307D01*
X539636Y541485D01*
X539777Y541626D01*
X539899Y541748D01*
X539983Y541833D01*
X540040Y541880D01*
X540049Y541899D01*
X540059D01*
X540218Y542030D01*
X540369Y542134D01*
X540519Y542228D01*
X540651Y542303D01*
X540763Y542359D01*
X540848Y542397D01*
X540904Y542416D01*
X540914Y542425D01*
X540923D01*
X541027Y542463D01*
X541121Y542481D01*
X541214Y542500D01*
X541299Y542510D01*
X541374Y542519D01*
X541431D01*
X541468D01*
X541478D01*
Y538205D01*
D02*
G37*
G36*
Y533149D02*
X540707D01*
Y536354D01*
X540547Y536241D01*
X540481Y536185D01*
X540416Y536138D01*
X540359Y536091D01*
X540322Y536053D01*
X540294Y536025D01*
X540284Y536016D01*
X540237Y535969D01*
X540190Y535912D01*
X540068Y535781D01*
X539927Y535630D01*
X539786Y535471D01*
X539664Y535320D01*
X539608Y535254D01*
X539551Y535198D01*
X539514Y535151D01*
X539485Y535113D01*
X539467Y535095D01*
X539457Y535085D01*
X539325Y534935D01*
X539203Y534785D01*
X539081Y534653D01*
X538978Y534531D01*
X538874Y534418D01*
X538781Y534324D01*
X538696Y534230D01*
X538621Y534155D01*
X538545Y534080D01*
X538489Y534023D01*
X538442Y533976D01*
X538395Y533929D01*
X538339Y533882D01*
X538320Y533863D01*
X538160Y533732D01*
X538019Y533619D01*
X537878Y533525D01*
X537766Y533450D01*
X537662Y533394D01*
X537587Y533356D01*
X537540Y533337D01*
X537521Y533328D01*
X537380Y533271D01*
X537239Y533234D01*
X537108Y533196D01*
X536995Y533177D01*
X536892Y533168D01*
X536816Y533159D01*
X536769D01*
X536750D01*
X536609Y533168D01*
X536478Y533187D01*
X536346Y533206D01*
X536234Y533243D01*
X536008Y533337D01*
X535830Y533431D01*
X535745Y533488D01*
X535679Y533535D01*
X535613Y533582D01*
X535566Y533629D01*
X535529Y533666D01*
X535491Y533685D01*
X535482Y533704D01*
X535472Y533713D01*
X535378Y533816D01*
X535294Y533929D01*
X535228Y534051D01*
X535172Y534174D01*
X535078Y534418D01*
X535012Y534662D01*
X534993Y534766D01*
X534974Y534869D01*
X534965Y534963D01*
X534955Y535038D01*
X534946Y535104D01*
Y535198D01*
X534955Y535367D01*
X534965Y535527D01*
X534993Y535677D01*
X535021Y535818D01*
X535059Y535950D01*
X535096Y536072D01*
X535143Y536185D01*
X535190Y536288D01*
X535237Y536382D01*
X535284Y536457D01*
X535322Y536523D01*
X535360Y536580D01*
X535388Y536627D01*
X535416Y536655D01*
X535425Y536674D01*
X535435Y536683D01*
X535529Y536777D01*
X535632Y536861D01*
X535745Y536946D01*
X535858Y537012D01*
X536083Y537125D01*
X536309Y537200D01*
X536412Y537228D01*
X536516Y537256D01*
X536600Y537275D01*
X536675Y537294D01*
X536741Y537303D01*
X536788D01*
X536816Y537313D01*
X536826D01*
X536910Y536495D01*
X536694Y536476D01*
X536506Y536438D01*
X536337Y536382D01*
X536205Y536316D01*
X536093Y536260D01*
X536017Y536204D01*
X535970Y536166D01*
X535952Y536147D01*
X535839Y536006D01*
X535754Y535856D01*
X535689Y535696D01*
X535651Y535555D01*
X535623Y535424D01*
X535613Y535311D01*
X535604Y535273D01*
Y535217D01*
X535613Y535019D01*
X535651Y534841D01*
X535707Y534691D01*
X535764Y534559D01*
X535830Y534455D01*
X535877Y534390D01*
X535914Y534343D01*
X535933Y534324D01*
X536064Y534211D01*
X536196Y534127D01*
X536328Y534061D01*
X536459Y534023D01*
X536562Y533995D01*
X536656Y533986D01*
X536713Y533976D01*
X536722D01*
X536732D01*
X536901Y533995D01*
X537079Y534033D01*
X537239Y534098D01*
X537390Y534164D01*
X537512Y534239D01*
X537615Y534305D01*
X537653Y534324D01*
X537681Y534343D01*
X537690Y534361D01*
X537700D01*
X537803Y534437D01*
X537906Y534531D01*
X538019Y534634D01*
X538132Y534747D01*
X538358Y534982D01*
X538583Y535217D01*
X538686Y535339D01*
X538781Y535442D01*
X538865Y535546D01*
X538940Y535630D01*
X538997Y535696D01*
X539044Y535752D01*
X539072Y535790D01*
X539081Y535799D01*
X539279Y536034D01*
X539467Y536250D01*
X539636Y536429D01*
X539777Y536570D01*
X539899Y536692D01*
X539983Y536777D01*
X540040Y536824D01*
X540049Y536843D01*
X540059D01*
X540218Y536974D01*
X540369Y537078D01*
X540519Y537172D01*
X540651Y537247D01*
X540763Y537303D01*
X540848Y537341D01*
X540904Y537360D01*
X540914Y537369D01*
X540923D01*
X541027Y537407D01*
X541121Y537425D01*
X541214Y537444D01*
X541299Y537453D01*
X541374Y537463D01*
X541431D01*
X541468D01*
X541478D01*
Y533149D01*
D02*
G37*
%LPC*%
G36*
X1014710Y145991D02*
X1013169D01*
X1012962Y145972D01*
X1012802Y145963D01*
X1012661Y145944D01*
X1012558Y145925D01*
X1012492Y145916D01*
X1012445Y145897D01*
X1012436D01*
X1012333Y145859D01*
X1012238Y145803D01*
X1012163Y145747D01*
X1012097Y145690D01*
X1012051Y145643D01*
X1012013Y145596D01*
X1011994Y145568D01*
X1011985Y145559D01*
X1011928Y145465D01*
X1011891Y145371D01*
X1011863Y145277D01*
X1011844Y145183D01*
X1011834Y145108D01*
X1011825Y145051D01*
Y145014D01*
Y144995D01*
X1011834Y144873D01*
X1011853Y144760D01*
X1011881Y144666D01*
X1011910Y144591D01*
X1011938Y144525D01*
X1011966Y144469D01*
X1011985Y144440D01*
X1011994Y144431D01*
X1012060Y144356D01*
X1012144Y144281D01*
X1012229Y144224D01*
X1012304Y144187D01*
X1012380Y144149D01*
X1012436Y144121D01*
X1012474Y144111D01*
X1012492Y144102D01*
X1012596Y144083D01*
X1012727Y144065D01*
X1012859Y144055D01*
X1012990Y144046D01*
X1013112Y144036D01*
X1014710D01*
Y145991D01*
D02*
G37*
G36*
Y143266D02*
X1013000D01*
X1012802Y143247D01*
X1012643Y143228D01*
X1012511Y143209D01*
X1012408Y143190D01*
X1012323Y143172D01*
X1012286Y143162D01*
X1012267Y143153D01*
X1012144Y143106D01*
X1012041Y143049D01*
X1011947Y142984D01*
X1011872Y142918D01*
X1011816Y142861D01*
X1011778Y142815D01*
X1011750Y142777D01*
X1011740Y142768D01*
X1011675Y142664D01*
X1011628Y142561D01*
X1011590Y142457D01*
X1011571Y142363D01*
X1011553Y142279D01*
X1011543Y142204D01*
Y142166D01*
Y142147D01*
X1011553Y142035D01*
X1011562Y141922D01*
X1011581Y141828D01*
X1011609Y141753D01*
X1011637Y141687D01*
X1011656Y141630D01*
X1011665Y141602D01*
X1011675Y141593D01*
X1011731Y141508D01*
X1011778Y141433D01*
X1011844Y141377D01*
X1011891Y141320D01*
X1011938Y141283D01*
X1011975Y141255D01*
X1012004Y141236D01*
X1012013Y141226D01*
X1012173Y141151D01*
X1012333Y141095D01*
X1012398Y141076D01*
X1012455Y141067D01*
X1012492Y141057D01*
X1012502D01*
X1012577Y141048D01*
X1012661Y141038D01*
X1012859Y141029D01*
X1014710D01*
Y143266D01*
D02*
G37*
G36*
X1069795Y77919D02*
X1068254D01*
X1068047Y77900D01*
X1067887Y77891D01*
X1067747Y77872D01*
X1067643Y77853D01*
X1067577Y77844D01*
X1067530Y77825D01*
X1067521D01*
X1067418Y77787D01*
X1067324Y77731D01*
X1067248Y77675D01*
X1067183Y77618D01*
X1067136Y77571D01*
X1067098Y77524D01*
X1067079Y77496D01*
X1067070Y77487D01*
X1067013Y77393D01*
X1066976Y77299D01*
X1066948Y77205D01*
X1066929Y77111D01*
X1066919Y77036D01*
X1066910Y76979D01*
Y76942D01*
Y76923D01*
X1066919Y76801D01*
X1066938Y76688D01*
X1066966Y76594D01*
X1066995Y76519D01*
X1067023Y76453D01*
X1067051Y76397D01*
X1067070Y76368D01*
X1067079Y76359D01*
X1067145Y76284D01*
X1067230Y76209D01*
X1067314Y76152D01*
X1067389Y76115D01*
X1067465Y76077D01*
X1067521Y76049D01*
X1067559Y76040D01*
X1067577Y76030D01*
X1067681Y76011D01*
X1067812Y75992D01*
X1067944Y75983D01*
X1068075Y75974D01*
X1068198Y75964D01*
X1069795D01*
Y77919D01*
D02*
G37*
G36*
Y75194D02*
X1068085D01*
X1067887Y75175D01*
X1067728Y75156D01*
X1067596Y75137D01*
X1067493Y75118D01*
X1067408Y75100D01*
X1067371Y75090D01*
X1067352Y75081D01*
X1067230Y75034D01*
X1067126Y74977D01*
X1067032Y74912D01*
X1066957Y74846D01*
X1066901Y74790D01*
X1066863Y74742D01*
X1066835Y74705D01*
X1066825Y74696D01*
X1066760Y74592D01*
X1066713Y74489D01*
X1066675Y74385D01*
X1066656Y74291D01*
X1066638Y74207D01*
X1066628Y74132D01*
Y74094D01*
Y74075D01*
X1066638Y73962D01*
X1066647Y73850D01*
X1066666Y73756D01*
X1066694Y73681D01*
X1066722Y73615D01*
X1066741Y73558D01*
X1066750Y73530D01*
X1066760Y73521D01*
X1066816Y73436D01*
X1066863Y73361D01*
X1066929Y73305D01*
X1066976Y73248D01*
X1067023Y73211D01*
X1067060Y73183D01*
X1067089Y73164D01*
X1067098Y73154D01*
X1067258Y73079D01*
X1067418Y73023D01*
X1067483Y73004D01*
X1067540Y72994D01*
X1067577Y72985D01*
X1067587D01*
X1067662Y72976D01*
X1067747Y72966D01*
X1067944Y72957D01*
X1069795D01*
Y75194D01*
D02*
G37*
G36*
X310570Y262628D02*
X308615D01*
Y261087D01*
X308634Y260880D01*
X308643Y260720D01*
X308662Y260579D01*
X308681Y260476D01*
X308690Y260410D01*
X308709Y260363D01*
Y260354D01*
X308747Y260250D01*
X308803Y260156D01*
X308860Y260081D01*
X308916Y260015D01*
X308963Y259968D01*
X309010Y259930D01*
X309038Y259912D01*
X309048Y259902D01*
X309142Y259846D01*
X309236Y259808D01*
X309329Y259780D01*
X309424Y259761D01*
X309499Y259752D01*
X309555Y259743D01*
X309593D01*
X309611D01*
X309734Y259752D01*
X309846Y259771D01*
X309940Y259799D01*
X310016Y259827D01*
X310081Y259855D01*
X310138Y259884D01*
X310166Y259902D01*
X310175Y259912D01*
X310250Y259977D01*
X310326Y260062D01*
X310382Y260147D01*
X310420Y260222D01*
X310457Y260297D01*
X310485Y260354D01*
X310495Y260391D01*
X310504Y260410D01*
X310523Y260513D01*
X310542Y260645D01*
X310551Y260776D01*
X310561Y260908D01*
X310570Y261030D01*
Y262628D01*
D02*
G37*
G36*
X313577D02*
X311341D01*
Y260917D01*
X311360Y260720D01*
X311378Y260560D01*
X311397Y260429D01*
X311416Y260325D01*
X311435Y260241D01*
X311444Y260203D01*
X311453Y260184D01*
X311500Y260062D01*
X311557Y259959D01*
X311623Y259865D01*
X311688Y259790D01*
X311745Y259733D01*
X311792Y259696D01*
X311829Y259667D01*
X311839Y259658D01*
X311942Y259592D01*
X312046Y259545D01*
X312149Y259508D01*
X312243Y259489D01*
X312327Y259470D01*
X312403Y259461D01*
X312440D01*
X312459D01*
X312572Y259470D01*
X312685Y259479D01*
X312779Y259498D01*
X312854Y259526D01*
X312920Y259555D01*
X312976Y259573D01*
X313004Y259583D01*
X313013Y259592D01*
X313098Y259649D01*
X313173Y259696D01*
X313230Y259761D01*
X313286Y259808D01*
X313324Y259855D01*
X313352Y259893D01*
X313371Y259921D01*
X313380Y259930D01*
X313455Y260090D01*
X313512Y260250D01*
X313530Y260316D01*
X313540Y260372D01*
X313549Y260410D01*
Y260419D01*
X313559Y260494D01*
X313568Y260579D01*
X313577Y260776D01*
Y262628D01*
D02*
G37*
G36*
X435373Y499996D02*
X435298D01*
X435138Y499987D01*
X434988Y499949D01*
X434866Y499902D01*
X434753Y499846D01*
X434668Y499790D01*
X434603Y499743D01*
X434556Y499705D01*
X434546Y499696D01*
X434443Y499573D01*
X434368Y499451D01*
X434311Y499329D01*
X434274Y499216D01*
X434255Y499113D01*
X434236Y499028D01*
Y498972D01*
Y498963D01*
Y498953D01*
X434245Y498803D01*
X434283Y498662D01*
X434330Y498540D01*
X434386Y498436D01*
X434443Y498352D01*
X434490Y498295D01*
X434527Y498248D01*
X434537Y498239D01*
X434650Y498145D01*
X434781Y498070D01*
X434903Y498023D01*
X435025Y497985D01*
X435138Y497966D01*
X435223Y497957D01*
X435279Y497948D01*
X435298D01*
X435467Y497957D01*
X435617Y497995D01*
X435749Y498041D01*
X435862Y498098D01*
X435946Y498145D01*
X436012Y498192D01*
X436059Y498229D01*
X436069Y498239D01*
X436163Y498352D01*
X436238Y498483D01*
X436285Y498605D01*
X436322Y498728D01*
X436341Y498831D01*
X436351Y498916D01*
X436360Y498972D01*
Y498981D01*
Y498991D01*
X436351Y499141D01*
X436313Y499273D01*
X436266Y499395D01*
X436210Y499498D01*
X436163Y499583D01*
X436116Y499649D01*
X436078Y499686D01*
X436069Y499696D01*
X435946Y499799D01*
X435824Y499874D01*
X435693Y499921D01*
X435570Y499959D01*
X435458Y499977D01*
X435373Y499996D01*
D02*
G37*
G36*
X435382Y497299D02*
X435326D01*
X435119Y497280D01*
X434931Y497243D01*
X434762Y497177D01*
X434621Y497111D01*
X434509Y497036D01*
X434424Y496970D01*
X434377Y496933D01*
X434358Y496914D01*
X434227Y496763D01*
X434133Y496604D01*
X434067Y496444D01*
X434020Y496303D01*
X433992Y496162D01*
X433982Y496059D01*
X433973Y496021D01*
Y495993D01*
Y495974D01*
Y495965D01*
X433992Y495767D01*
X434029Y495579D01*
X434095Y495420D01*
X434161Y495288D01*
X434227Y495185D01*
X434292Y495100D01*
X434330Y495053D01*
X434349Y495034D01*
X434499Y494912D01*
X434650Y494818D01*
X434809Y494762D01*
X434960Y494715D01*
X435091Y494687D01*
X435204Y494677D01*
X435242Y494668D01*
X435298D01*
X435429Y494677D01*
X435561Y494696D01*
X435683Y494724D01*
X435787Y494752D01*
X435871Y494780D01*
X435937Y494809D01*
X435975Y494827D01*
X435993Y494837D01*
X436106Y494912D01*
X436200Y494987D01*
X436285Y495072D01*
X436351Y495156D01*
X436407Y495222D01*
X436445Y495279D01*
X436463Y495326D01*
X436473Y495335D01*
X436520Y495457D01*
X436557Y495570D01*
X436586Y495683D01*
X436604Y495786D01*
X436614Y495871D01*
X436623Y495936D01*
Y495974D01*
Y495993D01*
X436604Y496190D01*
X436567Y496369D01*
X436510Y496529D01*
X436435Y496669D01*
X436369Y496773D01*
X436313Y496857D01*
X436275Y496904D01*
X436257Y496923D01*
X436116Y497045D01*
X435956Y497139D01*
X435806Y497205D01*
X435655Y497252D01*
X435523Y497280D01*
X435420Y497290D01*
X435382Y497299D01*
D02*
G37*
G36*
X546616Y500359D02*
Y497446D01*
X548665D01*
X546616Y500359D01*
D02*
G37*
G36*
X438240Y547420D02*
X436088D01*
Y545371D01*
X436097Y545117D01*
X436135Y544901D01*
X436182Y544713D01*
X436238Y544572D01*
X436294Y544450D01*
X436341Y544375D01*
X436379Y544328D01*
X436388Y544309D01*
X436511Y544196D01*
X436633Y544111D01*
X436764Y544055D01*
X436877Y544008D01*
X436990Y543989D01*
X437074Y543980D01*
X437131Y543970D01*
X437140D01*
X437150D01*
X437262Y543980D01*
X437375Y543999D01*
X437469Y544027D01*
X437554Y544055D01*
X437629Y544093D01*
X437685Y544121D01*
X437723Y544140D01*
X437732Y544149D01*
X437826Y544215D01*
X437911Y544299D01*
X437977Y544384D01*
X438033Y544468D01*
X438071Y544544D01*
X438099Y544600D01*
X438118Y544638D01*
X438127Y544656D01*
X438165Y544788D01*
X438193Y544938D01*
X438212Y545089D01*
X438221Y545239D01*
X438230Y545371D01*
X438240Y545484D01*
Y547420D01*
D02*
G37*
G36*
X439574Y541555D02*
X436661Y539506D01*
X439574D01*
Y541555D01*
D02*
G37*
G36*
X439828Y536123D02*
X439781D01*
X439762D01*
X439537Y536104D01*
X439339Y536067D01*
X439161Y536001D01*
X439020Y535935D01*
X438898Y535869D01*
X438813Y535804D01*
X438766Y535766D01*
X438747Y535747D01*
X438616Y535597D01*
X438522Y535447D01*
X438447Y535287D01*
X438400Y535146D01*
X438371Y535014D01*
X438362Y534920D01*
X438353Y534883D01*
Y534826D01*
X438371Y534629D01*
X438418Y534450D01*
X438475Y534300D01*
X438550Y534168D01*
X438625Y534065D01*
X438681Y533990D01*
X438728Y533943D01*
X438747Y533924D01*
X438907Y533802D01*
X439076Y533708D01*
X439255Y533642D01*
X439424Y533604D01*
X439574Y533576D01*
X439640Y533567D01*
X439697D01*
X439743Y533558D01*
X439781D01*
X439800D01*
X439809D01*
X440063Y533576D01*
X440279Y533614D01*
X440467Y533670D01*
X440627Y533736D01*
X440749Y533811D01*
X440843Y533868D01*
X440899Y533905D01*
X440909Y533924D01*
X440918D01*
X440993Y533990D01*
X441050Y534065D01*
X441153Y534215D01*
X441219Y534366D01*
X441275Y534497D01*
X441303Y534619D01*
X441313Y534713D01*
X441322Y534751D01*
Y534798D01*
X441313Y534930D01*
X441294Y535052D01*
X441256Y535164D01*
X441219Y535258D01*
X441191Y535343D01*
X441153Y535409D01*
X441134Y535447D01*
X441125Y535465D01*
X441040Y535578D01*
X440956Y535672D01*
X440852Y535757D01*
X440768Y535822D01*
X440683Y535879D01*
X440617Y535916D01*
X440570Y535945D01*
X440552Y535954D01*
X440411Y536010D01*
X440270Y536048D01*
X440138Y536086D01*
X440016Y536104D01*
X439913Y536114D01*
X439828Y536123D01*
D02*
G37*
G36*
X382338Y535177D02*
X380289D01*
X380036Y535167D01*
X379819Y535130D01*
X379632Y535083D01*
X379491Y535026D01*
X379368Y534970D01*
X379293Y534923D01*
X379246Y534885D01*
X379227Y534876D01*
X379115Y534754D01*
X379030Y534632D01*
X378974Y534500D01*
X378927Y534387D01*
X378908Y534275D01*
X378898Y534190D01*
X378889Y534134D01*
Y534124D01*
Y534115D01*
X378898Y534002D01*
X378917Y533889D01*
X378945Y533795D01*
X378974Y533711D01*
X379011Y533635D01*
X379039Y533579D01*
X379058Y533542D01*
X379068Y533532D01*
X379133Y533438D01*
X379218Y533354D01*
X379302Y533288D01*
X379387Y533231D01*
X379462Y533194D01*
X379519Y533166D01*
X379556Y533147D01*
X379575Y533137D01*
X379707Y533100D01*
X379857Y533072D01*
X380007Y533053D01*
X380158Y533044D01*
X380289Y533034D01*
X380402Y533025D01*
X382338D01*
Y535177D01*
D02*
G37*
G36*
X369867Y535271D02*
X369792D01*
X369632Y535261D01*
X369482Y535224D01*
X369360Y535177D01*
X369247Y535120D01*
X369162Y535064D01*
X369096Y535017D01*
X369049Y534979D01*
X369040Y534970D01*
X368937Y534848D01*
X368861Y534726D01*
X368805Y534604D01*
X368767Y534491D01*
X368749Y534387D01*
X368730Y534303D01*
Y534246D01*
Y534237D01*
Y534228D01*
X368739Y534077D01*
X368777Y533936D01*
X368824Y533814D01*
X368880Y533711D01*
X368937Y533626D01*
X368983Y533570D01*
X369021Y533523D01*
X369030Y533513D01*
X369143Y533419D01*
X369275Y533344D01*
X369397Y533297D01*
X369519Y533260D01*
X369632Y533241D01*
X369717Y533231D01*
X369773Y533222D01*
X369792D01*
X369961Y533231D01*
X370111Y533269D01*
X370243Y533316D01*
X370356Y533372D01*
X370440Y533419D01*
X370506Y533466D01*
X370553Y533504D01*
X370562Y533513D01*
X370656Y533626D01*
X370732Y533758D01*
X370779Y533880D01*
X370816Y534002D01*
X370835Y534105D01*
X370844Y534190D01*
X370854Y534246D01*
Y534256D01*
Y534265D01*
X370844Y534416D01*
X370807Y534547D01*
X370760Y534669D01*
X370703Y534773D01*
X370656Y534857D01*
X370609Y534923D01*
X370572Y534961D01*
X370562Y534970D01*
X370440Y535073D01*
X370318Y535149D01*
X370187Y535196D01*
X370064Y535233D01*
X369952Y535252D01*
X369867Y535271D01*
D02*
G37*
G36*
X369876Y532574D02*
X369820D01*
X369613Y532555D01*
X369425Y532517D01*
X369256Y532451D01*
X369115Y532386D01*
X369002Y532310D01*
X368918Y532245D01*
X368871Y532207D01*
X368852Y532188D01*
X368720Y532038D01*
X368626Y531878D01*
X368561Y531718D01*
X368514Y531577D01*
X368485Y531436D01*
X368476Y531333D01*
X368467Y531295D01*
Y531267D01*
Y531248D01*
Y531239D01*
X368485Y531042D01*
X368523Y530854D01*
X368589Y530694D01*
X368655Y530562D01*
X368720Y530459D01*
X368786Y530374D01*
X368824Y530327D01*
X368843Y530309D01*
X368993Y530187D01*
X369143Y530093D01*
X369303Y530036D01*
X369453Y529989D01*
X369585Y529961D01*
X369698Y529952D01*
X369735Y529942D01*
X369792D01*
X369923Y529952D01*
X370055Y529970D01*
X370177Y529999D01*
X370280Y530027D01*
X370365Y530055D01*
X370431Y530083D01*
X370468Y530102D01*
X370487Y530111D01*
X370600Y530187D01*
X370694Y530262D01*
X370779Y530346D01*
X370844Y530431D01*
X370901Y530497D01*
X370938Y530553D01*
X370957Y530600D01*
X370966Y530609D01*
X371013Y530732D01*
X371051Y530844D01*
X371079Y530957D01*
X371098Y531060D01*
X371107Y531145D01*
X371117Y531211D01*
Y531248D01*
Y531267D01*
X371098Y531465D01*
X371060Y531643D01*
X371004Y531803D01*
X370929Y531944D01*
X370863Y532047D01*
X370807Y532132D01*
X370769Y532179D01*
X370750Y532198D01*
X370609Y532320D01*
X370450Y532414D01*
X370299Y532480D01*
X370149Y532527D01*
X370017Y532555D01*
X369914Y532564D01*
X369876Y532574D01*
D02*
G37*
G36*
X550000Y547420D02*
X547848D01*
Y545371D01*
X547857Y545117D01*
X547895Y544901D01*
X547942Y544713D01*
X547998Y544572D01*
X548054Y544450D01*
X548101Y544375D01*
X548139Y544328D01*
X548148Y544309D01*
X548270Y544196D01*
X548393Y544111D01*
X548524Y544055D01*
X548637Y544008D01*
X548750Y543989D01*
X548834Y543980D01*
X548891Y543970D01*
X548900D01*
X548910D01*
X549022Y543980D01*
X549135Y543999D01*
X549229Y544027D01*
X549314Y544055D01*
X549389Y544093D01*
X549445Y544121D01*
X549483Y544140D01*
X549492Y544149D01*
X549586Y544215D01*
X549671Y544299D01*
X549737Y544384D01*
X549793Y544468D01*
X549831Y544544D01*
X549859Y544600D01*
X549878Y544638D01*
X549887Y544656D01*
X549925Y544788D01*
X549953Y544938D01*
X549972Y545089D01*
X549981Y545239D01*
X549990Y545371D01*
X550000Y545484D01*
Y547420D01*
D02*
G37*
G36*
X551588Y536123D02*
X551541D01*
X551522D01*
X551297Y536104D01*
X551099Y536067D01*
X550921Y536001D01*
X550780Y535935D01*
X550658Y535869D01*
X550573Y535804D01*
X550526Y535766D01*
X550507Y535747D01*
X550376Y535597D01*
X550282Y535447D01*
X550206Y535287D01*
X550159Y535146D01*
X550131Y535014D01*
X550122Y534920D01*
X550112Y534883D01*
Y534826D01*
X550131Y534629D01*
X550178Y534450D01*
X550235Y534300D01*
X550310Y534168D01*
X550385Y534065D01*
X550442Y533990D01*
X550489Y533943D01*
X550507Y533924D01*
X550667Y533802D01*
X550836Y533708D01*
X551015Y533642D01*
X551184Y533604D01*
X551334Y533576D01*
X551400Y533567D01*
X551456D01*
X551503Y533558D01*
X551541D01*
X551560D01*
X551569D01*
X551823Y533576D01*
X552039Y533614D01*
X552227Y533670D01*
X552387Y533736D01*
X552509Y533811D01*
X552603Y533868D01*
X552659Y533905D01*
X552669Y533924D01*
X552678D01*
X552753Y533990D01*
X552810Y534065D01*
X552913Y534215D01*
X552979Y534366D01*
X553035Y534497D01*
X553064Y534619D01*
X553073Y534713D01*
X553082Y534751D01*
Y534798D01*
X553073Y534930D01*
X553054Y535052D01*
X553017Y535164D01*
X552979Y535258D01*
X552951Y535343D01*
X552913Y535409D01*
X552894Y535447D01*
X552885Y535465D01*
X552800Y535578D01*
X552716Y535672D01*
X552612Y535757D01*
X552528Y535822D01*
X552443Y535879D01*
X552378Y535916D01*
X552331Y535945D01*
X552312Y535954D01*
X552171Y536010D01*
X552030Y536048D01*
X551898Y536086D01*
X551776Y536104D01*
X551673Y536114D01*
X551588Y536123D01*
D02*
G37*
G36*
X494004Y535973D02*
X491955D01*
X491702Y535964D01*
X491485Y535926D01*
X491297Y535879D01*
X491156Y535823D01*
X491034Y535766D01*
X490959Y535719D01*
X490912Y535682D01*
X490893Y535672D01*
X490780Y535550D01*
X490696Y535428D01*
X490639Y535297D01*
X490592Y535184D01*
X490574Y535071D01*
X490564Y534986D01*
X490555Y534930D01*
Y534921D01*
Y534911D01*
X490564Y534799D01*
X490583Y534686D01*
X490611Y534592D01*
X490639Y534507D01*
X490677Y534432D01*
X490705Y534376D01*
X490724Y534338D01*
X490733Y534329D01*
X490799Y534235D01*
X490884Y534150D01*
X490969Y534084D01*
X491053Y534028D01*
X491128Y533990D01*
X491185Y533962D01*
X491222Y533943D01*
X491241Y533934D01*
X491373Y533896D01*
X491523Y533868D01*
X491673Y533849D01*
X491824Y533840D01*
X491955Y533830D01*
X492068Y533821D01*
X494004D01*
Y535973D01*
D02*
G37*
G36*
X481533Y536067D02*
X481458D01*
X481298Y536058D01*
X481148Y536020D01*
X481025Y535973D01*
X480913Y535917D01*
X480828Y535860D01*
X480762Y535813D01*
X480715Y535776D01*
X480706Y535766D01*
X480602Y535644D01*
X480527Y535522D01*
X480471Y535400D01*
X480433Y535287D01*
X480415Y535184D01*
X480396Y535099D01*
Y535043D01*
Y535033D01*
Y535024D01*
X480405Y534874D01*
X480443Y534733D01*
X480490Y534610D01*
X480546Y534507D01*
X480602Y534423D01*
X480649Y534366D01*
X480687Y534319D01*
X480696Y534310D01*
X480809Y534216D01*
X480941Y534141D01*
X481063Y534094D01*
X481185Y534056D01*
X481298Y534037D01*
X481382Y534028D01*
X481439Y534019D01*
X481458D01*
X481627Y534028D01*
X481777Y534066D01*
X481909Y534112D01*
X482022Y534169D01*
X482106Y534216D01*
X482172Y534263D01*
X482219Y534300D01*
X482228Y534310D01*
X482322Y534423D01*
X482397Y534554D01*
X482444Y534676D01*
X482482Y534799D01*
X482501Y534902D01*
X482510Y534986D01*
X482520Y535043D01*
Y535052D01*
Y535062D01*
X482510Y535212D01*
X482473Y535344D01*
X482426Y535466D01*
X482369Y535569D01*
X482322Y535654D01*
X482275Y535719D01*
X482238Y535757D01*
X482228Y535766D01*
X482106Y535870D01*
X481984Y535945D01*
X481852Y535992D01*
X481730Y536030D01*
X481618Y536048D01*
X481533Y536067D01*
D02*
G37*
G36*
X481542Y533370D02*
X481486D01*
X481279Y533351D01*
X481091Y533314D01*
X480922Y533248D01*
X480781Y533182D01*
X480668Y533107D01*
X480584Y533041D01*
X480537Y533004D01*
X480518Y532985D01*
X480386Y532834D01*
X480292Y532675D01*
X480227Y532515D01*
X480180Y532374D01*
X480151Y532233D01*
X480142Y532130D01*
X480133Y532092D01*
Y532064D01*
Y532045D01*
Y532035D01*
X480151Y531838D01*
X480189Y531650D01*
X480255Y531490D01*
X480321Y531359D01*
X480386Y531255D01*
X480452Y531171D01*
X480490Y531124D01*
X480508Y531105D01*
X480659Y530983D01*
X480809Y530889D01*
X480969Y530832D01*
X481119Y530786D01*
X481251Y530757D01*
X481364Y530748D01*
X481401Y530739D01*
X481458D01*
X481589Y530748D01*
X481721Y530767D01*
X481843Y530795D01*
X481946Y530823D01*
X482031Y530851D01*
X482097Y530880D01*
X482134Y530898D01*
X482153Y530908D01*
X482266Y530983D01*
X482360Y531058D01*
X482444Y531143D01*
X482510Y531227D01*
X482567Y531293D01*
X482604Y531349D01*
X482623Y531396D01*
X482632Y531406D01*
X482679Y531528D01*
X482717Y531641D01*
X482745Y531754D01*
X482764Y531857D01*
X482773Y531941D01*
X482783Y532007D01*
Y532045D01*
Y532064D01*
X482764Y532261D01*
X482726Y532440D01*
X482670Y532599D01*
X482595Y532740D01*
X482529Y532844D01*
X482473Y532928D01*
X482435Y532975D01*
X482416Y532994D01*
X482275Y533116D01*
X482116Y533210D01*
X481965Y533276D01*
X481815Y533323D01*
X481683Y533351D01*
X481580Y533361D01*
X481542Y533370D01*
D02*
G37*
G36*
X348385Y695597D02*
X346882D01*
X346759Y695587D01*
X346637D01*
X346525Y695578D01*
X346337Y695550D01*
X346186Y695531D01*
X346064Y695503D01*
X345979Y695475D01*
X345933Y695465D01*
X345914Y695456D01*
X345745Y695371D01*
X345585Y695268D01*
X345444Y695146D01*
X345322Y695023D01*
X345228Y694911D01*
X345153Y694817D01*
X345134Y694779D01*
X345115Y694751D01*
X345096Y694732D01*
Y694723D01*
X345040Y694619D01*
X344983Y694497D01*
X344899Y694253D01*
X344842Y693990D01*
X344795Y693736D01*
X344786Y693623D01*
X344777Y693510D01*
X344767Y693416D01*
Y693332D01*
X344758Y693257D01*
Y693210D01*
Y693172D01*
Y693163D01*
X344767Y692900D01*
X344786Y692655D01*
X344814Y692439D01*
X344842Y692251D01*
X344861Y692176D01*
X344880Y692110D01*
X344899Y692044D01*
X344908Y691997D01*
X344917Y691960D01*
X344927Y691932D01*
X344936Y691913D01*
Y691903D01*
X345002Y691725D01*
X345077Y691565D01*
X345162Y691424D01*
X345237Y691302D01*
X345303Y691208D01*
X345359Y691142D01*
X345397Y691105D01*
X345406Y691086D01*
X345500Y691011D01*
X345594Y690945D01*
X345688Y690888D01*
X345782Y690832D01*
X345867Y690794D01*
X345933Y690766D01*
X345979Y690757D01*
X345998Y690747D01*
X346139Y690710D01*
X346308Y690682D01*
X346478Y690663D01*
X346637Y690653D01*
X346778Y690644D01*
X346844Y690635D01*
X348385D01*
Y695597D01*
D02*
G37*
G36*
X418235D02*
X416732D01*
X416609Y695587D01*
X416487D01*
X416375Y695578D01*
X416187Y695550D01*
X416036Y695531D01*
X415914Y695503D01*
X415830Y695475D01*
X415783Y695465D01*
X415764Y695456D01*
X415594Y695371D01*
X415435Y695268D01*
X415294Y695146D01*
X415172Y695023D01*
X415078Y694911D01*
X415003Y694817D01*
X414984Y694779D01*
X414965Y694751D01*
X414946Y694732D01*
Y694723D01*
X414890Y694619D01*
X414833Y694497D01*
X414749Y694253D01*
X414692Y693990D01*
X414645Y693736D01*
X414636Y693623D01*
X414627Y693510D01*
X414617Y693416D01*
Y693332D01*
X414608Y693257D01*
Y693210D01*
Y693172D01*
Y693163D01*
X414617Y692900D01*
X414636Y692655D01*
X414664Y692439D01*
X414692Y692251D01*
X414711Y692176D01*
X414730Y692110D01*
X414749Y692044D01*
X414758Y691997D01*
X414767Y691960D01*
X414777Y691932D01*
X414786Y691913D01*
Y691903D01*
X414852Y691725D01*
X414927Y691565D01*
X415012Y691424D01*
X415087Y691302D01*
X415153Y691208D01*
X415209Y691142D01*
X415247Y691105D01*
X415256Y691086D01*
X415350Y691011D01*
X415444Y690945D01*
X415538Y690888D01*
X415632Y690832D01*
X415717Y690794D01*
X415783Y690766D01*
X415830Y690757D01*
X415848Y690747D01*
X415989Y690710D01*
X416158Y690682D01*
X416328Y690663D01*
X416487Y690653D01*
X416628Y690644D01*
X416694Y690635D01*
X418235D01*
Y695597D01*
D02*
G37*
G36*
X488339D02*
X486836D01*
X486713Y695587D01*
X486591D01*
X486479Y695578D01*
X486291Y695550D01*
X486140Y695531D01*
X486018Y695503D01*
X485933Y695475D01*
X485886Y695465D01*
X485868Y695456D01*
X485699Y695371D01*
X485539Y695268D01*
X485398Y695146D01*
X485276Y695023D01*
X485182Y694911D01*
X485107Y694817D01*
X485088Y694779D01*
X485069Y694751D01*
X485050Y694732D01*
Y694723D01*
X484994Y694619D01*
X484937Y694497D01*
X484853Y694253D01*
X484796Y693990D01*
X484749Y693736D01*
X484740Y693623D01*
X484731Y693510D01*
X484721Y693416D01*
Y693332D01*
X484712Y693257D01*
Y693210D01*
Y693172D01*
Y693163D01*
X484721Y692900D01*
X484740Y692655D01*
X484768Y692439D01*
X484796Y692251D01*
X484815Y692176D01*
X484834Y692110D01*
X484853Y692044D01*
X484862Y691997D01*
X484871Y691960D01*
X484881Y691932D01*
X484890Y691913D01*
Y691903D01*
X484956Y691725D01*
X485031Y691565D01*
X485116Y691424D01*
X485191Y691302D01*
X485257Y691208D01*
X485313Y691142D01*
X485351Y691105D01*
X485360Y691086D01*
X485454Y691011D01*
X485548Y690945D01*
X485642Y690888D01*
X485736Y690832D01*
X485821Y690794D01*
X485886Y690766D01*
X485933Y690757D01*
X485952Y690747D01*
X486093Y690710D01*
X486262Y690682D01*
X486432Y690663D01*
X486591Y690653D01*
X486732Y690644D01*
X486798Y690635D01*
X488339D01*
Y695597D01*
D02*
G37*
G36*
X558443D02*
X556940D01*
X556818Y695587D01*
X556695D01*
X556583Y695578D01*
X556395Y695550D01*
X556244Y695531D01*
X556122Y695503D01*
X556037Y695475D01*
X555990Y695465D01*
X555972Y695456D01*
X555802Y695371D01*
X555643Y695268D01*
X555502Y695146D01*
X555380Y695023D01*
X555286Y694911D01*
X555210Y694817D01*
X555192Y694779D01*
X555173Y694751D01*
X555154Y694732D01*
Y694723D01*
X555098Y694619D01*
X555041Y694497D01*
X554957Y694253D01*
X554900Y693990D01*
X554853Y693736D01*
X554844Y693623D01*
X554835Y693510D01*
X554825Y693416D01*
Y693332D01*
X554816Y693257D01*
Y693210D01*
Y693172D01*
Y693163D01*
X554825Y692900D01*
X554844Y692655D01*
X554872Y692439D01*
X554900Y692251D01*
X554919Y692176D01*
X554938Y692110D01*
X554957Y692044D01*
X554966Y691997D01*
X554976Y691960D01*
X554985Y691932D01*
X554994Y691913D01*
Y691903D01*
X555060Y691725D01*
X555135Y691565D01*
X555220Y691424D01*
X555295Y691302D01*
X555361Y691208D01*
X555417Y691142D01*
X555455Y691105D01*
X555464Y691086D01*
X555558Y691011D01*
X555652Y690945D01*
X555746Y690888D01*
X555840Y690832D01*
X555925Y690794D01*
X555990Y690766D01*
X556037Y690757D01*
X556056Y690747D01*
X556197Y690710D01*
X556366Y690682D01*
X556536Y690663D01*
X556695Y690653D01*
X556836Y690644D01*
X556902Y690635D01*
X558443D01*
Y695597D01*
D02*
G37*
G36*
X545963Y695738D02*
X545906D01*
X545803Y695728D01*
X545700Y695719D01*
X545606Y695691D01*
X545521Y695653D01*
X545361Y695569D01*
X545220Y695475D01*
X545117Y695371D01*
X545032Y695287D01*
X545004Y695249D01*
X544985Y695221D01*
X544967Y695211D01*
Y695202D01*
X544901Y695089D01*
X544845Y694958D01*
X544788Y694807D01*
X544751Y694648D01*
X544713Y694478D01*
X544685Y694300D01*
X544638Y693943D01*
X544619Y693764D01*
X544609Y693604D01*
X544600Y693454D01*
Y693332D01*
X544591Y693219D01*
Y693135D01*
Y693087D01*
Y693078D01*
Y693069D01*
Y692777D01*
X544609Y692514D01*
X544628Y692279D01*
X544647Y692054D01*
X544675Y691866D01*
X544713Y691687D01*
X544751Y691537D01*
X544779Y691396D01*
X544816Y691283D01*
X544854Y691189D01*
X544882Y691105D01*
X544920Y691039D01*
X544939Y690992D01*
X544957Y690964D01*
X544976Y690945D01*
Y690935D01*
X545051Y690841D01*
X545126Y690766D01*
X545202Y690691D01*
X545277Y690635D01*
X545437Y690541D01*
X545578Y690475D01*
X545709Y690437D01*
X545803Y690418D01*
X545841Y690409D01*
X545897D01*
X546000Y690418D01*
X546094Y690428D01*
X546273Y690494D01*
X546433Y690578D01*
X546574Y690672D01*
X546677Y690766D01*
X546762Y690851D01*
X546809Y690917D01*
X546828Y690926D01*
Y690935D01*
X546893Y691048D01*
X546950Y691180D01*
X547006Y691330D01*
X547044Y691490D01*
X547081Y691659D01*
X547109Y691838D01*
X547156Y692204D01*
X547175Y692373D01*
X547185Y692533D01*
X547194Y692683D01*
Y692806D01*
X547203Y692918D01*
Y693003D01*
Y693050D01*
Y693069D01*
X547194Y693360D01*
X547185Y693623D01*
X547166Y693867D01*
X547138Y694093D01*
X547109Y694290D01*
X547072Y694469D01*
X547034Y694629D01*
X546997Y694770D01*
X546959Y694892D01*
X546931Y694995D01*
X546893Y695080D01*
X546865Y695155D01*
X546837Y695202D01*
X546818Y695240D01*
X546799Y695258D01*
Y695268D01*
X546734Y695352D01*
X546668Y695428D01*
X546592Y695484D01*
X546517Y695540D01*
X546367Y695625D01*
X546226Y695681D01*
X546104Y695710D01*
X546000Y695728D01*
X545963Y695738D01*
D02*
G37*
G36*
X873063D02*
X872912D01*
X872818Y695719D01*
X872649Y695672D01*
X872499Y695606D01*
X872367Y695540D01*
X872264Y695465D01*
X872189Y695399D01*
X872142Y695352D01*
X872123Y695343D01*
Y695334D01*
X872001Y695174D01*
X871907Y694995D01*
X871841Y694807D01*
X871803Y694629D01*
X871775Y694478D01*
X871766Y694413D01*
Y694347D01*
X871756Y694300D01*
Y694262D01*
Y694243D01*
Y694234D01*
X871775Y693990D01*
X871813Y693774D01*
X871869Y693595D01*
X871935Y693445D01*
X872010Y693323D01*
X872067Y693238D01*
X872104Y693182D01*
X872123Y693163D01*
X872264Y693031D01*
X872414Y692937D01*
X872565Y692871D01*
X872715Y692824D01*
X872837Y692796D01*
X872941Y692787D01*
X872978Y692777D01*
X873035D01*
X873232Y692796D01*
X873410Y692834D01*
X873570Y692900D01*
X873711Y692975D01*
X873815Y693040D01*
X873899Y693106D01*
X873946Y693144D01*
X873965Y693163D01*
X874087Y693313D01*
X874181Y693482D01*
X874238Y693651D01*
X874285Y693811D01*
X874313Y693952D01*
X874322Y694008D01*
Y694065D01*
X874332Y694112D01*
Y694140D01*
Y694159D01*
Y694168D01*
X874313Y694413D01*
X874275Y694638D01*
X874209Y694836D01*
X874134Y694995D01*
X874068Y695127D01*
X874003Y695221D01*
X873984Y695249D01*
X873965Y695277D01*
X873946Y695287D01*
Y695296D01*
X873871Y695371D01*
X873796Y695446D01*
X873636Y695550D01*
X873476Y695634D01*
X873326Y695681D01*
X873204Y695719D01*
X873100Y695728D01*
X873063Y695738D01*
D02*
G37*
G36*
X880515Y695597D02*
X879012D01*
X878889Y695587D01*
X878767D01*
X878655Y695578D01*
X878467Y695550D01*
X878316Y695531D01*
X878194Y695503D01*
X878110Y695475D01*
X878063Y695465D01*
X878044Y695456D01*
X877875Y695371D01*
X877715Y695268D01*
X877574Y695146D01*
X877452Y695023D01*
X877358Y694911D01*
X877282Y694817D01*
X877264Y694779D01*
X877245Y694751D01*
X877226Y694732D01*
Y694723D01*
X877170Y694619D01*
X877113Y694497D01*
X877029Y694253D01*
X876972Y693990D01*
X876925Y693736D01*
X876916Y693623D01*
X876907Y693510D01*
X876897Y693416D01*
Y693332D01*
X876888Y693257D01*
Y693210D01*
Y693172D01*
Y693163D01*
X876897Y692900D01*
X876916Y692655D01*
X876944Y692439D01*
X876972Y692251D01*
X876991Y692176D01*
X877010Y692110D01*
X877029Y692044D01*
X877038Y691997D01*
X877048Y691960D01*
X877057Y691932D01*
X877066Y691913D01*
Y691903D01*
X877132Y691725D01*
X877207Y691565D01*
X877292Y691424D01*
X877367Y691302D01*
X877433Y691208D01*
X877489Y691142D01*
X877527Y691105D01*
X877536Y691086D01*
X877630Y691011D01*
X877724Y690945D01*
X877818Y690888D01*
X877912Y690832D01*
X877997Y690794D01*
X878063Y690766D01*
X878110Y690757D01*
X878128Y690747D01*
X878269Y690710D01*
X878438Y690682D01*
X878608Y690663D01*
X878767Y690653D01*
X878908Y690644D01*
X878974Y690635D01*
X880515D01*
Y695597D01*
D02*
G37*
G36*
X810411D02*
X808908D01*
X808785Y695587D01*
X808663D01*
X808551Y695578D01*
X808363Y695550D01*
X808212Y695531D01*
X808090Y695503D01*
X808006Y695475D01*
X807959Y695465D01*
X807940Y695456D01*
X807770Y695371D01*
X807611Y695268D01*
X807470Y695146D01*
X807348Y695023D01*
X807254Y694911D01*
X807178Y694817D01*
X807160Y694779D01*
X807141Y694751D01*
X807122Y694732D01*
Y694723D01*
X807066Y694619D01*
X807009Y694497D01*
X806925Y694253D01*
X806868Y693990D01*
X806821Y693736D01*
X806812Y693623D01*
X806803Y693510D01*
X806793Y693416D01*
Y693332D01*
X806784Y693257D01*
Y693210D01*
Y693172D01*
Y693163D01*
X806793Y692900D01*
X806812Y692655D01*
X806840Y692439D01*
X806868Y692251D01*
X806887Y692176D01*
X806906Y692110D01*
X806925Y692044D01*
X806934Y691997D01*
X806944Y691960D01*
X806953Y691932D01*
X806962Y691913D01*
Y691903D01*
X807028Y691725D01*
X807103Y691565D01*
X807188Y691424D01*
X807263Y691302D01*
X807329Y691208D01*
X807385Y691142D01*
X807423Y691105D01*
X807432Y691086D01*
X807526Y691011D01*
X807620Y690945D01*
X807714Y690888D01*
X807808Y690832D01*
X807893Y690794D01*
X807959Y690766D01*
X808006Y690757D01*
X808024Y690747D01*
X808165Y690710D01*
X808334Y690682D01*
X808504Y690663D01*
X808663Y690653D01*
X808804Y690644D01*
X808870Y690635D01*
X810411D01*
Y695597D01*
D02*
G37*
G36*
X802987Y695738D02*
X802912D01*
X802752Y695728D01*
X802602Y695691D01*
X802479Y695644D01*
X802367Y695587D01*
X802282Y695531D01*
X802216Y695484D01*
X802169Y695446D01*
X802160Y695437D01*
X802057Y695315D01*
X801981Y695193D01*
X801925Y695070D01*
X801887Y694958D01*
X801869Y694854D01*
X801850Y694770D01*
Y694713D01*
Y694704D01*
Y694695D01*
X801859Y694544D01*
X801897Y694403D01*
X801944Y694281D01*
X802000Y694178D01*
X802057Y694093D01*
X802104Y694037D01*
X802141Y693990D01*
X802150Y693980D01*
X802263Y693886D01*
X802395Y693811D01*
X802517Y693764D01*
X802639Y693727D01*
X802752Y693708D01*
X802837Y693698D01*
X802893Y693689D01*
X802912D01*
X803081Y693698D01*
X803231Y693736D01*
X803363Y693783D01*
X803476Y693839D01*
X803560Y693886D01*
X803626Y693933D01*
X803673Y693971D01*
X803682Y693980D01*
X803776Y694093D01*
X803852Y694225D01*
X803899Y694347D01*
X803936Y694469D01*
X803955Y694572D01*
X803964Y694657D01*
X803974Y694713D01*
Y694723D01*
Y694732D01*
X803964Y694883D01*
X803927Y695014D01*
X803880Y695136D01*
X803823Y695240D01*
X803776Y695324D01*
X803729Y695390D01*
X803692Y695428D01*
X803682Y695437D01*
X803560Y695540D01*
X803438Y695616D01*
X803307Y695663D01*
X803184Y695700D01*
X803072Y695719D01*
X802987Y695738D01*
D02*
G37*
G36*
X802996Y693040D02*
X802940D01*
X802733Y693022D01*
X802545Y692984D01*
X802376Y692918D01*
X802235Y692853D01*
X802122Y692777D01*
X802038Y692712D01*
X801991Y692674D01*
X801972Y692655D01*
X801840Y692505D01*
X801746Y692345D01*
X801681Y692185D01*
X801634Y692044D01*
X801606Y691903D01*
X801596Y691800D01*
X801587Y691762D01*
Y691734D01*
Y691715D01*
Y691706D01*
X801606Y691509D01*
X801643Y691321D01*
X801709Y691161D01*
X801775Y691029D01*
X801840Y690926D01*
X801906Y690841D01*
X801944Y690794D01*
X801963Y690776D01*
X802113Y690653D01*
X802263Y690559D01*
X802423Y690503D01*
X802573Y690456D01*
X802705Y690428D01*
X802818Y690418D01*
X802855Y690409D01*
X802912D01*
X803043Y690418D01*
X803175Y690437D01*
X803297Y690465D01*
X803400Y690494D01*
X803485Y690522D01*
X803551Y690550D01*
X803588Y690569D01*
X803607Y690578D01*
X803720Y690653D01*
X803814Y690729D01*
X803899Y690813D01*
X803964Y690898D01*
X804021Y690964D01*
X804058Y691020D01*
X804077Y691067D01*
X804087Y691076D01*
X804134Y691199D01*
X804171Y691311D01*
X804199Y691424D01*
X804218Y691527D01*
X804228Y691612D01*
X804237Y691678D01*
Y691715D01*
Y691734D01*
X804218Y691932D01*
X804181Y692110D01*
X804124Y692270D01*
X804049Y692411D01*
X803983Y692514D01*
X803927Y692599D01*
X803889Y692646D01*
X803870Y692665D01*
X803729Y692787D01*
X803570Y692881D01*
X803419Y692946D01*
X803269Y692993D01*
X803137Y693022D01*
X803034Y693031D01*
X802996Y693040D01*
D02*
G37*
G36*
X740307Y695597D02*
X738804D01*
X738681Y695587D01*
X738559D01*
X738447Y695578D01*
X738259Y695550D01*
X738108Y695531D01*
X737986Y695503D01*
X737902Y695475D01*
X737855Y695465D01*
X737836Y695456D01*
X737666Y695371D01*
X737507Y695268D01*
X737366Y695146D01*
X737244Y695023D01*
X737150Y694911D01*
X737075Y694817D01*
X737056Y694779D01*
X737037Y694751D01*
X737018Y694732D01*
Y694723D01*
X736962Y694619D01*
X736905Y694497D01*
X736821Y694253D01*
X736764Y693990D01*
X736717Y693736D01*
X736708Y693623D01*
X736699Y693510D01*
X736689Y693416D01*
Y693332D01*
X736680Y693257D01*
Y693210D01*
Y693172D01*
Y693163D01*
X736689Y692900D01*
X736708Y692655D01*
X736736Y692439D01*
X736764Y692251D01*
X736783Y692176D01*
X736802Y692110D01*
X736821Y692044D01*
X736830Y691997D01*
X736840Y691960D01*
X736849Y691932D01*
X736858Y691913D01*
Y691903D01*
X736924Y691725D01*
X736999Y691565D01*
X737084Y691424D01*
X737159Y691302D01*
X737225Y691208D01*
X737281Y691142D01*
X737319Y691105D01*
X737328Y691086D01*
X737422Y691011D01*
X737516Y690945D01*
X737610Y690888D01*
X737704Y690832D01*
X737789Y690794D01*
X737855Y690766D01*
X737902Y690757D01*
X737920Y690747D01*
X738061Y690710D01*
X738230Y690682D01*
X738400Y690663D01*
X738559Y690653D01*
X738700Y690644D01*
X738766Y690635D01*
X740307D01*
Y695597D01*
D02*
G37*
G36*
X662967Y693379D02*
X662911D01*
X662713Y693360D01*
X662535Y693313D01*
X662384Y693257D01*
X662253Y693182D01*
X662150Y693106D01*
X662074Y693050D01*
X662027Y693003D01*
X662009Y692984D01*
X661886Y692824D01*
X661792Y692655D01*
X661727Y692477D01*
X661689Y692308D01*
X661661Y692157D01*
X661652Y692091D01*
Y692035D01*
X661642Y691988D01*
Y691950D01*
Y691932D01*
Y691922D01*
X661661Y691668D01*
X661698Y691452D01*
X661755Y691264D01*
X661821Y691105D01*
X661896Y690982D01*
X661952Y690888D01*
X661990Y690832D01*
X662009Y690823D01*
Y690813D01*
X662074Y690738D01*
X662150Y690682D01*
X662300Y690578D01*
X662450Y690512D01*
X662582Y690456D01*
X662704Y690428D01*
X662798Y690418D01*
X662836Y690409D01*
X662883D01*
X663014Y690418D01*
X663136Y690437D01*
X663249Y690475D01*
X663343Y690512D01*
X663428Y690541D01*
X663493Y690578D01*
X663531Y690597D01*
X663550Y690606D01*
X663663Y690691D01*
X663757Y690776D01*
X663841Y690879D01*
X663907Y690964D01*
X663963Y691048D01*
X664001Y691114D01*
X664029Y691161D01*
X664038Y691180D01*
X664095Y691321D01*
X664133Y691462D01*
X664170Y691593D01*
X664189Y691715D01*
X664198Y691819D01*
X664208Y691903D01*
Y691950D01*
Y691969D01*
X664189Y692195D01*
X664151Y692392D01*
X664085Y692571D01*
X664020Y692712D01*
X663954Y692834D01*
X663888Y692918D01*
X663851Y692965D01*
X663832Y692984D01*
X663681Y693116D01*
X663531Y693210D01*
X663371Y693285D01*
X663230Y693332D01*
X663099Y693360D01*
X663005Y693370D01*
X662967Y693379D01*
D02*
G37*
G36*
X670457Y695597D02*
X668954D01*
X668831Y695587D01*
X668709D01*
X668597Y695578D01*
X668409Y695550D01*
X668258Y695531D01*
X668136Y695503D01*
X668052Y695475D01*
X668005Y695465D01*
X667986Y695456D01*
X667816Y695371D01*
X667657Y695268D01*
X667516Y695146D01*
X667394Y695023D01*
X667300Y694911D01*
X667225Y694817D01*
X667206Y694779D01*
X667187Y694751D01*
X667168Y694732D01*
Y694723D01*
X667112Y694619D01*
X667055Y694497D01*
X666971Y694253D01*
X666914Y693990D01*
X666867Y693736D01*
X666858Y693623D01*
X666849Y693510D01*
X666839Y693416D01*
Y693332D01*
X666830Y693257D01*
Y693210D01*
Y693172D01*
Y693163D01*
X666839Y692900D01*
X666858Y692655D01*
X666886Y692439D01*
X666914Y692251D01*
X666933Y692176D01*
X666952Y692110D01*
X666971Y692044D01*
X666980Y691997D01*
X666990Y691960D01*
X666999Y691932D01*
X667008Y691913D01*
Y691903D01*
X667074Y691725D01*
X667149Y691565D01*
X667234Y691424D01*
X667309Y691302D01*
X667375Y691208D01*
X667431Y691142D01*
X667469Y691105D01*
X667478Y691086D01*
X667572Y691011D01*
X667666Y690945D01*
X667760Y690888D01*
X667854Y690832D01*
X667939Y690794D01*
X668005Y690766D01*
X668052Y690757D01*
X668070Y690747D01*
X668211Y690710D01*
X668380Y690682D01*
X668550Y690663D01*
X668709Y690653D01*
X668850Y690644D01*
X668916Y690635D01*
X670457D01*
Y695597D01*
D02*
G37*
G36*
X1160169D02*
X1158666D01*
X1158543Y695587D01*
X1158421D01*
X1158309Y695578D01*
X1158121Y695550D01*
X1157970Y695531D01*
X1157848Y695503D01*
X1157764Y695475D01*
X1157717Y695465D01*
X1157698Y695456D01*
X1157529Y695371D01*
X1157369Y695268D01*
X1157228Y695146D01*
X1157106Y695023D01*
X1157012Y694911D01*
X1156936Y694817D01*
X1156918Y694779D01*
X1156899Y694751D01*
X1156880Y694732D01*
Y694723D01*
X1156824Y694619D01*
X1156767Y694497D01*
X1156683Y694253D01*
X1156626Y693990D01*
X1156579Y693736D01*
X1156570Y693623D01*
X1156561Y693510D01*
X1156551Y693416D01*
Y693332D01*
X1156542Y693257D01*
Y693210D01*
Y693172D01*
Y693163D01*
X1156551Y692900D01*
X1156570Y692655D01*
X1156598Y692439D01*
X1156626Y692251D01*
X1156645Y692176D01*
X1156664Y692110D01*
X1156683Y692044D01*
X1156692Y691997D01*
X1156702Y691960D01*
X1156711Y691932D01*
X1156720Y691913D01*
Y691903D01*
X1156786Y691725D01*
X1156861Y691565D01*
X1156946Y691424D01*
X1157021Y691302D01*
X1157087Y691208D01*
X1157143Y691142D01*
X1157181Y691105D01*
X1157190Y691086D01*
X1157284Y691011D01*
X1157378Y690945D01*
X1157472Y690888D01*
X1157566Y690832D01*
X1157651Y690794D01*
X1157717Y690766D01*
X1157764Y690757D01*
X1157782Y690747D01*
X1157923Y690710D01*
X1158092Y690682D01*
X1158262Y690663D01*
X1158421Y690653D01*
X1158562Y690644D01*
X1158628Y690635D01*
X1160169D01*
Y695597D01*
D02*
G37*
G36*
X1090319D02*
X1088816D01*
X1088693Y695587D01*
X1088571D01*
X1088459Y695578D01*
X1088271Y695550D01*
X1088120Y695531D01*
X1087998Y695503D01*
X1087914Y695475D01*
X1087867Y695465D01*
X1087848Y695456D01*
X1087679Y695371D01*
X1087519Y695268D01*
X1087378Y695146D01*
X1087256Y695023D01*
X1087162Y694911D01*
X1087086Y694817D01*
X1087068Y694779D01*
X1087049Y694751D01*
X1087030Y694732D01*
Y694723D01*
X1086974Y694619D01*
X1086917Y694497D01*
X1086833Y694253D01*
X1086776Y693990D01*
X1086729Y693736D01*
X1086720Y693623D01*
X1086711Y693510D01*
X1086701Y693416D01*
Y693332D01*
X1086692Y693257D01*
Y693210D01*
Y693172D01*
Y693163D01*
X1086701Y692900D01*
X1086720Y692655D01*
X1086748Y692439D01*
X1086776Y692251D01*
X1086795Y692176D01*
X1086814Y692110D01*
X1086833Y692044D01*
X1086842Y691997D01*
X1086852Y691960D01*
X1086861Y691932D01*
X1086870Y691913D01*
Y691903D01*
X1086936Y691725D01*
X1087011Y691565D01*
X1087096Y691424D01*
X1087171Y691302D01*
X1087237Y691208D01*
X1087293Y691142D01*
X1087331Y691105D01*
X1087340Y691086D01*
X1087434Y691011D01*
X1087528Y690945D01*
X1087622Y690888D01*
X1087716Y690832D01*
X1087801Y690794D01*
X1087867Y690766D01*
X1087914Y690757D01*
X1087932Y690747D01*
X1088073Y690710D01*
X1088242Y690682D01*
X1088412Y690663D01*
X1088571Y690653D01*
X1088712Y690644D01*
X1088778Y690635D01*
X1090319D01*
Y695597D01*
D02*
G37*
G36*
X1082397Y695070D02*
Y692157D01*
X1084446D01*
X1082397Y695070D01*
D02*
G37*
G36*
X1020469Y695597D02*
X1018966D01*
X1018844Y695587D01*
X1018721D01*
X1018609Y695578D01*
X1018421Y695550D01*
X1018270Y695531D01*
X1018148Y695503D01*
X1018064Y695475D01*
X1018017Y695465D01*
X1017998Y695456D01*
X1017829Y695371D01*
X1017669Y695268D01*
X1017528Y695146D01*
X1017406Y695023D01*
X1017312Y694911D01*
X1017236Y694817D01*
X1017218Y694779D01*
X1017199Y694751D01*
X1017180Y694732D01*
Y694723D01*
X1017124Y694619D01*
X1017067Y694497D01*
X1016983Y694253D01*
X1016926Y693990D01*
X1016879Y693736D01*
X1016870Y693623D01*
X1016861Y693510D01*
X1016851Y693416D01*
Y693332D01*
X1016842Y693257D01*
Y693210D01*
Y693172D01*
Y693163D01*
X1016851Y692900D01*
X1016870Y692655D01*
X1016898Y692439D01*
X1016926Y692251D01*
X1016945Y692176D01*
X1016964Y692110D01*
X1016983Y692044D01*
X1016992Y691997D01*
X1017001Y691960D01*
X1017011Y691932D01*
X1017020Y691913D01*
Y691903D01*
X1017086Y691725D01*
X1017161Y691565D01*
X1017246Y691424D01*
X1017321Y691302D01*
X1017387Y691208D01*
X1017443Y691142D01*
X1017481Y691105D01*
X1017490Y691086D01*
X1017584Y691011D01*
X1017678Y690945D01*
X1017772Y690888D01*
X1017866Y690832D01*
X1017951Y690794D01*
X1018017Y690766D01*
X1018064Y690757D01*
X1018082Y690747D01*
X1018223Y690710D01*
X1018392Y690682D01*
X1018562Y690663D01*
X1018721Y690653D01*
X1018862Y690644D01*
X1018928Y690635D01*
X1020469D01*
Y695597D01*
D02*
G37*
G36*
X950365D02*
X948862D01*
X948739Y695587D01*
X948617D01*
X948505Y695578D01*
X948317Y695550D01*
X948166Y695531D01*
X948044Y695503D01*
X947960Y695475D01*
X947913Y695465D01*
X947894Y695456D01*
X947725Y695371D01*
X947565Y695268D01*
X947424Y695146D01*
X947302Y695023D01*
X947208Y694911D01*
X947132Y694817D01*
X947114Y694779D01*
X947095Y694751D01*
X947076Y694732D01*
Y694723D01*
X947020Y694619D01*
X946963Y694497D01*
X946879Y694253D01*
X946822Y693990D01*
X946775Y693736D01*
X946766Y693623D01*
X946757Y693510D01*
X946747Y693416D01*
Y693332D01*
X946738Y693257D01*
Y693210D01*
Y693172D01*
Y693163D01*
X946747Y692900D01*
X946766Y692655D01*
X946794Y692439D01*
X946822Y692251D01*
X946841Y692176D01*
X946860Y692110D01*
X946879Y692044D01*
X946888Y691997D01*
X946898Y691960D01*
X946907Y691932D01*
X946916Y691913D01*
Y691903D01*
X946982Y691725D01*
X947057Y691565D01*
X947142Y691424D01*
X947217Y691302D01*
X947283Y691208D01*
X947339Y691142D01*
X947377Y691105D01*
X947386Y691086D01*
X947480Y691011D01*
X947574Y690945D01*
X947668Y690888D01*
X947762Y690832D01*
X947847Y690794D01*
X947913Y690766D01*
X947960Y690757D01*
X947978Y690747D01*
X948119Y690710D01*
X948288Y690682D01*
X948458Y690663D01*
X948617Y690653D01*
X948758Y690644D01*
X948824Y690635D01*
X950365D01*
Y695597D01*
D02*
G37*
G36*
X427425Y536607D02*
X424511Y534559D01*
X427425D01*
Y536607D01*
D02*
G37*
%LPD*%
D10*
X371912Y514890D02*
Y518890D01*
X378912Y514890D02*
Y518890D01*
X442158Y518700D02*
Y522700D01*
X435158Y518700D02*
Y522700D01*
X338112Y475286D02*
X438112D01*
X338112Y418286D02*
X438112D01*
X338112D02*
Y475286D01*
X438112Y418286D02*
Y475286D01*
X490418Y514890D02*
Y518890D01*
X483418Y514890D02*
Y518890D01*
X449872Y476556D02*
X549872D01*
X449872Y419556D02*
X549872D01*
X449872D02*
Y476556D01*
X549872Y419556D02*
Y476556D01*
X553664Y518700D02*
Y522700D01*
X546664Y518700D02*
Y522700D01*
X876844Y596520D02*
Y676020D01*
X817844Y596520D02*
Y676020D01*
X319432Y624794D02*
Y676194D01*
X345032Y624794D02*
Y676194D01*
X389282Y624794D02*
Y676194D01*
X414882Y624794D02*
Y676194D01*
X459386Y624794D02*
Y676194D01*
X484986Y624794D02*
Y676194D01*
X555090Y624794D02*
Y676194D01*
X529490Y624794D02*
Y676194D01*
X1097498Y596520D02*
Y676020D01*
X1156498Y596520D02*
Y676020D01*
X1027648Y596520D02*
Y676020D01*
X1086648Y596520D02*
Y676020D01*
X957798Y596520D02*
Y676020D01*
X1016798Y596520D02*
Y676020D01*
X887694Y596520D02*
Y676020D01*
X946694Y596520D02*
Y676020D01*
X806740Y596520D02*
Y676020D01*
X747740Y596520D02*
Y676020D01*
X736636Y596520D02*
Y676020D01*
X677636Y596520D02*
Y676020D01*
X666786Y596520D02*
Y676020D01*
X607786Y596520D02*
Y676020D01*
D17*
X341512Y488786D02*
G03*
X341512Y488786I-1250J0D01*
G01*
X453272Y490056D02*
G03*
X453272Y490056I-1250J0D01*
G01*
D18*
X351112Y465286D02*
G03*
X351112Y465286I-3000J0D01*
G01*
X462872Y466556D02*
G03*
X462872Y466556I-3000J0D01*
G01*
M02*
