G04*
G04 #@! TF.GenerationSoftware,Altium Limited,Altium Designer,23.1.1 (15)*
G04*
G04 Layer_Color=16711935*
%FSLAX44Y44*%
%MOMM*%
G71*
G04*
G04 #@! TF.SameCoordinates,834500F6-C2E4-4EAC-996A-B368302F4D9C*
G04*
G04*
G04 #@! TF.FilePolarity,Negative*
G04*
G01*
G75*
%ADD84R,1.1032X0.9032*%
%ADD88O,1.0532X2.1032*%
%ADD92R,1.1032X1.0032*%
%ADD101R,1.7112X1.7112*%
%ADD102C,1.7112*%
%ADD103R,1.9282X1.9282*%
%ADD104C,1.9282*%
%ADD105C,1.5532*%
%ADD106R,1.5532X1.5532*%
%ADD107C,2.5032*%
%ADD108R,2.6782X2.6782*%
%ADD109C,2.6782*%
%ADD110O,3.5032X1.8532*%
G04:AMPARAMS|DCode=111|XSize=1.7032mm|YSize=1.7032mm|CornerRadius=0.2891mm|HoleSize=0mm|Usage=FLASHONLY|Rotation=180.000|XOffset=0mm|YOffset=0mm|HoleType=Round|Shape=RoundedRectangle|*
%AMROUNDEDRECTD111*
21,1,1.7032,1.1250,0,0,180.0*
21,1,1.1250,1.7032,0,0,180.0*
1,1,0.5782,-0.5625,0.5625*
1,1,0.5782,0.5625,0.5625*
1,1,0.5782,0.5625,-0.5625*
1,1,0.5782,-0.5625,-0.5625*
%
%ADD111ROUNDEDRECTD111*%
%ADD112C,1.7032*%
%ADD113R,1.7032X1.7032*%
%ADD114C,0.5032*%
%ADD115R,2.6782X2.6782*%
%ADD116C,3.8032*%
%ADD117C,2.0032*%
%ADD118R,2.0032X2.0032*%
%ADD119C,2.3032*%
%ADD153R,1.0160X1.2192*%
%ADD154R,1.2192X1.0160*%
%ADD155R,3.3532X2.4532*%
%ADD156R,1.7032X2.3032*%
G36*
X327606Y260413D02*
X321510Y266509D01*
X315414Y260413D01*
Y270065D01*
X327606D01*
Y260413D01*
D02*
G37*
G36*
Y259905D02*
Y257365D01*
X315414D01*
Y259905D01*
X321510Y266001D01*
X327606Y259905D01*
D02*
G37*
G36*
X1019746Y127254D02*
X1017206D01*
X1011111Y133350D01*
X1017206Y139446D01*
X1019746D01*
Y127254D01*
D02*
G37*
G36*
X1010602Y133350D02*
X1016699Y127254D01*
X1007047D01*
Y133350D01*
Y139446D01*
X1016699D01*
X1010602Y133350D01*
D02*
G37*
G36*
X1076516Y65245D02*
Y59149D01*
X1066863D01*
X1072960Y65245D01*
X1066863Y71341D01*
X1076516D01*
Y65245D01*
D02*
G37*
G36*
X1072451D02*
X1066356Y59149D01*
X1063816D01*
Y71341D01*
X1066356D01*
X1072451Y65245D01*
D02*
G37*
D84*
X375412Y524390D02*
D03*
Y509390D02*
D03*
X438658Y513200D02*
D03*
Y528200D02*
D03*
X486918Y524390D02*
D03*
Y509390D02*
D03*
X550164Y513200D02*
D03*
Y528200D02*
D03*
D88*
X350012Y488786D02*
D03*
X400812D02*
D03*
X426212D02*
D03*
X350012Y404786D02*
D03*
X375412D02*
D03*
X400812D02*
D03*
X426212D02*
D03*
X375412Y488786D02*
D03*
X461772Y490056D02*
D03*
X512572D02*
D03*
X537972D02*
D03*
X461772Y406056D02*
D03*
X487172D02*
D03*
X512572D02*
D03*
X537972D02*
D03*
X487172Y490056D02*
D03*
D92*
X426212Y513700D02*
D03*
Y527700D02*
D03*
X537972D02*
D03*
Y513700D02*
D03*
D101*
X36750Y367700D02*
D03*
D102*
Y342700D02*
D03*
Y292700D02*
D03*
Y317700D02*
D03*
D103*
X352298Y19304D02*
D03*
X943864Y27432D02*
D03*
D104*
X377698Y19304D02*
D03*
X918464Y27432D02*
D03*
D105*
X1058352Y88900D02*
D03*
X1038352D02*
D03*
X1018352D02*
D03*
D106*
X998352D02*
D03*
D107*
X1289812Y284988D02*
D03*
Y259588D02*
D03*
Y234188D02*
D03*
Y208788D02*
D03*
X1366012D02*
D03*
Y234188D02*
D03*
Y259588D02*
D03*
Y284988D02*
D03*
D108*
X1218946Y343686D02*
D03*
D109*
Y383286D02*
D03*
X1057148Y512318D02*
D03*
D110*
X1294038Y448216D02*
D03*
X1219038Y468216D02*
D03*
D111*
X1169054Y32512D02*
D03*
D112*
X1194054D02*
D03*
X195834Y19304D02*
D03*
X221234D02*
D03*
X246634D02*
D03*
X272034D02*
D03*
X297434D02*
D03*
D113*
X322834D02*
D03*
D114*
X489775Y171000D02*
D03*
X508125D02*
D03*
X480600Y161825D02*
D03*
X498950D02*
D03*
X517300D02*
D03*
X489775Y152650D02*
D03*
X508125D02*
D03*
X480600Y143475D02*
D03*
X498950D02*
D03*
X517300D02*
D03*
X489775Y134300D02*
D03*
X508125D02*
D03*
D115*
X1017548Y512318D02*
D03*
D116*
X1250600Y715120D02*
D03*
X1371600D02*
D03*
D117*
X1293600Y706120D02*
D03*
X1127050D02*
D03*
X1092050D02*
D03*
X1057050D02*
D03*
X1022050D02*
D03*
X987050D02*
D03*
X952050D02*
D03*
X917050D02*
D03*
X882050D02*
D03*
X847050D02*
D03*
X812050D02*
D03*
X777050D02*
D03*
X742050D02*
D03*
X707050D02*
D03*
X672050D02*
D03*
X637050D02*
D03*
D118*
X1328600D02*
D03*
X1162050D02*
D03*
D119*
X332258Y704972D02*
D03*
X367258D02*
D03*
X402258D02*
D03*
X437258D02*
D03*
X472258D02*
D03*
X507258D02*
D03*
X542258D02*
D03*
X577258D02*
D03*
X26572D02*
D03*
X61572D02*
D03*
X96572D02*
D03*
X131572D02*
D03*
X166572D02*
D03*
X201572D02*
D03*
X236572D02*
D03*
X271572D02*
D03*
D153*
X1078420Y65245D02*
D03*
X1061275D02*
D03*
X1005142Y133350D02*
D03*
X1022287D02*
D03*
D154*
X321510Y271971D02*
D03*
Y254825D02*
D03*
D155*
X847344Y601770D02*
D03*
Y670770D02*
D03*
X1126998D02*
D03*
Y601770D02*
D03*
X1057148Y670770D02*
D03*
Y601770D02*
D03*
X987298Y670770D02*
D03*
Y601770D02*
D03*
X917194Y670770D02*
D03*
Y601770D02*
D03*
X777240D02*
D03*
Y670770D02*
D03*
X707136Y601770D02*
D03*
Y670770D02*
D03*
X637286Y601770D02*
D03*
Y670770D02*
D03*
D156*
X332232Y671494D02*
D03*
Y629494D02*
D03*
X402082Y671494D02*
D03*
Y629494D02*
D03*
X472186Y671494D02*
D03*
Y629494D02*
D03*
X542290D02*
D03*
Y671494D02*
D03*
M02*
