%TF.GenerationSoftware,Altium Limited,Altium Designer,22.11.1 (43)*%
G04 Layer_Physical_Order=1*
G04 Layer_Color=255*
%FSLAX45Y45*%
%MOMM*%
%TF.SameCoordinates,E77C6ACE-BB65-432D-A69C-5FF0F2C89B45*%
%TF.FilePolarity,Positive*%
%TF.FileFunction,Copper,L1,Top,Signal*%
%TF.Part,Single*%
G01*
G75*
%TA.AperFunction,SMDPad,CuDef*%
%ADD10C,2.00000*%
%ADD11R,0.80000X2.70000*%
%ADD12R,0.95250X0.45720*%
%TA.AperFunction,ConnectorPad*%
%ADD13R,1.00000X2.55000*%
%ADD14R,2.60000X2.55000*%
%TA.AperFunction,Conductor*%
%ADD15C,0.40000*%
%ADD16C,0.25400*%
%TA.AperFunction,NonConductor*%
%ADD17C,0.25400*%
%TA.AperFunction,ViaPad*%
%ADD18C,1.27000*%
G36*
X1242718Y1797062D02*
X1315524Y1777553D01*
X1385162Y1748708D01*
X1450438Y1711021D01*
X1510237Y1665135D01*
X1563535Y1611837D01*
X1609421Y1552038D01*
X1647108Y1486762D01*
X1675953Y1417124D01*
X1695462Y1344318D01*
X1705300Y1269587D01*
Y1194212D01*
X1695462Y1119482D01*
X1675953Y1046676D01*
X1647108Y977038D01*
X1609421Y911761D01*
X1563535Y851962D01*
X1510237Y798664D01*
X1450438Y752779D01*
X1385162Y715092D01*
X1315524Y686247D01*
X1242718Y666738D01*
X1167987Y656900D01*
X1092612D01*
X1017882Y666738D01*
X945076Y686247D01*
X875438Y715092D01*
X810161Y752779D01*
X750362Y798664D01*
X697064Y851962D01*
X651179Y911761D01*
X613492Y977038D01*
X584647Y1046676D01*
X565138Y1119482D01*
X555300Y1194212D01*
Y1269587D01*
X565138Y1344318D01*
X584647Y1417124D01*
X613492Y1486762D01*
X651179Y1552038D01*
X697064Y1611837D01*
X750362Y1665135D01*
X810161Y1711021D01*
X875438Y1748708D01*
X945076Y1777553D01*
X1017882Y1797062D01*
X1092612Y1806900D01*
X1167987D01*
X1242718Y1797062D01*
D02*
G37*
%LPC*%
G36*
X1315560Y1755885D02*
X1200310D01*
Y1753613D01*
X1060290D01*
Y1755885D01*
X945040D01*
Y1737597D01*
X939830Y1732388D01*
X901701D01*
X901700Y1732388D01*
X889995Y1730059D01*
X880071Y1723429D01*
X676871Y1520229D01*
X670241Y1510305D01*
X667912Y1498600D01*
X667912Y1498599D01*
Y1171893D01*
X662327Y1170021D01*
X655212Y1169781D01*
X651366Y1175537D01*
X643857Y1180555D01*
X635000Y1182316D01*
X626143Y1180555D01*
X618634Y1175537D01*
X613617Y1168029D01*
X611855Y1159172D01*
Y1155700D01*
X613617Y1146843D01*
X618634Y1139334D01*
X626143Y1134317D01*
X635000Y1132555D01*
X643857Y1134317D01*
X651366Y1139334D01*
X655212Y1145091D01*
X662327Y1144851D01*
X667912Y1142978D01*
Y990601D01*
X667912Y990600D01*
X670241Y978895D01*
X676871Y968971D01*
X805796Y840046D01*
X815720Y833416D01*
X827425Y831087D01*
X965300D01*
Y716675D01*
X1065300D01*
Y1006675D01*
X965300D01*
Y892263D01*
X840095D01*
X729088Y1003270D01*
Y1485930D01*
X914370Y1671212D01*
X952499D01*
X952500Y1671212D01*
X964205Y1673541D01*
X974129Y1680171D01*
X984123Y1690166D01*
X1060290D01*
Y1692438D01*
X1200310D01*
Y1690166D01*
X1276477D01*
X1384186Y1582456D01*
X1382528Y1569865D01*
X1367558Y1561222D01*
X1347078Y1540742D01*
X1332596Y1515658D01*
X1325100Y1487682D01*
Y1458718D01*
X1332596Y1430742D01*
X1347078Y1405658D01*
X1367558Y1385178D01*
X1392642Y1370696D01*
X1420618Y1363200D01*
X1449582D01*
X1477558Y1370696D01*
X1502642Y1385178D01*
X1523122Y1405658D01*
X1537604Y1430742D01*
X1545100Y1458718D01*
Y1487682D01*
X1537604Y1515658D01*
X1523122Y1540742D01*
X1502642Y1561222D01*
X1477558Y1575704D01*
X1464830Y1579114D01*
X1463359Y1586505D01*
X1456729Y1596429D01*
X1315560Y1737598D01*
Y1755885D01*
D02*
G37*
G36*
X1060290Y1565885D02*
X945040D01*
Y1500165D01*
X1060290D01*
Y1565885D01*
D02*
G37*
G36*
X1315560D02*
X1200310D01*
Y1500165D01*
X1227347D01*
Y1382100D01*
X1070300D01*
Y1107100D01*
X1214712D01*
Y1006675D01*
X1195300D01*
Y716675D01*
X1295300D01*
Y1006675D01*
X1275888D01*
Y1107100D01*
X1350300D01*
Y1382100D01*
X1288523D01*
Y1500165D01*
X1315560D01*
Y1565885D01*
D02*
G37*
%LPD*%
D10*
X1435100Y1473200D02*
D03*
D11*
X1245300Y861675D02*
D03*
X1015300D02*
D03*
D12*
X1257935Y1723026D02*
D03*
Y1533025D02*
D03*
X1002665D02*
D03*
Y1628025D02*
D03*
Y1723026D02*
D03*
D13*
X970300Y1244600D02*
D03*
D14*
X1210300D02*
D03*
D15*
X973726Y1723026D02*
X1002665D01*
X952500Y1701800D02*
X973726Y1723026D01*
X901700Y1701800D02*
X952500D01*
X698500Y1498600D02*
X901700Y1701800D01*
X698500Y990600D02*
Y1498600D01*
X1286874Y1723026D02*
X1435100Y1574800D01*
X827425Y861675D02*
X1015300D01*
X698500Y990600D02*
X827425Y861675D01*
X1210300Y1244600D02*
X1245300Y1209600D01*
Y861675D02*
Y1209600D01*
X1002665Y1723026D02*
X1257935D01*
X1210300Y1244600D02*
X1257935Y1292235D01*
Y1533025D01*
D16*
Y1723026D02*
X1286874D01*
X1435100Y1473200D02*
Y1574800D01*
X904125Y1628025D02*
X1002665D01*
X863600Y1587500D02*
X904125Y1628025D01*
X863600Y1270000D02*
Y1587500D01*
X889000Y1244600D02*
X927100D01*
X863600Y1270000D02*
X889000Y1244600D01*
X927100D02*
X970300D01*
X825500Y1143000D02*
X927100Y1244600D01*
D17*
X635000Y1155700D02*
Y1159172D01*
D18*
X1511300Y1028700D02*
D03*
X1498600Y1270000D02*
D03*
X825500Y1143000D02*
D03*
%TF.MD5,3a2061cc1c633dd756a55abf5865abb3*%
M02*
