%TF.GenerationSoftware,Altium Limited,Altium Designer,22.11.1 (43)*%
G04 Layer_Color=65535*
%FSLAX45Y45*%
%MOMM*%
%TF.SameCoordinates,E77C6ACE-BB65-432D-A69C-5FF0F2C89B45*%
%TF.FilePolarity,Positive*%
%TF.FileFunction,Legend,Top*%
%TF.Part,Single*%
G01*
G75*
%TA.AperFunction,NonConductor*%
%ADD17C,0.25400*%
%ADD20C,0.20000*%
%ADD21C,0.12700*%
%ADD22C,0.15240*%
%ADD23C,0.07620*%
D17*
X1524000Y1371583D02*
X1625567D01*
X1574783Y1422367D02*
Y1320800D01*
X736633Y1066775D02*
Y914425D01*
X838200D01*
X888984D02*
X939767D01*
X914376D01*
Y1066775D01*
X888984Y1041383D01*
X736633Y1574775D02*
Y1447817D01*
X762025Y1422425D01*
X812808D01*
X838200Y1447817D01*
Y1574775D01*
X888984Y1422425D02*
X939767D01*
X914376D01*
Y1574775D01*
X888984Y1549383D01*
X635033Y1384275D02*
Y1231925D01*
X711208D01*
X736600Y1257317D01*
Y1358883D01*
X711208Y1384275D01*
X635033D01*
X787384Y1231925D02*
X838167D01*
X812776D01*
Y1384275D01*
X787384Y1358883D01*
D20*
X870300Y1244600D02*
G03*
X870300Y1244600I-10000J0D01*
G01*
D21*
X1087300Y711675D02*
X1173300D01*
X1087300Y1011675D02*
X1173300D01*
X965300Y1085100D02*
X1295300D01*
X965300Y1404100D02*
X1295300D01*
D22*
X1037590Y1785505D02*
X1223010D01*
Y1589159D02*
Y1666892D01*
X1037590Y1470545D02*
X1223010D01*
D23*
X1333500Y1680599D02*
X1418139Y1595960D01*
X1333500D02*
X1418139Y1680599D01*
X1333500Y1638279D02*
X1418139D01*
X1375820Y1595960D02*
Y1680599D01*
%TF.MD5,5aefcb2a825bf059e851b357a5999e47*%
M02*
