G04 ================== begin FILE IDENTIFICATION RECORD ==================*
G04 Layout Name:  FWCW_V3_1_25Jun24.brd*
G04 Film Name:    FWCW_V3_1_SMB.gbr*
G04 File Format:  Gerber RS274X*
G04 File Origin:  Cadence Allegro 17.4-S033*
G04 Origin Date:  Tue Jun 25 23:43:00 2024*
G04 *
G04 Layer:  BOARD GEOMETRY/CUTOUT*
G04 Layer:  BOARD GEOMETRY/DESIGN_OUTLINE*
G04 Layer:  DRAWING FORMAT/SMB*
G04 Layer:  PIN/SOLDERMASK_BOTTOM*
G04 Layer:  PACKAGE GEOMETRY/SOLDERMASK_BOTTOM*
G04 Layer:  DRAWING FORMAT/TITLE_BLOCK*
G04 Layer:  DRAWING FORMAT/TITLE_DATA*
G04 Layer:  DRAWING FORMAT/REVISION_BLOCK*
G04 Layer:  DRAWING FORMAT/REVISION_DATA*
G04 Layer:  BOARD GEOMETRY/SOLDERMASK_BOTTOM*
G04 *
G04 Offset:    (0.0000 0.0000)*
G04 Mirror:    No*
G04 Mode:      Positive*
G04 Rotation:  0*
G04 FullContactRelief:  No*
G04 UndefLineWidth:     0.1524*
G04 ================== end FILE IDENTIFICATION RECORD ====================*
%FSLAX35Y35*MOMM*%
%IR0*IPPOS*OFA0.00000B0.00000*MIA0B0*SFA1.00000B1.00000*%
%AMMACRO14*
4,1,40,.8,-.75,
.8,.75,
.79924,.758682,
.796985,.767101,
.793301,.775,
.788302,.782139,
.782139,.788302,
.775,.793301,
.767101,.796985,
.758682,.79924,
.75,.8,
-.75,.8,
-.758682,.79924,
-.767101,.796985,
-.775,.793301,
-.782139,.788302,
-.788302,.782139,
-.793301,.775,
-.796985,.767101,
-.79924,.758682,
-.8,.75,
-.8,-.75,
-.79924,-.758682,
-.796985,-.767101,
-.793301,-.775,
-.788302,-.782139,
-.782139,-.788302,
-.775,-.793301,
-.767101,-.796985,
-.758682,-.79924,
-.75,-.8,
.75,-.8,
.758682,-.79924,
.767101,-.796985,
.775,-.793301,
.782139,-.788302,
.788302,-.782139,
.793301,-.775,
.796985,-.767101,
.79924,-.758682,
.8,-.75,
0.0*
%
%ADD14MACRO14*%
%ADD23C,.6501*%
%ADD21O,1.2X2.2*%
%ADD22O,1.05X2.1*%
%ADD10O,1.5X3.*%
%AMMACRO17*
4,1,40,-.8,.75,
-.8,-.75,
-.79924,-.758682,
-.796985,-.767101,
-.793301,-.775,
-.788302,-.782139,
-.782139,-.788302,
-.775,-.793301,
-.767101,-.796985,
-.758682,-.79924,
-.75,-.8,
.75,-.8,
.758682,-.79924,
.767101,-.796985,
.775,-.793301,
.782139,-.788302,
.788302,-.782139,
.793301,-.775,
.796985,-.767101,
.79924,-.758682,
.8,-.75,
.8,.75,
.79924,.758682,
.796985,.767101,
.793301,.775,
.788302,.782139,
.782139,.788302,
.775,.793301,
.767101,.796985,
.758682,.79924,
.75,.8,
-.75,.8,
-.758682,.79924,
-.767101,.796985,
-.775,.793301,
-.782139,.788302,
-.788302,.782139,
-.793301,.775,
-.796985,.767101,
-.79924,.758682,
-.8,.75,
0.0*
%
%ADD17MACRO17*%
%AMMACRO20*
4,1,40,.75,.8,
-.75,.8,
-.758682,.79924,
-.767101,.796985,
-.775,.793301,
-.782139,.788302,
-.788302,.782139,
-.793301,.775,
-.796985,.767101,
-.79924,.758682,
-.8,.75,
-.8,-.75,
-.79924,-.758682,
-.796985,-.767101,
-.793301,-.775,
-.788302,-.782139,
-.782139,-.788302,
-.775,-.793301,
-.767101,-.796985,
-.758682,-.79924,
-.75,-.8,
.75,-.8,
.758682,-.79924,
.767101,-.796985,
.775,-.793301,
.782139,-.788302,
.788302,-.782139,
.793301,-.775,
.796985,-.767101,
.79924,-.758682,
.8,-.75,
.8,.75,
.79924,.758682,
.796985,.767101,
.793301,.775,
.788302,.782139,
.782139,.788302,
.775,.793301,
.767101,.796985,
.758682,.79924,
.75,.8,
0.0*
%
%ADD20MACRO20*%
%ADD12C,1.3001*%
%ADD16C,1.5*%
%ADD11C,6.*%
%ADD13C,1.6*%
%ADD19C,1.651*%
%ADD15R,2.613X5.28*%
%ADD24C,1.185*%
%ADD18R,1.651X1.651*%
%ADD25R,1.185X1.185*%
%ADD26C,.1524*%
G75*
%LPD*%
G75*
G36*
G01X-1960000Y6790000D02*
X320000D01*
G02X350000Y6760000I0J-30000D01*
G01Y5390000D01*
G03X420000Y5320000I70000J0D01*
G01X455000D01*
Y5270000D01*
X420000D01*
G02X300000Y5390000I0J120000D01*
G01Y6740000D01*
X-1349500D01*
G03X-1390000Y6695000I4750J-45000D01*
G01Y6490000D01*
G02X-1690000Y6190000I-300000J0D01*
G01X-1880000D01*
G03X-1940000Y6140000I-9167J-50000D01*
G01Y-240000D01*
X-955500D01*
G03X-915000Y-195000I-4750J45000D01*
G01Y10000D01*
G02X-315000I300000J0D01*
G01Y-195000D01*
G03X-274500Y-240000I45250J0D01*
G01X10069500D01*
G03X10110000Y-195000I-4750J45000D01*
G01Y10000D01*
G02X10410000Y310000I300000J0D01*
G01X10600000D01*
G03X10660000Y360000I9167J50000D01*
G01Y4679500D01*
G03X10615000Y4720000I-45000J-4750D01*
G01X10410000D01*
G02X10110000Y5020000I0J300000D01*
G01Y5320000D01*
X10680000D01*
G02X10710000Y5290000I0J-30000D01*
G01Y-260000D01*
G02X10680000Y-290000I-30000J0D01*
G01X-1960000D01*
G02X-1990000Y-260000I0J30000D01*
G01Y6760000D01*
G02X-1960000Y6790000I30000J0D01*
G37*
G36*
G01X1875000D02*
X2840000D01*
Y6740000D01*
X2485500D01*
G03X2445000Y6695000I4750J-45000D01*
G01Y6490000D01*
G02X2145000Y6190000I-300000J0D01*
G01X1955000D01*
G03X1939940Y6190490I-9165J-50000D01*
G01X1854510D01*
X1845000Y6200000D01*
Y6760000D01*
G02X1875000Y6790000I30000J0D01*
G37*
G36*
G01X4095000D02*
X8329620D01*
G02X8385000Y6730000I-4813J-60000D01*
G01Y5560320D01*
X8385320D01*
Y5390320D01*
G03X8455320Y5320320I70000J0D01*
G01X8815000D01*
Y5270320D01*
X8455320D01*
G02X8335320Y5390320I0J120000D01*
G01Y5540000D01*
X8335000D01*
Y6149500D01*
G03X8290000Y6190000I-45000J-4750D01*
G01X8085000D01*
G02X7785000Y6490000I0J300000D01*
G01Y6680000D01*
G03X7735000Y6740000I-50000J9167D01*
G01X4095000D01*
Y6790000D01*
G37*
G54D10*
X-1815000Y450000D03*
X-1465000D03*
X-1065000D03*
G54D11*
X-1690000Y6490000D03*
X-615000Y10000D03*
X2145000Y6490000D03*
X8085000D03*
X10410000Y10000D03*
Y5020000D03*
G54D20*
X7110000Y5120000D03*
G54D12*
X-1465000Y-50000D03*
G54D21*
X9108000Y-60000D03*
X9972000D03*
G54D13*
X-1165000Y6356000D03*
X6530000Y154000D03*
X6930000D03*
X7240000D03*
X7364000Y5120000D03*
X8480000Y4394000D03*
G54D22*
X9108000Y358000D03*
X9972000D03*
G54D23*
X9251000Y308000D03*
X9829000D03*
G54D14*
X-1165000Y6610000D03*
G54D24*
X9514000Y910000D03*
X9768000D03*
X10022000D03*
X10276000D03*
G54D15*
X666850Y5085000D03*
X1543150D03*
X3046850Y6550000D03*
X3923150D03*
X9036850Y5085000D03*
X9913150D03*
G54D25*
X10530000Y910000D03*
G54D16*
X1975000Y4590000D03*
Y5570000D03*
X3795000D03*
G54D26*
G01X-1960000Y-310000D02*
G02X-2010000Y-260000I0J50000D01*
G01Y6760000D01*
G02X-1960000Y6810000I50000J0D01*
G01X320000D01*
G02X370000Y6760000I0J-50000D01*
G01Y5390000D01*
G03X420000Y5340000I50000J0D01*
G01X1775000D01*
G03X1825000Y5390000I0J50000D01*
G01Y6755000D01*
G02X1880000Y6810000I55000J0D01*
G01X8320000D01*
G02X8405000Y6725000I0J-85000D01*
G01Y5390000D01*
G03X8455000Y5340000I50000J0D01*
G01X10680000D01*
G02X10730000Y5290000I0J-50000D01*
G01Y-260000D01*
G02X10680000Y-310000I-50000J0D01*
G01X-1960000D01*
G01X3445000Y4440000D02*
X2375000D01*
G02X2270000Y4545000I0J105000D01*
G01Y5615000D01*
G02X2375000Y5720000I105000J0D01*
G01X3445000D01*
G02X3550000Y5615000I0J-105000D01*
G01Y4545000D01*
G02X3445000Y4440000I-105000J0D01*
G54D17*
X6530000Y-100000D03*
X6930000D03*
X7240000D03*
X8480000Y4140000D03*
G54D18*
X6470000Y6500000D03*
G54D19*
X6724000D03*
X6978000D03*
M02*
