G04 ================== begin FILE IDENTIFICATION RECORD ==================*
G04 Layout Name:  FWCW_V3_1_25Jun24.brd*
G04 Film Name:    FWCW_V3_1_BOT.gbr*
G04 File Format:  Gerber RS274X*
G04 File Origin:  Cadence Allegro 17.4-S033*
G04 Origin Date:  Tue Jun 25 23:43:00 2024*
G04 *
G04 Layer:  BOARD GEOMETRY/DESIGN_OUTLINE*
G04 Layer:  VIA CLASS/BOTTOM*
G04 Layer:  PIN/BOTTOM*
G04 Layer:  ETCH/BOTTOM*
G04 *
G04 Offset:    (0.0000 0.0000)*
G04 Mirror:    No*
G04 Mode:      Positive*
G04 Rotation:  0*
G04 FullContactRelief:  No*
G04 UndefLineWidth:     0.1524*
G04 ================== end FILE IDENTIFICATION RECORD ====================*
%FSLAX35Y35*MOMM*%
%IR0*IPPOS*OFA0.00000B0.00000*MIA0B0*SFA1.00000B1.00000*%
%ADD20C,.32*%
%ADD29C,.6501*%
%ADD16C,.508*%
%ADD10C,.4064*%
%ADD30C,.985*%
%ADD31R,.985X.985*%
%ADD27O,1.X2.*%
%ADD28O,1.05X2.1*%
%ADD11O,1.5X3.*%
%AMMACRO23*
4,1,40,-.75,.7,
-.75,-.7,
-.74924,-.708682,
-.746985,-.717101,
-.743301,-.725,
-.738302,-.732139,
-.732139,-.738302,
-.725,-.743301,
-.717101,-.746985,
-.708682,-.74924,
-.7,-.75,
.7,-.75,
.708682,-.74924,
.717101,-.746985,
.725,-.743301,
.732139,-.738302,
.738302,-.732139,
.743301,-.725,
.746985,-.717101,
.74924,-.708682,
.75,-.7,
.75,.7,
.74924,.708682,
.746985,.717101,
.743301,.725,
.738302,.732139,
.732139,.738302,
.725,.743301,
.717101,.746985,
.708682,.74924,
.7,.75,
-.7,.75,
-.708682,.74924,
-.717101,.746985,
-.725,.743301,
-.732139,.738302,
-.738302,.732139,
-.743301,.725,
-.746985,.717101,
-.74924,.708682,
-.75,.7,
0.0*
%
%ADD23MACRO23*%
%AMMACRO26*
4,1,40,.7,.75,
-.7,.75,
-.708682,.74924,
-.717101,.746985,
-.725,.743301,
-.732139,.738302,
-.738302,.732139,
-.743301,.725,
-.746985,.717101,
-.74924,.708682,
-.75,.7,
-.75,-.7,
-.74924,-.708682,
-.746985,-.717101,
-.743301,-.725,
-.738302,-.732139,
-.732139,-.738302,
-.725,-.743301,
-.717101,-.746985,
-.708682,-.74924,
-.7,-.75,
.7,-.75,
.708682,-.74924,
.717101,-.746985,
.725,-.743301,
.732139,-.738302,
.738302,-.732139,
.743301,-.725,
.746985,-.717101,
.74924,-.708682,
.75,-.7,
.75,.7,
.74924,.708682,
.746985,.717101,
.743301,.725,
.738302,.732139,
.732139,.738302,
.725,.743301,
.717101,.746985,
.708682,.74924,
.7,.75,
0.0*
%
%ADD26MACRO26*%
%ADD21C,1.4*%
%ADD13C,1.3001*%
%ADD14C,1.5*%
%ADD12C,6.*%
%ADD19C,1.5001*%
%ADD17R,2.413X5.08*%
%ADD25C,1.524*%
%ADD22R,1.4X1.4*%
%ADD24R,1.524X1.524*%
%ADD18C,2.1999*%
%AMMACRO15*
4,1,40,.75,-.7,
.75,.7,
.74924,.708682,
.746985,.717101,
.743301,.725,
.738302,.732139,
.732139,.738302,
.725,.743301,
.717101,.746985,
.708682,.74924,
.7,.75,
-.7,.75,
-.708682,.74924,
-.717101,.746985,
-.725,.743301,
-.732139,.738302,
-.738302,.732139,
-.743301,.725,
-.746985,.717101,
-.74924,.708682,
-.75,.7,
-.75,-.7,
-.74924,-.708682,
-.746985,-.717101,
-.743301,-.725,
-.738302,-.732139,
-.732139,-.738302,
-.725,-.743301,
-.717101,-.746985,
-.708682,-.74924,
-.7,-.75,
.7,-.75,
.708682,-.74924,
.717101,-.746985,
.725,-.743301,
.732139,-.738302,
.738302,-.732139,
.743301,-.725,
.746985,-.717101,
.74924,-.708682,
.75,-.7,
0.0*
%
%ADD15MACRO15*%
%ADD32C,.3*%
%ADD33C,.23*%
%ADD34C,.5*%
%ADD35C,.15*%
%ADD36C,.7*%
%ADD37C,.127*%
%ADD38C,.1704*%
%ADD39C,.3048*%
%ADD40C,.3493*%
%ADD41C,1.*%
%ADD42C,.1524*%
%ADD53C,.9106*%
%ADD43C,.6668*%
%ADD51O,1.3104X2.3604*%
%ADD45C,2.2004*%
%ADD47C,4.2004*%
%ADD52O,1.2604X2.2604*%
%ADD50O,1.7604X3.2604*%
%ADD46C,1.6604*%
%ADD49C,1.5606*%
%ADD44C,1.7604*%
%ADD48C,1.7606*%
G75*
%LPD*%
G75*
G36*
G01X286980Y5505530D02*
G02X266200Y5495730I-12700J-2D01*
G03X245000Y5503340I-21200J-25725D01*
G03Y5436660I0J-33340D01*
G03X266200Y5444270I0J33335D01*
G02X286980Y5434470I8080J-9798D01*
G01Y5390000D01*
G03X420000Y5256980I133020J0D01*
G01X468020D01*
Y5319990D01*
X1775000D01*
G03X1845010Y5390000I0J70010D01*
G01Y6177470D01*
X1940700D01*
X1941450Y6177560D01*
G02X1952650Y6177190I4365J-37559D01*
G01X1953820Y6176980D01*
X2145000D01*
G03X2458020Y6490000I0J313020D01*
G01Y6695000D01*
G02X2486240Y6726980I32230J0D01*
G01X2908020D01*
Y6789990D01*
X4051980D01*
Y6726980D01*
X7735000D01*
G02X7772190Y6682350I0J-37810D01*
G01X7771980Y6681180D01*
Y6490000D01*
G03X8085000Y6176980I313020J0D01*
G01X8290000D01*
G02X8321980Y6148760I0J-32230D01*
G01Y5526980D01*
X8322300D01*
Y5390320D01*
G03X8455320Y5257300I133020J0D01*
G01X8828020D01*
Y5319990D01*
X10096980D01*
Y5020000D01*
G03X10410000Y4706980I313020J0D01*
G01X10615000D01*
G02X10646980Y4678760I0J-32230D01*
G01Y3801070D01*
G02X10625300Y3792090I-12700J2D01*
G01X10613000Y3804400D01*
X10613230Y3807370D01*
X10613250Y3807600D01*
G03X10613340Y3810000I-33248J2448D01*
G03X10580000Y3776660I-33340J0D01*
G03X10582670Y3776770I-36J33339D01*
G01X10585600Y3777000D01*
X10605630Y3756980D01*
Y3744180D01*
G02X10589360Y3732000I-12699J7D01*
G03X10580010Y3733340I-9357J-32000D01*
G01X10580000D01*
G03X10546660Y3700000I0J-33340D01*
G03X10560630Y3672860I33348J0D01*
G01Y3167520D01*
X10496300Y3103200D01*
G03X10490630Y3089510I13702J-13694D01*
G01Y1860990D01*
G03X10496300Y1847300I19372J4D01*
G01X10528000Y1815600D01*
X10527770Y1812630D01*
X10527750Y1812400D01*
G03X10527660Y1810000I33248J-2448D01*
G03X10561000Y1843340I33340J0D01*
G03X10558330Y1843230I36J-33339D01*
G01X10555400Y1843000D01*
X10529370Y1869020D01*
Y2168040D01*
G02X10547290Y2179610I12700J-7D01*
G03X10561000Y2176660I13710J30383D01*
G03X10594340Y2210000I0J33340D01*
G03X10569170Y2242320I-33336J0D01*
G01X10564370Y2243530D01*
Y3066980D01*
X10625300Y3127910D01*
G02X10646980Y3118930I8980J-8982D01*
G01Y1233010D01*
G02X10625300Y1224030I-12701J2D01*
G01X10462170Y1387170D01*
G03X10435010Y1398420I-27165J-27172D01*
G01X10230000D01*
G03Y1321580I0J-38420D01*
G01X10419090D01*
X10581580Y1159090D01*
Y1072490D01*
G02X10559900Y1063510I-12700J1D01*
G01X10520390Y1103020D01*
X9420390D01*
X9225390Y1298020D01*
X9095390D01*
X9053020Y1340390D01*
Y1794610D01*
X9115390Y1856980D01*
X9450390D01*
X9493020Y1899610D01*
Y2075390D01*
X9465390Y2103020D01*
X9289610D01*
X9219610Y2033020D01*
X8920390D01*
X8777890Y2175520D01*
X8667110D01*
X8631980Y2140390D01*
Y2079610D01*
X8906980Y1804610D01*
Y1245390D01*
X8893670Y1232080D01*
X8886690Y1239060D01*
X8887480Y1242490D01*
G03X8888340Y1250000I-32478J7523D01*
G03X8855000Y1283340I-33340J0D01*
G03X8852330Y1283230I36J-33339D01*
G01X8849400Y1283000D01*
X8808700Y1323700D01*
G03X8795010Y1329370I-13694J-13702D01*
G01X8269990D01*
G03X8256300Y1323700I4J-19372D01*
G01X8171040Y1238430D01*
G02X8149360Y1247410I-8980J8982D01*
G01Y1436970D01*
X8269400Y1557000D01*
X8272330Y1556770D01*
G03X8275000Y1556660I2706J33229D01*
G03X8308340Y1590000I0J33340D01*
G03X8294370Y1617140I-33348J0D01*
G01Y1685010D01*
G03X8288700Y1698700I-19372J-4D01*
G01X8171200Y1816200D01*
G03X8157510Y1821870I-13694J-13702D01*
G01X7462490D01*
G03X7448800Y1816200I4J-19372D01*
G01X7380600Y1748000D01*
X7377670Y1748230D01*
G03X7375000Y1748340I-2706J-33229D01*
G03X7408340Y1715000I0J-33340D01*
G03X7408250Y1717430I-33339J-18D01*
G01X7407980Y1720580D01*
X7470520Y1783130D01*
X7601630D01*
G02X7613590Y1766170I-5J-12701D01*
G03X7611660Y1755000I31409J-11179D01*
G03X7678340I33340J0D01*
G03X7676410Y1766170I-33339J-9D01*
G02X7688370Y1783130I11965J4259D01*
G01X8149480D01*
X8255630Y1676980D01*
Y1617140D01*
G03X8241770Y1587340I19380J-27137D01*
G01Y1587330D01*
X8242000Y1584400D01*
X8116290Y1458690D01*
G03X8110620Y1445000I13702J-13694D01*
G01Y1078010D01*
X7838870Y806260D01*
G02X7817500Y812420I-8985J8978D01*
G03X7785000Y838340I-32500J-7415D01*
G03X7751660Y805000I0J-33340D01*
G03X7751750Y802570I33339J18D01*
G01X7752020Y799420D01*
X7564480Y611870D01*
X7407490D01*
G03X7393800Y606200I4J-19372D01*
G01X7373870Y586260D01*
G02X7352500Y592420I-8985J8978D01*
G03X7320000Y618340I-32500J-7415D01*
G03X7286660Y585000I0J-33340D01*
G03X7287160Y579260I33339J12D01*
G02X7274650Y564370I-12510J-2190D01*
G01X7016120D01*
Y571870D01*
X7016490Y573990D01*
X7016640Y574440D01*
G03X7017210Y576360I-31671J10447D01*
G01X7017650Y578020D01*
X7134810Y695190D01*
G03X7143020Y715000I-19808J19815D01*
G01Y833390D01*
X7274810Y965190D01*
G03X7283020Y985000I-19808J19815D01*
G01Y1788390D01*
X7391980Y1897350D01*
X7393620Y1897790D01*
G03X7418340Y1930000I-8625J32210D01*
G01Y1930040D01*
G03X7417660Y1936720I-33342J-19D01*
G02X7430090Y1951980I12437J2562D01*
G01X7469250D01*
X7563120Y1858120D01*
G03X7590000Y1846980I26887J26877D01*
G01X8000000D01*
G03Y1923020I0J38020D01*
G01X7605750D01*
X7511880Y2016880D01*
G03X7485000Y2028020I-26887J-26877D01*
G01X7423770D01*
G02X7411700Y2044660I1J12698D01*
G03X7413340Y2054980I-31702J10328D01*
G01Y2055000D01*
G03X7346660I-33340J0D01*
G01Y2054980D01*
G03X7348300Y2044660I33342J8D01*
G02X7336230Y2028020I-12071J-3942D01*
G01X6290000D01*
G03X6263120Y2016880I7J-38017D01*
G01X5864250Y1618020D01*
X5170000D01*
G03X5143120Y1606880I7J-38017D01*
G01X4863120Y1326880D01*
G03X4851980Y1300000I26877J-26887D01*
G03X4890000Y1261980I38020J0D01*
G03X4916880Y1273120I-7J38017D01*
G01X5185750Y1541980D01*
X5880000D01*
G03X5906880Y1553120I-7J38017D01*
G01X6305750Y1951980D01*
X7351400D01*
X7355210Y1947310D01*
X7354600Y1944350D01*
X7354360Y1943180D01*
X7354140Y1942630D01*
G03X7352790Y1938630I30854J-12641D01*
G01X7352350Y1936980D01*
X7235190Y1819810D01*
G03X7226980Y1800000I19808J-19815D01*
G01Y996610D01*
X7095190Y864810D01*
G03X7086980Y845000I19808J-19815D01*
G01Y726610D01*
X6978020Y617650D01*
X6976380Y617210D01*
G03X6951660Y585000I8625J-32210D01*
G03X6952160Y579260I33339J12D01*
G02X6939650Y564370I-12510J-2190D01*
G01X6848020D01*
X6799370Y613020D01*
Y835010D01*
G03X6793700Y848700I-19372J-4D01*
G01X6673700Y968700D01*
G03X6660010Y974370I-13694J-13702D01*
G01X6478020D01*
X6348700Y1103700D01*
G03X6335010Y1109370I-13694J-13702D01*
G01X6223020D01*
X6198000Y1134400D01*
X6198230Y1137370D01*
X6198250Y1137600D01*
G03X6198340Y1140000I-33248J2448D01*
G03X6165000Y1106660I-33340J0D01*
G03X6167670Y1106770I-36J33339D01*
G01X6170600Y1107000D01*
X6201300Y1076300D01*
G03X6214990Y1070630I13694J13702D01*
G01X6326980D01*
X6456300Y941300D01*
G03X6469990Y935630I13694J13702D01*
G01X6651980D01*
X6760630Y826980D01*
Y604990D01*
G03X6766300Y591300I19372J4D01*
G01X6801560Y556050D01*
G02X6792580Y534370I-8982J-8980D01*
G01X6379990D01*
G03X6366300Y528700I4J-19372D01*
G01X6365490Y527880D01*
G03X6360000Y528340I-5519J-32878D01*
G03X6354260Y527840I12J-33339D01*
G02X6339370Y540350I-2190J12510D01*
G01Y770010D01*
G03X6333700Y783700I-19372J-4D01*
G01X6078700Y1038700D01*
G03X6065010Y1044370I-13694J-13702D01*
G01X6003020D01*
X5938440Y1108950D01*
G02X5947420Y1130630I8982J8980D01*
G01X6051980D01*
X6070630Y1111980D01*
Y1079990D01*
G03X6076300Y1066300I19372J4D01*
G01X6276300Y866300D01*
G03X6289990Y860630I13694J13702D01*
G01X6358190D01*
G02X6368060Y839950I-7J-12699D01*
G03X6360660Y819010I25942J-20945D01*
G01Y819000D01*
G03X6427340I33340J0D01*
G01Y819010D01*
G03X6419940Y839950I-33342J-5D01*
G02X6429810Y860630I9877J7981D01*
G01X6436980D01*
X6461300Y836300D01*
G03X6474990Y830630I13694J13702D01*
G01X6602860D01*
G03X6630000Y816660I27140J19378D01*
G03Y883340I0J33340D01*
G03X6602860Y869370I0J-33348D01*
G01X6483020D01*
X6458700Y893700D01*
G03X6445010Y899370I-13694J-13702D01*
G01X6298020D01*
X6109370Y1088020D01*
Y1120010D01*
G03X6103700Y1133700I-19372J-4D01*
G01X6073700Y1163700D01*
G03X6060010Y1169370I-13694J-13702D01*
G01X5583440D01*
X5583330Y1175610D01*
G03X5550000Y1208340I-33330J-605D01*
G03X5518280Y1185250I0J-33333D01*
G02X5497210Y1180180I-12086J3909D01*
G01X5483700Y1193700D01*
G03X5470010Y1199370I-13694J-13702D01*
G01X4893020D01*
X4834370Y1258020D01*
Y1480010D01*
G03X4828700Y1493700I-19372J-4D01*
G01X4820370Y1502020D01*
Y1547860D01*
G03X4834340Y1575000I-19378J27140D01*
G03X4767660I-33340J0D01*
G03X4781630Y1547860I33348J0D01*
G01Y1493990D01*
G03X4787300Y1480300I19372J4D01*
G01X4795630Y1471980D01*
Y1457090D01*
G02X4784790Y1452600I-6350J0D01*
G01X4721870Y1515520D01*
Y1864480D01*
X4803700Y1946300D01*
G03X4809370Y1959990I-13702J13694D01*
G01Y2125010D01*
G03X4803700Y2138700I-19372J-4D01*
G01X4738700Y2203700D01*
G03X4725010Y2209370I-13694J-13702D01*
G01X4508020D01*
X4473700Y2243700D01*
G03X4460010Y2249370I-13694J-13702D01*
G01X4407140D01*
G03X4380000Y2263340I-27140J-19378D01*
G03X4346660Y2230000I0J-33340D01*
G03X4354270Y2208800I33335J0D01*
G02X4344470Y2188020I-9798J-8080D01*
G01X3759610D01*
X3749610Y2178020D01*
X3444610D01*
X3416980Y2150390D01*
Y2029610D01*
X3524610Y1921980D01*
X4256580D01*
Y1289990D01*
G03X4267830Y1262830I38422J5D01*
G01X4371580Y1159090D01*
Y626990D01*
G02X4353670Y615410I-12699J1D01*
G03X4340000Y618340I-13670J-30424D01*
G03X4306660Y585000I0J-33340D01*
G03X4320630Y557860I33348J0D01*
G01Y119990D01*
G03X4326300Y106300I19372J4D01*
G01X4521300Y-88700D01*
G03X4534990Y-94370I13694J13702D01*
G01X4861980D01*
X4972910Y-205300D01*
G02X4963930Y-226980I-8982J-8980D01*
G01X-273760D01*
G02X-301980Y-195000I4010J31980D01*
G01Y10000D01*
G03X-928020I-313020J0D01*
G01Y-195000D01*
G02X-956240Y-226980I-32230J0D01*
G01X-1926980D01*
Y6140000D01*
G02X-1882350Y6177190I37810J0D01*
G01X-1881180Y6176980D01*
X-1690000D01*
G03X-1376980Y6490000I0J313020D01*
G01Y6695000D01*
G02X-1348760Y6726980I32230J0D01*
G01X286980D01*
Y5730530D01*
G02X266200Y5720730I-12700J-2D01*
G03X245000Y5728340I-21200J-25725D01*
G03Y5661660I0J-33340D01*
G03X266200Y5669270I0J33335D01*
G02X286980Y5659470I8080J-9798D01*
G01Y5505530D01*
G37*
G36*
G01X-1960000Y6790000D02*
X320000D01*
G02X350000Y6760000I0J-30000D01*
G01Y5390000D01*
G03X420000Y5320000I70000J0D01*
G01X455000D01*
Y5270000D01*
X420000D01*
G02X300000Y5390000I0J120000D01*
G01Y6740000D01*
X-1349500D01*
G03X-1390000Y6695000I4750J-45000D01*
G01Y6490000D01*
G02X-1690000Y6190000I-300000J0D01*
G01X-1880000D01*
G03X-1940000Y6140000I-9167J-50000D01*
G01Y-240000D01*
X-955500D01*
G03X-915000Y-195000I-4750J45000D01*
G01Y10000D01*
G02X-315000I300000J0D01*
G01Y-195000D01*
G03X-274500Y-240000I45250J0D01*
G01X3300000D01*
Y-290000D01*
X-1960000D01*
G02X-1990000Y-260000I0J30000D01*
G01Y6760000D01*
G02X-1960000Y6790000I30000J0D01*
G37*
G36*
G01X1875000D02*
X2895000D01*
Y6740000D01*
X2485500D01*
G03X2445000Y6695000I4750J-45000D01*
G01Y6490000D01*
G02X2145000Y6190000I-300000J0D01*
G01X1955000D01*
G03X1939940Y6190490I-9165J-50000D01*
G01X1859510D01*
X1845000Y6205000D01*
Y6760000D01*
G02X1875000Y6790000I30000J0D01*
G37*
G36*
G01X3215000Y-240000D02*
X4875000D01*
Y-290000D01*
X3215000D01*
Y-240000D01*
G37*
G36*
G01X3765000Y2175000D02*
X4487590D01*
X4489200Y2173920D01*
G03X4500000Y2170630I10800J16081D01*
G01X4716980D01*
X4770000Y2117610D01*
Y1967390D01*
X4737610Y1935000D01*
X3722810D01*
G02X3713760Y1956610I-2J12699D01*
G03X3723340Y1980000I-23764J23390D01*
G03X3656660I-33340J0D01*
G03X3666240Y1956610I33344J0D01*
G02X3657190Y1935000I-9048J-8911D01*
G01X3530000D01*
X3430000Y2035000D01*
Y2145000D01*
X3450000Y2165000D01*
X3755000D01*
X3765000Y2175000D01*
G37*
G36*
G01X4065000Y6790000D02*
X8329620D01*
G02X8385000Y6730000I-4813J-60000D01*
G01Y5560320D01*
X8385320D01*
Y5390320D01*
G03X8455320Y5320320I70000J0D01*
G01X8815000D01*
Y5270320D01*
X8455320D01*
G02X8335320Y5390320I0J120000D01*
G01Y5540000D01*
X8335000D01*
Y6149500D01*
G03X8290000Y6190000I-45000J-4750D01*
G01X8085000D01*
G02X7785000Y6490000I0J300000D01*
G01Y6680000D01*
G03X7735000Y6740000I-50000J9167D01*
G01X4065000D01*
Y6790000D01*
G37*
G36*
G01X4437170Y1202170D02*
X4333420Y1305910D01*
Y1921980D01*
X4693930D01*
G02X4702910Y1900300I-2J-12700D01*
G01X4688800Y1886200D01*
G03X4683130Y1872510I13702J-13694D01*
G01Y1507490D01*
G03X4688800Y1493800I19372J4D01*
G01X4760630Y1421980D01*
Y1239990D01*
G03X4766300Y1226300I19372J4D01*
G01X4856300Y1136300D01*
G03X4869990Y1130630I13694J13702D01*
G01X5084650D01*
G02X5097160Y1115740I0J-12700D01*
G03X5096660Y1110000I32839J-5752D01*
G03X5163340I33340J0D01*
G03X5162840Y1115740I-33339J-12D01*
G02X5175350Y1130630I12510J2190D01*
G01X5431980D01*
X5442980Y1119630D01*
G02X5435650Y1098060I-8980J-8979D01*
G03X5412860Y1084370I4351J-33058D01*
G01X5404990D01*
G03X5391300Y1078700I4J-19372D01*
G01X5386980Y1074370D01*
X5169990D01*
G03X5156300Y1068700I4J-19372D01*
G01X5146300Y1058700D01*
G03X5140630Y1045010I13702J-13694D01*
G01Y1024980D01*
G03X5142270Y1017190I19372J11D01*
G02X5130650Y999370I-11620J-5122D01*
G01X4738020D01*
X4624370Y1113020D01*
Y1702860D01*
G03X4638340Y1730000I-19378J27140D01*
G03X4605000Y1763340I-33340J0D01*
G03X4592020Y1760710I0J-33345D01*
G02X4574370Y1772400I-4950J11695D01*
G01Y1785010D01*
G03X4568700Y1798700I-19372J-4D01*
G01X4543000Y1824400D01*
X4543230Y1827320D01*
G03X4543340Y1830000I-33229J2706D01*
G03X4510000Y1796660I-33340J0D01*
G03X4512680Y1796770I-26J33339D01*
G01X4515600Y1797000D01*
X4535220Y1777390D01*
G02X4519360Y1762000I-12289J-3203D01*
G03X4510010Y1763340I-9357J-32000D01*
G01X4510000D01*
G03X4476660Y1730000I0J-33340D01*
G03X4490630Y1702860I33348J0D01*
G01Y1669990D01*
G03X4496300Y1656300I19372J4D01*
G01X4520630Y1631980D01*
Y1078060D01*
G03X4526300Y1064370I19372J4D01*
G01X4689370Y901300D01*
G03X4703060Y895630I13694J13702D01*
G01X5676980D01*
X5701300Y871300D01*
G03X5714990Y865630I13694J13702D01*
G01X6010050D01*
X6083120Y792560D01*
G02X6078240Y771560I-8979J-8980D01*
G03X6055660Y740000I10766J-31560D01*
G03X6089000Y706660I33340J0D01*
G03X6120560Y729240I0J33346D01*
G02X6141560Y734120I12020J-4099D01*
G01X6170630Y705050D01*
Y502870D01*
G02X6153480Y490980I-12699J3D01*
G03X6140010Y493420I-13474J-35981D01*
G01X6140000D01*
G03X6101580Y455000I0J-38420D01*
G01Y-41580D01*
X5625910D01*
X5443170Y141170D01*
G03X5416010Y152420I-27165J-27172D01*
G01X5416000D01*
G03X5377580Y114000I0J-38420D01*
G01Y113990D01*
G03X5388830Y86830I38422J5D01*
G01X5574570Y-98900D01*
G02X5565590Y-120580I-8982J-8979D01*
G01X5056910D01*
X4934170Y2170D01*
G03X4907010Y13420I-27165J-27172D01*
G01X4580910D01*
X4533710Y60630D01*
G02X4540570Y82130I8979J8979D01*
G03X4568340Y115000I-5568J32870D01*
G03X4544020Y147100I-33344J0D01*
G01X4542420Y147550D01*
X4514260Y175710D01*
Y572230D01*
X4515070Y573680D01*
G03X4519340Y590000I-29069J16324D01*
G03X4486000Y623340I-33340J0D01*
G03X4467980Y618050I0J-33337D01*
G02X4448420Y628740I-6860J10688D01*
G01Y1175010D01*
G03X4437170Y1202170I-38422J-5D01*
G37*
G36*
G01X10110000Y5320000D02*
X10680000D01*
G02X10710000Y5290000I0J-30000D01*
G01Y-260000D01*
G02X10680000Y-290000I-30000J0D01*
G01X4825000D01*
Y-240000D01*
X10069500D01*
G03X10110000Y-195000I-4750J45000D01*
G01Y10000D01*
G02X10410000Y310000I300000J0D01*
G01X10600000D01*
G03X10660000Y360000I9167J50000D01*
G01Y4679500D01*
G03X10615000Y4720000I-45000J-4750D01*
G01X10410000D01*
G02X10110000Y5020000I0J300000D01*
G01Y5320000D01*
G37*
G36*
G01X6344110Y-8420D02*
X6430590D01*
G02X6442750Y-24790I2J-12700D01*
G03X6441980Y-30000I17241J-5210D01*
G01Y-170000D01*
G03X6443650Y-177580I18021J-4D01*
G02X6432130Y-195630I-11517J-5351D01*
G01X6238360D01*
G02X6229380Y-173950I2J12701D01*
G01X6287170Y-116170D01*
G03X6298420Y-89000I-27172J27165D01*
G01Y-54110D01*
X6344110Y-8420D01*
G37*
G36*
G01X6209370Y362580D02*
G02X6231050Y371560I12700J-2D01*
G01X6332000Y270600D01*
X6331770Y267680D01*
G03X6331660Y265000I33229J-2706D01*
G03X6365000Y231660I33340J0D01*
G03X6398060Y260650I0J33346D01*
G02X6422130Y264430I12591J-1651D01*
G03X6455000Y236660I32870J5568D01*
G03Y303340I0J33340D01*
G03X6445270Y301890I-4J-33341D01*
G01X6441620Y300770D01*
X6418700Y323700D01*
G03X6405000Y329370I-13694J-13702D01*
G01X6378020D01*
X6365940Y341450D01*
G02X6374920Y363130I8982J8980D01*
G01X6774140D01*
G02X6783120Y341450I-2J-12701D01*
G01X6692830Y251170D01*
G03X6681580Y224000I27172J-27165D01*
G01Y120910D01*
X6629090Y68420D01*
X6599520D01*
G02X6590750Y90310I-3J12701D01*
G03X6618020Y154000I-60740J63690D01*
G03X6441980I-88020J0D01*
G03X6469250Y90310I88010J0D01*
G02X6460480Y68420I-8767J-9189D01*
G01X6413900D01*
G02X6401790Y84950I-2J12699D01*
G03X6403340Y95000I-31790J10048D01*
G03X6370000Y128340I-33340J0D01*
G03X6367320Y128230I26J-33339D01*
G01X6364400Y128000D01*
X6209370Y283020D01*
Y362580D01*
G37*
G36*
G01X6645010Y-8420D02*
G03X6672170Y2830I-5J38422D01*
G01X6747170Y77830D01*
G03X6758420Y104990I-27172J27165D01*
G01Y208090D01*
X6841910Y291580D01*
X7555010D01*
G03X7582170Y302830I-5J38422D01*
G01X7797800Y518470D01*
G02X7819480Y509490I8979J-8982D01*
G01Y297110D01*
X7849610Y266980D01*
X7930390D01*
X7968020Y304610D01*
Y509610D01*
X8370320Y911910D01*
X8374740Y908530D01*
G03X8395000Y901660I20269J26467D01*
G01X8395030D01*
G03X8403040Y902640I-14J33342D01*
G01X8406520Y903510D01*
X8510020Y800020D01*
G03X8530000Y791740I19980J19966D01*
G01X8713290D01*
X8882450Y622580D01*
X8882900Y620980D01*
G03X8888500Y609770I32095J9029D01*
G02X8878400Y589370I-10099J-7700D01*
G01X8674990D01*
G03X8661300Y583700I4J-19372D01*
G01X8276980Y199370D01*
X7839990D01*
G03X7826300Y193700I4J-19372D01*
G01X7780600Y148000D01*
X7777680Y148230D01*
G03X7775000Y148340I-2706J-33229D01*
G03Y81660I0J-33340D01*
G03X7777680Y81770I-26J33339D01*
G01X7780600Y82000D01*
X7936300Y-73700D01*
G03X7949990Y-79370I13694J13702D01*
G01X8012860D01*
G03X8040000Y-93340I27140J19378D01*
G03Y-26660I0J33340D01*
G03X8012860Y-40630I0J-33348D01*
G01X7958020D01*
X7808000Y109400D01*
X7808230Y112320D01*
G03X7808340Y115000I-33229J2706D01*
G03X7808230Y117680I-33339J-26D01*
G01X7808000Y120600D01*
X7848020Y160630D01*
X8285010D01*
G03X8298700Y166300I-4J19372D01*
G01X8683020Y550630D01*
X8925010D01*
G03X8938700Y556300I-4J19372D01*
G01X8978700Y596300D01*
G03X8984370Y609990I-13702J13694D01*
G01Y1017860D01*
G03X8998340Y1045000I-19378J27140D01*
G03X8931660I-33340J0D01*
G03X8945630Y1017860I33348J0D01*
G01Y672400D01*
G02X8927980Y660710I-12700J5D01*
G03X8924020Y662100I-13001J-30703D01*
G01X8922420Y662550D01*
X8744980Y839980D01*
G03X8725000Y848260I-19980J-19966D01*
G01X8658840D01*
G02X8646750Y864830I6J12700D01*
G03X8648340Y875000I-31750J10173D01*
G03X8581660I-33340J0D01*
G03X8583250Y864830I33340J3D01*
G02X8571160Y848260I-12096J-3870D01*
G01X8541710D01*
X8424190Y965780D01*
X8590390Y1131980D01*
X9184610D01*
X9226980Y1089610D01*
Y1009610D01*
X9269610Y966980D01*
X9707510D01*
G02X9717750Y946780I-7J-12699D01*
G03X9705730Y910000I50262J-36780D01*
G03X9830270I62270J0D01*
G03X9818250Y946780I-62282J0D01*
G02X9828490Y966980I10247J7501D01*
G01X9961510D01*
G02X9971750Y946780I-7J-12699D01*
G03X9959730Y910000I50262J-36780D01*
G03X10084270I62270J0D01*
G03X10072250Y946780I-62282J0D01*
G02X10082490Y966980I10247J7501D01*
G01X10215510D01*
G02X10225750Y946780I-7J-12699D01*
G03X10213730Y910000I50262J-36780D01*
G03X10338270I62270J0D01*
G03X10318030Y955950I-62279J0D01*
G01X10315970Y957830D01*
Y966980D01*
X10334610D01*
X10459610Y841980D01*
X10581580D01*
Y820910D01*
X10549090Y788420D01*
X10169990D01*
G03X10142830Y777170I5J-38422D01*
G01X10022830Y657170D01*
G03X10011580Y630010I27172J-27165D01*
G01Y630000D01*
G03X10050000Y591580I38420J0D01*
G01X10050010D01*
G03X10077170Y602830I-5J38422D01*
G01X10185910Y711580D01*
X10565010D01*
G03X10592170Y722830I-5J38422D01*
G01X10625300Y755970D01*
G02X10646980Y746990I8979J-8982D01*
G01Y360000D01*
G02X10602350Y322810I-37810J0D01*
G01X10601180Y323020D01*
X10410000D01*
G03X10096980Y10000I0J-313020D01*
G01Y-195000D01*
G02X10068760Y-226980I-32230J0D01*
G01X6861070D01*
G02X6852090Y-205300I2J12700D01*
G01X6869370Y-188020D01*
X7000000D01*
G03X7018020Y-170000I0J18020D01*
G01Y-30000D01*
G03X7000000Y-11980I-18020J0D01*
G01X6860000D01*
G03X6841980Y-30000I0J-18020D01*
G01Y-160630D01*
X6806980Y-195630D01*
X6627860D01*
G02X6616350Y-177580I7J12699D01*
G03X6618020Y-170010I-16351J7576D01*
G01Y-30000D01*
G03X6617250Y-24790I-18011J0D01*
G02X6629410Y-8420I12158J3670D01*
G01X6645010D01*
G37*
G36*
G01X7599130Y518950D02*
X7519550Y439370D01*
X7212810D01*
G02X7201000Y456740I2J12701D01*
G03X7203340Y469000I-30998J12270D01*
G03X7201780Y479090I-33342J11D01*
G02X7213880Y495630I12104J3841D01*
G01X7380000D01*
G03X7393700Y501300I6J19372D01*
G01X7433020Y540630D01*
X7590150D01*
G02X7599130Y518950I-2J-12700D01*
G37*
G36*
G01X8672500Y2162500D02*
X8772500D01*
X8915000Y2020000D01*
X9225000D01*
X9295000Y2090000D01*
X9460000D01*
X9480000Y2070000D01*
Y1905000D01*
X9445000Y1870000D01*
X9110000D01*
X9040000Y1800000D01*
Y1335000D01*
X9090000Y1285000D01*
X9220000D01*
X9415000Y1090000D01*
X10515000D01*
X10581580Y1023420D01*
Y866580D01*
X10570000Y855000D01*
X10465000D01*
X10340000Y980000D01*
X9275000D01*
X9240000Y1015000D01*
Y1095000D01*
X9190000Y1145000D01*
X8585000D01*
X8408260Y968260D01*
X8400000D01*
G03X8398100Y968200I-58J-28262D01*
G03X8395000Y968340I-3053J-33202D01*
G03X8361660Y935000I0J-33340D01*
G03X8362640Y926980I33340J4D01*
G01X8363500Y923500D01*
X7955000Y515000D01*
Y310000D01*
X7925000Y280000D01*
X7855000D01*
X7832500Y302500D01*
Y522500D01*
X8525000Y1215000D01*
X8895000D01*
X8920000Y1240000D01*
Y1810000D01*
X8645000Y2085000D01*
Y2135000D01*
X8672500Y2162500D01*
G37*
%LPC*%
G75*
G36*
G01X4446980Y6064370D02*
X4532000Y6149400D01*
X4531770Y6152320D01*
G02X4531660Y6155000I33229J2706D01*
G02X4565000Y6121660I33340J0D01*
G02X4562320Y6121770I26J33339D01*
G01X4559400Y6122000D01*
X4478440Y6041050D01*
G03X4487420Y6019370I8982J-8980D01*
G01X4561980D01*
X4661300Y6118700D01*
G02X4675000Y6124370I13694J-13702D01*
G01X5070000D01*
G02X5083700Y6118700I6J-19372D01*
G01X5398700Y5803700D01*
G02X5404370Y5790000I-13702J-13694D01*
G01Y5498020D01*
X5508700Y5393700D01*
G02X5514370Y5380000I-13702J-13694D01*
G01Y5005000D01*
G02X5508700Y4991300I-19372J-6D01*
G01X5449370Y4931980D01*
Y4198020D01*
X5508700Y4138700D01*
G02X5514370Y4125000I-13702J-13694D01*
G01Y3812140D01*
G02X5528340Y3785000I-19378J-27140D01*
G02X5461660I-33340J0D01*
G02X5475630Y3812140I33348J0D01*
G01Y4116980D01*
X5416300Y4176300D01*
G02X5410630Y4190000I13702J13694D01*
G01Y4940000D01*
G02X5416300Y4953700I19372J6D01*
G01X5475630Y5013020D01*
Y5371980D01*
X5371300Y5476300D01*
G02X5365630Y5490000I13702J13694D01*
G01Y5781980D01*
X5061980Y6085630D01*
X4683020D01*
X4583700Y5986300D01*
G02X4570000Y5980630I-13694J13702D01*
G01X4404020D01*
X4354000Y5930600D01*
X4354230Y5927680D01*
G02X4354340Y5925000I-33229J-2706D01*
G02X4353000Y5915640I-33340J-3D01*
G03X4365190Y5899370I12187J-3571D01*
G01X4470550D01*
X4470670Y5905600D01*
G02X4504000Y5938340I33330J-595D01*
G02X4537340Y5905000I0J-33340D01*
G02X4537230Y5902320I-33339J26D01*
G01X4537000Y5899400D01*
X4563700Y5872700D01*
G02X4569370Y5859000I-13702J-13694D01*
G01Y4880000D01*
G02X4563700Y4866300I-19372J-6D01*
G01X4529370Y4831980D01*
Y3730000D01*
G02X4523700Y3716300I-19372J-6D01*
G01X4463000Y3655600D01*
X4463230Y3652680D01*
G02X4463340Y3650000I-33229J-2706D01*
G02X4430000Y3683340I-33340J0D01*
G02X4432680Y3683230I-26J-33339D01*
G01X4435600Y3683000D01*
X4490630Y3738020D01*
Y4840000D01*
G02X4496300Y4853700I19372J6D01*
G01X4530630Y4888020D01*
Y5850980D01*
X4509600Y5872000D01*
X4506680Y5871770D01*
G02X4504000Y5871660I-2706J33229D01*
G02X4501320Y5871770I26J33339D01*
G01X4498400Y5872000D01*
X4492700Y5866300D01*
G02X4479000Y5860630I-13694J13702D01*
G01X4292700D01*
G02X4279000Y5866300I-6J19372D01*
G01X4266300Y5879000D01*
G02X4260630Y5892700I13702J13694D01*
G01Y5945000D01*
G02X4266300Y5958700I19372J6D01*
G01X4366300Y6058700D01*
G02X4380000Y6064370I13694J-13702D01*
G01X4446980D01*
G37*
G36*
G01X10289370Y2647140D02*
G02X10303340Y2620000I-19378J-27140D01*
G02X10236660I-33340J0D01*
G02X10250630Y2647140I33348J0D01*
G01Y3641980D01*
X10091980Y3800630D01*
X8667140D01*
G02X8640000Y3786660I-27140J19378D01*
G02X8607700Y3811740I0J33339D01*
G01X8607270Y3813430D01*
X8601550Y3819150D01*
X8594370Y3811980D01*
Y3432420D01*
G03X8616050Y3423440I12700J2D01*
G01X8660630Y3468020D01*
Y3745010D01*
G02X8666300Y3758700I19372J-4D01*
G01X8681300Y3773700D01*
G02X8694990Y3779370I13694J-13702D01*
G01X8720010D01*
G02X8733700Y3773700I-4J-19372D01*
G01X8743700Y3763700D01*
G02X8745030Y3762220I-13725J-13671D01*
G03X8763860Y3761250I9853J8014D01*
G01X8776310Y3773710D01*
G02X8790000Y3779380I13694J-13702D01*
G01X8807980D01*
G02X8821670Y3773710I-4J-19372D01*
G01X8837690Y3757690D01*
G02X8843360Y3744000I-13702J-13694D01*
G01Y3564370D01*
X8857860D01*
G02X8885000Y3578340I27140J-19378D01*
G02Y3511660I0J-33340D01*
G02X8857860Y3525630I0J33348D01*
G01X8834990D01*
G02X8821300Y3531300I4J19372D01*
G01X8816050Y3536560D01*
G03X8794370Y3527580I-8980J-8982D01*
G01Y3511660D01*
G02X8788700Y3497970I-19372J4D01*
G01X8773700Y3482970D01*
G02X8760010Y3477300I-13694J13702D01*
G01X8744990D01*
G02X8731300Y3482970I4J19372D01*
G01X8721050Y3493230D01*
G03X8699370Y3484250I-8980J-8982D01*
G01Y3459990D01*
G02X8693700Y3446300I-19372J4D01*
G01X8647230Y3399840D01*
G03X8650360Y3379590I8983J-8978D01*
G02X8668340Y3350000I-15358J-29590D01*
G02X8635000Y3316660I-33340J0D01*
G02X8632320Y3316770I26J33339D01*
G01X8629400Y3317000D01*
X8604370Y3291980D01*
Y3278340D01*
X8612370D01*
X8613800Y3279140D01*
G02X8630000Y3283340I16200J-29143D01*
G02X8663340Y3250000I0J-33340D01*
G02X8663230Y3247320I-33339J26D01*
G01X8663000Y3244400D01*
X8673700Y3233700D01*
G02X8679370Y3220010I-13702J-13694D01*
G01Y3084990D01*
G02X8673700Y3071300I-19372J4D01*
G01X8583700Y2981300D01*
G02X8570010Y2975630I-13694J13702D01*
G01X8554180D01*
G03X8542000Y2959360I7J-12699D01*
G02X8543340Y2950010I-32000J-9357D01*
G01Y2950000D01*
G02X8476660I-33340J0D01*
G01Y2950010D01*
G02X8478000Y2959360I33340J-7D01*
G03X8465820Y2975630I-12187J3571D01*
G01X8423020D01*
X8189370Y2741980D01*
Y2604990D01*
G02X8183700Y2591300I-19372J4D01*
G01X7928700Y2336300D01*
G02X7915010Y2330630I-13694J13702D01*
G01X7388020D01*
X7293700Y2236300D01*
G02X7280010Y2230630I-13694J13702D01*
G01X6203020D01*
X5743700Y1771300D01*
G02X5730010Y1765630I-13694J13702D01*
G01X5237140D01*
G02X5210000Y1751660I-27140J19378D01*
G02X5176660Y1785000I0J33340D01*
G02X5183630Y1805400I33339J0D01*
G03X5178610Y1815630I-5027J3880D01*
G01X5173020D01*
X5148000Y1790600D01*
X5148230Y1787680D01*
G02X5148340Y1785000I-33229J-2706D01*
G02X5081660I-33340J0D01*
G02X5081840Y1788490I33342J30D01*
G01X5082160Y1791500D01*
X5075530Y1798130D01*
X5068000Y1790600D01*
X5068230Y1787680D01*
G02X5068340Y1785000I-33229J-2706D01*
G02X5001660I-33340J0D01*
G02X5001840Y1788490I33342J30D01*
G01X5002160Y1791500D01*
X4995530Y1798130D01*
X4988000Y1790600D01*
X4988230Y1787680D01*
G02X4988340Y1785000I-33229J-2706D01*
G02X4955000Y1818340I-33340J0D01*
G02X4957680Y1818230I-26J-33339D01*
G01X4960600Y1818000D01*
X5056300Y1913700D01*
G02X5069990Y1919370I13694J-13702D01*
G01X5455080D01*
G03X5466090Y1938390I-4J12699D01*
G02X5461660Y1955000I28924J16610D01*
G02X5528340I33340J0D01*
G02X5523910Y1938390I-33354J0D01*
G03X5534920Y1919370I11014J-6321D01*
G01X5676980D01*
X6131300Y2373700D01*
G02X6144990Y2379370I13694J-13702D01*
G01X7231980D01*
X7316300Y2463700D01*
G02X7329990Y2469370I13694J-13702D01*
G01X7861980D01*
X8005630Y2613020D01*
Y2805010D01*
G02X8011300Y2818700I19372J-4D01*
G01X8031300Y2838700D01*
G02X8044990Y2844370I13694J-13702D01*
G01X8091980D01*
X8194060Y2946450D01*
G03X8185080Y2968130I-8982J8980D01*
G01X8140520D01*
X7943700Y2771300D01*
G02X7930010Y2765630I-13694J13702D01*
G01X7664180D01*
G03X7652000Y2749360I7J-12699D01*
G02X7653340Y2740010I-32000J-9357D01*
G01Y2740000D01*
G02X7620000Y2706660I-33340J0D01*
G02X7588280Y2729750I0J33333D01*
G03X7567210Y2734820I-12086J-3909D01*
G01X7458700Y2626300D01*
G02X7445010Y2620630I-13694J13702D01*
G01X7308020D01*
X7113700Y2426300D01*
G02X7100010Y2420630I-13694J13702D01*
G01X5979990D01*
G02X5966300Y2426300I4J19372D01*
G01X5856980Y2535630D01*
X5527140D01*
G02X5500000Y2521660I-27140J19378D01*
G02X5466660Y2555000I0J33340D01*
G01Y2555010D01*
G02X5468000Y2564360I33340J-7D01*
G03X5455820Y2580630I-12187J3571D01*
G01X5283020D01*
X5103700Y2401300D01*
G02X5090010Y2395630I-13694J13702D01*
G01X4820290D01*
X4818440Y2392600D01*
G02X4790000Y2376660I-28440J17401D01*
G02X4756660Y2410000I0J33340D01*
G02X4761090Y2426610I33354J0D01*
G03X4750080Y2445630I-11014J6321D01*
G01X4563020D01*
X4473000Y2355600D01*
X4473230Y2352680D01*
G02X4473340Y2350000I-33229J-2706D01*
G02X4440000Y2383340I-33340J0D01*
G02X4442680Y2383230I-26J-33339D01*
G01X4445600Y2383000D01*
X4541300Y2478700D01*
G02X4554990Y2484370I13694J-13702D01*
G01X5078700D01*
X5236300Y2641980D01*
G02X5249990Y2647650I13694J-13702D01*
G01X5881730D01*
G02X5895420Y2641980I-4J-19372D01*
G01X6019740Y2517650D01*
X6950260D01*
X6981560Y2548950D01*
G03X6972580Y2570630I-8982J8980D01*
G01X6889990D01*
G02X6876300Y2576300I4J19372D01*
G01X6815600Y2637000D01*
X6812680Y2636770D01*
G02X6810000Y2636660I-2706J33229D01*
G02X6781730Y2652330I0J33336D01*
G03X6761980Y2654580I-10770J-6728D01*
G01X6663700Y2556300D01*
G02X6650010Y2550630I-13694J13702D01*
G01X6259990D01*
G02X6246300Y2556300I4J19372D01*
G01X6195600Y2607000D01*
X6192680Y2606770D01*
G02X6190000Y2606660I-2706J33229D01*
G02X6223340Y2640000I0J33340D01*
G02X6223230Y2637320I-33339J26D01*
G01X6223000Y2634400D01*
X6268020Y2589370D01*
X6641980D01*
X6776300Y2723700D01*
G02X6789990Y2729370I13694J-13702D01*
G01X7016980D01*
X7361300Y3073700D01*
G02X7374990Y3079370I13694J-13702D01*
G01X7596980D01*
X7711300Y3193700D01*
G02X7724990Y3199370I13694J-13702D01*
G01X8226980D01*
X8371300Y3343700D01*
G02X8384990Y3349370I13694J-13702D01*
G01X8446980D01*
X8525630Y3428020D01*
Y3830010D01*
G02X8531300Y3843700I19372J-4D01*
G01X8591300Y3903700D01*
G02X8604990Y3909370I13694J-13702D01*
G01X10071980D01*
X10206300Y4043700D01*
G02X10219990Y4049370I13694J-13702D01*
G01X10552860D01*
G02X10580000Y4063340I27140J-19378D01*
G02X10613340Y4030000I0J-33340D01*
G02X10599420Y4002900I-33340J0D01*
G03X10596200Y3985620I7402J-10319D01*
G02X10599370Y3975000I-16204J-10620D01*
G01Y3947140D01*
G02X10613340Y3920000I-19378J-27140D01*
G02X10546660I-33340J0D01*
G02X10560630Y3947140I33348J0D01*
G01Y3966980D01*
X10556980Y3970630D01*
X10436590D01*
G03X10426060Y3950830I-1J-12700D01*
G02X10429370Y3940000I-16062J-10830D01*
G01Y3919990D01*
G02X10423700Y3906300I-19372J4D01*
G01X10413700Y3896300D01*
G02X10400010Y3890630I-13694J13702D01*
G01X10168020D01*
X10123700Y3846300D01*
G02X10122220Y3844970I-13672J13725D01*
G03X10121250Y3826140I8014J-9853D01*
G01X10283700Y3663700D01*
G02X10289370Y3650010I-13702J-13694D01*
G01Y2647140D01*
G37*
G36*
G01X7130010Y3085630D02*
X6822420D01*
G03X6813440Y3063950I2J-12700D01*
G01X6859400Y3018000D01*
X6862320Y3018230D01*
G02X6865000Y3018340I2706J-33229D01*
G02X6831660Y2985000I0J-33340D01*
G02X6831770Y2987680I33339J-26D01*
G01X6832000Y2990600D01*
X6818330Y3004280D01*
X6811250Y2997190D01*
X6812200Y2993650D01*
G02X6813340Y2985010I-32201J-8644D01*
G01Y2985000D01*
G02X6746660I-33340J0D01*
G02X6746770Y2987680I33339J-26D01*
G01X6747000Y2990600D01*
X6731980Y3005630D01*
X6720680D01*
Y2998100D01*
X6721110Y2997000D01*
G02X6723340Y2985020I-31112J-11989D01*
G01Y2985000D01*
G02X6690000Y2951660I-33340J0D01*
G02X6662860Y2965630I0J33348D01*
G01X6638020D01*
X6528700Y2856300D01*
G02X6515010Y2850630I-13694J13702D01*
G01X6465430D01*
G03X6460840Y2826090I3J-12700D01*
G02X6464990Y2826350I4156J-33080D01*
G01X6465000D01*
G02X6431660Y2793010I0J-33340D01*
G02X6431770Y2795690I33339J-26D01*
G01X6432000Y2798610D01*
X6424470Y2806140D01*
X6417840Y2799510D01*
X6418160Y2796500D01*
G02X6418340Y2793010I-33162J-3460D01*
G02X6385000Y2759670I-33340J0D01*
G02X6352900Y2784010I0J33337D01*
G01X6351600Y2788640D01*
X4716030D01*
X4313700Y2386300D01*
G02X4300010Y2380630I-13694J13702D01*
G01X2894990D01*
G02X2881300Y2386300I4J19372D01*
G01X2696980Y2570630D01*
X2088020D01*
X2018700Y2501300D01*
G02X2005010Y2495630I-13694J13702D01*
G01X1718020D01*
X1628700Y2406300D01*
G02X1615010Y2400630I-13694J13702D01*
G01X1539990D01*
G02X1526300Y2406300I4J19372D01*
G01X1505600Y2427000D01*
X1502680Y2426770D01*
G02X1500000Y2426660I-2706J33229D01*
G02X1533340Y2460000I0J33340D01*
G02X1533230Y2457320I-33339J26D01*
G01X1533000Y2454400D01*
X1540530Y2446870D01*
X1547160Y2453500D01*
X1546840Y2456510D01*
G02X1546660Y2460000I33162J3460D01*
G02X1580000Y2493340I33340J0D01*
G02X1598310Y2487860I0J-33329D01*
G01X1602630Y2485020D01*
X1676100Y2558500D01*
G02X1689790Y2564170I13694J-13702D01*
G01X1986790D01*
X2070110Y2647500D01*
X2011980Y2705630D01*
X1753020D01*
X1656190Y2608790D01*
G02X1642500Y2603120I-13694J13702D01*
G01X1580510D01*
X1566870Y2589470D01*
X1573500Y2582840D01*
X1576510Y2583160D01*
G02X1580000Y2583340I3460J-33162D01*
G02X1546660Y2550000I0J-33340D01*
G02X1546840Y2553490I33342J30D01*
G01X1547160Y2556500D01*
X1540530Y2563130D01*
X1533000Y2555600D01*
X1533230Y2552680D01*
G02X1533340Y2550000I-33229J-2706D01*
G02X1500000Y2583340I-33340J0D01*
G02X1502680Y2583230I-26J-33339D01*
G01X1505600Y2583000D01*
X1558790Y2636190D01*
G02X1572480Y2641860I13694J-13702D01*
G01X1634470D01*
X1731300Y2738700D01*
G02X1744990Y2744370I13694J-13702D01*
G01X2020010D01*
G02X2033700Y2738700I-4J-19372D01*
G01X2103020Y2669370D01*
X2731230D01*
G03X2740210Y2691050I-2J12700D01*
G01X2605630Y2825630D01*
X2184180D01*
G03X2172000Y2809360I7J-12699D01*
G02X2173340Y2800010I-32000J-9357D01*
G01Y2800000D01*
G02X2106660I-33340J0D01*
G01Y2800010D01*
G02X2108000Y2809360I33340J-7D01*
G03X2095820Y2825630I-12187J3571D01*
G01X1733020D01*
X1618000Y2710600D01*
X1618230Y2707680D01*
G02X1618340Y2705000I-33229J-2706D01*
G02X1585000Y2671660I-33340J0D01*
G02X1551940Y2700650I0J33346D01*
G03X1530370Y2707980I-12591J-1650D01*
G01X1528000Y2705600D01*
X1528230Y2702680D01*
G02X1528340Y2700000I-33229J-2706D01*
G02X1495000Y2733340I-33340J0D01*
G02X1497680Y2733230I-26J-33339D01*
G01X1500600Y2733000D01*
X1537400Y2769790D01*
G03X1532910Y2780630I-4492J4489D01*
G01X1522140D01*
G02X1495000Y2766660I-27140J19378D01*
G02Y2833340I0J33340D01*
G02X1522140Y2819370I0J-33348D01*
G01X1541970D01*
X1641290Y2918700D01*
G02X1654980Y2924370I13694J-13702D01*
G01X2166580D01*
G03X2175560Y2946050I-2J12700D01*
G01X2150600Y2971000D01*
X2147680Y2970770D01*
G02X2145000Y2970660I-2706J33229D01*
G02X2178340Y3004000I0J33340D01*
G02X2178230Y3001320I-33339J26D01*
G01X2178000Y2998400D01*
X2217020Y2959370D01*
X2414650D01*
G03X2427160Y2974260I0J12700D01*
G02X2426660Y2980000I32839J5752D01*
G02X2460000Y3013340I33340J0D01*
G02X2487140Y2999370I0J-33348D01*
G01X2645010D01*
G02X2658700Y2993700I-4J-19372D01*
G01X3013020Y2639370D01*
X4184550D01*
X4628870Y3083700D01*
G02X4642560Y3089370I13694J-13702D01*
G01X6471980D01*
X6566300Y3183700D01*
G02X6579990Y3189370I13694J-13702D01*
G01X6686980D01*
X6716300Y3218700D01*
G02X6729990Y3224370I13694J-13702D01*
G01X6737860D01*
G02X6765000Y3238340I27140J-19378D01*
G02X6798340Y3205000I0J-33340D01*
G02X6798160Y3201510I-33342J-30D01*
G01X6797840Y3198500D01*
X6804470Y3191870D01*
X6812000Y3199400D01*
X6811770Y3202320D01*
G02X6811660Y3205000I33229J2706D01*
G02X6845000Y3171660I33340J0D01*
G02X6842320Y3171770I26J33339D01*
G01X6839400Y3172000D01*
X6813440Y3146050D01*
G03X6822420Y3124370I8982J-8980D01*
G01X7121980D01*
X7185260Y3187650D01*
G02X7176660Y3210000I24742J22350D01*
G02X7243340I33340J0D01*
G02X7229240Y3182770I-33343J0D01*
G02X7223700Y3171300I-19243J2222D01*
G01X7143700Y3091300D01*
G02X7130010Y3085630I-13694J13702D01*
G37*
G36*
G01X7314370Y3182860D02*
Y3164990D01*
G02X7308700Y3151300I-19372J4D01*
G01X7193700Y3036300D01*
G02X7180010Y3030630I-13694J13702D01*
G01X7058020D01*
X6994370Y2966980D01*
Y2919990D01*
G02X6988700Y2906300I-19372J4D01*
G01X6943700Y2861300D01*
G02X6930010Y2855630I-13694J13702D01*
G01X6673020D01*
X6513700Y2696300D01*
G02X6500010Y2690630I-13694J13702D01*
G01X6334990D01*
G02X6321300Y2696300I4J19372D01*
G01X6282910Y2734700D01*
X4747090D01*
X4343700Y2331300D01*
G02X4330010Y2325630I-13694J13702D01*
G01X2799990D01*
G02X2786300Y2331300I4J19372D01*
G01X2636980Y2480630D01*
X2349990D01*
G02X2336300Y2486300I4J19372D01*
G01X2321980Y2500630D01*
X2093020D01*
X1933700Y2341300D01*
G02X1920010Y2335630I-13694J13702D01*
G01X1444990D01*
G02X1431300Y2341300I4J19372D01*
G01X1255600Y2517000D01*
X1252680Y2516770D01*
G02X1250000Y2516660I-2706J33229D01*
G02X1283340Y2550000I0J33340D01*
G02X1283230Y2547320I-33339J26D01*
G01X1283000Y2544400D01*
X1453020Y2374370D01*
X1911980D01*
X2071300Y2533700D01*
G02X2084990Y2539370I13694J-13702D01*
G01X2330010D01*
G02X2343700Y2533700I-4J-19372D01*
G01X2358020Y2519370D01*
X2645010D01*
G02X2658700Y2513700I-4J-19372D01*
G01X2808020Y2364370D01*
X4321980D01*
X4725370Y2767770D01*
G02X4739060Y2773440I13694J-13702D01*
G01X6290940D01*
G02X6304630Y2767770I-4J-19372D01*
G01X6343020Y2729370D01*
X6491980D01*
X6651300Y2888700D01*
G02X6664990Y2894370I13694J-13702D01*
G01X6921980D01*
X6955630Y2928020D01*
Y2975010D01*
G02X6961300Y2988700I19372J-4D01*
G01X7036300Y3063700D01*
G02X7049990Y3069370I13694J-13702D01*
G01X7171980D01*
X7275630Y3173020D01*
Y3182860D01*
G02X7261660Y3210000I19378J27140D01*
G02X7328340I33340J0D01*
G02X7314370Y3182860I-33348J0D01*
G37*
G36*
G01X7371660Y3209990D02*
Y3210000D01*
G02X7438340I33340J0D01*
G02X7424390Y3182880I-33337J0D01*
G01Y3180000D01*
G02X7418160Y3165760I-19389J0D01*
G01X7193700Y2941300D01*
G02X7180010Y2935630I-13694J13702D01*
G01X7103020D01*
X7079370Y2911980D01*
Y2874990D01*
G02X7073700Y2861300I-19372J4D01*
G01X7008700Y2796300D01*
G02X6995010Y2790630I-13694J13702D01*
G01X6768020D01*
X6603700Y2626300D01*
G02X6590010Y2620630I-13694J13702D01*
G01X6367140D01*
G02X6340000Y2606660I-27140J19378D01*
G02Y2673340I0J33340D01*
G02X6367140Y2659370I0J-33348D01*
G01X6581980D01*
X6746300Y2823700D01*
G02X6759990Y2829370I13694J-13702D01*
G01X6986980D01*
X7040630Y2883020D01*
Y2920010D01*
G02X7046300Y2933700I19372J-4D01*
G01X7081300Y2968700D01*
G02X7094990Y2974370I13694J-13702D01*
G01X7171980D01*
X7378420Y3180810D01*
G03X7378900Y3189250I-4491J4489D01*
G02X7371660Y3209990I26102J20745D01*
G37*
G36*
G01X-900630Y5568020D02*
X-861980Y5529370D01*
X-559990D01*
G02X-546300Y5523700I-4J-19372D01*
G01X-491300Y5468700D01*
G02X-485630Y5455010I-13702J-13694D01*
G01Y5442640D01*
G02X-471660Y5415500I-19378J-27140D01*
G02X-505000Y5382160I-33340J0D01*
G02X-521610Y5386590I0J33354D01*
G03X-540630Y5375580I-6321J-11014D01*
G01Y5355020D01*
X-507100Y5321500D01*
X-504180Y5321730D01*
G02X-501500Y5321840I2706J-33229D01*
G02X-534840Y5288500I0J-33340D01*
G02X-534730Y5291180I33339J-26D01*
G01X-534500Y5294100D01*
X-573700Y5333300D01*
G02X-579370Y5346990I13702J13694D01*
G01Y5421980D01*
X-618020Y5460630D01*
X-890010D01*
G02X-903700Y5466300I4J19372D01*
G01X-963700Y5526300D01*
G02X-969370Y5539990I13702J13694D01*
G01Y5746980D01*
X-1135390D01*
X-1149900Y5761490D01*
G03X-1171580Y5752510I-8980J-8981D01*
G01Y5740910D01*
X-1122830Y5692170D01*
G02X-1111580Y5665010I-27172J-27165D01*
G01Y5665000D01*
G02X-1150000Y5626580I-38420J0D01*
G01X-1150010D01*
G02X-1177170Y5637830I5J38422D01*
G01X-1237170Y5697830D01*
G02X-1248420Y5724990I27172J27165D01*
G01Y6124090D01*
X-1297170Y6172830D01*
G02X-1308420Y6199990I27172J27165D01*
G01Y6200000D01*
G02X-1270000Y6238420I38420J0D01*
G02X-1268070Y6238370I-30J-38419D01*
G03X-1258450Y6260030I639J12682D01*
G01X-1263020Y6264610D01*
Y6425390D01*
X-1245390Y6443020D01*
X-1178250D01*
G02X-1165000Y6444020I13230J-87021D01*
G02X-1151750Y6443020I20J-88021D01*
G01X-994610D01*
X-987420Y6435840D01*
G03X-967180Y6438950I8979J8978D01*
G02X-963700Y6443700I17185J-8941D01*
G01X-903700Y6503700D01*
G02X-890010Y6509370I13694J-13702D01*
G01X-616520D01*
X-598000Y6527900D01*
X-598230Y6530820D01*
G02X-598340Y6533500I33229J2706D01*
G02X-531660I33340J0D01*
G01Y6533490D01*
G02X-534360Y6520350I-33341J4D01*
G01X-536060Y6516400D01*
X-528530Y6508870D01*
X-508000Y6529400D01*
X-508230Y6532320D01*
G02X-508340Y6535000I33229J2706D01*
G02X-475000Y6501660I33340J0D01*
G02X-477680Y6501770I26J33339D01*
G01X-480600Y6502000D01*
X-536300Y6446300D01*
G02X-549990Y6440630I-13694J13702D01*
G01X-832750D01*
G03X-843990Y6422020I-1J-12699D01*
G02X-840350Y6410020I-29515J-15505D01*
G01X-840110Y6407790D01*
X-816840Y6384520D01*
X-83430D01*
G02X-66090Y6377340I0J-24528D01*
G01X97340Y6213910D01*
G02X104520Y6196570I-17348J-17340D01*
G01Y6048160D01*
X105360Y6047310D01*
G02X137340Y6014000I-1358J-33310D01*
G02X104000Y5980660I-33340J0D01*
G02X70850Y6010480I0J33336D01*
G01X70610Y6012710D01*
X62660Y6020660D01*
G02X60330Y6023370I17377J17297D01*
G01X60050Y6023740D01*
X55230Y6028560D01*
X39390Y6012710D01*
X39150Y6010480D01*
G02X6000Y5980660I-33150J3516D01*
G02X-27340Y6014000I0J33340D01*
G02X2480Y6047150I33336J0D01*
G01X4710Y6047390D01*
X15480Y6058160D01*
Y6169840D01*
X-110160Y6295480D01*
X-823840D01*
X-841110Y6278210D01*
X-841350Y6275980D01*
G02X-874500Y6246160I-33150J3516D01*
G01X-874510D01*
G02X-884230Y6247610I6J33341D01*
G03X-900630Y6235460I-3701J-12148D01*
G01Y5568020D01*
G37*
G36*
G01X-1120030Y5120520D02*
X-1034160D01*
X-1013390Y5141290D01*
X-1013150Y5143520D01*
G02X-980000Y5173340I33150J-3516D01*
G02X-946660Y5140000I0J-33340D01*
G02X-976480Y5106850I-33336J0D01*
G01X-978710Y5106610D01*
X-981000Y5104320D01*
G03X-974220Y5082840I8982J-8975D01*
G02X-946660Y5050000I-5786J-32840D01*
G02X-980000Y5016660I-33340J0D01*
G02X-1002590Y5025480I0J33339D01*
G01X-1089840D01*
X-1132660Y4982660D01*
G02X-1150000Y4975480I-17340J17348D01*
G01X-1197000D01*
G02X-1214340Y4982660I0J24528D01*
G01X-1237340Y5005660D01*
G02X-1244520Y5023000I17348J17340D01*
G01Y5094000D01*
G02X-1237340Y5111340I24528J0D01*
G01X-1203390Y5145290D01*
X-1203150Y5147520D01*
G02X-1170000Y5177340I33150J-3516D01*
G02X-1136660Y5144000I0J-33340D01*
G02X-1137660Y5135920I-33337J24D01*
G03X-1123510Y5120270I12321J-3082D01*
G02X-1120030Y5120520I3493J-24271D01*
G37*
G36*
G01X2339370Y1701930D02*
G03X2361020Y1692920I12701J4D01*
G02X2419500Y1717020I58486J-58917D01*
G02Y1550980I0J-83020D01*
G02X2361020Y1575080I6J83017D01*
G03X2339370Y1566070I-8949J-9014D01*
G01Y853630D01*
G03X2363160Y847440I12700J0D01*
G02X2546500Y955020I183340J-102436D01*
G02Y534980I0J-210020D01*
G02X2363160Y642560I0J210016D01*
G03X2339370Y636370I-11090J-6190D01*
G01Y434540D01*
G03X2356090Y422500I12700J7D01*
G02X2383990Y427040I27905J-83489D01*
G02X2295960Y339010I0J-88030D01*
G02X2307140Y381940I88029J-4D01*
G03X2306140Y389470I-5546J3095D01*
G02X2300630Y403000I13857J13530D01*
G01Y562580D01*
G03X2278950Y571560I-12700J-2D01*
G01X2183700Y476300D01*
G02X2170010Y470630I-13694J13702D01*
G01X1471020D01*
X1386520Y386130D01*
X1388860Y381940D01*
G02X1400040Y339010I-76849J-42934D01*
G02X1312010Y427040I-88030J0D01*
G02X1354940Y415860I-4J-88029D01*
G01X1359130Y413520D01*
X1449300Y503700D01*
G02X1462990Y509370I13694J-13702D01*
G01X2161980D01*
X2260630Y608020D01*
Y1901980D01*
X2131300Y2031300D01*
G02X2125630Y2044990I13702J13694D01*
G01Y2257860D01*
G02X2111660Y2285000I19378J27140D01*
G02X2178340I33340J0D01*
G02X2164370Y2257860I-33348J0D01*
G01Y2226600D01*
G03X2184770Y2216500I12700J-1D01*
G02X2205000Y2223340I20230J-26496D01*
G02X2238340Y2190000I0J-33340D01*
G02X2224370Y2162860I-33348J0D01*
G01Y2043020D01*
X2333700Y1933700D01*
G02X2339370Y1920010I-13702J-13694D01*
G01Y1701930D01*
G37*
G36*
G01X-1104000Y5360660D02*
G02Y5427340I0J33340D01*
G02X-1087680Y5423070I-4J-33339D01*
G01X-1086230Y5422260D01*
X-839000D01*
G02X-819020Y5413980I0J-28246D01*
G01X-573290Y5168260D01*
X-27770D01*
X-26320Y5169070D01*
G02X-10000Y5173340I16324J-29069D01*
G02Y5106660I0J-33340D01*
G02X-26320Y5110930I4J33339D01*
G01X-27770Y5111740D01*
X-585000D01*
G02X-604980Y5120020I0J28246D01*
G01X-850710Y5365740D01*
X-1086230D01*
X-1087680Y5364930D01*
G02X-1104000Y5360660I-16324J29069D01*
G37*
G36*
G01X5645000Y5131660D02*
G02Y5198340I0J33340D01*
G02X5661320Y5194070I-4J-33339D01*
G01X5662770Y5193260D01*
X5895000D01*
G02X5914980Y5184980I0J-28246D01*
G01X5946540Y5153420D01*
G02X5954820Y5133440I-19966J-19980D01*
G01Y4861560D01*
G02X5946540Y4841580I-28246J0D01*
G01X5867550Y4762580D01*
X5867100Y4760980D01*
G02X5835000Y4736660I-32100J9024D01*
G02X5801660Y4770000I0J33340D01*
G02X5825980Y4802100I33344J0D01*
G01X5827580Y4802550D01*
X5898300Y4873270D01*
Y5121730D01*
X5883290Y5136740D01*
X5662770D01*
X5661320Y5135930D01*
G02X5645000Y5131660I-16324J29069D01*
G37*
G36*
G01X-670000Y4338020D02*
X10010D01*
G02X29820Y4329810I-5J-28018D01*
G01X191580Y4168050D01*
X193830Y4167830D01*
G02X228030Y4130000I-3823J-37830D01*
G02X216890Y4103120I-38017J7D01*
G01X188020Y4074240D01*
Y3590000D01*
G02X176880Y3563120I-38017J7D01*
G01X121880Y3508120D01*
G02X95000Y3496980I-26887J26877D01*
G02X56980Y3535000I0J38020D01*
G02X68120Y3561880I38017J-7D01*
G01X111980Y3605750D01*
Y4089990D01*
G02X123120Y4116870I38017J-7D01*
G01X143310Y4137070D01*
X-1600Y4281980D01*
X-658390D01*
X-877350Y4063020D01*
X-877790Y4061380D01*
G02X-910000Y4036660I-32210J8625D01*
G02X-943340Y4070000I0J33340D01*
G02X-918620Y4102210I33345J0D01*
G01X-916980Y4102650D01*
X-689810Y4329810D01*
G02X-670000Y4338020I19815J-19808D01*
G37*
G36*
G01X8324370Y2398020D02*
X8373700Y2348700D01*
G02X8379370Y2335010I-13702J-13694D01*
G01Y2214990D01*
G02X8373700Y2201300I-19372J4D01*
G01X8283700Y2111300D01*
G02X8270010Y2105630I-13694J13702D01*
G01X8099990D01*
G02X8086300Y2111300I4J19372D01*
G01X8006980Y2190630D01*
X7727140D01*
G02X7700000Y2176660I-27140J19378D01*
G02Y2243340I0J33340D01*
G02X7727140Y2229370I0J-33348D01*
G01X8015010D01*
G02X8028700Y2223700I-4J-19372D01*
G01X8108020Y2144370D01*
X8205820D01*
G03X8218000Y2160640I-7J12699D01*
G02X8216660Y2169990I32000J9357D01*
G01Y2170000D01*
G02X8250000Y2203340I33340J0D01*
G02X8279590Y2185360I0J-33338D01*
G03X8299840Y2182230I11272J5853D01*
G01X8340630Y2223020D01*
Y2326980D01*
X8291300Y2376300D01*
G02X8285630Y2389990I13702J13694D01*
G01Y2576980D01*
X8265600Y2597000D01*
X8262680Y2596770D01*
G02X8260000Y2596660I-2706J33229D01*
G02X8293340Y2630000I0J33340D01*
G02X8293230Y2627320I-33339J26D01*
G01X8293000Y2624400D01*
X8318700Y2598700D01*
G02X8324370Y2585010I-13702J-13694D01*
G01Y2398020D01*
G37*
G36*
G01X9609370Y1933020D02*
X9753020Y1789370D01*
X9880650D01*
G03X9893160Y1804260I0J12700D01*
G02X9892660Y1810000I32839J5752D01*
G02X9959340I33340J0D01*
G02X9958840Y1804260I-33339J12D01*
G03X9971350Y1789370I12510J-2190D01*
G01X10301980D01*
X10414630Y1902020D01*
Y2178860D01*
G02X10400660Y2206000I19378J27140D01*
G02X10467340I33340J0D01*
G02X10453370Y2178860I-33348J0D01*
G01Y1893990D01*
G02X10447700Y1880300I-19372J4D01*
G01X10323700Y1756300D01*
G02X10310010Y1750630I-13694J13702D01*
G01X9744990D01*
G02X9731300Y1756300I4J19372D01*
G01X9576300Y1911300D01*
G02X9570630Y1924990I13702J13694D01*
G01Y2066980D01*
X9506980Y2130630D01*
X9344990D01*
G02X9331300Y2136300I4J19372D01*
G01X8941980Y2525630D01*
X8502140D01*
G02X8475000Y2511660I-27140J19378D01*
G02Y2578340I0J33340D01*
G02X8502140Y2564370I0J-33348D01*
G01X8950010D01*
G02X8963700Y2558700I-4J-19372D01*
G01X9353020Y2169370D01*
X9515010D01*
G02X9528700Y2163700I-4J-19372D01*
G01X9603700Y2088700D01*
G02X9609370Y2075010I-13702J-13694D01*
G01Y1933020D01*
G37*
G36*
G01X-1078020Y2490000D02*
G02X-1040000Y2528020I38020J0D01*
G02X-1013120Y2516880I-7J-38017D01*
G01X-953120Y2456880D01*
G02X-941980Y2430000I-26877J-26887D01*
G01Y2285750D01*
X-653120Y1996880D01*
G02X-641980Y1970000I-26877J-26887D01*
G01Y1455750D01*
X-593120Y1406880D01*
G02X-581980Y1380000I-26877J-26887D01*
G01Y635750D01*
X-233120Y286880D01*
G02X-221980Y260000I-26877J-26887D01*
G02X-240430Y227410I-38008J0D01*
G03X-242870Y207540I6540J-10888D01*
G01X-213120Y177780D01*
G02X-201980Y150900I-26877J-26887D01*
G01Y105750D01*
X-148120Y51880D01*
G02X-136980Y25000I-26877J-26887D01*
G02X-175000Y-13020I-38020J0D01*
G02X-201880Y-1880I7J38017D01*
G01X-266880Y63120D01*
G02X-278020Y90000I26877J26887D01*
G01Y135150D01*
X-726880Y584020D01*
G02X-738020Y610900I26877J26887D01*
G01Y994910D01*
G03X-753280Y1007340I-12698J-7D01*
G02X-759960Y1006660I-6699J32662D01*
G01X-760000D01*
G02Y1073340I0J33340D01*
G01X-759960D01*
G02X-753280Y1072660I-19J-33342D01*
G03X-738020Y1085090I2562J12437D01*
G01Y1154250D01*
X-836880Y1253120D01*
G02X-848020Y1280000I26877J26887D01*
G01Y1400000D01*
G02X-771980I38020J0D01*
G01Y1295750D01*
X-679700Y1203470D01*
G03X-658020Y1212450I8981J8979D01*
G01Y1364250D01*
X-706880Y1413120D01*
G02X-718020Y1440000I26877J26887D01*
G01Y1954250D01*
X-1006880Y2243120D01*
G02X-1018020Y2270000I26877J26887D01*
G01Y2414250D01*
X-1066880Y2463120D01*
G02X-1078020Y2490000I26877J26887D01*
G37*
G36*
G01X-1323020Y2115000D02*
Y2165000D01*
G02X-1285000Y2203020I38020J0D01*
G02X-1251930Y2183760I0J-38021D01*
G03X-1230640Y2182500I11053J6258D01*
G02X-1200000Y2198020I30646J-22497D01*
G02X-1161980Y2160000I0J-38020D01*
G01Y2145750D01*
X-783120Y1766880D01*
G02X-771980Y1740000I-26877J-26887D01*
G01Y1640000D01*
G02X-848020I-38020J0D01*
G01Y1724250D01*
X-880300Y1756530D01*
G03X-901980Y1747550I-8981J-8979D01*
G01Y785750D01*
X-773120Y656880D01*
G02X-761980Y630000I-26877J-26887D01*
G01Y490000D01*
G02X-838020I-38020J0D01*
G01Y614250D01*
X-966880Y743120D01*
G02X-978020Y770000I26877J26887D01*
G01Y1754250D01*
X-1311880Y2088120D01*
G02X-1323020Y2115000I26877J26887D01*
G37*
G36*
G01X4859370Y1753020D02*
X4893020Y1719370D01*
X5482860D01*
G02X5510000Y1733340I27140J-19378D01*
G02Y1666660I0J-33340D01*
G02X5482860Y1680630I0J33348D01*
G01X4884990D01*
G02X4871300Y1686300I4J19372D01*
G01X4826300Y1731300D01*
G02X4820630Y1744990I13702J13694D01*
G01Y1791980D01*
X4795600Y1817000D01*
X4792680Y1816770D01*
G02X4790000Y1816660I-2706J33229D01*
G02X4823340Y1850000I0J33340D01*
G02X4823230Y1847320I-33339J26D01*
G01X4823000Y1844400D01*
X4853700Y1813700D01*
G02X4859370Y1800010I-13702J-13694D01*
G01Y1753020D01*
G37*
G36*
G01X9258020Y1719370D02*
X10220010D01*
G02X10233700Y1713700I-4J-19372D01*
G01X10514400Y1433000D01*
X10517320Y1433230D01*
G02X10520000Y1433340I2706J-33229D01*
G02X10486660Y1400000I0J-33340D01*
G02X10486770Y1402680I33339J-26D01*
G01X10487000Y1405600D01*
X10211980Y1680630D01*
X9249990D01*
G02X9236300Y1686300I4J19372D01*
G01X9195600Y1727000D01*
X9192680Y1726770D01*
G02X9190000Y1726660I-2706J33229D01*
G02X9223340Y1760000I0J33340D01*
G02X9223230Y1757320I-33339J26D01*
G01X9223000Y1754400D01*
X9258020Y1719370D01*
G37*
G36*
G01X9207140Y1649370D02*
X9815010D01*
G02X9828700Y1643700I-4J-19372D01*
G01X10198020Y1274370D01*
X10220010D01*
G02X10233700Y1268700I-4J-19372D01*
G01X10313020Y1189370D01*
X10422860D01*
G02X10450000Y1203340I27140J-19378D01*
G02Y1136660I0J-33340D01*
G02X10422860Y1150630I0J33348D01*
G01X10304990D01*
G02X10291300Y1156300I4J19372D01*
G01X10211980Y1235630D01*
X10189990D01*
G02X10176300Y1241300I4J19372D01*
G01X9806980Y1610630D01*
X9207140D01*
G02X9180000Y1596660I-27140J19378D01*
G02Y1663340I0J33340D01*
G02X9207140Y1649370I0J-33348D01*
G37*
G36*
G01X9133450Y1574370D02*
X9685010D01*
G02X9698700Y1568700I-4J-19372D01*
G01X9895430Y1371960D01*
G03X9917110Y1380940I8980J8982D01*
G01Y1381480D01*
G02X9922780Y1395180I19372J6D01*
G01X9938800Y1411200D01*
G02X9952490Y1416870I13694J-13702D01*
G01X9967510D01*
G02X9981200Y1411200I-4J-19372D01*
G01X10189400Y1203000D01*
X10192320Y1203230D01*
G02X10195000Y1203340I2706J-33229D01*
G02X10161660Y1170000I0J-33340D01*
G02X10161770Y1172680I33339J-26D01*
G01X10162000Y1175600D01*
X10051050Y1286560D01*
G03X10029370Y1277580I-8980J-8982D01*
G01Y1269990D01*
G02X10023700Y1256300I-19372J4D01*
G01X10013700Y1246300D01*
G02X10000010Y1240630I-13694J13702D01*
G01X9979990D01*
G02X9966300Y1246300I4J19372D01*
G01X9676980Y1535630D01*
X9124990D01*
G02X9111300Y1541300I4J19372D01*
G01X9105600Y1547000D01*
X9102680Y1546770D01*
G02X9100000Y1546660I-2706J33229D01*
G02Y1613340I0J33340D01*
G02X9133330Y1580600I0J-33335D01*
G01X9133450Y1574370D01*
G37*
G36*
G01X5621580Y1341590D02*
X5589080Y1374080D01*
G02X5577830Y1401240I27172J27165D01*
G01Y1401250D01*
G02X5612480Y1439480I38415J0D01*
G01X5614740Y1439710D01*
X5680020Y1504980D01*
G02X5700000Y1513260I19980J-19966D01*
G01X5747230D01*
X5748680Y1514070D01*
G02X5765000Y1518340I16324J-29069D01*
G02Y1451660I0J-33340D01*
G02X5748680Y1455930I4J33339D01*
G01X5747230Y1456740D01*
X5711710D01*
X5663400Y1408430D01*
X5687170Y1384670D01*
G02X5695260Y1372770I-27168J-27170D01*
G03X5711400Y1365930I11656J5041D01*
G02X5725000Y1368420I13606J-35929D01*
G01X6575010D01*
G02X6602170Y1357170I-5J-38422D01*
G01X6840910Y1118420D01*
X7140000D01*
G02Y1041580I0J-38420D01*
G01X6838410D01*
G03X6829430Y1019900I2J-12701D01*
G01X7012170Y837170D01*
G02X7023420Y810010I-27172J-27165D01*
G01Y810000D01*
G02X6985000Y771580I-38420J0D01*
G01X6984990D01*
G02X6957830Y782830I5J38422D01*
G01X6524090Y1216580D01*
X5699990D01*
G02X5672830Y1227830I5J38422D01*
G01X5632830Y1267830D01*
G02X5621580Y1294990I27172J27165D01*
G01Y1341590D01*
G37*
G36*
G01X9619370Y1449990D02*
G02X9613700Y1436300I-19372J4D01*
G01X9604450Y1427060D01*
G03X9613430Y1405380I8982J-8980D01*
G01X9714000D01*
G02X9727690Y1399710I-4J-19372D01*
G01X9929400Y1198000D01*
X9932320Y1198230D01*
G02X9935000Y1198340I2706J-33229D01*
G02X9901660Y1165000I0J-33340D01*
G02X9901770Y1167680I33339J-26D01*
G01X9902000Y1170600D01*
X9705970Y1366640D01*
X9323980D01*
G02X9310290Y1372310I4J19372D01*
G01X9296290Y1386310D01*
G02X9290620Y1400000I13702J13694D01*
G01Y1425000D01*
G02X9296650Y1439040I19372J-5D01*
G03X9287580Y1460630I-9071J8889D01*
G01X9217140D01*
G02X9190000Y1446660I-27140J19378D01*
G02Y1513340I0J33340D01*
G02X9217140Y1499370I0J-33348D01*
G01X9590010D01*
G02X9603700Y1493700I-4J-19372D01*
G01X9613700Y1483700D01*
G02X9619370Y1470010I-13702J-13694D01*
G01Y1449990D01*
G37*
G36*
G01X9725860Y1291480D02*
G02X9720190Y1277790I-19372J4D01*
G01X9708700Y1266300D01*
G02X9695010Y1260630I-13694J13702D01*
G01X9692420D01*
G03X9683340Y1239050I1J-12701D01*
G02X9689370Y1225010I-13342J-14045D01*
G01Y1192140D01*
G02X9703340Y1165000I-19378J-27140D01*
G02X9636660I-33340J0D01*
G02X9650630Y1192140I33348J0D01*
G01Y1215630D01*
X9349990D01*
G02X9336300Y1221300I4J19372D01*
G01X9321300Y1236300D01*
G02X9315630Y1249990I13702J13694D01*
G01Y1267310D01*
G02X9321300Y1281000I19372J-4D01*
G01X9326760Y1286450D01*
G03X9317780Y1308130I-8982J8980D01*
G01X9297490D01*
G02X9283800Y1313800I4J19372D01*
G01X9206980Y1390630D01*
X9109990D01*
G02X9096300Y1396300I4J19372D01*
G01X9086300Y1406300D01*
G02X9080630Y1419990I13702J13694D01*
G01Y1452860D01*
G02X9066660Y1480000I19378J27140D01*
G02X9133340I33340J0D01*
G02X9119370Y1452860I-33348J0D01*
G01Y1429370D01*
X9215010D01*
G02X9228700Y1423700I-4J-19372D01*
G01X9305520Y1346870D01*
X9697510D01*
G02X9711200Y1341200I-4J-19372D01*
G01X9720190Y1332210D01*
G02X9725860Y1318520I-13702J-13694D01*
G01Y1291480D01*
G37*
G36*
G01X2750000Y926980D02*
G02X2873020Y1050000I0J123020D01*
G02X2870070Y1023220I-123029J0D01*
G01X2869310Y1019810D01*
X2894560Y994560D01*
G02X2913020Y950000I-44551J-44560D01*
G01Y796100D01*
X3184560Y524560D01*
G02X3203020Y480000I-44551J-44560D01*
G01Y360000D01*
G02X3184560Y315440I-63011J0D01*
G01X2963020Y93900D01*
Y-80000D01*
G02X2944560Y-124560I-63011J0D01*
G01X2884560Y-184560D01*
G02X2840000Y-203020I-44560J44551D01*
G01X1370000D01*
G02X1325440Y-184560I0J63011D01*
G01X1215440Y-74560D01*
G02X1196980Y-30000I44551J44560D01*
G01Y123900D01*
X1015440Y305440D01*
G02X996980Y350000I44551J44560D01*
G01Y910000D01*
G02X1015440Y954560I63011J0D01*
G01X1080690Y1019810D01*
X1079930Y1023220D01*
G02X1076980Y1050000I120079J26780D01*
G02X1200000Y926980I123020J0D01*
G02X1173220Y929930I0J123029D01*
G01X1169810Y930690D01*
X1123020Y883900D01*
Y376100D01*
X1304560Y194560D01*
G02X1323020Y150000I-44551J-44560D01*
G01Y-3900D01*
X1396100Y-76980D01*
X2813900D01*
X2836980Y-53900D01*
Y120000D01*
G02X2855440Y164560I63011J0D01*
G01X3076980Y386100D01*
Y453900D01*
X2805440Y725440D01*
G02X2786980Y770000I44551J44560D01*
G01Y923900D01*
X2780190Y930690D01*
X2776780Y929930D01*
G02X2750000Y926980I-26780J120079D01*
G37*
G36*
G01X5440Y644560D02*
X225440Y864560D01*
G02X270000Y883020I44560J-44551D01*
G01X640000D01*
G02Y756980I0J-63020D01*
G01X296100D01*
X113020Y573900D01*
Y500000D01*
G02X-13020I-63020J0D01*
G01Y600000D01*
G02X5440Y644560I63011J0D01*
G37*
G36*
G01X-500000Y853020D02*
X-400000D01*
G02X-355440Y834560I0J-63011D01*
G01X-75440Y554560D01*
G02X-56980Y510000I-44551J-44560D01*
G01Y436100D01*
X184500Y194620D01*
X1080000D01*
G02Y68580I0J-63020D01*
G01X158400D01*
G02X113840Y87040I0J63011D01*
G01X-164560Y365440D01*
G02X-183020Y410000I44551J44560D01*
G01Y483900D01*
X-426100Y726980D01*
X-500000D01*
G02Y853020I0J63020D01*
G37*
G36*
G01X2819370Y371980D02*
Y239990D01*
G02X2813700Y226300I-19372J4D01*
G01X2763700Y176300D01*
G02X2750010Y170630I-13694J13702D01*
G01X1715010D01*
G02X1701320Y176300I4J19372D01*
G01X1613030Y264590D01*
G02X1566010Y250980I-47020J74418D01*
G02X1654040Y339010I0J88030D01*
G02X1642860Y296080I-88029J4D01*
G01X1640520Y291890D01*
X1723040Y209370D01*
X2741980D01*
X2780630Y248020D01*
Y380010D01*
G02X2786300Y393700I19372J-4D01*
G01X2826310Y433710D01*
G02X2840000Y439380I13694J-13702D01*
G01X3002870D01*
G02X3030010Y453350I27140J-19378D01*
G02Y386670I0J-33340D01*
G02X3002870Y400640I0J33348D01*
G01X2848030D01*
X2819370Y371980D01*
G37*
G36*
G01X2219980Y4545000D02*
Y5615000D01*
G02X2375000Y5770020I155020J0D01*
G01X3445000D01*
G02X3600020Y5615000I0J-155020D01*
G01Y4545000D01*
G02X3445000Y4389980I-155020J0D01*
G01X2375000D01*
G02X2219980Y4545000I0J155020D01*
G37*
G36*
G01X314610Y4246980D02*
X154610Y4406980D01*
X-704610D01*
X-784610Y4326980D01*
X-965390D01*
X-983020Y4344610D01*
Y4545390D01*
X-815390Y4713020D01*
X295390D01*
X463020Y4545390D01*
Y4264610D01*
X445390Y4246980D01*
X314610D01*
G37*
G36*
G01X6380780Y6423800D02*
Y6576200D01*
G02X6393800Y6589220I13020J0D01*
G01X6546200D01*
G02X6559220Y6576200I0J-13020D01*
G01Y6423800D01*
G02X6546200Y6410780I-13020J0D01*
G01X6393800D01*
G02X6380780Y6423800I0J13020D01*
G37*
G36*
G01X-1218020Y1359990D02*
G02X-1180000Y1398010I38020J0D01*
G02X-1153120Y1386870I-7J-38017D01*
G01X-1013120Y1246870D01*
G02X-1001980Y1219990I-26877J-26887D01*
G01Y780000D01*
G02X-1078020I-38020J0D01*
G01Y1204240D01*
X-1206880Y1333110D01*
G02X-1218020Y1359990I26877J26887D01*
G37*
G36*
G01X520000Y1071980D02*
X49980D01*
G02X16040Y1086040I12J48023D01*
G01X-548960Y1651040D01*
G02X-563020Y1684980I33963J33952D01*
G01Y1685000D01*
G02X-515000Y1733020I48020J0D01*
G01X-514980D01*
G02X-481040Y1718960I-12J-48023D01*
G01X69890Y1168020D01*
X520000D01*
G02Y1071980I0J-48020D01*
G37*
G36*
G01X-1436880Y2316880D02*
X-1146880Y2606880D01*
G02X-1120000Y2618020I26887J-26877D01*
G01X-663000D01*
G02Y2541980I0J-38020D01*
G01X-1104250D01*
X-1371980Y2274250D01*
Y1939980D01*
G02X-1383120Y1913100I-38017J7D01*
G01X-1533110Y1763110D01*
G02X-1559990Y1751970I-26887J26877D01*
G02X-1598010Y1789990I0J38020D01*
G02X-1586870Y1816870I38017J-7D01*
G01X-1448020Y1955730D01*
Y2290000D01*
G02X-1436880Y2316880I38017J-7D01*
G37*
G36*
G01X-356890Y3976870D02*
X-176880Y4156880D01*
G02X-150000Y4168020I26887J-26877D01*
G02X-111980Y4130000I0J-38020D01*
G02X-123120Y4103120I-38017J7D01*
G01X-291990Y3934240D01*
Y3550010D01*
G02X-368030I-38020J0D01*
G01Y3949990D01*
G02X-356890Y3976870I38017J-7D01*
G37*
G36*
G01X-326880Y4156880D02*
X-226880Y4256880D01*
G02X-200000Y4268020I26887J-26877D01*
G01X-70010D01*
G02X-43130Y4256880I-7J-38017D01*
G01X56870Y4156880D01*
G02X68010Y4130000I-26877J-26887D01*
G02X29990Y4091980I-38020J0D01*
G02X3110Y4103120I7J38017D01*
G01X-85760Y4191980D01*
X-184250D01*
X-273120Y4103120D01*
G02X-300000Y4091980I-26887J26877D01*
G02X-338020Y4130000I0J38020D01*
G02X-326880Y4156880I38017J-7D01*
G37*
G36*
G01X2142720Y1963080D02*
G02X2176060Y1929740I0J-33340D01*
G02X2161280Y1902040I-33347J0D01*
G03Y1880950I7071J-10545D01*
G02X2176060Y1853250I-18567J-27700D01*
G02X2142720Y1819910I-33340J0D01*
G02X2109430Y1851460I0J33338D01*
G01X2109110Y1857470D01*
X2094690D01*
X2077520Y1840300D01*
Y1587000D01*
G02X2071510Y1572490I-20521J0D01*
G01X2030000Y1530980D01*
Y1475620D01*
G03X2042140Y1462940I12700J7D01*
G02X2121520Y1380000I-3640J-82940D01*
G02X1955480I-83020J0D01*
G02X1955490Y1381360I83021J70D01*
G01X1955570Y1386020D01*
X1904980Y1402880D01*
G02X1900090Y1405280I6516J19458D01*
G01X1883780Y1416140D01*
G03X1864500Y1402180I-7043J-10567D01*
G02X1867520Y1380000I-79999J-22188D01*
G02X1701480I-83020J0D01*
G02X1755840Y1457920I83026J0D01*
G01X1760000Y1459450D01*
Y1485340D01*
X1730860Y1504770D01*
G02X1725230Y1510370I11381J17072D01*
G01X1692690Y1558630D01*
X1687940Y1556760D01*
G02X1657510Y1550980I-30435J77241D01*
G01X1657500D01*
G02X1590470Y1585010I0J83031D01*
G03X1567520Y1577520I-10252J-7493D01*
G01Y1550700D01*
G02X1561510Y1536190I-20521J0D01*
G01X1523880Y1498560D01*
G02X1518540Y1494710I-14516J14505D01*
G01X1503270Y1487090D01*
X1501920Y1483040D01*
X1512820Y1461250D01*
X1517420Y1461980D01*
G02X1530500Y1463020I13100J-81978D01*
G02X1447480Y1380000I0J-83020D01*
G01Y1380010D01*
G02X1472760Y1439660I83023J-4D01*
G01X1476110Y1442890D01*
X1461860Y1471400D01*
G02X1459210Y1481500I17892J10092D01*
G02X1460260Y1488000I20543J16D01*
G01X1460720Y1489360D01*
G03X1448430Y1505260I-12292J3199D01*
G01X1414220D01*
G02X1399710Y1511270I0J20521D01*
G01X1388990Y1521990D01*
G02X1382980Y1536500I14511J14510D01*
G01Y1550980D01*
X1333500D01*
G02X1320480Y1564000I0J13020D01*
G01Y1704000D01*
G02X1333500Y1717020I13020J0D01*
G01X1473500D01*
G02X1483530Y1712300I0J-13017D01*
G01X1485430Y1710000D01*
X1499480D01*
Y1789990D01*
G02X1505490Y1804500I20521J0D01*
G01X1620490Y1919500D01*
G02X1635000Y1925510I14510J-14511D01*
G01X1709110D01*
X1709430Y1931520D01*
G02X1742720Y1963080I33290J-1777D01*
G02X1776060Y1929740I0J-33340D01*
G02X1761280Y1902040I-33347J0D01*
G03Y1880950I7071J-10545D01*
G02X1776060Y1853250I-18567J-27700D01*
G02X1742720Y1819910I-33340J0D01*
G02X1709430Y1851460I0J33338D01*
G01X1709110Y1857470D01*
X1654690D01*
X1567520Y1770300D01*
Y1690480D01*
G03X1590470Y1682990I12698J3D01*
G02X1657500Y1717020I67030J-49001D01*
G02X1740520Y1634000I0J-83020D01*
G02X1726850Y1588360I-83024J0D01*
G01X1724520Y1584830D01*
X1756990Y1536670D01*
X1789700Y1514860D01*
X1815880Y1520100D01*
X1818850Y1524560D01*
G02X1821420Y1527700I17086J-11363D01*
G01X1838230Y1544510D01*
G02X1852740Y1550520I14510J-14511D01*
G01X1872710D01*
Y1560510D01*
X1869560Y1562350D01*
G02X1828480Y1634000I41944J71650D01*
G02X1911500Y1717020I83020J0D01*
G02X1961860Y1700000I0J-83014D01*
G01X2009480D01*
Y1859990D01*
G02X2015490Y1874500I20521J0D01*
G01X2060490Y1919500D01*
G02X2075000Y1925510I14510J-14511D01*
G01X2109110D01*
X2109430Y1931520D01*
G02X2142720Y1963080I33290J-1777D01*
G37*
G36*
G01X9220630Y4147420D02*
Y4267860D01*
G02X9206660Y4295000I19378J27140D01*
G02X9273340I33340J0D01*
G02X9259370Y4267860I-33348J0D01*
G01Y3955000D01*
G02X9253700Y3941300I-19372J-6D01*
G01X9243700Y3931300D01*
G02X9230000Y3925630I-13694J13702D01*
G01X9210000D01*
G02X9196300Y3931300I-6J19372D01*
G01X9181300Y3946300D01*
G02X9175630Y3960000I13702J13694D01*
G01Y4105630D01*
X9092420D01*
G03X9083440Y4083950I2J-12700D01*
G01X9088700Y4078700D01*
G02X9094370Y4065000I-13702J-13694D01*
G01Y4045000D01*
G02X9088700Y4031300I-19372J-6D01*
G01X9078700Y4021300D01*
G02X9071410Y4016720I-13693J13703D01*
G03X9066640Y3995760I4208J-11980D01*
G01X9073700Y3988700D01*
G02X9079370Y3975000I-13702J-13694D01*
G01Y3960000D01*
G02X9073700Y3946300I-19372J-6D01*
G01X9058700Y3931300D01*
G02X9045000Y3925630I-13694J13702D01*
G01X8593020D01*
X8499370Y3831980D01*
Y3430000D01*
G02X8493700Y3416300I-19372J-6D01*
G01X8453700Y3376300D01*
G02X8440000Y3370630I-13694J13702D01*
G01X8368020D01*
X8233700Y3236300D01*
G02X8220000Y3230630I-13694J13702D01*
G01X7683020D01*
X7668000Y3215600D01*
X7668230Y3212680D01*
G02X7668340Y3210000I-33229J-2706D01*
G02X7635000Y3243340I-33340J0D01*
G02X7637680Y3243230I-26J-33339D01*
G01X7640600Y3243000D01*
X7661300Y3263700D01*
G02X7675000Y3269370I13694J-13702D01*
G01X8211980D01*
X8346300Y3403700D01*
G02X8360000Y3409370I13694J-13702D01*
G01X8431980D01*
X8460630Y3438020D01*
Y3840000D01*
G02X8466300Y3853700I19372J6D01*
G01X8571300Y3958700D01*
G02X8585000Y3964370I13694J-13702D01*
G01X8892580D01*
G03X8901560Y3986050I-2J12700D01*
G01X8901300Y3986300D01*
G02X8895630Y4000000I13702J13694D01*
G01Y4020000D01*
G02X8901300Y4033700I19372J6D01*
G01X8916300Y4048700D01*
G02X8917820Y4050060I13659J-13736D01*
G03Y4059940I-3991J4940D01*
G02X8916300Y4061300I12139J15096D01*
G01X8901300Y4076300D01*
G02X8895630Y4090000I13702J13694D01*
G01Y4115000D01*
G02X8901300Y4128700I19372J6D01*
G01X8911300Y4138700D01*
G02X8925000Y4144370I13694J-13702D01*
G01X9185000D01*
G02X9198700Y4138700I6J-19372D01*
G01X9198950Y4138440D01*
G03X9220630Y4147420I8980J8982D01*
G37*
G36*
G01X7365630Y6084980D02*
X7025890Y6424720D01*
G02X6978000Y6410780I-47890J75292D01*
G02X7067220Y6500000I0J89220D01*
G02X7055740Y6456220I-89219J0D01*
G01X7053370Y6452020D01*
X7398700Y6106700D01*
G02X7404370Y6093000I-13702J-13694D01*
G01Y5843020D01*
X7738700Y5508700D01*
G02X7744370Y5495000I-13702J-13694D01*
G01Y5265000D01*
G02X7738700Y5251300I-19372J-6D01*
G01X7684370Y5196980D01*
Y4633020D01*
X7748020Y4569370D01*
X8210000D01*
G02X8223700Y4563700I6J-19372D01*
G01X8278020Y4509370D01*
X8337860D01*
G02X8365000Y4523340I27140J-19378D01*
G02Y4456660I0J-33340D01*
G02X8337860Y4470630I0J33348D01*
G01X8270000D01*
G02X8256300Y4476300I-6J19372D01*
G01X8201980Y4530630D01*
X7740000D01*
G02X7726300Y4536300I-6J19372D01*
G01X7651300Y4611300D01*
G02X7645630Y4625000I13702J13694D01*
G01Y5205000D01*
G02X7651300Y5218700I19372J6D01*
G01X7705630Y5273020D01*
Y5486980D01*
X7371300Y5821300D01*
G02X7365630Y5835000I13702J13694D01*
G01Y6084980D01*
G37*
G36*
G01X7122530Y3778020D02*
X7144190D01*
G03X7155720Y3796040I0J12699D01*
G02X7152660Y3809990I30282J13953D01*
G01Y3810000D01*
G02X7156930Y3826320I33339J-4D01*
G01X7157740Y3827770D01*
Y4291000D01*
G02X7166020Y4310980I28246J0D01*
G01X7287450Y4432420D01*
X7287900Y4434020D01*
G02X7320000Y4458340I32100J-9024D01*
G02X7353340Y4425000I0J-33340D01*
G02X7329020Y4392900I-33344J0D01*
G01X7327420Y4392450D01*
X7214260Y4279290D01*
Y3838260D01*
X7233890D01*
G02X7235000Y3838280I1064J-28261D01*
G02X7255000Y3830000I5J-28282D01*
G01X7256740Y3828260D01*
X7858290D01*
X7912450Y3882420D01*
X7912900Y3884020D01*
G02X7945000Y3908340I32100J-9024D01*
G02X7978340Y3875000I0J-33340D01*
G02X7954020Y3842900I-33344J0D01*
G01X7952420Y3842450D01*
X7909670Y3799700D01*
G03X7918640Y3778020I8977J-8981D01*
G01X7930390D01*
X8055390Y3653020D01*
X8264610D01*
X8281980Y3670390D01*
Y3960390D01*
X8374610Y4053020D01*
X8379590D01*
G03X8392160Y4067490I-7J12701D01*
G02X8391980Y4070000I17838J2541D01*
G01Y4210000D01*
G02X8410000Y4228020I18020J0D01*
G01X8550000D01*
G02X8568020Y4210000I0J-18020D01*
G01Y4111760D01*
G03X8578860Y4107270I6351J2D01*
G01X8586980Y4115390D01*
Y4395390D01*
X8759610Y4568020D01*
X8794370D01*
X8794770Y4568070D01*
G02X8799000Y4568340I4234J-33070D01*
G02X8803230Y4568070I-4J-33340D01*
G01X8803630Y4568020D01*
X8820390D01*
X8838020Y4550390D01*
Y4469610D01*
X8708020Y4339610D01*
Y4074610D01*
X8620390Y3986980D01*
X8555390D01*
X8443020Y3874610D01*
Y3549630D01*
X8443070Y3549230D01*
G02X8443340Y3545000I-33070J-4234D01*
G02X8443070Y3540770I-33340J4D01*
G01X8443020Y3540370D01*
Y3469630D01*
X8443070Y3469230D01*
G02X8443340Y3465000I-33070J-4234D01*
G02X8443070Y3460770I-33340J4D01*
G01X8443020Y3460370D01*
Y3454610D01*
X8440940Y3452530D01*
X8440460Y3451450D01*
G02X8423550Y3434540I-30460J13550D01*
G01X8422470Y3434060D01*
X8415390Y3426980D01*
X8335390D01*
X8280390Y3371980D01*
X8164610D01*
X8139610Y3396980D01*
X7799610D01*
X7699610Y3496980D01*
X6855390D01*
X6785390Y3426980D01*
X6780390D01*
X6465390Y3111980D01*
X4615390D01*
X4340390Y2836980D01*
X4314630D01*
X4314230Y2836930D01*
G02X4310000Y2836660I-4234J33070D01*
G02X4305770Y2836930I4J33340D01*
G01X4305370Y2836980D01*
X4229630D01*
X4229230Y2836930D01*
G02X4225000Y2836660I-4234J33070D01*
G02X4220770Y2836930I4J33340D01*
G01X4220370Y2836980D01*
X4204610D01*
X4166980Y2874610D01*
Y3335390D01*
X4234610Y3403020D01*
X4246690D01*
G03X4251170Y3413860I-7J6349D01*
G01X4081580Y3583450D01*
X4079980Y3583900D01*
G02X4072680Y3586930I9041J32091D01*
G01X4071230Y3587740D01*
X4023770D01*
X4022320Y3586930D01*
G02X4006000Y3582660I-16324J29069D01*
G02X3972660Y3616000I0J33340D01*
G02X3976690Y3631890I33342J0D01*
G03X3965530Y3650640I-11166J6050D01*
G01X3948030D01*
X3923000Y3625600D01*
X3923230Y3622680D01*
G02X3923340Y3620000I-33229J-2706D01*
G02X3890000Y3653340I-33340J0D01*
G02X3892680Y3653230I-26J-33339D01*
G01X3895600Y3653000D01*
X3905600Y3662990D01*
G03X3896620Y3684670I-8982J8980D01*
G01X3733020D01*
X3684660Y3636300D01*
G02X3670970Y3630630I-13694J13702D01*
G01X2919990D01*
G02X2906300Y3636300I4J19372D01*
G01X2691980Y3850630D01*
X810020D01*
X255700Y3296300D01*
G02X242010Y3290630I-13694J13702D01*
G01X-999980D01*
X-1021000Y3269600D01*
X-1020770Y3266680D01*
G02X-1020660Y3264000I-33229J-2706D01*
G02X-1054000Y3297340I-33340J0D01*
G02X-1051320Y3297230I-26J-33339D01*
G01X-1048400Y3297000D01*
X-1021700Y3323700D01*
G02X-1008010Y3329370I13694J-13702D01*
G01X233980D01*
X244400Y3339790D01*
G03X239910Y3350630I-4492J4489D01*
G01X-1186980D01*
X-1207000Y3330600D01*
X-1206770Y3327680D01*
G02X-1206660Y3325000I-33229J-2706D01*
G02X-1240000Y3358340I-33340J0D01*
G02X-1237320Y3358230I-26J-33339D01*
G01X-1234400Y3358000D01*
X-1222600Y3369790D01*
G03X-1227090Y3380630I-4492J4489D01*
G01X-1266980D01*
X-1317000Y3330600D01*
X-1316770Y3327680D01*
G02X-1316660Y3325000I-33229J-2706D01*
G02X-1350000Y3358340I-33340J0D01*
G02X-1347320Y3358230I-26J-33339D01*
G01X-1344400Y3358000D01*
X-1288700Y3413700D01*
G02X-1275010Y3419370I13694J-13702D01*
G01X232050D01*
X761370Y3948700D01*
G02X775060Y3954370I13694J-13702D01*
G01X2745010D01*
G02X2758700Y3948700I-4J-19372D01*
G01X2908020Y3799370D01*
X3015010D01*
G02X3028700Y3793700I-4J-19372D01*
G01X3088020Y3734370D01*
X3124650D01*
G03X3137160Y3749260I0J12700D01*
G02X3136660Y3755000I32839J5752D01*
G02X3203340I33340J0D01*
G02X3202840Y3749260I-33339J12D01*
G03X3215350Y3734370I12510J-2190D01*
G01X3229320D01*
Y3741900D01*
X3228890Y3743000D01*
G02X3226660Y3754980I31112J11989D01*
G01Y3755000D01*
G02X3293340I33340J0D01*
G02X3292840Y3749260I-33339J12D01*
G03X3305350Y3734370I12510J-2190D01*
G01X3601980D01*
X3651300Y3783700D01*
G02X3664990Y3789370I13694J-13702D01*
G01X4135010D01*
G02X4148700Y3783700I-4J-19372D01*
G01X4353020Y3579370D01*
X5091600D01*
X5092900Y3584000D01*
G02X5125000Y3608340I32100J-8997D01*
G02X5158340Y3575000I0J-33340D01*
G02X5154140Y3558800I-33343J0D01*
G01X5153340Y3557370D01*
Y3549370D01*
X5166980D01*
X5187000Y3569400D01*
X5186770Y3572320D01*
G02X5186660Y3575000I33229J2706D01*
G02X5220000Y3541660I33340J0D01*
G02X5217320Y3541770I26J33339D01*
G01X5214400Y3542000D01*
X5202600Y3530210D01*
G03X5207090Y3519370I4492J-4489D01*
G01X5336980D01*
X5387000Y3569400D01*
X5386770Y3572320D01*
G02X5386660Y3575000I33229J2706D01*
G02X5420000Y3608340I33340J0D01*
G02X5452500Y3582420I0J-33335D01*
G03X5473870Y3576260I12385J2818D01*
G01X5580630Y3683020D01*
Y4146980D01*
X5546300Y4181300D01*
G02X5540630Y4194990I13702J13694D01*
G01Y5460010D01*
G02X5546300Y5473700I19372J-4D01*
G01X5670630Y5598020D01*
Y5775010D01*
G02X5676300Y5788700I19372J-4D01*
G01X5728000Y5840400D01*
X5727770Y5843320D01*
G02X5727660Y5846000I33229J2706D01*
G02X5761000Y5812660I33340J0D01*
G02X5758320Y5812770I26J33339D01*
G01X5755400Y5813000D01*
X5709370Y5766980D01*
Y5589990D01*
G02X5703700Y5576300I-19372J4D01*
G01X5579370Y5451980D01*
Y4203020D01*
X5613700Y4168700D01*
G02X5619370Y4155010I-13702J-13694D01*
G01Y3714990D01*
G03X5641050Y3706020I12699J7D01*
G01X5816740Y3881710D01*
Y4186160D01*
G03X5800170Y4198250I-12700J-6D01*
G02X5790000Y4196660I-10173J31750D01*
G02X5756660Y4230000I0J33340D01*
G02X5760930Y4246320I33339J-4D01*
G01X5761740Y4247770D01*
Y4560000D01*
G02X5770020Y4579980I28246J0D01*
G01X5971740Y4781710D01*
Y5296160D01*
G03X5955170Y5308250I-12700J-6D01*
G02X5945000Y5306660I-10173J31750D01*
G02Y5373340I0J33340D01*
G02X5946090Y5373320I-67J-33339D01*
G03X5958440Y5390350I412J12694D01*
G02X5956740Y5400000I26559J9654D01*
G01Y5688290D01*
X5825020Y5820020D01*
G02X5816740Y5840000I19966J19980D01*
G01Y5878290D01*
X5748290Y5946740D01*
X5430000D01*
G02X5410020Y5955020I0J28246D01*
G01X5170020Y6195020D01*
G02X5161740Y6215000I19966J19980D01*
G01Y6458290D01*
X5067580Y6552450D01*
X5065980Y6552900D01*
G02X5041660Y6585000I9024J32100D01*
G02X5045930Y6601320I33339J-4D01*
G01X5046740Y6602770D01*
Y6647230D01*
X5045930Y6648680D01*
G02X5041660Y6665000I29069J16324D01*
G02X5108340I33340J0D01*
G02X5104070Y6648680I-33339J4D01*
G01X5103260Y6647230D01*
Y6602770D01*
X5104070Y6601320D01*
G02X5107100Y6594020I-29061J-16341D01*
G01X5107550Y6592420D01*
X5209980Y6489980D01*
G02X5218260Y6470000I-19966J-19980D01*
G01Y6226710D01*
X5441710Y6003260D01*
X5760000D01*
G02X5779980Y5994980I0J-28246D01*
G01X5864980Y5909980D01*
G02X5873260Y5890000I-19966J-19980D01*
G01Y5851710D01*
X6004980Y5719980D01*
G02X6013260Y5700000I-19966J-19980D01*
G01Y5583880D01*
G03X6034940Y5574910I12699J7D01*
G01X6061740Y5601710D01*
Y5728290D01*
X5976970Y5813060D01*
X5974010Y5812800D01*
G02X5971000Y5812660I-3052J33198D01*
G02X5937660Y5846000I0J33340D01*
G02X5961980Y5878100I33344J0D01*
G01X5963580Y5878550D01*
X6005020Y5919980D01*
G02X6025000Y5928260I19980J-19966D01*
G01X6785000D01*
G02X6804980Y5919980I0J-28246D01*
G01X6864980Y5859980D01*
G02X6873260Y5840000I-19966J-19980D01*
G01Y5071710D01*
X7449980Y4494980D01*
G02X7458260Y4475000I-19966J-19980D01*
G01Y4447770D01*
X7459070Y4446320D01*
G02X7463340Y4430000I-29069J-16324D01*
G02X7396660I-33340J0D01*
G02X7400930Y4446320I33339J-4D01*
G01X7401740Y4447770D01*
Y4463290D01*
X6841050Y5023980D01*
G03X6819370Y5015010I-8981J-8977D01*
G01Y4998020D01*
X7028700Y4788700D01*
G02X7034370Y4775010I-13702J-13694D01*
G01Y4364990D01*
G02X7028700Y4351300I-19372J4D01*
G01X7008000Y4330600D01*
X7008230Y4327680D01*
G02X7008340Y4325000I-33229J-2706D01*
G02X6975000Y4291660I-33340J0D01*
G02X6972320Y4291770I26J33339D01*
G01X6969400Y4292000D01*
X6878700Y4201300D01*
G02X6865010Y4195630I-13694J13702D01*
G01X6783020D01*
X6243000Y3655600D01*
X6243230Y3652680D01*
G02X6243340Y3650000I-33229J-2706D01*
G02X6210000Y3683340I-33340J0D01*
G02X6212680Y3683230I-26J-33339D01*
G01X6215600Y3683000D01*
X6761300Y4228700D01*
G02X6774990Y4234370I13694J-13702D01*
G01X6856980D01*
X6942000Y4319400D01*
X6941770Y4322320D01*
G02X6941660Y4325000I33229J2706D01*
G02X6975000Y4358340I33340J0D01*
G02X6977680Y4358230I-26J-33339D01*
G01X6980600Y4358000D01*
X6995630Y4373020D01*
Y4766980D01*
X6786300Y4976300D01*
G02X6780630Y4989990I13702J13694D01*
G01Y5376980D01*
X6751980Y5405630D01*
X6632140D01*
G02X6605000Y5391660I-27140J19378D01*
G02Y5458340I0J33340D01*
G02X6632140Y5444370I0J-33348D01*
G01X6760010D01*
G02X6773700Y5438700I-4J-19372D01*
G01X6795060Y5417330D01*
G03X6816740Y5426310I8980J8982D01*
G01Y5828290D01*
X6773290Y5871740D01*
X6112840D01*
G03X6100750Y5855170I6J-12700D01*
G02X6102340Y5845000I-31750J-10173D01*
G02X6102230Y5842320I-33339J26D01*
G01X6102000Y5839400D01*
X6122020Y5819370D01*
X6215010D01*
G02X6228700Y5813700I-4J-19372D01*
G01X6253700Y5788700D01*
G02X6259370Y5775010I-13702J-13694D01*
G01Y4779990D01*
G02X6253700Y4766300I-19372J4D01*
G01X6014370Y4526980D01*
Y3944990D01*
G02X6008700Y3931300I-19372J4D01*
G01X5642090Y3564700D01*
G03X5651070Y3543020I8982J-8980D01*
G01X6259610D01*
X6494610Y3778020D01*
X7087470D01*
G02X7122530I17530J-28032D01*
G37*
G36*
G01X5506600Y744370D02*
X5526980D01*
X5562000Y779400D01*
X5561770Y782320D01*
G02X5561660Y785000I33229J2706D01*
G02X5595000Y751660I33340J0D01*
G02X5592320Y751770I26J33339D01*
G01X5589400Y752000D01*
X5561640Y724240D01*
G03X5566410Y703280I8978J-8980D01*
G02X5573700Y698700I-6403J-18283D01*
G01X5592500Y679890D01*
X5616300Y703700D01*
G02X5629990Y709370I13694J-13702D01*
G01X5781980D01*
X5790630Y718020D01*
Y757860D01*
G02X5776660Y785000I19378J27140D01*
G02X5843340I33340J0D01*
G02X5829370Y757860I-33348J0D01*
G01Y709990D01*
G02X5823700Y696300I-19372J4D01*
G01X5803700Y676300D01*
G02X5790010Y670630I-13694J13702D01*
G01X5638020D01*
X5634370Y666980D01*
Y589990D01*
G02X5628700Y576300I-19372J4D01*
G01X5448700Y396300D01*
G02X5435010Y390630I-13694J13702D01*
G01X5313020D01*
X5309370Y386980D01*
Y279990D01*
G02X5303700Y266300I-19372J4D01*
G01X5288700Y251300D01*
G02X5275010Y245630I-13694J13702D01*
G01X5143020D01*
X5134370Y236980D01*
Y119990D01*
G02X5128700Y106300I-19372J4D01*
G01X5098700Y76300D01*
G02X5085010Y70630I-13694J13702D01*
G01X5018020D01*
X4988700Y41300D01*
G02X4975010Y35630I-13694J13702D01*
G01X4639990D01*
G02X4626300Y41300I4J19372D01*
G01X4611300Y56300D01*
G02X4605630Y69990I13702J13694D01*
G01Y85010D01*
G02X4611300Y98700I19372J-4D01*
G01X4625110Y112500D01*
X4606300Y131300D01*
G02X4600630Y144990I13702J13694D01*
G01Y184120D01*
G02X4606290Y198710I19366J880D01*
G01X4617870Y210290D01*
Y215630D01*
X4594990D01*
G02X4581300Y221300I4J19372D01*
G01X4561300Y241300D01*
G02X4555630Y254990I13702J13694D01*
G01Y275010D01*
G02X4561300Y288700I19372J-4D01*
G01X4576300Y303700D01*
G02X4589990Y309370I13694J-13702D01*
G01X4986980D01*
X5105630Y428020D01*
Y755010D01*
G02X5111300Y768700I19372J-4D01*
G01X5126300Y783700D01*
G02X5139990Y789370I13694J-13702D01*
G01X5155010D01*
G02X5168700Y783700I-4J-19372D01*
G01X5178700Y773700D01*
G02X5183280Y766410I-13703J-13693D01*
G03X5204240Y761640I11980J4208D01*
G01X5211300Y768700D01*
G02X5224990Y774370I13694J-13702D01*
G01X5431980D01*
X5437000Y779400D01*
X5436770Y782320D01*
G02X5436660Y785000I33229J2706D01*
G02X5503340I33340J0D01*
G02X5496500Y764770I-33336J0D01*
G03X5506600Y744370I10099J-7700D01*
G37*
G36*
G01X5700000Y598260D02*
X5827230D01*
X5828680Y599070D01*
G02X5845000Y603340I16324J-29069D01*
G02Y536660I0J-33340D01*
G02X5828680Y540930I4J33339D01*
G01X5827230Y541740D01*
X5711710D01*
X5207550Y37580D01*
X5207100Y35980D01*
G02X5175000Y11660I-32100J9024D01*
G02X5141660Y45000I0J33340D01*
G02X5165980Y77100I33344J0D01*
G01X5167580Y77550D01*
X5680020Y589980D01*
G02X5700000Y598260I19980J-19966D01*
G37*
G36*
G01X4612140Y604370D02*
X4890010D01*
G02X4903700Y598700I-4J-19372D01*
G01X4994400Y508000D01*
X4997320Y508230D01*
G02X5000000Y508340I2706J-33229D01*
G02X4966660Y475000I0J-33340D01*
G02X4966770Y477680I33339J-26D01*
G01X4967000Y480600D01*
X4881980Y565630D01*
X4612140D01*
G02X4585000Y551660I-27140J19378D01*
G02Y618340I0J33340D01*
G02X4612140Y604370I0J-33348D01*
G37*
G36*
G01X4562110Y406490D02*
G02X4567780Y420180I19372J-4D01*
G01X4590110Y442500D01*
X4566300Y466300D01*
G02X4560630Y479990I13702J13694D01*
G01Y497310D01*
G02X4566300Y511000I19372J-4D01*
G01X4579000Y523700D01*
G02X4592690Y529370I13694J-13702D01*
G01X4865010D01*
G02X4878700Y523700I-4J-19372D01*
G01X4904400Y498000D01*
X4907320Y498230D01*
G02X4910000Y498340I2706J-33229D01*
G02Y431660I0J-33340D01*
G02X4899740Y433280I6J33339D01*
G03X4883630Y424680I-3899J-12085D01*
G02X4878350Y415950I-18634J5308D01*
G03X4887420Y394370I9075J-8882D01*
G01X4986980D01*
X5050630Y458020D01*
Y795010D01*
G02X5056300Y808700I19372J-4D01*
G01X5116300Y868700D01*
G02X5129990Y874370I13694J-13702D01*
G01X5630010D01*
G02X5643700Y868700I-4J-19372D01*
G01X5694400Y818000D01*
X5697320Y818230D01*
G02X5700000Y818340I2706J-33229D01*
G02X5666660Y785000I0J-33340D01*
G02X5666770Y787680I33339J-26D01*
G01X5667000Y790600D01*
X5621980Y835630D01*
X5138020D01*
X5089370Y786980D01*
Y449990D01*
G02X5083700Y436300I-19372J4D01*
G01X5008700Y361300D01*
G02X4995010Y355630I-13694J13702D01*
G01X4594990D01*
G02X4581300Y361300I4J19372D01*
G01X4567780Y374820D01*
G02X4562110Y388510I13702J13694D01*
G01Y406490D01*
G37*
G36*
G01X9053610Y866380D02*
Y1000310D01*
G03X9047300Y1006660I-6350J0D01*
G02X9014160Y1040000I201J33340D01*
G02X9080840I33340J0D01*
G01Y1039790D01*
X9080820Y1037140D01*
X9088750Y1029210D01*
X9096680Y1037140D01*
X9096660Y1039790D01*
Y1040000D01*
G02X9163340I33340J0D01*
G02X9130200Y1006660I-33341J0D01*
G03X9123890Y1000310I40J-6350D01*
G01Y886570D01*
X9338920Y671540D01*
X9570630D01*
G02X9585860Y665230I0J-21535D01*
G01X9618830Y632260D01*
G02X9625140Y617030I-15225J-15230D01*
G01Y575960D01*
X9629540Y571560D01*
X9634410D01*
X9636460Y573610D01*
G02X9660000Y583340I23540J-23610D01*
G02Y516660I0J-33340D01*
G02X9634570Y528440I0J33338D01*
G01X9620640D01*
G02X9604730Y535450I0J21560D01*
G01X9590000Y550180D01*
X9575270Y535450D01*
G02X9559360Y528440I-15910J14550D01*
G01X9545430D01*
G02X9520000Y516660I-25430J21558D01*
G02Y583340I0J33340D01*
G02X9543540Y573610I0J-33340D01*
G01X9545590Y571560D01*
X9550460D01*
X9554860Y575960D01*
Y596840D01*
X9550440Y601260D01*
X9318730D01*
G02X9303500Y607570I0J21535D01*
G01X9059920Y851150D01*
G02X9053610Y866380I15225J15230D01*
G37*
G36*
G01X9710010Y421580D02*
X9369990D01*
G02X9342830Y432830I5J38422D01*
G01X9272830Y502830D01*
G02X9261580Y529990I27172J27165D01*
G01Y530000D01*
G02X9300000Y568420I38420J0D01*
G01X9300010D01*
G02X9327170Y557170I-5J-38422D01*
G01X9385910Y498420D01*
X9694090D01*
X9752830Y557170D01*
G02X9779990Y568420I27165J-27172D01*
G01X9780000D01*
G02X9818420Y530000I0J-38420D01*
G01Y529990D01*
G02X9807170Y502830I-38422J5D01*
G01X9737170Y432830D01*
G02X9710010Y421580I-27165J27172D01*
G37*
G36*
G01X7310000Y-188020D02*
X7170000D01*
G02X7151980Y-170000I0J18020D01*
G01Y-30000D01*
G02X7170000Y-11980I18020J0D01*
G01X7310000D01*
G02X7328020Y-30000I0J-18020D01*
G01Y-170000D01*
G02X7310000Y-188020I-18020J0D01*
G37*
G36*
G01X9654790Y281660D02*
X9652140Y281680D01*
X9625230Y254770D01*
G02X9610000Y248460I-15230J15225D01*
G01X9545000D01*
G02X9529770Y254770I0J21535D01*
G01X9502860Y281680D01*
X9500210Y281660D01*
X9500000D01*
G02X9474650Y293340I0J33350D01*
G03X9455350I-9650J-8251D01*
G02X9430000Y281660I-25350J21670D01*
G02Y348340I0J33340D01*
G01X9430210D01*
X9432860Y348320D01*
X9459770Y375230D01*
G02X9475000Y381540I15230J-15225D01*
G01X9535000D01*
G02X9550230Y375230I0J-21535D01*
G01X9577140Y348320D01*
X9579790Y348340D01*
X9580000D01*
G02X9607160Y334340I0J-33345D01*
G03X9627840I10340J7370D01*
G02X9655000Y348340I27160J-19345D01*
G02X9688340Y315000I0J-33340D01*
G01Y314790D01*
X9688320Y312140D01*
X9753920Y246540D01*
X9908930D01*
G03X9919170Y266750I-2J12700D01*
G02X9906480Y305500I52818J38750D01*
G01Y410500D01*
G02X10037520I65520J0D01*
G01Y307640D01*
G03X10059200Y298660I12700J1D01*
G01X10087680Y327140D01*
X10087660Y329790D01*
Y330000D01*
G02X10121000Y296660I33340J0D01*
G01X10120790D01*
X10118140Y296680D01*
X10031230Y209770D01*
G02X10016000Y203460I-15230J15225D01*
G01X9745000D01*
G02X9729770Y209770I0J21535D01*
G01X9657860Y281680D01*
X9655210Y281660D01*
X9654790D01*
G37*
G54D53*
X9251000Y308000D03*
X9829000D03*
G54D43*
X7100000Y4650000D03*
X6070000Y4505000D03*
X6670000Y4440000D03*
X6125000Y3944500D03*
X4980000Y3720000D03*
Y3800000D03*
X7125000Y3215000D03*
X6987500Y3202500D03*
X6855000Y3365000D03*
X4115000Y2890000D03*
Y2990000D03*
X8510000Y2851000D03*
X4760000Y6625000D03*
X-1000000Y6639000D03*
X4760000Y6545000D03*
X100000Y6535000D03*
X5470000Y6265000D03*
X5320000D03*
X4939000Y5874000D03*
X-1870000Y5840000D03*
Y5920000D03*
X-1725000Y5925000D03*
Y5845000D03*
X160000Y5695000D03*
X5101000Y5425000D03*
X160000Y5470000D03*
X-1670000Y4840000D03*
X-1585000D03*
X-1755000D03*
X-1835000D03*
X9484000Y4444000D03*
X-495000Y4215000D03*
X-405000D03*
X-1160000D03*
Y4295000D03*
X-1320000Y4215000D03*
Y4295000D03*
X-1240000Y4215000D03*
Y4295000D03*
X-1670000Y4180000D03*
X-1585000D03*
X-1755000D03*
X-1835000D03*
X-1353010Y3541990D03*
X-1270000Y3545000D03*
X10475000Y3279000D03*
X3681000Y3220000D03*
X2380000Y3040000D03*
X1830000Y3050000D03*
X1260000Y2880000D03*
X5141000Y2619000D03*
X3270000Y2810000D03*
X3350000D03*
X3270000Y2730000D03*
X3350000D03*
X1250000Y2660000D03*
X9720000Y2460000D03*
X9340000Y2505000D03*
X9140000D03*
X8230000Y2455000D03*
X2480000Y2385000D03*
X2390000D03*
X2140000Y2400000D03*
X-630000Y2350000D03*
X-850000D03*
X-800000Y2471250D03*
X2300000Y2120000D03*
X1870000D03*
X1515000Y2260000D03*
X1465000Y2120000D03*
X1020000Y2080000D03*
X940000D03*
X870000Y2130000D03*
Y2210000D03*
X7980000Y1979000D03*
X5500000Y2040000D03*
X2690000Y1920010D03*
X-1720010Y1910010D03*
X-1090000Y1800000D03*
X7605000Y1455000D03*
X-1339990Y1430000D03*
X5500000Y1250000D03*
X-1570000Y1150000D03*
X7785000Y885000D03*
X7500000Y739000D03*
X430000Y620000D03*
Y710000D03*
X-260000Y380000D03*
X3260000Y3845000D03*
X3170000D03*
X4115000Y2040000D03*
X8140000Y-150000D03*
X8230000D03*
X8140000Y110000D03*
X8230000D03*
G54D51*
X9108000Y358000D03*
G54D45*
X3795000Y5570000D03*
X1975000D03*
Y4590000D03*
G54D47*
X1403500Y745000D03*
G54D52*
X9972000Y-60000D03*
X9108000D03*
G54D50*
X-1065000Y450000D03*
G54D46*
X2546500Y1380000D03*
G54D49*
X-1465000Y-50000D03*
G54D44*
X8480000Y4394000D03*
X7364000Y5120000D03*
X6930000Y154000D03*
X7240000D03*
G54D48*
X2637990Y339010D03*
%LPD*%
G75*
G36*
G01X-1150000Y5780000D02*
Y6170000D01*
X-1250000Y6270000D01*
Y6420000D01*
X-1240000Y6430000D01*
X-1000000D01*
X-980000Y6410000D01*
Y5770000D01*
X-990000Y5760000D01*
X-1130000D01*
X-1150000Y5780000D01*
G37*
G36*
G01X-810000Y4700000D02*
X290000D01*
X450000Y4540000D01*
Y4270000D01*
X440000Y4260000D01*
X320000D01*
X160000Y4420000D01*
X150900D01*
X149730Y4420490D01*
G03X135000Y4423420I-14716J-35493D01*
G03X120270Y4420490I-14J-38423D01*
G01X119100Y4420000D01*
X10900D01*
X9730Y4420490D01*
G03X-5000Y4423420I-14716J-35493D01*
G03X-19730Y4420490I-14J-38423D01*
G01X-20900Y4420000D01*
X-290390D01*
X-291610Y4420530D01*
G03X-305000Y4423340I-13397J-30529D01*
G03X-318390Y4420530I7J-33339D01*
G01X-319610Y4420000D01*
X-710000D01*
X-790000Y4340000D01*
X-960000D01*
X-970000Y4350000D01*
Y4540000D01*
X-810000Y4700000D01*
G37*
G36*
G01X2928020Y3669370D02*
X2888440Y3708950D01*
G02X2897420Y3730630I8982J8980D01*
G01X2981980D01*
X3021560Y3691050D01*
G02X3012580Y3669370I-8982J-8980D01*
G01X2928020D01*
G37*
G36*
G01X8765000Y4555000D02*
X8815000D01*
X8825000Y4545000D01*
Y4475000D01*
X8695000Y4345000D01*
Y4080000D01*
X8615000Y4000000D01*
X8550000D01*
X8430000Y3880000D01*
Y3460000D01*
X8410000Y3440000D01*
X8330000D01*
X8275000Y3385000D01*
X8170000D01*
X8145000Y3410000D01*
X8099370D01*
G02X8087130Y3426090I-2J12699D01*
G03X8088340Y3435000I-32131J8901D01*
G03X8021660I-33340J0D01*
G03X8022870Y3426090I33341J-9D01*
G02X8010630Y3410000I-12238J-3391D01*
G01X7920280D01*
G02X7909170Y3428850I0J12699D01*
G03X7913340Y3445000I-29171J16145D01*
G03X7846660I-33340J0D01*
G03X7850830Y3428850I33341J-5D01*
G02X7839720Y3410000I-11110J-6151D01*
G01X7805000D01*
X7705000Y3510000D01*
X6850000D01*
X6780000Y3440000D01*
X6775000D01*
X6460000Y3125000D01*
X4610000D01*
X4335000Y2850000D01*
X4210000D01*
X4180000Y2880000D01*
Y3330000D01*
X4240000Y3390000D01*
X5044040D01*
G02X5056720Y3378050I2J-12701D01*
G03X5090000Y3346660I33280J1947D01*
G03X5117140Y3360630I0J33348D01*
G01X5430000D01*
G03X5443700Y3366300I6J19372D01*
G01X5467390Y3390000D01*
X5470000D01*
X5610000Y3530000D01*
X6265000D01*
X6500000Y3765000D01*
X6957190D01*
G02X6966240Y3743390I2J-12699D01*
G03X6956660Y3720000I23764J-23390D01*
G03X7023340I33340J0D01*
G03X7013760Y3743390I-33344J0D01*
G02X7022810Y3765000I9048J8911D01*
G01X7059020D01*
G02X7071700Y3751670I-3J-12699D01*
G03X7071660Y3750000I33301J-1633D01*
G03X7138340I33340J0D01*
G03X7138300Y3751670I-33341J37D01*
G02X7150980Y3765000I12683J631D01*
G01X7515630D01*
G02X7527870Y3748910I2J-12699D01*
G03X7526660Y3740000I32131J-8901D01*
G03X7593340I33340J0D01*
G03X7592130Y3748910I-33341J9D01*
G02X7604370Y3765000I12238J3391D01*
G01X7639020D01*
G02X7651700Y3751670I-3J-12699D01*
G03X7651660Y3750000I33301J-1633D01*
G03X7718340I33340J0D01*
G03X7718300Y3751670I-33341J37D01*
G02X7730980Y3765000I12683J631D01*
G01X7925000D01*
X8050000Y3640000D01*
X8054540D01*
G02X8067080Y3625290I1J-12699D01*
G03X8066660Y3620000I32921J-5275D01*
G03X8133340I33340J0D01*
G03X8132920Y3625290I-33341J15D01*
G02X8145460Y3640000I12539J2011D01*
G01X8270000D01*
X8295000Y3665000D01*
Y3955000D01*
X8380000Y4040000D01*
X8530000D01*
X8541980Y4051980D01*
X8550000D01*
G03X8568020Y4070000I0J18020D01*
G01Y4078020D01*
X8600000Y4110000D01*
Y4390000D01*
X8765000Y4555000D01*
G37*
G36*
G01X5688020Y2990630D02*
X6482580D01*
G02X6491560Y2968950I-2J-12700D01*
G01X6471980Y2949370D01*
X5677420D01*
G02X5668440Y2971050I2J12700D01*
G01X5688020Y2990630D01*
G37*
G36*
G01X6109980Y5759980D02*
X6100180Y5769790D01*
G02X6104670Y5780630I4487J4491D01*
G01X6206980D01*
X6220630Y5766980D01*
Y4788020D01*
X5981300Y4548700D01*
G03X5975630Y4535000I13702J-13694D01*
G01Y3953020D01*
X5884100Y3861490D01*
G02X5873260Y3865980I-4489J4492D01*
G01Y4523290D01*
X6064980Y4715020D01*
G03X6073260Y4735000I-19966J19980D01*
G01Y5533290D01*
X6109980Y5570020D01*
G03X6118260Y5590000I-19966J19980D01*
G01Y5740000D01*
G03X6109980Y5759980I-28246J0D01*
G37*
G36*
G01X7466560Y2688950D02*
X7436980Y2659370D01*
X7300000D01*
G03X7286300Y2653700I-6J-19372D01*
G01X7091980Y2459370D01*
X7032420D01*
G02X7023440Y2481050I2J12700D01*
G01X7253020Y2710630D01*
X7457580D01*
G02X7466560Y2688950I-2J-12700D01*
G37*
G36*
G01X7418020Y2830630D02*
X7527580D01*
G02X7536560Y2808950I-2J-12700D01*
G01X7476980Y2749370D01*
X7367420D01*
G02X7358440Y2771050I2J12700D01*
G01X7418020Y2830630D01*
G37*
G36*
G01X7298020Y2865630D02*
X7367580D01*
G02X7376560Y2843950I-2J-12700D01*
G01X7311980Y2779370D01*
X7242420D01*
G02X7233440Y2801050I2J12700D01*
G01X7298020Y2865630D01*
G37*
G36*
G01X7821560Y2973950D02*
X7751980Y2904370D01*
X7322410D01*
G02X7313430Y2926050I2J12700D01*
G01X7383010Y2995630D01*
X7812580D01*
G02X7821560Y2973950I-2J-12700D01*
G37*
G36*
G01X7733020Y3160630D02*
X7927580D01*
G02X7936560Y3138950I-2J-12700D01*
G01X7831980Y3034370D01*
X7637420D01*
G02X7628440Y3056050I2J12700D01*
G01X7733020Y3160630D01*
G37*
%LPC*%
G75*
G54D43*
X-805000Y4615000D03*
Y4515000D03*
X-670000Y4585000D03*
X4230000Y3190000D03*
X4340000D03*
X5391000Y3184000D03*
X5489000Y3185000D03*
X6319500Y3230500D03*
X6360000Y3430000D03*
X6505000D03*
X6985000Y3570000D03*
X7385000Y3590000D03*
X8015000Y3530000D03*
X8165000Y3545000D03*
%LPD*%
G75*
G54D10*
X-1964680Y-112550D03*
X-1761280Y-264680D03*
X-1964680Y141450D03*
Y395450D03*
Y649450D03*
X-1890000Y960000D03*
X-1810000D03*
X-1890000Y880000D03*
X-1810000D03*
X-1964680Y903450D03*
X-1890000Y1045000D03*
Y1130000D03*
X-1810000D03*
Y1045000D03*
X-1964680Y1157450D03*
X-1890000Y1520000D03*
X-1810000D03*
X-1890000Y1440000D03*
X-1810000D03*
X-1964680Y1411450D03*
X-1890000Y1605000D03*
Y1690000D03*
X-1810000D03*
Y1605000D03*
X-1964680Y1665450D03*
X-1890000Y2060000D03*
Y1980000D03*
X-1810000Y2060000D03*
Y1980000D03*
X-1964680Y1919450D03*
X-1720010Y1910010D03*
X-1890000Y2145000D03*
Y2230000D03*
X-1810000Y2145000D03*
Y2230000D03*
X-1964680Y2173450D03*
X-1840000Y2375000D03*
X-1760000D03*
X-1840000Y2475000D03*
X-1760000D03*
X-1964680Y2427450D03*
Y2681450D03*
X-1760000Y3045000D03*
X-1840000D03*
X-1964680Y2935450D03*
X-1760000Y3145000D03*
X-1840000D03*
X-1964680Y3189450D03*
Y3443450D03*
Y3697450D03*
X-1835000Y4180000D03*
X-1755000D03*
X-1964680Y3951450D03*
Y4459450D03*
Y4205450D03*
Y4713450D03*
X-1835000Y4840000D03*
X-1755000D03*
X-1964680Y4967450D03*
Y5221450D03*
Y5475450D03*
Y5729450D03*
X-1725000Y5845000D03*
Y5925000D03*
X-1870000Y5920000D03*
Y5840000D03*
X-1964680Y5983450D03*
X-1860000Y6150000D03*
X-1755000D03*
X-1964680Y6237450D03*
X-1877380Y6302620D03*
X-1964680Y6491450D03*
X-1806670Y6606670D03*
X-1955000Y6490000D03*
X-1855000D03*
X-1806670Y6373330D03*
X-1964680Y6745450D03*
X-1877380Y6677380D03*
X-1507280Y-264680D03*
X-1570000Y1150000D03*
X-1559990Y1789990D03*
X-1590000Y2375000D03*
X-1675000D03*
X-1590000Y2475000D03*
X-1675000D03*
Y3045000D03*
X-1590000D03*
X-1675000Y3145000D03*
X-1590000D03*
X-1585000Y4180000D03*
X-1670000D03*
X-1585000Y4840000D03*
X-1670000D03*
X-1530000Y5930000D03*
X-1502620Y6302620D03*
X-1690000Y6325000D03*
Y6225000D03*
X-1573330Y6606670D03*
X-1525000Y6490000D03*
X-1573330Y6373330D03*
X-1457410Y6764680D03*
X-1502620Y6677380D03*
X-1690000Y6655000D03*
Y6755000D03*
X-1253280Y-264680D03*
X-1180000Y1359990D03*
X-1339990Y1430000D03*
X-1200000Y2160000D03*
X-1285000Y2165000D03*
X-1240000Y3325000D03*
X-1350000D03*
X-1270000Y3545000D03*
X-1353010Y3541990D03*
X-1300000Y3705000D03*
X-1200000Y3805000D03*
X-1300000D03*
X-1200000Y3705000D03*
X-1375000Y4465000D03*
X-1240000Y4295000D03*
Y4215000D03*
X-1320000Y4295000D03*
Y4215000D03*
X-1375000Y4630000D03*
Y4790000D03*
X-1170000Y5144000D03*
Y5046000D03*
X-1240000Y5285000D03*
Y5395000D03*
Y5505000D03*
X-1300000Y5740000D03*
Y5635000D03*
X-1270000Y5960000D03*
X-1300000Y5845000D03*
X-1270000Y6200000D03*
X-1425000Y6490000D03*
X-1203410Y6764680D03*
X-999280Y-264680D03*
X-1040000Y780000D03*
X-1090000Y1800000D03*
X-1040000Y2490000D03*
X-1120000Y3330000D03*
X-1054000Y3264000D03*
X-910000Y4070000D03*
X-1100000Y4300000D03*
X-940000Y4455000D03*
Y4375000D03*
X-1160000Y4295000D03*
Y4215000D03*
X-1070000Y4930000D03*
X-980000Y5050000D03*
Y5140000D03*
X-1100000Y5296000D03*
X-1104000Y5394000D03*
X-1150000Y5665000D03*
X-1085000Y5785000D03*
X-1000000D03*
X-1086000Y5869000D03*
X-1000000Y5870000D03*
Y6541000D03*
Y6639000D03*
X-949410Y6764680D03*
X-815000Y-265000D03*
X-802380Y-177380D03*
X-731670Y-106670D03*
X-780000Y10000D03*
X-880000D03*
X-731670Y126670D03*
X-802380Y197380D03*
X-800000Y490000D03*
X-760000Y1040000D03*
X-810000Y1400000D03*
Y1640000D03*
X-663000Y2580000D03*
X-800000Y2471250D03*
X-850000Y2350000D03*
X-805000Y4615000D03*
Y4515000D03*
X-670000Y4585000D03*
X-680000Y5580000D03*
X-840000D03*
X-675000Y6100000D03*
X-835000D03*
X-874500Y6279500D03*
X-873500Y6406500D03*
X-695410Y6764680D03*
X-420000Y-260000D03*
X-615000Y-255000D03*
Y-155000D03*
X-498330Y-106670D03*
X-427620Y-177380D03*
X-450000Y10000D03*
X-615000Y175000D03*
X-498330Y126670D03*
X-427620Y197380D03*
X-615000Y275000D03*
X-500000Y790000D03*
X-400000D03*
X-515000Y1685000D03*
X-630000Y2350000D03*
X-450000Y4130000D03*
X-405000Y4215000D03*
X-495000D03*
X-501500Y5288500D03*
X-505000Y5415500D03*
X-520000Y5580000D03*
X-515000Y6100000D03*
X-565000Y6533500D03*
X-475000Y6535000D03*
X-441410Y6764680D03*
X-237280Y-264680D03*
X-350000Y10000D03*
X-175000Y25000D03*
X-260000Y260000D03*
Y380000D03*
X-228400Y3560000D03*
X-330010Y3550010D03*
X-150000Y4130000D03*
X-300000D03*
X-305000Y4390000D03*
X-155000Y4385000D03*
X-310000Y4780000D03*
X-165000Y4785000D03*
X-360000Y5580000D03*
X-355000Y6100000D03*
X-195000D03*
X-187410Y6764680D03*
X16720Y-264680D03*
X50000Y600000D03*
Y500000D03*
X-90010Y3209990D03*
X160000Y3210000D03*
X95000Y3535000D03*
X29990Y4130000D03*
X-10000Y5030000D03*
Y5140000D03*
X160000Y5470000D03*
Y5695000D03*
X6000Y6014000D03*
X104000D03*
X95000Y6400000D03*
X100000Y6535000D03*
X66590Y6764680D03*
X270720Y-264680D03*
X430000Y710000D03*
Y620000D03*
X320000Y3630000D03*
X190010Y4130000D03*
X310000Y4400000D03*
X410000D03*
Y4300000D03*
X310000D03*
X245000Y5470000D03*
X324680Y5494680D03*
X430000Y5295000D03*
X331000Y5371000D03*
X245000Y5695000D03*
X324680Y5748680D03*
Y6002680D03*
Y6256680D03*
Y6510680D03*
X320590Y6764640D03*
X524720Y-264680D03*
X640000Y820000D03*
X550000D03*
X520000Y1120000D03*
X440000Y3410000D03*
X660000D03*
X565000Y4785000D03*
X505000Y4870000D03*
Y4975000D03*
X665000Y4785000D03*
X505000Y5080000D03*
Y5185000D03*
X778720Y-264680D03*
X870000Y2210000D03*
Y2130000D03*
X940000Y2080000D03*
X870000Y2480000D03*
Y2370000D03*
X765000Y4785000D03*
X871320Y4816320D03*
X1032720Y-264680D03*
X990000Y131600D03*
X1080000D03*
X1020000Y2080000D03*
X1110000Y2480000D03*
Y2370000D03*
X990000Y2480000D03*
X1015000Y4735000D03*
X1190000Y4545000D03*
X1000000Y4610000D03*
X1230000Y4705000D03*
X1100000Y4620000D03*
X1175000Y4790000D03*
X1035000Y4795000D03*
X1286720Y-264680D03*
X1465000Y2010000D03*
X1270000Y2020000D03*
Y1910000D03*
X1465000Y2120000D03*
X1410000Y2460000D03*
X1270000Y2340000D03*
X1500000Y2460000D03*
X1250000Y2550000D03*
X1500000D03*
X1250000Y2660000D03*
X1495000Y2800000D03*
Y2700000D03*
X1260000Y2880000D03*
Y4465000D03*
X1495000Y4250000D03*
X1250000Y4345000D03*
X1385000Y4335000D03*
X1425000Y4505000D03*
X1340000Y4595000D03*
X1290000Y4785000D03*
X1441300D03*
X1540720Y-264680D03*
X1742720Y1853250D03*
Y1929740D03*
X1515000Y2260000D03*
X1765000Y2475000D03*
X1765210Y2584800D03*
X1580000Y2460000D03*
Y2550000D03*
X1765000Y2685000D03*
X1585000Y2705000D03*
X1670000Y3050000D03*
X1540000D03*
X1755000Y4115000D03*
X1635000Y4175000D03*
X1630000Y4345000D03*
X1535000Y4410000D03*
X1750000Y4280000D03*
X1605000Y4615000D03*
X1541300Y4785000D03*
X1641300D03*
X1695000Y4985000D03*
Y4880000D03*
Y5195000D03*
Y5090000D03*
X1794720Y-264680D03*
X1800000Y1890000D03*
X1870000Y2010000D03*
Y2120000D03*
Y2475000D03*
X1870210Y2584800D03*
X1975000Y2475000D03*
X1975210Y2584800D03*
X1870000Y2685000D03*
X1975000D03*
X1830000Y3050000D03*
X1865000Y4075000D03*
X2000000Y4180000D03*
X1990000Y4040000D03*
X1870000Y4230000D03*
X1825000Y4445000D03*
X1930000Y4790000D03*
X1885000Y5030000D03*
X1944320Y5308320D03*
Y5816320D03*
X1957620Y6302620D03*
X2028330Y6606670D03*
X1880000Y6490000D03*
X1980000D03*
X2028330Y6373330D03*
X1870000Y6765000D03*
X1957620Y6677380D03*
X2048720Y-264680D03*
X2302720D03*
X2200000Y1890000D03*
X2300000Y2010000D03*
X2142720Y1929740D03*
Y1853250D03*
X2145000Y2285000D03*
X2300000Y2120000D03*
X2205000Y2190000D03*
X2140000Y2400000D03*
Y2800000D03*
X2145000Y3004000D03*
X2255000Y4000000D03*
X2240000Y4150000D03*
X2130000Y4160000D03*
X2115000Y4015000D03*
X2255000Y4415000D03*
X2039320Y4292320D03*
X2198320D03*
X2195000Y4565000D03*
Y4975000D03*
Y4770000D03*
Y5180000D03*
X2071320Y5054320D03*
X2195000Y5385000D03*
X2255000Y5745000D03*
X2195000Y5590000D03*
X2198320Y5816320D03*
X2205000Y6145000D03*
X2145000Y6325000D03*
Y6225000D03*
X2261670Y6606670D03*
Y6373330D03*
X2145000Y6655000D03*
Y6755000D03*
X2556720Y-264680D03*
X2309000Y2225000D03*
X2490000Y2240000D03*
Y2120000D03*
X2370000Y2550000D03*
X2309000Y2465000D03*
X2390000Y2385000D03*
X2480000D03*
X2345000Y2765000D03*
X2380000Y3040000D03*
X2460000Y2980000D03*
X2550000Y4000000D03*
Y4150000D03*
X2395000Y4000000D03*
Y4150000D03*
X2455000Y4365000D03*
X2452320Y4292320D03*
X2455000Y5795000D03*
X2332380Y6302620D03*
X2522320Y6594320D03*
X2475000Y6360000D03*
X2310000Y6490000D03*
X2410000D03*
X2542000Y6765000D03*
X2350000D03*
X2332380Y6677380D03*
X2810720Y-264680D03*
X2690000Y1920010D03*
X2725000Y2150000D03*
X2620000Y2120000D03*
X2665000Y2720000D03*
X2595000Y2800000D03*
X2780000Y4150000D03*
Y4000000D03*
X2655000D03*
X2630000Y4365000D03*
Y4240000D03*
X2775000Y4255000D03*
X2630000Y5795000D03*
X2810000Y6010000D03*
X2785000Y5860000D03*
X2635000Y5925000D03*
X2680000Y6070000D03*
X2800000Y6175000D03*
X2649320Y6340320D03*
X2776320Y6594320D03*
X2796000Y6765000D03*
X3030010Y420010D03*
X3025000Y2665000D03*
Y2835000D03*
X3010000Y3315000D03*
Y3400000D03*
Y3215000D03*
X2940000Y3600000D03*
X2930000Y3820000D03*
X2940000Y3710000D03*
X2935000Y4000000D03*
Y4150000D03*
X3090000D03*
Y4000000D03*
X3015000Y4365000D03*
X2840000D03*
X2960320Y4292320D03*
X3015000Y5795000D03*
X2840000D03*
X3080000Y6055000D03*
X2930000Y6060000D03*
X2885000Y6335000D03*
X2985000Y6200000D03*
X2885000Y6440000D03*
Y6545000D03*
Y6650000D03*
X3240000Y-170000D03*
X3135000Y-265000D03*
X3240000D03*
Y-15000D03*
X3110000Y80000D03*
Y660000D03*
X3350000Y2730000D03*
X3270000D03*
X3350000Y2810000D03*
X3270000D03*
X3190000Y3270000D03*
X3310000D03*
X3190000Y3410000D03*
X3310000D03*
X3260000Y3845000D03*
X3170000D03*
Y3755000D03*
X3260000D03*
X3250000Y4030000D03*
X3240000Y4180000D03*
X3190000Y4365000D03*
X3365000D03*
Y4225000D03*
X3214320Y4292320D03*
X3340000Y5795000D03*
X3190000D03*
X3320000Y6055000D03*
X3155000Y5955000D03*
X3145000Y6200000D03*
X3315000D03*
X3450000Y-170000D03*
Y-265000D03*
Y-15000D03*
X3582500Y1117500D03*
X3427500D03*
X3582500Y1327500D03*
X3427500D03*
X3590000Y1420000D03*
Y1560000D03*
X3540000Y2130000D03*
X3455000D03*
X3500000Y3115000D03*
X3420000Y2881000D03*
X3430000Y3270000D03*
Y3410000D03*
X3400000Y4080000D03*
X3545000Y4150000D03*
X3565000Y4415000D03*
X3575000Y4345000D03*
X3480000Y4285000D03*
X3625000Y4570000D03*
Y4775000D03*
Y4980000D03*
Y5185000D03*
Y5390000D03*
X3565000Y5745000D03*
X3625000Y5595000D03*
X3485000Y5955000D03*
X3560000Y6145000D03*
X3826720Y-264680D03*
X3644000Y9000D03*
X3690000Y1700000D03*
Y1980000D03*
Y1840000D03*
X3895000Y2770000D03*
Y2660000D03*
Y2990000D03*
Y2880000D03*
X3681000Y2916000D03*
Y3220000D03*
X3890000Y3620000D03*
X3680000Y4435000D03*
X3685000Y4240000D03*
X3830000Y4375000D03*
X3790000Y4550000D03*
X3890000Y4650000D03*
X3722320Y4800320D03*
X3845000Y4930000D03*
X3810000Y5140000D03*
X3800000Y5265000D03*
X3885000Y5055000D03*
X3722320Y5308320D03*
X3751300Y5995000D03*
X3722320Y5816320D03*
X4080720Y-264680D03*
X4115000Y2040000D03*
X4024000Y2284000D03*
X4115000Y2990000D03*
Y2890000D03*
X3995000Y3470000D03*
X4089000Y3616000D03*
X4006000D03*
X4120000Y3910000D03*
Y4020000D03*
X3944320Y4038320D03*
X4005000Y3970000D03*
X4080000Y4265000D03*
X4015000Y4555000D03*
X3935000Y4485000D03*
X4020000Y4740000D03*
X4110000Y5220000D03*
Y5130000D03*
Y5030000D03*
X3990000Y5190000D03*
X3915000Y5250000D03*
X4050000Y5300000D03*
X3950000Y5380000D03*
X3975000Y5525000D03*
X4065000Y5425000D03*
X4125000Y5665000D03*
Y5770000D03*
X4065000Y5575000D03*
X4005000Y5695000D03*
X4046300Y5995000D03*
X3946300D03*
X4071320Y5816320D03*
X4075000Y6345000D03*
Y6450000D03*
Y6555000D03*
Y6660000D03*
X4120000Y6765000D03*
X4334720Y-264680D03*
X4340000Y585000D03*
X4390000Y1870000D03*
X4380000Y2230000D03*
X4440000Y2350000D03*
X4310000Y2955000D03*
Y2870000D03*
X4225000Y2955000D03*
Y2870000D03*
X4230000Y3190000D03*
X4340000D03*
X4360000Y3635000D03*
X4430000Y3650000D03*
X4210000Y3910000D03*
X4270000Y3700000D03*
X4285000Y3825000D03*
X4400000D03*
X4320000Y4150000D03*
X4420000D03*
X4210000Y4020000D03*
X4315000Y4065000D03*
X4320000Y4370000D03*
X4420000Y4260000D03*
Y4370000D03*
X4190000Y4265000D03*
X4320000Y4260000D03*
X4360000Y4900000D03*
Y5000000D03*
X4427320Y4816320D03*
X4210000Y5220000D03*
Y5030000D03*
Y5130000D03*
X4215000Y5380000D03*
X4405000Y5405000D03*
X4210000Y5555000D03*
X4255000Y5795000D03*
X4320000Y5540000D03*
X4310000Y6035000D03*
X4321000Y5925000D03*
X4415000Y6105000D03*
Y6205000D03*
X4320000Y6765000D03*
X4555000Y-115000D03*
Y-205000D03*
X4535000Y115000D03*
X4585000Y585000D03*
X4486000Y590000D03*
X4695000Y750000D03*
X4690000Y1150000D03*
X4605000Y1730000D03*
X4510000D03*
X4635000Y1865000D03*
X4510000Y1830000D03*
X4670000Y3630000D03*
X4455000Y3880000D03*
Y4005000D03*
X4570000Y4400000D03*
X4670000D03*
X4570000Y4720000D03*
X4670000D03*
X4570000Y4620000D03*
Y4510000D03*
X4670000D03*
Y4620000D03*
X4460000Y4900000D03*
Y5000000D03*
X4570000Y4820000D03*
X4670000D03*
X4615000Y5340000D03*
X4635000Y5760000D03*
Y5665000D03*
Y5570000D03*
X4680000Y6045000D03*
X4504000Y5905000D03*
X4565000Y6155000D03*
X4595000Y6465000D03*
X4535000Y6645000D03*
X4574000Y6765000D03*
X4765000Y-115000D03*
X4855000Y-190000D03*
X4765000Y-205000D03*
X4855000Y-265000D03*
X4865000Y180000D03*
X4950000D03*
X4825000Y330000D03*
X4875000Y705000D03*
X4910000Y465000D03*
X4890000Y1300000D03*
X4801000Y1575000D03*
X4955000Y1785000D03*
X4740000Y1985000D03*
X4790000Y1850000D03*
X4900000Y2155000D03*
X4740000Y2070000D03*
X4790000Y2410000D03*
X4780000Y3630000D03*
X4900000D03*
X4760000Y3880000D03*
X4755000Y4010000D03*
X4970000Y4410000D03*
X4770000Y4400000D03*
X4870000D03*
Y4320000D03*
X4970000Y4620000D03*
Y4720000D03*
Y4510000D03*
X4870000Y4720000D03*
X4770000D03*
Y4620000D03*
Y4510000D03*
X4870000D03*
Y4620000D03*
X4970000Y4820000D03*
X4770000D03*
X4870000D03*
X4735000Y5760000D03*
X4825000D03*
Y5665000D03*
X4735000D03*
X4825000Y5570000D03*
X4735000D03*
X4939000Y5874000D03*
X4810000Y6064000D03*
X4835000Y6575000D03*
X4760000Y6545000D03*
Y6625000D03*
X4828000Y6765000D03*
X5169000Y-159000D03*
X5041000D03*
X5096720Y-264680D03*
X5040000Y41000D03*
X5175000Y45000D03*
X5030000Y180000D03*
X5000000Y475000D03*
X5040000Y1105000D03*
X5130000Y1110000D03*
X5070000Y1395000D03*
X5020000Y1270000D03*
X5210000Y1785000D03*
X5115000D03*
X5035000D03*
X5230000Y2160000D03*
X5141000Y2619000D03*
X5090000Y3380000D03*
X5220000Y3575000D03*
X5125000D03*
X4980000Y3800000D03*
Y3720000D03*
X5189320Y3800320D03*
X4985000Y3895000D03*
X5235000Y3890000D03*
X5090000Y4100000D03*
X4980000D03*
X5200000D03*
X4990000Y3995000D03*
X5230000Y4000000D03*
X4980000Y4320000D03*
X5090000D03*
Y4210000D03*
X4980000D03*
X5200000D03*
X5210000Y4910000D03*
X5010000D03*
X5110000D03*
X5189320Y4816320D03*
X5210000Y5010000D03*
X5110000D03*
X5010000D03*
X5101000Y5425000D03*
X5199000Y5434000D03*
X5055000Y5720000D03*
Y5610000D03*
X5195000Y5720000D03*
Y5610000D03*
X5125000Y6245000D03*
X5075000Y6585000D03*
Y6665000D03*
X5082000Y6765000D03*
X5350720Y-264680D03*
X5416000Y114000D03*
X5470000Y785000D03*
X5315000Y1100000D03*
X5440000Y1065000D03*
X5500000Y1250000D03*
X5505000Y1355000D03*
X5500000Y2040000D03*
X5495000Y1955000D03*
X5500000Y2195000D03*
X5272500Y2527500D03*
X5495000Y2410000D03*
X5500000Y2555000D03*
X5391000Y3184000D03*
X5489000Y3185000D03*
X5420000Y3575000D03*
X5330000Y3915000D03*
X5430000D03*
X5495000Y3785000D03*
X5330000Y4020000D03*
X5430000D03*
X5475000Y4325000D03*
X5480000Y4590000D03*
X5475000Y4830000D03*
X5330000Y5020000D03*
Y5120000D03*
X5430000D03*
Y5020000D03*
Y5210000D03*
X5330000D03*
X5443320Y5324320D03*
X5435000Y5525000D03*
X5270000Y5545000D03*
X5335000Y5720000D03*
X5475000D03*
X5335000Y5610000D03*
X5475000D03*
X5443320Y5832320D03*
X5400000Y6090000D03*
X5320000Y6265000D03*
X5470000D03*
X5316320Y6594320D03*
X5336000Y6765000D03*
X5604720Y-264680D03*
X5543000Y113000D03*
X5670000Y115000D03*
X5700000Y785000D03*
X5595000D03*
X5670000Y1195000D03*
X5715000Y1070000D03*
X5550000Y1175000D03*
X5515000Y1500000D03*
X5590000Y1320000D03*
X5725000Y1330000D03*
X5616250Y1401250D03*
X5765000Y1485000D03*
X5590000Y1730000D03*
X5715000Y1695000D03*
X5510000Y1700000D03*
X5615000Y1965000D03*
X5715000Y2000000D03*
X5615000Y2200000D03*
X5715000Y2210000D03*
X5615000Y2410000D03*
X5715000D03*
Y2692500D03*
X5615000D03*
X5715000Y2970000D03*
X5725000Y3595000D03*
X5765000Y3905000D03*
X5625000Y4715000D03*
Y4605000D03*
X5696000Y4760000D03*
X5630000Y4845000D03*
X5520000Y4945000D03*
X5650000Y4995000D03*
X5645000Y5165000D03*
X5697320Y5324320D03*
X5710000Y5525000D03*
X5615000Y5720000D03*
X5755000D03*
X5615000Y5610000D03*
X5755000D03*
X5761000Y5846000D03*
X5670000Y6095000D03*
X5550000D03*
X5570320Y6594320D03*
X5590000Y6765000D03*
X5858720Y-264680D03*
X5845000Y570000D03*
X5991000Y740000D03*
X5810000Y785000D03*
X6015000Y1085000D03*
X5960000Y1195000D03*
X6020000Y1480000D03*
X5860000Y1415000D03*
X5835000Y1665000D03*
X5965000Y1840000D03*
X5860000Y2315000D03*
X5835000Y2157500D03*
X6030000Y2370000D03*
X5830000Y2482500D03*
X5975000Y2675000D03*
X5965000Y2970000D03*
X5790000Y4230000D03*
X5835000Y4770000D03*
X5830000Y4840000D03*
X5840000Y4980000D03*
X5945000Y5340000D03*
X5895000Y5720000D03*
X6035000D03*
X5895000Y5610000D03*
X6035000D03*
X5971000Y5846000D03*
X5951320Y6340320D03*
X5824320Y6594320D03*
X5844000Y6765000D03*
X6140000Y-80000D03*
X6112720Y-264680D03*
X6140000Y455000D03*
X6089000Y740000D03*
X6165000Y1140000D03*
X6190000Y1420000D03*
X6295000Y1735000D03*
X6160000Y1720000D03*
X6180000Y2080000D03*
X6205000Y2547500D03*
X6280000Y2640000D03*
X6190000D03*
X6165000Y2970000D03*
X6190000Y3580000D03*
X6210000Y3650000D03*
X6125000Y3944500D03*
X6124500Y4325500D03*
X6205320Y4308320D03*
X6070000Y4505000D03*
X6120000Y4980000D03*
Y4845000D03*
X6175000Y5610000D03*
Y5720000D03*
X6069000Y5845000D03*
X6225000Y6040000D03*
X6098000Y6765000D03*
X6365000Y-80000D03*
Y-165000D03*
X6366720Y-264680D03*
X6370000Y175000D03*
Y95000D03*
X6455000Y270000D03*
X6365000Y265000D03*
X6401000Y721000D03*
X6510000Y605000D03*
X6360000Y495000D03*
X6394000Y819000D03*
X6515000Y1075000D03*
X6365000Y1155000D03*
X6570000Y1450000D03*
X6360000Y1445000D03*
X6550000Y1660000D03*
X6365000Y1900000D03*
X6370000Y2140000D03*
X6340000Y2640000D03*
X6465000Y2793010D03*
X6385000D03*
X6415000Y2970000D03*
X6319500Y3230500D03*
X6360000Y3430000D03*
X6505000D03*
X6410000Y4540000D03*
X6332320Y4562320D03*
Y5070320D03*
X6505000Y5240000D03*
X6455000Y5610000D03*
X6315000D03*
X6455000Y5720000D03*
X6315000D03*
X6335000Y5960000D03*
Y6040000D03*
X6459320Y5832320D03*
Y6340320D03*
X6352000Y6765000D03*
X6805000Y-155000D03*
X6620720Y-264680D03*
X6650000Y265000D03*
X6805000Y309000D03*
X6700000Y555000D03*
X6630000Y850000D03*
X6585000Y1115000D03*
X6825000Y1900000D03*
X6580000Y2130000D03*
X6840000Y2400000D03*
X6650000Y2640000D03*
X6590000Y2860000D03*
X6830000Y2760000D03*
X6690000Y2815000D03*
X6580000Y2710000D03*
X6810000Y2670000D03*
X6690000Y2985000D03*
X6780000D03*
Y3360000D03*
X6765000Y3205000D03*
X6845000D03*
X6825000Y4065000D03*
X6670000Y4440000D03*
Y4540000D03*
X6825000Y4780000D03*
X6734000Y5029000D03*
X6713320Y5324320D03*
X6605000Y5425000D03*
X6595000Y5610000D03*
Y5720000D03*
X6760000Y5595000D03*
X6780000Y5710000D03*
X6713320Y5832320D03*
X6586320Y6086320D03*
X6840320D03*
X6713320Y6340320D03*
X6586320Y6594320D03*
X6840320D03*
X6606000Y6765000D03*
X6874720Y-264680D03*
X7100000Y585000D03*
X7075000Y475000D03*
X6980000D03*
X6985000Y585000D03*
Y810000D03*
X6850000Y1240000D03*
X6970000Y1165000D03*
X6905000Y1395000D03*
X6970000Y1620000D03*
X6990000Y1840000D03*
X6905000Y2135000D03*
X7075000Y2490000D03*
X6885000Y2545000D03*
X7055000Y2400000D03*
X6900000Y2665000D03*
X6920000Y2925000D03*
X7020000Y2910000D03*
X6865000Y2985000D03*
X6860000Y3285000D03*
X7005000Y3290000D03*
X6855000Y3365000D03*
X6987500Y3202500D03*
X6985000Y3570000D03*
X7100000Y3430000D03*
X6990000Y3720000D03*
X7105000Y3750000D03*
X7095000Y4140000D03*
X7094320Y4054320D03*
X6975000Y4325000D03*
X7100000Y4650000D03*
X7094320Y4562320D03*
X6945000Y4475000D03*
X6967320Y5324320D03*
X6930000Y5570000D03*
X6950000Y5680000D03*
X6967320Y5832320D03*
X7094320Y6086320D03*
X6967320Y6340320D03*
X7094320Y6594320D03*
X6860000Y6765000D03*
X7128720Y-264680D03*
X7210000Y585000D03*
X7170000Y469000D03*
X7320000Y585000D03*
X7165000Y815000D03*
X7145000Y1260000D03*
X7305000Y1205000D03*
X7140000Y1080000D03*
X7310000Y1655000D03*
X7175000Y1630000D03*
X7375000Y1715000D03*
Y1805000D03*
X7225000Y1900000D03*
X7200000Y2155000D03*
X7340000Y2600000D03*
X7210000Y2435000D03*
X7300000Y2685000D03*
Y2810000D03*
X7115000Y3000000D03*
Y2910000D03*
X7245000Y3285000D03*
X7320000Y3330000D03*
X7125000Y3215000D03*
X7210000Y3210000D03*
X7295000D03*
X7240000Y3425000D03*
X7186000Y3810000D03*
X7348320Y4054320D03*
X7320000Y4425000D03*
X7115000Y5505000D03*
X7280000Y5400000D03*
X7345000Y5535000D03*
X7221320Y5324320D03*
X7165000Y5615000D03*
X7221320Y5832320D03*
Y6340320D03*
X7348320Y6594320D03*
X7368000Y6765000D03*
X7114000D03*
X7510000Y-80000D03*
X7636720Y-264680D03*
X7382720D03*
X7510000Y170000D03*
X7460000Y485000D03*
X7495000Y641000D03*
X7490000Y941000D03*
X7500000Y739000D03*
X7405000Y1405000D03*
X7645000D03*
X7605000Y1455000D03*
X7645000Y1755000D03*
X7630000Y2005000D03*
X7380000Y2055000D03*
X7385000Y1930000D03*
X7620000Y2550000D03*
X7400000Y2780000D03*
X7395000Y2685000D03*
X7620000Y2740000D03*
X7490000Y2970000D03*
X7645000Y2965000D03*
X7495000Y3325000D03*
X7635000Y3210000D03*
X7405000D03*
X7400000Y3425000D03*
X7565000D03*
X7385000Y3590000D03*
X7560000Y3740000D03*
X7610000Y3860000D03*
X7430000Y4430000D03*
X7510000Y4555000D03*
X7475320Y4816320D03*
X7590000Y5240000D03*
X7602320Y5070320D03*
X7420000Y5275000D03*
X7505000Y5450000D03*
X7475320Y5832320D03*
X7602320Y6086320D03*
X7475320Y6340320D03*
X7602320Y6594320D03*
X7622000Y6765000D03*
X7890720Y-264680D03*
X7775000Y115000D03*
X7856000Y310000D03*
X7785000Y885000D03*
Y805000D03*
X7860000Y1039000D03*
X7865000Y1760000D03*
X7820000Y2280000D03*
X7700000Y2210000D03*
X7780000Y2545000D03*
X7860000Y2600000D03*
Y3120000D03*
X7740000D03*
X7655000Y3330000D03*
X7795000D03*
X7880000Y3445000D03*
X7730000Y3425000D03*
X7685000Y3750000D03*
X7750000Y3850000D03*
X7795000Y3965000D03*
X7670000D03*
X7690000Y4265000D03*
X7895000Y4305000D03*
X7775000D03*
X7740000Y4659000D03*
X7855000Y4980000D03*
X7729320Y4816320D03*
X7735000Y4945000D03*
X7885000Y4820000D03*
X7720000Y5120000D03*
X7795000Y5205000D03*
X7670000Y5325000D03*
X7856320Y5578320D03*
X7729320Y5832320D03*
X7856320Y6086320D03*
X7897620Y6302620D03*
X7729320Y6340320D03*
X7820000Y6490000D03*
X7876000Y6765000D03*
X7897620Y6677380D03*
X8140000Y-150000D03*
X8144720Y-264680D03*
X8040000Y30000D03*
X8140000Y110000D03*
X8040000Y-60000D03*
X8035000Y450000D03*
X8040000Y1521000D03*
X8050000Y1419000D03*
X8100000Y1760000D03*
X7980000Y1979000D03*
X8000000Y1885000D03*
X8065000Y2760000D03*
X8060000Y3060000D03*
X8170000D03*
X7930000Y3355000D03*
X8165000Y3545000D03*
X8055000Y3435000D03*
X8015000Y3530000D03*
X8100000Y3620000D03*
X7945000Y3875000D03*
X8140000Y3725000D03*
X8135000Y3855000D03*
X8150000Y4000000D03*
X8135000Y4190000D03*
X7995000Y4315000D03*
X7970000Y4205000D03*
X8020000Y4675000D03*
X8135000Y4890000D03*
X8090000Y4750000D03*
X8040000Y4960000D03*
X7985000Y4860000D03*
X7935000Y5065000D03*
X8110320Y5070320D03*
X7983320Y5324320D03*
X8110320Y5578320D03*
X7983320Y5832320D03*
X8110320Y6086320D03*
X8085000Y6325000D03*
Y6225000D03*
X7968330Y6606670D03*
X7920000Y6490000D03*
X7968330Y6373330D03*
X8085000Y6655000D03*
Y6755000D03*
X8415000Y-170000D03*
X8230000Y-150000D03*
X8398720Y-264680D03*
X8420000Y150000D03*
X8230000Y110000D03*
X8290000Y310000D03*
X8370000Y475000D03*
X8235000Y690000D03*
X8390000Y750000D03*
X8395000Y935000D03*
X8315000Y1180000D03*
Y1090000D03*
X8336000Y1381000D03*
X8400000Y1670000D03*
X8275000Y1590000D03*
X8405000Y1835000D03*
X8300000Y2301000D03*
X8395000Y2110000D03*
X8250000Y2170000D03*
X8230000Y2455000D03*
X8260000Y2630000D03*
X8300000Y3085000D03*
X8410000Y3545000D03*
Y3465000D03*
X8260000Y3860000D03*
X8240000Y3730000D03*
Y4000000D03*
Y4195000D03*
X8260000Y4300000D03*
X8255000Y4435000D03*
X8285000Y4550000D03*
X8385000Y4620000D03*
X8365000Y4490000D03*
X8270000Y4890000D03*
X8275000Y4745000D03*
X8390000Y4875000D03*
Y4765000D03*
X8364320Y5070320D03*
X8237320Y5324320D03*
X8366320Y5371320D03*
X8360000Y5495000D03*
Y5749000D03*
X8237320Y5832320D03*
X8360000Y6003000D03*
Y6257000D03*
X8272380Y6302620D03*
X8201670Y6606670D03*
X8250000Y6490000D03*
X8350000D03*
X8201670Y6373330D03*
X8330000Y6740000D03*
X8272380Y6677380D03*
X8652720Y-264680D03*
X8475000Y635000D03*
X8615000Y875000D03*
X8609000Y1101000D03*
X8611000Y1199000D03*
X8675000Y1430000D03*
X8646000Y2001000D03*
X8670000Y2125000D03*
X8685000Y2345000D03*
X8515000Y2370000D03*
X8475000Y2545000D03*
X8510000Y2851000D03*
X8650000Y2950000D03*
X8590000Y3130000D03*
X8505000D03*
X8510000Y2950000D03*
X8630000Y3250000D03*
X8635000Y3350000D03*
X8615000Y3590000D03*
X8640000Y3820000D03*
X8505000Y4725000D03*
X8550000Y4625000D03*
X8515000Y4850000D03*
X8625000Y4775000D03*
X8618320Y5070320D03*
X8450000Y5295000D03*
X8615000D03*
X8906720Y-264680D03*
X8800000Y90000D03*
X8815000Y420000D03*
Y310000D03*
X8795000Y200000D03*
X8815000Y525000D03*
X8915000Y630000D03*
X8855000Y1250000D03*
X8760000D03*
X8965000Y1045000D03*
X8830000Y1385000D03*
X8845000Y1750000D03*
X8735000Y1830000D03*
X8915000Y2095000D03*
X8810000Y2345000D03*
X8885000Y3545000D03*
X8799000Y4295000D03*
X8735000Y4730000D03*
X8730000Y4620000D03*
X8885000Y4615000D03*
Y4725000D03*
X8799000Y4535000D03*
X8875000Y4975000D03*
Y4870000D03*
X8935000Y4785000D03*
X8875000Y5185000D03*
Y5080000D03*
X8780000Y5295000D03*
X9160720Y-264680D03*
X9225000Y140000D03*
X9220000Y500000D03*
X9035000Y780000D03*
X9030000Y965000D03*
X9195000Y1050000D03*
X9130000Y1040000D03*
X9047500D03*
X9135000Y1350000D03*
X9190000Y1480000D03*
X9100000D03*
X9095000Y1675000D03*
X9180000Y1630000D03*
X9100000Y1580000D03*
X9190000Y1760000D03*
X9140000Y2505000D03*
X9120000Y2800000D03*
Y3100000D03*
Y3400000D03*
Y3700000D03*
Y4000000D03*
X9240000Y4295000D03*
X9030000Y4725000D03*
X9025000Y4610000D03*
X9200000Y4730000D03*
X9220000Y4600000D03*
X9035000Y4785000D03*
X9135000D03*
X9375000Y-140000D03*
X9414720Y-264680D03*
X9415000Y135000D03*
X9295000Y10000D03*
X9500000Y315000D03*
X9430000D03*
X9300000Y530000D03*
X9305000Y790000D03*
X9410000D03*
X9290000Y1055000D03*
X9515000Y1790000D03*
X9455000Y2040000D03*
Y1930000D03*
X9430000Y2310000D03*
X9270000Y2340000D03*
X9340000Y2505000D03*
X9450000Y2800000D03*
X9430000Y3020000D03*
X9280000Y3175000D03*
X9273000Y3456000D03*
X9400000Y3710000D03*
X9450000Y4000000D03*
X9484000Y4444000D03*
X9410000Y4730000D03*
X9305000Y4605000D03*
X9410000D03*
X9305000Y4730000D03*
X9253320Y4816320D03*
X9610000Y-140000D03*
X9668720Y-264680D03*
X9630000Y145000D03*
X9555000Y20000D03*
X9655000Y315000D03*
X9580000D03*
X9725000Y719000D03*
X9780000Y530000D03*
X9660000Y550000D03*
X9520000D03*
X9555000Y1170000D03*
X9670000Y1165000D03*
X9650000Y1499000D03*
X9690000Y2040000D03*
X9685000Y1930000D03*
X9700000Y2150000D03*
X9719000Y2381000D03*
X9720000Y2460000D03*
X9540000Y2710000D03*
X9780000Y2800000D03*
X9675000Y3005000D03*
X9545000Y3195000D03*
X9527000Y3456000D03*
X9781000D03*
X9654000Y3710000D03*
X9780000Y4000000D03*
X9640000Y4300000D03*
X9540000D03*
X9530000Y4730000D03*
Y4610000D03*
X9745000Y4570000D03*
X9670000Y4525000D03*
X9845000Y-135000D03*
X9922720Y-264680D03*
X9815000Y20000D03*
X9880000Y530000D03*
X9935000Y1165000D03*
X9926000Y1810000D03*
X9800000Y3165000D03*
X9939000Y4381000D03*
X9840000Y4290000D03*
X9940000D03*
X10040000Y4295000D03*
X9870000Y4570000D03*
X9990000Y4565000D03*
X9811300Y4785000D03*
X10011300D03*
X9911300D03*
X9888320Y5070320D03*
X10176720Y-264680D03*
X10293330Y-106670D03*
X10222620Y-177380D03*
Y197380D03*
X10293330Y126670D03*
X10145000Y10000D03*
X10245000D03*
X10121000Y330000D03*
X10050000Y520000D03*
Y630000D03*
X10195000Y1170000D03*
X10180000Y1460000D03*
X10053000Y1453000D03*
X10230000Y1360000D03*
X10280000Y2505000D03*
X10110000Y2800000D03*
X10270000Y2620000D03*
X10110000Y3100000D03*
Y3400000D03*
Y3700000D03*
Y4000000D03*
X10091000Y4381000D03*
X10300000Y4295000D03*
Y4365000D03*
X10175000Y4285000D03*
X10300000Y4670000D03*
Y4590000D03*
X10110000Y4560000D03*
X10205000Y4570000D03*
X10065000Y4880000D03*
Y4985000D03*
X10293330Y4903330D03*
X10222620Y4832620D03*
X10065000Y5090000D03*
Y5195000D03*
X10222620Y5207380D03*
X10293330Y5136670D03*
X10145000Y5020000D03*
X10245000D03*
X10145000Y5295000D03*
X10526670Y-106670D03*
X10410000Y-155000D03*
Y-255000D03*
X10526670Y126670D03*
X10410000Y175000D03*
X10575000Y10000D03*
X10410000Y275000D03*
X10350000Y1240000D03*
X10460000D03*
X10450000Y1170000D03*
X10520000Y1400000D03*
X10561000Y1810000D03*
Y2210000D03*
X10434000Y2206000D03*
X10420000Y2380000D03*
Y2620000D03*
X10475000Y3181000D03*
X10525000Y3395000D03*
X10475000Y3279000D03*
X10345000Y3600000D03*
X10535000Y3620000D03*
X10340000Y3405000D03*
Y3705000D03*
Y3805000D03*
X10580000Y3920000D03*
Y3700000D03*
Y3810000D03*
Y4030000D03*
Y4670000D03*
Y4595000D03*
X10526670Y4903330D03*
X10410000Y4855000D03*
Y4755000D03*
X10526670Y5136670D03*
X10410000Y5185000D03*
X10575000Y5020000D03*
X10410000Y5285000D03*
X10684680Y-260000D03*
X10597380Y-177380D03*
Y197380D03*
X10675000Y10000D03*
X10684680Y218420D03*
Y726420D03*
Y472420D03*
Y980420D03*
Y1234420D03*
Y1488420D03*
Y1742420D03*
Y1996420D03*
Y2250420D03*
Y2504420D03*
X10600000Y2810000D03*
X10684680Y2758420D03*
X10605000Y2975000D03*
X10684680Y3012420D03*
Y3266420D03*
Y3520420D03*
Y3774420D03*
Y4028420D03*
X10585000Y4295000D03*
Y4365000D03*
X10684680Y4282420D03*
Y4536420D03*
Y4790420D03*
X10597380Y4832620D03*
Y5207380D03*
X10675000Y5020000D03*
X10684680Y5298420D03*
G54D11*
X-1815000Y450000D03*
X-1465000D03*
X-1065000D03*
G54D20*
X1403500Y745000D03*
X2546500D03*
G54D12*
X-1690000Y6490000D03*
X-615000Y10000D03*
X2145000Y6490000D03*
X8085000D03*
X10410000Y10000D03*
Y5020000D03*
G54D21*
X1530500Y1380000D03*
X1784500D03*
X1657500Y1634000D03*
X2038500Y1380000D03*
X1911500Y1634000D03*
X2165500D03*
X2546500Y1380000D03*
X2419500Y1634000D03*
G54D30*
X9514000Y910000D03*
X9768000D03*
X10022000D03*
X10276000D03*
G54D40*
G01X7605000Y2660000D02*
X7940000D01*
G54D22*
X1403500Y1634000D03*
G54D13*
X-1465000Y-50000D03*
G54D31*
X10530000Y910000D03*
G54D41*
G01X-400000Y790000D02*
X-120000Y510000D01*
Y410000D01*
X158400Y131600D01*
X990000D01*
G01X-500000Y790000D02*
X-400000D01*
G01X50000Y600000D02*
Y500000D01*
G01Y600000D02*
X270000Y820000D01*
X550000D01*
G01D02*
X640000D01*
G01X1080000Y131600D02*
X990000D01*
G01X2750000Y1050000D02*
X2850000Y950000D01*
Y770000D01*
X3140000Y480000D01*
Y360000D01*
X2900000Y120000D01*
Y-80000D01*
X2840000Y-140000D01*
X1370000D01*
X1260000Y-30000D01*
Y150000D01*
X1060000Y350000D01*
Y910000D01*
X1200000Y1050000D01*
G54D32*
G01X190010Y4130000D02*
X10010Y4310000D01*
X-670000D01*
X-910000Y4070000D01*
G01X7385000Y1930000D02*
X7255000Y1800000D01*
Y985000D01*
X7115000Y845000D01*
Y715000D01*
X6985000Y585000D01*
G54D14*
X-1165000Y6356000D03*
X6530000Y154000D03*
X6930000D03*
X7240000D03*
X7364000Y5120000D03*
X8480000Y4394000D03*
G54D23*
X6530000Y-100000D03*
X6930000D03*
X7240000D03*
X8480000Y4140000D03*
G54D42*
G01X-1960000Y-310000D02*
G02X-2010000Y-260000I0J50000D01*
G01Y6760000D01*
G02X-1960000Y6810000I50000J0D01*
G01X320000D01*
G02X370000Y6760000I0J-50000D01*
G01Y5390000D01*
G03X420000Y5340000I50000J0D01*
G01X1775000D01*
G03X1825000Y5390000I0J50000D01*
G01Y6755000D01*
G02X1880000Y6810000I55000J0D01*
G01X8320000D01*
G02X8405000Y6725000I0J-85000D01*
G01Y5390000D01*
G03X8455000Y5340000I50000J0D01*
G01X10680000D01*
G02X10730000Y5290000I0J-50000D01*
G01Y-260000D01*
G02X10680000Y-310000I-50000J0D01*
G01X-1960000D01*
G54D33*
G01X-980000Y5050000D02*
X-1100000D01*
X-1150000Y5000000D01*
X-1197000D01*
X-1220000Y5023000D01*
Y5094000D01*
X-1170000Y5144000D01*
G01X-980000Y5140000D02*
X-1024000Y5096000D01*
X-1120000D01*
X-1170000Y5046000D01*
G01X-874500Y6279500D02*
X-834000Y6320000D01*
X-100000D01*
X40000Y6180000D01*
Y6048000D01*
X6000Y6014000D01*
G01X-873500Y6406500D02*
X-827000Y6360000D01*
X-83430D01*
X80000Y6196570D01*
Y6038000D01*
X104000Y6014000D01*
G54D15*
X-1165000Y6610000D03*
G54D24*
X6470000Y6500000D03*
G54D34*
G01X-1559990Y1789990D02*
X-1410000Y1939980D01*
Y2290000D01*
X-1120000Y2580000D01*
X-663000D01*
G01X-1180000Y1359990D02*
X-1040000Y1219990D01*
Y780000D01*
G01X-1285000Y2165000D02*
Y2115000D01*
X-940000Y1770000D01*
Y770000D01*
X-800000Y630000D01*
Y490000D01*
G01X-810000Y1640000D02*
Y1740000D01*
X-1200000Y2130000D01*
Y2160000D01*
G01X-260000Y260000D02*
X-620000Y620000D01*
Y1380000D01*
X-680000Y1440000D01*
Y1970000D01*
X-980000Y2270000D01*
Y2430000D01*
X-1040000Y2490000D01*
G01X-175000Y25000D02*
X-240000Y90000D01*
Y150900D01*
X-700000Y610900D01*
Y1170000D01*
X-810000Y1280000D01*
Y1400000D01*
G01X-330010Y3550010D02*
Y3949990D01*
X-150000Y4130000D01*
G01X-300000D02*
X-200000Y4230000D01*
X-70010D01*
X29990Y4130000D01*
G01X190010D02*
X150000Y4089990D01*
Y3590000D01*
X95000Y3535000D01*
G01X4890000Y1300000D02*
X5170000Y1580000D01*
X5880000D01*
X6290000Y1990000D01*
X7485000D01*
X7590000Y1885000D01*
X8000000D01*
G54D25*
X6724000Y6500000D03*
X6978000D03*
G54D16*
G01X-1150000Y5665000D02*
X-1210000Y5725000D01*
Y6140000D01*
X-1270000Y6200000D01*
G01X4295000Y1950000D02*
Y1290000D01*
X4410000Y1175000D01*
Y130000D01*
X4565000Y-25000D01*
X4907000D01*
X5041000Y-159000D01*
G01X5169000D02*
X5041000D01*
G01X6805000Y309000D02*
X6720000Y224000D01*
Y105000D01*
X6645000Y30000D01*
X6328200D01*
X6260000Y-38200D01*
Y-89000D01*
X6190000Y-159000D01*
X5169000D01*
G01X5416000Y114000D02*
X5610000Y-80000D01*
X6140000D01*
G01X5616250Y1401250D02*
X5660000Y1357500D01*
Y1295000D01*
X5700000Y1255000D01*
X6540000D01*
X6985000Y810000D01*
G01X5725000Y1330000D02*
X6575000D01*
X6825000Y1080000D01*
X7140000D01*
G01X6140000Y-80000D02*
Y455000D01*
G01X8315000Y1090000D02*
X7555000Y330000D01*
X6826000D01*
X6805000Y309000D01*
G01X8315000Y1180000D02*
Y1090000D01*
G01X9780000Y530000D02*
X9710000Y460000D01*
X9370000D01*
X9300000Y530000D01*
G01X10230000Y1360000D02*
X10435000D01*
X10620000Y1175000D01*
Y805000D01*
X10565000Y750000D01*
X10170000D01*
X10050000Y630000D01*
X-5000Y4385000D03*
X135000D03*
X-10000Y4785000D03*
X140000D03*
G54D35*
G01X1530500Y1380000D02*
X1479750Y1481500D01*
X1486470Y1501630D01*
X1509370Y1513070D01*
X1547000Y1550700D01*
Y1778800D01*
X1646190Y1877990D01*
X1717980D01*
X1742720Y1853250D01*
G01Y1929740D02*
X1717970Y1904990D01*
X1635000D01*
X1520000Y1789990D01*
Y1561890D01*
X1506680Y1548580D01*
X1493370Y1535270D01*
X1474390Y1525780D01*
X1414220D01*
X1403500Y1536500D01*
Y1634000D01*
G01X1657500D02*
X1668000Y1631960D01*
X1742240Y1521840D01*
X1785390Y1493070D01*
X1828250Y1501650D01*
X1835930Y1513190D01*
X1852740Y1530000D01*
X1961810D01*
X2030000Y1598190D01*
Y1859990D01*
X2075000Y1904990D01*
X2117970D01*
X2142720Y1929740D01*
G01X2038500Y1380000D02*
X1911470Y1422350D01*
X1851530Y1462300D01*
X1847610Y1482010D01*
X1856920Y1495980D01*
X1863930Y1503000D01*
X1973000D01*
X2057000Y1587000D01*
Y1848800D01*
X2086190Y1877990D01*
X2117980D01*
X2142720Y1853250D01*
G54D17*
X666850Y5085000D03*
X1543150D03*
X3046850Y6550000D03*
X3923150D03*
X9036850Y5085000D03*
X9913150D03*
G54D26*
X7110000Y5120000D03*
G54D36*
G01X-515000Y1685000D02*
X50000Y1120000D01*
X520000D01*
G54D18*
X1200000Y1050000D03*
X2750000D03*
G54D27*
X9108000Y-60000D03*
X9972000D03*
G54D37*
G01X-1240000Y3325000D02*
X-1195000Y3370000D01*
X252500D01*
X787500Y3905000D01*
X2730000D01*
X2885000Y3750000D01*
X2990000D01*
X3055000Y3685000D01*
X3636220D01*
X3690000Y3738780D01*
X4123790D01*
X4332570Y3530000D01*
X5175000D01*
X5220000Y3575000D01*
G01X5125000D02*
X5110000Y3560000D01*
X4345000D01*
X4135000Y3770000D01*
X3665000D01*
X3610000Y3715000D01*
X3080000D01*
X3015000Y3780000D01*
X2900000D01*
X2745000Y3935000D01*
X775070D01*
X240070Y3400000D01*
X-1275000D01*
X-1350000Y3325000D01*
G01X-1054000Y3264000D02*
X-1008000Y3310000D01*
X242000D01*
X802000Y3870000D01*
X2700000D01*
X2920000Y3650000D01*
X3670960D01*
X3725000Y3704040D01*
X4115950D01*
X4319990Y3500000D01*
X5345000D01*
X5420000Y3575000D01*
G01X-565000Y6533500D02*
X-608500Y6490000D01*
X-890000D01*
X-950000Y6430000D01*
Y5540000D01*
X-890000Y5480000D01*
X-610000D01*
X-560000Y5430000D01*
Y5347000D01*
X-501500Y5288500D01*
G01X-475000Y6535000D02*
X-550000Y6460000D01*
X-880000D01*
X-920000Y6420000D01*
Y5560000D01*
X-870000Y5510000D01*
X-560000D01*
X-505000Y5455000D01*
Y5415500D01*
G01X1312010Y339010D02*
X1463000Y490000D01*
X2170000D01*
X2280000Y600000D01*
Y1910000D01*
X2145000Y2045000D01*
Y2285000D01*
G01X7295000Y3210000D02*
Y3165000D01*
X7180000Y3050000D01*
X7050000D01*
X6975000Y2975000D01*
Y2920000D01*
X6930000Y2875000D01*
X6665000D01*
X6500000Y2710000D01*
X6335000D01*
X6290930Y2754070D01*
X4739070D01*
X4330000Y2345000D01*
X2800000D01*
X2645000Y2500000D01*
X2350000D01*
X2330000Y2520000D01*
X2085000D01*
X1920000Y2355000D01*
X1445000D01*
X1250000Y2550000D01*
G01X3030010Y420010D02*
X2840010D01*
X2800000Y380000D01*
Y240000D01*
X2750000Y190000D01*
X1715020D01*
X1566010Y339010D01*
G01X1580000Y2460000D02*
X1605000D01*
X1689800Y2544800D01*
X1994810D01*
X2074310Y2624300D01*
X2720700D01*
X2910000Y2435000D01*
X4292570D01*
X4697570Y2840000D01*
X6418010D01*
X6465000Y2793010D01*
G01X1500000Y2460000D02*
X1540000Y2420000D01*
X1615000D01*
X1710000Y2515000D01*
X2005000D01*
X2080000Y2590000D01*
X2705000D01*
X2895000Y2400000D01*
X4300000D01*
X4708010Y2808010D01*
X6370000D01*
X6385000Y2793010D01*
G01X1500000Y2550000D02*
X1572490Y2622490D01*
X1642490D01*
X1745000Y2725000D01*
X2020000D01*
X2095000Y2650000D01*
X2745000D01*
X2930000Y2465000D01*
X4280140D01*
X4685140Y2870000D01*
X6515000D01*
X6630000Y2985000D01*
X6690000D01*
G01X7210000Y3210000D02*
Y3185000D01*
X7130000Y3105000D01*
X6610000D01*
X6515000Y3010000D01*
X5680000D01*
X5630000Y2960000D01*
X4622710D01*
X4222710Y2560000D01*
X2980000D01*
X2635000Y2905000D01*
X1654990D01*
X1549990Y2800000D01*
X1495000D01*
G01Y2700000D02*
X1670000Y2875000D01*
X2620000D01*
X2965000Y2530000D01*
X4245000D01*
X4645000Y2930000D01*
X6480000D01*
X6610000Y3060000D01*
X6790000D01*
X6865000Y2985000D01*
G01X1585000Y2705000D02*
X1725000Y2845000D01*
X2613650D01*
X2958650Y2500000D01*
X4272710D01*
X4672710Y2900000D01*
X6497430D01*
X6622430Y3025000D01*
X6740000D01*
X6780000Y2985000D01*
G01X2383990Y339010D02*
X2320000Y403000D01*
Y1920000D01*
X2205000Y2035000D01*
Y2190000D01*
G01X6845000Y3205000D02*
X6780000Y3140000D01*
X6595000D01*
X6495000Y3040000D01*
X4655000D01*
X4205000Y2590000D01*
X2990000D01*
X2640000Y2940000D01*
X2209000D01*
X2145000Y3004000D01*
G01X6765000Y3205000D02*
X6730000D01*
X6695000Y3170000D01*
X6580000D01*
X6480000Y3070000D01*
X4642570D01*
X4192570Y2620000D01*
X3005000D01*
X2645000Y2980000D01*
X2460000D01*
G01X5761000Y5846000D02*
X5690000Y5775000D01*
Y5590000D01*
X5560000Y5460000D01*
Y4195000D01*
X5600000Y4155000D01*
Y3675000D01*
X5395000Y3470000D01*
X4300000D01*
X4099990Y3670010D01*
X3940010D01*
X3890000Y3620000D01*
G01X6930000Y-100000D02*
X6815000Y-215000D01*
X5010000D01*
X4870000Y-75000D01*
X4535000D01*
X4340000Y120000D01*
Y585000D01*
G01X4380000Y2230000D02*
X4460000D01*
X4500000Y2190000D01*
X4725000D01*
X4790000Y2125000D01*
Y1960000D01*
X4702500Y1872500D01*
Y1507500D01*
X4780000Y1430000D01*
Y1240000D01*
X4870000Y1150000D01*
X5440000D01*
X5500000Y1090000D01*
X5695000D01*
X5715000Y1070000D01*
G01X4565000Y6155000D02*
X4455000Y6045000D01*
X4380000D01*
X4280000Y5945000D01*
Y5892700D01*
X4292700Y5880000D01*
X4479000D01*
X4504000Y5905000D01*
G01X4321000Y5925000D02*
X4396000Y6000000D01*
X4570000D01*
X4675000Y6105000D01*
X5070000D01*
X5385000Y5790000D01*
Y5490000D01*
X5495000Y5380000D01*
Y5005000D01*
X5430000Y4940000D01*
Y4190000D01*
X5495000Y4125000D01*
Y3785000D01*
G01X5810000Y785000D02*
Y710000D01*
X5790000Y690000D01*
X5630000D01*
X5615000Y675000D01*
Y590000D01*
X5435000Y410000D01*
X5305000D01*
X5290000Y395000D01*
Y280000D01*
X5275000Y265000D01*
X5135000D01*
X5115000Y245000D01*
Y120000D01*
X5085000Y90000D01*
X5010000D01*
X4975000Y55000D01*
X4640000D01*
X4625000Y70000D01*
Y85000D01*
X4635000Y95000D01*
X4940000D01*
X4950000Y105000D01*
Y125000D01*
X4940000Y135000D01*
X4630000D01*
X4620000Y145000D01*
Y185000D01*
X4635000Y200000D01*
X4845000D01*
X4865000Y180000D01*
G01X5700000Y785000D02*
X5630000Y855000D01*
X5130000D01*
X5070000Y795000D01*
Y450000D01*
X4995000Y375000D01*
X4595000D01*
X4581480Y388520D01*
Y406480D01*
X4595000Y420000D01*
X4855000D01*
X4865000Y430000D01*
Y450000D01*
X4850000Y465000D01*
X4595000D01*
X4580000Y480000D01*
Y497300D01*
X4592700Y510000D01*
X4865000D01*
X4910000Y465000D01*
G01X5470000Y785000D02*
X5440000Y755000D01*
X5225000D01*
X5210000Y740000D01*
Y355000D01*
X5200000Y345000D01*
X5180000D01*
X5165000Y360000D01*
Y760000D01*
X5155000Y770000D01*
X5140000D01*
X5125000Y755000D01*
Y420000D01*
X4995000Y290000D01*
X4590000D01*
X4575000Y275000D01*
Y255000D01*
X4595000Y235000D01*
X4975000D01*
X5030000Y180000D01*
G01X4585000Y585000D02*
X4890000D01*
X5000000Y475000D01*
G01X6365000Y265000D02*
X6225000Y405000D01*
Y727570D01*
X6037570Y915000D01*
X5725000D01*
X5695000Y945000D01*
X4722570D01*
X4575000Y1092570D01*
Y1690000D01*
X4555000Y1710000D01*
Y1785000D01*
X4510000Y1830000D01*
G01X6370000Y95000D02*
X6190000Y275000D01*
Y713070D01*
X6018070Y885000D01*
X5715000D01*
X5685000Y915000D01*
X4703070D01*
X4540000Y1078070D01*
Y1640000D01*
X4510000Y1670000D01*
Y1730000D01*
G01X4605000D02*
Y1105000D01*
X4730000Y980000D01*
X5700000D01*
X5735000Y945000D01*
X6045000D01*
X6255000Y735000D01*
Y425000D01*
X6370000Y310000D01*
X6405000D01*
X6445000Y270000D01*
X6455000D01*
G01X8060000Y3060000D02*
X7850000Y2850000D01*
X7410000D01*
X7320000Y2760000D01*
X7220000D01*
X6958280Y2498280D01*
X6011720D01*
X5881720Y2628280D01*
X5250000D01*
X5086720Y2465000D01*
X4555000D01*
X4440000Y2350000D01*
G01X4430000Y3650000D02*
X4510000Y3730000D01*
Y4840000D01*
X4550000Y4880000D01*
Y5859000D01*
X4504000Y5905000D01*
G01X5595000Y785000D02*
X5535000Y725000D01*
X5255000D01*
X5245000Y715000D01*
Y695000D01*
X5255000Y685000D01*
X5560000D01*
X5575000Y670000D01*
Y655000D01*
X5565000Y645000D01*
X5255000D01*
X5240000Y630000D01*
Y609390D01*
X5254390Y595000D01*
X5505000D01*
X5518520Y581480D01*
Y563520D01*
X5505000Y550000D01*
X5260000D01*
X5245000Y535000D01*
Y515000D01*
X5260000Y500000D01*
X5425000D01*
X5440010Y484990D01*
Y467030D01*
X5421490Y448510D01*
X5268510D01*
X5255000Y435000D01*
Y325000D01*
X5235000Y305000D01*
X5095000D01*
X5080000Y290000D01*
Y140000D01*
X5070000Y130000D01*
X5000000D01*
X4950000Y180000D01*
G01X4801000Y1575000D02*
Y1494000D01*
X4815000Y1480000D01*
Y1250000D01*
X4885000Y1180000D01*
X5470000D01*
X5530000Y1120000D01*
X5900000D01*
X5995000Y1025000D01*
X6065000D01*
X6320000Y770000D01*
Y465000D01*
X6365000Y420000D01*
X7527570D01*
X8170000Y1062430D01*
Y1210000D01*
X8270000Y1310000D01*
X8795000D01*
X8855000Y1250000D01*
G01X4790000Y1850000D02*
X4840000Y1800000D01*
Y1745000D01*
X4885000Y1700000D01*
X5510000D01*
G01X8505000Y3130000D02*
X8405000D01*
X8100000Y2825000D01*
X8045000D01*
X8025000Y2805000D01*
Y2605000D01*
X7870000Y2450000D01*
X7330000D01*
X7240000Y2360000D01*
X6145000D01*
X5685000Y1900000D01*
X5070000D01*
X4955000Y1785000D01*
G01X8170000Y3060000D02*
X8160000D01*
X7920000Y2820000D01*
X7575000D01*
X7485000Y2730000D01*
X7245000D01*
X6985000Y2470000D01*
X6000000D01*
X5870000Y2600000D01*
X5275000D01*
X5090000Y2415000D01*
X4795000D01*
X4790000Y2410000D01*
G01X5440000Y1065000D02*
X5405000D01*
X5395000Y1055000D01*
X5170000D01*
X5160000Y1045000D01*
Y1025000D01*
X5170000Y1015000D01*
X5705000D01*
X5735000Y985000D01*
X5755000D01*
X5765000Y995000D01*
Y1060000D01*
X5790000Y1085000D01*
X5890000D01*
X5900000Y1075000D01*
Y1055000D01*
X5890000Y1045000D01*
X5810000D01*
X5800000Y1035000D01*
Y995000D01*
X5810000Y985000D01*
X6055000D01*
X6290000Y750000D01*
Y445000D01*
X6352500Y382500D01*
X7532500D01*
X8207500Y1057500D01*
Y1192500D01*
X8295000Y1280000D01*
X8380000D01*
X8400000Y1260000D01*
Y1190000D01*
X8408990Y1181010D01*
X8436010D01*
X8445000Y1190000D01*
Y1265000D01*
X8460000Y1280000D01*
X8730000D01*
X8760000Y1250000D01*
G01X8635000Y3350000D02*
X8585000Y3300000D01*
Y3225000D01*
X8630000Y3180000D01*
Y3100000D01*
X8570000Y3040000D01*
X8410000D01*
X8140000Y2770000D01*
Y2615000D01*
X7905000Y2380000D01*
X7360000D01*
X7260000Y2280000D01*
X6170000D01*
X5725000Y1835000D01*
X5165000D01*
X5115000Y1785000D01*
G01X5035000D02*
X5120000Y1870000D01*
X5700000D01*
X6150000Y2320000D01*
X7245000D01*
X7340000Y2415000D01*
X7890000D01*
X8110000Y2635000D01*
Y2790000D01*
X8395000Y3075000D01*
X8535000D01*
X8590000Y3130000D01*
G01X8630000Y3250000D02*
X8660000Y3220000D01*
Y3085000D01*
X8570000Y2995000D01*
X8415000D01*
X8170000Y2750000D01*
Y2605000D01*
X7915000Y2350000D01*
X7380000D01*
X7280000Y2250000D01*
X6195000D01*
X5730000Y1785000D01*
X5210000D01*
G01X5090000Y3380000D02*
X5430000D01*
X5995000Y3945000D01*
Y4535000D01*
X6240000Y4780000D01*
Y5775000D01*
X6215000Y5800000D01*
X6114000D01*
X6069000Y5845000D01*
G01X5550000Y1175000D02*
X5575000Y1150000D01*
X6060000D01*
X6090000Y1120000D01*
Y1080000D01*
X6290000Y880000D01*
X6445000D01*
X6475000Y850000D01*
X6630000D01*
G01X5500000Y2555000D02*
X5865000D01*
X5980000Y2440000D01*
X7100000D01*
X7300000Y2640000D01*
X7445000D01*
X7590000Y2785000D01*
X7930000D01*
X8132500Y2987500D01*
X8202500D01*
X8300000Y3085000D01*
G01X6165000Y1140000D02*
X6215000Y1090000D01*
X6335000D01*
X6470000Y955000D01*
X6660000D01*
X6780000Y835000D01*
Y605000D01*
X6840000Y545000D01*
X7360000D01*
X7407500Y592500D01*
X7572500D01*
X7785000Y805000D01*
G01X10580000Y4030000D02*
X10220000D01*
X10080000Y3890000D01*
X8605000D01*
X8545000Y3830000D01*
Y3420000D01*
X8455000Y3330000D01*
X8385000D01*
X8235000Y3180000D01*
X7725000D01*
X7605000Y3060000D01*
X7375000D01*
X7025000Y2710000D01*
X6790000D01*
X6650000Y2570000D01*
X6260000D01*
X6190000Y2640000D01*
G01X6975000Y4325000D02*
X6865000Y4215000D01*
X6775000D01*
X6210000Y3650000D01*
G01X6360000Y495000D02*
X6380000Y515000D01*
X7035000D01*
X7075000Y475000D01*
G01X7405000Y3210000D02*
Y3180000D01*
X7180000Y2955000D01*
X7095000D01*
X7060000Y2920000D01*
Y2875000D01*
X6995000Y2810000D01*
X6760000D01*
X6590000Y2640000D01*
X6340000D01*
G01X8885000Y3545000D02*
X8835000D01*
X8823990Y3556010D01*
Y3743990D01*
X8807970Y3760010D01*
X8790010D01*
X8775000Y3745000D01*
Y3511670D01*
X8760000Y3496670D01*
X8745000D01*
X8730000Y3511670D01*
Y3750000D01*
X8720000Y3760000D01*
X8695000D01*
X8680000Y3745000D01*
Y3460000D01*
X8475000Y3255000D01*
X8400000D01*
X8260000Y3115000D01*
X7990000D01*
X7760000Y2885000D01*
X7290000D01*
X6995000Y2590000D01*
X6890000D01*
X6810000Y2670000D01*
G01X6975000Y4325000D02*
X7015000Y4365000D01*
Y4775000D01*
X6800000Y4990000D01*
Y5385000D01*
X6760000Y5425000D01*
X6605000D01*
G01X8275000Y1590000D02*
X8129990Y1444990D01*
Y1069990D01*
X7620000Y560000D01*
X7425000D01*
X7380000Y515000D01*
X7115000D01*
X7075000Y475000D01*
G01X6900000Y2665000D02*
X7024990D01*
X7374990Y3015000D01*
X7840000D01*
X7975000Y3150000D01*
X8244990D01*
X8384990Y3290000D01*
X8465000D01*
X8575000Y3400000D01*
Y3820000D01*
X8615000Y3860000D01*
X10110000D01*
X10160000Y3910000D01*
X10400000D01*
X10410000Y3920000D01*
Y3940000D01*
X10400000Y3950000D01*
X10245000D01*
X10233980Y3961020D01*
Y3978980D01*
X10245000Y3990000D01*
X10565000D01*
X10580000Y3975000D01*
Y3920000D01*
G01X8365000Y4490000D02*
X8270000D01*
X8210000Y4550000D01*
X7740000D01*
X7665000Y4625000D01*
Y5205000D01*
X7725000Y5265000D01*
Y5495000D01*
X7385000Y5835000D01*
Y6093000D01*
X6978000Y6500000D01*
G01X8275000Y1590000D02*
Y1685000D01*
X8157500Y1802500D01*
X7462500D01*
X7375000Y1715000D01*
G01X7775000Y115000D02*
X7950000Y-60000D01*
X8040000D01*
G01X7775000Y115000D02*
X7840000Y180000D01*
X8285000D01*
X8675000Y570000D01*
X8925000D01*
X8965000Y610000D01*
Y1045000D01*
G01X8260000Y2630000D02*
X8305000Y2585000D01*
Y2390000D01*
X8360000Y2335000D01*
Y2215000D01*
X8270000Y2125000D01*
X8100000D01*
X8015000Y2210000D01*
X7700000D01*
G01X7635000Y3210000D02*
X7675000Y3250000D01*
X8220000D01*
X8360000Y3390000D01*
X8440000D01*
X8480000Y3430000D01*
Y3840000D01*
X8585000Y3945000D01*
X9045000D01*
X9060000Y3960000D01*
Y3975000D01*
X9045000Y3990000D01*
X8925000D01*
X8915000Y4000000D01*
Y4020000D01*
X8930000Y4035000D01*
X9065000D01*
X9075000Y4045000D01*
Y4065000D01*
X9065000Y4075000D01*
X8930000D01*
X8915000Y4090000D01*
Y4115000D01*
X8925000Y4125000D01*
X9185000D01*
X9195000Y4115000D01*
Y3960000D01*
X9210000Y3945000D01*
X9230000D01*
X9240000Y3955000D01*
Y4295000D01*
G01X10434000Y2206000D02*
Y1894000D01*
X10310000Y1770000D01*
X9745000D01*
X9590000Y1925000D01*
Y2075000D01*
X9515000Y2150000D01*
X9345000D01*
X8950000Y2545000D01*
X8475000D01*
G01X8640000Y3820000D02*
X10100000D01*
X10270000Y3650000D01*
Y2620000D01*
G01X9935000Y1165000D02*
X9713990Y1386010D01*
X9323990D01*
X9309990Y1400010D01*
Y1424990D01*
X9320000Y1435000D01*
X9585000D01*
X9600000Y1450000D01*
Y1470000D01*
X9590000Y1480000D01*
X9190000D01*
G01X9100000D02*
Y1420000D01*
X9110000Y1410000D01*
X9215000D01*
X9297500Y1327500D01*
X9697500D01*
X9706490Y1318510D01*
Y1291490D01*
X9695000Y1280000D01*
X9347700D01*
X9335000Y1267300D01*
Y1250000D01*
X9350000Y1235000D01*
X9660000D01*
X9670000Y1225000D01*
Y1165000D01*
G01X10450000Y1170000D02*
X10305000D01*
X10220000Y1255000D01*
X10190000D01*
X9815000Y1630000D01*
X9180000D01*
G01X10195000Y1170000D02*
X9967500Y1397500D01*
X9952500D01*
X9936480Y1381480D01*
Y1363520D01*
X10010000Y1290000D01*
Y1270000D01*
X10000000Y1260000D01*
X9980000D01*
X9685000Y1555000D01*
X9125000D01*
X9100000Y1580000D01*
G01X10520000Y1400000D02*
X10220000Y1700000D01*
X9250000D01*
X9190000Y1760000D01*
G01X10580000Y3700000D02*
Y3159500D01*
X10510000Y3089500D01*
Y1861000D01*
X10561000Y1810000D01*
G01Y2210000D02*
X10545000Y2226000D01*
Y3075000D01*
X10625000Y3155000D01*
Y3765000D01*
X10580000Y3810000D01*
G54D19*
X1312010Y339010D03*
X1566010D03*
X2383990D03*
X2637990D03*
G54D28*
X9108000Y358000D03*
X9972000D03*
G54D38*
G01X9047500Y1040000D02*
X9075150Y1012350D01*
Y866380D01*
X9318730Y622800D01*
X9559360D01*
X9576400Y605760D01*
Y567040D01*
X9559360Y550000D01*
X9520000D01*
G01X9130000Y1040000D02*
X9102350Y1012350D01*
Y877650D01*
X9330000Y650000D01*
X9570630D01*
X9603600Y617030D01*
Y567040D01*
X9620640Y550000D01*
X9660000D01*
G01X9655000Y315000D02*
X9610000Y270000D01*
X9545000D01*
X9500000Y315000D01*
G01X9580000D02*
X9535000Y360000D01*
X9475000D01*
X9430000Y315000D01*
G01X10121000Y330000D02*
X10016000Y225000D01*
X9745000D01*
X9655000Y315000D01*
G54D29*
X9251000Y308000D03*
X9829000D03*
G54D39*
G01X-1104000Y5394000D02*
X-839000D01*
X-585000Y5140000D01*
X-10000D01*
G01X4006000Y3616000D02*
X4089000D01*
G01D02*
X4275000Y3430000D01*
X5405000D01*
X5845000Y3870000D01*
Y4535000D01*
X6045000Y4735000D01*
Y5545000D01*
X6090000Y5590000D01*
Y5740000D01*
X5984000Y5846000D01*
X5971000D01*
G01X4486000Y590000D02*
Y164000D01*
X4535000Y115000D01*
G01X5175000Y45000D02*
X5700000Y570000D01*
X5845000D01*
G01X5790000Y4230000D02*
Y4560000D01*
X6000000Y4770000D01*
Y5385000D01*
X5985000Y5400000D01*
Y5700000D01*
X5845000Y5840000D01*
Y5890000D01*
X5760000Y5975000D01*
X5430000D01*
X5190000Y6215000D01*
Y6470000D01*
X5075000Y6585000D01*
G01Y6665000D02*
Y6585000D01*
G01X5765000Y1485000D02*
X5700000D01*
X5616250Y1401250D01*
G01X5645000Y5165000D02*
X5895000D01*
X5926560Y5133440D01*
Y4861560D01*
X5835000Y4770000D01*
G01X7430000Y4430000D02*
Y4475000D01*
X6845000Y5060000D01*
Y5840000D01*
X6785000Y5900000D01*
X6025000D01*
X5971000Y5846000D01*
G01X7945000Y3875000D02*
X7870000Y3800000D01*
X7245000D01*
X7235000Y3810000D01*
X7186000D01*
G01D02*
Y4291000D01*
X7320000Y4425000D01*
G01X8395000Y935000D02*
X8400000Y940000D01*
X8410000D01*
X8530000Y820000D01*
X8725000D01*
X8915000Y630000D01*
M02*
