G04 ================== begin FILE IDENTIFICATION RECORD ==================*
G04 Layout Name:  FWCW_V3_1_25Jun24.brd*
G04 Film Name:    FWCW_V3_1_SMT.gbr*
G04 File Format:  Gerber RS274X*
G04 File Origin:  Cadence Allegro 17.4-S033*
G04 Origin Date:  Tue Jun 25 23:43:00 2024*
G04 *
G04 Layer:  BOARD GEOMETRY/CUTOUT*
G04 Layer:  BOARD GEOMETRY/DESIGN_OUTLINE*
G04 Layer:  DRAWING FORMAT/SMT*
G04 Layer:  PIN/SOLDERMASK_TOP*
G04 Layer:  PACKAGE GEOMETRY/SOLDERMASK_TOP*
G04 Layer:  DRAWING FORMAT/TITLE_BLOCK*
G04 Layer:  DRAWING FORMAT/TITLE_DATA*
G04 Layer:  DRAWING FORMAT/REVISION_BLOCK*
G04 Layer:  DRAWING FORMAT/REVISION_DATA*
G04 Layer:  BOARD GEOMETRY/SOLDERMASK_TOP*
G04 *
G04 Offset:    (0.0000 0.0000)*
G04 Mirror:    No*
G04 Mode:      Positive*
G04 Rotation:  0*
G04 FullContactRelief:  No*
G04 UndefLineWidth:     0.1524*
G04 ================== end FILE IDENTIFICATION RECORD ====================*
%FSLAX35Y35*MOMM*%
%IR0*IPPOS*OFA0.00000B0.00000*MIA0B0*SFA1.00000B1.00000*%
%AMMACRO130*
4,1,40,1.15,-.505,
1.15,.505,
1.148937,.517155,
1.145778,.528941,
1.140622,.54,
1.133623,.549995,
1.124995,.558623,
1.115,.565622,
1.103941,.570778,
1.092155,.573937,
1.08,.575,
-1.08,.575,
-1.092155,.573937,
-1.103941,.570778,
-1.115,.565622,
-1.124995,.558623,
-1.133623,.549995,
-1.140622,.54,
-1.145778,.528941,
-1.148937,.517155,
-1.15,.505,
-1.15,-.505,
-1.148937,-.517155,
-1.145778,-.528941,
-1.140622,-.54,
-1.133623,-.549995,
-1.124995,-.558623,
-1.115,-.565622,
-1.103941,-.570778,
-1.092155,-.573937,
-1.08,-.575,
1.08,-.575,
1.092155,-.573937,
1.103941,-.570778,
1.115,-.565622,
1.124995,-.558623,
1.133623,-.549995,
1.140622,-.54,
1.145778,-.528941,
1.148937,-.517155,
1.15,-.505,
0.0*
%
%ADD130MACRO130*%
%AMMACRO32*
4,1,40,.8,-.75,
.8,.75,
.79924,.758682,
.796985,.767101,
.793301,.775,
.788302,.782139,
.782139,.788302,
.775,.793301,
.767101,.796985,
.758682,.79924,
.75,.8,
-.75,.8,
-.758682,.79924,
-.767101,.796985,
-.775,.793301,
-.782139,.788302,
-.788302,.782139,
-.793301,.775,
-.796985,.767101,
-.79924,.758682,
-.8,.75,
-.8,-.75,
-.79924,-.758682,
-.796985,-.767101,
-.793301,-.775,
-.788302,-.782139,
-.782139,-.788302,
-.775,-.793301,
-.767101,-.796985,
-.758682,-.79924,
-.75,-.8,
.75,-.8,
.758682,-.79924,
.767101,-.796985,
.775,-.793301,
.782139,-.788302,
.788302,-.782139,
.793301,-.775,
.796985,-.767101,
.79924,-.758682,
.8,-.75,
0.0*
%
%ADD32MACRO32*%
%ADD103R,.8X1.*%
%AMMACRO26*
4,1,40,-.6992,-.7,
.6992,-.7,
.708021,-.699228,
.716575,-.696936,
.7246,-.693194,
.731854,-.688115,
.738115,-.681854,
.743194,-.6746,
.746936,-.666575,
.749228,-.658021,
.75,-.6492,
.75,.6492,
.749228,.658021,
.746936,.666575,
.743194,.6746,
.738115,.681854,
.731854,.688115,
.7246,.693194,
.716575,.696936,
.708021,.699228,
.6992,.7,
-.6992,.7,
-.708021,.699228,
-.716575,.696936,
-.7246,.693194,
-.731854,.688115,
-.738115,.681854,
-.743194,.6746,
-.746936,.666575,
-.749228,.658021,
-.75,.6492,
-.75,-.6492,
-.749228,-.658021,
-.746936,-.666575,
-.743194,-.6746,
-.738115,-.681854,
-.731854,-.688115,
-.7246,-.693194,
-.716575,-.696936,
-.708021,-.699228,
-.6992,-.7,
0.0*
%
%ADD26MACRO26*%
%AMMACRO114*
4,1,40,.5492,.15,
-.5492,.15,
-.558021,.149228,
-.566575,.146936,
-.5746,.143194,
-.581854,.138115,
-.588115,.131854,
-.593194,.1246,
-.596936,.116575,
-.599228,.108021,
-.6,.0992,
-.6,-.0992,
-.599228,-.108021,
-.596936,-.116575,
-.593194,-.1246,
-.588115,-.131854,
-.581854,-.138115,
-.5746,-.143194,
-.566575,-.146936,
-.558021,-.149228,
-.5492,-.15,
.5492,-.15,
.558021,-.149228,
.566575,-.146936,
.5746,-.143194,
.581854,-.138115,
.588115,-.131854,
.593194,-.1246,
.596936,-.116575,
.599228,-.108021,
.6,-.0992,
.6,.0992,
.599228,.108021,
.596936,.116575,
.593194,.1246,
.588115,.131854,
.581854,.138115,
.5746,.143194,
.566575,.146936,
.558021,.149228,
.5492,.15,
0.0*
%
%ADD114MACRO114*%
%AMMACRO110*
4,1,40,.95,-.4992,
.95,.4992,
.949228,.508021,
.946936,.516575,
.943194,.5246,
.938115,.531854,
.931854,.538115,
.9246,.543194,
.916575,.546936,
.908021,.549228,
.8992,.55,
-.8992,.55,
-.908021,.549228,
-.916575,.546936,
-.9246,.543194,
-.931854,.538115,
-.938115,.531854,
-.943194,.5246,
-.946936,.516575,
-.949228,.508021,
-.95,.4992,
-.95,-.4992,
-.949228,-.508021,
-.946936,-.516575,
-.943194,-.5246,
-.938115,-.531854,
-.931854,-.538115,
-.9246,-.543194,
-.916575,-.546936,
-.908021,-.549228,
-.8992,-.55,
.8992,-.55,
.908021,-.549228,
.916575,-.546936,
.9246,-.543194,
.931854,-.538115,
.938115,-.531854,
.943194,-.5246,
.946936,-.516575,
.949228,-.508021,
.95,-.4992,
0.0*
%
%ADD110MACRO110*%
%ADD99R,1.X.8*%
%AMMACRO17*
4,1,40,-1.85,.3483,
-1.85,-.3483,
-1.847695,-.374642,
-1.840851,-.400184,
-1.829676,-.42415,
-1.814509,-.445811,
-1.795811,-.464509,
-1.77415,-.479676,
-1.750184,-.490851,
-1.724642,-.497695,
-1.6983,-.5,
1.6983,-.5,
1.724642,-.497695,
1.750184,-.490851,
1.77415,-.479676,
1.795811,-.464509,
1.814509,-.445811,
1.829676,-.42415,
1.840851,-.400184,
1.847695,-.374642,
1.85,-.3483,
1.85,.3483,
1.847695,.374642,
1.840851,.400184,
1.829676,.42415,
1.814509,.445811,
1.795811,.464509,
1.77415,.479676,
1.750184,.490851,
1.724642,.497695,
1.6983,.5,
-1.6983,.5,
-1.724642,.497695,
-1.750184,.490851,
-1.77415,.479676,
-1.795811,.464509,
-1.814509,.445811,
-1.829676,.42415,
-1.840851,.400184,
-1.847695,.374642,
-1.85,.3483,
0.0*
%
%ADD17MACRO17*%
%ADD125R,.3X1.15*%
%ADD50R,3.6599X1.4999*%
%ADD68R,.72X2.1*%
%ADD79R,.6X1.05*%
%ADD77R,2.1X.72*%
%ADD123R,.6X1.15*%
%AMMACRO44*
4,1,40,.975,.325,
-.975,.325,
-.983682,.32424,
-.992101,.321985,
-1.,.318301,
-1.007139,.313302,
-1.013302,.307139,
-1.018301,.3,
-1.021985,.292101,
-1.02424,.283682,
-1.025,.275,
-1.025,-.275,
-1.02424,-.283682,
-1.021985,-.292101,
-1.018301,-.3,
-1.013302,-.307139,
-1.007139,-.313302,
-1.,-.318301,
-.992101,-.321985,
-.983682,-.32424,
-.975,-.325,
.975,-.325,
.983682,-.32424,
.992101,-.321985,
1.,-.318301,
1.007139,-.313302,
1.013302,-.307139,
1.018301,-.3,
1.021985,-.292101,
1.02424,-.283682,
1.025,-.275,
1.025,.275,
1.02424,.283682,
1.021985,.292101,
1.018301,.3,
1.013302,.307139,
1.007139,.313302,
1.,.318301,
.992101,.321985,
.983682,.32424,
.975,.325,
0.0*
%
%ADD44MACRO44*%
%AMMACRO80*
4,1,40,-.74,-.685,
.74,-.685,
.748682,-.68424,
.757101,-.681985,
.765,-.678301,
.772139,-.673302,
.778302,-.667139,
.783301,-.66,
.786985,-.652101,
.78924,-.643682,
.79,-.635,
.79,.635,
.78924,.643682,
.786985,.652101,
.783301,.66,
.778302,.667139,
.772139,.673302,
.765,.678301,
.757101,.681985,
.748682,.68424,
.74,.685,
-.74,.685,
-.748682,.68424,
-.757101,.681985,
-.765,.678301,
-.772139,.673302,
-.778302,.667139,
-.783301,.66,
-.786985,.652101,
-.78924,.643682,
-.79,.635,
-.79,-.635,
-.78924,-.643682,
-.786985,-.652101,
-.783301,-.66,
-.778302,-.667139,
-.772139,-.673302,
-.765,-.678301,
-.757101,-.681985,
-.748682,-.68424,
-.74,-.685,
0.0*
%
%ADD80MACRO80*%
%ADD38R,1.X.95*%
%ADD27R,.95X1.*%
%AMMACRO72*
4,1,40,.1742,.7,
-.1742,.7,
-.183021,.699228,
-.191575,.696936,
-.1996,.693194,
-.206854,.688115,
-.213115,.681854,
-.218194,.6746,
-.221936,.666575,
-.224228,.658021,
-.225,.6492,
-.225,-.6492,
-.224228,-.658021,
-.221936,-.666575,
-.218194,-.6746,
-.213115,-.681854,
-.206854,-.688115,
-.1996,-.693194,
-.191575,-.696936,
-.183021,-.699228,
-.1742,-.7,
.1742,-.7,
.183021,-.699228,
.191575,-.696936,
.1996,-.693194,
.206854,-.688115,
.213115,-.681854,
.218194,-.6746,
.221936,-.666575,
.224228,-.658021,
.225,-.6492,
.225,.6492,
.224228,.658021,
.221936,.666575,
.218194,.6746,
.213115,.681854,
.206854,.688115,
.1996,.693194,
.191575,.696936,
.183021,.699228,
.1742,.7,
0.0*
%
%ADD72MACRO72*%
%AMMACRO127*
4,1,40,.5344,.295,
-.5344,.295,
-.54145,.294383,
-.548286,.292552,
-.5547,.289561,
-.560497,.285501,
-.565501,.280497,
-.569561,.2747,
-.572552,.268286,
-.574383,.26145,
-.575,.2544,
-.575,-.2544,
-.574383,-.26145,
-.572552,-.268286,
-.569561,-.2747,
-.565501,-.280497,
-.560497,-.285501,
-.5547,-.289561,
-.548286,-.292552,
-.54145,-.294383,
-.5344,-.295,
.5344,-.295,
.54145,-.294383,
.548286,-.292552,
.5547,-.289561,
.560497,-.285501,
.565501,-.280497,
.569561,-.2747,
.572552,-.268286,
.574383,-.26145,
.575,-.2544,
.575,.2544,
.574383,.26145,
.572552,.268286,
.569561,.2747,
.565501,.280497,
.560497,.285501,
.5547,.289561,
.548286,.292552,
.54145,.294383,
.5344,.295,
0.0*
%
%ADD127MACRO127*%
%AMMACRO56*
4,1,40,.3889,.0212,
.0212,.3889,
.011863,.396754,
.001296,.402854,
-.01017,.407027,
-.022187,.409145,
-.034388,.409145,
-.046405,.407025,
-.05787,.402851,
-.068437,.39675,
-.0777,.3889,
-.3889,.0777,
-.396782,.068392,
-.402875,.057821,
-.407039,.046352,
-.409149,.034334,
-.40914,.022132,
-.407013,.010117,
-.402831,-.001346,
-.396722,-.011908,
-.3889,-.0212,
-.0212,-.3889,
-.011863,-.396754,
-.001296,-.402854,
.01017,-.407027,
.022187,-.409145,
.034388,-.409145,
.046405,-.407025,
.05787,-.402851,
.068437,-.39675,
.0777,-.3889,
.3889,-.0777,
.396782,-.068392,
.402875,-.057821,
.407039,-.046352,
.409149,-.034334,
.40914,-.022132,
.407013,-.010117,
.402831,.001346,
.396722,.011908,
.3889,.0212,
0.0*
%
%ADD56MACRO56*%
%AMMACRO55*
4,1,40,.0212,-.3889,
.3889,-.0212,
.396754,-.011863,
.402854,-.001296,
.407027,.01017,
.409145,.022187,
.409145,.034388,
.407025,.046405,
.402851,.05787,
.39675,.068437,
.3889,.0777,
.0777,.3889,
.068392,.396782,
.057821,.402875,
.046352,.407039,
.034334,.409149,
.022132,.40914,
.010117,.407013,
-.001346,.402831,
-.011908,.396722,
-.0212,.3889,
-.3889,.0212,
-.396754,.011863,
-.402854,.001296,
-.407027,-.01017,
-.409145,-.022187,
-.409145,-.034388,
-.407025,-.046405,
-.402851,-.05787,
-.39675,-.068437,
-.3889,-.0777,
-.0777,-.3889,
-.068392,-.396782,
-.057821,-.402875,
-.046352,-.407039,
-.034334,-.409149,
-.022132,-.40914,
-.010117,-.407013,
.001346,-.402831,
.011908,-.396722,
.0212,-.3889,
0.0*
%
%ADD55MACRO55*%
%AMMACRO22*
4,1,40,.29,-.26,
.29,.26,
.288937,.272155,
.285778,.283941,
.280622,.295,
.273623,.304995,
.264995,.313623,
.255,.320622,
.243941,.325778,
.232155,.328937,
.22,.33,
-.22,.33,
-.232155,.328937,
-.243941,.325778,
-.255,.320622,
-.264995,.313623,
-.273623,.304995,
-.280622,.295,
-.285778,.283941,
-.288937,.272155,
-.29,.26,
-.29,-.26,
-.288937,-.272155,
-.285778,-.283941,
-.280622,-.295,
-.273623,-.304995,
-.264995,-.313623,
-.255,-.320622,
-.243941,-.325778,
-.232155,-.328937,
-.22,-.33,
.22,-.33,
.232155,-.328937,
.243941,-.325778,
.255,-.320622,
.264995,-.313623,
.273623,-.304995,
.280622,-.295,
.285778,-.283941,
.288937,-.272155,
.29,-.26,
0.0*
%
%ADD22MACRO22*%
%AMMACRO18*
4,1,40,-.26,-.29,
.26,-.29,
.272155,-.288937,
.283941,-.285778,
.295,-.280622,
.304995,-.273623,
.313623,-.264995,
.320622,-.255,
.325778,-.243941,
.328937,-.232155,
.33,-.22,
.33,.22,
.328937,.232155,
.325778,.243941,
.320622,.255,
.313623,.264995,
.304995,.273623,
.295,.280622,
.283941,.285778,
.272155,.288937,
.26,.29,
-.26,.29,
-.272155,.288937,
-.283941,.285778,
-.295,.280622,
-.304995,.273623,
-.313623,.264995,
-.320622,.255,
-.325778,.243941,
-.328937,.232155,
-.33,.22,
-.33,-.22,
-.328937,-.232155,
-.325778,-.243941,
-.320622,-.255,
-.313623,-.264995,
-.304995,-.273623,
-.295,-.280622,
-.283941,-.285778,
-.272155,-.288937,
-.26,-.29,
0.0*
%
%ADD18MACRO18*%
%AMMACRO119*
4,1,40,-.325,.6242,
-.325,-.6242,
-.324228,-.633021,
-.321936,-.641575,
-.318194,-.6496,
-.313115,-.656854,
-.306854,-.663115,
-.2996,-.668194,
-.291575,-.671936,
-.283021,-.674228,
-.2742,-.675,
.2742,-.675,
.283021,-.674228,
.291575,-.671936,
.2996,-.668194,
.306854,-.663115,
.313115,-.656854,
.318194,-.6496,
.321936,-.641575,
.324228,-.633021,
.325,-.6242,
.325,.6242,
.324228,.633021,
.321936,.641575,
.318194,.6496,
.313115,.656854,
.306854,.663115,
.2996,.668194,
.291575,.671936,
.283021,.674228,
.2742,.675,
-.2742,.675,
-.283021,.674228,
-.291575,.671936,
-.2996,.668194,
-.306854,.663115,
-.313115,.656854,
-.318194,.6496,
-.321936,.641575,
-.324228,.633021,
-.325,.6242,
0.0*
%
%ADD119MACRO119*%
%AMMACRO40*
4,1,44,.55,-.1501,
.55,.1501,
.547013,.184812,
.537995,.21847,
.523268,.25005,
.503282,.278593,
.478643,.303232,
.4501,.323218,
.41852,.337945,
.384862,.346963,
.35015,.35,
.3501,.35,
-.3501,.35,
-.384813,.346972,
-.418473,.337962,
-.450057,.323243,
-.478605,.303264,
-.50325,.278632,
-.523243,.250093,
-.537977,.218517,
-.547004,.184862,
-.55005,.15015,
-.55,.1501,
-.55,-.1501,
-.547013,-.184812,
-.537995,-.21847,
-.523268,-.25005,
-.503282,-.278593,
-.478643,-.303232,
-.4501,-.323218,
-.41852,-.337945,
-.384862,-.346963,
-.35015,-.35,
-.3501,-.35,
.3501,-.35,
.384813,-.346972,
.418473,-.337962,
.450057,-.323243,
.478605,-.303264,
.50325,-.278632,
.523243,-.250093,
.537977,-.218517,
.547004,-.184862,
.55005,-.15015,
.55,-.1501,
0.0*
%
%ADD40MACRO40*%
%AMMACRO115*
4,1,40,.6242,.325,
-.6242,.325,
-.633021,.324228,
-.641575,.321936,
-.6496,.318194,
-.656854,.313115,
-.663115,.306854,
-.668194,.2996,
-.671936,.291575,
-.674228,.283021,
-.675,.2742,
-.675,-.2742,
-.674228,-.283021,
-.671936,-.291575,
-.668194,-.2996,
-.663115,-.306854,
-.656854,-.313115,
-.6496,-.318194,
-.641575,-.321936,
-.633021,-.324228,
-.6242,-.325,
.6242,-.325,
.633021,-.324228,
.641575,-.321936,
.6496,-.318194,
.656854,-.313115,
.663115,-.306854,
.668194,-.2996,
.671936,-.291575,
.674228,-.283021,
.675,-.2742,
.675,.2742,
.674228,.283021,
.671936,.291575,
.668194,.2996,
.663115,.306854,
.656854,.313115,
.6496,.318194,
.641575,.321936,
.633021,.324228,
.6242,.325,
0.0*
%
%ADD115MACRO115*%
%ADD124C,.6501*%
%ADD95R,.74X2.79*%
%AMMACRO82*
4,1,40,-.7374,-.5588,
.7374,-.5588,
.746082,-.55804,
.754501,-.555785,
.7624,-.552101,
.769539,-.547102,
.775702,-.540939,
.780701,-.5338,
.784385,-.525901,
.78664,-.517482,
.7874,-.5088,
.7874,.5088,
.78664,.517482,
.784385,.525901,
.780701,.5338,
.775702,.540939,
.769539,.547102,
.7624,.552101,
.754501,.555785,
.746082,.55804,
.7374,.5588,
-.7374,.5588,
-.746082,.55804,
-.754501,.555785,
-.7624,.552101,
-.769539,.547102,
-.775702,.540939,
-.780701,.5338,
-.784385,.525901,
-.78664,.517482,
-.7874,.5088,
-.7874,-.5088,
-.78664,-.517482,
-.784385,-.525901,
-.780701,-.5338,
-.775702,-.540939,
-.769539,-.547102,
-.7624,-.552101,
-.754501,-.555785,
-.746082,-.55804,
-.7374,-.5588,
0.0*
%
%ADD82MACRO82*%
%AMMACRO108*
4,1,44,-.3304,.9546,
-.3304,-.9546,
-.329687,-.963422,
-.327403,-.971978,
-.323669,-.980007,
-.318597,-.987265,
-.312342,-.993533,
-.305093,-.998619,
-.297072,-1.002369,
-.288521,-1.00467,
-.2797,-1.00545,
-.2796,-1.0054,
.2796,-1.0054,
.288422,-1.004687,
.296978,-1.002403,
.305007,-.998669,
.312265,-.993597,
.318533,-.987342,
.323619,-.980093,
.327369,-.972072,
.32967,-.963521,
.33045,-.9547,
.3304,-.9546,
.3304,.9546,
.329687,.963422,
.327403,.971978,
.323669,.980007,
.318597,.987265,
.312342,.993533,
.305093,.998619,
.297072,1.002369,
.288521,1.00467,
.2797,1.00545,
.2796,1.0054,
-.2796,1.0054,
-.288422,1.004687,
-.296978,1.002403,
-.305007,.998669,
-.312265,.993597,
-.318533,.987342,
-.323619,.980093,
-.327369,.972072,
-.32967,.963521,
-.33045,.9547,
-.3304,.9546,
0.0*
%
%ADD108MACRO108*%
%ADD59C,.4199*%
%AMMACRO45*
4,1,44,.9546,.3304,
-.9546,.3304,
-.963422,.329687,
-.971978,.327403,
-.980007,.323669,
-.987265,.318597,
-.993533,.312342,
-.998619,.305093,
-1.002369,.297072,
-1.00467,.288521,
-1.00545,.2797,
-1.0054,.2796,
-1.0054,-.2796,
-1.004687,-.288422,
-1.002403,-.296978,
-.998669,-.305007,
-.993597,-.312265,
-.987342,-.318533,
-.980093,-.323619,
-.972072,-.327369,
-.963521,-.32967,
-.9547,-.33045,
-.9546,-.3304,
.9546,-.3304,
.963422,-.329687,
.971978,-.327403,
.980007,-.323669,
.987265,-.318597,
.993533,-.312342,
.998619,-.305093,
1.002369,-.297072,
1.00467,-.288521,
1.00545,-.2797,
1.0054,-.2796,
1.0054,.2796,
1.004687,.288422,
1.002403,.296978,
.998669,.305007,
.993597,.312265,
.987342,.318533,
.980093,.323619,
.972072,.327369,
.963521,.32967,
.9547,.33045,
.9546,.3304,
0.0*
%
%ADD45MACRO45*%
%AMMACRO92*
4,1,40,-.2625,.15,
.2625,.15,
.269021,.14942,
.275342,.147716,
.281271,.14494,
.286628,.141177,
.29125,.136541,
.294997,.131173,
.297754,.125236,
.299439,.11891,
.3,.1125,
.3,-.1125,
.29942,-.119021,
.297716,-.125342,
.29494,-.131271,
.291177,-.136628,
.286541,-.14125,
.281173,-.144997,
.275236,-.147754,
.26891,-.149439,
.2625,-.15,
-.2625,-.15,
-.269021,-.14942,
-.275342,-.147716,
-.281271,-.14494,
-.286628,-.141177,
-.29125,-.136541,
-.294997,-.131173,
-.297754,-.125236,
-.299439,-.11891,
-.3,-.1125,
-.3,.1125,
-.29942,.119021,
-.297716,.125342,
-.29494,.131271,
-.291177,.136628,
-.286541,.14125,
-.281173,.144997,
-.275236,.147754,
-.26891,.149439,
-.2625,.15,
0.0*
%
%ADD92MACRO92*%
%AMMACRO98*
4,1,40,.6096,.3048,
-.6096,.3048,
-.618421,.304028,
-.626975,.301736,
-.635,.297994,
-.642254,.292915,
-.648515,.286654,
-.653594,.2794,
-.657336,.271375,
-.659628,.262821,
-.6604,.254,
-.6604,-.254,
-.659628,-.262821,
-.657336,-.271375,
-.653594,-.2794,
-.648515,-.286654,
-.642254,-.292915,
-.635,-.297994,
-.626975,-.301736,
-.618421,-.304028,
-.6096,-.3048,
.6096,-.3048,
.618421,-.304028,
.626975,-.301736,
.635,-.297994,
.642254,-.292915,
.648515,-.286654,
.653594,-.2794,
.657336,-.271375,
.659628,-.262821,
.6604,-.254,
.6604,.254,
.659628,.262821,
.657336,.271375,
.653594,.2794,
.648515,.286654,
.642254,.292915,
.635,.297994,
.626975,.301736,
.618421,.304028,
.6096,.3048,
0.0*
%
%ADD98MACRO98*%
%AMMACRO46*
4,1,40,.6604,-.7112,
.6604,.7112,
.659242,.724432,
.655805,.737262,
.650191,.7493,
.642573,.76018,
.63318,.769573,
.6223,.777191,
.610262,.782805,
.597432,.786242,
.5842,.7874,
-.5842,.7874,
-.597432,.786242,
-.610262,.782805,
-.6223,.777191,
-.63318,.769573,
-.642573,.76018,
-.650191,.7493,
-.655805,.737262,
-.659242,.724432,
-.6604,.7112,
-.6604,-.7112,
-.659242,-.724432,
-.655805,-.737262,
-.650191,-.7493,
-.642573,-.76018,
-.63318,-.769573,
-.6223,-.777191,
-.610262,-.782805,
-.597432,-.786242,
-.5842,-.7874,
.5842,-.7874,
.597432,-.786242,
.610262,-.782805,
.6223,-.777191,
.63318,-.769573,
.642573,-.76018,
.650191,-.7493,
.655805,-.737262,
.659242,-.724432,
.6604,-.7112,
0.0*
%
%ADD46MACRO46*%
%AMMACRO90*
4,1,44,-.1,-.25,
-.1,.25,
-.099635,.254329,
-.098523,.258529,
-.096699,.262472,
-.094218,.266039,
-.091155,.26912,
-.087604,.271623,
-.083672,.273471,
-.079479,.274608,
-.075152,.275,
-.075,.275,
.075,.275,
.079329,.274635,
.083529,.273523,
.087472,.271699,
.091039,.269218,
.09412,.266155,
.096623,.262604,
.098471,.258672,
.099608,.254479,
.1,.250152,
.1,.25,
.1,-.25,
.099635,-.254329,
.098523,-.258529,
.096699,-.262472,
.094218,-.266039,
.091155,-.26912,
.087604,-.271623,
.083672,-.273471,
.079479,-.274608,
.075152,-.275,
.075,-.275,
-.075,-.275,
-.079329,-.274635,
-.083529,-.273523,
-.087472,-.271699,
-.091039,-.269218,
-.09412,-.266155,
-.096623,-.262604,
-.098471,-.258672,
-.099608,-.254479,
-.1,-.250152,
-.1,-.25,
0.0*
%
%ADD90MACRO90*%
%AMMACRO69*
4,1,40,-.3556,-.4318,
.3556,-.4318,
.364421,-.431028,
.372975,-.428736,
.381,-.424994,
.388254,-.419915,
.394515,-.413654,
.399594,-.4064,
.403336,-.398375,
.405628,-.389821,
.4064,-.381,
.4064,.381,
.405628,.389821,
.403336,.398375,
.399594,.4064,
.394515,.413654,
.388254,.419915,
.381,.424994,
.372975,.428736,
.364421,.431028,
.3556,.4318,
-.3556,.4318,
-.364421,.431028,
-.372975,.428736,
-.381,.424994,
-.388254,.419915,
-.394515,.413654,
-.399594,.4064,
-.403336,.398375,
-.405628,.389821,
-.4064,.381,
-.4064,-.381,
-.405628,-.389821,
-.403336,-.398375,
-.399594,-.4064,
-.394515,-.413654,
-.388254,-.419915,
-.381,-.424994,
-.372975,-.428736,
-.364421,-.431028,
-.3556,-.4318,
0.0*
%
%ADD69MACRO69*%
%AMMACRO91*
4,1,40,-.125,-.2438,
-.125,.2438,
-.124486,.249251,
-.123033,.254531,
-.120685,.259478,
-.117514,.263942,
-.113616,.267787,
-.10911,.270898,
-.104132,.273178,
-.098833,.27456,
-.0938,.275,
.0938,.275,
.099251,.274486,
.104531,.273033,
.109478,.270685,
.113942,.267514,
.117787,.263616,
.120898,.25911,
.123178,.254132,
.12456,.248833,
.125,.2438,
.125,-.2438,
.124486,-.249251,
.123033,-.254531,
.120685,-.259478,
.117514,-.263942,
.113616,-.267787,
.10911,-.270898,
.104132,-.273178,
.098833,-.27456,
.0938,-.275,
-.0938,-.275,
-.099251,-.274486,
-.104531,-.273033,
-.109478,-.270685,
-.113942,-.267514,
-.117787,-.263616,
-.120898,-.25911,
-.123178,-.254132,
-.12456,-.248833,
-.125,-.2438,
0.0*
%
%ADD91MACRO91*%
%AMMACRO73*
4,1,40,-1.5,.95,
-1.5,-.95,
-1.49924,-.958682,
-1.496985,-.967101,
-1.493301,-.975,
-1.488302,-.982139,
-1.482139,-.988302,
-1.475,-.993301,
-1.467101,-.996985,
-1.458682,-.99924,
-1.45,-1.,
1.45,-1.,
1.458682,-.99924,
1.467101,-.996985,
1.475,-.993301,
1.482139,-.988302,
1.488302,-.982139,
1.493301,-.975,
1.496985,-.967101,
1.49924,-.958682,
1.5,-.95,
1.5,.95,
1.49924,.958682,
1.496985,.967101,
1.493301,.975,
1.488302,.982139,
1.482139,.988302,
1.475,.993301,
1.467101,.996985,
1.458682,.99924,
1.45,1.,
-1.45,1.,
-1.458682,.99924,
-1.467101,.996985,
-1.475,.993301,
-1.482139,.988302,
-1.488302,.982139,
-1.493301,.975,
-1.496985,.967101,
-1.49924,.958682,
-1.5,.95,
0.0*
%
%ADD73MACRO73*%
%AMMACRO25*
4,1,40,.1778,-.2286,
.1778,.2286,
.177028,.237421,
.174736,.245975,
.170994,.254,
.165915,.261254,
.159654,.267515,
.1524,.272594,
.144375,.276336,
.135821,.278628,
.127,.2794,
-.127,.2794,
-.135821,.278628,
-.144375,.276336,
-.1524,.272594,
-.159654,.267515,
-.165915,.261254,
-.170994,.254,
-.174736,.245975,
-.177028,.237421,
-.1778,.2286,
-.1778,-.2286,
-.177028,-.237421,
-.174736,-.245975,
-.170994,-.254,
-.165915,-.261254,
-.159654,-.267515,
-.1524,-.272594,
-.144375,-.276336,
-.135821,-.278628,
-.127,-.2794,
.127,-.2794,
.135821,-.278628,
.144375,-.276336,
.1524,-.272594,
.159654,-.267515,
.165915,-.261254,
.170994,-.254,
.174736,-.245975,
.177028,-.237421,
.1778,-.2286,
0.0*
%
%ADD25MACRO25*%
%AMMACRO48*
4,1,44,-.55,.2489,
-.55,-.2489,
-.548514,-.266456,
-.543953,-.283478,
-.536505,-.29945,
-.526397,-.313886,
-.513936,-.326347,
-.4995,-.336455,
-.483528,-.343903,
-.466506,-.348464,
-.44895,-.35,
-.4489,-.35,
.4489,-.35,
.466457,-.348473,
.483481,-.34392,
.499457,-.33648,
.513898,-.326379,
.526365,-.313924,
.53648,-.299493,
.543936,-.283525,
.548505,-.266505,
.55005,-.24895,
.55,-.2489,
.55,.2489,
.548514,.266456,
.543953,.283478,
.536505,.29945,
.526397,.313886,
.513936,.326347,
.4995,.336455,
.483528,.343903,
.466506,.348464,
.44895,.35,
.4489,.35,
-.4489,.35,
-.466457,.348473,
-.483481,.34392,
-.499457,.33648,
-.513898,.326379,
-.526365,.313924,
-.53648,.299493,
-.543936,.283525,
-.548505,.266505,
-.55005,.24895,
-.55,.2489,
0.0*
%
%ADD48MACRO48*%
%ADD121O,1.2X2.2*%
%ADD122O,1.05X2.1*%
%ADD74R,1.X2.2*%
%ADD10O,1.5X3.*%
%AMMACRO89*
4,1,40,1.05,-.4,
1.05,.4,
1.04924,.408682,
1.046985,.417101,
1.043301,.425,
1.038302,.432139,
1.032139,.438302,
1.025,.443301,
1.017101,.446985,
1.008682,.44924,
1.,.45,
-1.,.45,
-1.008682,.44924,
-1.017101,.446985,
-1.025,.443301,
-1.032139,.438302,
-1.038302,.432139,
-1.043301,.425,
-1.046985,.417101,
-1.04924,.408682,
-1.05,.4,
-1.05,-.4,
-1.04924,-.408682,
-1.046985,-.417101,
-1.043301,-.425,
-1.038302,-.432139,
-1.032139,-.438302,
-1.025,-.443301,
-1.017101,-.446985,
-1.008682,-.44924,
-1.,-.45,
1.,-.45,
1.008682,-.44924,
1.017101,-.446985,
1.025,-.443301,
1.032139,-.438302,
1.038302,-.432139,
1.043301,-.425,
1.046985,-.417101,
1.04924,-.408682,
1.05,-.4,
0.0*
%
%ADD89MACRO89*%
%ADD51R,2.1X1.4*%
%AMMACRO49*
4,1,40,.975,1.6,
-.975,1.6,
-.983682,1.59924,
-.992101,1.596985,
-1.,1.593301,
-1.007139,1.588302,
-1.013302,1.582139,
-1.018301,1.575,
-1.021985,1.567101,
-1.02424,1.558682,
-1.025,1.55,
-1.025,-1.55,
-1.02424,-1.558682,
-1.021985,-1.567101,
-1.018301,-1.575,
-1.013302,-1.582139,
-1.007139,-1.588302,
-1.,-1.593301,
-.992101,-1.596985,
-.983682,-1.59924,
-.975,-1.6,
.975,-1.6,
.983682,-1.59924,
.992101,-1.596985,
1.,-1.593301,
1.007139,-1.588302,
1.013302,-1.582139,
1.018301,-1.575,
1.021985,-1.567101,
1.02424,-1.558682,
1.025,-1.55,
1.025,1.55,
1.02424,1.558682,
1.021985,1.567101,
1.018301,1.575,
1.013302,1.582139,
1.007139,1.588302,
1.,1.593301,
.992101,1.596985,
.983682,1.59924,
.975,1.6,
0.0*
%
%ADD49MACRO49*%
%AMMACRO117*
4,1,40,.15,-.5492,
.15,.5492,
.149228,.558021,
.146936,.566575,
.143194,.5746,
.138115,.581854,
.131854,.588115,
.1246,.593194,
.116575,.596936,
.108021,.599228,
.0992,.6,
-.0992,.6,
-.108021,.599228,
-.116575,.596936,
-.1246,.593194,
-.131854,.588115,
-.138115,.581854,
-.143194,.5746,
-.146936,.566575,
-.149228,.558021,
-.15,.5492,
-.15,-.5492,
-.149228,-.558021,
-.146936,-.566575,
-.143194,-.5746,
-.138115,-.581854,
-.131854,-.588115,
-.1246,-.593194,
-.116575,-.596936,
-.108021,-.599228,
-.0992,-.6,
.0992,-.6,
.108021,-.599228,
.116575,-.596936,
.1246,-.593194,
.131854,-.588115,
.138115,-.581854,
.143194,-.5746,
.146936,-.566575,
.149228,-.558021,
.15,-.5492,
0.0*
%
%ADD117MACRO117*%
%ADD112R,1.4X2.1*%
%AMMACRO100*
4,1,40,-.8,.75,
-.8,-.75,
-.79924,-.758682,
-.796985,-.767101,
-.793301,-.775,
-.788302,-.782139,
-.782139,-.788302,
-.775,-.793301,
-.767101,-.796985,
-.758682,-.79924,
-.75,-.8,
.75,-.8,
.758682,-.79924,
.767101,-.796985,
.775,-.793301,
.782139,-.788302,
.788302,-.782139,
.793301,-.775,
.796985,-.767101,
.79924,-.758682,
.8,-.75,
.8,.75,
.79924,.758682,
.796985,.767101,
.793301,.775,
.788302,.782139,
.782139,.788302,
.775,.793301,
.767101,.796985,
.758682,.79924,
.75,.8,
-.75,.8,
-.758682,.79924,
-.767101,.796985,
-.775,.793301,
-.782139,.788302,
-.788302,.782139,
-.793301,.775,
-.796985,.767101,
-.79924,.758682,
-.8,.75,
0.0*
%
%ADD100MACRO100*%
%ADD24O,.5499X1.4999*%
%ADD13R,1.1001X1.05*%
%AMMACRO104*
4,1,40,.75,.8,
-.75,.8,
-.758682,.79924,
-.767101,.796985,
-.775,.793301,
-.782139,.788302,
-.788302,.782139,
-.793301,.775,
-.796985,.767101,
-.79924,.758682,
-.8,.75,
-.8,-.75,
-.79924,-.758682,
-.796985,-.767101,
-.793301,-.775,
-.788302,-.782139,
-.782139,-.788302,
-.775,-.793301,
-.767101,-.796985,
-.758682,-.79924,
-.75,-.8,
.75,-.8,
.758682,-.79924,
.767101,-.796985,
.775,-.793301,
.782139,-.788302,
.788302,-.782139,
.793301,-.775,
.796985,-.767101,
.79924,-.758682,
.8,-.75,
.8,.75,
.79924,.758682,
.796985,.767101,
.793301,.775,
.788302,.782139,
.782139,.788302,
.775,.793301,
.767101,.796985,
.758682,.79924,
.75,.8,
0.0*
%
%ADD104MACRO104*%
%ADD75R,2.X1.6*%
%ADD12R,1.05X1.1001*%
%ADD105R,1.6X1.3*%
%ADD70R,1.6X2.1*%
%ADD14R,4.X2.5*%
%AMMACRO83*
4,1,40,.4492,.8,
-.4492,.8,
-.458021,.799228,
-.466575,.796936,
-.4746,.793194,
-.481854,.788115,
-.488115,.781854,
-.493194,.7746,
-.496936,.766575,
-.499228,.758021,
-.5,.7492,
-.5,-.7492,
-.499228,-.758021,
-.496936,-.766575,
-.493194,-.7746,
-.488115,-.781854,
-.481854,-.788115,
-.4746,-.793194,
-.466575,-.796936,
-.458021,-.799228,
-.4492,-.8,
.4492,-.8,
.458021,-.799228,
.466575,-.796936,
.4746,-.793194,
.481854,-.788115,
.488115,-.781854,
.493194,-.7746,
.496936,-.766575,
.499228,-.758021,
.5,-.7492,
.5,.7492,
.499228,.758021,
.496936,.766575,
.493194,.7746,
.488115,.781854,
.481854,.788115,
.4746,.793194,
.466575,.796936,
.458021,.799228,
.4492,.8,
0.0*
%
%ADD83MACRO83*%
%ADD15C,1.*%
%ADD47R,2.8001X1.4*%
%AMMACRO29*
4,1,40,.4492,1.325,
-.4492,1.325,
-.458021,1.324228,
-.466575,1.321936,
-.4746,1.318194,
-.481854,1.313115,
-.488115,1.306854,
-.493194,1.2996,
-.496936,1.291575,
-.499228,1.283021,
-.5,1.2742,
-.5,-1.2742,
-.499228,-1.283021,
-.496936,-1.291575,
-.493194,-1.2996,
-.488115,-1.306854,
-.481854,-1.313115,
-.4746,-1.318194,
-.466575,-1.321936,
-.458021,-1.324228,
-.4492,-1.325,
.4492,-1.325,
.458021,-1.324228,
.466575,-1.321936,
.4746,-1.318194,
.481854,-1.313115,
.488115,-1.306854,
.493194,-1.2996,
.496936,-1.291575,
.499228,-1.283021,
.5,-1.2742,
.5,1.2742,
.499228,1.283021,
.496936,1.291575,
.493194,1.2996,
.488115,1.306854,
.481854,1.313115,
.4746,1.318194,
.466575,1.321936,
.458021,1.324228,
.4492,1.325,
0.0*
%
%ADD29MACRO29*%
%AMMACRO118*
4,1,40,.6992,1.35,
-.6992,1.35,
-.708021,1.349228,
-.716575,1.346936,
-.7246,1.343194,
-.731854,1.338115,
-.738115,1.331854,
-.743194,1.3246,
-.746936,1.316575,
-.749228,1.308021,
-.75,1.2992,
-.75,-1.2992,
-.749228,-1.308021,
-.746936,-1.316575,
-.743194,-1.3246,
-.738115,-1.331854,
-.731854,-1.338115,
-.7246,-1.343194,
-.716575,-1.346936,
-.708021,-1.349228,
-.6992,-1.35,
.6992,-1.35,
.708021,-1.349228,
.716575,-1.346936,
.7246,-1.343194,
.731854,-1.338115,
.738115,-1.331854,
.743194,-1.3246,
.746936,-1.316575,
.749228,-1.308021,
.75,-1.2992,
.75,1.2992,
.749228,1.308021,
.746936,1.316575,
.743194,1.3246,
.738115,1.331854,
.731854,1.338115,
.7246,1.343194,
.716575,1.346936,
.708021,1.349228,
.6992,1.35,
0.0*
%
%ADD118MACRO118*%
%ADD54C,2.3*%
%ADD20C,1.3001*%
%AMMACRO97*
4,1,40,.175,-.6242,
.175,.6242,
.174228,.633021,
.171936,.641575,
.168194,.6496,
.163115,.656854,
.156854,.663115,
.1496,.668194,
.141575,.671936,
.133021,.674228,
.1242,.675,
-.1242,.675,
-.133021,.674228,
-.141575,.671936,
-.1496,.668194,
-.156854,.663115,
-.163115,.656854,
-.168194,.6496,
-.171936,.641575,
-.174228,.633021,
-.175,.6242,
-.175,-.6242,
-.174228,-.633021,
-.171936,-.641575,
-.168194,-.6496,
-.163115,-.656854,
-.156854,-.663115,
-.1496,-.668194,
-.141575,-.671936,
-.133021,-.674228,
-.1242,-.675,
.1242,-.675,
.133021,-.674228,
.141575,-.671936,
.1496,-.668194,
.156854,-.663115,
.163115,-.656854,
.168194,-.6496,
.171936,-.641575,
.174228,-.633021,
.175,-.6242,
0.0*
%
%ADD97MACRO97*%
%AMMACRO96*
4,1,40,-.6242,-.175,
.6242,-.175,
.633021,-.174228,
.641575,-.171936,
.6496,-.168194,
.656854,-.163115,
.663115,-.156854,
.668194,-.1496,
.671936,-.141575,
.674228,-.133021,
.675,-.1242,
.675,.1242,
.674228,.133021,
.671936,.141575,
.668194,.1496,
.663115,.156854,
.656854,.163115,
.6496,.168194,
.641575,.171936,
.633021,.174228,
.6242,.175,
-.6242,.175,
-.633021,.174228,
-.641575,.171936,
-.6496,.168194,
-.656854,.163115,
-.663115,.156854,
-.668194,.1496,
-.671936,.141575,
-.674228,.133021,
-.675,.1242,
-.675,-.1242,
-.674228,-.133021,
-.671936,-.141575,
-.668194,-.1496,
-.663115,-.156854,
-.656854,-.163115,
-.6496,-.168194,
-.641575,-.171936,
-.633021,-.174228,
-.6242,-.175,
0.0*
%
%ADD96MACRO96*%
%AMMACRO81*
4,1,40,-.685,.74,
-.685,-.74,
-.68424,-.748682,
-.681985,-.757101,
-.678301,-.765,
-.673302,-.772139,
-.667139,-.778302,
-.66,-.783301,
-.652101,-.786985,
-.643682,-.78924,
-.635,-.79,
.635,-.79,
.643682,-.78924,
.652101,-.786985,
.66,-.783301,
.667139,-.778302,
.673302,-.772139,
.678301,-.765,
.681985,-.757101,
.68424,-.748682,
.685,-.74,
.685,.74,
.68424,.748682,
.681985,.757101,
.678301,.765,
.673302,.772139,
.667139,.778302,
.66,.783301,
.652101,.786985,
.643682,.78924,
.635,.79,
-.635,.79,
-.643682,.78924,
-.652101,.786985,
-.66,.783301,
-.667139,.778302,
-.673302,.772139,
-.678301,.765,
-.681985,.757101,
-.68424,.748682,
-.685,.74,
0.0*
%
%ADD81MACRO81*%
%ADD65C,1.5*%
%ADD34R,1.4X1.95*%
%ADD21R,2.8001X1.7*%
%ADD19C,6.*%
%ADD116C,2.032*%
%AMMACRO84*
4,1,40,.1742,.15,
-.1742,.15,
-.183021,.149228,
-.191575,.146936,
-.1996,.143194,
-.206854,.138115,
-.213115,.131854,
-.218194,.1246,
-.221936,.116575,
-.224228,.108021,
-.225,.0992,
-.225,-.0992,
-.224228,-.108021,
-.221936,-.116575,
-.218194,-.1246,
-.213115,-.131854,
-.206854,-.138115,
-.1996,-.143194,
-.191575,-.146936,
-.183021,-.149228,
-.1742,-.15,
.1742,-.15,
.183021,-.149228,
.191575,-.146936,
.1996,-.143194,
.206854,-.138115,
.213115,-.131854,
.218194,-.1246,
.221936,-.116575,
.224228,-.108021,
.225,-.0992,
.225,.0992,
.224228,.108021,
.221936,.116575,
.218194,.1246,
.213115,.131854,
.206854,.138115,
.1996,.143194,
.191575,.146936,
.183021,.149228,
.1742,.15,
0.0*
%
%ADD84MACRO84*%
%ADD42R,1.3701X2.1321*%
%ADD31C,1.6*%
%AMMACRO30*
4,1,40,.1992,.125,
-.1992,.125,
-.208021,.124228,
-.216575,.121936,
-.2246,.118194,
-.231854,.113115,
-.238115,.106854,
-.243194,.0996,
-.246936,.091575,
-.249228,.083021,
-.25,.0742,
-.25,-.0742,
-.249228,-.083021,
-.246936,-.091575,
-.243194,-.0996,
-.238115,-.106854,
-.231854,-.113115,
-.2246,-.118194,
-.216575,-.121936,
-.208021,-.124228,
-.1992,-.125,
.1992,-.125,
.208021,-.124228,
.216575,-.121936,
.2246,-.118194,
.231854,-.113115,
.238115,-.106854,
.243194,-.0996,
.246936,-.091575,
.249228,-.083021,
.25,-.0742,
.25,.0742,
.249228,.083021,
.246936,.091575,
.243194,.0996,
.238115,.106854,
.231854,.113115,
.2246,.118194,
.216575,.121936,
.208021,.124228,
.1992,.125,
0.0*
%
%ADD30MACRO30*%
%ADD11R,1.95X1.4*%
%AMMACRO94*
4,1,40,.61,-.4067,
.61,.4067,
.609228,.415521,
.606936,.424075,
.603194,.4321,
.598115,.439354,
.591854,.445615,
.5846,.450694,
.576575,.454436,
.568021,.456728,
.5592,.4575,
-.5592,.4575,
-.568021,.456728,
-.576575,.454436,
-.5846,.450694,
-.591854,.445615,
-.598115,.439354,
-.603194,.4321,
-.606936,.424075,
-.609228,.415521,
-.61,.4067,
-.61,-.4067,
-.609228,-.415521,
-.606936,-.424075,
-.603194,-.4321,
-.598115,-.439354,
-.591854,-.445615,
-.5846,-.450694,
-.576575,-.454436,
-.568021,-.456728,
-.5592,-.4575,
.5592,-.4575,
.568021,-.456728,
.576575,-.454436,
.5846,-.450694,
.591854,-.445615,
.598115,-.439354,
.603194,-.4321,
.606936,-.424075,
.609228,-.415521,
.61,-.4067,
0.0*
%
%ADD94MACRO94*%
%ADD36R,1.7003X1.3701*%
%ADD43R,1.3701X1.7003*%
%AMMACRO67*
4,1,40,-.4,.3992,
-.4,-.3992,
-.399228,-.408021,
-.396936,-.416575,
-.393194,-.4246,
-.388115,-.431854,
-.381854,-.438115,
-.3746,-.443194,
-.366575,-.446936,
-.358021,-.449228,
-.3492,-.45,
.3492,-.45,
.358021,-.449228,
.366575,-.446936,
.3746,-.443194,
.381854,-.438115,
.388115,-.431854,
.393194,-.4246,
.396936,-.416575,
.399228,-.408021,
.4,-.3992,
.4,.3992,
.399228,.408021,
.396936,.416575,
.393194,.4246,
.388115,.431854,
.381854,.438115,
.3746,.443194,
.366575,.446936,
.358021,.449228,
.3492,.45,
-.3492,.45,
-.358021,.449228,
-.366575,.446936,
-.3746,.443194,
-.381854,.438115,
-.388115,.431854,
-.393194,.4246,
-.396936,.416575,
-.399228,.408021,
-.4,.3992,
0.0*
%
%ADD67MACRO67*%
%ADD33R,2.1001X2.1001*%
%AMMACRO111*
4,1,40,.3992,.4,
-.3992,.4,
-.408021,.399228,
-.416575,.396936,
-.4246,.393194,
-.431854,.388115,
-.438115,.381854,
-.443194,.3746,
-.446936,.366575,
-.449228,.358021,
-.45,.3492,
-.45,-.3492,
-.449228,-.358021,
-.446936,-.366575,
-.443194,-.3746,
-.438115,-.381854,
-.431854,-.388115,
-.4246,-.393194,
-.416575,-.396936,
-.408021,-.399228,
-.3992,-.4,
.3992,-.4,
.408021,-.399228,
.416575,-.396936,
.4246,-.393194,
.431854,-.388115,
.438115,-.381854,
.443194,-.3746,
.446936,-.366575,
.449228,-.358021,
.45,-.3492,
.45,.3492,
.449228,.358021,
.446936,.366575,
.443194,.3746,
.438115,.381854,
.431854,.388115,
.4246,.393194,
.416575,.396936,
.408021,.399228,
.3992,.4,
0.0*
%
%ADD111MACRO111*%
%ADD120R,1.5X1.5*%
%ADD102C,1.651*%
%AMMACRO28*
4,1,40,-.29,.26,
-.29,-.26,
-.288937,-.272155,
-.285778,-.283941,
-.280622,-.295,
-.273623,-.304995,
-.264995,-.313623,
-.255,-.320622,
-.243941,-.325778,
-.232155,-.328937,
-.22,-.33,
.22,-.33,
.232155,-.328937,
.243941,-.325778,
.255,-.320622,
.264995,-.313623,
.273623,-.304995,
.280622,-.295,
.285778,-.283941,
.288937,-.272155,
.29,-.26,
.29,.26,
.288937,.272155,
.285778,.283941,
.280622,.295,
.273623,.304995,
.264995,.313623,
.255,.320622,
.243941,.325778,
.232155,.328937,
.22,.33,
-.22,.33,
-.232155,.328937,
-.243941,.325778,
-.255,.320622,
-.264995,.313623,
-.273623,.304995,
-.280622,.295,
-.285778,.283941,
-.288937,.272155,
-.29,.26,
0.0*
%
%ADD28MACRO28*%
%ADD52R,2.613X5.28*%
%AMMACRO41*
4,1,44,-.55,.1501,
-.55,-.1501,
-.547013,-.184812,
-.537995,-.21847,
-.523268,-.25005,
-.503282,-.278593,
-.478643,-.303232,
-.4501,-.323218,
-.41852,-.337945,
-.384862,-.346963,
-.35015,-.35,
-.3501,-.35,
.3501,-.35,
.384813,-.346972,
.418473,-.337962,
.450057,-.323243,
.478605,-.303264,
.50325,-.278632,
.523243,-.250093,
.537977,-.218517,
.547004,-.184862,
.55005,-.15015,
.55,-.1501,
.55,.1501,
.547013,.184812,
.537995,.21847,
.523268,.25005,
.503282,.278593,
.478643,.303232,
.4501,.323218,
.41852,.337945,
.384862,.346963,
.35015,.35,
.3501,.35,
-.3501,.35,
-.384813,.346972,
-.418473,.337962,
-.450057,.323243,
-.478605,.303264,
-.50325,.278632,
-.523243,.250093,
-.537977,.218517,
-.547004,.184862,
-.55005,.15015,
-.55,.1501,
0.0*
%
%ADD41MACRO41*%
%AMMACRO23*
4,1,40,.26,.29,
-.26,.29,
-.272155,.288937,
-.283941,.285778,
-.295,.280622,
-.304995,.273623,
-.313623,.264995,
-.320622,.255,
-.325778,.243941,
-.328937,.232155,
-.33,.22,
-.33,-.22,
-.328937,-.232155,
-.325778,-.243941,
-.320622,-.255,
-.313623,-.264995,
-.304995,-.273623,
-.295,-.280622,
-.283941,-.285778,
-.272155,-.288937,
-.26,-.29,
.26,-.29,
.272155,-.288937,
.283941,-.285778,
.295,-.280622,
.304995,-.273623,
.313623,-.264995,
.320622,-.255,
.325778,-.243941,
.328937,-.232155,
.33,-.22,
.33,.22,
.328937,.232155,
.325778,.243941,
.320622,.255,
.313623,.264995,
.304995,.273623,
.295,.280622,
.283941,.285778,
.272155,.288937,
.26,.29,
0.0*
%
%ADD23MACRO23*%
%ADD126C,1.185*%
%ADD64R,.762X.254*%
%ADD63R,.254X.762*%
%ADD101R,1.651X1.651*%
%ADD37R,1.6299X1.43*%
%ADD35R,1.4999X1.1001*%
%ADD129R,1.185X1.185*%
%AMMACRO107*
4,1,44,.3304,-.9546,
.3304,.9546,
.329687,.963422,
.327403,.971978,
.323669,.980007,
.318597,.987265,
.312342,.993533,
.305093,.998619,
.297072,1.002369,
.288521,1.00467,
.2797,1.00545,
.2796,1.0054,
-.2796,1.0054,
-.288422,1.004687,
-.296978,1.002403,
-.305007,.998669,
-.312265,.993597,
-.318533,.987342,
-.323619,.980093,
-.327369,.972072,
-.32967,.963521,
-.33045,.9547,
-.3304,.9546,
-.3304,-.9546,
-.329687,-.963422,
-.327403,-.971978,
-.323669,-.980007,
-.318597,-.987265,
-.312342,-.993533,
-.305093,-.998619,
-.297072,-1.002369,
-.288521,-1.00467,
-.2797,-1.00545,
-.2796,-1.0054,
.2796,-1.0054,
.288422,-1.004687,
.296978,-1.002403,
.305007,-.998669,
.312265,-.993597,
.318533,-.987342,
.323619,-.980093,
.327369,-.972072,
.32967,-.963521,
.33045,-.9547,
.3304,-.9546,
0.0*
%
%ADD107MACRO107*%
%AMMACRO85*
4,1,40,-.5588,.7374,
-.5588,-.7374,
-.55804,-.746082,
-.555785,-.754501,
-.552101,-.7624,
-.547102,-.769539,
-.540939,-.775702,
-.5338,-.780701,
-.525901,-.784385,
-.517482,-.78664,
-.5088,-.7874,
.5088,-.7874,
.517482,-.78664,
.525901,-.784385,
.5338,-.780701,
.540939,-.775702,
.547102,-.769539,
.552101,-.7624,
.555785,-.754501,
.55804,-.746082,
.5588,-.7374,
.5588,.7374,
.55804,.746082,
.555785,.754501,
.552101,.7624,
.547102,.769539,
.540939,.775702,
.5338,.780701,
.525901,.784385,
.517482,.78664,
.5088,.7874,
-.5088,.7874,
-.517482,.78664,
-.525901,.784385,
-.5338,.780701,
-.540939,.775702,
-.547102,.769539,
-.552101,.7624,
-.555785,.754501,
-.55804,.746082,
-.5588,.7374,
0.0*
%
%ADD85MACRO85*%
%ADD57R,2.486X5.28*%
%AMMACRO39*
4,1,44,-.9546,-.3304,
.9546,-.3304,
.963422,-.329687,
.971978,-.327403,
.980007,-.323669,
.987265,-.318597,
.993533,-.312342,
.998619,-.305093,
1.002369,-.297072,
1.00467,-.288521,
1.00545,-.2797,
1.0054,-.2796,
1.0054,.2796,
1.004687,.288422,
1.002403,.296978,
.998669,.305007,
.993597,.312265,
.987342,.318533,
.980093,.323619,
.972072,.327369,
.963521,.32967,
.9547,.33045,
.9546,.3304,
-.9546,.3304,
-.963422,.329687,
-.971978,.327403,
-.980007,.323669,
-.987265,.318597,
-.993533,.312342,
-.998619,.305093,
-1.002369,.297072,
-1.00467,.288521,
-1.00545,.2797,
-1.0054,.2796,
-1.0054,-.2796,
-1.004687,-.288422,
-1.002403,-.296978,
-.998669,-.305007,
-.993597,-.312265,
-.987342,-.318533,
-.980093,-.323619,
-.972072,-.327369,
-.963521,-.32967,
-.9547,-.33045,
-.9546,-.3304,
0.0*
%
%ADD39MACRO39*%
%AMMACRO113*
4,1,40,-.6096,-.3048,
.6096,-.3048,
.618421,-.304028,
.626975,-.301736,
.635,-.297994,
.642254,-.292915,
.648515,-.286654,
.653594,-.2794,
.657336,-.271375,
.659628,-.262821,
.6604,-.254,
.6604,.254,
.659628,.262821,
.657336,.271375,
.653594,.2794,
.648515,.286654,
.642254,.292915,
.635,.297994,
.626975,.301736,
.618421,.304028,
.6096,.3048,
-.6096,.3048,
-.618421,.304028,
-.626975,.301736,
-.635,.297994,
-.642254,.292915,
-.648515,.286654,
-.653594,.2794,
-.657336,.271375,
-.659628,.262821,
-.6604,.254,
-.6604,-.254,
-.659628,-.262821,
-.657336,-.271375,
-.653594,-.2794,
-.648515,-.286654,
-.642254,-.292915,
-.635,-.297994,
-.626975,-.301736,
-.618421,-.304028,
-.6096,-.3048,
0.0*
%
%ADD113MACRO113*%
%AMMACRO78*
4,1,40,.3048,-.6096,
.3048,.6096,
.304028,.618421,
.301736,.626975,
.297994,.635,
.292915,.642254,
.286654,.648515,
.2794,.653594,
.271375,.657336,
.262821,.659628,
.254,.6604,
-.254,.6604,
-.262821,.659628,
-.271375,.657336,
-.2794,.653594,
-.286654,.648515,
-.292915,.642254,
-.297994,.635,
-.301736,.626975,
-.304028,.618421,
-.3048,.6096,
-.3048,-.6096,
-.304028,-.618421,
-.301736,-.626975,
-.297994,-.635,
-.292915,-.642254,
-.286654,-.648515,
-.2794,-.653594,
-.271375,-.657336,
-.262821,-.659628,
-.254,-.6604,
.254,-.6604,
.262821,-.659628,
.271375,-.657336,
.2794,-.653594,
.286654,-.648515,
.292915,-.642254,
.297994,-.635,
.301736,-.626975,
.304028,-.618421,
.3048,-.6096,
0.0*
%
%ADD78MACRO78*%
%ADD87O,.8128X.4572*%
%ADD53R,3.9101X2.8941*%
%ADD86O,.4572X.8128*%
%AMMACRO93*
4,1,40,.5842,.5969,
-.5842,.5969,
-.597432,.595742,
-.610262,.592305,
-.6223,.586691,
-.63318,.579073,
-.642573,.56968,
-.650191,.5588,
-.655805,.546762,
-.659242,.533932,
-.6604,.5207,
-.6604,-.5207,
-.659242,-.533932,
-.655805,-.546762,
-.650191,-.5588,
-.642573,-.56968,
-.63318,-.579073,
-.6223,-.586691,
-.610262,-.592305,
-.597432,-.595742,
-.5842,-.5969,
.5842,-.5969,
.597432,-.595742,
.610262,-.592305,
.6223,-.586691,
.63318,-.579073,
.642573,-.56968,
.650191,-.5588,
.655805,-.546762,
.659242,-.533932,
.6604,-.5207,
.6604,.5207,
.659242,.533932,
.655805,.546762,
.650191,.5588,
.642573,.56968,
.63318,.579073,
.6223,.586691,
.610262,.592305,
.597432,.595742,
.5842,.5969,
0.0*
%
%ADD93MACRO93*%
%ADD71R,1.7X3.4999*%
%ADD62R,2.5908X2.5908*%
%AMMACRO16*
4,1,40,.7112,.6604,
-.7112,.6604,
-.724432,.659242,
-.737262,.655805,
-.7493,.650191,
-.76018,.642573,
-.769573,.63318,
-.777191,.6223,
-.782805,.610262,
-.786242,.597432,
-.7874,.5842,
-.7874,-.5842,
-.786242,-.597432,
-.782805,-.610262,
-.777191,-.6223,
-.769573,-.63318,
-.76018,-.642573,
-.7493,-.650191,
-.737262,-.655805,
-.724432,-.659242,
-.7112,-.6604,
.7112,-.6604,
.724432,-.659242,
.737262,-.655805,
.7493,-.650191,
.76018,-.642573,
.769573,-.63318,
.777191,-.6223,
.782805,-.610262,
.786242,-.597432,
.7874,-.5842,
.7874,.5842,
.786242,.597432,
.782805,.610262,
.777191,.6223,
.769573,.63318,
.76018,.642573,
.7493,.650191,
.737262,.655805,
.724432,.659242,
.7112,.6604,
0.0*
%
%ADD16MACRO16*%
%ADD60C,1.4999*%
%AMMACRO106*
4,1,40,-.3754,.1492,
-.3754,-.1492,
-.374242,-.162432,
-.370805,-.175262,
-.365191,-.1873,
-.357573,-.19818,
-.34818,-.207573,
-.3373,-.215191,
-.325262,-.220805,
-.312432,-.224242,
-.2992,-.2254,
.2992,-.2254,
.312432,-.224242,
.325262,-.220805,
.3373,-.215191,
.34818,-.207573,
.357573,-.19818,
.365191,-.1873,
.370805,-.175262,
.374242,-.162432,
.3754,-.1492,
.3754,.1492,
.374242,.162432,
.370805,.175262,
.365191,.1873,
.357573,.19818,
.34818,.207573,
.3373,.215191,
.325262,.220805,
.312432,.224242,
.2992,.2254,
-.2992,.2254,
-.312432,.224242,
-.325262,.220805,
-.3373,.215191,
-.34818,.207573,
-.357573,.19818,
-.365191,.1873,
-.370805,.175262,
-.374242,.162432,
-.3754,.1492,
0.0*
%
%ADD106MACRO106*%
%ADD58C,1.5999*%
%ADD66R,.7X.8999*%
%AMMACRO88*
4,1,40,-1.2319,1.1811,
-1.2319,-1.1811,
-1.231128,-1.189921,
-1.228836,-1.198475,
-1.225094,-1.2065,
-1.220015,-1.213754,
-1.213754,-1.220015,
-1.2065,-1.225094,
-1.198475,-1.228836,
-1.189921,-1.231128,
-1.1811,-1.2319,
1.1811,-1.2319,
1.189921,-1.231128,
1.198475,-1.228836,
1.2065,-1.225094,
1.213754,-1.220015,
1.220015,-1.213754,
1.225094,-1.2065,
1.228836,-1.198475,
1.231128,-1.189921,
1.2319,-1.1811,
1.2319,1.1811,
1.231128,1.189921,
1.228836,1.198475,
1.225094,1.2065,
1.220015,1.213754,
1.213754,1.220015,
1.2065,1.225094,
1.198475,1.228836,
1.189921,1.231128,
1.1811,1.2319,
-1.1811,1.2319,
-1.189921,1.231128,
-1.198475,1.228836,
-1.2065,1.225094,
-1.213754,1.220015,
-1.220015,1.213754,
-1.225094,1.2065,
-1.228836,1.198475,
-1.231128,1.189921,
-1.2319,1.1811,
0.0*
%
%ADD88MACRO88*%
%AMMACRO109*
4,1,40,-.4191,.3683,
-.4191,-.3683,
-.418328,-.377121,
-.416036,-.385675,
-.412294,-.3937,
-.407215,-.400954,
-.400954,-.407215,
-.3937,-.412294,
-.385675,-.416036,
-.377121,-.418328,
-.3683,-.4191,
.3683,-.4191,
.377121,-.418328,
.385675,-.416036,
.3937,-.412294,
.400954,-.407215,
.407215,-.400954,
.412294,-.3937,
.416036,-.385675,
.418328,-.377121,
.4191,-.3683,
.4191,.3683,
.418328,.377121,
.416036,.385675,
.412294,.3937,
.407215,.400954,
.400954,.407215,
.3937,.412294,
.385675,.416036,
.377121,.418328,
.3683,.4191,
-.3683,.4191,
-.377121,.418328,
-.385675,.416036,
-.3937,.412294,
-.400954,.407215,
-.407215,.400954,
-.412294,.3937,
-.416036,.385675,
-.418328,.377121,
-.4191,.3683,
0.0*
%
%ADD109MACRO109*%
%AMMACRO76*
4,1,40,.3683,.4191,
-.3683,.4191,
-.377121,.418328,
-.385675,.416036,
-.3937,.412294,
-.400954,.407215,
-.407215,.400954,
-.412294,.3937,
-.416036,.385675,
-.418328,.377121,
-.4191,.3683,
-.4191,-.3683,
-.418328,-.377121,
-.416036,-.385675,
-.412294,-.3937,
-.407215,-.400954,
-.400954,-.407215,
-.3937,-.412294,
-.385675,-.416036,
-.377121,-.418328,
-.3683,-.4191,
.3683,-.4191,
.377121,-.418328,
.385675,-.416036,
.3937,-.412294,
.400954,-.407215,
.407215,-.400954,
.412294,-.3937,
.416036,-.385675,
.418328,-.377121,
.4191,-.3683,
.4191,.3683,
.418328,.377121,
.416036,.385675,
.412294,.3937,
.407215,.400954,
.400954,.407215,
.3937,.412294,
.385675,.416036,
.377121,.418328,
.3683,.4191,
0.0*
%
%ADD76MACRO76*%
%ADD61R,1.4999X1.4999*%
%AMMACRO128*
4,1,40,.5,-.4992,
.5,.4992,
.499228,.508021,
.496936,.516575,
.493194,.5246,
.488115,.531854,
.481854,.538115,
.4746,.543194,
.466575,.546936,
.458021,.549228,
.4492,.55,
-.4492,.55,
-.458021,.549228,
-.466575,.546936,
-.4746,.543194,
-.481854,.538115,
-.488115,.531854,
-.493194,.5246,
-.496936,.516575,
-.499228,.508021,
-.5,.4992,
-.5,-.4992,
-.499228,-.508021,
-.496936,-.516575,
-.493194,-.5246,
-.488115,-.531854,
-.481854,-.538115,
-.4746,-.543194,
-.466575,-.546936,
-.458021,-.549228,
-.4492,-.55,
.4492,-.55,
.458021,-.549228,
.466575,-.546936,
.4746,-.543194,
.481854,-.538115,
.488115,-.531854,
.493194,-.5246,
.496936,-.516575,
.499228,-.508021,
.5,-.4992,
0.0*
%
%ADD128MACRO128*%
%ADD131C,.1524*%
G75*
%LPD*%
G75*
G36*
G01X10110000Y5320000D02*
X10680000D01*
G02X10710000Y5290000I0J-30000D01*
G01Y-260000D01*
G02X10680000Y-290000I-30000J0D01*
G01X-1960000D01*
G02X-1990000Y-260000I0J30000D01*
G01Y2230000D01*
X-1940000D01*
Y-240000D01*
X-955500D01*
G03X-915000Y-195000I-4750J45000D01*
G01Y10000D01*
G02X-315000I300000J0D01*
G01Y-195000D01*
G03X-274500Y-240000I45250J0D01*
G01X10069500D01*
G03X10110000Y-195000I-4750J45000D01*
G01Y10000D01*
G02X10410000Y310000I300000J0D01*
G01X10600000D01*
G03X10660000Y360000I9167J50000D01*
G01Y4679500D01*
G03X10615000Y4720000I-45000J-4750D01*
G01X10410000D01*
G02X10110000Y5020000I0J300000D01*
G01Y5320000D01*
G37*
G36*
G01X-1990000Y2230000D02*
X-1940000D01*
Y-240000D01*
X-955500D01*
G03X-915000Y-195000I-4750J45000D01*
G01Y10000D01*
G02X-315000I300000J0D01*
G01Y-195000D01*
G03X-274500Y-240000I45250J0D01*
G01X4500000D01*
Y-290000D01*
X-1960000D01*
G02X-1990000Y-260000I0J30000D01*
G01Y2230000D01*
G37*
G36*
G01X-1910000Y3435000D02*
Y2305000D01*
X-1510000D01*
Y3435000D01*
X-1910000D01*
G37*
G36*
G01Y3890000D02*
X-1510000D01*
Y4835000D01*
X-1910000D01*
Y3890000D01*
G37*
G36*
G01X-1960000Y6790000D02*
X320000D01*
G02X350000Y6760000I0J-30000D01*
G01Y5390000D01*
G03X420000Y5320000I70000J0D01*
G01X515000D01*
Y5270000D01*
X420000D01*
G02X300000Y5390000I0J120000D01*
G01Y6740000D01*
X-1349500D01*
G03X-1390000Y6695000I4750J-45000D01*
G01Y6490000D01*
G02X-1690000Y6190000I-300000J0D01*
G01X-1880000D01*
G03X-1940000Y6140000I-9167J-50000D01*
G01Y5060000D01*
X-1990000D01*
Y6760000D01*
G02X-1960000Y6790000I30000J0D01*
G37*
G36*
G01D02*
X320000D01*
G02X350000Y6760000I0J-30000D01*
G01Y5390000D01*
G03X420000Y5320000I70000J0D01*
G01X455000D01*
Y5270000D01*
X420000D01*
G02X300000Y5390000I0J120000D01*
G01Y6740000D01*
X-1349500D01*
G03X-1390000Y6695000I4750J-45000D01*
G01Y6490000D01*
G02X-1690000Y6190000I-300000J0D01*
G01X-1880000D01*
G03X-1940000Y6140000I-9167J-50000D01*
G01Y5060000D01*
X-1990000D01*
Y6760000D01*
G02X-1960000Y6790000I30000J0D01*
G37*
G36*
G01X1875000D02*
X2840000D01*
Y6740000D01*
X2485500D01*
G03X2445000Y6695000I4750J-45000D01*
G01Y6490000D01*
G02X2145000Y6190000I-300000J0D01*
G01X1955000D01*
G03X1939940Y6190490I-9165J-50000D01*
G01X1849510D01*
X1845000Y6195000D01*
Y6760000D01*
G02X1875000Y6790000I30000J0D01*
G37*
G36*
G01X4119950Y6294920D02*
X4240050D01*
Y6369970D01*
X4180000Y6400010D01*
X4119950Y6369980D01*
Y6294920D01*
G37*
G36*
G01Y6384990D02*
X4180000Y6415020D01*
X4240050Y6384990D01*
Y6495080D01*
X4119950D01*
Y6384990D01*
G37*
G36*
G01X4095000Y6790000D02*
X8329620D01*
G02X8385000Y6730000I-4813J-60000D01*
G01Y5560320D01*
X8385320D01*
Y5390320D01*
G03X8455320Y5320320I70000J0D01*
G01X8815000D01*
Y5270320D01*
X8455320D01*
G02X8335320Y5390320I0J120000D01*
G01Y5540000D01*
X8335000D01*
Y6149500D01*
G03X8290000Y6190000I-45000J-4750D01*
G01X8085000D01*
G02X7785000Y6490000I0J300000D01*
G01Y6680000D01*
G03X7735000Y6740000I-50000J9167D01*
G01X4095000D01*
Y6790000D01*
G37*
G36*
G01X4259950Y6294920D02*
X4380050D01*
Y6369970D01*
X4320000Y6400010D01*
X4259950Y6369980D01*
Y6294920D01*
G37*
G36*
G01X4399950D02*
X4520050D01*
Y6369970D01*
X4460000Y6400010D01*
X4399950Y6369980D01*
Y6294920D01*
G37*
G36*
G01X4259950Y6384990D02*
X4320000Y6415020D01*
X4380050Y6384990D01*
Y6495080D01*
X4259950D01*
Y6384990D01*
G37*
G36*
G01X4399950D02*
X4460000Y6415020D01*
X4520050Y6384990D01*
Y6495080D01*
X4399950D01*
Y6384990D01*
G37*
G36*
G01X10110000Y5320000D02*
X10680000D01*
G02X10710000Y5290000I0J-30000D01*
G01Y-260000D01*
G02X10680000Y-290000I-30000J0D01*
G01X4825000D01*
Y-240000D01*
X10069500D01*
G03X10110000Y-195000I-4750J45000D01*
G01Y10000D01*
G02X10410000Y310000I300000J0D01*
G01X10600000D01*
G03X10660000Y360000I9167J50000D01*
G01Y4679500D01*
G03X10615000Y4720000I-45000J-4750D01*
G01X10410000D01*
G02X10110000Y5020000I0J300000D01*
G01Y5320000D01*
G37*
G54D100*
X6530000Y-100000D03*
X6930000D03*
X7240000D03*
X8480000Y4140000D03*
G54D101*
X6470000Y6500000D03*
G54D110*
X7920000Y1355000D03*
Y1605000D03*
G54D102*
X6724000Y6500000D03*
X6978000D03*
G54D120*
X8995000Y2800000D03*
Y3100000D03*
Y3400000D03*
Y3700000D03*
Y4000000D03*
X9325000Y2800000D03*
Y4000000D03*
X9655000Y2800000D03*
Y4000000D03*
X9985000Y2800000D03*
Y3100000D03*
Y3400000D03*
Y3700000D03*
Y4000000D03*
G54D111*
X7917500Y2277500D03*
Y2422500D03*
X8102500Y2277500D03*
Y2422500D03*
G54D112*
X8190000Y-20000D03*
X8630000D03*
G54D10*
X-1815000Y450000D03*
X-1465000D03*
X-1065000D03*
G54D121*
X9108000Y-60000D03*
X9972000D03*
G54D103*
X7095000Y3880000D03*
Y4260000D03*
X7000000Y4650000D03*
X7095000Y4890000D03*
X7285000Y3880000D03*
X7190000Y4120000D03*
X7285000Y4260000D03*
X7190000Y4650000D03*
Y4500000D03*
G54D130*
X10440000Y4332500D03*
Y4627500D03*
G54D131*
G01X-1960000Y-310000D02*
G02X-2010000Y-260000I0J50000D01*
G01Y6760000D01*
G02X-1960000Y6810000I50000J0D01*
G01X320000D01*
G02X370000Y6760000I0J-50000D01*
G01Y5390000D01*
G03X420000Y5340000I50000J0D01*
G01X1775000D01*
G03X1825000Y5390000I0J50000D01*
G01Y6755000D01*
G02X1880000Y6810000I55000J0D01*
G01X8320000D01*
G02X8405000Y6725000I0J-85000D01*
G01Y5390000D01*
G03X8455000Y5340000I50000J0D01*
G01X10680000D01*
G02X10730000Y5290000I0J-50000D01*
G01Y-260000D01*
G02X10680000Y-310000I-50000J0D01*
G01X-1960000D01*
G01X3445000Y4440000D02*
X2375000D01*
G02X2270000Y4545000I0J105000D01*
G01Y5615000D01*
G02X2375000Y5720000I105000J0D01*
G01X3445000D01*
G02X3550000Y5615000I0J-105000D01*
G01Y4545000D01*
G02X3445000Y4440000I-105000J0D01*
G54D113*
X8715700Y685000D03*
Y780000D03*
Y875000D03*
X8944300Y685000D03*
Y780000D03*
Y875000D03*
G54D11*
X-1660000Y704990D03*
Y995010D03*
X1540000Y3264990D03*
Y3555010D03*
G54D20*
X-1465000Y-50000D03*
G54D104*
X7110000Y5120000D03*
G54D122*
X9108000Y358000D03*
X9972000D03*
G54D30*
X-1205000Y5765000D03*
Y5715000D03*
Y5665000D03*
Y5615000D03*
X-1395000D03*
Y5665000D03*
Y5715000D03*
Y5765000D03*
X-1205000Y5865000D03*
Y5815000D03*
X-1395000D03*
Y5865000D03*
G54D21*
X-1360000Y720000D03*
Y1180000D03*
G54D105*
X7365000Y4690000D03*
Y4870000D03*
G54D12*
X-1710000Y1359990D03*
Y1520010D03*
X-1410000Y1359990D03*
Y1520010D03*
X-1560000Y1359990D03*
Y1520010D03*
X-1260000Y1359990D03*
Y1520010D03*
X-440000Y3329990D03*
Y3490010D03*
X-450000Y3879990D03*
Y4040010D03*
X-300000Y3879990D03*
X-150000D03*
X-300000Y4040010D03*
X-150000D03*
X1540000Y3729990D03*
Y3890010D03*
G54D123*
X9220000Y415500D03*
X9300000D03*
X9780000D03*
X9860000D03*
G54D114*
X8565000Y1295000D03*
Y1345000D03*
Y1395000D03*
Y1445000D03*
Y1495000D03*
Y1545000D03*
Y1595000D03*
Y1645000D03*
Y1695000D03*
Y1745000D03*
Y1795000D03*
Y1845000D03*
X9415000Y1495000D03*
Y1445000D03*
Y1395000D03*
Y1345000D03*
Y1295000D03*
Y1745000D03*
Y1695000D03*
Y1645000D03*
Y1595000D03*
Y1545000D03*
Y1845000D03*
Y1795000D03*
G54D106*
X7460000Y425000D03*
Y355000D03*
G54D31*
X-1165000Y6356000D03*
X6530000Y154000D03*
X6930000D03*
X7240000D03*
X7364000Y5120000D03*
X8480000Y4394000D03*
G54D13*
X-1720010Y1690000D03*
Y1990000D03*
Y2150000D03*
X-1559990Y1690000D03*
Y1990000D03*
Y2150000D03*
X-1280010Y2470000D03*
X-890010Y400000D03*
X-949990Y1490000D03*
X-1110010D03*
X-1119990Y2470000D03*
X-729990Y400000D03*
X-629990Y1490000D03*
X-790010D03*
X-810010Y3590000D03*
X-649990D03*
X-810010Y4070000D03*
X-649990D03*
X-570010Y400000D03*
X-409990D03*
X190010Y3880000D03*
X29990D03*
Y4040000D03*
X190010D03*
X609990Y1120000D03*
X770010D03*
G54D124*
X9251000Y308000D03*
X9829000D03*
G54D115*
X8748000Y2750000D03*
Y2850000D03*
Y2950000D03*
Y3050000D03*
Y3150000D03*
Y3250000D03*
Y3350000D03*
Y3450000D03*
Y3550000D03*
Y3650000D03*
Y3750000D03*
Y3850000D03*
Y3950000D03*
Y4050000D03*
X10232000Y2850000D03*
Y2750000D03*
Y3050000D03*
Y2950000D03*
Y3350000D03*
Y3250000D03*
Y3150000D03*
Y3650000D03*
Y3550000D03*
Y3450000D03*
Y3850000D03*
Y3750000D03*
Y4050000D03*
Y3950000D03*
G54D40*
X-849990Y1780000D03*
X-610010Y1685000D03*
Y1875000D03*
G54D22*
X-1449000Y5035000D03*
Y5145000D03*
X-1351000Y5035000D03*
Y5145000D03*
X-946000Y4300000D03*
X-1044000D03*
X-169000Y5030000D03*
X-71000D03*
X34000Y6290000D03*
X-64000D03*
X34000Y6400000D03*
X-64000D03*
X1419000Y2770000D03*
X1321000D03*
X1419000Y2660000D03*
X1321000D03*
X1419000Y2880000D03*
X1321000D03*
X1721000Y2010000D03*
X1619000Y2120000D03*
X1521000D03*
X1819000Y2010000D03*
X2019000Y2120000D03*
X1921000D03*
X2121000Y2010000D03*
X2219000D03*
X2304000Y2550000D03*
X2206000D03*
X2309000Y2400000D03*
X2211000D03*
Y2710000D03*
X2309000D03*
X2211000Y2820000D03*
X2309000D03*
Y2930000D03*
X2211000D03*
X2441000Y2830000D03*
X2539000D03*
X2804000Y4075000D03*
X2706000D03*
X3001000Y3020000D03*
X3099000D03*
X3001000Y3130000D03*
X3099000D03*
X3006000Y2910000D03*
X3104000D03*
X3001000Y3600000D03*
X3099000D03*
X3001000Y3710000D03*
X3099000D03*
X3001000Y3820000D03*
X3099000D03*
X3519000Y2700000D03*
X3421000D03*
X3779000Y3110000D03*
X3681000D03*
X3956000Y2880000D03*
X4054000D03*
X3956000Y2990000D03*
X4054000D03*
X3991000Y3540000D03*
X4089000D03*
X4126000Y6095000D03*
X4406000Y5965000D03*
X4224000Y6095000D03*
X4584000Y1395000D03*
X4486000D03*
X4584000Y1510000D03*
X4486000D03*
X4634000Y2495000D03*
X4536000D03*
X4634000Y2605000D03*
X4536000D03*
X4634000Y2825000D03*
X4536000D03*
X4634000Y2715000D03*
X4536000D03*
X4681000Y5345000D03*
X4504000Y5965000D03*
X4596000Y6535000D03*
X4694000D03*
X4596000Y6645000D03*
X4694000D03*
X4779000Y5345000D03*
X4846000Y6645000D03*
X4944000D03*
X5104000Y1510000D03*
X5006000D03*
X5121000Y1395000D03*
X5219000D03*
X5129000Y5975000D03*
X5031000D03*
X5391000Y3250000D03*
X5489000D03*
X5696000Y4695000D03*
X5556000Y4505000D03*
X5654000D03*
X5991000Y800000D03*
X6014000Y4505000D03*
X5916000D03*
X5794000Y4695000D03*
X6016000Y5230000D03*
X5971000Y5925000D03*
X6016000Y6385000D03*
X6299000Y155000D03*
X6201000D03*
X6299000Y40000D03*
X6201000D03*
X6299000Y265000D03*
X6201000D03*
X6304000Y375000D03*
X6206000D03*
X6089000Y800000D03*
X6114000Y5230000D03*
X6069000Y5925000D03*
X6264000Y5975000D03*
X6166000D03*
X6114000Y6385000D03*
X6749000Y4225000D03*
X6651000D03*
X6754000Y4780000D03*
X6656000D03*
X7041000Y360000D03*
X7139000D03*
X7284000Y3740000D03*
X7186000D03*
X7621000Y4365000D03*
X7856000Y235000D03*
X7759000Y2390000D03*
X7661000D03*
X7719000Y4365000D03*
X7954000Y235000D03*
X7941000Y1760000D03*
X8039000D03*
X8179000Y2170000D03*
X8081000D03*
X8096000Y4260000D03*
Y4365000D03*
Y4670000D03*
X8451000Y985000D03*
Y870000D03*
X8194000Y4260000D03*
Y4365000D03*
Y4670000D03*
X8549000Y985000D03*
Y870000D03*
X8701000Y4360000D03*
X8871000Y195000D03*
X8969000D03*
X8871000Y310000D03*
X8969000D03*
X8871000Y420000D03*
X8969000D03*
X8871000Y530000D03*
X8969000D03*
X8799000Y4360000D03*
X9191000Y980000D03*
X9289000D03*
X9776000Y610000D03*
X9874000D03*
X10219000Y410000D03*
X10121000D03*
X10219000Y520000D03*
X10121000D03*
X10219000Y630000D03*
X10121000D03*
X10509000Y3920000D03*
X10411000D03*
X10509000Y3700000D03*
X10411000D03*
X10509000Y4030000D03*
X10411000D03*
G54D107*
X7621500Y3622990D03*
X7494500D03*
X7875500D03*
X7748500D03*
G54D23*
X-1490000Y6031000D03*
X-1600000D03*
X-1490000Y6129000D03*
X-1600000D03*
X-1350000Y3264000D03*
Y3166000D03*
X-1240000Y3264000D03*
Y3166000D03*
X-1350000Y3386000D03*
Y3484000D03*
X-1160000Y6031000D03*
Y6129000D03*
X-1130000Y3264000D03*
Y3166000D03*
X-1120000Y3386000D03*
Y3484000D03*
X-1025000Y5296000D03*
Y5394000D03*
X-1060000Y5621000D03*
Y5719000D03*
X-930000Y6541000D03*
Y6639000D03*
X-845000Y4399000D03*
Y4301000D03*
X-740000Y4616000D03*
Y4714000D03*
X100000Y5736000D03*
X-10000D03*
X100000Y5834000D03*
X-10000D03*
X2080000Y3004000D03*
Y2906000D03*
X2665000Y2561000D03*
Y2659000D03*
X3355000Y2979000D03*
Y2881000D03*
X3160000Y6031000D03*
Y6129000D03*
X3485000Y6031000D03*
Y6129000D03*
X4670000Y3691000D03*
Y3789000D03*
X4855000Y-129000D03*
X4965000D03*
X4855000Y-31000D03*
X4965000D03*
X4780000Y3691000D03*
Y3789000D03*
X4900000Y3691000D03*
Y3789000D03*
X5100000Y-71000D03*
Y-169000D03*
X5030000Y729000D03*
Y631000D03*
X5140000Y729000D03*
Y631000D03*
X5250000Y729000D03*
Y631000D03*
X5205000Y2511000D03*
Y2609000D03*
X5130000Y5776000D03*
X5020000D03*
X5130000Y5874000D03*
X5020000D03*
X5475000Y729000D03*
Y631000D03*
X5360000Y729000D03*
Y631000D03*
X5390000Y6166000D03*
Y6264000D03*
X5585000Y729000D03*
Y631000D03*
X5700000Y729000D03*
Y631000D03*
X5665000Y4394000D03*
Y4296000D03*
X5670000Y6166000D03*
Y6264000D03*
X5550000Y6166000D03*
Y6264000D03*
X5810000Y729000D03*
Y631000D03*
X5790000Y4584000D03*
Y4486000D03*
X6225000Y6101000D03*
Y6199000D03*
X6465000Y721000D03*
Y819000D03*
X6335000Y6101000D03*
Y6199000D03*
X6985000Y641000D03*
X7100000D03*
X6985000Y739000D03*
X7100000D03*
X6990000Y3376000D03*
Y3474000D03*
X7240000Y459000D03*
Y361000D03*
X7210000Y641000D03*
Y739000D03*
X7435000Y641000D03*
Y739000D03*
X7550000Y941000D03*
Y1039000D03*
X7665000Y941000D03*
Y1039000D03*
X7730000Y1531000D03*
Y1629000D03*
X7920000Y2004000D03*
Y1906000D03*
X7730000Y2721000D03*
Y2819000D03*
X7840000Y2721000D03*
Y2819000D03*
X7830000Y4459000D03*
Y4361000D03*
X8110000Y1521000D03*
Y1619000D03*
X7950000Y2821000D03*
X8065000D03*
X7950000Y2919000D03*
X8065000D03*
X8030000Y3641000D03*
Y3846000D03*
Y3739000D03*
Y3944000D03*
X8230000Y2301000D03*
Y2399000D03*
X8195000Y3904000D03*
Y3806000D03*
Y4364000D03*
Y4266000D03*
X8540000Y1101000D03*
Y1199000D03*
X8600000Y3651000D03*
Y3749000D03*
X8795000Y2191000D03*
Y2289000D03*
X9145000Y4571000D03*
Y4669000D03*
X9410000Y719000D03*
Y621000D03*
X9285000Y2186000D03*
Y2284000D03*
X9430000Y2376000D03*
Y2474000D03*
X9425000Y4444000D03*
Y4346000D03*
X9475000Y4571000D03*
Y4669000D03*
X9580000Y1499000D03*
Y1401000D03*
X9600000Y1749000D03*
Y1651000D03*
X9540000Y2376000D03*
Y2474000D03*
X9645000Y2376000D03*
Y2474000D03*
X10040000Y2331000D03*
X9930000D03*
X9820000D03*
X10040000Y2429000D03*
X9930000D03*
X9820000D03*
X9860000Y4381000D03*
Y4479000D03*
X10150000Y2331000D03*
Y2429000D03*
X10160000Y4381000D03*
Y4479000D03*
X10580000Y1399000D03*
Y1301000D03*
X10410000Y3181000D03*
Y3279000D03*
X10540000Y3181000D03*
Y3279000D03*
G54D41*
X-600010Y3830000D03*
X-839990Y3735000D03*
Y3925000D03*
G54D116*
X8720000Y4935000D03*
X8865000Y-130000D03*
G54D14*
X-1710000Y3310000D03*
Y3660000D03*
Y4010000D03*
G54D50*
X680000Y377000D03*
Y923000D03*
G54D125*
X9365000Y415500D03*
X9465000D03*
X9415000D03*
X9615000D03*
X9715000D03*
X9665000D03*
X9565000D03*
X9515000D03*
G54D32*
X-1165000Y6610000D03*
G54D60*
X1530500Y1380000D03*
X1784500D03*
X1657500Y1634000D03*
X2038500Y1380000D03*
X1911500Y1634000D03*
X2165500D03*
X2546500Y1380000D03*
X2419500Y1634000D03*
G54D126*
X9514000Y910000D03*
X9768000D03*
X10022000D03*
X10276000D03*
G54D33*
X-870000Y650000D03*
X-470000D03*
X-490000Y1040000D03*
X-100000Y-110000D03*
Y290000D03*
X-90000Y1040000D03*
G54D42*
X-340000Y1359100D03*
Y3060900D03*
X-90010Y1359100D03*
Y3060900D03*
X160000Y1359100D03*
Y3060900D03*
X410010Y1359100D03*
Y3060900D03*
X660000Y1359100D03*
Y3060900D03*
G54D15*
X-1795000Y4735000D03*
X-1800000Y5880000D03*
X-1660000Y1180000D03*
X-1160000Y5505000D03*
X-1070000Y4720000D03*
Y4975000D03*
X-540000Y1310000D03*
X-220000Y3420000D03*
X-130000Y5790000D03*
X3100000Y2580000D03*
X3360000Y2585000D03*
X3545000Y3775000D03*
X3790000Y2850000D03*
X4070000Y2560000D03*
X4640000Y1970000D03*
X4816000Y2260000D03*
Y2520000D03*
X4940000Y3020000D03*
Y3280000D03*
X5070000Y2260000D03*
Y2520000D03*
X5195000Y3015000D03*
Y3275000D03*
X5175000Y6175000D03*
X5155000Y6640000D03*
X5320000Y3590000D03*
X5300000Y5815000D03*
X5712000Y3360000D03*
X5574000Y3590000D03*
X5750000Y4915000D03*
X5795000Y6570000D03*
X6020000Y640000D03*
X5966000Y3360000D03*
X5828000Y3590000D03*
X6050000Y6570000D03*
X6250000Y770000D03*
X6220000Y3360000D03*
X6336000Y3590000D03*
X6082000D03*
X6605000Y505000D03*
Y760000D03*
X6860000Y505000D03*
Y760000D03*
X6625000Y3290000D03*
X6640000Y3590000D03*
X6825000Y4930000D03*
X7600000Y490000D03*
Y750000D03*
X7860000Y490000D03*
Y750000D03*
X7700000Y2590000D03*
X7990000Y970000D03*
X8085000Y1940000D03*
X7955000Y2590000D03*
X8195000Y4075000D03*
Y4515000D03*
X8220000Y600000D03*
Y860000D03*
Y1120000D03*
X8245000Y1735000D03*
X8350000Y1970000D03*
Y2225000D03*
X8390000Y2515000D03*
Y2845000D03*
Y2680000D03*
X8385000Y3915000D03*
X8460000Y4795000D03*
X8500000Y510000D03*
X8560000Y2515000D03*
Y2680000D03*
X8540000Y3345000D03*
Y3510000D03*
X8555000Y3915000D03*
X8750000Y2420000D03*
X8940000Y4410000D03*
X9110000D03*
X9280000D03*
X9760000Y1165000D03*
X9600000Y4410000D03*
X10020000Y1165000D03*
X10275000Y1170000D03*
X10530000D03*
X10400000Y2890000D03*
X10570000D03*
X10400000Y3060000D03*
X10570000D03*
X10430000Y3410000D03*
X10440000Y3580000D03*
X10580000Y3490000D03*
X10440000Y4160000D03*
G54D24*
X-1220000Y1685000D03*
X-1285000D03*
X-1350000D03*
X-1415000D03*
Y2275000D03*
X-1350000D03*
X-1285000D03*
X-1220000D03*
X-1025000Y1685000D03*
X-1090000D03*
X-1155000D03*
X-1090000Y2275000D03*
X-1025000D03*
X-1155000D03*
G54D117*
X8965000Y1145000D03*
X8915000D03*
X8865000D03*
X8815000D03*
X8765000D03*
X8715000D03*
Y1995000D03*
X8765000D03*
X8815000D03*
X8865000D03*
X8915000D03*
X8965000D03*
X9215000Y1145000D03*
X9165000D03*
X9115000D03*
X9065000D03*
X9015000D03*
Y1995000D03*
X9065000D03*
X9115000D03*
X9165000D03*
X9215000D03*
X9265000Y1145000D03*
Y1995000D03*
G54D51*
X540000Y3900000D03*
Y4340000D03*
G54D108*
X7494500Y4107010D03*
X7621500D03*
X7748500D03*
X7875500D03*
G54D61*
X1403500Y1634000D03*
G54D109*
X7853720Y-125000D03*
Y115000D03*
X8016280Y-125000D03*
Y115000D03*
G54D16*
X-1825000Y4942600D03*
Y5247400D03*
X-1605000Y4942600D03*
Y5247400D03*
G54D52*
X666850Y5085000D03*
X1543150D03*
X3046850Y6550000D03*
X3923150D03*
X9036850Y5085000D03*
X9913150D03*
G54D43*
X-431600Y3690000D03*
X-251600Y560000D03*
Y770000D03*
X-228400Y3690000D03*
X-48400Y560000D03*
Y770000D03*
X138400Y870000D03*
Y1090000D03*
X393400Y-90000D03*
Y170000D03*
X341600Y870000D03*
Y1090000D03*
X596600Y-90000D03*
Y170000D03*
X968400Y1960000D03*
X1171600D03*
G54D34*
X-1075010Y920000D03*
X-784990D03*
X3194990Y1490000D03*
X3485010D03*
G54D118*
X8945000Y2280000D03*
X9135000D03*
G54D70*
X3345000Y-92500D03*
X4660000Y-192500D03*
G54D25*
X-1325010Y3604600D03*
X-1274990D03*
X-1224980D03*
X-1174970D03*
Y3905400D03*
X-1224980D03*
X-1274990D03*
X-1325010D03*
G54D127*
X9930000Y1360000D03*
X10130000D03*
G54D128*
X10290000Y4480000D03*
X10590000D03*
G54D62*
X1870000Y2580000D03*
G54D71*
X3180000Y1840000D03*
X3580000D03*
G54D53*
X1090000Y3243160D03*
Y3956840D03*
G54D35*
X-849990Y1210000D03*
X-1070010Y1115000D03*
Y1305000D03*
G54D119*
X8940000Y2607000D03*
Y4193000D03*
X9240000Y2607000D03*
X9140000D03*
X9040000D03*
Y4193000D03*
X9140000D03*
X9240000D03*
X9440000Y2607000D03*
X9340000D03*
Y4193000D03*
X9440000D03*
X9740000Y2607000D03*
X9640000D03*
X9540000D03*
Y4193000D03*
X9640000D03*
X9740000D03*
X10040000Y2607000D03*
X9940000D03*
X9840000D03*
Y4193000D03*
X9940000D03*
X10040000D03*
G54D80*
X4135000Y4118290D03*
Y4372290D03*
Y4626290D03*
Y4880290D03*
X5405000Y4207190D03*
Y4461190D03*
Y4715190D03*
Y4969190D03*
G54D44*
X-535000Y4331000D03*
Y4458000D03*
Y4585000D03*
Y4712000D03*
Y4839000D03*
G54D17*
X-1695000Y5445000D03*
Y5685000D03*
G54D26*
X-1250000Y3755000D03*
G54D129*
X10530000Y910000D03*
G54D63*
X1745000Y2383150D03*
Y2776850D03*
X1995000Y2383150D03*
X1945000D03*
X1895000D03*
X1845000D03*
X1795000D03*
Y2776850D03*
X1845000D03*
X1895000D03*
X1945000D03*
X1995000D03*
G54D36*
X-850000Y2048400D03*
Y2251600D03*
X-630000Y2048400D03*
Y2251600D03*
X180000Y-61600D03*
Y141600D03*
X440000Y3508400D03*
Y3711600D03*
X660000Y3508400D03*
Y3711600D03*
X810000Y-71600D03*
Y131600D03*
X990000Y2178400D03*
Y2381600D03*
G54D81*
X4350900Y3948110D03*
X4376300Y5172650D03*
X4604900Y3948110D03*
X4630300Y5172650D03*
X4858900Y3948110D03*
X4884300Y5172650D03*
X5112900Y3948110D03*
X5138300Y5172650D03*
G54D54*
X1200000Y1050000D03*
X2750000D03*
G54D90*
X4950000Y262500D03*
Y397500D03*
X5000000Y262500D03*
Y397500D03*
G54D45*
X-352990Y5161500D03*
Y5034500D03*
Y5415500D03*
Y5288500D03*
X-257990Y6279500D03*
Y6533500D03*
Y6406500D03*
Y6660500D03*
X6467010Y3944500D03*
Y4198500D03*
Y4071500D03*
Y4325500D03*
Y4659500D03*
Y4913500D03*
Y4786500D03*
Y5040500D03*
G54D18*
X-1755000Y5996000D03*
X-1860000D03*
X-1755000Y6094000D03*
X-1860000D03*
X-1600000Y5939000D03*
Y5841000D03*
X-1240000Y3386000D03*
Y3484000D03*
X-1255000Y4026000D03*
Y4124000D03*
X-1360000Y4026000D03*
Y4124000D03*
X-1240000Y5144000D03*
Y5046000D03*
X-1380000Y6031000D03*
X-1270000D03*
X-1380000Y6129000D03*
X-1270000D03*
X-1150000Y4026000D03*
Y4124000D03*
X-1050000Y6031000D03*
Y6129000D03*
X-740000Y4421000D03*
Y4519000D03*
X1540000Y2891000D03*
Y2989000D03*
X1970000Y2906000D03*
Y3004000D03*
X2705000Y4076000D03*
Y4174000D03*
X3240000Y2881000D03*
Y2979000D03*
X3540000Y3501000D03*
Y3599000D03*
X4180000Y6591000D03*
Y6689000D03*
X4230000Y3129000D03*
Y3031000D03*
X4340000Y3129000D03*
Y3031000D03*
X4210000Y5626000D03*
Y5724000D03*
X4320000Y6591000D03*
Y6689000D03*
X4460000Y6591000D03*
Y6689000D03*
X4890000Y6064000D03*
Y5966000D03*
X5100000Y139000D03*
Y41000D03*
X5150000Y951000D03*
X5040000D03*
X5150000Y1049000D03*
X5110000Y1186000D03*
X5215000D03*
X5040000Y1049000D03*
X5110000Y1284000D03*
X5215000D03*
Y1626000D03*
Y1724000D03*
X5105000Y1626000D03*
Y1724000D03*
X4995000Y1626000D03*
Y1724000D03*
X5230000Y1996000D03*
X5120000D03*
X5230000Y2094000D03*
X5120000D03*
X5260000Y951000D03*
X5370000D03*
X5260000Y1049000D03*
X5370000D03*
X5765000Y3976000D03*
Y4074000D03*
X5555000Y4296000D03*
Y4394000D03*
X5790000Y4291000D03*
Y4389000D03*
X6430000Y351000D03*
Y449000D03*
X6360000Y3369000D03*
Y3271000D03*
X6505000Y3369000D03*
Y3271000D03*
X6490000Y4441000D03*
Y4539000D03*
X6730000Y-189000D03*
Y-91000D03*
Y6000D03*
Y104000D03*
Y211000D03*
Y309000D03*
X6855000Y4236000D03*
Y4334000D03*
X6600000Y4441000D03*
Y4539000D03*
X6655000Y4931000D03*
Y5029000D03*
X6975000Y4151000D03*
Y4249000D03*
X7350000Y459000D03*
Y361000D03*
X7320000Y641000D03*
Y739000D03*
X7430000Y4271000D03*
Y4369000D03*
X7785000Y941000D03*
Y1039000D03*
X7730000Y1331000D03*
Y1429000D03*
X7810000Y2004000D03*
Y1906000D03*
X7700000Y2004000D03*
Y1906000D03*
X7730000Y3019000D03*
Y2921000D03*
X7840000Y3019000D03*
Y2921000D03*
X8110000Y1419000D03*
Y1321000D03*
X7950000Y3021000D03*
Y3119000D03*
X8410000Y1381000D03*
Y1479000D03*
X8385000Y3651000D03*
Y3749000D03*
X8575000Y1996000D03*
Y2094000D03*
Y2191000D03*
Y2289000D03*
X8685000D03*
Y2191000D03*
X8585000Y2851000D03*
Y2949000D03*
X8490000Y3651000D03*
Y3749000D03*
X9305000Y719000D03*
Y621000D03*
X9520000Y719000D03*
Y621000D03*
X9660000Y719000D03*
Y621000D03*
X9740000Y4381000D03*
Y4479000D03*
X10350000Y1301000D03*
Y1399000D03*
X10460000D03*
Y1301000D03*
G54D72*
X3342500Y3120000D03*
X3277500D03*
X3212500D03*
Y3560000D03*
X3277500D03*
X3342500D03*
X3407500Y3120000D03*
Y3560000D03*
G54D27*
X-1215000Y4380000D03*
X-1375000D03*
X-1215000Y4710000D03*
X-1375000D03*
X-1215000Y4550000D03*
X-1375000D03*
X-1211200Y4866600D03*
X-1371200D03*
X1355000Y2340000D03*
X1515000D03*
X1670000Y2970000D03*
X1830000D03*
X3030000Y2755000D03*
X3190000D03*
X4070000Y2750000D03*
X4230000D03*
X4995000Y2015000D03*
X4835000D03*
X8370000Y310000D03*
X8530000D03*
G54D37*
X-917000Y2471250D03*
Y3391240D03*
X-663000Y2468760D03*
Y3388750D03*
G54D64*
X1673150Y2455000D03*
Y2505000D03*
Y2555000D03*
Y2605000D03*
Y2655000D03*
Y2705000D03*
X2066850Y2555000D03*
Y2505000D03*
Y2455000D03*
Y2705000D03*
Y2655000D03*
Y2605000D03*
G54D28*
X-1311000Y5290000D03*
X-1409000D03*
X-1311000Y5400000D03*
X-1409000D03*
X-1311000Y5510000D03*
X-1409000D03*
X-834000Y4885000D03*
X-736000D03*
X-169000Y5140000D03*
X-71000D03*
X104000Y5945000D03*
X6000D03*
X-64000Y6535000D03*
X34000D03*
X-64000Y6640000D03*
X34000D03*
X1321000Y2550000D03*
X1419000D03*
X1321000Y2990000D03*
X1419000D03*
X1619000Y2010000D03*
X1521000D03*
X1721000Y2120000D03*
X2019000Y2010000D03*
X1921000D03*
X1819000Y2120000D03*
X2211000Y2290000D03*
X2309000D03*
X2121000Y2120000D03*
X2219000D03*
X2211000Y3040000D03*
X2309000D03*
X3271000Y6130000D03*
X3369000D03*
X3681000Y2980000D03*
X3779000D03*
X3681000Y3335000D03*
X3779000D03*
X3681000Y3450000D03*
X3779000D03*
X4081000Y1395000D03*
X4179000D03*
X4024000Y2355000D03*
X3926000D03*
X4126000Y5985000D03*
Y6210000D03*
X4276000Y1395000D03*
X4374000D03*
X4419000Y5725000D03*
X4321000D03*
X4419000Y5605000D03*
X4321000D03*
Y5835000D03*
X4419000D03*
X4224000Y5985000D03*
Y6210000D03*
X4681000Y5975000D03*
X4801000Y1510000D03*
X4899000D03*
X4801000Y1400000D03*
X4899000D03*
X4891000Y5345000D03*
X4779000Y5975000D03*
X4989000Y5345000D03*
X5199000D03*
X5101000D03*
X5199000Y5545000D03*
X5101000D03*
X5711000Y5165000D03*
Y5055000D03*
X5761000Y5925000D03*
X5809000Y5165000D03*
Y5055000D03*
X6016000Y5340000D03*
X5859000Y5925000D03*
X6299000Y-80000D03*
X6201000D03*
X6166000Y4510000D03*
X6264000D03*
X6114000Y5340000D03*
X6531000Y355000D03*
X6629000D03*
X6676000Y630000D03*
X6774000D03*
X6754000Y3945000D03*
X6656000D03*
X6754000Y4065000D03*
X6656000D03*
X6651000Y4330000D03*
X6749000D03*
X7086000Y3280000D03*
X7184000D03*
X7466000Y3210000D03*
X7564000D03*
X7856000Y-5000D03*
X7809000Y1760000D03*
X7711000D03*
X7759000Y2280000D03*
X7661000D03*
X7954000Y-5000D03*
X8451000Y750000D03*
X8336000Y1590000D03*
X8434000D03*
X8196000Y4670000D03*
X8294000D03*
X8661000Y420000D03*
Y310000D03*
Y530000D03*
X8711000Y1000000D03*
X8549000Y750000D03*
X8701000Y4470000D03*
X8871000Y90000D03*
X8969000D03*
X8759000Y420000D03*
Y310000D03*
Y530000D03*
X8809000Y1000000D03*
X8799000Y4470000D03*
X9204000Y625000D03*
X9106000D03*
X9204000Y735000D03*
X9106000D03*
X9204000Y840000D03*
X9106000D03*
X9256000Y4670000D03*
X9354000D03*
X9681000Y1390000D03*
X9779000D03*
X9551000Y1290000D03*
X9649000D03*
X9624000Y2040000D03*
X9526000D03*
X9624000Y1930000D03*
X9526000D03*
Y2150000D03*
X9624000D03*
X9526000Y2260000D03*
X9624000D03*
X9961000Y4480000D03*
X10059000D03*
X10411000Y3810000D03*
X10509000D03*
G54D19*
X-1690000Y6490000D03*
X-615000Y10000D03*
X2145000Y6490000D03*
X8085000D03*
X10410000Y10000D03*
Y5020000D03*
G54D73*
X3310000Y3340000D03*
G54D91*
X4900000Y262500D03*
Y397500D03*
X5050000Y262500D03*
Y397500D03*
G54D46*
X-102400Y5580000D03*
X202400D03*
G54D82*
X4389000Y4483800D03*
Y4636200D03*
Y4788600D03*
X5151000Y4483800D03*
Y4636200D03*
Y4788600D03*
G54D55*
X1205350Y4629650D03*
X1274650Y4560350D03*
G54D65*
X1975000Y4590000D03*
Y5570000D03*
X3795000D03*
G54D29*
X-1300000Y5740000D03*
G54D47*
X260000Y374990D03*
Y665010D03*
G54D83*
X4415000Y6155000D03*
G54D74*
X3424000Y167500D03*
X3534000D03*
X3644000Y147500D03*
X3754000Y167500D03*
X3864000Y147500D03*
X3974000Y167500D03*
X4084000Y207500D03*
X4194000Y167500D03*
G54D92*
X4885000Y330000D03*
X5065000D03*
G54D56*
X1040350Y4655350D03*
X1109650Y4724650D03*
X1300350Y4390350D03*
X1369650Y4459650D03*
G54D38*
X-1030000Y4430000D03*
Y4590000D03*
X-890000Y4755000D03*
Y4595000D03*
X-920000Y5730000D03*
Y5570000D03*
X-915000Y5950000D03*
Y6110000D03*
X-760000Y5730000D03*
Y5570000D03*
X-755000Y5950000D03*
Y6110000D03*
X-440000Y5730000D03*
Y5570000D03*
X-600000Y5730000D03*
Y5570000D03*
X-435000Y5950000D03*
X-595000D03*
X-435000Y6110000D03*
X-595000D03*
X-275000Y5730000D03*
Y5570000D03*
X-115000Y5950000D03*
X-275000D03*
X-115000Y6110000D03*
X-275000D03*
X2575000Y2240000D03*
Y2400000D03*
X2725000Y2240000D03*
Y2400000D03*
X5155000Y6325000D03*
Y6485000D03*
X6245000Y6340000D03*
Y6500000D03*
X7510000Y-165000D03*
X7670000D03*
X7510000Y245000D03*
X7670000D03*
X8400000Y1260000D03*
Y1100000D03*
X10420000Y2295000D03*
X10580000D03*
X10420000Y2705000D03*
X10580000D03*
G54D66*
X2490000Y2039990D03*
Y1920010D03*
X2620000Y2039990D03*
Y1920010D03*
X3110000Y160010D03*
Y420010D03*
Y279990D03*
Y539990D03*
X4180000Y6335010D03*
Y6454990D03*
X4320000Y6335010D03*
Y6454990D03*
X4460000Y6335010D03*
Y6454990D03*
G54D93*
X4890000Y999750D03*
Y1190250D03*
G54D39*
X-837010Y5034500D03*
Y5161500D03*
Y5288500D03*
Y5415500D03*
X-742010Y6279500D03*
Y6406500D03*
Y6533500D03*
Y6660500D03*
X5982990Y3944500D03*
Y4071500D03*
Y4198500D03*
Y4325500D03*
Y4659500D03*
Y4786500D03*
Y4913500D03*
Y5040500D03*
G54D57*
X1105000Y5085000D03*
X3485000Y6550000D03*
X9475000Y5085000D03*
G54D84*
X4317500Y6090000D03*
Y6155000D03*
Y6220000D03*
X4512500D03*
Y6155000D03*
Y6090000D03*
G54D75*
X3505000Y1222500D03*
X4075000D03*
G54D48*
X10Y3535000D03*
Y3725000D03*
X239990Y3630000D03*
G54D76*
X3500000Y2818720D03*
Y2981280D03*
G54D58*
X1312010Y339010D03*
X1566010D03*
X2383990D03*
X2637990D03*
G54D85*
X4693800Y4179000D03*
X4541400D03*
X4693800Y4941000D03*
X4541400D03*
X4846200Y4179000D03*
Y4941000D03*
G54D67*
X2542500Y2552500D03*
X2437500D03*
X2542500Y2687500D03*
X2437500D03*
G54D94*
X4965000Y6196250D03*
Y6523750D03*
G54D49*
X65000Y4585000D03*
G54D86*
X4632500Y5485000D03*
X4697500D03*
Y5845000D03*
X4632500D03*
X4762500Y5485000D03*
X4827500D03*
Y5845000D03*
X4762500D03*
G54D59*
X1403500Y745000D03*
X2546500D03*
G54D95*
X5416000Y-63500D03*
X5289000D03*
X5416000Y343500D03*
X5289000D03*
X5670000Y-63500D03*
X5543000D03*
X5670000Y343500D03*
X5543000D03*
X6051000Y-63500D03*
X5924000D03*
X5797000D03*
X6051000Y343500D03*
X5924000D03*
X5797000D03*
X10053000Y1626500D03*
X9926000D03*
X9799000D03*
X10053000Y2033500D03*
X9926000D03*
X9799000D03*
X10307000Y1626500D03*
X10180000D03*
X10307000Y2033500D03*
X10180000D03*
X10561000Y1626500D03*
X10434000D03*
X10561000Y2033500D03*
X10434000D03*
G54D77*
X3653280Y5080000D03*
G54D68*
X2706800Y4341800D03*
Y5818200D03*
G54D87*
X4550000Y5762500D03*
Y5697500D03*
Y5632500D03*
Y5567500D03*
X4910000D03*
Y5632500D03*
Y5697500D03*
Y5762500D03*
G54D78*
X3900000Y3150700D03*
Y3379300D03*
X4090000Y3150700D03*
X3995000D03*
Y3379300D03*
X4090000D03*
G54D96*
X5377500Y1255000D03*
Y1205000D03*
Y1155000D03*
Y1505000D03*
Y1455000D03*
Y1405000D03*
Y1355000D03*
Y1305000D03*
Y1755000D03*
Y1705000D03*
Y1655000D03*
Y1605000D03*
Y1555000D03*
Y2055000D03*
Y2005000D03*
Y1955000D03*
Y1905000D03*
Y1855000D03*
Y1805000D03*
Y2305000D03*
Y2255000D03*
Y2205000D03*
Y2155000D03*
Y2105000D03*
Y2555000D03*
Y2505000D03*
Y2455000D03*
Y2405000D03*
Y2355000D03*
Y2855000D03*
Y2805000D03*
Y2755000D03*
Y2705000D03*
Y2655000D03*
Y2605000D03*
Y2905000D03*
X7502500Y1155000D03*
Y1205000D03*
Y1255000D03*
Y1305000D03*
Y1355000D03*
Y1405000D03*
Y1455000D03*
Y1505000D03*
Y1555000D03*
Y1605000D03*
Y1655000D03*
Y1705000D03*
Y1755000D03*
Y1805000D03*
Y1855000D03*
Y1905000D03*
Y1955000D03*
Y2005000D03*
Y2055000D03*
Y2105000D03*
Y2155000D03*
Y2205000D03*
Y2255000D03*
Y2305000D03*
Y2355000D03*
Y2405000D03*
Y2455000D03*
Y2505000D03*
Y2555000D03*
Y2605000D03*
Y2655000D03*
Y2705000D03*
Y2755000D03*
Y2805000D03*
Y2855000D03*
Y2905000D03*
G54D69*
X3017310Y2400000D03*
X2882690D03*
G54D88*
X4730000Y5665000D03*
G54D97*
X5565000Y967500D03*
X5615000D03*
X5665000D03*
X5715000D03*
X5765000D03*
Y3092500D03*
X5715000D03*
X5665000D03*
X5615000D03*
X5565000D03*
X5815000Y967500D03*
X5865000D03*
X5915000D03*
X5965000D03*
X6015000D03*
Y3092500D03*
X5965000D03*
X5915000D03*
X5865000D03*
X5815000D03*
X6065000Y967500D03*
X6115000D03*
X6165000D03*
X6215000D03*
X6265000D03*
Y3092500D03*
X6215000D03*
X6165000D03*
X6115000D03*
X6065000D03*
X6315000Y967500D03*
X6365000D03*
X6415000D03*
X6465000D03*
X6515000D03*
X6565000D03*
Y3092500D03*
X6515000D03*
X6465000D03*
X6415000D03*
X6365000D03*
X6315000D03*
X6615000Y967500D03*
X6665000D03*
X6715000D03*
X6765000D03*
X6815000D03*
Y3092500D03*
X6765000D03*
X6715000D03*
X6665000D03*
X6615000D03*
X6865000Y967500D03*
X6915000D03*
X6965000D03*
X7015000D03*
X7065000D03*
Y3092500D03*
X7015000D03*
X6965000D03*
X6915000D03*
X6865000D03*
X7115000Y967500D03*
X7165000D03*
X7215000D03*
X7265000D03*
X7315000D03*
Y3092500D03*
X7265000D03*
X7215000D03*
X7165000D03*
X7115000D03*
G54D79*
X3925000Y1945000D03*
X4020000D03*
X4115000D03*
Y2215000D03*
X3925000D03*
G54D89*
X4720000Y6200000D03*
Y6370000D03*
G54D98*
X5815700Y6060000D03*
Y6155000D03*
Y6250000D03*
X6044300Y6060000D03*
Y6250000D03*
Y6155000D03*
G54D99*
X6265000Y5235000D03*
Y5425000D03*
X6505000Y5330000D03*
X10350000Y425000D03*
Y615000D03*
X10590000Y520000D03*
M02*
