M48
METRIC,TZ
T01C.2032
T02C.254
T03C.635
T04C.8999
T05C1.
T06C1.016
T07C1.02
T08C1.7
T09C2.7
T10C3.1999
T11C.65
T12C1.2
T13C1.3
;LEADER: 12 
;HEADER: 
;CODE  : ASCII 
;FILE  : FWCW_V3_1_25Jun24-1-4.drl for  ... layers TOP and BOTTOM
;DESIGN: FWCW_V3_1_25Jun24.brd
;T01 Holesize 1. = 0.203200 Tolerance = +0.075000/-0.075000 PLATED MM Quantity = 1519
;T02 Holesize 2. = 0.254000 Tolerance = +0.000000/-0.254000 PLATED MM Quantity = 4
;T03 Holesize 3. = 0.635000 Tolerance = +0.000000/-0.000000 PLATED MM Quantity = 5
;T04 Holesize 4. = 0.899900 Tolerance = +0.000000/-0.000000 PLATED MM Quantity = 9
;T05 Holesize 5. = 1.000000 Tolerance = +0.000000/-0.000000 PLATED MM Quantity = 4
;T06 Holesize 6. = 1.016000 Tolerance = +0.076200/-0.076200 PLATED MM Quantity = 3
;T07 Holesize 7. = 1.020000 Tolerance = +0.076200/-0.076200 PLATED MM Quantity = 12
;T08 Holesize 8. = 1.700000 Tolerance = +0.000000/-0.000000 PLATED MM Quantity = 2
;T09 Holesize 9. = 2.700000 Tolerance = +0.100000/-0.100000 PLATED MM Quantity = 6
;T10 Holesize 10. = 3.199900 Tolerance = +0.000000/-0.000000 PLATED MM Quantity = 2
%
G90
T01
X1080000Y131600
X990000
X-400000Y790000
X-500000
X3030010Y420010
X95000Y3535000
X190010Y4130000
X-910000Y4070000
X550000Y820000
X640000
X50000Y500000
Y600000
X-300000Y4130000
X29990
X430000Y620000
Y710000
X-630000Y2350000
X-850000
X1020000Y2080000
X940000
X870000Y2130000
Y2210000
X-260000Y380000
X-760000Y1040000
X-800000Y2471250
X-1090000Y1800000
X-1339990Y1430000
X-1570000Y1150000
X-1720010Y1910010
X-260000Y260000
X-1040000Y2490000
X-150000Y4130000
X-330010Y3550010
X-1285000Y2165000
X-800000Y490000
X-1200000Y2160000
X-810000Y1640000
X-1559990Y1789990
X-663000Y2580000
X-810000Y1400000
X-175000Y25000
X-1180000Y1359990
X-1040000Y780000
X520000Y1120000
X-515000Y1685000
X6987500Y3202500
X6855000Y3365000
X8365000Y4490000
X8260000Y2630000
X7700000Y2210000
X4321000Y5925000
X5495000Y3785000
X2142720Y1853250
X2205000Y2190000
X6780000Y2985000
X1585000Y2705000
X6690000Y2985000
X1500000Y2550000
X1742720Y1929740
X2140000Y2800000
X-1690000Y6225000
Y6325000
X-1573330Y6373330
X-1502620Y6302620
X-1877380
X-1806670Y6373330
X-1425000Y6490000
X-1690000Y6755000
X-1525000Y6490000
X-1690000Y6655000
X-1573330Y6606670
X-1502620Y6677380
X-1855000Y6490000
X-1955000
X-1806670Y6606670
X-1877380Y6677380
X2145000Y6225000
Y6325000
X2261670Y6373330
X2332380Y6302620
X1957620
X2028330Y6373330
X2410000Y6490000
X2145000Y6755000
X2310000Y6490000
X2145000Y6655000
X2261670Y6606670
X2332380Y6677380
X1980000Y6490000
X1880000
X2028330Y6606670
X1957620Y6677380
X8085000Y6225000
Y6325000
X8201670Y6373330
X8272380Y6302620
X7897620
X7968330Y6373330
X8350000Y6490000
X8085000Y6755000
X8250000Y6490000
X8085000Y6655000
X8201670Y6606670
X8272380Y6677380
X7920000Y6490000
X7820000
X7968330Y6606670
X7897620Y6677380
X10410000Y4755000
Y4855000
X10526670Y4903330
X10597380Y4832620
X10222620
X10293330Y4903330
X10675000Y5020000
X10410000Y5285000
X10575000Y5020000
X10410000Y5185000
X10526670Y5136670
X10597380Y5207380
X10245000Y5020000
X10145000
X10293330Y5136670
X10222620Y5207380
X10410000Y-255000
Y-155000
X10526670Y-106670
X10597380Y-177380
X10222620
X10293330Y-106670
X10675000Y10000
X10410000Y275000
X10575000Y10000
X10410000Y175000
X10526670Y126670
X10597380Y197380
X10245000Y10000
X10145000
X10293330Y126670
X10222620Y197380
X-427620
X-802380
X-498330Y126670
X-731670
X-427620Y-177380
X-498330Y-106670
X-731670
X-802380Y-177380
X-615000Y275000
Y175000
Y-155000
Y-255000
X-880000Y10000
X-350000
X-450000
X-780000
X4855000Y-265000
X5096720Y-264680
R20X254000
X10684680Y-260000
Y218420
Y472420
R17Y254000
Y5298420
X10145000Y5295000
X7876000Y6765000
X7622000
X7114000
X7368000
X6860000
R10X-254000
X4120000
X2796000
X2350000
X2542000
X1870000
X8330000Y6740000
X8360000Y6257000
R02Y-254000
X8615000Y5295000
X8780000
X8360000Y5495000
X8366320Y5371320
X8450000Y5295000
X4334720Y-264680
R02X-254000
X3450000Y-265000
X3240000
X-1457410Y6764680
X331000Y5371000
X3135000Y-265000
X2810720Y-264680
R08X-254000
X430000Y5295000
X524720Y-264680
X320590Y6764640
X324680Y6510680
R04Y-254000
X270720Y-264680
X66590Y6764680
X16720Y-264680
X-187410Y6764680
X-237280Y-264680
X-441410Y6764680
X-420000Y-260000
X-695410Y6764680
X-815000Y-265000
X-949410Y6764680
X-999280Y-264680
X-1203410Y6764680
X-1253280Y-264680
X-1507280
X-1964680Y6745450
R08Y-254000
Y4205450
Y4459450
Y3951450
R15Y-254000
X-1761280Y-264680
X-1964680Y-112550
X2480000Y2385000
X2390000
X2140000Y2400000
X2300000Y2120000
X1870000
X1465000
X1515000Y2260000
X1742720Y1853250
X2145000Y2285000
X2142720Y1929740
X6845000Y3205000
X2145000Y3004000
X6865000Y2985000
X1495000Y2700000
X4790000Y1850000
X5510000Y1700000
X7295000Y3210000
X1250000Y2550000
X1580000
X6385000Y2793010
X1500000Y2460000
X6465000Y2793010
X1580000Y2460000
X6765000Y3205000
X2460000Y2980000
X7210000Y3210000
X1495000Y2800000
X4225000Y2870000
Y2955000
X4310000Y2870000
Y2955000
X8510000Y2950000
X8799000Y4535000
X8410000Y3465000
Y3545000
X9720000Y2460000
X9926000Y1810000
X10475000Y3279000
X8510000Y2851000
X10434000Y2206000
X8475000Y2545000
X9140000Y2505000
X8300000Y3085000
X5500000Y2555000
X10580000Y3810000
X10561000Y2210000
X9340000Y2505000
X8640000Y3820000
X10270000Y2620000
X10580000Y3700000
X10561000Y1810000
X5595000Y785000
X4950000Y180000
X6630000Y850000
X5550000Y1175000
X5470000Y785000
X5030000Y180000
X9670000Y1165000
X9100000Y1480000
X9047500Y1040000
X9520000Y550000
X9580000Y315000
X9430000
X10121000Y330000
X9130000Y1040000
X9660000Y550000
X9655000Y315000
X9500000
X4510000Y1730000
X6370000Y95000
X10520000Y1400000
X9190000Y1760000
X4510000Y1830000
X6365000Y265000
X7785000Y805000
X6165000Y1140000
X8615000Y875000
X8965000Y1045000
X8040000Y-60000
X7775000Y115000
X7385000Y1930000
X6985000Y585000
X5765000Y1485000
X5616250Y1401250
X6985000Y810000
X8000000Y1885000
X4890000Y1300000
X5725000Y1330000
X7140000Y1080000
X5130000Y1110000
X10580000Y3920000
X6900000Y2665000
X8885000Y3545000
X9484000Y4444000
X6810000Y2670000
X7405000Y3210000
X6340000Y2640000
X10580000Y4030000
X6190000Y2640000
X-505000Y5415500
X-475000Y6535000
X-501500Y5288500
X-565000Y6533500
X8065000Y2760000
X7620000Y2740000
X7125000Y3215000
X2690000Y1920010
X2380000Y3040000
X6394000Y819000
X8230000Y2455000
X8250000Y2170000
X6319500Y3230500
X5489000Y3185000
X6980000Y475000
X6140000Y455000
Y-80000
X5416000Y114000
X7785000Y885000
X7500000Y739000
X7320000Y585000
X7170000Y469000
X6089000Y740000
X5500000Y1250000
X7980000Y1979000
X7380000Y2055000
X7645000Y1755000
X7605000Y1455000
X5495000Y1955000
X5500000Y2040000
X5141000Y2619000
X1830000Y3050000
X1260000Y2880000
X1250000Y2660000
X8505000Y3130000
X4955000Y1785000
X8590000Y3130000
X5035000Y1785000
X8635000Y3350000
X5115000Y1785000
X8630000Y3250000
X5210000Y1785000
X8170000Y3060000
X4790000Y2410000
X8060000Y3060000
X4440000Y2350000
X9240000Y4295000
X7635000Y3210000
X5845000Y570000
X5175000Y45000
X4535000Y115000
X4486000Y590000
X5440000Y1065000
X8760000Y1250000
X4801000Y1575000
X8855000Y1250000
X5125000Y3575000
X-1350000Y3325000
X5220000Y3575000
X-1240000Y3325000
X5000000Y475000
X4585000Y585000
X5700000Y785000
X4910000Y465000
X6210000Y3650000
X6975000Y4325000
X6605000Y5425000
X9455000Y1930000
Y2040000
X8670000Y2125000
X9290000Y1055000
X8611000Y1199000
X7856000Y310000
X5420000Y3575000
X-1054000Y3264000
X8275000Y1590000
X7375000Y1715000
X7075000Y475000
X6360000Y495000
X9190000Y1480000
X9935000Y1165000
X10195000Y1170000
X9100000Y1580000
X10450000Y1170000
X9180000Y1630000
X5810000Y785000
X4865000Y180000
X-1353010Y3541990
X-1270000Y3545000
X4380000Y2230000
X5715000Y1070000
X3890000Y3620000
X5761000Y5846000
X4340000Y585000
X3681000Y3220000
X3455000Y2130000
X3540000
X8315000Y1090000
Y1180000
X4740000Y2070000
Y1985000
X6805000Y309000
X5041000Y-159000
X5169000
X3270000Y2810000
X3350000
X3270000Y2730000
X3350000
X4006000Y3616000
X4089000
X5971000Y5846000
X7430000Y4430000
X-495000Y4215000
X-405000
X100000Y6535000
X-1000000Y6639000
X-10000Y5140000
X-1104000Y5394000
X-873500Y6406500
X104000Y6014000
X-874500Y6279500
X6000Y6014000
X-1000000Y5870000
X-1086000Y5869000
X-1000000Y5785000
X-1085000
X-1170000Y5046000
X-980000Y5140000
X-1170000Y5144000
X-980000Y5050000
X8915000Y630000
X9780000Y530000
X9300000
X8395000Y935000
X3260000Y3755000
X3170000
Y3845000
X3260000
X4760000Y6625000
Y6545000
X5470000Y6265000
X5320000
X160000Y5470000
X245000
Y5695000
X160000
X4565000Y6155000
X4504000Y5905000
X4430000Y3650000
X4605000Y1730000
X6455000Y270000
X5790000Y4230000
X5075000Y6585000
Y6665000
X10230000Y1360000
X10050000Y630000
X-1150000Y5665000
X-1270000Y6200000
X4115000Y2890000
Y2990000
X-1670000Y4840000
X-1585000
X-1670000Y4180000
X-1585000
X-1755000Y4840000
X-1835000
X-1755000Y4180000
X-1835000
X-1320000Y4215000
Y4295000
X-1240000Y4215000
X-1160000
Y4295000
X-1240000
X310000Y4300000
X410000
Y4400000
X310000
X8230000Y110000
X8140000
Y-150000
X8230000
X-940000Y4375000
Y4455000
X-1870000Y5840000
Y5920000
X-1725000Y5925000
Y5845000
X7750000Y3850000
X7610000Y3860000
X7885000Y4820000
X7735000Y4945000
X8550000Y4625000
X7385000Y3590000
X7560000Y3740000
X7670000Y3965000
X7685000Y3750000
X7795000Y3965000
X7775000Y4305000
X7895000
X7970000Y4205000
X7690000Y4265000
X7995000Y4315000
X5235000Y3890000
X5230000Y4000000
X4760000Y3880000
X4755000Y4010000
X4985000Y3895000
X4990000Y3995000
X4400000Y3825000
X4285000
X4455000Y4005000
X8255000Y4435000
X8260000Y4300000
X8240000Y4195000
X8135000Y4190000
X8100000Y3620000
X8240000Y3730000
X8260000Y3860000
X8240000Y4000000
X8150000
X8135000Y3855000
X8015000Y3530000
X6780000Y3360000
X7005000Y3290000
X7495000Y3325000
X7100000Y3430000
X7320000Y3330000
X7565000Y3425000
X7400000
X7240000
X6985000Y3570000
X4065000Y5425000
X3975000Y5525000
X1885000Y5030000
X1930000Y4790000
X2475000Y6360000
X2205000Y6145000
X4405000Y5405000
X3845000Y4930000
X3885000Y5055000
X3800000Y5265000
X4005000Y5695000
X4065000Y5575000
X3485000Y5955000
X3155000
X2985000Y6200000
X2800000Y6175000
X2680000Y6070000
X3890000Y4650000
X4020000Y4740000
X3090000Y4000000
X7795000Y3330000
X7655000
X4595000Y6465000
X4535000Y6645000
X9675000Y3005000
X9430000Y3020000
X9800000Y3165000
X9545000Y3195000
X7055000Y2400000
X6840000
X6580000Y2710000
X6690000Y2815000
X6885000Y2545000
X7075000Y2490000
X7210000Y2435000
X6970000Y1165000
X7305000Y1205000
X6990000Y1840000
X6905000Y1395000
X7175000Y1630000
X7310000Y1655000
X6190000Y1420000
X6160000Y1720000
X6370000Y2140000
X6365000Y1900000
X6360000Y1445000
X6570000Y1450000
X6585000Y1115000
X6365000Y1155000
X5960000Y1195000
X5860000Y1415000
X5670000Y1195000
X5590000Y1320000
X5515000Y1500000
X5715000Y2000000
X5615000Y1965000
X5715000Y1695000
X5835000Y1665000
X5590000Y1730000
X5715000Y2210000
Y2410000
X5615000Y2200000
Y2410000
X5835000Y2157500
X5830000Y2482500
X5615000Y2692500
X5715000
X6205000Y2547500
X5965000Y2970000
X6165000
X6505000Y5240000
X7300000Y2810000
X7020000Y2910000
X7115000
X7340000Y2600000
X7395000Y2685000
X7300000
X6920000Y2925000
X7730000Y3425000
X7740000Y3120000
X7860000
X7645000Y2965000
X7490000Y2970000
X6860000Y3285000
X2775000Y4255000
X1035000Y4795000
X1175000Y4790000
X6120000Y4845000
Y4980000
X5475000Y4325000
X5480000Y4590000
X5475000Y4830000
X5650000Y4995000
X5520000Y4945000
X5625000Y4605000
Y4715000
X5630000Y4845000
X4340000Y3190000
X4230000
X3110000Y80000
Y660000
X2940000Y3600000
Y3710000
X2930000Y3820000
X2620000Y2120000
X2490000
X1270000Y2340000
Y1910000
Y2020000
X3590000Y1420000
Y1560000
X3690000Y1700000
R02Y140000
X990000Y2480000
X870000Y2370000
X1110000
Y2480000
X870000
X-1810000Y1045000
Y1130000
X-1890000
Y1045000
X-1810000Y880000
X-1890000
X-1810000Y960000
X-1890000
X-1810000Y1605000
Y1690000
X-1890000
Y1605000
X-1810000Y1440000
X-1890000
X-1810000Y1520000
X-1890000
X-1810000Y2230000
Y2145000
X-1890000Y2230000
Y2145000
X-1810000Y1980000
Y2060000
X-1890000Y1980000
Y2060000
X320000Y3630000
X660000Y3410000
X440000
X160000Y3210000
X-90010Y3209990
X-450000Y4130000
X-228400Y3560000
X1540000Y3050000
X1670000
X6830000Y2760000
X6590000Y2860000
X5500000Y2195000
X5495000Y2410000
X6030000Y2370000
X6580000Y2130000
X6905000Y2135000
X7200000Y2155000
X7145000Y1260000
X6850000Y1240000
X6825000Y1900000
X7225000
X6550000Y1660000
X6295000Y1735000
X6180000Y2080000
X5965000Y1840000
X6020000Y1480000
X6510000Y605000
X6365000Y-165000
X6650000Y265000
X9670000Y4525000
X10205000Y4570000
X10110000Y4560000
X9990000Y4565000
X9870000Y4570000
X9745000
X5020000Y1270000
X4690000Y1150000
X4695000Y750000
X4875000Y705000
X8795000Y200000
X8420000Y150000
X8415000Y-170000
X8475000Y635000
X8235000Y690000
X8035000Y450000
X8370000Y475000
X8515000Y2370000
X8395000Y2110000
X8845000Y1750000
X8735000Y1830000
X8400000Y1670000
X8405000Y1835000
X8675000Y1430000
X9555000Y1170000
X9135000Y1350000
X8830000Y1385000
X9700000Y2150000
X10280000Y2505000
X10600000Y2810000
X10605000Y2975000
X10175000Y4285000
X10340000Y3805000
X10525000Y3395000
X10340000Y3405000
X10535000Y3620000
X10340000Y3705000
X10345000Y3600000
X9280000Y3175000
X9781000Y3456000
X9527000
X9654000Y3710000
X9273000Y3456000
X9400000Y3710000
X7510000Y4555000
X6190000Y3580000
X5725000Y3595000
X5430000Y3915000
X5330000
X4005000Y3970000
X4270000Y3700000
X4360000Y3635000
X4900000Y2155000
X4390000Y1870000
X4635000Y1865000
X9095000Y1675000
X7105000Y3750000
X6990000Y3720000
X6945000Y4475000
X5400000Y6090000
X7602320Y6594320
R04X-254000
X5824320
R02X-254000
X2776320
X2522320
X7729320Y6340320
R05X-254000
X5951320
X2649320
X8110320Y6086320
R02X-254000
X7094320
R02X-254000
X4310000Y6035000
X4071320Y5816320
X3722320
X2198320
X1944320
X8237320Y5832320
R07X-254000
X5443320
X8110320Y5578320
X7856320
X5710000Y5525000
X5435000
X4320000Y5540000
X3722320Y5308320
X1944320
X8237320Y5324320
X7983320
X7221320
R02X-254000
X5697320
X5443320
X4215000Y5380000
X2071320Y5054320
X9888320Y5070320
X8618320
X8364320
X8110320
X7602320
X6332320
X3722320Y4800320
X1825000Y4445000
X9253320Y4816320
X7729320
X7475320
X5189320
X4427320
X1605000Y4615000
X871320Y4816320
X7094320Y4562320
X6332320
X3935000Y4485000
X3480000Y4285000
X3214320Y4292320
X2960320
X2452320
X2198320
X2039320
X1750000Y4280000
X1535000Y4410000
X1385000Y4335000
X6205320Y4308320
X3944320Y4038320
X7348320Y4054320
X7094320
X5189320Y3800320
X3681000Y2916000
X2490000Y2240000
X2725000Y2150000
X2595000Y2800000
X1100000Y4620000
X3320000Y6055000
X3315000Y6200000
X3560000Y6145000
X2635000Y5925000
X2930000Y6060000
X2785000Y5860000
X4255000Y5795000
X4125000Y5770000
Y5665000
X3950000Y5380000
X3915000Y5250000
X3990000Y5190000
X3810000Y5140000
X4050000Y5300000
X3830000Y4375000
X3790000Y4550000
X4015000Y4555000
X3685000Y4240000
X3680000Y4435000
X3545000Y4150000
X3575000Y4345000
X3400000Y4080000
X3365000Y4225000
X2655000Y4000000
X2630000Y4240000
X3090000Y4150000
X3240000Y4180000
X3250000Y4030000
X2780000Y4000000
Y4150000
X2935000
Y4000000
X2395000Y4150000
Y4000000
X2550000Y4150000
Y4000000
X2115000Y4015000
X2130000Y4160000
X2240000Y4150000
X2255000Y4000000
X1990000Y4040000
X2000000Y4180000
X1865000Y4075000
X1870000Y4230000
X1230000Y4705000
X1630000Y4345000
X1635000Y4175000
X1250000Y4345000
X1755000Y4115000
X1340000Y4595000
X1495000Y4250000
X1425000Y4505000
X1260000Y4465000
X1000000Y4610000
X1190000Y4545000
X1015000Y4735000
X6401000Y721000
X6515000Y1075000
X6700000Y555000
X5040000Y41000
X4075000Y6660000
R03Y-105000
X3946300Y5995000
X4046300
X3751300
X3145000Y6200000
X3080000Y6055000
X2885000Y6545000
Y6650000
X2810000Y6010000
X2885000Y6335000
Y6440000
X7985000Y4860000
X8040000Y4960000
X7935000Y5065000
X7855000Y4980000
X6950000Y5680000
X7165000Y5615000
X7345000Y5535000
X7505000Y5450000
X7670000Y5325000
X7795000Y5205000
X7720000Y5120000
X7590000Y5240000
X7420000Y5275000
X7280000Y5400000
X7115000Y5505000
X6930000Y5570000
X8336000Y1381000
X8650000Y2950000
X1410000Y2460000
X2309000Y2465000
X5125000Y6245000
X4835000Y6575000
X4680000Y6045000
X3625000Y5595000
R05Y-205000
X3565000Y4415000
X3365000Y4365000
X3190000
X2840000
X3015000
X2630000
X2455000
X2255000Y4415000
X2195000Y4565000
R05Y205000
X3565000Y5745000
X7245000Y3285000
X8055000Y3435000
X8140000Y3725000
X8165000Y3545000
X9530000Y4610000
Y4730000
X9305000
X9410000Y4605000
X9305000
X9220000Y4600000
X9200000Y4730000
X9025000Y4610000
X9030000Y4725000
X8885000
Y4615000
X8730000Y4620000
X8735000Y4730000
X8625000Y4775000
X8505000Y4725000
X8515000Y4850000
X8390000Y4765000
Y4875000
X8385000Y4620000
X8020000Y4675000
X8275000Y4745000
X8090000Y4750000
X8135000Y4890000
X8270000
X7860000Y2600000
X7930000Y3355000
X6780000Y5710000
X6760000Y5595000
X6595000Y5720000
Y5610000
X6315000Y5720000
X6455000
X6315000Y5610000
X6455000
X6175000Y5720000
Y5610000
X6035000
R06X-140000
X6035000Y5720000
R06X-140000
X5055000Y5610000
Y5720000
X4735000Y5570000
X4825000
X4635000
X4735000Y5665000
X4825000
X4635000
X4825000Y5760000
X4735000
X4635000
X4615000Y5340000
X2840000Y5795000
R02X175000
X3340000
X2455000
X2255000Y5745000
X10040000Y4295000
X9940000Y4290000
X9840000
X10475000Y3181000
X8685000Y2345000
X8646000Y2001000
X5391000Y3184000
X4555000Y-205000
X4765000
X5670000Y115000
X5543000Y113000
X6805000Y-155000
X9120000Y3700000
R02Y-300000
X9780000Y2800000
R02X-330000
X10110000
R04Y300000
X9780000
X9450000
X9030000Y965000
X9035000Y780000
X8815000Y310000
Y420000
Y525000
X8290000Y310000
X8040000Y30000
X4855000Y-190000
X3427500Y1327500
X3582500
X3427500Y1117500
X3582500
X4765000Y-115000
X4555000
X3450000Y-15000
Y-170000
X3240000
Y-15000
X3644000Y9000
X-1590000Y3045000
X-1675000
X-1590000Y3145000
X-1675000
X-1840000Y3045000
X-1760000
X-1840000Y3145000
X-1760000
X-1675000Y2475000
X-1760000
X-1840000
X-1590000
X-1675000Y2375000
X-1760000
X-1840000
X-1590000
X3025000Y2835000
X2665000Y2720000
X2370000Y2550000
X3895000Y2660000
R03Y110000
X4115000Y2040000
X4024000Y2284000
X3995000Y3470000
X3420000Y2881000
X3010000Y3215000
X3500000Y3115000
X3010000Y3400000
Y3315000
X3025000Y2665000
X1465000Y2010000
X1870000
X2300000
X2309000Y2225000
X1975000Y2685000
X1975210Y2584800
X1975000Y2475000
X1870000Y2685000
X1765000
X1765210Y2584800
X1870210
X1765000Y2475000
X1870000
X2345000Y2765000
X1695000Y5090000
Y5195000
Y4880000
Y4985000
X1441300Y4785000
X1641300
X1541300
X665000
X765000
X505000Y5185000
R03Y-105000
X565000Y4785000
X-1070000Y4930000
X6505000Y3430000
X5272500Y2527500
X10420000Y2620000
Y2380000
X10460000Y1240000
X10350000
X10585000Y4365000
Y4295000
X10300000Y4365000
Y4295000
X10580000Y4595000
Y4670000
X10300000Y4590000
Y4670000
X10091000Y4381000
X10053000Y1453000
X10180000Y1460000
X10050000Y520000
X9939000Y4381000
X9880000Y530000
X9815000Y20000
X9845000Y-135000
X9540000Y4300000
X9640000
X9540000Y2710000
X9719000Y2381000
X9685000Y1930000
X9690000Y2040000
X9650000Y1499000
X9725000Y719000
X9555000Y20000
X9630000Y145000
X9610000Y-140000
X9270000Y2340000
X9430000Y2310000
X9515000Y1790000
X9410000Y790000
X9305000
X9295000Y10000
X9415000Y135000
X9375000Y-140000
X9120000Y4000000
X9195000Y1050000
X9220000Y500000
X9225000Y140000
X8799000Y4295000
X8915000Y2095000
X8800000Y90000
X8615000Y3590000
X8810000Y2345000
X8609000Y1101000
X8300000Y2301000
X8390000Y750000
X8100000Y1760000
X7820000Y2280000
X7865000Y1760000
X7645000Y1405000
X8050000Y1419000
X8040000Y1521000
X7860000Y1039000
X7630000Y2005000
X7405000Y1405000
X7490000Y941000
X7495000Y641000
X7460000Y485000
X7510000Y170000
Y-80000
X7115000Y3000000
X7375000Y1805000
X7165000Y815000
X7210000Y585000
X6970000Y1620000
X7100000Y585000
X6360000Y3430000
X6415000Y2970000
X6650000Y2640000
X6370000Y175000
X6365000Y-80000
X6280000Y2640000
X5975000Y2675000
X5860000Y2315000
X6015000Y1085000
X5991000Y740000
X5715000Y2970000
X5505000Y1355000
X5315000Y1100000
X5230000Y2160000
X5070000Y1395000
X5040000Y1105000
X4825000Y330000
X2630000Y5795000
X6410000Y4540000
X6670000
X7095000Y4140000
X9410000Y4730000
X10065000Y5195000
R03Y-105000
X9911300Y4785000
X10011300
X9811300
X9135000
X9035000
X8935000
X8875000Y4870000
R03Y105000
X5550000Y6095000
X4810000Y6064000
X6335000Y6040000
X6225000
X6335000Y5960000
X5670000Y6095000
X5270000Y5545000
X5199000Y5434000
X4210000Y5555000
X1290000Y4785000
X6825000Y4065000
X5840000Y4980000
X5830000Y4840000
X5696000Y4760000
X6124500Y4325500
X5765000Y3905000
X7740000Y4659000
X8285000Y4550000
X7880000Y3445000
X7780000Y2545000
X6734000Y5029000
X6825000Y4780000
X4670000Y3630000
X4900000
X4780000
X7400000Y2780000
X7620000Y2550000
X5200000Y4100000
X4980000
X5090000
X5200000Y4210000
X4980000
X5090000
Y4320000
X4870000
X4980000
X4455000Y3880000
X4120000Y3910000
X4210000
X4315000Y4065000
X4120000Y4020000
X4210000
X4320000Y4260000
X4080000Y4265000
X4190000
X4420000Y4370000
Y4150000
Y4260000
X4320000Y4150000
Y4370000
X4670000Y4620000
Y4400000
Y4510000
X4570000
Y4400000
Y4620000
X4870000
Y4400000
Y4510000
X4770000
Y4400000
Y4620000
X4670000Y4820000
X4870000
X4770000
Y4720000
X4870000
X4670000
X4570000
Y4820000
X4970000Y4510000
Y4410000
Y4720000
Y4620000
Y4820000
X5010000Y5010000
R02X100000
X5110000Y4910000
X5010000
X5210000
X4360000Y5000000
X4460000
X4360000Y4900000
X4460000
X4110000Y5030000
Y5130000
Y5220000
X4210000Y5130000
Y5030000
Y5220000
X5330000Y5210000
X5430000
Y5020000
Y5120000
X5330000
Y5020000
X5430000Y4020000
X5330000
X2200000Y1890000
X1800000
X95000Y6400000
X-10000Y5030000
X-195000Y6100000
R02X-160000
X-835000
X-675000
X-670000Y4585000
X-165000Y4785000
X-155000Y4385000
X-305000Y4390000
X-310000Y4780000
X-805000Y4515000
Y4615000
X-1000000Y6541000
X-1100000Y5296000
Y4300000
X-1120000Y3330000
X-1300000Y5635000
Y5845000
Y5740000
X-1270000Y5960000
X-1240000Y5505000
R02Y-110000
X-840000Y5580000
R03X160000
X-1375000Y4465000
Y4630000
Y4790000
X-1200000Y3705000
X-1300000Y3805000
X-1200000
X-1300000Y3705000
X-1530000Y5930000
X-1755000Y6150000
X-1860000
X5645000Y5165000
X5835000Y4770000
X6125000Y3944500
X7320000Y4425000
X6070000Y4505000
X7100000Y4650000
X6670000Y4440000
X5101000Y5425000
X5945000Y5340000
X4939000Y5874000
X4980000Y3720000
Y3800000
X7186000Y3810000
X7945000Y3875000
X5090000Y3380000
X6069000Y5845000
X4415000Y6205000
Y6105000
X3430000Y3270000
Y3410000
X3310000Y3270000
Y3410000
X3190000
Y3270000
T02
X140000Y4785000
X135000Y4385000
X-5000
X-10000Y4785000
T03
X10530000Y910000
R04X-254000
T04
X1403500Y1634000
X1530500Y1380000
X1657500Y1634000
X1784500Y1380000
X1911500Y1634000
X2038500Y1380000
X2165500Y1634000
X2419500
X2546500Y1380000
T05
X1312010Y339010
X1566010
X2383990
X2637990
T06
X6470000Y6500000
R02X254000
T07
X7110000Y5120000
X7364000
X-1165000Y6610000
Y6356000
X6930000Y-100000
Y154000
X6530000Y-100000
Y154000
X7240000Y-100000
Y154000
X8480000Y4140000
Y4394000
T08
X1200000Y1050000
X2750000
T09
X-1690000Y6490000
X-615000Y10000
X2145000Y6490000
X8085000
X10410000Y5020000
Y10000
T10
X1403500Y745000
X2546500
M30
