%FSTAX23Y23*%
%MOIN*%
%SFA1B1*%

%IPPOS*%
%AMD72*
4,1,8,-0.031500,0.015700,-0.031500,-0.015700,-0.015700,-0.031500,0.015700,-0.031500,0.031500,-0.015700,0.031500,0.015700,0.015700,0.031500,-0.015700,0.031500,-0.031500,0.015700,0.0*
1,1,0.031496,-0.015700,0.015700*
1,1,0.031496,-0.015700,-0.015700*
1,1,0.031496,0.015700,-0.015700*
1,1,0.031496,0.015700,0.015700*
%
%ADD16C,0.010000*%
%ADD69C,0.004921*%
%ADD71C,0.062992*%
G04~CAMADD=72~8~0.0~0.0~629.9~629.9~157.5~0.0~15~0.0~0.0~0.0~0.0~0~0.0~0.0~0.0~0.0~0~0.0~0.0~0.0~90.0~630.0~630.0*
%ADD72D72*%
%ADD73C,0.025591*%
%ADD74C,0.013780*%
%ADD75C,0.025000*%
%ADD76R,0.020000X0.020000*%
%LNcoaster-1*%
%LPD*%
G36*
X01315Y00005D02*
X00005D01*
Y0116*
X01315*
Y00005*
G37*
%LNcoaster-2*%
%LPC*%
G36*
X0109Y01111D02*
Y011D01*
X01101*
X01099Y01104*
X01094Y01109*
X0109Y01111*
G37*
G36*
X0108D02*
X01075Y01109D01*
X0107Y01104*
X01068Y011*
X0108*
Y01111*
G37*
G36*
X00345Y01096D02*
Y01085D01*
X00356*
X00354Y01089*
X00349Y01094*
X00345Y01096*
G37*
G36*
X00335D02*
X0033Y01094D01*
X00325Y01089*
X00323Y01085*
X00335*
Y01096*
G37*
G36*
X01101Y0109D02*
X0109D01*
Y01078*
X01094Y0108*
X01099Y01085*
X01101Y0109*
G37*
G36*
X0108D02*
X01068D01*
X0107Y01085*
X01075Y0108*
X0108Y01078*
Y0109*
G37*
G36*
X00356Y01075D02*
X00345D01*
Y01063*
X00349Y01065*
X00354Y0107*
X00356Y01075*
G37*
G36*
X00335D02*
X00323D01*
X00325Y0107*
X0033Y01065*
X00335Y01063*
Y01075*
G37*
G36*
X0017Y00946D02*
Y00935D01*
X00181*
X00179Y00939*
X00174Y00944*
X0017Y00946*
G37*
G36*
X0016D02*
X00155Y00944D01*
X0015Y00939*
X00148Y00935*
X0016*
Y00946*
G37*
G36*
X00932Y00987D02*
X00927D01*
X00922Y00985*
X00919Y00982*
X00917Y00977*
Y00972*
X00919Y00967*
X00922Y00964*
X00922Y00964*
X00942Y00944*
Y0092*
X00937Y00918*
X00935Y0092*
X00915Y0094*
X0091Y00944*
X00905Y00945*
X00855*
X00849Y00944*
X00844Y0094*
X0084Y00935*
X00839Y0093*
X0084Y00924*
X00844Y00919*
X00849Y00915*
X00855Y00914*
X00898*
X00914Y00899*
X00919Y00895*
X00925Y00894*
X0093Y00895*
X00935Y00899*
X00937Y00901*
X00942Y00899*
Y00835*
X00912Y00805*
X00912Y00805*
X00909Y00802*
X00907Y00797*
Y00792*
X00903Y00787*
X00535*
X0053Y00786*
X00526Y00783*
X00511Y00769*
X00509Y00765*
X00508Y0076*
Y00756*
X00497Y00745*
X00497Y00745*
X00494Y00742*
X00492Y00737*
Y00732*
X00494Y00727*
X00497Y00724*
X00502Y00722*
X00507*
X00512Y00724*
X00515Y00727*
X00515Y00727*
X00529Y00741*
X00532Y00745*
X00533Y0075*
Y00755*
X0054Y00762*
X0095*
X00954Y00763*
X00958Y00766*
X00983Y00791*
X00986Y00795*
X00987Y008*
Y00869*
X01067Y00949*
X01067Y00949*
X0107Y00952*
X01072Y00957*
Y00962*
X0107Y00967*
X01067Y0097*
X01062Y00972*
X01057*
X01052Y0097*
X01049Y00967*
X01049Y00967*
X00972Y0089*
X00967Y00892*
Y0095*
X00966Y00954*
X00963Y00958*
X0094Y00982*
X0094Y00982*
X00937Y00985*
X00932Y00987*
G37*
G36*
X00181Y00925D02*
X0017D01*
Y00913*
X00174Y00915*
X00179Y0092*
X00181Y00925*
G37*
G36*
X0016D02*
X00148D01*
X0015Y0092*
X00155Y00915*
X0016Y00913*
Y00925*
G37*
G36*
X012Y00927D02*
Y0091D01*
X01217*
X01214Y00917*
X01207Y00924*
X012Y00927*
G37*
G36*
X0119D02*
X01182Y00924D01*
X01175Y00917*
X01172Y0091*
X0119*
Y00927*
G37*
G36*
X01217Y009D02*
X012D01*
Y00882*
X01207Y00885*
X01214Y00892*
X01217Y009*
G37*
G36*
X0119D02*
X01172D01*
X01175Y00892*
X01182Y00885*
X0119Y00882*
Y009*
G37*
G36*
X00335Y00876D02*
Y00865D01*
X00346*
X00344Y00869*
X00339Y00874*
X00335Y00876*
G37*
G36*
X00325D02*
X0032Y00874D01*
X00315Y00869*
X00313Y00865*
X00325*
Y00876*
G37*
G36*
X00346Y00855D02*
X00335D01*
Y00843*
X00339Y00845*
X00344Y0085*
X00346Y00855*
G37*
G36*
X00325D02*
X00313D01*
X00315Y0085*
X0032Y00845*
X00325Y00843*
Y00855*
G37*
G36*
X00435Y00806D02*
Y00795D01*
X00446*
X00444Y00799*
X00439Y00804*
X00435Y00806*
G37*
G36*
X00425D02*
X0042Y00804D01*
X00415Y00799*
X00413Y00795*
X00425*
Y00806*
G37*
G36*
X00446Y00785D02*
X00435D01*
Y00773*
X00439Y00775*
X00444Y0078*
X00446Y00785*
G37*
G36*
X00425D02*
X00413D01*
X00415Y0078*
X0042Y00775*
X00425Y00773*
Y00785*
G37*
G36*
X0008Y00848D02*
X00069D01*
X00058Y00846*
X00049Y0084*
X00041Y00832*
X00036Y00823*
X00033Y00812*
Y00802*
X00036Y00791*
X00041Y00781*
X00049Y00774*
X00058Y00768*
X00069Y00765*
X0008*
X00091Y00768*
X001Y00774*
X00108Y00781*
X00113Y00791*
X00116Y00802*
Y00812*
X00113Y00823*
X00108Y00832*
X001Y0084*
X00091Y00846*
X0008Y00848*
G37*
G36*
X00325Y00746D02*
X0032Y00744D01*
X00315Y00739*
X00313Y00735*
X00325*
Y00746*
G37*
G36*
X0008Y00748D02*
X0008D01*
Y00712*
X00116*
Y00712*
X00113Y00723*
X00108Y00732*
X001Y0074*
X00091Y00746*
X0008Y00748*
G37*
G36*
X0007D02*
X00069D01*
X00058Y00746*
X00049Y0074*
X00041Y00732*
X00036Y00723*
X00033Y00712*
Y00712*
X0007*
Y00748*
G37*
G36*
X00955Y00725D02*
X00835D01*
X00829Y00724*
X00824Y0072*
X00815Y00712*
X00812Y00711*
X00808Y00712*
X00805Y00714*
X008Y00715*
X00794Y00714*
X00789Y0071*
X00785Y00705*
X00784Y007*
Y00615*
X00779Y00613*
X00777Y00615*
X00772Y00617*
X00767*
X00762Y00615*
X00759Y00612*
X00757Y00607*
X00756Y00606*
X00752Y00605*
X00749Y00607*
X00746Y00607*
X0074Y00613*
X00736Y00616*
X00733Y00617*
X00732Y00617*
X00727*
X00722Y00615*
X00719Y00612*
X00717Y00607*
Y00602*
X00719Y00597*
X00722Y00594*
X00725Y00592*
X00731Y00586*
X00735Y00583*
X00738Y00583*
X00759Y00562*
X00759Y00562*
X00762Y00559*
X00767Y00557*
X00772*
X00777Y00559*
X00779Y00561*
X00784Y00559*
Y0051*
X00785Y00504*
X00789Y00499*
X00794Y00495*
X00796Y00495*
X00798Y00495*
X00798Y0049*
X00775*
Y0045*
X00815*
Y0045*
X0082Y00452*
X00823Y00449*
X00826Y00447*
X00834Y00438*
Y0021*
X00835Y00204*
X00839Y00199*
X00844Y00195*
X0085Y00194*
X00855Y00195*
X0086Y00199*
X00864Y00204*
X00865Y0021*
Y0042*
X00868Y00422*
Y0044*
Y00456*
X00863Y00454*
X00861Y00454*
X0086Y00455*
X00845Y0047*
X00842Y00472*
X00834Y0048*
X00829Y00484*
X00823Y00485*
X00815*
Y0049*
X00801*
X00801Y00495*
X00803Y00495*
X00805Y00495*
X0081Y00499*
X00814Y00504*
X00815Y0051*
Y00682*
X0082Y00685*
X00825Y00684*
X0083Y00685*
X00835Y00689*
X00841Y00694*
X00939*
Y00465*
X0094Y00459*
X00944Y00454*
X00949Y0045*
X00955Y00449*
X0096Y0045*
X00965Y00454*
X00969Y00459*
X0097Y00465*
Y0071*
X00969Y00715*
X00965Y0072*
X0096Y00724*
X00955Y00725*
G37*
G36*
X01064Y00726D02*
X01055D01*
X01047Y00723*
X0104Y00716*
X01037Y00708*
Y00699*
X0104Y0069*
X01047Y00684*
X01055Y0068*
X01064*
X01072Y00684*
X01079Y0069*
X01082Y00699*
Y00708*
X01079Y00716*
X01072Y00723*
X01064Y00726*
G37*
G36*
X00116Y00702D02*
X0008D01*
Y00665*
X0008*
X00091Y00668*
X001Y00674*
X00108Y00681*
X00113Y00691*
X00116Y00702*
Y00702*
G37*
G36*
X0007D02*
X00033D01*
Y00702*
X00036Y00691*
X00041Y00681*
X00049Y00674*
X00058Y00668*
X00069Y00665*
X0007*
Y00702*
G37*
G36*
X00042Y00937D02*
X00037D01*
X00032Y00935*
X00029Y00932*
X00027Y00927*
Y00922*
X00029Y00917*
X00032Y00914*
X00032Y00914*
X00071Y00876*
X00075Y00873*
X0008Y00872*
X00149*
X00157Y00864*
Y00653*
X00152Y0065*
X0015Y00651*
Y00635*
Y00618*
X00152Y00619*
X00157Y00616*
Y00615*
X00158Y0061*
X00161Y00606*
X00212Y00554*
Y00524*
X00207Y00523*
X00205Y00527*
X00202Y0053*
X00202Y0053*
X00125Y00607*
X00121Y0061*
X00116Y00611*
Y00612*
X00113Y00623*
X00108Y00632*
X001Y0064*
X00091Y00646*
X0008Y00648*
X00069*
X00058Y00646*
X00049Y0064*
X00041Y00632*
X00036Y00623*
X00033Y00612*
Y00602*
X00036Y00591*
X00041Y00581*
X00049Y00574*
X00058Y00568*
X00069Y00565*
X0008*
X00091Y00568*
X001Y00574*
X00108Y00581*
X00114Y00582*
X00182Y00514*
X0018Y00509*
X00116*
Y00512*
X00113Y00523*
X00108Y00532*
X001Y0054*
X00091Y00546*
X0008Y00548*
X00069*
X00058Y00546*
X00049Y0054*
X00041Y00532*
X00036Y00523*
X00033Y00512*
Y00502*
X00036Y00491*
X00041Y00481*
X00049Y00474*
X00058Y00468*
X00069Y00465*
X0008*
X00091Y00468*
X001Y00474*
X00108Y00481*
X00109Y00483*
X00188*
X00192Y00482*
X00197*
X00202Y00484*
X00205Y00487*
X00207Y00491*
X00212Y0049*
Y0045*
X00182Y0042*
X00116*
Y00423*
X00115Y00429*
X00113Y00436*
X00109Y00441*
X00103Y00445*
X00097Y00448*
X0009Y00449*
X00059*
X00052Y00448*
X00046Y00445*
X0004Y00441*
X00036Y00436*
X00034Y00429*
X00033Y00423*
Y00391*
X00034Y00385*
X00036Y00378*
X0004Y00373*
X00046Y00369*
X00052Y00366*
X00059Y00365*
X0009*
X00097Y00366*
X00103Y00369*
X00109Y00373*
X00113Y00378*
X00115Y00385*
X00116Y00391*
Y00394*
X00187*
X00192Y00395*
X00196Y00398*
X00233Y00436*
X00236Y0044*
X00237Y00445*
Y00482*
X00242Y00484*
X00242Y00484*
X00247Y00482*
X00252*
X00252Y00482*
X00309*
X00311Y00477*
X00309Y00475*
X00305Y0047*
X00304Y00465*
X00305Y00459*
X00309Y00454*
X00399Y00364*
X00404Y0036*
X0041Y00359*
X0056*
X00565Y0036*
X0057Y00364*
X00574Y00369*
X00575Y00375*
X00574Y0038*
X0057Y00385*
X00565Y00389*
X0056Y0039*
X00416*
X0033Y00475*
X00328Y00477*
X0033Y00482*
X00371*
X00373Y00477*
X0037Y00474*
X00368Y0047*
X00401*
X00399Y00474*
X00396Y00477*
X00398Y00482*
X00425*
X00429Y00483*
X00433Y00486*
X00445Y00497*
X005*
X00504Y00498*
X00508Y00501*
X0057Y00562*
X0064*
X00644Y00563*
X00648Y00566*
X00697Y00614*
X00697Y00614*
X007Y00617*
X00702Y00622*
Y00627*
X007Y00632*
X00697Y00635*
X00692Y00637*
X00687*
X00682Y00635*
X00679Y00632*
X00679Y00632*
X00634Y00587*
X00565*
X0056Y00586*
X00556Y00583*
X00494Y00522*
X00489*
X00487Y00525*
X0047*
Y00535*
X00486*
X00484Y00539*
X00479Y00544*
X00475Y00545*
X00474Y00551*
X00503Y0058*
X00509Y00579*
X0051Y00575*
X00515Y0057*
X0052Y00568*
Y00585*
X00525*
Y0059*
X00541*
X00539Y00594*
X00534Y00599*
X0053Y006*
X00529Y00606*
X00558Y00635*
X00564Y00634*
X00565Y0063*
X0057Y00625*
X00575Y00623*
Y0064*
X0058*
Y00645*
X00596*
X00594Y00649*
X00589Y00654*
X00589Y00654*
X00587Y0066*
X00589Y00662*
X00672*
X00672Y00662*
X00677*
X00682Y00664*
X00685Y00667*
X00687Y00672*
Y00677*
X00685Y00682*
X00682Y00685*
X00677Y00687*
X00672*
X00672Y00687*
X0058*
X00575Y00686*
X00571Y00683*
X00432Y00545*
X0043Y00545*
X00428Y0055*
X00458Y00581*
X00461Y00585*
X00462Y0059*
Y0062*
X00465Y00622*
Y0064*
Y00657*
X00462Y00659*
Y00754*
X00487Y00779*
X00487Y00779*
X0049Y00782*
X00492Y00787*
Y00792*
X0049Y00797*
X00487Y008*
X00482Y00802*
X00477*
X00472Y008*
X00469Y00797*
X00469Y00797*
X00441Y00768*
X00438Y00764*
X00437Y0076*
Y00595*
X00409Y00567*
X00357*
X00357Y00567*
X00353*
X0035Y0057*
X00349Y00572*
X0035Y00575*
Y00683*
X004Y00734*
X00404Y00739*
X00405Y00745*
X00404Y0075*
X004Y00755*
X00395Y00759*
X0039Y0076*
X00384Y00759*
X00379Y00755*
X00351Y00728*
X00346Y0073*
Y00733*
X00344Y00739*
X00339Y00744*
X00335Y00746*
Y0073*
X0033*
Y00725*
X00313*
X00315Y0072*
X0032Y00715*
X00326Y00713*
X00329*
X00331Y00708*
X00324Y007*
X0032Y00695*
X00319Y0069*
Y00575*
X0032Y00569*
X00324Y00564*
X00329Y0056*
X00335Y00559*
X00337Y0056*
X00339Y00559*
X00342Y00556*
Y00552*
X00344Y00547*
X00344Y00547*
X00342Y00542*
X00299*
X00298Y00547*
X00302Y00549*
X00305Y00552*
X00307Y00557*
Y00562*
X00305Y00567*
X00302Y0057*
X00297Y00572*
X00292*
X00292Y00572*
X0023*
X00182Y0062*
Y0087*
X00181Y00874*
X00178Y00878*
X00163Y00893*
X00159Y00896*
X00155Y00897*
X00085*
X0005Y00932*
X0005Y00932*
X00047Y00935*
X00042Y00937*
G37*
G36*
X00475Y00656D02*
Y00645D01*
X00486*
X00484Y00649*
X00479Y00654*
X00475Y00656*
G37*
G36*
X0014Y00651D02*
X00135Y00649D01*
X0013Y00644*
X00128Y0064*
X0014*
Y00651*
G37*
G36*
X00596Y00635D02*
X00585D01*
Y00623*
X00589Y00625*
X00594Y0063*
X00596Y00635*
G37*
G36*
X00486D02*
X00475D01*
Y00623*
X00479Y00625*
X00484Y0063*
X00486Y00635*
G37*
G36*
X0014Y0063D02*
X00128D01*
X0013Y00625*
X00135Y0062*
X0014Y00618*
Y0063*
G37*
G36*
X00541Y0058D02*
X0053D01*
Y00568*
X00534Y0057*
X00539Y00575*
X00541Y0058*
G37*
G36*
X01083Y00653D02*
X01076D01*
X01069Y0065*
X01064Y00645*
X01061Y00638*
Y00631*
X01064Y00624*
X01064Y00624*
Y0059*
X01064Y0059*
X01061Y00583*
Y00576*
X01064Y00569*
X01069Y00564*
X01076Y00561*
X01083*
X0109Y00564*
X01095Y00569*
X01098Y00576*
Y00583*
X01095Y0059*
X01095Y0059*
Y00624*
X01095Y00624*
X01098Y00631*
Y00638*
X01095Y00645*
X0109Y0065*
X01083Y00653*
G37*
G36*
X00727Y00576D02*
X00722D01*
X00717Y00574*
X00714Y0057*
X00712Y00566*
Y00561*
X00714Y00556*
X00717Y00552*
X00722Y0055*
X00727*
X00732Y00552*
X00735Y00556*
X00737Y00561*
Y00566*
X00735Y0057*
X00732Y00574*
X00727Y00576*
G37*
G36*
X00585Y00546D02*
Y00535D01*
X00596*
X00594Y00539*
X00589Y00544*
X00585Y00546*
G37*
G36*
X00575D02*
X0057Y00544D01*
X00565Y00539*
X00563Y00535*
X00575*
Y00546*
G37*
G36*
X00596Y00525D02*
X00585D01*
Y00513*
X00589Y00515*
X00594Y0052*
X00596Y00525*
G37*
G36*
X00575D02*
X00563D01*
X00565Y0052*
X0057Y00515*
X00575Y00513*
Y00525*
G37*
G36*
X00707Y00552D02*
X00702D01*
X00697Y0055*
X00694Y00547*
X00692Y00542*
Y00537*
X00694Y00532*
X00694Y00532*
X00693Y00529*
X00692Y00527*
X00687*
X00682Y00525*
X00679Y00522*
X00677Y00517*
Y00512*
X00679Y00507*
X00682Y00504*
X00687Y00502*
X00692*
X00697Y00504*
X007Y00507*
X00702Y00512*
Y00517*
X007Y00522*
X007Y00522*
X00701Y00525*
X00702Y00527*
X00707*
X00712Y00529*
X00715Y00532*
X00717Y00537*
Y00542*
X00715Y00547*
X00712Y0055*
X00707Y00552*
G37*
G36*
X00765Y0049D02*
X0075D01*
Y00475*
X00765*
Y0049*
G37*
G36*
X0074D02*
X00725D01*
Y00475*
X0074*
Y0049*
G37*
G36*
X01064Y00499D02*
X01055D01*
X01047Y00495*
X0104Y00489*
X01037Y0048*
Y00471*
X0104Y00463*
X01047Y00456*
X01055Y00453*
X01064*
X01072Y00456*
X01079Y00463*
X01082Y00471*
Y0048*
X01079Y00489*
X01072Y00495*
X01064Y00499*
G37*
G36*
X00765Y00465D02*
X0075D01*
Y0045*
X00765*
Y00465*
G37*
G36*
X0074D02*
X00725D01*
Y0045*
X0074*
Y00465*
G37*
G36*
X00401Y0046D02*
X0039D01*
Y00448*
X00394Y0045*
X00399Y00455*
X00401Y0046*
G37*
G36*
X0038D02*
X00368D01*
X0037Y00455*
X00375Y0045*
X0038Y00448*
Y0046*
G37*
G36*
X00878Y00456D02*
Y00445D01*
X00889*
X00887Y00449*
X00882Y00454*
X00878Y00456*
G37*
G36*
X00889Y00435D02*
X00878D01*
Y00423*
X00882Y00425*
X00887Y0043*
X00889Y00435*
G37*
G36*
X0061Y00401D02*
Y0039D01*
X00621*
X00619Y00394*
X00614Y00399*
X0061Y00401*
G37*
G36*
X006D02*
X00595Y00399D01*
X0059Y00394*
X00588Y0039*
X006*
Y00401*
G37*
G36*
X00621Y0038D02*
X0061D01*
Y00368*
X00614Y0037*
X00619Y00375*
X00621Y0038*
G37*
G36*
X006D02*
X00588D01*
X0059Y00375*
X00595Y0037*
X006Y00368*
Y0038*
G37*
G36*
X00645Y00321D02*
Y0031D01*
X00656*
X00654Y00314*
X00649Y00319*
X00645Y00321*
G37*
G36*
X00635D02*
X0063Y00319D01*
X00625Y00314*
X00623Y0031*
X00635*
Y00321*
G37*
G36*
X012Y00322D02*
Y00305D01*
X01217*
X01214Y00312*
X01207Y00319*
X012Y00322*
G37*
G36*
X0119D02*
X01182Y00319D01*
X01175Y00312*
X01172Y00305*
X0119*
Y00322*
G37*
G36*
X0055Y00311D02*
Y003D01*
X00561*
X00559Y00304*
X00554Y00309*
X0055Y00311*
G37*
G36*
X0054D02*
X00535Y00309D01*
X0053Y00304*
X00528Y003*
X0054*
Y00311*
G37*
G36*
X00656Y003D02*
X00645D01*
Y00288*
X00649Y0029*
X00654Y00295*
X00656Y003*
G37*
G36*
X00635D02*
X00623D01*
X00625Y00295*
X0063Y0029*
X00635Y00288*
Y003*
G37*
G36*
X00561Y0029D02*
X0055D01*
Y00278*
X00554Y0028*
X00559Y00285*
X00561Y0029*
G37*
G36*
X0054D02*
X00528D01*
X0053Y00285*
X00535Y0028*
X0054Y00278*
Y0029*
G37*
G36*
X01217Y00295D02*
X012D01*
Y00277*
X01207Y0028*
X01214Y00287*
X01217Y00295*
G37*
G36*
X0119D02*
X01172D01*
X01175Y00287*
X01182Y0028*
X0119Y00277*
Y00295*
G37*
G36*
X00725Y00256D02*
Y00245D01*
X00736*
X00734Y00249*
X00729Y00254*
X00725Y00256*
G37*
G36*
X00715D02*
X0071Y00254D01*
X00705Y00249*
X00703Y00245*
X00715*
Y00256*
G37*
G36*
X01225Y00246D02*
Y00235D01*
X01236*
X01234Y00239*
X01229Y00244*
X01225Y00246*
G37*
G36*
X01215D02*
X0121Y00244D01*
X01205Y00239*
X01203Y00235*
X01215*
Y00246*
G37*
G36*
X00736Y00235D02*
X00725D01*
Y00223*
X00729Y00225*
X00734Y0023*
X00736Y00235*
G37*
G36*
X00715D02*
X00703D01*
X00705Y0023*
X0071Y00225*
X00715Y00223*
Y00235*
G37*
G36*
X01236Y00225D02*
X01225D01*
Y00213*
X01229Y00215*
X01234Y0022*
X01236Y00225*
G37*
G36*
X01215D02*
X01203D01*
X01205Y0022*
X0121Y00215*
X01215Y00213*
Y00225*
G37*
G36*
X0085Y00166D02*
Y00155D01*
X00861*
X00859Y00159*
X00854Y00164*
X0085Y00166*
G37*
G36*
X0084D02*
X00835Y00164D01*
X0083Y00159*
X00828Y00155*
X0084*
Y00166*
G37*
G36*
X00861Y00145D02*
X0085D01*
Y00133*
X00854Y00135*
X00859Y0014*
X00861Y00145*
G37*
G36*
X0084D02*
X00828D01*
X0083Y0014*
X00835Y00135*
X0084Y00133*
Y00145*
G37*
G36*
X0122Y0012D02*
Y00109D01*
X01231*
X01229Y00114*
X01224Y00118*
X0122Y0012*
G37*
G36*
X0121D02*
X01205Y00118D01*
X012Y00114*
X01198Y00109*
X0121*
Y0012*
G37*
G36*
X01175Y0024D02*
X01169Y00239D01*
X01164Y00235*
X01099Y0017*
X01095Y00165*
X01094Y0016*
Y00112*
X01089Y00109*
X01085Y0011*
X01079Y00109*
X01074Y00105*
X01058Y0009*
X00906*
X0087Y00125*
X00865Y00129*
X0086Y0013*
X00854Y00129*
X00849Y00125*
X00845Y0012*
X00844Y00115*
X00845Y00109*
X00849Y00104*
X00889Y00064*
X00894Y0006*
X009Y00059*
X01065*
X0107Y0006*
X01075Y00064*
X0109Y00078*
X01094Y00076*
Y0005*
X01095Y00044*
X01099Y00039*
X01104Y00035*
X0111Y00034*
X01115Y00035*
X0112Y00039*
X01124Y00044*
X01125Y0005*
Y00153*
X01185Y00214*
X01189Y00219*
X0119Y00225*
X01189Y0023*
X01185Y00235*
X0118Y00239*
X01175Y0024*
G37*
G36*
X01231Y00099D02*
X0122D01*
Y00088*
X01224Y0009*
X01229Y00094*
X01231Y00099*
G37*
G36*
X0121D02*
X01198D01*
X012Y00094*
X01205Y0009*
X0121Y00088*
Y00099*
G37*
G36*
X00705Y00345D02*
X00699Y00344D01*
X00694Y0034*
X00669Y00315*
X00665Y0031*
X00664Y00305*
Y0021*
X00665Y00204*
X00669Y00199*
X00694Y00173*
Y0006*
X00695Y00054*
X00699Y00049*
X00704Y00045*
X0071Y00044*
X00715Y00045*
X0072Y00049*
X00724Y00054*
X00725Y0006*
Y0018*
X00724Y00185*
X0072Y0019*
X00695Y00216*
Y00298*
X00715Y00319*
X00719Y00324*
X0072Y0033*
X00719Y00335*
X00715Y0034*
X0071Y00344*
X00705Y00345*
G37*
G36*
X0079Y0026D02*
X00784Y00259D01*
X00779Y00255*
X00775Y0025*
X00774Y00245*
Y00085*
X00775Y00079*
X00779Y00074*
X00809Y00044*
X00814Y0004*
X0082Y00039*
X00825Y0004*
X0083Y00044*
X00834Y00049*
X00835Y00055*
X00834Y0006*
X0083Y00065*
X00805Y00091*
Y00245*
X00804Y0025*
X008Y00255*
X00795Y00259*
X0079Y0026*
G37*
%LNcoaster-3*%
%LPD*%
G54D16*
X00795Y0047D02*
X00823D01*
X00833Y0046*
X00835*
X008Y0051D02*
Y007D01*
X00335Y0069D02*
X0039Y00745D01*
X00335Y00575D02*
Y0069D01*
X0041Y00375D02*
X0056D01*
X0032Y00465D02*
X0041Y00375D01*
X0068Y00305D02*
X00705Y0033D01*
X0068Y0021D02*
Y00305D01*
Y0021D02*
X0071Y0018D01*
Y0006D02*
Y0018D01*
X0079Y00085D02*
Y00245D01*
Y00085D02*
X0082Y00055D01*
X00835Y0046D02*
X0085Y00445D01*
Y0021D02*
Y00445D01*
X0086Y00115D02*
X009Y00075D01*
X01065*
X01085Y00095*
X01215Y00225D02*
X0122Y0023D01*
X01215Y00104D02*
Y00225D01*
X0111Y0005D02*
Y0016D01*
X01175Y00225*
X00835Y0071D02*
X00955D01*
X00825Y007D02*
X00835Y0071D01*
X00855Y0093D02*
X00905D01*
X00925Y0091*
X00955Y00465D02*
Y0071D01*
X0108Y0058D02*
Y00635D01*
G54D69*
X0058Y00675D02*
X00675D01*
X00744Y00595D02*
X0077Y0057D01*
X0073Y00605D02*
X00731D01*
X0074Y00595D02*
X00744D01*
X00731Y00605D02*
X0074Y00595D01*
X00435Y0053D02*
X0058Y00675D01*
X0026Y0053D02*
X00435D01*
X00225Y0056D02*
X00295D01*
X00355Y00555D02*
X00415D01*
X0045Y0059*
Y0076D02*
X0048Y0079D01*
X0045Y0059D02*
Y0076D01*
X00505Y00735D02*
X0052Y0075D01*
Y0076D02*
X00535Y00775D01*
X0052Y0075D02*
Y0076D01*
X0093Y00975D02*
X00955Y0095D01*
Y0083D02*
Y0095D01*
X0092Y00795D02*
X00955Y0083D01*
X00975Y008D02*
Y00875D01*
X0095Y00775D02*
X00975Y008D01*
Y00875D02*
X0106Y0096D01*
X00535Y00775D02*
X0095D01*
X00193Y00496D02*
X00195Y00495D01*
X00075Y00507D02*
X00085Y00496D01*
X00193*
X00425Y00495D02*
X0044Y0051D01*
X0025Y00495D02*
X00425D01*
X00225Y00445D02*
Y0056D01*
X00187Y00407D02*
X00225Y00445D01*
X0044Y0051D02*
X005D01*
X00565Y00575*
X0064*
X0069Y00625*
X00075Y00607D02*
X00083Y00598D01*
X00116*
X00195Y0052*
X0025D02*
X0026Y0053D01*
X00075Y00407D02*
X00187D01*
X0008Y00885D02*
X00155D01*
X0004Y00925D02*
X0008Y00885D01*
X00155D02*
X0017Y0087D01*
Y00615D02*
Y0087D01*
Y00615D02*
X00225Y0056D01*
G54D71*
X00075Y00807D03*
Y00707D03*
Y00507D03*
Y00607D03*
G54D72*
X00075Y00407D03*
G54D73*
X0106Y00703D03*
Y00476D03*
X01195Y00905D03*
Y003D03*
G54D74*
X00675Y00675D03*
X0073Y00605D03*
X0069Y00515D03*
X00705Y0054D03*
X00873Y0044D03*
X00385Y00465D03*
X00725Y00563D03*
X00545Y00295D03*
X008Y0051D03*
Y007D03*
X0034Y0108D03*
X01085Y01095D03*
X00525Y00585D03*
X0058Y0064D03*
X0047Y0053D03*
X0058D03*
X0047Y0064D03*
X0039Y00745D03*
X00335Y00575D03*
X0032Y00465D03*
X0056Y00375D03*
X00295Y0056D03*
X00165Y0093D03*
X0043Y0079D03*
X0033Y0073D03*
X00145Y00635D03*
X00705Y0033D03*
X0071Y0006D03*
X00845Y0015D03*
X0072Y0024D03*
X0064Y00305D03*
X00605Y00385D03*
X00835Y0046D03*
X0085Y0021D03*
X00355Y00555D03*
X0048Y0079D03*
X00505Y00735D03*
X0086Y00115D03*
X0093Y00975D03*
X0092Y00795D03*
X0106Y0096D03*
X00195Y00495D03*
X0025D03*
X0069Y00625D03*
X00195Y0052D03*
X0025D03*
X0004Y00925D03*
X01085Y00095D03*
X0079Y00245D03*
X0082Y00055D03*
X0122Y0023D03*
X01215Y00104D03*
X01175Y00225D03*
X0111Y0005D03*
X0077Y0057D03*
Y00605D03*
X00825Y007D03*
X00855Y0093D03*
X00925Y0091D03*
X00955Y0071D03*
Y00465D03*
X0033Y0086D03*
G54D75*
X0108Y0058D03*
Y00635D03*
G54D76*
X00795Y0047D03*
X00745D03*
M02*