%FSTAX23Y23*%
%MOIN*%
%SFA1B1*%

%IPPOS*%
%ADD10C,0.020000*%
%ADD11C,0.007874*%
%ADD12C,0.009843*%
%ADD13C,0.005000*%
%ADD14C,0.000000*%
%ADD15C,0.006000*%
%ADD16C,0.010000*%
%ADD17C,0.006063*%
%ADD18C,0.003000*%
%ADD19C,0.012000*%
%LNcoaster-1*%
%LPD*%
G36*
X00483Y0047D02*
X00468D01*
Y0046*
X00483*
Y0047*
G37*
G36*
X00502Y00699D02*
X00487D01*
Y00709*
X00502*
Y00699*
G37*
G36*
X00639Y00582D02*
X00649D01*
Y00567*
X00639*
Y00582*
G37*
G54D10*
X00312Y00202D02*
D01*
X00311Y00203*
X00311Y00204*
X00311Y00205*
X00311Y00206*
X00311Y00207*
X0031Y00208*
X0031Y00209*
X00309Y0021*
X00309Y00211*
X00308Y00212*
X00307Y00213*
X00307Y00213*
X00306Y00214*
X00305Y00215*
X00304Y00215*
X00303Y00216*
X00302Y00216*
X00301Y00216*
X003Y00217*
X00299Y00217*
X00298Y00217*
X00297Y00217*
X00296*
X00295Y00217*
X00294Y00217*
X00293Y00217*
X00292Y00216*
X00291Y00216*
X0029Y00216*
X00289Y00215*
X00288Y00215*
X00287Y00214*
X00286Y00213*
X00286Y00213*
X00285Y00212*
X00284Y00211*
X00284Y0021*
X00283Y00209*
X00283Y00208*
X00282Y00207*
X00282Y00206*
X00282Y00205*
X00282Y00204*
X00282Y00203*
X00282Y00202*
X00282Y00201*
X00282Y002*
X00282Y00199*
X00282Y00198*
X00282Y00197*
X00283Y00196*
X00283Y00195*
X00284Y00194*
X00284Y00193*
X00285Y00192*
X00286Y00192*
X00286Y00191*
X00287Y0019*
X00288Y0019*
X00289Y00189*
X0029Y00189*
X00291Y00188*
X00292Y00188*
X00293Y00188*
X00294Y00187*
X00295Y00187*
X00296Y00187*
X00297*
X00298Y00187*
X00299Y00187*
X003Y00188*
X00301Y00188*
X00302Y00188*
X00303Y00189*
X00304Y00189*
X00305Y0019*
X00306Y0019*
X00307Y00191*
X00307Y00192*
X00308Y00192*
X00309Y00193*
X00309Y00194*
X0031Y00195*
X0031Y00196*
X00311Y00197*
X00311Y00198*
X00311Y00199*
X00311Y002*
X00311Y00201*
X00312Y00202*
X0071Y00952D02*
D01*
X0071Y00953*
X0071Y00954*
X0071Y00955*
X00709Y00956*
X00709Y00957*
X00709Y00958*
X00708Y00959*
X00708Y0096*
X00707Y00961*
X00707Y00962*
X00706Y00962*
X00705Y00963*
X00704Y00964*
X00703Y00964*
X00703Y00965*
X00702Y00965*
X00701Y00966*
X007Y00966*
X00699Y00966*
X00698Y00967*
X00697Y00967*
X00696Y00967*
X00695*
X00693Y00967*
X00692Y00967*
X00691Y00966*
X0069Y00966*
X00689Y00966*
X00688Y00965*
X00688Y00965*
X00687Y00964*
X00686Y00964*
X00685Y00963*
X00684Y00962*
X00684Y00962*
X00683Y00961*
X00682Y0096*
X00682Y00959*
X00681Y00958*
X00681Y00957*
X00681Y00956*
X0068Y00955*
X0068Y00954*
X0068Y00953*
X0068Y00952*
X0068Y00951*
X0068Y0095*
X0068Y00949*
X00681Y00948*
X00681Y00947*
X00681Y00946*
X00682Y00945*
X00682Y00944*
X00683Y00943*
X00684Y00942*
X00684Y00941*
X00685Y00941*
X00686Y0094*
X00687Y00939*
X00688Y00939*
X00688Y00938*
X00689Y00938*
X0069Y00938*
X00691Y00937*
X00692Y00937*
X00693Y00937*
X00695Y00937*
X00696*
X00697Y00937*
X00698Y00937*
X00699Y00937*
X007Y00938*
X00701Y00938*
X00702Y00938*
X00703Y00939*
X00703Y00939*
X00704Y0094*
X00705Y00941*
X00706Y00941*
X00707Y00942*
X00707Y00943*
X00708Y00944*
X00708Y00945*
X00709Y00946*
X00709Y00947*
X00709Y00948*
X0071Y00949*
X0071Y0095*
X0071Y00951*
X0071Y00952*
G54D11*
X0021Y00769D02*
D01*
X0021Y0077*
X0021Y0077*
X0021Y0077*
X0021Y0077*
X0021Y00771*
X0021Y00771*
X0021Y00771*
X0021Y00771*
X00209Y00772*
X00209Y00772*
X00209Y00772*
X00209Y00772*
X00209Y00772*
X00209Y00773*
X00208Y00773*
X00208Y00773*
X00208Y00773*
X00208Y00773*
X00207Y00773*
X00207Y00773*
X00207Y00773*
X00206Y00773*
X00206*
X00206Y00773*
X00206Y00773*
X00205Y00773*
X00205Y00773*
X00205Y00773*
X00205Y00773*
X00204Y00773*
X00204Y00773*
X00204Y00772*
X00204Y00772*
X00203Y00772*
X00203Y00772*
X00203Y00772*
X00203Y00771*
X00203Y00771*
X00203Y00771*
X00203Y00771*
X00203Y0077*
X00202Y0077*
X00202Y0077*
X00202Y0077*
X00202Y00769*
X00202Y00769*
X00202Y00769*
X00202Y00769*
X00203Y00768*
X00203Y00768*
X00203Y00768*
X00203Y00768*
X00203Y00767*
X00203Y00767*
X00203Y00767*
X00203Y00767*
X00204Y00766*
X00204Y00766*
X00204Y00766*
X00204Y00766*
X00205Y00766*
X00205Y00766*
X00205Y00766*
X00205Y00766*
X00206Y00765*
X00206Y00765*
X00206Y00765*
X00206*
X00207Y00765*
X00207Y00765*
X00207Y00766*
X00208Y00766*
X00208Y00766*
X00208Y00766*
X00208Y00766*
X00209Y00766*
X00209Y00766*
X00209Y00766*
X00209Y00767*
X00209Y00767*
X00209Y00767*
X0021Y00767*
X0021Y00768*
X0021Y00768*
X0021Y00768*
X0021Y00768*
X0021Y00769*
X0021Y00769*
X0021Y00769*
X0021Y00769*
X00976Y00441D02*
D01*
X00976Y00441*
X00976Y00441*
X00976Y00441*
X00975Y00442*
X00975Y00442*
X00975Y00442*
X00975Y00443*
X00975Y00443*
X00975Y00443*
X00975Y00443*
X00975Y00443*
X00974Y00444*
X00974Y00444*
X00974Y00444*
X00974Y00444*
X00973Y00444*
X00973Y00444*
X00973Y00444*
X00973Y00445*
X00972Y00445*
X00972Y00445*
X00972Y00445*
X00972*
X00971Y00445*
X00971Y00445*
X00971Y00445*
X0097Y00444*
X0097Y00444*
X0097Y00444*
X0097Y00444*
X0097Y00444*
X00969Y00444*
X00969Y00444*
X00969Y00443*
X00969Y00443*
X00969Y00443*
X00968Y00443*
X00968Y00443*
X00968Y00442*
X00968Y00442*
X00968Y00442*
X00968Y00441*
X00968Y00441*
X00968Y00441*
X00968Y00441*
X00968Y0044*
X00968Y0044*
X00968Y0044*
X00968Y0044*
X00968Y00439*
X00968Y00439*
X00968Y00439*
X00968Y00439*
X00969Y00438*
X00969Y00438*
X00969Y00438*
X00969Y00438*
X00969Y00438*
X0097Y00437*
X0097Y00437*
X0097Y00437*
X0097Y00437*
X0097Y00437*
X00971Y00437*
X00971Y00437*
X00971Y00437*
X00972Y00437*
X00972*
X00972Y00437*
X00972Y00437*
X00973Y00437*
X00973Y00437*
X00973Y00437*
X00973Y00437*
X00974Y00437*
X00974Y00437*
X00974Y00438*
X00974Y00438*
X00975Y00438*
X00975Y00438*
X00975Y00438*
X00975Y00439*
X00975Y00439*
X00975Y00439*
X00975Y00439*
X00975Y0044*
X00976Y0044*
X00976Y0044*
X00976Y0044*
X00976Y00441*
X00816Y00122D02*
D01*
X00816Y00122*
X00816Y00123*
X00816Y00123*
X00815Y00123*
X00815Y00123*
X00815Y00124*
X00815Y00124*
X00815Y00124*
X00815Y00124*
X00815Y00125*
X00815Y00125*
X00814Y00125*
X00814Y00125*
X00814Y00125*
X00814Y00126*
X00813Y00126*
X00813Y00126*
X00813Y00126*
X00813Y00126*
X00812Y00126*
X00812Y00126*
X00812Y00126*
X00812*
X00811Y00126*
X00811Y00126*
X00811Y00126*
X0081Y00126*
X0081Y00126*
X0081Y00126*
X0081Y00126*
X0081Y00125*
X00809Y00125*
X00809Y00125*
X00809Y00125*
X00809Y00125*
X00809Y00124*
X00808Y00124*
X00808Y00124*
X00808Y00124*
X00808Y00123*
X00808Y00123*
X00808Y00123*
X00808Y00123*
X00808Y00122*
X00808Y00122*
X00808Y00122*
X00808Y00122*
X00808Y00121*
X00808Y00121*
X00808Y00121*
X00808Y0012*
X00808Y0012*
X00808Y0012*
X00809Y0012*
X00809Y0012*
X00809Y00119*
X00809Y00119*
X00809Y00119*
X0081Y00119*
X0081Y00119*
X0081Y00119*
X0081Y00118*
X0081Y00118*
X00811Y00118*
X00811Y00118*
X00811Y00118*
X00812Y00118*
X00812*
X00812Y00118*
X00812Y00118*
X00813Y00118*
X00813Y00118*
X00813Y00118*
X00813Y00119*
X00814Y00119*
X00814Y00119*
X00814Y00119*
X00814Y00119*
X00815Y00119*
X00815Y0012*
X00815Y0012*
X00815Y0012*
X00815Y0012*
X00815Y0012*
X00815Y00121*
X00815Y00121*
X00816Y00121*
X00816Y00122*
X00816Y00122*
X00816Y00122*
X00759Y0085D02*
D01*
X00759Y0085*
X00759Y0085*
X00759Y00851*
X00759Y00851*
X00759Y00851*
X00759Y00851*
X00759Y00852*
X00759Y00852*
X00759Y00852*
X00758Y00852*
X00758Y00853*
X00758Y00853*
X00758Y00853*
X00758Y00853*
X00757Y00853*
X00757Y00853*
X00757Y00853*
X00757Y00854*
X00756Y00854*
X00756Y00854*
X00756Y00854*
X00756Y00854*
X00755*
X00755Y00854*
X00755Y00854*
X00755Y00854*
X00754Y00854*
X00754Y00853*
X00754Y00853*
X00753Y00853*
X00753Y00853*
X00753Y00853*
X00753Y00853*
X00753Y00853*
X00752Y00852*
X00752Y00852*
X00752Y00852*
X00752Y00852*
X00752Y00851*
X00752Y00851*
X00752Y00851*
X00752Y00851*
X00752Y0085*
X00752Y0085*
X00752Y0085*
X00752Y0085*
X00752Y00849*
X00752Y00849*
X00752Y00849*
X00752Y00848*
X00752Y00848*
X00752Y00848*
X00752Y00848*
X00752Y00847*
X00752Y00847*
X00753Y00847*
X00753Y00847*
X00753Y00847*
X00753Y00847*
X00753Y00846*
X00754Y00846*
X00754Y00846*
X00754Y00846*
X00755Y00846*
X00755Y00846*
X00755Y00846*
X00755Y00846*
X00756*
X00756Y00846*
X00756Y00846*
X00756Y00846*
X00757Y00846*
X00757Y00846*
X00757Y00846*
X00757Y00846*
X00758Y00847*
X00758Y00847*
X00758Y00847*
X00758Y00847*
X00758Y00847*
X00759Y00847*
X00759Y00848*
X00759Y00848*
X00759Y00848*
X00759Y00848*
X00759Y00849*
X00759Y00849*
X00759Y00849*
X00759Y0085*
X00759Y0085*
X00127Y00351D02*
Y00863D01*
X00022Y00351D02*
X00127D01*
X00022D02*
Y00863D01*
X00127*
X01093Y00765D02*
X01141D01*
X01093Y00414D02*
X01141D01*
X01248Y00765D02*
X01307D01*
Y00414D02*
Y00765D01*
X01248Y00414D02*
X01307D01*
G54D12*
X00079Y00333D02*
D01*
X00079Y00334*
X00079Y00334*
X00079Y00334*
X00079Y00335*
X00079Y00335*
X00079Y00335*
X00079Y00336*
X00079Y00336*
X00078Y00336*
X00078Y00337*
X00078Y00337*
X00078Y00337*
X00078Y00337*
X00077Y00337*
X00077Y00338*
X00077Y00338*
X00076Y00338*
X00076Y00338*
X00076Y00338*
X00075Y00338*
X00075Y00338*
X00075Y00338*
X00074*
X00074Y00338*
X00074Y00338*
X00073Y00338*
X00073Y00338*
X00073Y00338*
X00072Y00338*
X00072Y00338*
X00072Y00337*
X00071Y00337*
X00071Y00337*
X00071Y00337*
X00071Y00337*
X00071Y00336*
X0007Y00336*
X0007Y00336*
X0007Y00335*
X0007Y00335*
X0007Y00335*
X0007Y00334*
X0007Y00334*
X0007Y00334*
X0007Y00333*
X0007Y00333*
X0007Y00333*
X0007Y00332*
X0007Y00332*
X0007Y00332*
X0007Y00331*
X0007Y00331*
X0007Y00331*
X00071Y0033*
X00071Y0033*
X00071Y0033*
X00071Y0033*
X00071Y00329*
X00072Y00329*
X00072Y00329*
X00072Y00329*
X00073Y00329*
X00073Y00329*
X00073Y00329*
X00074Y00329*
X00074Y00328*
X00074Y00328*
X00075*
X00075Y00328*
X00075Y00329*
X00076Y00329*
X00076Y00329*
X00076Y00329*
X00077Y00329*
X00077Y00329*
X00077Y00329*
X00078Y00329*
X00078Y0033*
X00078Y0033*
X00078Y0033*
X00078Y0033*
X00079Y00331*
X00079Y00331*
X00079Y00331*
X00079Y00332*
X00079Y00332*
X00079Y00332*
X00079Y00333*
X00079Y00333*
X00079Y00333*
G54D13*
X00757Y00442D02*
D01*
X00756Y00442*
X00756Y00442*
X00756Y00442*
X00756Y00443*
X00756Y00443*
X00756Y00443*
X00756Y00443*
X00756Y00443*
X00756Y00443*
X00756Y00443*
X00756Y00443*
X00756Y00444*
X00756Y00444*
X00756Y00444*
X00756Y00444*
X00755Y00444*
X00755Y00444*
X00755Y00444*
X00755Y00444*
X00755Y00444*
X00755Y00444*
X00755Y00444*
X00754*
X00754Y00444*
X00754Y00444*
X00754Y00444*
X00754Y00444*
X00754Y00444*
X00754Y00444*
X00754Y00444*
X00753Y00444*
X00753Y00444*
X00753Y00444*
X00753Y00443*
X00753Y00443*
X00753Y00443*
X00753Y00443*
X00753Y00443*
X00753Y00443*
X00753Y00443*
X00753Y00443*
X00753Y00442*
X00753Y00442*
X00753Y00442*
X00753Y00442*
X00753Y00442*
X00753Y00442*
X00753Y00442*
X00753Y00441*
X00753Y00441*
X00753Y00441*
X00753Y00441*
X00753Y00441*
X00753Y00441*
X00753Y00441*
X00753Y00441*
X00753Y00441*
X00753Y0044*
X00753Y0044*
X00754Y0044*
X00754Y0044*
X00754Y0044*
X00754Y0044*
X00754Y0044*
X00754Y0044*
X00754Y0044*
X00754Y0044*
X00755*
X00755Y0044*
X00755Y0044*
X00755Y0044*
X00755Y0044*
X00755Y0044*
X00755Y0044*
X00756Y0044*
X00756Y0044*
X00756Y0044*
X00756Y00441*
X00756Y00441*
X00756Y00441*
X00756Y00441*
X00756Y00441*
X00756Y00441*
X00756Y00441*
X00756Y00441*
X00756Y00441*
X00756Y00442*
X00756Y00442*
X00756Y00442*
X00757Y00442*
X01097Y00195D02*
D01*
X01096Y00195*
X01096Y00195*
X01096Y00195*
X01096Y00195*
X01096Y00195*
X01096Y00195*
X01096Y00195*
X01096Y00196*
X01096Y00196*
X01096Y00196*
X01096Y00196*
X01096Y00196*
X01096Y00196*
X01096Y00196*
X01096Y00196*
X01095Y00196*
X01095Y00196*
X01095Y00196*
X01095Y00196*
X01095Y00196*
X01095Y00196*
X01095Y00196*
X01094*
X01094Y00196*
X01094Y00196*
X01094Y00196*
X01094Y00196*
X01094Y00196*
X01094Y00196*
X01094Y00196*
X01093Y00196*
X01093Y00196*
X01093Y00196*
X01093Y00196*
X01093Y00196*
X01093Y00196*
X01093Y00196*
X01093Y00195*
X01093Y00195*
X01093Y00195*
X01093Y00195*
X01093Y00195*
X01093Y00195*
X01093Y00195*
X01093Y00195*
X01093Y00194*
X01093Y00194*
X01093Y00194*
X01093Y00194*
X01093Y00194*
X01093Y00194*
X01093Y00194*
X01093Y00193*
X01093Y00193*
X01093Y00193*
X01093Y00193*
X01093Y00193*
X01093Y00193*
X01093Y00193*
X01094Y00193*
X01094Y00193*
X01094Y00193*
X01094Y00193*
X01094Y00193*
X01094Y00193*
X01094Y00193*
X01094Y00193*
X01095*
X01095Y00193*
X01095Y00193*
X01095Y00193*
X01095Y00193*
X01095Y00193*
X01095Y00193*
X01096Y00193*
X01096Y00193*
X01096Y00193*
X01096Y00193*
X01096Y00193*
X01096Y00193*
X01096Y00193*
X01096Y00193*
X01096Y00194*
X01096Y00194*
X01096Y00194*
X01096Y00194*
X01096Y00194*
X01096Y00194*
X01096Y00194*
X01097Y00195*
X00403Y00525D02*
Y00564D01*
X00366Y00525D02*
Y00564D01*
X00294Y00666D02*
Y00687D01*
X00195Y00666D02*
Y00687D01*
X00945Y00026D02*
X00984D01*
X00945Y00063D02*
X00984D01*
X00605Y00448D02*
X00644D01*
X00605Y00411D02*
X00644D01*
X00415Y00731D02*
X00454D01*
X00415Y00768D02*
X00454D01*
X01151Y00033D02*
Y00072D01*
X01188Y00033D02*
Y00072D01*
X00785Y00436D02*
X00804D01*
X00785Y00358D02*
X00804D01*
X01125Y0011D02*
X01144D01*
X01125Y00189D02*
X01144D01*
X00906Y00825D02*
Y00864D01*
X00943Y00825D02*
Y00864D01*
X00491Y00835D02*
Y00874D01*
X00528Y00835D02*
Y00874D01*
X00513Y00275D02*
Y00314D01*
X00476Y00275D02*
Y00314D01*
X00745Y00073D02*
X00784D01*
X00745Y00036D02*
X00784D01*
X01088Y00995D02*
Y01034D01*
X01051Y00995D02*
Y01034D01*
X01206Y00033D02*
Y00072D01*
X01243Y00033D02*
Y00072D01*
X0009Y00966D02*
X00129D01*
X0009Y01003D02*
X00129D01*
X00161Y00135D02*
Y00174D01*
X00198Y00135D02*
Y00174D01*
X00253Y00135D02*
Y00174D01*
X00216Y00135D02*
Y00174D01*
X00785Y00911D02*
X00824D01*
X00785Y00948D02*
X00824D01*
X00915Y00376D02*
X00954D01*
X00915Y00413D02*
X00954D01*
X01261Y00033D02*
Y00072D01*
X01298Y00033D02*
Y00072D01*
X0009Y00911D02*
X00129D01*
X0009Y00948D02*
X00129D01*
X01006Y00191D02*
X01046D01*
X01006Y00228D02*
X01046D01*
X00656Y00265D02*
Y00304D01*
X00693Y00265D02*
Y00304D01*
X00748Y00265D02*
Y00304D01*
X00711Y00265D02*
Y00304D01*
X00403Y00275D02*
Y00314D01*
X00366Y00275D02*
Y00314D01*
X00748Y00098D02*
Y00102D01*
X00681Y00098D02*
Y00102D01*
Y00217D02*
Y00221D01*
X00748Y00217D02*
Y00221D01*
X00681D02*
X00748D01*
X00681Y00098D02*
X00748D01*
X00885Y0078D02*
Y00859D01*
X00777Y0078D02*
Y00859D01*
X00924Y01002D02*
Y0103D01*
Y01089D02*
Y01117D01*
X00955*
X00924Y01002D02*
X00955D01*
X00546Y00835D02*
Y00874D01*
X00583Y00835D02*
Y00874D01*
X00601Y00835D02*
Y00874D01*
X00638Y00835D02*
Y00874D01*
X00458Y00275D02*
Y00314D01*
X00421Y00275D02*
Y00314D01*
X0087Y00461D02*
X00909D01*
X0087Y00498D02*
X00909D01*
X0087Y00718D02*
X00909D01*
X0087Y00681D02*
X00909D01*
X00225Y00828D02*
X00264D01*
X00225Y00791D02*
X00264D01*
X0022Y00541D02*
X00259D01*
X0022Y00578D02*
X00259D01*
G54D14*
X00862Y00226D02*
D01*
X00862Y00227*
X00862Y00227*
X00861Y00227*
X00861Y00228*
X00861Y00228*
X00861Y00228*
X00861Y00229*
X00861Y00229*
X00861Y00229*
X0086Y00229*
X0086Y0023*
X0086Y0023*
X0086Y0023*
X00859Y0023*
X00859Y0023*
X00859Y00231*
X00858Y00231*
X00858Y00231*
X00858Y00231*
X00857Y00231*
X00857Y00231*
X00857Y00231*
X00856*
X00856Y00231*
X00856Y00231*
X00855Y00231*
X00855Y00231*
X00855Y00231*
X00854Y00231*
X00854Y0023*
X00854Y0023*
X00854Y0023*
X00853Y0023*
X00853Y0023*
X00853Y00229*
X00853Y00229*
X00852Y00229*
X00852Y00229*
X00852Y00228*
X00852Y00228*
X00852Y00228*
X00852Y00227*
X00852Y00227*
X00852Y00227*
X00852Y00226*
X00852Y00226*
X00852Y00225*
X00852Y00225*
X00852Y00225*
X00852Y00224*
X00852Y00224*
X00852Y00224*
X00852Y00224*
X00853Y00223*
X00853Y00223*
X00853Y00223*
X00853Y00222*
X00854Y00222*
X00854Y00222*
X00854Y00222*
X00854Y00222*
X00855Y00222*
X00855Y00221*
X00855Y00221*
X00856Y00221*
X00856Y00221*
X00856Y00221*
X00857*
X00857Y00221*
X00857Y00221*
X00858Y00221*
X00858Y00221*
X00858Y00222*
X00859Y00222*
X00859Y00222*
X00859Y00222*
X0086Y00222*
X0086Y00222*
X0086Y00223*
X0086Y00223*
X00861Y00223*
X00861Y00224*
X00861Y00224*
X00861Y00224*
X00861Y00224*
X00861Y00225*
X00861Y00225*
X00862Y00225*
X00862Y00226*
X00862Y00226*
X0128Y00271D02*
D01*
X0128Y00272*
X0128Y00272*
X0128Y00272*
X0128Y00273*
X0128Y00273*
X0128Y00273*
X0128Y00274*
X01279Y00274*
X01279Y00274*
X01279Y00275*
X01279Y00275*
X01279Y00275*
X01278Y00275*
X01278Y00276*
X01278Y00276*
X01277Y00276*
X01277Y00276*
X01277Y00276*
X01276Y00276*
X01276Y00276*
X01276Y00276*
X01275Y00276*
X01275*
X01275Y00276*
X01274Y00276*
X01274Y00276*
X01274Y00276*
X01273Y00276*
X01273Y00276*
X01273Y00276*
X01272Y00276*
X01272Y00275*
X01272Y00275*
X01272Y00275*
X01271Y00275*
X01271Y00274*
X01271Y00274*
X01271Y00274*
X01271Y00273*
X01271Y00273*
X0127Y00273*
X0127Y00272*
X0127Y00272*
X0127Y00272*
X0127Y00271*
X0127Y00271*
X0127Y00271*
X0127Y0027*
X0127Y0027*
X01271Y0027*
X01271Y00269*
X01271Y00269*
X01271Y00269*
X01271Y00268*
X01271Y00268*
X01272Y00268*
X01272Y00268*
X01272Y00267*
X01272Y00267*
X01273Y00267*
X01273Y00267*
X01273Y00267*
X01274Y00267*
X01274Y00267*
X01274Y00267*
X01275Y00266*
X01275Y00266*
X01275*
X01276Y00266*
X01276Y00267*
X01276Y00267*
X01277Y00267*
X01277Y00267*
X01277Y00267*
X01278Y00267*
X01278Y00267*
X01278Y00267*
X01279Y00268*
X01279Y00268*
X01279Y00268*
X01279Y00268*
X01279Y00269*
X0128Y00269*
X0128Y00269*
X0128Y0027*
X0128Y0027*
X0128Y0027*
X0128Y00271*
X0128Y00271*
X0128Y00271*
X01024Y00989D02*
D01*
X01024Y00989*
X01024Y00989*
X01024Y00989*
X01024Y0099*
X01024Y0099*
X01024Y0099*
X01024Y0099*
X01024Y00991*
X01024Y00991*
X01023Y00991*
X01023Y00991*
X01023Y00992*
X01023Y00992*
X01023Y00992*
X01022Y00992*
X01022Y00992*
X01022Y00992*
X01022Y00992*
X01021Y00992*
X01021Y00993*
X01021Y00993*
X01021Y00993*
X0102*
X0102Y00993*
X0102Y00993*
X01019Y00992*
X01019Y00992*
X01019Y00992*
X01019Y00992*
X01018Y00992*
X01018Y00992*
X01018Y00992*
X01018Y00992*
X01018Y00991*
X01017Y00991*
X01017Y00991*
X01017Y00991*
X01017Y0099*
X01017Y0099*
X01017Y0099*
X01017Y0099*
X01017Y00989*
X01017Y00989*
X01016Y00989*
X01016Y00989*
X01016Y00988*
X01017Y00988*
X01017Y00988*
X01017Y00988*
X01017Y00987*
X01017Y00987*
X01017Y00987*
X01017Y00987*
X01017Y00986*
X01017Y00986*
X01018Y00986*
X01018Y00986*
X01018Y00986*
X01018Y00985*
X01018Y00985*
X01019Y00985*
X01019Y00985*
X01019Y00985*
X01019Y00985*
X0102Y00985*
X0102Y00985*
X0102Y00985*
X01021*
X01021Y00985*
X01021Y00985*
X01021Y00985*
X01022Y00985*
X01022Y00985*
X01022Y00985*
X01022Y00985*
X01023Y00985*
X01023Y00986*
X01023Y00986*
X01023Y00986*
X01023Y00986*
X01024Y00986*
X01024Y00987*
X01024Y00987*
X01024Y00987*
X01024Y00987*
X01024Y00988*
X01024Y00988*
X01024Y00988*
X01024Y00988*
X01024Y00989*
G54D15*
X00322Y00222D02*
X00359D01*
X00568Y001D02*
Y00222D01*
X00373Y00017D02*
X00516D01*
X00322Y001D02*
Y00222D01*
X0053D02*
X00568D01*
X00898Y00306D02*
Y00319D01*
X00811Y0025D02*
Y00263D01*
Y00306D02*
Y00319D01*
X00898*
Y0025D02*
Y00263D01*
X00811Y0025D02*
X00898D01*
X00971D02*
Y00263D01*
X01058Y00306D02*
Y00319D01*
Y0025D02*
Y00263D01*
X00971Y0025D02*
X01058D01*
X00971Y00306D02*
Y00319D01*
X01058*
X00424Y00932D02*
X00462D01*
X0067D02*
Y01054D01*
X00475Y01137D02*
X00619D01*
X00424Y00932D02*
Y01054D01*
X00632Y00932D02*
X0067D01*
X00409Y00469D02*
X00443D01*
X0064D02*
Y00503D01*
X00606Y007D02*
X0064D01*
X00409Y00666D02*
Y007D01*
Y00469D02*
Y00503D01*
X00606Y00469D02*
X0064D01*
Y00666D02*
Y007D01*
X00409D02*
X00443D01*
X00845Y00653D02*
X00924D01*
X00845Y00523D02*
X00924D01*
G54D16*
X00269Y01024D02*
Y01135D01*
X00081Y01024D02*
Y01135D01*
Y01024D02*
X00269D01*
X00081Y01135D02*
X00269D01*
X00029Y00086D02*
X0014D01*
X00029Y00274D02*
X0014D01*
X00029Y00086D02*
Y00274D01*
X0014Y00086D02*
Y00274D01*
X0022Y00089D02*
X002D01*
X0021*
Y0004*
X002Y0003*
X0019*
X0018Y0004*
X00239Y00079D02*
X00249Y00089D01*
X00269*
X00279Y00079*
Y00069*
X00269Y0006*
X00259*
X00269*
X00279Y0005*
Y0004*
X00269Y0003*
X00249*
X00239Y0004*
X0023Y00994D02*
X0022Y01004D01*
X002*
X0019Y00994*
Y00984*
X002Y00975*
X0022*
X0023Y00965*
Y00955*
X0022Y00945*
X002*
X0019Y00955*
X00249Y00945D02*
X00269D01*
X00259*
Y01004*
X00249Y00994*
X00745Y01079D02*
X00725D01*
X00735*
Y0103*
X00725Y0102*
X00715*
X00705Y0103*
X00804Y0102D02*
X00764D01*
X00804Y01059*
Y01069*
X00794Y01079*
X00774*
X00764Y01069*
X00673Y00734D02*
Y00701D01*
X0068Y00695*
X00693*
X007Y00701*
Y00734*
X00713Y00695D02*
X00726D01*
X00719*
Y00734*
X00713Y00728*
X0109Y00929D02*
X0107D01*
X0108*
Y0088*
X0107Y0087*
X0106*
X0105Y0088*
X01109Y0087D02*
X01129D01*
X01119*
Y00929*
X01109Y00919*
G54D17*
X00865Y00364D02*
Y00335D01*
X0088*
X00885Y0034*
Y00359*
X0088Y00364*
X00865*
X00909Y00335D02*
Y00364D01*
X00895Y0035*
X00914*
G54D18*
X00785Y00305D02*
Y00313D01*
X00793*
Y00305*
X00785*
X01085Y00265D02*
Y00256D01*
X01076*
Y00265*
X01085*
X00949Y00523D02*
Y00515D01*
X00941*
Y00523*
X00949*
G54D19*
X00385Y0065D02*
Y00658D01*
X00393*
Y0065*
X00385*
M02*