%FSTAX23Y23*%
%MOIN*%
%SFA1B1*%

%IPPOS*%
%AMD43*
4,1,8,-0.006200,-0.012700,0.006200,-0.012700,0.013900,-0.005000,0.013900,0.005000,0.006200,0.012700,-0.006200,0.012700,-0.013900,0.005000,-0.013900,-0.005000,-0.006200,-0.012700,0.0*
1,1,0.015362,-0.006200,-0.005000*
1,1,0.015362,0.006200,-0.005000*
1,1,0.015362,0.006200,0.005000*
1,1,0.015362,-0.006200,0.005000*
%
%AMD45*
4,1,8,-0.012700,0.006200,-0.012700,-0.006200,-0.005000,-0.013900,0.005000,-0.013900,0.012700,-0.006200,0.012700,0.006200,0.005000,0.013900,-0.005000,0.013900,-0.012700,0.006200,0.0*
1,1,0.015362,-0.005000,0.006200*
1,1,0.015362,-0.005000,-0.006200*
1,1,0.015362,0.005000,-0.006200*
1,1,0.015362,0.005000,0.006200*
%
%AMD55*
4,1,8,-0.028600,0.010000,-0.028600,-0.010000,-0.024800,-0.013900,0.024800,-0.013900,0.028600,-0.010000,0.028600,0.010000,0.024800,0.013900,-0.024800,0.013900,-0.028600,0.010000,0.0*
1,1,0.007638,-0.024800,0.010000*
1,1,0.007638,-0.024800,-0.010000*
1,1,0.007638,0.024800,-0.010000*
1,1,0.007638,0.024800,0.010000*
%
%AMD63*
4,1,8,-0.033500,0.015700,-0.033500,-0.015700,-0.015700,-0.033500,0.015700,-0.033500,0.033500,-0.015700,0.033500,0.015700,0.015700,0.033500,-0.015700,0.033500,-0.033500,0.015700,0.0*
1,1,0.035591,-0.015700,0.015700*
1,1,0.035591,-0.015700,-0.015700*
1,1,0.035591,0.015700,-0.015700*
1,1,0.035591,0.015700,0.015700*
%
%ADD21R,0.026000X0.061000*%
%ADD22R,0.032000X0.016000*%
%ADD40R,0.023622X0.011811*%
%ADD41R,0.011811X0.023622*%
%ADD42R,0.038500X0.022000*%
G04~CAMADD=43~8~0.0~0.0~277.2~253.5~76.8~0.0~15~0.0~0.0~0.0~0.0~0~0.0~0.0~0.0~0.0~0~0.0~0.0~0.0~180.0~278.0~254.0*
%ADD43D43*%
%ADD44R,0.047401X0.055275*%
G04~CAMADD=45~8~0.0~0.0~277.2~253.5~76.8~0.0~15~0.0~0.0~0.0~0.0~0~0.0~0.0~0.0~0.0~0~0.0~0.0~0.0~90.0~254.0~278.0*
%ADD45D45*%
%ADD46R,0.064094X0.064094*%
%ADD47R,0.033465X0.019685*%
%ADD48R,0.082834X0.089921*%
%ADD49R,0.049370X0.015905*%
%ADD50R,0.049370X0.027716*%
%ADD51R,0.035590X0.035590*%
%ADD52R,0.035590X0.035590*%
%ADD53R,0.047401X0.060394*%
%ADD54R,0.064094X0.064094*%
G04~CAMADD=55~8~0.0~0.0~277.2~572.4~38.2~0.0~15~0.0~0.0~0.0~0.0~0~0.0~0.0~0.0~0.0~0~0.0~0.0~0.0~90.0~573.0~277.0*
%ADD55D55*%
%ADD56R,0.042283X0.041496*%
%ADD57R,0.042283X0.049370*%
%ADD58R,0.037559X0.049370*%
%ADD59R,0.037559X0.041496*%
%ADD60R,0.059212X0.043464*%
%ADD61R,0.136000X0.136000*%
%ADD62C,0.067086*%
G04~CAMADD=63~8~0.0~0.0~670.9~670.9~178.0~0.0~15~0.0~0.0~0.0~0.0~0~0.0~0.0~0.0~0.0~0~0.0~0.0~0.0~90.0~670.0~670.0*
%ADD63D63*%
%ADD64C,0.029685*%
%ADD65C,0.017874*%
%ADD66C,0.029094*%
%LNcoaster-1*%
%LPD*%
G54D21*
X00504Y00202D03*
X00464D03*
X00425D03*
X00385D03*
X00606Y00952D03*
X00567D03*
X00527D03*
X00488D03*
G54D22*
X00901Y00285D03*
X00809D03*
X00969D03*
X01061D03*
G54D40*
X00432Y00653D03*
Y00634D03*
Y00614D03*
Y00594D03*
Y00575D03*
Y00555D03*
Y00535D03*
Y00516D03*
X00617D03*
Y00535D03*
Y00555D03*
Y00575D03*
Y00594D03*
Y00614D03*
Y00634D03*
Y00653D03*
G54D41*
X00456Y00492D03*
X00475D03*
X00495D03*
X00515D03*
X00534D03*
X00554D03*
X00574D03*
X00593D03*
Y00677D03*
X00574D03*
X00554D03*
X00534D03*
X00515D03*
X00495D03*
X00475D03*
X00456D03*
G54D42*
X00938Y00551D03*
Y00588D03*
Y00625D03*
X0083D03*
Y00588D03*
Y00551D03*
G54D43*
X00385Y00561D03*
Y00528D03*
X0117Y00036D03*
Y0007D03*
X00925Y00828D03*
Y00861D03*
X0051Y00838D03*
Y00871D03*
X00495Y00311D03*
Y00278D03*
X0107Y01031D03*
Y00998D03*
X01225Y00036D03*
Y0007D03*
X0018Y00138D03*
Y00171D03*
X00235D03*
Y00138D03*
X0128Y00036D03*
Y0007D03*
X00675Y00268D03*
Y00301D03*
X0073D03*
Y00268D03*
X00385Y00311D03*
Y00278D03*
X00565Y00838D03*
Y00871D03*
X0062Y00838D03*
Y00871D03*
X0044Y00311D03*
Y00278D03*
G54D44*
X00209Y00722D03*
Y00632D03*
X0028D03*
Y00722D03*
G54D45*
X00981Y00045D03*
X00948D03*
X00608Y0043D03*
X00641D03*
X00451Y0075D03*
X00418D03*
X00748Y00055D03*
X00781D03*
X00126Y00985D03*
X00093D03*
X00821Y0093D03*
X00788D03*
X00951Y00395D03*
X00918D03*
X00126Y0093D03*
X00093D03*
X01043Y0021D03*
X01009D03*
X00906Y0048D03*
X00873D03*
Y007D03*
X00906D03*
X00228Y0081D03*
X00261D03*
X00256Y0056D03*
X00223D03*
G54D46*
X00075Y0108D03*
X00274D03*
G54D47*
X00756Y00371D03*
Y00397D03*
Y00423D03*
X00833D03*
Y00397D03*
Y00371D03*
X01173Y00124D03*
Y0015D03*
Y00175D03*
X01096D03*
Y0015D03*
Y00124D03*
G54D48*
X01195Y00791D03*
Y00388D03*
X0104Y00791D03*
Y00388D03*
G54D49*
X01017Y00599D03*
Y0058D03*
Y00619D03*
Y0056D03*
Y00639D03*
Y0054D03*
Y00658D03*
Y00521D03*
G54D50*
X01017Y00715D03*
Y00684D03*
Y00495D03*
Y00464D03*
G54D51*
X00894Y0021D03*
X00953D03*
G54D52*
X0126Y00234D03*
Y00175D03*
G54D53*
X00984Y00125D03*
X00915D03*
G54D54*
X00085Y0028D03*
Y00081D03*
G54D55*
X00668Y00122D03*
Y00197D03*
X00761D03*
Y0016D03*
Y00122D03*
G54D56*
X00808Y00848D03*
G54D57*
X00808Y00795D03*
G54D58*
X00856Y00795D03*
G54D59*
X00856Y00848D03*
G54D60*
X00906Y0106D03*
X00993Y01097D03*
Y01022D03*
G54D61*
X00525Y00585D03*
G54D62*
X00075Y00807D03*
Y00707D03*
Y00507D03*
Y00607D03*
G54D63*
X00075Y00407D03*
G54D64*
X0106Y00703D03*
Y00476D03*
X01195Y00905D03*
Y003D03*
G54D65*
X00675Y00675D03*
X0073Y00605D03*
X0069Y00515D03*
X00705Y0054D03*
X00873Y0044D03*
X00385Y00465D03*
X00725Y00563D03*
X00545Y00295D03*
X008Y0051D03*
Y007D03*
X0034Y0108D03*
X01085Y01095D03*
X00525Y00585D03*
X0058Y0064D03*
X0047Y0053D03*
X0058D03*
X0047Y0064D03*
X0039Y00745D03*
X00335Y00575D03*
X0032Y00465D03*
X0056Y00375D03*
X00295Y0056D03*
X00165Y0093D03*
X0043Y0079D03*
X0033Y0073D03*
X00145Y00635D03*
X00705Y0033D03*
X0071Y0006D03*
X00845Y0015D03*
X0072Y0024D03*
X0064Y00305D03*
X00605Y00385D03*
X00835Y0046D03*
X0085Y0021D03*
X00355Y00555D03*
X0048Y0079D03*
X00505Y00735D03*
X0086Y00115D03*
X0093Y00975D03*
X0092Y00795D03*
X0106Y0096D03*
X00195Y00495D03*
X0025D03*
X0069Y00625D03*
X00195Y0052D03*
X0025D03*
X0004Y00925D03*
X01085Y00095D03*
X0079Y00245D03*
X0082Y00055D03*
X0122Y0023D03*
X01215Y00104D03*
X01175Y00225D03*
X0111Y0005D03*
X0077Y0057D03*
Y00605D03*
X00825Y007D03*
X00855Y0093D03*
X00925Y0091D03*
X00955Y0071D03*
Y00465D03*
X0033Y0086D03*
G54D66*
X0108Y0058D03*
Y00635D03*
M02*