%FSTAX23Y23*%
%MOIN*%
%SFA1B1*%

%IPPOS*%
%AMD63*
4,1,8,-0.033500,0.015700,-0.033500,-0.015700,-0.015700,-0.033500,0.015700,-0.033500,0.033500,-0.015700,0.033500,0.015700,0.015700,0.033500,-0.015700,0.033500,-0.033500,0.015700,0.0*
1,1,0.035591,-0.015700,0.015700*
1,1,0.035591,-0.015700,-0.015700*
1,1,0.035591,0.015700,-0.015700*
1,1,0.035591,0.015700,0.015700*
%
%ADD62C,0.067086*%
G04~CAMADD=63~8~0.0~0.0~670.9~670.9~178.0~0.0~15~0.0~0.0~0.0~0.0~0~0.0~0.0~0.0~0.0~0~0.0~0.0~0.0~90.0~670.0~670.0*
%ADD63D63*%
%ADD64C,0.029685*%
%ADD65C,0.017874*%
%ADD66C,0.029094*%
%ADD77R,0.024094X0.024094*%
%LNcoaster-1*%
%LPD*%
G54D62*
X00075Y00807D03*
Y00707D03*
Y00507D03*
Y00607D03*
G54D63*
X00075Y00407D03*
G54D64*
X0106Y00703D03*
Y00476D03*
X01195Y00905D03*
Y003D03*
G54D65*
X00675Y00675D03*
X0073Y00605D03*
X0069Y00515D03*
X00705Y0054D03*
X00873Y0044D03*
X00385Y00465D03*
X00725Y00563D03*
X00545Y00295D03*
X008Y0051D03*
Y007D03*
X0034Y0108D03*
X01085Y01095D03*
X00525Y00585D03*
X0058Y0064D03*
X0047Y0053D03*
X0058D03*
X0047Y0064D03*
X0039Y00745D03*
X00335Y00575D03*
X0032Y00465D03*
X0056Y00375D03*
X00295Y0056D03*
X00165Y0093D03*
X0043Y0079D03*
X0033Y0073D03*
X00145Y00635D03*
X00705Y0033D03*
X0071Y0006D03*
X00845Y0015D03*
X0072Y0024D03*
X0064Y00305D03*
X00605Y00385D03*
X00835Y0046D03*
X0085Y0021D03*
X00355Y00555D03*
X0048Y0079D03*
X00505Y00735D03*
X0086Y00115D03*
X0093Y00975D03*
X0092Y00795D03*
X0106Y0096D03*
X00195Y00495D03*
X0025D03*
X0069Y00625D03*
X00195Y0052D03*
X0025D03*
X0004Y00925D03*
X01085Y00095D03*
X0079Y00245D03*
X0082Y00055D03*
X0122Y0023D03*
X01215Y00104D03*
X01175Y00225D03*
X0111Y0005D03*
X0077Y0057D03*
Y00605D03*
X00825Y007D03*
X00855Y0093D03*
X00925Y0091D03*
X00955Y0071D03*
Y00465D03*
X0033Y0086D03*
G54D66*
X0108Y0058D03*
Y00635D03*
G54D77*
X00795Y0047D03*
X00745D03*
M02*