G04*
G04 #@! TF.GenerationSoftware,Altium Limited,Altium Designer,23.1.1 (15)*
G04*
G04 Layer_Color=8388736*
%FSLAX44Y44*%
%MOMM*%
G71*
G04*
G04 #@! TF.SameCoordinates,5873BA87-B4A8-4489-8BBC-5F2359CC4874*
G04*
G04*
G04 #@! TF.FilePolarity,Negative*
G04*
G01*
G75*
%ADD12C,0.1270*%
%ADD21C,0.5080*%
%ADD23C,0.0254*%
%ADD24C,0.1020*%
%ADD25C,0.1016*%
%ADD141C,1.2700*%
%ADD142R,3.1032X2.6032*%
%ADD143R,1.1032X1.4032*%
%ADD144R,1.4032X1.1032*%
G04:AMPARAMS|DCode=145|XSize=0.7032mm|YSize=0.8032mm|CornerRadius=0.1516mm|HoleSize=0mm|Usage=FLASHONLY|Rotation=180.000|XOffset=0mm|YOffset=0mm|HoleType=Round|Shape=RoundedRectangle|*
%AMROUNDEDRECTD145*
21,1,0.7032,0.5000,0,0,180.0*
21,1,0.4000,0.8032,0,0,180.0*
1,1,0.3032,-0.2000,0.2500*
1,1,0.3032,0.2000,0.2500*
1,1,0.3032,0.2000,-0.2500*
1,1,0.3032,-0.2000,-0.2500*
%
%ADD145ROUNDEDRECTD145*%
%ADD146R,0.8032X1.3032*%
G04:AMPARAMS|DCode=147|XSize=0.7032mm|YSize=0.8032mm|CornerRadius=0.1516mm|HoleSize=0mm|Usage=FLASHONLY|Rotation=270.000|XOffset=0mm|YOffset=0mm|HoleType=Round|Shape=RoundedRectangle|*
%AMROUNDEDRECTD147*
21,1,0.7032,0.5000,0,0,270.0*
21,1,0.4000,0.8032,0,0,270.0*
1,1,0.3032,-0.2500,-0.2000*
1,1,0.3032,-0.2500,0.2000*
1,1,0.3032,0.2500,0.2000*
1,1,0.3032,0.2500,-0.2000*
%
%ADD147ROUNDEDRECTD147*%
G04:AMPARAMS|DCode=148|XSize=1.1032mm|YSize=1.0032mm|CornerRadius=0.2016mm|HoleSize=0mm|Usage=FLASHONLY|Rotation=180.000|XOffset=0mm|YOffset=0mm|HoleType=Round|Shape=RoundedRectangle|*
%AMROUNDEDRECTD148*
21,1,1.1032,0.6000,0,0,180.0*
21,1,0.7000,1.0032,0,0,180.0*
1,1,0.4032,-0.3500,0.3000*
1,1,0.4032,0.3500,0.3000*
1,1,0.4032,0.3500,-0.3000*
1,1,0.4032,-0.3500,-0.3000*
%
%ADD148ROUNDEDRECTD148*%
%ADD149R,3.4032X2.5032*%
%ADD150R,2.2032X0.8032*%
%ADD151R,1.4032X1.6032*%
%ADD152C,7.0000*%
%ADD153R,3.4032X1.8032*%
G04:AMPARAMS|DCode=154|XSize=1.4532mm|YSize=1.3532mm|CornerRadius=0.2454mm|HoleSize=0mm|Usage=FLASHONLY|Rotation=90.000|XOffset=0mm|YOffset=0mm|HoleType=Round|Shape=RoundedRectangle|*
%AMROUNDEDRECTD154*
21,1,1.4532,0.8625,0,0,90.0*
21,1,0.9625,1.3532,0,0,90.0*
1,1,0.4907,0.4313,0.4813*
1,1,0.4907,0.4313,-0.4813*
1,1,0.4907,-0.4313,-0.4813*
1,1,0.4907,-0.4313,0.4813*
%
%ADD154ROUNDEDRECTD154*%
%ADD155R,2.4332X1.6232*%
G04:AMPARAMS|DCode=156|XSize=1.1132mm|YSize=1.1332mm|CornerRadius=0.2154mm|HoleSize=0mm|Usage=FLASHONLY|Rotation=90.000|XOffset=0mm|YOffset=0mm|HoleType=Round|Shape=RoundedRectangle|*
%AMROUNDEDRECTD156*
21,1,1.1132,0.7025,0,0,90.0*
21,1,0.6825,1.1332,0,0,90.0*
1,1,0.4307,0.3513,0.3413*
1,1,0.4307,0.3513,-0.3413*
1,1,0.4307,-0.3513,-0.3413*
1,1,0.4307,-0.3513,0.3413*
%
%ADD156ROUNDEDRECTD156*%
%ADD157R,0.5032X0.9532*%
%ADD158R,1.5032X1.1032*%
%ADD159R,1.6032X0.8032*%
%ADD160R,0.7532X1.2532*%
%ADD161R,1.4032X0.8532*%
%ADD162R,2.5032X3.4332*%
%ADD163R,1.1532X0.5532*%
%ADD164R,3.5032X4.7032*%
%ADD165R,3.7084X2.4638*%
%ADD166R,5.2070X2.3114*%
%ADD167R,1.7282X0.8532*%
%ADD168R,0.6532X1.6782*%
G04:AMPARAMS|DCode=169|XSize=1.1532mm|YSize=2.2532mm|CornerRadius=0.3391mm|HoleSize=0mm|Usage=FLASHONLY|Rotation=180.000|XOffset=0mm|YOffset=0mm|HoleType=Round|Shape=RoundedRectangle|*
%AMROUNDEDRECTD169*
21,1,1.1532,1.5750,0,0,180.0*
21,1,0.4750,2.2532,0,0,180.0*
1,1,0.6782,-0.2375,0.7875*
1,1,0.6782,0.2375,0.7875*
1,1,0.6782,0.2375,-0.7875*
1,1,0.6782,-0.2375,-0.7875*
%
%ADD169ROUNDEDRECTD169*%
%ADD170R,1.1532X2.2532*%
G04:AMPARAMS|DCode=171|XSize=0.8432mm|YSize=2.7432mm|CornerRadius=0.2616mm|HoleSize=0mm|Usage=FLASHONLY|Rotation=180.000|XOffset=0mm|YOffset=0mm|HoleType=Round|Shape=RoundedRectangle|*
%AMROUNDEDRECTD171*
21,1,0.8432,2.2200,0,0,180.0*
21,1,0.3200,2.7432,0,0,180.0*
1,1,0.5232,-0.1600,1.1100*
1,1,0.5232,0.1600,1.1100*
1,1,0.5232,0.1600,-1.1100*
1,1,0.5232,-0.1600,-1.1100*
%
%ADD171ROUNDEDRECTD171*%
%ADD172R,0.8432X2.7432*%
G04:AMPARAMS|DCode=173|XSize=0.9432mm|YSize=0.4232mm|CornerRadius=0.1291mm|HoleSize=0mm|Usage=FLASHONLY|Rotation=90.000|XOffset=0mm|YOffset=0mm|HoleType=Round|Shape=RoundedRectangle|*
%AMROUNDEDRECTD173*
21,1,0.9432,0.1650,0,0,90.0*
21,1,0.6850,0.4232,0,0,90.0*
1,1,0.2582,0.0825,0.3425*
1,1,0.2582,0.0825,-0.3425*
1,1,0.2582,-0.0825,-0.3425*
1,1,0.2582,-0.0825,0.3425*
%
%ADD173ROUNDEDRECTD173*%
G04:AMPARAMS|DCode=174|XSize=1.5732mm|YSize=0.7932mm|CornerRadius=0.2491mm|HoleSize=0mm|Usage=FLASHONLY|Rotation=0.000|XOffset=0mm|YOffset=0mm|HoleType=Round|Shape=RoundedRectangle|*
%AMROUNDEDRECTD174*
21,1,1.5732,0.2950,0,0,0.0*
21,1,1.0750,0.7932,0,0,0.0*
1,1,0.4982,0.5375,-0.1475*
1,1,0.4982,-0.5375,-0.1475*
1,1,0.4982,-0.5375,0.1475*
1,1,0.4982,0.5375,0.1475*
%
%ADD174ROUNDEDRECTD174*%
G04:AMPARAMS|DCode=175|XSize=2.1732mm|YSize=0.8032mm|CornerRadius=0.1766mm|HoleSize=0mm|Usage=FLASHONLY|Rotation=180.000|XOffset=0mm|YOffset=0mm|HoleType=Round|Shape=RoundedRectangle|*
%AMROUNDEDRECTD175*
21,1,2.1732,0.4500,0,0,180.0*
21,1,1.8200,0.8032,0,0,180.0*
1,1,0.3532,-0.9100,0.2250*
1,1,0.3532,0.9100,0.2250*
1,1,0.3532,0.9100,-0.2250*
1,1,0.3532,-0.9100,-0.2250*
%
%ADD175ROUNDEDRECTD175*%
%ADD176R,2.3532X3.7032*%
%ADD177R,4.2282X4.2282*%
G04:AMPARAMS|DCode=178|XSize=1.0632mm|YSize=0.4632mm|CornerRadius=0.1718mm|HoleSize=0mm|Usage=FLASHONLY|Rotation=90.000|XOffset=0mm|YOffset=0mm|HoleType=Round|Shape=RoundedRectangle|*
%AMROUNDEDRECTD178*
21,1,1.0632,0.1196,0,0,90.0*
21,1,0.7196,0.4632,0,0,90.0*
1,1,0.3436,0.0598,0.3598*
1,1,0.3436,0.0598,-0.3598*
1,1,0.3436,-0.0598,-0.3598*
1,1,0.3436,-0.0598,0.3598*
%
%ADD178ROUNDEDRECTD178*%
G04:AMPARAMS|DCode=179|XSize=1.0632mm|YSize=0.4632mm|CornerRadius=0.1718mm|HoleSize=0mm|Usage=FLASHONLY|Rotation=0.000|XOffset=0mm|YOffset=0mm|HoleType=Round|Shape=RoundedRectangle|*
%AMROUNDEDRECTD179*
21,1,1.0632,0.1196,0,0,0.0*
21,1,0.7196,0.4632,0,0,0.0*
1,1,0.3436,0.3598,-0.0598*
1,1,0.3436,-0.3598,-0.0598*
1,1,0.3436,-0.3598,0.0598*
1,1,0.3436,0.3598,0.0598*
%
%ADD179ROUNDEDRECTD179*%
G04:AMPARAMS|DCode=180|XSize=2.1832mm|YSize=0.7932mm|CornerRadius=0.1754mm|HoleSize=0mm|Usage=FLASHONLY|Rotation=180.000|XOffset=0mm|YOffset=0mm|HoleType=Round|Shape=RoundedRectangle|*
%AMROUNDEDRECTD180*
21,1,2.1832,0.4425,0,0,180.0*
21,1,1.8325,0.7932,0,0,180.0*
1,1,0.3507,-0.9163,0.2213*
1,1,0.3507,0.9163,0.2213*
1,1,0.3507,0.9163,-0.2213*
1,1,0.3507,-0.9163,-0.2213*
%
%ADD180ROUNDEDRECTD180*%
%ADD181R,0.7032X0.8032*%
G04:AMPARAMS|DCode=182|XSize=2.2532mm|YSize=0.7932mm|CornerRadius=0.1754mm|HoleSize=0mm|Usage=FLASHONLY|Rotation=0.000|XOffset=0mm|YOffset=0mm|HoleType=Round|Shape=RoundedRectangle|*
%AMROUNDEDRECTD182*
21,1,2.2532,0.4425,0,0,0.0*
21,1,1.9025,0.7932,0,0,0.0*
1,1,0.3507,0.9513,-0.2213*
1,1,0.3507,-0.9513,-0.2213*
1,1,0.3507,-0.9513,0.2213*
1,1,0.3507,0.9513,0.2213*
%
%ADD182ROUNDEDRECTD182*%
%ADD183R,2.9232X1.3632*%
%ADD184R,2.2032X4.2032*%
%ADD185R,2.3032X3.2032*%
%ADD186R,1.2032X2.2032*%
%ADD187R,3.1524X2.2524*%
%ADD188R,1.7524X0.9524*%
G04:AMPARAMS|DCode=189|XSize=1.1032mm|YSize=1.0032mm|CornerRadius=0.2016mm|HoleSize=0mm|Usage=FLASHONLY|Rotation=90.000|XOffset=0mm|YOffset=0mm|HoleType=Round|Shape=RoundedRectangle|*
%AMROUNDEDRECTD189*
21,1,1.1032,0.6000,0,0,90.0*
21,1,0.7000,1.0032,0,0,90.0*
1,1,0.4032,0.3000,0.3500*
1,1,0.4032,0.3000,-0.3500*
1,1,0.4032,-0.3000,-0.3500*
1,1,0.4032,-0.3000,0.3500*
%
%ADD189ROUNDEDRECTD189*%
%ADD190C,1.4740*%
%ADD191R,1.7532X2.3032*%
%ADD192R,1.1632X1.3232*%
G04:AMPARAMS|DCode=193|XSize=1.4532mm|YSize=1.3532mm|CornerRadius=0.2454mm|HoleSize=0mm|Usage=FLASHONLY|Rotation=0.000|XOffset=0mm|YOffset=0mm|HoleType=Round|Shape=RoundedRectangle|*
%AMROUNDEDRECTD193*
21,1,1.4532,0.8625,0,0,0.0*
21,1,0.9625,1.3532,0,0,0.0*
1,1,0.4907,0.4813,-0.4313*
1,1,0.4907,-0.4813,-0.4313*
1,1,0.4907,-0.4813,0.4313*
1,1,0.4907,0.4813,0.4313*
%
%ADD193ROUNDEDRECTD193*%
G04:AMPARAMS|DCode=194|XSize=1.4132mm|YSize=0.7832mm|CornerRadius=0.1741mm|HoleSize=0mm|Usage=FLASHONLY|Rotation=270.000|XOffset=0mm|YOffset=0mm|HoleType=Round|Shape=RoundedRectangle|*
%AMROUNDEDRECTD194*
21,1,1.4132,0.4350,0,0,270.0*
21,1,1.0650,0.7832,0,0,270.0*
1,1,0.3482,-0.2175,-0.5325*
1,1,0.3482,-0.2175,0.5325*
1,1,0.3482,0.2175,0.5325*
1,1,0.3482,0.2175,-0.5325*
%
%ADD194ROUNDEDRECTD194*%
%ADD195R,0.7366X1.9050*%
%ADD196R,0.9832X0.6732*%
%ADD197R,0.8532X2.1532*%
%ADD198R,1.0432X1.0432*%
%ADD199R,0.6032X1.2032*%
%ADD200R,0.7032X1.3282*%
%ADD201R,0.9032X0.8032*%
%ADD202R,0.9032X1.2032*%
%ADD203R,3.5632X5.0632*%
%ADD204R,1.5932X1.6032*%
%ADD205R,0.5032X1.0532*%
%ADD206R,1.0532X0.5032*%
%ADD207R,1.4532X1.4532*%
%ADD208R,1.3532X1.6732*%
%ADD209R,3.2032X1.6532*%
G04:AMPARAMS|DCode=210|XSize=1.1432mm|YSize=1.9732mm|CornerRadius=0.1674mm|HoleSize=0mm|Usage=FLASHONLY|Rotation=0.000|XOffset=0mm|YOffset=0mm|HoleType=Round|Shape=RoundedRectangle|*
%AMROUNDEDRECTD210*
21,1,1.1432,1.6384,0,0,0.0*
21,1,0.8084,1.9732,0,0,0.0*
1,1,0.3348,0.4042,-0.8192*
1,1,0.3348,-0.4042,-0.8192*
1,1,0.3348,-0.4042,0.8192*
1,1,0.3348,0.4042,0.8192*
%
%ADD210ROUNDEDRECTD210*%
G04:AMPARAMS|DCode=211|XSize=1.2932mm|YSize=1.9732mm|CornerRadius=0.1779mm|HoleSize=0mm|Usage=FLASHONLY|Rotation=0.000|XOffset=0mm|YOffset=0mm|HoleType=Round|Shape=RoundedRectangle|*
%AMROUNDEDRECTD211*
21,1,1.2932,1.6174,0,0,0.0*
21,1,0.9374,1.9732,0,0,0.0*
1,1,0.3558,0.4687,-0.8087*
1,1,0.3558,-0.4687,-0.8087*
1,1,0.3558,-0.4687,0.8087*
1,1,0.3558,0.4687,0.8087*
%
%ADD211ROUNDEDRECTD211*%
G04:AMPARAMS|DCode=212|XSize=1.2032mm|YSize=1.6232mm|CornerRadius=0.2266mm|HoleSize=0mm|Usage=FLASHONLY|Rotation=90.000|XOffset=0mm|YOffset=0mm|HoleType=Round|Shape=RoundedRectangle|*
%AMROUNDEDRECTD212*
21,1,1.2032,1.1700,0,0,90.0*
21,1,0.7500,1.6232,0,0,90.0*
1,1,0.4532,0.5850,0.3750*
1,1,0.4532,0.5850,-0.3750*
1,1,0.4532,-0.5850,-0.3750*
1,1,0.4532,-0.5850,0.3750*
%
%ADD212ROUNDEDRECTD212*%
%ADD213R,4.5532X2.3032*%
%ADD214R,1.2032X1.3032*%
%ADD215R,1.4132X2.0232*%
G04:AMPARAMS|DCode=216|XSize=1.4132mm|YSize=0.9332mm|CornerRadius=0.1673mm|HoleSize=0mm|Usage=FLASHONLY|Rotation=180.000|XOffset=0mm|YOffset=0mm|HoleType=Round|Shape=RoundedRectangle|*
%AMROUNDEDRECTD216*
21,1,1.4132,0.5986,0,0,180.0*
21,1,1.0786,0.9332,0,0,180.0*
1,1,0.3346,-0.5393,0.2993*
1,1,0.3346,0.5393,0.2993*
1,1,0.3346,0.5393,-0.2993*
1,1,0.3346,-0.5393,-0.2993*
%
%ADD216ROUNDEDRECTD216*%
%ADD217R,0.8532X2.0532*%
%ADD218R,1.3032X0.8532*%
%ADD219R,0.7032X1.1282*%
%ADD220R,0.8032X1.0032*%
%ADD221R,4.6132X3.8582*%
%ADD222R,5.1032X4.2032*%
%ADD223R,1.4732X3.2532*%
%ADD224R,1.1752X1.0052*%
%ADD225R,0.8532X1.7282*%
%ADD226R,1.8032X5.8032*%
%ADD227R,2.2032X1.0032*%
%ADD228R,2.2032X2.0532*%
G04:AMPARAMS|DCode=229|XSize=1.1432mm|YSize=1.2232mm|CornerRadius=0.1956mm|HoleSize=0mm|Usage=FLASHONLY|Rotation=0.000|XOffset=0mm|YOffset=0mm|HoleType=Round|Shape=RoundedRectangle|*
%AMROUNDEDRECTD229*
21,1,1.1432,0.8320,0,0,0.0*
21,1,0.7520,1.2232,0,0,0.0*
1,1,0.3912,0.3760,-0.4160*
1,1,0.3912,-0.3760,-0.4160*
1,1,0.3912,-0.3760,0.4160*
1,1,0.3912,0.3760,0.4160*
%
%ADD229ROUNDEDRECTD229*%
%ADD230R,2.0832X1.3032*%
%ADD231R,2.9232X1.7332*%
%ADD232R,2.2032X1.2032*%
%ADD233R,3.2032X2.3032*%
%ADD234R,4.4432X4.0132*%
%ADD235R,2.7032X2.5032*%
%ADD236R,0.8032X1.3532*%
%ADD237R,0.7032X0.6032*%
%ADD238R,0.8232X0.6032*%
%ADD239R,0.4032X0.6332*%
%ADD240R,1.2192X1.0160*%
%ADD241R,1.5032X1.6032*%
%ADD242R,1.0032X1.7032*%
%ADD243R,1.6032X2.1032*%
%ADD244R,1.2032X1.2432*%
%ADD245R,1.4032X1.6032*%
%ADD246R,5.8032X1.8032*%
%ADD247R,1.3032X1.2032*%
%ADD248R,0.6032X0.8232*%
%ADD249R,0.6032X0.7032*%
G04:AMPARAMS|DCode=250|XSize=1.1432mm|YSize=1.2232mm|CornerRadius=0.1956mm|HoleSize=0mm|Usage=FLASHONLY|Rotation=90.000|XOffset=0mm|YOffset=0mm|HoleType=Round|Shape=RoundedRectangle|*
%AMROUNDEDRECTD250*
21,1,1.1432,0.8320,0,0,90.0*
21,1,0.7520,1.2232,0,0,90.0*
1,1,0.3912,0.4160,0.3760*
1,1,0.3912,0.4160,-0.3760*
1,1,0.3912,-0.4160,-0.3760*
1,1,0.3912,-0.4160,0.3760*
%
%ADD250ROUNDEDRECTD250*%
G04:AMPARAMS|DCode=251|XSize=1.2032mm|YSize=1.6232mm|CornerRadius=0.2266mm|HoleSize=0mm|Usage=FLASHONLY|Rotation=180.000|XOffset=0mm|YOffset=0mm|HoleType=Round|Shape=RoundedRectangle|*
%AMROUNDEDRECTD251*
21,1,1.2032,1.1700,0,0,180.0*
21,1,0.7500,1.6232,0,0,180.0*
1,1,0.4532,-0.3750,0.5850*
1,1,0.4532,0.3750,0.5850*
1,1,0.4532,0.3750,-0.5850*
1,1,0.4532,-0.3750,-0.5850*
%
%ADD251ROUNDEDRECTD251*%
%ADD252R,1.6732X1.3532*%
%ADD253R,1.7332X2.9232*%
%ADD254R,2.3114X5.2070*%
%ADD255R,1.3632X2.9232*%
G04:AMPARAMS|DCode=256|XSize=2.0532mm|YSize=1.5032mm|CornerRadius=0.2641mm|HoleSize=0mm|Usage=FLASHONLY|Rotation=270.000|XOffset=0mm|YOffset=0mm|HoleType=Round|Shape=RoundedRectangle|*
%AMROUNDEDRECTD256*
21,1,2.0532,0.9750,0,0,270.0*
21,1,1.5250,1.5032,0,0,270.0*
1,1,0.5282,-0.4875,-0.7625*
1,1,0.5282,-0.4875,0.7625*
1,1,0.5282,0.4875,0.7625*
1,1,0.5282,0.4875,-0.7625*
%
%ADD256ROUNDEDRECTD256*%
G04:AMPARAMS|DCode=257|XSize=2.0532mm|YSize=1.5032mm|CornerRadius=0.2641mm|HoleSize=0mm|Usage=FLASHONLY|Rotation=180.000|XOffset=0mm|YOffset=0mm|HoleType=Round|Shape=RoundedRectangle|*
%AMROUNDEDRECTD257*
21,1,2.0532,0.9750,0,0,180.0*
21,1,1.5250,1.5032,0,0,180.0*
1,1,0.5282,-0.7625,0.4875*
1,1,0.5282,0.7625,0.4875*
1,1,0.5282,0.7625,-0.4875*
1,1,0.5282,-0.7625,-0.4875*
%
%ADD257ROUNDEDRECTD257*%
%ADD258R,4.2032X2.2032*%
%ADD259C,0.2286*%
%ADD260C,6.4032*%
%ADD261C,1.3032*%
%ADD262C,1.8032*%
%ADD263C,0.6000*%
%ADD264C,2.5032*%
%ADD265C,1.2192*%
%ADD266C,1.4512*%
%ADD267C,2.2282*%
%ADD268R,1.8232X1.8232*%
%ADD269C,1.8232*%
%ADD270C,2.1532*%
%ADD271C,1.7432*%
%ADD272O,1.6032X3.0032*%
%ADD273O,1.4032X2.6032*%
%ADD274R,1.3032X1.3032*%
%ADD275C,1.6012*%
%ADD276C,3.4532*%
%ADD277R,1.6012X1.6012*%
%ADD278R,1.6112X1.6112*%
%ADD279C,1.6112*%
%ADD280C,3.4032*%
%ADD281C,2.4532*%
%ADD282R,2.4532X2.4532*%
G04:AMPARAMS|DCode=283|XSize=1.7032mm|YSize=1.7032mm|CornerRadius=0.2891mm|HoleSize=0mm|Usage=FLASHONLY|Rotation=90.000|XOffset=0mm|YOffset=0mm|HoleType=Round|Shape=RoundedRectangle|*
%AMROUNDEDRECTD283*
21,1,1.7032,1.1250,0,0,90.0*
21,1,1.1250,1.7032,0,0,90.0*
1,1,0.5782,0.5625,0.5625*
1,1,0.5782,0.5625,-0.5625*
1,1,0.5782,-0.5625,-0.5625*
1,1,0.5782,-0.5625,0.5625*
%
%ADD283ROUNDEDRECTD283*%
%ADD284C,1.7032*%
%ADD285R,2.0032X2.0032*%
%ADD286C,2.0032*%
%ADD287C,3.8032*%
%ADD288O,1.8532X3.5032*%
%ADD289R,1.9282X1.9282*%
%ADD290C,1.9282*%
%ADD291C,4.0132*%
%ADD292R,2.6782X2.6782*%
%ADD293C,2.6782*%
G36*
X1801554Y1127951D02*
X1795458Y1121854D01*
X1789362Y1127951D01*
Y1130490D01*
X1801554D01*
Y1127951D01*
D02*
G37*
G36*
Y1117791D02*
X1789362D01*
Y1127442D01*
X1795458Y1121347D01*
X1801554Y1127442D01*
Y1117791D01*
D02*
G37*
G36*
X1477788Y738274D02*
X1482288D01*
Y712874D01*
X1477788D01*
Y707874D01*
X1473888D01*
Y712874D01*
X1472788D01*
Y707874D01*
X1468888D01*
Y712874D01*
X1464388D01*
Y738274D01*
X1468888D01*
Y743274D01*
X1472788D01*
Y738274D01*
X1473888D01*
Y743274D01*
X1477788D01*
Y738274D01*
D02*
G37*
G36*
X1491038Y733674D02*
X1483638D01*
Y737474D01*
X1491038D01*
Y733674D01*
D02*
G37*
G36*
X1463038D02*
X1455638D01*
Y737474D01*
X1463038D01*
Y733674D01*
D02*
G37*
G36*
X1491038Y728674D02*
X1483638D01*
Y732474D01*
X1491038D01*
Y728674D01*
D02*
G37*
G36*
X1463038D02*
X1455638D01*
Y732474D01*
X1463038D01*
Y728674D01*
D02*
G37*
G36*
X1491038Y723674D02*
X1483638D01*
Y727474D01*
X1491038D01*
Y723674D01*
D02*
G37*
G36*
X1463038D02*
X1455638D01*
Y727474D01*
X1463038D01*
Y723674D01*
D02*
G37*
G36*
X1491038Y718674D02*
X1483638D01*
Y722474D01*
X1491038D01*
Y718674D01*
D02*
G37*
G36*
X1463038D02*
X1455638D01*
Y722474D01*
X1463038D01*
Y718674D01*
D02*
G37*
G36*
X1491038Y713674D02*
X1483638D01*
Y717474D01*
X1491038D01*
Y713674D01*
D02*
G37*
G36*
X1463038D02*
X1455638D01*
Y717474D01*
X1463038D01*
Y713674D01*
D02*
G37*
D12*
X968042Y205674D02*
Y675574D01*
X498041Y675674D02*
X968042D01*
X498041Y205674D02*
Y675574D01*
Y205674D02*
Y205774D01*
Y205674D02*
X968042D01*
D21*
X1377524Y557070D02*
X1385364D01*
X1389888Y561594D01*
Y583438D02*
X1395564Y589114D01*
X1389888Y561594D02*
Y583438D01*
X1395564Y589114D02*
X1406524D01*
D23*
X2286508Y1028956D02*
G03*
X2286508Y1060956I0J16000D01*
G01*
X2236508D02*
G03*
X2236508Y1028956I0J-16000D01*
G01*
X41294Y1060954D02*
G03*
X41294Y1028954I0J-16000D01*
G01*
X91294D02*
G03*
X91294Y1060954I0J16000D01*
G01*
X2286628Y67290D02*
G03*
X2286628Y99290I0J16000D01*
G01*
X2236628D02*
G03*
X2236628Y67290I0J-16000D01*
G01*
X41338Y99271D02*
G03*
X41338Y67271I0J-16000D01*
G01*
X91338D02*
G03*
X91338Y99271I0J16000D01*
G01*
X1288135Y558551D02*
G03*
X1288135Y590551I0J16000D01*
G01*
X1238135D02*
G03*
X1238135Y558551I0J-16000D01*
G01*
X1884172Y798068D02*
G03*
X1858772Y798068I-12700J0D01*
G01*
Y726440D02*
G03*
X1884172Y726440I12700J0D01*
G01*
X1790296Y912445D02*
G03*
X1772322Y894498I-8994J-8967D01*
G01*
X1831250Y835570D02*
G03*
X1849210Y853530I8980J8980D01*
G01*
X1731682Y935138D02*
G03*
X1749642Y953098I8980J8980D01*
G01*
X1690728Y1012013D02*
G03*
X1672754Y994066I-8994J-8967D01*
G01*
X1628140Y1043940D02*
G03*
X1653540Y1043940I12700J0D01*
G01*
Y1115568D02*
G03*
X1628140Y1115568I-12700J0D01*
G01*
X2236508Y1028956D02*
X2286508D01*
X2236508Y1060956D02*
X2286508D01*
X41294Y1060954D02*
X91294D01*
X41294Y1028954D02*
X91294D01*
X2236628Y67290D02*
X2286628D01*
X2236628Y99290D02*
X2286628D01*
X41338Y99271D02*
X91338D01*
X41338Y67271D02*
X91338D01*
X1238135Y558551D02*
X1288135D01*
X1238135Y590551D02*
X1288135D01*
X1858772Y726440D02*
Y798068D01*
X1884172Y726440D02*
Y798068D01*
X1790282Y912458D02*
X1849210Y853530D01*
X1772322Y894498D02*
X1831250Y835570D01*
X1672754Y994066D02*
X1731682Y935138D01*
X1690714Y1012026D02*
X1749642Y953098D01*
X1653540Y1043940D02*
Y1115568D01*
X1628140Y1043940D02*
Y1115568D01*
D24*
X-1Y1226566D02*
X2327910Y1226566D01*
D25*
X2327910Y0D01*
X-1Y1226566D02*
X0Y0D01*
X2327910D01*
D141*
X246634Y647699D02*
Y743205D01*
Y647699D02*
X344423Y549910D01*
X313570Y755261D02*
X313689Y755142D01*
X258690Y755261D02*
X313570D01*
X246634Y743205D02*
X258690Y755261D01*
X344423Y261874D02*
Y549910D01*
Y261874D02*
X374776Y231521D01*
X465835D01*
D142*
X1022858Y121178D02*
D03*
Y60178D02*
D03*
X1499361Y937534D02*
D03*
Y876534D02*
D03*
D143*
X783841Y189959D02*
D03*
X936241D02*
D03*
X910841D02*
D03*
X923541D02*
D03*
X898141D02*
D03*
X872741D02*
D03*
X860041D02*
D03*
X834641D02*
D03*
X809241D02*
D03*
X821941D02*
D03*
X796541D02*
D03*
X771141D02*
D03*
X758441D02*
D03*
X733041D02*
D03*
X707642D02*
D03*
X720341D02*
D03*
X694941D02*
D03*
X669541D02*
D03*
X656841D02*
D03*
X631441D02*
D03*
X606041D02*
D03*
X618741D02*
D03*
X593341D02*
D03*
X567941D02*
D03*
X555241D02*
D03*
X529841D02*
D03*
X517141D02*
D03*
X936241Y691389D02*
D03*
X923541D02*
D03*
X910841D02*
D03*
X898141D02*
D03*
X872741D02*
D03*
X860041D02*
D03*
X834641D02*
D03*
X821941D02*
D03*
X809241D02*
D03*
X796541D02*
D03*
X771141D02*
D03*
X758441D02*
D03*
X733041D02*
D03*
X720341D02*
D03*
X707641D02*
D03*
X694941D02*
D03*
X669541D02*
D03*
X656841D02*
D03*
X631441D02*
D03*
X618741D02*
D03*
X606041D02*
D03*
X593341D02*
D03*
X567941D02*
D03*
X555241D02*
D03*
X529841D02*
D03*
X517141D02*
D03*
X948941Y189959D02*
D03*
X847341D02*
D03*
X885441D02*
D03*
X745741D02*
D03*
X682241D02*
D03*
X580641D02*
D03*
X644141D02*
D03*
X542541D02*
D03*
X948941Y691389D02*
D03*
X885441D02*
D03*
X847341D02*
D03*
X783841D02*
D03*
X745741D02*
D03*
X682241D02*
D03*
X644141D02*
D03*
X580641D02*
D03*
X542541D02*
D03*
D144*
X983756Y224774D02*
D03*
X482326D02*
D03*
X983756Y237474D02*
D03*
X482326D02*
D03*
X983756Y262874D02*
D03*
X482326D02*
D03*
X983756Y275574D02*
D03*
X482326D02*
D03*
X983756Y300974D02*
D03*
X482326D02*
D03*
X983756Y313674D02*
D03*
Y326374D02*
D03*
X482326D02*
D03*
Y313674D02*
D03*
X983756Y339074D02*
D03*
X482326D02*
D03*
X983756Y364474D02*
D03*
X482326D02*
D03*
X983756Y377174D02*
D03*
X482326D02*
D03*
X983756Y402574D02*
D03*
X482326D02*
D03*
X983756Y415274D02*
D03*
Y427974D02*
D03*
X482326D02*
D03*
Y415274D02*
D03*
X983756Y440674D02*
D03*
X482326D02*
D03*
X983756Y466074D02*
D03*
X482326D02*
D03*
X983756Y478774D02*
D03*
X482326D02*
D03*
X983756Y504174D02*
D03*
X482326D02*
D03*
X983756Y516874D02*
D03*
Y529574D02*
D03*
X482326D02*
D03*
Y516874D02*
D03*
X983756Y542274D02*
D03*
X482326D02*
D03*
X983756Y567674D02*
D03*
X482326D02*
D03*
X983756Y580374D02*
D03*
X482326D02*
D03*
X983756Y605774D02*
D03*
X482326D02*
D03*
X983756Y618474D02*
D03*
Y631174D02*
D03*
X482326D02*
D03*
Y618474D02*
D03*
X983756Y643874D02*
D03*
X482326D02*
D03*
X983756Y250174D02*
D03*
X482326D02*
D03*
X983756Y288274D02*
D03*
X482326D02*
D03*
X983756Y351774D02*
D03*
Y389874D02*
D03*
X482326D02*
D03*
Y351774D02*
D03*
X983756Y453374D02*
D03*
Y491474D02*
D03*
X482326D02*
D03*
Y453374D02*
D03*
X983756Y554974D02*
D03*
X482326D02*
D03*
X983756Y593074D02*
D03*
Y656574D02*
D03*
X482326D02*
D03*
Y593074D02*
D03*
D145*
X1235652Y222758D02*
D03*
X1225652D02*
D03*
X1216580D02*
D03*
X1206580D02*
D03*
X1397599Y171675D02*
D03*
X1407599D02*
D03*
X1407587Y159766D02*
D03*
X1397587D02*
D03*
X1407587Y202183D02*
D03*
X1397587D02*
D03*
X455896Y415274D02*
D03*
X465896D02*
D03*
X1402048Y1015746D02*
D03*
X1392048D02*
D03*
X393954Y397764D02*
D03*
X383954D02*
D03*
X109808Y202338D02*
D03*
X119808D02*
D03*
X109808Y189838D02*
D03*
X119808D02*
D03*
X1037256Y192275D02*
D03*
X1027256D02*
D03*
X1037256Y202435D02*
D03*
X1027256D02*
D03*
X1048178Y373634D02*
D03*
X1038178D02*
D03*
X1390592Y1040336D02*
D03*
X1400592D02*
D03*
X1390592Y1051004D02*
D03*
X1400592D02*
D03*
X1421717Y64643D02*
D03*
X1431717D02*
D03*
X1023031Y288274D02*
D03*
X1013031D02*
D03*
X1023031Y300974D02*
D03*
X1013031D02*
D03*
X1023031Y326374D02*
D03*
X1013031D02*
D03*
X976710Y103217D02*
D03*
X986710D02*
D03*
X976710Y93218D02*
D03*
X986710D02*
D03*
X1027256Y181102D02*
D03*
X1037256D02*
D03*
X1531025Y107961D02*
D03*
X1521025D02*
D03*
X1027256Y171196D02*
D03*
X1037256D02*
D03*
X953596Y62738D02*
D03*
X963596D02*
D03*
X1521025Y119499D02*
D03*
X1531025D02*
D03*
X953596Y52808D02*
D03*
X963596D02*
D03*
X455896Y453374D02*
D03*
X465896D02*
D03*
X455896Y440674D02*
D03*
X465896D02*
D03*
X455896Y427974D02*
D03*
X465896D02*
D03*
X1221786Y272161D02*
D03*
X1211786D02*
D03*
X1221786Y261578D02*
D03*
X1211786D02*
D03*
X1221786Y250944D02*
D03*
X1211786D02*
D03*
X1221786Y240411D02*
D03*
X1211786D02*
D03*
X1228898Y121674D02*
D03*
X1218898D02*
D03*
X1228898Y132215D02*
D03*
X1218898D02*
D03*
X455896Y402574D02*
D03*
X465896D02*
D03*
X1013031Y224774D02*
D03*
X1023031D02*
D03*
X1013031Y237474D02*
D03*
X1023031D02*
D03*
X1526327Y200532D02*
D03*
X1516327D02*
D03*
X1516327Y213868D02*
D03*
X1526327D02*
D03*
X1720261Y99822D02*
D03*
X1710261D02*
D03*
X1720261Y108458D02*
D03*
X1710261D02*
D03*
X1720261Y137922D02*
D03*
X1710261D02*
D03*
X1720261Y146558D02*
D03*
X1710261D02*
D03*
X1720261Y364450D02*
D03*
X1710261D02*
D03*
X1720261Y355814D02*
D03*
X1710261D02*
D03*
X1720261Y343334D02*
D03*
X1710261D02*
D03*
X1720261Y334698D02*
D03*
X1710261D02*
D03*
X1376525Y184001D02*
D03*
X1366525D02*
D03*
X1376525Y175365D02*
D03*
X1366525D02*
D03*
X1411557Y1050036D02*
D03*
X1421557D02*
D03*
D146*
X1225652Y208944D02*
D03*
X1206652D02*
D03*
X1216152Y186944D02*
D03*
D147*
X1470651Y272507D02*
D03*
Y262507D02*
D03*
X1459059Y262595D02*
D03*
Y252595D02*
D03*
X1394031Y215218D02*
D03*
Y225218D02*
D03*
X832718Y818816D02*
D03*
Y808816D02*
D03*
X1366803Y1051988D02*
D03*
Y1041988D02*
D03*
X1334903Y973662D02*
D03*
Y983662D02*
D03*
X415798Y442570D02*
D03*
Y452570D02*
D03*
X433578Y428908D02*
D03*
Y418908D02*
D03*
X371094Y432570D02*
D03*
Y442570D02*
D03*
X1341404Y1041988D02*
D03*
Y1051988D02*
D03*
X1328703Y1041988D02*
D03*
Y1051988D02*
D03*
X1315466Y1023526D02*
D03*
Y1033526D02*
D03*
X802118Y808816D02*
D03*
Y818816D02*
D03*
X771518Y808816D02*
D03*
Y818816D02*
D03*
X893918Y1013032D02*
D03*
Y1023032D02*
D03*
X863318Y1013032D02*
D03*
Y1023032D02*
D03*
X832718Y1013032D02*
D03*
Y1023032D02*
D03*
X802118Y1013032D02*
D03*
Y1023032D02*
D03*
X477318Y1007952D02*
D03*
Y1017952D02*
D03*
X679718Y1013032D02*
D03*
Y1023032D02*
D03*
X771518Y1013032D02*
D03*
Y1023032D02*
D03*
X710318Y1013032D02*
D03*
Y1023032D02*
D03*
X740918Y1013032D02*
D03*
Y1023032D02*
D03*
X515418Y1007952D02*
D03*
Y1017952D02*
D03*
X591618Y1007952D02*
D03*
Y1017952D02*
D03*
X553518Y1007952D02*
D03*
Y1017952D02*
D03*
X1190418Y818816D02*
D03*
Y808816D02*
D03*
X1037418Y1013032D02*
D03*
Y1023032D02*
D03*
X1190418Y1013032D02*
D03*
Y1023032D02*
D03*
X1006818Y1013032D02*
D03*
Y1023032D02*
D03*
X976218Y1013032D02*
D03*
Y1023032D02*
D03*
X1159818Y1013032D02*
D03*
Y1023032D02*
D03*
X1129218Y1013032D02*
D03*
Y1023032D02*
D03*
X1098618Y1013032D02*
D03*
Y1023032D02*
D03*
X1068018Y1013032D02*
D03*
Y1023032D02*
D03*
X515418Y822626D02*
D03*
Y812626D02*
D03*
X553518Y822626D02*
D03*
Y812626D02*
D03*
X477318Y822626D02*
D03*
Y812626D02*
D03*
X679718Y818816D02*
D03*
Y808816D02*
D03*
X591618Y822626D02*
D03*
Y812626D02*
D03*
X740918Y818816D02*
D03*
Y808816D02*
D03*
X710318Y818816D02*
D03*
Y808816D02*
D03*
X893918Y818816D02*
D03*
Y808816D02*
D03*
X976218Y818816D02*
D03*
Y808816D02*
D03*
X1098618Y818816D02*
D03*
Y808816D02*
D03*
X1006818Y818816D02*
D03*
Y808816D02*
D03*
X1068018Y818816D02*
D03*
Y808816D02*
D03*
X1037418Y818816D02*
D03*
Y808816D02*
D03*
X863318Y818816D02*
D03*
Y808816D02*
D03*
X1129218Y818816D02*
D03*
Y808816D02*
D03*
X1159818Y818816D02*
D03*
Y808816D02*
D03*
X1434059Y148885D02*
D03*
Y138885D02*
D03*
X758441Y172894D02*
D03*
Y162894D02*
D03*
X447851Y211940D02*
D03*
Y201940D02*
D03*
X1436947Y962411D02*
D03*
Y972411D02*
D03*
X1428281Y962411D02*
D03*
Y972411D02*
D03*
X1489059Y138891D02*
D03*
Y148891D02*
D03*
X1469059D02*
D03*
Y138891D02*
D03*
X1512359Y236526D02*
D03*
Y226526D02*
D03*
X1637918Y123270D02*
D03*
Y133270D02*
D03*
X1066037Y127695D02*
D03*
Y117695D02*
D03*
X1205286Y299445D02*
D03*
Y309445D02*
D03*
X1468921Y905355D02*
D03*
Y895355D02*
D03*
X1460285Y905355D02*
D03*
Y895355D02*
D03*
D148*
X1424177Y250191D02*
D03*
Y266191D02*
D03*
X1320546Y921386D02*
D03*
Y937386D02*
D03*
X408940Y750950D02*
D03*
Y734950D02*
D03*
X234949Y331470D02*
D03*
Y315470D02*
D03*
X248625D02*
D03*
Y331470D02*
D03*
X302006Y734950D02*
D03*
Y750950D02*
D03*
X238251Y970154D02*
D03*
Y986154D02*
D03*
X289711Y1041000D02*
D03*
Y1025000D02*
D03*
X1527047Y93344D02*
D03*
Y77344D02*
D03*
X1722119Y166244D02*
D03*
Y182244D02*
D03*
X1504695Y147203D02*
D03*
Y131203D02*
D03*
X1623688Y117233D02*
D03*
Y133233D02*
D03*
X1386730Y616146D02*
D03*
Y600146D02*
D03*
X1665224Y461644D02*
D03*
Y445644D02*
D03*
X1579372Y659796D02*
D03*
Y675796D02*
D03*
X1639682Y738574D02*
D03*
Y722574D02*
D03*
X1526286Y461644D02*
D03*
Y445644D02*
D03*
X448717Y112034D02*
D03*
Y128034D02*
D03*
X436217Y112034D02*
D03*
Y128034D02*
D03*
X462533Y266572D02*
D03*
Y250572D02*
D03*
X1522014Y178469D02*
D03*
Y162469D02*
D03*
X1520998Y147203D02*
D03*
Y131203D02*
D03*
X1639682Y701304D02*
D03*
Y685304D02*
D03*
Y753574D02*
D03*
Y769574D02*
D03*
X1053509Y129158D02*
D03*
Y113158D02*
D03*
D149*
X1105711Y38444D02*
D03*
Y331444D02*
D03*
D150*
X1099711Y70944D02*
D03*
Y78944D02*
D03*
Y86944D02*
D03*
Y94944D02*
D03*
Y102944D02*
D03*
Y110944D02*
D03*
Y118944D02*
D03*
Y126944D02*
D03*
Y134944D02*
D03*
Y142944D02*
D03*
Y150944D02*
D03*
Y158944D02*
D03*
Y166944D02*
D03*
Y174944D02*
D03*
Y182944D02*
D03*
Y190944D02*
D03*
Y198944D02*
D03*
Y246944D02*
D03*
Y254944D02*
D03*
Y262944D02*
D03*
Y270944D02*
D03*
Y278944D02*
D03*
Y286944D02*
D03*
Y294944D02*
D03*
Y302944D02*
D03*
Y206944D02*
D03*
X1181711Y66944D02*
D03*
Y74944D02*
D03*
Y82944D02*
D03*
Y90944D02*
D03*
Y98944D02*
D03*
Y106944D02*
D03*
Y114944D02*
D03*
Y122944D02*
D03*
Y130944D02*
D03*
Y138944D02*
D03*
Y146944D02*
D03*
Y154944D02*
D03*
Y162944D02*
D03*
Y170944D02*
D03*
Y178944D02*
D03*
Y186944D02*
D03*
Y194944D02*
D03*
Y242944D02*
D03*
Y250944D02*
D03*
Y258944D02*
D03*
Y266944D02*
D03*
Y274944D02*
D03*
Y282944D02*
D03*
Y290944D02*
D03*
Y298944D02*
D03*
Y202944D02*
D03*
D151*
X1362000Y237226D02*
D03*
Y215226D02*
D03*
X1379000D02*
D03*
Y237226D02*
D03*
D152*
X66294Y1146810D02*
D03*
X2151124Y83312D02*
D03*
X178562D02*
D03*
X2260854Y1146810D02*
D03*
D153*
X1588916Y417830D02*
D03*
X1638916D02*
D03*
X1450232D02*
D03*
X1500232D02*
D03*
D154*
X1623721Y149871D02*
D03*
X1643721D02*
D03*
X238345Y767080D02*
D03*
X218345D02*
D03*
X273906Y1059996D02*
D03*
X253906D02*
D03*
X1539400Y651002D02*
D03*
X1559400D02*
D03*
X1529681Y966978D02*
D03*
X1509681D02*
D03*
D155*
X1693926Y442674D02*
D03*
Y487674D02*
D03*
X1555003Y442674D02*
D03*
Y487674D02*
D03*
D156*
X1722119Y218166D02*
D03*
Y202966D02*
D03*
X447801Y174772D02*
D03*
Y189972D02*
D03*
D157*
X1611944Y742574D02*
D03*
X1616944D02*
D03*
X1621944D02*
D03*
X1626944D02*
D03*
Y762574D02*
D03*
X1621944D02*
D03*
X1616944D02*
D03*
X1611944D02*
D03*
D158*
X1619444Y752574D02*
D03*
D159*
X1654182Y794156D02*
D03*
Y803656D02*
D03*
Y813156D02*
D03*
X1677182D02*
D03*
Y803656D02*
D03*
Y794156D02*
D03*
D160*
X1656182Y765574D02*
D03*
X1665682D02*
D03*
X1675182D02*
D03*
Y739574D02*
D03*
X1665682D02*
D03*
X1656182D02*
D03*
D161*
X1595118Y685296D02*
D03*
Y675796D02*
D03*
Y666296D02*
D03*
X1620118D02*
D03*
Y675796D02*
D03*
Y685296D02*
D03*
D162*
X1425524Y593114D02*
D03*
D163*
X1406524Y581114D02*
D03*
Y589114D02*
D03*
Y597114D02*
D03*
Y605114D02*
D03*
X1444524D02*
D03*
Y597114D02*
D03*
Y589114D02*
D03*
Y581114D02*
D03*
D164*
X1711038Y568368D02*
D03*
X1624038D02*
D03*
X1485182D02*
D03*
X1572182D02*
D03*
D165*
X1377524Y500682D02*
D03*
Y557070D02*
D03*
D166*
X1566290Y186436D02*
D03*
Y218440D02*
D03*
D167*
X1540568Y740410D02*
D03*
Y727710D02*
D03*
Y715010D02*
D03*
Y702310D02*
D03*
X1594808D02*
D03*
Y715010D02*
D03*
Y727710D02*
D03*
Y740410D02*
D03*
D168*
X1674432Y657194D02*
D03*
X1667932D02*
D03*
X1661432D02*
D03*
X1654932D02*
D03*
Y715954D02*
D03*
X1661432D02*
D03*
X1667932D02*
D03*
X1674432D02*
D03*
X1710280D02*
D03*
X1703780D02*
D03*
X1697280D02*
D03*
X1690780D02*
D03*
Y657194D02*
D03*
X1697280D02*
D03*
X1703780D02*
D03*
X1710280D02*
D03*
D169*
X477318Y842693D02*
D03*
D170*
X490018D02*
D03*
X502718D02*
D03*
X515418D02*
D03*
X528118D02*
D03*
X540818D02*
D03*
X553518D02*
D03*
X566218D02*
D03*
X578918D02*
D03*
X591618D02*
D03*
X604318D02*
D03*
X617018D02*
D03*
X477318Y991193D02*
D03*
X490018D02*
D03*
X502718D02*
D03*
X515418D02*
D03*
X528118D02*
D03*
X540818D02*
D03*
X553518D02*
D03*
X566218D02*
D03*
X578918D02*
D03*
X591618D02*
D03*
X604318D02*
D03*
X617018D02*
D03*
D171*
X976218Y841693D02*
D03*
X679718D02*
D03*
D172*
X986418D02*
D03*
X996618D02*
D03*
X1006818D02*
D03*
X1017018D02*
D03*
X1027218D02*
D03*
X1037418D02*
D03*
X1047618D02*
D03*
X1057818D02*
D03*
X1068018D02*
D03*
X1078218D02*
D03*
X1088418D02*
D03*
X1098618D02*
D03*
X1108818D02*
D03*
X1119018D02*
D03*
X1129218D02*
D03*
X1139418D02*
D03*
X1149618D02*
D03*
X1159818D02*
D03*
X1170018D02*
D03*
X1180218D02*
D03*
X1190418D02*
D03*
X1200618D02*
D03*
X1210818D02*
D03*
X976218Y992193D02*
D03*
X986418D02*
D03*
X996618D02*
D03*
X1006818D02*
D03*
X1017018D02*
D03*
X1027218D02*
D03*
X1037418D02*
D03*
X1047618D02*
D03*
X1057818D02*
D03*
X1068018D02*
D03*
X1078218D02*
D03*
X1088418D02*
D03*
X1098618D02*
D03*
X1108818D02*
D03*
X1119018D02*
D03*
X1129218D02*
D03*
X1139418D02*
D03*
X1149618D02*
D03*
X1159818D02*
D03*
X1170018D02*
D03*
X1180218D02*
D03*
X1190418D02*
D03*
X1200618D02*
D03*
X1210818D02*
D03*
X914318D02*
D03*
X904118D02*
D03*
X893918D02*
D03*
X883718D02*
D03*
X873518D02*
D03*
X863318D02*
D03*
X853118D02*
D03*
X842918D02*
D03*
X832718D02*
D03*
X822518D02*
D03*
X812318D02*
D03*
X802118D02*
D03*
X791918D02*
D03*
X781718D02*
D03*
X771518D02*
D03*
X761318D02*
D03*
X751118D02*
D03*
X740918D02*
D03*
X730718D02*
D03*
X720518D02*
D03*
X710318D02*
D03*
X700118D02*
D03*
X689918D02*
D03*
X679718D02*
D03*
X914318Y841693D02*
D03*
X904118D02*
D03*
X893918D02*
D03*
X883718D02*
D03*
X873518D02*
D03*
X863318D02*
D03*
X853118D02*
D03*
X842918D02*
D03*
X832718D02*
D03*
X822518D02*
D03*
X812318D02*
D03*
X802118D02*
D03*
X791918D02*
D03*
X781718D02*
D03*
X771518D02*
D03*
X761318D02*
D03*
X751118D02*
D03*
X740918D02*
D03*
X730718D02*
D03*
X720518D02*
D03*
X710318D02*
D03*
X700118D02*
D03*
X689918D02*
D03*
D173*
X1434147Y926822D02*
D03*
X1439147D02*
D03*
X1444147D02*
D03*
X1449147D02*
D03*
X1454147D02*
D03*
X1459147D02*
D03*
X1464147D02*
D03*
Y940222D02*
D03*
X1459147D02*
D03*
X1454147D02*
D03*
X1449147D02*
D03*
X1444147D02*
D03*
X1439147D02*
D03*
X1434147D02*
D03*
D174*
X1624568Y479704D02*
D03*
Y489204D02*
D03*
Y498704D02*
D03*
X1647968D02*
D03*
Y489204D02*
D03*
Y479704D02*
D03*
X1485630D02*
D03*
Y489204D02*
D03*
Y498704D02*
D03*
X1509030D02*
D03*
Y489204D02*
D03*
Y479704D02*
D03*
D175*
X1549231Y106799D02*
D03*
Y119499D02*
D03*
Y132199D02*
D03*
Y144899D02*
D03*
X1598631D02*
D03*
Y132199D02*
D03*
Y119499D02*
D03*
Y106799D02*
D03*
D176*
X1573931Y125849D02*
D03*
D177*
X1461559Y199683D02*
D03*
D178*
X1489059Y165333D02*
D03*
X1484059D02*
D03*
X1479059D02*
D03*
X1474059D02*
D03*
X1469059D02*
D03*
X1464059D02*
D03*
X1459059D02*
D03*
X1454059D02*
D03*
X1449059D02*
D03*
X1444059D02*
D03*
X1439059D02*
D03*
X1434059D02*
D03*
Y234033D02*
D03*
X1439059D02*
D03*
X1444059D02*
D03*
X1449059D02*
D03*
X1454059D02*
D03*
X1459059D02*
D03*
X1464059D02*
D03*
X1469059D02*
D03*
X1474059D02*
D03*
X1479059D02*
D03*
X1484059D02*
D03*
X1489059D02*
D03*
D179*
X1427209Y172183D02*
D03*
Y177183D02*
D03*
Y182183D02*
D03*
Y187183D02*
D03*
Y192183D02*
D03*
Y197183D02*
D03*
Y202183D02*
D03*
Y207183D02*
D03*
Y212183D02*
D03*
Y217183D02*
D03*
Y222183D02*
D03*
Y227183D02*
D03*
X1495909D02*
D03*
Y222183D02*
D03*
Y217183D02*
D03*
Y212183D02*
D03*
Y207183D02*
D03*
Y202183D02*
D03*
Y197183D02*
D03*
Y192183D02*
D03*
Y187183D02*
D03*
Y182183D02*
D03*
Y177183D02*
D03*
Y172183D02*
D03*
D180*
X1450785Y64643D02*
D03*
Y77343D02*
D03*
Y90043D02*
D03*
Y102743D02*
D03*
X1500185D02*
D03*
Y90043D02*
D03*
Y77343D02*
D03*
Y64643D02*
D03*
D181*
X253625Y290370D02*
D03*
X243625D02*
D03*
X248625Y303370D02*
D03*
D182*
X116517Y356870D02*
D03*
Y344170D02*
D03*
Y331470D02*
D03*
Y318770D02*
D03*
Y306070D02*
D03*
Y293370D02*
D03*
Y280670D02*
D03*
Y267970D02*
D03*
X209617D02*
D03*
Y280670D02*
D03*
Y293370D02*
D03*
Y306070D02*
D03*
Y318770D02*
D03*
Y331470D02*
D03*
Y344170D02*
D03*
Y356870D02*
D03*
D183*
X1449070Y696740D02*
D03*
Y667240D02*
D03*
X1377522Y448292D02*
D03*
Y477792D02*
D03*
D184*
X1386585Y721808D02*
D03*
Y650808D02*
D03*
D185*
X487717Y55568D02*
D03*
X397217D02*
D03*
D186*
X436217Y80068D02*
D03*
X448717D02*
D03*
X461217D02*
D03*
X423717D02*
D03*
D187*
X70468Y828130D02*
D03*
Y614630D02*
D03*
D188*
X99468Y640130D02*
D03*
Y652630D02*
D03*
Y665130D02*
D03*
Y677630D02*
D03*
Y690130D02*
D03*
Y702630D02*
D03*
Y715130D02*
D03*
Y727630D02*
D03*
Y740130D02*
D03*
Y752630D02*
D03*
Y765130D02*
D03*
Y777630D02*
D03*
Y790130D02*
D03*
Y802630D02*
D03*
D189*
X1604143Y473456D02*
D03*
X1588143D02*
D03*
X1392048Y1028446D02*
D03*
X1408048D02*
D03*
X375540Y804418D02*
D03*
X391540D02*
D03*
X375540Y791210D02*
D03*
X391540D02*
D03*
X1350898Y961898D02*
D03*
X1334898D02*
D03*
X399954Y410242D02*
D03*
X383954D02*
D03*
X330327Y803656D02*
D03*
X346327D02*
D03*
Y778764D02*
D03*
X330327D02*
D03*
X297816D02*
D03*
X313816D02*
D03*
X297814Y812292D02*
D03*
X281814D02*
D03*
X312038Y945642D02*
D03*
X296038D02*
D03*
X351153D02*
D03*
X335154D02*
D03*
X255523Y1076760D02*
D03*
X271523D02*
D03*
X125858Y765130D02*
D03*
X141858D02*
D03*
X125858Y777630D02*
D03*
X141858D02*
D03*
X1466721Y118745D02*
D03*
X1450721D02*
D03*
X1429524Y545957D02*
D03*
X1445524D02*
D03*
X1429524Y531301D02*
D03*
X1445524D02*
D03*
X1475358Y751586D02*
D03*
X1459358D02*
D03*
X1629284Y461644D02*
D03*
X1645284D02*
D03*
X1449713Y473456D02*
D03*
X1465713D02*
D03*
X1490697Y461644D02*
D03*
X1506697D02*
D03*
X1615822Y794156D02*
D03*
X1631822D02*
D03*
X1445524Y516128D02*
D03*
X1429524D02*
D03*
X1445524Y561114D02*
D03*
X1429524D02*
D03*
X1541400Y634492D02*
D03*
X1557400D02*
D03*
X1604643Y490982D02*
D03*
X1588643D02*
D03*
X1466213D02*
D03*
X1450213D02*
D03*
X1504536Y751586D02*
D03*
X1488536D02*
D03*
D190*
X1323593Y477012D02*
D03*
X1633600Y199390D02*
D03*
Y217644D02*
D03*
X1708149Y262787D02*
D03*
Y244534D02*
D03*
X1633600Y235898D02*
D03*
Y181136D02*
D03*
X1519174Y734314D02*
D03*
X1576832Y832866D02*
D03*
Y904494D02*
D03*
D191*
X263651Y986200D02*
D03*
Y944200D02*
D03*
X212851D02*
D03*
Y986200D02*
D03*
D192*
Y832889D02*
D03*
X238251D02*
D03*
X263651D02*
D03*
Y924289D02*
D03*
X238251D02*
D03*
X212851D02*
D03*
D193*
X238333Y1015960D02*
D03*
X238251Y1035960D02*
D03*
D194*
X247751Y811380D02*
D03*
X238251D02*
D03*
X228751D02*
D03*
X247751Y786280D02*
D03*
X238251D02*
D03*
X228751D02*
D03*
D195*
X317626Y755269D02*
D03*
X330326D02*
D03*
X343026D02*
D03*
X355726D02*
D03*
X368426D02*
D03*
X381126D02*
D03*
X393826D02*
D03*
Y703453D02*
D03*
X381126D02*
D03*
X368426D02*
D03*
X355726D02*
D03*
X343026D02*
D03*
X330326D02*
D03*
X317626D02*
D03*
D196*
X343826Y791210D02*
D03*
X330326D02*
D03*
D197*
X298703Y831339D02*
D03*
X311403D02*
D03*
X324103D02*
D03*
X336803D02*
D03*
X349503D02*
D03*
X362203D02*
D03*
X374903D02*
D03*
X387603D02*
D03*
Y925839D02*
D03*
X374903D02*
D03*
X362203D02*
D03*
X349503D02*
D03*
X336803D02*
D03*
X324103D02*
D03*
X311403D02*
D03*
X298703D02*
D03*
D198*
X343154Y963708D02*
D03*
X333754Y983708D02*
D03*
X352554D02*
D03*
D199*
X1334904Y1003452D02*
D03*
X1341404D02*
D03*
X1347903D02*
D03*
Y1022452D02*
D03*
X1341404D02*
D03*
X1334904D02*
D03*
D200*
X433578Y465810D02*
D03*
Y442570D02*
D03*
D201*
X383954Y423570D02*
D03*
Y442570D02*
D03*
X403954Y442570D02*
D03*
D202*
Y425570D02*
D03*
D203*
X1577030Y777382D02*
D03*
D204*
X1567830Y817202D02*
D03*
X1586230D02*
D03*
D205*
X1831706Y1081674D02*
D03*
X1826706D02*
D03*
X1821706D02*
D03*
X1816706D02*
D03*
Y1052674D02*
D03*
X1821706D02*
D03*
X1826706D02*
D03*
X1831706D02*
D03*
D206*
X1809706Y1074674D02*
D03*
Y1069674D02*
D03*
Y1064674D02*
D03*
Y1059674D02*
D03*
X1838706D02*
D03*
Y1064674D02*
D03*
Y1069674D02*
D03*
Y1074674D02*
D03*
D207*
X1824206Y1067174D02*
D03*
D208*
X1878494Y1041908D02*
D03*
X1860894D02*
D03*
D209*
X1856486Y892048D02*
D03*
Y947548D02*
D03*
D210*
X1960278Y1027176D02*
D03*
D211*
X1930228D02*
D03*
D212*
X1898904Y1084120D02*
D03*
Y1102820D02*
D03*
D213*
X2031292Y1027938D02*
D03*
X2133292D02*
D03*
D214*
X1918666Y541138D02*
D03*
Y524138D02*
D03*
X1748282Y1127116D02*
D03*
Y1110116D02*
D03*
X1842770Y1031612D02*
D03*
Y1014612D02*
D03*
X1808226Y1031612D02*
D03*
Y1014612D02*
D03*
D215*
X1952266Y480086D02*
D03*
X1923266D02*
D03*
X1847618Y967994D02*
D03*
X1818618D02*
D03*
D216*
X1918666Y503428D02*
D03*
X1952266D02*
D03*
X1959900Y1051306D02*
D03*
X1926300D02*
D03*
X1892264Y865886D02*
D03*
X1925864D02*
D03*
X1892264Y895870D02*
D03*
X1925864D02*
D03*
D217*
X1896860Y732020D02*
D03*
X1909560D02*
D03*
Y794520D02*
D03*
X1896860D02*
D03*
D218*
X1938188Y542238D02*
D03*
Y523038D02*
D03*
X1959188Y532638D02*
D03*
D219*
X1980622Y537750D02*
D03*
X1993322D02*
D03*
X2006022D02*
D03*
X2018722D02*
D03*
X2130622D02*
D03*
X2117922D02*
D03*
X2105222D02*
D03*
X2092522D02*
D03*
D220*
X2018722Y595630D02*
D03*
X2006022D02*
D03*
X1993322D02*
D03*
X1980622D02*
D03*
X2092522D02*
D03*
X2105222D02*
D03*
X2117922D02*
D03*
X2130622D02*
D03*
D221*
X1999672Y573360D02*
D03*
X2111572D02*
D03*
D222*
X2208784Y579764D02*
D03*
Y469764D02*
D03*
D223*
X1980622Y630670D02*
D03*
X2130622D02*
D03*
X1980622Y895870D02*
D03*
X2130622D02*
D03*
X2100622Y630670D02*
D03*
Y895870D02*
D03*
X2010622D02*
D03*
Y630670D02*
D03*
X2070622D02*
D03*
Y895870D02*
D03*
X2040622D02*
D03*
Y630670D02*
D03*
D224*
X1974850Y1051306D02*
D03*
Y1032002D02*
D03*
X1995170Y1041654D02*
D03*
D225*
X1976628Y1003242D02*
D03*
X1963928D02*
D03*
X1951228D02*
D03*
X1938528D02*
D03*
Y949002D02*
D03*
X1951228D02*
D03*
X1963928D02*
D03*
X1976628D02*
D03*
D226*
X376153Y1105154D02*
D03*
X343153D02*
D03*
X310154D02*
D03*
D227*
X357154Y1026922D02*
D03*
X329154D02*
D03*
D228*
X357154Y1006672D02*
D03*
X329154D02*
D03*
Y1047172D02*
D03*
X357154D02*
D03*
D229*
X1942820Y1070610D02*
D03*
X1958620D02*
D03*
X1810958Y1101876D02*
D03*
X1795158D02*
D03*
X1780676Y1110116D02*
D03*
X1764876D02*
D03*
X1780676Y1127116D02*
D03*
X1764876D02*
D03*
X1938188Y558546D02*
D03*
X1953988D02*
D03*
X1884654Y573278D02*
D03*
X1900454D02*
D03*
X1884654Y557276D02*
D03*
X1900454D02*
D03*
X1900454Y524138D02*
D03*
X1884654D02*
D03*
X1989354Y1070610D02*
D03*
X1973554D02*
D03*
X1787788Y1069674D02*
D03*
X1771988D02*
D03*
X1876769Y1084048D02*
D03*
X1860969D02*
D03*
X1860969Y1100074D02*
D03*
X1876769D02*
D03*
D230*
X2062734Y1133016D02*
D03*
Y1091516D02*
D03*
D231*
X2062988Y461316D02*
D03*
Y488136D02*
D03*
X2030730D02*
D03*
Y461316D02*
D03*
X1998472D02*
D03*
Y488136D02*
D03*
X2095246Y461316D02*
D03*
Y488136D02*
D03*
D232*
X93276Y214838D02*
D03*
Y177338D02*
D03*
Y189838D02*
D03*
Y202338D02*
D03*
D233*
X68776Y241338D02*
D03*
Y150838D02*
D03*
D234*
X1797662Y1167638D02*
D03*
X1861462D02*
D03*
X1958444Y1112266D02*
D03*
X2022244D02*
D03*
D235*
X2046732Y374466D02*
D03*
Y436466D02*
D03*
D236*
X1334922Y946458D02*
D03*
X1353922D02*
D03*
Y921458D02*
D03*
X1344422D02*
D03*
X1334922D02*
D03*
X256437Y1041000D02*
D03*
X275438Y1041000D02*
D03*
Y1016000D02*
D03*
X265938D02*
D03*
X256437D02*
D03*
D237*
X1010984Y402574D02*
D03*
X707642Y168402D02*
D03*
X433578Y371856D02*
D03*
X1448372Y1103122D02*
D03*
Y1114024D02*
D03*
Y1124925D02*
D03*
Y1135827D02*
D03*
Y1146729D02*
D03*
Y1157630D02*
D03*
D238*
X1018384Y402574D02*
D03*
X715041Y168402D02*
D03*
X440978Y371856D02*
D03*
X1455772Y1103122D02*
D03*
Y1114024D02*
D03*
Y1124925D02*
D03*
Y1135827D02*
D03*
Y1146729D02*
D03*
Y1157630D02*
D03*
D239*
X1171618Y805180D02*
D03*
X1178618D02*
D03*
X1175118Y809380D02*
D03*
X817418D02*
D03*
X820918Y805180D02*
D03*
X813918D02*
D03*
X1083318Y809380D02*
D03*
X1086818Y805180D02*
D03*
X1079818D02*
D03*
X1144518Y809380D02*
D03*
X1148024Y805180D02*
D03*
X1141024D02*
D03*
X496368Y813122D02*
D03*
X499868Y808922D02*
D03*
X492868D02*
D03*
X534468Y813122D02*
D03*
X537968Y808922D02*
D03*
X530968D02*
D03*
X572568Y813122D02*
D03*
X576068Y808922D02*
D03*
X569068D02*
D03*
X610668Y813122D02*
D03*
X614168Y808922D02*
D03*
X607168D02*
D03*
X695018Y809380D02*
D03*
X698518Y805180D02*
D03*
X691518D02*
D03*
X725618Y809380D02*
D03*
X729118Y805180D02*
D03*
X722118D02*
D03*
X756218Y809380D02*
D03*
X759718Y805180D02*
D03*
X752718D02*
D03*
X786818Y809380D02*
D03*
X790318Y805180D02*
D03*
X783318D02*
D03*
X848018Y809380D02*
D03*
X851518Y805180D02*
D03*
X844518D02*
D03*
X878618Y809380D02*
D03*
X882118Y805180D02*
D03*
X875118D02*
D03*
X909574Y809380D02*
D03*
X913074Y805180D02*
D03*
X906074D02*
D03*
X991518Y809380D02*
D03*
X995018Y805180D02*
D03*
X988018D02*
D03*
X1022118Y809380D02*
D03*
X1025618Y805180D02*
D03*
X1018618D02*
D03*
X1052718Y809380D02*
D03*
X1056218Y805180D02*
D03*
X1049218D02*
D03*
X1113918Y809380D02*
D03*
X1117418Y805180D02*
D03*
X1110418D02*
D03*
X1205718Y809380D02*
D03*
X1209218Y805180D02*
D03*
X1202218D02*
D03*
D240*
X1795458Y1133030D02*
D03*
Y1115885D02*
D03*
D241*
X1357592Y1066432D02*
D03*
D242*
X1400692Y1177032D02*
D03*
X1378692D02*
D03*
X1356691Y1171032D02*
D03*
X1345692Y1175032D02*
D03*
X1422691D02*
D03*
X1411691D02*
D03*
X1389691D02*
D03*
X1367691D02*
D03*
D243*
X1430491Y1197932D02*
D03*
X1298992Y1207932D02*
D03*
D244*
X1400591Y1062732D02*
D03*
D245*
X1415092Y1066432D02*
D03*
D246*
X2114042Y1168360D02*
D03*
Y1135360D02*
D03*
Y1102360D02*
D03*
D247*
X1779642Y1093216D02*
D03*
X1762642D02*
D03*
X1877848Y1023874D02*
D03*
X1860848D02*
D03*
Y1059942D02*
D03*
X1877848D02*
D03*
X1884654Y541138D02*
D03*
X1901654D02*
D03*
X1769754Y1053592D02*
D03*
X1786754D02*
D03*
D248*
X386080Y377918D02*
D03*
X449072Y346474D02*
D03*
Y318974D02*
D03*
D249*
X386080Y385318D02*
D03*
X449072Y339074D02*
D03*
Y326374D02*
D03*
D250*
X1974088Y480086D02*
D03*
Y464286D02*
D03*
X2070622Y544061D02*
D03*
Y559861D02*
D03*
X2040622Y559861D02*
D03*
Y544061D02*
D03*
X1826706Y1032646D02*
D03*
Y1016846D02*
D03*
X1792224Y1032646D02*
D03*
Y1016846D02*
D03*
X1752854Y1069620D02*
D03*
Y1053820D02*
D03*
X1843024Y1101572D02*
D03*
Y1117372D02*
D03*
X1826706D02*
D03*
Y1101572D02*
D03*
X1810558Y1132358D02*
D03*
Y1116558D02*
D03*
D251*
X1885140Y967994D02*
D03*
X1866440D02*
D03*
D252*
X1995170Y968412D02*
D03*
Y950812D02*
D03*
D253*
X2102306Y957580D02*
D03*
X2075486D02*
D03*
D254*
X1481680Y677574D02*
D03*
X1513684D02*
D03*
D255*
X1342118Y609092D02*
D03*
X1371618D02*
D03*
X1564150Y677574D02*
D03*
X1534650D02*
D03*
D256*
X1795801Y576580D02*
D03*
X1766801D02*
D03*
D257*
X1712975Y392154D02*
D03*
Y421154D02*
D03*
X1685544Y392154D02*
D03*
Y421154D02*
D03*
X1546750Y392154D02*
D03*
Y421154D02*
D03*
D258*
X1452431Y810260D02*
D03*
X1523431D02*
D03*
D259*
X1442974Y720574D02*
X1459338D01*
D260*
X1621211Y63944D02*
D03*
Y305944D02*
D03*
X1379711Y63944D02*
D03*
Y305944D02*
D03*
D261*
X1140711Y59944D02*
D03*
X1523472Y1116714D02*
D03*
Y1091714D02*
D03*
Y1071714D02*
D03*
X1505472Y1041714D02*
D03*
Y1061714D02*
D03*
Y1121714D02*
D03*
Y1101714D02*
D03*
Y1081714D02*
D03*
D262*
X1140711Y309944D02*
D03*
D263*
X1639261Y286744D02*
D03*
X1646443Y298341D02*
D03*
X1646864Y311976D02*
D03*
X1640411Y323994D02*
D03*
X1628814Y331176D02*
D03*
X1615180Y331597D02*
D03*
X1603161Y325144D02*
D03*
X1595980Y313547D02*
D03*
X1595559Y299912D02*
D03*
X1602011Y287894D02*
D03*
X1613609Y280712D02*
D03*
X1627243Y280291D02*
D03*
X1639261Y44744D02*
D03*
X1646443Y56341D02*
D03*
X1646864Y69976D02*
D03*
X1640411Y81994D02*
D03*
X1628814Y89176D02*
D03*
X1615180Y89597D02*
D03*
X1603161Y83144D02*
D03*
X1595980Y71547D02*
D03*
X1595559Y57912D02*
D03*
X1602011Y45894D02*
D03*
X1613609Y38712D02*
D03*
X1627243Y38291D02*
D03*
X1397761Y44744D02*
D03*
X1404943Y56341D02*
D03*
X1405364Y69976D02*
D03*
X1398911Y81994D02*
D03*
X1387314Y89176D02*
D03*
X1373680Y89597D02*
D03*
X1361661Y83144D02*
D03*
X1354480Y71547D02*
D03*
X1354059Y57912D02*
D03*
X1360511Y45894D02*
D03*
X1372109Y38712D02*
D03*
X1385743Y38291D02*
D03*
X1397761Y286744D02*
D03*
X1404943Y298341D02*
D03*
X1405364Y311976D02*
D03*
X1398911Y323994D02*
D03*
X1387314Y331176D02*
D03*
X1373680Y331597D02*
D03*
X1361661Y325144D02*
D03*
X1354480Y313547D02*
D03*
X1354059Y299912D02*
D03*
X1360511Y287894D02*
D03*
X1372109Y280712D02*
D03*
X1385743Y280291D02*
D03*
X1425524Y580114D02*
D03*
X1433524Y593114D02*
D03*
X1425524D02*
D03*
X1417524D02*
D03*
X1425524Y606114D02*
D03*
X1573931Y139847D02*
D03*
X1566931D02*
D03*
X1580931D02*
D03*
X1573931Y132848D02*
D03*
X1566931D02*
D03*
X1580931D02*
D03*
X1573931Y118848D02*
D03*
X1566931D02*
D03*
X1580931D02*
D03*
X1573931Y125849D02*
D03*
X1566931D02*
D03*
X1580931D02*
D03*
Y111849D02*
D03*
X1573931D02*
D03*
X1566931D02*
D03*
X1444559Y216379D02*
D03*
X1453059D02*
D03*
X1461559D02*
D03*
X1470059D02*
D03*
X1478559D02*
D03*
Y208019D02*
D03*
X1470059D02*
D03*
X1461559D02*
D03*
X1453059D02*
D03*
X1444559Y208079D02*
D03*
Y199699D02*
D03*
X1453059Y199660D02*
D03*
X1461559Y199683D02*
D03*
X1470059Y199660D02*
D03*
X1478559D02*
D03*
Y191300D02*
D03*
X1470059D02*
D03*
X1461559D02*
D03*
X1453059D02*
D03*
X1444559Y191320D02*
D03*
Y182941D02*
D03*
X1453059D02*
D03*
X1461559D02*
D03*
X1470059D02*
D03*
X1478559D02*
D03*
D264*
X2198370Y989076D02*
D03*
X2223770D02*
D03*
X2249170D02*
D03*
X2274570D02*
D03*
Y912876D02*
D03*
X2249170D02*
D03*
X2223770D02*
D03*
X2198370D02*
D03*
D265*
X1760887Y97790D02*
D03*
Y110490D02*
D03*
Y148590D02*
D03*
Y135890D02*
D03*
X1761212Y274574D02*
D03*
Y287274D02*
D03*
Y325374D02*
D03*
Y312674D02*
D03*
D266*
X1770887Y85090D02*
D03*
Y123190D02*
D03*
Y161290D02*
D03*
X1771212Y261874D02*
D03*
Y299974D02*
D03*
Y338074D02*
D03*
D267*
X1765887Y58390D02*
D03*
Y187990D02*
D03*
X1766212Y235174D02*
D03*
Y364774D02*
D03*
D268*
X69241Y344424D02*
D03*
D269*
Y268224D02*
D03*
Y293624D02*
D03*
Y319024D02*
D03*
D270*
X141839Y1126482D02*
D03*
X211939D02*
D03*
D271*
X154389Y1151382D02*
D03*
X199389D02*
D03*
D272*
X1541572Y1135214D02*
D03*
X1487372Y1028214D02*
D03*
D273*
X1541572D02*
D03*
X1487372Y1135214D02*
D03*
D274*
X1523472Y1046714D02*
D03*
D275*
X616506Y1073124D02*
D03*
X603806Y1098524D02*
D03*
X591106Y1073124D02*
D03*
X578406Y1098524D02*
D03*
X540306Y1073124D02*
D03*
X565706D02*
D03*
X553006Y1098524D02*
D03*
D276*
X641906Y1162024D02*
D03*
X527606D02*
D03*
D277*
X629206Y1098524D02*
D03*
D278*
X1210906Y1098524D02*
D03*
X1071206D02*
D03*
X931506D02*
D03*
X791806D02*
D03*
D279*
X1198206Y1073124D02*
D03*
X1185506Y1098524D02*
D03*
X1172806Y1073124D02*
D03*
X1160106Y1098524D02*
D03*
X1147406Y1073124D02*
D03*
X1134706Y1098524D02*
D03*
X1122006Y1073124D02*
D03*
X1058506D02*
D03*
X1045806Y1098524D02*
D03*
X1033106Y1073124D02*
D03*
X1020406Y1098524D02*
D03*
X1007706Y1073124D02*
D03*
X995006Y1098524D02*
D03*
X982306Y1073124D02*
D03*
X918806D02*
D03*
X906106Y1098524D02*
D03*
X893406Y1073124D02*
D03*
X880706Y1098524D02*
D03*
X868006Y1073124D02*
D03*
X855306Y1098524D02*
D03*
X842606Y1073124D02*
D03*
X779106D02*
D03*
X766406Y1098524D02*
D03*
X753706Y1073124D02*
D03*
X741006Y1098524D02*
D03*
X728306Y1073124D02*
D03*
X715606Y1098524D02*
D03*
X702906Y1073124D02*
D03*
D280*
X690206Y1162024D02*
D03*
X1223606D02*
D03*
D281*
X138067Y484632D02*
D03*
D282*
X188067D02*
D03*
D283*
X1766720Y534924D02*
D03*
Y446278D02*
D03*
D284*
Y509924D02*
D03*
Y421278D02*
D03*
D285*
X395657Y1187334D02*
D03*
X1999488D02*
D03*
D286*
X360657D02*
D03*
X325657D02*
D03*
X1964488D02*
D03*
D287*
X438657Y1196334D02*
D03*
X282657D02*
D03*
X2042488D02*
D03*
X1921488D02*
D03*
D288*
X2161954Y1094070D02*
D03*
X2181954Y1169070D02*
D03*
D289*
X69241Y873252D02*
D03*
D290*
Y898652D02*
D03*
D291*
X2160524Y352552D02*
D03*
Y404622D02*
D03*
D292*
X2233930Y398272D02*
D03*
X1770530Y723334D02*
D03*
D293*
X2233930Y358672D02*
D03*
X1770530Y683734D02*
D03*
M02*
