G04*
G04 #@! TF.GenerationSoftware,Altium Limited,Altium Designer,23.1.1 (15)*
G04*
G04 Layer_Color=16711935*
%FSLAX44Y44*%
%MOMM*%
G71*
G04*
G04 #@! TF.SameCoordinates,5873BA87-B4A8-4489-8BBC-5F2359CC4874*
G04*
G04*
G04 #@! TF.FilePolarity,Negative*
G04*
G01*
G75*
%ADD12C,0.1270*%
%ADD23C,0.0254*%
%ADD24C,0.1020*%
%ADD25C,0.1016*%
%ADD141C,1.2700*%
%ADD152C,7.0000*%
G04:AMPARAMS|DCode=256|XSize=2.0532mm|YSize=1.5032mm|CornerRadius=0.2641mm|HoleSize=0mm|Usage=FLASHONLY|Rotation=270.000|XOffset=0mm|YOffset=0mm|HoleType=Round|Shape=RoundedRectangle|*
%AMROUNDEDRECTD256*
21,1,2.0532,0.9750,0,0,270.0*
21,1,1.5250,1.5032,0,0,270.0*
1,1,0.5282,-0.4875,-0.7625*
1,1,0.5282,-0.4875,0.7625*
1,1,0.5282,0.4875,0.7625*
1,1,0.5282,0.4875,-0.7625*
%
%ADD256ROUNDEDRECTD256*%
G04:AMPARAMS|DCode=257|XSize=2.0532mm|YSize=1.5032mm|CornerRadius=0.2641mm|HoleSize=0mm|Usage=FLASHONLY|Rotation=180.000|XOffset=0mm|YOffset=0mm|HoleType=Round|Shape=RoundedRectangle|*
%AMROUNDEDRECTD257*
21,1,2.0532,0.9750,0,0,180.0*
21,1,1.5250,1.5032,0,0,180.0*
1,1,0.5282,-0.7625,0.4875*
1,1,0.5282,0.7625,0.4875*
1,1,0.5282,0.7625,-0.4875*
1,1,0.5282,-0.7625,-0.4875*
%
%ADD257ROUNDEDRECTD257*%
%ADD260C,6.4032*%
%ADD261C,1.3032*%
%ADD262C,1.8032*%
%ADD263C,0.6000*%
%ADD264C,2.5032*%
%ADD265C,1.2192*%
%ADD266C,1.4512*%
%ADD267C,2.2282*%
%ADD268R,1.8232X1.8232*%
%ADD269C,1.8232*%
%ADD270C,2.1532*%
%ADD271C,1.7432*%
%ADD272O,1.6032X3.0032*%
%ADD273O,1.4032X2.6032*%
%ADD274R,1.3032X1.3032*%
%ADD275C,1.6012*%
%ADD276C,3.4532*%
%ADD277R,1.6012X1.6012*%
%ADD278R,1.6112X1.6112*%
%ADD279C,1.6112*%
%ADD280C,3.4032*%
%ADD281C,2.4532*%
%ADD282R,2.4532X2.4532*%
G04:AMPARAMS|DCode=283|XSize=1.7032mm|YSize=1.7032mm|CornerRadius=0.2891mm|HoleSize=0mm|Usage=FLASHONLY|Rotation=90.000|XOffset=0mm|YOffset=0mm|HoleType=Round|Shape=RoundedRectangle|*
%AMROUNDEDRECTD283*
21,1,1.7032,1.1250,0,0,90.0*
21,1,1.1250,1.7032,0,0,90.0*
1,1,0.5782,0.5625,0.5625*
1,1,0.5782,0.5625,-0.5625*
1,1,0.5782,-0.5625,-0.5625*
1,1,0.5782,-0.5625,0.5625*
%
%ADD283ROUNDEDRECTD283*%
%ADD284C,1.7032*%
%ADD285R,2.0032X2.0032*%
%ADD286C,2.0032*%
%ADD287C,3.8032*%
%ADD288O,1.8532X3.5032*%
%ADD289R,1.9282X1.9282*%
%ADD290C,1.9282*%
%ADD291C,4.0132*%
%ADD292R,2.6782X2.6782*%
%ADD293C,2.6782*%
%ADD350R,1.7632X2.8132*%
%ADD351R,1.1032X1.5532*%
%ADD352C,2.7432*%
D12*
X968042Y205674D02*
Y675574D01*
X498041Y675674D02*
X968042D01*
X498041Y205674D02*
Y675574D01*
Y205674D02*
Y205774D01*
Y205674D02*
X968042D01*
D23*
X2286508Y1028956D02*
G03*
X2286508Y1060956I0J16000D01*
G01*
X2236508D02*
G03*
X2236508Y1028956I0J-16000D01*
G01*
X41294Y1060954D02*
G03*
X41294Y1028954I0J-16000D01*
G01*
X91294D02*
G03*
X91294Y1060954I0J16000D01*
G01*
X2286628Y67290D02*
G03*
X2286628Y99290I0J16000D01*
G01*
X2236628D02*
G03*
X2236628Y67290I0J-16000D01*
G01*
X41338Y99271D02*
G03*
X41338Y67271I0J-16000D01*
G01*
X91338D02*
G03*
X91338Y99271I0J16000D01*
G01*
X1288135Y558551D02*
G03*
X1288135Y590551I0J16000D01*
G01*
X1238135D02*
G03*
X1238135Y558551I0J-16000D01*
G01*
X1884172Y798068D02*
G03*
X1858772Y798068I-12700J0D01*
G01*
Y726440D02*
G03*
X1884172Y726440I12700J0D01*
G01*
X1790296Y912445D02*
G03*
X1772322Y894498I-8994J-8967D01*
G01*
X1831250Y835570D02*
G03*
X1849210Y853530I8980J8980D01*
G01*
X1731682Y935138D02*
G03*
X1749642Y953098I8980J8980D01*
G01*
X1690728Y1012013D02*
G03*
X1672754Y994066I-8994J-8967D01*
G01*
X1628140Y1043940D02*
G03*
X1653540Y1043940I12700J0D01*
G01*
Y1115568D02*
G03*
X1628140Y1115568I-12700J0D01*
G01*
X2236508Y1028956D02*
X2286508D01*
X2236508Y1060956D02*
X2286508D01*
X41294Y1060954D02*
X91294D01*
X41294Y1028954D02*
X91294D01*
X2236628Y67290D02*
X2286628D01*
X2236628Y99290D02*
X2286628D01*
X41338Y99271D02*
X91338D01*
X41338Y67271D02*
X91338D01*
X1238135Y558551D02*
X1288135D01*
X1238135Y590551D02*
X1288135D01*
X1858772Y726440D02*
Y798068D01*
X1884172Y726440D02*
Y798068D01*
X1790282Y912458D02*
X1849210Y853530D01*
X1772322Y894498D02*
X1831250Y835570D01*
X1672754Y994066D02*
X1731682Y935138D01*
X1690714Y1012026D02*
X1749642Y953098D01*
X1653540Y1043940D02*
Y1115568D01*
X1628140Y1043940D02*
Y1115568D01*
D24*
X-1Y1226566D02*
X2327910Y1226566D01*
D25*
X2327910Y0D01*
X-1Y1226566D02*
X0Y0D01*
X2327910D01*
D141*
X1290828Y444246D02*
X1323593Y477012D01*
X447801Y231521D02*
X449126Y230196D01*
X1290828Y444246D02*
X1290828Y153924D01*
X1262380Y125476D02*
X1290828Y153924D01*
X489711Y125476D02*
X1262380Y125476D01*
X449126Y166061D02*
X489711Y125476D01*
X449126Y166061D02*
Y230196D01*
D152*
X66294Y1146810D02*
D03*
X2151124Y83312D02*
D03*
X178562D02*
D03*
X2260854Y1146810D02*
D03*
D256*
X1260878Y1200912D02*
D03*
X1231878D02*
D03*
D257*
X1103630Y1107164D02*
D03*
Y1136164D02*
D03*
X824992D02*
D03*
Y1107164D02*
D03*
D260*
X1621211Y63944D02*
D03*
Y305944D02*
D03*
X1379711Y63944D02*
D03*
Y305944D02*
D03*
D261*
X1140711Y59944D02*
D03*
X1523472Y1116714D02*
D03*
Y1091714D02*
D03*
Y1071714D02*
D03*
X1505472Y1041714D02*
D03*
Y1061714D02*
D03*
Y1121714D02*
D03*
Y1101714D02*
D03*
Y1081714D02*
D03*
D262*
X1140711Y309944D02*
D03*
D263*
X1639261Y286744D02*
D03*
X1646443Y298341D02*
D03*
X1646864Y311976D02*
D03*
X1640411Y323994D02*
D03*
X1628814Y331176D02*
D03*
X1615180Y331597D02*
D03*
X1603161Y325144D02*
D03*
X1595980Y313547D02*
D03*
X1595559Y299912D02*
D03*
X1602011Y287894D02*
D03*
X1613609Y280712D02*
D03*
X1627243Y280291D02*
D03*
X1639261Y44744D02*
D03*
X1646443Y56341D02*
D03*
X1646864Y69976D02*
D03*
X1640411Y81994D02*
D03*
X1628814Y89176D02*
D03*
X1615180Y89597D02*
D03*
X1603161Y83144D02*
D03*
X1595980Y71547D02*
D03*
X1595559Y57912D02*
D03*
X1602011Y45894D02*
D03*
X1613609Y38712D02*
D03*
X1627243Y38291D02*
D03*
X1397761Y44744D02*
D03*
X1404943Y56341D02*
D03*
X1405364Y69976D02*
D03*
X1398911Y81994D02*
D03*
X1387314Y89176D02*
D03*
X1373680Y89597D02*
D03*
X1361661Y83144D02*
D03*
X1354480Y71547D02*
D03*
X1354059Y57912D02*
D03*
X1360511Y45894D02*
D03*
X1372109Y38712D02*
D03*
X1385743Y38291D02*
D03*
X1397761Y286744D02*
D03*
X1404943Y298341D02*
D03*
X1405364Y311976D02*
D03*
X1398911Y323994D02*
D03*
X1387314Y331176D02*
D03*
X1373680Y331597D02*
D03*
X1361661Y325144D02*
D03*
X1354480Y313547D02*
D03*
X1354059Y299912D02*
D03*
X1360511Y287894D02*
D03*
X1372109Y280712D02*
D03*
X1385743Y280291D02*
D03*
X1425524Y580114D02*
D03*
X1433524Y593114D02*
D03*
X1425524D02*
D03*
X1417524D02*
D03*
X1425524Y606114D02*
D03*
X1573931Y139847D02*
D03*
X1566931D02*
D03*
X1580931D02*
D03*
X1573931Y132848D02*
D03*
X1566931D02*
D03*
X1580931D02*
D03*
X1573931Y118848D02*
D03*
X1566931D02*
D03*
X1580931D02*
D03*
X1573931Y125849D02*
D03*
X1566931D02*
D03*
X1580931D02*
D03*
Y111849D02*
D03*
X1573931D02*
D03*
X1566931D02*
D03*
X1444559Y216379D02*
D03*
X1453059D02*
D03*
X1461559D02*
D03*
X1470059D02*
D03*
X1478559D02*
D03*
Y208019D02*
D03*
X1470059D02*
D03*
X1461559D02*
D03*
X1453059D02*
D03*
X1444559Y208079D02*
D03*
Y199699D02*
D03*
X1453059Y199660D02*
D03*
X1461559Y199683D02*
D03*
X1470059Y199660D02*
D03*
X1478559D02*
D03*
Y191300D02*
D03*
X1470059D02*
D03*
X1461559D02*
D03*
X1453059D02*
D03*
X1444559Y191320D02*
D03*
Y182941D02*
D03*
X1453059D02*
D03*
X1461559D02*
D03*
X1470059D02*
D03*
X1478559D02*
D03*
D264*
X2198370Y989076D02*
D03*
X2223770D02*
D03*
X2249170D02*
D03*
X2274570D02*
D03*
Y912876D02*
D03*
X2249170D02*
D03*
X2223770D02*
D03*
X2198370D02*
D03*
D265*
X1760887Y97790D02*
D03*
Y110490D02*
D03*
Y148590D02*
D03*
Y135890D02*
D03*
X1761212Y274574D02*
D03*
Y287274D02*
D03*
Y325374D02*
D03*
Y312674D02*
D03*
D266*
X1770887Y85090D02*
D03*
Y123190D02*
D03*
Y161290D02*
D03*
X1771212Y261874D02*
D03*
Y299974D02*
D03*
Y338074D02*
D03*
D267*
X1765887Y58390D02*
D03*
Y187990D02*
D03*
X1766212Y235174D02*
D03*
Y364774D02*
D03*
D268*
X69241Y344424D02*
D03*
D269*
Y268224D02*
D03*
Y293624D02*
D03*
Y319024D02*
D03*
D270*
X141839Y1126482D02*
D03*
X211939D02*
D03*
D271*
X154389Y1151382D02*
D03*
X199389D02*
D03*
D272*
X1541572Y1135214D02*
D03*
X1487372Y1028214D02*
D03*
D273*
X1541572D02*
D03*
X1487372Y1135214D02*
D03*
D274*
X1523472Y1046714D02*
D03*
D275*
X616506Y1073124D02*
D03*
X603806Y1098524D02*
D03*
X591106Y1073124D02*
D03*
X578406Y1098524D02*
D03*
X540306Y1073124D02*
D03*
X565706D02*
D03*
X553006Y1098524D02*
D03*
D276*
X641906Y1162024D02*
D03*
X527606D02*
D03*
D277*
X629206Y1098524D02*
D03*
D278*
X1210906Y1098524D02*
D03*
X1071206D02*
D03*
X931506D02*
D03*
X791806D02*
D03*
D279*
X1198206Y1073124D02*
D03*
X1185506Y1098524D02*
D03*
X1172806Y1073124D02*
D03*
X1160106Y1098524D02*
D03*
X1147406Y1073124D02*
D03*
X1134706Y1098524D02*
D03*
X1122006Y1073124D02*
D03*
X1058506D02*
D03*
X1045806Y1098524D02*
D03*
X1033106Y1073124D02*
D03*
X1020406Y1098524D02*
D03*
X1007706Y1073124D02*
D03*
X995006Y1098524D02*
D03*
X982306Y1073124D02*
D03*
X918806D02*
D03*
X906106Y1098524D02*
D03*
X893406Y1073124D02*
D03*
X880706Y1098524D02*
D03*
X868006Y1073124D02*
D03*
X855306Y1098524D02*
D03*
X842606Y1073124D02*
D03*
X779106D02*
D03*
X766406Y1098524D02*
D03*
X753706Y1073124D02*
D03*
X741006Y1098524D02*
D03*
X728306Y1073124D02*
D03*
X715606Y1098524D02*
D03*
X702906Y1073124D02*
D03*
D280*
X690206Y1162024D02*
D03*
X1223606D02*
D03*
D281*
X138067Y484632D02*
D03*
D282*
X188067D02*
D03*
D283*
X1766720Y534924D02*
D03*
Y446278D02*
D03*
D284*
Y509924D02*
D03*
Y421278D02*
D03*
D285*
X395657Y1187334D02*
D03*
X1999488D02*
D03*
D286*
X360657D02*
D03*
X325657D02*
D03*
X1964488D02*
D03*
D287*
X438657Y1196334D02*
D03*
X282657D02*
D03*
X2042488D02*
D03*
X1921488D02*
D03*
D288*
X2161954Y1094070D02*
D03*
X2181954Y1169070D02*
D03*
D289*
X69241Y873252D02*
D03*
D290*
Y898652D02*
D03*
D291*
X2160524Y352552D02*
D03*
Y404622D02*
D03*
D292*
X2233930Y398272D02*
D03*
X1770530Y723334D02*
D03*
D293*
X2233930Y358672D02*
D03*
X1770530Y683734D02*
D03*
D350*
X1281253Y1072834D02*
D03*
Y1199134D02*
D03*
X1448053D02*
D03*
Y1072834D02*
D03*
D351*
X1392203Y1044084D02*
D03*
X1366803D02*
D03*
X1341403D02*
D03*
X1379503D02*
D03*
X1354103D02*
D03*
X1328703D02*
D03*
X1290603D02*
D03*
D352*
X898398Y1176528D02*
D03*
M02*
