%FSTAX23Y23*%
%MOIN*%
%SFA1B1*%

%IPPOS*%
%AMD53*
4,1,8,0.006200,0.012600,-0.006200,0.012600,-0.013800,0.005000,-0.013800,-0.005000,-0.006200,-0.012600,0.006200,-0.012600,0.013800,-0.005000,0.013800,0.005000,0.006200,0.012600,0.0*
1,1,0.015268,0.006200,0.005000*
1,1,0.015268,-0.006200,0.005000*
1,1,0.015268,-0.006200,-0.005000*
1,1,0.015268,0.006200,-0.005000*
%
%AMD54*
4,1,8,-0.012600,0.006200,-0.012600,-0.006200,-0.005000,-0.013800,0.005000,-0.013800,0.012600,-0.006200,0.012600,0.006200,0.005000,0.013800,-0.005000,0.013800,-0.012600,0.006200,0.0*
1,1,0.015268,-0.005000,0.006200*
1,1,0.015268,-0.005000,-0.006200*
1,1,0.015268,0.005000,-0.006200*
1,1,0.015268,0.005000,0.006200*
%
%ADD23C,0.009000*%
%ADD28R,0.050000X0.145000*%
%ADD32R,0.038500X0.022000*%
%ADD34R,0.011000X0.010000*%
%ADD35R,0.010000X0.011000*%
%ADD49R,0.015528X0.039319*%
%ADD50R,0.039319X0.015528*%
%ADD51R,0.066992X0.039433*%
%ADD52R,0.024079X0.032740*%
G04~CAMADD=53~8~0.0~0.0~276.2~252.6~76.3~0.0~15~0.0~0.0~0.0~0.0~0~0.0~0.0~0.0~0.0~0~0.0~0.0~0.0~0.0~276.2~252.6*
%ADD53D53*%
G04~CAMADD=54~8~0.0~0.0~276.2~252.6~76.3~0.0~15~0.0~0.0~0.0~0.0~0~0.0~0.0~0.0~0.0~0~0.0~0.0~0.0~90.0~252.0~276.0*
%ADD54D54*%
%ADD55R,0.014000X0.014000*%
%ADD56C,0.017000*%
%ADD57R,0.014000X0.014000*%
%ADD58R,0.054000X0.129197*%
%ADD59R,0.035496X0.066992*%
%ADD60R,0.035496X0.035496*%
%ADD61R,0.055181X0.047307*%
%ADD62R,0.032740X0.024079*%
%ADD63R,0.015811X0.023685*%
%ADD64R,0.027228X0.017779*%
%ADD65R,0.017779X0.027228*%
%ADD66R,0.064000X0.064000*%
%ADD67R,0.015811X0.027622*%
%ADD68R,0.070929X0.015811*%
%ADD69R,0.019748X0.019748*%
%ADD70R,0.090614X0.043370*%
%ADD71R,0.049275X0.027622*%
%ADD72R,0.049275X0.015811*%
%ADD73R,0.082740X0.089827*%
%ADD74R,0.149606X0.149606*%
%ADD75R,0.027622X0.055968*%
%ADD76C,0.079000*%
%ADD77C,0.087000*%
%ADD78C,0.029590*%
%ADD79C,0.029000*%
%ADD80C,0.028000*%
%ADD81C,0.054000*%
%LNesp32c3phils-1*%
%LPD*%
G36*
X03533Y03763D02*
X03533Y03763D01*
X03533Y03763*
X03533Y03763*
X03532Y03764*
X03532Y03764*
X03532Y03764*
X03532Y03764*
X03532Y03764*
X03532Y03764*
X03532Y03764*
X03531Y03764*
X03531Y03764*
X03531Y03764*
X03531Y03765*
X03531Y03765*
X03531Y03765*
X03531Y03765*
X03531Y03765*
X03531Y03765*
X03531Y03765*
X0353Y03766*
X0353Y03766*
X0353Y03766*
X0353Y03766*
X0353Y03766*
Y03766*
Y03767*
Y03775*
Y03775*
Y03775*
X0353Y03775*
X0353Y03775*
X0353Y03775*
X0353Y03776*
X03531Y03776*
X03531Y03776*
X03531Y03776*
X03531Y03776*
X03531Y03776*
X03531Y03777*
X03531Y03777*
X03531Y03777*
X03531Y03777*
X03531Y03777*
X03532Y03777*
X03532Y03777*
X03532Y03777*
X03532Y03777*
X03532Y03778*
X03532Y03778*
X03532Y03778*
X03533Y03778*
X03533Y03778*
X03533Y03778*
X03533Y03778*
X03533Y03778*
X03563*
X03563Y03778*
X03564Y03778*
X03564Y03778*
X03564Y03778*
X03564Y03778*
X03564Y03778*
X03564Y03778*
X03565Y03777*
X03565Y03777*
X03565Y03777*
X03565Y03777*
X03565Y03777*
X03565Y03777*
X03565Y03777*
X03565Y03777*
X03566Y03777*
X03566Y03776*
X03566Y03776*
X03566Y03776*
X03566Y03776*
X03566Y03776*
X03566Y03776*
X03566Y03775*
X03566Y03775*
X03566Y03775*
X03566Y03775*
Y03775*
Y03775*
Y03767*
Y03766*
Y03766*
X03566Y03766*
X03566Y03766*
X03566Y03766*
X03566Y03766*
X03566Y03765*
X03566Y03765*
X03566Y03765*
X03566Y03765*
X03566Y03765*
X03566Y03765*
X03565Y03765*
X03565Y03764*
X03565Y03764*
X03565Y03764*
X03565Y03764*
X03565Y03764*
X03565Y03764*
X03565Y03764*
X03564Y03764*
X03564Y03764*
X03564Y03764*
X03564Y03763*
X03564Y03763*
X03564Y03763*
X03563Y03763*
X03563Y03763*
X03533*
X03533Y03763*
G37*
G36*
Y03783D02*
X03533Y03783D01*
X03533Y03783*
X03533Y03783*
X03532Y03783*
X03532Y03783*
X03532Y03783*
X03532Y03783*
X03532Y03784*
X03532Y03784*
X03532Y03784*
X03531Y03784*
X03531Y03784*
X03531Y03784*
X03531Y03784*
X03531Y03784*
X03531Y03785*
X03531Y03785*
X03531Y03785*
X03531Y03785*
X03531Y03785*
X0353Y03785*
X0353Y03785*
X0353Y03786*
X0353Y03786*
X0353Y03786*
Y03786*
Y03786*
Y03794*
Y03794*
Y03795*
X0353Y03795*
X0353Y03795*
X0353Y03795*
X0353Y03795*
X03531Y03795*
X03531Y03796*
X03531Y03796*
X03531Y03796*
X03531Y03796*
X03531Y03796*
X03531Y03796*
X03531Y03796*
X03531Y03797*
X03531Y03797*
X03532Y03797*
X03532Y03797*
X03532Y03797*
X03532Y03797*
X03532Y03797*
X03532Y03797*
X03532Y03797*
X03533Y03797*
X03533Y03797*
X03533Y03797*
X03533Y03798*
X03533Y03798*
X03563*
X03563Y03798*
X03564Y03797*
X03564Y03797*
X03564Y03797*
X03564Y03797*
X03564Y03797*
X03564Y03797*
X03565Y03797*
X03565Y03797*
X03565Y03797*
X03565Y03797*
X03565Y03797*
X03565Y03797*
X03565Y03796*
X03565Y03796*
X03566Y03796*
X03566Y03796*
X03566Y03796*
X03566Y03796*
X03566Y03796*
X03566Y03795*
X03566Y03795*
X03566Y03795*
X03566Y03795*
X03566Y03795*
X03566Y03795*
Y03794*
Y03794*
Y03786*
Y03786*
Y03786*
X03566Y03786*
X03566Y03786*
X03566Y03785*
X03566Y03785*
X03566Y03785*
X03566Y03785*
X03566Y03785*
X03566Y03785*
X03566Y03785*
X03566Y03784*
X03565Y03784*
X03565Y03784*
X03565Y03784*
X03565Y03784*
X03565Y03784*
X03565Y03784*
X03565Y03784*
X03565Y03783*
X03564Y03783*
X03564Y03783*
X03564Y03783*
X03564Y03783*
X03564Y03783*
X03564Y03783*
X03563Y03783*
X03563Y03783*
X03533*
X03533Y03783*
G37*
G36*
Y03822D02*
X03533Y03822D01*
X03533Y03822*
X03533Y03823*
X03532Y03823*
X03532Y03823*
X03532Y03823*
X03532Y03823*
X03532Y03823*
X03532Y03823*
X03532Y03823*
X03531Y03823*
X03531Y03823*
X03531Y03823*
X03531Y03824*
X03531Y03824*
X03531Y03824*
X03531Y03824*
X03531Y03824*
X03531Y03824*
X03531Y03825*
X0353Y03825*
X0353Y03825*
X0353Y03825*
X0353Y03825*
X0353Y03825*
Y03826*
Y03826*
Y03834*
Y03834*
Y03834*
X0353Y03834*
X0353Y03834*
X0353Y03835*
X0353Y03835*
X03531Y03835*
X03531Y03835*
X03531Y03835*
X03531Y03835*
X03531Y03835*
X03531Y03836*
X03531Y03836*
X03531Y03836*
X03531Y03836*
X03531Y03836*
X03532Y03836*
X03532Y03836*
X03532Y03836*
X03532Y03837*
X03532Y03837*
X03532Y03837*
X03532Y03837*
X03533Y03837*
X03533Y03837*
X03533Y03837*
X03533Y03837*
X03533Y03837*
X03563*
X03563Y03837*
X03564Y03837*
X03564Y03837*
X03564Y03837*
X03564Y03837*
X03564Y03837*
X03564Y03837*
X03565Y03837*
X03565Y03836*
X03565Y03836*
X03565Y03836*
X03565Y03836*
X03565Y03836*
X03565Y03836*
X03565Y03836*
X03566Y03836*
X03566Y03835*
X03566Y03835*
X03566Y03835*
X03566Y03835*
X03566Y03835*
X03566Y03835*
X03566Y03835*
X03566Y03834*
X03566Y03834*
X03566Y03834*
Y03834*
Y03834*
Y03826*
Y03826*
Y03825*
X03566Y03825*
X03566Y03825*
X03566Y03825*
X03566Y03825*
X03566Y03825*
X03566Y03824*
X03566Y03824*
X03566Y03824*
X03566Y03824*
X03566Y03824*
X03565Y03824*
X03565Y03823*
X03565Y03823*
X03565Y03823*
X03565Y03823*
X03565Y03823*
X03565Y03823*
X03565Y03823*
X03564Y03823*
X03564Y03823*
X03564Y03823*
X03564Y03823*
X03564Y03822*
X03564Y03822*
X03563Y03822*
X03563Y03822*
X03533*
X03533Y03822*
G37*
G36*
Y03803D02*
X03533Y03803D01*
X03533Y03803*
X03533Y03803*
X03532Y03803*
X03532Y03803*
X03532Y03803*
X03532Y03803*
X03532Y03803*
X03532Y03803*
X03532Y03803*
X03531Y03804*
X03531Y03804*
X03531Y03804*
X03531Y03804*
X03531Y03804*
X03531Y03804*
X03531Y03804*
X03531Y03805*
X03531Y03805*
X03531Y03805*
X0353Y03805*
X0353Y03805*
X0353Y03805*
X0353Y03805*
X0353Y03806*
Y03806*
Y03806*
Y03814*
Y03814*
Y03814*
X0353Y03814*
X0353Y03815*
X0353Y03815*
X0353Y03815*
X03531Y03815*
X03531Y03815*
X03531Y03815*
X03531Y03816*
X03531Y03816*
X03531Y03816*
X03531Y03816*
X03531Y03816*
X03531Y03816*
X03531Y03816*
X03532Y03817*
X03532Y03817*
X03532Y03817*
X03532Y03817*
X03532Y03817*
X03532Y03817*
X03532Y03817*
X03533Y03817*
X03533Y03817*
X03533Y03817*
X03533Y03817*
X03533Y03817*
X03563*
X03563Y03817*
X03564Y03817*
X03564Y03817*
X03564Y03817*
X03564Y03817*
X03564Y03817*
X03564Y03817*
X03565Y03817*
X03565Y03817*
X03565Y03817*
X03565Y03817*
X03565Y03816*
X03565Y03816*
X03565Y03816*
X03565Y03816*
X03566Y03816*
X03566Y03816*
X03566Y03816*
X03566Y03815*
X03566Y03815*
X03566Y03815*
X03566Y03815*
X03566Y03815*
X03566Y03815*
X03566Y03814*
X03566Y03814*
Y03814*
Y03814*
Y03806*
Y03806*
Y03806*
X03566Y03805*
X03566Y03805*
X03566Y03805*
X03566Y03805*
X03566Y03805*
X03566Y03805*
X03566Y03805*
X03566Y03804*
X03566Y03804*
X03566Y03804*
X03565Y03804*
X03565Y03804*
X03565Y03804*
X03565Y03804*
X03565Y03803*
X03565Y03803*
X03565Y03803*
X03565Y03803*
X03564Y03803*
X03564Y03803*
X03564Y03803*
X03564Y03803*
X03564Y03803*
X03564Y03803*
X03563Y03803*
X03563Y03803*
X03533*
X03533Y03803*
G37*
G36*
X03571Y03725D02*
X03571Y03725D01*
X03571Y03725*
X03571Y03725*
X0357Y03726*
X0357Y03726*
X0357Y03726*
X0357Y03726*
X0357Y03726*
X0357Y03726*
X0357Y03726*
X03569Y03726*
X03569Y03726*
X03569Y03726*
X03569Y03727*
X03569Y03727*
X03569Y03727*
X03569Y03727*
X03569Y03727*
X03569Y03727*
X03569Y03727*
X03568Y03728*
X03568Y03728*
X03568Y03728*
X03568Y03728*
X03568Y03728*
Y03728*
Y03729*
Y03758*
Y03758*
Y03758*
X03568Y03758*
X03568Y03759*
X03568Y03759*
X03568Y03759*
X03569Y03759*
X03569Y03759*
X03569Y03759*
X03569Y0376*
X03569Y0376*
X03569Y0376*
X03569Y0376*
X03569Y0376*
X03569Y0376*
X03569Y0376*
X0357Y0376*
X0357Y03761*
X0357Y03761*
X0357Y03761*
X0357Y03761*
X0357Y03761*
X0357Y03761*
X03571Y03761*
X03571Y03761*
X03571Y03761*
X03571Y03761*
X03571Y03761*
X0358*
X0358Y03761*
X0358Y03761*
X0358Y03761*
X03581Y03761*
X03581Y03761*
X03581Y03761*
X03581Y03761*
X03581Y03761*
X03581Y03761*
X03582Y03761*
X03582Y0376*
X03582Y0376*
X03582Y0376*
X03582Y0376*
X03582Y0376*
X03582Y0376*
X03582Y0376*
X03582Y0376*
X03583Y03759*
X03583Y03759*
X03583Y03759*
X03583Y03759*
X03583Y03759*
X03583Y03759*
X03583Y03758*
X03583Y03758*
Y03758*
Y03758*
Y03729*
Y03728*
Y03728*
X03583Y03728*
X03583Y03728*
X03583Y03728*
X03583Y03728*
X03583Y03727*
X03583Y03727*
X03583Y03727*
X03582Y03727*
X03582Y03727*
X03582Y03727*
X03582Y03727*
X03582Y03726*
X03582Y03726*
X03582Y03726*
X03582Y03726*
X03582Y03726*
X03581Y03726*
X03581Y03726*
X03581Y03726*
X03581Y03726*
X03581Y03726*
X03581Y03725*
X0358Y03725*
X0358Y03725*
X0358Y03725*
X0358Y03725*
X03571*
X03571Y03725*
G37*
G36*
X03591D02*
X03591Y03725D01*
X0359Y03725*
X0359Y03725*
X0359Y03726*
X0359Y03726*
X0359Y03726*
X0359Y03726*
X0359Y03726*
X03589Y03726*
X03589Y03726*
X03589Y03726*
X03589Y03726*
X03589Y03726*
X03589Y03727*
X03589Y03727*
X03589Y03727*
X03588Y03727*
X03588Y03727*
X03588Y03727*
X03588Y03727*
X03588Y03728*
X03588Y03728*
X03588Y03728*
X03588Y03728*
X03588Y03728*
Y03728*
Y03729*
Y03758*
Y03758*
Y03758*
X03588Y03758*
X03588Y03759*
X03588Y03759*
X03588Y03759*
X03588Y03759*
X03588Y03759*
X03588Y03759*
X03588Y0376*
X03589Y0376*
X03589Y0376*
X03589Y0376*
X03589Y0376*
X03589Y0376*
X03589Y0376*
X03589Y0376*
X03589Y03761*
X0359Y03761*
X0359Y03761*
X0359Y03761*
X0359Y03761*
X0359Y03761*
X0359Y03761*
X0359Y03761*
X03591Y03761*
X03591Y03761*
X03591Y03761*
X036*
X036Y03761*
X036Y03761*
X036Y03761*
X036Y03761*
X036Y03761*
X03601Y03761*
X03601Y03761*
X03601Y03761*
X03601Y03761*
X03601Y03761*
X03601Y0376*
X03601Y0376*
X03602Y0376*
X03602Y0376*
X03602Y0376*
X03602Y0376*
X03602Y0376*
X03602Y0376*
X03602Y03759*
X03602Y03759*
X03602Y03759*
X03602Y03759*
X03602Y03759*
X03602Y03759*
X03603Y03758*
X03603Y03758*
Y03758*
Y03758*
Y03729*
Y03728*
Y03728*
X03603Y03728*
X03602Y03728*
X03602Y03728*
X03602Y03728*
X03602Y03727*
X03602Y03727*
X03602Y03727*
X03602Y03727*
X03602Y03727*
X03602Y03727*
X03602Y03727*
X03602Y03726*
X03602Y03726*
X03601Y03726*
X03601Y03726*
X03601Y03726*
X03601Y03726*
X03601Y03726*
X03601Y03726*
X03601Y03726*
X036Y03726*
X036Y03725*
X036Y03725*
X036Y03725*
X036Y03725*
X036Y03725*
X03591*
X03591Y03725*
G37*
G36*
X0363D02*
X0363Y03725D01*
X0363Y03725*
X0363Y03725*
X0363Y03726*
X03629Y03726*
X03629Y03726*
X03629Y03726*
X03629Y03726*
X03629Y03726*
X03629Y03726*
X03628Y03726*
X03628Y03726*
X03628Y03726*
X03628Y03727*
X03628Y03727*
X03628Y03727*
X03628Y03727*
X03628Y03727*
X03628Y03727*
X03628Y03727*
X03628Y03728*
X03627Y03728*
X03627Y03728*
X03627Y03728*
X03627Y03728*
Y03728*
Y03729*
Y03758*
Y03758*
Y03758*
X03627Y03758*
X03627Y03759*
X03627Y03759*
X03628Y03759*
X03628Y03759*
X03628Y03759*
X03628Y03759*
X03628Y0376*
X03628Y0376*
X03628Y0376*
X03628Y0376*
X03628Y0376*
X03628Y0376*
X03628Y0376*
X03629Y0376*
X03629Y03761*
X03629Y03761*
X03629Y03761*
X03629Y03761*
X03629Y03761*
X0363Y03761*
X0363Y03761*
X0363Y03761*
X0363Y03761*
X0363Y03761*
X0363Y03761*
X03639*
X03639Y03761*
X03639Y03761*
X0364Y03761*
X0364Y03761*
X0364Y03761*
X0364Y03761*
X0364Y03761*
X0364Y03761*
X0364Y03761*
X03641Y03761*
X03641Y0376*
X03641Y0376*
X03641Y0376*
X03641Y0376*
X03641Y0376*
X03641Y0376*
X03641Y0376*
X03642Y0376*
X03642Y03759*
X03642Y03759*
X03642Y03759*
X03642Y03759*
X03642Y03759*
X03642Y03759*
X03642Y03758*
X03642Y03758*
Y03758*
Y03758*
Y03729*
Y03728*
Y03728*
X03642Y03728*
X03642Y03728*
X03642Y03728*
X03642Y03728*
X03642Y03727*
X03642Y03727*
X03642Y03727*
X03642Y03727*
X03641Y03727*
X03641Y03727*
X03641Y03727*
X03641Y03726*
X03641Y03726*
X03641Y03726*
X03641Y03726*
X03641Y03726*
X0364Y03726*
X0364Y03726*
X0364Y03726*
X0364Y03726*
X0364Y03726*
X0364Y03725*
X0364Y03725*
X03639Y03725*
X03639Y03725*
X03639Y03725*
X0363*
X0363Y03725*
G37*
G36*
X0361D02*
X0361Y03725D01*
X0361Y03725*
X0361Y03725*
X0361Y03726*
X0361Y03726*
X0361Y03726*
X03609Y03726*
X03609Y03726*
X03609Y03726*
X03609Y03726*
X03609Y03726*
X03609Y03726*
X03609Y03726*
X03608Y03727*
X03608Y03727*
X03608Y03727*
X03608Y03727*
X03608Y03727*
X03608Y03727*
X03608Y03727*
X03608Y03728*
X03608Y03728*
X03608Y03728*
X03608Y03728*
X03608Y03728*
Y03728*
Y03729*
Y03758*
Y03758*
Y03758*
X03608Y03758*
X03608Y03759*
X03608Y03759*
X03608Y03759*
X03608Y03759*
X03608Y03759*
X03608Y03759*
X03608Y0376*
X03608Y0376*
X03608Y0376*
X03608Y0376*
X03609Y0376*
X03609Y0376*
X03609Y0376*
X03609Y0376*
X03609Y03761*
X03609Y03761*
X03609Y03761*
X0361Y03761*
X0361Y03761*
X0361Y03761*
X0361Y03761*
X0361Y03761*
X0361Y03761*
X0361Y03761*
X03611Y03761*
X03619*
X03619Y03761*
X0362Y03761*
X0362Y03761*
X0362Y03761*
X0362Y03761*
X0362Y03761*
X0362Y03761*
X03621Y03761*
X03621Y03761*
X03621Y03761*
X03621Y0376*
X03621Y0376*
X03621Y0376*
X03621Y0376*
X03622Y0376*
X03622Y0376*
X03622Y0376*
X03622Y0376*
X03622Y03759*
X03622Y03759*
X03622Y03759*
X03622Y03759*
X03622Y03759*
X03622Y03759*
X03622Y03758*
X03622Y03758*
Y03758*
Y03758*
Y03729*
Y03728*
Y03728*
X03622Y03728*
X03622Y03728*
X03622Y03728*
X03622Y03728*
X03622Y03727*
X03622Y03727*
X03622Y03727*
X03622Y03727*
X03622Y03727*
X03622Y03727*
X03622Y03727*
X03621Y03726*
X03621Y03726*
X03621Y03726*
X03621Y03726*
X03621Y03726*
X03621Y03726*
X03621Y03726*
X0362Y03726*
X0362Y03726*
X0362Y03726*
X0362Y03725*
X0362Y03725*
X0362Y03725*
X03619Y03725*
X03619Y03725*
X03611*
X0361Y03725*
G37*
G36*
X03533Y03842D02*
X03533Y03842D01*
X03533Y03842*
X03533Y03842*
X03532Y03842*
X03532Y03842*
X03532Y03842*
X03532Y03842*
X03532Y03843*
X03532Y03843*
X03532Y03843*
X03531Y03843*
X03531Y03843*
X03531Y03843*
X03531Y03843*
X03531Y03843*
X03531Y03844*
X03531Y03844*
X03531Y03844*
X03531Y03844*
X03531Y03844*
X0353Y03844*
X0353Y03845*
X0353Y03845*
X0353Y03845*
X0353Y03845*
Y03845*
Y03845*
Y03853*
Y03853*
Y03854*
X0353Y03854*
X0353Y03854*
X0353Y03854*
X0353Y03854*
X03531Y03855*
X03531Y03855*
X03531Y03855*
X03531Y03855*
X03531Y03855*
X03531Y03855*
X03531Y03855*
X03531Y03856*
X03531Y03856*
X03531Y03856*
X03532Y03856*
X03532Y03856*
X03532Y03856*
X03532Y03856*
X03532Y03856*
X03532Y03856*
X03532Y03856*
X03533Y03856*
X03533Y03857*
X03533Y03857*
X03533Y03857*
X03533Y03857*
X03563*
X03563Y03857*
X03564Y03857*
X03564Y03857*
X03564Y03856*
X03564Y03856*
X03564Y03856*
X03564Y03856*
X03565Y03856*
X03565Y03856*
X03565Y03856*
X03565Y03856*
X03565Y03856*
X03565Y03856*
X03565Y03856*
X03565Y03855*
X03566Y03855*
X03566Y03855*
X03566Y03855*
X03566Y03855*
X03566Y03855*
X03566Y03855*
X03566Y03854*
X03566Y03854*
X03566Y03854*
X03566Y03854*
X03566Y03854*
Y03853*
Y03853*
Y03845*
Y03845*
Y03845*
X03566Y03845*
X03566Y03845*
X03566Y03845*
X03566Y03844*
X03566Y03844*
X03566Y03844*
X03566Y03844*
X03566Y03844*
X03566Y03844*
X03566Y03843*
X03565Y03843*
X03565Y03843*
X03565Y03843*
X03565Y03843*
X03565Y03843*
X03565Y03843*
X03565Y03843*
X03565Y03842*
X03564Y03842*
X03564Y03842*
X03564Y03842*
X03564Y03842*
X03564Y03842*
X03564Y03842*
X03563Y03842*
X03563Y03842*
X03533*
X03533Y03842*
G37*
G36*
Y03862D02*
X03533Y03862D01*
X03533Y03862*
X03533Y03862*
X03532Y03862*
X03532Y03862*
X03532Y03862*
X03532Y03862*
X03532Y03862*
X03532Y03862*
X03532Y03862*
X03531Y03863*
X03531Y03863*
X03531Y03863*
X03531Y03863*
X03531Y03863*
X03531Y03863*
X03531Y03863*
X03531Y03864*
X03531Y03864*
X03531Y03864*
X0353Y03864*
X0353Y03864*
X0353Y03864*
X0353Y03865*
X0353Y03865*
Y03865*
Y03865*
Y03873*
Y03873*
Y03873*
X0353Y03874*
X0353Y03874*
X0353Y03874*
X0353Y03874*
X03531Y03874*
X03531Y03874*
X03531Y03875*
X03531Y03875*
X03531Y03875*
X03531Y03875*
X03531Y03875*
X03531Y03875*
X03531Y03875*
X03531Y03875*
X03532Y03876*
X03532Y03876*
X03532Y03876*
X03532Y03876*
X03532Y03876*
X03532Y03876*
X03532Y03876*
X03533Y03876*
X03533Y03876*
X03533Y03876*
X03533Y03876*
X03533Y03876*
X03563*
X03563Y03876*
X03564Y03876*
X03564Y03876*
X03564Y03876*
X03564Y03876*
X03564Y03876*
X03564Y03876*
X03565Y03876*
X03565Y03876*
X03565Y03876*
X03565Y03876*
X03565Y03875*
X03565Y03875*
X03565Y03875*
X03565Y03875*
X03566Y03875*
X03566Y03875*
X03566Y03875*
X03566Y03875*
X03566Y03874*
X03566Y03874*
X03566Y03874*
X03566Y03874*
X03566Y03874*
X03566Y03874*
X03566Y03873*
Y03873*
Y03873*
Y03865*
Y03865*
Y03865*
X03566Y03865*
X03566Y03864*
X03566Y03864*
X03566Y03864*
X03566Y03864*
X03566Y03864*
X03566Y03864*
X03566Y03863*
X03566Y03863*
X03566Y03863*
X03565Y03863*
X03565Y03863*
X03565Y03863*
X03565Y03863*
X03565Y03862*
X03565Y03862*
X03565Y03862*
X03565Y03862*
X03564Y03862*
X03564Y03862*
X03564Y03862*
X03564Y03862*
X03564Y03862*
X03564Y03862*
X03563Y03862*
X03563Y03862*
X03533*
X03533Y03862*
G37*
G36*
Y03881D02*
X03533Y03882D01*
X03533Y03882*
X03533Y03882*
X03532Y03882*
X03532Y03882*
X03532Y03882*
X03532Y03882*
X03532Y03882*
X03532Y03882*
X03532Y03882*
X03531Y03882*
X03531Y03882*
X03531Y03883*
X03531Y03883*
X03531Y03883*
X03531Y03883*
X03531Y03883*
X03531Y03883*
X03531Y03883*
X03531Y03884*
X0353Y03884*
X0353Y03884*
X0353Y03884*
X0353Y03884*
X0353Y03884*
Y03885*
Y03885*
Y03893*
Y03893*
Y03893*
X0353Y03893*
X0353Y03893*
X0353Y03894*
X0353Y03894*
X03531Y03894*
X03531Y03894*
X03531Y03894*
X03531Y03894*
X03531Y03895*
X03531Y03895*
X03531Y03895*
X03531Y03895*
X03531Y03895*
X03531Y03895*
X03532Y03895*
X03532Y03895*
X03532Y03895*
X03532Y03896*
X03532Y03896*
X03532Y03896*
X03532Y03896*
X03533Y03896*
X03533Y03896*
X03533Y03896*
X03533Y03896*
X03533Y03896*
X03563*
X03563Y03896*
X03564Y03896*
X03564Y03896*
X03564Y03896*
X03564Y03896*
X03564Y03896*
X03564Y03896*
X03565Y03896*
X03565Y03895*
X03565Y03895*
X03565Y03895*
X03565Y03895*
X03565Y03895*
X03565Y03895*
X03565Y03895*
X03566Y03895*
X03566Y03895*
X03566Y03894*
X03566Y03894*
X03566Y03894*
X03566Y03894*
X03566Y03894*
X03566Y03894*
X03566Y03893*
X03566Y03893*
X03566Y03893*
Y03893*
Y03893*
Y03885*
Y03885*
Y03884*
X03566Y03884*
X03566Y03884*
X03566Y03884*
X03566Y03884*
X03566Y03884*
X03566Y03883*
X03566Y03883*
X03566Y03883*
X03566Y03883*
X03566Y03883*
X03565Y03883*
X03565Y03883*
X03565Y03882*
X03565Y03882*
X03565Y03882*
X03565Y03882*
X03565Y03882*
X03565Y03882*
X03564Y03882*
X03564Y03882*
X03564Y03882*
X03564Y03882*
X03564Y03882*
X03564Y03882*
X03563Y03881*
X03563Y03881*
X03533*
X03533Y03881*
G37*
G36*
Y03901D02*
X03533Y03901D01*
X03533Y03901*
X03533Y03901*
X03532Y03901*
X03532Y03901*
X03532Y03901*
X03532Y03902*
X03532Y03902*
X03532Y03902*
X03532Y03902*
X03531Y03902*
X03531Y03902*
X03531Y03902*
X03531Y03902*
X03531Y03902*
X03531Y03903*
X03531Y03903*
X03531Y03903*
X03531Y03903*
X03531Y03903*
X0353Y03903*
X0353Y03904*
X0353Y03904*
X0353Y03904*
X0353Y03904*
Y03904*
Y03904*
Y03912*
Y03913*
Y03913*
X0353Y03913*
X0353Y03913*
X0353Y03913*
X0353Y03913*
X03531Y03914*
X03531Y03914*
X03531Y03914*
X03531Y03914*
X03531Y03914*
X03531Y03914*
X03531Y03914*
X03531Y03915*
X03531Y03915*
X03531Y03915*
X03532Y03915*
X03532Y03915*
X03532Y03915*
X03532Y03915*
X03532Y03915*
X03532Y03915*
X03532Y03915*
X03533Y03916*
X03533Y03916*
X03533Y03916*
X03533Y03916*
X03533Y03916*
X03563*
X03563Y03916*
X03564Y03916*
X03564Y03916*
X03564Y03916*
X03564Y03915*
X03564Y03915*
X03564Y03915*
X03565Y03915*
X03565Y03915*
X03565Y03915*
X03565Y03915*
X03565Y03915*
X03565Y03915*
X03565Y03915*
X03565Y03914*
X03566Y03914*
X03566Y03914*
X03566Y03914*
X03566Y03914*
X03566Y03914*
X03566Y03914*
X03566Y03913*
X03566Y03913*
X03566Y03913*
X03566Y03913*
X03566Y03913*
Y03913*
Y03912*
Y03904*
Y03904*
Y03904*
X03566Y03904*
X03566Y03904*
X03566Y03904*
X03566Y03903*
X03566Y03903*
X03566Y03903*
X03566Y03903*
X03566Y03903*
X03566Y03903*
X03566Y03902*
X03565Y03902*
X03565Y03902*
X03565Y03902*
X03565Y03902*
X03565Y03902*
X03565Y03902*
X03565Y03902*
X03565Y03902*
X03564Y03901*
X03564Y03901*
X03564Y03901*
X03564Y03901*
X03564Y03901*
X03564Y03901*
X03563Y03901*
X03563Y03901*
X03533*
X03533Y03901*
G37*
G36*
X03571Y03918D02*
X03571Y03918D01*
X03571Y03918*
X03571Y03918*
X0357Y03918*
X0357Y03918*
X0357Y03918*
X0357Y03918*
X0357Y03918*
X0357Y03918*
X0357Y03919*
X03569Y03919*
X03569Y03919*
X03569Y03919*
X03569Y03919*
X03569Y03919*
X03569Y03919*
X03569Y0392*
X03569Y0392*
X03569Y0392*
X03569Y0392*
X03568Y0392*
X03568Y0392*
X03568Y0392*
X03568Y03921*
X03568Y03921*
Y03921*
Y03921*
Y0395*
Y03951*
Y03951*
X03568Y03951*
X03568Y03951*
X03568Y03951*
X03568Y03951*
X03569Y03952*
X03569Y03952*
X03569Y03952*
X03569Y03952*
X03569Y03952*
X03569Y03952*
X03569Y03952*
X03569Y03953*
X03569Y03953*
X03569Y03953*
X0357Y03953*
X0357Y03953*
X0357Y03953*
X0357Y03953*
X0357Y03953*
X0357Y03953*
X0357Y03953*
X03571Y03954*
X03571Y03954*
X03571Y03954*
X03571Y03954*
X03571Y03954*
X0358*
X0358Y03954*
X0358Y03954*
X0358Y03954*
X03581Y03954*
X03581Y03953*
X03581Y03953*
X03581Y03953*
X03581Y03953*
X03581Y03953*
X03582Y03953*
X03582Y03953*
X03582Y03953*
X03582Y03953*
X03582Y03953*
X03582Y03952*
X03582Y03952*
X03582Y03952*
X03582Y03952*
X03583Y03952*
X03583Y03952*
X03583Y03952*
X03583Y03951*
X03583Y03951*
X03583Y03951*
X03583Y03951*
X03583Y03951*
Y03951*
Y0395*
Y03921*
Y03921*
Y03921*
X03583Y03921*
X03583Y0392*
X03583Y0392*
X03583Y0392*
X03583Y0392*
X03583Y0392*
X03583Y0392*
X03582Y0392*
X03582Y03919*
X03582Y03919*
X03582Y03919*
X03582Y03919*
X03582Y03919*
X03582Y03919*
X03582Y03919*
X03582Y03918*
X03581Y03918*
X03581Y03918*
X03581Y03918*
X03581Y03918*
X03581Y03918*
X03581Y03918*
X0358Y03918*
X0358Y03918*
X0358Y03918*
X0358Y03918*
X03571*
X03571Y03918*
G37*
G36*
X03591D02*
X03591Y03918D01*
X0359Y03918*
X0359Y03918*
X0359Y03918*
X0359Y03918*
X0359Y03918*
X0359Y03918*
X0359Y03918*
X03589Y03918*
X03589Y03919*
X03589Y03919*
X03589Y03919*
X03589Y03919*
X03589Y03919*
X03589Y03919*
X03589Y03919*
X03588Y0392*
X03588Y0392*
X03588Y0392*
X03588Y0392*
X03588Y0392*
X03588Y0392*
X03588Y0392*
X03588Y03921*
X03588Y03921*
Y03921*
Y03921*
Y0395*
Y03951*
Y03951*
X03588Y03951*
X03588Y03951*
X03588Y03951*
X03588Y03951*
X03588Y03952*
X03588Y03952*
X03588Y03952*
X03588Y03952*
X03589Y03952*
X03589Y03952*
X03589Y03952*
X03589Y03953*
X03589Y03953*
X03589Y03953*
X03589Y03953*
X03589Y03953*
X0359Y03953*
X0359Y03953*
X0359Y03953*
X0359Y03953*
X0359Y03953*
X0359Y03954*
X0359Y03954*
X03591Y03954*
X03591Y03954*
X03591Y03954*
X036*
X036Y03954*
X036Y03954*
X036Y03954*
X036Y03954*
X036Y03953*
X03601Y03953*
X03601Y03953*
X03601Y03953*
X03601Y03953*
X03601Y03953*
X03601Y03953*
X03601Y03953*
X03602Y03953*
X03602Y03953*
X03602Y03952*
X03602Y03952*
X03602Y03952*
X03602Y03952*
X03602Y03952*
X03602Y03952*
X03602Y03952*
X03602Y03951*
X03602Y03951*
X03602Y03951*
X03603Y03951*
X03603Y03951*
Y03951*
Y0395*
Y03921*
Y03921*
Y03921*
X03603Y03921*
X03602Y0392*
X03602Y0392*
X03602Y0392*
X03602Y0392*
X03602Y0392*
X03602Y0392*
X03602Y0392*
X03602Y03919*
X03602Y03919*
X03602Y03919*
X03602Y03919*
X03602Y03919*
X03601Y03919*
X03601Y03919*
X03601Y03918*
X03601Y03918*
X03601Y03918*
X03601Y03918*
X03601Y03918*
X036Y03918*
X036Y03918*
X036Y03918*
X036Y03918*
X036Y03918*
X036Y03918*
X03591*
X03591Y03918*
G37*
G36*
X0361D02*
X0361Y03918D01*
X0361Y03918*
X0361Y03918*
X0361Y03918*
X0361Y03918*
X0361Y03918*
X03609Y03918*
X03609Y03918*
X03609Y03918*
X03609Y03919*
X03609Y03919*
X03609Y03919*
X03609Y03919*
X03608Y03919*
X03608Y03919*
X03608Y03919*
X03608Y0392*
X03608Y0392*
X03608Y0392*
X03608Y0392*
X03608Y0392*
X03608Y0392*
X03608Y0392*
X03608Y03921*
X03608Y03921*
Y03921*
Y03921*
Y0395*
Y03951*
Y03951*
X03608Y03951*
X03608Y03951*
X03608Y03951*
X03608Y03951*
X03608Y03952*
X03608Y03952*
X03608Y03952*
X03608Y03952*
X03608Y03952*
X03608Y03952*
X03608Y03952*
X03609Y03953*
X03609Y03953*
X03609Y03953*
X03609Y03953*
X03609Y03953*
X03609Y03953*
X03609Y03953*
X0361Y03953*
X0361Y03953*
X0361Y03953*
X0361Y03954*
X0361Y03954*
X0361Y03954*
X0361Y03954*
X03611Y03954*
X03619*
X03619Y03954*
X0362Y03954*
X0362Y03954*
X0362Y03954*
X0362Y03953*
X0362Y03953*
X0362Y03953*
X03621Y03953*
X03621Y03953*
X03621Y03953*
X03621Y03953*
X03621Y03953*
X03621Y03953*
X03621Y03953*
X03622Y03952*
X03622Y03952*
X03622Y03952*
X03622Y03952*
X03622Y03952*
X03622Y03952*
X03622Y03952*
X03622Y03951*
X03622Y03951*
X03622Y03951*
X03622Y03951*
X03622Y03951*
Y03951*
Y0395*
Y03921*
Y03921*
Y03921*
X03622Y03921*
X03622Y0392*
X03622Y0392*
X03622Y0392*
X03622Y0392*
X03622Y0392*
X03622Y0392*
X03622Y0392*
X03622Y03919*
X03622Y03919*
X03622Y03919*
X03621Y03919*
X03621Y03919*
X03621Y03919*
X03621Y03919*
X03621Y03918*
X03621Y03918*
X03621Y03918*
X0362Y03918*
X0362Y03918*
X0362Y03918*
X0362Y03918*
X0362Y03918*
X0362Y03918*
X03619Y03918*
X03619Y03918*
X03611*
X0361Y03918*
G37*
G36*
X0363D02*
X0363Y03918D01*
X0363Y03918*
X0363Y03918*
X0363Y03918*
X03629Y03918*
X03629Y03918*
X03629Y03918*
X03629Y03918*
X03629Y03918*
X03629Y03919*
X03628Y03919*
X03628Y03919*
X03628Y03919*
X03628Y03919*
X03628Y03919*
X03628Y03919*
X03628Y0392*
X03628Y0392*
X03628Y0392*
X03628Y0392*
X03628Y0392*
X03627Y0392*
X03627Y0392*
X03627Y03921*
X03627Y03921*
Y03921*
Y03921*
Y0395*
Y03951*
Y03951*
X03627Y03951*
X03627Y03951*
X03627Y03951*
X03628Y03951*
X03628Y03952*
X03628Y03952*
X03628Y03952*
X03628Y03952*
X03628Y03952*
X03628Y03952*
X03628Y03952*
X03628Y03953*
X03628Y03953*
X03628Y03953*
X03629Y03953*
X03629Y03953*
X03629Y03953*
X03629Y03953*
X03629Y03953*
X03629Y03953*
X0363Y03953*
X0363Y03954*
X0363Y03954*
X0363Y03954*
X0363Y03954*
X0363Y03954*
X03639*
X03639Y03954*
X03639Y03954*
X0364Y03954*
X0364Y03954*
X0364Y03953*
X0364Y03953*
X0364Y03953*
X0364Y03953*
X0364Y03953*
X03641Y03953*
X03641Y03953*
X03641Y03953*
X03641Y03953*
X03641Y03953*
X03641Y03952*
X03641Y03952*
X03641Y03952*
X03642Y03952*
X03642Y03952*
X03642Y03952*
X03642Y03952*
X03642Y03951*
X03642Y03951*
X03642Y03951*
X03642Y03951*
X03642Y03951*
Y03951*
Y0395*
Y03921*
Y03921*
Y03921*
X03642Y03921*
X03642Y0392*
X03642Y0392*
X03642Y0392*
X03642Y0392*
X03642Y0392*
X03642Y0392*
X03642Y0392*
X03641Y03919*
X03641Y03919*
X03641Y03919*
X03641Y03919*
X03641Y03919*
X03641Y03919*
X03641Y03919*
X03641Y03918*
X0364Y03918*
X0364Y03918*
X0364Y03918*
X0364Y03918*
X0364Y03918*
X0364Y03918*
X0364Y03918*
X03639Y03918*
X03639Y03918*
X03639Y03918*
X0363*
X0363Y03918*
G37*
G36*
X0365Y03725D02*
X0365Y03725D01*
X0365Y03725*
X03649Y03725*
X03649Y03726*
X03649Y03726*
X03649Y03726*
X03649Y03726*
X03649Y03726*
X03648Y03726*
X03648Y03726*
X03648Y03726*
X03648Y03726*
X03648Y03726*
X03648Y03727*
X03648Y03727*
X03648Y03727*
X03647Y03727*
X03647Y03727*
X03647Y03727*
X03647Y03727*
X03647Y03728*
X03647Y03728*
X03647Y03728*
X03647Y03728*
X03647Y03728*
Y03728*
Y03729*
Y03758*
Y03758*
Y03758*
X03647Y03758*
X03647Y03759*
X03647Y03759*
X03647Y03759*
X03647Y03759*
X03647Y03759*
X03647Y03759*
X03647Y0376*
X03648Y0376*
X03648Y0376*
X03648Y0376*
X03648Y0376*
X03648Y0376*
X03648Y0376*
X03648Y0376*
X03648Y03761*
X03649Y03761*
X03649Y03761*
X03649Y03761*
X03649Y03761*
X03649Y03761*
X03649Y03761*
X0365Y03761*
X0365Y03761*
X0365Y03761*
X0365Y03761*
X03659*
X03659Y03761*
X03659Y03761*
X03659Y03761*
X03659Y03761*
X0366Y03761*
X0366Y03761*
X0366Y03761*
X0366Y03761*
X0366Y03761*
X0366Y03761*
X0366Y0376*
X03661Y0376*
X03661Y0376*
X03661Y0376*
X03661Y0376*
X03661Y0376*
X03661Y0376*
X03661Y0376*
X03661Y03759*
X03661Y03759*
X03661Y03759*
X03661Y03759*
X03662Y03759*
X03662Y03759*
X03662Y03758*
X03662Y03758*
Y03758*
Y03758*
Y03729*
Y03728*
Y03728*
X03662Y03728*
X03662Y03728*
X03662Y03728*
X03661Y03728*
X03661Y03727*
X03661Y03727*
X03661Y03727*
X03661Y03727*
X03661Y03727*
X03661Y03727*
X03661Y03727*
X03661Y03726*
X03661Y03726*
X03661Y03726*
X0366Y03726*
X0366Y03726*
X0366Y03726*
X0366Y03726*
X0366Y03726*
X0366Y03726*
X0366Y03726*
X03659Y03725*
X03659Y03725*
X03659Y03725*
X03659Y03725*
X03659Y03725*
X0365*
X0365Y03725*
G37*
G36*
X0367D02*
X03669Y03725D01*
X03669Y03725*
X03669Y03725*
X03669Y03726*
X03669Y03726*
X03669Y03726*
X03668Y03726*
X03668Y03726*
X03668Y03726*
X03668Y03726*
X03668Y03726*
X03668Y03726*
X03668Y03726*
X03667Y03727*
X03667Y03727*
X03667Y03727*
X03667Y03727*
X03667Y03727*
X03667Y03727*
X03667Y03727*
X03667Y03728*
X03667Y03728*
X03667Y03728*
X03667Y03728*
X03667Y03728*
Y03728*
Y03729*
Y03758*
Y03758*
Y03758*
X03667Y03758*
X03667Y03759*
X03667Y03759*
X03667Y03759*
X03667Y03759*
X03667Y03759*
X03667Y03759*
X03667Y0376*
X03667Y0376*
X03667Y0376*
X03667Y0376*
X03668Y0376*
X03668Y0376*
X03668Y0376*
X03668Y0376*
X03668Y03761*
X03668Y03761*
X03668Y03761*
X03669Y03761*
X03669Y03761*
X03669Y03761*
X03669Y03761*
X03669Y03761*
X03669Y03761*
X0367Y03761*
X0367Y03761*
X03678*
X03679Y03761*
X03679Y03761*
X03679Y03761*
X03679Y03761*
X03679Y03761*
X03679Y03761*
X0368Y03761*
X0368Y03761*
X0368Y03761*
X0368Y03761*
X0368Y0376*
X0368Y0376*
X0368Y0376*
X0368Y0376*
X03681Y0376*
X03681Y0376*
X03681Y0376*
X03681Y0376*
X03681Y03759*
X03681Y03759*
X03681Y03759*
X03681Y03759*
X03681Y03759*
X03681Y03759*
X03681Y03758*
X03681Y03758*
Y03758*
Y03758*
Y03729*
Y03728*
Y03728*
X03681Y03728*
X03681Y03728*
X03681Y03728*
X03681Y03728*
X03681Y03727*
X03681Y03727*
X03681Y03727*
X03681Y03727*
X03681Y03727*
X03681Y03727*
X03681Y03727*
X0368Y03726*
X0368Y03726*
X0368Y03726*
X0368Y03726*
X0368Y03726*
X0368Y03726*
X0368Y03726*
X0368Y03726*
X03679Y03726*
X03679Y03726*
X03679Y03725*
X03679Y03725*
X03679Y03725*
X03679Y03725*
X03678Y03725*
X0367*
X0367Y03725*
G37*
G36*
X03689D02*
X03689Y03725D01*
X03689Y03725*
X03689Y03725*
X03689Y03726*
X03688Y03726*
X03688Y03726*
X03688Y03726*
X03688Y03726*
X03688Y03726*
X03688Y03726*
X03688Y03726*
X03687Y03726*
X03687Y03726*
X03687Y03727*
X03687Y03727*
X03687Y03727*
X03687Y03727*
X03687Y03727*
X03687Y03727*
X03687Y03727*
X03687Y03728*
X03687Y03728*
X03687Y03728*
X03686Y03728*
X03686Y03728*
Y03728*
Y03729*
Y03758*
Y03758*
Y03758*
X03686Y03758*
X03687Y03759*
X03687Y03759*
X03687Y03759*
X03687Y03759*
X03687Y03759*
X03687Y03759*
X03687Y0376*
X03687Y0376*
X03687Y0376*
X03687Y0376*
X03687Y0376*
X03687Y0376*
X03688Y0376*
X03688Y0376*
X03688Y03761*
X03688Y03761*
X03688Y03761*
X03688Y03761*
X03688Y03761*
X03689Y03761*
X03689Y03761*
X03689Y03761*
X03689Y03761*
X03689Y03761*
X03689Y03761*
X03698*
X03698Y03761*
X03698Y03761*
X03699Y03761*
X03699Y03761*
X03699Y03761*
X03699Y03761*
X03699Y03761*
X03699Y03761*
X037Y03761*
X037Y03761*
X037Y0376*
X037Y0376*
X037Y0376*
X037Y0376*
X037Y0376*
X037Y0376*
X037Y0376*
X03701Y0376*
X03701Y03759*
X03701Y03759*
X03701Y03759*
X03701Y03759*
X03701Y03759*
X03701Y03759*
X03701Y03758*
X03701Y03758*
Y03758*
Y03758*
Y03729*
Y03728*
Y03728*
X03701Y03728*
X03701Y03728*
X03701Y03728*
X03701Y03728*
X03701Y03727*
X03701Y03727*
X03701Y03727*
X03701Y03727*
X037Y03727*
X037Y03727*
X037Y03727*
X037Y03726*
X037Y03726*
X037Y03726*
X037Y03726*
X037Y03726*
X037Y03726*
X03699Y03726*
X03699Y03726*
X03699Y03726*
X03699Y03726*
X03699Y03725*
X03699Y03725*
X03698Y03725*
X03698Y03725*
X03698Y03725*
X03689*
X03689Y03725*
G37*
G36*
X03709D02*
X03709Y03725D01*
X03709Y03725*
X03708Y03725*
X03708Y03726*
X03708Y03726*
X03708Y03726*
X03708Y03726*
X03708Y03726*
X03707Y03726*
X03707Y03726*
X03707Y03726*
X03707Y03726*
X03707Y03726*
X03707Y03727*
X03707Y03727*
X03707Y03727*
X03707Y03727*
X03706Y03727*
X03706Y03727*
X03706Y03727*
X03706Y03728*
X03706Y03728*
X03706Y03728*
X03706Y03728*
X03706Y03728*
Y03728*
Y03729*
Y03758*
Y03758*
Y03758*
X03706Y03758*
X03706Y03759*
X03706Y03759*
X03706Y03759*
X03706Y03759*
X03706Y03759*
X03706Y03759*
X03707Y0376*
X03707Y0376*
X03707Y0376*
X03707Y0376*
X03707Y0376*
X03707Y0376*
X03707Y0376*
X03707Y0376*
X03707Y03761*
X03708Y03761*
X03708Y03761*
X03708Y03761*
X03708Y03761*
X03708Y03761*
X03708Y03761*
X03709Y03761*
X03709Y03761*
X03709Y03761*
X03709Y03761*
X03718*
X03718Y03761*
X03718Y03761*
X03718Y03761*
X03718Y03761*
X03719Y03761*
X03719Y03761*
X03719Y03761*
X03719Y03761*
X03719Y03761*
X03719Y03761*
X03719Y0376*
X0372Y0376*
X0372Y0376*
X0372Y0376*
X0372Y0376*
X0372Y0376*
X0372Y0376*
X0372Y0376*
X0372Y03759*
X0372Y03759*
X0372Y03759*
X03721Y03759*
X03721Y03759*
X03721Y03759*
X03721Y03758*
X03721Y03758*
Y03758*
Y03758*
Y03729*
Y03728*
Y03728*
X03721Y03728*
X03721Y03728*
X03721Y03728*
X03721Y03728*
X0372Y03727*
X0372Y03727*
X0372Y03727*
X0372Y03727*
X0372Y03727*
X0372Y03727*
X0372Y03727*
X0372Y03726*
X0372Y03726*
X0372Y03726*
X03719Y03726*
X03719Y03726*
X03719Y03726*
X03719Y03726*
X03719Y03726*
X03719Y03726*
X03719Y03726*
X03718Y03725*
X03718Y03725*
X03718Y03725*
X03718Y03725*
X03718Y03725*
X03709*
X03709Y03725*
G37*
G36*
X03726Y03763D02*
X03725Y03763D01*
X03725Y03763*
X03725Y03763*
X03725Y03764*
X03725Y03764*
X03725Y03764*
X03725Y03764*
X03724Y03764*
X03724Y03764*
X03724Y03764*
X03724Y03764*
X03724Y03764*
X03724Y03764*
X03724Y03765*
X03723Y03765*
X03723Y03765*
X03723Y03765*
X03723Y03765*
X03723Y03765*
X03723Y03765*
X03723Y03766*
X03723Y03766*
X03723Y03766*
X03723Y03766*
X03723Y03766*
Y03766*
Y03767*
Y03775*
Y03775*
Y03775*
X03723Y03775*
X03723Y03775*
X03723Y03775*
X03723Y03776*
X03723Y03776*
X03723Y03776*
X03723Y03776*
X03723Y03776*
X03723Y03776*
X03723Y03777*
X03724Y03777*
X03724Y03777*
X03724Y03777*
X03724Y03777*
X03724Y03777*
X03724Y03777*
X03724Y03777*
X03725Y03777*
X03725Y03778*
X03725Y03778*
X03725Y03778*
X03725Y03778*
X03725Y03778*
X03725Y03778*
X03726Y03778*
X03726Y03778*
X03756*
X03756Y03778*
X03756Y03778*
X03756Y03778*
X03756Y03778*
X03757Y03778*
X03757Y03778*
X03757Y03778*
X03757Y03777*
X03757Y03777*
X03757Y03777*
X03757Y03777*
X03758Y03777*
X03758Y03777*
X03758Y03777*
X03758Y03777*
X03758Y03777*
X03758Y03776*
X03758Y03776*
X03758Y03776*
X03758Y03776*
X03758Y03776*
X03759Y03776*
X03759Y03775*
X03759Y03775*
X03759Y03775*
X03759Y03775*
Y03775*
Y03775*
Y03767*
Y03766*
Y03766*
X03759Y03766*
X03759Y03766*
X03759Y03766*
X03759Y03766*
X03758Y03765*
X03758Y03765*
X03758Y03765*
X03758Y03765*
X03758Y03765*
X03758Y03765*
X03758Y03765*
X03758Y03764*
X03758Y03764*
X03758Y03764*
X03757Y03764*
X03757Y03764*
X03757Y03764*
X03757Y03764*
X03757Y03764*
X03757Y03764*
X03757Y03764*
X03756Y03763*
X03756Y03763*
X03756Y03763*
X03756Y03763*
X03756Y03763*
X03726*
X03726Y03763*
G37*
G36*
Y03783D02*
X03725Y03783D01*
X03725Y03783*
X03725Y03783*
X03725Y03783*
X03725Y03783*
X03725Y03783*
X03725Y03783*
X03724Y03784*
X03724Y03784*
X03724Y03784*
X03724Y03784*
X03724Y03784*
X03724Y03784*
X03724Y03784*
X03723Y03784*
X03723Y03785*
X03723Y03785*
X03723Y03785*
X03723Y03785*
X03723Y03785*
X03723Y03785*
X03723Y03785*
X03723Y03786*
X03723Y03786*
X03723Y03786*
Y03786*
Y03786*
Y03794*
Y03794*
Y03795*
X03723Y03795*
X03723Y03795*
X03723Y03795*
X03723Y03795*
X03723Y03795*
X03723Y03796*
X03723Y03796*
X03723Y03796*
X03723Y03796*
X03723Y03796*
X03724Y03796*
X03724Y03796*
X03724Y03797*
X03724Y03797*
X03724Y03797*
X03724Y03797*
X03724Y03797*
X03725Y03797*
X03725Y03797*
X03725Y03797*
X03725Y03797*
X03725Y03797*
X03725Y03797*
X03725Y03797*
X03726Y03798*
X03726Y03798*
X03756*
X03756Y03798*
X03756Y03797*
X03756Y03797*
X03756Y03797*
X03757Y03797*
X03757Y03797*
X03757Y03797*
X03757Y03797*
X03757Y03797*
X03757Y03797*
X03757Y03797*
X03758Y03797*
X03758Y03797*
X03758Y03796*
X03758Y03796*
X03758Y03796*
X03758Y03796*
X03758Y03796*
X03758Y03796*
X03758Y03796*
X03758Y03795*
X03759Y03795*
X03759Y03795*
X03759Y03795*
X03759Y03795*
X03759Y03795*
Y03794*
Y03794*
Y03786*
Y03786*
Y03786*
X03759Y03786*
X03759Y03786*
X03759Y03785*
X03759Y03785*
X03758Y03785*
X03758Y03785*
X03758Y03785*
X03758Y03785*
X03758Y03785*
X03758Y03784*
X03758Y03784*
X03758Y03784*
X03758Y03784*
X03758Y03784*
X03757Y03784*
X03757Y03784*
X03757Y03784*
X03757Y03783*
X03757Y03783*
X03757Y03783*
X03757Y03783*
X03756Y03783*
X03756Y03783*
X03756Y03783*
X03756Y03783*
X03756Y03783*
X03726*
X03726Y03783*
G37*
G36*
Y03803D02*
X03725Y03803D01*
X03725Y03803*
X03725Y03803*
X03725Y03803*
X03725Y03803*
X03725Y03803*
X03725Y03803*
X03724Y03803*
X03724Y03803*
X03724Y03803*
X03724Y03804*
X03724Y03804*
X03724Y03804*
X03724Y03804*
X03723Y03804*
X03723Y03804*
X03723Y03804*
X03723Y03805*
X03723Y03805*
X03723Y03805*
X03723Y03805*
X03723Y03805*
X03723Y03805*
X03723Y03805*
X03723Y03806*
Y03806*
Y03806*
Y03814*
Y03814*
Y03814*
X03723Y03814*
X03723Y03815*
X03723Y03815*
X03723Y03815*
X03723Y03815*
X03723Y03815*
X03723Y03815*
X03723Y03816*
X03723Y03816*
X03723Y03816*
X03724Y03816*
X03724Y03816*
X03724Y03816*
X03724Y03816*
X03724Y03817*
X03724Y03817*
X03724Y03817*
X03725Y03817*
X03725Y03817*
X03725Y03817*
X03725Y03817*
X03725Y03817*
X03725Y03817*
X03725Y03817*
X03726Y03817*
X03726Y03817*
X03756*
X03756Y03817*
X03756Y03817*
X03756Y03817*
X03756Y03817*
X03757Y03817*
X03757Y03817*
X03757Y03817*
X03757Y03817*
X03757Y03817*
X03757Y03817*
X03757Y03817*
X03758Y03816*
X03758Y03816*
X03758Y03816*
X03758Y03816*
X03758Y03816*
X03758Y03816*
X03758Y03816*
X03758Y03815*
X03758Y03815*
X03758Y03815*
X03759Y03815*
X03759Y03815*
X03759Y03815*
X03759Y03814*
X03759Y03814*
Y03814*
Y03814*
Y03806*
Y03806*
Y03806*
X03759Y03805*
X03759Y03805*
X03759Y03805*
X03759Y03805*
X03758Y03805*
X03758Y03805*
X03758Y03805*
X03758Y03804*
X03758Y03804*
X03758Y03804*
X03758Y03804*
X03758Y03804*
X03758Y03804*
X03758Y03804*
X03757Y03803*
X03757Y03803*
X03757Y03803*
X03757Y03803*
X03757Y03803*
X03757Y03803*
X03757Y03803*
X03756Y03803*
X03756Y03803*
X03756Y03803*
X03756Y03803*
X03756Y03803*
X03726*
X03726Y03803*
G37*
G36*
Y03822D02*
X03725Y03822D01*
X03725Y03822*
X03725Y03823*
X03725Y03823*
X03725Y03823*
X03725Y03823*
X03725Y03823*
X03724Y03823*
X03724Y03823*
X03724Y03823*
X03724Y03823*
X03724Y03823*
X03724Y03823*
X03724Y03824*
X03723Y03824*
X03723Y03824*
X03723Y03824*
X03723Y03824*
X03723Y03824*
X03723Y03825*
X03723Y03825*
X03723Y03825*
X03723Y03825*
X03723Y03825*
X03723Y03825*
Y03826*
Y03826*
Y03834*
Y03834*
Y03834*
X03723Y03834*
X03723Y03834*
X03723Y03835*
X03723Y03835*
X03723Y03835*
X03723Y03835*
X03723Y03835*
X03723Y03835*
X03723Y03835*
X03723Y03836*
X03724Y03836*
X03724Y03836*
X03724Y03836*
X03724Y03836*
X03724Y03836*
X03724Y03836*
X03724Y03836*
X03725Y03837*
X03725Y03837*
X03725Y03837*
X03725Y03837*
X03725Y03837*
X03725Y03837*
X03725Y03837*
X03726Y03837*
X03726Y03837*
X03756*
X03756Y03837*
X03756Y03837*
X03756Y03837*
X03756Y03837*
X03757Y03837*
X03757Y03837*
X03757Y03837*
X03757Y03837*
X03757Y03836*
X03757Y03836*
X03757Y03836*
X03758Y03836*
X03758Y03836*
X03758Y03836*
X03758Y03836*
X03758Y03836*
X03758Y03835*
X03758Y03835*
X03758Y03835*
X03758Y03835*
X03758Y03835*
X03759Y03835*
X03759Y03835*
X03759Y03834*
X03759Y03834*
X03759Y03834*
Y03834*
Y03834*
Y03826*
Y03826*
Y03825*
X03759Y03825*
X03759Y03825*
X03759Y03825*
X03759Y03825*
X03758Y03825*
X03758Y03824*
X03758Y03824*
X03758Y03824*
X03758Y03824*
X03758Y03824*
X03758Y03824*
X03758Y03823*
X03758Y03823*
X03758Y03823*
X03757Y03823*
X03757Y03823*
X03757Y03823*
X03757Y03823*
X03757Y03823*
X03757Y03823*
X03757Y03823*
X03756Y03823*
X03756Y03822*
X03756Y03822*
X03756Y03822*
X03756Y03822*
X03726*
X03726Y03822*
G37*
G36*
X0365Y03918D02*
X0365Y03918D01*
X0365Y03918*
X03649Y03918*
X03649Y03918*
X03649Y03918*
X03649Y03918*
X03649Y03918*
X03649Y03918*
X03648Y03918*
X03648Y03919*
X03648Y03919*
X03648Y03919*
X03648Y03919*
X03648Y03919*
X03648Y03919*
X03648Y03919*
X03647Y0392*
X03647Y0392*
X03647Y0392*
X03647Y0392*
X03647Y0392*
X03647Y0392*
X03647Y0392*
X03647Y03921*
X03647Y03921*
Y03921*
Y03921*
Y0395*
Y03951*
Y03951*
X03647Y03951*
X03647Y03951*
X03647Y03951*
X03647Y03951*
X03647Y03952*
X03647Y03952*
X03647Y03952*
X03647Y03952*
X03648Y03952*
X03648Y03952*
X03648Y03952*
X03648Y03953*
X03648Y03953*
X03648Y03953*
X03648Y03953*
X03648Y03953*
X03649Y03953*
X03649Y03953*
X03649Y03953*
X03649Y03953*
X03649Y03953*
X03649Y03954*
X0365Y03954*
X0365Y03954*
X0365Y03954*
X0365Y03954*
X03659*
X03659Y03954*
X03659Y03954*
X03659Y03954*
X03659Y03954*
X0366Y03953*
X0366Y03953*
X0366Y03953*
X0366Y03953*
X0366Y03953*
X0366Y03953*
X0366Y03953*
X03661Y03953*
X03661Y03953*
X03661Y03953*
X03661Y03952*
X03661Y03952*
X03661Y03952*
X03661Y03952*
X03661Y03952*
X03661Y03952*
X03661Y03952*
X03661Y03951*
X03662Y03951*
X03662Y03951*
X03662Y03951*
X03662Y03951*
Y03951*
Y0395*
Y03921*
Y03921*
Y03921*
X03662Y03921*
X03662Y0392*
X03662Y0392*
X03661Y0392*
X03661Y0392*
X03661Y0392*
X03661Y0392*
X03661Y0392*
X03661Y03919*
X03661Y03919*
X03661Y03919*
X03661Y03919*
X03661Y03919*
X03661Y03919*
X0366Y03919*
X0366Y03918*
X0366Y03918*
X0366Y03918*
X0366Y03918*
X0366Y03918*
X0366Y03918*
X03659Y03918*
X03659Y03918*
X03659Y03918*
X03659Y03918*
X03659Y03918*
X0365*
X0365Y03918*
G37*
G36*
X0367D02*
X03669Y03918D01*
X03669Y03918*
X03669Y03918*
X03669Y03918*
X03669Y03918*
X03669Y03918*
X03668Y03918*
X03668Y03918*
X03668Y03918*
X03668Y03919*
X03668Y03919*
X03668Y03919*
X03668Y03919*
X03667Y03919*
X03667Y03919*
X03667Y03919*
X03667Y0392*
X03667Y0392*
X03667Y0392*
X03667Y0392*
X03667Y0392*
X03667Y0392*
X03667Y0392*
X03667Y03921*
X03667Y03921*
Y03921*
Y03921*
Y0395*
Y03951*
Y03951*
X03667Y03951*
X03667Y03951*
X03667Y03951*
X03667Y03951*
X03667Y03952*
X03667Y03952*
X03667Y03952*
X03667Y03952*
X03667Y03952*
X03667Y03952*
X03667Y03952*
X03668Y03953*
X03668Y03953*
X03668Y03953*
X03668Y03953*
X03668Y03953*
X03668Y03953*
X03668Y03953*
X03669Y03953*
X03669Y03953*
X03669Y03953*
X03669Y03954*
X03669Y03954*
X03669Y03954*
X0367Y03954*
X0367Y03954*
X03678*
X03679Y03954*
X03679Y03954*
X03679Y03954*
X03679Y03954*
X03679Y03953*
X03679Y03953*
X0368Y03953*
X0368Y03953*
X0368Y03953*
X0368Y03953*
X0368Y03953*
X0368Y03953*
X0368Y03953*
X0368Y03953*
X03681Y03952*
X03681Y03952*
X03681Y03952*
X03681Y03952*
X03681Y03952*
X03681Y03952*
X03681Y03952*
X03681Y03951*
X03681Y03951*
X03681Y03951*
X03681Y03951*
X03681Y03951*
Y03951*
Y0395*
Y03921*
Y03921*
Y03921*
X03681Y03921*
X03681Y0392*
X03681Y0392*
X03681Y0392*
X03681Y0392*
X03681Y0392*
X03681Y0392*
X03681Y0392*
X03681Y03919*
X03681Y03919*
X03681Y03919*
X0368Y03919*
X0368Y03919*
X0368Y03919*
X0368Y03919*
X0368Y03918*
X0368Y03918*
X0368Y03918*
X0368Y03918*
X03679Y03918*
X03679Y03918*
X03679Y03918*
X03679Y03918*
X03679Y03918*
X03679Y03918*
X03678Y03918*
X0367*
X0367Y03918*
G37*
G36*
X03689D02*
X03689Y03918D01*
X03689Y03918*
X03689Y03918*
X03689Y03918*
X03688Y03918*
X03688Y03918*
X03688Y03918*
X03688Y03918*
X03688Y03918*
X03688Y03919*
X03688Y03919*
X03687Y03919*
X03687Y03919*
X03687Y03919*
X03687Y03919*
X03687Y03919*
X03687Y0392*
X03687Y0392*
X03687Y0392*
X03687Y0392*
X03687Y0392*
X03687Y0392*
X03687Y0392*
X03686Y03921*
X03686Y03921*
Y03921*
Y03921*
Y0395*
Y03951*
Y03951*
X03686Y03951*
X03687Y03951*
X03687Y03951*
X03687Y03951*
X03687Y03952*
X03687Y03952*
X03687Y03952*
X03687Y03952*
X03687Y03952*
X03687Y03952*
X03687Y03952*
X03687Y03953*
X03687Y03953*
X03688Y03953*
X03688Y03953*
X03688Y03953*
X03688Y03953*
X03688Y03953*
X03688Y03953*
X03688Y03953*
X03689Y03953*
X03689Y03954*
X03689Y03954*
X03689Y03954*
X03689Y03954*
X03689Y03954*
X03698*
X03698Y03954*
X03698Y03954*
X03699Y03954*
X03699Y03954*
X03699Y03953*
X03699Y03953*
X03699Y03953*
X03699Y03953*
X037Y03953*
X037Y03953*
X037Y03953*
X037Y03953*
X037Y03953*
X037Y03953*
X037Y03952*
X037Y03952*
X037Y03952*
X03701Y03952*
X03701Y03952*
X03701Y03952*
X03701Y03952*
X03701Y03951*
X03701Y03951*
X03701Y03951*
X03701Y03951*
X03701Y03951*
Y03951*
Y0395*
Y03921*
Y03921*
Y03921*
X03701Y03921*
X03701Y0392*
X03701Y0392*
X03701Y0392*
X03701Y0392*
X03701Y0392*
X03701Y0392*
X03701Y0392*
X037Y03919*
X037Y03919*
X037Y03919*
X037Y03919*
X037Y03919*
X037Y03919*
X037Y03919*
X037Y03918*
X037Y03918*
X03699Y03918*
X03699Y03918*
X03699Y03918*
X03699Y03918*
X03699Y03918*
X03699Y03918*
X03698Y03918*
X03698Y03918*
X03698Y03918*
X03689*
X03689Y03918*
G37*
G36*
X03709D02*
X03709Y03918D01*
X03709Y03918*
X03708Y03918*
X03708Y03918*
X03708Y03918*
X03708Y03918*
X03708Y03918*
X03708Y03918*
X03707Y03918*
X03707Y03919*
X03707Y03919*
X03707Y03919*
X03707Y03919*
X03707Y03919*
X03707Y03919*
X03707Y03919*
X03707Y0392*
X03706Y0392*
X03706Y0392*
X03706Y0392*
X03706Y0392*
X03706Y0392*
X03706Y0392*
X03706Y03921*
X03706Y03921*
Y03921*
Y03921*
Y0395*
Y03951*
Y03951*
X03706Y03951*
X03706Y03951*
X03706Y03951*
X03706Y03951*
X03706Y03952*
X03706Y03952*
X03706Y03952*
X03707Y03952*
X03707Y03952*
X03707Y03952*
X03707Y03952*
X03707Y03953*
X03707Y03953*
X03707Y03953*
X03707Y03953*
X03707Y03953*
X03708Y03953*
X03708Y03953*
X03708Y03953*
X03708Y03953*
X03708Y03953*
X03708Y03954*
X03709Y03954*
X03709Y03954*
X03709Y03954*
X03709Y03954*
X03718*
X03718Y03954*
X03718Y03954*
X03718Y03954*
X03718Y03954*
X03719Y03953*
X03719Y03953*
X03719Y03953*
X03719Y03953*
X03719Y03953*
X03719Y03953*
X03719Y03953*
X0372Y03953*
X0372Y03953*
X0372Y03953*
X0372Y03952*
X0372Y03952*
X0372Y03952*
X0372Y03952*
X0372Y03952*
X0372Y03952*
X0372Y03952*
X03721Y03951*
X03721Y03951*
X03721Y03951*
X03721Y03951*
X03721Y03951*
Y03951*
Y0395*
Y03921*
Y03921*
Y03921*
X03721Y03921*
X03721Y0392*
X03721Y0392*
X03721Y0392*
X0372Y0392*
X0372Y0392*
X0372Y0392*
X0372Y0392*
X0372Y03919*
X0372Y03919*
X0372Y03919*
X0372Y03919*
X0372Y03919*
X0372Y03919*
X03719Y03919*
X03719Y03918*
X03719Y03918*
X03719Y03918*
X03719Y03918*
X03719Y03918*
X03719Y03918*
X03718Y03918*
X03718Y03918*
X03718Y03918*
X03718Y03918*
X03718Y03918*
X03709*
X03709Y03918*
G37*
G36*
X03726Y03842D02*
X03725Y03842D01*
X03725Y03842*
X03725Y03842*
X03725Y03842*
X03725Y03842*
X03725Y03842*
X03725Y03842*
X03724Y03843*
X03724Y03843*
X03724Y03843*
X03724Y03843*
X03724Y03843*
X03724Y03843*
X03724Y03843*
X03723Y03843*
X03723Y03844*
X03723Y03844*
X03723Y03844*
X03723Y03844*
X03723Y03844*
X03723Y03844*
X03723Y03845*
X03723Y03845*
X03723Y03845*
X03723Y03845*
Y03845*
Y03845*
Y03853*
Y03853*
Y03854*
X03723Y03854*
X03723Y03854*
X03723Y03854*
X03723Y03854*
X03723Y03855*
X03723Y03855*
X03723Y03855*
X03723Y03855*
X03723Y03855*
X03723Y03855*
X03724Y03855*
X03724Y03856*
X03724Y03856*
X03724Y03856*
X03724Y03856*
X03724Y03856*
X03724Y03856*
X03725Y03856*
X03725Y03856*
X03725Y03856*
X03725Y03856*
X03725Y03856*
X03725Y03857*
X03725Y03857*
X03726Y03857*
X03726Y03857*
X03756*
X03756Y03857*
X03756Y03857*
X03756Y03857*
X03756Y03856*
X03757Y03856*
X03757Y03856*
X03757Y03856*
X03757Y03856*
X03757Y03856*
X03757Y03856*
X03757Y03856*
X03758Y03856*
X03758Y03856*
X03758Y03856*
X03758Y03855*
X03758Y03855*
X03758Y03855*
X03758Y03855*
X03758Y03855*
X03758Y03855*
X03758Y03855*
X03759Y03854*
X03759Y03854*
X03759Y03854*
X03759Y03854*
X03759Y03854*
Y03853*
Y03853*
Y03845*
Y03845*
Y03845*
X03759Y03845*
X03759Y03845*
X03759Y03845*
X03759Y03844*
X03758Y03844*
X03758Y03844*
X03758Y03844*
X03758Y03844*
X03758Y03844*
X03758Y03843*
X03758Y03843*
X03758Y03843*
X03758Y03843*
X03758Y03843*
X03757Y03843*
X03757Y03843*
X03757Y03843*
X03757Y03842*
X03757Y03842*
X03757Y03842*
X03757Y03842*
X03756Y03842*
X03756Y03842*
X03756Y03842*
X03756Y03842*
X03756Y03842*
X03726*
X03726Y03842*
G37*
G36*
Y03862D02*
X03725Y03862D01*
X03725Y03862*
X03725Y03862*
X03725Y03862*
X03725Y03862*
X03725Y03862*
X03725Y03862*
X03724Y03862*
X03724Y03862*
X03724Y03862*
X03724Y03863*
X03724Y03863*
X03724Y03863*
X03724Y03863*
X03723Y03863*
X03723Y03863*
X03723Y03863*
X03723Y03864*
X03723Y03864*
X03723Y03864*
X03723Y03864*
X03723Y03864*
X03723Y03864*
X03723Y03865*
X03723Y03865*
Y03865*
Y03865*
Y03873*
Y03873*
Y03873*
X03723Y03874*
X03723Y03874*
X03723Y03874*
X03723Y03874*
X03723Y03874*
X03723Y03874*
X03723Y03875*
X03723Y03875*
X03723Y03875*
X03723Y03875*
X03724Y03875*
X03724Y03875*
X03724Y03875*
X03724Y03875*
X03724Y03876*
X03724Y03876*
X03724Y03876*
X03725Y03876*
X03725Y03876*
X03725Y03876*
X03725Y03876*
X03725Y03876*
X03725Y03876*
X03725Y03876*
X03726Y03876*
X03726Y03876*
X03756*
X03756Y03876*
X03756Y03876*
X03756Y03876*
X03756Y03876*
X03757Y03876*
X03757Y03876*
X03757Y03876*
X03757Y03876*
X03757Y03876*
X03757Y03876*
X03757Y03876*
X03758Y03875*
X03758Y03875*
X03758Y03875*
X03758Y03875*
X03758Y03875*
X03758Y03875*
X03758Y03875*
X03758Y03875*
X03758Y03874*
X03758Y03874*
X03759Y03874*
X03759Y03874*
X03759Y03874*
X03759Y03874*
X03759Y03873*
Y03873*
Y03873*
Y03865*
Y03865*
Y03865*
X03759Y03865*
X03759Y03864*
X03759Y03864*
X03759Y03864*
X03758Y03864*
X03758Y03864*
X03758Y03864*
X03758Y03863*
X03758Y03863*
X03758Y03863*
X03758Y03863*
X03758Y03863*
X03758Y03863*
X03758Y03863*
X03757Y03862*
X03757Y03862*
X03757Y03862*
X03757Y03862*
X03757Y03862*
X03757Y03862*
X03757Y03862*
X03756Y03862*
X03756Y03862*
X03756Y03862*
X03756Y03862*
X03756Y03862*
X03726*
X03726Y03862*
G37*
G36*
Y03881D02*
X03725Y03882D01*
X03725Y03882*
X03725Y03882*
X03725Y03882*
X03725Y03882*
X03725Y03882*
X03725Y03882*
X03724Y03882*
X03724Y03882*
X03724Y03882*
X03724Y03882*
X03724Y03882*
X03724Y03883*
X03724Y03883*
X03723Y03883*
X03723Y03883*
X03723Y03883*
X03723Y03883*
X03723Y03883*
X03723Y03884*
X03723Y03884*
X03723Y03884*
X03723Y03884*
X03723Y03884*
X03723Y03884*
Y03885*
Y03885*
Y03893*
Y03893*
Y03893*
X03723Y03893*
X03723Y03893*
X03723Y03894*
X03723Y03894*
X03723Y03894*
X03723Y03894*
X03723Y03894*
X03723Y03894*
X03723Y03895*
X03723Y03895*
X03724Y03895*
X03724Y03895*
X03724Y03895*
X03724Y03895*
X03724Y03895*
X03724Y03895*
X03724Y03895*
X03725Y03896*
X03725Y03896*
X03725Y03896*
X03725Y03896*
X03725Y03896*
X03725Y03896*
X03725Y03896*
X03726Y03896*
X03726Y03896*
X03756*
X03756Y03896*
X03756Y03896*
X03756Y03896*
X03756Y03896*
X03757Y03896*
X03757Y03896*
X03757Y03896*
X03757Y03896*
X03757Y03895*
X03757Y03895*
X03757Y03895*
X03758Y03895*
X03758Y03895*
X03758Y03895*
X03758Y03895*
X03758Y03895*
X03758Y03895*
X03758Y03894*
X03758Y03894*
X03758Y03894*
X03758Y03894*
X03759Y03894*
X03759Y03894*
X03759Y03893*
X03759Y03893*
X03759Y03893*
Y03893*
Y03893*
Y03885*
Y03885*
Y03884*
X03759Y03884*
X03759Y03884*
X03759Y03884*
X03759Y03884*
X03758Y03884*
X03758Y03883*
X03758Y03883*
X03758Y03883*
X03758Y03883*
X03758Y03883*
X03758Y03883*
X03758Y03883*
X03758Y03882*
X03758Y03882*
X03757Y03882*
X03757Y03882*
X03757Y03882*
X03757Y03882*
X03757Y03882*
X03757Y03882*
X03757Y03882*
X03756Y03882*
X03756Y03882*
X03756Y03882*
X03756Y03881*
X03756Y03881*
X03726*
X03726Y03881*
G37*
G36*
Y03901D02*
X03725Y03901D01*
X03725Y03901*
X03725Y03901*
X03725Y03901*
X03725Y03901*
X03725Y03901*
X03725Y03902*
X03724Y03902*
X03724Y03902*
X03724Y03902*
X03724Y03902*
X03724Y03902*
X03724Y03902*
X03724Y03902*
X03723Y03902*
X03723Y03903*
X03723Y03903*
X03723Y03903*
X03723Y03903*
X03723Y03903*
X03723Y03903*
X03723Y03904*
X03723Y03904*
X03723Y03904*
X03723Y03904*
Y03904*
Y03904*
Y03912*
Y03913*
Y03913*
X03723Y03913*
X03723Y03913*
X03723Y03913*
X03723Y03913*
X03723Y03914*
X03723Y03914*
X03723Y03914*
X03723Y03914*
X03723Y03914*
X03723Y03914*
X03724Y03914*
X03724Y03915*
X03724Y03915*
X03724Y03915*
X03724Y03915*
X03724Y03915*
X03724Y03915*
X03725Y03915*
X03725Y03915*
X03725Y03915*
X03725Y03915*
X03725Y03916*
X03725Y03916*
X03725Y03916*
X03726Y03916*
X03726Y03916*
X03756*
X03756Y03916*
X03756Y03916*
X03756Y03916*
X03756Y03916*
X03757Y03915*
X03757Y03915*
X03757Y03915*
X03757Y03915*
X03757Y03915*
X03757Y03915*
X03757Y03915*
X03758Y03915*
X03758Y03915*
X03758Y03915*
X03758Y03914*
X03758Y03914*
X03758Y03914*
X03758Y03914*
X03758Y03914*
X03758Y03914*
X03758Y03914*
X03759Y03913*
X03759Y03913*
X03759Y03913*
X03759Y03913*
X03759Y03913*
Y03913*
Y03912*
Y03904*
Y03904*
Y03904*
X03759Y03904*
X03759Y03904*
X03759Y03904*
X03759Y03903*
X03758Y03903*
X03758Y03903*
X03758Y03903*
X03758Y03903*
X03758Y03903*
X03758Y03902*
X03758Y03902*
X03758Y03902*
X03758Y03902*
X03758Y03902*
X03757Y03902*
X03757Y03902*
X03757Y03902*
X03757Y03902*
X03757Y03901*
X03757Y03901*
X03757Y03901*
X03756Y03901*
X03756Y03901*
X03756Y03901*
X03756Y03901*
X03756Y03901*
X03726*
X03726Y03901*
G37*
G54D23*
X039Y03545D03*
Y03529D03*
Y03513D03*
X03885Y03545D03*
Y03529D03*
Y03513D03*
X03869Y03545D03*
Y03529D03*
Y03513D03*
G54D28*
X04645Y04115D03*
X04745D03*
X04845D03*
X04645Y0394D03*
X04745D03*
X04845D03*
G54D32*
X03156Y03817D03*
Y03855D03*
Y03892D03*
X03263D03*
Y03855D03*
Y03817D03*
G54D34*
X0333Y03509D03*
Y03528D03*
Y03548D03*
X03392D03*
Y03528D03*
Y03509D03*
G54D35*
X03351Y03559D03*
X03371D03*
Y03497D03*
X03351D03*
G54D49*
X03344Y03649D03*
X03429Y03609D03*
X03404D03*
X03865Y04025D03*
X0384D03*
X0423Y0361D03*
X0406Y03615D03*
X0313Y03344D03*
X03109D03*
G54D50*
X03475Y03639D03*
Y03614D03*
X04489Y03805D03*
X04493Y0403D03*
X04494Y03985D03*
Y0394D03*
X03485Y03704D03*
G54D51*
X04421Y04028D03*
Y03984D03*
Y03941D03*
Y03898D03*
Y03855D03*
Y03811D03*
Y03768D03*
Y03725D03*
Y03681D03*
X04058D03*
Y03725D03*
Y03768D03*
Y03811D03*
Y03855D03*
Y03898D03*
Y03941D03*
Y03984D03*
Y04028D03*
G54D52*
X04546Y03725D03*
X04583D03*
X03869Y03768D03*
X03905D03*
G54D53*
X04495Y03693D03*
Y03726D03*
X04635Y03693D03*
Y03726D03*
X0382Y03733D03*
Y03766D03*
X03955Y03733D03*
Y03766D03*
X03825Y03546D03*
Y03513D03*
X0395Y03546D03*
Y03513D03*
X04275Y03621D03*
Y03588D03*
X04115Y03511D03*
Y03545D03*
X04535Y03848D03*
Y03881D03*
Y03778D03*
Y03811D03*
X03445Y04153D03*
Y04186D03*
X03344Y03718D03*
X0338Y04178D03*
Y04211D03*
X03533Y04026D03*
Y03993D03*
X03477Y03981D03*
Y03948D03*
X03695Y04041D03*
Y04008D03*
X03775Y03576D03*
Y03543D03*
X03442Y03491D03*
Y03525D03*
X03179Y0422D03*
Y04186D03*
X03185Y04113D03*
Y04146D03*
X036Y04051D03*
Y04018D03*
X03344Y03751D03*
X0311Y04083D03*
Y04116D03*
X03235Y03751D03*
Y03718D03*
X0318Y03751D03*
Y03718D03*
X0338Y04103D03*
Y04136D03*
G54D54*
X03886Y03591D03*
X03853D03*
Y03645D03*
X03886D03*
X03956Y03591D03*
X03923D03*
X03911Y0385D03*
X03878D03*
X03921Y0347D03*
X03888D03*
X03843Y04205D03*
X0381D03*
X03826Y03945D03*
X03793D03*
X02981Y0414D03*
X02948D03*
X03356Y03436D03*
X03323D03*
X03651Y04275D03*
X03618D03*
X03703D03*
X03736D03*
X03729Y0348D03*
X03695D03*
X03605D03*
X03639D03*
X03793Y039D03*
X03826D03*
X0294Y03585D03*
X02973D03*
G54D55*
X03345Y03636D03*
Y03661D03*
X0343Y03621D03*
Y03596D03*
X03405D03*
Y03621D03*
X03865Y04039D03*
Y04014D03*
X0384D03*
Y04039D03*
X0423Y03624D03*
Y03599D03*
X0406Y03604D03*
Y03629D03*
X0313Y03356D03*
Y03331D03*
X0311D03*
Y03356D03*
G54D56*
X03497Y04045D03*
X0351Y0362D03*
Y03645D03*
G54D57*
X03464Y0364D03*
X03489D03*
Y03615D03*
X03464D03*
X04476Y03805D03*
X04501D03*
X04505Y0403D03*
X0448D03*
X04481Y03985D03*
X04506D03*
Y0394D03*
X04481D03*
X03499Y03705D03*
X03474D03*
G54D58*
X04745Y02717D03*
Y02932D03*
X04645Y02717D03*
Y02932D03*
X04545Y02717D03*
Y02932D03*
X04445Y02717D03*
Y02932D03*
X04345Y02717D03*
Y02932D03*
X04245Y02717D03*
Y02932D03*
X04145Y02717D03*
Y02932D03*
X04045Y02717D03*
Y02932D03*
X03945Y02717D03*
Y02932D03*
X03845Y02717D03*
Y02932D03*
X03745Y02717D03*
Y02932D03*
X03645Y02717D03*
Y02932D03*
X03545Y02717D03*
Y02932D03*
X03445Y02717D03*
Y02932D03*
X03345Y02717D03*
Y02932D03*
X03245Y02717D03*
Y02932D03*
X03145Y02717D03*
Y02932D03*
X03045Y02717D03*
Y02932D03*
X02945Y02717D03*
Y02932D03*
X02845Y02717D03*
Y02932D03*
G54D59*
X03983Y0421D03*
X04116D03*
G54D60*
X03395Y03735D03*
Y03794D03*
G54D61*
X03619Y03539D03*
X0371D03*
Y0361D03*
X03619D03*
G54D62*
X0391Y03973D03*
Y03936D03*
G54D63*
X03814Y04097D03*
X03845D03*
Y04152D03*
X03814D03*
G54D64*
X0373Y04149D03*
X03579D03*
G54D65*
X03714Y04103D03*
X03694D03*
X03674D03*
X03655D03*
X03635D03*
X03615D03*
X03595D03*
Y04195D03*
X03615D03*
X03635D03*
X03655D03*
X03674D03*
X03694D03*
X03714D03*
G54D66*
X03064Y04225D03*
X02865D03*
X0306Y035D03*
X02861D03*
G54D67*
X03429Y03925D03*
X03409D03*
X0339D03*
X0337D03*
Y04024D03*
X0339D03*
X03409D03*
X03429D03*
G54D68*
X034Y03975D03*
G54D69*
X03142Y03622D03*
X03174D03*
X03205D03*
X03237D03*
Y03527D03*
X03205D03*
X03174D03*
X03142D03*
G54D70*
X03215Y04042D03*
Y03967D03*
G54D71*
X02707Y0402D03*
Y03989D03*
Y038D03*
Y03769D03*
G54D72*
X02707Y03963D03*
Y03826D03*
Y03944D03*
Y03845D03*
Y03924D03*
Y03865D03*
Y03904D03*
Y03885D03*
G54D73*
X02684Y04096D03*
Y03693D03*
X02529Y04096D03*
Y03693D03*
G54D74*
X03645Y0384D03*
G54D75*
X03237Y04124D03*
X03275D03*
X03312D03*
Y04215D03*
X03237D03*
G54D76*
X04675Y034D03*
G54D77*
X04775Y033D03*
Y035D03*
X04575D03*
Y033D03*
G54D78*
X02665Y04008D03*
Y03781D03*
G54D79*
X0389Y0381D03*
X0406Y04075D03*
X04555Y04065D03*
X04575Y03785D03*
X0392Y0363D03*
X03925Y03665D03*
X04165Y0358D03*
X03775Y03735D03*
X0393Y039D03*
X03175Y03665D03*
X0296Y041D03*
X0308Y04155D03*
X03855Y03435D03*
X03485Y0337D03*
X0351Y0397D03*
X0354Y0396D03*
X0406Y03575D03*
X03735Y0367D03*
X03775Y03505D03*
X0413Y0363D03*
X04165Y03625D03*
X0329Y03575D03*
X03345Y03605D03*
X04065Y03505D03*
X0384Y04285D03*
X0391Y041D03*
Y0403D03*
X04215Y04085D03*
X0425D03*
X042Y03625D03*
X03845Y03855D03*
X03807Y03854D03*
X03545Y03405D03*
X0348Y0355D03*
Y03585D03*
X0351Y0357D03*
X0377Y0417D03*
X0385Y03985D03*
X0382Y03995D03*
X03865Y03935D03*
X0353Y041D03*
X0362Y04155D03*
X03735Y04065D03*
X03545Y04165D03*
X03605Y03985D03*
X0354Y0369D03*
X03485Y04135D03*
X03205Y04085D03*
X03375Y0386D03*
X03515Y0373D03*
X0334Y04205D03*
X03335Y04015D03*
X0346Y04075D03*
X03405Y0344D03*
X0359Y03695D03*
X0373Y04025D03*
X03545Y0413D03*
X03765D03*
X03785Y04055D03*
X03775Y03975D03*
X03215Y0366D03*
X0332Y03835D03*
Y0387D03*
X03345Y03895D03*
X0382Y03655D03*
X03835Y03465D03*
X03985Y03515D03*
X03825Y03615D03*
X03815Y03435D03*
X03145Y0314D03*
X0307D03*
X0315Y0339D03*
X0311D03*
X0458Y0313D03*
X04505D03*
X04425D03*
X04345D03*
X0426D03*
X04175D03*
X041Y03125D03*
X04025Y0313D03*
X0394D03*
X03165Y0349D03*
X0294Y03635D03*
X031Y03805D03*
X0308Y0395D03*
X02615Y03965D03*
X02645Y03915D03*
X0265Y0386D03*
X03025Y0414D03*
X0341Y0365D03*
X03375Y03655D03*
X0343Y0368D03*
X0338Y04245D03*
X03345Y0407D03*
X0347Y04105D03*
X03675Y04165D03*
X0313Y04185D03*
X0348Y04025D03*
X03655Y04D03*
X0346Y0367D03*
X0374Y0424D03*
X035Y042D03*
X03575Y04245D03*
X035Y0407D03*
X03145Y03675D03*
X0351Y03305D03*
X0344Y0356D03*
X03645Y03355D03*
X03456Y03453D03*
X0368Y0382D03*
X03635Y03845D03*
X03615Y03825D03*
X04555Y0394D03*
X0449Y03885D03*
X04535Y0391D03*
X03279Y03631D03*
X04845Y0422D03*
X0448Y0383D03*
X04115Y0358D03*
X0472Y03045D03*
X04845Y03835D03*
X04745Y0383D03*
X033Y03685D03*
X035Y04165D03*
X0388Y039D03*
X0327Y04245D03*
X0376Y03935D03*
X03155Y04095D03*
X0347Y0391D03*
X0265Y0382D03*
G54D80*
X03555Y04055D03*
X03495Y0377D03*
X0346Y0376D03*
X03815Y0403D03*
X03785Y0365D03*
X0379Y04005D03*
X0342Y0388D03*
X0351Y0367D03*
X03495Y03805D03*
X03505Y03915D03*
X0364Y0404D03*
X0367Y0388D03*
G54D81*
X02845Y04095D03*
X02785Y03745D03*
M02*