%FSTAX23Y23*%
%MOIN*%
%SFA1B1*%

%IPPOS*%
%ADD11C,0.020000*%
%ADD13C,0.010000*%
%ADD17C,0.008000*%
%ADD92C,0.025591*%
%ADD93C,0.025000*%
%ADD94C,0.024000*%
%ADD95C,0.050000*%
%ADD96C,0.060000*%
%LNesp32c3phils-1*%
%LPD*%
G54D11*
X0332Y04165D02*
X03465D01*
X0329Y04195D02*
Y04225D01*
X0327Y04245D02*
X0329Y04225D01*
Y04195D02*
X0332Y04165D01*
G54D13*
X04705Y03815D02*
D01*
X04704Y03817*
X04704Y0382*
X04704Y03823*
X04703Y03826*
X04702Y03828*
X04701Y03831*
X047Y03833*
X04698Y03836*
X04697Y03838*
X04695Y0384*
X04693Y03842*
X04691Y03844*
X04689Y03846*
X04687Y03848*
X04685Y03849*
X04682Y0385*
X04679Y03852*
X04677Y03853*
X04674Y03853*
X04671Y03854*
X04669Y03854*
X04666Y03854*
X04665Y03855*
X048Y0379D02*
D01*
X04803Y0379*
X04806Y0379*
X04809Y0379*
X04812Y03791*
X04815Y03792*
X04818Y03793*
X04821Y03795*
X04823Y03796*
X04826Y03798*
X04828Y038*
X04831Y03802*
X04833Y03804*
X04835Y03807*
X04837Y03809*
X04838Y03812*
X0484Y03815*
X04841Y03818*
X04842Y03821*
X04843Y03824*
X04844Y03827*
X04844Y0383*
X04844Y03833*
X04845Y03835*
X04705Y03815D02*
D01*
X04705Y03813*
X04705Y03811*
X04705Y03809*
X04705Y03808*
X04706Y03806*
X04707Y03804*
X04707Y03803*
X04708Y03801*
X04709Y038*
X0471Y03798*
X04712Y03797*
X04713Y03796*
X04714Y03795*
X04716Y03794*
X04717Y03793*
X04719Y03792*
X0472Y03791*
X04722Y03791*
X04723Y0379*
X04725Y0379*
X04727Y0379*
X04729Y0379*
X0473Y0379*
X0391Y041D02*
X04035D01*
X0406Y04075*
X03465Y04165D02*
X035D01*
X04175Y03555D02*
X042Y0358D01*
Y03625*
X04155Y03555D02*
X04175D01*
X0414Y0357D02*
X04155Y03555D01*
X04129Y0357D02*
X0414D01*
X04115Y0358D02*
X04119D01*
X04129Y0357*
X0388Y0359D02*
X0392Y0363D01*
X03875Y03585D02*
X0388Y0359D01*
X038Y03585D02*
X03875D01*
X03785Y036D02*
X038Y03585D01*
X03785Y036D02*
Y0365D01*
X03925Y03665D02*
X0393Y0366D01*
X0401*
X04065Y03605*
X0414*
X04165Y0358*
X0388Y039D02*
X0393D01*
X0373Y04D02*
Y04025D01*
X0367Y0394D02*
X0373Y04D01*
X0367Y0388D02*
Y0394D01*
X03305Y036D02*
Y03685D01*
Y036D02*
X03345Y0356D01*
X0344*
X0306Y0414D02*
X0317Y0403D01*
X03025Y0414D02*
X0306D01*
X0317Y0403D02*
X0328D01*
X0351Y0397D02*
Y0401D01*
X03555Y04055*
X0361Y0337D02*
X03675Y03435D01*
X03815*
X03485Y0337D02*
X0361D01*
X03465Y0394D02*
X03515D01*
X03525Y0393D02*
X0358D01*
X03515Y0394D02*
X03525Y0393D01*
X03555Y04055D02*
X03645Y04145D01*
X03735Y03545D02*
Y0367D01*
Y03545D02*
X03775Y03505D01*
X04165Y03625D02*
X0421Y0367D01*
Y0382*
X0336Y03505D02*
X03495D01*
X0329Y03575D02*
X0336Y03505D01*
X0384Y04285D02*
X03885Y0424D01*
Y04055D02*
X0391Y0403D01*
X03885Y04055D02*
Y0424D01*
X04245Y03855D02*
X04665D01*
X0421Y0382D02*
X04245Y03855D01*
X03495Y03505D02*
X03565Y03575D01*
X0353Y04195D02*
X03615D01*
X035Y04165D02*
X0353Y04195D01*
X03615D02*
X03645Y04165D01*
Y04145D02*
Y04165D01*
X036Y04029D02*
Y04065D01*
X03605Y03985D02*
Y04024D01*
X036Y04029D02*
X03605Y04024D01*
X036Y04065D02*
X03672Y04137D01*
Y04162D02*
X03675Y04165D01*
X03672Y04137D02*
Y04162D01*
X03665Y04065D02*
X03735D01*
X0364Y0404D02*
X03665Y04065D01*
X03375Y03795D02*
Y0386D01*
X0344Y0373D02*
X03515D01*
X03375Y03795D02*
X0344Y0373D01*
X03455Y0393D02*
X03465Y0394D01*
X0338Y0393D02*
X03455D01*
X0328Y0403D02*
X0338Y0393D01*
X0362Y03796D02*
X03691D01*
X03565Y0374D02*
X0362Y03795D01*
X03565Y03575D02*
Y0374D01*
X03772Y03972D02*
X03775Y03975D01*
X03762Y03972D02*
X03772D01*
X03734Y03944D02*
X03762Y03972D01*
X037Y03925D02*
X03719Y03944D01*
X03734*
X0358Y0393D02*
X0366Y0385D01*
X03691Y03796D02*
X03745Y0385D01*
X0366D02*
X03694D01*
X0473Y0379D02*
X048D01*
X037Y03855D02*
Y03925D01*
X03745Y0392D02*
X0376Y03935D01*
X03745Y0385D02*
Y0392D01*
X03694Y0385D02*
X037Y03855D01*
G54D17*
X03855Y03435D02*
X0388Y0346D01*
Y0359*
X03345Y03605D02*
X0346D01*
X0348Y03585*
X03535Y0407D02*
X0362Y04155D01*
X035Y0407D02*
X03535D01*
G54D92*
X02665Y04008D03*
Y03781D03*
G54D93*
X0389Y0381D03*
X0406Y04075D03*
X04555Y04065D03*
X04575Y03785D03*
X0392Y0363D03*
X03925Y03665D03*
X04165Y0358D03*
X03775Y03735D03*
X0393Y039D03*
X03175Y03665D03*
X0296Y041D03*
X0308Y04155D03*
X03855Y03435D03*
X03485Y0337D03*
X0351Y0397D03*
X0354Y0396D03*
X0406Y03575D03*
X03735Y0367D03*
X03775Y03505D03*
X0413Y0363D03*
X04165Y03625D03*
X0329Y03575D03*
X03345Y03605D03*
X04065Y03505D03*
X0384Y04285D03*
X0391Y041D03*
Y0403D03*
X04215Y04085D03*
X0425D03*
X042Y03625D03*
X03845Y03855D03*
X03807Y03854D03*
X03545Y03405D03*
X0348Y0355D03*
Y03585D03*
X0351Y0357D03*
X0377Y0417D03*
X0385Y03985D03*
X0382Y03995D03*
X03865Y03935D03*
X0353Y041D03*
X0362Y04155D03*
X03735Y04065D03*
X03545Y04165D03*
X03605Y03985D03*
X0354Y0369D03*
X03485Y04135D03*
X03205Y04085D03*
X03375Y0386D03*
X03515Y0373D03*
X0334Y04205D03*
X03335Y04015D03*
X0346Y04075D03*
X03405Y0344D03*
X0359Y03695D03*
X0373Y04025D03*
X03545Y0413D03*
X03765D03*
X03785Y04055D03*
X03775Y03975D03*
X03215Y0366D03*
X0332Y03835D03*
Y0387D03*
X03345Y03895D03*
X0382Y03655D03*
X03835Y03465D03*
X03985Y03515D03*
X03825Y03615D03*
X03815Y03435D03*
X03145Y0314D03*
X0307D03*
X0315Y0339D03*
X0311D03*
X0458Y0313D03*
X04505D03*
X04425D03*
X04345D03*
X0426D03*
X04175D03*
X041Y03125D03*
X04025Y0313D03*
X0394D03*
X03165Y0349D03*
X0294Y03635D03*
X031Y03805D03*
X0308Y0395D03*
X02615Y03965D03*
X02645Y03915D03*
X0265Y0386D03*
X03025Y0414D03*
X0341Y0365D03*
X03375Y03655D03*
X0343Y0368D03*
X0338Y04245D03*
X03345Y0407D03*
X0347Y04105D03*
X03675Y04165D03*
X0313Y04185D03*
X0348Y04025D03*
X03655Y04D03*
X0346Y0367D03*
X0374Y0424D03*
X035Y042D03*
X03575Y04245D03*
X035Y0407D03*
X03145Y03675D03*
X0351Y03305D03*
X0344Y0356D03*
X03645Y03355D03*
X03456Y03453D03*
X0368Y0382D03*
X03635Y03845D03*
X03615Y03825D03*
X04555Y0394D03*
X0449Y03885D03*
X04535Y0391D03*
X03279Y03631D03*
X04845Y0422D03*
X0448Y0383D03*
X04115Y0358D03*
X0472Y03045D03*
X04845Y03835D03*
X04745Y0383D03*
X033Y03685D03*
X035Y04165D03*
X0388Y039D03*
X0327Y04245D03*
X0376Y03935D03*
X03155Y04095D03*
X0347Y0391D03*
X0265Y0382D03*
G54D94*
X03555Y04055D03*
X03495Y0377D03*
X0346Y0376D03*
X03815Y0403D03*
X03785Y0365D03*
X0379Y04005D03*
X0342Y0388D03*
X0351Y0367D03*
X03495Y03805D03*
X03505Y03915D03*
X0364Y0404D03*
X0367Y0388D03*
G54D95*
X02845Y04095D03*
X02785Y03745D03*
G54D96*
X04675Y034D03*
X04775Y033D03*
Y035D03*
X04575D03*
Y033D03*
M02*