%FSTAX23Y23*%
%MOIN*%
%SFA1B1*%

%IPPOS*%
%ADD11C,0.020000*%
%ADD13C,0.010000*%
%ADD17C,0.008000*%
%ADD83C,0.020000*%
%ADD85C,0.010598*%
%ADD93C,0.025591*%
%ADD94C,0.025000*%
%ADD95C,0.016000*%
%ADD96C,0.050000*%
%ADD97C,0.060000*%
%LNesp32c3phils-1*%
%LPD*%
G36*
X03895Y0408D02*
X0409D01*
Y03995*
X04013*
X04007Y04002*
X03992*
X03982Y03992*
Y03977*
X03992Y03967*
X04007*
X04013Y03974*
X0409*
Y0382*
X0401*
X04006Y03825*
X03993*
X03985Y03816*
Y03803*
X03993Y03795*
X04006*
X0401Y03799*
X0409*
Y034*
X03183*
X03178Y0341*
X03272Y03504*
X03276Y03512*
Y03535*
X03331Y0359*
X03339Y03588*
X03342Y03586*
Y03579*
X03349Y03572*
X0336*
X03361Y03573*
X03362Y03572*
X03369Y03565*
X0338*
X03388Y03572*
Y03583*
X0338Y03591*
X03379Y03594*
X03424Y03639*
X0344*
X03447Y0363*
Y03628*
Y03619*
X03454Y03612*
X03455*
X0346Y03601*
Y03601*
Y03588*
X03468Y0358*
X03481*
X0349Y03588*
Y0359*
X03494Y03592*
X03505*
X03513Y03599*
Y0361*
X03505Y03618*
X03494*
X03488Y03612*
X03477Y03613*
X03473Y03619*
Y03621*
Y03629*
X03473Y0363*
X03478Y0364*
X03481Y03642*
X03487Y03648*
X0349Y03655*
Y03667*
X03501Y03671*
X03502Y03671*
X03503Y0367*
X03516*
X03525Y03678*
Y03683*
X03534Y03689*
X03536*
X03545*
X03553Y03697*
Y03708*
X03547Y03713*
X03553Y03718*
Y03729*
X03545Y03736*
X03534*
X03528Y03745*
X03527Y03747*
X03565Y03785*
X03691*
X03699Y03788*
X03746Y03835*
X03757Y03831*
Y03824*
X03764Y03817*
X03775*
X03783Y03824*
Y03835*
X03778Y0384*
X03783Y03844*
Y03855*
X03775Y03863*
X03766*
X03764*
X03755Y03869*
Y03915*
X0376Y0392*
X03766*
X03775Y03928*
Y03941*
X03766Y0395*
X03763Y03961*
X03768Y0397*
X03776*
X03779Y03972*
X0379Y03968*
X0379Y03968*
X03798Y0396*
X03811*
X03817Y03966*
X03823Y0396*
X03836*
X03843Y03967*
X03852Y03957*
X03867*
X03877Y03967*
Y03982*
X03867Y03992*
X03852*
X03843Y03982*
X03836Y0399*
X03823*
X03817Y03983*
X03811Y0399*
X03798*
X03796Y03987*
X03785Y03991*
X03784Y03991*
X03776Y04*
X0378Y04003*
Y04015*
X03791*
X038Y04023*
Y04036*
X03791Y04045*
X03778*
X0377Y04036*
Y04029*
X03759Y04025*
X03758*
X0375Y04031*
X03749Y04031*
X03741Y0404*
X03728*
X0372Y04031*
X03716Y04029*
X03711Y04035*
X03698*
X03695Y04031*
X03684Y04036*
Y0404*
X03681Y04046*
X03675Y04049*
X03668Y04046*
X03665Y0404*
Y04033*
X03654Y04031*
X03646Y0404*
X03633*
X03625Y04031*
Y04018*
X03633Y0401*
X03636*
X0364Y03999*
X03637Y03995*
Y03988*
X03629*
X03622Y0398*
Y03969*
X03629Y03962*
X0364*
X03648Y0397*
X03655Y03973*
X03665Y03966*
Y03954*
X03663Y03952*
X0366Y03945*
Y0388*
X03658Y03879*
X0365Y03874*
X03587Y03937*
X0358Y0394*
X03571Y03946*
X0357Y03948*
Y03961*
X03561Y0397*
X03548*
X0354Y03961*
Y03948*
X03536Y0394*
X03424*
X03327Y04037*
X0332Y0404*
X03174*
X03067Y04147*
X0306Y0415*
X03012*
X0301Y04153*
X02999*
X02992Y04145*
Y04134*
X02999Y04127*
X0301*
X03012Y04129*
X03055*
X03162Y04022*
X0317Y04019*
X03315*
X03412Y03922*
X0342Y03919*
X03575*
X03652Y03842*
X0366Y03839*
X03694*
X03701Y03842*
X03707Y03848*
X0371Y03855*
Y0392*
X03727Y03937*
X03735Y03936*
X03738Y03928*
X03737Y03927*
X03734Y0392*
Y03854*
X03687Y03807*
X03561*
X03553Y03804*
X03533Y03784*
X03523Y03788*
Y03795*
X03515Y03803*
X03514Y03805*
X03518Y03809*
Y0382*
X0351Y03828*
X03499*
X03492Y0382*
Y03809*
X03499Y03802*
X035Y03799*
X03497Y03795*
Y03784*
X03489Y03777*
X03481Y03785*
X03468*
X0346Y03776*
Y03763*
X03452Y03756*
X0345Y03758*
X03439*
X03432Y0375*
Y03746*
X03431Y03746*
X03387*
X0338Y03742*
X03301Y03664*
X03298Y03656*
X03295Y03651*
X03285Y03646*
X03273*
X03264Y03638*
Y03625*
X03273Y03616*
X03285*
X03291Y03608*
X03291Y03604*
X03241Y03554*
X03238Y03546*
Y03531*
X03107Y034*
X02675*
Y03485*
X02673Y03503*
X02658Y03537*
X02632Y03563*
X02598Y03578*
X0258Y0358*
X0247*
X02465*
X02455Y03583*
X02448Y0359*
X02445Y036*
Y03605*
Y0414*
Y04159*
X0246Y04196*
X02488Y04224*
X02525Y0424*
X02545*
X03255*
Y04238*
X03257Y04236*
X03258Y04233*
X03273Y04218*
Y04195*
X03278Y04183*
X03308Y04153*
X0332Y04148*
X03458*
X03523Y04083*
X03525Y04082*
X03526Y04082*
X03527Y04081*
X03526Y0407*
X03518*
X0351Y04061*
Y04048*
X03518Y0404*
X03529*
X03531*
X0354Y04033*
X0354Y04033*
X03548Y04025*
X03561*
X03563Y04027*
X0357Y04033*
X03578Y04028*
X03579Y04027*
X0359*
X03598Y04034*
Y04045*
X0359Y04053*
X03579*
X03578Y04051*
X0357Y04046*
X03563Y04052*
X03561Y04055*
X03551*
X03548*
X0354Y04061*
X03539Y04061*
X03532Y04068*
X03535Y04079*
X03537Y0408*
X03538*
X03541*
X03543Y04082*
X03546Y04083*
X03547Y04085*
X03547Y04086*
X03549Y04087*
X0356Y04086*
Y04078*
X03568Y0407*
X03581*
X0359Y04078*
Y04091*
X03581Y041*
X03568*
X03561Y04092*
X0355Y04095*
X0355Y04097*
Y04098*
Y04101*
X03547Y04103*
X03546Y04106*
X03476Y04176*
X03465Y04181*
X03351*
X03348Y04192*
X03355Y04198*
Y04208*
X03363Y04214*
X03364Y04215*
X03376*
X03385Y04223*
Y04236*
X03386Y0424*
X03895*
Y0408*
G37*
G36*
X03728Y0401D02*
X03739D01*
X03741*
X0375Y04003*
X0375Y04003*
X03758Y03995*
X03755Y03991*
Y03978*
Y03978*
X0375Y03967*
X03744*
X03742Y03965*
X0373*
X03722Y03962*
X03692Y03932*
X0369Y03928*
X03679Y0393*
Y03941*
X03681Y03944*
X03684Y0395*
Y03956*
X03694Y03962*
X03695*
X03705*
X03713Y03969*
Y0398*
X03705Y03988*
X03695*
X03694*
X03685Y03993*
X03685Y04003*
X03695Y04008*
X03698Y04005*
X03711*
X0372Y04013*
X03723Y04015*
X03728Y0401*
G37*
%LNesp32c3phils-2*%
%LPC*%
G36*
X0314Y04188D02*
X03129D01*
X03122Y0418*
Y04169*
X03129Y04162*
X0314*
X03148Y04169*
Y0418*
X0314Y04188*
G37*
G36*
X03531Y04185D02*
X03518D01*
X0351Y04176*
Y04163*
X03518Y04155*
X03531*
X0354Y04163*
Y04176*
X03531Y04185*
G37*
G36*
X03705Y04148D02*
X03694D01*
X03687Y0414*
Y04129*
X03694Y04122*
X03705*
X03713Y04129*
Y0414*
X03705Y04148*
G37*
G36*
X0316Y04108D02*
X03149D01*
X03142Y041*
Y04089*
X03149Y04082*
X0316*
X03168Y04089*
Y041*
X0316Y04108*
G37*
G36*
X03725Y04103D02*
X03714D01*
X03707Y04095*
Y04084*
X03714Y04077*
X03725*
X03733Y04084*
Y04095*
X03725Y04103*
G37*
G36*
X03661Y0412D02*
X03648D01*
X0364Y04111*
Y04106*
X03636Y04105*
X03623*
X03615Y04096*
Y04083*
X03623Y04075*
X03636*
X03645Y04083*
Y04088*
X03648Y0409*
X03661*
X0367Y04098*
Y04111*
X03661Y0412*
G37*
G36*
X03346Y041D02*
X03333D01*
X03325Y04091*
Y04078*
X03333Y0407*
X03346*
X03355Y04078*
Y04091*
X03346Y041*
G37*
G36*
X03221Y04095D02*
X03208D01*
X032Y04086*
Y04073*
X03208Y04065*
X03221*
X0323Y04073*
Y04086*
X03221Y04095*
G37*
G36*
X0343Y04088D02*
X03419D01*
X03412Y0408*
Y04073*
X03404*
X03397Y04065*
Y04054*
X03404Y04047*
X03415*
X03423Y04054*
Y04062*
X0343*
X03438Y04069*
Y0408*
X0343Y04088*
G37*
G36*
X03375Y04068D02*
X03364D01*
X03357Y0406*
Y04049*
X03364Y04042*
X03375*
X03383Y04049*
Y0406*
X03375Y04068*
G37*
G36*
X03476Y0404D02*
X03463D01*
X03455Y04031*
Y04018*
X03463Y0401*
X03476*
X03485Y04018*
Y04031*
X03476Y0404*
G37*
G36*
X02672Y04026D02*
X02657D01*
X02647Y04016*
Y04001*
X02657Y0399*
X02672*
X02682Y04001*
Y04016*
X02672Y04026*
G37*
G36*
X03115Y03963D02*
X03104D01*
X03097Y03955*
Y03944*
X03104Y03937*
X03115*
X03123Y03944*
Y03955*
X03115Y03963*
G37*
G36*
X02621Y03965D02*
X02608D01*
X026Y03956*
Y03943*
X02608Y03935*
X02621*
X0263Y03943*
Y03956*
X02621Y03965*
G37*
G36*
X0386Y03938D02*
X03849D01*
X03842Y0393*
Y03919*
X03849Y03912*
X0386*
X03868Y03919*
Y0393*
X0386Y03938*
G37*
G36*
X0351Y03898D02*
X03499D01*
X03492Y0389*
X03485Y03898*
X03474*
X03467Y0389*
Y03879*
X03474Y03872*
X03485*
X03492Y03879*
X03499Y03872*
X0351*
X03518Y03879*
Y0389*
X0351Y03898*
G37*
G36*
X0388Y03893D02*
X03869D01*
X03862Y03885*
Y03874*
X03869Y03867*
X0388*
X03888Y03874*
Y03885*
X0388Y03893*
G37*
G36*
X03441Y03895D02*
X03428D01*
X0342Y03886*
Y03873*
X03428Y03865*
X03441*
X0345Y03873*
Y03886*
X03441Y03895*
G37*
G36*
X03386D02*
X03373D01*
X03365Y03886*
Y03873*
X03373Y03865*
X03386*
X03395Y03873*
Y03886*
X03386Y03895*
G37*
G36*
X02664Y03918D02*
X02664Y03917D01*
X02657Y0391*
X02657Y0391*
Y03899*
X02657Y03899*
X02662Y03894*
X02659Y03883*
X02654*
X02647Y03875*
Y03864*
X02654Y03857*
X02665*
X02672Y03864*
X02673Y03864*
Y03875*
X02672Y03875*
X02667Y03881*
X0267Y03892*
X02675*
X02683Y03899*
Y0391*
X02675Y03917*
X02675Y03918*
X02664*
G37*
G36*
X0311Y03818D02*
X03099D01*
X03092Y0381*
Y03799*
X03099Y03792*
X0311*
X03118Y03799*
Y0381*
X0311Y03818*
G37*
G36*
X03836Y0382D02*
X03823D01*
X03815Y03811*
Y03798*
X03823Y0379*
X03836*
X03845Y03798*
Y03811*
X03836Y0382*
G37*
G36*
X03361Y0381D02*
X03348D01*
X0334Y03801*
Y03788*
X03348Y0378*
X03361*
X0337Y03788*
Y03801*
X03361Y0381*
G37*
G36*
X02656Y03835D02*
X02643D01*
X02635Y03826*
Y03813*
X02643Y03805*
X02648*
X02652Y03794*
X02647Y03788*
Y03773*
X02657Y03763*
X02672*
X02682Y03773*
Y03788*
X02672Y03799*
X02665*
X02661Y0381*
X02665Y03813*
Y03826*
X02656Y03835*
G37*
G36*
X03996Y03755D02*
X03983D01*
X03975Y03746*
Y03733*
X03983Y03725*
X03996*
X04005Y03733*
Y03746*
X03996Y03755*
G37*
G36*
X03911Y0375D02*
X03898D01*
X0389Y03741*
Y03728*
X03898Y0372*
X03911*
X0392Y03728*
Y03741*
X03911Y0375*
G37*
G36*
X03632Y03717D02*
X03621D01*
X03616Y03712*
X03605Y03713*
X03604*
X03594*
X03587Y03705*
Y03694*
X0359Y03691*
Y03539*
X03526Y03475*
X03518*
X0351Y03466*
Y03453*
X03518Y03445*
X03531*
X0354Y03453*
Y03461*
X03606Y03528*
X03609Y03535*
Y03684*
X03619Y03691*
X03621Y03691*
X03622*
X03632*
X03639Y03699*
Y0371*
X03632Y03717*
G37*
G36*
X0377Y03713D02*
X03759D01*
X03752Y03705*
Y03694*
X03759Y03687*
X03759*
X03762Y03676*
X03757Y0367*
Y03659*
X03764Y03652*
X03775*
X03783Y03659*
Y0367*
X03775Y03678*
X03775*
X03772Y03689*
X03778Y03694*
Y03705*
X0377Y03713*
G37*
G36*
X03185Y03678D02*
X03174D01*
X03167Y0367*
Y03659*
X03174Y03652*
X03185*
X03192Y03659*
X03202Y03654*
Y03644*
X03209Y03637*
X0322*
X03228Y03644*
Y03655*
X0322Y03663*
X03209*
X03202Y03655*
X03193Y0366*
Y0367*
X03185Y03678*
G37*
G36*
X03941Y03675D02*
X03928D01*
X0392Y03666*
Y03653*
X03928Y03645*
X03928Y03645*
X03932Y03634*
X0393Y03631*
Y03618*
X03938Y0361*
X03951*
X0396Y03618*
Y03631*
X03951Y03639*
X03951Y0364*
X03947Y03651*
X0395Y03653*
Y03666*
X03941Y03675*
G37*
G36*
X02946Y03635D02*
X02933D01*
X02925Y03626*
Y03613*
X02933Y03605*
X02946*
X02955Y03613*
Y03626*
X02946Y03635*
G37*
G36*
X04026Y0362D02*
X04013D01*
X04005Y03611*
Y03598*
X04013Y0359*
X04026*
X04035Y03598*
Y03611*
X04026Y0362*
G37*
G36*
X03791Y0356D02*
X03778D01*
X0377Y03551*
Y03543*
X03759Y03542*
X03755Y03545*
X03751Y0355*
X03738*
X0373Y03541*
Y03528*
X03738Y0352*
X03751*
X0376Y03528*
Y03536*
X03771Y03537*
X03774Y03534*
X03778Y0353*
X03791*
X038Y03538*
Y03551*
X03791Y0356*
G37*
G36*
X03466Y0351D02*
X03453D01*
X03445Y03501*
Y03488*
X03453Y0348*
X03466*
X03475Y03488*
Y03501*
X03466Y0351*
G37*
G36*
X03841Y03495D02*
X03828D01*
X0382Y03486*
Y03473*
X03828Y03465*
X03841*
X0385Y03473*
Y03486*
X03841Y03495*
G37*
%LNesp32c3phils-3*%
%LPD*%
G54D11*
X03465Y04165D02*
X03535Y04095D01*
X0332Y04165D02*
X03465D01*
X0329Y04195D02*
X0332Y04165D01*
X0329Y04195D02*
Y04225D01*
X0327Y04245D02*
X0329Y04225D01*
G54D13*
X04705Y03815D02*
D01*
X04704Y03817*
X04704Y0382*
X04704Y03823*
X04703Y03826*
X04702Y03828*
X04701Y03831*
X047Y03833*
X04698Y03836*
X04697Y03838*
X04695Y0384*
X04693Y03842*
X04691Y03844*
X04689Y03846*
X04687Y03848*
X04685Y03849*
X04682Y0385*
X04679Y03852*
X04677Y03853*
X04674Y03853*
X04671Y03854*
X04669Y03854*
X04666Y03854*
X04665Y03855*
X048Y0379D02*
D01*
X04803Y0379*
X04806Y0379*
X04809Y0379*
X04812Y03791*
X04815Y03792*
X04818Y03793*
X04821Y03795*
X04823Y03796*
X04826Y03798*
X04828Y038*
X04831Y03802*
X04833Y03804*
X04835Y03807*
X04837Y03809*
X04838Y03812*
X0484Y03815*
X04841Y03818*
X04842Y03821*
X04843Y03824*
X04844Y03827*
X04844Y0383*
X04844Y03833*
X04845Y03835*
X04705Y03815D02*
D01*
X04705Y03813*
X04705Y03811*
X04705Y03809*
X04705Y03808*
X04706Y03806*
X04707Y03804*
X04707Y03803*
X04708Y03801*
X04709Y038*
X0471Y03798*
X04712Y03797*
X04713Y03796*
X04714Y03795*
X04716Y03794*
X04717Y03793*
X04719Y03792*
X0472Y03791*
X04722Y03791*
X04723Y0379*
X04725Y0379*
X04727Y0379*
X04729Y0379*
X0473Y0379*
X03561Y03796D02*
X03691D01*
X0351Y03745D02*
X03561Y03796D01*
X03691D02*
X03745Y0385D01*
X0358Y0393D02*
X0366Y0385D01*
X03694*
X0342Y0393D02*
X0358D01*
X04115Y0394D02*
X04555D01*
X04Y0381D02*
X0446D01*
X0448Y0383*
X0348Y0368D02*
X0351Y0371D01*
Y03745*
X04115Y03855D02*
X04665D01*
X04Y03985D02*
X04725D01*
X04745Y0383D02*
Y03965D01*
X04725Y03985D02*
X04745Y03965D01*
X0473Y0379D02*
X048D01*
X0375Y03955D02*
X0375Y03954D01*
X0373Y03955D02*
X0375D01*
X037Y03925D02*
X0373Y03955D01*
X037Y03855D02*
Y03925D01*
X03745Y0392D02*
X0376Y03935D01*
X03745Y0385D02*
Y0392D01*
X03474Y0365D02*
X0348Y03655D01*
Y0368*
X0342Y0365D02*
X03474D01*
X03355Y03585D02*
X0342Y0365D01*
X0306Y0414D02*
X0317Y0403D01*
X03005Y0414D02*
X0306D01*
X0317Y0403D02*
X0332D01*
X0342Y0393*
X03694Y0385D02*
X037Y03855D01*
G54D17*
X03675Y0395D02*
Y0404D01*
X03525Y0346D02*
X036Y03535D01*
Y037*
X0367Y0388D02*
Y03945D01*
X03675Y0395*
G54D83*
X03785Y03545D03*
X0346Y03495D03*
X03475Y03595D03*
X0392Y0357D03*
X03835Y0348D03*
X03945Y03625D03*
X04535Y0391D03*
X0351Y03685D03*
X03279Y03631D03*
X03525Y04055D03*
X03935Y0366D03*
X0338Y0388D03*
X03435D03*
X0364Y04025D03*
X03705Y0402D03*
X03675Y0404D03*
X03575Y04085D03*
X0363Y0409D03*
X03655Y04105D03*
X0364Y04125D03*
X03765Y0401D03*
X03785Y0403D03*
X0377Y03985D03*
X0448Y0383D03*
X04Y0381D03*
X03735Y037D03*
X0377Y0352D03*
X0399Y0374D03*
X0402Y03605D03*
X03525Y0346D03*
X03905Y03735D03*
X03805Y03975D03*
X03735Y04025D03*
X03355Y03795D03*
X033Y03685D03*
X03525Y0417D03*
X03745Y03535D03*
X0383Y03805D03*
X0294Y0362D03*
X03535Y04095D03*
X0327Y04245D03*
X03555Y0404D03*
X0383Y03975D03*
X0376Y03935D03*
X02615Y0395D03*
X0367Y0388D03*
X03175Y03495D03*
X03525Y0351D03*
X03435Y03595D03*
X0334Y04085D03*
Y04205D03*
X03215Y0408D03*
X0337Y0423D03*
X03555Y03955D03*
X0347Y04025D03*
X0265Y0382D03*
G54D85*
X0346Y03737D02*
Y03738D01*
X03466Y03743D02*
Y03745D01*
X0346Y03738D02*
X03466Y03743D01*
X0311Y0338D02*
X03113D01*
X03109Y03386D02*
X03249Y03526D01*
X03133Y0338D02*
X03265Y03512D01*
X03249Y03526D02*
Y03546D01*
X03265Y03512D02*
Y0354D01*
X03249Y03546D02*
X03309Y03606D01*
X03265Y0354D02*
X03325Y036D01*
X03309Y03606D02*
Y03656D01*
X03325Y036D02*
Y0365D01*
X03394Y03719D02*
X03442D01*
X03325Y0365D02*
X03394Y03719D01*
X03309Y03656D02*
X03387Y03735D01*
X03436*
X03442Y03719D02*
X0346Y03737D01*
X03445Y03743D02*
Y03745D01*
X03436Y03735D02*
X03445Y03743D01*
G54D93*
X02665Y04008D03*
Y03781D03*
G54D94*
X0387Y0336D03*
X0366Y03355D03*
X03485Y03315D03*
X039Y0402D03*
X0368Y0382D03*
X03635Y03845D03*
X03615Y03825D03*
X04555Y0394D03*
X0449Y03885D03*
X04115Y0394D03*
X04Y03985D03*
X04845Y0422D03*
X0395Y03075D03*
X04025D03*
X04105D03*
X04185D03*
X04265D03*
X04345D03*
X04425Y0308D03*
X04505Y03075D03*
X04585Y0308D03*
X0472Y03045D03*
X04845Y03835D03*
X04115Y03855D03*
X04745Y0383D03*
X0386Y03975D03*
G54D95*
X03133Y0338D03*
X0311D03*
Y0312D03*
X0308D03*
X0354Y03723D03*
Y03702D03*
X03445Y03745D03*
X03466D03*
X03375Y03578D03*
X03366Y03654D03*
X0344Y03695D03*
X03459Y03681D03*
X03626Y03704D03*
X03505Y03815D03*
X0351Y0379D03*
X03475Y0377D03*
X0375Y03954D03*
X0267Y03905D03*
X0266Y0387D03*
X03875Y0388D03*
X0388Y039D03*
X03135Y04175D03*
X03355Y03585D03*
X03155Y04095D03*
X03105Y03805D03*
X0311Y0395D03*
X03005Y0414D03*
X0377Y0383D03*
Y03665D03*
Y0385D03*
X03765Y037D03*
X0315Y0367D03*
X037Y04115D03*
Y04135D03*
X03855Y03925D03*
X03585Y0404D03*
X037Y03975D03*
X0346Y03625D03*
X0318Y03665D03*
X03215Y0365D03*
X03403Y03654D03*
X0365Y0399D03*
X0372Y0409D03*
X03635Y03975D03*
X0337Y04055D03*
X03505Y03885D03*
X03425Y04075D03*
X0348Y03885D03*
X0341Y0406D03*
X036Y037D03*
X035Y03605D03*
G54D96*
X02845Y04095D03*
X02785Y03745D03*
G54D97*
X0467Y0352D03*
X0477Y0342D03*
Y0362D03*
X0457D03*
Y0342D03*
M02*