%FSTAX23Y23*%
%MOIN*%
%SFA1B1*%

%IPPOS*%
%AMD98*
4,1,120,0.029800,0.000000,0.029700,0.001600,0.029600,0.003200,0.029400,0.004700,0.029100,0.006200,0.028800,0.007700,0.028300,0.009200,0.027800,0.010700,0.027200,0.012100,0.026500,0.013500,0.025800,0.014900,0.025000,0.016200,0.024100,0.017500,0.023200,0.018800,0.022100,0.019900,0.021100,0.021100,0.019900,0.022100,0.018800,0.023100,0.017500,0.024100,0.016200,0.025000,0.014900,0.025800,0.013500,0.026500,0.012100,0.027200,0.010700,0.027800,0.009200,0.028300,0.007700,0.028800,0.006200,0.029100,0.004700,0.029400,0.003200,0.029600,0.001600,0.029700,0.000000,0.029800,-0.001500,0.029700,-0.003100,0.029600,-0.004600,0.029400,-0.006100,0.029100,-0.007600,0.028800,-0.009100,0.028300,-0.010600,0.027800,-0.012000,0.027200,-0.013400,0.026500,-0.014800,0.025800,-0.016100,0.025000,-0.017400,0.024100,-0.018700,0.023100,-0.019800,0.022100,-0.021000,0.021100,-0.022000,0.019900,-0.023100,0.018800,-0.024000,0.017500,-0.024900,0.016200,-0.025700,0.014900,-0.026400,0.013500,-0.027100,0.012100,-0.027700,0.010700,-0.028200,0.009200,-0.028700,0.007700,-0.029000,0.006200,-0.029300,0.004700,-0.029500,0.003200,-0.029600,0.001600,-0.029700,0.000000,-0.029600,-0.001500,-0.029500,-0.003100,-0.029300,-0.004600,-0.029000,-0.006100,-0.028700,-0.007600,-0.028200,-0.009100,-0.027700,-0.010600,-0.027100,-0.012000,-0.026400,-0.013400,-0.025700,-0.014800,-0.024900,-0.016100,-0.024000,-0.017400,-0.023100,-0.018700,-0.022000,-0.019800,-0.021000,-0.021000,-0.019800,-0.022000,-0.018700,-0.023000,-0.017400,-0.024000,-0.016100,-0.024900,-0.014800,-0.025700,-0.013400,-0.026400,-0.012000,-0.027100,-0.010600,-0.027700,-0.009100,-0.028200,-0.007600,-0.028700,-0.006100,-0.029000,-0.004600,-0.029300,-0.003100,-0.029500,-0.001500,-0.029600,0.000000,-0.029700,0.001600,-0.029600,0.003200,-0.029500,0.004700,-0.029300,0.006200,-0.029000,0.007700,-0.028700,0.009200,-0.028200,0.010700,-0.027700,0.012100,-0.027100,0.013500,-0.026400,0.014900,-0.025700,0.016200,-0.024900,0.017500,-0.024000,0.018800,-0.023000,0.019900,-0.022000,0.021100,-0.021000,0.022100,-0.019800,0.023200,-0.018700,0.024100,-0.017400,0.025000,-0.016100,0.025800,-0.014800,0.026500,-0.013400,0.027200,-0.012000,0.027800,-0.010600,0.028300,-0.009100,0.028800,-0.007600,0.029100,-0.006100,0.029400,-0.004600,0.029600,-0.003100,0.029700,-0.001500,0.029800,0.000000,0.0*
%
%AMD99*
4,1,120,0.029800,0.000000,0.029700,0.001600,0.029600,0.003200,0.029400,0.004700,0.029100,0.006200,0.028800,0.007700,0.028300,0.009200,0.027800,0.010700,0.027200,0.012100,0.026500,0.013500,0.025800,0.014900,0.025000,0.016200,0.024100,0.017500,0.023100,0.018800,0.022100,0.019900,0.021100,0.021100,0.019900,0.022100,0.018800,0.023100,0.017500,0.024100,0.016200,0.025000,0.014900,0.025800,0.013500,0.026500,0.012100,0.027200,0.010700,0.027800,0.009200,0.028300,0.007700,0.028800,0.006200,0.029100,0.004700,0.029400,0.003200,0.029600,0.001600,0.029700,0.000000,0.029800,-0.001500,0.029700,-0.003100,0.029600,-0.004600,0.029400,-0.006100,0.029100,-0.007600,0.028800,-0.009100,0.028300,-0.010600,0.027800,-0.012000,0.027200,-0.013400,0.026500,-0.014800,0.025800,-0.016100,0.025000,-0.017400,0.024100,-0.018700,0.023100,-0.019800,0.022100,-0.021000,0.021100,-0.022000,0.019900,-0.023000,0.018800,-0.024000,0.017500,-0.024900,0.016200,-0.025700,0.014900,-0.026400,0.013500,-0.027100,0.012100,-0.027700,0.010700,-0.028200,0.009200,-0.028700,0.007700,-0.029000,0.006200,-0.029300,0.004700,-0.029500,0.003200,-0.029600,0.001600,-0.029700,0.000000,-0.029600,-0.001500,-0.029500,-0.003100,-0.029300,-0.004600,-0.029000,-0.006100,-0.028700,-0.007600,-0.028200,-0.009100,-0.027700,-0.010600,-0.027100,-0.012000,-0.026400,-0.013400,-0.025700,-0.014800,-0.024900,-0.016100,-0.024000,-0.017400,-0.023000,-0.018700,-0.022000,-0.019800,-0.021000,-0.021000,-0.019800,-0.022000,-0.018700,-0.023000,-0.017400,-0.024000,-0.016100,-0.024900,-0.014800,-0.025700,-0.013400,-0.026400,-0.012000,-0.027100,-0.010600,-0.027700,-0.009100,-0.028200,-0.007600,-0.028700,-0.006100,-0.029000,-0.004600,-0.029300,-0.003100,-0.029500,-0.001500,-0.029600,0.000000,-0.029700,0.001600,-0.029600,0.003200,-0.029500,0.004700,-0.029300,0.006200,-0.029000,0.007700,-0.028700,0.009200,-0.028200,0.010700,-0.027700,0.012100,-0.027100,0.013500,-0.026400,0.014900,-0.025700,0.016200,-0.024900,0.017500,-0.024000,0.018800,-0.023000,0.019900,-0.022000,0.021100,-0.021000,0.022100,-0.019800,0.023100,-0.018700,0.024100,-0.017400,0.025000,-0.016100,0.025800,-0.014800,0.026500,-0.013400,0.027200,-0.012000,0.027800,-0.010600,0.028300,-0.009100,0.028800,-0.007600,0.029100,-0.006100,0.029400,-0.004600,0.029600,-0.003100,0.029700,-0.001500,0.029800,0.000000,0.0*
%
%ADD11C,0.020000*%
%ADD13C,0.010000*%
%ADD17C,0.008000*%
%ADD78C,0.079000*%
%ADD79C,0.087000*%
%ADD83C,0.020000*%
%ADD85C,0.010598*%
%ADD93C,0.025591*%
%ADD94C,0.025000*%
%ADD95C,0.016000*%
%ADD96C,0.050000*%
%ADD98D98*%
%ADD99D99*%
%LNesp32c3phils-1*%
%LPD*%
G36*
X0389Y0408D02*
X04875D01*
Y03125*
X03123*
Y03125*
X03115Y03133*
X03104*
X03101Y0313*
X03095Y03126*
X03088Y0313*
X03085Y03133*
X03074*
X03067Y03125*
Y03125*
X02675*
Y0348*
X02673Y03499*
X02658Y03535*
X0263Y03563*
X02594Y03578*
X02575Y0358*
X02465*
X02455Y03583*
X02448Y0359*
X02445Y036*
Y03605*
Y04145*
Y04163*
X02459Y04198*
X02486Y04225*
X02521Y0424*
X0254*
X03255*
Y04238*
X03263Y0423*
X03271*
X03276Y04219*
X03203Y04146*
X03198Y04135*
Y0408*
X032Y04077*
Y04073*
X03202Y04071*
X03203Y04068*
X03206Y04067*
X03208Y04065*
X03212*
X03215Y04063*
X03217Y04065*
X03221*
X03223Y04067*
X03226Y04068*
X03227Y04071*
X0323Y04073*
Y04077*
X03231Y0408*
Y04128*
X03313Y0421*
X03322Y04206*
X03323Y04205*
Y04085*
X03325Y04082*
Y04078*
X03327Y04076*
X03328Y04073*
X03331Y04072*
X03333Y0407*
X03337*
X0334Y04068*
X03342Y0407*
X03346*
X03348Y04072*
X03351Y04073*
X03352Y04076*
X03355Y04078*
Y04082*
X03356Y04085*
Y04205*
X03363Y04213*
X03364Y04213*
X0337*
X03372Y04215*
X03376*
X03378Y04217*
X03381Y04218*
X03382Y04221*
X03385Y04223*
Y04227*
X03386Y0423*
X03391Y04238*
X03394Y0424*
X0389*
Y0408*
G37*
%LNesp32c3phils-2*%
%LPC*%
G36*
X0314Y04188D02*
X03129D01*
X03122Y0418*
Y04169*
X03129Y04162*
X0314*
X03148Y04169*
Y0418*
X0314Y04188*
G37*
G36*
X03531Y04185D02*
X03518D01*
X0351Y04176*
Y04163*
X03518Y04155*
X03531*
X0354Y04163*
Y04176*
X03531Y04185*
G37*
G36*
X0301Y04153D02*
X02999D01*
X02992Y04145*
Y04134*
X02999Y04127*
X0301*
X03018Y04134*
Y04145*
X0301Y04153*
G37*
G36*
X03705Y04148D02*
X03694D01*
X03687Y0414*
Y04129*
X03694Y04122*
X03705*
X03713Y04129*
Y0414*
X03705Y04148*
G37*
G36*
X03661Y0412D02*
X03648D01*
X03646Y04117*
X03644Y04117*
X03573*
X03566Y04115*
X03551Y041*
X0355Y04101*
X03541Y0411*
X03528*
X0352Y04101*
Y04088*
X03526Y04081*
X03527Y0408*
X03524Y0407*
X03518*
X0351Y04061*
Y04048*
X03518Y0404*
X03529*
X03531*
X0354Y04033*
X0354Y04033*
X03548Y04025*
X03561*
X03563Y04027*
X0357Y04033*
X03578Y04028*
X03579Y04027*
X03584*
X03595Y04015*
Y03969*
X0359Y03964*
X03566*
X03561Y0397*
X03548*
X03543Y03964*
X03532Y03969*
Y03972*
X03529Y03979*
X03485Y04023*
Y04031*
X03476Y0404*
X03463*
X03459Y04041*
Y0408*
X03456Y04086*
X03446Y04096*
X0344Y04099*
X03415*
X03408Y04096*
X03377Y04066*
X03375Y04068*
X03364*
X03357Y0406*
Y04049*
X03364Y04042*
X03375*
X03378Y04045*
X0338*
X03386Y04048*
X03389Y0405*
X034Y04045*
Y0392*
X03403Y03913*
X03415Y039*
X0341Y03889*
X03391*
X03386Y03895*
X03373*
X03365Y03886*
Y03873*
X03373Y03865*
X03386*
X03391Y0387*
X03423*
X03428Y03865*
X03441*
X03446Y0387*
X03457Y03865*
Y03853*
X0346Y03846*
X03492Y03814*
Y03809*
X03499Y03802*
X035Y03799*
X03497Y03795*
Y03784*
X03489Y03777*
X03481Y03785*
X03468*
X0346Y03776*
Y03763*
X03452Y03756*
X0345Y03758*
X03439*
X03432Y0375*
Y03739*
X03437Y03734*
Y0372*
X03437Y03719*
X03434Y03708*
X03427Y037*
Y03691*
X03329*
X03322Y03688*
X03309Y03674*
X03188*
X03185Y03678*
X03174*
X03167Y0367*
Y03659*
X03174Y03652*
X03185*
X03188Y03655*
X03202*
Y03644*
X03209Y03637*
X0322*
X03223Y0364*
X03263*
X03264Y03638*
Y03625*
X03273Y03616*
X03285*
X0329Y03622*
X0338*
X03384Y03623*
X0339Y03614*
X03381Y03605*
X03378Y03598*
Y03596*
X03377Y03595*
X03368Y0359*
X0336Y03598*
X03349*
X03342Y0359*
Y03579*
X03349Y03572*
X0336*
X03361Y03573*
X03362Y03572*
X03369Y03565*
X0338*
X03388Y03572*
Y03578*
X03395Y03585*
X03398Y03592*
Y03594*
X03419Y03615*
X03451*
X03454Y03612*
X03455*
X0346Y03601*
Y03601*
Y03588*
X03468Y0358*
X03481*
X0349Y03588*
Y0359*
X03494Y03592*
X03505*
X03513Y03599*
Y03602*
X03549Y03639*
X0361*
X03617Y03642*
X03634Y03659*
X03637Y03666*
Y03697*
X03639Y03699*
Y0371*
X03632Y03717*
X03621*
X03616Y03712*
X03605Y03713*
X03604*
X03594*
X03587Y03705*
Y03703*
X03579Y03695*
X03553*
X03553Y03697*
Y03708*
X03547Y03713*
X03553Y03718*
Y03729*
X03545Y03736*
X03534*
X0353Y03732*
X03526Y03731*
X03486*
X03479Y03739*
Y0375*
X0348Y03755*
X03481*
X0349Y03763*
Y03775*
X03498Y03783*
X03504Y03777*
X03504*
X03504*
X03515*
X03521Y03782*
X03521Y03783*
X03529Y0379*
X03532Y03797*
Y0394*
X03543Y03945*
X03548Y0394*
X03561*
X03566Y03945*
X03595*
X03601Y03948*
X03611Y03958*
X03613Y03962*
X03621Y03965*
X03625Y03965*
X03629Y03962*
X0364*
X03648Y03969*
Y03977*
X03655*
X03658Y0398*
X03687*
Y03969*
X03694Y03962*
X03705*
X03713Y03969*
Y0398*
X03743*
X03745Y03978*
X03745Y03975*
X03743Y03966*
X03737Y0396*
Y03949*
X03744Y03941*
X03745Y03941*
X03745Y03941*
Y03928*
X03753Y0392*
X03766*
X03773Y03927*
X03775Y03928*
X03786Y0393*
X03798Y03918*
X03805Y03915*
X03846*
X03849Y03912*
X0386*
X03868Y03919*
Y0393*
X0386Y03938*
X03849*
X03846Y03934*
X03809*
X03796Y03947*
Y03959*
X03798Y0396*
X03811*
X03817Y03966*
X03823Y0396*
X03836*
X03843Y03967*
X03852Y03957*
X03867*
X03877Y03967*
Y03982*
X03867Y03992*
X03852*
X03843Y03982*
X03836Y0399*
X03823*
X03817Y03983*
X03811Y0399*
X03798*
X03796Y0399*
Y04012*
X03794Y04017*
Y04018*
X038Y04023*
Y04036*
X03791Y04045*
X03778*
X0377Y04036*
Y04025*
X03758*
X0375Y04031*
X03741Y0404*
X03733*
X03706Y04066*
X03704Y04067*
X03705Y04079*
X03711Y04079*
X03714Y04077*
X03725*
X03733Y04084*
Y04095*
X03725Y04103*
X03714*
X03711Y04099*
X0367*
Y04111*
X03661Y0412*
G37*
G36*
X0316Y04108D02*
X03149D01*
X03142Y041*
Y04089*
X03149Y04082*
X0316*
X03168Y04089*
Y041*
X0316Y04108*
G37*
G36*
X02672Y04026D02*
X02657D01*
X02647Y04016*
Y04001*
X02657Y0399*
X02672*
X02682Y04001*
Y04016*
X02672Y04026*
G37*
G36*
X04007Y04002D02*
X03992D01*
X03982Y03992*
Y03977*
X03992Y03967*
X04007*
X04017Y03977*
Y03992*
X04007Y04002*
G37*
G36*
X03115Y03963D02*
X03104D01*
X03097Y03955*
Y03944*
X03104Y03937*
X03115*
X03123Y03944*
Y03955*
X03115Y03963*
G37*
G36*
X04122Y03957D02*
X04107D01*
X04097Y03947*
Y03932*
X04107Y03922*
X04122*
X04132Y03932*
Y03947*
X04122Y03957*
G37*
G36*
X04562D02*
X04547D01*
X04537Y03947*
Y03936*
Y03932*
X04529Y03925*
X04528*
X0452Y03916*
Y03903*
X04528Y03895*
X04541*
X0455Y03903*
Y03916*
X04558Y03922*
X04562*
X04572Y03932*
Y03947*
X04562Y03957*
G37*
G36*
X04497Y03902D02*
X04482D01*
X04472Y03892*
Y03877*
X04482Y03867*
X04497*
X04507Y03877*
Y03892*
X04497Y03902*
G37*
G36*
X0388Y03893D02*
X03869D01*
X03862Y03885*
Y03874*
X03869Y03867*
X0388*
X03888Y03874*
Y03885*
X0388Y03893*
G37*
G36*
X02664Y03918D02*
X02664Y03917D01*
X02657Y0391*
X02657Y0391*
Y03899*
X02657Y03899*
X02662Y03894*
X02659Y03883*
X02654*
X02647Y03875*
Y03864*
X02654Y03857*
X02665*
X02672Y03864*
X02673Y03864*
Y03875*
X02672Y03875*
X02667Y03881*
X0267Y03892*
X02675*
X02683Y03899*
Y0391*
X02675Y03917*
X02675Y03918*
X02664*
G37*
G36*
X04122Y03872D02*
X04107D01*
X04097Y03862*
Y03847*
X04107Y03837*
X04122*
X04132Y03847*
Y03862*
X04122Y03872*
G37*
G36*
X04852Y03852D02*
X04837D01*
X04827Y03842*
Y03827*
X04837Y03817*
X04852*
X04862Y03827*
Y03842*
X04852Y03852*
G37*
G36*
X03775Y03863D02*
X03764D01*
X03761Y03859*
X03715*
X03708Y03856*
X03698Y03846*
X03695Y0384*
Y0376*
X03698Y03753*
X03752Y03699*
Y03698*
X03748Y03694*
X03745Y03688*
Y03575*
X03748Y03568*
X03758Y03558*
X0375Y0355*
X03738*
X0373Y03541*
Y03528*
X03738Y0352*
X03751*
X0376Y03528*
Y03536*
X03771Y03537*
X03778Y0353*
X03791*
X038Y03538*
Y03551*
X03791Y0356*
X03783*
X03764Y03579*
Y03652*
X03775*
X03783Y03659*
Y03664*
X03791Y03673*
X03794Y0368*
Y0371*
X03791Y03716*
X03724Y03784*
Y0382*
X03761*
X03764Y03817*
X03775*
X03783Y03824*
Y03835*
X03778Y0384*
X03783Y03844*
Y03855*
X03775Y03863*
G37*
G36*
X04486Y03845D02*
X04473D01*
X04465Y03836*
Y03823*
X04473Y03815*
X04486*
X04495Y03823*
Y03836*
X04486Y03845*
G37*
G36*
X04752Y03847D02*
X04737D01*
X04727Y03837*
Y03822*
X04737Y03812*
X04752*
X04762Y03822*
Y03837*
X04752Y03847*
G37*
G36*
X04006Y03825D02*
X03993D01*
X03985Y03816*
Y03803*
X03993Y03795*
X04006*
X04015Y03803*
Y03816*
X04006Y03825*
G37*
G36*
X0311Y03818D02*
X03099D01*
X03092Y0381*
Y03799*
X03099Y03792*
X0311*
X03118Y03799*
Y0381*
X0311Y03818*
G37*
G36*
X03836Y0382D02*
X03823D01*
X03815Y03811*
Y03798*
X03823Y0379*
X03836*
X03845Y03798*
Y03811*
X03836Y0382*
G37*
G36*
X03361Y0381D02*
X03348D01*
X0334Y03801*
Y03788*
X03348Y0378*
X03361*
X0337Y03788*
Y03801*
X03361Y0381*
G37*
G36*
X02615Y03966D02*
X02612Y03965D01*
X02608*
X02606Y03962*
X02603Y03961*
X02602Y03958*
X026Y03956*
Y03952*
X02598Y0395*
Y03855*
X02603Y03843*
X02638Y03808*
X02641Y03807*
X02643Y03805*
X02647*
X02647Y03804*
X02652Y03793*
X02647Y03788*
Y03773*
X02657Y03763*
X02672*
X02682Y03773*
Y03788*
X02672Y03799*
X02666*
X02662Y0381*
X02662Y03811*
X02665Y03813*
Y03817*
X02666Y0382*
X02665Y03822*
Y03826*
X02662Y03828*
X02661Y03831*
X02631Y03861*
Y0395*
X0263Y03952*
Y03956*
X02627Y03958*
X02626Y03961*
X02623Y03962*
X02621Y03965*
X02617*
X02615Y03966*
G37*
G36*
X03996Y03755D02*
X03983D01*
X03975Y03746*
Y03733*
X03983Y03725*
X03996*
X04005Y03733*
Y03746*
X03996Y03755*
G37*
G36*
X03911Y0375D02*
X03898D01*
X0389Y03741*
Y03728*
X03898Y0372*
X03911*
X0392Y03728*
Y03741*
X03911Y0375*
G37*
G36*
X03941Y03675D02*
X03928D01*
X0392Y03666*
Y03653*
X03928Y03645*
X03928Y03645*
X03932Y03634*
X0393Y03631*
Y03618*
X03938Y0361*
X03951*
X0396Y03618*
Y03631*
X03951Y03639*
X03951Y0364*
X03947Y03651*
X0395Y03653*
Y03666*
X03941Y03675*
G37*
G36*
X02946Y03635D02*
X02933D01*
X02925Y03626*
Y03613*
X02933Y03605*
X02946*
X02955Y03613*
Y03626*
X02946Y03635*
G37*
G36*
X04026Y0362D02*
X04013D01*
X04005Y03611*
Y03598*
X04013Y0359*
X04026*
X04035Y03598*
Y03611*
X04026Y0362*
G37*
G36*
X03466Y0351D02*
X03453D01*
X03445Y03501*
Y03488*
X03453Y0348*
X03466*
X03475Y03488*
Y03501*
X03466Y0351*
G37*
G36*
X04678Y03564D02*
X04661D01*
X04644Y03557*
X04632Y03545*
X04625Y03528*
Y03511*
X04632Y03494*
X04644Y03482*
X04661Y03475*
X04678*
X04695Y03482*
X04707Y03494*
X04714Y03511*
Y03528*
X04707Y03545*
X04695Y03557*
X04678Y03564*
G37*
G36*
X03841Y03495D02*
X03828D01*
X0382Y03486*
Y03473*
X03828Y03465*
X03841*
X0385Y03473*
Y03486*
X03841Y03495*
G37*
G36*
X03531Y03475D02*
X03518D01*
X0351Y03466*
Y03453*
X03518Y03445*
X03531*
X0354Y03453*
Y03466*
X03531Y03475*
G37*
G36*
X03138Y03393D02*
X03127D01*
X03121Y03386*
X03115Y03393*
X03104*
X03097Y03385*
Y03374*
X03104Y03367*
X03115*
X03121Y03373*
X03127Y03367*
X03138*
X03146Y03374*
Y03385*
X03138Y03393*
G37*
%LNesp32c3phils-3*%
%LPD*%
G36*
X03495Y0394D02*
Y03903D01*
X03485Y03898*
X0348*
X03434Y03944*
Y03986*
X03445Y0399*
X03495Y0394*
G37*
G36*
X03495Y03691D02*
Y03678D01*
X03503Y0367*
X03516*
X0352Y03674*
X03583*
X03591Y03677*
X036Y03687*
X03605*
X03605*
X03616Y03682*
Y03671*
X03605Y0366*
X03545*
X03537Y03657*
X03497Y03618*
X03494*
X03488Y03612*
X03477Y03613*
X03473Y03619*
Y03621*
Y0363*
X03465Y03638*
X03454*
X03451Y03634*
X03417*
X03412Y03641*
X03411Y03644*
X03416Y03649*
Y0366*
X03416Y0366*
X0342Y03671*
X03451*
X03454Y03668*
X03465*
X03472Y03676*
Y03686*
X03479Y03695*
X03493*
X03495Y03691*
G37*
G54D11*
X02615Y03855D02*
X0265Y0382D01*
X02615Y03855D02*
Y0395D01*
X0334Y04085D02*
Y04205D01*
X03215Y0408D02*
Y04135D01*
X0331Y0423*
X0337*
G54D13*
X0351Y03685D02*
X03583D01*
X0361Y0365D02*
X03626Y03666D01*
Y03704*
X03905Y03045D02*
X0392D01*
X0395Y03075*
X03995Y03045D02*
X04025Y03075D01*
X03985Y03045D02*
X03995D01*
X04065D02*
X04075D01*
X04105Y03075*
X04155Y03045D02*
X04185Y03075D01*
X04145Y03045D02*
X04155D01*
X04235D02*
X04265Y03075D01*
X04225Y03045D02*
X04235D01*
X04315D02*
X04345Y03075D01*
X04305Y03045D02*
X04315D01*
X0439D02*
X04425Y0308D01*
X04385Y03045D02*
X0439D01*
X04475D02*
X04505Y03075D01*
X04465Y03045D02*
X04475D01*
X04562Y03062D02*
X04567D01*
X04545Y03045D02*
X04562Y03062D01*
X04567D02*
X04585Y0308D01*
X04625Y03045D02*
X04625Y03045D01*
X0472*
X03583Y03685D02*
X03598Y037D01*
X036*
X03545Y0365D02*
X0361D01*
X035Y03605D02*
X03545Y0365D01*
G54D17*
X03755Y03575D02*
X03785Y03545D01*
X03735Y03579D02*
Y037D01*
X03279Y03631D02*
X0338D01*
X03403Y03654*
X03388Y03592D02*
Y03598D01*
X03375Y03579D02*
X03388Y03592D01*
X03375Y03578D02*
Y03579D01*
X03388Y03598D02*
X03415Y03625D01*
X03343Y0365D02*
X03347Y03654D01*
X03365*
X03366Y03654*
X03215Y0365D02*
X03343D01*
X03313Y03665D02*
X03329Y03681D01*
X03459*
X03467Y03853D02*
Y03883D01*
Y03853D02*
X03505Y03815D01*
X0345Y039D02*
X03467Y03883D01*
X03515Y0379D02*
X03522Y03797D01*
Y03972*
X0351Y0379D02*
X03515D01*
X0347Y04025D02*
X03522Y03972D01*
X03528Y04055D02*
X03538Y04065D01*
X03545D02*
X0355Y0407D01*
X03525Y04055D02*
X03528D01*
X03538Y04065D02*
X03545D01*
X03635Y03975D02*
Y03976D01*
X0363Y03981D02*
X03635Y03976D01*
X0363Y03981D02*
Y03995D01*
X03645Y0401*
X0367*
X03675Y04005D02*
X0369D01*
X0367Y0401D02*
X03675Y04005D01*
X0338Y0388D02*
X03435D01*
X0369Y04005D02*
X03705Y0402D01*
X03575Y04085D02*
X03577Y04083D01*
X03597*
X0362Y0406*
X037*
X03735Y04025*
X0355Y04085D02*
X03573Y04108D01*
X03645Y04107D02*
X03652D01*
X03644Y04108D02*
X03645Y04107D01*
X03573Y04108D02*
X03644D01*
X0363Y0409D02*
X0372D01*
X03698Y04115D02*
X037D01*
X0364Y04125D02*
X03688D01*
X03652Y04107D02*
X03655Y04105D01*
X03688Y04125D02*
X03698Y04115D01*
X03745Y0399D02*
X03765Y0401D01*
X03785Y04015D02*
Y0403D01*
X03787Y03942D02*
Y04012D01*
X03785Y04015D02*
X03787Y04012D01*
X03783Y04028D02*
X03785Y0403D01*
X03787Y03942D02*
X03805Y03925D01*
X03755Y03575D02*
Y03688D01*
X03765Y03698*
X0365Y0399D02*
X03745D01*
X0369Y039D02*
X0388D01*
X0367Y0388D02*
X0369Y039D01*
X0355Y0407D02*
Y04085D01*
X03415Y03625D02*
X0346D01*
X0372Y0383D02*
X0377D01*
X03715Y03825D02*
X0372Y0383D01*
X03715Y0378D02*
Y03825D01*
Y0378D02*
X03785Y0371D01*
Y0368D02*
Y0371D01*
X0377Y03665D02*
X03785Y0368D01*
X03765Y03698D02*
Y037D01*
X03715Y0385D02*
X0377D01*
X03705Y0384D02*
X03715Y0385D01*
X03705Y0376D02*
Y0384D01*
Y0376D02*
X03765Y037D01*
X03805Y03925D02*
X03855D01*
X03585Y0404D02*
X03605Y0402D01*
Y03965D02*
Y0402D01*
X03595Y03955D02*
X03605Y03965D01*
X03435Y03595D02*
X0352Y0351D01*
X03525*
X0318Y03665D02*
X03313D01*
X03555Y03955D02*
X03595D01*
X0337Y04055D02*
X0338D01*
X03415Y0409*
X0344*
X0345Y0408*
Y04D02*
Y0408D01*
X03505Y03885D02*
Y03945D01*
X0345Y04D02*
X03505Y03945D01*
X03425Y0394D02*
Y04075D01*
Y0394D02*
X0348Y03885D01*
X0341Y0392D02*
Y0406D01*
X0343Y039D02*
X0345D01*
X0341Y0392D02*
X0343Y039D01*
G54D78*
X0467Y0352D03*
G54D79*
X0477Y0342D03*
Y0362D03*
X0457D03*
Y0342D03*
G54D83*
X03785Y03545D03*
X0346Y03495D03*
X03475Y03595D03*
X0392Y0357D03*
X03835Y0348D03*
X03945Y03625D03*
X04535Y0391D03*
X0351Y03685D03*
X03279Y03631D03*
X03525Y04055D03*
X03935Y0366D03*
X0338Y0388D03*
X03435D03*
X0364Y04025D03*
X03705Y0402D03*
X03675Y0404D03*
X03575Y04085D03*
X0363Y0409D03*
X03655Y04105D03*
X0364Y04125D03*
X03765Y0401D03*
X03785Y0403D03*
X0377Y03985D03*
X0448Y0383D03*
X04Y0381D03*
X03735Y037D03*
X0377Y0352D03*
X0399Y0374D03*
X0402Y03605D03*
X03525Y0346D03*
X03905Y03735D03*
X03805Y03975D03*
X03735Y04025D03*
X03355Y03795D03*
X033Y03685D03*
X03525Y0417D03*
X03745Y03535D03*
X0383Y03805D03*
X0294Y0362D03*
X03535Y04095D03*
X0327Y04245D03*
X03555Y0404D03*
X0383Y03975D03*
X0376Y03935D03*
X02615Y0395D03*
X0367Y0388D03*
X03175Y03495D03*
X03525Y0351D03*
X03435Y03595D03*
X0334Y04085D03*
Y04205D03*
X03215Y0408D03*
X0337Y0423D03*
X03555Y03955D03*
X0347Y04025D03*
X0265Y0382D03*
G54D85*
X03538Y03721D02*
X0354Y03723D01*
X03531Y03721D02*
X03538D01*
X0311Y03066D02*
X03125Y0305D01*
X0311Y03066D02*
Y0312D01*
X03045Y0305D02*
X0308Y03084D01*
Y0312*
X03529Y0372D02*
X03531Y03721D01*
X03468Y0372D02*
X03529D01*
X03461Y03726D02*
Y0374D01*
Y03726D02*
X03468Y0372D01*
X03448Y0372D02*
Y03735D01*
X03531Y03704D02*
X03538D01*
X0354Y03702*
X03448Y0372D02*
X03462Y03706D01*
X03529D02*
X03531Y03704D01*
X03462Y03706D02*
X03529D01*
G54D93*
X02665Y04008D03*
Y03781D03*
G54D94*
X0387Y0336D03*
X0366Y03355D03*
X03485Y03315D03*
X039Y0402D03*
X0368Y0382D03*
X03635Y03845D03*
X03615Y03825D03*
X04555Y0394D03*
X0449Y03885D03*
X04115Y0394D03*
X04Y03985D03*
X04845Y0422D03*
X0395Y03075D03*
X04025D03*
X04105D03*
X04185D03*
X04265D03*
X04345D03*
X04425Y0308D03*
X04505Y03075D03*
X04585Y0308D03*
X0472Y03045D03*
X04845Y03835D03*
X04115Y03855D03*
X04745Y0383D03*
X0386Y03975D03*
G54D95*
X03133Y0338D03*
X0311D03*
Y0312D03*
X0308D03*
X0354Y03723D03*
Y03702D03*
X03445Y03745D03*
X03466D03*
X03375Y03578D03*
X03366Y03654D03*
X0344Y03695D03*
X03459Y03681D03*
X03626Y03704D03*
X03505Y03815D03*
X0351Y0379D03*
X03475Y0377D03*
X0375Y03954D03*
X0267Y03905D03*
X0266Y0387D03*
X03875Y0388D03*
X0388Y039D03*
X03135Y04175D03*
X03355Y03585D03*
X03155Y04095D03*
X03105Y03805D03*
X0311Y0395D03*
X03005Y0414D03*
X0377Y0383D03*
Y03665D03*
Y0385D03*
X03765Y037D03*
X0315Y0367D03*
X037Y04115D03*
Y04135D03*
X03855Y03925D03*
X03585Y0404D03*
X037Y03975D03*
X0346Y03625D03*
X0318Y03665D03*
X03215Y0365D03*
X03403Y03654D03*
X0365Y0399D03*
X0372Y0409D03*
X03635Y03975D03*
X0337Y04055D03*
X03505Y03885D03*
X03425Y04075D03*
X0348Y03885D03*
X0341Y0406D03*
X036Y037D03*
X035Y03605D03*
G54D96*
X02845Y04095D03*
X02785Y03745D03*
G54D98*
X04625Y03045D03*
X04545D03*
X04545Y02965D03*
X04465Y03045D03*
X04465Y02965D03*
X04385Y03045D03*
X04385Y02965D03*
X04305Y03045D03*
X04305Y02965D03*
X04225Y03045D03*
X04224Y02965D03*
X04145Y03045D03*
X04145Y02965D03*
X04065Y03045D03*
X04065Y02965D03*
X03985Y03045D03*
X03985Y02965D03*
X03905Y03045D03*
X03905Y02965D03*
X03685Y0305D03*
X03605D03*
X03605Y0297D03*
X03525Y0305D03*
X03525Y0297D03*
X03445Y0305D03*
X03445Y0297D03*
X03365Y0305D03*
X03365Y0297D03*
X03285Y0305D03*
X03284Y0297D03*
X03205Y0305D03*
X03205Y0297D03*
X03125Y0305D03*
X03125Y0297D03*
X03045Y0305D03*
X03045Y0297D03*
X02965Y0305D03*
X02965Y0297D03*
G54D99*
X04624Y02965D03*
X03684Y0297D03*
M02*