%FSTAX23Y23*%
%MOIN*%
%SFA1B1*%

%IPPOS*%
%AMD21*
4,1,8,0.006200,0.010600,-0.006200,0.010600,-0.011800,0.005000,-0.011800,-0.005000,-0.006200,-0.010600,0.006200,-0.010600,0.011800,-0.005000,0.011800,0.005000,0.006200,0.010600,0.0*
1,1,0.011268,0.006200,0.005000*
1,1,0.011268,-0.006200,0.005000*
1,1,0.011268,-0.006200,-0.005000*
1,1,0.011268,0.006200,-0.005000*
%
%AMD22*
4,1,8,-0.010600,0.006200,-0.010600,-0.006200,-0.005000,-0.011800,0.005000,-0.011800,0.010600,-0.006200,0.010600,0.006200,0.005000,0.011800,-0.005000,0.011800,-0.010600,0.006200,0.0*
1,1,0.011268,-0.005000,0.006200*
1,1,0.011268,-0.005000,-0.006200*
1,1,0.011268,0.005000,-0.006200*
1,1,0.011268,0.005000,0.006200*
%
%AMD45*
4,1,8,-0.014600,-0.005300,0.014600,-0.005300,0.015900,-0.004000,0.015900,0.004000,0.014600,0.005300,-0.014600,0.005300,-0.015900,0.004000,-0.015900,-0.004000,-0.014600,-0.005300,0.0*
1,1,0.002661,-0.014600,-0.004000*
1,1,0.002661,0.014600,-0.004000*
1,1,0.002661,0.014600,0.004000*
1,1,0.002661,-0.014600,0.004000*
%
%AMD46*
4,1,8,-0.004000,-0.015900,0.004000,-0.015900,0.005300,-0.014600,0.005300,0.014600,0.004000,0.015900,-0.004000,0.015900,-0.005300,0.014600,-0.005300,-0.014600,-0.004000,-0.015900,0.0*
1,1,0.002661,-0.004000,-0.014600*
1,1,0.002661,0.004000,-0.014600*
1,1,0.002661,0.004000,0.014600*
1,1,0.002661,-0.004000,0.014600*
%
%ADD19R,0.062992X0.035433*%
%ADD20R,0.020079X0.028740*%
G04~CAMADD=21~8~0.0~0.0~236.2~212.6~56.3~0.0~15~0.0~0.0~0.0~0.0~0~0.0~0.0~0.0~0.0~0~0.0~0.0~0.0~0.0~236.2~212.6*
%ADD21D21*%
G04~CAMADD=22~8~0.0~0.0~236.2~212.6~56.3~0.0~15~0.0~0.0~0.0~0.0~0~0.0~0.0~0.0~0.0~0~0.0~0.0~0.0~90.0~212.0~236.0*
%ADD22D22*%
%ADD23C,0.009000*%
%ADD24R,0.010000X0.010000*%
%ADD25C,0.015000*%
%ADD26R,0.010000X0.010000*%
%ADD27R,0.050000X0.125197*%
%ADD28R,0.050000X0.145000*%
%ADD29R,0.031496X0.062992*%
%ADD30R,0.031496X0.031496*%
%ADD31R,0.051181X0.043307*%
%ADD32R,0.038500X0.022000*%
%ADD33R,0.028740X0.020079*%
%ADD34R,0.011000X0.010000*%
%ADD35R,0.010000X0.011000*%
%ADD36R,0.011811X0.019685*%
%ADD37R,0.023228X0.013780*%
%ADD38R,0.013780X0.023228*%
%ADD39R,0.060000X0.060000*%
%ADD40R,0.015748X0.015748*%
%ADD41R,0.086614X0.039370*%
%ADD42R,0.045275X0.023622*%
%ADD43R,0.045275X0.011811*%
%ADD44R,0.078740X0.085827*%
G04~CAMADD=45~8~0.0~0.0~318.9~106.3~13.3~0.0~15~0.0~0.0~0.0~0.0~0~0.0~0.0~0.0~0.0~0~0.0~0.0~0.0~180.0~318.0~106.0*
%ADD45D45*%
G04~CAMADD=46~8~0.0~0.0~106.3~318.9~13.3~0.0~15~0.0~0.0~0.0~0.0~0~0.0~0.0~0.0~0.0~0~0.0~0.0~0.0~180.0~106.0~318.0*
%ADD46D46*%
%ADD47R,0.092126X0.092126*%
%ADD48R,0.023622X0.051968*%
%LNesp32c3phils-1*%
%LPD*%
G36*
X03433Y04018D02*
X03425D01*
Y04039*
X03433*
Y04018*
G37*
G36*
X03413D02*
X03405D01*
Y04039*
X03413*
Y04018*
G37*
G36*
X03394D02*
X03386D01*
Y04039*
X03394*
Y04018*
G37*
G36*
X03374D02*
X03366D01*
Y04039*
X03374*
Y04018*
G37*
G36*
X03423Y03971D02*
X03403D01*
Y03978*
X03423*
Y03971*
G37*
G36*
X03396D02*
X03376D01*
Y03978*
X03396*
Y03971*
G37*
G36*
X03433Y0391D02*
X03425D01*
Y03931*
X03433*
Y0391*
G37*
G36*
X03413D02*
X03405D01*
Y03931*
X03413*
Y0391*
G37*
G36*
X03394D02*
X03386D01*
Y03931*
X03394*
Y0391*
G37*
G36*
X03374D02*
X03366D01*
Y03931*
X03374*
Y0391*
G37*
G54D19*
X04421Y04028D03*
Y03984D03*
Y03941D03*
Y03898D03*
Y03855D03*
Y03811D03*
Y03768D03*
Y03725D03*
Y03681D03*
X04058D03*
Y03725D03*
Y03768D03*
Y03811D03*
Y03855D03*
Y03898D03*
Y03941D03*
Y03984D03*
Y04028D03*
G54D20*
X04546Y03725D03*
X04583D03*
X03869Y03768D03*
X03905D03*
G54D21*
X04495Y03693D03*
Y03726D03*
X04635Y03693D03*
Y03726D03*
X0382Y03733D03*
Y03766D03*
X03955Y03733D03*
Y03766D03*
X03825Y03546D03*
Y03513D03*
X0395Y03546D03*
Y03513D03*
X04275Y03621D03*
Y03588D03*
X04115Y03511D03*
Y03545D03*
X04535Y03848D03*
Y03881D03*
Y03778D03*
Y03811D03*
X03445Y04153D03*
Y04186D03*
X03344Y03718D03*
X0338Y04178D03*
Y04211D03*
X03533Y04026D03*
Y03993D03*
X03477Y03981D03*
Y03948D03*
X03695Y04041D03*
Y04008D03*
X03775Y03576D03*
Y03543D03*
X03442Y03491D03*
Y03525D03*
X03179Y0422D03*
Y04186D03*
X03185Y04113D03*
Y04146D03*
X036Y04051D03*
Y04018D03*
X03344Y03751D03*
X0311Y04083D03*
Y04116D03*
X03235Y03751D03*
Y03718D03*
X0318Y03751D03*
Y03718D03*
X0338Y04103D03*
Y04136D03*
G54D22*
X03886Y03591D03*
X03853D03*
Y03645D03*
X03886D03*
X03956Y03591D03*
X03923D03*
X03911Y0385D03*
X03878D03*
X03921Y0347D03*
X03888D03*
X03843Y04205D03*
X0381D03*
X03826Y03945D03*
X03793D03*
X02981Y0414D03*
X02948D03*
X03356Y03436D03*
X03323D03*
X03651Y04275D03*
X03618D03*
X03703D03*
X03736D03*
X03729Y0348D03*
X03695D03*
X03605D03*
X03639D03*
X03793Y039D03*
X03826D03*
X0294Y03585D03*
X02973D03*
G54D23*
X039Y03545D03*
Y03529D03*
Y03513D03*
X03885Y03545D03*
Y03529D03*
Y03513D03*
X03869Y03545D03*
Y03529D03*
Y03513D03*
G54D24*
X03345Y03636D03*
Y03661D03*
X0343Y03621D03*
Y03596D03*
X03405D03*
Y03621D03*
X03865Y04039D03*
Y04014D03*
X0384D03*
Y04039D03*
X0423Y03624D03*
Y03599D03*
X0406Y03604D03*
Y03629D03*
X0313Y03356D03*
Y03331D03*
X0311D03*
Y03356D03*
G54D25*
X03497Y04045D03*
X0351Y0362D03*
Y03645D03*
G54D26*
X03464Y0364D03*
X03489D03*
Y03615D03*
X03464D03*
X04476Y03805D03*
X04501D03*
X04505Y0403D03*
X0448D03*
X04481Y03985D03*
X04506D03*
Y0394D03*
X04481D03*
X03499Y03705D03*
X03474D03*
G54D27*
X04745Y02717D03*
Y02932D03*
X04645Y02717D03*
Y02932D03*
X04545Y02717D03*
Y02932D03*
X04445Y02717D03*
Y02932D03*
X04345Y02717D03*
Y02932D03*
X04245Y02717D03*
Y02932D03*
X04145Y02717D03*
Y02932D03*
X04045Y02717D03*
Y02932D03*
X03945Y02717D03*
Y02932D03*
X03845Y02717D03*
Y02932D03*
X03745Y02717D03*
Y02932D03*
X03645Y02717D03*
Y02932D03*
X03545Y02717D03*
Y02932D03*
X03445Y02717D03*
Y02932D03*
X03345Y02717D03*
Y02932D03*
X03245Y02717D03*
Y02932D03*
X03145Y02717D03*
Y02932D03*
X03045Y02717D03*
Y02932D03*
X02945Y02717D03*
Y02932D03*
X02845Y02717D03*
Y02932D03*
G54D28*
X04645Y04115D03*
X04745D03*
X04845D03*
X04645Y0394D03*
X04745D03*
X04845D03*
G54D29*
X03983Y0421D03*
X04116D03*
G54D30*
X03395Y03735D03*
Y03794D03*
G54D31*
X03619Y03539D03*
X0371D03*
Y0361D03*
X03619D03*
G54D32*
X03156Y03817D03*
Y03855D03*
Y03892D03*
X03263D03*
Y03855D03*
Y03817D03*
G54D33*
X0391Y03973D03*
Y03936D03*
G54D34*
X0333Y03509D03*
Y03528D03*
Y03548D03*
X03392D03*
Y03528D03*
Y03509D03*
G54D35*
X03351Y03559D03*
X03371D03*
Y03497D03*
X03351D03*
G54D36*
X03814Y04097D03*
X03845D03*
Y04152D03*
X03814D03*
G54D37*
X0373Y04149D03*
X03579D03*
G54D38*
X03714Y04103D03*
X03694D03*
X03674D03*
X03655D03*
X03635D03*
X03615D03*
X03595D03*
Y04195D03*
X03615D03*
X03635D03*
X03655D03*
X03674D03*
X03694D03*
X03714D03*
G54D39*
X03064Y04225D03*
X02865D03*
X0306Y035D03*
X02861D03*
G54D40*
X03142Y03622D03*
X03174D03*
X03205D03*
X03237D03*
Y03527D03*
X03205D03*
X03174D03*
X03142D03*
G54D41*
X03215Y04042D03*
Y03967D03*
G54D42*
X02707Y0402D03*
Y03989D03*
Y038D03*
Y03769D03*
G54D43*
X02707Y03963D03*
Y03826D03*
Y03944D03*
Y03845D03*
Y03924D03*
Y03865D03*
Y03904D03*
Y03885D03*
G54D44*
X02684Y04096D03*
Y03693D03*
X02529Y04096D03*
Y03693D03*
G54D45*
X03741Y03771D03*
Y0379D03*
Y0381D03*
Y0383D03*
Y03849D03*
Y03869D03*
Y03889D03*
Y03908D03*
X03548D03*
Y03889D03*
Y03869D03*
Y03849D03*
Y0383D03*
Y0381D03*
Y0379D03*
Y03771D03*
G54D46*
X03713Y03936D03*
X03694D03*
X03674D03*
X03654D03*
X03635D03*
X03615D03*
X03595D03*
X03576D03*
Y03743D03*
X03595D03*
X03615D03*
X03635D03*
X03654D03*
X03674D03*
X03694D03*
X03713D03*
G54D47*
X03645Y0384D03*
G54D48*
X03237Y04124D03*
X03275D03*
X03312D03*
Y04215D03*
X03237D03*
M02*