%FSTAX23Y23*%
%MOIN*%
%SFA1B1*%

%IPPOS*%
%ADD9500C,0.011000*%
%ADD9501C,0.012000*%
%ADD9502C,0.028000*%
%ADD9503C,0.059000*%
%ADD9504C,0.067000*%
%ADD9505C,0.025591*%
%LNesp32c3phils-1*%
%LPD*%
G54D9500*
X0379Y04005D03*
X0265Y0386D03*
X02645Y03915D03*
X0308Y0395D03*
X031Y03805D03*
X03025Y0414D03*
X0313Y04185D03*
X03155Y04095D03*
X0346Y04075D03*
X0347Y04105D03*
Y0391D03*
X03505Y03915D03*
X0342Y0388D03*
X03495Y03805D03*
Y0377D03*
X0346Y0376D03*
Y0367D03*
X0343Y0368D03*
X0341Y0365D03*
X03375Y03655D03*
X03215Y0366D03*
X03175Y03665D03*
X03145Y03675D03*
X0354Y0369D03*
X0359Y03695D03*
X0351Y0357D03*
X03456Y03453D03*
X03835Y03465D03*
X03825Y03615D03*
X0382Y03655D03*
X03807Y03854D03*
X03845Y03855D03*
X0388Y039D03*
X0376Y03935D03*
X03775Y03975D03*
X03655Y04D03*
X0364Y0404D03*
X03675Y04165D03*
X0374Y0424D03*
X03985Y03515D03*
X04535Y0391D03*
G54D9501*
X0472Y03045D03*
X0307Y0314D03*
X0311Y0339D03*
X0294Y03635D03*
X0265Y0382D03*
X02615Y03965D03*
X0296Y041D03*
X0308Y04155D03*
X03205Y04085D03*
X03345Y0407D03*
X03335Y04015D03*
X03345Y03895D03*
X0332Y0387D03*
Y03835D03*
X03375Y0386D03*
X0351Y0397D03*
X0354Y0396D03*
X03605Y03985D03*
X03555Y04055D03*
X0353Y041D03*
X03545Y0413D03*
Y04165D03*
X035D03*
Y042D03*
X03485Y04135D03*
X035Y0407D03*
X0348Y04025D03*
X0373D03*
X03735Y04065D03*
X03785Y04055D03*
X03815Y0403D03*
X0382Y03995D03*
X0385Y03985D03*
X03865Y03935D03*
X0393Y039D03*
X0389Y0381D03*
X03925Y03665D03*
X0392Y0363D03*
X03785Y0365D03*
X03735Y0367D03*
X03775Y03735D03*
X0368Y0382D03*
X03635Y03845D03*
X03615Y03825D03*
X0367Y0388D03*
X03515Y0373D03*
X0351Y0367D03*
X0348Y03585D03*
Y0355D03*
X0344Y0356D03*
X03345Y03605D03*
X0329Y03575D03*
X03279Y03631D03*
X033Y03685D03*
X03165Y0349D03*
X0315Y0339D03*
X03145Y0314D03*
X0351Y03305D03*
X03485Y0337D03*
X03545Y03405D03*
X03645Y03355D03*
X03815Y03435D03*
X03855D03*
X03775Y03505D03*
X04065D03*
X0406Y03575D03*
X04115Y0358D03*
X04165D03*
Y03625D03*
X042D03*
X0413Y0363D03*
X0406Y04075D03*
X04215Y04085D03*
X0425D03*
X04555Y04065D03*
Y0394D03*
X0449Y03885D03*
X0448Y0383D03*
X04575Y03785D03*
X0458Y0313D03*
X04505D03*
X04425D03*
X04345D03*
X0426D03*
X04175D03*
X041Y03125D03*
X04025Y0313D03*
X0394D03*
X03405Y0344D03*
X0334Y04205D03*
X0338Y04245D03*
X0327D03*
X03575D03*
X0362Y04155D03*
X0377Y0417D03*
X03765Y0413D03*
X0391Y041D03*
Y0403D03*
X0384Y04285D03*
X04845Y0422D03*
Y03835D03*
X04745Y0383D03*
G54D9502*
X02785Y03745D03*
X02845Y04095D03*
G54D9503*
X04675Y034D03*
G54D9504*
X04575Y033D03*
Y035D03*
X04775D03*
Y033D03*
G54D9505*
X02665Y03781D03*
Y04008D03*
M02*