%FSTAX23Y23*%
%MOIN*%
%SFA1B1*%

%IPPOS*%
%ADD9500C,0.011000*%
%ADD9501C,0.012000*%
%ADD9502C,0.028000*%
%ADD9503C,0.059000*%
%ADD9504C,0.067000*%
%ADD9505C,0.025591*%
%LNesp32c3phils-1*%
%LPD*%
G54D9500*
X0308Y0312D03*
X0311D03*
Y0338D03*
X03105Y03805D03*
X0311Y0395D03*
X03005Y0414D03*
X0267Y03905D03*
X0266Y0387D03*
X0315Y0367D03*
X0318Y03665D03*
X03215Y0365D03*
X03366Y03654D03*
X03403Y03654D03*
X0344Y03695D03*
X03459Y03681D03*
X0346Y03625D03*
X03475Y03595D03*
X035Y03605D03*
X0354Y03702D03*
Y03723D03*
X036Y037D03*
X03626Y03704D03*
X03765Y037D03*
X0377Y03665D03*
X03785Y03545D03*
X03835Y0348D03*
X0392Y0357D03*
X03875Y0388D03*
X0388Y039D03*
X03855Y03925D03*
X0375Y03954D03*
X037Y03975D03*
X0365Y0399D03*
X03635Y03975D03*
X03585Y0404D03*
X0372Y0409D03*
X037Y04115D03*
Y04135D03*
X03425Y04075D03*
X0341Y0406D03*
X0337Y04055D03*
X03155Y04095D03*
X03135Y04175D03*
X0348Y03885D03*
X03505D03*
Y03815D03*
X0351Y0379D03*
X03475Y0377D03*
X03466Y03745D03*
X03445D03*
X03375Y03578D03*
X03355Y03585D03*
X0346Y03495D03*
X03133Y0338D03*
X0377Y0383D03*
Y0385D03*
X04535Y0391D03*
G54D9501*
X0472Y03045D03*
X04585Y0308D03*
X04505Y03075D03*
X04425Y0308D03*
X04345Y03075D03*
X04265D03*
X04185D03*
X04105D03*
X04025D03*
X0395D03*
X0294Y0362D03*
X0265Y0382D03*
X02615Y0395D03*
X03215Y0408D03*
X0334Y04085D03*
Y04205D03*
X0337Y0423D03*
X0327Y04245D03*
X03525Y0417D03*
X03535Y04095D03*
X03525Y04055D03*
X03555Y0404D03*
X03575Y04085D03*
X0363Y0409D03*
X03655Y04105D03*
X0364Y04125D03*
Y04025D03*
X03675Y0404D03*
X03705Y0402D03*
X03735Y04025D03*
X03765Y0401D03*
X0377Y03985D03*
X03805Y03975D03*
X0383D03*
X0386D03*
X039Y0402D03*
X03785Y0403D03*
X0376Y03935D03*
X0367Y0388D03*
X0368Y0382D03*
X03635Y03845D03*
X03615Y03825D03*
X03555Y03955D03*
X0347Y04025D03*
X03435Y0388D03*
X0338D03*
X03355Y03795D03*
X033Y03685D03*
X03279Y03631D03*
X03435Y03595D03*
X0351Y03685D03*
X03525Y0351D03*
Y0346D03*
X03485Y03315D03*
X0366Y03355D03*
X0387Y0336D03*
X0377Y0352D03*
X03745Y03535D03*
X03735Y037D03*
X0383Y03805D03*
X03905Y03735D03*
X0399Y0374D03*
X04Y0381D03*
X04115Y03855D03*
Y0394D03*
X04Y03985D03*
X03935Y0366D03*
X03945Y03625D03*
X0402Y03605D03*
X0448Y0383D03*
X0449Y03885D03*
X04555Y0394D03*
X03175Y03495D03*
X04745Y0383D03*
X04845Y03835D03*
Y0422D03*
G54D9502*
X02785Y03745D03*
X02845Y04095D03*
G54D9503*
X0467Y0352D03*
G54D9504*
X0457Y0342D03*
Y0362D03*
X0477D03*
Y0342D03*
G54D9505*
X02665Y03781D03*
Y04008D03*
M02*