G04 ================== begin FILE IDENTIFICATION RECORD ==================*
G04 Layout Name:  Lay-46441_A.brd*
G04 Film Name:    L1_PS.art*
G04 File Format:  Gerber RS274X*
G04 File Origin:  Cadence Allegro 17.2-S046*
G04 Origin Date:  Wed Sep 04 15:56:31 2019*
G04 *
G04 Layer:  PACKAGE GEOMETRY/SHORT_LAYER_TOP*
G04 Layer:  MANUFACTURING/PRIMARY_SIDE*
G04 Layer:  DRAWING FORMAT/FILM_TITLE_BLOCK*
G04 Layer:  BOARD GEOMETRY/OUTLINE*
G04 Layer:  ETCH/TOP*
G04 Layer:  PIN/TOP*
G04 Layer:  VIA CLASS/TOP*
G04 *
G04 Offset:    (0.00 0.00)*
G04 Mirror:    No*
G04 Mode:      Positive*
G04 Rotation:  0*
G04 FullContactRelief:  No*
G04 UndefLineWidth:     8.00*
G04 ================== end FILE IDENTIFICATION RECORD ====================*
%FSLAX55Y55*MOIN*%
%IR0*IPPOS*OFA0.00000B0.00000*MIA0B0*SFA1.00000B1.00000*%
%ADD29C,.01*%
%ADD27C,.02*%
%ADD19C,.04*%
%ADD24C,.05*%
%ADD32C,.015*%
%ADD31C,.06*%
%ADD22R,.035X.008*%
%ADD18C,.0115*%
%ADD10C,.016*%
%ADD21R,.008X.035*%
%ADD13C,.035*%
%ADD15C,.018*%
%ADD26C,.064*%
%ADD16R,.012X.012*%
%ADD34R,.04X.04*%
%ADD30R,.06X.06*%
%ADD38R,.039X.039*%
%ADD39R,.01X.02*%
%ADD37R,.02X.01*%
%ADD41R,.042X.04*%
%ADD35R,.031X.033*%
%AMMACRO42*
4,1,5,.0195,.0195,
-.0195,.0195,
-.0195,-.0195,
-.0005,-.0195,
.0195,.0005,
.0195,.0195,
0.0*
%
%ADD42MACRO42*%
%ADD40R,.024X.04*%
%ADD25R,.02X.018*%
%ADD12C,.2*%
%ADD17R,.018X.02*%
%ADD14R,.034X.071*%
%ADD11R,.075X.043*%
%ADD43R,.122X.122*%
%ADD36R,.087X.042*%
%ADD33R,.047X.055*%
%ADD28R,.079X.048*%
%ADD20R,.048X.079*%
%ADD23R,.185X.185*%
%ADD44C,.011*%
%ADD45C,.012*%
%ADD46C,.003*%
%ADD47C,.004*%
%ADD48C,.005*%
%ADD49C,.0032*%
%ADD50C,.0041*%
%ADD51C,.008*%
%ADD52C,.0042*%
%ADD53C,.0033*%
%ADD54C,.006*%
%ADD55C,.007*%
%ADD56C,.0044*%
%ADD57C,.0035*%
%ADD58C,.0036*%
%ADD59C,.0045*%
G75*
%LPD*%
G75*
G36*
G01X1808Y74810D02*
X3811D01*
X4511Y74110D01*
Y45146D01*
X3607D01*
G03X3106Y44644I0J-501D01*
G01Y40344D01*
G03X3607Y39842I502J0D01*
G01X4511D01*
Y35304D01*
X3607D01*
G03X3106Y34802I0J-501D01*
G01Y30502D01*
G03X3607Y30000I502J0D01*
G01X4511D01*
Y12889D01*
X5600Y11800D01*
X29484D01*
X32311Y8974D01*
X63011D01*
X64747Y10710D01*
X72035D01*
X72060Y10703D01*
G03X72400Y10658I339J1257D01*
G03X72735Y10702I-1J1302D01*
G01X72760Y10708D01*
X75012D01*
X75921Y9800D01*
X85798D01*
Y4966D01*
X89320D01*
X95254D01*
Y9800D01*
X107788D01*
Y4636D01*
X144292D01*
Y9800D01*
X156300D01*
Y17300D01*
X156249D01*
X156147Y17547D01*
X164200Y25600D01*
Y39100D01*
X165600Y40500D01*
X170101D01*
X170211Y40610D01*
X171711D01*
X177511Y46410D01*
Y48310D01*
X177911Y48710D01*
X178511D01*
X178811Y48410D01*
Y42210D01*
X179611Y41410D01*
X183332D01*
X183357Y41404D01*
G03X183711Y41358I356J1356D01*
G03X184065Y41404I-2J1402D01*
G01X184090Y41410D01*
X185111D01*
X187411Y43710D01*
Y48810D01*
X187511Y48910D01*
X188611D01*
X188911Y48610D01*
Y42810D01*
X188061Y41960D01*
Y35660D01*
X187311Y34910D01*
X174011D01*
Y34812D01*
X174008D01*
Y27208D01*
X174014D01*
X174111Y27110D01*
X190611D01*
X192011Y28510D01*
Y30008D01*
X192088D01*
Y32012D01*
X192011D01*
Y40108D01*
X192088D01*
Y42112D01*
X192011D01*
Y42510D01*
X191211Y43310D01*
Y48710D01*
X191311Y48810D01*
X197711D01*
Y8510D01*
X192161Y2960D01*
X190961D01*
X190011Y2010D01*
X189611D01*
Y1804D01*
X10007D01*
G02X2165Y7610I0J8199D01*
G02X1808Y10003I7842J2393D01*
G01Y74810D01*
G37*
G36*
G01X8611Y197710D02*
X191111D01*
X197911Y190910D01*
Y97432D01*
G02X197237Y97141I-400J0D01*
G03X196343Y97496I-894J-948D01*
G03X195041Y96194I0J-1302D01*
G03X195437Y95258I1302J-1D01*
G02X195443Y94977I-139J-144D01*
G03X195085Y94080I945J-897D01*
G03X195456Y93170I1302J0D01*
G02X195455Y92891I-144J-139D01*
G03X195084Y91980I931J-910D01*
G03X196386Y90678I1302J0D01*
G03X197247Y91003I0J1303D01*
G02X197911Y90703I264J-300D01*
G01Y88310D01*
X197161Y87560D01*
X190961D01*
X185511Y93010D01*
Y97476D01*
G02X186192Y97761I400J0D01*
G03X187105Y97387I913J927D01*
G03Y99991I0J1302D01*
G03X185897Y99174I0J-1302D01*
G01X185846Y99048D01*
X185511D01*
Y99610D01*
X186411Y100510D01*
X189111D01*
X190117Y101516D01*
Y139740D01*
X192711Y142334D01*
Y152110D01*
X191911Y152910D01*
X180411D01*
X180011Y153310D01*
Y162657D01*
X180534Y163180D01*
Y166332D01*
X181711Y167510D01*
X195811D01*
X196811Y168510D01*
Y173110D01*
X191811Y178110D01*
X165098D01*
X165091Y178303D01*
G03X164590Y178786I-501J-18D01*
G01X162935D01*
X155350Y186371D01*
G02X155563Y187048I283J283D01*
G03X154742Y196976I-871J4926D01*
G01X154642D01*
G03X149766Y192845I50J-5002D01*
G02X149089Y192632I-394J70D01*
G01X145911Y195810D01*
X49611D01*
X22011Y168210D01*
X11309D01*
X11290Y168214D01*
G03X10400Y168302I-935J-4915D01*
G01X10300D01*
G03X9410Y168214I45J-5003D01*
G01X9391Y168210D01*
X3611D01*
X2211Y169610D01*
Y191310D01*
X8611Y197710D01*
G37*
G36*
G01X16599Y29500D02*
X20800D01*
X22100Y28200D01*
Y22100D01*
X20800Y20800D01*
Y13200D01*
X20500Y12900D01*
X16800D01*
X15400Y14300D01*
Y28301D01*
X16599Y29500D01*
G37*
G36*
G01X15100Y78700D02*
X27300D01*
X28600Y77400D01*
Y63300D01*
X28252Y62952D01*
X22448D01*
X22100Y63300D01*
Y70300D01*
X20500Y71900D01*
X15800D01*
X14400Y73300D01*
Y78000D01*
X15100Y78700D01*
G37*
G36*
G01X26700Y30100D02*
X27100Y30500D01*
X29500D01*
X29600Y30400D01*
Y23700D01*
X28400Y22500D01*
Y21700D01*
X27000Y20300D01*
Y13500D01*
X23800D01*
X23600Y13700D01*
Y22700D01*
X26700Y25800D01*
Y30100D01*
G37*
G36*
G01X47300Y12100D02*
X38900D01*
X38200Y12800D01*
Y30500D01*
X40500D01*
X40700Y30300D01*
Y24700D01*
X43100Y22300D01*
X44900D01*
X46100Y21100D01*
X47600D01*
X48300Y20400D01*
Y13100D01*
X47300Y12100D01*
G37*
G36*
G01X35100Y30500D02*
X35200Y30600D01*
X37300D01*
X37600Y30300D01*
Y22700D01*
X35400Y20500D01*
Y12800D01*
X34900Y12300D01*
X30800D01*
X30200Y12900D01*
Y19930D01*
G03X30202Y20000I-1400J75D01*
G03X30200Y20070I-1402J-5D01*
G01Y20800D01*
X32550Y23150D01*
X33250D01*
X35100Y25000D01*
Y30500D01*
G37*
G36*
G01X30300Y25200D02*
Y30600D01*
X34000D01*
X34300Y30300D01*
Y25300D01*
X33500Y24500D01*
X31000D01*
X30300Y25200D01*
G37*
G36*
G01X31000Y70900D02*
X36000D01*
Y64800D01*
X39000Y61800D01*
Y54000D01*
X38900Y53900D01*
X36900D01*
X36600Y54200D01*
Y58100D01*
X36364Y58336D01*
Y58507D01*
X36427Y58566D01*
G03X36865Y59584I-964J1018D01*
G03X35463Y60986I-1402J0D01*
G03X34688Y60753I-1J-1402D01*
G02X34108Y60912I-220J333D01*
G03X32846Y61702I-1262J-613D01*
G03X32064Y61464I0J-1402D01*
G01X31928Y61372D01*
X30700Y62600D01*
Y70600D01*
X31000Y70900D01*
G37*
G36*
G01X50800Y41500D02*
X51300Y42000D01*
X56100D01*
X57700Y40400D01*
Y38200D01*
X57300Y37800D01*
X51500D01*
X50800Y38500D01*
Y41500D01*
G37*
G36*
G01X63500Y41000D02*
X69900D01*
X70400Y40500D01*
Y35900D01*
X70200Y35700D01*
X61800D01*
X59150Y38350D01*
Y39750D01*
X56300Y42600D01*
X51400D01*
X51100Y42900D01*
Y44900D01*
X51300Y45100D01*
X59400D01*
X63500Y41000D01*
G37*
G36*
G01X39800Y59900D02*
X40100Y60200D01*
X43300D01*
X43800Y59700D01*
Y54200D01*
X43500Y53900D01*
X40000D01*
X39800Y54100D01*
Y59900D01*
G37*
G36*
G01X43000Y71100D02*
X43100Y71200D01*
X47800D01*
X48000Y71000D01*
Y60600D01*
X46900Y59500D01*
Y54100D01*
X46700Y53900D01*
X44600D01*
X44400Y54100D01*
Y59030D01*
G03X44402Y59100I-1400J75D01*
G03X44400Y59170I-1402J-5D01*
G01Y60800D01*
X43000Y62200D01*
Y71100D01*
G37*
G36*
G01X50900Y78400D02*
X53925D01*
X56951Y75374D01*
X64500D01*
Y66000D01*
X64300Y65800D01*
X58700D01*
X58478Y65578D01*
X57798D01*
Y64947D01*
X57655Y64904D01*
G03X57300Y64467I145J-480D01*
G01X57294Y64394D01*
X55800Y62900D01*
X51300D01*
X50600Y63600D01*
Y78100D01*
X50900Y78400D01*
G37*
G36*
G01X70600Y53050D02*
X76650D01*
X78000Y51700D01*
Y44000D01*
X77100Y43100D01*
X62700D01*
X62100Y43700D01*
Y48400D01*
X62500Y48800D01*
X68800D01*
X70297Y50298D01*
X70378D01*
Y50378D01*
X70600Y50600D01*
Y53050D01*
G37*
G36*
G01X86799Y5968D02*
Y20383D01*
X86811D01*
Y20610D01*
X87011Y20810D01*
X92011D01*
X92211Y20610D01*
Y15510D01*
X92811Y14910D01*
X94211D01*
X94253Y14868D01*
Y11967D01*
Y5967D01*
X90321D01*
Y5968D01*
X86799D01*
G37*
G36*
G01X90168Y113589D02*
X94732D01*
X95487Y112834D01*
Y108567D01*
X96043Y108011D01*
X98767D01*
X99180Y107598D01*
Y106243D01*
X98952Y106015D01*
X98687D01*
X98660Y106023D01*
G03X98406Y106060I-256J-865D01*
G03X98152Y106023I2J-902D01*
G01X98125Y106015D01*
X97441D01*
X97155Y105729D01*
Y104203D01*
X97169Y104189D01*
Y103595D01*
X97164Y103573D01*
G03X97132Y103286I1271J-287D01*
G03X97153Y103054I1302J1D01*
G01X97172Y102951D01*
X96871Y102650D01*
X96826Y102635D01*
G03X96462Y102449I403J-1238D01*
G01X95843D01*
X95343Y102949D01*
X95359Y103050D01*
G03X95370Y103189I-891J140D01*
G03X95337Y103428I-902J-3D01*
G01X95330Y103454D01*
Y103875D01*
X94545Y104660D01*
X90238D01*
X89568Y105330D01*
Y112989D01*
X90168Y113589D01*
G37*
G36*
G01X84114Y125400D02*
X85000D01*
X85400Y125000D01*
Y124300D01*
X85800Y123900D01*
X87421D01*
G02X87772Y123308I0J-400D01*
G03X87661Y122874I791J-434D01*
G03X87791Y122407I902J0D01*
G01X87873Y122273D01*
X87500Y121900D01*
Y121752D01*
X87172Y121599D01*
G03X86594Y121808I-577J-693D01*
G03X85692Y120906I0J-902D01*
G03X85793Y120491I903J0D01*
G01X85861Y120361D01*
X85500Y120000D01*
Y119540D01*
X85480Y119499D01*
G03X85353Y118937I1175J-561D01*
G03X85480Y118375I1302J-1D01*
G01X85500Y118334D01*
Y117900D01*
X85872Y117528D01*
X85801Y117397D01*
G03X85692Y116968I793J-430D01*
G03X86594Y116066I902J0D01*
G03X87172Y116275I1J902D01*
G01X87500Y116122D01*
Y116100D01*
X88000Y115600D01*
X88800D01*
X89100Y115300D01*
Y114600D01*
X88800Y114300D01*
X87900D01*
X87100Y113500D01*
Y112700D01*
X86800Y112400D01*
X86000D01*
X85400Y111800D01*
Y110200D01*
X85900Y109700D01*
X86700D01*
X87828Y108572D01*
G03X88041Y108359I735J522D01*
G01X89066Y107333D01*
Y106767D01*
X88330Y106030D01*
X88285Y106015D01*
G03X87706Y105436I278J-857D01*
G01X87691Y105391D01*
X86893Y104593D01*
X86779Y104628D01*
G03X86401Y104684I-378J-1246D01*
G03X85972Y104611I1J-1302D01*
G01X85940Y104600D01*
X84500D01*
X84000Y105100D01*
Y110300D01*
X83600Y110700D01*
Y111600D01*
X84100Y112100D01*
Y113800D01*
X83500Y114400D01*
X82600D01*
X82200Y114800D01*
Y115500D01*
X82600Y115900D01*
X83200D01*
X83600Y116300D01*
Y124373D01*
G03X84090Y125227I-800J1027D01*
G01X84114Y125400D01*
G37*
G36*
G01X88002Y121500D02*
X88800D01*
X89398Y120902D01*
Y118492D01*
X89410Y118481D01*
Y117568D01*
X89406Y117565D01*
Y116440D01*
X89958Y115888D01*
X92206D01*
X92228Y115883D01*
G03X92521Y115850I291J1269D01*
G03X92814Y115883I2J1302D01*
G01X92836Y115888D01*
X94102D01*
X97992Y111998D01*
X98302D01*
X98400Y111900D01*
X98600D01*
X99098Y111402D01*
Y110508D01*
X98792Y110202D01*
X97992D01*
X97198Y109408D01*
Y109398D01*
X96900Y109100D01*
Y108800D01*
X96800Y108700D01*
X96200D01*
X95988Y108912D01*
Y113042D01*
X94940Y114090D01*
X89960D01*
X89066Y113197D01*
Y108700D01*
X88409D01*
X86908Y110202D01*
X86198D01*
X85902Y110498D01*
Y111592D01*
X86208Y111898D01*
X87008D01*
X87109Y112000D01*
X87200D01*
X87700Y112500D01*
Y113200D01*
X88100Y113600D01*
X88600D01*
X88798Y113798D01*
X89008D01*
X89602Y114392D01*
Y115508D01*
X89008Y116102D01*
X88898D01*
X88800Y116200D01*
X88500D01*
X88002Y116698D01*
Y117008D01*
X87108Y117902D01*
X86298D01*
X86002Y118198D01*
Y119792D01*
X86009Y119800D01*
X87300D01*
X87800Y120300D01*
Y120391D01*
X88002Y120592D01*
Y121500D01*
G37*
G36*
G01X82377Y126110D02*
X82835D01*
G02X83118Y125427I0J-400D01*
G01X83098Y125408D01*
Y116715D01*
X82785Y116402D01*
X82392D01*
X81698Y115708D01*
Y115298D01*
X81511Y115110D01*
Y114110D01*
X82111Y113510D01*
X82711D01*
X83011Y113210D01*
Y105710D01*
X81902Y104602D01*
X81592D01*
X81401Y104410D01*
X80111D01*
X79902Y104620D01*
Y105008D01*
X79711Y105198D01*
Y108176D01*
G03Y109642I-1076J733D01*
G01Y110456D01*
G03X80022Y111300I-990J844D01*
G03X79811Y112011I-1302J0D01*
G01Y113110D01*
X79560Y113361D01*
X79545Y113395D01*
G03X79083Y113857I-825J-363D01*
G01X79049Y113872D01*
X78911Y114010D01*
X76311D01*
X75911Y114410D01*
Y115410D01*
X76411Y115910D01*
X79011D01*
X79811Y116710D01*
Y118420D01*
X79823Y118454D01*
G03X79902Y118900I-1223J447D01*
G03X79823Y119346I-1302J-1D01*
G01X79811Y119380D01*
Y125210D01*
X80111Y125510D01*
X80289D01*
X80330Y125490D01*
G03X80892Y125363I561J1175D01*
G03X81777Y125710I0J1302D01*
G01X81835Y125764D01*
X82030D01*
X82377Y126110D01*
G37*
G36*
G01X78100Y105300D02*
X78900D01*
X79234Y104966D01*
X79249Y104931D01*
G03X79400Y104668I1197J512D01*
G01Y104001D01*
X79401Y104000D01*
X79800Y103600D01*
X81300D01*
X81800Y104100D01*
X83000D01*
X83400Y103700D01*
Y102400D01*
X83800Y102000D01*
X84600D01*
X84900Y101700D01*
Y100700D01*
X84600Y100400D01*
X82800D01*
X82400Y100800D01*
X81184D01*
X81163Y100805D01*
G03X80888Y100834I-273J-1273D01*
G03X79837Y100300I0J-1301D01*
G01X78221D01*
X76511Y102010D01*
Y102910D01*
X77661Y104060D01*
Y104860D01*
X78100Y105300D01*
G37*
G36*
G01X92200Y125500D02*
X92700D01*
X93400Y124800D01*
Y124410D01*
X93800Y124010D01*
X94119D01*
X94153Y123997D01*
G03X94468Y123940I316J845D01*
G03X95105Y124205I-1J901D01*
G01X95172Y124271D01*
G02X95756Y124250I282J-283D01*
G03X96437Y123940I681J593D01*
G03X97339Y124842I0J902D01*
G03X97332Y124951I-902J-3D01*
G02X97729Y125400I397J49D01*
G01X99082D01*
G02X99479Y124951I0J-400D01*
G03X99472Y124842I895J-112D01*
G03X100374Y123940I902J0D01*
G03X100827Y124062I0J902D01*
G01X100960Y124140D01*
X101400Y123700D01*
Y109000D01*
X100900Y108500D01*
X98987D01*
X98975Y108512D01*
X97988D01*
X97700Y108800D01*
Y109200D01*
X98191Y109691D01*
X98272Y109692D01*
G03X98385Y109699I-24J1302D01*
G01X98395Y109700D01*
X99000D01*
X99600Y110300D01*
Y112100D01*
X99200Y112500D01*
X98200D01*
X97219Y113481D01*
X97207Y113501D01*
G03X96906Y113802I-770J-469D01*
G01X96886Y113814D01*
X95249Y115451D01*
X95236Y115471D01*
G03X94939Y115768I-768J-471D01*
G01X94919Y115781D01*
X94310Y116390D01*
X90166D01*
X89908Y116648D01*
Y117357D01*
X89911Y117360D01*
Y117654D01*
G02X90379Y118048I400J0D01*
G03X90532Y118035I153J889D01*
G03X91214Y118346I0J903D01*
G02X91818I302J-262D01*
G03X92500Y118035I682J592D01*
G03Y119839I0J902D01*
G03X91818Y119528I0J-903D01*
G02X91214I-302J262D01*
G03X91122Y119619I-679J-594D01*
G02Y120224I262J302D01*
G03X91434Y120906I-589J682D01*
G03X91123Y121588I-903J0D01*
G02Y122192I262J302D01*
G03X91434Y122874I-592J682D01*
G03X91137Y123543I-902J0D01*
G02X91122Y124122I268J297D01*
G01X91900Y124900D01*
Y125200D01*
X92200Y125500D01*
G37*
G36*
G01X99768Y103853D02*
X106252D01*
G02X106652Y103432I1J-400D01*
G03X106650Y103363I1300J-72D01*
G03X106681Y103080I1302J-1D01*
G01X106686Y103058D01*
Y100945D01*
X99768D01*
Y103853D01*
G37*
%LPC*%
G75*
G36*
G01X194643Y102457D02*
G03X194124Y102500I-285J-281D01*
G02X193360Y102252I-764J1053D01*
G02Y104856I0J1302D01*
G02X194287Y104468I0J-1301D01*
G03X194806Y104425I285J281D01*
G02X195570Y104673I764J-1053D01*
G02Y102069I0J-1302D01*
G02X194643Y102457I0J1301D01*
G37*
G36*
G01X95100Y121609D02*
Y122000D01*
X95300Y122200D01*
X97500D01*
X97900Y121800D01*
Y120909D01*
X98308Y120502D01*
X98808D01*
X98909Y120400D01*
X99100D01*
X99600Y119900D01*
Y119709D01*
X99602Y119708D01*
Y118292D01*
X99600Y118291D01*
Y117700D01*
X99100Y117200D01*
X98800Y117500D01*
X98400D01*
X97900Y117000D01*
X97809D01*
X97600Y116791D01*
Y116300D01*
X97200Y115900D01*
X96100D01*
X96002Y115998D01*
X95892D01*
X95098Y116792D01*
Y121608D01*
X95100Y121609D01*
G37*
%LPD*%
G75*
G36*
G01X95800Y121600D02*
X96500D01*
X97601Y120499D01*
X97615Y120474D01*
G03X97974Y120115I791J432D01*
G01X97999Y120101D01*
X98100Y120000D01*
X98600D01*
X99100Y119500D01*
Y119108D01*
X99099Y119097D01*
G03X99091Y118955I1294J-144D01*
G03X99099Y118813I1302J2D01*
G01X99100Y118802D01*
Y118500D01*
X98700Y118100D01*
X98200D01*
X96600Y116500D01*
X96211D01*
X95600Y117111D01*
Y121400D01*
X95800Y121600D01*
G37*
G54D10*
X5000Y5300D03*
X2700Y19000D03*
X2607Y23600D03*
X2800Y9300D03*
X3011Y13313D03*
X2800Y56500D03*
X2900Y50100D03*
X2700Y73100D03*
X2800Y66700D03*
X2900Y61300D03*
X5147Y140643D03*
X5511Y170510D03*
Y174810D03*
X6044Y193291D03*
X4091Y188268D03*
X8200Y3400D03*
X12911Y2910D03*
X22911D03*
X16400Y21900D03*
X20300Y22100D03*
X16400Y25200D03*
X20400Y25300D03*
X9000Y67200D03*
Y71400D03*
Y75400D03*
X20900Y74400D03*
X11903Y89200D03*
X8335Y91934D03*
X21395Y88130D03*
X14895Y89409D03*
X21395Y90689D03*
X20900Y77000D03*
X15191Y109882D03*
X17800Y94502D03*
X11761Y94217D03*
X8596Y109882D03*
Y97087D03*
X21395Y98366D03*
Y103484D03*
X11814Y104990D03*
X8353Y102152D03*
X14938Y104888D03*
X8500Y99700D03*
X21395Y100925D03*
Y95807D03*
Y106043D03*
X11745Y102205D03*
X8282Y104793D03*
X8600Y94500D03*
X14759Y119959D03*
X11745Y124780D03*
X11800Y128158D03*
X11726Y117284D03*
X8369Y125168D03*
X8277Y120142D03*
X14800Y127800D03*
X8348Y127748D03*
X21388Y123799D03*
X14895Y117559D03*
Y112441D03*
X8349Y122779D03*
X8277Y117583D03*
X8400Y112279D03*
X11747Y122502D03*
X18030Y122247D03*
X14682Y125319D03*
X21375Y119643D03*
X11783Y119992D03*
X22000Y142200D03*
X11465Y138096D03*
X11567Y140717D03*
X17830Y140671D03*
X11733Y135464D03*
X11347Y143200D03*
X14843Y133157D03*
X17852Y135498D03*
X8596Y132913D03*
X21303Y132200D03*
X8500Y138000D03*
X14895Y138031D03*
X11900Y130569D03*
X18000Y138200D03*
X11600Y132900D03*
X18044Y132910D03*
X18204Y130230D03*
X14895Y135472D03*
X21395Y129075D03*
Y134213D03*
X21800Y139311D03*
X8415Y135653D03*
X14895Y140591D03*
X23211Y174810D03*
X16211D03*
Y170510D03*
X12611Y174810D03*
Y170510D03*
X9111D03*
Y174810D03*
X11812Y196175D03*
X17253Y193291D03*
X19492Y188134D03*
X11579Y180268D03*
X6416Y183105D03*
X17579Y183198D03*
X32911Y2910D03*
X33200Y36600D03*
Y39600D03*
X39200Y36600D03*
X36200D03*
X39200Y39600D03*
X36200D03*
X33200Y42600D03*
Y45600D03*
Y48600D03*
X39200Y42600D03*
X36200D03*
X39200Y45600D03*
X36200D03*
Y48600D03*
X39200D03*
X23900Y74500D03*
X26600D03*
X39300Y74800D03*
X23900Y77100D03*
X26600D03*
X39300Y77800D03*
X36812Y89163D03*
X27293Y88130D03*
X34108Y89438D03*
X27293Y90689D03*
X30510Y94690D03*
X36941Y109882D03*
X40092Y94528D03*
X27293Y98366D03*
Y103484D03*
X36798Y102363D03*
X30800Y110093D03*
X33700Y102300D03*
X34112Y109905D03*
X27293Y106043D03*
X27100Y95807D03*
Y100925D03*
X36942Y99646D03*
X40046Y122300D03*
X33700Y116000D03*
X40000Y125400D03*
X36900Y120108D03*
X25800Y118300D03*
X36935Y125317D03*
X27000Y126487D03*
X30776Y117624D03*
X23700Y123900D03*
X30643Y127795D03*
X26900Y123600D03*
X36867Y127576D03*
X36942Y117559D03*
X27400Y120000D03*
X30700Y119900D03*
Y124900D03*
X36942Y122677D03*
X40092Y120118D03*
X27200Y142400D03*
X36883Y132559D03*
X33828Y135577D03*
X33806Y132508D03*
X30663Y130777D03*
X30470Y135350D03*
X27100Y130200D03*
X27000Y132200D03*
X40300Y135331D03*
X36936Y140768D03*
X33789Y141001D03*
X27100Y139311D03*
X27292Y134610D03*
X38401Y157078D03*
X35411Y157319D03*
X32311Y156940D03*
X39735Y158700D03*
X32281Y159040D03*
X35311Y159417D03*
X27610Y174868D03*
X34300Y167300D03*
X38000Y171000D03*
Y163600D03*
X23911Y191910D03*
Y196210D03*
X27511Y191910D03*
Y196210D03*
X27711Y187410D03*
Y183110D03*
X31211D03*
Y187410D03*
X34811Y183110D03*
Y187410D03*
X24111D03*
Y183110D03*
X35011Y196110D03*
Y191810D03*
X38511D03*
Y196110D03*
X31411D03*
Y191810D03*
X42911Y2910D03*
X52911D03*
X45200Y36600D03*
Y39600D03*
X42200Y36600D03*
Y39600D03*
X45200Y42600D03*
Y45600D03*
Y48600D03*
X42200Y42600D03*
Y45600D03*
Y48600D03*
X45300Y74800D03*
X42300D03*
X58000Y69500D03*
X45300Y77800D03*
X42300D03*
X43617Y108784D03*
X43635Y98366D03*
X43600Y103484D03*
X44000Y100735D03*
X43646Y106214D03*
X43635Y95807D03*
X43627Y121028D03*
X43646Y126442D03*
X43715Y111304D03*
X43646Y123786D03*
X43694Y118627D03*
X43789Y131788D03*
X43900Y134700D03*
X43635Y129075D03*
X45209Y158912D03*
X43111Y159010D03*
X41700Y167300D03*
X54200Y174877D03*
X54400Y179157D03*
X54300Y177006D03*
X42111Y191810D03*
Y196110D03*
X54392Y181257D03*
X53700Y192235D03*
X56448Y190031D03*
X53600Y190137D03*
X62911Y2910D03*
X72911D03*
X73511Y16908D03*
X72400Y11960D03*
X66249Y24051D03*
X63700Y69500D03*
Y72000D03*
X61000Y69600D03*
X58200Y71900D03*
X61000Y72000D03*
X65209Y89409D03*
X73084Y93346D03*
X64600Y110200D03*
X70663Y109046D03*
X70832Y95584D03*
X71711Y103610D03*
X64468Y114469D03*
X71214Y126811D03*
X70663Y111200D03*
X70573Y118800D03*
X70585Y120846D03*
X61100Y119000D03*
X72800Y114900D03*
X64381Y126410D03*
X75189Y126600D03*
X72700Y120900D03*
X72573Y118800D03*
X65200D03*
X63200Y118900D03*
X73191Y126500D03*
X74573Y118800D03*
X74800Y121100D03*
X64681Y144365D03*
X61700Y137107D03*
X70742Y134570D03*
X72922Y136835D03*
X71095Y128918D03*
X70688Y136802D03*
X69904Y144561D03*
X62134Y129096D03*
X73510Y143862D03*
X69915Y142114D03*
X61688Y139107D03*
X65176Y140636D03*
X65103Y137241D03*
X64248Y128603D03*
X66850Y144450D03*
X73264Y129000D03*
X72948Y134582D03*
X74664Y132904D03*
X68586Y146986D03*
X72200Y149800D03*
X65413Y147605D03*
X72268Y147474D03*
X58450Y174879D03*
X72500Y175170D03*
X62900Y175082D03*
X67600Y175066D03*
X58502Y177008D03*
X62925Y177182D03*
X67600Y177166D03*
X72500Y177270D03*
X63000Y179308D03*
X72356Y179366D03*
X58600Y179157D03*
X67600Y179266D03*
X62908Y181406D03*
X67606Y181366D03*
X72439Y181465D03*
X58542Y181257D03*
X67991Y192235D03*
X58200Y192200D03*
X74290Y191339D03*
X75320Y188920D03*
X64782Y190037D03*
X64850Y192235D03*
X61450Y190148D03*
X71112Y192235D03*
X58582Y190100D03*
X71100Y190130D03*
X72400Y188400D03*
X68021Y190135D03*
X61691Y192235D03*
X92911Y2910D03*
X82911D03*
X85363Y7850D03*
X85340Y11610D03*
X82511Y22710D03*
X91618Y30536D03*
X91985Y68878D03*
X79763Y93204D03*
X87615Y93209D03*
X80500Y102300D03*
X80446Y105443D03*
X82764Y103337D03*
X77472Y102497D03*
X87361Y101426D03*
X78635Y108909D03*
X80861Y95128D03*
X80848Y97360D03*
X86544Y97238D03*
X80888Y99532D03*
X86561Y99408D03*
X86493Y95068D03*
X78607Y97424D03*
X78582Y95162D03*
X92500Y107108D03*
X92509Y109278D03*
X92413Y103300D03*
X86401Y103382D03*
X92500Y95436D03*
X88746Y97268D03*
X88743Y95097D03*
X88571Y103372D03*
X88760Y99470D03*
X86742Y107126D03*
X80689Y108826D03*
X78450Y127004D03*
X92400Y127000D03*
X80892Y126665D03*
X92515Y114919D03*
X86655Y118937D03*
X86765Y111006D03*
X78600Y118900D03*
X78720Y111300D03*
X92600Y112761D03*
X86400Y126700D03*
X88700Y126600D03*
X92521Y117152D03*
X86726Y122850D03*
X92228Y122991D03*
X92500Y120820D03*
X84451Y111071D03*
X86725Y114986D03*
X84483Y118999D03*
X82800Y125400D03*
X80600Y124600D03*
X80689Y120924D03*
Y118732D03*
Y115115D03*
X76900Y115000D03*
X80765Y111248D03*
X79734Y136791D03*
X87391Y137024D03*
X87592Y128614D03*
X78452Y130743D03*
X86446Y130475D03*
X86504Y132746D03*
X81321Y144560D03*
X78700Y132756D03*
X80852Y134925D03*
X78211Y142688D03*
X80958Y132763D03*
X92500Y134572D03*
X78572Y134923D03*
X88694Y130484D03*
X80779Y130548D03*
X86378Y135054D03*
X88739Y132808D03*
X88586Y135052D03*
X75600Y129000D03*
X86800Y175167D03*
X91700D03*
X76560Y175114D03*
X81800Y175132D03*
X86900Y179365D03*
Y177265D03*
X76800Y179380D03*
X76708Y177237D03*
X81800Y179332D03*
Y177232D03*
X91700Y177267D03*
X91600Y179365D03*
X92210Y189109D03*
X91613Y181465D03*
X81800Y181432D03*
X86888Y181465D03*
X76800Y181480D03*
X77553Y192206D03*
X87748Y192162D03*
X89700Y191149D03*
X87300Y190005D03*
X83836Y190836D03*
X79632Y191784D03*
X78674Y189915D03*
X89986Y189068D03*
X81776Y191695D03*
X102911Y2910D03*
X96700Y64500D03*
X98150Y71925D03*
X96500Y67500D03*
X97446Y93161D03*
X105391Y93237D03*
X102233Y103068D03*
X106038Y110075D03*
X104654Y103166D03*
X97231Y101398D03*
X108097Y101131D03*
X104331Y95162D03*
X107952Y103363D03*
X98547Y95098D03*
X104280Y97352D03*
X96264Y103345D03*
X98295Y107126D03*
X106615Y98005D03*
X108134Y109019D03*
X110217Y103341D03*
X98434Y103286D03*
X106531Y95803D03*
X96299Y97214D03*
X96260Y99423D03*
X96334Y95043D03*
X104174Y108922D03*
X106115Y119906D03*
X98251Y110994D03*
X108219Y115040D03*
X98229Y119125D03*
X110216Y111246D03*
X104367Y115075D03*
X103410Y124677D03*
X108248Y118757D03*
X104172Y120947D03*
X108209Y120989D03*
X96351Y126671D03*
X107975Y111245D03*
X108228Y126628D03*
X100525Y111043D03*
X98242Y115079D03*
X100495Y115034D03*
X100393Y118955D03*
X98573Y122714D03*
X100573Y122703D03*
X104123Y128262D03*
X105235Y136902D03*
X97422Y136885D03*
X97507Y128598D03*
X106434Y134685D03*
X98570Y130549D03*
X104270Y132748D03*
X110169Y132661D03*
X96369Y132772D03*
X104311Y130576D03*
X96387Y130601D03*
X96406Y134942D03*
X98539Y132732D03*
X98578Y134902D03*
X108100Y128900D03*
X108977Y152474D03*
X107600Y164410D03*
X109961D03*
X96500Y175171D03*
Y179371D03*
Y177271D03*
X105500Y181465D03*
X96337D03*
X100800Y181283D03*
X105782Y192207D03*
X99535Y188132D03*
X97572Y186939D03*
X98169Y190740D03*
X102772Y192200D03*
X105633Y190088D03*
X94652Y187281D03*
X108792Y190583D03*
X108900Y188485D03*
X101405Y190605D03*
X96337Y192036D03*
X102604Y187825D03*
X122911Y2910D03*
X112911D03*
X122219Y20177D03*
X119888Y18175D03*
X116199Y20367D03*
X123038Y18175D03*
X116739D03*
X119209Y20374D03*
X126057Y17977D03*
X125229Y20360D03*
X122751Y38236D03*
X127475Y38486D03*
X122661Y40336D03*
X119741Y38236D03*
X116738Y40625D03*
X119000Y31000D03*
X119611Y40710D03*
X115000Y31000D03*
X112195Y93242D03*
X119712Y88532D03*
X114400Y110079D03*
X114479Y102343D03*
X114337Y94618D03*
X112165Y95412D03*
X112314Y103462D03*
X112480Y108988D03*
X110304Y109028D03*
X110300Y97060D03*
X110376Y101176D03*
X112677Y101474D03*
X114504Y127786D03*
X114478Y119987D03*
X122300Y127491D03*
X125424Y126441D03*
X112608Y118796D03*
X110435Y118740D03*
X112001Y115000D03*
X112559Y121026D03*
X110378Y121096D03*
X110398Y126673D03*
X112529Y111265D03*
X112581Y126607D03*
X111997Y136813D03*
X114277Y136731D03*
X114307Y134503D03*
X118660Y142284D03*
X124900Y134426D03*
X124800Y136624D03*
X112499Y128795D03*
X125511Y139310D03*
X123551Y158250D03*
X126372Y167100D03*
X120600Y175139D03*
X118600Y167110D03*
X120700Y179337D03*
X120600Y177239D03*
X123600Y163600D03*
X120826Y181434D03*
X110318Y181465D03*
X115043D03*
X125138Y192236D03*
X116000Y191900D03*
X112176Y190945D03*
X113838Y192229D03*
X110510Y192235D03*
X127057Y191215D03*
X142911Y2910D03*
X132911D03*
X142097Y18397D03*
X142427Y20471D03*
X132487Y20392D03*
X138786Y18175D03*
X132174Y18263D03*
X128239Y20079D03*
X129047Y18039D03*
X136407Y20543D03*
X135726Y18085D03*
X139417Y20438D03*
X133495Y38789D03*
X127655Y40620D03*
X133495Y41222D03*
X130904Y41290D03*
X130485Y38564D03*
X138875Y40625D03*
X141935D03*
Y38236D03*
X140473Y44175D03*
X127761Y43125D03*
X138904Y45744D03*
X134500Y66500D03*
X143280Y84130D03*
X134297Y82083D03*
X140727Y92804D03*
X144211Y77495D03*
X140955Y77554D03*
X134906Y79751D03*
X131811Y79210D03*
X142000Y81000D03*
X144513Y89018D03*
X141016Y84086D03*
X141084Y88825D03*
X138646Y77734D03*
X138160Y90634D03*
X143319Y107408D03*
X136639Y94406D03*
X127761Y97747D03*
X133234Y98152D03*
X135345Y98170D03*
X131400Y125400D03*
X140920Y128875D03*
X138500Y139000D03*
X131050Y134450D03*
X131385Y131371D03*
X138900Y131200D03*
X136898Y128612D03*
X141200Y131158D03*
X133970Y133091D03*
X133100Y137000D03*
X144596Y147596D03*
X128540Y155310D03*
X144596Y155904D03*
X139714Y161722D03*
X144519Y177750D03*
X137811Y176810D03*
X136217Y186528D03*
X141384Y191784D03*
X129405Y181465D03*
X138950Y191784D03*
X143193Y190302D03*
X140400Y187360D03*
X138431Y186540D03*
X129281Y191215D03*
X142531Y188309D03*
X152911Y2910D03*
X151457Y20564D03*
X160248Y27226D03*
X145073Y38236D03*
X146533Y32000D03*
X144979Y40625D03*
X145782Y84021D03*
X146111Y79910D03*
X159859Y104103D03*
X161278Y97094D03*
X145434Y106581D03*
X146111Y110310D03*
X160102Y111964D03*
X158740Y122409D03*
X159953Y124076D03*
X158037Y112149D03*
X158569Y144617D03*
X160800Y144638D03*
X152270Y140491D03*
X158929Y150440D03*
X158485Y176390D03*
X144961Y189000D03*
X172911Y2910D03*
X162911D03*
X176511Y3410D03*
X172211Y23610D03*
Y18910D03*
X178111Y18510D03*
X172011Y15410D03*
X171911Y11710D03*
X171711Y7410D03*
X176511Y7210D03*
X174311Y9610D03*
X176211Y12210D03*
X174511Y21410D03*
X177511D03*
X174911Y18110D03*
X175311Y15110D03*
X178211Y40210D03*
X174311Y40110D03*
X172111Y38010D03*
X172011Y34410D03*
X171911Y30710D03*
X172211Y27410D03*
X169811Y36210D03*
Y32110D03*
Y28310D03*
X169611Y25122D03*
X177811Y45210D03*
X177511Y42510D03*
X174911D03*
X174411Y83500D03*
X170941Y91680D03*
X178634Y92505D03*
Y89355D03*
X176534Y92500D03*
X176652Y83576D03*
X172011Y83500D03*
X173447Y91155D03*
X167739Y100296D03*
X172825Y100281D03*
X178121Y100379D03*
X176000Y100500D03*
X176783Y96310D03*
X170257Y100247D03*
X165291Y100112D03*
X167550Y107995D03*
X171483Y108340D03*
X167644Y112083D03*
X167707Y116689D03*
X174159Y117626D03*
X175190Y111971D03*
X169683Y122109D03*
X167855Y118854D03*
X171908Y117626D03*
X177582Y111900D03*
X172538Y122217D03*
X172052Y129489D03*
X169221Y156695D03*
X164000Y155716D03*
X163800Y158016D03*
X163160Y152287D03*
X166970Y169982D03*
X163040Y167258D03*
X171311Y183310D03*
Y187610D03*
X174911Y183310D03*
Y187610D03*
X171311Y191710D03*
Y196010D03*
X174911Y191710D03*
Y196010D03*
X162300Y192000D03*
X193950Y6590D03*
X182787Y6497D03*
X187950Y3660D03*
X179711Y3310D03*
X193624Y16683D03*
X182415D03*
X188183Y19567D03*
X195863Y11526D03*
X180462Y11660D03*
X187311Y23810D03*
X191211Y23610D03*
X195111Y23010D03*
X181211Y21510D03*
X184111Y40310D03*
X181211D03*
X185611Y26010D03*
X189711Y26110D03*
X193511Y25910D03*
X196711Y25810D03*
X195211Y28410D03*
X193011Y33810D03*
Y38610D03*
X194411Y36310D03*
X196111Y38410D03*
X196511Y34210D03*
Y31110D03*
X187311Y39610D03*
X187111Y35810D03*
X185311Y37210D03*
X188111Y45310D03*
X187411Y42410D03*
X192111Y45310D03*
X193311Y43310D03*
X195311Y45110D03*
X196311Y47610D03*
X196011Y41710D03*
X184638Y71937D03*
X185911Y86410D03*
X196387Y89729D03*
X196386Y91980D03*
X195078Y85521D03*
X183820Y86210D03*
X192985Y85701D03*
X195211Y110610D03*
X187161Y96582D03*
X195961Y99481D03*
X193360Y103554D03*
X196387Y94080D03*
X196343Y96194D03*
X187105Y98689D03*
X195570Y103371D03*
X195211Y125610D03*
Y114810D03*
Y121910D03*
Y118410D03*
X181333Y114667D03*
X181509Y111776D03*
X195011Y136810D03*
X194911Y143810D03*
Y140210D03*
X195211Y132710D03*
Y129210D03*
X189632Y156858D03*
Y162558D03*
X183932D03*
Y156858D03*
X195711Y159010D03*
X187952Y180219D03*
X188185Y196126D03*
X182417Y193242D03*
X193626D03*
X195865Y188085D03*
X182789Y183056D03*
X193952Y183149D03*
X180464Y188219D03*
G54D20*
X32725Y16900D03*
X40675D03*
X33375Y66900D03*
X25425D03*
X45625Y67100D03*
X53575D03*
G54D11*
X7357Y42494D03*
Y32652D03*
G54D12*
X11818Y188192D03*
X188196Y11814D03*
Y188192D03*
G54D30*
X91253Y8967D03*
G54D21*
X40187Y28717D03*
X38613D03*
X37038D03*
X35463D03*
X33888D03*
X32313D03*
X30739D03*
X29164D03*
Y55883D03*
X30739D03*
X32313D03*
X33888D03*
X35463D03*
X37038D03*
X38613D03*
X40187D03*
X49636Y28717D03*
X48061D03*
X46487D03*
X44912D03*
X43337D03*
X41762D03*
Y55883D03*
X43337D03*
X44912D03*
X46487D03*
X48061D03*
X49636D03*
G54D40*
X179282Y148488D03*
Y170928D03*
X194282Y148488D03*
X189282D03*
X184282D03*
Y170928D03*
X189282D03*
X194282D03*
G54D13*
X10000Y24100D03*
X18000Y27800D03*
X9700Y52260D03*
Y57760D03*
X17200Y75900D03*
X9800Y63400D03*
X16900Y69300D03*
X16800Y62600D03*
X52500Y17900D03*
X52300Y75700D03*
X76300Y50900D03*
X89844Y23109D03*
X80311Y16110D03*
X90753Y34336D03*
X79577Y148897D03*
X115423Y83051D03*
X121396Y156095D03*
X121500Y161500D03*
X131911Y169510D03*
X160811Y154310D03*
X157800Y167300D03*
X167002Y153787D03*
G54D22*
X25817Y32064D03*
Y33639D03*
Y35213D03*
Y36788D03*
Y38363D03*
Y39938D03*
Y41513D03*
Y43087D03*
Y44662D03*
Y46237D03*
Y47812D03*
Y49387D03*
Y50961D03*
Y52536D03*
X52983Y39938D03*
Y38363D03*
Y36788D03*
Y35213D03*
Y33639D03*
Y32064D03*
Y52536D03*
Y50961D03*
Y49387D03*
Y47812D03*
Y46237D03*
Y44662D03*
Y43087D03*
Y41513D03*
G54D31*
X101253Y8967D03*
G54D50*
G01X17124Y40300D02*
X15600Y41824D01*
Y46300D01*
X12100Y49800D01*
X7100D01*
X6100Y50800D01*
Y76979D01*
X3500Y79579D01*
Y146986D01*
X51164Y194650D01*
X89371D01*
X94652Y189369D01*
Y187281D01*
G01X17200Y31100D02*
X10200Y24100D01*
X10000D01*
G01X7357Y32652D02*
Y35357D01*
X7851Y35851D01*
X14100D01*
G01X7357Y42494D02*
Y39543D01*
X7851Y39049D01*
X14100D01*
G01X25817Y36788D02*
X15037D01*
X14100Y35851D01*
G01X25817Y38363D02*
X14786D01*
X14100Y39049D01*
G01X20076Y40300D02*
X21103Y39273D01*
X23373D01*
X24038Y39938D01*
X25817D01*
G01Y35213D02*
X21289D01*
X20076Y34000D01*
G01X25817Y43087D02*
X20887D01*
X20505Y42705D01*
G01X17224Y46000D02*
Y44276D01*
X18000Y43500D01*
G01X8500Y79800D02*
X9280Y80580D01*
X52744D01*
X57244Y76080D01*
X66646D01*
X71376Y71350D01*
Y70960D01*
G01X6211Y81490D02*
X53122D01*
X57622Y76990D01*
X69010D01*
X73000Y73000D01*
Y69084D01*
X71376Y67460D01*
G01X71276Y59200D02*
X72776Y60700D01*
X73500D01*
X75842Y63042D01*
Y71558D01*
X69500Y77900D01*
X58000D01*
X53500Y82400D01*
X9599D01*
X5147Y86852D01*
Y140643D01*
G01X22475Y40878D02*
Y40975D01*
X23013Y41513D01*
X25817D01*
G01X49900Y103924D02*
X47200D01*
X46324Y104800D01*
X45410D01*
G01X49900Y106876D02*
Y108800D01*
X45200Y113500D01*
X36200D01*
X33700Y116000D01*
G01X32218Y129075D02*
X33574Y127719D01*
Y118963D01*
X36283Y116254D01*
X43654D01*
X49300Y121900D01*
X61800D01*
G01X60900Y127700D02*
X50800D01*
X45447Y133053D01*
X44546D01*
G01X59938Y132106D02*
X57393D01*
X46449Y143050D01*
X41178D01*
X40106Y141978D01*
Y141790D01*
X38517Y140201D01*
Y139311D01*
G01X62614Y133686D02*
X50300Y146000D01*
X33418D01*
X30248Y142830D01*
Y138722D01*
X32218Y136752D01*
G01X33234Y144500D02*
X48754D01*
X60369Y132885D01*
G01X38517Y136752D02*
X38545Y136724D01*
X39125D01*
X40532Y138131D01*
X44868D01*
X53353Y129646D01*
X60647D01*
X61547Y130546D01*
G01X38517Y129075D02*
X39792Y127800D01*
X41749D01*
X41842Y127707D01*
G01X44541D02*
X45294D01*
X49458Y123543D01*
X63483D01*
G01X68468Y123844D02*
X68878Y123434D01*
Y122874D01*
G01X35368Y136752D02*
X36695Y138079D01*
X38979D01*
X39931Y139031D01*
Y139713D01*
X40865Y140647D01*
X45752D01*
X55543Y130856D01*
X59958D01*
X60378Y131276D01*
X64624D01*
G01X32218Y131634D02*
X33506Y130346D01*
X42229D01*
G01X44270Y130369D02*
X45332D01*
X49701Y126000D01*
X60800D01*
X62527Y124273D01*
G01X57800Y19076D02*
Y20049D01*
X55800Y22049D01*
G01X43337Y28717D02*
Y27143D01*
X47100Y23380D01*
X52421D01*
X53752Y22049D01*
X55800D01*
G01X49636Y28717D02*
X65604D01*
X75311Y19010D01*
G01X69351Y22100D02*
Y23349D01*
X64893Y27807D01*
X51875D01*
X50268Y26200D01*
X49000D01*
X48061Y27139D01*
Y28717D01*
G01X80400Y32000D02*
X69400D01*
X67600Y30200D01*
X58200D01*
X56336Y32064D01*
X52983D01*
G01X46487Y28717D02*
Y27113D01*
X48400Y25200D01*
X51200D01*
X52700Y26700D01*
X62100D01*
X63095Y25705D01*
Y22906D01*
X64052Y21949D01*
X64400D01*
G01X60400Y22049D02*
X61848D01*
X62100Y22301D01*
Y25100D01*
X61410Y25790D01*
X53790D01*
X52290Y24290D01*
X47766D01*
X44912Y27144D01*
Y28717D01*
G01X49900Y103924D02*
X58324D01*
X64600Y110200D01*
G01X76675Y147225D02*
Y151614D01*
X70117Y158172D01*
X54860D01*
X50050Y162982D01*
Y179438D01*
X59255Y188643D01*
X62074D01*
X62955Y189524D01*
Y190340D01*
X64850Y192235D01*
G01X74775Y146645D02*
Y150826D01*
X69548Y156053D01*
X54291D01*
X47827Y162517D01*
Y187326D01*
X52736Y192235D01*
X53700D01*
G01X75725Y147583D02*
Y151220D01*
X69763Y157182D01*
X54506D01*
X49100Y162588D01*
Y181200D01*
X56448Y188548D01*
Y190031D01*
G01X73825Y146590D02*
Y150432D01*
X69277Y154980D01*
X54020D01*
X46709Y162291D01*
Y187609D01*
X52840Y193740D01*
X60186D01*
X61691Y192235D01*
G01X149724Y50900D02*
Y50510D01*
X161753Y38481D01*
Y25653D01*
X148200Y12100D01*
X105600D01*
X101100Y16600D01*
Y21600D01*
X96900Y25800D01*
X86200D01*
X84700Y24300D01*
Y16700D01*
X81600Y13600D01*
X74690D01*
X69351Y18939D01*
Y22100D01*
G01X65800Y20100D02*
X65276D01*
X64400Y20976D01*
Y21949D01*
G01X62000Y16124D02*
Y13500D01*
G01X57800Y16124D02*
Y13400D01*
G01X60400Y22049D02*
Y20676D01*
X62000Y19076D01*
G01X72850Y24350D02*
X73944D01*
X78594Y29000D01*
X93900D01*
X96100Y31200D01*
X110512D01*
X120714Y20998D01*
Y19478D01*
X121393Y18799D01*
Y17691D01*
X123884Y15200D01*
X141600D01*
X149500Y23100D01*
Y43901D01*
X146300Y47101D01*
Y66000D01*
X151800Y71500D01*
G01X71376Y63300D02*
X73600D01*
X74000Y63700D01*
G01X64600Y110200D02*
Y110723D01*
X66909Y113032D01*
G01X57400Y113100D02*
X58716D01*
X59938Y114322D01*
G01X70526Y147073D02*
Y148282D01*
X69568Y149240D01*
X67048D01*
X65413Y147605D01*
G01X66096Y186292D02*
X66308D01*
X69526Y189510D01*
Y190685D01*
X71076Y192235D01*
X71112D01*
G01X70300Y186292D02*
X70895Y186887D01*
Y189925D01*
X71100Y190130D01*
G01X74596Y186292D02*
X72488Y188400D01*
X72400D01*
G01X68021Y190135D02*
X66296Y188410D01*
X63914D01*
X61796Y186292D01*
G01X81989Y19810D02*
Y22188D01*
X82511Y22710D01*
G01X81989Y19810D02*
Y17788D01*
X80311Y16110D01*
G01X75311Y19010D02*
X78237D01*
X79037Y19810D01*
G01X75850Y22750D02*
X80915Y27815D01*
X96246D01*
X98546Y30115D01*
X108793D01*
X117704Y21204D01*
Y19750D01*
X118244Y19210D01*
Y17690D01*
X121734Y14200D01*
X142964D01*
X150811Y22047D01*
Y44888D01*
X147400Y48299D01*
Y52876D01*
X149724Y55200D01*
G01X160248Y27226D02*
X146122Y13100D01*
X117700D01*
X114670Y16130D01*
Y20502D01*
X108267Y26905D01*
X82200D01*
X79100Y23805D01*
Y22800D01*
G01X90753Y34336D02*
X76100D01*
G01X90753D02*
X91618Y33471D01*
Y30536D01*
G01X122661Y40336D02*
X117097Y45900D01*
X97599D01*
X77722Y65777D01*
Y88674D01*
G01X127475Y38486D02*
X127311Y38650D01*
Y38687D01*
X117998Y48000D01*
X96926D01*
X78720Y66206D01*
Y89409D01*
G01X79690Y88554D02*
X79630Y88494D01*
Y66583D01*
X96713Y49500D01*
X117785D01*
X126665Y40620D01*
X127655D01*
G01X127761Y43125D02*
X120086Y50800D01*
X96701D01*
X80540Y66961D01*
Y89260D01*
X80689Y89409D01*
G01X76752D02*
Y65460D01*
X97627Y44585D01*
X115736D01*
X119611Y40710D01*
G01X81665Y88605D02*
Y68047D01*
X97312Y52400D01*
X122286D01*
X133464Y41222D01*
X133495D01*
G01X82658Y89409D02*
X82806Y89261D01*
Y68193D01*
X97099Y53900D01*
X122946D01*
X135000Y41846D01*
Y38165D01*
X134119Y37284D01*
X132871D01*
X131990Y38165D01*
Y40204D01*
X130904Y41290D01*
G01X83628Y88726D02*
X83716Y88638D01*
Y68736D01*
X97252Y55200D01*
X122933D01*
X135910Y42223D01*
Y37788D01*
X134496Y36374D01*
X132493D01*
X130485Y38382D01*
Y38564D01*
G01X129047Y18039D02*
X127318Y16310D01*
X125595D01*
X124552Y17353D01*
Y18884D01*
X123724Y19712D01*
Y24224D01*
X136820Y37320D01*
Y42735D01*
X122855Y56700D01*
X97039D01*
X84626Y69113D01*
Y89409D01*
G01X125229Y20360D02*
Y23728D01*
X140380Y38879D01*
Y42138D01*
X124318Y58200D01*
X96826D01*
X85615Y69411D01*
Y88602D01*
G01X130962Y21398D02*
Y25134D01*
X143440Y37612D01*
Y43337D01*
X137127Y49650D01*
X137126D01*
X127276Y59500D01*
X96813D01*
X86594Y69719D01*
Y89409D01*
G01X128239Y20079D02*
X129136D01*
X130669Y18546D01*
Y17639D01*
X131550Y16758D01*
X132798D01*
X133992Y17952D01*
Y25025D01*
X146578Y37611D01*
Y41822D01*
X127500Y60900D01*
X96700D01*
X87593Y70007D01*
Y88448D01*
G01X96700Y64500D02*
X94800Y66400D01*
Y69490D01*
X90443Y73847D01*
Y89320D01*
X90532Y89409D01*
G01X135726Y18085D02*
X134902Y18909D01*
Y24502D01*
X147488Y37088D01*
Y42611D01*
X127999Y62100D01*
X96799D01*
X93490Y65409D01*
Y69512D01*
X89533Y73469D01*
Y88671D01*
G01X96500Y67500D02*
Y70400D01*
X91353Y75547D01*
Y88514D01*
X91527Y88688D01*
G01X79632Y191784D02*
Y191268D01*
X81569Y189331D01*
X84469D01*
X85618Y188182D01*
X87818D01*
X89708Y186292D01*
X91471D01*
G01X78674Y189915D02*
X79085D01*
X80579Y188421D01*
X83579D01*
X85708Y186292D01*
X87170D01*
G01X82929D02*
X81129D01*
X79011Y188410D01*
X77959D01*
X75030Y191339D01*
X74290D01*
G01X75320Y188920D02*
Y187900D01*
X76928Y186292D01*
X78772D01*
G01X93486Y82765D02*
Y80213D01*
X110199Y63500D01*
X128200D01*
X148398Y43302D01*
Y36498D01*
X136407Y24507D01*
Y20543D01*
G01X98150Y71925D02*
X92500Y77575D01*
Y89409D01*
G01X137811Y176810D02*
X120881Y193740D01*
X98041D01*
X96337Y192036D01*
G01X115407Y33412D02*
Y31407D01*
X115000Y31000D01*
G01X118359Y33412D02*
Y31641D01*
X119000Y31000D01*
G01X138646Y77734D02*
X137674Y76762D01*
X123637D01*
X118900Y81499D01*
Y83546D01*
X116312Y86134D01*
X115581D01*
G01X134906Y79751D02*
X132827Y77672D01*
X124028D01*
X120000Y81700D01*
Y83480D01*
X116343Y87137D01*
X115351D01*
X114154Y88334D01*
Y89409D01*
G01X144211Y77495D02*
X142516Y75800D01*
X117803D01*
X116223Y77380D01*
X116218D01*
X115337Y78261D01*
Y78266D01*
X112141Y81462D01*
Y82765D01*
G01X116122Y89409D02*
X116138D01*
X117993Y87554D01*
X118574D01*
X119001Y87127D01*
X120341D01*
X121900Y88686D01*
X128007D01*
X134245Y82448D01*
Y82135D01*
X134297Y82083D01*
G01X140955Y77554D02*
X128913Y89596D01*
X120949D01*
G01X131811Y79210D02*
Y79310D01*
X131111Y80010D01*
Y84295D01*
X127630Y87776D01*
X122876D01*
X121102Y86002D01*
X118512D01*
X116130Y88384D01*
X115669D01*
G01X120782Y91982D02*
X121348Y91416D01*
X129669D01*
X140085Y81000D01*
X142000D01*
G01X146111Y79910D02*
Y79810D01*
X145504Y79203D01*
X140594D01*
X129291Y90506D01*
X124520D01*
G01X156811Y70210D02*
Y76310D01*
X149457Y83664D01*
Y88777D01*
X135847Y102387D01*
X132966D01*
X131194Y104159D01*
X119423D01*
G01X124520Y92326D02*
X130046D01*
X139867Y82505D01*
X144266D01*
X145782Y84021D01*
G01X140727Y92804D02*
X136112D01*
X129664Y99252D01*
X124520D01*
G01Y94154D02*
X130792D01*
X137906Y87040D01*
X142535D01*
X144513Y89018D01*
G01X124520Y93236D02*
X130423D01*
X139573Y84086D01*
X141016D01*
G01X120678Y96285D02*
X123827D01*
X124780Y95332D01*
X131009D01*
X137516Y88825D01*
X141084D01*
G01X127761Y97747D02*
X127226Y98282D01*
X119492D01*
G01X152448Y76484D02*
X147287Y81645D01*
Y88373D01*
X135093Y100567D01*
X132212D01*
X130560Y102219D01*
X119698D01*
G01X124520Y97284D02*
X124765D01*
X125807Y96242D01*
X131386D01*
X136994Y90634D01*
X138160D01*
G01X154811Y75950D02*
Y76392D01*
X148303Y82900D01*
Y88644D01*
X135470Y101477D01*
X132589D01*
X130877Y103189D01*
X124520D01*
G01X119354Y100250D02*
X129954D01*
X132052Y98152D01*
X133234D01*
G01X160211Y81850D02*
Y82610D01*
X137373Y105448D01*
X135005D01*
X135004Y105449D01*
X133765D01*
X132088Y107126D01*
X118091D01*
G01X178211Y81110D02*
Y79210D01*
X177709Y78708D01*
X176421D01*
X176011Y79118D01*
Y81145D01*
X175481Y81675D01*
X174781D01*
X174371Y81265D01*
Y79118D01*
X173961Y78708D01*
X173141D01*
X172731Y79118D01*
Y81445D01*
X172320Y81856D01*
X171221D01*
X170811Y81446D01*
Y79118D01*
X170401Y78708D01*
X167011D01*
X166511Y79208D01*
Y82710D01*
X166011Y83210D01*
X165011D01*
X164511Y82710D01*
Y79442D01*
X164101Y79032D01*
X160088D01*
X155763Y83357D01*
X154920D01*
X154368Y83909D01*
Y84538D01*
X155172Y85342D01*
Y86050D01*
X154591Y86631D01*
X154013D01*
X153315Y85932D01*
X152737D01*
X152156Y86513D01*
Y87093D01*
X152853Y87790D01*
Y88369D01*
X136684Y104538D01*
X134627D01*
X134626Y104539D01*
X133388D01*
X131799Y106128D01*
X119698D01*
G01X169192Y81850D02*
Y81929D01*
X166511Y84610D01*
X161296D01*
X138638Y107268D01*
X136112D01*
X136111Y107269D01*
X135757D01*
X135756Y107270D01*
X134518D01*
X132694Y109094D01*
X124520D01*
G01X156511Y80210D02*
X156411D01*
X150664Y85957D01*
Y88857D01*
X136224Y103297D01*
X133343D01*
X131482Y105158D01*
X124520D01*
G01X162245Y80776D02*
Y82235D01*
X138122Y106358D01*
X135735D01*
X135734Y106359D01*
X135380D01*
X135379Y106360D01*
X134141D01*
X132405Y108096D01*
X119182D01*
G01X118091Y101220D02*
X130272D01*
X131835Y99657D01*
X133858D01*
X135345Y98170D01*
G01X124520Y113032D02*
X135089D01*
X136418Y111703D01*
X137950D01*
G01X124520Y117938D02*
X145985D01*
X147450Y119403D01*
G01X124520Y112062D02*
X134509D01*
X136572Y109999D01*
X137242D01*
X137243Y109998D01*
X143398D01*
X143700Y110300D01*
G01X186132Y74396D02*
Y75788D01*
X184926Y76994D01*
Y80795D01*
X175349Y90372D01*
Y91572D01*
X172572Y94349D01*
X168277D01*
X167867Y93939D01*
Y91520D01*
X167457Y91110D01*
X166637D01*
X166227Y91520D01*
Y93939D01*
X165817Y94349D01*
X164997D01*
X164587Y93939D01*
Y91520D01*
X164177Y91110D01*
X163357D01*
X162947Y91520D01*
Y93939D01*
X162537Y94349D01*
X161717D01*
X161307Y93939D01*
Y91520D01*
X160897Y91110D01*
X160077D01*
X159667Y91520D01*
Y93939D01*
X159257Y94349D01*
X154249D01*
X140043Y108555D01*
Y108556D01*
X139511Y109088D01*
X136866D01*
X136865Y109089D01*
X136512D01*
X136510Y109091D01*
X135271D01*
X133299Y111063D01*
X124520D01*
G01X119114Y110064D02*
X133011D01*
X134894Y108181D01*
X136132D01*
X136134Y108179D01*
X136488D01*
X136489Y108178D01*
X139133D01*
X161301Y86010D01*
X163724D01*
X164134Y86420D01*
Y88000D01*
X164544Y88410D01*
X165364D01*
X165774Y88000D01*
Y86420D01*
X166184Y86010D01*
X167004D01*
X167414Y86420D01*
Y88000D01*
X167824Y88410D01*
X168644D01*
X169054Y88000D01*
Y86420D01*
X169464Y86010D01*
X170284D01*
X170694Y86420D01*
Y88000D01*
X171104Y88410D01*
X171924D01*
X172334Y88000D01*
Y86420D01*
X172744Y86010D01*
X173564D01*
X173974Y86420D01*
Y88000D01*
X174384Y88410D01*
X175204D01*
X175614Y88000D01*
Y86420D01*
X176024Y86010D01*
X178310D01*
X184016Y80304D01*
Y76644D01*
X184164Y76496D01*
Y74396D01*
G01X124520Y119936D02*
X143784D01*
X147253Y123405D01*
Y126740D01*
X152623Y132110D01*
X166607D01*
G01X167739Y130978D02*
Y127831D01*
G01X124520Y121876D02*
X143148D01*
X145433Y124161D01*
Y127494D01*
X152149Y134210D01*
X167734D01*
G01X124520Y115970D02*
X155511D01*
X155811Y116270D01*
Y119310D01*
X155411Y119710D01*
X152511D01*
X152111Y120110D01*
Y120810D01*
X152411Y121110D01*
X155811D01*
X156511Y121810D01*
Y126310D01*
X157037Y126836D01*
G01X119109Y123824D02*
X127009D01*
X128897Y125712D01*
G01X122550Y125724D02*
X124792Y127966D01*
X131206D01*
X133201Y125971D01*
X138502D01*
X139880Y127349D01*
X141650D01*
X142638Y128337D01*
Y130008D01*
X143480Y130850D01*
G01X124520Y116968D02*
X153769D01*
X154311Y117510D01*
Y118100D01*
X153901Y118510D01*
X151211D01*
X150801Y118920D01*
Y121800D01*
X151211Y122210D01*
X154701D01*
X155111Y122620D01*
Y128010D01*
X156219Y129118D01*
X164007D01*
G01X124520Y118937D02*
X144073D01*
X148163Y123027D01*
Y126363D01*
X152910Y131110D01*
X165857D01*
G01X166759Y130208D02*
Y128548D01*
G01X124520Y120906D02*
X143466D01*
X146343Y123783D01*
Y127117D01*
X152436Y133210D01*
X167266D01*
G01X168728Y131748D02*
Y128718D01*
G01X124520Y122874D02*
X142858D01*
X144523Y124539D01*
Y127871D01*
X151962Y135310D01*
X167978D01*
G01X146411Y114410D02*
X140841D01*
X140311Y114940D01*
X124580D01*
X124520Y115000D01*
G01X158037Y112149D02*
X151273D01*
X150512Y112910D01*
X144789D01*
X144784Y112915D01*
X139406D01*
X138291Y114030D01*
X124520D01*
G01X133100Y137000D02*
X129000Y141100D01*
X123700D01*
X119254Y136654D01*
X118091D01*
G01X126372Y167100D02*
X125925D01*
X124135Y165310D01*
X121410D01*
X117971Y161871D01*
Y153082D01*
X113744Y148855D01*
Y142508D01*
X112185Y140949D01*
Y140591D01*
G01X118091Y132716D02*
X118111Y132696D01*
X129196D01*
G01X118159Y130816D02*
X130935D01*
G01X114154Y140591D02*
Y140951D01*
X115564Y142361D01*
Y147960D01*
X121396Y153792D01*
Y156095D01*
G01X138900Y131200D02*
Y127913D01*
X137908Y126921D01*
X133595D01*
X131600Y128916D01*
X118227D01*
G01X119665Y129866D02*
X131994D01*
X133989Y127871D01*
X136157D01*
X136898Y128612D01*
G01X133287Y158209D02*
X132188Y157110D01*
X127288D01*
X117761Y147583D01*
G01X140776Y166100D02*
X141219Y165657D01*
Y161098D01*
X140035Y159914D01*
X131388D01*
X129496Y158022D01*
X126913D01*
X116474Y147583D01*
G01X125430Y143510D02*
X124520D01*
G01Y142310D02*
X125180D01*
G01X114654Y147583D02*
Y148477D01*
X118921Y152744D01*
Y158921D01*
X121500Y161500D01*
G01X119088Y131766D02*
X129610D01*
G01X124520Y138255D02*
X125511Y139246D01*
Y139310D01*
G01X126115Y159615D02*
X124916D01*
X123551Y158250D01*
G01D02*
X121396Y156095D01*
G01X121500Y161500D02*
X123600Y163600D01*
G01X126149Y164000D02*
X124000D01*
X123600Y163600D01*
G01X193416Y65931D02*
X197032D01*
X197616Y66515D01*
Y81805D01*
X195661Y83760D01*
X192260D01*
X177313Y98707D01*
X151179D01*
X143514Y106372D01*
Y107213D01*
X143319Y107408D01*
G01X131400Y125400D02*
X132026Y124774D01*
X139718D01*
X140568Y125624D01*
G01X143700Y110300D02*
X143730D01*
X146098Y107932D01*
X148563D01*
X149211Y107284D01*
Y106010D01*
X149811Y105410D01*
X157311D01*
X157811Y105910D01*
Y106844D01*
X157981Y107014D01*
G01X137950Y111703D02*
X138743Y110910D01*
X140811D01*
X141901Y112000D01*
X142988D01*
X142993Y112005D01*
X144407D01*
X144412Y112000D01*
X147462D01*
X148123Y111339D01*
G01X129281Y191215D02*
Y189939D01*
X155411Y163809D01*
Y156511D01*
X150111Y151211D01*
Y134746D01*
X143613Y128248D01*
Y126213D01*
X141224Y123824D01*
X130785D01*
X128897Y125712D01*
G01X145900Y135900D02*
X143210Y133210D01*
X140810D01*
G01X144596Y142961D02*
Y143425D01*
X141121Y146900D01*
X135200D01*
X134600Y146300D01*
Y142298D01*
X134065Y141763D01*
X132741D01*
G01X132739Y145192D02*
Y141765D01*
X132741Y141763D01*
G01X127057Y191215D02*
Y190663D01*
X154311Y163409D01*
Y157110D01*
X148711Y151510D01*
Y135527D01*
X144034Y130850D01*
X143480D01*
G01X133287Y158209D02*
X133878Y158800D01*
X140492D01*
X142659Y160967D01*
X147685D01*
X148425Y160227D01*
G01X138296Y151623D02*
X138236Y151683D01*
X132679D01*
G01X143150Y158703D02*
X140646Y156199D01*
Y153973D01*
X138296Y151623D01*
G01X132679Y151683D02*
Y148204D01*
X132739Y148144D01*
G01X131911Y169510D02*
X129501Y167100D01*
X126372D01*
G01X152100Y58400D02*
Y55776D01*
X152676Y55200D01*
G01X156111Y55700D02*
X156901Y54910D01*
X159635D01*
G01X152676Y50900D02*
X155210D01*
X155300Y50810D01*
G01X159635D02*
X155300D01*
G01X152100Y58400D02*
X156510Y62810D01*
X159635D01*
G01X151700Y64600D02*
X153610Y66510D01*
X159635D01*
G01Y58810D02*
X155051D01*
X154551Y58310D01*
G01X157981Y109145D02*
X156216Y110910D01*
X148552D01*
X148123Y111339D01*
G01X149547Y123381D02*
X153281D01*
X153933Y124033D01*
Y129132D01*
X154873Y130072D01*
X164950D01*
X165771Y129251D01*
Y127831D01*
G01X149547Y123381D02*
Y120546D01*
X148404Y119403D01*
X147450D01*
G01X146411Y114410D02*
X147011Y115010D01*
X151941D01*
X152311Y114640D01*
Y113710D01*
X152611Y113410D01*
X153411D01*
X153711Y113710D01*
Y114540D01*
X154111Y114940D01*
X155011D01*
X155511Y114440D01*
Y113710D01*
X155811Y113410D01*
X156901D01*
X157311Y113820D01*
Y119700D01*
X157721Y120110D01*
X159401D01*
X159811Y119700D01*
Y115322D01*
G01X160800Y144638D02*
Y141822D01*
X161312Y141310D01*
X187410D01*
X189282Y143182D01*
Y148488D01*
G01X152270Y140491D02*
Y151168D01*
X157800Y156698D01*
Y167300D01*
G01X151377Y160227D02*
Y162923D01*
G01X158929Y150440D02*
X161622D01*
X162032Y150030D01*
Y148520D01*
X162442Y148110D01*
X163262D01*
X163672Y148520D01*
Y150030D01*
X164082Y150440D01*
X164902D01*
X165312Y150030D01*
Y148520D01*
X165722Y148110D01*
X166542D01*
X166952Y148520D01*
Y150030D01*
X167362Y150440D01*
X168182D01*
X168592Y150030D01*
Y148520D01*
X169002Y148110D01*
X169822D01*
X170232Y148520D01*
Y150030D01*
X170642Y150440D01*
X173000D01*
G01X160811Y154310D02*
X162834Y152287D01*
X163160D01*
G01X160811Y154310D02*
Y160659D01*
X161465Y161313D01*
G01X165611Y142610D02*
X163211D01*
X162411Y143410D01*
Y145343D01*
X161611Y146143D01*
X158979D01*
X158569Y145733D01*
Y144617D01*
G01X158485Y171986D02*
X158080Y171581D01*
Y171282D01*
X157800Y171002D01*
Y167300D01*
G01X170711Y42410D02*
X172521Y44220D01*
Y47456D01*
X172353Y47624D01*
G01X170916Y44934D02*
Y45064D01*
X170384Y45596D01*
Y47624D01*
G01X169006Y56089D02*
X168390D01*
X163111Y50810D01*
X162587D01*
G01Y54910D02*
X165734Y58057D01*
X169006D01*
G01Y65931D02*
X163166D01*
X162587Y66510D01*
G01X169006Y61994D02*
X163403D01*
X162587Y62810D01*
G01Y58810D02*
X163803Y60026D01*
X169006D01*
G01X180227Y74396D02*
Y75326D01*
X180606Y75705D01*
Y81752D01*
X180195Y82163D01*
X178622D01*
X178211Y81752D01*
Y81110D01*
G01X165611Y142610D02*
X167892D01*
X168302Y143020D01*
Y144500D01*
X168712Y144910D01*
X169532D01*
X169942Y144500D01*
Y143020D01*
X170352Y142610D01*
X171172D01*
X171582Y143020D01*
Y144500D01*
X171992Y144910D01*
X172812D01*
X173222Y144500D01*
Y143020D01*
X173632Y142610D01*
X174452D01*
X174862Y143020D01*
Y144500D01*
X175272Y144910D01*
X176092D01*
X176502Y144500D01*
Y143020D01*
X176912Y142610D01*
X177732D01*
X178142Y143020D01*
Y144500D01*
X178552Y144910D01*
X179372D01*
X179782Y144500D01*
Y143020D01*
X180192Y142610D01*
X183310D01*
X184282Y143582D01*
Y148488D01*
G01X189282Y170928D02*
Y171952D01*
X186635Y174599D01*
X176601D01*
X162295Y160293D01*
Y157391D01*
X163970Y155716D01*
X164000D01*
G01X167002Y153787D02*
X165929D01*
X164000Y155716D01*
G01X179282Y148488D02*
X174952D01*
X173000Y150440D01*
G01X163800Y158016D02*
Y160020D01*
X177469Y173689D01*
X182527D01*
X184282Y171934D01*
Y170928D01*
G01X194282D02*
Y171938D01*
X190711Y175509D01*
X175661D01*
X161465Y161313D01*
G01X163040Y170533D02*
Y167258D01*
G01X193416Y52152D02*
X195716D01*
G01X182195Y47624D02*
Y44794D01*
X180411Y43010D01*
G01X180227Y47624D02*
Y45324D01*
G01X183711Y42760D02*
X183771D01*
X186132Y45121D01*
Y47624D01*
G01X184164D02*
Y45423D01*
X183800Y45059D01*
G01X186531Y78101D02*
X188101Y76531D01*
Y74396D01*
G01X192259Y77596D02*
Y76634D01*
X192217Y76592D01*
Y76416D01*
X192038Y76237D01*
Y74396D01*
G01X190131Y78585D02*
Y78578D01*
X190069Y78516D01*
Y74396D01*
G01X193416Y63963D02*
X196158D01*
G01X191011Y65210D02*
X189764Y63963D01*
X188888D01*
G54D23*
X39400Y42300D03*
G54D14*
X18813Y17200D03*
X25387D03*
G54D41*
X185311Y31010D03*
G54D32*
G01X17124Y34000D02*
Y31176D01*
X17200Y31100D01*
G01X90211Y19910D02*
X90011Y20110D01*
G01D02*
X90111Y20210D01*
G01X90011Y20310D02*
Y22942D01*
X89844Y23109D01*
G01X90111Y20210D02*
X90011Y20310D01*
G01X160711Y70893D02*
X160748Y70930D01*
X164391D01*
G01X169157Y76960D02*
X161344D01*
X160711Y76327D01*
G01X177310Y161726D02*
X173443D01*
G01X179282Y170928D02*
Y163698D01*
X177310Y161726D01*
G01X169221Y161301D02*
Y161600D01*
X173317D01*
X173443Y161726D01*
G01X173000Y153392D02*
X177260D01*
X137950Y111703D03*
X146411Y114410D03*
X178211Y81110D03*
G54D51*
G01X7Y10003D02*
G03X10007Y3I10000J0D01*
G01X190007D01*
G03X200007Y10003I0J10000D01*
G01Y190003D01*
G03X190007Y200003I-10000J0D01*
G01X10007D01*
G03X7Y190003I0J-10000D01*
G01Y10003D01*
G01X20176Y46000D02*
X21767Y44409D01*
X23268D01*
X23521Y44662D01*
X25817D01*
G01Y47812D02*
X23889D01*
X23692Y48009D01*
X21390D01*
X20099Y49300D01*
X19751D01*
G01X9700Y52260D02*
X11040Y53600D01*
X17940D01*
X20634Y50906D01*
X20694D01*
X21791Y49809D01*
X22575D01*
G01X25817Y50961D02*
X23969D01*
X22730Y52200D01*
X21887D01*
X21666Y52421D01*
G01X9700Y57760D02*
X16327D01*
X21666Y52421D01*
G01X9800Y63400D02*
X13900Y59300D01*
X17600D01*
X22200Y54700D01*
X22742D01*
X23141Y54301D01*
G01X30033Y60567D02*
X28550Y62050D01*
X21400D01*
X20600Y62850D01*
Y65600D01*
X16900Y69300D01*
G01X16800Y62600D02*
X18650Y60750D01*
X26053D01*
X27998Y58805D01*
G01X22600Y30800D02*
X22900D01*
X24164Y32064D01*
X25817D01*
G01Y33639D02*
X23039D01*
X22600Y33200D01*
G01X25817Y46237D02*
X22628D01*
X22600Y46209D01*
G01X22575Y49809D02*
X22997Y49387D01*
X25817D01*
G01X30033Y60567D02*
X32313Y58287D01*
Y55883D01*
G01X27998Y58805D02*
X29665D01*
X30739Y57731D01*
Y55883D01*
G01X32846Y60300D02*
Y59754D01*
X33888Y58712D01*
Y55883D01*
G01X24400Y58950D02*
X27467Y55883D01*
X29164D01*
G01X25817Y52536D02*
X24864D01*
X23141Y54259D01*
Y54301D01*
G01X35463Y59584D02*
Y55883D01*
G01X52500Y17900D02*
Y20900D01*
X51125Y22275D01*
X46641D01*
X43916Y25000D01*
X42900D01*
G01D02*
X41762Y26138D01*
Y28717D01*
G01X52983Y46237D02*
X56895D01*
X61958Y51300D01*
X68324D01*
G01X48061Y55883D02*
Y58361D01*
X49200Y59500D01*
X58824D01*
G01X49636Y55883D02*
X51533D01*
X52300Y56650D01*
G01X79037Y11610D02*
X72750D01*
X72400Y11960D01*
G01X75311Y16908D02*
X73511D01*
G01X68324Y55200D02*
Y51300D01*
G01X71276Y55200D02*
X74600Y58524D01*
Y59000D01*
G01X58900Y56800D02*
X60000D01*
X61776Y58576D01*
Y59500D01*
G01X58824D02*
Y63500D01*
X58800Y63524D01*
G01X94468Y101220D02*
X92971Y99723D01*
X92029D01*
X90532Y101220D01*
G01X108219Y115040D02*
X108179Y115000D01*
X106280D01*
G01X114277Y136731D02*
Y136777D01*
X116122Y138622D01*
G01X188153Y79846D02*
X187943Y80056D01*
X187611D01*
X186811Y80856D01*
Y83710D01*
X186611Y83910D01*
G54D33*
X138296Y142961D03*
X144596D03*
X138296Y151623D03*
X144596D03*
G54D42*
X188888Y53333D03*
G54D15*
X14100Y31800D03*
X22475Y40878D03*
X17200Y31100D03*
X22600Y30800D03*
Y33200D03*
Y46209D03*
X22575Y49809D03*
X20505Y42705D03*
X13200Y45400D03*
X15500Y49300D03*
X18000Y43500D03*
X21666Y52421D03*
X23141Y54301D03*
X8500Y79800D03*
X6211Y81490D03*
X28600Y13600D03*
X28700Y17000D03*
X28800Y20000D03*
X33300Y25600D03*
X31100Y25500D03*
X27998Y58805D03*
X30033Y60567D03*
X24400Y58950D03*
X32846Y60300D03*
X40800Y59200D03*
X35463Y59584D03*
X58005Y23295D03*
X57800Y13400D03*
X44800Y16700D03*
X44600Y20000D03*
X47000D03*
Y16700D03*
X56000Y40800D03*
X56100Y38600D03*
X42900Y25000D03*
X52300Y56650D03*
X43000Y59100D03*
X65800Y20100D03*
X62000Y13500D03*
X72850Y24350D03*
X72400Y34000D03*
X70500Y30395D03*
X72500Y38100D03*
X68500Y33800D03*
X58900Y56800D03*
X72000Y48100D03*
X71800Y44100D03*
X74800Y48100D03*
Y44200D03*
X74000Y63700D03*
X74600Y59000D03*
X75850Y22750D03*
X79100Y22800D03*
X90211Y17510D03*
Y19910D03*
X87911D03*
Y17510D03*
X77800Y30395D03*
X80400Y32000D03*
X76100Y34336D03*
X89811Y38910D03*
Y41310D03*
X87511D03*
Y38910D03*
X80500Y58700D03*
X99217Y19837D03*
Y17337D03*
X94217Y19837D03*
X96717D03*
Y17337D03*
X94217D03*
X108065D03*
X105565D03*
X103065D03*
X108065Y19837D03*
X105565D03*
X103065D03*
X99891Y38963D03*
Y41463D03*
X94891Y38963D03*
Y41463D03*
X105589Y38963D03*
Y41463D03*
X99211Y28510D03*
X113065Y17337D03*
X110565D03*
X113065Y19837D03*
X110565D03*
X110589Y38963D03*
Y41463D03*
X113089Y38963D03*
Y41463D03*
X114600Y177600D03*
X137824Y168400D03*
X153800Y41100D03*
X156158Y38700D03*
X153860Y38800D03*
X152100Y58400D03*
X156111Y55700D03*
X155300Y50810D03*
X154551Y58310D03*
X151700Y64600D03*
X151800Y71500D03*
X156811Y70210D03*
X154811Y75950D03*
X152448Y76484D03*
X160211Y81850D03*
X156511Y80210D03*
X162245Y80776D03*
X156111Y108410D03*
X152328Y125483D03*
X151377Y162923D03*
X178652Y53333D03*
Y58451D03*
X173534Y53333D03*
X163497Y47624D03*
X170711Y42410D03*
X170916Y44934D03*
X166118Y74396D03*
X166706Y71837D03*
Y67900D03*
X173534Y68687D03*
X178652D03*
Y63569D03*
X171804Y77103D03*
X179001Y77148D03*
X174321Y77040D03*
X176517Y76907D03*
X169192Y81850D03*
X169157Y76960D03*
X177310Y161726D03*
X177260Y153392D03*
X183770Y53333D03*
X188888D03*
X183770Y58451D03*
X195716Y52152D03*
X180411Y43010D03*
X180227Y45324D03*
X183711Y42760D03*
X183800Y45059D03*
X184611Y67910D03*
X195716Y67900D03*
X196011Y72810D03*
Y75010D03*
X188911Y67910D03*
X183770Y63569D03*
X195961Y59210D03*
X196158Y63963D03*
X191011Y65210D03*
X195811Y70510D03*
X194502Y80600D03*
X182211Y76696D03*
X186531Y78101D03*
X192259Y77596D03*
X190131Y78585D03*
X182411Y79610D03*
X188153Y79846D03*
G54D24*
X38000Y167300D03*
X99700Y34500D03*
X166000Y192000D03*
G54D52*
G01X68324Y59200D02*
X68288D01*
X56900Y47812D01*
X52983D01*
G01Y49387D02*
X57173D01*
X66600Y58814D01*
Y61476D01*
X68424Y63300D01*
G01Y67460D02*
Y66206D01*
X65500Y63282D01*
Y59016D01*
X57445Y50961D01*
X52983D01*
G01X68424Y70960D02*
X66814Y69350D01*
Y65898D01*
X64580Y63664D01*
Y59398D01*
X57718Y52536D01*
X52983D01*
G54D43*
X186782Y159708D03*
G54D25*
X57800Y19076D03*
Y16124D03*
X49900Y106876D03*
Y103924D03*
X62000Y19076D03*
Y16124D03*
X58800Y63524D03*
Y66476D03*
X132739Y145192D03*
Y148144D03*
X173443Y158774D03*
Y161726D03*
X173000Y150440D03*
Y153392D03*
X190011Y37586D03*
Y34634D03*
G54D34*
X160711Y76327D03*
Y70893D03*
G54D16*
X14100Y41151D03*
Y39049D03*
Y33749D03*
Y35851D03*
X19751Y49300D03*
X17649D03*
X55800Y22049D03*
Y24151D03*
X75311Y19010D03*
Y16908D03*
X69351Y22100D03*
X67249D03*
X64400Y21949D03*
Y24051D03*
X60400Y22049D03*
Y24151D03*
X66096Y186292D03*
Y184190D03*
X61796Y186292D03*
Y184190D03*
X74596Y186292D03*
Y184190D03*
X70300Y186292D03*
Y184190D03*
X91471Y186292D03*
Y184190D03*
X87170Y186292D03*
Y184190D03*
X82929Y186292D03*
Y184190D03*
X78772Y186292D03*
Y184190D03*
X126115Y159615D03*
X126149Y164000D03*
X132741Y139661D03*
Y141763D03*
X128217Y159615D03*
X132679Y153785D03*
Y151683D03*
X128251Y164000D03*
X148123Y109237D03*
X149547Y123381D03*
Y125483D03*
X148123Y111339D03*
X158485Y171986D03*
Y174088D03*
X169221Y159199D03*
Y161301D03*
X168994Y176637D03*
Y174535D03*
G54D53*
G01X13320Y123957D02*
Y124421D01*
X14218Y125319D01*
X14682D01*
G01X16470Y121398D02*
X18100Y119768D01*
Y118746D01*
X19147Y117699D01*
X21220D01*
X25100Y121579D01*
Y128200D01*
X27100Y130200D01*
G01X18030Y122247D02*
X16470Y123807D01*
Y123957D01*
G01X10171Y136752D02*
X11465Y138046D01*
Y138096D01*
G01X11567Y140717D02*
Y140707D01*
X10171Y139311D01*
G01X17830Y140671D02*
X17370D01*
X16470Y139771D01*
Y139311D01*
G01X14843Y133157D02*
X13320Y131634D01*
G01X14895Y135472D02*
Y135196D01*
X13892Y134193D01*
X13320D01*
G01Y136752D02*
X14599Y138031D01*
X14895D01*
G01X10171Y129075D02*
X11665Y130569D01*
X11900D01*
G01X18000Y138200D02*
X17886Y138086D01*
X17804D01*
X16470Y136752D01*
G01X11600Y132900D02*
X11437D01*
X10171Y131634D01*
G01X16470D02*
X17746Y132910D01*
X18044D01*
G01X18204Y130230D02*
X17049Y129075D01*
X16470D01*
G01X45410Y104800D02*
X39833D01*
X38517Y103484D01*
G01X61800Y121900D02*
X62800D01*
G01X40000Y125400D02*
X39633D01*
X38517Y126516D01*
G01X29068Y121398D02*
X27670Y120000D01*
X27400D01*
G01X30700Y119900D02*
Y119931D01*
X31030Y120261D01*
X31081D01*
X32218Y121398D01*
G01X30700Y124900D02*
X31275D01*
X32218Y123957D01*
G01X35368D02*
X36648Y122677D01*
X36942D01*
G01X44546Y133053D02*
X39936D01*
X38517Y131634D01*
G01X33806Y132508D02*
X34680Y131634D01*
X35368D01*
G01X33828Y135577D02*
X33984D01*
X35368Y134193D01*
G01X32218Y139311D02*
X31078Y140451D01*
Y142344D01*
X33234Y144500D01*
G01X41842Y127707D02*
X44541D01*
G01X63483Y123543D02*
X66184D01*
G01X42229Y130346D02*
X42252Y130369D01*
X44270D01*
G01X80689Y140591D02*
X80325Y140955D01*
Y143505D01*
X78630Y145200D01*
X78400D01*
X76700Y146900D01*
Y147200D01*
G01X76580Y142135D02*
Y144840D01*
X74775Y146645D01*
G01X76752Y140591D02*
X75810Y141533D01*
Y144605D01*
X73825Y146590D01*
G01X72815Y122874D02*
X72335D01*
X72004Y122543D01*
Y121596D01*
X72700Y120900D01*
G01X72815Y116968D02*
X72807Y116976D01*
Y118566D01*
X72573Y118800D01*
G01X72815Y124842D02*
Y126124D01*
X73191Y126500D01*
G01X72815Y130748D02*
Y130054D01*
G01X61700Y137107D02*
X61994Y136813D01*
X62594D01*
X64722Y134685D01*
X66909D01*
G01X72815Y140591D02*
Y140981D01*
G01X71994Y144683D02*
Y145605D01*
X70526Y147073D01*
G01X71816Y142355D02*
Y141656D01*
G01X71845Y140195D02*
Y140167D01*
X72815Y139197D01*
Y138622D01*
G01X68878Y134685D02*
X67908Y135655D01*
G01X72815Y132716D02*
Y134449D01*
X72948Y134582D01*
G01X74784Y140591D02*
X75100Y140907D01*
Y144316D01*
G01X75189Y126600D02*
X76015Y125774D01*
Y125579D01*
X76752Y124842D01*
G01Y122874D02*
X74978Y121100D01*
X74800D01*
G01X74752Y130248D02*
Y130716D01*
X74784Y130748D01*
G01Y134685D02*
Y133024D01*
X74664Y132904D01*
G01X96219Y99382D02*
X96260Y99423D01*
G54D44*
G01X190011Y34634D02*
Y31034D01*
X190035Y31010D01*
G01Y41110D02*
Y37610D01*
X190011Y37586D01*
G01X190035Y31010D02*
X185311D01*
G01X190035Y41110D02*
Y44334D01*
X190069Y44368D01*
Y47624D01*
G54D17*
X17124Y40300D03*
X20076D03*
Y34000D03*
X17124D03*
X17224Y46000D03*
X20176D03*
X65476Y32200D03*
X62524D03*
X71276Y55200D03*
X68324D03*
Y51300D03*
X71276D03*
X68324Y59200D03*
X71276D03*
X61776Y59500D03*
X58824D03*
X68424Y67460D03*
X71376D03*
X68424Y63300D03*
X71376D03*
X68424Y70960D03*
X71376D03*
X81989Y11610D03*
X79037D03*
X81989Y19810D03*
X79037D03*
X115407Y33412D03*
X118359D03*
X140776Y166100D03*
X137824D03*
X149724Y50900D03*
X152676D03*
X149724Y55200D03*
X152676D03*
X159635Y54910D03*
X162587D03*
X159635Y50810D03*
X162587D03*
X159635Y58810D03*
X162587D03*
X159635Y62810D03*
X162587D03*
Y66510D03*
X159635D03*
X148425Y160227D03*
X151377D03*
X192987Y41110D03*
X190035D03*
X192987Y31010D03*
X190035D03*
G54D35*
X163040Y170533D03*
Y176635D03*
G54D26*
X59577Y83051D03*
Y148897D03*
X125423Y83051D03*
Y148897D03*
G54D54*
G01X-96602Y-154935D02*
X-96135Y-155268D01*
X-95610Y-155468D01*
X-95144D01*
X-94677Y-155268D01*
X-94327Y-154935D01*
X-94152Y-154468D01*
X-94269Y-154001D01*
X-94560Y-153601D01*
X-95085Y-153335D01*
X-95785Y-153201D01*
X-96194Y-152935D01*
X-96369Y-152468D01*
X-96252Y-152001D01*
X-95960Y-151668D01*
X-95552Y-151468D01*
X-95144D01*
X-94735Y-151601D01*
X-94385Y-151935D01*
G01X-91802Y-155468D02*
Y-151468D01*
G01X-89352D02*
Y-155468D01*
G01Y-153468D02*
X-91802D01*
G01X-84610Y-155468D02*
X-86944D01*
Y-151468D01*
X-84610D01*
G01X-85544Y-153401D02*
X-86944D01*
G01X-79810Y-155468D02*
X-82144D01*
Y-151468D01*
X-79810D01*
G01X-80744Y-153401D02*
X-82144D01*
G01X-76177Y-151468D02*
Y-155468D01*
G01X-77519Y-151468D02*
X-74835D01*
G01X-95277Y-163968D02*
Y-157668D01*
X-96217Y-158928D01*
G01Y-163968D02*
X-94337D01*
G01X-82677D02*
X-83304Y-163863D01*
X-83852Y-163443D01*
X-84322Y-162813D01*
X-84635Y-162078D01*
X-84792Y-161238D01*
Y-160398D01*
X-84635Y-159558D01*
X-84322Y-158823D01*
X-83852Y-158193D01*
X-83304Y-157773D01*
X-82677Y-157668D01*
X-82050Y-157773D01*
X-81502Y-158193D01*
X-81032Y-158823D01*
X-80719Y-159558D01*
X-80562Y-160398D01*
Y-161238D01*
X-80719Y-162078D01*
X-81032Y-162813D01*
X-81502Y-163443D01*
X-82050Y-163863D01*
X-82677Y-163968D01*
G01X-77865D02*
Y-157668D01*
X-74889D01*
G01X-75985Y-160713D02*
X-77865D01*
G01X-63777Y-163968D02*
Y-157668D01*
X-64717Y-158928D01*
G01Y-163968D02*
X-62837D01*
G01X-58965Y-158718D02*
X-58495Y-158088D01*
X-57947Y-157773D01*
X-57320Y-157668D01*
X-56537Y-157878D01*
X-55989Y-158403D01*
X-55832Y-159033D01*
X-55910Y-159663D01*
X-56224Y-160188D01*
X-57790Y-161238D01*
X-58495Y-161973D01*
X-58965Y-163023D01*
X-59122Y-163968D01*
X-55832D01*
G01X-88377Y-136468D02*
X-88844Y-136401D01*
X-89252Y-136135D01*
X-89602Y-135735D01*
X-89835Y-135268D01*
X-89952Y-134735D01*
Y-134201D01*
X-89835Y-133668D01*
X-89602Y-133201D01*
X-89252Y-132801D01*
X-88844Y-132535D01*
X-88377Y-132468D01*
X-87910Y-132535D01*
X-87502Y-132801D01*
X-87152Y-133201D01*
X-86919Y-133668D01*
X-86802Y-134201D01*
Y-134735D01*
X-86919Y-135268D01*
X-87152Y-135735D01*
X-87502Y-136135D01*
X-87910Y-136401D01*
X-88377Y-136468D01*
G01X-84744D02*
Y-132468D01*
X-83285D01*
X-82819Y-132668D01*
X-82527Y-132935D01*
X-82410Y-133468D01*
X-82527Y-134001D01*
X-82877Y-134335D01*
X-83285Y-134535D01*
X-84744D01*
G01X-83285D02*
X-82410Y-136468D01*
G01X-74677Y-132468D02*
X-73277D01*
G01X-73977D02*
Y-136468D01*
G01X-74677D02*
X-73277D01*
G01X-70519D02*
Y-132468D01*
X-67835Y-136468D01*
Y-132468D01*
G01X-60744Y-136468D02*
Y-132468D01*
X-59344D01*
X-58877Y-132668D01*
X-58527Y-133135D01*
X-58410Y-133668D01*
X-58527Y-134201D01*
X-58819Y-134601D01*
X-59344Y-134801D01*
X-60744D01*
G01X-56235Y-136468D02*
X-54777Y-132468D01*
X-53319Y-136468D01*
G01X-53844Y-135068D02*
X-55710D01*
G01X-51144Y-136468D02*
Y-132468D01*
X-49685D01*
X-49219Y-132668D01*
X-48927Y-132935D01*
X-48810Y-133468D01*
X-48927Y-134001D01*
X-49277Y-134335D01*
X-49685Y-134535D01*
X-51144D01*
G01X-49685D02*
X-48810Y-136468D01*
G01X-45177Y-132468D02*
Y-136468D01*
G01X-46519Y-132468D02*
X-43835D01*
G01X-37327D02*
X-36510Y-136468D01*
X-35577Y-132468D01*
X-34644Y-136468D01*
X-33827Y-132468D01*
G01X-31477D02*
X-30077D01*
G01X-30777D02*
Y-136468D01*
G01X-31477D02*
X-30077D01*
G01X-25977Y-132468D02*
Y-136468D01*
G01X-27319Y-132468D02*
X-24635D01*
G01X-22402Y-136468D02*
Y-132468D01*
G01X-19952D02*
Y-136468D01*
G01Y-134468D02*
X-22402D01*
G01X-16377Y-136468D02*
X-16844Y-136401D01*
X-17252Y-136135D01*
X-17602Y-135735D01*
X-17835Y-135268D01*
X-17952Y-134735D01*
Y-134201D01*
X-17835Y-133668D01*
X-17602Y-133201D01*
X-17252Y-132801D01*
X-16844Y-132535D01*
X-16377Y-132468D01*
X-15910Y-132535D01*
X-15502Y-132801D01*
X-15152Y-133201D01*
X-14919Y-133668D01*
X-14802Y-134201D01*
Y-134735D01*
X-14919Y-135268D01*
X-15152Y-135735D01*
X-15502Y-136135D01*
X-15910Y-136401D01*
X-16377Y-136468D01*
G01X-12860Y-132468D02*
Y-135335D01*
X-12627Y-135935D01*
X-12160Y-136335D01*
X-11577Y-136468D01*
X-10994Y-136335D01*
X-10527Y-135935D01*
X-10294Y-135335D01*
Y-132468D01*
G01X-6777D02*
Y-136468D01*
G01X-8119Y-132468D02*
X-5435D01*
G01X2823D02*
Y-136468D01*
G01X1481Y-132468D02*
X4165D01*
G01X6398Y-136468D02*
Y-132468D01*
G01X8848D02*
Y-136468D01*
G01Y-134468D02*
X6398D01*
G01X13590Y-136468D02*
X11256D01*
Y-132468D01*
X13590D01*
G01X12656Y-134401D02*
X11256D01*
G01X23306Y-132801D02*
X22956Y-132601D01*
X22548Y-132468D01*
X22081D01*
X21556Y-132668D01*
X21148Y-133001D01*
X20856Y-133401D01*
X20623Y-134068D01*
X20565Y-134668D01*
X20681Y-135268D01*
X20856Y-135668D01*
X21206Y-136068D01*
X21615Y-136335D01*
X22023Y-136468D01*
X22431D01*
X22840Y-136335D01*
X23190Y-136135D01*
X23481Y-135868D01*
G01X26823Y-136468D02*
X26356Y-136401D01*
X25948Y-136135D01*
X25598Y-135735D01*
X25365Y-135268D01*
X25248Y-134735D01*
Y-134201D01*
X25365Y-133668D01*
X25598Y-133201D01*
X25948Y-132801D01*
X26356Y-132535D01*
X26823Y-132468D01*
X27290Y-132535D01*
X27698Y-132801D01*
X28048Y-133201D01*
X28281Y-133668D01*
X28398Y-134201D01*
Y-134735D01*
X28281Y-135268D01*
X28048Y-135735D01*
X27698Y-136135D01*
X27290Y-136401D01*
X26823Y-136468D01*
G01X30281D02*
Y-132468D01*
X32965Y-136468D01*
Y-132468D01*
G01X35198Y-135935D02*
X35665Y-136268D01*
X36190Y-136468D01*
X36656D01*
X37123Y-136268D01*
X37473Y-135935D01*
X37648Y-135468D01*
X37531Y-135001D01*
X37240Y-134601D01*
X36715Y-134335D01*
X36015Y-134201D01*
X35606Y-133935D01*
X35431Y-133468D01*
X35548Y-133001D01*
X35840Y-132668D01*
X36248Y-132468D01*
X36656D01*
X37065Y-132601D01*
X37415Y-132935D01*
G01X42390Y-136468D02*
X40056D01*
Y-132468D01*
X42390D01*
G01X41456Y-134401D02*
X40056D01*
G01X44681Y-136468D02*
Y-132468D01*
X47365Y-136468D01*
Y-132468D01*
G01X50823D02*
Y-136468D01*
G01X49481Y-132468D02*
X52165D01*
G01X60423Y-136468D02*
X59956Y-136401D01*
X59548Y-136135D01*
X59198Y-135735D01*
X58965Y-135268D01*
X58848Y-134735D01*
Y-134201D01*
X58965Y-133668D01*
X59198Y-133201D01*
X59548Y-132801D01*
X59956Y-132535D01*
X60423Y-132468D01*
X60890Y-132535D01*
X61298Y-132801D01*
X61648Y-133201D01*
X61881Y-133668D01*
X61998Y-134201D01*
Y-134735D01*
X61881Y-135268D01*
X61648Y-135735D01*
X61298Y-136135D01*
X60890Y-136401D01*
X60423Y-136468D01*
G01X64115D02*
Y-132468D01*
X66331D01*
G01X65515Y-134401D02*
X64115D01*
G01X-88719Y-144468D02*
Y-140468D01*
X-86035Y-144468D01*
Y-140468D01*
G01X-83802Y-144468D02*
X-81352Y-140468D01*
G01X-83802D02*
X-81352Y-144468D01*
G01X-78944D02*
Y-140468D01*
X-77544D01*
X-77077Y-140668D01*
X-76727Y-141135D01*
X-76610Y-141668D01*
X-76727Y-142201D01*
X-77019Y-142601D01*
X-77544Y-142801D01*
X-78944D01*
G01X-72977Y-144601D02*
X-73094Y-144535D01*
Y-144401D01*
X-72977Y-144335D01*
X-72860Y-144401D01*
Y-144535D01*
X-72977Y-144601D01*
G01X-87910Y-118335D02*
X-87677Y-118135D01*
X-87502Y-117801D01*
X-87385Y-117335D01*
X-87502Y-116935D01*
X-87735Y-116668D01*
X-88144Y-116468D01*
X-89719D01*
Y-120468D01*
X-87794D01*
X-87385Y-120201D01*
X-87152Y-119801D01*
X-87035Y-119335D01*
X-87152Y-118868D01*
X-87502Y-118468D01*
X-87910Y-118335D01*
X-89719D01*
G01X-82410Y-120468D02*
X-84744D01*
Y-116468D01*
X-82410D01*
G01X-83344Y-118401D02*
X-84744D01*
G01X-75260Y-116468D02*
Y-119335D01*
X-75027Y-119935D01*
X-74560Y-120335D01*
X-73977Y-120468D01*
X-73394Y-120335D01*
X-72927Y-119935D01*
X-72694Y-119335D01*
Y-116468D01*
G01X-70402Y-119935D02*
X-69935Y-120268D01*
X-69410Y-120468D01*
X-68944D01*
X-68477Y-120268D01*
X-68127Y-119935D01*
X-67952Y-119468D01*
X-68069Y-119001D01*
X-68360Y-118601D01*
X-68885Y-118335D01*
X-69585Y-118201D01*
X-69994Y-117935D01*
X-70169Y-117468D01*
X-70052Y-117001D01*
X-69760Y-116668D01*
X-69352Y-116468D01*
X-68944D01*
X-68535Y-116601D01*
X-68185Y-116935D01*
G01X-63210Y-120468D02*
X-65544D01*
Y-116468D01*
X-63210D01*
G01X-64144Y-118401D02*
X-65544D01*
G01X-60860Y-120468D02*
Y-116468D01*
X-59694D01*
X-59227Y-116668D01*
X-58877Y-116935D01*
X-58585Y-117335D01*
X-58352Y-117801D01*
X-58294Y-118468D01*
X-58352Y-119135D01*
X-58585Y-119601D01*
X-58877Y-120001D01*
X-59227Y-120268D01*
X-59694Y-120468D01*
X-60860D01*
G01X-51085D02*
Y-116468D01*
X-48869D01*
G01X-49685Y-118401D02*
X-51085D01*
G01X-45177Y-120468D02*
X-45644Y-120401D01*
X-46052Y-120135D01*
X-46402Y-119735D01*
X-46635Y-119268D01*
X-46752Y-118735D01*
Y-118201D01*
X-46635Y-117668D01*
X-46402Y-117201D01*
X-46052Y-116801D01*
X-45644Y-116535D01*
X-45177Y-116468D01*
X-44710Y-116535D01*
X-44302Y-116801D01*
X-43952Y-117201D01*
X-43719Y-117668D01*
X-43602Y-118201D01*
Y-118735D01*
X-43719Y-119268D01*
X-43952Y-119735D01*
X-44302Y-120135D01*
X-44710Y-120401D01*
X-45177Y-120468D01*
G01X-41544D02*
Y-116468D01*
X-40085D01*
X-39619Y-116668D01*
X-39327Y-116935D01*
X-39210Y-117468D01*
X-39327Y-118001D01*
X-39677Y-118335D01*
X-40085Y-118535D01*
X-41544D01*
G01X-40085D02*
X-39210Y-120468D01*
G01X-29610D02*
X-31944D01*
Y-116468D01*
X-29610D01*
G01X-30544Y-118401D02*
X-31944D01*
G01X-27319Y-120468D02*
Y-116468D01*
X-24635Y-120468D01*
Y-116468D01*
G01X-20827Y-118468D02*
X-19660D01*
Y-119668D01*
X-20010Y-120068D01*
X-20419Y-120335D01*
X-21002Y-120468D01*
X-21585Y-120335D01*
X-21994Y-120068D01*
X-22344Y-119668D01*
X-22577Y-119201D01*
X-22694Y-118668D01*
Y-118201D01*
X-22577Y-117801D01*
X-22344Y-117335D01*
X-21994Y-116935D01*
X-21644Y-116668D01*
X-21177Y-116468D01*
X-20769D01*
X-20302Y-116601D01*
X-19952Y-116868D01*
G01X-17077Y-116468D02*
X-15677D01*
G01X-16377D02*
Y-120468D01*
G01X-17077D02*
X-15677D01*
G01X-12919D02*
Y-116468D01*
X-10235Y-120468D01*
Y-116468D01*
G01X-5610Y-120468D02*
X-7944D01*
Y-116468D01*
X-5610D01*
G01X-6544Y-118401D02*
X-7944D01*
G01X-810Y-120468D02*
X-3144D01*
Y-116468D01*
X-810D01*
G01X-1744Y-118401D02*
X-3144D01*
G01X1656Y-120468D02*
Y-116468D01*
X3115D01*
X3581Y-116668D01*
X3873Y-116935D01*
X3990Y-117468D01*
X3873Y-118001D01*
X3523Y-118335D01*
X3115Y-118535D01*
X1656D01*
G01X3115D02*
X3990Y-120468D01*
G01X6923Y-116468D02*
X8323D01*
G01X7623D02*
Y-120468D01*
G01X6923D02*
X8323D01*
G01X11081D02*
Y-116468D01*
X13765Y-120468D01*
Y-116468D01*
G01X17573Y-118468D02*
X18740D01*
Y-119668D01*
X18390Y-120068D01*
X17981Y-120335D01*
X17398Y-120468D01*
X16815Y-120335D01*
X16406Y-120068D01*
X16056Y-119668D01*
X15823Y-119201D01*
X15706Y-118668D01*
Y-118201D01*
X15823Y-117801D01*
X16056Y-117335D01*
X16406Y-116935D01*
X16756Y-116668D01*
X17223Y-116468D01*
X17631D01*
X18098Y-116601D01*
X18448Y-116868D01*
G01X25540Y-120468D02*
Y-116468D01*
X26706D01*
X27173Y-116668D01*
X27523Y-116935D01*
X27815Y-117335D01*
X28048Y-117801D01*
X28106Y-118468D01*
X28048Y-119135D01*
X27815Y-119601D01*
X27523Y-120001D01*
X27173Y-120268D01*
X26706Y-120468D01*
X25540D01*
G01X32790D02*
X30456D01*
Y-116468D01*
X32790D01*
G01X31856Y-118401D02*
X30456D01*
G01X35198Y-119935D02*
X35665Y-120268D01*
X36190Y-120468D01*
X36656D01*
X37123Y-120268D01*
X37473Y-119935D01*
X37648Y-119468D01*
X37531Y-119001D01*
X37240Y-118601D01*
X36715Y-118335D01*
X36015Y-118201D01*
X35606Y-117935D01*
X35431Y-117468D01*
X35548Y-117001D01*
X35840Y-116668D01*
X36248Y-116468D01*
X36656D01*
X37065Y-116601D01*
X37415Y-116935D01*
G01X40523Y-116468D02*
X41923D01*
G01X41223D02*
Y-120468D01*
G01X40523D02*
X41923D01*
G01X46373Y-118468D02*
X47540D01*
Y-119668D01*
X47190Y-120068D01*
X46781Y-120335D01*
X46198Y-120468D01*
X45615Y-120335D01*
X45206Y-120068D01*
X44856Y-119668D01*
X44623Y-119201D01*
X44506Y-118668D01*
Y-118201D01*
X44623Y-117801D01*
X44856Y-117335D01*
X45206Y-116935D01*
X45556Y-116668D01*
X46023Y-116468D01*
X46431D01*
X46898Y-116601D01*
X47248Y-116868D01*
G01X49481Y-120468D02*
Y-116468D01*
X52165Y-120468D01*
Y-116468D01*
G01X-89544Y-128468D02*
Y-124468D01*
X-88144D01*
X-87677Y-124668D01*
X-87327Y-125135D01*
X-87210Y-125668D01*
X-87327Y-126201D01*
X-87619Y-126601D01*
X-88144Y-126801D01*
X-89544D01*
G01X-84744Y-128468D02*
Y-124468D01*
X-83285D01*
X-82819Y-124668D01*
X-82527Y-124935D01*
X-82410Y-125468D01*
X-82527Y-126001D01*
X-82877Y-126335D01*
X-83285Y-126535D01*
X-84744D01*
G01X-83285D02*
X-82410Y-128468D01*
G01X-78777D02*
X-79244Y-128401D01*
X-79652Y-128135D01*
X-80002Y-127735D01*
X-80235Y-127268D01*
X-80352Y-126735D01*
Y-126201D01*
X-80235Y-125668D01*
X-80002Y-125201D01*
X-79652Y-124801D01*
X-79244Y-124535D01*
X-78777Y-124468D01*
X-78310Y-124535D01*
X-77902Y-124801D01*
X-77552Y-125201D01*
X-77319Y-125668D01*
X-77202Y-126201D01*
Y-126735D01*
X-77319Y-127268D01*
X-77552Y-127735D01*
X-77902Y-128135D01*
X-78310Y-128401D01*
X-78777Y-128468D01*
G01X-72694Y-124801D02*
X-73044Y-124601D01*
X-73452Y-124468D01*
X-73919D01*
X-74444Y-124668D01*
X-74852Y-125001D01*
X-75144Y-125401D01*
X-75377Y-126068D01*
X-75435Y-126668D01*
X-75319Y-127268D01*
X-75144Y-127668D01*
X-74794Y-128068D01*
X-74385Y-128335D01*
X-73977Y-128468D01*
X-73569D01*
X-73160Y-128335D01*
X-72810Y-128135D01*
X-72519Y-127868D01*
G01X-70460Y-124468D02*
Y-127335D01*
X-70227Y-127935D01*
X-69760Y-128335D01*
X-69177Y-128468D01*
X-68594Y-128335D01*
X-68127Y-127935D01*
X-67894Y-127335D01*
Y-124468D01*
G01X-65544Y-128468D02*
Y-124468D01*
X-64085D01*
X-63619Y-124668D01*
X-63327Y-124935D01*
X-63210Y-125468D01*
X-63327Y-126001D01*
X-63677Y-126335D01*
X-64085Y-126535D01*
X-65544D01*
G01X-64085D02*
X-63210Y-128468D01*
G01X-58410D02*
X-60744D01*
Y-124468D01*
X-58410D01*
G01X-59344Y-126401D02*
X-60744D01*
G01X-56294Y-128468D02*
Y-124468D01*
X-54777Y-127801D01*
X-53260Y-124468D01*
Y-128468D01*
G01X-48810D02*
X-51144D01*
Y-124468D01*
X-48810D01*
G01X-49744Y-126401D02*
X-51144D01*
G01X-46519Y-128468D02*
Y-124468D01*
X-43835Y-128468D01*
Y-124468D01*
G01X-40377D02*
Y-128468D01*
G01X-41719Y-124468D02*
X-39035D01*
G01X-30777Y-128468D02*
X-31244Y-128401D01*
X-31652Y-128135D01*
X-32002Y-127735D01*
X-32235Y-127268D01*
X-32352Y-126735D01*
Y-126201D01*
X-32235Y-125668D01*
X-32002Y-125201D01*
X-31652Y-124801D01*
X-31244Y-124535D01*
X-30777Y-124468D01*
X-30310Y-124535D01*
X-29902Y-124801D01*
X-29552Y-125201D01*
X-29319Y-125668D01*
X-29202Y-126201D01*
Y-126735D01*
X-29319Y-127268D01*
X-29552Y-127735D01*
X-29902Y-128135D01*
X-30310Y-128401D01*
X-30777Y-128468D01*
G01X-27144D02*
Y-124468D01*
X-25685D01*
X-25219Y-124668D01*
X-24927Y-124935D01*
X-24810Y-125468D01*
X-24927Y-126001D01*
X-25277Y-126335D01*
X-25685Y-126535D01*
X-27144D01*
G01X-25685D02*
X-24810Y-128468D01*
G01X-17894D02*
Y-124468D01*
X-16377Y-127801D01*
X-14860Y-124468D01*
Y-128468D01*
G01X-13035D02*
X-11577Y-124468D01*
X-10119Y-128468D01*
G01X-10644Y-127068D02*
X-12510D01*
G01X-8119Y-128468D02*
Y-124468D01*
X-5435Y-128468D01*
Y-124468D01*
G01X-3260D02*
Y-127335D01*
X-3027Y-127935D01*
X-2560Y-128335D01*
X-1977Y-128468D01*
X-1394Y-128335D01*
X-927Y-127935D01*
X-694Y-127335D01*
Y-124468D01*
G01X1715Y-128468D02*
Y-124468D01*
X3931D01*
G01X3115Y-126401D02*
X1715D01*
G01X6165Y-128468D02*
X7623Y-124468D01*
X9081Y-128468D01*
G01X8556Y-127068D02*
X6690D01*
G01X13706Y-124801D02*
X13356Y-124601D01*
X12948Y-124468D01*
X12481D01*
X11956Y-124668D01*
X11548Y-125001D01*
X11256Y-125401D01*
X11023Y-126068D01*
X10965Y-126668D01*
X11081Y-127268D01*
X11256Y-127668D01*
X11606Y-128068D01*
X12015Y-128335D01*
X12423Y-128468D01*
X12831D01*
X13240Y-128335D01*
X13590Y-128135D01*
X13881Y-127868D01*
G01X17223Y-124468D02*
Y-128468D01*
G01X15881Y-124468D02*
X18565D01*
G01X20740D02*
Y-127335D01*
X20973Y-127935D01*
X21440Y-128335D01*
X22023Y-128468D01*
X22606Y-128335D01*
X23073Y-127935D01*
X23306Y-127335D01*
Y-124468D01*
G01X25656Y-128468D02*
Y-124468D01*
X27115D01*
X27581Y-124668D01*
X27873Y-124935D01*
X27990Y-125468D01*
X27873Y-126001D01*
X27523Y-126335D01*
X27115Y-126535D01*
X25656D01*
G01X27115D02*
X27990Y-128468D01*
G01X32790D02*
X30456D01*
Y-124468D01*
X32790D01*
G01X31856Y-126401D02*
X30456D01*
G01X40523Y-124468D02*
X41923D01*
G01X41223D02*
Y-128468D01*
G01X40523D02*
X41923D01*
G01X44681D02*
Y-124468D01*
X47365Y-128468D01*
Y-124468D01*
G01X53873D02*
X54690Y-128468D01*
X55623Y-124468D01*
X56556Y-128468D01*
X57373Y-124468D01*
G01X59198Y-128468D02*
Y-124468D01*
G01X61648D02*
Y-128468D01*
G01Y-126468D02*
X59198D01*
G01X65223Y-128468D02*
X64756Y-128401D01*
X64348Y-128135D01*
X63998Y-127735D01*
X63765Y-127268D01*
X63648Y-126735D01*
Y-126201D01*
X63765Y-125668D01*
X63998Y-125201D01*
X64348Y-124801D01*
X64756Y-124535D01*
X65223Y-124468D01*
X65690Y-124535D01*
X66098Y-124801D01*
X66448Y-125201D01*
X66681Y-125668D01*
X66798Y-126201D01*
Y-126735D01*
X66681Y-127268D01*
X66448Y-127735D01*
X66098Y-128135D01*
X65690Y-128401D01*
X65223Y-128468D01*
G01X68856Y-124468D02*
Y-128468D01*
X71190D01*
G01X75990D02*
X73656D01*
Y-124468D01*
X75990D01*
G01X75056Y-126401D02*
X73656D01*
G01X-89377Y-100468D02*
Y-104468D01*
G01X-90719Y-100468D02*
X-88035D01*
G01X-85802Y-104468D02*
Y-100468D01*
G01X-83352D02*
Y-104468D01*
G01Y-102468D02*
X-85802D01*
G01X-80477Y-100468D02*
X-79077D01*
G01X-79777D02*
Y-104468D01*
G01X-80477D02*
X-79077D01*
G01X-76202Y-103935D02*
X-75735Y-104268D01*
X-75210Y-104468D01*
X-74744D01*
X-74277Y-104268D01*
X-73927Y-103935D01*
X-73752Y-103468D01*
X-73869Y-103001D01*
X-74160Y-102601D01*
X-74685Y-102335D01*
X-75385Y-102201D01*
X-75794Y-101935D01*
X-75969Y-101468D01*
X-75852Y-101001D01*
X-75560Y-100668D01*
X-75152Y-100468D01*
X-74744D01*
X-74335Y-100601D01*
X-73985Y-100935D01*
G01X-66660Y-104468D02*
Y-100468D01*
X-65494D01*
X-65027Y-100668D01*
X-64677Y-100935D01*
X-64385Y-101335D01*
X-64152Y-101801D01*
X-64094Y-102468D01*
X-64152Y-103135D01*
X-64385Y-103601D01*
X-64677Y-104001D01*
X-65027Y-104268D01*
X-65494Y-104468D01*
X-66660D01*
G01X-60577D02*
X-61044Y-104401D01*
X-61452Y-104135D01*
X-61802Y-103735D01*
X-62035Y-103268D01*
X-62152Y-102735D01*
Y-102201D01*
X-62035Y-101668D01*
X-61802Y-101201D01*
X-61452Y-100801D01*
X-61044Y-100535D01*
X-60577Y-100468D01*
X-60110Y-100535D01*
X-59702Y-100801D01*
X-59352Y-101201D01*
X-59119Y-101668D01*
X-59002Y-102201D01*
Y-102735D01*
X-59119Y-103268D01*
X-59352Y-103735D01*
X-59702Y-104135D01*
X-60110Y-104401D01*
X-60577Y-104468D01*
G01X-54494Y-100801D02*
X-54844Y-100601D01*
X-55252Y-100468D01*
X-55719D01*
X-56244Y-100668D01*
X-56652Y-101001D01*
X-56944Y-101401D01*
X-57177Y-102068D01*
X-57235Y-102668D01*
X-57119Y-103268D01*
X-56944Y-103668D01*
X-56594Y-104068D01*
X-56185Y-104335D01*
X-55777Y-104468D01*
X-55369D01*
X-54960Y-104335D01*
X-54610Y-104135D01*
X-54319Y-103868D01*
G01X-52260Y-100468D02*
Y-103335D01*
X-52027Y-103935D01*
X-51560Y-104335D01*
X-50977Y-104468D01*
X-50394Y-104335D01*
X-49927Y-103935D01*
X-49694Y-103335D01*
Y-100468D01*
G01X-47694Y-104468D02*
Y-100468D01*
X-46177Y-103801D01*
X-44660Y-100468D01*
Y-104468D01*
G01X-40210D02*
X-42544D01*
Y-100468D01*
X-40210D01*
G01X-41144Y-102401D02*
X-42544D01*
G01X-37919Y-104468D02*
Y-100468D01*
X-35235Y-104468D01*
Y-100468D01*
G01X-31777D02*
Y-104468D01*
G01X-33119Y-100468D02*
X-30435D01*
G01X-20894Y-100801D02*
X-21244Y-100601D01*
X-21652Y-100468D01*
X-22119D01*
X-22644Y-100668D01*
X-23052Y-101001D01*
X-23344Y-101401D01*
X-23577Y-102068D01*
X-23635Y-102668D01*
X-23519Y-103268D01*
X-23344Y-103668D01*
X-22994Y-104068D01*
X-22585Y-104335D01*
X-22177Y-104468D01*
X-21769D01*
X-21360Y-104335D01*
X-21010Y-104135D01*
X-20719Y-103868D01*
G01X-17377Y-104468D02*
X-17844Y-104401D01*
X-18252Y-104135D01*
X-18602Y-103735D01*
X-18835Y-103268D01*
X-18952Y-102735D01*
Y-102201D01*
X-18835Y-101668D01*
X-18602Y-101201D01*
X-18252Y-100801D01*
X-17844Y-100535D01*
X-17377Y-100468D01*
X-16910Y-100535D01*
X-16502Y-100801D01*
X-16152Y-101201D01*
X-15919Y-101668D01*
X-15802Y-102201D01*
Y-102735D01*
X-15919Y-103268D01*
X-16152Y-103735D01*
X-16502Y-104135D01*
X-16910Y-104401D01*
X-17377Y-104468D01*
G01X-13919D02*
Y-100468D01*
X-11235Y-104468D01*
Y-100468D01*
G01X-7777D02*
Y-104468D01*
G01X-9119Y-100468D02*
X-6435D01*
G01X-4435Y-104468D02*
X-2977Y-100468D01*
X-1519Y-104468D01*
G01X-2044Y-103068D02*
X-3910D01*
G01X1123Y-100468D02*
X2523D01*
G01X1823D02*
Y-104468D01*
G01X1123D02*
X2523D01*
G01X5281D02*
Y-100468D01*
X7965Y-104468D01*
Y-100468D01*
G01X10198Y-103935D02*
X10665Y-104268D01*
X11190Y-104468D01*
X11656D01*
X12123Y-104268D01*
X12473Y-103935D01*
X12648Y-103468D01*
X12531Y-103001D01*
X12240Y-102601D01*
X11715Y-102335D01*
X11015Y-102201D01*
X10606Y-101935D01*
X10431Y-101468D01*
X10548Y-101001D01*
X10840Y-100668D01*
X11248Y-100468D01*
X11656D01*
X12065Y-100601D01*
X12415Y-100935D01*
G01X20323Y-100468D02*
X21723D01*
G01X21023D02*
Y-104468D01*
G01X20323D02*
X21723D01*
G01X24481D02*
Y-100468D01*
X27165Y-104468D01*
Y-100468D01*
G01X29515Y-104468D02*
Y-100468D01*
X31731D01*
G01X30915Y-102401D02*
X29515D01*
G01X35423Y-104468D02*
X34956Y-104401D01*
X34548Y-104135D01*
X34198Y-103735D01*
X33965Y-103268D01*
X33848Y-102735D01*
Y-102201D01*
X33965Y-101668D01*
X34198Y-101201D01*
X34548Y-100801D01*
X34956Y-100535D01*
X35423Y-100468D01*
X35890Y-100535D01*
X36298Y-100801D01*
X36648Y-101201D01*
X36881Y-101668D01*
X36998Y-102201D01*
Y-102735D01*
X36881Y-103268D01*
X36648Y-103735D01*
X36298Y-104135D01*
X35890Y-104401D01*
X35423Y-104468D01*
G01X39056D02*
Y-100468D01*
X40515D01*
X40981Y-100668D01*
X41273Y-100935D01*
X41390Y-101468D01*
X41273Y-102001D01*
X40923Y-102335D01*
X40515Y-102535D01*
X39056D01*
G01X40515D02*
X41390Y-104468D01*
G01X43506D02*
Y-100468D01*
X45023Y-103801D01*
X46540Y-100468D01*
Y-104468D01*
G01X48365D02*
X49823Y-100468D01*
X51281Y-104468D01*
G01X50756Y-103068D02*
X48890D01*
G01X54623Y-100468D02*
Y-104468D01*
G01X53281Y-100468D02*
X55965D01*
G01X58723D02*
X60123D01*
G01X59423D02*
Y-104468D01*
G01X58723D02*
X60123D01*
G01X64223D02*
X63756Y-104401D01*
X63348Y-104135D01*
X62998Y-103735D01*
X62765Y-103268D01*
X62648Y-102735D01*
Y-102201D01*
X62765Y-101668D01*
X62998Y-101201D01*
X63348Y-100801D01*
X63756Y-100535D01*
X64223Y-100468D01*
X64690Y-100535D01*
X65098Y-100801D01*
X65448Y-101201D01*
X65681Y-101668D01*
X65798Y-102201D01*
Y-102735D01*
X65681Y-103268D01*
X65448Y-103735D01*
X65098Y-104135D01*
X64690Y-104401D01*
X64223Y-104468D01*
G01X67681D02*
Y-100468D01*
X70365Y-104468D01*
Y-100468D01*
G01X-89544Y-112468D02*
Y-108468D01*
X-88144D01*
X-87677Y-108668D01*
X-87327Y-109135D01*
X-87210Y-109668D01*
X-87327Y-110201D01*
X-87619Y-110601D01*
X-88144Y-110801D01*
X-89544D01*
G01X-84744Y-112468D02*
Y-108468D01*
X-83285D01*
X-82819Y-108668D01*
X-82527Y-108935D01*
X-82410Y-109468D01*
X-82527Y-110001D01*
X-82877Y-110335D01*
X-83285Y-110535D01*
X-84744D01*
G01X-83285D02*
X-82410Y-112468D01*
G01X-78777D02*
X-79244Y-112401D01*
X-79652Y-112135D01*
X-80002Y-111735D01*
X-80235Y-111268D01*
X-80352Y-110735D01*
Y-110201D01*
X-80235Y-109668D01*
X-80002Y-109201D01*
X-79652Y-108801D01*
X-79244Y-108535D01*
X-78777Y-108468D01*
X-78310Y-108535D01*
X-77902Y-108801D01*
X-77552Y-109201D01*
X-77319Y-109668D01*
X-77202Y-110201D01*
Y-110735D01*
X-77319Y-111268D01*
X-77552Y-111735D01*
X-77902Y-112135D01*
X-78310Y-112401D01*
X-78777Y-112468D01*
G01X-75144D02*
Y-108468D01*
X-73744D01*
X-73277Y-108668D01*
X-72927Y-109135D01*
X-72810Y-109668D01*
X-72927Y-110201D01*
X-73219Y-110601D01*
X-73744Y-110801D01*
X-75144D01*
G01X-70344Y-112468D02*
Y-108468D01*
X-68885D01*
X-68419Y-108668D01*
X-68127Y-108935D01*
X-68010Y-109468D01*
X-68127Y-110001D01*
X-68477Y-110335D01*
X-68885Y-110535D01*
X-70344D01*
G01X-68885D02*
X-68010Y-112468D01*
G01X-65077Y-108468D02*
X-63677D01*
G01X-64377D02*
Y-112468D01*
G01X-65077D02*
X-63677D01*
G01X-58410D02*
X-60744D01*
Y-108468D01*
X-58410D01*
G01X-59344Y-110401D02*
X-60744D01*
G01X-54777Y-108468D02*
Y-112468D01*
G01X-56119Y-108468D02*
X-53435D01*
G01X-51435Y-112468D02*
X-49977Y-108468D01*
X-48519Y-112468D01*
G01X-49044Y-111068D02*
X-50910D01*
G01X-46344Y-112468D02*
Y-108468D01*
X-44885D01*
X-44419Y-108668D01*
X-44127Y-108935D01*
X-44010Y-109468D01*
X-44127Y-110001D01*
X-44477Y-110335D01*
X-44885Y-110535D01*
X-46344D01*
G01X-44885D02*
X-44010Y-112468D01*
G01X-40377D02*
Y-110668D01*
X-41544Y-108468D01*
G01X-39210D02*
X-40377Y-110668D01*
G01X-30777Y-108468D02*
Y-112468D01*
G01X-32119Y-108468D02*
X-29435D01*
G01X-25977Y-112468D02*
X-26444Y-112401D01*
X-26852Y-112135D01*
X-27202Y-111735D01*
X-27435Y-111268D01*
X-27552Y-110735D01*
Y-110201D01*
X-27435Y-109668D01*
X-27202Y-109201D01*
X-26852Y-108801D01*
X-26444Y-108535D01*
X-25977Y-108468D01*
X-25510Y-108535D01*
X-25102Y-108801D01*
X-24752Y-109201D01*
X-24519Y-109668D01*
X-24402Y-110201D01*
Y-110735D01*
X-24519Y-111268D01*
X-24752Y-111735D01*
X-25102Y-112135D01*
X-25510Y-112401D01*
X-25977Y-112468D01*
G01X-17719D02*
Y-108468D01*
X-15035Y-112468D01*
Y-108468D01*
G01X-12802Y-112468D02*
X-10352Y-108468D01*
G01X-12802D02*
X-10352Y-112468D01*
G01X-7944D02*
Y-108468D01*
X-6544D01*
X-6077Y-108668D01*
X-5727Y-109135D01*
X-5610Y-109668D01*
X-5727Y-110201D01*
X-6019Y-110601D01*
X-6544Y-110801D01*
X-7944D01*
G01X1365Y-112468D02*
X2823Y-108468D01*
X4281Y-112468D01*
G01X3756Y-111068D02*
X1890D01*
G01X6281Y-112468D02*
Y-108468D01*
X8965Y-112468D01*
Y-108468D01*
G01X11140Y-112468D02*
Y-108468D01*
X12306D01*
X12773Y-108668D01*
X13123Y-108935D01*
X13415Y-109335D01*
X13648Y-109801D01*
X13706Y-110468D01*
X13648Y-111135D01*
X13415Y-111601D01*
X13123Y-112001D01*
X12773Y-112268D01*
X12306Y-112468D01*
X11140D01*
G01X20798Y-111935D02*
X21265Y-112268D01*
X21790Y-112468D01*
X22256D01*
X22723Y-112268D01*
X23073Y-111935D01*
X23248Y-111468D01*
X23131Y-111001D01*
X22840Y-110601D01*
X22315Y-110335D01*
X21615Y-110201D01*
X21206Y-109935D01*
X21031Y-109468D01*
X21148Y-109001D01*
X21440Y-108668D01*
X21848Y-108468D01*
X22256D01*
X22665Y-108601D01*
X23015Y-108935D01*
G01X25598Y-112468D02*
Y-108468D01*
G01X28048D02*
Y-112468D01*
G01Y-110468D02*
X25598D01*
G01X30165Y-112468D02*
X31623Y-108468D01*
X33081Y-112468D01*
G01X32556Y-111068D02*
X30690D01*
G01X35256Y-108468D02*
Y-112468D01*
X37590D01*
G01X40056Y-108468D02*
Y-112468D01*
X42390D01*
G01X49481D02*
Y-108468D01*
X52165Y-112468D01*
Y-108468D01*
G01X55623Y-112468D02*
X55156Y-112401D01*
X54748Y-112135D01*
X54398Y-111735D01*
X54165Y-111268D01*
X54048Y-110735D01*
Y-110201D01*
X54165Y-109668D01*
X54398Y-109201D01*
X54748Y-108801D01*
X55156Y-108535D01*
X55623Y-108468D01*
X56090Y-108535D01*
X56498Y-108801D01*
X56848Y-109201D01*
X57081Y-109668D01*
X57198Y-110201D01*
Y-110735D01*
X57081Y-111268D01*
X56848Y-111735D01*
X56498Y-112135D01*
X56090Y-112401D01*
X55623Y-112468D01*
G01X60423Y-108468D02*
Y-112468D01*
G01X59081Y-108468D02*
X61765D01*
G01X-96485Y-85801D02*
X-96077Y-85335D01*
X-95727Y-85068D01*
X-95260Y-84935D01*
X-94852Y-85068D01*
X-94560Y-85335D01*
X-94327Y-85735D01*
X-94269Y-86201D01*
X-94327Y-86601D01*
X-94560Y-87001D01*
X-94910Y-87335D01*
X-95319Y-87468D01*
X-95785Y-87335D01*
X-96194Y-86935D01*
X-96427Y-86335D01*
X-96485Y-85668D01*
X-96369Y-84801D01*
X-96194Y-84335D01*
X-95902Y-83868D01*
X-95494Y-83535D01*
X-95085Y-83468D01*
X-94677Y-83601D01*
X-94385Y-83935D01*
G01X-91860Y-86868D02*
X-91510Y-87201D01*
X-91102Y-87401D01*
X-90577Y-87468D01*
X-90052Y-87335D01*
X-89644Y-87068D01*
X-89352Y-86601D01*
X-89294Y-86068D01*
X-89410Y-85535D01*
X-89702Y-85201D01*
X-90110Y-84935D01*
X-90519Y-84868D01*
X-90927Y-84935D01*
X-91452Y-85201D01*
X-91277Y-83468D01*
X-89702D01*
G01X-85777D02*
X-86244Y-83601D01*
X-86594Y-83935D01*
X-86827Y-84335D01*
X-87002Y-84868D01*
X-87060Y-85468D01*
X-87002Y-86068D01*
X-86827Y-86601D01*
X-86594Y-87001D01*
X-86244Y-87335D01*
X-85777Y-87468D01*
X-85310Y-87335D01*
X-84960Y-87001D01*
X-84727Y-86601D01*
X-84552Y-86068D01*
X-84494Y-85468D01*
X-84552Y-84868D01*
X-84727Y-84335D01*
X-84960Y-83935D01*
X-85310Y-83601D01*
X-85777Y-83468D01*
G01X-80977Y-87468D02*
Y-83468D01*
X-81677Y-84268D01*
G01Y-87468D02*
X-80277D01*
G01X-73127Y-83468D02*
X-72310Y-87468D01*
X-71377Y-83468D01*
X-70444Y-87468D01*
X-69627Y-83468D01*
G01X-67277D02*
X-65877D01*
G01X-66577D02*
Y-87468D01*
G01X-67277D02*
X-65877D01*
G01X-62944Y-83468D02*
Y-87468D01*
X-60610D01*
G01X-58144Y-83468D02*
Y-87468D01*
X-55810D01*
G01X-52877Y-83468D02*
X-51477D01*
G01X-52177D02*
Y-87468D01*
G01X-52877D02*
X-51477D01*
G01X-48835D02*
X-47377Y-83468D01*
X-45919Y-87468D01*
G01X-46444Y-86068D02*
X-48310D01*
G01X-44094Y-87468D02*
Y-83468D01*
X-42577Y-86801D01*
X-41060Y-83468D01*
Y-87468D01*
G01X-31694Y-83801D02*
X-32044Y-83601D01*
X-32452Y-83468D01*
X-32919D01*
X-33444Y-83668D01*
X-33852Y-84001D01*
X-34144Y-84401D01*
X-34377Y-85068D01*
X-34435Y-85668D01*
X-34319Y-86268D01*
X-34144Y-86668D01*
X-33794Y-87068D01*
X-33385Y-87335D01*
X-32977Y-87468D01*
X-32569D01*
X-32160Y-87335D01*
X-31810Y-87135D01*
X-31519Y-86868D01*
G01X-29635Y-87468D02*
X-28177Y-83468D01*
X-26719Y-87468D01*
G01X-27244Y-86068D02*
X-29110D01*
G01X-24719Y-87468D02*
Y-83468D01*
X-22035Y-87468D01*
Y-83468D01*
G01X-19919Y-87468D02*
Y-83468D01*
X-17235Y-87468D01*
Y-83468D01*
G01X-13777Y-87468D02*
X-14244Y-87401D01*
X-14652Y-87135D01*
X-15002Y-86735D01*
X-15235Y-86268D01*
X-15352Y-85735D01*
Y-85201D01*
X-15235Y-84668D01*
X-15002Y-84201D01*
X-14652Y-83801D01*
X-14244Y-83535D01*
X-13777Y-83468D01*
X-13310Y-83535D01*
X-12902Y-83801D01*
X-12552Y-84201D01*
X-12319Y-84668D01*
X-12202Y-85201D01*
Y-85735D01*
X-12319Y-86268D01*
X-12552Y-86735D01*
X-12902Y-87135D01*
X-13310Y-87401D01*
X-13777Y-87468D01*
G01X-10319D02*
Y-83468D01*
X-7635Y-87468D01*
Y-83468D01*
G01X-660Y-87468D02*
Y-83468D01*
X506D01*
X973Y-83668D01*
X1323Y-83935D01*
X1615Y-84335D01*
X1848Y-84801D01*
X1906Y-85468D01*
X1848Y-86135D01*
X1615Y-86601D01*
X1323Y-87001D01*
X973Y-87268D01*
X506Y-87468D01*
X-660D01*
G01X4256D02*
Y-83468D01*
X5715D01*
X6181Y-83668D01*
X6473Y-83935D01*
X6590Y-84468D01*
X6473Y-85001D01*
X6123Y-85335D01*
X5715Y-85535D01*
X4256D01*
G01X5715D02*
X6590Y-87468D01*
G01X9523Y-83468D02*
X10923D01*
G01X10223D02*
Y-87468D01*
G01X9523D02*
X10923D01*
G01X13565Y-83468D02*
X15023Y-87468D01*
X16481Y-83468D01*
G01X20990Y-87468D02*
X18656D01*
Y-83468D01*
X20990D01*
G01X20056Y-85401D02*
X18656D01*
G01X27673Y-83468D02*
X28490Y-87468D01*
X29423Y-83468D01*
X30356Y-87468D01*
X31173Y-83468D01*
G01X35390Y-87468D02*
X33056D01*
Y-83468D01*
X35390D01*
G01X34456Y-85401D02*
X33056D01*
G01X37798Y-86935D02*
X38265Y-87268D01*
X38790Y-87468D01*
X39256D01*
X39723Y-87268D01*
X40073Y-86935D01*
X40248Y-86468D01*
X40131Y-86001D01*
X39840Y-85601D01*
X39315Y-85335D01*
X38615Y-85201D01*
X38206Y-84935D01*
X38031Y-84468D01*
X38148Y-84001D01*
X38440Y-83668D01*
X38848Y-83468D01*
X39256D01*
X39665Y-83601D01*
X40015Y-83935D01*
G01X43823Y-83468D02*
Y-87468D01*
G01X42481Y-83468D02*
X45165D01*
G01X-96835Y-94468D02*
X-95377Y-90468D01*
X-93919Y-94468D01*
G01X-94444Y-93068D02*
X-96310D01*
G01X-91860Y-90468D02*
Y-93335D01*
X-91627Y-93935D01*
X-91160Y-94335D01*
X-90577Y-94468D01*
X-89994Y-94335D01*
X-89527Y-93935D01*
X-89294Y-93335D01*
Y-90468D01*
G01X-87002Y-93935D02*
X-86535Y-94268D01*
X-86010Y-94468D01*
X-85544D01*
X-85077Y-94268D01*
X-84727Y-93935D01*
X-84552Y-93468D01*
X-84669Y-93001D01*
X-84960Y-92601D01*
X-85485Y-92335D01*
X-86185Y-92201D01*
X-86594Y-91935D01*
X-86769Y-91468D01*
X-86652Y-91001D01*
X-86360Y-90668D01*
X-85952Y-90468D01*
X-85544D01*
X-85135Y-90601D01*
X-84785Y-90935D01*
G01X-80977Y-90468D02*
Y-94468D01*
G01X-82319Y-90468D02*
X-79635D01*
G01X-76877D02*
X-75477D01*
G01X-76177D02*
Y-94468D01*
G01X-76877D02*
X-75477D01*
G01X-72719D02*
Y-90468D01*
X-70035Y-94468D01*
Y-90468D01*
G01X-66577Y-94601D02*
X-66694Y-94535D01*
Y-94401D01*
X-66577Y-94335D01*
X-66460Y-94401D01*
Y-94535D01*
X-66577Y-94601D01*
G01X-56977Y-90468D02*
Y-94468D01*
G01X-58319Y-90468D02*
X-55635D01*
G01X-51010Y-94468D02*
X-53344D01*
Y-90468D01*
X-51010D01*
G01X-51944Y-92401D02*
X-53344D01*
G01X-48602Y-94468D02*
X-46152Y-90468D01*
G01X-48602D02*
X-46152Y-94468D01*
G01X-44035D02*
X-42577Y-90468D01*
X-41119Y-94468D01*
G01X-41644Y-93068D02*
X-43510D01*
G01X-39002Y-93935D02*
X-38535Y-94268D01*
X-38010Y-94468D01*
X-37544D01*
X-37077Y-94268D01*
X-36727Y-93935D01*
X-36552Y-93468D01*
X-36669Y-93001D01*
X-36960Y-92601D01*
X-37485Y-92335D01*
X-38185Y-92201D01*
X-38594Y-91935D01*
X-38769Y-91468D01*
X-38652Y-91001D01*
X-38360Y-90668D01*
X-37952Y-90468D01*
X-37544D01*
X-37135Y-90601D01*
X-36785Y-90935D01*
G01X-28294Y-94468D02*
X-28177Y-93601D01*
X-28002Y-92868D01*
X-27769Y-92201D01*
X-27477Y-91468D01*
X-27010Y-90468D01*
X-29344D01*
G01X-23377Y-94468D02*
X-22969Y-94401D01*
X-22502Y-94201D01*
X-22210Y-93868D01*
X-22094Y-93401D01*
X-22210Y-92935D01*
X-22560Y-92535D01*
X-23085Y-92335D01*
X-23669D01*
X-24019Y-92201D01*
X-24310Y-91868D01*
X-24427Y-91401D01*
X-24252Y-90935D01*
X-23844Y-90601D01*
X-23377Y-90468D01*
X-22910Y-90601D01*
X-22502Y-90935D01*
X-22327Y-91401D01*
X-22444Y-91868D01*
X-22735Y-92201D01*
X-23085Y-92335D01*
X-23669D01*
X-24194Y-92535D01*
X-24544Y-92935D01*
X-24660Y-93401D01*
X-24544Y-93868D01*
X-24252Y-94201D01*
X-23785Y-94401D01*
X-23377Y-94468D01*
G01X-18694D02*
X-18577Y-93601D01*
X-18402Y-92868D01*
X-18169Y-92201D01*
X-17877Y-91468D01*
X-17410Y-90468D01*
X-19744D01*
G01X-15060Y-93668D02*
X-14710Y-94135D01*
X-14244Y-94401D01*
X-13719Y-94468D01*
X-13252Y-94401D01*
X-12785Y-94068D01*
X-12494Y-93668D01*
X-12435Y-93268D01*
X-12552Y-92801D01*
X-12960Y-92468D01*
X-13369Y-92335D01*
X-13894D01*
G01X-13369D02*
X-13019Y-92135D01*
X-12727Y-91801D01*
X-12610Y-91401D01*
X-12727Y-91001D01*
X-13019Y-90668D01*
X-13544Y-90468D01*
X-14069Y-90535D01*
X-14594Y-90801D01*
G01X-10260Y-93868D02*
X-9910Y-94201D01*
X-9502Y-94401D01*
X-8977Y-94468D01*
X-8452Y-94335D01*
X-8044Y-94068D01*
X-7752Y-93601D01*
X-7694Y-93068D01*
X-7810Y-92535D01*
X-8102Y-92201D01*
X-8510Y-91935D01*
X-8919Y-91868D01*
X-9327Y-91935D01*
X-9852Y-92201D01*
X-9677Y-90468D01*
X-8102D01*
G01X-660D02*
Y-93335D01*
X-427Y-93935D01*
X40Y-94335D01*
X623Y-94468D01*
X1206Y-94335D01*
X1673Y-93935D01*
X1906Y-93335D01*
Y-90468D01*
G01X4198Y-93935D02*
X4665Y-94268D01*
X5190Y-94468D01*
X5656D01*
X6123Y-94268D01*
X6473Y-93935D01*
X6648Y-93468D01*
X6531Y-93001D01*
X6240Y-92601D01*
X5715Y-92335D01*
X5015Y-92201D01*
X4606Y-91935D01*
X4431Y-91468D01*
X4548Y-91001D01*
X4840Y-90668D01*
X5248Y-90468D01*
X5656D01*
X6065Y-90601D01*
X6415Y-90935D01*
G01X8765Y-94468D02*
X10223Y-90468D01*
X11681Y-94468D01*
G01X11156Y-93068D02*
X9290D01*
G01X-93974Y-78468D02*
Y-70968D01*
X-89680Y-78468D01*
Y-70968D01*
G01X-86287Y-78468D02*
X-82367Y-70968D01*
G01X-86287D02*
X-82367Y-78468D01*
G01X-78694D02*
Y-70968D01*
X-76454D01*
X-75707Y-71343D01*
X-75147Y-72218D01*
X-74960Y-73218D01*
X-75147Y-74218D01*
X-75614Y-74968D01*
X-76454Y-75343D01*
X-78694D01*
G01X-63787Y-77468D02*
X-63040Y-78093D01*
X-62200Y-78468D01*
X-61454D01*
X-60707Y-78093D01*
X-60147Y-77468D01*
X-59867Y-76593D01*
X-60054Y-75718D01*
X-60520Y-74968D01*
X-61360Y-74468D01*
X-62480Y-74218D01*
X-63134Y-73718D01*
X-63414Y-72843D01*
X-63227Y-71968D01*
X-62760Y-71343D01*
X-62107Y-70968D01*
X-61454D01*
X-60800Y-71218D01*
X-60240Y-71843D01*
G01X-52460Y-78468D02*
X-56194D01*
Y-70968D01*
X-52460D01*
G01X-53954Y-74593D02*
X-56194D01*
G01X-49254Y-78468D02*
Y-70968D01*
X-46827Y-77218D01*
X-44400Y-70968D01*
Y-78468D01*
G01X-40447Y-70968D02*
X-38207D01*
G01X-39327D02*
Y-78468D01*
G01X-40447D02*
X-38207D01*
G01X-29774Y-71593D02*
X-30334Y-71218D01*
X-30987Y-70968D01*
X-31734D01*
X-32574Y-71343D01*
X-33227Y-71968D01*
X-33694Y-72718D01*
X-34067Y-73968D01*
X-34160Y-75093D01*
X-33974Y-76218D01*
X-33694Y-76968D01*
X-33134Y-77718D01*
X-32480Y-78218D01*
X-31827Y-78468D01*
X-31174D01*
X-30520Y-78218D01*
X-29960Y-77843D01*
X-29494Y-77343D01*
G01X-24327Y-78468D02*
X-25074Y-78343D01*
X-25727Y-77843D01*
X-26287Y-77093D01*
X-26660Y-76218D01*
X-26847Y-75218D01*
Y-74218D01*
X-26660Y-73218D01*
X-26287Y-72343D01*
X-25727Y-71593D01*
X-25074Y-71093D01*
X-24327Y-70968D01*
X-23580Y-71093D01*
X-22927Y-71593D01*
X-22367Y-72343D01*
X-21994Y-73218D01*
X-21807Y-74218D01*
Y-75218D01*
X-21994Y-76218D01*
X-22367Y-77093D01*
X-22927Y-77843D01*
X-23580Y-78343D01*
X-24327Y-78468D01*
G01X-18974D02*
Y-70968D01*
X-14680Y-78468D01*
Y-70968D01*
G01X-11380Y-78468D02*
Y-70968D01*
X-9514D01*
X-8767Y-71343D01*
X-8207Y-71843D01*
X-7740Y-72593D01*
X-7367Y-73468D01*
X-7274Y-74718D01*
X-7367Y-75968D01*
X-7740Y-76843D01*
X-8207Y-77593D01*
X-8767Y-78093D01*
X-9514Y-78468D01*
X-11380D01*
G01X-3880Y-70968D02*
Y-76343D01*
X-3507Y-77468D01*
X-2760Y-78218D01*
X-1827Y-78468D01*
X-894Y-78218D01*
X-147Y-77468D01*
X226Y-76343D01*
Y-70968D01*
G01X7726Y-71593D02*
X7166Y-71218D01*
X6513Y-70968D01*
X5766D01*
X4926Y-71343D01*
X4273Y-71968D01*
X3806Y-72718D01*
X3433Y-73968D01*
X3340Y-75093D01*
X3526Y-76218D01*
X3806Y-76968D01*
X4366Y-77718D01*
X5020Y-78218D01*
X5673Y-78468D01*
X6326D01*
X6980Y-78218D01*
X7540Y-77843D01*
X8006Y-77343D01*
G01X13173Y-70968D02*
Y-78468D01*
G01X11026Y-70968D02*
X15320D01*
G01X20673Y-78468D02*
X19926Y-78343D01*
X19273Y-77843D01*
X18713Y-77093D01*
X18340Y-76218D01*
X18153Y-75218D01*
Y-74218D01*
X18340Y-73218D01*
X18713Y-72343D01*
X19273Y-71593D01*
X19926Y-71093D01*
X20673Y-70968D01*
X21420Y-71093D01*
X22073Y-71593D01*
X22633Y-72343D01*
X23006Y-73218D01*
X23193Y-74218D01*
Y-75218D01*
X23006Y-76218D01*
X22633Y-77093D01*
X22073Y-77843D01*
X21420Y-78343D01*
X20673Y-78468D01*
G01X26306D02*
Y-70968D01*
X28640D01*
X29386Y-71343D01*
X29853Y-71843D01*
X30040Y-72843D01*
X29853Y-73843D01*
X29293Y-74468D01*
X28640Y-74843D01*
X26306D01*
G01X28640D02*
X30040Y-78468D01*
G01X33713Y-77468D02*
X34460Y-78093D01*
X35300Y-78468D01*
X36046D01*
X36793Y-78093D01*
X37353Y-77468D01*
X37633Y-76593D01*
X37446Y-75718D01*
X36980Y-74968D01*
X36140Y-74468D01*
X35020Y-74218D01*
X34366Y-73718D01*
X34086Y-72843D01*
X34273Y-71968D01*
X34740Y-71343D01*
X35393Y-70968D01*
X36046D01*
X36700Y-71218D01*
X37260Y-71843D01*
G01X-46485Y-155468D02*
Y-151468D01*
X-44269D01*
G01X-45085Y-153401D02*
X-46485D01*
G01X-41277Y-151468D02*
X-39877D01*
G01X-40577D02*
Y-155468D01*
G01X-41277D02*
X-39877D01*
G01X-36944Y-151468D02*
Y-155468D01*
X-34610D01*
G01X-32494D02*
Y-151468D01*
X-30977Y-154801D01*
X-29460Y-151468D01*
Y-155468D01*
G01X-24344Y-163968D02*
Y-157668D01*
X-22464D01*
X-21837Y-157983D01*
X-21367Y-158718D01*
X-21210Y-159558D01*
X-21367Y-160398D01*
X-21759Y-161028D01*
X-22464Y-161343D01*
X-24344D01*
G01X-18044Y-163968D02*
Y-157668D01*
X-16085D01*
X-15459Y-157983D01*
X-15067Y-158403D01*
X-14910Y-159243D01*
X-15067Y-160083D01*
X-15537Y-160608D01*
X-16085Y-160923D01*
X-18044D01*
G01X-16085D02*
X-14910Y-163968D01*
G01X-11117Y-157668D02*
X-9237D01*
G01X-10177D02*
Y-163968D01*
G01X-11117D02*
X-9237D01*
G01X-5914D02*
Y-157668D01*
X-3877Y-162918D01*
X-1840Y-157668D01*
Y-163968D01*
G01X465D02*
X2423Y-157668D01*
X4381Y-163968D01*
G01X3676Y-161763D02*
X1170D01*
G01X7156Y-163968D02*
Y-157668D01*
X9115D01*
X9741Y-157983D01*
X10133Y-158403D01*
X10290Y-159243D01*
X10133Y-160083D01*
X9663Y-160608D01*
X9115Y-160923D01*
X7156D01*
G01X9115D02*
X10290Y-163968D01*
G01X15023D02*
Y-161133D01*
X13456Y-157668D01*
G01X16590D02*
X15023Y-161133D01*
G01X25978Y-163128D02*
X26605Y-163653D01*
X27310Y-163968D01*
X27936D01*
X28563Y-163653D01*
X29033Y-163128D01*
X29268Y-162393D01*
X29111Y-161658D01*
X28720Y-161028D01*
X28015Y-160608D01*
X27075Y-160398D01*
X26526Y-159978D01*
X26291Y-159243D01*
X26448Y-158508D01*
X26840Y-157983D01*
X27388Y-157668D01*
X27936D01*
X28485Y-157878D01*
X28955Y-158403D01*
G01X32983Y-157668D02*
X34863D01*
G01X33923D02*
Y-163968D01*
G01X32983D02*
X34863D01*
G01X38500D02*
Y-157668D01*
X40066D01*
X40693Y-157983D01*
X41163Y-158403D01*
X41555Y-159033D01*
X41868Y-159768D01*
X41946Y-160818D01*
X41868Y-161868D01*
X41555Y-162603D01*
X41163Y-163233D01*
X40693Y-163653D01*
X40066Y-163968D01*
X38500D01*
G01X48090D02*
X44956D01*
Y-157668D01*
X48090D01*
G01X46836Y-160713D02*
X44956D01*
G01X81623Y-159468D02*
X81156Y-159601D01*
X80806Y-159935D01*
X80573Y-160335D01*
X80398Y-160868D01*
X80340Y-161468D01*
X80398Y-162068D01*
X80573Y-162601D01*
X80806Y-163001D01*
X81156Y-163335D01*
X81623Y-163468D01*
X82090Y-163335D01*
X82440Y-163001D01*
X82673Y-162601D01*
X82848Y-162068D01*
X82906Y-161468D01*
X82848Y-160868D01*
X82673Y-160335D01*
X82440Y-159935D01*
X82090Y-159601D01*
X81623Y-159468D01*
G01X85431Y-163001D02*
X85840Y-163335D01*
X86306Y-163468D01*
X86773Y-163335D01*
X87181Y-162935D01*
X87473Y-162335D01*
X87590Y-161735D01*
Y-161001D01*
X87473Y-160401D01*
X87181Y-159868D01*
X86831Y-159601D01*
X86423Y-159468D01*
X85956Y-159601D01*
X85606Y-159868D01*
X85373Y-160268D01*
X85256Y-160801D01*
X85373Y-161268D01*
X85665Y-161735D01*
X86015Y-162001D01*
X86423Y-162068D01*
X86890Y-161935D01*
X87240Y-161601D01*
X87590Y-161001D01*
G01X90465Y-162135D02*
X91981D01*
G01X96023Y-159468D02*
X95556Y-159601D01*
X95206Y-159935D01*
X94973Y-160335D01*
X94798Y-160868D01*
X94740Y-161468D01*
X94798Y-162068D01*
X94973Y-162601D01*
X95206Y-163001D01*
X95556Y-163335D01*
X96023Y-163468D01*
X96490Y-163335D01*
X96840Y-163001D01*
X97073Y-162601D01*
X97248Y-162068D01*
X97306Y-161468D01*
X97248Y-160868D01*
X97073Y-160335D01*
X96840Y-159935D01*
X96490Y-159601D01*
X96023Y-159468D01*
G01X101523Y-163468D02*
Y-159468D01*
X99365Y-162335D01*
X102281D01*
G01X104865Y-162135D02*
X106381D01*
G01X110423Y-163468D02*
Y-159468D01*
X109723Y-160268D01*
G01Y-163468D02*
X111123D01*
G01X114231Y-163001D02*
X114640Y-163335D01*
X115106Y-163468D01*
X115573Y-163335D01*
X115981Y-162935D01*
X116273Y-162335D01*
X116390Y-161735D01*
Y-161001D01*
X116273Y-160401D01*
X115981Y-159868D01*
X115631Y-159601D01*
X115223Y-159468D01*
X114756Y-159601D01*
X114406Y-159868D01*
X114173Y-160268D01*
X114056Y-160801D01*
X114173Y-161268D01*
X114465Y-161735D01*
X114815Y-162001D01*
X115223Y-162068D01*
X115690Y-161935D01*
X116040Y-161601D01*
X116390Y-161001D01*
G01X78340Y-155468D02*
Y-151468D01*
X79506D01*
X79973Y-151668D01*
X80323Y-151935D01*
X80615Y-152335D01*
X80848Y-152801D01*
X80906Y-153468D01*
X80848Y-154135D01*
X80615Y-154601D01*
X80323Y-155001D01*
X79973Y-155268D01*
X79506Y-155468D01*
X78340D01*
G01X82965D02*
X84423Y-151468D01*
X85881Y-155468D01*
G01X85356Y-154068D02*
X83490D01*
G01X89223Y-151468D02*
Y-155468D01*
G01X87881Y-151468D02*
X90565D01*
G01X95190Y-155468D02*
X92856D01*
Y-151468D01*
X95190D01*
G01X94256Y-153401D02*
X92856D01*
G01X87873Y-141301D02*
X91373D01*
G01X92673D02*
X96173D01*
G01X97473D02*
X100973D01*
G01X110106Y-136301D02*
X109756Y-136101D01*
X109348Y-135968D01*
X108881D01*
X108356Y-136168D01*
X107948Y-136501D01*
X107656Y-136901D01*
X107423Y-137568D01*
X107365Y-138168D01*
X107481Y-138768D01*
X107656Y-139168D01*
X108006Y-139568D01*
X108415Y-139835D01*
X108823Y-139968D01*
X109231D01*
X109640Y-139835D01*
X109990Y-139635D01*
X110281Y-139368D01*
G01X113623Y-139968D02*
X113156Y-139901D01*
X112748Y-139635D01*
X112398Y-139235D01*
X112165Y-138768D01*
X112048Y-138235D01*
Y-137701D01*
X112165Y-137168D01*
X112398Y-136701D01*
X112748Y-136301D01*
X113156Y-136035D01*
X113623Y-135968D01*
X114090Y-136035D01*
X114498Y-136301D01*
X114848Y-136701D01*
X115081Y-137168D01*
X115198Y-137701D01*
Y-138235D01*
X115081Y-138768D01*
X114848Y-139235D01*
X114498Y-139635D01*
X114090Y-139901D01*
X113623Y-139968D01*
G01X116906D02*
Y-135968D01*
X118423Y-139301D01*
X119940Y-135968D01*
Y-139968D01*
G01X122056D02*
Y-135968D01*
X123456D01*
X123923Y-136168D01*
X124273Y-136635D01*
X124390Y-137168D01*
X124273Y-137701D01*
X123981Y-138101D01*
X123456Y-138301D01*
X122056D01*
G01X126565Y-139968D02*
X128023Y-135968D01*
X129481Y-139968D01*
G01X128956Y-138568D02*
X127090D01*
G01X131481Y-139968D02*
Y-135968D01*
X134165Y-139968D01*
Y-135968D01*
G01X137623Y-139968D02*
Y-138168D01*
X136456Y-135968D01*
G01X138790D02*
X137623Y-138168D01*
G01X148506Y-136301D02*
X148156Y-136101D01*
X147748Y-135968D01*
X147281D01*
X146756Y-136168D01*
X146348Y-136501D01*
X146056Y-136901D01*
X145823Y-137568D01*
X145765Y-138168D01*
X145881Y-138768D01*
X146056Y-139168D01*
X146406Y-139568D01*
X146815Y-139835D01*
X147223Y-139968D01*
X147631D01*
X148040Y-139835D01*
X148390Y-139635D01*
X148681Y-139368D01*
G01X152023Y-139968D02*
X151556Y-139901D01*
X151148Y-139635D01*
X150798Y-139235D01*
X150565Y-138768D01*
X150448Y-138235D01*
Y-137701D01*
X150565Y-137168D01*
X150798Y-136701D01*
X151148Y-136301D01*
X151556Y-136035D01*
X152023Y-135968D01*
X152490Y-136035D01*
X152898Y-136301D01*
X153248Y-136701D01*
X153481Y-137168D01*
X153598Y-137701D01*
Y-138235D01*
X153481Y-138768D01*
X153248Y-139235D01*
X152898Y-139635D01*
X152490Y-139901D01*
X152023Y-139968D01*
G01X155481D02*
Y-135968D01*
X158165Y-139968D01*
Y-135968D01*
G01X160515Y-139968D02*
Y-135968D01*
X162731D01*
G01X161915Y-137901D02*
X160515D01*
G01X165723Y-135968D02*
X167123D01*
G01X166423D02*
Y-139968D01*
G01X165723D02*
X167123D01*
G01X169940D02*
Y-135968D01*
X171106D01*
X171573Y-136168D01*
X171923Y-136435D01*
X172215Y-136835D01*
X172448Y-137301D01*
X172506Y-137968D01*
X172448Y-138635D01*
X172215Y-139101D01*
X171923Y-139501D01*
X171573Y-139768D01*
X171106Y-139968D01*
X169940D01*
G01X177190D02*
X174856D01*
Y-135968D01*
X177190D01*
G01X176256Y-137901D02*
X174856D01*
G01X179481Y-139968D02*
Y-135968D01*
X182165Y-139968D01*
Y-135968D01*
G01X185623D02*
Y-139968D01*
G01X184281Y-135968D02*
X186965D01*
G01X189723D02*
X191123D01*
G01X190423D02*
Y-139968D01*
G01X189723D02*
X191123D01*
G01X193765D02*
X195223Y-135968D01*
X196681Y-139968D01*
G01X196156Y-138568D02*
X194290D01*
G01X198856Y-135968D02*
Y-139968D01*
X201190D01*
G01X87873Y-124801D02*
X91373D01*
G01X92673D02*
X96173D01*
G01X97473D02*
X100973D01*
G01X110106Y-119801D02*
X109756Y-119601D01*
X109348Y-119468D01*
X108881D01*
X108356Y-119668D01*
X107948Y-120001D01*
X107656Y-120401D01*
X107423Y-121068D01*
X107365Y-121668D01*
X107481Y-122268D01*
X107656Y-122668D01*
X108006Y-123068D01*
X108415Y-123335D01*
X108823Y-123468D01*
X109231D01*
X109640Y-123335D01*
X109990Y-123135D01*
X110281Y-122868D01*
G01X113623Y-123468D02*
X113156Y-123401D01*
X112748Y-123135D01*
X112398Y-122735D01*
X112165Y-122268D01*
X112048Y-121735D01*
Y-121201D01*
X112165Y-120668D01*
X112398Y-120201D01*
X112748Y-119801D01*
X113156Y-119535D01*
X113623Y-119468D01*
X114090Y-119535D01*
X114498Y-119801D01*
X114848Y-120201D01*
X115081Y-120668D01*
X115198Y-121201D01*
Y-121735D01*
X115081Y-122268D01*
X114848Y-122735D01*
X114498Y-123135D01*
X114090Y-123401D01*
X113623Y-123468D01*
G01X116906D02*
Y-119468D01*
X118423Y-122801D01*
X119940Y-119468D01*
Y-123468D01*
G01X122056D02*
Y-119468D01*
X123456D01*
X123923Y-119668D01*
X124273Y-120135D01*
X124390Y-120668D01*
X124273Y-121201D01*
X123981Y-121601D01*
X123456Y-121801D01*
X122056D01*
G01X126565Y-123468D02*
X128023Y-119468D01*
X129481Y-123468D01*
G01X128956Y-122068D02*
X127090D01*
G01X131481Y-123468D02*
Y-119468D01*
X134165Y-123468D01*
Y-119468D01*
G01X137623Y-123468D02*
Y-121668D01*
X136456Y-119468D01*
G01X138790D02*
X137623Y-121668D01*
G01X146523Y-119468D02*
X147923D01*
G01X147223D02*
Y-123468D01*
G01X146523D02*
X147923D01*
G01X150681D02*
Y-119468D01*
X153365Y-123468D01*
Y-119468D01*
G01X156823D02*
Y-123468D01*
G01X155481Y-119468D02*
X158165D01*
G01X162790Y-123468D02*
X160456D01*
Y-119468D01*
X162790D01*
G01X161856Y-121401D02*
X160456D01*
G01X165256Y-123468D02*
Y-119468D01*
X166715D01*
X167181Y-119668D01*
X167473Y-119935D01*
X167590Y-120468D01*
X167473Y-121001D01*
X167123Y-121335D01*
X166715Y-121535D01*
X165256D01*
G01X166715D02*
X167590Y-123468D01*
G01X169881D02*
Y-119468D01*
X172565Y-123468D01*
Y-119468D01*
G01X174565Y-123468D02*
X176023Y-119468D01*
X177481Y-123468D01*
G01X176956Y-122068D02*
X175090D01*
G01X179656Y-119468D02*
Y-123468D01*
X181990D01*
G01X87873Y-108801D02*
X91373D01*
G01X92673D02*
X96173D01*
G01X97473D02*
X100973D01*
G01X110106Y-103801D02*
X109756Y-103601D01*
X109348Y-103468D01*
X108881D01*
X108356Y-103668D01*
X107948Y-104001D01*
X107656Y-104401D01*
X107423Y-105068D01*
X107365Y-105668D01*
X107481Y-106268D01*
X107656Y-106668D01*
X108006Y-107068D01*
X108415Y-107335D01*
X108823Y-107468D01*
X109231D01*
X109640Y-107335D01*
X109990Y-107135D01*
X110281Y-106868D01*
G01X113623Y-107468D02*
X113156Y-107401D01*
X112748Y-107135D01*
X112398Y-106735D01*
X112165Y-106268D01*
X112048Y-105735D01*
Y-105201D01*
X112165Y-104668D01*
X112398Y-104201D01*
X112748Y-103801D01*
X113156Y-103535D01*
X113623Y-103468D01*
X114090Y-103535D01*
X114498Y-103801D01*
X114848Y-104201D01*
X115081Y-104668D01*
X115198Y-105201D01*
Y-105735D01*
X115081Y-106268D01*
X114848Y-106735D01*
X114498Y-107135D01*
X114090Y-107401D01*
X113623Y-107468D01*
G01X116906D02*
Y-103468D01*
X118423Y-106801D01*
X119940Y-103468D01*
Y-107468D01*
G01X122056D02*
Y-103468D01*
X123456D01*
X123923Y-103668D01*
X124273Y-104135D01*
X124390Y-104668D01*
X124273Y-105201D01*
X123981Y-105601D01*
X123456Y-105801D01*
X122056D01*
G01X126565Y-107468D02*
X128023Y-103468D01*
X129481Y-107468D01*
G01X128956Y-106068D02*
X127090D01*
G01X131481Y-107468D02*
Y-103468D01*
X134165Y-107468D01*
Y-103468D01*
G01X137623Y-107468D02*
Y-105668D01*
X136456Y-103468D01*
G01X138790D02*
X137623Y-105668D01*
G01X146056Y-107468D02*
Y-103468D01*
X147456D01*
X147923Y-103668D01*
X148273Y-104135D01*
X148390Y-104668D01*
X148273Y-105201D01*
X147981Y-105601D01*
X147456Y-105801D01*
X146056D01*
G01X150740Y-103468D02*
Y-106335D01*
X150973Y-106935D01*
X151440Y-107335D01*
X152023Y-107468D01*
X152606Y-107335D01*
X153073Y-106935D01*
X153306Y-106335D01*
Y-103468D01*
G01X157290Y-105335D02*
X157523Y-105135D01*
X157698Y-104801D01*
X157815Y-104335D01*
X157698Y-103935D01*
X157465Y-103668D01*
X157056Y-103468D01*
X155481D01*
Y-107468D01*
X157406D01*
X157815Y-107201D01*
X158048Y-106801D01*
X158165Y-106335D01*
X158048Y-105868D01*
X157698Y-105468D01*
X157290Y-105335D01*
X155481D01*
G01X160456Y-103468D02*
Y-107468D01*
X162790D01*
G01X165723Y-103468D02*
X167123D01*
G01X166423D02*
Y-107468D01*
G01X165723D02*
X167123D01*
G01X172506Y-103801D02*
X172156Y-103601D01*
X171748Y-103468D01*
X171281D01*
X170756Y-103668D01*
X170348Y-104001D01*
X170056Y-104401D01*
X169823Y-105068D01*
X169765Y-105668D01*
X169881Y-106268D01*
X170056Y-106668D01*
X170406Y-107068D01*
X170815Y-107335D01*
X171223Y-107468D01*
X171631D01*
X172040Y-107335D01*
X172390Y-107135D01*
X172681Y-106868D01*
G01X78281Y-75468D02*
Y-71468D01*
X80965Y-75468D01*
Y-71468D01*
G01X82965Y-75468D02*
X84423Y-71468D01*
X85881Y-75468D01*
G01X85356Y-74068D02*
X83490D01*
G01X87706Y-75468D02*
Y-71468D01*
X89223Y-74801D01*
X90740Y-71468D01*
Y-75468D01*
G01X95190D02*
X92856D01*
Y-71468D01*
X95190D01*
G01X94256Y-73401D02*
X92856D01*
G01X81989Y11610D02*
X85340D01*
G01X93378Y-106968D02*
X96668Y-100668D01*
G01X93378D02*
X96668Y-106968D01*
G01X128281Y-155468D02*
Y-151468D01*
X130965Y-155468D01*
Y-151468D01*
G01X133140D02*
Y-154335D01*
X133373Y-154935D01*
X133840Y-155335D01*
X134423Y-155468D01*
X135006Y-155335D01*
X135473Y-154935D01*
X135706Y-154335D01*
Y-151468D01*
G01X137706Y-155468D02*
Y-151468D01*
X139223Y-154801D01*
X140740Y-151468D01*
Y-155468D01*
G01X144490Y-153335D02*
X144723Y-153135D01*
X144898Y-152801D01*
X145015Y-152335D01*
X144898Y-151935D01*
X144665Y-151668D01*
X144256Y-151468D01*
X142681D01*
Y-155468D01*
X144606D01*
X145015Y-155201D01*
X145248Y-154801D01*
X145365Y-154335D01*
X145248Y-153868D01*
X144898Y-153468D01*
X144490Y-153335D01*
X142681D01*
G01X149990Y-155468D02*
X147656D01*
Y-151468D01*
X149990D01*
G01X149056Y-153401D02*
X147656D01*
G01X152456Y-155468D02*
Y-151468D01*
X153915D01*
X154381Y-151668D01*
X154673Y-151935D01*
X154790Y-152468D01*
X154673Y-153001D01*
X154323Y-153335D01*
X153915Y-153535D01*
X152456D01*
G01X153915D02*
X154790Y-155468D01*
G01X163223Y-162468D02*
Y-156168D01*
X162283Y-157428D01*
G01Y-162468D02*
X164163D01*
G01X169366D02*
X169523Y-161103D01*
X169758Y-159948D01*
X170071Y-158898D01*
X170463Y-157743D01*
X171090Y-156168D01*
X167956D01*
G01X175823D02*
X175196Y-156378D01*
X174726Y-156903D01*
X174413Y-157533D01*
X174178Y-158373D01*
X174100Y-159318D01*
X174178Y-160263D01*
X174413Y-161103D01*
X174726Y-161733D01*
X175196Y-162258D01*
X175823Y-162468D01*
X176450Y-162258D01*
X176920Y-161733D01*
X177233Y-161103D01*
X177468Y-160263D01*
X177546Y-159318D01*
X177468Y-158373D01*
X177233Y-157533D01*
X176920Y-156903D01*
X176450Y-156378D01*
X175823Y-156168D01*
G01X181105Y-160368D02*
X183141D01*
G01X189363Y-162468D02*
Y-156168D01*
X186465Y-160683D01*
X190381D01*
G01X193235Y-159843D02*
X193783Y-159108D01*
X194253Y-158688D01*
X194880Y-158478D01*
X195428Y-158688D01*
X195820Y-159108D01*
X196133Y-159738D01*
X196211Y-160473D01*
X196133Y-161103D01*
X195820Y-161733D01*
X195350Y-162258D01*
X194801Y-162468D01*
X194175Y-162258D01*
X193626Y-161628D01*
X193313Y-160683D01*
X193235Y-159633D01*
X193391Y-158268D01*
X193626Y-157533D01*
X194018Y-156798D01*
X194566Y-156273D01*
X195115Y-156168D01*
X195663Y-156378D01*
X196055Y-156903D01*
G01X201963Y-162468D02*
Y-156168D01*
X199065Y-160683D01*
X202981D01*
G01X208263Y-162468D02*
Y-156168D01*
X205365Y-160683D01*
X209281D01*
G01X213623Y-162468D02*
Y-156168D01*
X212683Y-157428D01*
G01Y-162468D02*
X214563D01*
G01X256156D02*
Y-156168D01*
X258115D01*
X258741Y-156483D01*
X259133Y-156903D01*
X259290Y-157743D01*
X259133Y-158583D01*
X258663Y-159108D01*
X258115Y-159423D01*
X256156D01*
G01X258115D02*
X259290Y-162468D01*
G01X265590D02*
X262456D01*
Y-156168D01*
X265590D01*
G01X264336Y-159213D02*
X262456D01*
G01X268365Y-156168D02*
X270323Y-162468D01*
X272281Y-156168D01*
G01X280965Y-162468D02*
X282923Y-156168D01*
X284881Y-162468D01*
G01X284176Y-160263D02*
X281670D01*
G01X165223Y-89468D02*
X165771Y-89363D01*
X166398Y-89048D01*
X166790Y-88523D01*
X166946Y-87788D01*
X166790Y-87053D01*
X166320Y-86423D01*
X165615Y-86108D01*
X164831D01*
X164361Y-85898D01*
X163970Y-85373D01*
X163813Y-84638D01*
X164048Y-83903D01*
X164596Y-83378D01*
X165223Y-83168D01*
X165850Y-83378D01*
X166398Y-83903D01*
X166633Y-84638D01*
X166476Y-85373D01*
X166085Y-85898D01*
X165615Y-86108D01*
X164831D01*
X164126Y-86423D01*
X163656Y-87053D01*
X163500Y-87788D01*
X163656Y-88523D01*
X164048Y-89048D01*
X164675Y-89363D01*
X165223Y-89468D01*
G01X171523D02*
Y-83168D01*
X170583Y-84428D01*
G01Y-89468D02*
X172463D01*
G01X176100Y-88523D02*
X176570Y-89048D01*
X177118Y-89363D01*
X177823Y-89468D01*
X178528Y-89258D01*
X179076Y-88838D01*
X179468Y-88103D01*
X179546Y-87263D01*
X179390Y-86423D01*
X178998Y-85898D01*
X178450Y-85478D01*
X177901Y-85373D01*
X177353Y-85478D01*
X176648Y-85898D01*
X176883Y-83168D01*
X178998D01*
G01X182556D02*
Y-89468D01*
X185690D01*
G01X188856D02*
Y-83168D01*
X190736D01*
X191363Y-83483D01*
X191833Y-84218D01*
X191990Y-85058D01*
X191833Y-85898D01*
X191441Y-86528D01*
X190736Y-86843D01*
X188856D01*
G01X195000Y-89468D02*
Y-83168D01*
X196566D01*
X197193Y-83483D01*
X197663Y-83903D01*
X198055Y-84533D01*
X198368Y-85268D01*
X198446Y-86318D01*
X198368Y-87368D01*
X198055Y-88103D01*
X197663Y-88733D01*
X197193Y-89153D01*
X196566Y-89468D01*
X195000D01*
G01X203963D02*
Y-83168D01*
X201065Y-87683D01*
X204981D01*
G01X208305Y-87368D02*
X210341D01*
G01X217346Y-83693D02*
X216876Y-83378D01*
X216328Y-83168D01*
X215701D01*
X214996Y-83483D01*
X214448Y-84008D01*
X214056Y-84638D01*
X213743Y-85688D01*
X213665Y-86633D01*
X213821Y-87578D01*
X214056Y-88208D01*
X214526Y-88838D01*
X215075Y-89258D01*
X215623Y-89468D01*
X216171D01*
X216720Y-89258D01*
X217190Y-88943D01*
X217581Y-88523D01*
G01X220356Y-89468D02*
Y-83168D01*
X222236D01*
X222863Y-83483D01*
X223333Y-84218D01*
X223490Y-85058D01*
X223333Y-85898D01*
X222941Y-86528D01*
X222236Y-86843D01*
X220356D01*
G01X226500Y-83168D02*
Y-87683D01*
X226813Y-88628D01*
X227440Y-89258D01*
X228223Y-89468D01*
X229006Y-89258D01*
X229633Y-88628D01*
X229946Y-87683D01*
Y-83168D01*
G01X236246Y-83693D02*
X235776Y-83378D01*
X235228Y-83168D01*
X234601D01*
X233896Y-83483D01*
X233348Y-84008D01*
X232956Y-84638D01*
X232643Y-85688D01*
X232565Y-86633D01*
X232721Y-87578D01*
X232956Y-88208D01*
X233426Y-88838D01*
X233975Y-89258D01*
X234523Y-89468D01*
X235071D01*
X235620Y-89258D01*
X236090Y-88943D01*
X236481Y-88523D01*
G01X240823Y-89468D02*
Y-86633D01*
X239256Y-83168D01*
G01X242390D02*
X240823Y-86633D01*
G54D45*
G01X19620Y106043D02*
X21395D01*
G01X13320Y111161D02*
X14600Y112441D01*
X14895D01*
G01X61796Y184190D02*
X66096D01*
G01D02*
X70300D01*
G01D02*
X74596D01*
G01D02*
X78772D01*
G01D02*
X82929D01*
G01D02*
X87170D01*
G01D02*
X91471D01*
G01X114600Y177600D02*
X112711Y179489D01*
Y182310D01*
X110831Y184190D01*
X91471D01*
G54D36*
X179311Y25200D03*
Y36820D03*
G54D18*
X19620Y88130D03*
X16470D03*
X13320D03*
X10171D03*
X7021D03*
X19620Y90689D03*
X16470D03*
X13320D03*
X10171D03*
X7021D03*
X19620Y93248D03*
X16470D03*
X13320D03*
X10171D03*
X7021D03*
X19620Y95807D03*
X16470D03*
X13320D03*
X10171D03*
X7021D03*
X19620Y98366D03*
X16470D03*
X13320D03*
X10171D03*
X7021D03*
X19620Y100925D03*
X16470D03*
X13320D03*
X10171D03*
X7021D03*
X19620Y103484D03*
X16470D03*
X13320D03*
X10171D03*
X7021D03*
X19620Y106043D03*
X16470D03*
X13320D03*
X10171D03*
X7021D03*
X19620Y108602D03*
X16470D03*
X13320D03*
X10171D03*
X7021D03*
X19620Y111161D03*
X16470D03*
X13320D03*
X10171D03*
X7021D03*
X19620Y118839D03*
X16470D03*
X13320D03*
X10171D03*
X7021D03*
X19620Y121398D03*
X16470D03*
X13320D03*
X10171D03*
X7021D03*
X19620Y123957D03*
X16470D03*
X13320D03*
X10171D03*
X7021D03*
X19620Y126516D03*
X16470D03*
X13320D03*
X10171D03*
X7021D03*
X19620Y129075D03*
X16470D03*
X13320D03*
X10171D03*
X7021D03*
X19620Y131634D03*
X16470D03*
X13320D03*
X10171D03*
X7021D03*
X19620Y134193D03*
X16470D03*
X13320D03*
X10171D03*
X7021D03*
X19620Y136752D03*
X16470D03*
X13320D03*
X10171D03*
X7021D03*
X19620Y139311D03*
X16470D03*
X13320D03*
X10171D03*
X7021D03*
X19620Y141870D03*
X16470D03*
X13320D03*
X10171D03*
X7021D03*
X38517Y88130D03*
X35368D03*
X32218D03*
X29068D03*
X38517Y90689D03*
X35368D03*
X32218D03*
X29068D03*
X38517Y93248D03*
X35368D03*
X32218D03*
X29068D03*
X38517Y95807D03*
X35368D03*
X32218D03*
X29068D03*
X38517Y98366D03*
X35368D03*
X32218D03*
X29068D03*
X38517Y100925D03*
X35368D03*
X32218D03*
X29068D03*
X38517Y103484D03*
X35368D03*
X32218D03*
X29068D03*
X38517Y106043D03*
X35368D03*
X32218D03*
X29068D03*
X38517Y108602D03*
X35368D03*
X32218D03*
X29068D03*
X38517Y111161D03*
X35368D03*
X32218D03*
X29068D03*
X38517Y118839D03*
X35368D03*
X32218D03*
X29068D03*
X38517Y121398D03*
X35368D03*
X32218D03*
X29068D03*
X38517Y123957D03*
X35368D03*
X32218D03*
X29068D03*
X38517Y126516D03*
X35368D03*
X32218D03*
X29068D03*
X38517Y129075D03*
X35368D03*
X32218D03*
X29068D03*
X38517Y131634D03*
X35368D03*
X32218D03*
X29068D03*
X38517Y134193D03*
X35368D03*
X32218D03*
X29068D03*
X38517Y136752D03*
X35368D03*
X32218D03*
X29068D03*
X38517Y139311D03*
X35368D03*
X32218D03*
X29068D03*
X38517Y141870D03*
X35368D03*
X32218D03*
X29068D03*
X41667Y88130D03*
Y90689D03*
Y93248D03*
Y95807D03*
Y98366D03*
Y100925D03*
Y103484D03*
Y106043D03*
Y108602D03*
Y111161D03*
Y118839D03*
Y121398D03*
Y123957D03*
Y126516D03*
Y129075D03*
Y131634D03*
Y134193D03*
Y136752D03*
Y139311D03*
Y141870D03*
G54D27*
G01X-100127Y-167468D02*
Y-67468D01*
X299873D01*
G01D02*
Y-167468D01*
X-100127D01*
G01X194282Y152208D02*
Y148488D01*
G01Y152208D02*
X189632Y156858D01*
G01D02*
X186782Y159708D01*
X57400Y113100D03*
X61200Y110900D03*
X143700Y110300D03*
X140568Y125624D03*
X128897Y125712D03*
X143480Y130850D03*
X129000Y135500D03*
X134705Y129596D03*
X134800Y135300D03*
X143150Y158703D03*
X133287Y158209D03*
X147450Y119403D03*
X145900Y135900D03*
X186611Y83910D03*
X192211Y80810D03*
G54D55*
G01X70832Y95584D02*
Y95300D01*
X68878Y93346D01*
G54D46*
G01X62800Y121900D02*
X63774Y122874D01*
X66909D01*
G01X68878Y124842D02*
X67908Y125812D01*
X66506D01*
X65587Y124893D01*
X63707D01*
X60900Y127700D01*
G01X68878Y130748D02*
X67881Y131745D01*
X65152D01*
X64791Y132106D01*
X59938D01*
G01X68878Y132716D02*
X67908Y133686D01*
X62614D01*
G01X60369Y132885D02*
X65626D01*
X65795Y132716D01*
X66909D01*
G01X61547Y130546D02*
X64477D01*
X64919Y130104D01*
X65009D01*
X65335Y129778D01*
X68342D01*
X68878Y129242D01*
Y128780D01*
G01X66184Y123543D02*
X66485Y123844D01*
X68468D01*
G01X64624Y131276D02*
X65152Y130748D01*
X66909D01*
G01X62527Y124273D02*
X65994D01*
X66563Y124842D01*
X66909D01*
G01X76752Y138622D02*
X77722Y139592D01*
Y140993D01*
X76580Y142135D01*
G01X78720Y138622D02*
X79690Y139592D01*
Y143240D01*
X78530Y144400D01*
X78100D01*
X75725Y146775D01*
Y147583D01*
G01X54400Y179157D02*
X54024Y179533D01*
X53150D01*
X52850Y179233D01*
Y176852D01*
X51850Y175852D01*
Y168750D01*
X60466Y160134D01*
X72160D01*
X82756Y149538D01*
Y140689D01*
X82658Y140591D01*
G01X54300Y177006D02*
X54277D01*
X52750Y175479D01*
Y169123D01*
X60839Y161034D01*
X72533D01*
X83656Y149911D01*
Y139620D01*
X82658Y138622D01*
G01X84626Y140591D02*
X84715Y140680D01*
Y150674D01*
X72723Y162666D01*
X62334D01*
X56100Y168900D01*
Y178453D01*
X57085Y179438D01*
X58319D01*
X58600Y179157D01*
G01X66286Y115970D02*
X67908D01*
X68878Y115000D01*
G01X66909Y120906D02*
X66719Y120716D01*
X66011D01*
X65445Y120150D01*
X63500D01*
X63200Y119850D01*
Y118900D01*
G01X68878Y120906D02*
X68282D01*
X67312Y119936D01*
X66336D01*
X65200Y118800D01*
G01X61200Y110900D02*
X62809D01*
X66909Y115000D01*
G01X59938Y114322D02*
X61755Y116139D01*
X64707D01*
X66506Y117938D01*
X67908D01*
X68878Y116968D01*
G01X67898Y139949D02*
X68878Y138969D01*
Y138622D01*
G01X72815Y130054D02*
Y129449D01*
X73264Y129000D01*
G01X66909Y140591D02*
Y139994D01*
X67879Y139024D01*
Y137653D01*
X68878Y136654D01*
G01X71816Y141656D02*
Y140224D01*
X71845Y140195D01*
G01X74784Y138622D02*
X73785Y139621D01*
Y140962D01*
G01X67908Y135655D02*
X64651D01*
X63400Y136906D01*
Y138116D01*
X62409Y139107D01*
X61688D01*
G01X66909Y138622D02*
X66631Y138900D01*
X65245D01*
X64609Y139536D01*
Y140069D01*
X65176Y140636D01*
G01X66909Y136654D02*
X65894D01*
X65307Y137241D01*
X65103D01*
G01X84626Y138622D02*
X85624Y139620D01*
Y141802D01*
X85615Y142228D01*
Y151047D01*
X73096Y163566D01*
X62707D01*
X57000Y169273D01*
Y175480D01*
X58502Y176982D01*
Y177008D01*
G01X62925Y177182D02*
X62683D01*
X61200Y175699D01*
Y169774D01*
X64767Y166207D01*
X73593D01*
X87564Y152236D01*
Y140288D01*
X87577Y140275D01*
Y139604D01*
X86594Y138622D01*
G01X88563D02*
X89533Y139592D01*
Y153348D01*
X73812Y169069D01*
X68190D01*
X66150Y171109D01*
Y175716D01*
X67600Y177166D01*
G01X90532Y138622D02*
X91530Y139620D01*
Y154838D01*
X74087Y172281D01*
X72297D01*
X70800Y173778D01*
Y175522D01*
X72500Y177222D01*
Y177270D01*
G01X63000Y179308D02*
X62608D01*
X60300Y177000D01*
Y169401D01*
X64394Y165307D01*
X73220D01*
X86664Y151863D01*
Y140661D01*
X86594Y140591D01*
G01X90532D02*
X90630Y140689D01*
Y154465D01*
X73714Y171381D01*
X71924D01*
X69900Y173405D01*
Y179034D01*
X70476Y179610D01*
X72112D01*
X72356Y179366D01*
G01X88563Y140591D02*
X88633Y140661D01*
Y152975D01*
X73439Y168169D01*
X67817D01*
X65250Y170736D01*
Y178565D01*
X66184Y179499D01*
X67367D01*
X67600Y179266D01*
G01X76800Y179380D02*
X75584D01*
X74150Y177946D01*
Y174199D01*
X92570Y155779D01*
Y140661D01*
X92500Y140591D01*
G01X77722Y88674D02*
Y90408D01*
X76752Y91378D01*
G01X78720D02*
X79690Y90408D01*
Y88554D01*
G01X80689Y91378D02*
X81665Y90402D01*
Y88605D01*
G01X82658Y91378D02*
X83628Y90408D01*
Y88726D01*
G01X85615Y88602D02*
Y90389D01*
X84626Y91378D01*
G01X87593Y88448D02*
Y90380D01*
X86594Y91378D01*
G01X89533Y88671D02*
Y90408D01*
X88563Y91378D01*
G01X91527Y88688D02*
Y90382D01*
X90532Y91378D01*
G01X82658Y95315D02*
X81047D01*
X80861Y95128D01*
G01X82658Y97284D02*
X80924D01*
X80848Y97360D01*
G01X84626Y97284D02*
X86499D01*
X86544Y97238D01*
G01X82658Y99252D02*
X81168D01*
X80888Y99532D01*
G01X84626Y99252D02*
X86405D01*
X86561Y99408D01*
G01X84626Y95315D02*
X86246D01*
X86493Y95068D01*
G01X76752Y97284D02*
X78467D01*
X78607Y97424D01*
G01X76752Y95315D02*
X78217D01*
X78370Y95162D01*
X78582D01*
G01X90532Y97284D02*
X88761D01*
X88746Y97268D01*
G01X90532Y95315D02*
X88961D01*
X88743Y95097D01*
G01X74784Y116968D02*
Y118589D01*
X74573Y118800D01*
G01X75600Y129000D02*
X74752Y129848D01*
Y130248D01*
G01X84626Y130748D02*
X86172D01*
X86446Y130475D01*
G01X84626Y132716D02*
X86475D01*
X86504Y132746D01*
G01X80689Y138622D02*
X81688Y139621D01*
Y144193D01*
X81321Y144560D01*
G01X76752Y132716D02*
X78660D01*
X78700Y132756D01*
G01X82658Y134685D02*
X82418Y134925D01*
X80852D01*
G01X82658Y132716D02*
X81005D01*
X80958Y132763D01*
G01X76752Y134685D02*
X78334D01*
X78572Y134923D01*
G01X90532Y130748D02*
X88958D01*
X88694Y130484D01*
G01X82658Y130748D02*
X80979D01*
X80779Y130548D01*
G01X84626Y134685D02*
X86009D01*
X86378Y135054D01*
G01X90532Y132716D02*
X88831D01*
X88739Y132808D01*
G01X90532Y134685D02*
X88953D01*
X88586Y135052D01*
G01X76708Y177237D02*
X76631D01*
X75050Y175656D01*
Y174572D01*
X93470Y156152D01*
Y139592D01*
X92500Y138622D01*
G01X94468Y140591D02*
X94538Y140661D01*
Y158015D01*
X79350Y173203D01*
Y178191D01*
X80491Y179332D01*
X81800D01*
G01X86900Y179365D02*
X85739D01*
X84450Y178076D01*
Y171978D01*
X96507Y159921D01*
Y140661D01*
X96437Y140591D01*
G01X86900Y177265D02*
X86846D01*
X85350Y175769D01*
Y172351D01*
X92350Y165350D01*
X97407Y160294D01*
Y139592D01*
X96437Y138622D01*
G01X94468D02*
X95438Y139592D01*
Y158388D01*
X80250Y173576D01*
Y175682D01*
X81800Y177232D01*
G01X98406Y138622D02*
X99376Y139592D01*
Y162023D01*
X90050Y171349D01*
Y175617D01*
X91700Y177267D01*
G01X98406Y140591D02*
X98476Y140661D01*
Y161650D01*
X89150Y170976D01*
Y178003D01*
X90512Y179365D01*
X91600D01*
G01X92500Y91378D02*
X93486Y90392D01*
Y82765D01*
G01X102342Y101220D02*
X102233Y101329D01*
Y103068D01*
G01X108248Y99252D02*
Y100980D01*
X108097Y101131D01*
G01X102342Y95315D02*
X103915D01*
X104068Y95162D01*
X104331D01*
G01X100374Y95315D02*
X98764D01*
X98547Y95098D01*
G01X102342Y97284D02*
X104212D01*
X104280Y97352D01*
G01X108248Y97284D02*
X107336D01*
X106615Y98005D01*
G01X108248Y95315D02*
X107019D01*
X106531Y95803D01*
G01X94468Y97284D02*
X96229D01*
X96299Y97214D01*
G01X94468Y99252D02*
X96089D01*
X96219Y99382D01*
G01X94468Y95315D02*
X96040D01*
X96312Y95043D01*
X96334D01*
G01X108248Y116968D02*
Y118757D01*
G01Y113032D02*
Y111518D01*
X107975Y111245D01*
G01X106434Y134685D02*
X108248D01*
G01X100374Y130748D02*
X98769D01*
X98570Y130549D01*
G01X109220Y143019D02*
Y139920D01*
X108248Y138948D01*
Y138622D01*
G01X102342Y132716D02*
X104238D01*
X104270Y132748D01*
G01X92500Y132716D02*
Y134572D01*
G01X94468Y132716D02*
X96313D01*
X96369Y132772D01*
G01X102342Y130748D02*
X104139D01*
X104311Y130576D01*
G01X94468Y130748D02*
X96240D01*
X96387Y130601D01*
G01X100374Y140591D02*
X100472Y140689D01*
Y164028D01*
X94050Y170450D01*
Y178032D01*
X95389Y179371D01*
X96500D01*
G01X100374Y138622D02*
X101372Y139620D01*
Y164402D01*
X94950Y170824D01*
Y175673D01*
X96500Y177223D01*
Y177271D01*
G01X100374Y132716D02*
X98554D01*
X98539Y132732D01*
G01X100374Y134685D02*
X98794D01*
X98578Y134902D01*
G01X115581Y86134D02*
X114673D01*
X113180Y87627D01*
Y90383D01*
X112185Y91378D01*
G01X112141Y82765D02*
Y89365D01*
X112185Y89409D01*
G01X120949Y89596D02*
X120150Y90395D01*
X117105D01*
X116122Y91378D01*
G01X115669Y88384D02*
X115152Y88901D01*
Y90380D01*
X114154Y91378D01*
G01X116122Y93346D02*
X117103Y92365D01*
X120399D01*
X120782Y91982D01*
G01X124520Y90506D02*
X120916D01*
X120044Y91378D01*
X118091D01*
G01X112185Y97284D02*
Y95432D01*
X112165Y95412D01*
G01X119423Y104159D02*
X117121D01*
X116122Y105158D01*
G01X118091Y93346D02*
X120844D01*
X121864Y92326D01*
X124520D01*
G01Y99252D02*
X118091D01*
G01Y95315D02*
X122240D01*
X123401Y94154D01*
X124520D01*
G01X116122Y95315D02*
X117113Y94324D01*
X121144D01*
X122232Y93236D01*
X124520D01*
G01X116122Y97284D02*
X117121Y96285D01*
X120678D01*
G01X119492Y98282D02*
X117092D01*
X116122Y99252D01*
G01X110216Y105158D02*
Y103342D01*
X110217Y103341D01*
G01X119698Y102219D02*
X117092D01*
X116122Y103189D01*
G01X118091Y97284D02*
X124520D01*
G01X112185Y105158D02*
Y103591D01*
X112314Y103462D01*
G01X112185Y107126D02*
Y108693D01*
X112480Y108988D01*
G01X124520Y103189D02*
X118091D01*
G01X110216Y107126D02*
Y108940D01*
X110304Y109028D01*
G01X116122Y101220D02*
X117092Y100250D01*
X119354D01*
G01X119698Y106128D02*
X117120D01*
X116122Y107126D01*
G01X110216Y95315D02*
Y96626D01*
X110300Y96710D01*
Y97060D01*
G01X124520Y109094D02*
X118091D01*
G01X124520Y105158D02*
X118091D01*
G01X119182Y108096D02*
X117120D01*
X116122Y109094D01*
G01X110216Y99252D02*
Y101016D01*
X110376Y101176D01*
G01X112185Y99252D02*
Y100982D01*
X112677Y101474D01*
G01X112185Y122874D02*
X111700Y122389D01*
Y121479D01*
X112153Y121026D01*
X112559D01*
G01X110216Y122874D02*
X110100Y122758D01*
Y121374D01*
X110378Y121096D01*
G01X118091Y113032D02*
X124520D01*
G01X116122Y118937D02*
Y118577D01*
X116761Y117938D01*
X124520D01*
G01X110216Y113032D02*
Y111246D01*
G01X116122Y113032D02*
X117092Y112062D01*
X124520D01*
G01Y111063D02*
X118091D01*
G01X116122D02*
X117121Y110064D01*
X119114D01*
G01X116122Y126811D02*
X117092Y127781D01*
X119025D01*
G01X116122Y124842D02*
X117121Y125841D01*
X118839D01*
G01X116122Y120906D02*
X117092Y119936D01*
X124520D01*
G01X116122Y122874D02*
X117120Y121876D01*
X124520D01*
G01X169708Y130458D02*
Y127831D01*
G01X112185Y116968D02*
Y118373D01*
X112608Y118796D01*
G01X110216Y116968D02*
Y118521D01*
X110435Y118740D01*
G01X110216Y115000D02*
X112001D01*
G01X116122Y116968D02*
X117120Y115970D01*
X124520D01*
G01X160656Y126836D02*
X162829D01*
X163802Y125863D01*
G01X118091Y116968D02*
X124520D01*
G01X164007Y129118D02*
X164801Y128324D01*
Y126833D01*
X165771Y125863D01*
G01X118091Y118937D02*
X124520D01*
G01X166759Y128548D02*
Y126843D01*
X167739Y125863D01*
G01X118091Y120906D02*
X124520D01*
G01X168728Y128718D02*
Y126843D01*
X169708Y125863D01*
G01X118091Y122874D02*
X124520D01*
G01X170678Y130790D02*
Y126861D01*
X171676Y125863D01*
G01X124520Y115000D02*
X118091D01*
G01X110216Y124842D02*
Y126491D01*
X110398Y126673D01*
G01X112185Y113032D02*
Y111609D01*
X112529Y111265D01*
G01X112185Y124842D02*
Y126211D01*
X112581Y126607D01*
G01X124520Y114030D02*
X117092D01*
X116122Y115000D01*
G01Y132716D02*
X117121Y133715D01*
X118570D01*
X118819Y133466D01*
G01X116122Y128780D02*
X117120Y129778D01*
X119577D01*
G01X117761Y147583D02*
X117310Y147132D01*
Y141779D01*
X116122Y140591D01*
G01X116474Y147583D02*
Y142315D01*
X115152Y140993D01*
Y139620D01*
X114154Y138622D01*
G01X124520Y143510D02*
X123309D01*
X118421Y138622D01*
X118091D01*
G01X116122Y136654D02*
X117110Y137642D01*
X118484D01*
X123152Y142310D01*
X124520D01*
G01X112185Y138622D02*
X113184Y139621D01*
Y140993D01*
X114654Y142463D01*
Y147583D01*
G01X112185Y132716D02*
X110224D01*
X110169Y132661D01*
G01X116122Y130748D02*
X117097Y131723D01*
X119045D01*
G01X112185Y130748D02*
Y129110D01*
X112499Y128795D01*
G01X116122Y134685D02*
X117092Y135655D01*
X118594D01*
X119318Y134931D01*
X121196D01*
X124520Y138255D01*
G01X157981Y107014D02*
X158115Y107148D01*
X164411D01*
X164801Y106758D01*
Y105486D01*
X165101Y105186D01*
X170684D01*
X171676Y106178D01*
G01X159859Y104103D02*
X160956Y105200D01*
X162811D01*
X163802Y104209D01*
G01X159859Y104103D02*
X160740Y103222D01*
X162815D01*
X163802Y104209D01*
G01X169708Y106178D02*
X170100Y106570D01*
Y107850D01*
X168258Y109692D01*
X167059D01*
X166512Y109145D01*
X157981D01*
G01X159953Y124076D02*
X161133Y122896D01*
X162804D01*
X163802Y123894D01*
G01X159953Y124076D02*
X160758Y124881D01*
X162815D01*
X163802Y123894D01*
G01X159811Y115322D02*
X160111Y115022D01*
X167178D01*
X168148Y114052D01*
X169708D01*
G54D28*
X66300Y38125D03*
Y46075D03*
G54D37*
X173534Y58057D03*
X169006Y50183D03*
Y52152D03*
Y54120D03*
Y56089D03*
Y58057D03*
X173534Y60026D03*
Y61994D03*
Y63963D03*
X169006Y60026D03*
Y61994D03*
Y63963D03*
Y65931D03*
Y67900D03*
Y69868D03*
Y71837D03*
X188888Y58057D03*
X193416D03*
Y56089D03*
Y54120D03*
Y52152D03*
Y50183D03*
X188888Y60026D03*
Y63963D03*
Y61994D03*
X193416Y71837D03*
Y69868D03*
Y67900D03*
Y65931D03*
Y63963D03*
Y61994D03*
Y60026D03*
G54D19*
X10400Y163300D03*
X41325Y177499D03*
X154742Y191974D03*
G54D56*
G01X91985Y68878D02*
X88563Y72300D01*
Y89409D01*
G54D47*
G01X92500Y97284D02*
Y95436D01*
G54D38*
X178652Y53333D03*
X173534D03*
X178652Y58451D03*
X173534Y68687D03*
X178652D03*
Y63569D03*
X183770Y53333D03*
Y58451D03*
Y68687D03*
X188888D03*
X183770Y63569D03*
G54D29*
G01X-100127Y-147468D02*
X299873D01*
G01X-100127Y-117468D02*
Y-97468D01*
X299873D01*
G01X-50127Y-167468D02*
Y-147468D01*
G01X14100Y33749D02*
Y31800D01*
G01Y41151D02*
Y44500D01*
X13200Y45400D01*
G01X17649Y49300D02*
X15500D01*
G01X11903Y89200D02*
X12250D01*
X13320Y88130D01*
G01X19620D02*
X21395D01*
G01X7021Y93248D02*
X8335Y91934D01*
G01X16470Y88130D02*
X15191Y89409D01*
X14895D01*
G01X13320Y90689D02*
X14600Y89409D01*
X14895D01*
G01X19620Y90689D02*
X21395D01*
G01X16470Y111161D02*
X15191Y109882D01*
G01X17800Y94502D02*
X18366D01*
X19620Y93248D01*
G01X16470Y95807D02*
X17775Y94502D01*
X17800D01*
G01X10171Y95807D02*
X11761Y94217D01*
G01X15191Y109882D02*
X14600D01*
X13320Y108602D01*
G01Y103484D02*
X11814Y104990D01*
G01X10171Y95807D02*
X8891Y97087D01*
X8596D01*
G01X7021Y98366D02*
X8300Y97087D01*
X8596D01*
G01X7021Y108602D02*
X8301Y109882D01*
X8596D01*
G01X10171Y111161D02*
X8892Y109882D01*
X8596D01*
G01X19620Y98366D02*
X21395D01*
G01X7021Y103484D02*
X8353Y102152D01*
G01X21395Y103484D02*
X19620D01*
G01X16470D02*
X15066Y104888D01*
X14938D01*
G01X7021Y100925D02*
X8246Y99700D01*
X8500D01*
G01X21395Y100925D02*
X19620D01*
G01X21395Y95807D02*
X19620D01*
G01X13320Y100925D02*
X11745Y102205D01*
G01X7021Y106043D02*
X8271Y104793D01*
X8282D01*
G01X7021Y95807D02*
X8328Y94500D01*
X8600D01*
G01X16470Y118839D02*
X15350Y119959D01*
X14759D01*
G01D02*
X13320Y121398D01*
G01X10171Y126516D02*
Y126529D01*
X11800Y128158D01*
G01X13320Y126516D02*
X11745Y124941D01*
Y124780D01*
G01X10171Y118839D02*
X11726Y117284D01*
G01X7021Y121398D02*
X8277Y120142D01*
G01X7021Y126516D02*
X8369Y125168D01*
G01X19620Y126516D02*
X21084D01*
X23700Y123900D01*
G01X16470Y126516D02*
X16084D01*
X14800Y127800D01*
G01X21388Y123799D02*
X21230Y123957D01*
X19620D01*
G01X13320Y118839D02*
X14600Y117559D01*
X14895D01*
G01X8349Y122779D02*
X8114Y123014D01*
X7964D01*
X7021Y123957D01*
G01Y118839D02*
X8277Y117583D01*
G01X7021Y111161D02*
X8139Y112279D01*
X8400D01*
G01X22000Y142200D02*
X21600Y141800D01*
X19690D01*
X19620Y141870D01*
G01X11733Y135464D02*
X11442D01*
X10171Y134193D01*
G01X11347Y143200D02*
X12677Y141870D01*
X13320D01*
G01Y129075D02*
X12403Y128158D01*
X11800D01*
G01X17852Y135498D02*
X17775D01*
X16470Y134193D01*
G01X7021Y131634D02*
X8300Y132913D01*
X8596D01*
G01X10171Y134193D02*
X8891Y132913D01*
X8596D01*
G01X19620Y131634D02*
X20737D01*
X21303Y132200D01*
G01X19620Y136752D02*
X19106D01*
X17852Y135498D01*
G01X8500Y138000D02*
X8269D01*
X7021Y136752D01*
G01Y129075D02*
X8348Y127748D01*
G01X21395Y129075D02*
X19620D01*
G01X21395Y134213D02*
X21375Y134193D01*
X19620D01*
G01Y139311D02*
X21800D01*
G01X7021Y134193D02*
X8415Y135587D01*
Y135653D01*
G01X16470Y141870D02*
X15191Y140591D01*
X14895D01*
G01X13320Y139311D02*
X14600Y140591D01*
X14895D01*
G01X35368Y88130D02*
X35779D01*
X36812Y89163D01*
G01X29068Y88130D02*
X27293D01*
G01X35368Y90689D02*
X34117Y89438D01*
X34108D01*
G01D02*
X33684Y89014D01*
X33102D01*
X32218Y88130D01*
G01X29068Y90689D02*
X27293D01*
G01X32218Y95807D02*
X31562D01*
X30510Y94755D01*
Y94690D01*
G01D02*
X29068Y93248D01*
G01X36941Y109882D02*
X37238D01*
X38517Y111161D01*
G01X35368Y103484D02*
X36489Y102363D01*
X36798D01*
G01X38517Y95807D02*
X39796Y94528D01*
X40092D01*
G01X29068Y98366D02*
X27293D01*
G01X35368Y108602D02*
X36648Y109882D01*
X36941D01*
G01X29068Y103484D02*
X27293D01*
G01X32218D02*
X33402Y102300D01*
X33700D01*
G01X34112Y109905D02*
X35368Y111161D01*
G01X29068Y106043D02*
X27293D01*
G01X29068Y95807D02*
X27100D01*
G01X29068Y100925D02*
X27100D01*
G01X35368D02*
X36647Y99646D01*
X36942D01*
G01X35368Y121398D02*
X36648Y120118D01*
X36890D01*
X36900Y120108D01*
G01D02*
X37248D01*
X38517Y118839D01*
G01X35368Y126516D02*
X36567Y125317D01*
X36935D01*
G01X30776Y117624D02*
X31991Y118839D01*
X32218D01*
G01X30800Y110093D02*
X31150D01*
X32218Y111161D01*
G01X29068Y126516D02*
X27029D01*
X27000Y126487D01*
G01X32218Y126516D02*
X30939Y127795D01*
X30643D01*
G01X29068Y123957D02*
X28711Y123600D01*
X26900D01*
G01X35368Y118839D02*
X36648Y117559D01*
X36942D01*
G01X29068Y141870D02*
X27730D01*
X27200Y142400D01*
G01X38517Y134193D02*
X36883Y132559D01*
G01X29068Y129075D02*
X30663Y130670D01*
Y130777D01*
G01X32218Y134193D02*
X31061Y135350D01*
X30470D01*
G01X29068Y131634D02*
X28602Y132100D01*
X27100D01*
X27000Y132200D01*
G01X35368Y141870D02*
X35834D01*
X36936Y140768D01*
G01X40300Y135331D02*
X39987D01*
X39835Y135179D01*
X39503D01*
X38517Y134193D01*
G01X30470Y135350D02*
X29068Y136752D01*
G01X35368Y129075D02*
X36867Y127576D01*
G01X32218Y141870D02*
X33087Y141001D01*
X33789D01*
G01X35368Y139311D02*
Y139422D01*
X33789Y141001D01*
G01X29068Y139311D02*
X27100D01*
G01X29068Y134193D02*
X27709D01*
X27292Y134610D01*
G01X38000Y167300D02*
Y163600D01*
G01Y167300D02*
Y171000D01*
G01Y167300D02*
X41700D01*
G01X38000D02*
X34300D01*
G01X58005Y23295D02*
X57149Y24151D01*
X55800D01*
G01X56100Y38600D02*
X60200Y34500D01*
X65100D01*
X65476Y34124D01*
Y32200D01*
G01X52983Y33639D02*
X57561D01*
X59000Y32200D01*
X62524D01*
G01X43617Y108784D02*
X43435Y108602D01*
X41667D01*
G01Y100925D02*
X41857Y100735D01*
X44000D01*
G01X41667Y98366D02*
X43635D01*
G01X41667Y93248D02*
X40387Y94528D01*
X40092D01*
G01X43600Y103484D02*
X41667D01*
G01Y106043D02*
X43475D01*
X43646Y106214D01*
G01X41667Y95807D02*
X43635D01*
G01X43627Y121028D02*
X43257Y121398D01*
X41667D01*
G01Y126516D02*
X43572D01*
X43646Y126442D01*
G01X43715Y111304D02*
X43625D01*
X43482Y111161D01*
X41667D01*
G01Y123957D02*
X43475D01*
X43646Y123786D01*
G01X41667Y118839D02*
X43482D01*
X43694Y118627D01*
G01X41667Y131634D02*
X43635D01*
X43789Y131788D01*
G01X41667Y134193D02*
X43393D01*
X43900Y134700D01*
G01X41667Y136752D02*
X40300Y135385D01*
Y135331D01*
G01X41667Y129075D02*
X43635D01*
G01X67249Y22100D02*
Y23051D01*
X66249Y24051D01*
G01X60400Y24151D02*
X58861D01*
X58005Y23295D01*
G01X64400Y24051D02*
X66249D01*
G01X73084Y93346D02*
X72638Y92900D01*
X71900D01*
X70846Y91846D01*
Y91378D01*
G01X65209Y89409D02*
X66909D01*
G01X74784Y93346D02*
X73084D01*
G01X70832Y95584D02*
X73070Y93346D01*
X73084D01*
G01X70846Y97284D02*
X70832Y97270D01*
Y95584D01*
G01X70846Y99252D02*
Y97284D01*
G01X71711Y103610D02*
Y100811D01*
X70846Y99946D01*
Y99252D01*
G01X70663Y109046D02*
Y111200D01*
G01X70846Y107126D02*
Y108557D01*
X70697Y108706D01*
Y108861D01*
X70675Y108883D01*
Y109034D01*
X70663Y109046D01*
G01X70846Y105158D02*
Y107126D01*
G01X68878Y103189D02*
X71290D01*
X71711Y103610D01*
G01X70846Y105158D02*
Y104475D01*
X71711Y103610D01*
G01X70846Y124842D02*
Y122874D01*
G01Y116968D02*
Y115000D01*
G01D02*
Y113032D01*
G01D02*
X70663Y112849D01*
Y111200D01*
G01X70585Y120846D02*
Y121013D01*
X70846Y121274D01*
Y122874D01*
G01Y116968D02*
Y118527D01*
X70573Y118800D01*
G01D02*
X70700Y118927D01*
Y120731D01*
X70585Y120846D01*
G01X68878Y126811D02*
X71214D01*
G01D02*
Y128799D01*
X71095Y128918D01*
G01X71214Y126811D02*
Y125210D01*
X70846Y124842D01*
G01X72800Y114900D02*
X74684D01*
X74784Y115000D01*
G01X70846Y138622D02*
X70688Y138464D01*
Y136802D01*
G01D02*
X72889D01*
X72922Y136835D01*
G01X70742Y134570D02*
X70846Y134466D01*
G01D02*
Y136644D01*
X70688Y136802D01*
G01X70846Y134466D02*
Y132716D01*
G01X68878Y136654D02*
X70540D01*
X70688Y136802D01*
G01X74784Y136654D02*
X73103D01*
X72922Y136835D01*
G01X70846Y132716D02*
Y130748D01*
G01D02*
Y129167D01*
X71095Y128918D01*
G01X75373Y-167468D02*
Y-147468D01*
G01X74873Y-97468D02*
Y-67468D01*
G01X74784Y93346D02*
X76752D01*
G01X84626Y101220D02*
X87155D01*
X87361Y101426D01*
G01X88563Y109094D02*
Y111063D01*
G01X78635Y108909D02*
Y111215D01*
X78720Y111300D01*
G01X90532Y103189D02*
Y101220D01*
G01X78635Y108909D02*
X78720Y108824D01*
Y107126D01*
G01X90532Y101220D02*
X87567D01*
X87361Y101426D01*
G01X87615Y93209D02*
X87605Y93219D01*
X84754D01*
X84626Y93346D01*
G01X76752D02*
X76990Y93108D01*
X79667D01*
X79763Y93204D01*
G01X82658Y93346D02*
X82657D01*
X82515Y93204D01*
X79763D01*
G01X84626Y93346D02*
X82658D01*
G01X90532D02*
X90404Y93219D01*
X87625D01*
X87615Y93209D01*
G01X92500Y93346D02*
X90532D01*
G01X78720Y107126D02*
Y105158D01*
G01X84626Y103189D02*
X86208D01*
X86401Y103382D01*
G01X90532Y99252D02*
X88978D01*
X88760Y99470D01*
G01X88563Y105158D02*
Y103380D01*
X88571Y103372D01*
G01X84626Y109094D02*
Y105158D01*
G01X86594Y109094D02*
X84626D01*
G01D02*
Y110896D01*
X84451Y111071D01*
G01X80689Y107126D02*
Y108826D01*
G01X86594Y115117D02*
X86725Y114986D01*
G01X78720Y124842D02*
X78450Y125112D01*
Y127004D01*
G01D02*
X78405Y127049D01*
Y128465D01*
X78720Y128780D01*
G01X90532Y126811D02*
X92211D01*
X92400Y127000D01*
G01X88563Y111063D02*
X86822D01*
X86765Y111006D01*
G01X88563Y118937D02*
X86655D01*
G01X88563Y116968D02*
Y118937D01*
G01X90532Y115000D02*
X92434D01*
X92515Y114919D01*
G01X78720Y113032D02*
Y111300D01*
G01Y116968D02*
Y118780D01*
X78600Y118900D01*
G01X88563Y118937D02*
Y120906D01*
G01Y111063D02*
Y113032D01*
G01X78720Y124842D02*
Y122874D01*
G01X78600Y118900D02*
Y121082D01*
X78720Y121202D01*
Y122874D01*
G01X80892Y126665D02*
X81657D01*
X82658Y127666D01*
Y128780D01*
G01X84626Y126811D02*
X86289D01*
X86400Y126700D01*
G01X86594Y124842D02*
X88563D01*
G01D02*
Y126463D01*
X88700Y126600D01*
G01X90532Y124842D02*
X88563D01*
G01X84626Y113032D02*
Y111246D01*
X84451Y111071D01*
G01X88563Y115000D02*
X86739D01*
X86725Y114986D01*
G01X86594Y113032D02*
Y114855D01*
X86725Y114986D01*
G01X84626Y120906D02*
Y119142D01*
X84483Y118999D01*
G01X84626Y116968D02*
Y118856D01*
X84483Y118999D01*
G01X82658Y115000D02*
X84626Y116968D01*
G01X82658Y115000D02*
X84626Y113032D01*
G01X80689Y116968D02*
Y118732D01*
G01X78720Y115000D02*
X76900D01*
G01X90532Y128780D02*
X90366Y128614D01*
X87592D01*
G01X79734Y136791D02*
X82520D01*
X82658Y136654D01*
G01Y128780D02*
X84626D01*
G01X79734Y136791D02*
X76889D01*
X76752Y136654D01*
G01D02*
X74784D01*
G01X82658D02*
X84626D01*
G01D02*
X84996Y137024D01*
X87391D01*
G01X90532Y136654D02*
X90162Y137024D01*
X87391D01*
G01X92500Y136654D02*
X90532D01*
G01X78720Y128780D02*
X82658D01*
G01X84626D02*
X84792Y128614D01*
X87592D01*
G01X78720Y128780D02*
Y130475D01*
X78452Y130743D01*
G01X99700Y34500D02*
Y38772D01*
X99891Y38963D01*
G01X100374Y101220D02*
X100096Y101498D01*
G01D02*
X97331D01*
X97231Y101398D01*
G01X106280Y105158D02*
X104654Y103532D01*
G01D02*
Y103166D01*
G01X96437Y109094D02*
Y111063D01*
G01X100374Y103189D02*
X102112D01*
X102233Y103068D01*
G01X106280Y101220D02*
Y101540D01*
X104654Y103166D01*
G01X100374Y101220D02*
X102342D01*
G01X97446Y93161D02*
X94654D01*
X94468Y93346D01*
G01X97231Y101398D02*
X94646D01*
X94468Y101220D01*
G01X105391Y93237D02*
X102451D01*
X102342Y93346D01*
G01X94468D02*
X92500D01*
G01X100374D02*
X100189Y93161D01*
X97446D01*
G01X102342Y93346D02*
X100374D01*
G01X108248D02*
X108136Y93237D01*
X105391D01*
G01X110216Y93346D02*
X108248D01*
G01X106280Y107126D02*
X106038Y107367D01*
Y110075D01*
G01X106280Y105158D02*
Y107126D01*
G01X108248Y105158D02*
Y103659D01*
X107952Y103363D01*
G01X98295Y107126D02*
X96437D01*
G01Y105158D02*
Y103518D01*
X96264Y103345D01*
G01X94468Y103189D02*
X92524D01*
X92413Y103300D01*
G01X92500Y101220D02*
X92413Y101307D01*
Y103300D01*
G01X108248Y107126D02*
Y108905D01*
X108134Y109019D01*
G01X98406Y105158D02*
Y103314D01*
X98434Y103286D01*
G01X102342Y111063D02*
Y109094D01*
G01X104311Y107126D02*
Y108785D01*
X104174Y108922D01*
G01X102342Y109094D02*
X104002D01*
X104174Y108922D01*
G01X102342Y107126D02*
Y109094D01*
G01X98406D02*
X100374D01*
G01D02*
X100525Y109245D01*
Y111043D01*
G01X92400Y127000D02*
X92500Y127100D01*
X94179D01*
X94468Y126811D01*
G01X96437Y111063D02*
X98182D01*
X98251Y110994D01*
G01X94468Y115000D02*
X92596D01*
X92515Y114919D01*
G01X96437Y118937D02*
X98041D01*
X98229Y119125D01*
G01X96437Y116968D02*
Y118937D01*
G01Y111063D02*
Y113032D01*
G01Y118937D02*
Y120906D01*
G01X104311Y113032D02*
X106280D01*
G01X104311Y122874D02*
X106280D01*
G01D02*
Y124842D01*
G01Y115000D02*
Y116968D01*
G01Y113032D02*
Y112087D01*
X106038Y111845D01*
Y110075D01*
G01X106280Y115000D02*
Y113032D01*
G01Y122874D02*
X106115Y122709D01*
Y119906D01*
G01X106280Y124842D02*
X104123Y126999D01*
Y128262D01*
G01X106280Y128780D02*
Y124842D01*
G01X100374Y126811D02*
Y128780D01*
G01X106280Y116968D02*
X106115Y117133D01*
Y119906D01*
G01X102342Y115000D02*
Y116968D01*
G01Y115000D02*
X104292D01*
X104367Y115075D01*
G01X102342Y116968D02*
X104311D01*
G01X102342Y113032D02*
Y115000D01*
G01X104311Y116968D02*
X104367Y116912D01*
Y115075D01*
G01X102342Y122874D02*
Y123677D01*
X103342Y124677D01*
X103410D01*
G01X102342Y120906D02*
X104131D01*
X104172Y120947D01*
G01X102342Y118937D02*
Y120906D01*
G01X108248Y122874D02*
Y121028D01*
X108209Y120989D01*
G01X94468Y124842D02*
X96297Y126671D01*
X96351D01*
G01X108248Y124842D02*
Y126608D01*
X108228Y126628D01*
G01X96437Y115000D02*
X94468Y116968D01*
G01Y120906D02*
Y122874D01*
G01Y118937D02*
Y120906D01*
G01Y116968D02*
Y118937D01*
G01X100374Y113032D02*
X100525Y112881D01*
Y111043D01*
G01X100495Y115034D02*
X98287D01*
X98242Y115079D01*
G01X98406Y113032D02*
X98242Y113196D01*
Y115079D01*
G01X98406Y116968D02*
X98242Y116804D01*
Y115079D01*
G01X100374Y113032D02*
X100495Y113153D01*
Y115034D01*
G01X96437Y115000D02*
X96516Y115079D01*
X98242D01*
G01X100374Y116968D02*
X100495Y116847D01*
Y115034D01*
G01X98406Y120906D02*
X100374D01*
G01D02*
X100393Y120887D01*
Y118955D01*
G01X100374Y116968D02*
Y118936D01*
X100393Y118955D01*
G01X94468Y128780D02*
X94650Y128598D01*
X97507D01*
G01X100374Y128780D02*
X99477D01*
X99295Y128598D01*
X97507D01*
G01X97422Y136885D02*
X94700D01*
X94468Y136654D01*
G01X97422Y136885D02*
X97529Y136778D01*
X100250D01*
X100374Y136654D01*
G01X104123Y128262D02*
X104641Y128780D01*
X106280D01*
G01X100374D02*
X102342D01*
G01X94468Y136654D02*
X92500D01*
G01X100374D02*
X102342D01*
G01D02*
X102590Y136902D01*
X105235D01*
G01X108248Y136654D02*
X105483D01*
X105235Y136902D01*
G01X110216Y136654D02*
X108248D01*
G01X102342Y128780D02*
X102860Y128262D01*
X104123D01*
G01X94468Y134685D02*
X96149D01*
X96406Y134942D01*
G01X108248Y130748D02*
Y129048D01*
X108100Y128900D01*
G01X124873Y-167468D02*
Y-147468D01*
G01X118091Y89409D02*
X118835D01*
X119712Y88532D01*
G01X112195Y93242D02*
X113855D01*
X114337Y93724D01*
Y94618D01*
G01X114400Y110079D02*
Y107372D01*
X114154Y107126D01*
G01X112195Y93242D02*
X112090Y93346D01*
X110216D01*
G01X114337Y94618D02*
Y97100D01*
X114154Y97284D01*
G01Y107126D02*
Y105158D01*
G01D02*
X114448Y104863D01*
Y102547D01*
X114479Y102516D01*
Y102343D01*
G01X114154Y99252D02*
X114448Y99546D01*
Y100802D01*
X114451Y100805D01*
Y102242D01*
X114479Y102270D01*
Y102343D01*
G01X114154Y97284D02*
Y99252D01*
G01X114504Y127786D02*
Y125192D01*
X114154Y124842D01*
G01X114400Y110079D02*
Y112785D01*
X114154Y113032D01*
G01Y124842D02*
Y122874D01*
G01D02*
X114478Y122550D01*
Y119987D01*
G01X114154Y116968D02*
X114478Y117293D01*
Y119987D01*
G01X114154Y115000D02*
Y116968D01*
G01Y113032D02*
Y115000D01*
G01X114277Y136731D02*
X112079D01*
X111997Y136813D01*
G01X114307Y134503D02*
Y136701D01*
X114277Y136731D01*
G01X114307Y134503D02*
Y132869D01*
X114154Y132716D01*
G01X111997Y136813D02*
X111838Y136654D01*
X110216D01*
G01X118091Y140591D02*
X118660Y141160D01*
Y142284D01*
G01X116122Y138622D02*
X118091Y140591D01*
G01X114154Y132716D02*
Y130748D01*
G01D02*
X114504Y130398D01*
Y127786D01*
G01X138500Y139000D02*
Y142757D01*
X138296Y142961D01*
G01X138500Y139000D02*
X138453Y138953D01*
X135547D01*
X134839Y139661D01*
X132741D01*
G01X128251Y164000D02*
X128217Y163966D01*
Y159615D01*
G01X139714Y161722D02*
X131191D01*
X129084Y159615D01*
X128217D01*
G01X132679Y153785D02*
X131154Y155310D01*
X128540D01*
G01X137824Y168400D02*
Y166100D01*
G01X164391Y70930D02*
X165453Y69868D01*
X169006D01*
G01X156111Y108410D02*
X155284Y109237D01*
X148123D01*
G01X146111Y110310D02*
X147184Y109237D01*
X148123D01*
G01X149547Y125483D02*
X152328D01*
G01X144596Y151623D02*
Y155904D01*
G01Y151623D02*
Y147596D01*
G01X158485Y176390D02*
Y174088D01*
G01X168416Y47624D02*
X163497D01*
G01X169006Y71837D02*
X166706D01*
G01X169006Y67900D02*
X166706D01*
G01X171804Y77103D02*
X172353Y76554D01*
Y74396D01*
G01X179001Y77148D02*
X178802Y76949D01*
Y76690D01*
X178258Y76146D01*
Y74396D01*
G01X168416D02*
X166118D01*
G01X174321Y77040D02*
Y74396D01*
G01X176517Y76907D02*
X176290Y76680D01*
Y74396D01*
G01X170384D02*
Y75733D01*
X169157Y76960D01*
G01X169708Y104209D02*
X169707D01*
X167739Y102241D01*
G01D02*
Y100296D01*
G01X172825Y100281D02*
Y100822D01*
X171676Y101971D01*
Y102241D01*
G01X169708D02*
Y100796D01*
X170257Y100247D01*
G01X165291Y100112D02*
Y100754D01*
X165771Y101234D01*
Y102241D01*
G01X167739Y104209D02*
X165771Y102241D01*
G01X167550Y107995D02*
X167739Y107806D01*
Y106178D01*
G01X169708Y110115D02*
X171483Y108340D01*
G01X167644Y112083D02*
X169708D01*
G01X167707Y116689D02*
X167938D01*
X168607Y116020D01*
X169708D01*
G01X174159Y117626D02*
Y118204D01*
X173645Y118718D01*
Y119957D01*
G01X175613Y110115D02*
Y111548D01*
X175190Y111971D01*
G01X167739Y123894D02*
X169524Y122109D01*
X169683D01*
G01X167855Y118854D02*
X168172D01*
X169037Y117989D01*
X169708D01*
G01X171908Y117626D02*
Y118031D01*
X171676Y118263D01*
Y119957D01*
G01X177582Y110115D02*
Y111900D01*
G01X172538Y122217D02*
X172436Y122319D01*
Y123134D01*
X171676Y123894D01*
G01X172052Y129489D02*
Y129321D01*
X171676Y128945D01*
Y127831D01*
G01X169221Y159199D02*
Y156695D01*
G01Y159199D02*
X172212D01*
X172637Y158774D01*
X173443D01*
G01X166970Y169982D02*
X168994Y172006D01*
Y174535D01*
G01Y176637D02*
X163042D01*
X163040Y176635D01*
G01X193416Y67900D02*
X195716D01*
G01X196011Y72810D02*
X195211D01*
X194238Y71837D01*
X193416D01*
G01X182211Y76696D02*
Y76151D01*
X182195Y76135D01*
Y74396D01*
G01X194006D02*
X194620Y75010D01*
X196011D01*
G01X188888Y61994D02*
X185345D01*
X183770Y63569D01*
G01X188888Y60026D02*
X185345D01*
X183770Y58451D01*
G01X193416Y69868D02*
X195169D01*
X195811Y70510D01*
G01X192211Y80810D02*
X194292D01*
X194502Y80600D01*
G01X181333Y114667D02*
X181306Y114640D01*
X180138D01*
X179550Y114052D01*
G01Y112083D02*
X181202D01*
X181509Y111776D01*
X66909Y89409D03*
X70846Y91378D03*
X74784Y93346D03*
X68878D03*
Y89409D03*
Y91378D03*
X72815D03*
X70846Y89409D03*
X66909Y91378D03*
Y93346D03*
X74784Y91378D03*
Y89409D03*
X72815D03*
X70846Y105158D03*
Y107126D03*
Y97284D03*
Y99252D03*
X68878Y103189D03*
X66909Y101220D03*
Y103189D03*
Y95315D03*
X68878D03*
Y97284D03*
X66909D03*
Y107126D03*
X68878D03*
Y105158D03*
X66909D03*
X68878Y101220D03*
Y99252D03*
X66909D03*
X74784Y105158D03*
Y107126D03*
Y95315D03*
X72815Y97284D03*
X66909Y109094D03*
X68878D03*
X72815Y107126D03*
Y105158D03*
X74784Y99252D03*
X72815D03*
X70846Y113032D03*
Y115000D03*
Y116968D03*
Y122874D03*
Y124842D03*
X68878Y126811D03*
X74784Y115000D03*
X68878D03*
X66909D03*
Y113032D03*
Y126811D03*
Y122874D03*
X68878D03*
Y124842D03*
X66909D03*
X68878Y113032D03*
Y111063D03*
X66909D03*
X74784Y113032D03*
X72815D03*
X66909Y116968D03*
X68878D03*
Y118937D03*
X66909D03*
X74784Y122874D03*
Y116968D03*
X72815D03*
X74784Y124842D03*
X66909Y120906D03*
X68878D03*
X72815Y124842D03*
Y122874D03*
X70846Y130748D03*
Y132716D03*
X74784Y136654D03*
X68878D03*
X70846Y138622D03*
X66909Y140591D03*
Y128780D03*
X68878Y140591D03*
Y138622D03*
Y132716D03*
X66909D03*
X68878Y128780D03*
Y130748D03*
X72815Y138622D03*
X70846Y140591D03*
X66909Y138622D03*
Y136654D03*
Y134685D03*
X68878D03*
X74784Y138622D03*
Y140591D03*
X66909Y130748D03*
X72815Y140591D03*
X74784Y134685D03*
X72815Y132716D03*
X74784Y130748D03*
X72815D03*
X82658Y93346D03*
X76752D03*
X92500D03*
X90532D03*
X84626D03*
Y91378D03*
Y89409D03*
X86594Y91378D03*
Y89409D03*
X88563Y91378D03*
Y89409D03*
X90532Y91378D03*
Y89409D03*
X92500Y91378D03*
Y89409D03*
X82658Y91378D03*
Y89409D03*
X80689Y91378D03*
X76752D03*
Y89409D03*
X80689D03*
X78720Y91378D03*
Y89409D03*
Y107126D03*
X88563Y109094D03*
X78720Y101220D03*
X90532D03*
X84626D03*
X90532Y103189D03*
X78720Y105158D03*
X82658Y101220D03*
X86594Y105158D03*
X88563Y107126D03*
X86594Y109094D03*
X84626Y105158D03*
Y109094D03*
X90532Y107126D03*
Y109094D03*
X92500Y105158D03*
X90532D03*
X92500Y101220D03*
X90532Y99252D03*
X84626Y103189D03*
X88563Y105158D03*
X82658Y107126D03*
X80689D03*
X82658Y109094D03*
Y99252D03*
Y97284D03*
Y95315D03*
X84626Y99252D03*
Y97284D03*
Y95315D03*
X90532Y97284D03*
Y95315D03*
X92500Y97284D03*
X76752D03*
Y95315D03*
Y99252D03*
Y107126D03*
Y105158D03*
X88563Y111063D03*
X78720Y113032D03*
X88563D03*
X90532Y115000D03*
X78720Y116968D03*
X88563D03*
Y118937D03*
Y120906D03*
X78720Y122874D03*
Y124842D03*
X86594Y116968D03*
X92500Y118937D03*
X90532D03*
Y120906D03*
X86594D03*
X90532Y122874D03*
X88563D03*
X90532Y116968D03*
Y126811D03*
X92500Y124842D03*
X86594Y113032D03*
X88563Y115000D03*
X82658D03*
X84626Y124842D03*
Y113032D03*
Y116968D03*
Y120906D03*
X92500Y111063D03*
X90532D03*
Y113032D03*
Y124842D03*
X88563D03*
X86594D03*
X84626Y126811D03*
X82658Y111063D03*
Y113032D03*
X80689D03*
X82658Y116968D03*
X80689D03*
X82658Y118937D03*
Y120906D03*
Y122874D03*
X78720Y115000D03*
X80689Y122874D03*
X76752Y113032D03*
Y116968D03*
Y122874D03*
Y124842D03*
X82658Y128780D03*
X78720D03*
X90532D03*
X84626D03*
X82658Y136654D03*
X76752D03*
X92500D03*
X90532D03*
X84626D03*
X92500Y128780D03*
X76752Y140591D03*
Y132716D03*
X80689Y138622D03*
Y140591D03*
X76752Y138622D03*
Y134685D03*
X78720Y138622D03*
Y140591D03*
X90532Y130748D03*
X92500Y132716D03*
X90532D03*
Y134685D03*
X84626Y130748D03*
Y132716D03*
X82658Y134685D03*
X84626D03*
X82658Y130748D03*
Y132716D03*
X92500Y138622D03*
Y140591D03*
X90532Y138622D03*
Y140591D03*
X88563Y138622D03*
Y140591D03*
X84626Y138622D03*
Y140591D03*
X82658Y138622D03*
Y140591D03*
X86594Y138622D03*
Y140591D03*
X76752Y130748D03*
X110216Y93346D03*
X108248D03*
X102342D03*
X100374D03*
X94468D03*
X110216Y91378D03*
Y89409D03*
X108248Y91378D03*
Y89409D03*
X106280Y91378D03*
Y89409D03*
X104311Y91378D03*
Y89409D03*
X96437D03*
X102342Y91378D03*
Y89409D03*
X100374Y91378D03*
Y89409D03*
X98406Y91378D03*
Y89409D03*
X94468Y91378D03*
Y89409D03*
X96437Y91378D03*
X106280Y105158D03*
Y107126D03*
X96437Y109094D03*
X106280Y101220D03*
X102342D03*
X100374D03*
X94468D03*
X100374Y103189D03*
Y109094D03*
X98406D03*
X94468Y107126D03*
Y109094D03*
X96437Y105158D03*
X94468D03*
X96437Y107126D03*
X94468Y103189D03*
X108248Y107126D03*
X104311D03*
X98406Y105158D03*
X102342Y107126D03*
X100374Y105158D03*
X102342Y109094D03*
X108248Y105158D03*
X110216Y107126D03*
Y99252D03*
Y105158D03*
X94468Y99252D03*
X100374Y95315D03*
X94468Y97284D03*
Y95315D03*
X110216D03*
X108248Y97284D03*
Y95315D03*
X102342Y97284D03*
X108248Y99252D03*
X102342Y95315D03*
Y99252D03*
X100374Y97284D03*
Y99252D03*
X96437Y111063D03*
X106280Y113032D03*
X104311D03*
X96437D03*
X106280Y115000D03*
X94468D03*
X106280Y116968D03*
X96437D03*
Y118937D03*
Y120906D03*
X106280Y122874D03*
X104311D03*
X106280Y124842D03*
X100374Y126811D03*
X102342Y122874D03*
X94468Y126811D03*
X98406Y124842D03*
Y113032D03*
X100374Y120906D03*
Y116968D03*
X94468D03*
Y118937D03*
Y120906D03*
X96437Y122874D03*
X100374Y113032D03*
X94468Y122874D03*
X108248D03*
X96437Y124842D03*
X94468D03*
Y111063D03*
Y113032D03*
X102342Y115000D03*
X104311Y116968D03*
X102342Y113032D03*
X98406Y116968D03*
Y120906D03*
X96437Y115000D03*
X102342Y116968D03*
Y111063D03*
X108248Y124842D03*
X102342Y120906D03*
Y118937D03*
X100374Y124842D03*
X110216D03*
Y113032D03*
X108248D03*
X110216Y116968D03*
Y122874D03*
Y115000D03*
X108248Y116968D03*
X106280Y128780D03*
X102342D03*
X100374D03*
X94468D03*
X110216Y136654D03*
X108248D03*
X102342D03*
X100374D03*
X94468D03*
Y134685D03*
X100374Y130748D03*
X102342D03*
X100374Y134685D03*
Y132716D03*
X94468D03*
Y130748D03*
X100374Y138622D03*
Y140591D03*
X98406Y138622D03*
Y140591D03*
X94468Y138622D03*
Y140591D03*
X96437Y138622D03*
Y140591D03*
X104311Y138622D03*
Y140591D03*
X102342Y138622D03*
Y140591D03*
Y134685D03*
X106280Y138622D03*
Y140591D03*
X110216Y130748D03*
X108248Y132716D03*
X110216Y134685D03*
Y138622D03*
Y140591D03*
X108248Y130748D03*
X102342Y132716D03*
X108248Y134685D03*
Y138622D03*
Y140591D03*
X118091Y89409D03*
X112185Y91378D03*
Y89409D03*
X114154Y91378D03*
Y89409D03*
X116122Y91378D03*
Y89409D03*
X118091Y91378D03*
X116122Y93346D03*
X118091D03*
X114154Y105158D03*
Y107126D03*
Y97284D03*
Y99252D03*
X116122Y97284D03*
Y95315D03*
X118091D03*
Y99252D03*
Y97284D03*
Y101220D03*
X116122Y99252D03*
X112185Y107126D03*
Y99252D03*
Y105158D03*
X116122Y101220D03*
Y105158D03*
X118091D03*
X116122Y109094D03*
X118091D03*
X116122Y103189D03*
X118091D03*
Y107126D03*
X116122D03*
X112185Y97284D03*
X114154Y113032D03*
Y115000D03*
Y116968D03*
Y122874D03*
Y124842D03*
X112185D03*
X116122D03*
Y126811D03*
X118091Y124842D03*
Y126811D03*
X112185Y113032D03*
X116122Y111063D03*
X118091D03*
Y113032D03*
X116122D03*
X118091Y116968D03*
X116122Y115000D03*
Y116968D03*
Y122874D03*
Y120906D03*
Y118937D03*
X112185Y122874D03*
X118091D03*
Y120906D03*
Y118937D03*
Y115000D03*
X112185Y116968D03*
X114154Y130748D03*
Y132716D03*
X116122Y138622D03*
X118091Y140591D03*
X116122Y134685D03*
X114154Y138622D03*
X116122Y140591D03*
X112185Y130748D03*
Y138622D03*
Y132716D03*
Y140591D03*
X114154D03*
X118091Y136654D03*
Y130748D03*
X116122Y132716D03*
X118091D03*
X116122Y130748D03*
X118091Y134685D03*
Y128780D03*
X116122D03*
Y136654D03*
X118091Y138622D03*
X161834Y102241D03*
Y104209D03*
Y106178D03*
Y108146D03*
Y110115D03*
Y112083D03*
Y114052D03*
Y116020D03*
Y117989D03*
Y119957D03*
Y121926D03*
Y123894D03*
Y125863D03*
Y127831D03*
X171676Y110115D03*
X173645Y102241D03*
X179550D03*
Y110115D03*
X173645D03*
X177582Y102241D03*
X175613D03*
X163802D03*
X177582Y104209D03*
X175613D03*
X173645D03*
X171676D03*
X165771D03*
X179550D03*
X177582Y106178D03*
X175613D03*
X173645D03*
X165771D03*
X163802D03*
X179550D03*
X165771Y108146D03*
X163802D03*
X165771Y110115D03*
X163802D03*
X171676Y102241D03*
X167739D03*
X169708Y104209D03*
X163802D03*
X175613Y110115D03*
X169708Y102241D03*
X165771D03*
X167739Y104209D03*
Y106178D03*
X177582Y110115D03*
X169708D03*
Y106178D03*
X171676D03*
X179550Y117989D03*
Y119957D03*
X177582D03*
X165771Y116020D03*
X179550D03*
X175613Y119957D03*
X169708D03*
X173645Y127831D03*
X165771Y112083D03*
X163802D03*
X165771Y114052D03*
X163802D03*
Y116020D03*
X165771Y117989D03*
X163802D03*
X165771Y119957D03*
X163802D03*
X167739Y121926D03*
X165771D03*
X163802D03*
X177582Y123894D03*
X175613D03*
X173645D03*
X169708D03*
X165771D03*
X179550D03*
X177582Y125863D03*
X175613D03*
X173645D03*
X179550D03*
X177582Y127831D03*
X175613D03*
X163802D03*
X179550D03*
X167739Y123894D03*
X169708Y112083D03*
X179550Y114052D03*
X169708Y116020D03*
X173645Y119957D03*
X171676Y127831D03*
X163802Y123894D03*
X171676D03*
X179550Y112083D03*
X169708Y117989D03*
X171676Y119957D03*
X169708Y114052D03*
X171676Y125863D03*
X169708D03*
X167739D03*
X165771D03*
X163802D03*
X169708Y127831D03*
X167739D03*
X165771D03*
X187424Y102241D03*
X185456D03*
X183487D03*
X181519D03*
X187424Y104209D03*
X185456D03*
X183487D03*
X181519D03*
X187424Y106178D03*
X185456D03*
X183487D03*
X181519D03*
X187424Y108146D03*
X185456D03*
X183487D03*
X187424Y110115D03*
X185456D03*
X183487D03*
X187424Y112083D03*
X185456D03*
X183487D03*
X187424Y114052D03*
X185456D03*
X183487D03*
X187424Y116020D03*
X185456D03*
X183487D03*
X187424Y117989D03*
X185456D03*
X183487D03*
X187424Y119957D03*
X185456D03*
X183487D03*
X187424Y121926D03*
X185456D03*
X183487D03*
X187424Y123894D03*
X185456D03*
X183487D03*
X181519D03*
X187424Y125863D03*
X185456D03*
X183487D03*
X181519D03*
X187424Y127831D03*
X185456D03*
X183487D03*
X181519D03*
G54D57*
G01X11747Y122502D02*
X11626D01*
X10171Y123957D01*
G01X19620Y121398D02*
X21375Y119643D01*
G01X11783Y119992D02*
X11577D01*
X10171Y121398D01*
G01X66909Y126811D02*
X66334Y127386D01*
X65357D01*
X64381Y126410D01*
G01X64681Y144365D02*
X66050Y142996D01*
G01X66909Y128780D02*
X66345Y128216D01*
X64968D01*
X64581Y128603D01*
X64248D01*
G54D48*
G01X109540Y8387D02*
Y6387D01*
G01Y9187D02*
X109473Y9237D01*
Y9337D01*
X109540Y9387D01*
X109607Y9337D01*
Y9237D01*
X109540Y9187D01*
G01X112540Y6287D02*
X112473Y6337D01*
Y6437D01*
X112540Y6487D01*
X112607Y6437D01*
Y6337D01*
X112540Y6287D01*
G01X114673Y6387D02*
Y9387D01*
X115540Y6887D01*
X116407Y9387D01*
Y6387D01*
G01X117840D02*
X119240Y9387D01*
G01X117840D02*
X119240Y6387D01*
G01X124540D02*
X124773Y6437D01*
X125040Y6587D01*
X125207Y6837D01*
X125273Y7187D01*
X125207Y7537D01*
X125007Y7837D01*
X124707Y7987D01*
X124373D01*
X124173Y8087D01*
X124007Y8337D01*
X123940Y8687D01*
X124040Y9037D01*
X124273Y9287D01*
X124540Y9387D01*
X124807Y9287D01*
X125040Y9037D01*
X125140Y8687D01*
X125073Y8337D01*
X124907Y8087D01*
X124707Y7987D01*
X124373D01*
X124073Y7837D01*
X123873Y7537D01*
X123807Y7187D01*
X123873Y6837D01*
X124040Y6587D01*
X124307Y6437D01*
X124540Y6387D01*
G01X126673D02*
Y9387D01*
X127540Y6887D01*
X128407Y9387D01*
Y6387D01*
G01X132773D02*
Y9387D01*
X134307Y6387D01*
Y9387D01*
G01X135707Y6387D02*
X136540Y9387D01*
X137373Y6387D01*
G01X137073Y7437D02*
X136007D01*
G01X138773Y6387D02*
Y9387D01*
X140307Y6387D01*
Y9387D01*
G01X142540Y6387D02*
X142273Y6437D01*
X142040Y6637D01*
X141840Y6937D01*
X141707Y7287D01*
X141640Y7687D01*
Y8087D01*
X141707Y8487D01*
X141840Y8837D01*
X142040Y9137D01*
X142273Y9337D01*
X142540Y9387D01*
X142807Y9337D01*
X143040Y9137D01*
X143240Y8837D01*
X143373Y8487D01*
X143440Y8087D01*
Y7687D01*
X143373Y7287D01*
X143240Y6937D01*
X143040Y6637D01*
X142807Y6437D01*
X142540Y6387D01*
G54D39*
X178258Y47624D03*
X176290D03*
X174321D03*
X172353D03*
X170384D03*
X168416D03*
Y74396D03*
X170384D03*
X172353D03*
X174321D03*
X176290D03*
X178258D03*
X194006Y47624D03*
X192038D03*
X190069D03*
X188101D03*
X186132D03*
X184164D03*
X182195D03*
X180227D03*
Y74396D03*
X182195D03*
X184164D03*
X186132D03*
X188101D03*
X190069D03*
X192038D03*
X194006D03*
G54D58*
G01X120600Y177239D02*
X121387Y178026D01*
X123335D01*
X124200Y177161D01*
Y174600D01*
X121400Y171800D01*
X119992D01*
X112750Y164558D01*
Y152750D01*
X108700Y148700D01*
Y144854D01*
X108248Y144402D01*
Y140591D01*
G01X120700Y179337D02*
X121161Y178876D01*
X123688D01*
X125050Y177514D01*
Y174247D01*
X121753Y170950D01*
X120345D01*
X113600Y164205D01*
Y152397D01*
X109550Y148347D01*
Y144500D01*
X109220Y144170D01*
Y143019D01*
G54D49*
G01X38517Y123957D02*
X40046Y122428D01*
Y122300D01*
G01X40092Y120118D02*
X39797D01*
X38517Y121398D01*
G01X66050Y142996D02*
X67889Y141157D01*
Y140812D01*
X67898Y140803D01*
Y139949D01*
G01X66850Y144450D02*
Y143328D01*
X68689Y141489D01*
Y141411D01*
X68878Y141222D01*
Y140591D01*
G01X72815Y140981D02*
Y142269D01*
X71989Y143095D01*
Y144678D01*
X71994Y144683D01*
G01X68586Y146986D02*
X69472Y146100D01*
X70409D01*
X71349Y145160D01*
Y142822D01*
X71816Y142355D01*
G01X73785Y140962D02*
X73791Y140968D01*
Y143582D01*
X73510Y143862D01*
G01X70846Y140591D02*
Y141183D01*
X69915Y142114D01*
G01X75100Y144316D02*
X72268Y147148D01*
Y147474D01*
G54D59*
G01X76700Y147200D02*
X76675Y147225D01*
G01X64468Y114469D02*
X64788Y114789D01*
X65105D01*
X66286Y115970D01*
G01X132174Y18263D02*
Y18430D01*
X130962Y19642D01*
Y21398D01*
G01X78720Y140591D02*
Y142179D01*
X78211Y142688D01*
G01X119025Y127781D02*
X122010D01*
X122300Y127491D01*
G01X118839Y125841D02*
X119906Y124774D01*
X122690D01*
X124357Y126441D01*
X125424D01*
G01X166607Y132110D02*
X167739Y130978D01*
G01X167734Y134210D02*
X169708Y132236D01*
Y130458D01*
G01X157037Y126836D02*
X160656D01*
G01X118091Y124842D02*
X119109Y123824D01*
G01X118091Y126811D02*
X118291Y126611D01*
X119158D01*
X120045Y125724D01*
X122550D01*
G01X165857Y131110D02*
X166759Y130208D01*
G01X167266Y133210D02*
X168728Y131748D01*
G01X167978Y135310D02*
X170678Y132610D01*
Y130790D01*
G01X129196Y132696D02*
X130950Y134450D01*
X131050D01*
G01X129000Y135500D02*
X127926Y134426D01*
X124900D01*
G01X118819Y133466D02*
X123940D01*
X124900Y134426D01*
G01X118091Y130748D02*
X118159Y130816D01*
G01X130935D02*
X131385Y131266D01*
Y131371D01*
G01X118227Y128916D02*
X118091Y128780D01*
G01X119577Y129778D02*
X119665Y129866D01*
G01X132739Y148144D02*
X130917D01*
X129296Y146523D01*
Y145177D01*
X127629Y143510D01*
X125430D01*
G01X125180Y142310D02*
X127774D01*
X130656Y145192D01*
X132739D01*
G01X118091Y134685D02*
X118581D01*
X119030Y134236D01*
X122136D01*
X124524Y136624D01*
X124800D01*
G01X119045Y131723D02*
X119088Y131766D01*
G01X129610D02*
X130769Y132925D01*
X133804D01*
X133970Y133091D01*
G01X140810Y133210D02*
X134089D01*
X133970Y133091D01*
G01X131050Y134450D02*
X131900Y135300D01*
X134800D01*
G01X131385Y131371D02*
X131414Y131400D01*
X132901D01*
X134705Y129596D01*
M02*
