G04 ================== begin FILE IDENTIFICATION RECORD ==================*
G04 Layout Name:  Lay-46441_A.brd*
G04 Film Name:    L4_PWR_1.art*
G04 File Format:  Gerber RS274X*
G04 File Origin:  Cadence Allegro 17.2-S046*
G04 Origin Date:  Wed Sep 04 15:56:31 2019*
G04 *
G04 Layer:  MANUFACTURING/L5*
G04 Layer:  DRAWING FORMAT/FILM_TITLE_BLOCK*
G04 Layer:  BOARD GEOMETRY/OUTLINE*
G04 Layer:  ETCH/L4_PWR_1*
G04 Layer:  PIN/L4_PWR_1*
G04 Layer:  VIA CLASS/L4_PWR_1*
G04 *
G04 Offset:    (0.00 0.00)*
G04 Mirror:    No*
G04 Mode:      Positive*
G04 Rotation:  0*
G04 FullContactRelief:  No*
G04 UndefLineWidth:     8.00*
G04 ================== end FILE IDENTIFICATION RECORD ====================*
%FSLAX55Y55*MOIN*%
%IR0*IPPOS*OFA0.00000B0.00000*MIA0B0*SFA1.00000B1.00000*%
%ADD10C,.016*%
%ADD12C,.018*%
%ADD11C,.2*%
%ADD13C,.01*%
%ADD14C,.02*%
%ADD15C,.008*%
%ADD16C,.006*%
%ADD20C,.02404*%
%ADD19C,.05104*%
%ADD22C,.07004*%
%ADD17C,.02604*%
%ADD18C,.02804*%
%ADD21C,.08406*%
G75*
%LPD*%
G75*
G36*
G01X190007Y197999D02*
G02X198003Y190003I0J-7996D01*
G01Y97338D01*
G02X197307Y97069I-400J0D01*
G03X195412Y95283I-965J-875D01*
G01X195438Y95256D01*
X195498Y95114D01*
X195443Y94977D01*
X195419Y94951D01*
G03X195432Y93196I968J-870D01*
G01X195457Y93169D01*
X195512Y93031D01*
X195457Y92894D01*
X195432Y92867D01*
G03X197317Y91070I954J-886D01*
G02X198003Y90791I286J-280D01*
G01Y74108D01*
X198407Y73704D01*
Y41216D01*
X198003Y40812D01*
Y10003D01*
G02X190007Y2007I-7996J0D01*
G01X10007D01*
G02X2011Y10003I0J7996D01*
G01Y190003D01*
G02X10007Y197999I7996J0D01*
G01X190007D01*
G37*
%LPC*%
G75*
G36*
G01X108805Y191885D02*
G03X109209Y192273I4J400D01*
G02X111800Y192410I1301J-39D01*
G03X111973Y192238I198J26D01*
G02X112378I202J-1293D01*
G03X112549Y192409I-27J198D01*
G02X113687Y190936I1289J-180D01*
G03X113478Y190814I-24J-199D01*
G02X110873Y190819I-1302J132D01*
G03X110664Y190942I-185J-76D01*
G02X110497Y190933I-153J1293D01*
G03X110093Y190545I-4J-400D01*
G02X109768Y189722I-1301J38D01*
G03X109783Y189442I150J-132D01*
G02X107924Y189346I-883J-957D01*
G03X107909Y189626I-150J132D01*
G02X108805Y191885I883J957D01*
G37*
G36*
G01X174008Y27160D02*
Y34764D01*
X187212D01*
X188214Y33763D01*
Y27761D01*
X187612Y27160D01*
X174008D01*
G37*
G36*
G01X169796Y43473D02*
G03X169842Y44033I-261J303D01*
G02X171831Y43871I1074J901D01*
G03X171785Y43311I261J-303D01*
G02X169796Y43473I-1074J-901D01*
G37*
G36*
G01X182667Y43696D02*
G03X182687Y44206I-298J267D01*
G02X184844Y44123I1113J853D01*
G03X184824Y43613I298J-267D01*
G02X182667Y43696I-1113J-853D01*
G37*
G36*
G01X179270Y43825D02*
G03X179230Y44339I-325J233D01*
G02X181368Y44509I997J985D01*
G03X181408Y43995I325J-233D01*
G02X179270Y43825I-997J-985D01*
G37*
G36*
G01X194091Y84672D02*
G03X193812Y84696I-152J-131D01*
G02X193972Y86550I-827J1005D01*
G03X194251Y86526I152J131D01*
G02X194091Y84672I827J-1005D01*
G37*
G36*
G01X194643Y102457D02*
G03X194124Y102500I-285J-281D01*
G02X194287Y104468I-764J1054D01*
G03X194806Y104425I285J281D01*
G02X194643Y102457I764J-1054D01*
G37*
G36*
G01X53331Y177876D02*
G03X53354Y178381I-298J267D01*
G02X55369Y178287I1046J776D01*
G03X55346Y177782I298J-267D01*
G02X53331Y177876I-1046J-776D01*
G37*
G36*
G01X57532D02*
G03X57555Y178381I-298J267D01*
G02X59570Y178289I1045J776D01*
G03X59547Y177784I298J-267D01*
G02X57532Y177876I-1045J-776D01*
G37*
G36*
G01X66669Y178076D02*
G03Y178356I-143J140D01*
G02X66298Y179266I931J910D01*
G02X68902I1302J0D01*
G02X68531Y178356I-1302J0D01*
G03Y178076I143J-140D01*
G02X68902Y177166I-931J-910D01*
G02X66298I-1302J0D01*
G02X66669Y178076I1302J0D01*
G37*
G36*
G01X62039Y178136D02*
G03X62049Y178419I-136J146D01*
G02X63886Y178354I951J889D01*
G03X63876Y178071I136J-146D01*
G02X62039Y178136I-951J-889D01*
G37*
G36*
G01X80869Y178142D02*
G03Y178422I-143J140D01*
G02X80498Y179332I931J910D01*
G02X83102I1302J0D01*
G02X82731Y178422I-1302J0D01*
G03Y178142I143J-140D01*
G02X83102Y177232I-931J-910D01*
G02X80498I-1302J0D01*
G02X80869Y178142I1302J0D01*
G37*
G36*
G01X85969Y178175D02*
G03Y178455I-143J140D01*
G02X85598Y179365I931J910D01*
G02X88202I1302J0D01*
G02X87831Y178455I-1302J0D01*
G03Y178175I143J-140D01*
G02X88202Y177265I-931J-910D01*
G02X85598I-1302J0D01*
G02X85969Y178175I1302J0D01*
G37*
G36*
G01X90727Y178132D02*
G03X90714Y178411I-150J133D01*
G02X92573Y178500I886J954D01*
G03X92586Y178221I150J-133D01*
G02X90727Y178132I-886J-954D01*
G37*
G36*
G01X71509Y178115D02*
G03X71490Y178394I-152J130D01*
G02X73347Y178521I866J972D01*
G03X73366Y178242I152J-130D01*
G02X71509Y178115I-866J-972D01*
G37*
G36*
G01X95569Y178181D02*
G03Y178461I-143J140D01*
G02X95198Y179371I931J910D01*
G02X97802I1302J0D01*
G02X97431Y178461I-1302J0D01*
G03Y178181I143J-140D01*
G02X97802Y177271I-931J-910D01*
G02X95198I-1302J0D01*
G02X95569Y178181I1302J0D01*
G37*
G36*
G01X75733Y178100D02*
G03X75755Y178604I-299J266D01*
G02X77775Y178517I1045J776D01*
G03X77753Y178013I299J-266D01*
G02X75733Y178100I-1045J-776D01*
G37*
G36*
G01X141934Y189466D02*
G03X142023Y189732I-91J178D01*
G02X143790Y189145I1170J570D01*
G03X143701Y188879I91J-178D01*
G02X142102Y187080I-1170J-570D01*
G03X141601Y186857I-132J-378D01*
G02X139899Y186158I-1201J503D01*
G03X139637Y186049I-77J-184D01*
G02X138932Y187742I-1206J491D01*
G03X139194Y187851I77J184D01*
G02X140829Y188589I1206J-491D01*
G03X141330Y188812I132J378D01*
G02X141934Y189466I1201J-503D01*
G37*
G36*
G01X128430Y190229D02*
G03X127908I-261J-302D01*
G02X127057Y189913I-850J986D01*
G02Y192517I0J1302D01*
G02X127908Y192201I1J-1302D01*
G03X128430I261J302D01*
G02X129281Y192517I850J-986D01*
G02Y189913I0J-1302D01*
G02X128430Y190229I-1J1302D01*
G37*
G36*
G01X78261Y191150D02*
G03X78388Y191399I-64J189D01*
G02X80494Y192760I1244J385D01*
G03X80998Y192739I265J300D01*
G02X82942Y192274I778J-1044D01*
G03X83426Y192072I358J178D01*
G02X82670Y190257I410J-1236D01*
G03X82186Y190459I-358J-178D01*
G02X80914Y190719I-410J1236D01*
G03X80410Y190740I-265J-300D01*
G02X80045Y190549I-779J1044D01*
G03X79918Y190300I64J-189D01*
G02X78261Y191150I-1244J-385D01*
G37*
G36*
G01X101291Y191902D02*
G03X101473Y192114I-18J199D01*
G02X102886Y190903I1299J86D01*
G03X102704Y190691I18J-199D01*
G02X101291Y191902I-1299J-86D01*
G37*
G36*
G01X63815Y190908D02*
G03X63831Y191425I-297J268D01*
G02X65817Y191364I1019J810D01*
G03X65801Y190847I297J-268D01*
G02X63815Y190908I-1019J-810D01*
G37*
G36*
G01X88092Y188971D02*
G02X87868Y191176I-792J1033D01*
G03X88432Y191445I174J360D01*
G02X90746Y190374I1268J-296D01*
G03X90784Y190097I161J-119D01*
G02X90819Y190069I-796J-1031D01*
G03X91341Y190079I255J308D01*
G02X91377Y188108I869J-970D01*
G03X90855Y188098I-255J-308D01*
G02X88723Y188751I-869J970D01*
G03X88092Y188971I-388J-97D01*
G37*
G36*
G01X96472Y190741D02*
G02X97603Y192340I-135J1295D01*
G03X98034Y192035I389J93D01*
G02X99270Y190046I135J-1295D01*
G03X99591Y189433I338J-213D01*
G02X99283Y186855I-56J-1301D01*
G03X98822Y186574I-77J-393D01*
G02X96379Y186418I-1250J365D01*
G03X95693Y186498I-366J-160D01*
G02X95845Y187802I-1041J782D01*
G03X96531Y187722I366J160D01*
G02X97824Y188216I1040J-783D01*
G03X98285Y188497I77J393D01*
G02X98434Y188826I1249J-367D01*
G03X98113Y189439I-338J213D01*
G02X96903Y190436I56J1301D01*
G03X96472Y190741I-389J-93D01*
G37*
G36*
G01X60662Y191437D02*
G02X62511Y191224I1029J798D01*
G03X62479Y190946I126J-155D01*
G02X60365Y189429I-1028J-799D01*
G03X59691Y189417I-333J-221D01*
G02X57687Y189155I-1108J683D01*
G03X57403Y189146I-138J-145D01*
G02X55332Y189360I-955J885D01*
G03X54663Y189385I-343J-206D01*
G02X52714Y191091I-1063J752D01*
G03X52727Y191370I-137J146D01*
G02X54586Y191281I973J865D01*
G03X54573Y191002I137J-146D01*
G02X54716Y190808I-972J-866D01*
G03X55385Y190783I343J206D01*
G02X57343Y190976I1063J-752D01*
G03X57627Y190985I138J145D01*
G02X59667Y190819I955J-885D01*
G03X60341Y190831I333J221D01*
G02X60630Y191159I1108J-685D01*
G03X60662Y191437I-126J155D01*
G37*
G36*
G01X70178Y191328D02*
G02X72036Y191317I934J907D01*
G03X72034Y191037I142J-141D01*
G02X72401Y190072I-934J-907D01*
G03X72706Y189665I400J-18D01*
G02X73405Y189228I-305J-1266D01*
G03X74091Y189350I309J254D01*
G02X74165Y189521I1229J-430D01*
G03X73923Y190090I-355J185D01*
G02X75445Y190738I367J1249D01*
G03X75687Y190169I355J-185D01*
G02X74315Y188092I-367J-1249D01*
G03X73629Y187970I-309J-254D01*
G02X71099Y188458I-1229J430D01*
G03X70794Y188865I-400J18D01*
G02X70176Y191048I306J1266D01*
G03X70178Y191328I-142J141D01*
G37*
G36*
G01X19700Y44747D02*
Y60200D01*
X18400Y61500D01*
X12300D01*
X3811Y69989D01*
Y76810D01*
X3011Y77610D01*
Y153217D01*
X6304Y156510D01*
X80222D01*
X86874Y149692D01*
X88997D01*
X112034Y172729D01*
Y178370D01*
X113836Y180172D01*
X119701D01*
G02X121699I999J-835D01*
G01X162322D01*
X182637Y159857D01*
Y112428D01*
X182660Y112384D01*
G02X182811Y111776I-1151J-609D01*
G02X182660Y111168I-1302J1D01*
G01X182637Y111124D01*
Y88427D01*
X183572Y87492D01*
X183669Y87503D01*
G02X183820Y87512I153J-1293D01*
G02X185122Y86210I0J-1302D01*
G02X185113Y86059I-1302J2D01*
G01X185102Y85962D01*
X192076Y78989D01*
X192166Y78995D01*
G02X192258Y78998I92J-1399D01*
G01X192259D01*
G02X193661Y77596I0J-1402D01*
G01Y77595D01*
G02X193658Y77503I-1402J0D01*
G01X193652Y77413D01*
X194433Y76632D01*
X194311Y76510D01*
Y71937D01*
G03X194955Y71620I400J0D01*
G02X195811Y71912I856J-1109D01*
G02Y69108I0J-1402D01*
G02X194955Y69400I0J1401D01*
G03X194311Y69083I-244J-317D01*
G01Y57310D01*
X193258Y56257D01*
X169712D01*
X167911Y54456D01*
Y11610D01*
X160411Y4110D01*
X153011D01*
X152915Y4206D01*
X152717Y4010D01*
X9011D01*
Y31711D01*
X10400Y33100D01*
X13537D01*
X13609Y33113D01*
G02X14100Y33202I492J-1313D01*
G02X14592Y33113I0J-1402D01*
G01X14626Y33100D01*
X18800D01*
X19600Y33900D01*
Y35200D01*
X19700Y35300D01*
Y41557D01*
G02X19240Y42100I805J1148D01*
G03X18684Y42276I-361J-173D01*
G02X18000Y42098I-684J1225D01*
G02Y44902I0J1402D01*
G02X19011Y44471I0J-1401D01*
G03X19700Y44747I289J277D01*
G37*
G54D17*
X39735Y158700D03*
X32281Y159040D03*
X35311Y159417D03*
X43111Y159010D03*
X68021Y190135D03*
X105633Y190088D03*
X102604Y187825D03*
X138950Y191784D03*
X187105Y98689D03*
G54D18*
X195716Y52152D03*
X196158Y63963D03*
X194502Y80600D03*
%LPD*%
G75*
G36*
G01X6718Y155510D02*
X79800D01*
X86163Y148988D01*
Y137459D01*
X86153Y137428D01*
G03X86089Y137025I1238J-403D01*
G01Y137023D01*
G03X86153Y136620I1302J0D01*
G01X86163Y136589D01*
Y136347D01*
X86018Y136305D01*
G03X85076Y135054I360J-1251D01*
G03X85472Y134119I1302J0D01*
G02X85501Y133577I-279J-287D01*
G03X85202Y132747I1003J-830D01*
G01Y132746D01*
G03X85513Y131902I1301J0D01*
G02X85499Y131368I-305J-259D01*
G03X85144Y130475I946J-893D01*
G03X86027Y129242I1302J0D01*
G01X86163Y129196D01*
Y127989D01*
X86021Y127946D01*
G03X85098Y126700I380J-1246D01*
G03X85596Y125676I1302J0D01*
G02X85632Y125079I-247J-314D01*
G01X82711Y122158D01*
Y108962D01*
X86163Y105510D01*
Y104671D01*
X86021Y104627D01*
G03X85099Y103382I380J-1245D01*
G03X85870Y102193I1302J0D01*
G02X86096Y101733I-163J-365D01*
G03X86059Y101426I1265J-308D01*
G01Y101425D01*
G03X86149Y100950I1302J1D01*
G01X86163Y100914D01*
Y100655D01*
X86043Y100602D01*
G03X85259Y99408I517J-1194D01*
G03X85551Y98586I1303J0D01*
G02X85547Y98076I-310J-253D01*
G03X85242Y97239I997J-837D01*
G01Y97238D01*
G03X85522Y96432I1302J1D01*
G02X85510Y95922I-314J-248D01*
G03X85191Y95068I984J-854D01*
G03X86034Y93850I1301J0D01*
G01X86163Y93801D01*
Y93540D01*
X68690Y75910D01*
X55210D01*
X48600Y69300D01*
Y62700D01*
X12890D01*
X9898Y65692D01*
G02X9904Y66263I283J283D01*
G03X10302Y67200I-904J937D01*
G03X9000Y68502I-1302J0D01*
G03X8063Y68104I0J-1302D01*
G02X7492Y68098I-288J277D01*
G01X4611Y70979D01*
Y77710D01*
X4011Y78310D01*
Y139220D01*
G02X4595Y139575I400J0D01*
G03X5146Y139441I552J1068D01*
G01X5147D01*
G03Y141845I0J1202D01*
G01X5146D01*
G03X4595Y141711I1J-1202D01*
G02X4011Y142066I-184J355D01*
G01Y152803D01*
X6718Y155510D01*
G37*
G36*
G01X122001Y179172D02*
X161908D01*
X181637Y159443D01*
Y116366D01*
G02X181260Y115967I-400J0D01*
G03X180031Y114667I73J-1300D01*
G03X180718Y113520I1301J0D01*
G02X180759Y112840I-189J-353D01*
G03X180207Y111776I749J-1064D01*
G03X181447Y110475I1303J0D01*
G02X181637Y110276I-10J-200D01*
G01Y88013D01*
X182723Y86927D01*
X182658Y86797D01*
G03X182518Y86210I1161J-587D01*
G03X183820Y84908I1302J0D01*
G03X184407Y85048I0J1301D01*
G01X184537Y85113D01*
X187826Y81824D01*
G02X187678Y81165I-283J-283D01*
G03X186751Y79883I475J-1319D01*
G02X186391Y79496I-400J11D01*
G03X185129Y78101I140J-1395D01*
G03X186531Y76699I1402J0D01*
G03X187933Y78064I0J1403D01*
G02X188293Y78451I400J-11D01*
G03X188350Y78458I-142J1395D01*
G02X188789Y78178I56J-396D01*
G03X190131Y77183I1342J408D01*
G03X190510Y77235I1J1402D01*
G02X190983Y77016I109J-385D01*
G03X192259Y76194I1276J579D01*
G03X193014Y76414I1J1402D01*
G01X193149Y76501D01*
X193511Y76139D01*
Y58357D01*
X192411Y57257D01*
X185388D01*
G02X185029Y57833I0J400D01*
G03X185172Y58451I-1259J617D01*
G03X182368I-1402J0D01*
G03X182511Y57833I1402J-1D01*
G02X182152Y57257I-359J-176D01*
G01X180270D01*
G02X179911Y57833I0J400D01*
G03X180054Y58451I-1259J617D01*
G03X177250I-1402J0D01*
G03X177393Y57833I1402J-1D01*
G02X177034Y57257I-359J-176D01*
G01X169298D01*
X166981Y54940D01*
Y11880D01*
X160111Y5010D01*
X10011D01*
Y30711D01*
X11200Y31900D01*
X12689D01*
X12701Y31712D01*
G03X14100Y30398I1399J88D01*
G03X15160Y30883I0J1401D01*
G02X15848Y30727I302J-262D01*
G03X17200Y29698I1352J374D01*
G03X18602Y31100I0J1402D01*
G03X18567Y31411I-1402J0D01*
G02X18957Y31900I390J89D01*
G01X22074D01*
X22108Y31887D01*
G03X22600Y31798I492J1313D01*
G03X23092Y31887I0J1402D01*
G01X23126Y31900D01*
X24000D01*
X24900Y31000D01*
Y28000D01*
X30690Y22210D01*
X57117D01*
G03X58893I888J1085D01*
G01X74550D01*
X74607Y22102D01*
G03X77093I1243J648D01*
G01X77150Y22210D01*
X77828D01*
G03X79100Y21398I1272J590D01*
G03X80319Y22108I0J1401D01*
G01X80333Y22132D01*
X80911Y22710D01*
X81197D01*
X81221Y22537D01*
G03X83801I1290J172D01*
G01X83825Y22710D01*
X143311D01*
X154011Y33410D01*
Y37397D01*
X154167Y37432D01*
G03X154707Y37683I-307J1368D01*
G02X155217Y37661I242J-319D01*
G03X156158Y37298I941J1038D01*
G03Y40102I0J1402D01*
G03X155195Y39719I0J-1402D01*
G02X154908Y39731I-138J145D01*
G03X154809Y39832I-1049J-930D01*
G02X154802Y40119I136J147D01*
G03X155202Y41100I-1003J981D01*
G03X154160Y42455I-1402J0D01*
G01X154011Y42495D01*
Y47210D01*
X158211Y51410D01*
Y69410D01*
X163811Y75010D01*
Y98910D01*
X160394Y102327D01*
G02X160484Y102961I282J283D01*
G03X161161Y104103I-625J1142D01*
G03X159859Y105405I-1302J0D01*
G03X158717Y104728I0J-1302D01*
G02X158083Y104638I-351J192D01*
G01X155111Y107610D01*
Y120510D01*
X151511Y124110D01*
Y138827D01*
G02X151995Y139218I400J0D01*
G03X152270Y139189I273J1273D01*
G03Y141793I0J1302D01*
G03X151995Y141764I-2J-1302D01*
G02X151511Y142155I-84J391D01*
G01Y146710D01*
X144302Y153919D01*
G02X144587Y154602I283J283D01*
G01X144596D01*
G03X143294Y155904I0J1302D01*
G01Y155895D01*
G02X142611Y155610I-400J-2D01*
G01X142011Y156210D01*
X129481D01*
G03X127599I-941J-900D01*
G01X122011D01*
X118611Y152810D01*
X110242D01*
X110193Y152939D01*
G03X107761I-1216J-465D01*
G01X107712Y152810D01*
X101911D01*
X95755Y146654D01*
Y142066D01*
X92169Y138481D01*
Y135839D01*
X92040Y135790D01*
G03Y133354I460J-1218D01*
G01X92169Y133305D01*
Y129710D01*
X90737Y128278D01*
Y125884D01*
X90317Y125465D01*
X87883D01*
G02X87535Y126061I0J400D01*
G03X87702Y126700I-1135J638D01*
G03X87684Y126916I-1302J0D01*
G02X87964Y127366I394J67D01*
G03X88894Y128614I-372J1248D01*
G03X88878Y128820I-1302J2D01*
G02X89137Y129260I395J64D01*
G03X89996Y130484I-443J1224D01*
G03X89662Y131355I-1303J0D01*
G02X89673Y131901I298J267D01*
G03X90041Y132808I-934J907D01*
G03X89655Y133733I-1301J0D01*
G02X89620Y134260I282J283D01*
G03X89888Y135052I-1034J791D01*
G03X88948Y136303I-1302J0D01*
G02X88667Y136766I111J384D01*
G03X88693Y137024I-1276J259D01*
G03X87523Y138319I-1302J0D01*
G02X87163Y138717I40J398D01*
G01Y148692D01*
X89411D01*
X113034Y172315D01*
Y177956D01*
X114250Y179172D01*
X119399D01*
X119437Y179021D01*
G03X119727Y178472I1263J316D01*
G02X119714Y178193I-150J-133D01*
G03X119298Y177239I886J-954D01*
G03X119669Y176329I1302J0D01*
G02Y176049I-143J-140D01*
G03X119298Y175139I931J-910D01*
G03X121902I1302J0D01*
G03X121531Y176049I-1302J0D01*
G02Y176329I143J140D01*
G03X121902Y177239I-931J910D01*
G03X121573Y178104I-1302J0D01*
G02X121586Y178383I150J133D01*
G03X121963Y179021I-886J954D01*
G01X122001Y179172D01*
G37*
G36*
G01X31782Y61400D02*
X47200D01*
X50900Y57700D01*
X51025D01*
X51196Y57529D01*
X51112Y57394D01*
G03X50898Y56650I1188J-744D01*
G03X53702I1402J0D01*
G01Y56652D01*
G03X53608Y57156I-1402J-1D01*
G02X53981Y57700I373J144D01*
G01X56400D01*
X57513Y56587D01*
X57525Y56527D01*
G03X57587Y56308I1376J271D01*
G01X57600Y56274D01*
Y28900D01*
X51800Y23100D01*
X31200D01*
X27000Y27300D01*
Y30200D01*
X24600Y32600D01*
X24390D01*
G02X23993Y33044I1J400D01*
G03X24002Y33200I-1393J159D01*
G03X22600Y34602I-1402J0D01*
G03X21635Y34217I0J-1402D01*
G02X21076Y34224I-276J290D01*
G01X20900Y34400D01*
Y39512D01*
G02X21561Y39815I400J0D01*
G03X22475Y39476I914J1063D01*
G03Y42280I0J1402D01*
G01X22472D01*
G03X22344Y42274I2J-1402D01*
G02X21907Y42679I-37J398D01*
G01Y42705D01*
G03X21026Y44007I-1403J0D01*
G01X20900Y44057D01*
Y44962D01*
G02X21589Y45238I400J-1D01*
G03X22600Y44807I1011J970D01*
G03Y47611I0J1402D01*
G03X21589Y47180I0J-1401D01*
G02X20900Y47456I-289J277D01*
G01Y48536D01*
G02X21583Y48818I400J0D01*
G03X22575Y48407I992J992D01*
G03X23977Y49809I0J1402D01*
G03X23070Y51121I-1402J0D01*
G02X22869Y51700I142J374D01*
G03X23068Y52420I-1203J720D01*
G01Y52422D01*
G03X23066Y52505I-1402J8D01*
G02X23393Y52922I399J24D01*
G03X24543Y54301I-252J1379D01*
G03X21739I-1402J0D01*
G03X21741Y54217I1402J-9D01*
G02X21414Y53800I-399J-24D01*
G03X21381Y53794I234J-1382D01*
G02X20900Y54185I-81J392D01*
G01Y60100D01*
X22200Y61400D01*
X28284D01*
G02X28672Y60904I0J-400D01*
G03X28631Y60586I1361J-337D01*
G02X28179Y60195I-400J6D01*
G03X27998Y60207I-183J-1390D01*
G03Y57403I0J-1402D01*
G03X29400Y58786I0J1402D01*
G02X29852Y59177I400J-6D01*
G03X30033Y59165I183J1390D01*
G03X31435Y60567I0J1402D01*
G01Y60568D01*
G03X31394Y60904I-1402J-1D01*
G02X31782Y61400I388J96D01*
G37*
G36*
G01X96949Y110994D02*
G03X98251Y109692I1302J0D01*
G01X98252D01*
G03X98473Y109711I-1J1302D01*
G01X98575Y109729D01*
X99095Y109209D01*
X102476D01*
G02X102875Y108836I0J-400D01*
G03X104174Y107620I1299J86D01*
G03X105411Y108516I0J1302D01*
G02X105849Y108787I380J-125D01*
G03X106038Y108773I190J1288D01*
G03X106415Y108829I-1J1302D01*
G02X106908Y108581I116J-383D01*
G03X108134Y107717I1226J438D01*
G03X108968Y108019I0J1303D01*
G02X109478Y108021I256J-307D01*
G03X110303Y107726I825J1007D01*
G01X110304D01*
G03X111118Y108012I0J1301D01*
G02X111629Y108002I249J-312D01*
G03X111811Y107871I849J987D01*
G01Y104669D01*
X111704Y104613D01*
G03X111376Y104366I610J-1151D01*
G01X111348Y104337D01*
X111203Y104274D01*
X111073Y104323D01*
X111047Y104344D01*
G03X110217Y104643I-830J-1003D01*
G03X109360Y104321I0J-1301D01*
G02X108828Y104326I-263J301D01*
G03X107952Y104665I-876J-962D01*
G03X106650Y103363I0J-1302D01*
G03X107028Y102446I1301J0D01*
G02X107062Y101921I-284J-282D01*
G03X106795Y101131I1035J-790D01*
G03X108097Y99829I1302J0D01*
G01X108098D01*
G03X108988Y100181I0J1302D01*
G02X109523Y100192I274J-291D01*
G03X110376Y99874I853J985D01*
G01X110377D01*
G03X111168Y100142I0J1302D01*
G02X111811Y99825I243J-317D01*
G01Y98349D01*
G02X111150Y98046I-400J0D01*
G03X110300Y98362I-850J-985D01*
G03Y95758I0J-1302D01*
G03X110425Y95764I0J1302D01*
G02X110863Y95377I38J-398D01*
G03X111174Y94568I1302J36D01*
G02X111181Y94058I-305J-259D01*
G03X110893Y93242I1014J-817D01*
G03X111689Y92042I1303J0D01*
G01X111811Y91990D01*
Y90510D01*
X91264Y69963D01*
X91249Y69952D01*
G03X90901Y69600I735J-1075D01*
G01X81215Y59914D01*
X81088Y59973D01*
G03X80501Y60102I-587J-1273D01*
G01X80500D01*
G03X79109Y58875I0J-1402D01*
G01X79087Y58700D01*
X76399D01*
G02X76000Y59078I0J400D01*
G03X73200I-1400J-78D01*
G02X72801Y58700I-399J22D01*
G01X51540D01*
X49440Y60800D01*
Y68940D01*
X55200Y74700D01*
X68899D01*
X86233Y92190D01*
G02X86775Y92214I284J-282D01*
G03X87615Y91907I840J996D01*
G03X88917Y93209I0J1302D01*
G03X88900Y93421I-1302J2D01*
G02X89165Y93865I394J66D01*
G03X90045Y95097I-422J1232D01*
G03X89747Y95926I-1302J0D01*
G02X89748Y96436I308J254D01*
G03X90048Y97267I-1002J831D01*
G01Y97268D01*
G03X89744Y98104I-1301J0D01*
G02X89747Y98621I307J257D01*
G03X90062Y99470I-987J849D01*
G03X88974Y100754I-1302J0D01*
G02X88646Y101214I67J394D01*
G03X88663Y101426I-1285J210D01*
G03X88641Y101662I-1302J-2D01*
G02X88926Y102119I393J72D01*
G03X89873Y103372I-355J1253D01*
G03X89311Y104443I-1301J0D01*
G01Y113375D01*
X90111Y114175D01*
X91447D01*
G03X93583I1068J743D01*
G01X95162D01*
X96061Y113276D01*
Y112243D01*
X96986Y111318D01*
X96968Y111216D01*
G03X96949Y110995I1283J-222D01*
G01Y110994D01*
G37*
G36*
G01X162711Y82576D02*
G02X162296Y82177I-400J1D01*
G03X162245Y82178I-53J-1401D01*
G03X161958Y82148I1J-1402D01*
G02X161506Y82387I-82J392D01*
G03X160211Y83252I-1295J-537D01*
G03Y80448I0J-1402D01*
G03X160498Y80478I-1J1402D01*
G02X160950Y80239I82J-392D01*
G03X162245Y79374I1295J537D01*
G03X162296Y79375I-2J1402D01*
G02X162711Y78976I15J-400D01*
G01Y75410D01*
X158433Y71132D01*
G02X157853Y71148I-282J283D01*
G03X156811Y71612I-1042J-938D01*
G03Y68808I0J-1402D01*
G02X157211Y68408I0J-400D01*
G01Y57360D01*
G02X156656Y56992I-400J1D01*
G03X156150Y57101I-543J-1292D01*
G02X155804Y57681I11J400D01*
G03X155953Y58310I-1253J629D01*
G03X154551Y59712I-1402J0D01*
G01X154550D01*
G03X153635Y59372I0J-1402D01*
G02X153091Y59392I-261J303D01*
G03X152100Y59802I-991J-993D01*
G03Y56998I0J-1402D01*
G01X152101D01*
G03X153016Y57338I0J1402D01*
G02X153560Y57318I261J-303D01*
G03X154512Y56909I990J992D01*
G02X154858Y56329I-11J-400D01*
G03X154709Y55700I1253J-629D01*
G03X156111Y54298I1402J0D01*
G01X156112D01*
G03X156656Y54408I0J1402D01*
G02X157211Y54040I155J-369D01*
G01Y52010D01*
X156928Y51727D01*
G02X156346Y51743I-283J282D01*
G03X155300Y52212I-1046J-932D01*
G03X153898Y50810I0J-1402D01*
G03X154367Y49764I1401J0D01*
G02X154383Y49182I-266J-299D01*
G01X153011Y47810D01*
Y42259D01*
G03X152398Y41100I789J-1159D01*
G03X152745Y40177I1401J0D01*
G02X152758Y39667I-301J-263D01*
G03X152458Y38800I1103J-867D01*
G03X153011Y37684I1403J0D01*
G01Y33910D01*
X142711Y23610D01*
X83452D01*
G03X81570I-941J-900D01*
G01X80244D01*
G03X77956I-1144J-809D01*
G01X76957D01*
G03X75850Y24152I-1107J-859D01*
G03X74799Y23678I0J-1402D01*
G01X74739Y23610D01*
X74620D01*
G02X74227Y24085I0J400D01*
G03X74252Y24347I-1377J264D01*
G01Y24350D01*
G03X71448I-1402J0D01*
G01Y24347D01*
G03X71473Y24085I1402J2D01*
G02X71080Y23610I-393J-75D01*
G01X67950D01*
G02X67551Y24020I1J400D01*
G01Y24051D01*
G03X64947I-1302J0D01*
G01Y24020D01*
G02X64548Y23610I-400J-10D01*
G01X61390D01*
X59000Y26000D01*
Y55392D01*
X59163Y55423D01*
G03X60302Y56800I-263J1377D01*
G03X60291Y56974I-1402J-1D01*
G02X60688Y57424I397J50D01*
G01X79917D01*
X79954Y57408D01*
G03X80499Y57298I544J1292D01*
G01X80500D01*
G03X81902Y58700I0J1402D01*
G03X81895Y58839I-1402J-1D01*
G01X81886Y58934D01*
X90980Y68029D01*
X91121Y67904D01*
G03X91985Y67576I864J974D01*
G03X93287Y68878I0J1302D01*
G03X92959Y69742I-1302J0D01*
G01X92834Y69883D01*
X113261Y90310D01*
Y92494D01*
G03X113481Y93041I-1067J747D01*
G02X113985Y93365I396J-61D01*
G03X114337Y93316I354J1253D01*
G03Y95920I0J1302D01*
G03X113834Y95819I0J-1303D01*
G02X113324Y96006I-154J369D01*
G03X113261Y96115I-1158J-596D01*
G01Y100310D01*
G03X113880Y100976I-584J1164D01*
G02X114120Y101092I185J-76D01*
G03X114479Y101041I361J1251D01*
G03Y103645I0J1302D01*
G03X114068Y103579I-2J-1302D01*
G02X113559Y103841I-127J379D01*
G03X113261Y104356I-1246J-377D01*
G01Y107946D01*
G03X113704Y108544I-781J1042D01*
G02X114155Y108800I376J-137D01*
G03X114397Y108777I244J1279D01*
G01X114400D01*
G03Y111381I0J1302D01*
G03X114214Y111368I-2J-1302D01*
G02X113774Y111646I-58J396D01*
G03X112529Y112567I-1245J-381D01*
G03X111636Y112213I0J-1303D01*
G02X111093Y112208I-274J291D01*
G03X110216Y112548I-877J-961D01*
G01X110215D01*
G03X109358Y112226I0J-1302D01*
G02X108832Y112225I-264J301D01*
G03X107975Y112547I-857J-979D01*
G03X106731Y111630I0J-1302D01*
G02X106276Y111355I-382J118D01*
G03X106038Y111377I-238J-1280D01*
G03X104769Y110365I0J-1302D01*
G01X104733Y110209D01*
X104372D01*
X104358Y110211D01*
G03X104174Y110224I-184J-1289D01*
G03X103990Y110211I0J-1302D01*
G01X103976Y110209D01*
X99909D01*
G02X99519Y110699I0J400D01*
G03X99553Y110994I-1268J296D01*
G03X98251Y112296I-1302J0D01*
G03X97718Y112182I0J-1303D01*
G01X97592Y112126D01*
X97061Y112657D01*
Y113690D01*
X95576Y115175D01*
X93800D01*
X93756Y115314D01*
G03X91274I-1241J-395D01*
G01X91230Y115175D01*
X90311D01*
X88829Y113692D01*
Y113602D01*
X88810Y113583D01*
Y106609D01*
X88311Y106110D01*
X86311D01*
X83711Y108710D01*
Y122210D01*
X86411Y124910D01*
X86766D01*
X87211Y124465D01*
X90731D01*
X91543Y125278D01*
Y125361D01*
G02X92050Y125746I400J0D01*
G03X92400Y125698I350J1254D01*
G03X93702Y127000I0J1302D01*
G03X92923Y128192I-1301J0D01*
G02X92801Y128842I160J367D01*
G01X93169Y129210D01*
Y133455D01*
G03Y135689I-669J1117D01*
G01Y138067D01*
X96511Y141409D01*
Y146310D01*
X102311Y152110D01*
X107719D01*
X107770Y151985D01*
G03X110184I1207J489D01*
G01X110235Y152110D01*
X119011D01*
X122211Y155310D01*
X127226D01*
X127250Y155137D01*
G03X129830I1290J172D01*
G01X129854Y155310D01*
X141811D01*
X150311Y146810D01*
Y123510D01*
X154211Y119610D01*
Y106610D01*
X162711Y98110D01*
Y97752D01*
X162406D01*
X162346Y97838D01*
G03X161278Y98396I-1068J-743D01*
G03Y95792I0J-1302D01*
G03X162068Y96059I0J1302D01*
G02X162711Y95742I243J-318D01*
G01Y82576D01*
G37*
%LPC*%
G75*
G36*
G01X68421Y145695D02*
G02X69888Y146986I165J1291D01*
G02X69760Y146422I-1302J-1D01*
G03X70069Y145852I360J-173D01*
G02X71206Y144561I-164J-1291D01*
G02X70813Y143629I-1302J0D01*
G03X70816Y143054I280J-286D01*
G02X71217Y142114I-901J-940D01*
G02X68613I-1302J0D01*
G02X69006Y143046I1302J0D01*
G03X69003Y143621I-280J286D01*
G02X68602Y144561I901J940D01*
G02X68730Y145125I1302J1D01*
G03X68421Y145695I-360J173D01*
G37*
G36*
G01X10677Y142202D02*
G02X12549Y143200I670J998D01*
G02X12182Y142335I-1203J0D01*
G03X12237Y141715I278J-288D01*
G02X12769Y140717I-670J-998D01*
G02X12218Y139707I-1201J0D01*
G03X12193Y139052I217J-336D01*
G02X12667Y138096I-727J-956D01*
G02X12240Y137177I-1202J0D01*
G03X12307Y136520I258J-306D01*
G02X12935Y135464I-574J-1056D01*
G02X12401Y134465I-1201J0D01*
G03X12368Y133825I223J-332D01*
G02X12802Y132900I-769J-925D01*
G02X12523Y132130I-1202J0D01*
G03X12598Y131548I307J-256D01*
G02X13102Y130569I-699J-979D01*
G02X10698I-1202J0D01*
G02X10977Y131339I1202J0D01*
G03X10902Y131921I-307J256D01*
G02X10398Y132900I699J979D01*
G02X10932Y133899I1201J0D01*
G03X10965Y134539I-223J332D01*
G02X10531Y135464I769J925D01*
G02X10958Y136383I1202J0D01*
G03X10891Y137040I-258J306D01*
G02X10263Y138096I574J1056D01*
G02X10814Y139106I1201J0D01*
G03X10839Y139761I-217J336D01*
G02X10365Y140717I727J956D01*
G02X10732Y141582I1203J0D01*
G03X10677Y142202I-278J288D01*
G37*
G36*
G01X17133Y139692D02*
G02X19032Y140671I697J979D01*
G02X18654Y139796I-1202J0D01*
G03X18697Y139179I275J-291D01*
G02X19202Y138200I-696J-979D01*
G02X18587Y137151I-1202J0D01*
G03X18550Y136476I195J-349D01*
G02X19054Y135498I-697J-978D01*
G02X18627Y134579I-1202J0D01*
G03X18675Y133933I258J-306D01*
G02X19246Y132910I-631J-1023D01*
G02X18759Y131944I-1202J0D01*
G03X18799Y131275I238J-321D01*
G02X19406Y130230I-596J-1045D01*
G02X17002I-1202J0D01*
G02X17489Y131196I1202J0D01*
G03X17449Y131865I-238J321D01*
G02X16842Y132910I596J1045D01*
G02X17269Y133829I1202J0D01*
G03X17221Y134475I-258J306D01*
G02X16650Y135498I631J1023D01*
G02X17265Y136547I1202J0D01*
G03X17302Y137222I-195J349D01*
G02X16798Y138200I697J978D01*
G02X17176Y139075I1202J0D01*
G03X17133Y139692I-275J291D01*
G37*
G36*
G01X14172Y137071D02*
G02X16097Y138031I723J960D01*
G02X15618Y137071I-1202J0D01*
G03Y136432I241J-320D01*
G02X16097Y135472I-723J-960D01*
G02X15706Y134585I-1202J0D01*
G03X15693Y134007I270J-295D01*
G02X16045Y133157I-850J-850D01*
G02X13641I-1202J0D01*
G02X14032Y134044I1202J0D01*
G03X14045Y134622I-270J295D01*
G02X13693Y135472I850J850D01*
G02X14172Y136432I1202J0D01*
G03Y137071I-241J320D01*
G37*
G36*
G01X43095Y130806D02*
G02X44991Y131788I694J982D01*
G02X44367Y130734I-1202J0D01*
G03X44329Y130057I193J-350D01*
G02X44837Y129075I-695J-982D01*
G02X44324Y128090I-1202J0D01*
G03X44327Y127433I229J-327D01*
G02X44848Y126442I-682J-991D01*
G02X42444I-1202J0D01*
G02X42957Y127427I1202J0D01*
G03X42954Y128084I-229J327D01*
G02X42433Y129075I682J991D01*
G02X43057Y130129I1202J0D01*
G03X43095Y130806I-193J350D01*
G37*
G36*
G01X13997Y126905D02*
G02X16002Y127800I803J895D01*
G02X15514Y126833I-1202J0D01*
G03X15485Y126214I238J-321D01*
G02X15884Y125319I-804J-895D01*
G02X13480I-1202J0D01*
G02X13968Y126286I1202J0D01*
G03X13997Y126905I-238J321D01*
G37*
G36*
G01X7643Y126774D02*
G02X9550Y127748I705J974D01*
G02X9069Y126786I-1203J0D01*
G03X9074Y126142I239J-320D01*
G02X9571Y125168I-706J-974D01*
G02X7167I-1202J0D01*
G02X7648Y126130I1203J0D01*
G03X7643Y126774I-239J320D01*
G37*
G36*
G01X36257Y124325D02*
G02X38137Y125317I678J992D01*
G02X37619Y124328I-1203J0D01*
G03X37620Y123669I227J-329D01*
G02X38144Y122677I-677J-992D01*
G02X37644Y121701I-1203J0D01*
G03X37634Y121060I234J-324D01*
G02X38102Y120108I-734J-952D01*
G02X35698I-1202J0D01*
G02X36198Y121084I1203J0D01*
G03X36208Y121725I-234J324D01*
G02X35740Y122677I734J952D01*
G02X36258Y123666I1203J0D01*
G03X36257Y124325I-227J329D01*
G37*
G36*
G01X10901Y123925D02*
G02X12947Y124780I844J855D01*
G02X12591Y123926I-1202J0D01*
G03Y123357I281J-284D01*
G02X12949Y122502I-844J-856D01*
G02X12507Y121571I-1201J0D01*
G03X12516Y120944I253J-310D01*
G02X12985Y119992I-732J-952D01*
G02X12404Y118963I-1202J0D01*
G03X12389Y118286I206J-343D01*
G02X12928Y117284I-662J-1002D01*
G02X10524I-1202J0D01*
G02X11105Y118313I1202J0D01*
G03X11120Y118990I-206J343D01*
G02X10581Y119992I662J1002D01*
G02X11023Y120923I1201J0D01*
G03X11014Y121550I-253J310D01*
G02X10545Y122502I732J952D01*
G02X10901Y123356I1202J0D01*
G03Y123925I-281J284D01*
G37*
G36*
G01X43157Y102366D02*
G02X44802Y103484I443J1118D01*
G02X44343Y102539I-1202J0D01*
G03X44443Y101853I247J-314D01*
G02X45202Y100735I-444J-1118D01*
G02X44651Y99725I-1201J0D01*
G03X44560Y99133I217J-336D01*
G02X44837Y98366I-925J-768D01*
G02X42433I-1202J0D01*
G02X42984Y99376I1201J0D01*
G03X43075Y99968I-217J336D01*
G02X42798Y100735I925J768D01*
G02X43257Y101680I1202J0D01*
G03X43157Y102366I-247J314D01*
G37*
G36*
G01X80996Y103504D02*
G03X81528Y103747I153J370D01*
G02X82764Y104639I1236J-410D01*
G02Y102035I0J-1302D01*
G02X82268Y102133I0J1302D01*
G03X81736Y101890I-153J-370D01*
G02X81384Y101344I-1236J410D01*
G03X81476Y100694I272J-293D01*
G02X82190Y99532I-589J-1162D01*
G02X81875Y98683I-1302J0D01*
G03X81866Y98172I303J-261D01*
G02X82150Y97360I-1019J-812D01*
G02X81836Y96512I-1302J0D01*
G03X81839Y95987I303J-261D01*
G02X82163Y95128I-977J-859D01*
G02X81300Y93902I-1302J0D01*
G03X81042Y93450I135J-376D01*
G02X81065Y93204I-1279J-244D01*
G02X78461I-1302J0D01*
G02X78485Y93455I1302J2D01*
G03X78208Y93915I-392J77D01*
G02X77280Y95162I374J1247D01*
G02X77619Y96038I1301J0D01*
G03X77625Y96570I-296J269D01*
G02X77305Y97424I982J855D01*
G02X78607Y98726I1302J0D01*
G02X79603Y98263I0J-1303D01*
G03X79901Y98254I153J128D01*
G02X79966Y98318I946J-895D01*
G03X79972Y98607I-135J147D01*
G02X79586Y99532I915J925D01*
G02X80004Y100488I1302J0D01*
G03X79912Y101138I-272J293D01*
G02X79198Y102300I589J1162D01*
G02X80500Y103602I1302J0D01*
G02X80996Y103504I0J-1302D01*
G37*
G36*
G01X7638Y101186D02*
G02X9555Y102152I715J966D01*
G02X9178Y101278I-1202J0D01*
G03X9215Y100666I275J-290D01*
G02X9702Y99700I-715J-966D01*
G02X9230Y98745I-1202J0D01*
G03X9254Y98093I243J-317D01*
G02X9798Y97087I-658J-1006D01*
G02X7394I-1202J0D01*
G02X7866Y98042I1202J0D01*
G03X7842Y98694I-243J317D01*
G02X7298Y99700I658J1006D01*
G02X7675Y100574I1202J0D01*
G03X7638Y101186I-275J290D01*
G37*
G36*
G01X6590Y80140D02*
G02X6211Y82892I-379J1350D01*
G02X7613Y81525I0J-1402D01*
G03X8121Y81150I400J10D01*
G02X8500Y81202I378J-1350D01*
G02Y78398I0J-1402D01*
G02X7098Y79765I0J1402D01*
G03X6590Y80140I-400J-10D01*
G37*
G36*
G01X41153Y78415D02*
G02X43447I1147J-615D01*
G03X44153I353J189D01*
G02X45300Y79102I1147J-614D01*
G02X46602Y77800I0J-1302D01*
G02X45915Y76653I-1301J0D01*
G03Y75947I189J-353D01*
G02X46602Y74800I-614J-1147D01*
G02X45300Y73498I-1302J0D01*
G02X44153Y74185I0J1301D01*
G03X43447I-353J-189D01*
G02X41153I-1147J614D01*
G03X40447I-353J-189D01*
G02X39300Y73498I-1147J614D01*
G02X37998Y74800I0J1302D01*
G02X38685Y75947I1301J0D01*
G03Y76653I-189J353D01*
G02X37998Y77800I614J1147D01*
G02X39300Y79102I1302J0D01*
G02X40447Y78415I0J-1301D01*
G03X41153I353J189D01*
G37*
G36*
G01X71292Y148336D02*
G03X71276Y148883I-300J265D01*
G02X70898Y149800I923J917D01*
G02X73502I1302J0D01*
G02X73176Y148938I-1303J0D01*
G03X73192Y148391I300J-265D01*
G02X73570Y147474I-923J-917D01*
G02X70966I-1302J0D01*
G02X71292Y148336I1303J0D01*
G37*
G36*
G01X66060Y143415D02*
G03X65550Y143395I-243J-318D01*
G02X64681Y143063I-869J971D01*
G02Y145667I0J1302D01*
G02X65471Y145400I0J-1302D01*
G03X65981Y145420I243J318D01*
G02X66850Y145752I869J-971D01*
G02Y143148I0J-1302D01*
G02X66060Y143415I0J1302D01*
G37*
G36*
G01X60723Y137968D02*
G03X60722Y138234I-150J132D01*
G02X60386Y139107I966J873D01*
G02X62990I1302J0D01*
G02X62665Y138246I-1303J0D01*
G03X62666Y137980I150J-132D01*
G02X63002Y137107I-966J-873D01*
G02X60398I-1302J0D01*
G02X60723Y137968I1303J0D01*
G37*
G36*
G01X69739Y135400D02*
G03X69726Y135924I-308J255D01*
G02X69386Y136802I962J877D01*
G02X70688Y138104I1302J0D01*
G02X71528Y137797I0J-1303D01*
G03X72053Y137805I258J305D01*
G02X72922Y138137I869J-971D01*
G02X74224Y136835I0J-1302D01*
G02X73908Y135984I-1302J-1D01*
G03X73914Y135455I303J-261D01*
G02X74250Y134600I-966J-873D01*
G03X74653Y134206I400J6D01*
G01X74664D01*
G02Y131602I0J-1302D01*
G02X73362Y132886I0J1302D01*
G03X72959Y133280I-400J-6D01*
G01X72948D01*
G02X72110Y133586I0J1302D01*
G03X71591Y133583I-258J-306D01*
G02X70742Y133268I-849J987D01*
G02X69440Y134570I0J1302D01*
G02X69739Y135400I1302J0D01*
G37*
G36*
G01X78173Y136162D02*
G03X78446Y136601I-123J381D01*
G02X78432Y136791I1288J190D01*
G02X81036I1302J0D01*
G02X81021Y136592I-1302J-2D01*
G03X81283Y136153I395J-62D01*
G02X82154Y134925I-430J-1228D01*
G02X81896Y134147I-1302J0D01*
G03X81921Y133639I321J-239D01*
G02X82260Y132763I-962J-876D01*
G02X81873Y131836I-1302J-1D01*
G03X81831Y131316I281J-284D01*
G02X82081Y130548I-1052J-767D01*
G02X80779Y129246I-1302J0D01*
G02X79810Y129679I0J1301D01*
G03X79263Y129724I-297J-268D01*
G02X78452Y129441I-811J1019D01*
G02X77150Y130743I0J1302D01*
G02X77606Y131733I1303J0D01*
G03X77639Y132001I-130J152D01*
G02X77398Y132756I1062J755D01*
G02X77650Y133526I1302J0D01*
G03X77620Y134035I-323J236D01*
G02X77270Y134923I951J888D01*
G02X78173Y136162I1302J0D01*
G37*
G36*
G01X26125Y130903D02*
G03X26100Y131403I-324J234D01*
G02X25798Y132200I901J797D01*
G02X28202I1202J0D01*
G02X27975Y131497I-1202J0D01*
G03X28000Y130997I324J-234D01*
G02X28302Y130200I-901J-797D01*
G02X25898I-1202J0D01*
G02X26125Y130903I1202J0D01*
G37*
G36*
G01X63212Y127815D02*
G03X62715Y127931I-319J-242D01*
G02X62134Y127794I-581J1165D01*
G02Y130398I0J1302D01*
G02X63170Y129884I0J-1301D01*
G03X63667Y129768I319J242D01*
G02X64248Y129905I581J-1165D01*
G02X65550Y128603I0J-1302D01*
G02X65292Y127824I-1302J-1D01*
G03X65323Y127309I320J-239D01*
G02X65683Y126410I-943J-899D01*
G02X63079I-1302J0D01*
G02X63337Y127189I1302J1D01*
G03X63306Y127704I-320J239D01*
G02X63212Y127815I945J896D01*
G37*
G36*
G01X71887Y129952D02*
G03X72396Y129971I243J317D01*
G02X73264Y130302I867J-971D01*
G02X74158Y129947I0J-1303D01*
G03X74706I274J291D01*
G02X75600Y130302I894J-948D01*
G02X76902Y129000I0J-1302D01*
G02X76340Y127928I-1303J0D01*
G03X76243Y127364I227J-329D01*
G02X76491Y126600I-1053J-764D01*
G02X75189Y125298I-1302J0D01*
G02X74372Y125587I1J1302D01*
G03X74106Y125573I-125J-156D01*
G02X73191Y125198I-914J927D01*
G02X72183Y125676I0J1302D01*
G03X71920Y125717I-154J-127D01*
G02X71214Y125509I-706J1094D01*
G02X69912Y126811I0J1302D01*
G02X70237Y127672I1303J0D01*
G03X70221Y127953I-150J132D01*
G02X69793Y128918I874J965D01*
G02X71095Y130220I1302J0D01*
G02X71887Y129952I1J-1302D01*
G37*
G36*
G01X79834Y125905D02*
G03X79261Y125985I-325J-233D01*
G02X78450Y125702I-811J1019D01*
G02Y128306I0J1302D01*
G02X79508Y127764I1J-1302D01*
G03X80081Y127684I325J233D01*
G02X80892Y127967I811J-1019D01*
G02Y125363I0J-1302D01*
G02X79834Y125905I-1J1302D01*
G37*
G36*
G01X39195Y120918D02*
G03X39183Y121463I-299J266D01*
G02X38844Y122300I864J837D01*
G02X41248I1202J0D01*
G02X40943Y121500I-1202J0D01*
G03X40955Y120955I299J-266D01*
G02X41294Y120118I-864J-837D01*
G02X38890I-1202J0D01*
G02X39195Y120918I1202J0D01*
G37*
G36*
G01X71478Y121793D02*
G03X71760Y121801I137J146D01*
G02X72700Y122202I940J-901D01*
G02X73522Y121909I-1J-1302D01*
G03X73802Y121936I126J155D01*
G02X74800Y122402I998J-836D01*
G02X76102Y121100I0J-1302D01*
G02X75664Y120126I-1302J0D01*
G03X75611Y119586I266J-299D01*
G02X75875Y118800I-1038J-786D01*
G02X74573Y117498I-1302J0D01*
G02X73706Y117829I0J1301D01*
G03X73440I-133J-150D01*
G02X71706I-867J970D01*
G03X71440I-133J-150D01*
G02X70573Y117498I-867J970D01*
G02X69271Y118800I0J1302D01*
G02X69625Y119692I1301J0D01*
G03X69627Y119965I-146J138D01*
G02X69283Y120846I958J882D01*
G02X70585Y122148I1302J0D01*
G02X71478Y121793I0J-1301D01*
G37*
G36*
G01X25801Y119502D02*
G03X26200Y119926I0J400D01*
G02X26198Y120000I1200J69D01*
G02X28602I1202J0D01*
G02X27401Y118798I-1202J0D01*
G01X27399D01*
G03X27000Y118374I0J-400D01*
G02X27002Y118300I-1200J-69D01*
G02X24598I-1202J0D01*
G02X25799Y119502I1202J0D01*
G01X25801D01*
G37*
G36*
G01X29902Y118450D02*
G03X29883Y119018I-290J275D01*
G02X29498Y119900I818J882D01*
G02X31902I1202J0D01*
G02X31574Y119074I-1202J-1D01*
G03X31593Y118506I290J-275D01*
G02X31978Y117624I-818J-882D01*
G02X29574I-1202J0D01*
G02X29902Y118450I1202J1D01*
G37*
G36*
G01X62246Y118014D02*
G03X61966Y118028I-147J-136D01*
G02X61100Y117698I-866J971D01*
G02Y120302I0J1302D01*
G02X62054Y119886I0J-1302D01*
G03X62334Y119872I147J136D01*
G02X63200Y120202I866J-971D01*
G02X64115Y119826I0J-1301D01*
G03X64382Y119813I141J142D01*
G02X65200Y120102I818J-1013D01*
G02Y117498I0J-1302D01*
G02X64285Y117874I0J1301D01*
G03X64018Y117887I-141J-142D01*
G02X63200Y117598I-818J1013D01*
G02X62246Y118014I0J1302D01*
G37*
G36*
G01X77742Y109856D02*
G03X77762Y110418I-274J291D01*
G02X77418Y111300I959J882D01*
G02X80022I1302J0D01*
G02X79613Y110353I-1301J0D01*
G03X79593Y109791I274J-291D01*
G02X79937Y108909I-959J-882D01*
G02X77333I-1302J0D01*
G02X77742Y109856I1301J0D01*
G37*
G36*
G01X69655Y109870D02*
G03Y110376I-310J253D01*
G02X69361Y111200I1008J824D01*
G02X71965I1302J0D01*
G02X71671Y110376I-1302J0D01*
G03Y109870I310J-253D01*
G02X71965Y109046I-1008J-824D01*
G02X69361I-1302J0D01*
G02X69655Y109870I1302J0D01*
G37*
G36*
G01X46037Y15681D02*
G03X45763I-137J-146D01*
G02X44800Y15298I-963J1019D01*
G02Y18102I0J1402D01*
G02X45763Y17719I0J-1402D01*
G03X46037I137J146D01*
G02X47000Y18102I963J-1019D01*
G02Y15298I0J-1402D01*
G02X46037Y15681I0J1402D01*
G37*
G36*
G01X95190Y20847D02*
G03X95744I277J288D01*
G02X96717Y21239I972J-1010D01*
G02X97690Y20847I1J-1402D01*
G03X98244I277J288D01*
G02X99217Y21239I972J-1010D01*
G02X100619Y19837I0J-1402D01*
G02X100227Y18864I-1402J-1D01*
G03Y18310I288J-277D01*
G02X100619Y17337I-1010J-972D01*
G02X99217Y15935I-1402J0D01*
G02X98244Y16327I-1J1402D01*
G03X97690I-277J-288D01*
G02X96717Y15935I-972J1010D01*
G02X95744Y16327I-1J1402D01*
G03X95190I-277J-288D01*
G02X94217Y15935I-972J1010D01*
G02X92815Y17337I0J1402D01*
G02X93207Y18310I1402J1D01*
G03Y18864I-288J277D01*
G02X92815Y19837I1010J972D01*
G02X94217Y21239I1402J0D01*
G02X95190Y20847I1J-1402D01*
G37*
G36*
G01X86865Y18444D02*
G03Y18976I-298J266D01*
G02X86509Y19910I1047J934D01*
G02X87911Y21312I1402J0D01*
G02X88806Y20989I0J-1401D01*
G03X89316I255J308D01*
G02X90211Y21312I895J-1078D01*
G02X91613Y19910I0J-1402D01*
G02X91257Y18976I-1403J0D01*
G03Y18444I298J-266D01*
G02X91613Y17510I-1047J-934D01*
G02X90211Y16108I-1402J0D01*
G02X89316Y16431I0J1401D01*
G03X88806I-255J-308D01*
G02X87911Y16108I-895J1078D01*
G02X86509Y17510I0J1402D01*
G02X86865Y18444I1403J0D01*
G37*
G36*
G01X46066Y18954D02*
G03X45534I-266J-298D01*
G02X44600Y18598I-934J1047D01*
G02Y21402I0J1402D01*
G02X45534Y21046I0J-1403D01*
G03X46066I266J298D01*
G02X47000Y21402I934J-1047D01*
G02Y18598I0J-1402D01*
G02X46066Y18954I0J1403D01*
G37*
G36*
G01X121794Y18560D02*
G03X121602Y19031I-382J119D01*
G02X120917Y20177I616J1146D01*
G02X123521I1302J0D01*
G02X123463Y19792I-1302J-1D01*
G03X123655Y19321I382J-119D01*
G02X124340Y18175I-616J-1146D01*
G02X121736I-1302J0D01*
G02X121794Y18560I1302J1D01*
G37*
G36*
G01X115586Y18780D02*
G03X115459Y19295I-354J186D01*
G02X114897Y20367I741J1072D01*
G02X117501I1302J0D01*
G02X117352Y19762I-1303J0D01*
G03X117479Y19247I354J-186D01*
G02X118041Y18175I-741J-1072D01*
G02X115437I-1302J0D01*
G02X115586Y18780I1303J0D01*
G37*
G36*
G01X118712Y18733D02*
G03X118552Y19250I-362J171D01*
G02X117907Y20374I657J1124D01*
G02X120511I1302J0D01*
G02X120385Y19816I-1302J1D01*
G03X120545Y19299I362J-171D01*
G02X121190Y18175I-657J-1124D01*
G02X118586I-1302J0D01*
G02X118712Y18733I1302J-1D01*
G37*
G36*
G01X131296Y19224D02*
G03X131369Y19724I-270J295D01*
G02X131185Y20392I1118J667D01*
G02X133789I1302J0D01*
G02X133365Y19431I-1301J0D01*
G03X133292Y18931I270J-295D01*
G02X133476Y18263I-1118J-667D01*
G02X130872I-1302J0D01*
G02X131296Y19224I1301J0D01*
G37*
G36*
G01X138120Y19294D02*
G03X138268Y19825I-205J343D01*
G02X138115Y20438I1149J612D01*
G02X140719I1302J0D01*
G02X140083Y19319I-1302J0D01*
G03X139935Y18788I205J-343D01*
G02X140088Y18175I-1149J-612D01*
G02X137484I-1302J0D01*
G02X138120Y19294I1302J0D01*
G37*
G36*
G01X141321Y19442D02*
G03X141365Y19718I-120J161D01*
G02X141125Y20471I1061J753D01*
G02X143729I1302J0D01*
G02X143203Y19426I-1301J0D01*
G03X143159Y19150I120J-161D01*
G02X143399Y18397I-1061J-753D01*
G02X140795I-1302J0D01*
G02X141321Y19442I1301J0D01*
G37*
G36*
G01X135156Y19255D02*
G03X135316Y19833I-175J360D01*
G02X135105Y20543I1091J711D01*
G02X137709I1302J0D01*
G02X136977Y19373I-1301J0D01*
G03X136817Y18795I175J-360D01*
G02X137028Y18085I-1091J-711D01*
G02X134424I-1302J0D01*
G02X135156Y19255I1301J0D01*
G37*
G36*
G01X165541Y72617D02*
G03X165411Y73185I-332J223D01*
G02X164716Y74396I708J1211D01*
G02X167520I1402J0D01*
G02X167283Y73616I-1402J0D01*
G03X167413Y73048I332J-223D01*
G02X168108Y71837I-708J-1211D01*
G02X165304I-1402J0D01*
G02X165541Y72617I1402J0D01*
G37*
G36*
G01X175344Y77999D02*
G03X175618Y77983I145J137D01*
G02X176517Y78309I899J-1077D01*
G02X177386Y78007I0J-1401D01*
G03X177937Y78061I247J314D01*
G02X179001Y78550I1064J-913D01*
G02Y75746I0J-1402D01*
G02X178132Y76048I0J1401D01*
G03X177581Y75994I-247J-314D01*
G02X176517Y75505I-1064J913D01*
G02X175494Y75948I0J1403D01*
G03X175220Y75964I-145J-137D01*
G02X174321Y75638I-899J1077D01*
G02X173317Y76062I0J1401D01*
G03X172758Y76076I-287J-279D01*
G02X171804Y75701I-954J1026D01*
G02X170826Y76099I0J1401D01*
G03X170238Y76067I-279J-286D01*
G02X169157Y75558I-1081J893D01*
G02Y78362I0J1402D01*
G02X170135Y77964I0J-1401D01*
G03X170723Y77996I279J286D01*
G02X171804Y78505I1081J-893D01*
G02X172808Y78081I0J-1401D01*
G03X173367Y78067I287J279D01*
G02X174321Y78442I954J-1026D01*
G02X175344Y77999I0J-1403D01*
G37*
G36*
G01X172929Y84423D02*
G03X173493I282J284D01*
G02X174411Y84802I918J-922D01*
G02X175235Y84508I0J-1302D01*
G03X175762Y84526I253J310D01*
G02X176652Y84878I890J-949D01*
G02Y82274I0J-1302D01*
G02X175828Y82568I0J1302D01*
G03X175301Y82550I-253J-310D01*
G02X174411Y82198I-890J949D01*
G02X173493Y82577I0J1301D01*
G03X172929I-282J-284D01*
G02X172011Y82198I-918J922D01*
G02Y84802I0J1302D01*
G02X172929Y84423I0J-1301D01*
G37*
G36*
G01X172313Y90516D02*
G03X171724Y90639I-348J-196D01*
G02X170941Y90378I-782J1041D01*
G02Y92982I0J1302D01*
G02X172075Y92319I0J-1301D01*
G03X172664Y92196I348J196D01*
G02X173447Y92457I782J-1041D01*
G02Y89853I0J-1302D01*
G02X172313Y90516I0J1301D01*
G37*
G36*
G01X177726Y91572D02*
G03X177446Y91571I-139J-143D01*
G02X176534Y91198I-912J928D01*
G02Y93802I0J1302D01*
G02X177442Y93433I0J-1302D01*
G03X177722Y93434I139J143D01*
G02X178634Y93807I912J-928D01*
G02Y91203I0J-1302D01*
G02X177726Y91572I0J1302D01*
G37*
G36*
G01X177149Y99512D02*
G03X176867Y99529I-150J-133D01*
G02X176000Y99198I-867J970D01*
G02Y101802I0J1302D01*
G02X176972Y101367I1J-1302D01*
G03X177254Y101350I150J133D01*
G02X178121Y101681I867J-970D01*
G02Y99077I0J-1302D01*
G02X177149Y99512I-1J1302D01*
G37*
G36*
G01X176640Y111002D02*
G03X176077Y111018I-290J-276D01*
G02X175190Y110669I-887J953D01*
G02Y113273I0J1302D01*
G02X176132Y112869I-1J-1302D01*
G03X176695Y112853I290J276D01*
G02X177582Y113202I887J-953D01*
G02Y110598I0J-1302D01*
G02X176640Y111002I1J1302D01*
G37*
G36*
G01X159123Y111106D02*
G03X158848Y111130I-150J-132D01*
G02X158037Y110847I-811J1019D01*
G02Y113451I0J1302D01*
G02X159016Y113007I0J-1301D01*
G03X159291Y112983I150J132D01*
G02X160102Y113266I811J-1019D01*
G02Y110662I0J-1302D01*
G02X159123Y111106I0J1301D01*
G37*
G36*
G01X173298Y116649D02*
G03X172769I-264J-300D01*
G02X171908Y116324I-861J978D01*
G02Y118928I0J1302D01*
G02X172769Y118603I0J-1303D01*
G03X173298I265J300D01*
G02X174159Y118928I861J-978D01*
G02Y116324I0J-1302D01*
G02X173298Y116649I0J1303D01*
G37*
G36*
G01X166763Y117586D02*
G03X166798Y118094I-290J275D01*
G02X166553Y118854I1056J760D01*
G02X169157I1302J0D01*
G02X168799Y117957I-1303J0D01*
G03X168764Y117449I290J-275D01*
G02X169009Y116689I-1056J-760D01*
G02X166405I-1302J0D01*
G02X166763Y117586I1303J0D01*
G37*
G36*
G01X158500Y123689D02*
G03X158662Y123911I-36J197D01*
G02X158651Y124076I1291J169D01*
G02X161255I1302J0D01*
G02X160193Y122796I-1302J0D01*
G03X160031Y122574I36J-197D01*
G02X160042Y122409I-1291J-169D01*
G02X157438I-1302J0D01*
G02X158500Y123689I1302J0D01*
G37*
G36*
G01X159956Y143647D02*
G03X159432Y143642I-259J-305D01*
G02X158569Y143315I-863J975D01*
G02Y145919I0J1302D01*
G02X159413Y145608I0J-1301D01*
G03X159937Y145613I259J305D01*
G02X160800Y145940I863J-975D01*
G02Y143336I0J-1302D01*
G02X159956Y143647I0J1301D01*
G37*
G36*
G01X162970Y156513D02*
G03X162923Y157053I-316J245D01*
G02X162498Y158016I877J962D01*
G02X165102I1302J0D01*
G02X164830Y157219I-1302J-1D01*
G03X164877Y156679I316J-245D01*
G02X165302Y155716I-877J-962D01*
G02X162698I-1302J0D01*
G02X162970Y156513I1302J1D01*
G37*
G36*
G01X109058Y163472D02*
G03X108503I-277J-288D01*
G02X107600Y163108I-903J938D01*
G02Y165712I0J1302D01*
G02X108503Y165348I0J-1302D01*
G03X109058I278J288D01*
G02X109961Y165712I903J-938D01*
G02Y163108I0J-1302D01*
G02X109058Y163472I0J1302D01*
G37*
G36*
G01X27986Y18859D02*
G02X30202Y20000I814J1141D01*
G02X29537Y18807I-1403J0D01*
G03X29514Y18141I210J-341D01*
G02X30102Y17000I-813J-1141D01*
G02X27298I-1402J0D01*
G02X27963Y18193I1403J0D01*
G03X27986Y18859I-210J341D01*
G37*
G36*
G01X124720Y19162D02*
G02X126531Y20360I509J1198D01*
G02X126371Y19735I-1301J0D01*
G03X126566Y19175I351J-192D01*
G02X127350Y18126I-509J-1198D01*
G03X127749Y18135I199J23D01*
G02X127812Y18453I1299J-92D01*
G03X127623Y18932I-379J127D01*
G02X126937Y20079I616J1147D01*
G02X129541I1302J0D01*
G02X129474Y19665I-1302J-2D01*
G03X129663Y19186I379J-127D01*
G02X130349Y18039I-616J-1147D01*
G02X129047Y16737I-1302J0D01*
G02X127916Y17394I0J1302D01*
G03X127214Y17379I-347J-199D01*
G02X126057Y16675I-1157J599D01*
G02X124755Y17977I0J1302D01*
G02X124915Y18602I1301J0D01*
G03X124720Y19162I-351J192D01*
G37*
G36*
G01X181514Y78533D02*
G02X183813Y79610I897J1077D01*
G02X183153Y78420I-1403J0D01*
G03X183108Y77773I211J-340D01*
G02X183613Y76696I-896J-1077D01*
G02X180809I-1402J0D01*
G02X181469Y77886I1403J0D01*
G03X181514Y78533I-211J340D01*
G37*
G36*
G01X41053Y49215D02*
G02X43347I1147J-615D01*
G03X44053I353J189D01*
G02X45200Y49902I1147J-614D01*
G02X46502Y48600I0J-1302D01*
G02X45815Y47453I-1301J0D01*
G03Y46747I189J-353D01*
G02Y44453I-614J-1147D01*
G03Y43747I189J-353D01*
G02Y41453I-614J-1147D01*
G03Y40747I189J-353D01*
G02Y38453I-614J-1147D01*
G03Y37747I189J-353D01*
G02X46502Y36600I-614J-1147D01*
G02X45200Y35298I-1302J0D01*
G02X44053Y35985I0J1301D01*
G03X43347I-353J-189D01*
G02X41053I-1147J614D01*
G03X40347I-353J-189D01*
G02X39382Y35311I-1147J615D01*
G02X38946Y35323I-209J341D01*
G02X38013Y36064I254J1277D01*
G03X37900Y36087I-316J-1263D01*
G03X37700Y36102I-197J-1287D01*
G03X37386Y36064I-2J-1301D01*
G02X36493Y35331I-1187J535D01*
G02X35907I-293J273D01*
G02X35014Y36064I294J1268D01*
G03X34700Y36102I-312J-1263D01*
G03X34386Y36064I-2J-1302D01*
G02X33454Y35323I-1187J536D01*
G02X33018Y35311I-227J329D01*
G02X31898Y36600I182J1289D01*
G02X32585Y37747I1301J0D01*
G03Y38453I-189J353D01*
G02Y40747I614J1147D01*
G03Y41453I-189J353D01*
G02Y43747I614J1147D01*
G03Y44453I-189J353D01*
G02Y46747I614J1147D01*
G03Y47453I-189J353D01*
G02X31898Y48600I614J1147D01*
G02X33200Y49902I1302J0D01*
G02X34347Y49215I0J-1301D01*
G03X35053I353J189D01*
G02X37347I1147J-614D01*
G03X38053I353J189D01*
G02X40347I1147J-614D01*
G03X41053I353J189D01*
G37*
G36*
G01X96864Y102647D02*
G03X97147Y103091I-113J384D01*
G02X97132Y103286I1287J197D01*
G02X99736I1302J0D01*
G02X98801Y102037I-1302J0D01*
G03X98518Y101593I113J-384D01*
G02X98533Y101398I-1287J-197D01*
G02X97751Y100204I-1303J0D01*
G03X97523Y99740I160J-367D01*
G02X97562Y99423I-1263J-316D01*
G02X97265Y98596I-1302J1D01*
G03X97274Y98076I309J-255D01*
G02X97601Y97214I-975J-863D01*
G02X97214Y96288I-1301J0D01*
G03X97218Y95998I140J-143D01*
G02X97271Y95947I-876J-963D01*
G03X97566Y95954I144J138D01*
G02X98547Y96400I981J-856D01*
G02X99849Y95098I0J-1302D01*
G02X98982Y93871I-1302J0D01*
G03X98723Y93415I133J-377D01*
G02X98748Y93161I-1278J-254D01*
G02X96144I-1302J0D01*
G02X96161Y93373I1302J2D01*
G03X95900Y93815I-394J65D01*
G02X95032Y95043I435J1228D01*
G02X95318Y95857I1301J0D01*
G03X95310Y96367I-312J250D01*
G02X94997Y97214I990J847D01*
G02X95294Y98041I1302J-1D01*
G03X95285Y98561I-309J255D01*
G02X94958Y99423I975J863D01*
G02X95740Y100617I1303J0D01*
G03X95968Y101081I-160J367D01*
G02X95929Y101398I1263J316D01*
G02X96864Y102647I1302J0D01*
G37*
G36*
G01X103765Y102215D02*
G03X103196Y102192I-273J-292D01*
G02X102233Y101766I-963J875D01*
G02Y104370I0J1302D01*
G02X103122Y104019I0J-1301D01*
G03X103691Y104042I273J292D01*
G02X104654Y104468I963J-875D01*
G02Y101864I0J-1302D01*
G02X103765Y102215I0J1301D01*
G37*
G36*
G01X103315Y95976D02*
G03X103303Y96491I-312J250D01*
G02X102978Y97352I978J861D01*
G02X104280Y98654I1302J0D01*
G02X104927Y98482I0J-1303D01*
G03X105476Y98635I199J347D01*
G02X106615Y99307I1139J-629D01*
G02X107917Y98005I0J-1302D01*
G02X107575Y97125I-1303J0D01*
G03X107555Y96607I294J-271D01*
G02X107833Y95803I-1024J-804D01*
G02X106768Y94523I-1302J0D01*
G03X106500Y93920I72J-393D01*
G02X106693Y93237I-1109J-682D01*
G02X104089I-1302J0D01*
G02X104115Y93494I1302J-2D01*
G03X103865Y93946I-392J78D01*
G02X103029Y95162I466J1216D01*
G02X103315Y95976I1301J0D01*
G37*
G36*
G01X124512Y138475D02*
G02X126813Y139310I999J835D01*
G02X125966Y138090I-1302J0D01*
G03X125799Y137459I140J-375D01*
G02X126102Y136624I-999J-835D01*
G02X125831Y135828I-1302J-1D01*
G03X125854Y135312I316J-244D01*
G02X126202Y134426I-954J-886D01*
G02X123598I-1302J0D01*
G02X123869Y135222I1302J1D01*
G03X123846Y135738I-316J244D01*
G02X123498Y136624I954J886D01*
G02X124345Y137844I1302J0D01*
G03X124512Y138475I-140J375D01*
G37*
G36*
G01X104924Y135638D02*
G02X106537Y136902I311J1264D01*
G02X106463Y136470I-1302J1D01*
G03X106745Y135949I378J-132D01*
G02X107736Y134685I-311J-1264D01*
G02X106434Y133383I-1302J0D01*
G02X106059Y133438I-1J1302D01*
G03X105551Y132983I-115J-383D01*
G02X105572Y132748I-1281J-233D01*
G02X105288Y131936I-1303J0D01*
G03X105298Y131426I313J-249D01*
G02X105613Y130576I-987J-849D01*
G02X105188Y129614I-1301J0D01*
G03X105144Y129070I270J-296D01*
G02X105425Y128262I-1021J-808D01*
G02X102821I-1302J0D01*
G02X103246Y129224I1301J0D01*
G03X103290Y129768I-270J296D01*
G02X103009Y130576I1021J808D01*
G02X103293Y131388I1303J0D01*
G03X103283Y131898I-313J249D01*
G02X102968Y132748I987J849D01*
G02X104270Y134050I1302J0D01*
G02X104645Y133995I1J-1302D01*
G03X105153Y134450I115J383D01*
G02X105132Y134685I1281J233D01*
G02X105206Y135117I1302J-1D01*
G03X104924Y135638I-378J132D01*
G37*
G36*
G01X129989Y40363D02*
G02X130904Y42592I915J927D01*
G02X131917Y42108I0J-1302D01*
G03X132526Y42092I311J251D01*
G02X133495Y42524I969J-871D01*
G02X134797Y41222I0J-1302D01*
G02X134406Y40291I-1302J-1D01*
G03Y39720I279J-286D01*
G02X134797Y38789I-911J-930D01*
G02X132193I-1302J0D01*
G02X132584Y39720I1302J1D01*
G03Y40291I-279J285D01*
G02X132482Y40404I914J928D01*
G03X131873Y40420I-311J-251D01*
G02X131498Y40131I-969J870D01*
G03X131400Y39491I183J-355D01*
G02X131787Y38564I-915J-926D01*
G02X129183I-1302J0D01*
G02X129891Y39723I1303J0D01*
G03X129989Y40363I-183J355D01*
G37*
G36*
G01X117858Y39960D02*
G02X116738Y41927I-1120J665D01*
G02X117816Y41355I0J-1302D01*
G03X118491Y41375I331J224D01*
G02X119611Y42012I1120J-666D01*
G02X120913Y40710I0J-1302D01*
G02X120552Y39811I-1302J1D01*
G03X120583Y39229I289J-276D01*
G02X121043Y38236I-842J-993D01*
G02X118439I-1302J0D01*
G02X118800Y39135I1302J-1D01*
G03X118769Y39717I-289J276D01*
G02X118533Y39980I842J993D01*
G03X117858Y39960I-331J-224D01*
G37*
G36*
G01X78998Y32008D02*
G02X80400Y30598I1402J-8D01*
G02X79779Y30743I0J1402D01*
G03X79202Y30387I-177J-359D01*
G02X77800Y28993I-1402J8D01*
G02Y31797I0J1402D01*
G02X78421Y31652I0J-1402D01*
G03X78998Y32008I177J359D01*
G37*
G36*
G01X95912Y136147D02*
G03X96151Y136603I-152J370D01*
G02X96120Y136885I1271J282D01*
G02X98724I1302J0D01*
G02X98695Y136611I-1302J-1D01*
G03X98966Y136145I391J-85D01*
G02X99880Y134902I-388J-1243D01*
G02X99566Y134054I-1302J0D01*
G03X99557Y133544I303J-260D01*
G02X99841Y132732I-1019J-812D01*
G02X99550Y131911I-1302J-1D01*
G03X99557Y131398I310J-252D01*
G02X99872Y130549I-987J-849D01*
G02X99030Y129331I-1302J0D01*
G03X98780Y128872I141J-374D01*
G02X98809Y128598I-1273J-273D01*
G02X97903Y127358I-1302J0D01*
G03X97632Y126905I122J-381D01*
G02X97653Y126671I-1281J-233D01*
G02X95049I-1302J0D01*
G02X95955Y127911I1302J0D01*
G03X96226Y128364I-122J381D01*
G02X96205Y128598I1281J233D01*
G02X96239Y128895I1302J1D01*
G03X95976Y129366I-389J91D01*
G02X95085Y130601I410J1235D01*
G02X95377Y131423I1303J0D01*
G03X95373Y131933I-310J253D01*
G02X95067Y132772I997J839D01*
G02X95380Y133619I1303J0D01*
G03X95389Y134129I-303J260D01*
G02X95104Y134942I1017J813D01*
G02X95912Y136147I1303J0D01*
G37*
G36*
G01X113258Y135920D02*
G03X112955Y135931I-156J-125D01*
G02X111997Y135511I-958J883D01*
G02Y138115I0J1302D01*
G02X112904Y137747I0J-1302D01*
G03X113440Y137728I279J287D01*
G02X114277Y138033I837J-996D01*
G02X115579Y136731I0J-1302D01*
G02X115273Y135892I-1303J0D01*
G03X115280Y135368I306J-258D01*
G02X115609Y134503I-973J-865D01*
G02X113005I-1302J0D01*
G02X113311Y135342I1303J0D01*
G03X113304Y135866I-306J258D01*
G02X113258Y135920I968J871D01*
G37*
G36*
G01X140188Y130339D02*
G03X139882Y130345I-156J-126D01*
G02X138900Y129898I-982J855D01*
G02Y132502I0J1302D01*
G02X139797Y132143I-1J-1302D01*
G03X140338Y132134I275J290D01*
G02X141200Y132460I862J-977D01*
G02X142502Y131158I0J-1302D01*
G02X142046Y130168I-1303J0D01*
G03X141980Y129631I259J-304D01*
G02X142222Y128875I-1060J-756D01*
G02X139618I-1302J0D01*
G02X140210Y129966I1301J0D01*
G03X140247Y130270I-109J168D01*
G02X140188Y130339I960J880D01*
G37*
G36*
G01X107212Y127443D02*
G03X107182Y127976I-312J250D01*
G02X106798Y128900I918J923D01*
G02X109402I1302J0D01*
G02X109116Y128085I-1302J-1D01*
G03X109146Y127552I312J-250D01*
G02X109150Y127547I-1008J-811D01*
G03X109439Y127553I142J142D01*
G02X110398Y127975I959J-879D01*
G02X110758Y127924I-1J-1302D01*
G03X111251Y128423I110J385D01*
G02X111197Y128795I1248J371D01*
G02X112499Y130097I1302J0D01*
G02X113706Y129283I0J-1302D01*
G03X114177Y129046I371J150D01*
G02X114504Y129088I328J-1260D01*
G02Y126484I0J-1302D01*
G02X114278Y126504I1J1302D01*
G03X113826Y126227I-69J-394D01*
G02X112581Y125305I-1245J380D01*
G02X111716Y125634I0J1302D01*
G03X111203Y125650I-266J-299D01*
G02X110398Y125371I-805J1022D01*
G02X109589Y125653I0J1301D01*
G03X109079Y125642I-248J-313D01*
G02X108228Y125326I-850J986D01*
G02X106926Y126628I0J1302D01*
G02X107212Y127443I1302J1D01*
G37*
G36*
G01X106484Y121154D02*
G03X106977Y121409I114J384D01*
G02X108209Y122291I1232J-419D01*
G02X108989Y122031I-1J-1302D01*
G03X109499Y122056I240J320D01*
G02X110378Y122398I879J-959D01*
G02X111244Y122068I0J-1301D01*
G03X111757Y122052I266J299D01*
G02X112559Y122328I802J-1027D01*
G02X113769Y121507I0J-1302D01*
G03X114220Y121263I372J148D01*
G02X114478Y121289I259J-1276D01*
G02Y118685I0J-1302D01*
G02X114293Y118698I-1J1302D01*
G03X113854Y118418I-56J-396D01*
G02X112608Y117494I-1246J378D01*
G02X111803Y117773I0J1301D01*
G03X111292Y117760I-248J-314D01*
G02X110435Y117438I-857J979D01*
G02X109591Y117749I0J1301D01*
G03X109077Y117753I-259J-305D01*
G02X108248Y117455I-829J1004D01*
G02X106998Y118391I0J1303D01*
G03X106497Y118661I-384J-112D01*
G02X106115Y118604I-381J1245D01*
G02X104903Y119430I0J1302D01*
G03X104447Y119674I-372J-147D01*
G02X104172Y119645I-273J1273D01*
G02Y122249I0J1302D01*
G02X105384Y121423I0J-1302D01*
G03X105840Y121179I372J147D01*
G02X106115Y121208I273J-1273D01*
G02X106484Y121154I-2J-1302D01*
G37*
G36*
G01X144272Y105994D02*
G03X143775Y106188I-357J-180D01*
G02X143319Y106106I-455J1220D01*
G02Y108710I0J1302D01*
G02X144481Y107995I0J-1302D01*
G03X144978Y107801I357J180D01*
G02X145434Y107883I455J-1220D01*
G02Y105279I0J-1302D01*
G02X144272Y105994I0J1302D01*
G37*
G36*
G01X134438Y97236D02*
G03X134157Y97234I-139J-143D01*
G02X133234Y96850I-923J917D01*
G02Y99454I0J1302D01*
G02X134141Y99086I0J-1302D01*
G03X134422Y99088I139J143D01*
G02X135345Y99472I923J-917D01*
G02Y96868I0J-1302D01*
G02X134438Y97236I0J1302D01*
G37*
G36*
G01X142433Y83141D02*
G03X141901Y83131I-260J-304D01*
G02X141016Y82784I-885J955D01*
G02Y85388I0J1302D01*
G02X141863Y85075I0J-1303D01*
G03X142395Y85085I260J304D01*
G02X143280Y85432I885J-955D01*
G02X144275Y84969I0J-1301D01*
G03X144863Y84944I306J258D01*
G02X145782Y85323I918J-923D01*
G02Y82719I0J-1302D01*
G02X144787Y83182I0J1301D01*
G03X144199Y83207I-306J-258D01*
G02X143280Y82828I-918J923D01*
G02X142433Y83141I0J1303D01*
G37*
G36*
G01X133783Y80411D02*
G03X133640Y80959I-345J203D01*
G02X132995Y82083I657J1124D01*
G02X135599I1302J0D01*
G02X135420Y81423I-1302J-1D01*
G03X135563Y80875I345J-203D01*
G02X136208Y79751I-657J-1124D01*
G02X133604I-1302J0D01*
G02X133783Y80411I1302J1D01*
G37*
G36*
G01X139998Y76672D02*
G03X139455Y76714I-294J-271D01*
G02X138646Y76432I-809J1019D01*
G02Y79036I0J1302D01*
G02X139603Y78616I-1J-1302D01*
G03X140146Y78574I294J271D01*
G02X140955Y78856I809J-1019D01*
G02Y76252I0J-1302D01*
G02X139998Y76672I1J1302D01*
G37*
G36*
G01X153663Y75145D02*
G03X153138Y75264I-328J-229D01*
G02X152448Y75082I-691J1220D01*
G02Y77886I0J1402D01*
G02X153596Y77289I0J-1402D01*
G03X154121Y77170I328J229D01*
G02X154811Y77352I691J-1220D01*
G02Y74548I0J-1402D01*
G02X153663Y75145I0J1402D01*
G37*
G36*
G01X139175Y44077D02*
G03X138806Y44446I-399J-30D01*
G02X137602Y45744I98J1298D01*
G02X138904Y47046I1302J0D01*
G02X140202Y45842I0J-1302D01*
G03X140571Y45473I399J30D01*
G02X141775Y44175I-98J-1298D01*
G02X140473Y42873I-1302J0D01*
G02X139175Y44077I0J1302D01*
G37*
G36*
G01X126816Y41615D02*
G03X126841Y42204I-258J306D01*
G02X126459Y43125I919J921D01*
G02X129063I1302J0D01*
G02X128600Y42130I-1301J0D01*
G03X128575Y41541I258J-306D01*
G02X128957Y40620I-919J-921D01*
G02X128487Y39618I-1303J0D01*
G03X128463Y39334I128J-154D01*
G02X128777Y38486I-988J-848D01*
G02X126173I-1302J0D01*
G02X126643Y39488I1303J0D01*
G03X126667Y39772I-128J154D01*
G02X126353Y40620I988J848D01*
G02X126816Y41615I1301J0D01*
G37*
G36*
G01X109579Y39936D02*
G03Y40490I-288J277D01*
G02X109187Y41463I1010J972D01*
G02X110589Y42865I1402J0D01*
G02X111562Y42473I1J-1402D01*
G03X112116I277J288D01*
G02X113089Y42865I972J-1010D01*
G02X114491Y41463I0J-1402D01*
G02X114099Y40490I-1402J-1D01*
G03Y39936I288J-277D01*
G02X114491Y38963I-1010J-972D01*
G02X113089Y37561I-1402J0D01*
G02X112116Y37953I-1J1402D01*
G03X111562I-277J-288D01*
G02X110589Y37561I-972J1010D01*
G02X109187Y38963I0J1402D01*
G02X109579Y39936I1402J1D01*
G37*
G36*
G01X104579D02*
G03Y40490I-288J277D01*
G02X104187Y41463I1010J972D01*
G02X106991I1402J0D01*
G02X106599Y40490I-1402J-1D01*
G03Y39936I288J-277D01*
G02X106991Y38963I-1010J-972D01*
G02X104187I-1402J0D01*
G02X104579Y39936I1402J1D01*
G37*
G36*
G01X98881D02*
G03Y40490I-288J277D01*
G02X98489Y41463I1010J972D01*
G02X101293I1402J0D01*
G02X100901Y40490I-1402J-1D01*
G03Y39936I288J-277D01*
G02X101293Y38963I-1010J-972D01*
G02X98489I-1402J0D01*
G02X98881Y39936I1402J1D01*
G37*
G36*
G01X93881D02*
G03Y40490I-288J277D01*
G02X93489Y41463I1010J972D01*
G02X96293I1402J0D01*
G02X95901Y40490I-1402J-1D01*
G03Y39936I288J-277D01*
G02X96293Y38963I-1010J-972D01*
G02X93489I-1402J0D01*
G02X93881Y39936I1402J1D01*
G37*
G36*
G01X86465Y39844D02*
G03Y40376I-298J266D01*
G02X86109Y41310I1047J934D01*
G02X87511Y42712I1402J0D01*
G02X88406Y42389I0J-1401D01*
G03X88916I255J308D01*
G02X89811Y42712I895J-1078D01*
G02X91213Y41310I0J-1402D01*
G02X90857Y40376I-1403J0D01*
G03Y39844I298J-266D01*
G02X91213Y38910I-1047J-934D01*
G02X89811Y37508I-1402J0D01*
G02X88916Y37831I0J1401D01*
G03X88406I-255J-308D01*
G02X87511Y37508I-895J1078D01*
G02X86109Y38910I0J1402D01*
G02X86465Y39844I1403J0D01*
G37*
G36*
G01X144111Y39113D02*
G03X144089Y39675I-295J270D01*
G02X143677Y40625I889J950D01*
G02X146281I1302J0D01*
G02X145941Y39748I-1301J0D01*
G03X145963Y39186I295J-270D01*
G02X146375Y38236I-889J-950D01*
G02X143771I-1302J0D01*
G02X144111Y39113I1301J0D01*
G37*
G36*
G01X141008Y39150D02*
G03Y39711I-285J281D01*
G02X140633Y40625I926J914D01*
G02X143237I1302J0D01*
G02X142862Y39711I-1301J0D01*
G03Y39150I285J-281D01*
G02X143237Y38236I-926J-914D01*
G02X140633I-1302J0D01*
G02X141008Y39150I1301J0D01*
G37*
G36*
G01X121783Y39106D02*
G03X121771Y39386I-149J134D01*
G02X121359Y40336I889J950D01*
G02X123963I1302J0D01*
G02X123629Y39466I-1302J1D01*
G03X123641Y39186I149J-134D01*
G02X124053Y38236I-889J-950D01*
G02X121449I-1302J0D01*
G02X121783Y39106I1302J-1D01*
G37*
G54D20*
X43627Y121028D03*
X43617Y108784D03*
X36936Y140768D03*
X40300Y135331D03*
X30470Y135350D03*
X33806Y132508D03*
X33828Y135577D03*
X36883Y132559D03*
X27200Y142400D03*
X30700Y124900D03*
X30643Y127795D03*
X23700Y123900D03*
X27000Y126487D03*
X40000Y125400D03*
X33700Y116000D03*
Y102300D03*
X30800Y110093D03*
X36798Y102363D03*
X27293Y103484D03*
Y98366D03*
X40092Y94528D03*
X36941Y109882D03*
X30510Y94690D03*
X27293Y88130D03*
X36812Y89163D03*
X8500Y138000D03*
X21303Y132200D03*
X8596Y132913D03*
X22000Y142200D03*
X21375Y119643D03*
X18030Y122247D03*
X8277Y120142D03*
X14759Y119959D03*
X14938Y104888D03*
X11814Y104990D03*
X21395Y103484D03*
Y98366D03*
X8596Y109882D03*
X11761Y94217D03*
X17800Y94502D03*
X15191Y109882D03*
X21395Y88130D03*
X8335Y91934D03*
X11903Y89200D03*
G54D19*
X79577Y148897D03*
X115423Y83051D03*
G54D22*
X91253Y8967D03*
X101253D03*
G54D17*
X9000Y75400D03*
Y71400D03*
X78211Y142688D03*
X81321Y144560D03*
X78600Y118900D03*
X77472Y102497D03*
X65413Y147605D03*
X65103Y137241D03*
X65176Y140636D03*
X73510Y143862D03*
X72800Y114900D03*
X64468Y114469D03*
X71711Y103610D03*
X70832Y95584D03*
X64600Y110200D03*
X73084Y93346D03*
X65209Y89409D03*
X72400Y11960D03*
X85363Y7850D03*
X85340Y11610D03*
X123551Y158250D03*
X126372Y167100D03*
X118600Y167110D03*
X123600Y163600D03*
X139714Y161722D03*
X137811Y176810D03*
X151457Y20564D03*
X160248Y27226D03*
X158929Y150440D03*
X158485Y176390D03*
X178634Y89355D03*
X167739Y100296D03*
X172825Y100281D03*
X176783Y96310D03*
X171483Y108340D03*
X167644Y112083D03*
X169683Y122109D03*
X172052Y129489D03*
X169221Y156695D03*
X163160Y152287D03*
X166970Y169982D03*
X163040Y167258D03*
X92500Y95436D03*
X92413Y103300D03*
X146111Y110310D03*
Y79910D03*
X146533Y32000D03*
X144596Y147596D03*
X133100Y137000D03*
X133970Y133091D03*
X136898Y128612D03*
X131385Y131371D03*
X131050Y134450D03*
X138500Y139000D03*
X127761Y97747D03*
X136639Y94406D03*
X138160Y90634D03*
X141084Y88825D03*
X144513Y89018D03*
X142000Y81000D03*
X131811Y79210D03*
X144211Y77495D03*
X140727Y92804D03*
X134500Y66500D03*
X138875Y40625D03*
X118660Y142284D03*
X112001Y115000D03*
X125424Y126441D03*
X122300Y127491D03*
X119712Y88532D03*
X115000Y31000D03*
X119000D03*
X110169Y132661D03*
X103410Y124677D03*
X104367Y115075D03*
X98229Y119125D03*
X108219Y115040D03*
X96500Y67500D03*
X98150Y71925D03*
X96700Y64500D03*
X86765Y111006D03*
X86655Y118937D03*
X91618Y30536D03*
X131400Y125400D03*
G54D18*
X28600Y13600D03*
X57800Y13400D03*
X65800Y20100D03*
X62000Y13500D03*
X137824Y168400D03*
X151377Y162923D03*
X163497Y47624D03*
X166706Y67900D03*
X173534Y68687D03*
X178652D03*
Y63569D03*
X169192Y81850D03*
X184611Y67910D03*
X188911D03*
X183770Y63569D03*
X191011Y65210D03*
X42900Y25000D03*
X35463Y59584D03*
X74000Y63700D03*
X156511Y80210D03*
X151800Y71500D03*
X151700Y64600D03*
X99211Y28510D03*
X76100Y34336D03*
X68500Y33800D03*
X72500Y38100D03*
X70500Y30395D03*
X72400Y34000D03*
G54D21*
X59577Y148897D03*
Y83051D03*
X125423Y148897D03*
Y83051D03*
%LPD*%
G75*
G54D10*
X5000Y5300D03*
X2700Y19000D03*
X2607Y23600D03*
X2800Y9300D03*
X3011Y13313D03*
X2800Y56500D03*
X2900Y50100D03*
X2700Y73100D03*
X2800Y66700D03*
X2900Y61300D03*
X5511Y170510D03*
Y174810D03*
X6044Y193291D03*
X4091Y188268D03*
X8200Y3400D03*
X12911Y2910D03*
X22911D03*
X16400Y21900D03*
X20300Y22100D03*
X16400Y25200D03*
X20400Y25300D03*
X20900Y74400D03*
X14895Y89409D03*
X21395Y90689D03*
X20900Y77000D03*
X21395Y100925D03*
Y95807D03*
Y106043D03*
X11745Y102205D03*
X8282Y104793D03*
X8600Y94500D03*
X11800Y128158D03*
X21388Y123799D03*
X14895Y117559D03*
Y112441D03*
X8349Y122779D03*
X8277Y117583D03*
X8400Y112279D03*
X21395Y129075D03*
Y134213D03*
X21800Y139311D03*
X8415Y135653D03*
X14895Y140591D03*
X23211Y174810D03*
X16211D03*
Y170510D03*
X12611Y174810D03*
Y170510D03*
X9111D03*
Y174810D03*
X11812Y196175D03*
X17253Y193291D03*
X19492Y188134D03*
X11579Y180268D03*
X6416Y183105D03*
X17579Y183198D03*
X32911Y2910D03*
X23900Y74500D03*
X26600D03*
X23900Y77100D03*
X26600D03*
X34108Y89438D03*
X27293Y90689D03*
X34112Y109905D03*
X27293Y106043D03*
X27100Y95807D03*
Y100925D03*
X36942Y99646D03*
X26900Y123600D03*
X36867Y127576D03*
X36942Y117559D03*
X30663Y130777D03*
X33789Y141001D03*
X27100Y139311D03*
X27292Y134610D03*
X38401Y157078D03*
X35411Y157319D03*
X32311Y156940D03*
X27610Y174868D03*
X34300Y167300D03*
X38000Y171000D03*
Y163600D03*
X23911Y191910D03*
Y196210D03*
X27511Y191910D03*
Y196210D03*
X27711Y187410D03*
Y183110D03*
X31211D03*
Y187410D03*
X34811Y183110D03*
Y187410D03*
X24111D03*
Y183110D03*
X35011Y196110D03*
Y191810D03*
X38511D03*
Y196110D03*
X31411D03*
Y191810D03*
X42911Y2910D03*
X52911D03*
X58000Y69500D03*
X43646Y106214D03*
X43635Y95807D03*
X43715Y111304D03*
X43646Y123786D03*
X43694Y118627D03*
X43900Y134700D03*
X45209Y158912D03*
X41700Y167300D03*
X54200Y174877D03*
X42111Y191810D03*
Y196110D03*
X54392Y181257D03*
X62911Y2910D03*
X72911D03*
X73511Y16908D03*
X63700Y69500D03*
Y72000D03*
X61000Y69600D03*
X58200Y71900D03*
X61000Y72000D03*
X58450Y174879D03*
X72500Y175170D03*
X62900Y175082D03*
X67600Y175066D03*
X62908Y181406D03*
X67606Y181366D03*
X72439Y181465D03*
X58542Y181257D03*
X67991Y192235D03*
X58200Y192200D03*
X92911Y2910D03*
X82911D03*
X80446Y105443D03*
X92500Y107108D03*
X92509Y109278D03*
X86742Y107126D03*
X80689Y108826D03*
X92600Y112761D03*
X88700Y126600D03*
X92521Y117152D03*
X86726Y122850D03*
X92228Y122991D03*
X92500Y120820D03*
X84451Y111071D03*
X86725Y114986D03*
X84483Y118999D03*
X82800Y125400D03*
X80600Y124600D03*
X80689Y120924D03*
Y118732D03*
Y115115D03*
X76900Y115000D03*
X80765Y111248D03*
X86800Y175167D03*
X91700D03*
X76560Y175114D03*
X81800Y175132D03*
X91613Y181465D03*
X81800Y181432D03*
X86888Y181465D03*
X76800Y181480D03*
X77553Y192206D03*
X87748Y192162D03*
X102911Y2910D03*
X96264Y103345D03*
X98295Y107126D03*
X100525Y111043D03*
X98242Y115079D03*
X100495Y115034D03*
X100393Y118955D03*
X98573Y122714D03*
X100573Y122703D03*
X96500Y175171D03*
X105500Y181465D03*
X96337D03*
X100800Y181283D03*
X105782Y192207D03*
X122911Y2910D03*
X112911D03*
X120826Y181434D03*
X110318Y181465D03*
X115043D03*
X125138Y192236D03*
X116000Y191900D03*
X142911Y2910D03*
X132911D03*
X144519Y177750D03*
X136217Y186528D03*
X141384Y191784D03*
X129405Y181465D03*
X152911Y2910D03*
X144961Y189000D03*
X172911Y2910D03*
X162911D03*
X176511Y3410D03*
X172211Y23610D03*
Y18910D03*
X178111Y18510D03*
X172011Y15410D03*
X171911Y11710D03*
X171711Y7410D03*
X176511Y7210D03*
X174311Y9610D03*
X176211Y12210D03*
X174511Y21410D03*
X177511D03*
X174911Y18110D03*
X175311Y15110D03*
X178211Y40210D03*
X174311Y40110D03*
X172111Y38010D03*
X172011Y34410D03*
X171911Y30710D03*
X172211Y27410D03*
X169811Y36210D03*
Y32110D03*
Y28310D03*
X169611Y25122D03*
X177811Y45210D03*
X177511Y42510D03*
X174911D03*
X170257Y100247D03*
X165291Y100112D03*
X167550Y107995D03*
X172538Y122217D03*
X171311Y183310D03*
Y187610D03*
X174911Y183310D03*
Y187610D03*
X171311Y191710D03*
Y196010D03*
X174911Y191710D03*
Y196010D03*
X162300Y192000D03*
X193950Y6590D03*
X182787Y6497D03*
X187950Y3660D03*
X179711Y3310D03*
X193624Y16683D03*
X182415D03*
X188183Y19567D03*
X195863Y11526D03*
X180462Y11660D03*
X187311Y23810D03*
X191211Y23610D03*
X195111Y23010D03*
X181211Y21510D03*
X184111Y40310D03*
X181211D03*
X185611Y26010D03*
X189711Y26110D03*
X193511Y25910D03*
X196711Y25810D03*
X195211Y28410D03*
X193011Y33810D03*
Y38610D03*
X194411Y36310D03*
X196111Y38410D03*
X196511Y34210D03*
Y31110D03*
X187311Y39610D03*
X187111Y35810D03*
X185311Y37210D03*
X188111Y45310D03*
X187411Y42410D03*
X192111Y45310D03*
X193311Y43310D03*
X195311Y45110D03*
X196311Y47610D03*
X196011Y41710D03*
X184638Y71937D03*
X185911Y86410D03*
X196387Y89729D03*
X195211Y110610D03*
X187161Y96582D03*
X195961Y99481D03*
X195211Y125610D03*
Y114810D03*
Y121910D03*
Y118410D03*
X195011Y136810D03*
X194911Y143810D03*
Y140210D03*
X195211Y132710D03*
Y129210D03*
X189632Y156858D03*
Y162558D03*
X183932D03*
Y156858D03*
X195711Y159010D03*
X187952Y180219D03*
X188185Y196126D03*
X182417Y193242D03*
X193626D03*
X195865Y188085D03*
X182789Y183056D03*
X193952Y183149D03*
X180464Y188219D03*
G54D11*
X11818Y188192D03*
X188196Y11814D03*
Y188192D03*
G54D12*
X22600Y30800D03*
X13200Y45400D03*
X15500Y49300D03*
X33300Y25600D03*
X31100Y25500D03*
X24400Y58950D03*
X32846Y60300D03*
X40800Y59200D03*
X56000Y40800D03*
X56100Y38600D03*
X43000Y59100D03*
X72000Y48100D03*
X71800Y44100D03*
X74800Y48100D03*
Y44200D03*
X108065Y17337D03*
X105565D03*
X103065D03*
X108065Y19837D03*
X105565D03*
X103065D03*
X113065Y17337D03*
X110565D03*
X113065Y19837D03*
X110565D03*
X114600Y177600D03*
X156111Y108410D03*
X152328Y125483D03*
X178652Y53333D03*
X173534D03*
X177310Y161726D03*
X177260Y153392D03*
X183770Y53333D03*
X188888D03*
X195716Y67900D03*
X196011Y72810D03*
Y75010D03*
X195961Y59210D03*
G54D13*
G01X-100127Y-147468D02*
X299873D01*
G01X-100127Y-117468D02*
Y-97468D01*
X299873D01*
G01X-50127Y-167468D02*
Y-147468D01*
G01X75373Y-167468D02*
Y-147468D01*
G01X74873Y-97468D02*
Y-67468D01*
G01X124873Y-167468D02*
Y-147468D01*
G54D14*
G01X-100127Y-167468D02*
Y-67468D01*
X299873D01*
G01D02*
Y-167468D01*
X-100127D01*
G54D15*
G01X7Y10003D02*
G03X10007Y3I10000J0D01*
G01X190007D01*
G03X200007Y10003I0J10000D01*
G01Y190003D01*
G03X190007Y200003I-10000J0D01*
G01X10007D01*
G03X7Y190003I0J-10000D01*
G01Y10003D01*
G54D16*
G01X-96602Y-154935D02*
X-96135Y-155268D01*
X-95610Y-155468D01*
X-95144D01*
X-94677Y-155268D01*
X-94327Y-154935D01*
X-94152Y-154468D01*
X-94269Y-154001D01*
X-94560Y-153601D01*
X-95085Y-153335D01*
X-95785Y-153201D01*
X-96194Y-152935D01*
X-96369Y-152468D01*
X-96252Y-152001D01*
X-95960Y-151668D01*
X-95552Y-151468D01*
X-95144D01*
X-94735Y-151601D01*
X-94385Y-151935D01*
G01X-91802Y-155468D02*
Y-151468D01*
G01X-89352D02*
Y-155468D01*
G01Y-153468D02*
X-91802D01*
G01X-84610Y-155468D02*
X-86944D01*
Y-151468D01*
X-84610D01*
G01X-85544Y-153401D02*
X-86944D01*
G01X-79810Y-155468D02*
X-82144D01*
Y-151468D01*
X-79810D01*
G01X-80744Y-153401D02*
X-82144D01*
G01X-76177Y-151468D02*
Y-155468D01*
G01X-77519Y-151468D02*
X-74835D01*
G01X-94337Y-163968D02*
Y-157668D01*
X-97235Y-162183D01*
X-93319D01*
G01X-82677Y-157668D02*
X-83304Y-157878D01*
X-83774Y-158403D01*
X-84087Y-159033D01*
X-84322Y-159873D01*
X-84400Y-160818D01*
X-84322Y-161763D01*
X-84087Y-162603D01*
X-83774Y-163233D01*
X-83304Y-163758D01*
X-82677Y-163968D01*
X-82050Y-163758D01*
X-81580Y-163233D01*
X-81267Y-162603D01*
X-81032Y-161763D01*
X-80954Y-160818D01*
X-81032Y-159873D01*
X-81267Y-159033D01*
X-81580Y-158403D01*
X-82050Y-157878D01*
X-82677Y-157668D01*
G01X-77865Y-163968D02*
Y-157668D01*
X-74889D01*
G01X-75985Y-160713D02*
X-77865D01*
G01X-63777Y-163968D02*
Y-157668D01*
X-64717Y-158928D01*
G01Y-163968D02*
X-62837D01*
G01X-58965Y-158718D02*
X-58495Y-158088D01*
X-57947Y-157773D01*
X-57320Y-157668D01*
X-56537Y-157878D01*
X-55989Y-158403D01*
X-55832Y-159033D01*
X-55910Y-159663D01*
X-56224Y-160188D01*
X-57790Y-161238D01*
X-58495Y-161973D01*
X-58965Y-163023D01*
X-59122Y-163968D01*
X-55832D01*
G01X-88377Y-136468D02*
X-88844Y-136401D01*
X-89252Y-136135D01*
X-89602Y-135735D01*
X-89835Y-135268D01*
X-89952Y-134735D01*
Y-134201D01*
X-89835Y-133668D01*
X-89602Y-133201D01*
X-89252Y-132801D01*
X-88844Y-132535D01*
X-88377Y-132468D01*
X-87910Y-132535D01*
X-87502Y-132801D01*
X-87152Y-133201D01*
X-86919Y-133668D01*
X-86802Y-134201D01*
Y-134735D01*
X-86919Y-135268D01*
X-87152Y-135735D01*
X-87502Y-136135D01*
X-87910Y-136401D01*
X-88377Y-136468D01*
G01X-84744D02*
Y-132468D01*
X-83285D01*
X-82819Y-132668D01*
X-82527Y-132935D01*
X-82410Y-133468D01*
X-82527Y-134001D01*
X-82877Y-134335D01*
X-83285Y-134535D01*
X-84744D01*
G01X-83285D02*
X-82410Y-136468D01*
G01X-74677Y-132468D02*
X-73277D01*
G01X-73977D02*
Y-136468D01*
G01X-74677D02*
X-73277D01*
G01X-70519D02*
Y-132468D01*
X-67835Y-136468D01*
Y-132468D01*
G01X-60744Y-136468D02*
Y-132468D01*
X-59344D01*
X-58877Y-132668D01*
X-58527Y-133135D01*
X-58410Y-133668D01*
X-58527Y-134201D01*
X-58819Y-134601D01*
X-59344Y-134801D01*
X-60744D01*
G01X-56235Y-136468D02*
X-54777Y-132468D01*
X-53319Y-136468D01*
G01X-53844Y-135068D02*
X-55710D01*
G01X-51144Y-136468D02*
Y-132468D01*
X-49685D01*
X-49219Y-132668D01*
X-48927Y-132935D01*
X-48810Y-133468D01*
X-48927Y-134001D01*
X-49277Y-134335D01*
X-49685Y-134535D01*
X-51144D01*
G01X-49685D02*
X-48810Y-136468D01*
G01X-45177Y-132468D02*
Y-136468D01*
G01X-46519Y-132468D02*
X-43835D01*
G01X-37327D02*
X-36510Y-136468D01*
X-35577Y-132468D01*
X-34644Y-136468D01*
X-33827Y-132468D01*
G01X-31477D02*
X-30077D01*
G01X-30777D02*
Y-136468D01*
G01X-31477D02*
X-30077D01*
G01X-25977Y-132468D02*
Y-136468D01*
G01X-27319Y-132468D02*
X-24635D01*
G01X-22402Y-136468D02*
Y-132468D01*
G01X-19952D02*
Y-136468D01*
G01Y-134468D02*
X-22402D01*
G01X-16377Y-136468D02*
X-16844Y-136401D01*
X-17252Y-136135D01*
X-17602Y-135735D01*
X-17835Y-135268D01*
X-17952Y-134735D01*
Y-134201D01*
X-17835Y-133668D01*
X-17602Y-133201D01*
X-17252Y-132801D01*
X-16844Y-132535D01*
X-16377Y-132468D01*
X-15910Y-132535D01*
X-15502Y-132801D01*
X-15152Y-133201D01*
X-14919Y-133668D01*
X-14802Y-134201D01*
Y-134735D01*
X-14919Y-135268D01*
X-15152Y-135735D01*
X-15502Y-136135D01*
X-15910Y-136401D01*
X-16377Y-136468D01*
G01X-12860Y-132468D02*
Y-135335D01*
X-12627Y-135935D01*
X-12160Y-136335D01*
X-11577Y-136468D01*
X-10994Y-136335D01*
X-10527Y-135935D01*
X-10294Y-135335D01*
Y-132468D01*
G01X-6777D02*
Y-136468D01*
G01X-8119Y-132468D02*
X-5435D01*
G01X2823D02*
Y-136468D01*
G01X1481Y-132468D02*
X4165D01*
G01X6398Y-136468D02*
Y-132468D01*
G01X8848D02*
Y-136468D01*
G01Y-134468D02*
X6398D01*
G01X13590Y-136468D02*
X11256D01*
Y-132468D01*
X13590D01*
G01X12656Y-134401D02*
X11256D01*
G01X23306Y-132801D02*
X22956Y-132601D01*
X22548Y-132468D01*
X22081D01*
X21556Y-132668D01*
X21148Y-133001D01*
X20856Y-133401D01*
X20623Y-134068D01*
X20565Y-134668D01*
X20681Y-135268D01*
X20856Y-135668D01*
X21206Y-136068D01*
X21615Y-136335D01*
X22023Y-136468D01*
X22431D01*
X22840Y-136335D01*
X23190Y-136135D01*
X23481Y-135868D01*
G01X26823Y-136468D02*
X26356Y-136401D01*
X25948Y-136135D01*
X25598Y-135735D01*
X25365Y-135268D01*
X25248Y-134735D01*
Y-134201D01*
X25365Y-133668D01*
X25598Y-133201D01*
X25948Y-132801D01*
X26356Y-132535D01*
X26823Y-132468D01*
X27290Y-132535D01*
X27698Y-132801D01*
X28048Y-133201D01*
X28281Y-133668D01*
X28398Y-134201D01*
Y-134735D01*
X28281Y-135268D01*
X28048Y-135735D01*
X27698Y-136135D01*
X27290Y-136401D01*
X26823Y-136468D01*
G01X30281D02*
Y-132468D01*
X32965Y-136468D01*
Y-132468D01*
G01X35198Y-135935D02*
X35665Y-136268D01*
X36190Y-136468D01*
X36656D01*
X37123Y-136268D01*
X37473Y-135935D01*
X37648Y-135468D01*
X37531Y-135001D01*
X37240Y-134601D01*
X36715Y-134335D01*
X36015Y-134201D01*
X35606Y-133935D01*
X35431Y-133468D01*
X35548Y-133001D01*
X35840Y-132668D01*
X36248Y-132468D01*
X36656D01*
X37065Y-132601D01*
X37415Y-132935D01*
G01X42390Y-136468D02*
X40056D01*
Y-132468D01*
X42390D01*
G01X41456Y-134401D02*
X40056D01*
G01X44681Y-136468D02*
Y-132468D01*
X47365Y-136468D01*
Y-132468D01*
G01X50823D02*
Y-136468D01*
G01X49481Y-132468D02*
X52165D01*
G01X60423Y-136468D02*
X59956Y-136401D01*
X59548Y-136135D01*
X59198Y-135735D01*
X58965Y-135268D01*
X58848Y-134735D01*
Y-134201D01*
X58965Y-133668D01*
X59198Y-133201D01*
X59548Y-132801D01*
X59956Y-132535D01*
X60423Y-132468D01*
X60890Y-132535D01*
X61298Y-132801D01*
X61648Y-133201D01*
X61881Y-133668D01*
X61998Y-134201D01*
Y-134735D01*
X61881Y-135268D01*
X61648Y-135735D01*
X61298Y-136135D01*
X60890Y-136401D01*
X60423Y-136468D01*
G01X64115D02*
Y-132468D01*
X66331D01*
G01X65515Y-134401D02*
X64115D01*
G01X-88719Y-144468D02*
Y-140468D01*
X-86035Y-144468D01*
Y-140468D01*
G01X-83802Y-144468D02*
X-81352Y-140468D01*
G01X-83802D02*
X-81352Y-144468D01*
G01X-78944D02*
Y-140468D01*
X-77544D01*
X-77077Y-140668D01*
X-76727Y-141135D01*
X-76610Y-141668D01*
X-76727Y-142201D01*
X-77019Y-142601D01*
X-77544Y-142801D01*
X-78944D01*
G01X-72977Y-144601D02*
X-73094Y-144535D01*
Y-144401D01*
X-72977Y-144335D01*
X-72860Y-144401D01*
Y-144535D01*
X-72977Y-144601D01*
G01X-87910Y-118335D02*
X-87677Y-118135D01*
X-87502Y-117801D01*
X-87385Y-117335D01*
X-87502Y-116935D01*
X-87735Y-116668D01*
X-88144Y-116468D01*
X-89719D01*
Y-120468D01*
X-87794D01*
X-87385Y-120201D01*
X-87152Y-119801D01*
X-87035Y-119335D01*
X-87152Y-118868D01*
X-87502Y-118468D01*
X-87910Y-118335D01*
X-89719D01*
G01X-82410Y-120468D02*
X-84744D01*
Y-116468D01*
X-82410D01*
G01X-83344Y-118401D02*
X-84744D01*
G01X-75260Y-116468D02*
Y-119335D01*
X-75027Y-119935D01*
X-74560Y-120335D01*
X-73977Y-120468D01*
X-73394Y-120335D01*
X-72927Y-119935D01*
X-72694Y-119335D01*
Y-116468D01*
G01X-70402Y-119935D02*
X-69935Y-120268D01*
X-69410Y-120468D01*
X-68944D01*
X-68477Y-120268D01*
X-68127Y-119935D01*
X-67952Y-119468D01*
X-68069Y-119001D01*
X-68360Y-118601D01*
X-68885Y-118335D01*
X-69585Y-118201D01*
X-69994Y-117935D01*
X-70169Y-117468D01*
X-70052Y-117001D01*
X-69760Y-116668D01*
X-69352Y-116468D01*
X-68944D01*
X-68535Y-116601D01*
X-68185Y-116935D01*
G01X-63210Y-120468D02*
X-65544D01*
Y-116468D01*
X-63210D01*
G01X-64144Y-118401D02*
X-65544D01*
G01X-60860Y-120468D02*
Y-116468D01*
X-59694D01*
X-59227Y-116668D01*
X-58877Y-116935D01*
X-58585Y-117335D01*
X-58352Y-117801D01*
X-58294Y-118468D01*
X-58352Y-119135D01*
X-58585Y-119601D01*
X-58877Y-120001D01*
X-59227Y-120268D01*
X-59694Y-120468D01*
X-60860D01*
G01X-51085D02*
Y-116468D01*
X-48869D01*
G01X-49685Y-118401D02*
X-51085D01*
G01X-45177Y-120468D02*
X-45644Y-120401D01*
X-46052Y-120135D01*
X-46402Y-119735D01*
X-46635Y-119268D01*
X-46752Y-118735D01*
Y-118201D01*
X-46635Y-117668D01*
X-46402Y-117201D01*
X-46052Y-116801D01*
X-45644Y-116535D01*
X-45177Y-116468D01*
X-44710Y-116535D01*
X-44302Y-116801D01*
X-43952Y-117201D01*
X-43719Y-117668D01*
X-43602Y-118201D01*
Y-118735D01*
X-43719Y-119268D01*
X-43952Y-119735D01*
X-44302Y-120135D01*
X-44710Y-120401D01*
X-45177Y-120468D01*
G01X-41544D02*
Y-116468D01*
X-40085D01*
X-39619Y-116668D01*
X-39327Y-116935D01*
X-39210Y-117468D01*
X-39327Y-118001D01*
X-39677Y-118335D01*
X-40085Y-118535D01*
X-41544D01*
G01X-40085D02*
X-39210Y-120468D01*
G01X-29610D02*
X-31944D01*
Y-116468D01*
X-29610D01*
G01X-30544Y-118401D02*
X-31944D01*
G01X-27319Y-120468D02*
Y-116468D01*
X-24635Y-120468D01*
Y-116468D01*
G01X-20827Y-118468D02*
X-19660D01*
Y-119668D01*
X-20010Y-120068D01*
X-20419Y-120335D01*
X-21002Y-120468D01*
X-21585Y-120335D01*
X-21994Y-120068D01*
X-22344Y-119668D01*
X-22577Y-119201D01*
X-22694Y-118668D01*
Y-118201D01*
X-22577Y-117801D01*
X-22344Y-117335D01*
X-21994Y-116935D01*
X-21644Y-116668D01*
X-21177Y-116468D01*
X-20769D01*
X-20302Y-116601D01*
X-19952Y-116868D01*
G01X-17077Y-116468D02*
X-15677D01*
G01X-16377D02*
Y-120468D01*
G01X-17077D02*
X-15677D01*
G01X-12919D02*
Y-116468D01*
X-10235Y-120468D01*
Y-116468D01*
G01X-5610Y-120468D02*
X-7944D01*
Y-116468D01*
X-5610D01*
G01X-6544Y-118401D02*
X-7944D01*
G01X-810Y-120468D02*
X-3144D01*
Y-116468D01*
X-810D01*
G01X-1744Y-118401D02*
X-3144D01*
G01X1656Y-120468D02*
Y-116468D01*
X3115D01*
X3581Y-116668D01*
X3873Y-116935D01*
X3990Y-117468D01*
X3873Y-118001D01*
X3523Y-118335D01*
X3115Y-118535D01*
X1656D01*
G01X3115D02*
X3990Y-120468D01*
G01X6923Y-116468D02*
X8323D01*
G01X7623D02*
Y-120468D01*
G01X6923D02*
X8323D01*
G01X11081D02*
Y-116468D01*
X13765Y-120468D01*
Y-116468D01*
G01X17573Y-118468D02*
X18740D01*
Y-119668D01*
X18390Y-120068D01*
X17981Y-120335D01*
X17398Y-120468D01*
X16815Y-120335D01*
X16406Y-120068D01*
X16056Y-119668D01*
X15823Y-119201D01*
X15706Y-118668D01*
Y-118201D01*
X15823Y-117801D01*
X16056Y-117335D01*
X16406Y-116935D01*
X16756Y-116668D01*
X17223Y-116468D01*
X17631D01*
X18098Y-116601D01*
X18448Y-116868D01*
G01X25540Y-120468D02*
Y-116468D01*
X26706D01*
X27173Y-116668D01*
X27523Y-116935D01*
X27815Y-117335D01*
X28048Y-117801D01*
X28106Y-118468D01*
X28048Y-119135D01*
X27815Y-119601D01*
X27523Y-120001D01*
X27173Y-120268D01*
X26706Y-120468D01*
X25540D01*
G01X32790D02*
X30456D01*
Y-116468D01*
X32790D01*
G01X31856Y-118401D02*
X30456D01*
G01X35198Y-119935D02*
X35665Y-120268D01*
X36190Y-120468D01*
X36656D01*
X37123Y-120268D01*
X37473Y-119935D01*
X37648Y-119468D01*
X37531Y-119001D01*
X37240Y-118601D01*
X36715Y-118335D01*
X36015Y-118201D01*
X35606Y-117935D01*
X35431Y-117468D01*
X35548Y-117001D01*
X35840Y-116668D01*
X36248Y-116468D01*
X36656D01*
X37065Y-116601D01*
X37415Y-116935D01*
G01X40523Y-116468D02*
X41923D01*
G01X41223D02*
Y-120468D01*
G01X40523D02*
X41923D01*
G01X46373Y-118468D02*
X47540D01*
Y-119668D01*
X47190Y-120068D01*
X46781Y-120335D01*
X46198Y-120468D01*
X45615Y-120335D01*
X45206Y-120068D01*
X44856Y-119668D01*
X44623Y-119201D01*
X44506Y-118668D01*
Y-118201D01*
X44623Y-117801D01*
X44856Y-117335D01*
X45206Y-116935D01*
X45556Y-116668D01*
X46023Y-116468D01*
X46431D01*
X46898Y-116601D01*
X47248Y-116868D01*
G01X49481Y-120468D02*
Y-116468D01*
X52165Y-120468D01*
Y-116468D01*
G01X-89544Y-128468D02*
Y-124468D01*
X-88144D01*
X-87677Y-124668D01*
X-87327Y-125135D01*
X-87210Y-125668D01*
X-87327Y-126201D01*
X-87619Y-126601D01*
X-88144Y-126801D01*
X-89544D01*
G01X-84744Y-128468D02*
Y-124468D01*
X-83285D01*
X-82819Y-124668D01*
X-82527Y-124935D01*
X-82410Y-125468D01*
X-82527Y-126001D01*
X-82877Y-126335D01*
X-83285Y-126535D01*
X-84744D01*
G01X-83285D02*
X-82410Y-128468D01*
G01X-78777D02*
X-79244Y-128401D01*
X-79652Y-128135D01*
X-80002Y-127735D01*
X-80235Y-127268D01*
X-80352Y-126735D01*
Y-126201D01*
X-80235Y-125668D01*
X-80002Y-125201D01*
X-79652Y-124801D01*
X-79244Y-124535D01*
X-78777Y-124468D01*
X-78310Y-124535D01*
X-77902Y-124801D01*
X-77552Y-125201D01*
X-77319Y-125668D01*
X-77202Y-126201D01*
Y-126735D01*
X-77319Y-127268D01*
X-77552Y-127735D01*
X-77902Y-128135D01*
X-78310Y-128401D01*
X-78777Y-128468D01*
G01X-72694Y-124801D02*
X-73044Y-124601D01*
X-73452Y-124468D01*
X-73919D01*
X-74444Y-124668D01*
X-74852Y-125001D01*
X-75144Y-125401D01*
X-75377Y-126068D01*
X-75435Y-126668D01*
X-75319Y-127268D01*
X-75144Y-127668D01*
X-74794Y-128068D01*
X-74385Y-128335D01*
X-73977Y-128468D01*
X-73569D01*
X-73160Y-128335D01*
X-72810Y-128135D01*
X-72519Y-127868D01*
G01X-70460Y-124468D02*
Y-127335D01*
X-70227Y-127935D01*
X-69760Y-128335D01*
X-69177Y-128468D01*
X-68594Y-128335D01*
X-68127Y-127935D01*
X-67894Y-127335D01*
Y-124468D01*
G01X-65544Y-128468D02*
Y-124468D01*
X-64085D01*
X-63619Y-124668D01*
X-63327Y-124935D01*
X-63210Y-125468D01*
X-63327Y-126001D01*
X-63677Y-126335D01*
X-64085Y-126535D01*
X-65544D01*
G01X-64085D02*
X-63210Y-128468D01*
G01X-58410D02*
X-60744D01*
Y-124468D01*
X-58410D01*
G01X-59344Y-126401D02*
X-60744D01*
G01X-56294Y-128468D02*
Y-124468D01*
X-54777Y-127801D01*
X-53260Y-124468D01*
Y-128468D01*
G01X-48810D02*
X-51144D01*
Y-124468D01*
X-48810D01*
G01X-49744Y-126401D02*
X-51144D01*
G01X-46519Y-128468D02*
Y-124468D01*
X-43835Y-128468D01*
Y-124468D01*
G01X-40377D02*
Y-128468D01*
G01X-41719Y-124468D02*
X-39035D01*
G01X-30777Y-128468D02*
X-31244Y-128401D01*
X-31652Y-128135D01*
X-32002Y-127735D01*
X-32235Y-127268D01*
X-32352Y-126735D01*
Y-126201D01*
X-32235Y-125668D01*
X-32002Y-125201D01*
X-31652Y-124801D01*
X-31244Y-124535D01*
X-30777Y-124468D01*
X-30310Y-124535D01*
X-29902Y-124801D01*
X-29552Y-125201D01*
X-29319Y-125668D01*
X-29202Y-126201D01*
Y-126735D01*
X-29319Y-127268D01*
X-29552Y-127735D01*
X-29902Y-128135D01*
X-30310Y-128401D01*
X-30777Y-128468D01*
G01X-27144D02*
Y-124468D01*
X-25685D01*
X-25219Y-124668D01*
X-24927Y-124935D01*
X-24810Y-125468D01*
X-24927Y-126001D01*
X-25277Y-126335D01*
X-25685Y-126535D01*
X-27144D01*
G01X-25685D02*
X-24810Y-128468D01*
G01X-17894D02*
Y-124468D01*
X-16377Y-127801D01*
X-14860Y-124468D01*
Y-128468D01*
G01X-13035D02*
X-11577Y-124468D01*
X-10119Y-128468D01*
G01X-10644Y-127068D02*
X-12510D01*
G01X-8119Y-128468D02*
Y-124468D01*
X-5435Y-128468D01*
Y-124468D01*
G01X-3260D02*
Y-127335D01*
X-3027Y-127935D01*
X-2560Y-128335D01*
X-1977Y-128468D01*
X-1394Y-128335D01*
X-927Y-127935D01*
X-694Y-127335D01*
Y-124468D01*
G01X1715Y-128468D02*
Y-124468D01*
X3931D01*
G01X3115Y-126401D02*
X1715D01*
G01X6165Y-128468D02*
X7623Y-124468D01*
X9081Y-128468D01*
G01X8556Y-127068D02*
X6690D01*
G01X13706Y-124801D02*
X13356Y-124601D01*
X12948Y-124468D01*
X12481D01*
X11956Y-124668D01*
X11548Y-125001D01*
X11256Y-125401D01*
X11023Y-126068D01*
X10965Y-126668D01*
X11081Y-127268D01*
X11256Y-127668D01*
X11606Y-128068D01*
X12015Y-128335D01*
X12423Y-128468D01*
X12831D01*
X13240Y-128335D01*
X13590Y-128135D01*
X13881Y-127868D01*
G01X17223Y-124468D02*
Y-128468D01*
G01X15881Y-124468D02*
X18565D01*
G01X20740D02*
Y-127335D01*
X20973Y-127935D01*
X21440Y-128335D01*
X22023Y-128468D01*
X22606Y-128335D01*
X23073Y-127935D01*
X23306Y-127335D01*
Y-124468D01*
G01X25656Y-128468D02*
Y-124468D01*
X27115D01*
X27581Y-124668D01*
X27873Y-124935D01*
X27990Y-125468D01*
X27873Y-126001D01*
X27523Y-126335D01*
X27115Y-126535D01*
X25656D01*
G01X27115D02*
X27990Y-128468D01*
G01X32790D02*
X30456D01*
Y-124468D01*
X32790D01*
G01X31856Y-126401D02*
X30456D01*
G01X40523Y-124468D02*
X41923D01*
G01X41223D02*
Y-128468D01*
G01X40523D02*
X41923D01*
G01X44681D02*
Y-124468D01*
X47365Y-128468D01*
Y-124468D01*
G01X53873D02*
X54690Y-128468D01*
X55623Y-124468D01*
X56556Y-128468D01*
X57373Y-124468D01*
G01X59198Y-128468D02*
Y-124468D01*
G01X61648D02*
Y-128468D01*
G01Y-126468D02*
X59198D01*
G01X65223Y-128468D02*
X64756Y-128401D01*
X64348Y-128135D01*
X63998Y-127735D01*
X63765Y-127268D01*
X63648Y-126735D01*
Y-126201D01*
X63765Y-125668D01*
X63998Y-125201D01*
X64348Y-124801D01*
X64756Y-124535D01*
X65223Y-124468D01*
X65690Y-124535D01*
X66098Y-124801D01*
X66448Y-125201D01*
X66681Y-125668D01*
X66798Y-126201D01*
Y-126735D01*
X66681Y-127268D01*
X66448Y-127735D01*
X66098Y-128135D01*
X65690Y-128401D01*
X65223Y-128468D01*
G01X68856Y-124468D02*
Y-128468D01*
X71190D01*
G01X75990D02*
X73656D01*
Y-124468D01*
X75990D01*
G01X75056Y-126401D02*
X73656D01*
G01X-89377Y-100468D02*
Y-104468D01*
G01X-90719Y-100468D02*
X-88035D01*
G01X-85802Y-104468D02*
Y-100468D01*
G01X-83352D02*
Y-104468D01*
G01Y-102468D02*
X-85802D01*
G01X-80477Y-100468D02*
X-79077D01*
G01X-79777D02*
Y-104468D01*
G01X-80477D02*
X-79077D01*
G01X-76202Y-103935D02*
X-75735Y-104268D01*
X-75210Y-104468D01*
X-74744D01*
X-74277Y-104268D01*
X-73927Y-103935D01*
X-73752Y-103468D01*
X-73869Y-103001D01*
X-74160Y-102601D01*
X-74685Y-102335D01*
X-75385Y-102201D01*
X-75794Y-101935D01*
X-75969Y-101468D01*
X-75852Y-101001D01*
X-75560Y-100668D01*
X-75152Y-100468D01*
X-74744D01*
X-74335Y-100601D01*
X-73985Y-100935D01*
G01X-66660Y-104468D02*
Y-100468D01*
X-65494D01*
X-65027Y-100668D01*
X-64677Y-100935D01*
X-64385Y-101335D01*
X-64152Y-101801D01*
X-64094Y-102468D01*
X-64152Y-103135D01*
X-64385Y-103601D01*
X-64677Y-104001D01*
X-65027Y-104268D01*
X-65494Y-104468D01*
X-66660D01*
G01X-60577D02*
X-61044Y-104401D01*
X-61452Y-104135D01*
X-61802Y-103735D01*
X-62035Y-103268D01*
X-62152Y-102735D01*
Y-102201D01*
X-62035Y-101668D01*
X-61802Y-101201D01*
X-61452Y-100801D01*
X-61044Y-100535D01*
X-60577Y-100468D01*
X-60110Y-100535D01*
X-59702Y-100801D01*
X-59352Y-101201D01*
X-59119Y-101668D01*
X-59002Y-102201D01*
Y-102735D01*
X-59119Y-103268D01*
X-59352Y-103735D01*
X-59702Y-104135D01*
X-60110Y-104401D01*
X-60577Y-104468D01*
G01X-54494Y-100801D02*
X-54844Y-100601D01*
X-55252Y-100468D01*
X-55719D01*
X-56244Y-100668D01*
X-56652Y-101001D01*
X-56944Y-101401D01*
X-57177Y-102068D01*
X-57235Y-102668D01*
X-57119Y-103268D01*
X-56944Y-103668D01*
X-56594Y-104068D01*
X-56185Y-104335D01*
X-55777Y-104468D01*
X-55369D01*
X-54960Y-104335D01*
X-54610Y-104135D01*
X-54319Y-103868D01*
G01X-52260Y-100468D02*
Y-103335D01*
X-52027Y-103935D01*
X-51560Y-104335D01*
X-50977Y-104468D01*
X-50394Y-104335D01*
X-49927Y-103935D01*
X-49694Y-103335D01*
Y-100468D01*
G01X-47694Y-104468D02*
Y-100468D01*
X-46177Y-103801D01*
X-44660Y-100468D01*
Y-104468D01*
G01X-40210D02*
X-42544D01*
Y-100468D01*
X-40210D01*
G01X-41144Y-102401D02*
X-42544D01*
G01X-37919Y-104468D02*
Y-100468D01*
X-35235Y-104468D01*
Y-100468D01*
G01X-31777D02*
Y-104468D01*
G01X-33119Y-100468D02*
X-30435D01*
G01X-20894Y-100801D02*
X-21244Y-100601D01*
X-21652Y-100468D01*
X-22119D01*
X-22644Y-100668D01*
X-23052Y-101001D01*
X-23344Y-101401D01*
X-23577Y-102068D01*
X-23635Y-102668D01*
X-23519Y-103268D01*
X-23344Y-103668D01*
X-22994Y-104068D01*
X-22585Y-104335D01*
X-22177Y-104468D01*
X-21769D01*
X-21360Y-104335D01*
X-21010Y-104135D01*
X-20719Y-103868D01*
G01X-17377Y-104468D02*
X-17844Y-104401D01*
X-18252Y-104135D01*
X-18602Y-103735D01*
X-18835Y-103268D01*
X-18952Y-102735D01*
Y-102201D01*
X-18835Y-101668D01*
X-18602Y-101201D01*
X-18252Y-100801D01*
X-17844Y-100535D01*
X-17377Y-100468D01*
X-16910Y-100535D01*
X-16502Y-100801D01*
X-16152Y-101201D01*
X-15919Y-101668D01*
X-15802Y-102201D01*
Y-102735D01*
X-15919Y-103268D01*
X-16152Y-103735D01*
X-16502Y-104135D01*
X-16910Y-104401D01*
X-17377Y-104468D01*
G01X-13919D02*
Y-100468D01*
X-11235Y-104468D01*
Y-100468D01*
G01X-7777D02*
Y-104468D01*
G01X-9119Y-100468D02*
X-6435D01*
G01X-4435Y-104468D02*
X-2977Y-100468D01*
X-1519Y-104468D01*
G01X-2044Y-103068D02*
X-3910D01*
G01X1123Y-100468D02*
X2523D01*
G01X1823D02*
Y-104468D01*
G01X1123D02*
X2523D01*
G01X5281D02*
Y-100468D01*
X7965Y-104468D01*
Y-100468D01*
G01X10198Y-103935D02*
X10665Y-104268D01*
X11190Y-104468D01*
X11656D01*
X12123Y-104268D01*
X12473Y-103935D01*
X12648Y-103468D01*
X12531Y-103001D01*
X12240Y-102601D01*
X11715Y-102335D01*
X11015Y-102201D01*
X10606Y-101935D01*
X10431Y-101468D01*
X10548Y-101001D01*
X10840Y-100668D01*
X11248Y-100468D01*
X11656D01*
X12065Y-100601D01*
X12415Y-100935D01*
G01X20323Y-100468D02*
X21723D01*
G01X21023D02*
Y-104468D01*
G01X20323D02*
X21723D01*
G01X24481D02*
Y-100468D01*
X27165Y-104468D01*
Y-100468D01*
G01X29515Y-104468D02*
Y-100468D01*
X31731D01*
G01X30915Y-102401D02*
X29515D01*
G01X35423Y-104468D02*
X34956Y-104401D01*
X34548Y-104135D01*
X34198Y-103735D01*
X33965Y-103268D01*
X33848Y-102735D01*
Y-102201D01*
X33965Y-101668D01*
X34198Y-101201D01*
X34548Y-100801D01*
X34956Y-100535D01*
X35423Y-100468D01*
X35890Y-100535D01*
X36298Y-100801D01*
X36648Y-101201D01*
X36881Y-101668D01*
X36998Y-102201D01*
Y-102735D01*
X36881Y-103268D01*
X36648Y-103735D01*
X36298Y-104135D01*
X35890Y-104401D01*
X35423Y-104468D01*
G01X39056D02*
Y-100468D01*
X40515D01*
X40981Y-100668D01*
X41273Y-100935D01*
X41390Y-101468D01*
X41273Y-102001D01*
X40923Y-102335D01*
X40515Y-102535D01*
X39056D01*
G01X40515D02*
X41390Y-104468D01*
G01X43506D02*
Y-100468D01*
X45023Y-103801D01*
X46540Y-100468D01*
Y-104468D01*
G01X48365D02*
X49823Y-100468D01*
X51281Y-104468D01*
G01X50756Y-103068D02*
X48890D01*
G01X54623Y-100468D02*
Y-104468D01*
G01X53281Y-100468D02*
X55965D01*
G01X58723D02*
X60123D01*
G01X59423D02*
Y-104468D01*
G01X58723D02*
X60123D01*
G01X64223D02*
X63756Y-104401D01*
X63348Y-104135D01*
X62998Y-103735D01*
X62765Y-103268D01*
X62648Y-102735D01*
Y-102201D01*
X62765Y-101668D01*
X62998Y-101201D01*
X63348Y-100801D01*
X63756Y-100535D01*
X64223Y-100468D01*
X64690Y-100535D01*
X65098Y-100801D01*
X65448Y-101201D01*
X65681Y-101668D01*
X65798Y-102201D01*
Y-102735D01*
X65681Y-103268D01*
X65448Y-103735D01*
X65098Y-104135D01*
X64690Y-104401D01*
X64223Y-104468D01*
G01X67681D02*
Y-100468D01*
X70365Y-104468D01*
Y-100468D01*
G01X-89544Y-112468D02*
Y-108468D01*
X-88144D01*
X-87677Y-108668D01*
X-87327Y-109135D01*
X-87210Y-109668D01*
X-87327Y-110201D01*
X-87619Y-110601D01*
X-88144Y-110801D01*
X-89544D01*
G01X-84744Y-112468D02*
Y-108468D01*
X-83285D01*
X-82819Y-108668D01*
X-82527Y-108935D01*
X-82410Y-109468D01*
X-82527Y-110001D01*
X-82877Y-110335D01*
X-83285Y-110535D01*
X-84744D01*
G01X-83285D02*
X-82410Y-112468D01*
G01X-78777D02*
X-79244Y-112401D01*
X-79652Y-112135D01*
X-80002Y-111735D01*
X-80235Y-111268D01*
X-80352Y-110735D01*
Y-110201D01*
X-80235Y-109668D01*
X-80002Y-109201D01*
X-79652Y-108801D01*
X-79244Y-108535D01*
X-78777Y-108468D01*
X-78310Y-108535D01*
X-77902Y-108801D01*
X-77552Y-109201D01*
X-77319Y-109668D01*
X-77202Y-110201D01*
Y-110735D01*
X-77319Y-111268D01*
X-77552Y-111735D01*
X-77902Y-112135D01*
X-78310Y-112401D01*
X-78777Y-112468D01*
G01X-75144D02*
Y-108468D01*
X-73744D01*
X-73277Y-108668D01*
X-72927Y-109135D01*
X-72810Y-109668D01*
X-72927Y-110201D01*
X-73219Y-110601D01*
X-73744Y-110801D01*
X-75144D01*
G01X-70344Y-112468D02*
Y-108468D01*
X-68885D01*
X-68419Y-108668D01*
X-68127Y-108935D01*
X-68010Y-109468D01*
X-68127Y-110001D01*
X-68477Y-110335D01*
X-68885Y-110535D01*
X-70344D01*
G01X-68885D02*
X-68010Y-112468D01*
G01X-65077Y-108468D02*
X-63677D01*
G01X-64377D02*
Y-112468D01*
G01X-65077D02*
X-63677D01*
G01X-58410D02*
X-60744D01*
Y-108468D01*
X-58410D01*
G01X-59344Y-110401D02*
X-60744D01*
G01X-54777Y-108468D02*
Y-112468D01*
G01X-56119Y-108468D02*
X-53435D01*
G01X-51435Y-112468D02*
X-49977Y-108468D01*
X-48519Y-112468D01*
G01X-49044Y-111068D02*
X-50910D01*
G01X-46344Y-112468D02*
Y-108468D01*
X-44885D01*
X-44419Y-108668D01*
X-44127Y-108935D01*
X-44010Y-109468D01*
X-44127Y-110001D01*
X-44477Y-110335D01*
X-44885Y-110535D01*
X-46344D01*
G01X-44885D02*
X-44010Y-112468D01*
G01X-40377D02*
Y-110668D01*
X-41544Y-108468D01*
G01X-39210D02*
X-40377Y-110668D01*
G01X-30777Y-108468D02*
Y-112468D01*
G01X-32119Y-108468D02*
X-29435D01*
G01X-25977Y-112468D02*
X-26444Y-112401D01*
X-26852Y-112135D01*
X-27202Y-111735D01*
X-27435Y-111268D01*
X-27552Y-110735D01*
Y-110201D01*
X-27435Y-109668D01*
X-27202Y-109201D01*
X-26852Y-108801D01*
X-26444Y-108535D01*
X-25977Y-108468D01*
X-25510Y-108535D01*
X-25102Y-108801D01*
X-24752Y-109201D01*
X-24519Y-109668D01*
X-24402Y-110201D01*
Y-110735D01*
X-24519Y-111268D01*
X-24752Y-111735D01*
X-25102Y-112135D01*
X-25510Y-112401D01*
X-25977Y-112468D01*
G01X-17719D02*
Y-108468D01*
X-15035Y-112468D01*
Y-108468D01*
G01X-12802Y-112468D02*
X-10352Y-108468D01*
G01X-12802D02*
X-10352Y-112468D01*
G01X-7944D02*
Y-108468D01*
X-6544D01*
X-6077Y-108668D01*
X-5727Y-109135D01*
X-5610Y-109668D01*
X-5727Y-110201D01*
X-6019Y-110601D01*
X-6544Y-110801D01*
X-7944D01*
G01X1365Y-112468D02*
X2823Y-108468D01*
X4281Y-112468D01*
G01X3756Y-111068D02*
X1890D01*
G01X6281Y-112468D02*
Y-108468D01*
X8965Y-112468D01*
Y-108468D01*
G01X11140Y-112468D02*
Y-108468D01*
X12306D01*
X12773Y-108668D01*
X13123Y-108935D01*
X13415Y-109335D01*
X13648Y-109801D01*
X13706Y-110468D01*
X13648Y-111135D01*
X13415Y-111601D01*
X13123Y-112001D01*
X12773Y-112268D01*
X12306Y-112468D01*
X11140D01*
G01X20798Y-111935D02*
X21265Y-112268D01*
X21790Y-112468D01*
X22256D01*
X22723Y-112268D01*
X23073Y-111935D01*
X23248Y-111468D01*
X23131Y-111001D01*
X22840Y-110601D01*
X22315Y-110335D01*
X21615Y-110201D01*
X21206Y-109935D01*
X21031Y-109468D01*
X21148Y-109001D01*
X21440Y-108668D01*
X21848Y-108468D01*
X22256D01*
X22665Y-108601D01*
X23015Y-108935D01*
G01X25598Y-112468D02*
Y-108468D01*
G01X28048D02*
Y-112468D01*
G01Y-110468D02*
X25598D01*
G01X30165Y-112468D02*
X31623Y-108468D01*
X33081Y-112468D01*
G01X32556Y-111068D02*
X30690D01*
G01X35256Y-108468D02*
Y-112468D01*
X37590D01*
G01X40056Y-108468D02*
Y-112468D01*
X42390D01*
G01X49481D02*
Y-108468D01*
X52165Y-112468D01*
Y-108468D01*
G01X55623Y-112468D02*
X55156Y-112401D01*
X54748Y-112135D01*
X54398Y-111735D01*
X54165Y-111268D01*
X54048Y-110735D01*
Y-110201D01*
X54165Y-109668D01*
X54398Y-109201D01*
X54748Y-108801D01*
X55156Y-108535D01*
X55623Y-108468D01*
X56090Y-108535D01*
X56498Y-108801D01*
X56848Y-109201D01*
X57081Y-109668D01*
X57198Y-110201D01*
Y-110735D01*
X57081Y-111268D01*
X56848Y-111735D01*
X56498Y-112135D01*
X56090Y-112401D01*
X55623Y-112468D01*
G01X60423Y-108468D02*
Y-112468D01*
G01X59081Y-108468D02*
X61765D01*
G01X-96485Y-85801D02*
X-96077Y-85335D01*
X-95727Y-85068D01*
X-95260Y-84935D01*
X-94852Y-85068D01*
X-94560Y-85335D01*
X-94327Y-85735D01*
X-94269Y-86201D01*
X-94327Y-86601D01*
X-94560Y-87001D01*
X-94910Y-87335D01*
X-95319Y-87468D01*
X-95785Y-87335D01*
X-96194Y-86935D01*
X-96427Y-86335D01*
X-96485Y-85668D01*
X-96369Y-84801D01*
X-96194Y-84335D01*
X-95902Y-83868D01*
X-95494Y-83535D01*
X-95085Y-83468D01*
X-94677Y-83601D01*
X-94385Y-83935D01*
G01X-91860Y-86868D02*
X-91510Y-87201D01*
X-91102Y-87401D01*
X-90577Y-87468D01*
X-90052Y-87335D01*
X-89644Y-87068D01*
X-89352Y-86601D01*
X-89294Y-86068D01*
X-89410Y-85535D01*
X-89702Y-85201D01*
X-90110Y-84935D01*
X-90519Y-84868D01*
X-90927Y-84935D01*
X-91452Y-85201D01*
X-91277Y-83468D01*
X-89702D01*
G01X-85777D02*
X-86244Y-83601D01*
X-86594Y-83935D01*
X-86827Y-84335D01*
X-87002Y-84868D01*
X-87060Y-85468D01*
X-87002Y-86068D01*
X-86827Y-86601D01*
X-86594Y-87001D01*
X-86244Y-87335D01*
X-85777Y-87468D01*
X-85310Y-87335D01*
X-84960Y-87001D01*
X-84727Y-86601D01*
X-84552Y-86068D01*
X-84494Y-85468D01*
X-84552Y-84868D01*
X-84727Y-84335D01*
X-84960Y-83935D01*
X-85310Y-83601D01*
X-85777Y-83468D01*
G01X-80977Y-87468D02*
Y-83468D01*
X-81677Y-84268D01*
G01Y-87468D02*
X-80277D01*
G01X-73127Y-83468D02*
X-72310Y-87468D01*
X-71377Y-83468D01*
X-70444Y-87468D01*
X-69627Y-83468D01*
G01X-67277D02*
X-65877D01*
G01X-66577D02*
Y-87468D01*
G01X-67277D02*
X-65877D01*
G01X-62944Y-83468D02*
Y-87468D01*
X-60610D01*
G01X-58144Y-83468D02*
Y-87468D01*
X-55810D01*
G01X-52877Y-83468D02*
X-51477D01*
G01X-52177D02*
Y-87468D01*
G01X-52877D02*
X-51477D01*
G01X-48835D02*
X-47377Y-83468D01*
X-45919Y-87468D01*
G01X-46444Y-86068D02*
X-48310D01*
G01X-44094Y-87468D02*
Y-83468D01*
X-42577Y-86801D01*
X-41060Y-83468D01*
Y-87468D01*
G01X-31694Y-83801D02*
X-32044Y-83601D01*
X-32452Y-83468D01*
X-32919D01*
X-33444Y-83668D01*
X-33852Y-84001D01*
X-34144Y-84401D01*
X-34377Y-85068D01*
X-34435Y-85668D01*
X-34319Y-86268D01*
X-34144Y-86668D01*
X-33794Y-87068D01*
X-33385Y-87335D01*
X-32977Y-87468D01*
X-32569D01*
X-32160Y-87335D01*
X-31810Y-87135D01*
X-31519Y-86868D01*
G01X-29635Y-87468D02*
X-28177Y-83468D01*
X-26719Y-87468D01*
G01X-27244Y-86068D02*
X-29110D01*
G01X-24719Y-87468D02*
Y-83468D01*
X-22035Y-87468D01*
Y-83468D01*
G01X-19919Y-87468D02*
Y-83468D01*
X-17235Y-87468D01*
Y-83468D01*
G01X-13777Y-87468D02*
X-14244Y-87401D01*
X-14652Y-87135D01*
X-15002Y-86735D01*
X-15235Y-86268D01*
X-15352Y-85735D01*
Y-85201D01*
X-15235Y-84668D01*
X-15002Y-84201D01*
X-14652Y-83801D01*
X-14244Y-83535D01*
X-13777Y-83468D01*
X-13310Y-83535D01*
X-12902Y-83801D01*
X-12552Y-84201D01*
X-12319Y-84668D01*
X-12202Y-85201D01*
Y-85735D01*
X-12319Y-86268D01*
X-12552Y-86735D01*
X-12902Y-87135D01*
X-13310Y-87401D01*
X-13777Y-87468D01*
G01X-10319D02*
Y-83468D01*
X-7635Y-87468D01*
Y-83468D01*
G01X-660Y-87468D02*
Y-83468D01*
X506D01*
X973Y-83668D01*
X1323Y-83935D01*
X1615Y-84335D01*
X1848Y-84801D01*
X1906Y-85468D01*
X1848Y-86135D01*
X1615Y-86601D01*
X1323Y-87001D01*
X973Y-87268D01*
X506Y-87468D01*
X-660D01*
G01X4256D02*
Y-83468D01*
X5715D01*
X6181Y-83668D01*
X6473Y-83935D01*
X6590Y-84468D01*
X6473Y-85001D01*
X6123Y-85335D01*
X5715Y-85535D01*
X4256D01*
G01X5715D02*
X6590Y-87468D01*
G01X9523Y-83468D02*
X10923D01*
G01X10223D02*
Y-87468D01*
G01X9523D02*
X10923D01*
G01X13565Y-83468D02*
X15023Y-87468D01*
X16481Y-83468D01*
G01X20990Y-87468D02*
X18656D01*
Y-83468D01*
X20990D01*
G01X20056Y-85401D02*
X18656D01*
G01X27673Y-83468D02*
X28490Y-87468D01*
X29423Y-83468D01*
X30356Y-87468D01*
X31173Y-83468D01*
G01X35390Y-87468D02*
X33056D01*
Y-83468D01*
X35390D01*
G01X34456Y-85401D02*
X33056D01*
G01X37798Y-86935D02*
X38265Y-87268D01*
X38790Y-87468D01*
X39256D01*
X39723Y-87268D01*
X40073Y-86935D01*
X40248Y-86468D01*
X40131Y-86001D01*
X39840Y-85601D01*
X39315Y-85335D01*
X38615Y-85201D01*
X38206Y-84935D01*
X38031Y-84468D01*
X38148Y-84001D01*
X38440Y-83668D01*
X38848Y-83468D01*
X39256D01*
X39665Y-83601D01*
X40015Y-83935D01*
G01X43823Y-83468D02*
Y-87468D01*
G01X42481Y-83468D02*
X45165D01*
G01X-96835Y-94468D02*
X-95377Y-90468D01*
X-93919Y-94468D01*
G01X-94444Y-93068D02*
X-96310D01*
G01X-91860Y-90468D02*
Y-93335D01*
X-91627Y-93935D01*
X-91160Y-94335D01*
X-90577Y-94468D01*
X-89994Y-94335D01*
X-89527Y-93935D01*
X-89294Y-93335D01*
Y-90468D01*
G01X-87002Y-93935D02*
X-86535Y-94268D01*
X-86010Y-94468D01*
X-85544D01*
X-85077Y-94268D01*
X-84727Y-93935D01*
X-84552Y-93468D01*
X-84669Y-93001D01*
X-84960Y-92601D01*
X-85485Y-92335D01*
X-86185Y-92201D01*
X-86594Y-91935D01*
X-86769Y-91468D01*
X-86652Y-91001D01*
X-86360Y-90668D01*
X-85952Y-90468D01*
X-85544D01*
X-85135Y-90601D01*
X-84785Y-90935D01*
G01X-80977Y-90468D02*
Y-94468D01*
G01X-82319Y-90468D02*
X-79635D01*
G01X-76877D02*
X-75477D01*
G01X-76177D02*
Y-94468D01*
G01X-76877D02*
X-75477D01*
G01X-72719D02*
Y-90468D01*
X-70035Y-94468D01*
Y-90468D01*
G01X-66577Y-94601D02*
X-66694Y-94535D01*
Y-94401D01*
X-66577Y-94335D01*
X-66460Y-94401D01*
Y-94535D01*
X-66577Y-94601D01*
G01X-56977Y-90468D02*
Y-94468D01*
G01X-58319Y-90468D02*
X-55635D01*
G01X-51010Y-94468D02*
X-53344D01*
Y-90468D01*
X-51010D01*
G01X-51944Y-92401D02*
X-53344D01*
G01X-48602Y-94468D02*
X-46152Y-90468D01*
G01X-48602D02*
X-46152Y-94468D01*
G01X-44035D02*
X-42577Y-90468D01*
X-41119Y-94468D01*
G01X-41644Y-93068D02*
X-43510D01*
G01X-39002Y-93935D02*
X-38535Y-94268D01*
X-38010Y-94468D01*
X-37544D01*
X-37077Y-94268D01*
X-36727Y-93935D01*
X-36552Y-93468D01*
X-36669Y-93001D01*
X-36960Y-92601D01*
X-37485Y-92335D01*
X-38185Y-92201D01*
X-38594Y-91935D01*
X-38769Y-91468D01*
X-38652Y-91001D01*
X-38360Y-90668D01*
X-37952Y-90468D01*
X-37544D01*
X-37135Y-90601D01*
X-36785Y-90935D01*
G01X-28294Y-94468D02*
X-28177Y-93601D01*
X-28002Y-92868D01*
X-27769Y-92201D01*
X-27477Y-91468D01*
X-27010Y-90468D01*
X-29344D01*
G01X-23377Y-94468D02*
X-22969Y-94401D01*
X-22502Y-94201D01*
X-22210Y-93868D01*
X-22094Y-93401D01*
X-22210Y-92935D01*
X-22560Y-92535D01*
X-23085Y-92335D01*
X-23669D01*
X-24019Y-92201D01*
X-24310Y-91868D01*
X-24427Y-91401D01*
X-24252Y-90935D01*
X-23844Y-90601D01*
X-23377Y-90468D01*
X-22910Y-90601D01*
X-22502Y-90935D01*
X-22327Y-91401D01*
X-22444Y-91868D01*
X-22735Y-92201D01*
X-23085Y-92335D01*
X-23669D01*
X-24194Y-92535D01*
X-24544Y-92935D01*
X-24660Y-93401D01*
X-24544Y-93868D01*
X-24252Y-94201D01*
X-23785Y-94401D01*
X-23377Y-94468D01*
G01X-18694D02*
X-18577Y-93601D01*
X-18402Y-92868D01*
X-18169Y-92201D01*
X-17877Y-91468D01*
X-17410Y-90468D01*
X-19744D01*
G01X-15060Y-93668D02*
X-14710Y-94135D01*
X-14244Y-94401D01*
X-13719Y-94468D01*
X-13252Y-94401D01*
X-12785Y-94068D01*
X-12494Y-93668D01*
X-12435Y-93268D01*
X-12552Y-92801D01*
X-12960Y-92468D01*
X-13369Y-92335D01*
X-13894D01*
G01X-13369D02*
X-13019Y-92135D01*
X-12727Y-91801D01*
X-12610Y-91401D01*
X-12727Y-91001D01*
X-13019Y-90668D01*
X-13544Y-90468D01*
X-14069Y-90535D01*
X-14594Y-90801D01*
G01X-10260Y-93868D02*
X-9910Y-94201D01*
X-9502Y-94401D01*
X-8977Y-94468D01*
X-8452Y-94335D01*
X-8044Y-94068D01*
X-7752Y-93601D01*
X-7694Y-93068D01*
X-7810Y-92535D01*
X-8102Y-92201D01*
X-8510Y-91935D01*
X-8919Y-91868D01*
X-9327Y-91935D01*
X-9852Y-92201D01*
X-9677Y-90468D01*
X-8102D01*
G01X-660D02*
Y-93335D01*
X-427Y-93935D01*
X40Y-94335D01*
X623Y-94468D01*
X1206Y-94335D01*
X1673Y-93935D01*
X1906Y-93335D01*
Y-90468D01*
G01X4198Y-93935D02*
X4665Y-94268D01*
X5190Y-94468D01*
X5656D01*
X6123Y-94268D01*
X6473Y-93935D01*
X6648Y-93468D01*
X6531Y-93001D01*
X6240Y-92601D01*
X5715Y-92335D01*
X5015Y-92201D01*
X4606Y-91935D01*
X4431Y-91468D01*
X4548Y-91001D01*
X4840Y-90668D01*
X5248Y-90468D01*
X5656D01*
X6065Y-90601D01*
X6415Y-90935D01*
G01X8765Y-94468D02*
X10223Y-90468D01*
X11681Y-94468D01*
G01X11156Y-93068D02*
X9290D01*
G01X-93974Y-78468D02*
Y-70968D01*
X-89680Y-78468D01*
Y-70968D01*
G01X-86287Y-78468D02*
X-82367Y-70968D01*
G01X-86287D02*
X-82367Y-78468D01*
G01X-78694D02*
Y-70968D01*
X-76454D01*
X-75707Y-71343D01*
X-75147Y-72218D01*
X-74960Y-73218D01*
X-75147Y-74218D01*
X-75614Y-74968D01*
X-76454Y-75343D01*
X-78694D01*
G01X-63787Y-77468D02*
X-63040Y-78093D01*
X-62200Y-78468D01*
X-61454D01*
X-60707Y-78093D01*
X-60147Y-77468D01*
X-59867Y-76593D01*
X-60054Y-75718D01*
X-60520Y-74968D01*
X-61360Y-74468D01*
X-62480Y-74218D01*
X-63134Y-73718D01*
X-63414Y-72843D01*
X-63227Y-71968D01*
X-62760Y-71343D01*
X-62107Y-70968D01*
X-61454D01*
X-60800Y-71218D01*
X-60240Y-71843D01*
G01X-52460Y-78468D02*
X-56194D01*
Y-70968D01*
X-52460D01*
G01X-53954Y-74593D02*
X-56194D01*
G01X-49254Y-78468D02*
Y-70968D01*
X-46827Y-77218D01*
X-44400Y-70968D01*
Y-78468D01*
G01X-40447Y-70968D02*
X-38207D01*
G01X-39327D02*
Y-78468D01*
G01X-40447D02*
X-38207D01*
G01X-29774Y-71593D02*
X-30334Y-71218D01*
X-30987Y-70968D01*
X-31734D01*
X-32574Y-71343D01*
X-33227Y-71968D01*
X-33694Y-72718D01*
X-34067Y-73968D01*
X-34160Y-75093D01*
X-33974Y-76218D01*
X-33694Y-76968D01*
X-33134Y-77718D01*
X-32480Y-78218D01*
X-31827Y-78468D01*
X-31174D01*
X-30520Y-78218D01*
X-29960Y-77843D01*
X-29494Y-77343D01*
G01X-24327Y-78468D02*
X-25074Y-78343D01*
X-25727Y-77843D01*
X-26287Y-77093D01*
X-26660Y-76218D01*
X-26847Y-75218D01*
Y-74218D01*
X-26660Y-73218D01*
X-26287Y-72343D01*
X-25727Y-71593D01*
X-25074Y-71093D01*
X-24327Y-70968D01*
X-23580Y-71093D01*
X-22927Y-71593D01*
X-22367Y-72343D01*
X-21994Y-73218D01*
X-21807Y-74218D01*
Y-75218D01*
X-21994Y-76218D01*
X-22367Y-77093D01*
X-22927Y-77843D01*
X-23580Y-78343D01*
X-24327Y-78468D01*
G01X-18974D02*
Y-70968D01*
X-14680Y-78468D01*
Y-70968D01*
G01X-11380Y-78468D02*
Y-70968D01*
X-9514D01*
X-8767Y-71343D01*
X-8207Y-71843D01*
X-7740Y-72593D01*
X-7367Y-73468D01*
X-7274Y-74718D01*
X-7367Y-75968D01*
X-7740Y-76843D01*
X-8207Y-77593D01*
X-8767Y-78093D01*
X-9514Y-78468D01*
X-11380D01*
G01X-3880Y-70968D02*
Y-76343D01*
X-3507Y-77468D01*
X-2760Y-78218D01*
X-1827Y-78468D01*
X-894Y-78218D01*
X-147Y-77468D01*
X226Y-76343D01*
Y-70968D01*
G01X7726Y-71593D02*
X7166Y-71218D01*
X6513Y-70968D01*
X5766D01*
X4926Y-71343D01*
X4273Y-71968D01*
X3806Y-72718D01*
X3433Y-73968D01*
X3340Y-75093D01*
X3526Y-76218D01*
X3806Y-76968D01*
X4366Y-77718D01*
X5020Y-78218D01*
X5673Y-78468D01*
X6326D01*
X6980Y-78218D01*
X7540Y-77843D01*
X8006Y-77343D01*
G01X13173Y-70968D02*
Y-78468D01*
G01X11026Y-70968D02*
X15320D01*
G01X20673Y-78468D02*
X19926Y-78343D01*
X19273Y-77843D01*
X18713Y-77093D01*
X18340Y-76218D01*
X18153Y-75218D01*
Y-74218D01*
X18340Y-73218D01*
X18713Y-72343D01*
X19273Y-71593D01*
X19926Y-71093D01*
X20673Y-70968D01*
X21420Y-71093D01*
X22073Y-71593D01*
X22633Y-72343D01*
X23006Y-73218D01*
X23193Y-74218D01*
Y-75218D01*
X23006Y-76218D01*
X22633Y-77093D01*
X22073Y-77843D01*
X21420Y-78343D01*
X20673Y-78468D01*
G01X26306D02*
Y-70968D01*
X28640D01*
X29386Y-71343D01*
X29853Y-71843D01*
X30040Y-72843D01*
X29853Y-73843D01*
X29293Y-74468D01*
X28640Y-74843D01*
X26306D01*
G01X28640D02*
X30040Y-78468D01*
G01X33713Y-77468D02*
X34460Y-78093D01*
X35300Y-78468D01*
X36046D01*
X36793Y-78093D01*
X37353Y-77468D01*
X37633Y-76593D01*
X37446Y-75718D01*
X36980Y-74968D01*
X36140Y-74468D01*
X35020Y-74218D01*
X34366Y-73718D01*
X34086Y-72843D01*
X34273Y-71968D01*
X34740Y-71343D01*
X35393Y-70968D01*
X36046D01*
X36700Y-71218D01*
X37260Y-71843D01*
G01X-46485Y-155468D02*
Y-151468D01*
X-44269D01*
G01X-45085Y-153401D02*
X-46485D01*
G01X-41277Y-151468D02*
X-39877D01*
G01X-40577D02*
Y-155468D01*
G01X-41277D02*
X-39877D01*
G01X-36944Y-151468D02*
Y-155468D01*
X-34610D01*
G01X-32494D02*
Y-151468D01*
X-30977Y-154801D01*
X-29460Y-151468D01*
Y-155468D01*
G01X-16844Y-157668D02*
Y-163968D01*
X-13710D01*
G01X-8037D02*
Y-157668D01*
X-10935Y-162183D01*
X-7019D01*
G01X-5027Y-166068D02*
X-327D01*
G01X2056Y-163968D02*
Y-157668D01*
X3936D01*
X4563Y-157983D01*
X5033Y-158718D01*
X5190Y-159558D01*
X5033Y-160398D01*
X4641Y-161028D01*
X3936Y-161343D01*
X2056D01*
G01X7573Y-157668D02*
X8670Y-163968D01*
X9923Y-157668D01*
X11176Y-163968D01*
X12273Y-157668D01*
G01X14656Y-163968D02*
Y-157668D01*
X16615D01*
X17241Y-157983D01*
X17633Y-158403D01*
X17790Y-159243D01*
X17633Y-160083D01*
X17163Y-160608D01*
X16615Y-160923D01*
X14656D01*
G01X16615D02*
X17790Y-163968D01*
G01X20173Y-166068D02*
X24873D01*
G01X28823Y-163968D02*
Y-157668D01*
X27883Y-158928D01*
G01Y-163968D02*
X29763D01*
G01X81623Y-159468D02*
X81156Y-159601D01*
X80806Y-159935D01*
X80573Y-160335D01*
X80398Y-160868D01*
X80340Y-161468D01*
X80398Y-162068D01*
X80573Y-162601D01*
X80806Y-163001D01*
X81156Y-163335D01*
X81623Y-163468D01*
X82090Y-163335D01*
X82440Y-163001D01*
X82673Y-162601D01*
X82848Y-162068D01*
X82906Y-161468D01*
X82848Y-160868D01*
X82673Y-160335D01*
X82440Y-159935D01*
X82090Y-159601D01*
X81623Y-159468D01*
G01X85431Y-163001D02*
X85840Y-163335D01*
X86306Y-163468D01*
X86773Y-163335D01*
X87181Y-162935D01*
X87473Y-162335D01*
X87590Y-161735D01*
Y-161001D01*
X87473Y-160401D01*
X87181Y-159868D01*
X86831Y-159601D01*
X86423Y-159468D01*
X85956Y-159601D01*
X85606Y-159868D01*
X85373Y-160268D01*
X85256Y-160801D01*
X85373Y-161268D01*
X85665Y-161735D01*
X86015Y-162001D01*
X86423Y-162068D01*
X86890Y-161935D01*
X87240Y-161601D01*
X87590Y-161001D01*
G01X90465Y-162135D02*
X91981D01*
G01X96023Y-159468D02*
X95556Y-159601D01*
X95206Y-159935D01*
X94973Y-160335D01*
X94798Y-160868D01*
X94740Y-161468D01*
X94798Y-162068D01*
X94973Y-162601D01*
X95206Y-163001D01*
X95556Y-163335D01*
X96023Y-163468D01*
X96490Y-163335D01*
X96840Y-163001D01*
X97073Y-162601D01*
X97248Y-162068D01*
X97306Y-161468D01*
X97248Y-160868D01*
X97073Y-160335D01*
X96840Y-159935D01*
X96490Y-159601D01*
X96023Y-159468D01*
G01X101523Y-163468D02*
Y-159468D01*
X99365Y-162335D01*
X102281D01*
G01X104865Y-162135D02*
X106381D01*
G01X110423Y-163468D02*
Y-159468D01*
X109723Y-160268D01*
G01Y-163468D02*
X111123D01*
G01X114231Y-163001D02*
X114640Y-163335D01*
X115106Y-163468D01*
X115573Y-163335D01*
X115981Y-162935D01*
X116273Y-162335D01*
X116390Y-161735D01*
Y-161001D01*
X116273Y-160401D01*
X115981Y-159868D01*
X115631Y-159601D01*
X115223Y-159468D01*
X114756Y-159601D01*
X114406Y-159868D01*
X114173Y-160268D01*
X114056Y-160801D01*
X114173Y-161268D01*
X114465Y-161735D01*
X114815Y-162001D01*
X115223Y-162068D01*
X115690Y-161935D01*
X116040Y-161601D01*
X116390Y-161001D01*
G01X78340Y-155468D02*
Y-151468D01*
X79506D01*
X79973Y-151668D01*
X80323Y-151935D01*
X80615Y-152335D01*
X80848Y-152801D01*
X80906Y-153468D01*
X80848Y-154135D01*
X80615Y-154601D01*
X80323Y-155001D01*
X79973Y-155268D01*
X79506Y-155468D01*
X78340D01*
G01X82965D02*
X84423Y-151468D01*
X85881Y-155468D01*
G01X85356Y-154068D02*
X83490D01*
G01X89223Y-151468D02*
Y-155468D01*
G01X87881Y-151468D02*
X90565D01*
G01X95190Y-155468D02*
X92856D01*
Y-151468D01*
X95190D01*
G01X94256Y-153401D02*
X92856D01*
G01X87873Y-141301D02*
X91373D01*
G01X92673D02*
X96173D01*
G01X97473D02*
X100973D01*
G01X110106Y-136301D02*
X109756Y-136101D01*
X109348Y-135968D01*
X108881D01*
X108356Y-136168D01*
X107948Y-136501D01*
X107656Y-136901D01*
X107423Y-137568D01*
X107365Y-138168D01*
X107481Y-138768D01*
X107656Y-139168D01*
X108006Y-139568D01*
X108415Y-139835D01*
X108823Y-139968D01*
X109231D01*
X109640Y-139835D01*
X109990Y-139635D01*
X110281Y-139368D01*
G01X113623Y-139968D02*
X113156Y-139901D01*
X112748Y-139635D01*
X112398Y-139235D01*
X112165Y-138768D01*
X112048Y-138235D01*
Y-137701D01*
X112165Y-137168D01*
X112398Y-136701D01*
X112748Y-136301D01*
X113156Y-136035D01*
X113623Y-135968D01*
X114090Y-136035D01*
X114498Y-136301D01*
X114848Y-136701D01*
X115081Y-137168D01*
X115198Y-137701D01*
Y-138235D01*
X115081Y-138768D01*
X114848Y-139235D01*
X114498Y-139635D01*
X114090Y-139901D01*
X113623Y-139968D01*
G01X116906D02*
Y-135968D01*
X118423Y-139301D01*
X119940Y-135968D01*
Y-139968D01*
G01X122056D02*
Y-135968D01*
X123456D01*
X123923Y-136168D01*
X124273Y-136635D01*
X124390Y-137168D01*
X124273Y-137701D01*
X123981Y-138101D01*
X123456Y-138301D01*
X122056D01*
G01X126565Y-139968D02*
X128023Y-135968D01*
X129481Y-139968D01*
G01X128956Y-138568D02*
X127090D01*
G01X131481Y-139968D02*
Y-135968D01*
X134165Y-139968D01*
Y-135968D01*
G01X137623Y-139968D02*
Y-138168D01*
X136456Y-135968D01*
G01X138790D02*
X137623Y-138168D01*
G01X148506Y-136301D02*
X148156Y-136101D01*
X147748Y-135968D01*
X147281D01*
X146756Y-136168D01*
X146348Y-136501D01*
X146056Y-136901D01*
X145823Y-137568D01*
X145765Y-138168D01*
X145881Y-138768D01*
X146056Y-139168D01*
X146406Y-139568D01*
X146815Y-139835D01*
X147223Y-139968D01*
X147631D01*
X148040Y-139835D01*
X148390Y-139635D01*
X148681Y-139368D01*
G01X152023Y-139968D02*
X151556Y-139901D01*
X151148Y-139635D01*
X150798Y-139235D01*
X150565Y-138768D01*
X150448Y-138235D01*
Y-137701D01*
X150565Y-137168D01*
X150798Y-136701D01*
X151148Y-136301D01*
X151556Y-136035D01*
X152023Y-135968D01*
X152490Y-136035D01*
X152898Y-136301D01*
X153248Y-136701D01*
X153481Y-137168D01*
X153598Y-137701D01*
Y-138235D01*
X153481Y-138768D01*
X153248Y-139235D01*
X152898Y-139635D01*
X152490Y-139901D01*
X152023Y-139968D01*
G01X155481D02*
Y-135968D01*
X158165Y-139968D01*
Y-135968D01*
G01X160515Y-139968D02*
Y-135968D01*
X162731D01*
G01X161915Y-137901D02*
X160515D01*
G01X165723Y-135968D02*
X167123D01*
G01X166423D02*
Y-139968D01*
G01X165723D02*
X167123D01*
G01X169940D02*
Y-135968D01*
X171106D01*
X171573Y-136168D01*
X171923Y-136435D01*
X172215Y-136835D01*
X172448Y-137301D01*
X172506Y-137968D01*
X172448Y-138635D01*
X172215Y-139101D01*
X171923Y-139501D01*
X171573Y-139768D01*
X171106Y-139968D01*
X169940D01*
G01X177190D02*
X174856D01*
Y-135968D01*
X177190D01*
G01X176256Y-137901D02*
X174856D01*
G01X179481Y-139968D02*
Y-135968D01*
X182165Y-139968D01*
Y-135968D01*
G01X185623D02*
Y-139968D01*
G01X184281Y-135968D02*
X186965D01*
G01X189723D02*
X191123D01*
G01X190423D02*
Y-139968D01*
G01X189723D02*
X191123D01*
G01X193765D02*
X195223Y-135968D01*
X196681Y-139968D01*
G01X196156Y-138568D02*
X194290D01*
G01X198856Y-135968D02*
Y-139968D01*
X201190D01*
G01X87873Y-124801D02*
X91373D01*
G01X92673D02*
X96173D01*
G01X97473D02*
X100973D01*
G01X110106Y-119801D02*
X109756Y-119601D01*
X109348Y-119468D01*
X108881D01*
X108356Y-119668D01*
X107948Y-120001D01*
X107656Y-120401D01*
X107423Y-121068D01*
X107365Y-121668D01*
X107481Y-122268D01*
X107656Y-122668D01*
X108006Y-123068D01*
X108415Y-123335D01*
X108823Y-123468D01*
X109231D01*
X109640Y-123335D01*
X109990Y-123135D01*
X110281Y-122868D01*
G01X113623Y-123468D02*
X113156Y-123401D01*
X112748Y-123135D01*
X112398Y-122735D01*
X112165Y-122268D01*
X112048Y-121735D01*
Y-121201D01*
X112165Y-120668D01*
X112398Y-120201D01*
X112748Y-119801D01*
X113156Y-119535D01*
X113623Y-119468D01*
X114090Y-119535D01*
X114498Y-119801D01*
X114848Y-120201D01*
X115081Y-120668D01*
X115198Y-121201D01*
Y-121735D01*
X115081Y-122268D01*
X114848Y-122735D01*
X114498Y-123135D01*
X114090Y-123401D01*
X113623Y-123468D01*
G01X116906D02*
Y-119468D01*
X118423Y-122801D01*
X119940Y-119468D01*
Y-123468D01*
G01X122056D02*
Y-119468D01*
X123456D01*
X123923Y-119668D01*
X124273Y-120135D01*
X124390Y-120668D01*
X124273Y-121201D01*
X123981Y-121601D01*
X123456Y-121801D01*
X122056D01*
G01X126565Y-123468D02*
X128023Y-119468D01*
X129481Y-123468D01*
G01X128956Y-122068D02*
X127090D01*
G01X131481Y-123468D02*
Y-119468D01*
X134165Y-123468D01*
Y-119468D01*
G01X137623Y-123468D02*
Y-121668D01*
X136456Y-119468D01*
G01X138790D02*
X137623Y-121668D01*
G01X146523Y-119468D02*
X147923D01*
G01X147223D02*
Y-123468D01*
G01X146523D02*
X147923D01*
G01X150681D02*
Y-119468D01*
X153365Y-123468D01*
Y-119468D01*
G01X156823D02*
Y-123468D01*
G01X155481Y-119468D02*
X158165D01*
G01X162790Y-123468D02*
X160456D01*
Y-119468D01*
X162790D01*
G01X161856Y-121401D02*
X160456D01*
G01X165256Y-123468D02*
Y-119468D01*
X166715D01*
X167181Y-119668D01*
X167473Y-119935D01*
X167590Y-120468D01*
X167473Y-121001D01*
X167123Y-121335D01*
X166715Y-121535D01*
X165256D01*
G01X166715D02*
X167590Y-123468D01*
G01X169881D02*
Y-119468D01*
X172565Y-123468D01*
Y-119468D01*
G01X174565Y-123468D02*
X176023Y-119468D01*
X177481Y-123468D01*
G01X176956Y-122068D02*
X175090D01*
G01X179656Y-119468D02*
Y-123468D01*
X181990D01*
G01X87873Y-108801D02*
X91373D01*
G01X92673D02*
X96173D01*
G01X97473D02*
X100973D01*
G01X110106Y-103801D02*
X109756Y-103601D01*
X109348Y-103468D01*
X108881D01*
X108356Y-103668D01*
X107948Y-104001D01*
X107656Y-104401D01*
X107423Y-105068D01*
X107365Y-105668D01*
X107481Y-106268D01*
X107656Y-106668D01*
X108006Y-107068D01*
X108415Y-107335D01*
X108823Y-107468D01*
X109231D01*
X109640Y-107335D01*
X109990Y-107135D01*
X110281Y-106868D01*
G01X113623Y-107468D02*
X113156Y-107401D01*
X112748Y-107135D01*
X112398Y-106735D01*
X112165Y-106268D01*
X112048Y-105735D01*
Y-105201D01*
X112165Y-104668D01*
X112398Y-104201D01*
X112748Y-103801D01*
X113156Y-103535D01*
X113623Y-103468D01*
X114090Y-103535D01*
X114498Y-103801D01*
X114848Y-104201D01*
X115081Y-104668D01*
X115198Y-105201D01*
Y-105735D01*
X115081Y-106268D01*
X114848Y-106735D01*
X114498Y-107135D01*
X114090Y-107401D01*
X113623Y-107468D01*
G01X116906D02*
Y-103468D01*
X118423Y-106801D01*
X119940Y-103468D01*
Y-107468D01*
G01X122056D02*
Y-103468D01*
X123456D01*
X123923Y-103668D01*
X124273Y-104135D01*
X124390Y-104668D01*
X124273Y-105201D01*
X123981Y-105601D01*
X123456Y-105801D01*
X122056D01*
G01X126565Y-107468D02*
X128023Y-103468D01*
X129481Y-107468D01*
G01X128956Y-106068D02*
X127090D01*
G01X131481Y-107468D02*
Y-103468D01*
X134165Y-107468D01*
Y-103468D01*
G01X137623Y-107468D02*
Y-105668D01*
X136456Y-103468D01*
G01X138790D02*
X137623Y-105668D01*
G01X146056Y-107468D02*
Y-103468D01*
X147456D01*
X147923Y-103668D01*
X148273Y-104135D01*
X148390Y-104668D01*
X148273Y-105201D01*
X147981Y-105601D01*
X147456Y-105801D01*
X146056D01*
G01X150740Y-103468D02*
Y-106335D01*
X150973Y-106935D01*
X151440Y-107335D01*
X152023Y-107468D01*
X152606Y-107335D01*
X153073Y-106935D01*
X153306Y-106335D01*
Y-103468D01*
G01X157290Y-105335D02*
X157523Y-105135D01*
X157698Y-104801D01*
X157815Y-104335D01*
X157698Y-103935D01*
X157465Y-103668D01*
X157056Y-103468D01*
X155481D01*
Y-107468D01*
X157406D01*
X157815Y-107201D01*
X158048Y-106801D01*
X158165Y-106335D01*
X158048Y-105868D01*
X157698Y-105468D01*
X157290Y-105335D01*
X155481D01*
G01X160456Y-103468D02*
Y-107468D01*
X162790D01*
G01X165723Y-103468D02*
X167123D01*
G01X166423D02*
Y-107468D01*
G01X165723D02*
X167123D01*
G01X172506Y-103801D02*
X172156Y-103601D01*
X171748Y-103468D01*
X171281D01*
X170756Y-103668D01*
X170348Y-104001D01*
X170056Y-104401D01*
X169823Y-105068D01*
X169765Y-105668D01*
X169881Y-106268D01*
X170056Y-106668D01*
X170406Y-107068D01*
X170815Y-107335D01*
X171223Y-107468D01*
X171631D01*
X172040Y-107335D01*
X172390Y-107135D01*
X172681Y-106868D01*
G01X78281Y-75468D02*
Y-71468D01*
X80965Y-75468D01*
Y-71468D01*
G01X82965Y-75468D02*
X84423Y-71468D01*
X85881Y-75468D01*
G01X85356Y-74068D02*
X83490D01*
G01X87706Y-75468D02*
Y-71468D01*
X89223Y-74801D01*
X90740Y-71468D01*
Y-75468D01*
G01X95190D02*
X92856D01*
Y-71468D01*
X95190D01*
G01X94256Y-73401D02*
X92856D01*
G01X93378Y-106968D02*
X96668Y-100668D01*
G01X93378D02*
X96668Y-106968D01*
G01X128281Y-155468D02*
Y-151468D01*
X130965Y-155468D01*
Y-151468D01*
G01X133140D02*
Y-154335D01*
X133373Y-154935D01*
X133840Y-155335D01*
X134423Y-155468D01*
X135006Y-155335D01*
X135473Y-154935D01*
X135706Y-154335D01*
Y-151468D01*
G01X137706Y-155468D02*
Y-151468D01*
X139223Y-154801D01*
X140740Y-151468D01*
Y-155468D01*
G01X144490Y-153335D02*
X144723Y-153135D01*
X144898Y-152801D01*
X145015Y-152335D01*
X144898Y-151935D01*
X144665Y-151668D01*
X144256Y-151468D01*
X142681D01*
Y-155468D01*
X144606D01*
X145015Y-155201D01*
X145248Y-154801D01*
X145365Y-154335D01*
X145248Y-153868D01*
X144898Y-153468D01*
X144490Y-153335D01*
X142681D01*
G01X149990Y-155468D02*
X147656D01*
Y-151468D01*
X149990D01*
G01X149056Y-153401D02*
X147656D01*
G01X152456Y-155468D02*
Y-151468D01*
X153915D01*
X154381Y-151668D01*
X154673Y-151935D01*
X154790Y-152468D01*
X154673Y-153001D01*
X154323Y-153335D01*
X153915Y-153535D01*
X152456D01*
G01X153915D02*
X154790Y-155468D01*
G01X163223Y-162468D02*
Y-156168D01*
X162283Y-157428D01*
G01Y-162468D02*
X164163D01*
G01X169366D02*
X169523Y-161103D01*
X169758Y-159948D01*
X170071Y-158898D01*
X170463Y-157743D01*
X171090Y-156168D01*
X167956D01*
G01X175823D02*
X175196Y-156378D01*
X174726Y-156903D01*
X174413Y-157533D01*
X174178Y-158373D01*
X174100Y-159318D01*
X174178Y-160263D01*
X174413Y-161103D01*
X174726Y-161733D01*
X175196Y-162258D01*
X175823Y-162468D01*
X176450Y-162258D01*
X176920Y-161733D01*
X177233Y-161103D01*
X177468Y-160263D01*
X177546Y-159318D01*
X177468Y-158373D01*
X177233Y-157533D01*
X176920Y-156903D01*
X176450Y-156378D01*
X175823Y-156168D01*
G01X181105Y-160368D02*
X183141D01*
G01X189363Y-162468D02*
Y-156168D01*
X186465Y-160683D01*
X190381D01*
G01X193235Y-159843D02*
X193783Y-159108D01*
X194253Y-158688D01*
X194880Y-158478D01*
X195428Y-158688D01*
X195820Y-159108D01*
X196133Y-159738D01*
X196211Y-160473D01*
X196133Y-161103D01*
X195820Y-161733D01*
X195350Y-162258D01*
X194801Y-162468D01*
X194175Y-162258D01*
X193626Y-161628D01*
X193313Y-160683D01*
X193235Y-159633D01*
X193391Y-158268D01*
X193626Y-157533D01*
X194018Y-156798D01*
X194566Y-156273D01*
X195115Y-156168D01*
X195663Y-156378D01*
X196055Y-156903D01*
G01X201963Y-162468D02*
Y-156168D01*
X199065Y-160683D01*
X202981D01*
G01X208263Y-162468D02*
Y-156168D01*
X205365Y-160683D01*
X209281D01*
G01X213623Y-162468D02*
Y-156168D01*
X212683Y-157428D01*
G01Y-162468D02*
X214563D01*
G01X256156D02*
Y-156168D01*
X258115D01*
X258741Y-156483D01*
X259133Y-156903D01*
X259290Y-157743D01*
X259133Y-158583D01*
X258663Y-159108D01*
X258115Y-159423D01*
X256156D01*
G01X258115D02*
X259290Y-162468D01*
G01X265590D02*
X262456D01*
Y-156168D01*
X265590D01*
G01X264336Y-159213D02*
X262456D01*
G01X268365Y-156168D02*
X270323Y-162468D01*
X272281Y-156168D01*
G01X280965Y-162468D02*
X282923Y-156168D01*
X284881Y-162468D01*
G01X284176Y-160263D02*
X281670D01*
G01X165223Y-89468D02*
X165771Y-89363D01*
X166398Y-89048D01*
X166790Y-88523D01*
X166946Y-87788D01*
X166790Y-87053D01*
X166320Y-86423D01*
X165615Y-86108D01*
X164831D01*
X164361Y-85898D01*
X163970Y-85373D01*
X163813Y-84638D01*
X164048Y-83903D01*
X164596Y-83378D01*
X165223Y-83168D01*
X165850Y-83378D01*
X166398Y-83903D01*
X166633Y-84638D01*
X166476Y-85373D01*
X166085Y-85898D01*
X165615Y-86108D01*
X164831D01*
X164126Y-86423D01*
X163656Y-87053D01*
X163500Y-87788D01*
X163656Y-88523D01*
X164048Y-89048D01*
X164675Y-89363D01*
X165223Y-89468D01*
G01X171523D02*
Y-83168D01*
X170583Y-84428D01*
G01Y-89468D02*
X172463D01*
G01X176100Y-88523D02*
X176570Y-89048D01*
X177118Y-89363D01*
X177823Y-89468D01*
X178528Y-89258D01*
X179076Y-88838D01*
X179468Y-88103D01*
X179546Y-87263D01*
X179390Y-86423D01*
X178998Y-85898D01*
X178450Y-85478D01*
X177901Y-85373D01*
X177353Y-85478D01*
X176648Y-85898D01*
X176883Y-83168D01*
X178998D01*
G01X182556D02*
Y-89468D01*
X185690D01*
G01X188856D02*
Y-83168D01*
X190736D01*
X191363Y-83483D01*
X191833Y-84218D01*
X191990Y-85058D01*
X191833Y-85898D01*
X191441Y-86528D01*
X190736Y-86843D01*
X188856D01*
G01X195000Y-89468D02*
Y-83168D01*
X196566D01*
X197193Y-83483D01*
X197663Y-83903D01*
X198055Y-84533D01*
X198368Y-85268D01*
X198446Y-86318D01*
X198368Y-87368D01*
X198055Y-88103D01*
X197663Y-88733D01*
X197193Y-89153D01*
X196566Y-89468D01*
X195000D01*
G01X203963D02*
Y-83168D01*
X201065Y-87683D01*
X204981D01*
G01X208305Y-87368D02*
X210341D01*
G01X217346Y-83693D02*
X216876Y-83378D01*
X216328Y-83168D01*
X215701D01*
X214996Y-83483D01*
X214448Y-84008D01*
X214056Y-84638D01*
X213743Y-85688D01*
X213665Y-86633D01*
X213821Y-87578D01*
X214056Y-88208D01*
X214526Y-88838D01*
X215075Y-89258D01*
X215623Y-89468D01*
X216171D01*
X216720Y-89258D01*
X217190Y-88943D01*
X217581Y-88523D01*
G01X220356Y-89468D02*
Y-83168D01*
X222236D01*
X222863Y-83483D01*
X223333Y-84218D01*
X223490Y-85058D01*
X223333Y-85898D01*
X222941Y-86528D01*
X222236Y-86843D01*
X220356D01*
G01X226500Y-83168D02*
Y-87683D01*
X226813Y-88628D01*
X227440Y-89258D01*
X228223Y-89468D01*
X229006Y-89258D01*
X229633Y-88628D01*
X229946Y-87683D01*
Y-83168D01*
G01X236246Y-83693D02*
X235776Y-83378D01*
X235228Y-83168D01*
X234601D01*
X233896Y-83483D01*
X233348Y-84008D01*
X232956Y-84638D01*
X232643Y-85688D01*
X232565Y-86633D01*
X232721Y-87578D01*
X232956Y-88208D01*
X233426Y-88838D01*
X233975Y-89258D01*
X234523Y-89468D01*
X235071D01*
X235620Y-89258D01*
X236090Y-88943D01*
X236481Y-88523D01*
G01X240823Y-89468D02*
Y-86633D01*
X239256Y-83168D01*
G01X242390D02*
X240823Y-86633D01*
M02*
