G04 ================== begin FILE IDENTIFICATION RECORD ==================*
G04 Layout Name:  Lay-46441_A.brd*
G04 Film Name:    ssp*
G04 File Format:  Gerber RS274X*
G04 File Origin:  Cadence Allegro 17.2-S046*
G04 Origin Date:  Wed Sep 04 15:56:31 2019*
G04 *
G04 Layer:  BOARD GEOMETRY/PASTEMASK_BOTTOM*
G04 Layer:  PIN/PASTEMASK_BOTTOM*
G04 Layer:  PACKAGE GEOMETRY/PASTEMASK_BOTTOM*
G04 Layer:  DRAWING FORMAT/FILM_TITLE_BLOCK*
G04 Layer:  BOARD GEOMETRY/OUTLINE*
G04 *
G04 Offset:    (0.00 0.00)*
G04 Mirror:    No*
G04 Mode:      Positive*
G04 Rotation:  0*
G04 FullContactRelief:  No*
G04 UndefLineWidth:     8.00*
G04 ================== end FILE IDENTIFICATION RECORD ====================*
%FSLAX55Y55*MOIN*%
%IR0*IPPOS*OFA0.00000B0.00000*MIA0B0*SFA1.00000B1.00000*%
%ADD20R,.028X.008*%
%ADD16R,.008X.027*%
%ADD17R,.008X.028*%
%ADD12R,.012X.012*%
%ADD10R,.02X.018*%
%ADD13R,.018X.02*%
%ADD15R,.014X.027*%
%ADD14R,.032X.039*%
%ADD11R,.039X.032*%
%ADD18R,.028X.035*%
%ADD19C,.008*%
%ADD21C,.01*%
%ADD22C,.02*%
%ADD23C,.006*%
G75*
%LPD*%
G75*
G54D10*
X5800Y91624D03*
Y102376D03*
Y99424D03*
Y94576D03*
X6000Y124824D03*
Y127776D03*
Y120376D03*
Y117424D03*
Y133024D03*
Y135976D03*
X30500Y30676D03*
Y27724D03*
X37200Y52824D03*
Y55776D03*
X32931Y52861D03*
Y55813D03*
X28600Y52924D03*
Y55876D03*
X41300Y109276D03*
Y106324D03*
X42743Y30910D03*
Y27958D03*
X41600Y52824D03*
Y55776D03*
X46300Y103676D03*
Y100724D03*
X89265Y109479D03*
Y106527D03*
X89018Y119636D03*
Y122588D03*
X108320Y90984D03*
X95321Y109480D03*
Y106528D03*
X108320Y93936D03*
X95278Y119920D03*
Y116968D03*
X134918Y122462D03*
Y125414D03*
X128318Y122450D03*
Y125402D03*
X140118Y122498D03*
Y125450D03*
X177880Y71632D03*
Y74584D03*
X173652Y71644D03*
Y74596D03*
X169411Y71634D03*
Y74586D03*
X164941Y108453D03*
Y111405D03*
X182011Y68434D03*
Y71386D03*
X193411Y59734D03*
Y62686D03*
X183970Y115053D03*
Y112101D03*
G54D11*
X23900Y17400D03*
X18500D03*
X34915Y18740D03*
X40315D03*
X30000Y75500D03*
X35400D03*
X47200Y53600D03*
X52600D03*
X54799Y69600D03*
X49399D03*
X89606Y50618D03*
Y44968D03*
X101143Y44997D03*
X106543D03*
X95006Y50618D03*
Y44968D03*
G54D20*
X193360Y92505D03*
X181234D03*
X193360Y89355D03*
Y90930D03*
X181234Y89355D03*
Y90930D03*
X193360Y87780D03*
X181234D03*
X193360Y101954D03*
X181234D03*
X193360Y100379D03*
X181234D03*
X193360Y98804D03*
X181234D03*
X193360Y95654D03*
Y97229D03*
X181234Y95654D03*
Y97229D03*
X193360Y94080D03*
X181234D03*
G54D21*
G01X-100127Y-147468D02*
X299873D01*
G01X-100127Y-117468D02*
Y-97468D01*
X299873D01*
G01X-50127Y-167468D02*
Y-147468D01*
G01X75373Y-167468D02*
Y-147468D01*
G01X74873Y-97468D02*
Y-67468D01*
G01X124873Y-167468D02*
Y-147468D01*
G54D12*
X20100Y30749D03*
Y32851D03*
X12800Y110049D03*
X6500Y109749D03*
X17000Y125349D03*
Y127451D03*
X12800Y112151D03*
X16900Y120051D03*
Y117949D03*
X6500Y111851D03*
X20000Y141551D03*
Y139449D03*
X27485Y47133D03*
X25383D03*
X27511Y50000D03*
X25409D03*
X29400Y103449D03*
Y105551D03*
X35951Y104300D03*
X33849D03*
X23600Y119651D03*
Y117549D03*
X33000Y128049D03*
X25100Y129449D03*
Y131551D03*
X31051Y133000D03*
X28949D03*
X25100Y141551D03*
Y139449D03*
X33000Y130151D03*
X45600Y97951D03*
Y95849D03*
X45800Y108749D03*
Y110851D03*
X45600Y126051D03*
Y123949D03*
Y120851D03*
Y118749D03*
X45800Y131451D03*
Y129349D03*
X41600Y131549D03*
Y133651D03*
X64945Y53991D03*
Y51889D03*
X66549Y111400D03*
X68651D03*
X70311Y116561D03*
Y114459D03*
X74853Y115409D03*
Y113307D03*
X66765Y114403D03*
Y116505D03*
X89653Y92786D03*
X91755D03*
X83302Y101537D03*
X85404D03*
X92139Y98951D03*
X90524Y101396D03*
Y103498D03*
X84473Y104411D03*
Y106513D03*
X85107Y109166D03*
X83005D03*
X90511Y126391D03*
X85789Y120871D03*
X83687D03*
X88435Y116828D03*
X90537D03*
X90396Y114303D03*
Y112201D03*
X85642Y113051D03*
X87744D03*
X85303Y117129D03*
X83201D03*
X82736Y112400D03*
Y114502D03*
X77475Y116961D03*
X79577D03*
X77831Y113121D03*
X79933D03*
X84451Y123371D03*
X82349D03*
X84600Y126749D03*
X90511Y128493D03*
X79849Y128500D03*
X81951D03*
X84600Y128851D03*
X98387Y91120D03*
X96285D03*
X109042Y105095D03*
Y107197D03*
X102726Y105032D03*
Y107134D03*
X106088Y105483D03*
Y107585D03*
X102491Y101016D03*
X100389D03*
X94241Y98951D03*
X100285Y105171D03*
X98183D03*
X98196Y109088D03*
X100298D03*
X94355Y101725D03*
Y103827D03*
X110029Y98980D03*
X108854Y124612D03*
X99374Y120928D03*
X101476D03*
X106279Y122887D03*
X104177D03*
X99399Y126482D03*
X107616Y113155D03*
X105514D03*
X106034Y127612D03*
Y125510D03*
X94181Y125972D03*
Y123870D03*
X95047Y114275D03*
Y112173D03*
X98278Y117015D03*
X100380D03*
X98280Y113048D03*
X100382D03*
X96747Y122743D03*
Y124845D03*
X102900Y111349D03*
Y113451D03*
X95351Y128800D03*
X93249D03*
X99399Y128584D03*
X94431Y137169D03*
Y135067D03*
X106860Y144010D03*
X108962D03*
X109000Y138051D03*
Y135949D03*
X109962Y166210D03*
X107860D03*
X112131Y98980D03*
X123660Y102019D03*
Y104121D03*
X117160Y102059D03*
Y104161D03*
X110956Y124612D03*
X115648Y122953D03*
X113546D03*
X118564Y126551D03*
Y124449D03*
X114749Y117502D03*
Y115400D03*
X120760Y138210D03*
X122862D03*
X127761Y102019D03*
Y104121D03*
X135090Y136981D03*
Y134879D03*
X167052Y98014D03*
X164950D03*
X173355Y97374D03*
X171253D03*
X165551Y122076D03*
X163449D03*
X165551Y124676D03*
X163449D03*
X169660Y124871D03*
X171762D03*
X173978Y119911D03*
X171876D03*
X165470Y116948D03*
Y119050D03*
X193062Y75610D03*
X190960D03*
X192711Y68959D03*
Y71061D03*
X188462Y75610D03*
X186360D03*
G54D22*
G01X-100127Y-167468D02*
Y-67468D01*
X299873D01*
G01D02*
Y-167468D01*
X-100127D01*
G54D13*
X17124Y54640D03*
X20076D03*
X17124Y58800D03*
X20076D03*
X18676Y102600D03*
X15724D03*
X21124Y126200D03*
X36224Y13600D03*
X39176D03*
X40476Y97300D03*
X37524D03*
X37076Y107600D03*
X34124D03*
X24076Y126200D03*
X31976Y122500D03*
X29024D03*
X37076Y143300D03*
X34124D03*
X75293Y105820D03*
X75360Y123410D03*
X88724Y89300D03*
X91676D03*
X78245Y105820D03*
X78312Y123410D03*
X99010Y87396D03*
X96058D03*
X102165Y97800D03*
X99213D03*
X103278Y117318D03*
X106230D03*
X144519Y182017D03*
X141567D03*
G54D23*
G01X-97777Y-163968D02*
Y-157668D01*
X-98717Y-158928D01*
G01Y-163968D02*
X-96837D01*
G01X-91477D02*
Y-157668D01*
X-92417Y-158928D01*
G01Y-163968D02*
X-90537D01*
G01X-78877D02*
X-79504Y-163863D01*
X-80052Y-163443D01*
X-80522Y-162813D01*
X-80835Y-162078D01*
X-80992Y-161238D01*
Y-160398D01*
X-80835Y-159558D01*
X-80522Y-158823D01*
X-80052Y-158193D01*
X-79504Y-157773D01*
X-78877Y-157668D01*
X-78250Y-157773D01*
X-77702Y-158193D01*
X-77232Y-158823D01*
X-76919Y-159558D01*
X-76762Y-160398D01*
Y-161238D01*
X-76919Y-162078D01*
X-77232Y-162813D01*
X-77702Y-163443D01*
X-78250Y-163863D01*
X-78877Y-163968D01*
G01X-74065D02*
Y-157668D01*
X-71089D01*
G01X-72185Y-160713D02*
X-74065D01*
G01X-59977Y-163968D02*
Y-157668D01*
X-60917Y-158928D01*
G01Y-163968D02*
X-59037D01*
G01X-55165Y-158718D02*
X-54695Y-158088D01*
X-54147Y-157773D01*
X-53520Y-157668D01*
X-52737Y-157878D01*
X-52189Y-158403D01*
X-52032Y-159033D01*
X-52110Y-159663D01*
X-52424Y-160188D01*
X-53990Y-161238D01*
X-54695Y-161973D01*
X-55165Y-163023D01*
X-55322Y-163968D01*
X-52032D01*
G01X-96602Y-154935D02*
X-96135Y-155268D01*
X-95610Y-155468D01*
X-95144D01*
X-94677Y-155268D01*
X-94327Y-154935D01*
X-94152Y-154468D01*
X-94269Y-154001D01*
X-94560Y-153601D01*
X-95085Y-153335D01*
X-95785Y-153201D01*
X-96194Y-152935D01*
X-96369Y-152468D01*
X-96252Y-152001D01*
X-95960Y-151668D01*
X-95552Y-151468D01*
X-95144D01*
X-94735Y-151601D01*
X-94385Y-151935D01*
G01X-91802Y-155468D02*
Y-151468D01*
G01X-89352D02*
Y-155468D01*
G01Y-153468D02*
X-91802D01*
G01X-84610Y-155468D02*
X-86944D01*
Y-151468D01*
X-84610D01*
G01X-85544Y-153401D02*
X-86944D01*
G01X-79810Y-155468D02*
X-82144D01*
Y-151468D01*
X-79810D01*
G01X-80744Y-153401D02*
X-82144D01*
G01X-76177Y-151468D02*
Y-155468D01*
G01X-77519Y-151468D02*
X-74835D01*
G01X-88377Y-136468D02*
X-88844Y-136401D01*
X-89252Y-136135D01*
X-89602Y-135735D01*
X-89835Y-135268D01*
X-89952Y-134735D01*
Y-134201D01*
X-89835Y-133668D01*
X-89602Y-133201D01*
X-89252Y-132801D01*
X-88844Y-132535D01*
X-88377Y-132468D01*
X-87910Y-132535D01*
X-87502Y-132801D01*
X-87152Y-133201D01*
X-86919Y-133668D01*
X-86802Y-134201D01*
Y-134735D01*
X-86919Y-135268D01*
X-87152Y-135735D01*
X-87502Y-136135D01*
X-87910Y-136401D01*
X-88377Y-136468D01*
G01X-84744D02*
Y-132468D01*
X-83285D01*
X-82819Y-132668D01*
X-82527Y-132935D01*
X-82410Y-133468D01*
X-82527Y-134001D01*
X-82877Y-134335D01*
X-83285Y-134535D01*
X-84744D01*
G01X-83285D02*
X-82410Y-136468D01*
G01X-74677Y-132468D02*
X-73277D01*
G01X-73977D02*
Y-136468D01*
G01X-74677D02*
X-73277D01*
G01X-70519D02*
Y-132468D01*
X-67835Y-136468D01*
Y-132468D01*
G01X-60744Y-136468D02*
Y-132468D01*
X-59344D01*
X-58877Y-132668D01*
X-58527Y-133135D01*
X-58410Y-133668D01*
X-58527Y-134201D01*
X-58819Y-134601D01*
X-59344Y-134801D01*
X-60744D01*
G01X-56235Y-136468D02*
X-54777Y-132468D01*
X-53319Y-136468D01*
G01X-53844Y-135068D02*
X-55710D01*
G01X-51144Y-136468D02*
Y-132468D01*
X-49685D01*
X-49219Y-132668D01*
X-48927Y-132935D01*
X-48810Y-133468D01*
X-48927Y-134001D01*
X-49277Y-134335D01*
X-49685Y-134535D01*
X-51144D01*
G01X-49685D02*
X-48810Y-136468D01*
G01X-45177Y-132468D02*
Y-136468D01*
G01X-46519Y-132468D02*
X-43835D01*
G01X-37327D02*
X-36510Y-136468D01*
X-35577Y-132468D01*
X-34644Y-136468D01*
X-33827Y-132468D01*
G01X-31477D02*
X-30077D01*
G01X-30777D02*
Y-136468D01*
G01X-31477D02*
X-30077D01*
G01X-25977Y-132468D02*
Y-136468D01*
G01X-27319Y-132468D02*
X-24635D01*
G01X-22402Y-136468D02*
Y-132468D01*
G01X-19952D02*
Y-136468D01*
G01Y-134468D02*
X-22402D01*
G01X-16377Y-136468D02*
X-16844Y-136401D01*
X-17252Y-136135D01*
X-17602Y-135735D01*
X-17835Y-135268D01*
X-17952Y-134735D01*
Y-134201D01*
X-17835Y-133668D01*
X-17602Y-133201D01*
X-17252Y-132801D01*
X-16844Y-132535D01*
X-16377Y-132468D01*
X-15910Y-132535D01*
X-15502Y-132801D01*
X-15152Y-133201D01*
X-14919Y-133668D01*
X-14802Y-134201D01*
Y-134735D01*
X-14919Y-135268D01*
X-15152Y-135735D01*
X-15502Y-136135D01*
X-15910Y-136401D01*
X-16377Y-136468D01*
G01X-12860Y-132468D02*
Y-135335D01*
X-12627Y-135935D01*
X-12160Y-136335D01*
X-11577Y-136468D01*
X-10994Y-136335D01*
X-10527Y-135935D01*
X-10294Y-135335D01*
Y-132468D01*
G01X-6777D02*
Y-136468D01*
G01X-8119Y-132468D02*
X-5435D01*
G01X2823D02*
Y-136468D01*
G01X1481Y-132468D02*
X4165D01*
G01X6398Y-136468D02*
Y-132468D01*
G01X8848D02*
Y-136468D01*
G01Y-134468D02*
X6398D01*
G01X13590Y-136468D02*
X11256D01*
Y-132468D01*
X13590D01*
G01X12656Y-134401D02*
X11256D01*
G01X23306Y-132801D02*
X22956Y-132601D01*
X22548Y-132468D01*
X22081D01*
X21556Y-132668D01*
X21148Y-133001D01*
X20856Y-133401D01*
X20623Y-134068D01*
X20565Y-134668D01*
X20681Y-135268D01*
X20856Y-135668D01*
X21206Y-136068D01*
X21615Y-136335D01*
X22023Y-136468D01*
X22431D01*
X22840Y-136335D01*
X23190Y-136135D01*
X23481Y-135868D01*
G01X26823Y-136468D02*
X26356Y-136401D01*
X25948Y-136135D01*
X25598Y-135735D01*
X25365Y-135268D01*
X25248Y-134735D01*
Y-134201D01*
X25365Y-133668D01*
X25598Y-133201D01*
X25948Y-132801D01*
X26356Y-132535D01*
X26823Y-132468D01*
X27290Y-132535D01*
X27698Y-132801D01*
X28048Y-133201D01*
X28281Y-133668D01*
X28398Y-134201D01*
Y-134735D01*
X28281Y-135268D01*
X28048Y-135735D01*
X27698Y-136135D01*
X27290Y-136401D01*
X26823Y-136468D01*
G01X30281D02*
Y-132468D01*
X32965Y-136468D01*
Y-132468D01*
G01X35198Y-135935D02*
X35665Y-136268D01*
X36190Y-136468D01*
X36656D01*
X37123Y-136268D01*
X37473Y-135935D01*
X37648Y-135468D01*
X37531Y-135001D01*
X37240Y-134601D01*
X36715Y-134335D01*
X36015Y-134201D01*
X35606Y-133935D01*
X35431Y-133468D01*
X35548Y-133001D01*
X35840Y-132668D01*
X36248Y-132468D01*
X36656D01*
X37065Y-132601D01*
X37415Y-132935D01*
G01X42390Y-136468D02*
X40056D01*
Y-132468D01*
X42390D01*
G01X41456Y-134401D02*
X40056D01*
G01X44681Y-136468D02*
Y-132468D01*
X47365Y-136468D01*
Y-132468D01*
G01X50823D02*
Y-136468D01*
G01X49481Y-132468D02*
X52165D01*
G01X60423Y-136468D02*
X59956Y-136401D01*
X59548Y-136135D01*
X59198Y-135735D01*
X58965Y-135268D01*
X58848Y-134735D01*
Y-134201D01*
X58965Y-133668D01*
X59198Y-133201D01*
X59548Y-132801D01*
X59956Y-132535D01*
X60423Y-132468D01*
X60890Y-132535D01*
X61298Y-132801D01*
X61648Y-133201D01*
X61881Y-133668D01*
X61998Y-134201D01*
Y-134735D01*
X61881Y-135268D01*
X61648Y-135735D01*
X61298Y-136135D01*
X60890Y-136401D01*
X60423Y-136468D01*
G01X64115D02*
Y-132468D01*
X66331D01*
G01X65515Y-134401D02*
X64115D01*
G01X-88719Y-144468D02*
Y-140468D01*
X-86035Y-144468D01*
Y-140468D01*
G01X-83802Y-144468D02*
X-81352Y-140468D01*
G01X-83802D02*
X-81352Y-144468D01*
G01X-78944D02*
Y-140468D01*
X-77544D01*
X-77077Y-140668D01*
X-76727Y-141135D01*
X-76610Y-141668D01*
X-76727Y-142201D01*
X-77019Y-142601D01*
X-77544Y-142801D01*
X-78944D01*
G01X-72977Y-144601D02*
X-73094Y-144535D01*
Y-144401D01*
X-72977Y-144335D01*
X-72860Y-144401D01*
Y-144535D01*
X-72977Y-144601D01*
G01X-87910Y-118335D02*
X-87677Y-118135D01*
X-87502Y-117801D01*
X-87385Y-117335D01*
X-87502Y-116935D01*
X-87735Y-116668D01*
X-88144Y-116468D01*
X-89719D01*
Y-120468D01*
X-87794D01*
X-87385Y-120201D01*
X-87152Y-119801D01*
X-87035Y-119335D01*
X-87152Y-118868D01*
X-87502Y-118468D01*
X-87910Y-118335D01*
X-89719D01*
G01X-82410Y-120468D02*
X-84744D01*
Y-116468D01*
X-82410D01*
G01X-83344Y-118401D02*
X-84744D01*
G01X-75260Y-116468D02*
Y-119335D01*
X-75027Y-119935D01*
X-74560Y-120335D01*
X-73977Y-120468D01*
X-73394Y-120335D01*
X-72927Y-119935D01*
X-72694Y-119335D01*
Y-116468D01*
G01X-70402Y-119935D02*
X-69935Y-120268D01*
X-69410Y-120468D01*
X-68944D01*
X-68477Y-120268D01*
X-68127Y-119935D01*
X-67952Y-119468D01*
X-68069Y-119001D01*
X-68360Y-118601D01*
X-68885Y-118335D01*
X-69585Y-118201D01*
X-69994Y-117935D01*
X-70169Y-117468D01*
X-70052Y-117001D01*
X-69760Y-116668D01*
X-69352Y-116468D01*
X-68944D01*
X-68535Y-116601D01*
X-68185Y-116935D01*
G01X-63210Y-120468D02*
X-65544D01*
Y-116468D01*
X-63210D01*
G01X-64144Y-118401D02*
X-65544D01*
G01X-60860Y-120468D02*
Y-116468D01*
X-59694D01*
X-59227Y-116668D01*
X-58877Y-116935D01*
X-58585Y-117335D01*
X-58352Y-117801D01*
X-58294Y-118468D01*
X-58352Y-119135D01*
X-58585Y-119601D01*
X-58877Y-120001D01*
X-59227Y-120268D01*
X-59694Y-120468D01*
X-60860D01*
G01X-51085D02*
Y-116468D01*
X-48869D01*
G01X-49685Y-118401D02*
X-51085D01*
G01X-45177Y-120468D02*
X-45644Y-120401D01*
X-46052Y-120135D01*
X-46402Y-119735D01*
X-46635Y-119268D01*
X-46752Y-118735D01*
Y-118201D01*
X-46635Y-117668D01*
X-46402Y-117201D01*
X-46052Y-116801D01*
X-45644Y-116535D01*
X-45177Y-116468D01*
X-44710Y-116535D01*
X-44302Y-116801D01*
X-43952Y-117201D01*
X-43719Y-117668D01*
X-43602Y-118201D01*
Y-118735D01*
X-43719Y-119268D01*
X-43952Y-119735D01*
X-44302Y-120135D01*
X-44710Y-120401D01*
X-45177Y-120468D01*
G01X-41544D02*
Y-116468D01*
X-40085D01*
X-39619Y-116668D01*
X-39327Y-116935D01*
X-39210Y-117468D01*
X-39327Y-118001D01*
X-39677Y-118335D01*
X-40085Y-118535D01*
X-41544D01*
G01X-40085D02*
X-39210Y-120468D01*
G01X-29610D02*
X-31944D01*
Y-116468D01*
X-29610D01*
G01X-30544Y-118401D02*
X-31944D01*
G01X-27319Y-120468D02*
Y-116468D01*
X-24635Y-120468D01*
Y-116468D01*
G01X-20827Y-118468D02*
X-19660D01*
Y-119668D01*
X-20010Y-120068D01*
X-20419Y-120335D01*
X-21002Y-120468D01*
X-21585Y-120335D01*
X-21994Y-120068D01*
X-22344Y-119668D01*
X-22577Y-119201D01*
X-22694Y-118668D01*
Y-118201D01*
X-22577Y-117801D01*
X-22344Y-117335D01*
X-21994Y-116935D01*
X-21644Y-116668D01*
X-21177Y-116468D01*
X-20769D01*
X-20302Y-116601D01*
X-19952Y-116868D01*
G01X-17077Y-116468D02*
X-15677D01*
G01X-16377D02*
Y-120468D01*
G01X-17077D02*
X-15677D01*
G01X-12919D02*
Y-116468D01*
X-10235Y-120468D01*
Y-116468D01*
G01X-5610Y-120468D02*
X-7944D01*
Y-116468D01*
X-5610D01*
G01X-6544Y-118401D02*
X-7944D01*
G01X-810Y-120468D02*
X-3144D01*
Y-116468D01*
X-810D01*
G01X-1744Y-118401D02*
X-3144D01*
G01X1656Y-120468D02*
Y-116468D01*
X3115D01*
X3581Y-116668D01*
X3873Y-116935D01*
X3990Y-117468D01*
X3873Y-118001D01*
X3523Y-118335D01*
X3115Y-118535D01*
X1656D01*
G01X3115D02*
X3990Y-120468D01*
G01X6923Y-116468D02*
X8323D01*
G01X7623D02*
Y-120468D01*
G01X6923D02*
X8323D01*
G01X11081D02*
Y-116468D01*
X13765Y-120468D01*
Y-116468D01*
G01X17573Y-118468D02*
X18740D01*
Y-119668D01*
X18390Y-120068D01*
X17981Y-120335D01*
X17398Y-120468D01*
X16815Y-120335D01*
X16406Y-120068D01*
X16056Y-119668D01*
X15823Y-119201D01*
X15706Y-118668D01*
Y-118201D01*
X15823Y-117801D01*
X16056Y-117335D01*
X16406Y-116935D01*
X16756Y-116668D01*
X17223Y-116468D01*
X17631D01*
X18098Y-116601D01*
X18448Y-116868D01*
G01X25540Y-120468D02*
Y-116468D01*
X26706D01*
X27173Y-116668D01*
X27523Y-116935D01*
X27815Y-117335D01*
X28048Y-117801D01*
X28106Y-118468D01*
X28048Y-119135D01*
X27815Y-119601D01*
X27523Y-120001D01*
X27173Y-120268D01*
X26706Y-120468D01*
X25540D01*
G01X32790D02*
X30456D01*
Y-116468D01*
X32790D01*
G01X31856Y-118401D02*
X30456D01*
G01X35198Y-119935D02*
X35665Y-120268D01*
X36190Y-120468D01*
X36656D01*
X37123Y-120268D01*
X37473Y-119935D01*
X37648Y-119468D01*
X37531Y-119001D01*
X37240Y-118601D01*
X36715Y-118335D01*
X36015Y-118201D01*
X35606Y-117935D01*
X35431Y-117468D01*
X35548Y-117001D01*
X35840Y-116668D01*
X36248Y-116468D01*
X36656D01*
X37065Y-116601D01*
X37415Y-116935D01*
G01X40523Y-116468D02*
X41923D01*
G01X41223D02*
Y-120468D01*
G01X40523D02*
X41923D01*
G01X46373Y-118468D02*
X47540D01*
Y-119668D01*
X47190Y-120068D01*
X46781Y-120335D01*
X46198Y-120468D01*
X45615Y-120335D01*
X45206Y-120068D01*
X44856Y-119668D01*
X44623Y-119201D01*
X44506Y-118668D01*
Y-118201D01*
X44623Y-117801D01*
X44856Y-117335D01*
X45206Y-116935D01*
X45556Y-116668D01*
X46023Y-116468D01*
X46431D01*
X46898Y-116601D01*
X47248Y-116868D01*
G01X49481Y-120468D02*
Y-116468D01*
X52165Y-120468D01*
Y-116468D01*
G01X-89544Y-128468D02*
Y-124468D01*
X-88144D01*
X-87677Y-124668D01*
X-87327Y-125135D01*
X-87210Y-125668D01*
X-87327Y-126201D01*
X-87619Y-126601D01*
X-88144Y-126801D01*
X-89544D01*
G01X-84744Y-128468D02*
Y-124468D01*
X-83285D01*
X-82819Y-124668D01*
X-82527Y-124935D01*
X-82410Y-125468D01*
X-82527Y-126001D01*
X-82877Y-126335D01*
X-83285Y-126535D01*
X-84744D01*
G01X-83285D02*
X-82410Y-128468D01*
G01X-78777D02*
X-79244Y-128401D01*
X-79652Y-128135D01*
X-80002Y-127735D01*
X-80235Y-127268D01*
X-80352Y-126735D01*
Y-126201D01*
X-80235Y-125668D01*
X-80002Y-125201D01*
X-79652Y-124801D01*
X-79244Y-124535D01*
X-78777Y-124468D01*
X-78310Y-124535D01*
X-77902Y-124801D01*
X-77552Y-125201D01*
X-77319Y-125668D01*
X-77202Y-126201D01*
Y-126735D01*
X-77319Y-127268D01*
X-77552Y-127735D01*
X-77902Y-128135D01*
X-78310Y-128401D01*
X-78777Y-128468D01*
G01X-72694Y-124801D02*
X-73044Y-124601D01*
X-73452Y-124468D01*
X-73919D01*
X-74444Y-124668D01*
X-74852Y-125001D01*
X-75144Y-125401D01*
X-75377Y-126068D01*
X-75435Y-126668D01*
X-75319Y-127268D01*
X-75144Y-127668D01*
X-74794Y-128068D01*
X-74385Y-128335D01*
X-73977Y-128468D01*
X-73569D01*
X-73160Y-128335D01*
X-72810Y-128135D01*
X-72519Y-127868D01*
G01X-70460Y-124468D02*
Y-127335D01*
X-70227Y-127935D01*
X-69760Y-128335D01*
X-69177Y-128468D01*
X-68594Y-128335D01*
X-68127Y-127935D01*
X-67894Y-127335D01*
Y-124468D01*
G01X-65544Y-128468D02*
Y-124468D01*
X-64085D01*
X-63619Y-124668D01*
X-63327Y-124935D01*
X-63210Y-125468D01*
X-63327Y-126001D01*
X-63677Y-126335D01*
X-64085Y-126535D01*
X-65544D01*
G01X-64085D02*
X-63210Y-128468D01*
G01X-58410D02*
X-60744D01*
Y-124468D01*
X-58410D01*
G01X-59344Y-126401D02*
X-60744D01*
G01X-56294Y-128468D02*
Y-124468D01*
X-54777Y-127801D01*
X-53260Y-124468D01*
Y-128468D01*
G01X-48810D02*
X-51144D01*
Y-124468D01*
X-48810D01*
G01X-49744Y-126401D02*
X-51144D01*
G01X-46519Y-128468D02*
Y-124468D01*
X-43835Y-128468D01*
Y-124468D01*
G01X-40377D02*
Y-128468D01*
G01X-41719Y-124468D02*
X-39035D01*
G01X-30777Y-128468D02*
X-31244Y-128401D01*
X-31652Y-128135D01*
X-32002Y-127735D01*
X-32235Y-127268D01*
X-32352Y-126735D01*
Y-126201D01*
X-32235Y-125668D01*
X-32002Y-125201D01*
X-31652Y-124801D01*
X-31244Y-124535D01*
X-30777Y-124468D01*
X-30310Y-124535D01*
X-29902Y-124801D01*
X-29552Y-125201D01*
X-29319Y-125668D01*
X-29202Y-126201D01*
Y-126735D01*
X-29319Y-127268D01*
X-29552Y-127735D01*
X-29902Y-128135D01*
X-30310Y-128401D01*
X-30777Y-128468D01*
G01X-27144D02*
Y-124468D01*
X-25685D01*
X-25219Y-124668D01*
X-24927Y-124935D01*
X-24810Y-125468D01*
X-24927Y-126001D01*
X-25277Y-126335D01*
X-25685Y-126535D01*
X-27144D01*
G01X-25685D02*
X-24810Y-128468D01*
G01X-17894D02*
Y-124468D01*
X-16377Y-127801D01*
X-14860Y-124468D01*
Y-128468D01*
G01X-13035D02*
X-11577Y-124468D01*
X-10119Y-128468D01*
G01X-10644Y-127068D02*
X-12510D01*
G01X-8119Y-128468D02*
Y-124468D01*
X-5435Y-128468D01*
Y-124468D01*
G01X-3260D02*
Y-127335D01*
X-3027Y-127935D01*
X-2560Y-128335D01*
X-1977Y-128468D01*
X-1394Y-128335D01*
X-927Y-127935D01*
X-694Y-127335D01*
Y-124468D01*
G01X1715Y-128468D02*
Y-124468D01*
X3931D01*
G01X3115Y-126401D02*
X1715D01*
G01X6165Y-128468D02*
X7623Y-124468D01*
X9081Y-128468D01*
G01X8556Y-127068D02*
X6690D01*
G01X13706Y-124801D02*
X13356Y-124601D01*
X12948Y-124468D01*
X12481D01*
X11956Y-124668D01*
X11548Y-125001D01*
X11256Y-125401D01*
X11023Y-126068D01*
X10965Y-126668D01*
X11081Y-127268D01*
X11256Y-127668D01*
X11606Y-128068D01*
X12015Y-128335D01*
X12423Y-128468D01*
X12831D01*
X13240Y-128335D01*
X13590Y-128135D01*
X13881Y-127868D01*
G01X17223Y-124468D02*
Y-128468D01*
G01X15881Y-124468D02*
X18565D01*
G01X20740D02*
Y-127335D01*
X20973Y-127935D01*
X21440Y-128335D01*
X22023Y-128468D01*
X22606Y-128335D01*
X23073Y-127935D01*
X23306Y-127335D01*
Y-124468D01*
G01X25656Y-128468D02*
Y-124468D01*
X27115D01*
X27581Y-124668D01*
X27873Y-124935D01*
X27990Y-125468D01*
X27873Y-126001D01*
X27523Y-126335D01*
X27115Y-126535D01*
X25656D01*
G01X27115D02*
X27990Y-128468D01*
G01X32790D02*
X30456D01*
Y-124468D01*
X32790D01*
G01X31856Y-126401D02*
X30456D01*
G01X40523Y-124468D02*
X41923D01*
G01X41223D02*
Y-128468D01*
G01X40523D02*
X41923D01*
G01X44681D02*
Y-124468D01*
X47365Y-128468D01*
Y-124468D01*
G01X53873D02*
X54690Y-128468D01*
X55623Y-124468D01*
X56556Y-128468D01*
X57373Y-124468D01*
G01X59198Y-128468D02*
Y-124468D01*
G01X61648D02*
Y-128468D01*
G01Y-126468D02*
X59198D01*
G01X65223Y-128468D02*
X64756Y-128401D01*
X64348Y-128135D01*
X63998Y-127735D01*
X63765Y-127268D01*
X63648Y-126735D01*
Y-126201D01*
X63765Y-125668D01*
X63998Y-125201D01*
X64348Y-124801D01*
X64756Y-124535D01*
X65223Y-124468D01*
X65690Y-124535D01*
X66098Y-124801D01*
X66448Y-125201D01*
X66681Y-125668D01*
X66798Y-126201D01*
Y-126735D01*
X66681Y-127268D01*
X66448Y-127735D01*
X66098Y-128135D01*
X65690Y-128401D01*
X65223Y-128468D01*
G01X68856Y-124468D02*
Y-128468D01*
X71190D01*
G01X75990D02*
X73656D01*
Y-124468D01*
X75990D01*
G01X75056Y-126401D02*
X73656D01*
G01X-89377Y-100468D02*
Y-104468D01*
G01X-90719Y-100468D02*
X-88035D01*
G01X-85802Y-104468D02*
Y-100468D01*
G01X-83352D02*
Y-104468D01*
G01Y-102468D02*
X-85802D01*
G01X-80477Y-100468D02*
X-79077D01*
G01X-79777D02*
Y-104468D01*
G01X-80477D02*
X-79077D01*
G01X-76202Y-103935D02*
X-75735Y-104268D01*
X-75210Y-104468D01*
X-74744D01*
X-74277Y-104268D01*
X-73927Y-103935D01*
X-73752Y-103468D01*
X-73869Y-103001D01*
X-74160Y-102601D01*
X-74685Y-102335D01*
X-75385Y-102201D01*
X-75794Y-101935D01*
X-75969Y-101468D01*
X-75852Y-101001D01*
X-75560Y-100668D01*
X-75152Y-100468D01*
X-74744D01*
X-74335Y-100601D01*
X-73985Y-100935D01*
G01X-66660Y-104468D02*
Y-100468D01*
X-65494D01*
X-65027Y-100668D01*
X-64677Y-100935D01*
X-64385Y-101335D01*
X-64152Y-101801D01*
X-64094Y-102468D01*
X-64152Y-103135D01*
X-64385Y-103601D01*
X-64677Y-104001D01*
X-65027Y-104268D01*
X-65494Y-104468D01*
X-66660D01*
G01X-60577D02*
X-61044Y-104401D01*
X-61452Y-104135D01*
X-61802Y-103735D01*
X-62035Y-103268D01*
X-62152Y-102735D01*
Y-102201D01*
X-62035Y-101668D01*
X-61802Y-101201D01*
X-61452Y-100801D01*
X-61044Y-100535D01*
X-60577Y-100468D01*
X-60110Y-100535D01*
X-59702Y-100801D01*
X-59352Y-101201D01*
X-59119Y-101668D01*
X-59002Y-102201D01*
Y-102735D01*
X-59119Y-103268D01*
X-59352Y-103735D01*
X-59702Y-104135D01*
X-60110Y-104401D01*
X-60577Y-104468D01*
G01X-54494Y-100801D02*
X-54844Y-100601D01*
X-55252Y-100468D01*
X-55719D01*
X-56244Y-100668D01*
X-56652Y-101001D01*
X-56944Y-101401D01*
X-57177Y-102068D01*
X-57235Y-102668D01*
X-57119Y-103268D01*
X-56944Y-103668D01*
X-56594Y-104068D01*
X-56185Y-104335D01*
X-55777Y-104468D01*
X-55369D01*
X-54960Y-104335D01*
X-54610Y-104135D01*
X-54319Y-103868D01*
G01X-52260Y-100468D02*
Y-103335D01*
X-52027Y-103935D01*
X-51560Y-104335D01*
X-50977Y-104468D01*
X-50394Y-104335D01*
X-49927Y-103935D01*
X-49694Y-103335D01*
Y-100468D01*
G01X-47694Y-104468D02*
Y-100468D01*
X-46177Y-103801D01*
X-44660Y-100468D01*
Y-104468D01*
G01X-40210D02*
X-42544D01*
Y-100468D01*
X-40210D01*
G01X-41144Y-102401D02*
X-42544D01*
G01X-37919Y-104468D02*
Y-100468D01*
X-35235Y-104468D01*
Y-100468D01*
G01X-31777D02*
Y-104468D01*
G01X-33119Y-100468D02*
X-30435D01*
G01X-20894Y-100801D02*
X-21244Y-100601D01*
X-21652Y-100468D01*
X-22119D01*
X-22644Y-100668D01*
X-23052Y-101001D01*
X-23344Y-101401D01*
X-23577Y-102068D01*
X-23635Y-102668D01*
X-23519Y-103268D01*
X-23344Y-103668D01*
X-22994Y-104068D01*
X-22585Y-104335D01*
X-22177Y-104468D01*
X-21769D01*
X-21360Y-104335D01*
X-21010Y-104135D01*
X-20719Y-103868D01*
G01X-17377Y-104468D02*
X-17844Y-104401D01*
X-18252Y-104135D01*
X-18602Y-103735D01*
X-18835Y-103268D01*
X-18952Y-102735D01*
Y-102201D01*
X-18835Y-101668D01*
X-18602Y-101201D01*
X-18252Y-100801D01*
X-17844Y-100535D01*
X-17377Y-100468D01*
X-16910Y-100535D01*
X-16502Y-100801D01*
X-16152Y-101201D01*
X-15919Y-101668D01*
X-15802Y-102201D01*
Y-102735D01*
X-15919Y-103268D01*
X-16152Y-103735D01*
X-16502Y-104135D01*
X-16910Y-104401D01*
X-17377Y-104468D01*
G01X-13919D02*
Y-100468D01*
X-11235Y-104468D01*
Y-100468D01*
G01X-7777D02*
Y-104468D01*
G01X-9119Y-100468D02*
X-6435D01*
G01X-4435Y-104468D02*
X-2977Y-100468D01*
X-1519Y-104468D01*
G01X-2044Y-103068D02*
X-3910D01*
G01X1123Y-100468D02*
X2523D01*
G01X1823D02*
Y-104468D01*
G01X1123D02*
X2523D01*
G01X5281D02*
Y-100468D01*
X7965Y-104468D01*
Y-100468D01*
G01X10198Y-103935D02*
X10665Y-104268D01*
X11190Y-104468D01*
X11656D01*
X12123Y-104268D01*
X12473Y-103935D01*
X12648Y-103468D01*
X12531Y-103001D01*
X12240Y-102601D01*
X11715Y-102335D01*
X11015Y-102201D01*
X10606Y-101935D01*
X10431Y-101468D01*
X10548Y-101001D01*
X10840Y-100668D01*
X11248Y-100468D01*
X11656D01*
X12065Y-100601D01*
X12415Y-100935D01*
G01X20323Y-100468D02*
X21723D01*
G01X21023D02*
Y-104468D01*
G01X20323D02*
X21723D01*
G01X24481D02*
Y-100468D01*
X27165Y-104468D01*
Y-100468D01*
G01X29515Y-104468D02*
Y-100468D01*
X31731D01*
G01X30915Y-102401D02*
X29515D01*
G01X35423Y-104468D02*
X34956Y-104401D01*
X34548Y-104135D01*
X34198Y-103735D01*
X33965Y-103268D01*
X33848Y-102735D01*
Y-102201D01*
X33965Y-101668D01*
X34198Y-101201D01*
X34548Y-100801D01*
X34956Y-100535D01*
X35423Y-100468D01*
X35890Y-100535D01*
X36298Y-100801D01*
X36648Y-101201D01*
X36881Y-101668D01*
X36998Y-102201D01*
Y-102735D01*
X36881Y-103268D01*
X36648Y-103735D01*
X36298Y-104135D01*
X35890Y-104401D01*
X35423Y-104468D01*
G01X39056D02*
Y-100468D01*
X40515D01*
X40981Y-100668D01*
X41273Y-100935D01*
X41390Y-101468D01*
X41273Y-102001D01*
X40923Y-102335D01*
X40515Y-102535D01*
X39056D01*
G01X40515D02*
X41390Y-104468D01*
G01X43506D02*
Y-100468D01*
X45023Y-103801D01*
X46540Y-100468D01*
Y-104468D01*
G01X48365D02*
X49823Y-100468D01*
X51281Y-104468D01*
G01X50756Y-103068D02*
X48890D01*
G01X54623Y-100468D02*
Y-104468D01*
G01X53281Y-100468D02*
X55965D01*
G01X58723D02*
X60123D01*
G01X59423D02*
Y-104468D01*
G01X58723D02*
X60123D01*
G01X64223D02*
X63756Y-104401D01*
X63348Y-104135D01*
X62998Y-103735D01*
X62765Y-103268D01*
X62648Y-102735D01*
Y-102201D01*
X62765Y-101668D01*
X62998Y-101201D01*
X63348Y-100801D01*
X63756Y-100535D01*
X64223Y-100468D01*
X64690Y-100535D01*
X65098Y-100801D01*
X65448Y-101201D01*
X65681Y-101668D01*
X65798Y-102201D01*
Y-102735D01*
X65681Y-103268D01*
X65448Y-103735D01*
X65098Y-104135D01*
X64690Y-104401D01*
X64223Y-104468D01*
G01X67681D02*
Y-100468D01*
X70365Y-104468D01*
Y-100468D01*
G01X-89544Y-112468D02*
Y-108468D01*
X-88144D01*
X-87677Y-108668D01*
X-87327Y-109135D01*
X-87210Y-109668D01*
X-87327Y-110201D01*
X-87619Y-110601D01*
X-88144Y-110801D01*
X-89544D01*
G01X-84744Y-112468D02*
Y-108468D01*
X-83285D01*
X-82819Y-108668D01*
X-82527Y-108935D01*
X-82410Y-109468D01*
X-82527Y-110001D01*
X-82877Y-110335D01*
X-83285Y-110535D01*
X-84744D01*
G01X-83285D02*
X-82410Y-112468D01*
G01X-78777D02*
X-79244Y-112401D01*
X-79652Y-112135D01*
X-80002Y-111735D01*
X-80235Y-111268D01*
X-80352Y-110735D01*
Y-110201D01*
X-80235Y-109668D01*
X-80002Y-109201D01*
X-79652Y-108801D01*
X-79244Y-108535D01*
X-78777Y-108468D01*
X-78310Y-108535D01*
X-77902Y-108801D01*
X-77552Y-109201D01*
X-77319Y-109668D01*
X-77202Y-110201D01*
Y-110735D01*
X-77319Y-111268D01*
X-77552Y-111735D01*
X-77902Y-112135D01*
X-78310Y-112401D01*
X-78777Y-112468D01*
G01X-75144D02*
Y-108468D01*
X-73744D01*
X-73277Y-108668D01*
X-72927Y-109135D01*
X-72810Y-109668D01*
X-72927Y-110201D01*
X-73219Y-110601D01*
X-73744Y-110801D01*
X-75144D01*
G01X-70344Y-112468D02*
Y-108468D01*
X-68885D01*
X-68419Y-108668D01*
X-68127Y-108935D01*
X-68010Y-109468D01*
X-68127Y-110001D01*
X-68477Y-110335D01*
X-68885Y-110535D01*
X-70344D01*
G01X-68885D02*
X-68010Y-112468D01*
G01X-65077Y-108468D02*
X-63677D01*
G01X-64377D02*
Y-112468D01*
G01X-65077D02*
X-63677D01*
G01X-58410D02*
X-60744D01*
Y-108468D01*
X-58410D01*
G01X-59344Y-110401D02*
X-60744D01*
G01X-54777Y-108468D02*
Y-112468D01*
G01X-56119Y-108468D02*
X-53435D01*
G01X-51435Y-112468D02*
X-49977Y-108468D01*
X-48519Y-112468D01*
G01X-49044Y-111068D02*
X-50910D01*
G01X-46344Y-112468D02*
Y-108468D01*
X-44885D01*
X-44419Y-108668D01*
X-44127Y-108935D01*
X-44010Y-109468D01*
X-44127Y-110001D01*
X-44477Y-110335D01*
X-44885Y-110535D01*
X-46344D01*
G01X-44885D02*
X-44010Y-112468D01*
G01X-40377D02*
Y-110668D01*
X-41544Y-108468D01*
G01X-39210D02*
X-40377Y-110668D01*
G01X-30777Y-108468D02*
Y-112468D01*
G01X-32119Y-108468D02*
X-29435D01*
G01X-25977Y-112468D02*
X-26444Y-112401D01*
X-26852Y-112135D01*
X-27202Y-111735D01*
X-27435Y-111268D01*
X-27552Y-110735D01*
Y-110201D01*
X-27435Y-109668D01*
X-27202Y-109201D01*
X-26852Y-108801D01*
X-26444Y-108535D01*
X-25977Y-108468D01*
X-25510Y-108535D01*
X-25102Y-108801D01*
X-24752Y-109201D01*
X-24519Y-109668D01*
X-24402Y-110201D01*
Y-110735D01*
X-24519Y-111268D01*
X-24752Y-111735D01*
X-25102Y-112135D01*
X-25510Y-112401D01*
X-25977Y-112468D01*
G01X-17719D02*
Y-108468D01*
X-15035Y-112468D01*
Y-108468D01*
G01X-12802Y-112468D02*
X-10352Y-108468D01*
G01X-12802D02*
X-10352Y-112468D01*
G01X-7944D02*
Y-108468D01*
X-6544D01*
X-6077Y-108668D01*
X-5727Y-109135D01*
X-5610Y-109668D01*
X-5727Y-110201D01*
X-6019Y-110601D01*
X-6544Y-110801D01*
X-7944D01*
G01X1365Y-112468D02*
X2823Y-108468D01*
X4281Y-112468D01*
G01X3756Y-111068D02*
X1890D01*
G01X6281Y-112468D02*
Y-108468D01*
X8965Y-112468D01*
Y-108468D01*
G01X11140Y-112468D02*
Y-108468D01*
X12306D01*
X12773Y-108668D01*
X13123Y-108935D01*
X13415Y-109335D01*
X13648Y-109801D01*
X13706Y-110468D01*
X13648Y-111135D01*
X13415Y-111601D01*
X13123Y-112001D01*
X12773Y-112268D01*
X12306Y-112468D01*
X11140D01*
G01X20798Y-111935D02*
X21265Y-112268D01*
X21790Y-112468D01*
X22256D01*
X22723Y-112268D01*
X23073Y-111935D01*
X23248Y-111468D01*
X23131Y-111001D01*
X22840Y-110601D01*
X22315Y-110335D01*
X21615Y-110201D01*
X21206Y-109935D01*
X21031Y-109468D01*
X21148Y-109001D01*
X21440Y-108668D01*
X21848Y-108468D01*
X22256D01*
X22665Y-108601D01*
X23015Y-108935D01*
G01X25598Y-112468D02*
Y-108468D01*
G01X28048D02*
Y-112468D01*
G01Y-110468D02*
X25598D01*
G01X30165Y-112468D02*
X31623Y-108468D01*
X33081Y-112468D01*
G01X32556Y-111068D02*
X30690D01*
G01X35256Y-108468D02*
Y-112468D01*
X37590D01*
G01X40056Y-108468D02*
Y-112468D01*
X42390D01*
G01X49481D02*
Y-108468D01*
X52165Y-112468D01*
Y-108468D01*
G01X55623Y-112468D02*
X55156Y-112401D01*
X54748Y-112135D01*
X54398Y-111735D01*
X54165Y-111268D01*
X54048Y-110735D01*
Y-110201D01*
X54165Y-109668D01*
X54398Y-109201D01*
X54748Y-108801D01*
X55156Y-108535D01*
X55623Y-108468D01*
X56090Y-108535D01*
X56498Y-108801D01*
X56848Y-109201D01*
X57081Y-109668D01*
X57198Y-110201D01*
Y-110735D01*
X57081Y-111268D01*
X56848Y-111735D01*
X56498Y-112135D01*
X56090Y-112401D01*
X55623Y-112468D01*
G01X60423Y-108468D02*
Y-112468D01*
G01X59081Y-108468D02*
X61765D01*
G01X-96485Y-85801D02*
X-96077Y-85335D01*
X-95727Y-85068D01*
X-95260Y-84935D01*
X-94852Y-85068D01*
X-94560Y-85335D01*
X-94327Y-85735D01*
X-94269Y-86201D01*
X-94327Y-86601D01*
X-94560Y-87001D01*
X-94910Y-87335D01*
X-95319Y-87468D01*
X-95785Y-87335D01*
X-96194Y-86935D01*
X-96427Y-86335D01*
X-96485Y-85668D01*
X-96369Y-84801D01*
X-96194Y-84335D01*
X-95902Y-83868D01*
X-95494Y-83535D01*
X-95085Y-83468D01*
X-94677Y-83601D01*
X-94385Y-83935D01*
G01X-91860Y-86868D02*
X-91510Y-87201D01*
X-91102Y-87401D01*
X-90577Y-87468D01*
X-90052Y-87335D01*
X-89644Y-87068D01*
X-89352Y-86601D01*
X-89294Y-86068D01*
X-89410Y-85535D01*
X-89702Y-85201D01*
X-90110Y-84935D01*
X-90519Y-84868D01*
X-90927Y-84935D01*
X-91452Y-85201D01*
X-91277Y-83468D01*
X-89702D01*
G01X-85777D02*
X-86244Y-83601D01*
X-86594Y-83935D01*
X-86827Y-84335D01*
X-87002Y-84868D01*
X-87060Y-85468D01*
X-87002Y-86068D01*
X-86827Y-86601D01*
X-86594Y-87001D01*
X-86244Y-87335D01*
X-85777Y-87468D01*
X-85310Y-87335D01*
X-84960Y-87001D01*
X-84727Y-86601D01*
X-84552Y-86068D01*
X-84494Y-85468D01*
X-84552Y-84868D01*
X-84727Y-84335D01*
X-84960Y-83935D01*
X-85310Y-83601D01*
X-85777Y-83468D01*
G01X-80977Y-87468D02*
Y-83468D01*
X-81677Y-84268D01*
G01Y-87468D02*
X-80277D01*
G01X-73127Y-83468D02*
X-72310Y-87468D01*
X-71377Y-83468D01*
X-70444Y-87468D01*
X-69627Y-83468D01*
G01X-67277D02*
X-65877D01*
G01X-66577D02*
Y-87468D01*
G01X-67277D02*
X-65877D01*
G01X-62944Y-83468D02*
Y-87468D01*
X-60610D01*
G01X-58144Y-83468D02*
Y-87468D01*
X-55810D01*
G01X-52877Y-83468D02*
X-51477D01*
G01X-52177D02*
Y-87468D01*
G01X-52877D02*
X-51477D01*
G01X-48835D02*
X-47377Y-83468D01*
X-45919Y-87468D01*
G01X-46444Y-86068D02*
X-48310D01*
G01X-44094Y-87468D02*
Y-83468D01*
X-42577Y-86801D01*
X-41060Y-83468D01*
Y-87468D01*
G01X-31694Y-83801D02*
X-32044Y-83601D01*
X-32452Y-83468D01*
X-32919D01*
X-33444Y-83668D01*
X-33852Y-84001D01*
X-34144Y-84401D01*
X-34377Y-85068D01*
X-34435Y-85668D01*
X-34319Y-86268D01*
X-34144Y-86668D01*
X-33794Y-87068D01*
X-33385Y-87335D01*
X-32977Y-87468D01*
X-32569D01*
X-32160Y-87335D01*
X-31810Y-87135D01*
X-31519Y-86868D01*
G01X-29635Y-87468D02*
X-28177Y-83468D01*
X-26719Y-87468D01*
G01X-27244Y-86068D02*
X-29110D01*
G01X-24719Y-87468D02*
Y-83468D01*
X-22035Y-87468D01*
Y-83468D01*
G01X-19919Y-87468D02*
Y-83468D01*
X-17235Y-87468D01*
Y-83468D01*
G01X-13777Y-87468D02*
X-14244Y-87401D01*
X-14652Y-87135D01*
X-15002Y-86735D01*
X-15235Y-86268D01*
X-15352Y-85735D01*
Y-85201D01*
X-15235Y-84668D01*
X-15002Y-84201D01*
X-14652Y-83801D01*
X-14244Y-83535D01*
X-13777Y-83468D01*
X-13310Y-83535D01*
X-12902Y-83801D01*
X-12552Y-84201D01*
X-12319Y-84668D01*
X-12202Y-85201D01*
Y-85735D01*
X-12319Y-86268D01*
X-12552Y-86735D01*
X-12902Y-87135D01*
X-13310Y-87401D01*
X-13777Y-87468D01*
G01X-10319D02*
Y-83468D01*
X-7635Y-87468D01*
Y-83468D01*
G01X-660Y-87468D02*
Y-83468D01*
X506D01*
X973Y-83668D01*
X1323Y-83935D01*
X1615Y-84335D01*
X1848Y-84801D01*
X1906Y-85468D01*
X1848Y-86135D01*
X1615Y-86601D01*
X1323Y-87001D01*
X973Y-87268D01*
X506Y-87468D01*
X-660D01*
G01X4256D02*
Y-83468D01*
X5715D01*
X6181Y-83668D01*
X6473Y-83935D01*
X6590Y-84468D01*
X6473Y-85001D01*
X6123Y-85335D01*
X5715Y-85535D01*
X4256D01*
G01X5715D02*
X6590Y-87468D01*
G01X9523Y-83468D02*
X10923D01*
G01X10223D02*
Y-87468D01*
G01X9523D02*
X10923D01*
G01X13565Y-83468D02*
X15023Y-87468D01*
X16481Y-83468D01*
G01X20990Y-87468D02*
X18656D01*
Y-83468D01*
X20990D01*
G01X20056Y-85401D02*
X18656D01*
G01X27673Y-83468D02*
X28490Y-87468D01*
X29423Y-83468D01*
X30356Y-87468D01*
X31173Y-83468D01*
G01X35390Y-87468D02*
X33056D01*
Y-83468D01*
X35390D01*
G01X34456Y-85401D02*
X33056D01*
G01X37798Y-86935D02*
X38265Y-87268D01*
X38790Y-87468D01*
X39256D01*
X39723Y-87268D01*
X40073Y-86935D01*
X40248Y-86468D01*
X40131Y-86001D01*
X39840Y-85601D01*
X39315Y-85335D01*
X38615Y-85201D01*
X38206Y-84935D01*
X38031Y-84468D01*
X38148Y-84001D01*
X38440Y-83668D01*
X38848Y-83468D01*
X39256D01*
X39665Y-83601D01*
X40015Y-83935D01*
G01X43823Y-83468D02*
Y-87468D01*
G01X42481Y-83468D02*
X45165D01*
G01X-96835Y-94468D02*
X-95377Y-90468D01*
X-93919Y-94468D01*
G01X-94444Y-93068D02*
X-96310D01*
G01X-91860Y-90468D02*
Y-93335D01*
X-91627Y-93935D01*
X-91160Y-94335D01*
X-90577Y-94468D01*
X-89994Y-94335D01*
X-89527Y-93935D01*
X-89294Y-93335D01*
Y-90468D01*
G01X-87002Y-93935D02*
X-86535Y-94268D01*
X-86010Y-94468D01*
X-85544D01*
X-85077Y-94268D01*
X-84727Y-93935D01*
X-84552Y-93468D01*
X-84669Y-93001D01*
X-84960Y-92601D01*
X-85485Y-92335D01*
X-86185Y-92201D01*
X-86594Y-91935D01*
X-86769Y-91468D01*
X-86652Y-91001D01*
X-86360Y-90668D01*
X-85952Y-90468D01*
X-85544D01*
X-85135Y-90601D01*
X-84785Y-90935D01*
G01X-80977Y-90468D02*
Y-94468D01*
G01X-82319Y-90468D02*
X-79635D01*
G01X-76877D02*
X-75477D01*
G01X-76177D02*
Y-94468D01*
G01X-76877D02*
X-75477D01*
G01X-72719D02*
Y-90468D01*
X-70035Y-94468D01*
Y-90468D01*
G01X-66577Y-94601D02*
X-66694Y-94535D01*
Y-94401D01*
X-66577Y-94335D01*
X-66460Y-94401D01*
Y-94535D01*
X-66577Y-94601D01*
G01X-56977Y-90468D02*
Y-94468D01*
G01X-58319Y-90468D02*
X-55635D01*
G01X-51010Y-94468D02*
X-53344D01*
Y-90468D01*
X-51010D01*
G01X-51944Y-92401D02*
X-53344D01*
G01X-48602Y-94468D02*
X-46152Y-90468D01*
G01X-48602D02*
X-46152Y-94468D01*
G01X-44035D02*
X-42577Y-90468D01*
X-41119Y-94468D01*
G01X-41644Y-93068D02*
X-43510D01*
G01X-39002Y-93935D02*
X-38535Y-94268D01*
X-38010Y-94468D01*
X-37544D01*
X-37077Y-94268D01*
X-36727Y-93935D01*
X-36552Y-93468D01*
X-36669Y-93001D01*
X-36960Y-92601D01*
X-37485Y-92335D01*
X-38185Y-92201D01*
X-38594Y-91935D01*
X-38769Y-91468D01*
X-38652Y-91001D01*
X-38360Y-90668D01*
X-37952Y-90468D01*
X-37544D01*
X-37135Y-90601D01*
X-36785Y-90935D01*
G01X-28294Y-94468D02*
X-28177Y-93601D01*
X-28002Y-92868D01*
X-27769Y-92201D01*
X-27477Y-91468D01*
X-27010Y-90468D01*
X-29344D01*
G01X-23377Y-94468D02*
X-22969Y-94401D01*
X-22502Y-94201D01*
X-22210Y-93868D01*
X-22094Y-93401D01*
X-22210Y-92935D01*
X-22560Y-92535D01*
X-23085Y-92335D01*
X-23669D01*
X-24019Y-92201D01*
X-24310Y-91868D01*
X-24427Y-91401D01*
X-24252Y-90935D01*
X-23844Y-90601D01*
X-23377Y-90468D01*
X-22910Y-90601D01*
X-22502Y-90935D01*
X-22327Y-91401D01*
X-22444Y-91868D01*
X-22735Y-92201D01*
X-23085Y-92335D01*
X-23669D01*
X-24194Y-92535D01*
X-24544Y-92935D01*
X-24660Y-93401D01*
X-24544Y-93868D01*
X-24252Y-94201D01*
X-23785Y-94401D01*
X-23377Y-94468D01*
G01X-18694D02*
X-18577Y-93601D01*
X-18402Y-92868D01*
X-18169Y-92201D01*
X-17877Y-91468D01*
X-17410Y-90468D01*
X-19744D01*
G01X-15060Y-93668D02*
X-14710Y-94135D01*
X-14244Y-94401D01*
X-13719Y-94468D01*
X-13252Y-94401D01*
X-12785Y-94068D01*
X-12494Y-93668D01*
X-12435Y-93268D01*
X-12552Y-92801D01*
X-12960Y-92468D01*
X-13369Y-92335D01*
X-13894D01*
G01X-13369D02*
X-13019Y-92135D01*
X-12727Y-91801D01*
X-12610Y-91401D01*
X-12727Y-91001D01*
X-13019Y-90668D01*
X-13544Y-90468D01*
X-14069Y-90535D01*
X-14594Y-90801D01*
G01X-10260Y-93868D02*
X-9910Y-94201D01*
X-9502Y-94401D01*
X-8977Y-94468D01*
X-8452Y-94335D01*
X-8044Y-94068D01*
X-7752Y-93601D01*
X-7694Y-93068D01*
X-7810Y-92535D01*
X-8102Y-92201D01*
X-8510Y-91935D01*
X-8919Y-91868D01*
X-9327Y-91935D01*
X-9852Y-92201D01*
X-9677Y-90468D01*
X-8102D01*
G01X-660D02*
Y-93335D01*
X-427Y-93935D01*
X40Y-94335D01*
X623Y-94468D01*
X1206Y-94335D01*
X1673Y-93935D01*
X1906Y-93335D01*
Y-90468D01*
G01X4198Y-93935D02*
X4665Y-94268D01*
X5190Y-94468D01*
X5656D01*
X6123Y-94268D01*
X6473Y-93935D01*
X6648Y-93468D01*
X6531Y-93001D01*
X6240Y-92601D01*
X5715Y-92335D01*
X5015Y-92201D01*
X4606Y-91935D01*
X4431Y-91468D01*
X4548Y-91001D01*
X4840Y-90668D01*
X5248Y-90468D01*
X5656D01*
X6065Y-90601D01*
X6415Y-90935D01*
G01X8765Y-94468D02*
X10223Y-90468D01*
X11681Y-94468D01*
G01X11156Y-93068D02*
X9290D01*
G01X-93974Y-78468D02*
Y-70968D01*
X-89680Y-78468D01*
Y-70968D01*
G01X-86287Y-78468D02*
X-82367Y-70968D01*
G01X-86287D02*
X-82367Y-78468D01*
G01X-78694D02*
Y-70968D01*
X-76454D01*
X-75707Y-71343D01*
X-75147Y-72218D01*
X-74960Y-73218D01*
X-75147Y-74218D01*
X-75614Y-74968D01*
X-76454Y-75343D01*
X-78694D01*
G01X-63787Y-77468D02*
X-63040Y-78093D01*
X-62200Y-78468D01*
X-61454D01*
X-60707Y-78093D01*
X-60147Y-77468D01*
X-59867Y-76593D01*
X-60054Y-75718D01*
X-60520Y-74968D01*
X-61360Y-74468D01*
X-62480Y-74218D01*
X-63134Y-73718D01*
X-63414Y-72843D01*
X-63227Y-71968D01*
X-62760Y-71343D01*
X-62107Y-70968D01*
X-61454D01*
X-60800Y-71218D01*
X-60240Y-71843D01*
G01X-52460Y-78468D02*
X-56194D01*
Y-70968D01*
X-52460D01*
G01X-53954Y-74593D02*
X-56194D01*
G01X-49254Y-78468D02*
Y-70968D01*
X-46827Y-77218D01*
X-44400Y-70968D01*
Y-78468D01*
G01X-40447Y-70968D02*
X-38207D01*
G01X-39327D02*
Y-78468D01*
G01X-40447D02*
X-38207D01*
G01X-29774Y-71593D02*
X-30334Y-71218D01*
X-30987Y-70968D01*
X-31734D01*
X-32574Y-71343D01*
X-33227Y-71968D01*
X-33694Y-72718D01*
X-34067Y-73968D01*
X-34160Y-75093D01*
X-33974Y-76218D01*
X-33694Y-76968D01*
X-33134Y-77718D01*
X-32480Y-78218D01*
X-31827Y-78468D01*
X-31174D01*
X-30520Y-78218D01*
X-29960Y-77843D01*
X-29494Y-77343D01*
G01X-24327Y-78468D02*
X-25074Y-78343D01*
X-25727Y-77843D01*
X-26287Y-77093D01*
X-26660Y-76218D01*
X-26847Y-75218D01*
Y-74218D01*
X-26660Y-73218D01*
X-26287Y-72343D01*
X-25727Y-71593D01*
X-25074Y-71093D01*
X-24327Y-70968D01*
X-23580Y-71093D01*
X-22927Y-71593D01*
X-22367Y-72343D01*
X-21994Y-73218D01*
X-21807Y-74218D01*
Y-75218D01*
X-21994Y-76218D01*
X-22367Y-77093D01*
X-22927Y-77843D01*
X-23580Y-78343D01*
X-24327Y-78468D01*
G01X-18974D02*
Y-70968D01*
X-14680Y-78468D01*
Y-70968D01*
G01X-11380Y-78468D02*
Y-70968D01*
X-9514D01*
X-8767Y-71343D01*
X-8207Y-71843D01*
X-7740Y-72593D01*
X-7367Y-73468D01*
X-7274Y-74718D01*
X-7367Y-75968D01*
X-7740Y-76843D01*
X-8207Y-77593D01*
X-8767Y-78093D01*
X-9514Y-78468D01*
X-11380D01*
G01X-3880Y-70968D02*
Y-76343D01*
X-3507Y-77468D01*
X-2760Y-78218D01*
X-1827Y-78468D01*
X-894Y-78218D01*
X-147Y-77468D01*
X226Y-76343D01*
Y-70968D01*
G01X7726Y-71593D02*
X7166Y-71218D01*
X6513Y-70968D01*
X5766D01*
X4926Y-71343D01*
X4273Y-71968D01*
X3806Y-72718D01*
X3433Y-73968D01*
X3340Y-75093D01*
X3526Y-76218D01*
X3806Y-76968D01*
X4366Y-77718D01*
X5020Y-78218D01*
X5673Y-78468D01*
X6326D01*
X6980Y-78218D01*
X7540Y-77843D01*
X8006Y-77343D01*
G01X13173Y-70968D02*
Y-78468D01*
G01X11026Y-70968D02*
X15320D01*
G01X20673Y-78468D02*
X19926Y-78343D01*
X19273Y-77843D01*
X18713Y-77093D01*
X18340Y-76218D01*
X18153Y-75218D01*
Y-74218D01*
X18340Y-73218D01*
X18713Y-72343D01*
X19273Y-71593D01*
X19926Y-71093D01*
X20673Y-70968D01*
X21420Y-71093D01*
X22073Y-71593D01*
X22633Y-72343D01*
X23006Y-73218D01*
X23193Y-74218D01*
Y-75218D01*
X23006Y-76218D01*
X22633Y-77093D01*
X22073Y-77843D01*
X21420Y-78343D01*
X20673Y-78468D01*
G01X26306D02*
Y-70968D01*
X28640D01*
X29386Y-71343D01*
X29853Y-71843D01*
X30040Y-72843D01*
X29853Y-73843D01*
X29293Y-74468D01*
X28640Y-74843D01*
X26306D01*
G01X28640D02*
X30040Y-78468D01*
G01X33713Y-77468D02*
X34460Y-78093D01*
X35300Y-78468D01*
X36046D01*
X36793Y-78093D01*
X37353Y-77468D01*
X37633Y-76593D01*
X37446Y-75718D01*
X36980Y-74968D01*
X36140Y-74468D01*
X35020Y-74218D01*
X34366Y-73718D01*
X34086Y-72843D01*
X34273Y-71968D01*
X34740Y-71343D01*
X35393Y-70968D01*
X36046D01*
X36700Y-71218D01*
X37260Y-71843D01*
G01X-46485Y-155468D02*
Y-151468D01*
X-44269D01*
G01X-45085Y-153401D02*
X-46485D01*
G01X-41277Y-151468D02*
X-39877D01*
G01X-40577D02*
Y-155468D01*
G01X-41277D02*
X-39877D01*
G01X-36944Y-151468D02*
Y-155468D01*
X-34610D01*
G01X-32494D02*
Y-151468D01*
X-30977Y-154801D01*
X-29460Y-151468D01*
Y-155468D01*
G01X-44422Y-163128D02*
X-43795Y-163653D01*
X-43090Y-163968D01*
X-42464D01*
X-41837Y-163653D01*
X-41367Y-163128D01*
X-41132Y-162393D01*
X-41289Y-161658D01*
X-41680Y-161028D01*
X-42385Y-160608D01*
X-43325Y-160398D01*
X-43874Y-159978D01*
X-44109Y-159243D01*
X-43952Y-158508D01*
X-43560Y-157983D01*
X-43012Y-157668D01*
X-42464D01*
X-41915Y-157878D01*
X-41445Y-158403D01*
G01X-34910Y-163968D02*
X-38044D01*
Y-157668D01*
X-34910D01*
G01X-36164Y-160713D02*
X-38044D01*
G01X-28454Y-158193D02*
X-28924Y-157878D01*
X-29472Y-157668D01*
X-30099D01*
X-30804Y-157983D01*
X-31352Y-158508D01*
X-31744Y-159138D01*
X-32057Y-160188D01*
X-32135Y-161133D01*
X-31979Y-162078D01*
X-31744Y-162708D01*
X-31274Y-163338D01*
X-30725Y-163758D01*
X-30177Y-163968D01*
X-29629D01*
X-29080Y-163758D01*
X-28610Y-163443D01*
X-28219Y-163023D01*
G01X-23877Y-163968D02*
X-24504Y-163863D01*
X-25052Y-163443D01*
X-25522Y-162813D01*
X-25835Y-162078D01*
X-25992Y-161238D01*
Y-160398D01*
X-25835Y-159558D01*
X-25522Y-158823D01*
X-25052Y-158193D01*
X-24504Y-157773D01*
X-23877Y-157668D01*
X-23250Y-157773D01*
X-22702Y-158193D01*
X-22232Y-158823D01*
X-21919Y-159558D01*
X-21762Y-160398D01*
Y-161238D01*
X-21919Y-162078D01*
X-22232Y-162813D01*
X-22702Y-163443D01*
X-23250Y-163863D01*
X-23877Y-163968D01*
G01X-19379D02*
Y-157668D01*
X-15775Y-163968D01*
Y-157668D01*
G01X-13000Y-163968D02*
Y-157668D01*
X-11434D01*
X-10807Y-157983D01*
X-10337Y-158403D01*
X-9945Y-159033D01*
X-9632Y-159768D01*
X-9554Y-160818D01*
X-9632Y-161868D01*
X-9945Y-162603D01*
X-10337Y-163233D01*
X-10807Y-163653D01*
X-11434Y-163968D01*
X-13000D01*
G01X-6935D02*
X-4977Y-157668D01*
X-3019Y-163968D01*
G01X-3724Y-161763D02*
X-6230D01*
G01X-244Y-163968D02*
Y-157668D01*
X1715D01*
X2341Y-157983D01*
X2733Y-158403D01*
X2890Y-159243D01*
X2733Y-160083D01*
X2263Y-160608D01*
X1715Y-160923D01*
X-244D01*
G01X1715D02*
X2890Y-163968D01*
G01X7623D02*
Y-161133D01*
X6056Y-157668D01*
G01X9190D02*
X7623Y-161133D01*
G01X18656Y-163968D02*
Y-157668D01*
X20536D01*
X21163Y-157983D01*
X21633Y-158718D01*
X21790Y-159558D01*
X21633Y-160398D01*
X21241Y-161028D01*
X20536Y-161343D01*
X18656D01*
G01X24565Y-163968D02*
X26523Y-157668D01*
X28481Y-163968D01*
G01X27776Y-161763D02*
X25270D01*
G01X31178Y-163128D02*
X31805Y-163653D01*
X32510Y-163968D01*
X33136D01*
X33763Y-163653D01*
X34233Y-163128D01*
X34468Y-162393D01*
X34311Y-161658D01*
X33920Y-161028D01*
X33215Y-160608D01*
X32275Y-160398D01*
X31726Y-159978D01*
X31491Y-159243D01*
X31648Y-158508D01*
X32040Y-157983D01*
X32588Y-157668D01*
X33136D01*
X33685Y-157878D01*
X34155Y-158403D01*
G01X39123Y-157668D02*
Y-163968D01*
G01X37321Y-157668D02*
X40925D01*
G01X46990Y-163968D02*
X43856D01*
Y-157668D01*
X46990D01*
G01X45736Y-160713D02*
X43856D01*
G01X49686Y-163968D02*
Y-157668D01*
X51723Y-162918D01*
X53760Y-157668D01*
Y-163968D01*
G01X56065D02*
X58023Y-157668D01*
X59981Y-163968D01*
G01X59276Y-161763D02*
X56770D01*
G01X62678Y-163128D02*
X63305Y-163653D01*
X64010Y-163968D01*
X64636D01*
X65263Y-163653D01*
X65733Y-163128D01*
X65968Y-162393D01*
X65811Y-161658D01*
X65420Y-161028D01*
X64715Y-160608D01*
X63775Y-160398D01*
X63226Y-159978D01*
X62991Y-159243D01*
X63148Y-158508D01*
X63540Y-157983D01*
X64088Y-157668D01*
X64636D01*
X65185Y-157878D01*
X65655Y-158403D01*
G01X68900Y-163968D02*
Y-157668D01*
G01X71876D02*
X68900Y-161553D01*
G01X72346Y-163968D02*
X70231Y-159768D01*
G01X81623Y-159468D02*
X81156Y-159601D01*
X80806Y-159935D01*
X80573Y-160335D01*
X80398Y-160868D01*
X80340Y-161468D01*
X80398Y-162068D01*
X80573Y-162601D01*
X80806Y-163001D01*
X81156Y-163335D01*
X81623Y-163468D01*
X82090Y-163335D01*
X82440Y-163001D01*
X82673Y-162601D01*
X82848Y-162068D01*
X82906Y-161468D01*
X82848Y-160868D01*
X82673Y-160335D01*
X82440Y-159935D01*
X82090Y-159601D01*
X81623Y-159468D01*
G01X85431Y-163001D02*
X85840Y-163335D01*
X86306Y-163468D01*
X86773Y-163335D01*
X87181Y-162935D01*
X87473Y-162335D01*
X87590Y-161735D01*
Y-161001D01*
X87473Y-160401D01*
X87181Y-159868D01*
X86831Y-159601D01*
X86423Y-159468D01*
X85956Y-159601D01*
X85606Y-159868D01*
X85373Y-160268D01*
X85256Y-160801D01*
X85373Y-161268D01*
X85665Y-161735D01*
X86015Y-162001D01*
X86423Y-162068D01*
X86890Y-161935D01*
X87240Y-161601D01*
X87590Y-161001D01*
G01X90465Y-162135D02*
X91981D01*
G01X96023Y-159468D02*
X95556Y-159601D01*
X95206Y-159935D01*
X94973Y-160335D01*
X94798Y-160868D01*
X94740Y-161468D01*
X94798Y-162068D01*
X94973Y-162601D01*
X95206Y-163001D01*
X95556Y-163335D01*
X96023Y-163468D01*
X96490Y-163335D01*
X96840Y-163001D01*
X97073Y-162601D01*
X97248Y-162068D01*
X97306Y-161468D01*
X97248Y-160868D01*
X97073Y-160335D01*
X96840Y-159935D01*
X96490Y-159601D01*
X96023Y-159468D01*
G01X101523Y-163468D02*
Y-159468D01*
X99365Y-162335D01*
X102281D01*
G01X104865Y-162135D02*
X106381D01*
G01X110423Y-163468D02*
Y-159468D01*
X109723Y-160268D01*
G01Y-163468D02*
X111123D01*
G01X114231Y-163001D02*
X114640Y-163335D01*
X115106Y-163468D01*
X115573Y-163335D01*
X115981Y-162935D01*
X116273Y-162335D01*
X116390Y-161735D01*
Y-161001D01*
X116273Y-160401D01*
X115981Y-159868D01*
X115631Y-159601D01*
X115223Y-159468D01*
X114756Y-159601D01*
X114406Y-159868D01*
X114173Y-160268D01*
X114056Y-160801D01*
X114173Y-161268D01*
X114465Y-161735D01*
X114815Y-162001D01*
X115223Y-162068D01*
X115690Y-161935D01*
X116040Y-161601D01*
X116390Y-161001D01*
G01X78340Y-155468D02*
Y-151468D01*
X79506D01*
X79973Y-151668D01*
X80323Y-151935D01*
X80615Y-152335D01*
X80848Y-152801D01*
X80906Y-153468D01*
X80848Y-154135D01*
X80615Y-154601D01*
X80323Y-155001D01*
X79973Y-155268D01*
X79506Y-155468D01*
X78340D01*
G01X82965D02*
X84423Y-151468D01*
X85881Y-155468D01*
G01X85356Y-154068D02*
X83490D01*
G01X89223Y-151468D02*
Y-155468D01*
G01X87881Y-151468D02*
X90565D01*
G01X95190Y-155468D02*
X92856D01*
Y-151468D01*
X95190D01*
G01X94256Y-153401D02*
X92856D01*
G01X87873Y-141301D02*
X91373D01*
G01X92673D02*
X96173D01*
G01X97473D02*
X100973D01*
G01X110106Y-136301D02*
X109756Y-136101D01*
X109348Y-135968D01*
X108881D01*
X108356Y-136168D01*
X107948Y-136501D01*
X107656Y-136901D01*
X107423Y-137568D01*
X107365Y-138168D01*
X107481Y-138768D01*
X107656Y-139168D01*
X108006Y-139568D01*
X108415Y-139835D01*
X108823Y-139968D01*
X109231D01*
X109640Y-139835D01*
X109990Y-139635D01*
X110281Y-139368D01*
G01X113623Y-139968D02*
X113156Y-139901D01*
X112748Y-139635D01*
X112398Y-139235D01*
X112165Y-138768D01*
X112048Y-138235D01*
Y-137701D01*
X112165Y-137168D01*
X112398Y-136701D01*
X112748Y-136301D01*
X113156Y-136035D01*
X113623Y-135968D01*
X114090Y-136035D01*
X114498Y-136301D01*
X114848Y-136701D01*
X115081Y-137168D01*
X115198Y-137701D01*
Y-138235D01*
X115081Y-138768D01*
X114848Y-139235D01*
X114498Y-139635D01*
X114090Y-139901D01*
X113623Y-139968D01*
G01X116906D02*
Y-135968D01*
X118423Y-139301D01*
X119940Y-135968D01*
Y-139968D01*
G01X122056D02*
Y-135968D01*
X123456D01*
X123923Y-136168D01*
X124273Y-136635D01*
X124390Y-137168D01*
X124273Y-137701D01*
X123981Y-138101D01*
X123456Y-138301D01*
X122056D01*
G01X126565Y-139968D02*
X128023Y-135968D01*
X129481Y-139968D01*
G01X128956Y-138568D02*
X127090D01*
G01X131481Y-139968D02*
Y-135968D01*
X134165Y-139968D01*
Y-135968D01*
G01X137623Y-139968D02*
Y-138168D01*
X136456Y-135968D01*
G01X138790D02*
X137623Y-138168D01*
G01X148506Y-136301D02*
X148156Y-136101D01*
X147748Y-135968D01*
X147281D01*
X146756Y-136168D01*
X146348Y-136501D01*
X146056Y-136901D01*
X145823Y-137568D01*
X145765Y-138168D01*
X145881Y-138768D01*
X146056Y-139168D01*
X146406Y-139568D01*
X146815Y-139835D01*
X147223Y-139968D01*
X147631D01*
X148040Y-139835D01*
X148390Y-139635D01*
X148681Y-139368D01*
G01X152023Y-139968D02*
X151556Y-139901D01*
X151148Y-139635D01*
X150798Y-139235D01*
X150565Y-138768D01*
X150448Y-138235D01*
Y-137701D01*
X150565Y-137168D01*
X150798Y-136701D01*
X151148Y-136301D01*
X151556Y-136035D01*
X152023Y-135968D01*
X152490Y-136035D01*
X152898Y-136301D01*
X153248Y-136701D01*
X153481Y-137168D01*
X153598Y-137701D01*
Y-138235D01*
X153481Y-138768D01*
X153248Y-139235D01*
X152898Y-139635D01*
X152490Y-139901D01*
X152023Y-139968D01*
G01X155481D02*
Y-135968D01*
X158165Y-139968D01*
Y-135968D01*
G01X160515Y-139968D02*
Y-135968D01*
X162731D01*
G01X161915Y-137901D02*
X160515D01*
G01X165723Y-135968D02*
X167123D01*
G01X166423D02*
Y-139968D01*
G01X165723D02*
X167123D01*
G01X169940D02*
Y-135968D01*
X171106D01*
X171573Y-136168D01*
X171923Y-136435D01*
X172215Y-136835D01*
X172448Y-137301D01*
X172506Y-137968D01*
X172448Y-138635D01*
X172215Y-139101D01*
X171923Y-139501D01*
X171573Y-139768D01*
X171106Y-139968D01*
X169940D01*
G01X177190D02*
X174856D01*
Y-135968D01*
X177190D01*
G01X176256Y-137901D02*
X174856D01*
G01X179481Y-139968D02*
Y-135968D01*
X182165Y-139968D01*
Y-135968D01*
G01X185623D02*
Y-139968D01*
G01X184281Y-135968D02*
X186965D01*
G01X189723D02*
X191123D01*
G01X190423D02*
Y-139968D01*
G01X189723D02*
X191123D01*
G01X193765D02*
X195223Y-135968D01*
X196681Y-139968D01*
G01X196156Y-138568D02*
X194290D01*
G01X198856Y-135968D02*
Y-139968D01*
X201190D01*
G01X87873Y-124801D02*
X91373D01*
G01X92673D02*
X96173D01*
G01X97473D02*
X100973D01*
G01X110106Y-119801D02*
X109756Y-119601D01*
X109348Y-119468D01*
X108881D01*
X108356Y-119668D01*
X107948Y-120001D01*
X107656Y-120401D01*
X107423Y-121068D01*
X107365Y-121668D01*
X107481Y-122268D01*
X107656Y-122668D01*
X108006Y-123068D01*
X108415Y-123335D01*
X108823Y-123468D01*
X109231D01*
X109640Y-123335D01*
X109990Y-123135D01*
X110281Y-122868D01*
G01X113623Y-123468D02*
X113156Y-123401D01*
X112748Y-123135D01*
X112398Y-122735D01*
X112165Y-122268D01*
X112048Y-121735D01*
Y-121201D01*
X112165Y-120668D01*
X112398Y-120201D01*
X112748Y-119801D01*
X113156Y-119535D01*
X113623Y-119468D01*
X114090Y-119535D01*
X114498Y-119801D01*
X114848Y-120201D01*
X115081Y-120668D01*
X115198Y-121201D01*
Y-121735D01*
X115081Y-122268D01*
X114848Y-122735D01*
X114498Y-123135D01*
X114090Y-123401D01*
X113623Y-123468D01*
G01X116906D02*
Y-119468D01*
X118423Y-122801D01*
X119940Y-119468D01*
Y-123468D01*
G01X122056D02*
Y-119468D01*
X123456D01*
X123923Y-119668D01*
X124273Y-120135D01*
X124390Y-120668D01*
X124273Y-121201D01*
X123981Y-121601D01*
X123456Y-121801D01*
X122056D01*
G01X126565Y-123468D02*
X128023Y-119468D01*
X129481Y-123468D01*
G01X128956Y-122068D02*
X127090D01*
G01X131481Y-123468D02*
Y-119468D01*
X134165Y-123468D01*
Y-119468D01*
G01X137623Y-123468D02*
Y-121668D01*
X136456Y-119468D01*
G01X138790D02*
X137623Y-121668D01*
G01X146523Y-119468D02*
X147923D01*
G01X147223D02*
Y-123468D01*
G01X146523D02*
X147923D01*
G01X150681D02*
Y-119468D01*
X153365Y-123468D01*
Y-119468D01*
G01X156823D02*
Y-123468D01*
G01X155481Y-119468D02*
X158165D01*
G01X162790Y-123468D02*
X160456D01*
Y-119468D01*
X162790D01*
G01X161856Y-121401D02*
X160456D01*
G01X165256Y-123468D02*
Y-119468D01*
X166715D01*
X167181Y-119668D01*
X167473Y-119935D01*
X167590Y-120468D01*
X167473Y-121001D01*
X167123Y-121335D01*
X166715Y-121535D01*
X165256D01*
G01X166715D02*
X167590Y-123468D01*
G01X169881D02*
Y-119468D01*
X172565Y-123468D01*
Y-119468D01*
G01X174565Y-123468D02*
X176023Y-119468D01*
X177481Y-123468D01*
G01X176956Y-122068D02*
X175090D01*
G01X179656Y-119468D02*
Y-123468D01*
X181990D01*
G01X87873Y-108801D02*
X91373D01*
G01X92673D02*
X96173D01*
G01X97473D02*
X100973D01*
G01X110106Y-103801D02*
X109756Y-103601D01*
X109348Y-103468D01*
X108881D01*
X108356Y-103668D01*
X107948Y-104001D01*
X107656Y-104401D01*
X107423Y-105068D01*
X107365Y-105668D01*
X107481Y-106268D01*
X107656Y-106668D01*
X108006Y-107068D01*
X108415Y-107335D01*
X108823Y-107468D01*
X109231D01*
X109640Y-107335D01*
X109990Y-107135D01*
X110281Y-106868D01*
G01X113623Y-107468D02*
X113156Y-107401D01*
X112748Y-107135D01*
X112398Y-106735D01*
X112165Y-106268D01*
X112048Y-105735D01*
Y-105201D01*
X112165Y-104668D01*
X112398Y-104201D01*
X112748Y-103801D01*
X113156Y-103535D01*
X113623Y-103468D01*
X114090Y-103535D01*
X114498Y-103801D01*
X114848Y-104201D01*
X115081Y-104668D01*
X115198Y-105201D01*
Y-105735D01*
X115081Y-106268D01*
X114848Y-106735D01*
X114498Y-107135D01*
X114090Y-107401D01*
X113623Y-107468D01*
G01X116906D02*
Y-103468D01*
X118423Y-106801D01*
X119940Y-103468D01*
Y-107468D01*
G01X122056D02*
Y-103468D01*
X123456D01*
X123923Y-103668D01*
X124273Y-104135D01*
X124390Y-104668D01*
X124273Y-105201D01*
X123981Y-105601D01*
X123456Y-105801D01*
X122056D01*
G01X126565Y-107468D02*
X128023Y-103468D01*
X129481Y-107468D01*
G01X128956Y-106068D02*
X127090D01*
G01X131481Y-107468D02*
Y-103468D01*
X134165Y-107468D01*
Y-103468D01*
G01X137623Y-107468D02*
Y-105668D01*
X136456Y-103468D01*
G01X138790D02*
X137623Y-105668D01*
G01X146056Y-107468D02*
Y-103468D01*
X147456D01*
X147923Y-103668D01*
X148273Y-104135D01*
X148390Y-104668D01*
X148273Y-105201D01*
X147981Y-105601D01*
X147456Y-105801D01*
X146056D01*
G01X150740Y-103468D02*
Y-106335D01*
X150973Y-106935D01*
X151440Y-107335D01*
X152023Y-107468D01*
X152606Y-107335D01*
X153073Y-106935D01*
X153306Y-106335D01*
Y-103468D01*
G01X157290Y-105335D02*
X157523Y-105135D01*
X157698Y-104801D01*
X157815Y-104335D01*
X157698Y-103935D01*
X157465Y-103668D01*
X157056Y-103468D01*
X155481D01*
Y-107468D01*
X157406D01*
X157815Y-107201D01*
X158048Y-106801D01*
X158165Y-106335D01*
X158048Y-105868D01*
X157698Y-105468D01*
X157290Y-105335D01*
X155481D01*
G01X160456Y-103468D02*
Y-107468D01*
X162790D01*
G01X165723Y-103468D02*
X167123D01*
G01X166423D02*
Y-107468D01*
G01X165723D02*
X167123D01*
G01X172506Y-103801D02*
X172156Y-103601D01*
X171748Y-103468D01*
X171281D01*
X170756Y-103668D01*
X170348Y-104001D01*
X170056Y-104401D01*
X169823Y-105068D01*
X169765Y-105668D01*
X169881Y-106268D01*
X170056Y-106668D01*
X170406Y-107068D01*
X170815Y-107335D01*
X171223Y-107468D01*
X171631D01*
X172040Y-107335D01*
X172390Y-107135D01*
X172681Y-106868D01*
G01X78281Y-75468D02*
Y-71468D01*
X80965Y-75468D01*
Y-71468D01*
G01X82965Y-75468D02*
X84423Y-71468D01*
X85881Y-75468D01*
G01X85356Y-74068D02*
X83490D01*
G01X87706Y-75468D02*
Y-71468D01*
X89223Y-74801D01*
X90740Y-71468D01*
Y-75468D01*
G01X95190D02*
X92856D01*
Y-71468D01*
X95190D01*
G01X94256Y-73401D02*
X92856D01*
G01X93378Y-106968D02*
X96668Y-100668D01*
G01X93378D02*
X96668Y-106968D01*
G01X128281Y-155468D02*
Y-151468D01*
X130965Y-155468D01*
Y-151468D01*
G01X133140D02*
Y-154335D01*
X133373Y-154935D01*
X133840Y-155335D01*
X134423Y-155468D01*
X135006Y-155335D01*
X135473Y-154935D01*
X135706Y-154335D01*
Y-151468D01*
G01X137706Y-155468D02*
Y-151468D01*
X139223Y-154801D01*
X140740Y-151468D01*
Y-155468D01*
G01X144490Y-153335D02*
X144723Y-153135D01*
X144898Y-152801D01*
X145015Y-152335D01*
X144898Y-151935D01*
X144665Y-151668D01*
X144256Y-151468D01*
X142681D01*
Y-155468D01*
X144606D01*
X145015Y-155201D01*
X145248Y-154801D01*
X145365Y-154335D01*
X145248Y-153868D01*
X144898Y-153468D01*
X144490Y-153335D01*
X142681D01*
G01X149990Y-155468D02*
X147656D01*
Y-151468D01*
X149990D01*
G01X149056Y-153401D02*
X147656D01*
G01X152456Y-155468D02*
Y-151468D01*
X153915D01*
X154381Y-151668D01*
X154673Y-151935D01*
X154790Y-152468D01*
X154673Y-153001D01*
X154323Y-153335D01*
X153915Y-153535D01*
X152456D01*
G01X153915D02*
X154790Y-155468D01*
G01X163223Y-162468D02*
Y-156168D01*
X162283Y-157428D01*
G01Y-162468D02*
X164163D01*
G01X169366D02*
X169523Y-161103D01*
X169758Y-159948D01*
X170071Y-158898D01*
X170463Y-157743D01*
X171090Y-156168D01*
X167956D01*
G01X175823D02*
X175196Y-156378D01*
X174726Y-156903D01*
X174413Y-157533D01*
X174178Y-158373D01*
X174100Y-159318D01*
X174178Y-160263D01*
X174413Y-161103D01*
X174726Y-161733D01*
X175196Y-162258D01*
X175823Y-162468D01*
X176450Y-162258D01*
X176920Y-161733D01*
X177233Y-161103D01*
X177468Y-160263D01*
X177546Y-159318D01*
X177468Y-158373D01*
X177233Y-157533D01*
X176920Y-156903D01*
X176450Y-156378D01*
X175823Y-156168D01*
G01X181105Y-160368D02*
X183141D01*
G01X189363Y-162468D02*
Y-156168D01*
X186465Y-160683D01*
X190381D01*
G01X193235Y-159843D02*
X193783Y-159108D01*
X194253Y-158688D01*
X194880Y-158478D01*
X195428Y-158688D01*
X195820Y-159108D01*
X196133Y-159738D01*
X196211Y-160473D01*
X196133Y-161103D01*
X195820Y-161733D01*
X195350Y-162258D01*
X194801Y-162468D01*
X194175Y-162258D01*
X193626Y-161628D01*
X193313Y-160683D01*
X193235Y-159633D01*
X193391Y-158268D01*
X193626Y-157533D01*
X194018Y-156798D01*
X194566Y-156273D01*
X195115Y-156168D01*
X195663Y-156378D01*
X196055Y-156903D01*
G01X201963Y-162468D02*
Y-156168D01*
X199065Y-160683D01*
X202981D01*
G01X208263Y-162468D02*
Y-156168D01*
X205365Y-160683D01*
X209281D01*
G01X213623Y-162468D02*
Y-156168D01*
X212683Y-157428D01*
G01Y-162468D02*
X214563D01*
G01X256156D02*
Y-156168D01*
X258115D01*
X258741Y-156483D01*
X259133Y-156903D01*
X259290Y-157743D01*
X259133Y-158583D01*
X258663Y-159108D01*
X258115Y-159423D01*
X256156D01*
G01X258115D02*
X259290Y-162468D01*
G01X265590D02*
X262456D01*
Y-156168D01*
X265590D01*
G01X264336Y-159213D02*
X262456D01*
G01X268365Y-156168D02*
X270323Y-162468D01*
X272281Y-156168D01*
G01X280965Y-162468D02*
X282923Y-156168D01*
X284881Y-162468D01*
G01X284176Y-160263D02*
X281670D01*
G01X165223Y-89468D02*
X165771Y-89363D01*
X166398Y-89048D01*
X166790Y-88523D01*
X166946Y-87788D01*
X166790Y-87053D01*
X166320Y-86423D01*
X165615Y-86108D01*
X164831D01*
X164361Y-85898D01*
X163970Y-85373D01*
X163813Y-84638D01*
X164048Y-83903D01*
X164596Y-83378D01*
X165223Y-83168D01*
X165850Y-83378D01*
X166398Y-83903D01*
X166633Y-84638D01*
X166476Y-85373D01*
X166085Y-85898D01*
X165615Y-86108D01*
X164831D01*
X164126Y-86423D01*
X163656Y-87053D01*
X163500Y-87788D01*
X163656Y-88523D01*
X164048Y-89048D01*
X164675Y-89363D01*
X165223Y-89468D01*
G01X171523D02*
Y-83168D01*
X170583Y-84428D01*
G01Y-89468D02*
X172463D01*
G01X176100Y-88523D02*
X176570Y-89048D01*
X177118Y-89363D01*
X177823Y-89468D01*
X178528Y-89258D01*
X179076Y-88838D01*
X179468Y-88103D01*
X179546Y-87263D01*
X179390Y-86423D01*
X178998Y-85898D01*
X178450Y-85478D01*
X177901Y-85373D01*
X177353Y-85478D01*
X176648Y-85898D01*
X176883Y-83168D01*
X178998D01*
G01X182556D02*
Y-89468D01*
X185690D01*
G01X188856D02*
Y-83168D01*
X190736D01*
X191363Y-83483D01*
X191833Y-84218D01*
X191990Y-85058D01*
X191833Y-85898D01*
X191441Y-86528D01*
X190736Y-86843D01*
X188856D01*
G01X195000Y-89468D02*
Y-83168D01*
X196566D01*
X197193Y-83483D01*
X197663Y-83903D01*
X198055Y-84533D01*
X198368Y-85268D01*
X198446Y-86318D01*
X198368Y-87368D01*
X198055Y-88103D01*
X197663Y-88733D01*
X197193Y-89153D01*
X196566Y-89468D01*
X195000D01*
G01X203963D02*
Y-83168D01*
X201065Y-87683D01*
X204981D01*
G01X208305Y-87368D02*
X210341D01*
G01X217346Y-83693D02*
X216876Y-83378D01*
X216328Y-83168D01*
X215701D01*
X214996Y-83483D01*
X214448Y-84008D01*
X214056Y-84638D01*
X213743Y-85688D01*
X213665Y-86633D01*
X213821Y-87578D01*
X214056Y-88208D01*
X214526Y-88838D01*
X215075Y-89258D01*
X215623Y-89468D01*
X216171D01*
X216720Y-89258D01*
X217190Y-88943D01*
X217581Y-88523D01*
G01X220356Y-89468D02*
Y-83168D01*
X222236D01*
X222863Y-83483D01*
X223333Y-84218D01*
X223490Y-85058D01*
X223333Y-85898D01*
X222941Y-86528D01*
X222236Y-86843D01*
X220356D01*
G01X226500Y-83168D02*
Y-87683D01*
X226813Y-88628D01*
X227440Y-89258D01*
X228223Y-89468D01*
X229006Y-89258D01*
X229633Y-88628D01*
X229946Y-87683D01*
Y-83168D01*
G01X236246Y-83693D02*
X235776Y-83378D01*
X235228Y-83168D01*
X234601D01*
X233896Y-83483D01*
X233348Y-84008D01*
X232956Y-84638D01*
X232643Y-85688D01*
X232565Y-86633D01*
X232721Y-87578D01*
X232956Y-88208D01*
X233426Y-88838D01*
X233975Y-89258D01*
X234523Y-89468D01*
X235071D01*
X235620Y-89258D01*
X236090Y-88943D01*
X236481Y-88523D01*
G01X240823Y-89468D02*
Y-86633D01*
X239256Y-83168D01*
G01X242390D02*
X240823Y-86633D01*
G54D14*
X36800Y31800D03*
Y26400D03*
X51700Y30700D03*
Y36100D03*
X51600Y42300D03*
Y47700D03*
X62600Y38915D03*
X68600Y38900D03*
X62600Y44315D03*
X68600Y44300D03*
X61200Y66400D03*
Y61000D03*
X110946Y8127D03*
Y13527D03*
G54D15*
X51947Y194785D03*
Y184016D03*
X132853Y184015D03*
Y194785D03*
G54D16*
X56967D03*
X55392D03*
X53817D03*
X56967Y184015D03*
X55392D03*
X53817D03*
X74290Y194785D03*
X72715D03*
X71140D03*
X69565D03*
X67991D03*
X66416D03*
X64841D03*
X63266D03*
X61691D03*
X60117D03*
X58542D03*
X74290Y184015D03*
X72715D03*
X71140D03*
X69565D03*
X67991D03*
X66416D03*
X64841D03*
X63266D03*
X61691D03*
X60117D03*
X58542D03*
X91613Y194785D03*
X90038D03*
X88463D03*
X86888D03*
X85313D03*
X83739D03*
X82164D03*
X80589D03*
X79014D03*
X77439D03*
X75865D03*
X91613Y184015D03*
X90038D03*
X88463D03*
X86888D03*
X85313D03*
X83739D03*
X82164D03*
X80589D03*
X79014D03*
X77439D03*
X75865D03*
X108935Y194785D03*
X107361D03*
X105786D03*
X104211D03*
X102636D03*
X101061D03*
X99487D03*
X97912D03*
X96337D03*
X94762D03*
X93187D03*
X108935Y184015D03*
X107361D03*
X105786D03*
X104211D03*
X102636D03*
X101061D03*
X99487D03*
X97912D03*
X96337D03*
X94762D03*
X93187D03*
X126258Y194785D03*
X124683D03*
X123109D03*
X121534D03*
X119959D03*
X118384D03*
X116809D03*
X115235D03*
X113660D03*
X112085D03*
X110510D03*
X126258Y184015D03*
X124683D03*
X123109D03*
X121534D03*
X119959D03*
X118384D03*
X116809D03*
X115235D03*
X113660D03*
X112085D03*
X110510D03*
X130983Y194785D03*
X129408D03*
X127833D03*
X130983Y184015D03*
X129408D03*
X127833D03*
G54D17*
X91542Y23337D03*
X89967D03*
X88392D03*
X86817D03*
X91542Y35463D03*
X89967D03*
X88392D03*
X86817D03*
X108865Y23337D03*
X107290D03*
X105715D03*
X104140D03*
X102565D03*
X100991D03*
X99416D03*
X97841D03*
X96266D03*
X94691D03*
X93117D03*
X108865Y35463D03*
X107290D03*
X105715D03*
X104140D03*
X102565D03*
X100991D03*
X99416D03*
X97841D03*
X96266D03*
X94691D03*
X93117D03*
X126187Y23337D03*
X124613D03*
X123038D03*
X121463D03*
X119888D03*
X118313D03*
X116739D03*
X115164D03*
X113589D03*
X112014D03*
X110439D03*
X126187Y35463D03*
X124613D03*
X123038D03*
X121463D03*
X119888D03*
X118313D03*
X116739D03*
X115164D03*
X113589D03*
X112014D03*
X110439D03*
X143510Y23337D03*
X141935D03*
X140361D03*
X138786D03*
X137211D03*
X135636D03*
X134061D03*
X132487D03*
X130912D03*
X129337D03*
X127762D03*
X143510Y35463D03*
X141935D03*
X140361D03*
X138786D03*
X137211D03*
X135636D03*
X134061D03*
X132487D03*
X130912D03*
X129337D03*
X127762D03*
X160833Y23337D03*
X159258D03*
X157683D03*
X156109D03*
X154534D03*
X152959D03*
X151384D03*
X149809D03*
X148235D03*
X146660D03*
X145085D03*
X160833Y35463D03*
X159258D03*
X157683D03*
X156109D03*
X154534D03*
X152959D03*
X151384D03*
X149809D03*
X148235D03*
X146660D03*
X145085D03*
X163983Y23337D03*
X162408D03*
X163983Y35463D03*
X162408D03*
G54D18*
X158261Y94357D03*
X160811Y86863D03*
X163361Y94357D03*
G54D19*
G01X7Y10003D02*
G03X10007Y3I10000J0D01*
G01X190007D01*
G03X200007Y10003I0J10000D01*
G01Y190003D01*
G03X190007Y200003I-10000J0D01*
G01X10007D01*
G03X7Y190003I0J-10000D01*
G01Y10003D01*
X188498Y71797D03*
X186924D03*
X188498Y70223D03*
X186924D03*
M02*
