M48
;Layer_Color=9474304
;FILE_FORMAT=2:4
METRIC,LZ
;TYPE=PLATED
T1F00S00C0.2794
T2F00S00C0.3048
T3F00S00C0.7112
T4F00S00C1.4986
T5F00S00C1.7018
;TYPE=NON_PLATED
T6F00S00C0.6500
%
T01
X78232Y79248
X78994
X790702Y85852
X78867Y96647
X78994Y10033
X76327Y105156
X67818Y99187
X67564Y98298
X8001Y93218
X80772Y93091
X81661Y9271
X855188Y928352
X864489Y928326
X87376Y93853
X878801Y935073
X87884Y92075
X889Y91567
X89916Y940486
Y94582
X9144Y9398
X921231Y941029
X95631Y9398
X95758Y93091
Y97282
Y9779
X95254Y100453
X9398Y100965
X9271Y101346
X92329Y100965
X91059Y102616
X94488Y103886
X9398Y104521
Y105029
X86995Y103505
X86614Y103124
X85598Y102997
X80137Y104013
X79629Y106045
X88392Y98679
X89027
Y96901
X89154Y96266
X880364Y95123
X87503
X857319Y908847
X85217Y91059
X79502Y85852
X97409Y88392
X98425Y98552
X98552Y9906
X97917Y99695
X115189Y99314
T02
X119888Y77343
X116459Y78232
X114427Y78105
X112395Y78232
X110363Y78105
X108331
X106299
X104267
X102235
X10033
X74676Y91948
X6731Y97028
X66421Y10033
X81661Y103632
X84836Y103759
Y106807
X85598Y107442
X83058Y107823
X89535Y105918
X89789Y104013
X89535Y102997
X90297Y102616
X90805Y103759
X92202Y103886
X92837Y104267
X92456Y104775
Y102235
X93345Y102616
X94107Y102108
X94869Y102235
X95631Y101854
X95758Y101219
X96647Y100965
X97282
X98044
X96139Y102362
X95504Y99949
X93218Y98552
X93472Y97028
X92329Y97663
X91821Y97155
X90297Y100457
X88138Y102235
X87249Y98552
X85852
X85217Y96393
X88265Y95758
X89154Y93599
X87249Y91313
X89535Y89154
Y87884
X95123Y89789
X95758Y89408
X95377Y92329
X94869Y9398
X97282Y96647
X99187Y94869
X101346Y94996
X1016Y96774
X104521Y97917
Y100076
X1016Y101219
X99949Y92964
X100203Y92075
X102108Y91567
X113792Y97282
X114046Y98679
X115697Y100076
X8382Y93599
X832928Y922492
X80645Y88773
X120523Y97282
X123063Y97409
Y107188
T03
X70739Y95123
X72263Y104013
T04
X118618Y89408
T05
X116078Y86868
Y91948
X121158
Y86868
T06
X67691Y96043
Y101823
M30
