G04*
G04 #@! TF.GenerationSoftware,Altium Limited,Altium Designer,22.11.1 (43)*
G04*
G04 Layer_Color=16711935*
%FSLAX44Y44*%
%MOMM*%
G71*
G04*
G04 #@! TF.SameCoordinates,A751104F-70AC-404C-B97E-AE56B71AA5AB*
G04*
G04*
G04 #@! TF.FilePolarity,Negative*
G04*
G01*
G75*
%ADD41C,1.8032*%
G04:AMPARAMS|DCode=42|XSize=1.8032mm|YSize=1.8032mm|CornerRadius=0.5016mm|HoleSize=0mm|Usage=FLASHONLY|Rotation=180.000|XOffset=0mm|YOffset=0mm|HoleType=Round|Shape=RoundedRectangle|*
%AMROUNDEDRECTD42*
21,1,1.8032,0.8000,0,0,180.0*
21,1,0.8000,1.8032,0,0,180.0*
1,1,1.0032,-0.4000,0.4000*
1,1,1.0032,0.4000,0.4000*
1,1,1.0032,0.4000,-0.4000*
1,1,1.0032,-0.4000,-0.4000*
%
%ADD42ROUNDEDRECTD42*%
%ADD43R,1.3970X1.3970*%
%ADD44C,1.3970*%
%ADD45C,1.8082*%
%ADD46R,1.8082X1.8082*%
%ADD47C,4.2032*%
%ADD48C,1.2192*%
%ADD49R,2.7532X2.7532*%
%ADD50C,2.7532*%
%ADD51C,1.7112*%
%ADD52R,1.8082X1.8082*%
%ADD53C,2.2606*%
%ADD54C,1.5032*%
%ADD55C,1.8532*%
G04:AMPARAMS|DCode=56|XSize=1.8532mm|YSize=1.8532mm|CornerRadius=0.5141mm|HoleSize=0mm|Usage=FLASHONLY|Rotation=90.000|XOffset=0mm|YOffset=0mm|HoleType=Round|Shape=RoundedRectangle|*
%AMROUNDEDRECTD56*
21,1,1.8532,0.8250,0,0,90.0*
21,1,0.8250,1.8532,0,0,90.0*
1,1,1.0282,0.4125,0.4125*
1,1,1.0282,0.4125,-0.4125*
1,1,1.0282,-0.4125,-0.4125*
1,1,1.0282,-0.4125,0.4125*
%
%ADD56ROUNDEDRECTD56*%
%ADD57C,2.0066*%
%ADD58C,2.2098*%
G04:AMPARAMS|DCode=59|XSize=1.8032mm|YSize=1.8032mm|CornerRadius=0.5016mm|HoleSize=0mm|Usage=FLASHONLY|Rotation=270.000|XOffset=0mm|YOffset=0mm|HoleType=Round|Shape=RoundedRectangle|*
%AMROUNDEDRECTD59*
21,1,1.8032,0.8000,0,0,270.0*
21,1,0.8000,1.8032,0,0,270.0*
1,1,1.0032,-0.4000,-0.4000*
1,1,1.0032,-0.4000,0.4000*
1,1,1.0032,0.4000,0.4000*
1,1,1.0032,0.4000,-0.4000*
%
%ADD59ROUNDEDRECTD59*%
%ADD60C,1.7232*%
G04:AMPARAMS|DCode=61|XSize=1.7232mm|YSize=1.7232mm|CornerRadius=0.4816mm|HoleSize=0mm|Usage=FLASHONLY|Rotation=180.000|XOffset=0mm|YOffset=0mm|HoleType=Round|Shape=RoundedRectangle|*
%AMROUNDEDRECTD61*
21,1,1.7232,0.7600,0,0,180.0*
21,1,0.7600,1.7232,0,0,180.0*
1,1,0.9632,-0.3800,0.3800*
1,1,0.9632,0.3800,0.3800*
1,1,0.9632,0.3800,-0.3800*
1,1,0.9632,-0.3800,-0.3800*
%
%ADD61ROUNDEDRECTD61*%
%ADD62C,1.5932*%
%ADD63R,1.5932X1.5932*%
%ADD64C,1.4732*%
%ADD65C,1.7032*%
%ADD66C,2.2032*%
%ADD67C,5.2032*%
D41*
X708660Y624840D02*
D03*
X734060D02*
D03*
X683260D02*
D03*
X657860D02*
D03*
X1264920Y769620D02*
D03*
Y795020D02*
D03*
Y871220D02*
D03*
Y922020D02*
D03*
Y972820D02*
D03*
Y947420D02*
D03*
Y896620D02*
D03*
Y845820D02*
D03*
Y820420D02*
D03*
D42*
X759460Y624840D02*
D03*
D43*
X1201420Y1488440D02*
D03*
D44*
Y1513840D02*
D03*
Y1539240D02*
D03*
D45*
X1097280Y1475740D02*
D03*
X1435100Y1064260D02*
D03*
X1333500Y1341120D02*
D03*
X1257300Y336550D02*
D03*
X901700Y927100D02*
D03*
X298450Y361950D02*
D03*
Y260350D02*
D03*
X133350D02*
D03*
X1022350Y152400D02*
D03*
X1358900Y1089660D02*
D03*
D46*
X1097280Y1450340D02*
D03*
X1435100Y1089660D02*
D03*
X298450Y387350D02*
D03*
Y285750D02*
D03*
X133350D02*
D03*
X1022350Y127000D02*
D03*
X1358900Y1064260D02*
D03*
D47*
X2283460Y904240D02*
D03*
Y261620D02*
D03*
X1788160D02*
D03*
Y904240D02*
D03*
X2611120Y566420D02*
D03*
X1490980D02*
D03*
X375920Y1264920D02*
D03*
Y1755140D02*
D03*
X957580D02*
D03*
X956332Y1266353D02*
D03*
D48*
X2286000Y327660D02*
D03*
Y566420D02*
D03*
X1785620Y327660D02*
D03*
Y566420D02*
D03*
D49*
X232080Y644680D02*
D03*
X231140Y473240D02*
D03*
D50*
X232080Y694680D02*
D03*
X231140Y523240D02*
D03*
D51*
X132080Y724680D02*
D03*
Y614680D02*
D03*
X131140Y443240D02*
D03*
Y553240D02*
D03*
D52*
X1308100Y1341120D02*
D03*
X1282700Y336550D02*
D03*
X876300Y927100D02*
D03*
D53*
X1297940Y398780D02*
D03*
X1258340D02*
D03*
X1092200Y122960D02*
D03*
Y162560D02*
D03*
X1117600Y1732280D02*
D03*
Y1771880D02*
D03*
Y1596160D02*
D03*
Y1635760D02*
D03*
D54*
X1196340Y510540D02*
D03*
Y535940D02*
D03*
X1120140Y510540D02*
D03*
Y535940D02*
D03*
X1196340Y586740D02*
D03*
Y561340D02*
D03*
X1120140D02*
D03*
Y586740D02*
D03*
X742950Y476250D02*
D03*
X717550D02*
D03*
Y400050D02*
D03*
X742950D02*
D03*
X692150Y476250D02*
D03*
X666750D02*
D03*
X692150Y400050D02*
D03*
X666750D02*
D03*
X1196340Y650240D02*
D03*
Y675640D02*
D03*
X1120140Y650240D02*
D03*
Y675640D02*
D03*
X1196340Y726440D02*
D03*
Y701040D02*
D03*
X1120140D02*
D03*
Y726440D02*
D03*
X1196340Y779780D02*
D03*
Y805180D02*
D03*
X1120140Y779780D02*
D03*
Y805180D02*
D03*
X1196340Y855980D02*
D03*
Y830580D02*
D03*
X1120140D02*
D03*
Y855980D02*
D03*
X1198880Y906780D02*
D03*
Y932180D02*
D03*
X1122680Y906780D02*
D03*
Y932180D02*
D03*
X1198880Y982980D02*
D03*
Y957580D02*
D03*
X1122680D02*
D03*
Y982980D02*
D03*
X1196340Y1031240D02*
D03*
Y1056640D02*
D03*
X1120140Y1031240D02*
D03*
Y1056640D02*
D03*
X1196340Y1107440D02*
D03*
Y1082040D02*
D03*
X1120140D02*
D03*
Y1107440D02*
D03*
X577850Y95250D02*
D03*
Y120650D02*
D03*
X501650Y95250D02*
D03*
Y120650D02*
D03*
X577850Y171450D02*
D03*
Y146050D02*
D03*
X501650D02*
D03*
Y171450D02*
D03*
X889000Y476250D02*
D03*
X863600D02*
D03*
X889000Y400050D02*
D03*
X863600D02*
D03*
X812800Y476250D02*
D03*
X838200D02*
D03*
Y400050D02*
D03*
X812800D02*
D03*
D55*
X909320Y1066800D02*
D03*
Y1041400D02*
D03*
X934720Y1066800D02*
D03*
Y1041400D02*
D03*
X909320Y990600D02*
D03*
X934720Y1016000D02*
D03*
X909320D02*
D03*
D56*
X934720Y990600D02*
D03*
D57*
X1120140Y1201420D02*
D03*
D58*
X1094740Y1176020D02*
D03*
X1145540D02*
D03*
Y1226820D02*
D03*
X1094740D02*
D03*
D59*
X1264920Y998220D02*
D03*
D60*
X311150Y850900D02*
D03*
X336550D02*
D03*
X361950D02*
D03*
X387350D02*
D03*
X412750D02*
D03*
X438150D02*
D03*
X463550D02*
D03*
X539750D02*
D03*
X565150D02*
D03*
X590550D02*
D03*
X641350D02*
D03*
X692150D02*
D03*
X717550D02*
D03*
X768350D02*
D03*
X793750D02*
D03*
X819150D02*
D03*
X869950D02*
D03*
X844550D02*
D03*
X742950D02*
D03*
X666750D02*
D03*
X615950D02*
D03*
X514350D02*
D03*
X488950D02*
D03*
X311150Y698500D02*
D03*
X336550D02*
D03*
X361950D02*
D03*
X387350D02*
D03*
X412750D02*
D03*
X438150D02*
D03*
X463550D02*
D03*
X539750D02*
D03*
X565150D02*
D03*
X590550D02*
D03*
X641350D02*
D03*
X692150D02*
D03*
X717550D02*
D03*
X768350D02*
D03*
X793750D02*
D03*
X819150D02*
D03*
X869950D02*
D03*
X844550D02*
D03*
X742950D02*
D03*
X666750D02*
D03*
X615950D02*
D03*
X514350D02*
D03*
X488950D02*
D03*
X685800Y1060450D02*
D03*
X584200D02*
D03*
X558800D02*
D03*
X609600D02*
D03*
X635000D02*
D03*
X660400D02*
D03*
X711200D02*
D03*
X736600D02*
D03*
X762000D02*
D03*
X685800Y927100D02*
D03*
X584200D02*
D03*
X558800D02*
D03*
X609600D02*
D03*
X635000D02*
D03*
X660400D02*
D03*
X711200D02*
D03*
X736600D02*
D03*
X762000D02*
D03*
X527050Y323850D02*
D03*
X552450D02*
D03*
X577850D02*
D03*
X628650D02*
D03*
X603250D02*
D03*
D61*
X895350Y850900D02*
D03*
Y698500D02*
D03*
X533400Y1060450D02*
D03*
Y927100D02*
D03*
X654050Y323850D02*
D03*
D62*
X425450Y1143000D02*
D03*
Y1168400D02*
D03*
X450850Y1143000D02*
D03*
Y1168400D02*
D03*
X476250Y1143000D02*
D03*
Y1168400D02*
D03*
X501650Y1143000D02*
D03*
Y1168400D02*
D03*
X527050Y1143000D02*
D03*
Y1168400D02*
D03*
X552450Y1143000D02*
D03*
Y1168400D02*
D03*
X577850Y1143000D02*
D03*
Y1168400D02*
D03*
X603250Y1143000D02*
D03*
Y1168400D02*
D03*
X628650Y1143000D02*
D03*
Y1168400D02*
D03*
X654050Y1143000D02*
D03*
Y1168400D02*
D03*
X679450Y1143000D02*
D03*
Y1168400D02*
D03*
X704850Y1143000D02*
D03*
Y1168400D02*
D03*
X730250Y1143000D02*
D03*
Y1168400D02*
D03*
X755650Y1143000D02*
D03*
Y1168400D02*
D03*
X781050Y1143000D02*
D03*
Y1168400D02*
D03*
X806450Y1143000D02*
D03*
Y1168400D02*
D03*
X831850Y1143000D02*
D03*
Y1168400D02*
D03*
X857250Y1143000D02*
D03*
Y1168400D02*
D03*
X882650Y1143000D02*
D03*
Y1168400D02*
D03*
X908050Y1143000D02*
D03*
D63*
Y1168400D02*
D03*
D64*
X764540Y650240D02*
D03*
X1285240Y1447800D02*
D03*
X1358900Y1140460D02*
D03*
X462280Y1021080D02*
D03*
X1379220Y1186180D02*
D03*
X1282700D02*
D03*
X736600Y990600D02*
D03*
X454660Y909320D02*
D03*
X393700D02*
D03*
X419100D02*
D03*
X1275080Y530860D02*
D03*
Y568960D02*
D03*
X1038860Y510540D02*
D03*
Y586740D02*
D03*
X431800Y546100D02*
D03*
Y500380D02*
D03*
X1145540Y208280D02*
D03*
X525780Y797560D02*
D03*
X718820Y779780D02*
D03*
X642620Y782320D02*
D03*
X949960Y629920D02*
D03*
X797560Y632460D02*
D03*
X963930Y648970D02*
D03*
X1116330Y325120D02*
D03*
X815340Y665480D02*
D03*
X922020D02*
D03*
X990600Y320040D02*
D03*
X1183640Y322580D02*
D03*
X749300Y76200D02*
D03*
X628650Y184150D02*
D03*
X793750Y114300D02*
D03*
X654050Y184150D02*
D03*
X869950Y793750D02*
D03*
X806450D02*
D03*
X438150Y812800D02*
D03*
X622300D02*
D03*
X1123950Y292100D02*
D03*
X882650Y285750D02*
D03*
X1168400Y292100D02*
D03*
X1028700Y279400D02*
D03*
X1041400Y298450D02*
D03*
X914400Y317500D02*
D03*
X774700Y393700D02*
D03*
X762000Y349250D02*
D03*
X514350Y412750D02*
D03*
X552450Y622300D02*
D03*
X520700D02*
D03*
X869950Y520700D02*
D03*
X812800D02*
D03*
X590550Y882650D02*
D03*
X876300Y234950D02*
D03*
X793750Y158750D02*
D03*
X800100Y209550D02*
D03*
X666750Y374650D02*
D03*
X641350Y209550D02*
D03*
D65*
X812800Y1074420D02*
D03*
X734060Y734060D02*
D03*
X769620Y815340D02*
D03*
X990600Y1198880D02*
D03*
X916940Y1277620D02*
D03*
X876300Y1295400D02*
D03*
D66*
X906780Y1120140D02*
D03*
X949960D02*
D03*
D67*
X1400810Y951230D02*
D03*
Y53340D02*
D03*
Y1858010D02*
D03*
X2760980Y53340D02*
D03*
Y1858010D02*
D03*
Y952500D02*
D03*
X40640Y951230D02*
D03*
Y1858010D02*
D03*
Y53340D02*
D03*
M02*
