G04*
G04 #@! TF.GenerationSoftware,Altium Limited,Altium Designer,22.11.1 (43)*
G04*
G04 Layer_Color=65535*
%FSLAX44Y44*%
%MOMM*%
G71*
G04*
G04 #@! TF.SameCoordinates,A751104F-70AC-404C-B97E-AE56B71AA5AB*
G04*
G04*
G04 #@! TF.FilePolarity,Positive*
G04*
G01*
G75*
%ADD10C,0.2500*%
%ADD11C,0.1524*%
%ADD12C,0.2000*%
%ADD13C,0.0000*%
%ADD14C,0.5080*%
%ADD15C,0.1270*%
%ADD16C,0.4000*%
%ADD17C,0.2540*%
%ADD18C,0.3000*%
%ADD19C,0.0508*%
%ADD20C,0.1540*%
D10*
X779410Y624840D02*
G03*
X779410Y624840I-1250J0D01*
G01*
X935770Y971800D02*
G03*
X935770Y971800I-1250J0D01*
G01*
X1266170Y1016920D02*
G03*
X1266170Y1016920I-1250J0D01*
G01*
X917900Y850900D02*
G03*
X917900Y850900I-1250J0D01*
G01*
Y698500D02*
G03*
X917900Y698500I-1250J0D01*
G01*
X513350Y1060450D02*
G03*
X513350Y1060450I-1250J0D01*
G01*
Y927100D02*
G03*
X513350Y927100I-1250J0D01*
G01*
X676600Y323850D02*
G03*
X676600Y323850I-1250J0D01*
G01*
D11*
X1171702Y1487170D02*
G03*
X1171702Y1487170I-2032J0D01*
G01*
X1167892Y1442720D02*
G03*
X1167892Y1442720I-762J0D01*
G01*
X1286002Y1271270D02*
G03*
X1286002Y1271270I-762J0D01*
G01*
X656717Y514514D02*
Y526886D01*
X676783Y514514D02*
Y526886D01*
X732917Y514514D02*
Y526886D01*
X752983Y514514D02*
Y526886D01*
X1228120Y1464945D02*
Y1562735D01*
X1176050D02*
X1228120D01*
X1176050Y1464945D02*
Y1562735D01*
Y1464945D02*
X1228120D01*
X1146430Y1419438D02*
Y1435522D01*
X1164970Y1419438D02*
Y1435522D01*
X1275207Y1408594D02*
Y1420966D01*
X1295273Y1408594D02*
Y1420966D01*
X365633Y943774D02*
Y956146D01*
X345567Y943774D02*
Y956146D01*
X312293Y943774D02*
Y956146D01*
X292227Y943774D02*
Y956146D01*
X416433Y943774D02*
Y956146D01*
X396367Y943774D02*
Y956146D01*
X1292438Y1250570D02*
X1308522D01*
X1292438Y1269110D02*
X1308522D01*
X1323213Y1408594D02*
Y1420966D01*
X1303147Y1408594D02*
Y1420966D01*
X1191133Y1420278D02*
Y1432650D01*
X1171067Y1420278D02*
Y1432650D01*
X1312074Y1300607D02*
X1324446D01*
X1312074Y1320673D02*
X1324446D01*
X1292733Y1215554D02*
Y1227926D01*
X1272667Y1215554D02*
Y1227926D01*
X1165733Y1380654D02*
Y1393026D01*
X1145667Y1380654D02*
Y1393026D01*
X1130173Y1380654D02*
Y1393026D01*
X1110107Y1380654D02*
Y1393026D01*
X1237627Y448140D02*
X1318653D01*
X1237627Y360510D02*
Y448140D01*
Y360510D02*
X1318653D01*
Y448140D01*
X1141560Y102247D02*
Y183273D01*
X1053930D02*
X1141560D01*
X1053930Y102247D02*
Y183273D01*
Y102247D02*
X1141560D01*
X473874Y380873D02*
X486246D01*
X473874Y360807D02*
X486246D01*
X421513Y451014D02*
Y463386D01*
X401447Y451014D02*
Y463386D01*
X1233334Y540893D02*
X1245706D01*
X1233334Y520827D02*
X1245706D01*
X1073314Y576707D02*
X1085686D01*
X1073314Y596773D02*
X1085686D01*
X1231810Y578993D02*
X1244182D01*
X1231810Y558927D02*
X1244182D01*
X1075854Y500507D02*
X1088226D01*
X1075854Y520573D02*
X1088226D01*
X1166960Y1711567D02*
Y1792593D01*
X1079330D02*
X1166960D01*
X1079330Y1711567D02*
Y1792593D01*
Y1711567D02*
X1166960D01*
Y1575447D02*
Y1656473D01*
X1079330D02*
X1166960D01*
X1079330Y1575447D02*
Y1656473D01*
Y1575447D02*
X1166960D01*
X1083818Y1237742D02*
X1085392D01*
X1156462Y1165098D02*
Y1166672D01*
X1154888Y1237742D02*
X1156462D01*
X1083818Y1236168D02*
Y1237742D01*
Y1165098D02*
X1085392D01*
X1083818D02*
Y1166672D01*
X1104088Y1165098D02*
X1136192D01*
X1156462Y1185368D02*
Y1217472D01*
X1154888Y1165098D02*
X1156462D01*
X1104088Y1237742D02*
X1136192D01*
X1156462Y1236168D02*
Y1237742D01*
X1083818Y1185368D02*
Y1217472D01*
X1075854Y1097407D02*
X1088226D01*
X1075854Y1117473D02*
X1088226D01*
X1075854Y1021207D02*
X1088226D01*
X1075854Y1041273D02*
X1088226D01*
X1075854Y972947D02*
X1088226D01*
X1075854Y993013D02*
X1088226D01*
X1075854Y896747D02*
X1088226D01*
X1075854Y916813D02*
X1088226D01*
X1073314Y845947D02*
X1085686D01*
X1073314Y866013D02*
X1085686D01*
X1075854Y769747D02*
X1088226D01*
X1075854Y789813D02*
X1088226D01*
X1075854Y716407D02*
X1088226D01*
X1075854Y736473D02*
X1088226D01*
X1075854Y640207D02*
X1088226D01*
X1075854Y660273D02*
X1088226D01*
X1087247Y331634D02*
Y344006D01*
X1107313Y331634D02*
Y344006D01*
X975233Y331634D02*
Y344006D01*
X955167Y331634D02*
Y344006D01*
X949833Y331634D02*
Y344006D01*
X929767Y331634D02*
Y344006D01*
X609764Y124333D02*
X622136D01*
X609764Y104267D02*
X622136D01*
X609764Y156083D02*
X622136D01*
X609764Y136017D02*
X622136D01*
X717714Y200533D02*
X730086D01*
X717714Y180467D02*
X730086D01*
X851064Y200533D02*
X863436D01*
X851064Y180467D02*
X863436D01*
X806614Y937133D02*
X818986D01*
X806614Y917067D02*
X818986D01*
X562483Y362114D02*
Y374486D01*
X542417Y362114D02*
Y374486D01*
X717714Y257683D02*
X730086D01*
X717714Y237617D02*
X730086D01*
X451014Y161417D02*
X463386D01*
X451014Y181483D02*
X463386D01*
X451014Y85217D02*
X463386D01*
X451014Y105283D02*
X463386D01*
X802767Y329094D02*
Y341466D01*
X822833Y329094D02*
Y341466D01*
X1196467Y330364D02*
Y342736D01*
X1216533Y330364D02*
Y342736D01*
X1076833Y331634D02*
Y344006D01*
X1056767Y331634D02*
Y344006D01*
D12*
X1098280Y1432040D02*
G03*
X1098280Y1432040I-1000J0D01*
G01*
X1436100Y1107960D02*
G03*
X1436100Y1107960I-1000J0D01*
G01*
X1290800Y1341120D02*
G03*
X1290800Y1341120I-1000J0D01*
G01*
X1195040Y1430210D02*
G03*
X1195040Y1430210I-1000J0D01*
G01*
X1302000Y336550D02*
G03*
X1302000Y336550I-1000J0D01*
G01*
X859000Y927100D02*
G03*
X859000Y927100I-1000J0D01*
G01*
X299450Y405650D02*
G03*
X299450Y405650I-1000J0D01*
G01*
Y304050D02*
G03*
X299450Y304050I-1000J0D01*
G01*
X134350D02*
G03*
X134350Y304050I-1000J0D01*
G01*
X1023350Y108700D02*
G03*
X1023350Y108700I-1000J0D01*
G01*
X1359900Y1045960D02*
G03*
X1359900Y1045960I-1000J0D01*
G01*
X460550Y532800D02*
G03*
X460550Y532800I-1000J0D01*
G01*
X930800Y1168400D02*
G03*
X930800Y1168400I-1000J0D01*
G01*
X643660Y611390D02*
Y638290D01*
Y611390D02*
X773660D01*
Y638290D01*
X643660D02*
X773660D01*
X895870Y1081000D02*
X948170D01*
X895870Y976400D02*
Y1081000D01*
X948170Y976400D02*
Y1081000D01*
X895870Y976400D02*
X948170D01*
X1251470Y755420D02*
Y1012420D01*
X1278370D01*
Y755420D02*
Y1012420D01*
X1251470Y755420D02*
X1278370D01*
X294700Y837400D02*
X911800D01*
X294700D02*
Y864400D01*
X911800D01*
Y837400D02*
Y864400D01*
X294700Y685000D02*
X911800D01*
X294700D02*
Y712000D01*
X911800D01*
Y685000D02*
Y712000D01*
X516950Y1046950D02*
Y1073950D01*
Y1046950D02*
X778450D01*
Y1073950D01*
X516950D02*
X778450D01*
X516950Y913600D02*
Y940600D01*
Y913600D02*
X778450D01*
Y940600D01*
X516950D02*
X778450D01*
X510600Y310350D02*
X670500D01*
X510600D02*
Y337350D01*
X670500D01*
Y310350D02*
Y337350D01*
X410200Y1180465D02*
X923300D01*
X410200Y1130935D02*
X923300D01*
Y1180465D01*
X410200Y1130935D02*
Y1180465D01*
X882854Y185502D02*
Y195498D01*
X887852D01*
X889519Y193832D01*
Y190500D01*
X887852Y188834D01*
X882854D01*
X886186D02*
X889519Y185502D01*
X892851D02*
X896183D01*
X894517D01*
Y195498D01*
X892851Y193832D01*
X906180Y185502D02*
Y195498D01*
X901181Y190500D01*
X907846D01*
X705866Y265430D02*
Y275427D01*
X710864D01*
X712531Y273761D01*
Y270428D01*
X710864Y268762D01*
X705866D01*
X709198D02*
X712531Y265430D01*
X715863D02*
X719195D01*
X717529D01*
Y275427D01*
X715863Y273761D01*
X724193D02*
X725860Y275427D01*
X729192D01*
X730858Y273761D01*
Y272094D01*
X729192Y270428D01*
X727526D01*
X729192D01*
X730858Y268762D01*
Y267096D01*
X729192Y265430D01*
X725860D01*
X724193Y267096D01*
X749504Y185502D02*
Y195498D01*
X754502D01*
X756169Y193832D01*
Y190500D01*
X754502Y188834D01*
X749504D01*
X752836D02*
X756169Y185502D01*
X759501D02*
X762833D01*
X761167D01*
Y195498D01*
X759501Y193832D01*
X774496Y185502D02*
X767831D01*
X774496Y192166D01*
Y193832D01*
X772830Y195498D01*
X769498D01*
X767831Y193832D01*
X543560Y395478D02*
Y405475D01*
X548558D01*
X550224Y403809D01*
Y400476D01*
X548558Y398810D01*
X543560D01*
X546892D02*
X550224Y395478D01*
X553557D02*
X556889D01*
X555223D01*
Y405475D01*
X553557Y403809D01*
X561887Y395478D02*
X565220D01*
X563554D01*
Y405475D01*
X561887Y403809D01*
X661477Y251602D02*
Y258267D01*
X659810Y259933D01*
X656478D01*
X654812Y258267D01*
Y251602D01*
X656478Y249936D01*
X659810D01*
X658144Y253268D02*
X661477Y249936D01*
X659810D02*
X661477Y251602D01*
X664809Y258267D02*
X666475Y259933D01*
X669807D01*
X671473Y258267D01*
Y256600D01*
X669807Y254934D01*
X668141D01*
X669807D01*
X671473Y253268D01*
Y251602D01*
X669807Y249936D01*
X666475D01*
X664809Y251602D01*
X674370Y195671D02*
Y187340D01*
X676036Y185674D01*
X679368D01*
X681034Y187340D01*
Y195671D01*
X691031Y185674D02*
X684367D01*
X691031Y192339D01*
Y194005D01*
X689365Y195671D01*
X686033D01*
X684367Y194005D01*
X810768Y195671D02*
Y187340D01*
X812434Y185674D01*
X815766D01*
X817432Y187340D01*
Y195671D01*
X820765Y194005D02*
X822431Y195671D01*
X825763D01*
X827429Y194005D01*
Y192339D01*
X825763Y190672D01*
X824097D01*
X825763D01*
X827429Y189006D01*
Y187340D01*
X825763Y185674D01*
X822431D01*
X820765Y187340D01*
D13*
X307530Y1025380D02*
G03*
X307530Y1025380I-1270J0D01*
G01*
X360870Y1027920D02*
G03*
X360870Y1027920I-1270J0D01*
G01*
X411670D02*
G03*
X411670Y1027920I-1270J0D01*
G01*
X1327320Y1163940D02*
G03*
X1327320Y1163940I-1000J0D01*
G01*
Y1229980D02*
G03*
X1327320Y1229980I-1000J0D01*
G01*
X493250Y397320D02*
G03*
X493250Y397320I-1270J0D01*
G01*
X416750Y540240D02*
G03*
X416750Y540240I-1270J0D01*
G01*
X657800Y240250D02*
G03*
X657800Y240250I-1000J0D01*
G01*
X1007050Y354550D02*
G03*
X1007050Y354550I-1000J0D01*
G01*
X1132350D02*
G03*
X1132350Y354550I-1000J0D01*
G01*
D14*
X1330960Y398780D02*
G03*
X1330960Y398780I-3810J0D01*
G01*
X1096010Y93750D02*
G03*
X1096010Y93750I-3810J0D01*
G01*
X1121410Y1703070D02*
G03*
X1121410Y1703070I-3810J0D01*
G01*
Y1566950D02*
G03*
X1121410Y1566950I-3810J0D01*
G01*
D15*
X961420Y1231300D02*
G03*
X991420Y1261300I0J30000D01*
G01*
X141420D02*
G03*
X171420Y1231300I30000J0D01*
G01*
Y1791300D02*
G03*
X141420Y1761300I0J-30000D01*
G01*
X991420D02*
G03*
X961420Y1791300I-30000J0D01*
G01*
X1084580Y1437640D02*
X1109980D01*
Y1488440D01*
X1084580D02*
X1109980D01*
X1084580Y1437640D02*
Y1488440D01*
X254580Y639680D02*
Y649680D01*
X249580Y644680D02*
X259580D01*
X254580Y689680D02*
Y699680D01*
X192580Y620180D02*
Y719180D01*
X144580Y620180D02*
X192580D01*
X144580Y603180D02*
Y620180D01*
X119580Y603180D02*
X144580D01*
X119580D02*
Y620180D01*
X102580D02*
X119580D01*
X102580D02*
Y719180D01*
X119580D01*
Y736180D01*
X144580D01*
Y719180D02*
Y736180D01*
Y719180D02*
X192580D01*
X1422400Y1102360D02*
X1447800D01*
X1422400Y1051560D02*
Y1102360D01*
Y1051560D02*
X1447800D01*
Y1102360D01*
X1295400Y1353820D02*
X1346200D01*
Y1328420D02*
Y1353820D01*
X1295400Y1328420D02*
X1346200D01*
X1295400D02*
Y1353820D01*
X1214940Y1381910D02*
X1253940D01*
X1214940Y1432410D02*
X1253940D01*
X1329820Y1180440D02*
Y1188440D01*
X1358820Y1180440D02*
Y1188440D01*
X1351820D02*
X1358820D01*
X1329820D02*
X1336820D01*
X1329820Y1254480D02*
X1336820D01*
X1351820D02*
X1358820D01*
Y1246480D02*
Y1254480D01*
X1329820Y1246480D02*
Y1254480D01*
X1295400Y323850D02*
Y349250D01*
X1244600D02*
X1295400D01*
X1244600Y323850D02*
Y349250D01*
Y323850D02*
X1295400D01*
X863600Y914400D02*
Y939800D01*
Y914400D02*
X914400D01*
Y939800D01*
X863600D02*
X914400D01*
X171420Y1231300D02*
X961420D01*
X141420Y1261300D02*
Y1761300D01*
X171420Y1791300D02*
X961420D01*
X991420Y1261300D02*
Y1761300D01*
X425450Y787400D02*
Y838200D01*
X450850Y787400D02*
Y838200D01*
X425450Y787400D02*
X450850D01*
X298450Y863600D02*
X908050D01*
X450850Y838200D02*
X908050D01*
X425450D02*
X450850D01*
X298450D02*
X425450D01*
X298450Y711200D02*
Y838200D01*
Y711200D02*
X908050D01*
Y838200D02*
Y863600D01*
Y685800D02*
Y711200D01*
X298450Y838200D02*
Y863600D01*
Y685800D02*
Y711200D01*
X857250Y736600D02*
X908050D01*
X857250D02*
Y812800D01*
X908050D01*
Y711200D02*
Y736600D01*
Y812800D02*
Y838200D01*
Y812800D02*
X915670D01*
X908050Y736600D02*
X915670D01*
Y812800D01*
X298450Y685800D02*
X908050D01*
X285750Y400050D02*
X311150D01*
X285750Y349250D02*
Y400050D01*
Y349250D02*
X311150D01*
Y400050D01*
X285750Y298450D02*
X311150D01*
X285750Y247650D02*
Y298450D01*
Y247650D02*
X311150D01*
Y298450D01*
X120650D02*
X146050D01*
X120650Y247650D02*
Y298450D01*
Y247650D02*
X146050D01*
Y298450D01*
X692400Y175900D02*
X755400D01*
X755650Y169850D02*
Y175850D01*
X692150Y169850D02*
Y175850D01*
X755650Y90800D02*
Y96850D01*
X692150Y90800D02*
X755650D01*
X692150D02*
Y96850D01*
X927350Y217800D02*
X990350D01*
X927100Y217850D02*
Y223850D01*
X990600Y217850D02*
Y223850D01*
X927100Y296850D02*
Y302900D01*
X990600D01*
Y296850D02*
Y302900D01*
X681300Y229750D02*
Y236750D01*
Y207750D02*
Y214750D01*
X673300Y207750D02*
X681300D01*
X673300Y236750D02*
X681300D01*
X828950Y175900D02*
X891950D01*
X892200Y169850D02*
Y175850D01*
X828700Y169850D02*
Y175850D01*
X892200Y90800D02*
Y96850D01*
X828700Y90800D02*
X892200D01*
X828700D02*
Y96850D01*
X1276350Y296850D02*
Y302900D01*
X1212850D02*
X1276350D01*
X1212850Y296850D02*
Y302900D01*
X1276350Y217850D02*
Y223850D01*
X1212850Y217850D02*
Y223850D01*
X1213100Y217800D02*
X1276100D01*
X1073400D02*
X1136400D01*
X1073150Y217850D02*
Y223850D01*
X1136650Y217850D02*
Y223850D01*
X1073150Y296850D02*
Y302900D01*
X1136650D01*
Y296850D02*
Y302900D01*
X1009650Y114300D02*
X1035050D01*
Y165100D01*
X1009650D02*
X1035050D01*
X1009650Y114300D02*
Y165100D01*
X1022550Y351050D02*
X1030550D01*
X1022550Y322050D02*
X1030550D01*
Y329050D01*
Y344050D02*
Y351050D01*
X1147850D02*
X1155850D01*
X1147850Y322050D02*
X1155850D01*
Y329050D01*
Y344050D02*
Y351050D01*
X850900Y296850D02*
Y302900D01*
X787400D02*
X850900D01*
X787400Y296850D02*
Y302900D01*
X850900Y217850D02*
Y223850D01*
X787400Y217850D02*
Y223850D01*
X787650Y217800D02*
X850650D01*
X1346200Y1051560D02*
X1371600D01*
Y1102360D01*
X1346200D02*
X1371600D01*
X1346200Y1051560D02*
Y1102360D01*
X143640Y547740D02*
X191640D01*
X143640D02*
Y564740D01*
X118640D02*
X143640D01*
X118640Y547740D02*
Y564740D01*
X101640Y547740D02*
X118640D01*
X101640Y448740D02*
Y547740D01*
Y448740D02*
X118640D01*
Y431740D02*
Y448740D01*
Y431740D02*
X143640D01*
Y448740D01*
X191640D01*
Y547740D01*
X253640Y518240D02*
Y528240D01*
X248640Y473240D02*
X258640D01*
X253640Y468240D02*
Y478240D01*
X580550Y431550D02*
Y447900D01*
X473550Y431550D02*
X580550D01*
X473550D02*
Y447900D01*
X580550Y542700D02*
Y559050D01*
X473550D02*
X580550D01*
X473550Y542700D02*
Y559050D01*
D16*
X1002420Y1281300D02*
G03*
X1002420Y1281300I-2000J0D01*
G01*
X2641600Y1026160D02*
Y1783080D01*
X1640840D02*
X2641600D01*
X1640840Y1026160D02*
Y1783080D01*
Y1026160D02*
X2641600D01*
D17*
X970669Y1266300D02*
G03*
X970669Y1266300I-14249J0D01*
G01*
X390669D02*
G03*
X390669Y1266300I-14249J0D01*
G01*
Y1756300D02*
G03*
X390669Y1756300I-14249J0D01*
G01*
X970669D02*
G03*
X970669Y1756300I-14249J0D01*
G01*
X619764Y579117D02*
X617225Y576577D01*
Y571499D01*
X619764Y568960D01*
X629921D01*
X632460Y571499D01*
Y576577D01*
X629921Y579117D01*
X624842D01*
Y574038D01*
X632460Y584195D02*
X617225D01*
Y591813D01*
X619764Y594352D01*
X624842D01*
X627382Y591813D01*
Y584195D01*
X617225Y599430D02*
Y604509D01*
Y601969D01*
X632460D01*
Y599430D01*
Y604509D01*
X617225Y619744D02*
Y614665D01*
X619764Y612126D01*
X629921D01*
X632460Y614665D01*
Y619744D01*
X629921Y622283D01*
X619764D01*
X617225Y619744D01*
X589285Y568960D02*
Y579117D01*
Y574038D01*
X604520D01*
X589285Y594352D02*
Y584195D01*
X604520D01*
Y594352D01*
X596903Y584195D02*
Y589273D01*
X589285Y609587D02*
Y599430D01*
X604520D01*
Y609587D01*
X596903Y599430D02*
Y604509D01*
X604520Y614665D02*
X589285D01*
X604520Y624822D01*
X589285D01*
X591824Y640057D02*
X589285Y637518D01*
Y632439D01*
X591824Y629900D01*
X594363D01*
X596903Y632439D01*
Y637518D01*
X599442Y640057D01*
X601981D01*
X604520Y637518D01*
Y632439D01*
X601981Y629900D01*
X589285Y645135D02*
X591824D01*
X596903Y650214D01*
X591824Y655292D01*
X589285D01*
X596903Y650214D02*
X604520D01*
X665475Y607060D02*
X650240D01*
Y599442D01*
X652779Y596903D01*
X662936D01*
X665475Y599442D01*
Y607060D01*
X650240Y591825D02*
Y586747D01*
Y589286D01*
X665475D01*
X662936Y591825D01*
X665475Y568972D02*
X662936Y574051D01*
X657858Y579129D01*
X652779D01*
X650240Y576590D01*
Y571511D01*
X652779Y568972D01*
X655318D01*
X657858Y571511D01*
Y579129D01*
X690875Y607060D02*
X675640D01*
Y599442D01*
X678179Y596903D01*
X688336D01*
X690875Y599442D01*
Y607060D01*
X675640Y591825D02*
Y586747D01*
Y589286D01*
X690875D01*
X688336Y591825D01*
X690875Y579129D02*
Y568972D01*
X688336D01*
X678179Y579129D01*
X675640D01*
X716275Y607060D02*
X701040D01*
Y599442D01*
X703579Y596903D01*
X713736D01*
X716275Y599442D01*
Y607060D01*
X701040Y591825D02*
Y586747D01*
Y589286D01*
X716275D01*
X713736Y591825D01*
Y579129D02*
X716275Y576590D01*
Y571511D01*
X713736Y568972D01*
X711197D01*
X708658Y571511D01*
X706118Y568972D01*
X703579D01*
X701040Y571511D01*
Y576590D01*
X703579Y579129D01*
X706118D01*
X708658Y576590D01*
X711197Y579129D01*
X713736D01*
X708658Y576590D02*
Y571511D01*
X741675Y607060D02*
X726440D01*
Y599442D01*
X728979Y596903D01*
X739136D01*
X741675Y599442D01*
Y607060D01*
X726440Y591825D02*
Y586747D01*
Y589286D01*
X741675D01*
X739136Y591825D01*
X728979Y579129D02*
X726440Y576590D01*
Y571511D01*
X728979Y568972D01*
X739136D01*
X741675Y571511D01*
Y576590D01*
X739136Y579129D01*
X736597D01*
X734057Y576590D01*
Y568972D01*
X622304Y508003D02*
Y523237D01*
X629922D01*
X632461Y520698D01*
Y515620D01*
X629922Y513081D01*
X622304D01*
X627383D02*
X632461Y508003D01*
X637539Y523237D02*
X647696D01*
Y520698D01*
X637539Y510542D01*
Y508003D01*
X758196Y510542D02*
Y525778D01*
X765814D01*
X768353Y523238D01*
Y518160D01*
X765814Y515621D01*
X758196D01*
X763275D02*
X768353Y510542D01*
X773431D02*
X778510D01*
X775970D01*
Y525778D01*
X773431Y523238D01*
X796284Y525778D02*
X786127D01*
Y518160D01*
X791206Y520699D01*
X793745D01*
X796284Y518160D01*
Y513082D01*
X793745Y510542D01*
X788666D01*
X786127Y513082D01*
X767075Y607060D02*
X751840D01*
Y599442D01*
X754379Y596903D01*
X764536D01*
X767075Y599442D01*
Y607060D01*
X751840Y581668D02*
Y591825D01*
X761997Y581668D01*
X764536D01*
X767075Y584207D01*
Y589286D01*
X764536Y591825D01*
Y576590D02*
X767075Y574051D01*
Y568972D01*
X764536Y566433D01*
X754379D01*
X751840Y568972D01*
Y574051D01*
X754379Y576590D01*
X764536D01*
X654047Y663443D02*
X648968D01*
X651507D01*
Y650747D01*
X648968Y648208D01*
X646429D01*
X643890Y650747D01*
X669282Y648208D02*
X659125D01*
X669282Y658365D01*
Y660904D01*
X666743Y663443D01*
X661664D01*
X659125Y660904D01*
X684517Y663443D02*
X674360D01*
Y655826D01*
X679438Y658365D01*
X681978D01*
X684517Y655826D01*
Y650747D01*
X681978Y648208D01*
X676899D01*
X674360Y650747D01*
X1071880Y1358900D02*
X1059884D01*
Y1364898D01*
X1061883Y1366897D01*
X1065882D01*
X1067881Y1364898D01*
Y1358900D01*
Y1362899D02*
X1071880Y1366897D01*
X1059884Y1378893D02*
Y1370896D01*
X1065882D01*
Y1374895D01*
Y1370896D01*
X1071880D01*
X1059884Y1400886D02*
Y1396888D01*
X1061883Y1394888D01*
X1069881D01*
X1071880Y1396888D01*
Y1400886D01*
X1069881Y1402886D01*
X1061883D01*
X1059884Y1400886D01*
Y1406884D02*
X1069881D01*
X1071880Y1408884D01*
Y1412883D01*
X1069881Y1414882D01*
X1059884D01*
Y1418881D02*
Y1426878D01*
Y1422879D01*
X1071880D01*
X1059884Y1450870D02*
Y1442873D01*
X1065882D01*
Y1446871D01*
Y1442873D01*
X1071880D01*
Y1454869D02*
X1059884D01*
Y1460867D01*
X1061883Y1462866D01*
X1065882D01*
X1067881Y1460867D01*
Y1454869D01*
Y1458868D02*
X1071880Y1462866D01*
X1059884Y1472863D02*
Y1468864D01*
X1061883Y1466865D01*
X1069881D01*
X1071880Y1468864D01*
Y1472863D01*
X1069881Y1474863D01*
X1061883D01*
X1059884Y1472863D01*
X1071880Y1478861D02*
X1059884D01*
X1063883Y1482860D01*
X1059884Y1486859D01*
X1071880D01*
X1059884Y1508851D02*
Y1504853D01*
X1061883Y1502853D01*
X1069881D01*
X1071880Y1504853D01*
Y1508851D01*
X1069881Y1510851D01*
X1061883D01*
X1059884Y1508851D01*
X1071880Y1514850D02*
X1059884D01*
Y1520848D01*
X1061883Y1522847D01*
X1065882D01*
X1067881Y1520848D01*
Y1514850D01*
X1071880Y1526846D02*
X1063883D01*
X1059884Y1530844D01*
X1063883Y1534843D01*
X1071880D01*
X1065882D01*
Y1526846D01*
X1071880Y1538842D02*
X1059884D01*
X1063883Y1542840D01*
X1059884Y1546839D01*
X1071880D01*
Y1550838D02*
X1059884D01*
Y1556836D01*
X1061883Y1558835D01*
X1065882D01*
X1067881Y1556836D01*
Y1550838D01*
X1252217Y1490987D02*
X1236982D01*
Y1498604D01*
X1239522Y1501143D01*
X1244600D01*
X1247139Y1498604D01*
Y1490987D01*
Y1496065D02*
X1252217Y1501143D01*
Y1513839D02*
X1236982D01*
X1244600Y1506222D01*
Y1516378D01*
X1252217Y1531613D02*
Y1521457D01*
X1242061Y1531613D01*
X1239522D01*
X1236982Y1529074D01*
Y1523996D01*
X1239522Y1521457D01*
X1178560Y1645916D02*
X1181099Y1648455D01*
X1186178D01*
X1188717Y1645916D01*
Y1635759D01*
X1186178Y1633220D01*
X1181099D01*
X1178560Y1635759D01*
Y1645916D01*
X1193795Y1648455D02*
Y1638298D01*
X1198873Y1633220D01*
X1203952Y1638298D01*
Y1648455D01*
X1094483Y1514089D02*
X1089404D01*
X1091944D01*
Y1501393D01*
X1089404Y1498854D01*
X1086865D01*
X1084326Y1501393D01*
X1109718Y1498854D02*
X1099561D01*
X1109718Y1509011D01*
Y1511550D01*
X1107179Y1514089D01*
X1102100D01*
X1099561Y1511550D01*
X1122414Y1498854D02*
Y1514089D01*
X1114796Y1506472D01*
X1124953D01*
X2415032Y812287D02*
Y797052D01*
X2425189D01*
X2440424D02*
X2430267D01*
X2440424Y807209D01*
Y809748D01*
X2437885Y812287D01*
X2432806D01*
X2430267Y809748D01*
X33020Y1069340D02*
Y1084575D01*
X38098Y1079497D01*
X43177Y1084575D01*
Y1069340D01*
X55873Y1084575D02*
X50794D01*
X48255Y1082036D01*
Y1071879D01*
X50794Y1069340D01*
X55873D01*
X58412Y1071879D01*
Y1082036D01*
X55873Y1084575D01*
X63490D02*
Y1069340D01*
X71108D01*
X73647Y1071879D01*
Y1082036D01*
X71108Y1084575D01*
X63490D01*
X88882D02*
X78725D01*
Y1069340D01*
X88882D01*
X78725Y1076957D02*
X83804D01*
X109195Y1084575D02*
Y1069340D01*
X119352D01*
X134587Y1084575D02*
X124430D01*
Y1069340D01*
X134587D01*
X124430Y1076957D02*
X129509D01*
X139665Y1084575D02*
Y1069340D01*
X147283D01*
X149822Y1071879D01*
Y1082036D01*
X147283Y1084575D01*
X139665D01*
X170136D02*
Y1069340D01*
X177753D01*
X180292Y1071879D01*
Y1082036D01*
X177753Y1084575D01*
X170136D01*
X185371Y1082036D02*
X187910Y1084575D01*
X192988D01*
X195527Y1082036D01*
Y1079497D01*
X192988Y1076957D01*
X190449D01*
X192988D01*
X195527Y1074418D01*
Y1071879D01*
X192988Y1069340D01*
X187910D01*
X185371Y1071879D01*
X215841Y1084575D02*
Y1069340D01*
X223458D01*
X225998Y1071879D01*
Y1082036D01*
X223458Y1084575D01*
X215841D01*
X238694Y1069340D02*
Y1084575D01*
X231076Y1076957D01*
X241233D01*
X261546Y1084575D02*
Y1069340D01*
X269164D01*
X271703Y1071879D01*
Y1082036D01*
X269164Y1084575D01*
X261546D01*
X286938D02*
X276781D01*
Y1076957D01*
X281859Y1079497D01*
X284399D01*
X286938Y1076957D01*
Y1071879D01*
X284399Y1069340D01*
X279320D01*
X276781Y1071879D01*
X30480Y1115055D02*
X40637D01*
X35558D01*
Y1099820D01*
X55872Y1115055D02*
X45715D01*
Y1099820D01*
X55872D01*
X45715Y1107438D02*
X50793D01*
X71107Y1115055D02*
X60950D01*
Y1099820D01*
X71107D01*
X60950Y1107438D02*
X66028D01*
X76185Y1099820D02*
Y1115055D01*
X86342Y1099820D01*
Y1115055D01*
X101577Y1112516D02*
X99038Y1115055D01*
X93960D01*
X91420Y1112516D01*
Y1109977D01*
X93960Y1107438D01*
X99038D01*
X101577Y1104898D01*
Y1102359D01*
X99038Y1099820D01*
X93960D01*
X91420Y1102359D01*
X106655Y1115055D02*
Y1112516D01*
X111734Y1107438D01*
X116812Y1112516D01*
Y1115055D01*
X111734Y1107438D02*
Y1099820D01*
X137126Y1115055D02*
Y1099820D01*
Y1107438D01*
X147282D01*
Y1115055D01*
Y1099820D01*
X152361D02*
Y1109977D01*
X157439Y1115055D01*
X162517Y1109977D01*
Y1099820D01*
Y1107438D01*
X152361D01*
X177752Y1112516D02*
X175213Y1115055D01*
X170135D01*
X167596Y1112516D01*
Y1109977D01*
X170135Y1107438D01*
X175213D01*
X177752Y1104898D01*
Y1102359D01*
X175213Y1099820D01*
X170135D01*
X167596Y1102359D01*
X198066Y1099820D02*
Y1115055D01*
X205683D01*
X208223Y1112516D01*
Y1107438D01*
X205683Y1104898D01*
X198066D01*
X220918Y1115055D02*
X215840D01*
X213301Y1112516D01*
Y1102359D01*
X215840Y1099820D01*
X220918D01*
X223458Y1102359D01*
Y1112516D01*
X220918Y1115055D01*
X228536D02*
Y1099820D01*
X233614Y1104898D01*
X238693Y1099820D01*
Y1115055D01*
X253928D02*
X243771D01*
Y1099820D01*
X253928D01*
X243771Y1107438D02*
X248849D01*
X259006Y1099820D02*
Y1115055D01*
X266624D01*
X269163Y1112516D01*
Y1107438D01*
X266624Y1104898D01*
X259006D01*
X264084D02*
X269163Y1099820D01*
X289476Y1115055D02*
Y1099820D01*
X299633D01*
X314868Y1115055D02*
X304711D01*
Y1099820D01*
X314868D01*
X304711Y1107438D02*
X309790D01*
X319946Y1115055D02*
Y1099820D01*
X327564D01*
X330103Y1102359D01*
Y1112516D01*
X327564Y1115055D01*
X319946D01*
X358034D02*
X352956D01*
X350416Y1112516D01*
Y1102359D01*
X352956Y1099820D01*
X358034D01*
X360573Y1102359D01*
Y1112516D01*
X358034Y1115055D01*
X365652Y1099820D02*
Y1115055D01*
X375808Y1099820D01*
Y1115055D01*
X396122D02*
Y1099820D01*
X403739D01*
X406278Y1102359D01*
Y1104898D01*
X403739Y1107438D01*
X396122D01*
X403739D01*
X406278Y1109977D01*
Y1112516D01*
X403739Y1115055D01*
X396122D01*
X418974D02*
X413896D01*
X411357Y1112516D01*
Y1102359D01*
X413896Y1099820D01*
X418974D01*
X421513Y1102359D01*
Y1112516D01*
X418974Y1115055D01*
X426592Y1099820D02*
Y1109977D01*
X431670Y1115055D01*
X436749Y1109977D01*
Y1099820D01*
Y1107438D01*
X426592D01*
X441827Y1099820D02*
Y1115055D01*
X449445D01*
X451984Y1112516D01*
Y1107438D01*
X449445Y1104898D01*
X441827D01*
X446905D02*
X451984Y1099820D01*
X457062Y1115055D02*
Y1099820D01*
X464680D01*
X467219Y1102359D01*
Y1112516D01*
X464680Y1115055D01*
X457062D01*
X30480Y1142995D02*
Y1127760D01*
X38098D01*
X40637Y1130299D01*
Y1140456D01*
X38098Y1142995D01*
X30480D01*
X55872Y1127760D02*
X45715D01*
X55872Y1137917D01*
Y1140456D01*
X53333Y1142995D01*
X48254D01*
X45715Y1140456D01*
X76185Y1135378D02*
X86342D01*
X106655Y1142995D02*
X111734D01*
X109194D01*
Y1127760D01*
X106655D01*
X111734D01*
X129508Y1140456D02*
X126969Y1142995D01*
X121890D01*
X119351Y1140456D01*
Y1137917D01*
X121890Y1135378D01*
X126969D01*
X129508Y1132838D01*
Y1130299D01*
X126969Y1127760D01*
X121890D01*
X119351Y1130299D01*
X142204Y1142995D02*
X137126D01*
X134586Y1140456D01*
Y1130299D01*
X137126Y1127760D01*
X142204D01*
X144743Y1130299D01*
Y1140456D01*
X142204Y1142995D01*
X149821D02*
Y1127760D01*
X159978D01*
X165056D02*
Y1137917D01*
X170135Y1142995D01*
X175213Y1137917D01*
Y1127760D01*
Y1135378D01*
X165056D01*
X180292Y1142995D02*
X190448D01*
X185370D01*
Y1127760D01*
X205683Y1142995D02*
X195527D01*
Y1127760D01*
X205683D01*
X195527Y1135378D02*
X200605D01*
X210762Y1142995D02*
Y1127760D01*
X218379D01*
X220918Y1130299D01*
Y1140456D01*
X218379Y1142995D01*
X210762D01*
X241232Y1127760D02*
Y1142995D01*
X248849D01*
X251388Y1140456D01*
Y1135378D01*
X248849Y1132838D01*
X241232D01*
X264084Y1142995D02*
X259006D01*
X256467Y1140456D01*
Y1130299D01*
X259006Y1127760D01*
X264084D01*
X266624Y1130299D01*
Y1140456D01*
X264084Y1142995D01*
X271702D02*
Y1127760D01*
X276780Y1132838D01*
X281859Y1127760D01*
Y1142995D01*
X297094D02*
X286937D01*
Y1127760D01*
X297094D01*
X286937Y1135378D02*
X292015D01*
X302172Y1127760D02*
Y1142995D01*
X309790D01*
X312329Y1140456D01*
Y1135378D01*
X309790Y1132838D01*
X302172D01*
X307250D02*
X312329Y1127760D01*
X332642Y1142995D02*
Y1127760D01*
X342799D01*
X358034Y1142995D02*
X347877D01*
Y1127760D01*
X358034D01*
X347877Y1135378D02*
X352956D01*
X363112Y1142995D02*
Y1127760D01*
X370730D01*
X373269Y1130299D01*
Y1140456D01*
X370730Y1142995D01*
X363112D01*
X30480Y1170935D02*
Y1155700D01*
X38098D01*
X40637Y1158239D01*
Y1168396D01*
X38098Y1170935D01*
X30480D01*
X45715Y1155700D02*
X50793D01*
X48254D01*
Y1170935D01*
X45715Y1168396D01*
X73646Y1163317D02*
X83803D01*
X114273Y1170935D02*
X104116D01*
Y1163317D01*
X109194Y1165857D01*
X111734D01*
X114273Y1163317D01*
Y1158239D01*
X111734Y1155700D01*
X106655D01*
X104116Y1158239D01*
X119351Y1170935D02*
Y1160778D01*
X124430Y1155700D01*
X129508Y1160778D01*
Y1170935D01*
X149821Y1155700D02*
Y1170935D01*
X157439D01*
X159978Y1168396D01*
Y1163317D01*
X157439Y1160778D01*
X149821D01*
X167596Y1155700D02*
X172674D01*
X175213Y1158239D01*
Y1163317D01*
X172674Y1165857D01*
X167596D01*
X165056Y1163317D01*
Y1158239D01*
X167596Y1155700D01*
X180292Y1165857D02*
Y1158239D01*
X182831Y1155700D01*
X185370Y1158239D01*
X187909Y1155700D01*
X190448Y1158239D01*
Y1165857D01*
X203144Y1155700D02*
X198066D01*
X195527Y1158239D01*
Y1163317D01*
X198066Y1165857D01*
X203144D01*
X205683Y1163317D01*
Y1160778D01*
X195527D01*
X210762Y1165857D02*
Y1155700D01*
Y1160778D01*
X213301Y1163317D01*
X215840Y1165857D01*
X218379D01*
X241232Y1170935D02*
Y1155700D01*
X251388D01*
X266624Y1170935D02*
X256467D01*
Y1155700D01*
X266624D01*
X256467Y1163317D02*
X261545D01*
X271702Y1170935D02*
Y1155700D01*
X279319D01*
X281859Y1158239D01*
Y1168396D01*
X279319Y1170935D01*
X271702D01*
X320040Y403855D02*
Y388620D01*
X330197D01*
X345432Y403855D02*
X335275D01*
Y388620D01*
X345432D01*
X335275Y396237D02*
X340353D01*
X350510Y403855D02*
Y388620D01*
X358128D01*
X360667Y391159D01*
Y401316D01*
X358128Y403855D01*
X350510D01*
X1026165Y990597D02*
Y985518D01*
Y988057D01*
X1038861D01*
X1041400Y985518D01*
Y982979D01*
X1038861Y980440D01*
X1026165Y995675D02*
X1038861D01*
X1041400Y998214D01*
Y1003293D01*
X1038861Y1005832D01*
X1026165D01*
X1041400Y1010910D02*
X1026165D01*
X1031243Y1015988D01*
X1026165Y1021067D01*
X1041400D01*
Y1026145D02*
X1026165D01*
Y1033763D01*
X1028704Y1036302D01*
X1033783D01*
X1036322Y1033763D01*
Y1026145D01*
X1026165Y1051537D02*
Y1041380D01*
X1041400D01*
Y1051537D01*
X1033783Y1041380D02*
Y1046459D01*
X1041400Y1056615D02*
X1026165D01*
Y1064233D01*
X1028704Y1066772D01*
X1033783D01*
X1036322Y1064233D01*
Y1056615D01*
Y1061694D02*
X1041400Y1066772D01*
X1003305Y975360D02*
Y985517D01*
Y980438D01*
X1018540D01*
X1003305Y1000752D02*
Y990595D01*
X1018540D01*
Y1000752D01*
X1010922Y990595D02*
Y995673D01*
X1003305Y1015987D02*
Y1005830D01*
X1018540D01*
Y1015987D01*
X1010922Y1005830D02*
Y1010909D01*
X1018540Y1021065D02*
X1003305D01*
X1018540Y1031222D01*
X1003305D01*
X1005844Y1046457D02*
X1003305Y1043918D01*
Y1038839D01*
X1005844Y1036300D01*
X1008383D01*
X1010922Y1038839D01*
Y1043918D01*
X1013462Y1046457D01*
X1016001D01*
X1018540Y1043918D01*
Y1038839D01*
X1016001Y1036300D01*
X1003305Y1051535D02*
X1005844D01*
X1010922Y1056614D01*
X1005844Y1061692D01*
X1003305D01*
X1010922Y1056614D02*
X1018540D01*
Y1082005D02*
X1003305D01*
Y1089623D01*
X1005844Y1092162D01*
X1010922D01*
X1013462Y1089623D01*
Y1082005D01*
X1003305Y1097241D02*
Y1102319D01*
Y1099780D01*
X1018540D01*
Y1097241D01*
Y1102319D01*
Y1109937D02*
X1003305D01*
X1018540Y1120093D01*
X1003305D01*
X1005844Y1150563D02*
X1003305Y1148024D01*
Y1142946D01*
X1005844Y1140407D01*
X1008383D01*
X1010922Y1142946D01*
Y1148024D01*
X1013462Y1150563D01*
X1016001D01*
X1018540Y1148024D01*
Y1142946D01*
X1016001Y1140407D01*
X1003305Y1165798D02*
Y1155642D01*
X1018540D01*
Y1165798D01*
X1010922Y1155642D02*
Y1160720D01*
X1003305Y1170877D02*
X1018540D01*
Y1181033D01*
X1003305Y1196268D02*
Y1186112D01*
X1018540D01*
Y1196268D01*
X1010922Y1186112D02*
Y1191190D01*
X1005844Y1211504D02*
X1003305Y1208964D01*
Y1203886D01*
X1005844Y1201347D01*
X1016001D01*
X1018540Y1203886D01*
Y1208964D01*
X1016001Y1211504D01*
X1003305Y1216582D02*
Y1226739D01*
Y1221660D01*
X1018540D01*
X1003305Y1231817D02*
Y1236895D01*
Y1234356D01*
X1018540D01*
Y1231817D01*
Y1236895D01*
X1003305Y1252131D02*
Y1247052D01*
X1005844Y1244513D01*
X1016001D01*
X1018540Y1247052D01*
Y1252131D01*
X1016001Y1254670D01*
X1005844D01*
X1003305Y1252131D01*
X1018540Y1259748D02*
X1003305D01*
X1018540Y1269905D01*
X1003305D01*
X1361440Y1336040D02*
Y1351275D01*
X1369057D01*
X1371597Y1348736D01*
Y1343658D01*
X1369057Y1341118D01*
X1361440D01*
X1384293Y1351275D02*
X1379214D01*
X1376675Y1348736D01*
Y1338579D01*
X1379214Y1336040D01*
X1384293D01*
X1386832Y1338579D01*
Y1348736D01*
X1384293Y1351275D01*
X1391910D02*
Y1336040D01*
X1396989Y1341118D01*
X1402067Y1336040D01*
Y1351275D01*
X1417302D02*
X1407145D01*
Y1336040D01*
X1417302D01*
X1407145Y1343658D02*
X1412224D01*
X1422380Y1336040D02*
Y1351275D01*
X1429998D01*
X1432537Y1348736D01*
Y1343658D01*
X1429998Y1341118D01*
X1422380D01*
X1427459D02*
X1432537Y1336040D01*
X1463007Y1351275D02*
X1457929D01*
X1460468D01*
Y1338579D01*
X1457929Y1336040D01*
X1455390D01*
X1452850Y1338579D01*
X1468085Y1351275D02*
Y1338579D01*
X1470625Y1336040D01*
X1475703D01*
X1478242Y1338579D01*
Y1351275D01*
X1483321Y1336040D02*
Y1351275D01*
X1488399Y1346197D01*
X1493477Y1351275D01*
Y1336040D01*
X1498556D02*
Y1351275D01*
X1506173D01*
X1508712Y1348736D01*
Y1343658D01*
X1506173Y1341118D01*
X1498556D01*
X1523947Y1351275D02*
X1513791D01*
Y1336040D01*
X1523947D01*
X1513791Y1343658D02*
X1518869D01*
X1529026Y1336040D02*
Y1351275D01*
X1536643D01*
X1539182Y1348736D01*
Y1343658D01*
X1536643Y1341118D01*
X1529026D01*
X1534104D02*
X1539182Y1336040D01*
X797560Y909315D02*
X807717D01*
X802638D01*
Y894080D01*
X822952Y909315D02*
X812795D01*
Y894080D01*
X822952D01*
X812795Y901697D02*
X817873D01*
X838187Y909315D02*
X828030D01*
Y894080D01*
X838187D01*
X828030Y901697D02*
X833109D01*
X843265Y894080D02*
Y909315D01*
X853422Y894080D01*
Y909315D01*
X868657Y906776D02*
X866118Y909315D01*
X861040D01*
X858500Y906776D01*
Y904237D01*
X861040Y901697D01*
X866118D01*
X868657Y899158D01*
Y896619D01*
X866118Y894080D01*
X861040D01*
X858500Y896619D01*
X873735Y909315D02*
Y906776D01*
X878814Y901697D01*
X883892Y906776D01*
Y909315D01*
X878814Y901697D02*
Y894080D01*
X914362Y909315D02*
X904205D01*
Y901697D01*
X909284Y904237D01*
X911823D01*
X914362Y901697D01*
Y896619D01*
X911823Y894080D01*
X906745D01*
X904205Y896619D01*
X919441Y909315D02*
Y899158D01*
X924519Y894080D01*
X929597Y899158D01*
Y909315D01*
X957528D02*
X952450D01*
X949911Y906776D01*
Y896619D01*
X952450Y894080D01*
X957528D01*
X960067Y896619D01*
Y906776D01*
X957528Y909315D01*
X965146Y894080D02*
Y909315D01*
X975303Y894080D01*
Y909315D01*
X1361440Y1366520D02*
Y1381755D01*
X1369057D01*
X1371597Y1379216D01*
Y1374138D01*
X1369057Y1371598D01*
X1361440D01*
X1366518D02*
X1371597Y1366520D01*
X1386832Y1381755D02*
X1376675D01*
Y1374138D01*
X1381753D01*
X1376675D01*
Y1366520D01*
X1407145D02*
Y1381755D01*
X1414763D01*
X1417302Y1379216D01*
Y1374138D01*
X1414763Y1371598D01*
X1407145D01*
X1412224D02*
X1417302Y1366520D01*
X1432537Y1381755D02*
X1422380D01*
Y1366520D01*
X1432537D01*
X1422380Y1374138D02*
X1427459D01*
X1447772Y1379216D02*
X1445233Y1381755D01*
X1440155D01*
X1437615Y1379216D01*
Y1369059D01*
X1440155Y1366520D01*
X1445233D01*
X1447772Y1369059D01*
X1463007Y1381755D02*
X1452850D01*
Y1366520D01*
X1463007D01*
X1452850Y1374138D02*
X1457929D01*
X1468085Y1381755D02*
X1473164D01*
X1470625D01*
Y1366520D01*
X1468085D01*
X1473164D01*
X1480781Y1381755D02*
Y1371598D01*
X1485860Y1366520D01*
X1490938Y1371598D01*
Y1381755D01*
X1506173D02*
X1496017D01*
Y1366520D01*
X1506173D01*
X1496017Y1374138D02*
X1501095D01*
X1511252Y1366520D02*
Y1381755D01*
X1518869D01*
X1521408Y1379216D01*
Y1374138D01*
X1518869Y1371598D01*
X1511252D01*
X1516330D02*
X1521408Y1366520D01*
X1308100Y835660D02*
X1292865D01*
Y843278D01*
X1295404Y845817D01*
X1300482D01*
X1303022Y843278D01*
Y835660D01*
Y840738D02*
X1308100Y845817D01*
Y850895D02*
X1292865D01*
Y858513D01*
X1295404Y861052D01*
X1300482D01*
X1303022Y858513D01*
Y850895D01*
X1292865Y866130D02*
Y871208D01*
Y868669D01*
X1308100D01*
Y866130D01*
Y871208D01*
X1295404Y904218D02*
X1292865Y901679D01*
Y896600D01*
X1295404Y894061D01*
X1305561D01*
X1308100Y896600D01*
Y901679D01*
X1305561Y904218D01*
X1300482D01*
Y899139D01*
X1308100Y909296D02*
X1292865D01*
Y916914D01*
X1295404Y919453D01*
X1300482D01*
X1303022Y916914D01*
Y909296D01*
X1292865Y924531D02*
Y929610D01*
Y927070D01*
X1308100D01*
Y924531D01*
Y929610D01*
X1292865Y944845D02*
Y939766D01*
X1295404Y937227D01*
X1305561D01*
X1308100Y939766D01*
Y944845D01*
X1305561Y947384D01*
X1295404D01*
X1292865Y944845D01*
X1295404Y962619D02*
X1292865Y960080D01*
Y955001D01*
X1295404Y952462D01*
X1297943D01*
X1300482Y955001D01*
Y960080D01*
X1303022Y962619D01*
X1305561D01*
X1308100Y960080D01*
Y955001D01*
X1305561Y952462D01*
X967744Y985517D02*
X965205Y982978D01*
Y977899D01*
X967744Y975360D01*
X970283D01*
X972822Y977899D01*
Y982978D01*
X975362Y985517D01*
X977901D01*
X980440Y982978D01*
Y977899D01*
X977901Y975360D01*
X965205Y990595D02*
Y995673D01*
Y993134D01*
X980440D01*
Y990595D01*
Y995673D01*
X967744Y1013448D02*
X965205Y1010909D01*
Y1005830D01*
X967744Y1003291D01*
X977901D01*
X980440Y1005830D01*
Y1010909D01*
X977901Y1013448D01*
X972822D01*
Y1008369D01*
X980440Y1018526D02*
X965205D01*
X980440Y1028683D01*
X965205D01*
X980440Y1033761D02*
X970283D01*
X965205Y1038839D01*
X970283Y1043918D01*
X980440D01*
X972822D01*
Y1033761D01*
X965205Y1048996D02*
X980440D01*
Y1059153D01*
X965205Y1089623D02*
Y1079466D01*
X972822D01*
Y1084545D01*
Y1079466D01*
X980440D01*
Y1094701D02*
X965205D01*
Y1102319D01*
X967744Y1104858D01*
X972822D01*
X975362Y1102319D01*
Y1094701D01*
Y1099780D02*
X980440Y1104858D01*
X965205Y1117554D02*
Y1112476D01*
X967744Y1109937D01*
X977901D01*
X980440Y1112476D01*
Y1117554D01*
X977901Y1120093D01*
X967744D01*
X965205Y1117554D01*
X980440Y1125172D02*
X965205D01*
X970283Y1130250D01*
X965205Y1135328D01*
X980440D01*
X967744Y1165798D02*
X965205Y1163259D01*
Y1158181D01*
X967744Y1155642D01*
X970283D01*
X972822Y1158181D01*
Y1163259D01*
X975362Y1165798D01*
X977901D01*
X980440Y1163259D01*
Y1158181D01*
X977901Y1155642D01*
X980440Y1170877D02*
X965205D01*
Y1178494D01*
X967744Y1181033D01*
X972822D01*
X975362Y1178494D01*
Y1170877D01*
X980440Y1186112D02*
X970283D01*
X965205Y1191190D01*
X970283Y1196268D01*
X980440D01*
X972822D01*
Y1186112D01*
X965205Y1201347D02*
X980440D01*
Y1208964D01*
X977901Y1211504D01*
X967744D01*
X965205Y1208964D01*
Y1201347D01*
X848360Y1054100D02*
X858517D01*
X863595Y1069335D02*
X866134Y1071874D01*
X871213D01*
X873752Y1069335D01*
Y1059178D01*
X871213Y1056639D01*
X866134D01*
X863595Y1059178D01*
Y1069335D01*
X878830D02*
X881369Y1071874D01*
X886448D01*
X888987Y1069335D01*
Y1066796D01*
X886448Y1064257D01*
X888987Y1061718D01*
Y1059178D01*
X886448Y1056639D01*
X881369D01*
X878830Y1059178D01*
Y1061718D01*
X881369Y1064257D01*
X878830Y1066796D01*
Y1069335D01*
X881369Y1064257D02*
X886448D01*
X812797Y1046474D02*
X802640D01*
Y1031239D01*
X812797D01*
X802640Y1038857D02*
X807718D01*
X817875Y1031239D02*
Y1046474D01*
X822953Y1041396D01*
X828032Y1046474D01*
Y1031239D01*
X843267Y1043935D02*
X840728Y1046474D01*
X835649D01*
X833110Y1043935D01*
Y1033778D01*
X835649Y1031239D01*
X840728D01*
X843267Y1033778D01*
X848345Y1028700D02*
X858502D01*
X863580Y1043935D02*
X866120Y1046474D01*
X871198D01*
X873737Y1043935D01*
Y1033778D01*
X871198Y1031239D01*
X866120D01*
X863580Y1033778D01*
Y1043935D01*
X888972Y1046474D02*
X883894Y1043935D01*
X878815Y1038857D01*
Y1033778D01*
X881355Y1031239D01*
X886433D01*
X888972Y1033778D01*
Y1036318D01*
X886433Y1038857D01*
X878815D01*
X812797Y1021074D02*
X802640D01*
Y1005839D01*
X812797D01*
X802640Y1013457D02*
X807718D01*
X817875Y1005839D02*
Y1021074D01*
X822953Y1015996D01*
X828032Y1021074D01*
Y1005839D01*
X843267Y1018535D02*
X840728Y1021074D01*
X835649D01*
X833110Y1018535D01*
Y1008378D01*
X835649Y1005839D01*
X840728D01*
X843267Y1008378D01*
X848345Y1003300D02*
X858502D01*
X863580Y1018535D02*
X866120Y1021074D01*
X871198D01*
X873737Y1018535D01*
Y1008378D01*
X871198Y1005839D01*
X866120D01*
X863580Y1008378D01*
Y1018535D01*
X888972Y1021074D02*
X878815D01*
Y1013457D01*
X883894Y1015996D01*
X886433D01*
X888972Y1013457D01*
Y1008378D01*
X886433Y1005839D01*
X881355D01*
X878815Y1008378D01*
X812797Y995674D02*
X802640D01*
Y980439D01*
X812797D01*
X802640Y988057D02*
X807718D01*
X817875Y980439D02*
Y995674D01*
X822953Y990596D01*
X828032Y995674D01*
Y980439D01*
X843267Y993135D02*
X840728Y995674D01*
X835649D01*
X833110Y993135D01*
Y982978D01*
X835649Y980439D01*
X840728D01*
X843267Y982978D01*
X848345Y977900D02*
X858502D01*
X863580Y993135D02*
X866120Y995674D01*
X871198D01*
X873737Y993135D01*
Y982978D01*
X871198Y980439D01*
X866120D01*
X863580Y982978D01*
Y993135D01*
X886433Y980439D02*
Y995674D01*
X878815Y988057D01*
X888972D01*
X266704Y353060D02*
X264165Y355599D01*
Y360677D01*
X266704Y363217D01*
X269243D01*
X271782Y360677D01*
Y358138D01*
Y360677D01*
X274322Y363217D01*
X276861D01*
X279400Y360677D01*
Y355599D01*
X276861Y353060D01*
X264165Y368295D02*
X274322D01*
X279400Y373373D01*
X274322Y378452D01*
X264165D01*
X266704Y383530D02*
X264165Y386069D01*
Y391148D01*
X266704Y393687D01*
X269243D01*
X271782Y391148D01*
Y388609D01*
Y391148D01*
X274322Y393687D01*
X276861D01*
X279400Y391148D01*
Y386069D01*
X276861Y383530D01*
X109220Y779780D02*
X114298D01*
X111759D01*
Y795015D01*
X109220Y792476D01*
X132073Y779780D02*
X121916D01*
X132073Y789937D01*
Y792476D01*
X129533Y795015D01*
X124455D01*
X121916Y792476D01*
X137151Y795015D02*
Y784858D01*
X142229Y779780D01*
X147308Y784858D01*
Y795015D01*
X162557Y419095D02*
X152400D01*
Y411478D01*
X157478Y414017D01*
X160018D01*
X162557Y411478D01*
Y406399D01*
X160018Y403860D01*
X154939D01*
X152400Y406399D01*
X167635Y419095D02*
Y408938D01*
X172713Y403860D01*
X177792Y408938D01*
Y419095D01*
X330197Y424176D02*
X327658Y426715D01*
X322579D01*
X320040Y424176D01*
Y414019D01*
X322579Y411480D01*
X327658D01*
X330197Y414019D01*
Y419098D01*
X325118D01*
X345432Y424176D02*
X342893Y426715D01*
X337814D01*
X335275Y424176D01*
Y421637D01*
X337814Y419098D01*
X342893D01*
X345432Y416558D01*
Y414019D01*
X342893Y411480D01*
X337814D01*
X335275Y414019D01*
X350510Y411480D02*
Y426715D01*
X358128D01*
X360667Y424176D01*
Y419098D01*
X358128Y416558D01*
X350510D01*
X355588D02*
X360667Y411480D01*
X380980D02*
Y426715D01*
X388598D01*
X391137Y424176D01*
Y419098D01*
X388598Y416558D01*
X380980D01*
X396215Y426715D02*
Y411480D01*
X401294Y416558D01*
X406372Y411480D01*
Y426715D01*
X411450Y411480D02*
Y426715D01*
X419068D01*
X421607Y424176D01*
Y419098D01*
X419068Y416558D01*
X411450D01*
X416529D02*
X421607Y411480D01*
X274317Y558795D02*
X264160D01*
Y551177D01*
X269238Y553717D01*
X271777D01*
X274317Y551177D01*
Y546099D01*
X271777Y543560D01*
X266699D01*
X264160Y546099D01*
X279395Y558795D02*
Y548638D01*
X284473Y543560D01*
X289552Y548638D01*
Y558795D01*
X309865Y543560D02*
Y558795D01*
X317483D01*
X320022Y556256D01*
Y551177D01*
X317483Y548638D01*
X309865D01*
X325100Y558795D02*
Y543560D01*
X330179Y548638D01*
X335257Y543560D01*
Y558795D01*
X340335Y543560D02*
Y558795D01*
X347953D01*
X350492Y556256D01*
Y551177D01*
X347953Y548638D01*
X340335D01*
X345414D02*
X350492Y543560D01*
X370806Y558795D02*
Y543560D01*
X380962D01*
X396197Y558795D02*
X386041D01*
Y543560D01*
X396197D01*
X386041Y551177D02*
X391119D01*
X401276Y558795D02*
Y543560D01*
X408893D01*
X411432Y546099D01*
Y556256D01*
X408893Y558795D01*
X401276D01*
X863596Y1109983D02*
X866135Y1112523D01*
Y1117601D01*
X863596Y1120140D01*
X853439D01*
X850900Y1117601D01*
Y1112523D01*
X853439Y1109983D01*
X858518D01*
Y1115062D01*
X850900Y1104905D02*
X866135D01*
X850900Y1094748D01*
X866135D01*
Y1089670D02*
X850900D01*
Y1082052D01*
X853439Y1079513D01*
X863596D01*
X866135Y1082052D01*
Y1089670D01*
X888995Y1109983D02*
Y1120140D01*
X881377D01*
X883917Y1115062D01*
Y1112523D01*
X881377Y1109983D01*
X876299D01*
X873760Y1112523D01*
Y1117601D01*
X876299Y1120140D01*
X888995Y1104905D02*
X878838D01*
X873760Y1099827D01*
X878838Y1094748D01*
X888995D01*
X1178560Y1592578D02*
X1188717D01*
X1183638Y1597656D02*
Y1587499D01*
X1193795Y1584960D02*
X1198873D01*
X1196334D01*
Y1600195D01*
X1193795Y1597656D01*
X1216648Y1584960D02*
X1206491D01*
X1216648Y1595117D01*
Y1597656D01*
X1214109Y1600195D01*
X1209030D01*
X1206491Y1597656D01*
X1221726Y1600195D02*
Y1590038D01*
X1226804Y1584960D01*
X1231883Y1590038D01*
Y1600195D01*
X1193797Y1777996D02*
X1191257Y1780535D01*
X1186179D01*
X1183640Y1777996D01*
Y1767839D01*
X1186179Y1765300D01*
X1191257D01*
X1193797Y1767839D01*
Y1772917D01*
X1188718D01*
X1198875Y1765300D02*
Y1780535D01*
X1209032Y1765300D01*
Y1780535D01*
X1214110D02*
Y1765300D01*
X1221728D01*
X1224267Y1767839D01*
Y1777996D01*
X1221728Y1780535D01*
X1214110D01*
X1181100Y1727198D02*
X1191257D01*
X1186178Y1732276D02*
Y1722119D01*
X1206492Y1734815D02*
X1196335D01*
Y1727198D01*
X1201413Y1729737D01*
X1203953D01*
X1206492Y1727198D01*
Y1722119D01*
X1203953Y1719580D01*
X1198874D01*
X1196335Y1722119D01*
X1211570Y1734815D02*
Y1724658D01*
X1216648Y1719580D01*
X1221727Y1724658D01*
Y1734815D01*
X1165864Y50797D02*
X1163325Y48257D01*
Y43179D01*
X1165864Y40640D01*
X1176021D01*
X1178560Y43179D01*
Y48257D01*
X1176021Y50797D01*
X1170943D01*
Y45718D01*
X1165864Y66032D02*
X1163325Y63493D01*
Y58414D01*
X1165864Y55875D01*
X1168403D01*
X1170943Y58414D01*
Y63493D01*
X1173482Y66032D01*
X1176021D01*
X1178560Y63493D01*
Y58414D01*
X1176021Y55875D01*
X1178560Y71110D02*
X1163325D01*
Y78728D01*
X1165864Y81267D01*
X1170943D01*
X1173482Y78728D01*
Y71110D01*
Y76189D02*
X1178560Y81267D01*
Y86345D02*
X1168403Y96502D01*
X1165864Y111737D02*
X1163325Y109198D01*
Y104120D01*
X1165864Y101580D01*
X1168403D01*
X1170943Y104120D01*
Y109198D01*
X1173482Y111737D01*
X1176021D01*
X1178560Y109198D01*
Y104120D01*
X1176021Y101580D01*
X1163325Y116815D02*
Y126972D01*
Y121894D01*
X1178560D01*
X1163325Y132050D02*
Y137129D01*
Y134590D01*
X1178560D01*
Y132050D01*
Y137129D01*
Y144746D02*
X1163325D01*
X1168403Y149825D01*
X1163325Y154903D01*
X1178560D01*
X1163325Y159981D02*
X1176021D01*
X1178560Y162521D01*
Y167599D01*
X1176021Y170138D01*
X1163325D01*
Y198069D02*
Y192991D01*
X1165864Y190452D01*
X1176021D01*
X1178560Y192991D01*
Y198069D01*
X1176021Y200608D01*
X1165864D01*
X1163325Y198069D01*
Y205687D02*
X1176021D01*
X1178560Y208226D01*
Y213304D01*
X1176021Y215843D01*
X1163325D01*
Y220922D02*
Y231078D01*
Y226000D01*
X1178560D01*
X1343664Y370837D02*
X1341125Y368298D01*
Y363219D01*
X1343664Y360680D01*
X1353821D01*
X1356360Y363219D01*
Y368298D01*
X1353821Y370837D01*
X1348743D01*
Y365758D01*
X1343664Y386072D02*
X1341125Y383533D01*
Y378454D01*
X1343664Y375915D01*
X1346203D01*
X1348743Y378454D01*
Y383533D01*
X1351282Y386072D01*
X1353821D01*
X1356360Y383533D01*
Y378454D01*
X1353821Y375915D01*
X1356360Y391150D02*
X1341125D01*
Y398768D01*
X1343664Y401307D01*
X1348743D01*
X1351282Y398768D01*
Y391150D01*
Y396228D02*
X1356360Y401307D01*
X1341125Y421620D02*
Y426699D01*
Y424160D01*
X1356360D01*
Y421620D01*
Y426699D01*
Y434316D02*
X1341125D01*
X1356360Y444473D01*
X1341125D01*
X801370Y764540D02*
X791213Y754383D01*
X801370Y744227D01*
X784442D02*
X770900D01*
X777671D01*
Y764540D01*
X750586Y744227D02*
X764129D01*
Y764540D01*
X750586D01*
X764129Y754383D02*
X757358D01*
X730273Y744227D02*
X743815D01*
Y764540D01*
X730273D01*
X743815Y754383D02*
X737044D01*
X723502Y764540D02*
Y744227D01*
X709960Y764540D01*
Y744227D01*
X689646Y747612D02*
X693032Y744227D01*
X699803D01*
X703188Y747612D01*
Y750998D01*
X699803Y754383D01*
X693032D01*
X689646Y757769D01*
Y761154D01*
X693032Y764540D01*
X699803D01*
X703188Y761154D01*
X682875Y744227D02*
Y747612D01*
X676104Y754383D01*
X669333Y747612D01*
Y744227D01*
X676104Y754383D02*
Y764540D01*
X286938Y938297D02*
X276942D01*
Y943296D01*
X278608Y944962D01*
X281940D01*
X283606Y943296D01*
Y938297D01*
Y941629D02*
X286938Y944962D01*
Y953292D02*
X276942D01*
X281940Y948294D01*
Y954958D01*
X286938Y958291D02*
Y961623D01*
Y959957D01*
X276942D01*
X278608Y958291D01*
X340278Y936631D02*
X330282D01*
Y941629D01*
X331948Y943296D01*
X335280D01*
X336946Y941629D01*
Y936631D01*
Y939963D02*
X340278Y943296D01*
Y951626D02*
X330282D01*
X335280Y946628D01*
Y953292D01*
X331948Y956625D02*
X330282Y958291D01*
Y961623D01*
X331948Y963289D01*
X338612D01*
X340278Y961623D01*
Y958291D01*
X338612Y956625D01*
X331948D01*
X391078Y936631D02*
X381082D01*
Y941629D01*
X382748Y943296D01*
X386080D01*
X387746Y941629D01*
Y936631D01*
Y939963D02*
X391078Y943296D01*
X382748Y946628D02*
X381082Y948294D01*
Y951626D01*
X382748Y953292D01*
X384414D01*
X386080Y951626D01*
Y949960D01*
Y951626D01*
X387746Y953292D01*
X389412D01*
X391078Y951626D01*
Y948294D01*
X389412Y946628D01*
Y956625D02*
X391078Y958291D01*
Y961623D01*
X389412Y963289D01*
X382748D01*
X381082Y961623D01*
Y958291D01*
X382748Y956625D01*
X384414D01*
X386080Y958291D01*
Y963289D01*
X297942Y1049523D02*
Y1034288D01*
X305560D01*
X308099Y1036827D01*
Y1046984D01*
X305560Y1049523D01*
X297942D01*
X323334D02*
X313177D01*
Y1041906D01*
X318255Y1044445D01*
X320795D01*
X323334Y1041906D01*
Y1036827D01*
X320795Y1034288D01*
X315716D01*
X313177Y1036827D01*
X351282Y1052063D02*
Y1036828D01*
X358899D01*
X361439Y1039367D01*
Y1049524D01*
X358899Y1052063D01*
X351282D01*
X374135Y1036828D02*
Y1052063D01*
X366517Y1044445D01*
X376674D01*
X402082Y1052063D02*
Y1036828D01*
X409700D01*
X412239Y1039367D01*
Y1049524D01*
X409700Y1052063D01*
X402082D01*
X417317Y1049524D02*
X419856Y1052063D01*
X424935D01*
X427474Y1049524D01*
Y1046985D01*
X424935Y1044445D01*
X422395D01*
X424935D01*
X427474Y1041906D01*
Y1039367D01*
X424935Y1036828D01*
X419856D01*
X417317Y1039367D01*
X1432303Y1132835D02*
X1427224D01*
X1429763D01*
Y1120139D01*
X1427224Y1117600D01*
X1424685D01*
X1422146Y1120139D01*
X1447538Y1117600D02*
X1437381D01*
X1447538Y1127757D01*
Y1130296D01*
X1444999Y1132835D01*
X1439920D01*
X1437381Y1130296D01*
X1452616D02*
X1455155Y1132835D01*
X1460234D01*
X1462773Y1130296D01*
Y1127757D01*
X1460234Y1125218D01*
X1457695D01*
X1460234D01*
X1462773Y1122678D01*
Y1120139D01*
X1460234Y1117600D01*
X1455155D01*
X1452616Y1120139D01*
X1264918Y1201427D02*
X1249682D01*
Y1209044D01*
X1252222Y1211583D01*
X1257300D01*
X1259839Y1209044D01*
Y1201427D01*
Y1206505D02*
X1264918Y1211583D01*
X1252222Y1216662D02*
X1249682Y1219201D01*
Y1224279D01*
X1252222Y1226818D01*
X1254761D01*
X1257300Y1224279D01*
Y1221740D01*
Y1224279D01*
X1259839Y1226818D01*
X1262378D01*
X1264918Y1224279D01*
Y1219201D01*
X1262378Y1216662D01*
X1264918Y1239514D02*
X1249682D01*
X1257300Y1231897D01*
Y1242053D01*
X1252227Y1303022D02*
Y1318257D01*
X1259844D01*
X1262383Y1315718D01*
Y1310640D01*
X1259844Y1308101D01*
X1252227D01*
X1257305D02*
X1262383Y1303022D01*
X1267462Y1315718D02*
X1270001Y1318257D01*
X1275079D01*
X1277618Y1315718D01*
Y1313179D01*
X1275079Y1310640D01*
X1272540D01*
X1275079D01*
X1277618Y1308101D01*
Y1305562D01*
X1275079Y1303022D01*
X1270001D01*
X1267462Y1305562D01*
X1292853Y1303022D02*
X1282697D01*
X1292853Y1313179D01*
Y1315718D01*
X1290314Y1318257D01*
X1285236D01*
X1282697Y1315718D01*
X1336545Y1280159D02*
Y1290316D01*
X1334005Y1292855D01*
X1328927D01*
X1326388Y1290316D01*
Y1280159D01*
X1328927Y1277620D01*
X1334005D01*
X1331466Y1282698D02*
X1336545Y1277620D01*
X1334005D02*
X1336545Y1280159D01*
X1351780Y1292855D02*
X1341623D01*
Y1285237D01*
X1346701Y1287777D01*
X1349241D01*
X1351780Y1285237D01*
Y1280159D01*
X1349241Y1277620D01*
X1344162D01*
X1341623Y1280159D01*
X1336041Y1209042D02*
Y1219198D01*
X1333502Y1221738D01*
X1328423D01*
X1325884Y1219198D01*
Y1209042D01*
X1328423Y1206503D01*
X1333502D01*
X1330963Y1211581D02*
X1336041Y1206503D01*
X1333502D02*
X1336041Y1209042D01*
X1348737Y1206503D02*
Y1221738D01*
X1341119Y1214120D01*
X1351276D01*
X1310643Y1381758D02*
X1305565D01*
X1308104D01*
Y1369062D01*
X1305565Y1366523D01*
X1303026D01*
X1300487Y1369062D01*
X1325878Y1366523D02*
X1315722D01*
X1325878Y1376679D01*
Y1379218D01*
X1323339Y1381758D01*
X1318261D01*
X1315722Y1379218D01*
X1341113Y1366523D02*
X1330957D01*
X1341113Y1376679D01*
Y1379218D01*
X1338574Y1381758D01*
X1333496D01*
X1330957Y1379218D01*
X1379471Y1256788D02*
X1376931Y1259327D01*
X1371853D01*
X1369314Y1256788D01*
Y1246631D01*
X1371853Y1244092D01*
X1376931D01*
X1379471Y1246631D01*
X1384549Y1256788D02*
X1387088Y1259327D01*
X1392167D01*
X1394706Y1256788D01*
Y1254249D01*
X1392167Y1251710D01*
X1389627D01*
X1392167D01*
X1394706Y1249170D01*
Y1246631D01*
X1392167Y1244092D01*
X1387088D01*
X1384549Y1246631D01*
X1293873Y1293110D02*
X1291333Y1295649D01*
X1286255D01*
X1283716Y1293110D01*
Y1282953D01*
X1286255Y1280414D01*
X1291333D01*
X1293873Y1282953D01*
X1309108Y1280414D02*
X1298951D01*
X1309108Y1290571D01*
Y1293110D01*
X1306569Y1295649D01*
X1301490D01*
X1298951Y1293110D01*
X1653537Y1802634D02*
X1650997Y1805173D01*
X1645919D01*
X1643380Y1802634D01*
Y1800095D01*
X1645919Y1797556D01*
X1650997D01*
X1653537Y1795016D01*
Y1792477D01*
X1650997Y1789938D01*
X1645919D01*
X1643380Y1792477D01*
X1658615Y1789938D02*
Y1805173D01*
X1666233D01*
X1668772Y1802634D01*
Y1797556D01*
X1666233Y1795016D01*
X1658615D01*
X1673850Y1789938D02*
X1678929D01*
X1676389D01*
Y1805173D01*
X1673850Y1802634D01*
X1064511Y208275D02*
X1059432D01*
X1061972D01*
Y195579D01*
X1059432Y193040D01*
X1056893D01*
X1054354Y195579D01*
X1079746Y193040D02*
X1069589D01*
X1079746Y203197D01*
Y205736D01*
X1077207Y208275D01*
X1072128D01*
X1069589Y205736D01*
X1084824Y193040D02*
X1089902D01*
X1087363D01*
Y208275D01*
X1084824Y205736D01*
X1196343Y419098D02*
X1191265D01*
X1193804D01*
Y406402D01*
X1191265Y403862D01*
X1188726D01*
X1186187Y406402D01*
X1211578Y403862D02*
X1201422D01*
X1211578Y414019D01*
Y416558D01*
X1209039Y419098D01*
X1203961D01*
X1201422Y416558D01*
X1216657D02*
X1219196Y419098D01*
X1224274D01*
X1226813Y416558D01*
Y406402D01*
X1224274Y403862D01*
X1219196D01*
X1216657Y406402D01*
Y416558D01*
X464826Y332743D02*
Y347977D01*
X472443D01*
X474982Y345438D01*
Y340360D01*
X472443Y337821D01*
X464826D01*
X469904D02*
X474982Y332743D01*
X480061Y345438D02*
X482600Y347977D01*
X487678D01*
X490218Y345438D01*
Y342899D01*
X487678Y340360D01*
X485139D01*
X487678D01*
X490218Y337821D01*
Y335282D01*
X487678Y332743D01*
X482600D01*
X480061Y335282D01*
X495296Y332743D02*
X500374D01*
X497835D01*
Y347977D01*
X495296Y345438D01*
X393693Y462277D02*
Y447042D01*
X386076D01*
X383537Y449582D01*
Y454660D01*
X386076Y457199D01*
X393693D01*
X388615D02*
X383537Y462277D01*
X378458Y449582D02*
X375919Y447042D01*
X370841D01*
X368302Y449582D01*
Y452121D01*
X370841Y454660D01*
X373380D01*
X370841D01*
X368302Y457199D01*
Y459738D01*
X370841Y462277D01*
X375919D01*
X378458Y459738D01*
X363223Y449582D02*
X360684Y447042D01*
X355606D01*
X353067Y449582D01*
Y459738D01*
X355606Y462277D01*
X360684D01*
X363223Y459738D01*
Y449582D01*
X464824Y426717D02*
Y411483D01*
X472442D01*
X474981Y414022D01*
Y424178D01*
X472442Y426717D01*
X464824D01*
X490216Y411483D02*
X480059D01*
X490216Y421639D01*
Y424178D01*
X487677Y426717D01*
X482598D01*
X480059Y424178D01*
X424183Y528317D02*
Y513083D01*
X431801D01*
X434340Y515622D01*
Y525778D01*
X431801Y528317D01*
X424183D01*
X439418Y513083D02*
X444497D01*
X441958D01*
Y528317D01*
X439418Y525778D01*
X1126496Y622298D02*
Y609602D01*
X1129035Y607062D01*
X1134114D01*
X1136653Y609602D01*
Y622298D01*
X1141731Y607062D02*
X1146810D01*
X1144270D01*
Y622298D01*
X1141731Y619758D01*
X1162045Y607062D02*
Y622298D01*
X1154427Y614680D01*
X1164584D01*
X1064514Y528828D02*
Y544063D01*
X1072132D01*
X1074671Y541524D01*
Y536446D01*
X1072132Y533906D01*
X1064514D01*
X1069592D02*
X1074671Y528828D01*
X1089906D02*
X1079749D01*
X1089906Y538985D01*
Y541524D01*
X1087367Y544063D01*
X1082288D01*
X1079749Y541524D01*
X1094984Y531367D02*
X1097523Y528828D01*
X1102602D01*
X1105141Y531367D01*
Y541524D01*
X1102602Y544063D01*
X1097523D01*
X1094984Y541524D01*
Y538985D01*
X1097523Y536446D01*
X1105141D01*
X1221747Y495303D02*
Y510537D01*
X1229364D01*
X1231903Y507998D01*
Y502920D01*
X1229364Y500381D01*
X1221747D01*
X1226825D02*
X1231903Y495303D01*
X1247138D02*
X1236982D01*
X1247138Y505459D01*
Y507998D01*
X1244599Y510537D01*
X1239521D01*
X1236982Y507998D01*
X1252217D02*
X1254756Y510537D01*
X1259834D01*
X1262373Y507998D01*
Y505459D01*
X1259834Y502920D01*
X1262373Y500381D01*
Y497842D01*
X1259834Y495303D01*
X1254756D01*
X1252217Y497842D01*
Y500381D01*
X1254756Y502920D01*
X1252217Y505459D01*
Y507998D01*
X1254756Y502920D02*
X1259834D01*
X1220470Y587248D02*
Y602483D01*
X1228087D01*
X1230627Y599944D01*
Y594865D01*
X1228087Y592326D01*
X1220470D01*
X1225548D02*
X1230627Y587248D01*
X1245862D02*
X1235705D01*
X1245862Y597405D01*
Y599944D01*
X1243323Y602483D01*
X1238244D01*
X1235705Y599944D01*
X1250940Y602483D02*
X1261097D01*
Y599944D01*
X1250940Y589787D01*
Y587248D01*
X1061974Y605028D02*
Y620263D01*
X1069592D01*
X1072131Y617724D01*
Y612645D01*
X1069592Y610106D01*
X1061974D01*
X1067052D02*
X1072131Y605028D01*
X1087366D02*
X1077209D01*
X1087366Y615185D01*
Y617724D01*
X1084827Y620263D01*
X1079748D01*
X1077209Y617724D01*
X1102601Y620263D02*
X1097523Y617724D01*
X1092444Y612645D01*
Y607567D01*
X1094983Y605028D01*
X1100062D01*
X1102601Y607567D01*
Y610106D01*
X1100062Y612645D01*
X1092444D01*
X1618488Y812287D02*
Y797052D01*
X1628645D01*
X1633723D02*
X1638801D01*
X1636262D01*
Y812287D01*
X1633723Y809748D01*
X1089911Y1681475D02*
X1084832D01*
X1087372D01*
Y1668779D01*
X1084832Y1666240D01*
X1082293D01*
X1079754Y1668779D01*
X1094989Y1666240D02*
X1100067D01*
X1097528D01*
Y1681475D01*
X1094989Y1678936D01*
X1107685Y1668779D02*
X1110224Y1666240D01*
X1115303D01*
X1117842Y1668779D01*
Y1678936D01*
X1115303Y1681475D01*
X1110224D01*
X1107685Y1678936D01*
Y1676397D01*
X1110224Y1673858D01*
X1117842D01*
X1089911Y1817365D02*
X1084832D01*
X1087372D01*
Y1804669D01*
X1084832Y1802130D01*
X1082293D01*
X1079754Y1804669D01*
X1094989Y1802130D02*
X1100067D01*
X1097528D01*
Y1817365D01*
X1094989Y1814826D01*
X1107685D02*
X1110224Y1817365D01*
X1115303D01*
X1117842Y1814826D01*
Y1812287D01*
X1115303Y1809747D01*
X1117842Y1807208D01*
Y1804669D01*
X1115303Y1802130D01*
X1110224D01*
X1107685Y1804669D01*
Y1807208D01*
X1110224Y1809747D01*
X1107685Y1812287D01*
Y1814826D01*
X1110224Y1809747D02*
X1115303D01*
X906269Y1106165D02*
X901190D01*
X903729D01*
Y1093469D01*
X901190Y1090930D01*
X898651D01*
X896112Y1093469D01*
X911347Y1090930D02*
X916425D01*
X913886D01*
Y1106165D01*
X911347Y1103626D01*
X924043Y1106165D02*
X934200D01*
Y1103626D01*
X924043Y1093469D01*
Y1090930D01*
X1134116Y761998D02*
Y749302D01*
X1136655Y746762D01*
X1141734D01*
X1144273Y749302D01*
Y761998D01*
X1149351Y746762D02*
X1154430D01*
X1151890D01*
Y761998D01*
X1149351Y759458D01*
X1162047D02*
X1164586Y761998D01*
X1169665D01*
X1172204Y759458D01*
Y756919D01*
X1169665Y754380D01*
X1167125D01*
X1169665D01*
X1172204Y751841D01*
Y749302D01*
X1169665Y746762D01*
X1164586D01*
X1162047Y749302D01*
X1139195Y888997D02*
Y876302D01*
X1141734Y873763D01*
X1146813D01*
X1149352Y876302D01*
Y888997D01*
X1154430Y873763D02*
X1159509D01*
X1156970D01*
Y888997D01*
X1154430Y886458D01*
X1167126Y873763D02*
X1172205D01*
X1169666D01*
Y888997D01*
X1167126Y886458D01*
X1064514Y668528D02*
Y683763D01*
X1072132D01*
X1074671Y681224D01*
Y676145D01*
X1072132Y673606D01*
X1064514D01*
X1069592D02*
X1074671Y668528D01*
X1089906D02*
X1079749D01*
X1089906Y678685D01*
Y681224D01*
X1087367Y683763D01*
X1082288D01*
X1079749Y681224D01*
X1105141Y683763D02*
X1094984D01*
Y676145D01*
X1100062Y678685D01*
X1102602D01*
X1105141Y676145D01*
Y671067D01*
X1102602Y668528D01*
X1097523D01*
X1094984Y671067D01*
X1064514Y744728D02*
Y759963D01*
X1072132D01*
X1074671Y757424D01*
Y752346D01*
X1072132Y749806D01*
X1064514D01*
X1069592D02*
X1074671Y744728D01*
X1089906D02*
X1079749D01*
X1089906Y754885D01*
Y757424D01*
X1087367Y759963D01*
X1082288D01*
X1079749Y757424D01*
X1102602Y744728D02*
Y759963D01*
X1094984Y752346D01*
X1105141D01*
X1064514Y798068D02*
Y813303D01*
X1072132D01*
X1074671Y810764D01*
Y805686D01*
X1072132Y803146D01*
X1064514D01*
X1069592D02*
X1074671Y798068D01*
X1089906D02*
X1079749D01*
X1089906Y808225D01*
Y810764D01*
X1087367Y813303D01*
X1082288D01*
X1079749Y810764D01*
X1094984D02*
X1097523Y813303D01*
X1102602D01*
X1105141Y810764D01*
Y808225D01*
X1102602Y805686D01*
X1100062D01*
X1102602D01*
X1105141Y803146D01*
Y800607D01*
X1102602Y798068D01*
X1097523D01*
X1094984Y800607D01*
X1061974Y874268D02*
Y889503D01*
X1069592D01*
X1072131Y886964D01*
Y881886D01*
X1069592Y879346D01*
X1061974D01*
X1067052D02*
X1072131Y874268D01*
X1087366D02*
X1077209D01*
X1087366Y884425D01*
Y886964D01*
X1084827Y889503D01*
X1079748D01*
X1077209Y886964D01*
X1102601Y874268D02*
X1092444D01*
X1102601Y884425D01*
Y886964D01*
X1100062Y889503D01*
X1094983D01*
X1092444Y886964D01*
X1064514Y925068D02*
Y940303D01*
X1072132D01*
X1074671Y937764D01*
Y932685D01*
X1072132Y930146D01*
X1064514D01*
X1069592D02*
X1074671Y925068D01*
X1089906D02*
X1079749D01*
X1089906Y935225D01*
Y937764D01*
X1087367Y940303D01*
X1082288D01*
X1079749Y937764D01*
X1094984Y925068D02*
X1100062D01*
X1097523D01*
Y940303D01*
X1094984Y937764D01*
X1064514Y1001268D02*
Y1016503D01*
X1072132D01*
X1074671Y1013964D01*
Y1008885D01*
X1072132Y1006346D01*
X1064514D01*
X1069592D02*
X1074671Y1001268D01*
X1089906D02*
X1079749D01*
X1089906Y1011425D01*
Y1013964D01*
X1087367Y1016503D01*
X1082288D01*
X1079749Y1013964D01*
X1094984D02*
X1097523Y1016503D01*
X1102602D01*
X1105141Y1013964D01*
Y1003807D01*
X1102602Y1001268D01*
X1097523D01*
X1094984Y1003807D01*
Y1013964D01*
X1064514Y1049528D02*
Y1064763D01*
X1072132D01*
X1074671Y1062224D01*
Y1057145D01*
X1072132Y1054606D01*
X1064514D01*
X1069592D02*
X1074671Y1049528D01*
X1079749D02*
X1084827D01*
X1082288D01*
Y1064763D01*
X1079749Y1062224D01*
X1092445Y1052067D02*
X1094984Y1049528D01*
X1100062D01*
X1102602Y1052067D01*
Y1062224D01*
X1100062Y1064763D01*
X1094984D01*
X1092445Y1062224D01*
Y1059685D01*
X1094984Y1057145D01*
X1102602D01*
X1064514Y1125728D02*
Y1140963D01*
X1072132D01*
X1074671Y1138424D01*
Y1133345D01*
X1072132Y1130806D01*
X1064514D01*
X1069592D02*
X1074671Y1125728D01*
X1079749D02*
X1084827D01*
X1082288D01*
Y1140963D01*
X1079749Y1138424D01*
X1092445D02*
X1094984Y1140963D01*
X1100062D01*
X1102602Y1138424D01*
Y1135885D01*
X1100062Y1133345D01*
X1102602Y1130806D01*
Y1128267D01*
X1100062Y1125728D01*
X1094984D01*
X1092445Y1128267D01*
Y1130806D01*
X1094984Y1133345D01*
X1092445Y1135885D01*
Y1138424D01*
X1094984Y1133345D02*
X1100062D01*
X1145544Y1013457D02*
Y1000762D01*
X1148083Y998223D01*
X1153162D01*
X1155701Y1000762D01*
Y1013457D01*
X1160779Y1000762D02*
X1163318Y998223D01*
X1168397D01*
X1170936Y1000762D01*
Y1010918D01*
X1168397Y1013457D01*
X1163318D01*
X1160779Y1010918D01*
Y1008379D01*
X1163318Y1005840D01*
X1170936D01*
X1148083Y1135378D02*
Y1122682D01*
X1150622Y1120143D01*
X1155701D01*
X1158240Y1122682D01*
Y1135378D01*
X1163318Y1120143D02*
X1168397D01*
X1165858D01*
Y1135378D01*
X1163318Y1132838D01*
X1261869Y1042157D02*
X1256790D01*
X1259330D01*
Y1029461D01*
X1256790Y1026922D01*
X1254251D01*
X1251712Y1029461D01*
X1266947Y1026922D02*
X1272025D01*
X1269486D01*
Y1042157D01*
X1266947Y1039618D01*
X1289800Y1042157D02*
X1284721Y1039618D01*
X1279643Y1034539D01*
Y1029461D01*
X1282182Y1026922D01*
X1287260D01*
X1289800Y1029461D01*
Y1032000D01*
X1287260Y1034539D01*
X1279643D01*
X116078Y1821688D02*
Y1836923D01*
X121156Y1831845D01*
X126235Y1836923D01*
Y1821688D01*
X141470D02*
X131313D01*
X141470Y1831845D01*
Y1834384D01*
X138931Y1836923D01*
X133852D01*
X131313Y1834384D01*
X596906Y81283D02*
Y96517D01*
X604524D01*
X607063Y93978D01*
Y88900D01*
X604524Y86361D01*
X596906D01*
X601984D02*
X607063Y81283D01*
X612141D02*
X617220D01*
X614680D01*
Y96517D01*
X612141Y93978D01*
X624837Y96517D02*
X634994D01*
Y93978D01*
X624837Y83822D01*
Y81283D01*
X598424Y164592D02*
Y179827D01*
X606041D01*
X608581Y177288D01*
Y172209D01*
X606041Y169670D01*
X598424D01*
X603502D02*
X608581Y164592D01*
X613659D02*
X618737D01*
X616198D01*
Y179827D01*
X613659Y177288D01*
X636512Y179827D02*
X631433Y177288D01*
X626355Y172209D01*
Y167131D01*
X628894Y164592D01*
X633973D01*
X636512Y167131D01*
Y169670D01*
X633973Y172209D01*
X626355D01*
X902973Y962657D02*
X897895D01*
X900434D01*
Y949962D01*
X897895Y947422D01*
X895355D01*
X892816Y949962D01*
X908051Y947422D02*
X913130D01*
X910590D01*
Y962657D01*
X908051Y960118D01*
X930904Y947422D02*
X920747D01*
X930904Y957579D01*
Y960118D01*
X928365Y962657D01*
X923286D01*
X920747Y960118D01*
X590554Y1084583D02*
Y1094739D01*
X595633Y1099818D01*
X600711Y1094739D01*
Y1084583D01*
Y1092200D01*
X590554D01*
X613407Y1084583D02*
Y1099818D01*
X605789Y1092200D01*
X615946D01*
X295910Y873760D02*
Y883917D01*
X300988Y888995D01*
X306067Y883917D01*
Y873760D01*
Y881377D01*
X295910D01*
X311145Y886456D02*
X313684Y888995D01*
X318763D01*
X321302Y886456D01*
Y883917D01*
X318763Y881377D01*
X316223D01*
X318763D01*
X321302Y878838D01*
Y876299D01*
X318763Y873760D01*
X313684D01*
X311145Y876299D01*
X795274Y945388D02*
Y960623D01*
X802891D01*
X805431Y958084D01*
Y953006D01*
X802891Y950466D01*
X795274D01*
X800352D02*
X805431Y945388D01*
X810509D02*
X815587D01*
X813048D01*
Y960623D01*
X810509Y958084D01*
X823205D02*
X825744Y960623D01*
X830823D01*
X833362Y958084D01*
Y947927D01*
X830823Y945388D01*
X825744D01*
X823205Y947927D01*
Y958084D01*
X520951Y362453D02*
X515872D01*
X518411D01*
Y349757D01*
X515872Y347218D01*
X513333D01*
X510794Y349757D01*
X526029Y347218D02*
X531107D01*
X528568D01*
Y362453D01*
X526029Y359914D01*
X538725Y347218D02*
X543803D01*
X541264D01*
Y362453D01*
X538725Y359914D01*
X522221Y1099053D02*
X517142D01*
X519682D01*
Y1086357D01*
X517142Y1083818D01*
X514603D01*
X512064Y1086357D01*
X527299Y1083818D02*
X532377D01*
X529838D01*
Y1099053D01*
X527299Y1096514D01*
X539995D02*
X542534Y1099053D01*
X547612D01*
X550152Y1096514D01*
Y1086357D01*
X547612Y1083818D01*
X542534D01*
X539995Y1086357D01*
Y1096514D01*
X522221Y965703D02*
X517142D01*
X519682D01*
Y953007D01*
X517142Y950468D01*
X514603D01*
X512064Y953007D01*
X527299D02*
X529838Y950468D01*
X534917D01*
X537456Y953007D01*
Y963164D01*
X534917Y965703D01*
X529838D01*
X527299Y963164D01*
Y960625D01*
X529838Y958085D01*
X537456D01*
X305051Y737103D02*
X299972D01*
X302512D01*
Y724407D01*
X299972Y721868D01*
X297433D01*
X294894Y724407D01*
X310129Y734564D02*
X312668Y737103D01*
X317747D01*
X320286Y734564D01*
Y732025D01*
X317747Y729485D01*
X320286Y726946D01*
Y724407D01*
X317747Y721868D01*
X312668D01*
X310129Y724407D01*
Y726946D01*
X312668Y729485D01*
X310129Y732025D01*
Y734564D01*
X312668Y729485D02*
X317747D01*
X346711Y890267D02*
X341632D01*
X344172D01*
Y877572D01*
X341632Y875033D01*
X339093D01*
X336554Y877572D01*
X351789Y890267D02*
X361946D01*
Y887728D01*
X351789Y877572D01*
Y875033D01*
X439674Y113792D02*
Y129027D01*
X447291D01*
X449831Y126488D01*
Y121410D01*
X447291Y118870D01*
X439674D01*
X444752D02*
X449831Y113792D01*
X454909Y116331D02*
X457448Y113792D01*
X462527D01*
X465066Y116331D01*
Y126488D01*
X462527Y129027D01*
X457448D01*
X454909Y126488D01*
Y123949D01*
X457448Y121410D01*
X465066D01*
X439674Y189992D02*
Y205227D01*
X447291D01*
X449831Y202688D01*
Y197610D01*
X447291Y195070D01*
X439674D01*
X444752D02*
X449831Y189992D01*
X454909Y202688D02*
X457448Y205227D01*
X462527D01*
X465066Y202688D01*
Y200149D01*
X462527Y197610D01*
X465066Y195070D01*
Y192531D01*
X462527Y189992D01*
X457448D01*
X454909Y192531D01*
Y195070D01*
X457448Y197610D01*
X454909Y200149D01*
Y202688D01*
X457448Y197610D02*
X462527D01*
X960124Y363223D02*
Y378457D01*
X967742D01*
X970281Y375918D01*
Y370840D01*
X967742Y368301D01*
X960124D01*
X965202D02*
X970281Y363223D01*
X985516Y378457D02*
X980437Y375918D01*
X975359Y370840D01*
Y365762D01*
X977898Y363223D01*
X982977D01*
X985516Y365762D01*
Y368301D01*
X982977Y370840D01*
X975359D01*
X914404Y361953D02*
Y377188D01*
X922022D01*
X924561Y374648D01*
Y369570D01*
X922022Y367031D01*
X914404D01*
X919482D02*
X924561Y361953D01*
X939796Y377188D02*
X929639D01*
Y369570D01*
X934717Y372109D01*
X937257D01*
X939796Y369570D01*
Y364492D01*
X937257Y361953D01*
X932178D01*
X929639Y364492D01*
X804672Y362966D02*
Y378201D01*
X812290D01*
X814829Y375662D01*
Y370583D01*
X812290Y368044D01*
X804672D01*
X809750D02*
X814829Y362966D01*
X827525D02*
Y378201D01*
X819907Y370583D01*
X830064D01*
X1014727Y367283D02*
Y377440D01*
X1012188Y379979D01*
X1007109D01*
X1004570Y377440D01*
Y367283D01*
X1007109Y364744D01*
X1012188D01*
X1009648Y369822D02*
X1014727Y364744D01*
X1012188D02*
X1014727Y367283D01*
X1029962Y364744D02*
X1019805D01*
X1029962Y374901D01*
Y377440D01*
X1027423Y379979D01*
X1022344D01*
X1019805Y377440D01*
X1019553Y190749D02*
X1014474D01*
X1017013D01*
Y178053D01*
X1014474Y175514D01*
X1011935D01*
X1009396Y178053D01*
X1034788Y190749D02*
X1029709Y188210D01*
X1024631Y183132D01*
Y178053D01*
X1027170Y175514D01*
X1032249D01*
X1034788Y178053D01*
Y180592D01*
X1032249Y183132D01*
X1024631D01*
X1225556Y210818D02*
Y198122D01*
X1228095Y195583D01*
X1233174D01*
X1235713Y198122D01*
Y210818D01*
X1240791Y195583D02*
X1245870D01*
X1243330D01*
Y210818D01*
X1240791Y208278D01*
X1263644Y195583D02*
X1253487D01*
X1263644Y205739D01*
Y208278D01*
X1261105Y210818D01*
X1256026D01*
X1253487Y208278D01*
X1058672Y365506D02*
Y380741D01*
X1066290D01*
X1068829Y378202D01*
Y373124D01*
X1066290Y370584D01*
X1058672D01*
X1063750D02*
X1068829Y365506D01*
X1073907Y378202D02*
X1076446Y380741D01*
X1081525D01*
X1084064Y378202D01*
Y375663D01*
X1081525Y373124D01*
X1078985D01*
X1081525D01*
X1084064Y370584D01*
Y368045D01*
X1081525Y365506D01*
X1076446D01*
X1073907Y368045D01*
X1198372Y364236D02*
Y379471D01*
X1205990D01*
X1208529Y376932D01*
Y371853D01*
X1205990Y369314D01*
X1198372D01*
X1203450D02*
X1208529Y364236D01*
X1223764D02*
X1213607D01*
X1223764Y374393D01*
Y376932D01*
X1221225Y379471D01*
X1216146D01*
X1213607Y376932D01*
X1089663Y365762D02*
Y380998D01*
X1097281D01*
X1099820Y378458D01*
Y373380D01*
X1097281Y370841D01*
X1089663D01*
X1094742D02*
X1099820Y365762D01*
X1104898D02*
X1109977D01*
X1107438D01*
Y380998D01*
X1104898Y378458D01*
X1139949Y367283D02*
Y377440D01*
X1137410Y379979D01*
X1132331D01*
X1129792Y377440D01*
Y367283D01*
X1132331Y364744D01*
X1137410D01*
X1134870Y369822D02*
X1139949Y364744D01*
X1137410D02*
X1139949Y367283D01*
X1145027Y364744D02*
X1150105D01*
X1147566D01*
Y379979D01*
X1145027Y377440D01*
X496570Y207767D02*
Y195071D01*
X499109Y192532D01*
X504188D01*
X506727Y195071D01*
Y207767D01*
X511805Y192532D02*
X516883D01*
X514344D01*
Y207767D01*
X511805Y205228D01*
X524501D02*
X527040Y207767D01*
X532118D01*
X534658Y205228D01*
Y195071D01*
X532118Y192532D01*
X527040D01*
X524501Y195071D01*
Y205228D01*
X1320801Y342897D02*
X1315723D01*
X1318262D01*
Y330202D01*
X1315723Y327663D01*
X1313183D01*
X1310644Y330202D01*
X1336036Y342897D02*
X1325879D01*
Y335280D01*
X1330957Y337819D01*
X1333497D01*
X1336036Y335280D01*
Y330202D01*
X1333497Y327663D01*
X1328418D01*
X1325879Y330202D01*
X1356103Y1128009D02*
X1351024D01*
X1353564D01*
Y1115313D01*
X1351024Y1112774D01*
X1348485D01*
X1345946Y1115313D01*
X1368799Y1112774D02*
Y1128009D01*
X1361181Y1120391D01*
X1371338D01*
X112519Y761741D02*
X107440D01*
X109979D01*
Y749045D01*
X107440Y746506D01*
X104901D01*
X102362Y749045D01*
X117597Y759202D02*
X120136Y761741D01*
X125215D01*
X127754Y759202D01*
Y756663D01*
X125215Y754124D01*
X122675D01*
X125215D01*
X127754Y751584D01*
Y749045D01*
X125215Y746506D01*
X120136D01*
X117597Y749045D01*
X111503Y590291D02*
X106424D01*
X108963D01*
Y577595D01*
X106424Y575056D01*
X103885D01*
X101346Y577595D01*
X126738Y575056D02*
X116581D01*
X126738Y585213D01*
Y587752D01*
X124199Y590291D01*
X119120D01*
X116581Y587752D01*
X762254Y328417D02*
Y315721D01*
X764793Y313182D01*
X769872D01*
X772411Y315721D01*
Y328417D01*
X777489Y325878D02*
X780028Y328417D01*
X785107D01*
X787646Y325878D01*
Y323339D01*
X785107Y320799D01*
X787646Y318260D01*
Y315721D01*
X785107Y313182D01*
X780028D01*
X777489Y315721D01*
Y318260D01*
X780028Y320799D01*
X777489Y323339D01*
Y325878D01*
X780028Y320799D02*
X785107D01*
X949964Y208277D02*
Y195582D01*
X952503Y193043D01*
X957582D01*
X960121Y195582D01*
Y208277D01*
X965199D02*
X975356D01*
Y205738D01*
X965199Y195582D01*
Y193043D01*
X1031243Y236224D02*
X1043938D01*
X1046478Y238763D01*
Y243842D01*
X1043938Y246381D01*
X1031243D01*
Y261616D02*
X1033782Y256537D01*
X1038860Y251459D01*
X1043938D01*
X1046478Y253998D01*
Y259077D01*
X1043938Y261616D01*
X1041399D01*
X1038860Y259077D01*
Y251459D01*
X459994Y569468D02*
Y584703D01*
X467612D01*
X470151Y582164D01*
Y577085D01*
X467612Y574546D01*
X459994D01*
X485386Y582164D02*
X482847Y584703D01*
X477768D01*
X475229Y582164D01*
Y579625D01*
X477768Y577085D01*
X482847D01*
X485386Y574546D01*
Y572007D01*
X482847Y569468D01*
X477768D01*
X475229Y572007D01*
X490464Y569468D02*
X495542D01*
X493003D01*
Y584703D01*
X490464Y582164D01*
X801878Y506725D02*
Y494029D01*
X804417Y491490D01*
X809495D01*
X812035Y494029D01*
Y506725D01*
X827270D02*
X817113D01*
Y499108D01*
X822191Y501647D01*
X824731D01*
X827270Y499108D01*
Y494029D01*
X824731Y491490D01*
X819652D01*
X817113Y494029D01*
X695964Y505457D02*
Y492762D01*
X698503Y490223D01*
X703582D01*
X706121Y492762D01*
Y505457D01*
X718817Y490223D02*
Y505457D01*
X711199Y497840D01*
X721356D01*
X1083056Y1256284D02*
Y1266441D01*
X1088134Y1271519D01*
X1093213Y1266441D01*
Y1256284D01*
Y1263902D01*
X1083056D01*
X1098291Y1256284D02*
X1103369D01*
X1100830D01*
Y1271519D01*
X1098291Y1268980D01*
X1136379D02*
X1133840Y1271519D01*
X1128761D01*
X1126222Y1268980D01*
Y1266441D01*
X1128761Y1263902D01*
X1133840D01*
X1136379Y1261362D01*
Y1258823D01*
X1133840Y1256284D01*
X1128761D01*
X1126222Y1258823D01*
X1141457Y1256284D02*
Y1271519D01*
X1149075D01*
X1151614Y1268980D01*
Y1263902D01*
X1149075Y1261362D01*
X1141457D01*
X1156692Y1256284D02*
Y1266441D01*
X1161770Y1271519D01*
X1166849Y1266441D01*
Y1256284D01*
Y1263902D01*
X1156692D01*
X1171927Y1271519D02*
Y1256284D01*
X1179545D01*
X1182084Y1258823D01*
Y1268980D01*
X1179545Y1271519D01*
X1171927D01*
X420113Y1190757D02*
X415034D01*
X417574D01*
Y1203453D01*
X415034Y1205992D01*
X412495D01*
X409956Y1203453D01*
X425191Y1205992D02*
X430269D01*
X427730D01*
Y1190757D01*
X425191Y1193296D01*
D18*
X781900Y107350D02*
G03*
X781900Y107350I-1000J0D01*
G01*
X902850Y286350D02*
G03*
X902850Y286350I-1000J0D01*
G01*
X918450Y107350D02*
G03*
X918450Y107350I-1000J0D01*
G01*
X1188600Y286350D02*
G03*
X1188600Y286350I-1000J0D01*
G01*
X1048900D02*
G03*
X1048900Y286350I-1000J0D01*
G01*
X763150D02*
G03*
X763150Y286350I-1000J0D01*
G01*
D19*
X2171700Y1384300D02*
Y1409700D01*
X2127250D02*
X2171700D01*
X2127250Y1384300D02*
Y1409700D01*
Y1384300D02*
X2171700D01*
D20*
X1158240Y1458752D02*
X1156574Y1460418D01*
X1153242D01*
X1151575Y1458752D01*
Y1452088D01*
X1153242Y1450422D01*
X1156574D01*
X1158240Y1452088D01*
X1161572Y1450422D02*
X1164904D01*
X1163238D01*
Y1460418D01*
X1161572Y1458752D01*
X1290238Y1363351D02*
X1280242D01*
Y1368349D01*
X1281908Y1370016D01*
X1285240D01*
X1286906Y1368349D01*
Y1363351D01*
Y1366683D02*
X1290238Y1370016D01*
X1281908Y1373348D02*
X1280242Y1375014D01*
Y1378346D01*
X1281908Y1380012D01*
X1283574D01*
X1285240Y1378346D01*
Y1376680D01*
Y1378346D01*
X1286906Y1380012D01*
X1288572D01*
X1290238Y1378346D01*
Y1375014D01*
X1288572Y1373348D01*
X1280242Y1383345D02*
Y1390009D01*
X1281908D01*
X1288572Y1383345D01*
X1290238D01*
X1242264Y1450258D02*
Y1441928D01*
X1243930Y1440262D01*
X1247262D01*
X1248929Y1441928D01*
Y1450258D01*
X1252261Y1440262D02*
X1255593D01*
X1253927D01*
Y1450258D01*
X1252261Y1448592D01*
X1267256Y1450258D02*
X1260592D01*
Y1445260D01*
X1263924Y1446926D01*
X1265590D01*
X1267256Y1445260D01*
Y1441928D01*
X1265590Y1440262D01*
X1262258D01*
X1260592Y1441928D01*
X1338498Y1401451D02*
X1328502D01*
Y1406449D01*
X1330168Y1408116D01*
X1333500D01*
X1335166Y1406449D01*
Y1401451D01*
Y1404783D02*
X1338498Y1408116D01*
X1330168Y1411448D02*
X1328502Y1413114D01*
Y1416446D01*
X1330168Y1418112D01*
X1331834D01*
X1333500Y1416446D01*
Y1414780D01*
Y1416446D01*
X1335166Y1418112D01*
X1336832D01*
X1338498Y1416446D01*
Y1413114D01*
X1336832Y1411448D01*
X1330168Y1421445D02*
X1328502Y1423111D01*
Y1426443D01*
X1330168Y1428109D01*
X1331834D01*
X1333500Y1426443D01*
X1335166Y1428109D01*
X1336832D01*
X1338498Y1426443D01*
Y1423111D01*
X1336832Y1421445D01*
X1335166D01*
X1333500Y1423111D01*
X1331834Y1421445D01*
X1330168D01*
X1333500Y1423111D02*
Y1426443D01*
X1125138Y1337951D02*
X1115142D01*
Y1342949D01*
X1116808Y1344615D01*
X1120140D01*
X1121806Y1342949D01*
Y1337951D01*
Y1341283D02*
X1125138Y1344615D01*
X1116808Y1347948D02*
X1115142Y1349614D01*
Y1352946D01*
X1116808Y1354612D01*
X1118474D01*
X1120140Y1352946D01*
Y1351280D01*
Y1352946D01*
X1121806Y1354612D01*
X1123472D01*
X1125138Y1352946D01*
Y1349614D01*
X1123472Y1347948D01*
X1115142Y1364609D02*
X1116808Y1361277D01*
X1120140Y1357944D01*
X1123472D01*
X1125138Y1359611D01*
Y1362943D01*
X1123472Y1364609D01*
X1121806D01*
X1120140Y1362943D01*
Y1357944D01*
X1160698Y1337951D02*
X1150702D01*
Y1342949D01*
X1152368Y1344615D01*
X1155700D01*
X1157366Y1342949D01*
Y1337951D01*
Y1341283D02*
X1160698Y1344615D01*
X1152368Y1347948D02*
X1150702Y1349614D01*
Y1352946D01*
X1152368Y1354612D01*
X1154034D01*
X1155700Y1352946D01*
Y1351280D01*
Y1352946D01*
X1157366Y1354612D01*
X1159032D01*
X1160698Y1352946D01*
Y1349614D01*
X1159032Y1347948D01*
X1150702Y1364609D02*
Y1357944D01*
X1155700D01*
X1154034Y1361277D01*
Y1362943D01*
X1155700Y1364609D01*
X1159032D01*
X1160698Y1362943D01*
Y1359611D01*
X1159032Y1357944D01*
X1186098Y1374019D02*
X1176102D01*
Y1379017D01*
X1177768Y1380683D01*
X1181100D01*
X1182766Y1379017D01*
Y1374019D01*
Y1377351D02*
X1186098Y1380683D01*
X1177768Y1384016D02*
X1176102Y1385682D01*
Y1389014D01*
X1177768Y1390680D01*
X1179434D01*
X1181100Y1389014D01*
Y1387348D01*
Y1389014D01*
X1182766Y1390680D01*
X1184432D01*
X1186098Y1389014D01*
Y1385682D01*
X1184432Y1384016D01*
X1177768Y1394012D02*
X1176102Y1395679D01*
Y1399011D01*
X1177768Y1400677D01*
X1179434D01*
X1181100Y1399011D01*
Y1397345D01*
Y1399011D01*
X1182766Y1400677D01*
X1184432D01*
X1186098Y1399011D01*
Y1395679D01*
X1184432Y1394012D01*
X1093023Y1419047D02*
X1091356Y1420713D01*
X1088024D01*
X1086358Y1419047D01*
Y1412382D01*
X1088024Y1410716D01*
X1091356D01*
X1093023Y1412382D01*
X1101353Y1410716D02*
Y1420713D01*
X1096355Y1415714D01*
X1103019D01*
M02*
