G04*
G04 #@! TF.GenerationSoftware,Altium Limited,Altium Designer,22.11.1 (43)*
G04*
G04 Layer_Color=8421504*
%FSLAX44Y44*%
%MOMM*%
G71*
G04*
G04 #@! TF.SameCoordinates,B54C2437-7CCA-4C96-8E11-22E7B733F24C*
G04*
G04*
G04 #@! TF.FilePolarity,Positive*
G04*
G01*
G75*
%ADD21R,1.7018X0.9144*%
%ADD22R,0.8000X0.8000*%
%ADD23R,1.5492X0.6524*%
%ADD24R,0.6524X1.5492*%
G04:AMPARAMS|DCode=25|XSize=1.97mm|YSize=0.6mm|CornerRadius=0.075mm|HoleSize=0mm|Usage=FLASHONLY|Rotation=0.000|XOffset=0mm|YOffset=0mm|HoleType=Round|Shape=RoundedRectangle|*
%AMROUNDEDRECTD25*
21,1,1.9700,0.4500,0,0,0.0*
21,1,1.8200,0.6000,0,0,0.0*
1,1,0.1500,0.9100,-0.2250*
1,1,0.1500,-0.9100,-0.2250*
1,1,0.1500,-0.9100,0.2250*
1,1,0.1500,0.9100,0.2250*
%
%ADD25ROUNDEDRECTD25*%
%ADD26R,0.9144X1.7018*%
%ADD27R,1.0000X1.4000*%
%ADD28R,1.4300X1.1000*%
%ADD29R,0.8000X0.8000*%
%ADD30R,1.5200X1.7800*%
%ADD31R,1.4000X1.0000*%
%ADD32R,1.8000X1.2000*%
D21*
X355600Y936244D02*
D03*
Y963676D02*
D03*
X302260Y936244D02*
D03*
Y963676D02*
D03*
X406400Y936244D02*
D03*
Y963676D02*
D03*
X1285240Y1401064D02*
D03*
Y1428496D02*
D03*
X1313180Y1401064D02*
D03*
Y1428496D02*
D03*
X1181100Y1413764D02*
D03*
Y1441196D02*
D03*
X1282700Y1208024D02*
D03*
Y1235456D02*
D03*
X1155700Y1373124D02*
D03*
Y1400556D02*
D03*
X1120140Y1373124D02*
D03*
Y1400556D02*
D03*
X411480Y443484D02*
D03*
Y470916D02*
D03*
X1097280Y351536D02*
D03*
Y324104D02*
D03*
X965200D02*
D03*
Y351536D02*
D03*
X939800Y324104D02*
D03*
Y351536D02*
D03*
X552450Y354584D02*
D03*
Y382016D02*
D03*
X742950Y506984D02*
D03*
Y534416D02*
D03*
X666750Y506984D02*
D03*
Y534416D02*
D03*
X812800Y348996D02*
D03*
Y321564D02*
D03*
X1206500Y350266D02*
D03*
Y322834D02*
D03*
X1066800Y324104D02*
D03*
Y351536D02*
D03*
D22*
X302260Y1015880D02*
D03*
Y1000880D02*
D03*
X355600Y1018420D02*
D03*
Y1003420D02*
D03*
X406400Y1018420D02*
D03*
Y1003420D02*
D03*
X411480Y530740D02*
D03*
Y515740D02*
D03*
D23*
X1155700Y1413218D02*
D03*
Y1441742D02*
D03*
D24*
X1286218Y1259840D02*
D03*
X1314742D02*
D03*
D25*
X1259140Y1426210D02*
D03*
Y1413510D02*
D03*
Y1400810D02*
D03*
Y1388110D02*
D03*
X1209740D02*
D03*
Y1400810D02*
D03*
Y1413510D02*
D03*
Y1426210D02*
D03*
D26*
X1304544Y1310640D02*
D03*
X1331976D02*
D03*
X493776Y370840D02*
D03*
X466344D02*
D03*
X1253236Y530860D02*
D03*
X1225804D02*
D03*
X1065784Y586740D02*
D03*
X1093216D02*
D03*
X1251712Y568960D02*
D03*
X1224280D02*
D03*
X1068324Y510540D02*
D03*
X1095756D02*
D03*
X1068324Y1107440D02*
D03*
X1095756D02*
D03*
X1068324Y1031240D02*
D03*
X1095756D02*
D03*
X1068324Y982980D02*
D03*
X1095756D02*
D03*
X1068324Y906780D02*
D03*
X1095756D02*
D03*
X1065784Y855980D02*
D03*
X1093216D02*
D03*
X1068324Y779780D02*
D03*
X1095756D02*
D03*
X1068324Y726440D02*
D03*
X1095756D02*
D03*
X1068324Y650240D02*
D03*
X1095756D02*
D03*
X629666Y114300D02*
D03*
X602234D02*
D03*
X629666Y146050D02*
D03*
X602234D02*
D03*
X737616Y190500D02*
D03*
X710184D02*
D03*
X870966D02*
D03*
X843534D02*
D03*
X826516Y927100D02*
D03*
X799084D02*
D03*
X737616Y247650D02*
D03*
X710184D02*
D03*
X443484Y171450D02*
D03*
X470916D02*
D03*
X443484Y95250D02*
D03*
X470916D02*
D03*
D27*
X1334820Y1170940D02*
D03*
X1353820D02*
D03*
X1344320Y1192940D02*
D03*
Y1258980D02*
D03*
X1353820Y1236980D02*
D03*
X1334820D02*
D03*
D28*
X1094740Y1377960D02*
D03*
Y1395720D02*
D03*
X1376680Y1228080D02*
D03*
Y1210320D02*
D03*
D29*
X482480Y401320D02*
D03*
X467480D02*
D03*
D30*
X765150Y158750D02*
D03*
Y107950D02*
D03*
Y133350D02*
D03*
X682650Y158750D02*
D03*
Y107950D02*
D03*
Y133350D02*
D03*
X917600Y234950D02*
D03*
Y285750D02*
D03*
Y260350D02*
D03*
X1000100Y234950D02*
D03*
Y285750D02*
D03*
Y260350D02*
D03*
X901700Y158750D02*
D03*
Y107950D02*
D03*
Y133350D02*
D03*
X819200Y158750D02*
D03*
Y107950D02*
D03*
Y133350D02*
D03*
X1285850Y260350D02*
D03*
Y285750D02*
D03*
Y234950D02*
D03*
X1203350Y260350D02*
D03*
Y285750D02*
D03*
Y234950D02*
D03*
X1063650D02*
D03*
Y285750D02*
D03*
Y260350D02*
D03*
X1146150Y234950D02*
D03*
Y285750D02*
D03*
Y260350D02*
D03*
X860400D02*
D03*
Y285750D02*
D03*
Y234950D02*
D03*
X777900Y260350D02*
D03*
Y285750D02*
D03*
Y234950D02*
D03*
D31*
X685800Y222250D02*
D03*
X663800Y212750D02*
D03*
Y231750D02*
D03*
X1013050Y346050D02*
D03*
Y327050D02*
D03*
X1035050Y336550D02*
D03*
X1138350Y346050D02*
D03*
Y327050D02*
D03*
X1160350Y336550D02*
D03*
D32*
X578050Y533400D02*
D03*
Y457200D02*
D03*
X476050D02*
D03*
Y508000D02*
D03*
Y533400D02*
D03*
M02*
