G04*
G04 #@! TF.GenerationSoftware,Altium Limited,Altium Designer,23.1.1 (15)*
G04*
G04 Layer_Color=16711935*
%FSLAX44Y44*%
%MOMM*%
G71*
G04*
G04 #@! TF.SameCoordinates,5873BA87-B4A8-4489-8BBC-5F2359CC4874*
G04*
G04*
G04 #@! TF.FilePolarity,Positive*
G04*
G01*
G75*
%ADD12C,0.1270*%
%ADD23C,0.0254*%
%ADD24C,0.1020*%
%ADD25C,0.1016*%
G36*
X63468Y635130D02*
Y625130D01*
X45468D01*
Y635130D01*
X63468D01*
D02*
G37*
G36*
X95468D02*
Y625130D01*
X77468D01*
Y635130D01*
X95468D01*
D02*
G37*
G36*
X63468Y817630D02*
Y807630D01*
X45468D01*
Y817630D01*
X63468D01*
D02*
G37*
G36*
X95468D02*
Y807630D01*
X77468D01*
Y817630D01*
X95468D01*
D02*
G37*
D12*
X968042Y205674D02*
Y675574D01*
X498041Y675674D02*
X968042D01*
X498041Y205674D02*
Y675574D01*
Y205674D02*
Y205774D01*
Y205674D02*
X968042D01*
D23*
X2286508Y1028956D02*
G03*
X2286508Y1060956I0J16000D01*
G01*
X2236508D02*
G03*
X2236508Y1028956I0J-16000D01*
G01*
X41294Y1060954D02*
G03*
X41294Y1028954I0J-16000D01*
G01*
X91294D02*
G03*
X91294Y1060954I0J16000D01*
G01*
X2286628Y67290D02*
G03*
X2286628Y99290I0J16000D01*
G01*
X2236628D02*
G03*
X2236628Y67290I0J-16000D01*
G01*
X41338Y99271D02*
G03*
X41338Y67271I0J-16000D01*
G01*
X91338D02*
G03*
X91338Y99271I0J16000D01*
G01*
X1288135Y558551D02*
G03*
X1288135Y590551I0J16000D01*
G01*
X1238135D02*
G03*
X1238135Y558551I0J-16000D01*
G01*
X1884172Y798068D02*
G03*
X1858772Y798068I-12700J0D01*
G01*
Y726440D02*
G03*
X1884172Y726440I12700J0D01*
G01*
X1790296Y912445D02*
G03*
X1772322Y894498I-8994J-8967D01*
G01*
X1831250Y835570D02*
G03*
X1849210Y853530I8980J8980D01*
G01*
X1731682Y935138D02*
G03*
X1749642Y953098I8980J8980D01*
G01*
X1690728Y1012013D02*
G03*
X1672754Y994066I-8994J-8967D01*
G01*
X1628140Y1043940D02*
G03*
X1653540Y1043940I12700J0D01*
G01*
Y1115568D02*
G03*
X1628140Y1115568I-12700J0D01*
G01*
X2236508Y1028956D02*
X2286508D01*
X2236508Y1060956D02*
X2286508D01*
X41294Y1060954D02*
X91294D01*
X41294Y1028954D02*
X91294D01*
X2236628Y67290D02*
X2286628D01*
X2236628Y99290D02*
X2286628D01*
X41338Y99271D02*
X91338D01*
X41338Y67271D02*
X91338D01*
X1238135Y558551D02*
X1288135D01*
X1238135Y590551D02*
X1288135D01*
X1858772Y726440D02*
Y798068D01*
X1884172Y726440D02*
Y798068D01*
X1790282Y912458D02*
X1849210Y853530D01*
X1772322Y894498D02*
X1831250Y835570D01*
X1672754Y994066D02*
X1731682Y935138D01*
X1690714Y1012026D02*
X1749642Y953098D01*
X1653540Y1043940D02*
Y1115568D01*
X1628140Y1043940D02*
Y1115568D01*
D24*
X-1Y1226566D02*
X2327910Y1226566D01*
D25*
X2327910Y0D01*
X-1Y1226566D02*
X0Y0D01*
X2327910D01*
M02*
