G04*
G04 #@! TF.GenerationSoftware,Altium Limited,Altium Designer,23.1.1 (15)*
G04*
G04 Layer_Color=32896*
%FSLAX44Y44*%
%MOMM*%
G71*
G04*
G04 #@! TF.SameCoordinates,5873BA87-B4A8-4489-8BBC-5F2359CC4874*
G04*
G04*
G04 #@! TF.FilePolarity,Positive*
G04*
G01*
G75*
%ADD10C,0.2000*%
%ADD12C,0.1270*%
%ADD23C,0.0254*%
%ADD24C,0.1020*%
%ADD25C,0.1016*%
G36*
X1453579Y1054237D02*
X1453739Y1054209D01*
X1453880Y1054190D01*
X1454011Y1054152D01*
X1454124Y1054115D01*
X1454237Y1054077D01*
X1454331Y1054039D01*
X1454416Y1053992D01*
X1454491Y1053955D01*
X1454556Y1053917D01*
X1454603Y1053879D01*
X1454641Y1053851D01*
X1454679Y1053832D01*
X1454688Y1053823D01*
X1454698Y1053814D01*
X1454782Y1053720D01*
X1454857Y1053626D01*
X1454923Y1053522D01*
X1454979Y1053410D01*
X1455064Y1053194D01*
X1455120Y1052987D01*
X1455158Y1052789D01*
X1455167Y1052714D01*
X1455177Y1052639D01*
X1455186Y1052583D01*
Y1052498D01*
X1455177Y1052291D01*
X1455149Y1052103D01*
X1455111Y1051934D01*
X1455064Y1051784D01*
X1455026Y1051662D01*
X1454989Y1051577D01*
X1454961Y1051521D01*
X1454951Y1051502D01*
X1454857Y1051351D01*
X1454745Y1051220D01*
X1454632Y1051116D01*
X1454528Y1051022D01*
X1454425Y1050957D01*
X1454350Y1050910D01*
X1454293Y1050882D01*
X1454284Y1050872D01*
X1454275D01*
X1454087Y1050806D01*
X1453889Y1050750D01*
X1453673Y1050712D01*
X1453466Y1050694D01*
X1453288Y1050675D01*
X1453213D01*
X1453137Y1050665D01*
X1453081D01*
X1453043D01*
X1453015D01*
X1453006D01*
X1448570D01*
Y1051530D01*
X1453053D01*
X1453250D01*
X1453419Y1051549D01*
X1453560Y1051558D01*
X1453673Y1051577D01*
X1453758Y1051596D01*
X1453824Y1051605D01*
X1453861Y1051624D01*
X1453871D01*
X1453965Y1051662D01*
X1454040Y1051709D01*
X1454105Y1051765D01*
X1454171Y1051812D01*
X1454209Y1051868D01*
X1454246Y1051906D01*
X1454265Y1051934D01*
X1454275Y1051944D01*
X1454322Y1052038D01*
X1454359Y1052132D01*
X1454378Y1052225D01*
X1454397Y1052310D01*
X1454406Y1052395D01*
X1454416Y1052451D01*
Y1052507D01*
X1454406Y1052658D01*
X1454369Y1052799D01*
X1454331Y1052912D01*
X1454275Y1053015D01*
X1454228Y1053090D01*
X1454181Y1053147D01*
X1454152Y1053184D01*
X1454143Y1053194D01*
X1454087Y1053241D01*
X1454021Y1053278D01*
X1453871Y1053334D01*
X1453701Y1053391D01*
X1453532Y1053419D01*
X1453372Y1053447D01*
X1453307D01*
X1453250Y1053457D01*
X1453194Y1053466D01*
X1453156D01*
X1453137D01*
X1453128D01*
X1453241Y1054246D01*
X1453419D01*
X1453579Y1054237D01*
D02*
G37*
G36*
X1452339Y1049613D02*
X1452621Y1049594D01*
X1452884Y1049566D01*
X1453128Y1049519D01*
X1453344Y1049472D01*
X1453542Y1049425D01*
X1453720Y1049369D01*
X1453880Y1049303D01*
X1454011Y1049246D01*
X1454134Y1049190D01*
X1454228Y1049143D01*
X1454312Y1049087D01*
X1454378Y1049049D01*
X1454416Y1049021D01*
X1454444Y1049002D01*
X1454453Y1048993D01*
X1454585Y1048870D01*
X1454698Y1048739D01*
X1454792Y1048607D01*
X1454876Y1048476D01*
X1454951Y1048335D01*
X1455008Y1048203D01*
X1455055Y1048072D01*
X1455092Y1047940D01*
X1455120Y1047827D01*
X1455149Y1047714D01*
X1455167Y1047620D01*
X1455177Y1047536D01*
Y1047461D01*
X1455186Y1047414D01*
Y1047367D01*
X1455177Y1047151D01*
X1455139Y1046953D01*
X1455102Y1046775D01*
X1455045Y1046615D01*
X1454998Y1046493D01*
X1454951Y1046399D01*
X1454942Y1046361D01*
X1454923Y1046333D01*
X1454914Y1046323D01*
Y1046314D01*
X1454801Y1046154D01*
X1454669Y1046004D01*
X1454538Y1045882D01*
X1454406Y1045779D01*
X1454284Y1045694D01*
X1454190Y1045638D01*
X1454152Y1045619D01*
X1454124Y1045600D01*
X1454115Y1045591D01*
X1454105D01*
X1453908Y1045497D01*
X1453701Y1045431D01*
X1453513Y1045384D01*
X1453335Y1045356D01*
X1453184Y1045327D01*
X1453128D01*
X1453072Y1045318D01*
X1453025D01*
X1452997D01*
X1452978D01*
X1452968D01*
X1452799Y1045327D01*
X1452639Y1045346D01*
X1452480Y1045374D01*
X1452339Y1045403D01*
X1452207Y1045450D01*
X1452076Y1045497D01*
X1451963Y1045544D01*
X1451859Y1045600D01*
X1451765Y1045656D01*
X1451681Y1045703D01*
X1451615Y1045750D01*
X1451549Y1045797D01*
X1451502Y1045825D01*
X1451474Y1045854D01*
X1451455Y1045872D01*
X1451446Y1045882D01*
X1451342Y1045985D01*
X1451248Y1046098D01*
X1451173Y1046220D01*
X1451107Y1046333D01*
X1451042Y1046446D01*
X1450995Y1046559D01*
X1450929Y1046775D01*
X1450901Y1046869D01*
X1450882Y1046963D01*
X1450872Y1047038D01*
X1450863Y1047113D01*
X1450854Y1047169D01*
Y1047244D01*
X1450863Y1047414D01*
X1450891Y1047573D01*
X1450919Y1047724D01*
X1450957Y1047855D01*
X1451004Y1047968D01*
X1451032Y1048053D01*
X1451060Y1048109D01*
X1451070Y1048119D01*
Y1048128D01*
X1451164Y1048278D01*
X1451267Y1048410D01*
X1451371Y1048532D01*
X1451483Y1048626D01*
X1451577Y1048711D01*
X1451653Y1048776D01*
X1451709Y1048814D01*
X1451718Y1048823D01*
X1451549D01*
X1451380Y1048814D01*
X1451230Y1048805D01*
X1451079Y1048786D01*
X1450948Y1048776D01*
X1450826Y1048758D01*
X1450713Y1048739D01*
X1450609Y1048711D01*
X1450515Y1048692D01*
X1450440Y1048673D01*
X1450374Y1048654D01*
X1450318Y1048645D01*
X1450280Y1048626D01*
X1450252Y1048617D01*
X1450233Y1048607D01*
X1450224D01*
X1450036Y1048513D01*
X1449867Y1048419D01*
X1449735Y1048316D01*
X1449623Y1048222D01*
X1449529Y1048137D01*
X1449463Y1048072D01*
X1449425Y1048025D01*
X1449416Y1048006D01*
X1449341Y1047893D01*
X1449294Y1047780D01*
X1449256Y1047667D01*
X1449228Y1047555D01*
X1449209Y1047470D01*
X1449200Y1047395D01*
Y1047329D01*
X1449218Y1047160D01*
X1449256Y1047000D01*
X1449312Y1046869D01*
X1449369Y1046746D01*
X1449435Y1046653D01*
X1449491Y1046587D01*
X1449529Y1046549D01*
X1449547Y1046530D01*
X1449632Y1046464D01*
X1449735Y1046399D01*
X1449848Y1046342D01*
X1449961Y1046305D01*
X1450064Y1046267D01*
X1450149Y1046239D01*
X1450205Y1046230D01*
X1450215Y1046220D01*
X1450224D01*
X1450158Y1045421D01*
X1449895Y1045478D01*
X1449660Y1045562D01*
X1449453Y1045656D01*
X1449284Y1045760D01*
X1449153Y1045863D01*
X1449096Y1045901D01*
X1449049Y1045948D01*
X1449021Y1045976D01*
X1448993Y1046004D01*
X1448983Y1046013D01*
X1448974Y1046023D01*
X1448899Y1046117D01*
X1448833Y1046220D01*
X1448720Y1046427D01*
X1448645Y1046634D01*
X1448598Y1046831D01*
X1448561Y1047010D01*
X1448551Y1047085D01*
Y1047151D01*
X1448542Y1047207D01*
Y1047282D01*
X1448551Y1047470D01*
X1448570Y1047649D01*
X1448608Y1047818D01*
X1448655Y1047978D01*
X1448720Y1048119D01*
X1448777Y1048260D01*
X1448852Y1048382D01*
X1448918Y1048494D01*
X1448983Y1048588D01*
X1449059Y1048682D01*
X1449115Y1048758D01*
X1449171Y1048814D01*
X1449228Y1048861D01*
X1449265Y1048899D01*
X1449284Y1048917D01*
X1449294Y1048927D01*
X1449463Y1049049D01*
X1449660Y1049152D01*
X1449867Y1049246D01*
X1450083Y1049331D01*
X1450309Y1049397D01*
X1450534Y1049453D01*
X1450769Y1049500D01*
X1450985Y1049538D01*
X1451201Y1049566D01*
X1451399Y1049585D01*
X1451577Y1049603D01*
X1451728Y1049613D01*
X1451859D01*
X1451953Y1049622D01*
X1451991D01*
X1452019D01*
X1452029D01*
X1452038D01*
X1452339Y1049613D01*
D02*
G37*
G36*
X1103175Y1153382D02*
X1103353Y1153364D01*
X1103522Y1153326D01*
X1103682Y1153279D01*
X1103823Y1153213D01*
X1103964Y1153157D01*
X1104086Y1153082D01*
X1104199Y1153016D01*
X1104293Y1152950D01*
X1104387Y1152875D01*
X1104462Y1152819D01*
X1104518Y1152762D01*
X1104565Y1152706D01*
X1104603Y1152668D01*
X1104622Y1152650D01*
X1104631Y1152640D01*
X1104753Y1152471D01*
X1104857Y1152273D01*
X1104951Y1152067D01*
X1105035Y1151851D01*
X1105101Y1151625D01*
X1105157Y1151400D01*
X1105204Y1151165D01*
X1105242Y1150948D01*
X1105270Y1150732D01*
X1105289Y1150535D01*
X1105308Y1150356D01*
X1105317Y1150206D01*
Y1150074D01*
X1105327Y1149980D01*
Y1149943D01*
Y1149915D01*
Y1149905D01*
Y1149896D01*
X1105317Y1149595D01*
X1105298Y1149313D01*
X1105270Y1149050D01*
X1105223Y1148806D01*
X1105176Y1148589D01*
X1105129Y1148392D01*
X1105073Y1148214D01*
X1105007Y1148054D01*
X1104951Y1147922D01*
X1104894Y1147800D01*
X1104847Y1147706D01*
X1104791Y1147622D01*
X1104753Y1147556D01*
X1104725Y1147518D01*
X1104706Y1147490D01*
X1104697Y1147481D01*
X1104575Y1147349D01*
X1104443Y1147236D01*
X1104312Y1147142D01*
X1104180Y1147058D01*
X1104039Y1146982D01*
X1103907Y1146926D01*
X1103776Y1146879D01*
X1103644Y1146842D01*
X1103532Y1146813D01*
X1103419Y1146785D01*
X1103325Y1146766D01*
X1103240Y1146757D01*
X1103165D01*
X1103118Y1146748D01*
X1103071D01*
X1102855Y1146757D01*
X1102658Y1146795D01*
X1102479Y1146832D01*
X1102319Y1146889D01*
X1102197Y1146936D01*
X1102103Y1146982D01*
X1102066Y1146992D01*
X1102037Y1147011D01*
X1102028Y1147020D01*
X1102019D01*
X1101859Y1147133D01*
X1101708Y1147264D01*
X1101586Y1147396D01*
X1101483Y1147528D01*
X1101398Y1147650D01*
X1101342Y1147744D01*
X1101323Y1147781D01*
X1101304Y1147810D01*
X1101295Y1147819D01*
Y1147828D01*
X1101201Y1148026D01*
X1101135Y1148232D01*
X1101088Y1148420D01*
X1101060Y1148599D01*
X1101032Y1148749D01*
Y1148806D01*
X1101022Y1148862D01*
Y1148909D01*
Y1148937D01*
Y1148956D01*
Y1148965D01*
X1101032Y1149135D01*
X1101050Y1149294D01*
X1101079Y1149454D01*
X1101107Y1149595D01*
X1101154Y1149727D01*
X1101201Y1149858D01*
X1101248Y1149971D01*
X1101304Y1150074D01*
X1101361Y1150168D01*
X1101408Y1150253D01*
X1101455Y1150319D01*
X1101502Y1150385D01*
X1101530Y1150432D01*
X1101558Y1150460D01*
X1101577Y1150479D01*
X1101586Y1150488D01*
X1101690Y1150591D01*
X1101802Y1150685D01*
X1101925Y1150760D01*
X1102037Y1150826D01*
X1102150Y1150892D01*
X1102263Y1150939D01*
X1102479Y1151005D01*
X1102573Y1151033D01*
X1102667Y1151052D01*
X1102742Y1151061D01*
X1102817Y1151071D01*
X1102874Y1151080D01*
X1102949D01*
X1103118Y1151071D01*
X1103278Y1151042D01*
X1103428Y1151014D01*
X1103560Y1150977D01*
X1103672Y1150930D01*
X1103757Y1150901D01*
X1103813Y1150873D01*
X1103823Y1150864D01*
X1103832D01*
X1103983Y1150770D01*
X1104114Y1150667D01*
X1104236Y1150563D01*
X1104330Y1150450D01*
X1104415Y1150356D01*
X1104481Y1150281D01*
X1104518Y1150225D01*
X1104528Y1150215D01*
Y1150385D01*
X1104518Y1150554D01*
X1104509Y1150704D01*
X1104490Y1150854D01*
X1104481Y1150986D01*
X1104462Y1151108D01*
X1104443Y1151221D01*
X1104415Y1151324D01*
X1104396Y1151418D01*
X1104377Y1151494D01*
X1104359Y1151559D01*
X1104349Y1151616D01*
X1104330Y1151653D01*
X1104321Y1151682D01*
X1104312Y1151700D01*
Y1151710D01*
X1104218Y1151898D01*
X1104124Y1152067D01*
X1104020Y1152198D01*
X1103926Y1152311D01*
X1103842Y1152405D01*
X1103776Y1152471D01*
X1103729Y1152508D01*
X1103710Y1152518D01*
X1103597Y1152593D01*
X1103485Y1152640D01*
X1103372Y1152678D01*
X1103259Y1152706D01*
X1103175Y1152725D01*
X1103099Y1152734D01*
X1103034D01*
X1102864Y1152715D01*
X1102705Y1152678D01*
X1102573Y1152621D01*
X1102451Y1152565D01*
X1102357Y1152499D01*
X1102291Y1152443D01*
X1102253Y1152405D01*
X1102235Y1152386D01*
X1102169Y1152302D01*
X1102103Y1152198D01*
X1102047Y1152086D01*
X1102009Y1151973D01*
X1101972Y1151869D01*
X1101943Y1151785D01*
X1101934Y1151729D01*
X1101925Y1151719D01*
Y1151710D01*
X1101126Y1151775D01*
X1101182Y1152039D01*
X1101267Y1152273D01*
X1101361Y1152480D01*
X1101464Y1152650D01*
X1101567Y1152781D01*
X1101605Y1152837D01*
X1101652Y1152884D01*
X1101680Y1152913D01*
X1101708Y1152941D01*
X1101718Y1152950D01*
X1101727Y1152960D01*
X1101821Y1153035D01*
X1101925Y1153101D01*
X1102131Y1153213D01*
X1102338Y1153288D01*
X1102535Y1153335D01*
X1102714Y1153373D01*
X1102789Y1153382D01*
X1102855D01*
X1102911Y1153392D01*
X1102987D01*
X1103175Y1153382D01*
D02*
G37*
G36*
X1109020Y1153458D02*
X1109321Y1153411D01*
X1109584Y1153354D01*
X1109706Y1153317D01*
X1109819Y1153279D01*
X1109922Y1153242D01*
X1110016Y1153204D01*
X1110091Y1153176D01*
X1110167Y1153148D01*
X1110214Y1153119D01*
X1110251Y1153101D01*
X1110279Y1153091D01*
X1110289Y1153082D01*
X1110543Y1152922D01*
X1110759Y1152734D01*
X1110947Y1152546D01*
X1111106Y1152358D01*
X1111228Y1152189D01*
X1111275Y1152114D01*
X1111313Y1152048D01*
X1111351Y1152001D01*
X1111369Y1151963D01*
X1111379Y1151935D01*
X1111388Y1151926D01*
X1111520Y1151635D01*
X1111614Y1151334D01*
X1111680Y1151033D01*
X1111727Y1150760D01*
X1111745Y1150638D01*
X1111755Y1150516D01*
X1111764Y1150422D01*
Y1150328D01*
X1111774Y1150262D01*
Y1150206D01*
Y1150168D01*
Y1150159D01*
X1111755Y1149821D01*
X1111717Y1149492D01*
X1111670Y1149200D01*
X1111633Y1149059D01*
X1111605Y1148937D01*
X1111576Y1148824D01*
X1111539Y1148721D01*
X1111510Y1148627D01*
X1111492Y1148552D01*
X1111463Y1148495D01*
X1111454Y1148449D01*
X1111435Y1148420D01*
Y1148411D01*
X1111294Y1148129D01*
X1111135Y1147875D01*
X1110965Y1147659D01*
X1110881Y1147574D01*
X1110806Y1147490D01*
X1110730Y1147415D01*
X1110655Y1147349D01*
X1110590Y1147293D01*
X1110533Y1147255D01*
X1110496Y1147217D01*
X1110458Y1147189D01*
X1110439Y1147180D01*
X1110430Y1147170D01*
X1110298Y1147095D01*
X1110167Y1147029D01*
X1109885Y1146926D01*
X1109603Y1146851D01*
X1109330Y1146804D01*
X1109199Y1146785D01*
X1109086Y1146766D01*
X1108982Y1146757D01*
X1108898D01*
X1108823Y1146748D01*
X1108719D01*
X1108531Y1146757D01*
X1108353Y1146776D01*
X1108184Y1146795D01*
X1108024Y1146832D01*
X1107874Y1146879D01*
X1107732Y1146926D01*
X1107601Y1146973D01*
X1107479Y1147029D01*
X1107375Y1147076D01*
X1107272Y1147123D01*
X1107197Y1147170D01*
X1107122Y1147217D01*
X1107075Y1147255D01*
X1107028Y1147274D01*
X1107009Y1147293D01*
X1106999Y1147302D01*
X1106868Y1147415D01*
X1106755Y1147528D01*
X1106652Y1147659D01*
X1106548Y1147791D01*
X1106379Y1148054D01*
X1106248Y1148317D01*
X1106191Y1148439D01*
X1106144Y1148552D01*
X1106107Y1148655D01*
X1106078Y1148740D01*
X1106050Y1148815D01*
X1106031Y1148872D01*
X1106022Y1148909D01*
Y1148919D01*
X1106887Y1149135D01*
X1106924Y1148984D01*
X1106971Y1148843D01*
X1107018Y1148712D01*
X1107065Y1148589D01*
X1107122Y1148477D01*
X1107178Y1148383D01*
X1107244Y1148289D01*
X1107300Y1148204D01*
X1107347Y1148129D01*
X1107404Y1148073D01*
X1107450Y1148016D01*
X1107488Y1147969D01*
X1107526Y1147941D01*
X1107554Y1147913D01*
X1107563Y1147904D01*
X1107573Y1147894D01*
X1107667Y1147819D01*
X1107770Y1147763D01*
X1107977Y1147659D01*
X1108174Y1147584D01*
X1108372Y1147537D01*
X1108541Y1147499D01*
X1108606Y1147490D01*
X1108672D01*
X1108729Y1147481D01*
X1108794D01*
X1109011Y1147490D01*
X1109217Y1147528D01*
X1109405Y1147574D01*
X1109575Y1147631D01*
X1109706Y1147687D01*
X1109762Y1147716D01*
X1109809Y1147734D01*
X1109847Y1147753D01*
X1109875Y1147772D01*
X1109894Y1147781D01*
X1109903D01*
X1110082Y1147913D01*
X1110232Y1148054D01*
X1110364Y1148214D01*
X1110467Y1148364D01*
X1110552Y1148495D01*
X1110608Y1148608D01*
X1110627Y1148655D01*
X1110646Y1148683D01*
X1110655Y1148702D01*
Y1148712D01*
X1110730Y1148956D01*
X1110787Y1149200D01*
X1110834Y1149445D01*
X1110862Y1149670D01*
X1110871Y1149774D01*
X1110881Y1149868D01*
Y1149952D01*
X1110890Y1150018D01*
Y1150074D01*
Y1150121D01*
Y1150150D01*
Y1150159D01*
X1110881Y1150403D01*
X1110862Y1150629D01*
X1110824Y1150836D01*
X1110787Y1151024D01*
X1110759Y1151183D01*
X1110740Y1151249D01*
X1110721Y1151305D01*
X1110712Y1151352D01*
X1110702Y1151381D01*
X1110693Y1151400D01*
Y1151409D01*
X1110599Y1151625D01*
X1110496Y1151822D01*
X1110383Y1151982D01*
X1110260Y1152123D01*
X1110157Y1152236D01*
X1110073Y1152311D01*
X1110007Y1152358D01*
X1109997Y1152377D01*
X1109988D01*
X1109791Y1152499D01*
X1109575Y1152593D01*
X1109368Y1152659D01*
X1109170Y1152696D01*
X1108992Y1152725D01*
X1108917Y1152734D01*
X1108851D01*
X1108804Y1152743D01*
X1108729D01*
X1108494Y1152734D01*
X1108278Y1152696D01*
X1108099Y1152640D01*
X1107939Y1152584D01*
X1107817Y1152518D01*
X1107723Y1152471D01*
X1107667Y1152433D01*
X1107648Y1152414D01*
X1107497Y1152273D01*
X1107357Y1152114D01*
X1107244Y1151945D01*
X1107150Y1151775D01*
X1107075Y1151625D01*
X1107046Y1151550D01*
X1107028Y1151494D01*
X1107009Y1151447D01*
X1106990Y1151409D01*
X1106981Y1151390D01*
Y1151381D01*
X1106135Y1151578D01*
X1106191Y1151747D01*
X1106248Y1151898D01*
X1106323Y1152039D01*
X1106389Y1152180D01*
X1106464Y1152302D01*
X1106548Y1152414D01*
X1106624Y1152527D01*
X1106699Y1152621D01*
X1106774Y1152696D01*
X1106840Y1152772D01*
X1106906Y1152837D01*
X1106952Y1152884D01*
X1106999Y1152931D01*
X1107037Y1152960D01*
X1107056Y1152969D01*
X1107065Y1152978D01*
X1107197Y1153063D01*
X1107328Y1153148D01*
X1107460Y1153213D01*
X1107601Y1153270D01*
X1107883Y1153354D01*
X1108137Y1153411D01*
X1108259Y1153439D01*
X1108362Y1153448D01*
X1108465Y1153458D01*
X1108550Y1153467D01*
X1108616Y1153476D01*
X1108710D01*
X1109020Y1153458D01*
D02*
G37*
G36*
X1100505Y1149153D02*
Y1148420D01*
X1097677D01*
Y1146860D01*
X1096878D01*
Y1148420D01*
X1095994D01*
Y1149153D01*
X1096878D01*
Y1153364D01*
X1097526D01*
X1100505Y1149153D01*
D02*
G37*
G36*
X1251528Y1218990D02*
X1251829Y1218943D01*
X1252092Y1218886D01*
X1252214Y1218849D01*
X1252327Y1218811D01*
X1252430Y1218773D01*
X1252524Y1218736D01*
X1252599Y1218708D01*
X1252675Y1218680D01*
X1252722Y1218651D01*
X1252759Y1218633D01*
X1252787Y1218623D01*
X1252797Y1218614D01*
X1253051Y1218454D01*
X1253267Y1218266D01*
X1253455Y1218078D01*
X1253615Y1217890D01*
X1253737Y1217721D01*
X1253784Y1217646D01*
X1253821Y1217580D01*
X1253859Y1217533D01*
X1253878Y1217495D01*
X1253887Y1217467D01*
X1253896Y1217458D01*
X1254028Y1217167D01*
X1254122Y1216866D01*
X1254188Y1216565D01*
X1254235Y1216292D01*
X1254253Y1216170D01*
X1254263Y1216048D01*
X1254272Y1215954D01*
Y1215860D01*
X1254282Y1215794D01*
Y1215738D01*
Y1215700D01*
Y1215691D01*
X1254263Y1215353D01*
X1254225Y1215024D01*
X1254178Y1214732D01*
X1254141Y1214591D01*
X1254113Y1214469D01*
X1254084Y1214357D01*
X1254047Y1214253D01*
X1254019Y1214159D01*
X1254000Y1214084D01*
X1253972Y1214027D01*
X1253962Y1213981D01*
X1253943Y1213952D01*
Y1213943D01*
X1253802Y1213661D01*
X1253643Y1213407D01*
X1253474Y1213191D01*
X1253389Y1213107D01*
X1253314Y1213022D01*
X1253239Y1212947D01*
X1253163Y1212881D01*
X1253098Y1212825D01*
X1253041Y1212787D01*
X1253004Y1212749D01*
X1252966Y1212721D01*
X1252947Y1212712D01*
X1252938Y1212702D01*
X1252806Y1212627D01*
X1252675Y1212561D01*
X1252393Y1212458D01*
X1252111Y1212383D01*
X1251838Y1212336D01*
X1251707Y1212317D01*
X1251594Y1212298D01*
X1251490Y1212289D01*
X1251406D01*
X1251331Y1212280D01*
X1251227D01*
X1251039Y1212289D01*
X1250861Y1212308D01*
X1250692Y1212327D01*
X1250532Y1212364D01*
X1250381Y1212411D01*
X1250241Y1212458D01*
X1250109Y1212505D01*
X1249987Y1212561D01*
X1249883Y1212608D01*
X1249780Y1212655D01*
X1249705Y1212702D01*
X1249630Y1212749D01*
X1249583Y1212787D01*
X1249536Y1212806D01*
X1249517Y1212825D01*
X1249508Y1212834D01*
X1249376Y1212947D01*
X1249263Y1213060D01*
X1249160Y1213191D01*
X1249056Y1213323D01*
X1248887Y1213586D01*
X1248756Y1213849D01*
X1248699Y1213971D01*
X1248652Y1214084D01*
X1248615Y1214187D01*
X1248587Y1214272D01*
X1248558Y1214347D01*
X1248540Y1214404D01*
X1248530Y1214441D01*
Y1214451D01*
X1249395Y1214667D01*
X1249432Y1214516D01*
X1249479Y1214375D01*
X1249526Y1214244D01*
X1249573Y1214121D01*
X1249630Y1214009D01*
X1249686Y1213915D01*
X1249752Y1213821D01*
X1249808Y1213736D01*
X1249855Y1213661D01*
X1249912Y1213605D01*
X1249959Y1213548D01*
X1249996Y1213501D01*
X1250034Y1213473D01*
X1250062Y1213445D01*
X1250071Y1213436D01*
X1250081Y1213426D01*
X1250175Y1213351D01*
X1250278Y1213295D01*
X1250485Y1213191D01*
X1250682Y1213116D01*
X1250880Y1213069D01*
X1251049Y1213031D01*
X1251115Y1213022D01*
X1251180D01*
X1251237Y1213013D01*
X1251303D01*
X1251519Y1213022D01*
X1251725Y1213060D01*
X1251913Y1213107D01*
X1252083Y1213163D01*
X1252214Y1213219D01*
X1252271Y1213248D01*
X1252318Y1213266D01*
X1252355Y1213285D01*
X1252383Y1213304D01*
X1252402Y1213313D01*
X1252411D01*
X1252590Y1213445D01*
X1252740Y1213586D01*
X1252872Y1213746D01*
X1252975Y1213896D01*
X1253060Y1214027D01*
X1253116Y1214140D01*
X1253135Y1214187D01*
X1253154Y1214215D01*
X1253163Y1214234D01*
Y1214244D01*
X1253239Y1214488D01*
X1253295Y1214732D01*
X1253342Y1214977D01*
X1253370Y1215202D01*
X1253380Y1215306D01*
X1253389Y1215400D01*
Y1215484D01*
X1253398Y1215550D01*
Y1215606D01*
Y1215653D01*
Y1215682D01*
Y1215691D01*
X1253389Y1215935D01*
X1253370Y1216161D01*
X1253333Y1216368D01*
X1253295Y1216556D01*
X1253267Y1216715D01*
X1253248Y1216781D01*
X1253229Y1216837D01*
X1253220Y1216885D01*
X1253210Y1216913D01*
X1253201Y1216932D01*
Y1216941D01*
X1253107Y1217157D01*
X1253004Y1217354D01*
X1252891Y1217514D01*
X1252769Y1217655D01*
X1252665Y1217768D01*
X1252581Y1217843D01*
X1252515Y1217890D01*
X1252505Y1217909D01*
X1252496D01*
X1252299Y1218031D01*
X1252083Y1218125D01*
X1251876Y1218191D01*
X1251678Y1218229D01*
X1251500Y1218257D01*
X1251425Y1218266D01*
X1251359D01*
X1251312Y1218275D01*
X1251237D01*
X1251002Y1218266D01*
X1250786Y1218229D01*
X1250607Y1218172D01*
X1250447Y1218116D01*
X1250325Y1218050D01*
X1250231Y1218003D01*
X1250175Y1217965D01*
X1250156Y1217946D01*
X1250006Y1217805D01*
X1249865Y1217646D01*
X1249752Y1217477D01*
X1249658Y1217307D01*
X1249583Y1217157D01*
X1249555Y1217082D01*
X1249536Y1217026D01*
X1249517Y1216979D01*
X1249498Y1216941D01*
X1249489Y1216922D01*
Y1216913D01*
X1248643Y1217110D01*
X1248699Y1217279D01*
X1248756Y1217430D01*
X1248831Y1217571D01*
X1248897Y1217712D01*
X1248972Y1217834D01*
X1249056Y1217946D01*
X1249132Y1218059D01*
X1249207Y1218153D01*
X1249282Y1218229D01*
X1249348Y1218304D01*
X1249414Y1218369D01*
X1249461Y1218416D01*
X1249508Y1218463D01*
X1249545Y1218492D01*
X1249564Y1218501D01*
X1249573Y1218510D01*
X1249705Y1218595D01*
X1249837Y1218680D01*
X1249968Y1218745D01*
X1250109Y1218802D01*
X1250391Y1218886D01*
X1250645Y1218943D01*
X1250767Y1218971D01*
X1250870Y1218980D01*
X1250974Y1218990D01*
X1251058Y1218999D01*
X1251124Y1219008D01*
X1251218D01*
X1251528Y1218990D01*
D02*
G37*
G36*
X1248070Y1214685D02*
Y1213952D01*
X1245241D01*
Y1212392D01*
X1244442D01*
Y1213952D01*
X1243559D01*
Y1214685D01*
X1244442D01*
Y1218896D01*
X1245090D01*
X1248070Y1214685D01*
D02*
G37*
G36*
X1242685Y1218040D02*
X1239499D01*
X1239724Y1217768D01*
X1239940Y1217477D01*
X1240128Y1217195D01*
X1240307Y1216922D01*
X1240382Y1216800D01*
X1240448Y1216687D01*
X1240514Y1216584D01*
X1240561Y1216499D01*
X1240598Y1216424D01*
X1240626Y1216377D01*
X1240645Y1216339D01*
X1240655Y1216330D01*
X1240843Y1215954D01*
X1241012Y1215578D01*
X1241153Y1215221D01*
X1241209Y1215061D01*
X1241265Y1214902D01*
X1241322Y1214761D01*
X1241359Y1214629D01*
X1241397Y1214516D01*
X1241425Y1214422D01*
X1241453Y1214338D01*
X1241472Y1214281D01*
X1241482Y1214244D01*
Y1214234D01*
X1241576Y1213849D01*
X1241613Y1213661D01*
X1241641Y1213492D01*
X1241670Y1213332D01*
X1241698Y1213172D01*
X1241717Y1213041D01*
X1241735Y1212909D01*
X1241745Y1212796D01*
X1241754Y1212693D01*
X1241764Y1212599D01*
Y1212524D01*
X1241773Y1212467D01*
Y1212430D01*
Y1212402D01*
Y1212392D01*
X1240955D01*
X1240927Y1212749D01*
X1240880Y1213078D01*
X1240833Y1213379D01*
X1240805Y1213520D01*
X1240777Y1213652D01*
X1240758Y1213764D01*
X1240730Y1213868D01*
X1240711Y1213962D01*
X1240692Y1214037D01*
X1240673Y1214093D01*
X1240664Y1214140D01*
X1240655Y1214168D01*
Y1214178D01*
X1240514Y1214610D01*
X1240363Y1215014D01*
X1240288Y1215212D01*
X1240213Y1215400D01*
X1240128Y1215569D01*
X1240053Y1215738D01*
X1239987Y1215888D01*
X1239922Y1216020D01*
X1239865Y1216133D01*
X1239818Y1216236D01*
X1239771Y1216321D01*
X1239743Y1216377D01*
X1239724Y1216415D01*
X1239715Y1216424D01*
X1239602Y1216621D01*
X1239489Y1216819D01*
X1239377Y1216997D01*
X1239264Y1217167D01*
X1239160Y1217317D01*
X1239057Y1217467D01*
X1238954Y1217599D01*
X1238869Y1217712D01*
X1238784Y1217824D01*
X1238709Y1217918D01*
X1238634Y1217993D01*
X1238578Y1218059D01*
X1238540Y1218116D01*
X1238503Y1218153D01*
X1238484Y1218172D01*
X1238474Y1218182D01*
Y1218811D01*
X1242685D01*
Y1218040D01*
D02*
G37*
G36*
X819588Y1153627D02*
X819842Y1153580D01*
X820058Y1153505D01*
X820246Y1153430D01*
X820331Y1153383D01*
X820396Y1153345D01*
X820462Y1153308D01*
X820509Y1153270D01*
X820547Y1153242D01*
X820575Y1153223D01*
X820594Y1153214D01*
X820603Y1153204D01*
X820782Y1153026D01*
X820923Y1152828D01*
X821035Y1152622D01*
X821129Y1152415D01*
X821186Y1152236D01*
X821214Y1152161D01*
X821233Y1152095D01*
X821242Y1152039D01*
X821252Y1152001D01*
X821261Y1151973D01*
Y1151964D01*
X820462Y1151823D01*
X820425Y1152029D01*
X820368Y1152208D01*
X820302Y1152358D01*
X820237Y1152481D01*
X820171Y1152574D01*
X820114Y1152640D01*
X820077Y1152687D01*
X820067Y1152697D01*
X819945Y1152791D01*
X819814Y1152866D01*
X819691Y1152913D01*
X819569Y1152951D01*
X819457Y1152969D01*
X819372Y1152988D01*
X819297D01*
X819128Y1152979D01*
X818977Y1152941D01*
X818846Y1152894D01*
X818733Y1152847D01*
X818648Y1152791D01*
X818583Y1152744D01*
X818536Y1152706D01*
X818526Y1152697D01*
X818423Y1152584D01*
X818348Y1152462D01*
X818301Y1152340D01*
X818263Y1152227D01*
X818244Y1152123D01*
X818225Y1152048D01*
Y1151992D01*
Y1151982D01*
Y1151973D01*
Y1151870D01*
X818244Y1151776D01*
X818291Y1151616D01*
X818357Y1151475D01*
X818432Y1151353D01*
X818507Y1151268D01*
X818573Y1151202D01*
X818620Y1151165D01*
X818630Y1151155D01*
X818639D01*
X818799Y1151071D01*
X818949Y1151005D01*
X819109Y1150958D01*
X819250Y1150930D01*
X819372Y1150911D01*
X819475Y1150892D01*
X819597D01*
X819635Y1150902D01*
X819682D01*
X819776Y1150197D01*
X819654Y1150225D01*
X819541Y1150244D01*
X819447Y1150263D01*
X819363Y1150272D01*
X819297Y1150281D01*
X819212D01*
X819015Y1150263D01*
X818836Y1150225D01*
X818677Y1150169D01*
X818545Y1150103D01*
X818442Y1150037D01*
X818366Y1149981D01*
X818319Y1149943D01*
X818301Y1149924D01*
X818178Y1149783D01*
X818084Y1149633D01*
X818019Y1149483D01*
X817981Y1149332D01*
X817953Y1149210D01*
X817943Y1149107D01*
X817934Y1149069D01*
Y1149041D01*
Y1149022D01*
Y1149013D01*
X817953Y1148806D01*
X818000Y1148618D01*
X818056Y1148458D01*
X818131Y1148317D01*
X818207Y1148204D01*
X818263Y1148120D01*
X818310Y1148064D01*
X818329Y1148045D01*
X818479Y1147913D01*
X818639Y1147819D01*
X818799Y1147753D01*
X818949Y1147706D01*
X819081Y1147678D01*
X819184Y1147669D01*
X819222Y1147659D01*
X819278D01*
X819447Y1147669D01*
X819607Y1147706D01*
X819748Y1147753D01*
X819861Y1147810D01*
X819955Y1147857D01*
X820030Y1147904D01*
X820067Y1147941D01*
X820086Y1147951D01*
X820199Y1148082D01*
X820293Y1148233D01*
X820378Y1148392D01*
X820443Y1148562D01*
X820490Y1148703D01*
X820509Y1148768D01*
X820519Y1148825D01*
X820528Y1148872D01*
X820537Y1148909D01*
X820547Y1148928D01*
Y1148938D01*
X821346Y1148834D01*
X821327Y1148684D01*
X821299Y1148543D01*
X821214Y1148280D01*
X821111Y1148054D01*
X821054Y1147960D01*
X820998Y1147866D01*
X820941Y1147782D01*
X820885Y1147716D01*
X820838Y1147650D01*
X820791Y1147603D01*
X820763Y1147565D01*
X820735Y1147537D01*
X820716Y1147518D01*
X820706Y1147509D01*
X820594Y1147424D01*
X820481Y1147340D01*
X820368Y1147274D01*
X820246Y1147218D01*
X820011Y1147124D01*
X819786Y1147067D01*
X819682Y1147048D01*
X819588Y1147030D01*
X819504Y1147020D01*
X819428Y1147011D01*
X819372Y1147001D01*
X819287D01*
X819109Y1147011D01*
X818949Y1147030D01*
X818789Y1147058D01*
X818639Y1147095D01*
X818498Y1147142D01*
X818376Y1147189D01*
X818254Y1147246D01*
X818150Y1147302D01*
X818047Y1147349D01*
X817962Y1147406D01*
X817887Y1147453D01*
X817831Y1147500D01*
X817784Y1147537D01*
X817746Y1147565D01*
X817727Y1147584D01*
X817718Y1147594D01*
X817605Y1147706D01*
X817511Y1147829D01*
X817427Y1147951D01*
X817351Y1148073D01*
X817295Y1148186D01*
X817239Y1148308D01*
X817163Y1148533D01*
X817145Y1148637D01*
X817126Y1148731D01*
X817107Y1148815D01*
X817098Y1148891D01*
X817088Y1148947D01*
Y1148994D01*
Y1149022D01*
Y1149032D01*
X817098Y1149257D01*
X817135Y1149464D01*
X817192Y1149642D01*
X817248Y1149793D01*
X817304Y1149915D01*
X817361Y1150009D01*
X817398Y1150065D01*
X817408Y1150084D01*
X817539Y1150225D01*
X817680Y1150347D01*
X817831Y1150441D01*
X817981Y1150516D01*
X818113Y1150573D01*
X818216Y1150610D01*
X818254Y1150620D01*
X818282Y1150629D01*
X818301Y1150639D01*
X818310D01*
X818150Y1150723D01*
X818019Y1150808D01*
X817906Y1150902D01*
X817812Y1150986D01*
X817737Y1151061D01*
X817680Y1151127D01*
X817652Y1151165D01*
X817643Y1151184D01*
X817568Y1151315D01*
X817511Y1151447D01*
X817464Y1151578D01*
X817436Y1151701D01*
X817417Y1151804D01*
X817408Y1151879D01*
Y1151936D01*
Y1151954D01*
X817417Y1152114D01*
X817445Y1152274D01*
X817483Y1152415D01*
X817530Y1152537D01*
X817577Y1152640D01*
X817615Y1152725D01*
X817643Y1152772D01*
X817652Y1152791D01*
X817746Y1152932D01*
X817859Y1153054D01*
X817972Y1153157D01*
X818084Y1153251D01*
X818178Y1153317D01*
X818263Y1153373D01*
X818319Y1153402D01*
X818329Y1153411D01*
X818338D01*
X818507Y1153486D01*
X818677Y1153542D01*
X818846Y1153589D01*
X818996Y1153618D01*
X819118Y1153636D01*
X819222Y1153646D01*
X819457D01*
X819588Y1153627D01*
D02*
G37*
G36*
X830142Y1153712D02*
X830443Y1153665D01*
X830706Y1153608D01*
X830828Y1153571D01*
X830941Y1153533D01*
X831044Y1153495D01*
X831138Y1153458D01*
X831214Y1153430D01*
X831289Y1153402D01*
X831336Y1153373D01*
X831373Y1153355D01*
X831401Y1153345D01*
X831411Y1153336D01*
X831665Y1153176D01*
X831881Y1152988D01*
X832069Y1152800D01*
X832228Y1152612D01*
X832351Y1152443D01*
X832398Y1152368D01*
X832435Y1152302D01*
X832473Y1152255D01*
X832492Y1152217D01*
X832501Y1152189D01*
X832510Y1152180D01*
X832642Y1151889D01*
X832736Y1151588D01*
X832802Y1151287D01*
X832849Y1151014D01*
X832868Y1150892D01*
X832877Y1150770D01*
X832886Y1150676D01*
Y1150582D01*
X832896Y1150516D01*
Y1150460D01*
Y1150422D01*
Y1150413D01*
X832877Y1150075D01*
X832839Y1149746D01*
X832792Y1149454D01*
X832755Y1149313D01*
X832727Y1149191D01*
X832698Y1149079D01*
X832661Y1148975D01*
X832633Y1148881D01*
X832614Y1148806D01*
X832586Y1148749D01*
X832576Y1148703D01*
X832557Y1148674D01*
Y1148665D01*
X832416Y1148383D01*
X832257Y1148129D01*
X832087Y1147913D01*
X832003Y1147829D01*
X831928Y1147744D01*
X831852Y1147669D01*
X831777Y1147603D01*
X831712Y1147547D01*
X831655Y1147509D01*
X831618Y1147471D01*
X831580Y1147443D01*
X831561Y1147434D01*
X831552Y1147424D01*
X831420Y1147349D01*
X831289Y1147283D01*
X831007Y1147180D01*
X830725Y1147105D01*
X830452Y1147058D01*
X830321Y1147039D01*
X830208Y1147020D01*
X830105Y1147011D01*
X830020D01*
X829945Y1147001D01*
X829841D01*
X829653Y1147011D01*
X829475Y1147030D01*
X829306Y1147048D01*
X829146Y1147086D01*
X828996Y1147133D01*
X828855Y1147180D01*
X828723Y1147227D01*
X828601Y1147283D01*
X828497Y1147330D01*
X828394Y1147377D01*
X828319Y1147424D01*
X828244Y1147471D01*
X828197Y1147509D01*
X828150Y1147528D01*
X828131Y1147547D01*
X828121Y1147556D01*
X827990Y1147669D01*
X827877Y1147782D01*
X827774Y1147913D01*
X827670Y1148045D01*
X827501Y1148308D01*
X827370Y1148571D01*
X827313Y1148693D01*
X827266Y1148806D01*
X827229Y1148909D01*
X827200Y1148994D01*
X827172Y1149069D01*
X827153Y1149126D01*
X827144Y1149163D01*
Y1149173D01*
X828009Y1149389D01*
X828046Y1149238D01*
X828093Y1149097D01*
X828140Y1148966D01*
X828187Y1148844D01*
X828244Y1148731D01*
X828300Y1148637D01*
X828366Y1148543D01*
X828422Y1148458D01*
X828469Y1148383D01*
X828526Y1148327D01*
X828573Y1148270D01*
X828610Y1148223D01*
X828648Y1148195D01*
X828676Y1148167D01*
X828685Y1148158D01*
X828695Y1148148D01*
X828789Y1148073D01*
X828892Y1148017D01*
X829099Y1147913D01*
X829296Y1147838D01*
X829494Y1147791D01*
X829663Y1147753D01*
X829729Y1147744D01*
X829794D01*
X829851Y1147735D01*
X829917D01*
X830133Y1147744D01*
X830340Y1147782D01*
X830527Y1147829D01*
X830697Y1147885D01*
X830828Y1147941D01*
X830884Y1147970D01*
X830931Y1147988D01*
X830969Y1148007D01*
X830997Y1148026D01*
X831016Y1148035D01*
X831025D01*
X831204Y1148167D01*
X831354Y1148308D01*
X831486Y1148468D01*
X831589Y1148618D01*
X831674Y1148749D01*
X831730Y1148862D01*
X831749Y1148909D01*
X831768Y1148938D01*
X831777Y1148956D01*
Y1148966D01*
X831852Y1149210D01*
X831909Y1149454D01*
X831956Y1149699D01*
X831984Y1149924D01*
X831993Y1150028D01*
X832003Y1150122D01*
Y1150206D01*
X832012Y1150272D01*
Y1150328D01*
Y1150375D01*
Y1150404D01*
Y1150413D01*
X832003Y1150657D01*
X831984Y1150883D01*
X831946Y1151090D01*
X831909Y1151278D01*
X831881Y1151437D01*
X831862Y1151503D01*
X831843Y1151560D01*
X831834Y1151607D01*
X831824Y1151635D01*
X831815Y1151654D01*
Y1151663D01*
X831721Y1151879D01*
X831618Y1152076D01*
X831505Y1152236D01*
X831383Y1152377D01*
X831279Y1152490D01*
X831195Y1152565D01*
X831129Y1152612D01*
X831120Y1152631D01*
X831110D01*
X830913Y1152753D01*
X830697Y1152847D01*
X830490Y1152913D01*
X830293Y1152951D01*
X830114Y1152979D01*
X830039Y1152988D01*
X829973D01*
X829926Y1152997D01*
X829851D01*
X829616Y1152988D01*
X829400Y1152951D01*
X829221Y1152894D01*
X829061Y1152838D01*
X828939Y1152772D01*
X828845Y1152725D01*
X828789Y1152687D01*
X828770Y1152669D01*
X828620Y1152527D01*
X828479Y1152368D01*
X828366Y1152199D01*
X828272Y1152029D01*
X828197Y1151879D01*
X828168Y1151804D01*
X828150Y1151748D01*
X828131Y1151701D01*
X828112Y1151663D01*
X828103Y1151644D01*
Y1151635D01*
X827257Y1151832D01*
X827313Y1152001D01*
X827370Y1152152D01*
X827445Y1152293D01*
X827511Y1152434D01*
X827586Y1152556D01*
X827670Y1152669D01*
X827746Y1152781D01*
X827821Y1152875D01*
X827896Y1152951D01*
X827962Y1153026D01*
X828028Y1153091D01*
X828074Y1153138D01*
X828121Y1153185D01*
X828159Y1153214D01*
X828178Y1153223D01*
X828187Y1153232D01*
X828319Y1153317D01*
X828450Y1153402D01*
X828582Y1153467D01*
X828723Y1153524D01*
X829005Y1153608D01*
X829259Y1153665D01*
X829381Y1153693D01*
X829484Y1153702D01*
X829588Y1153712D01*
X829672Y1153721D01*
X829738Y1153730D01*
X829832D01*
X830142Y1153712D01*
D02*
G37*
G36*
X826684Y1149407D02*
Y1148674D01*
X823855D01*
Y1147114D01*
X823056D01*
Y1148674D01*
X822173D01*
Y1149407D01*
X823056D01*
Y1153618D01*
X823705D01*
X826684Y1149407D01*
D02*
G37*
%LPC*%
G36*
X1453034Y1048701D02*
X1452987D01*
X1452968D01*
X1452743Y1048682D01*
X1452545Y1048645D01*
X1452367Y1048579D01*
X1452226Y1048513D01*
X1452104Y1048447D01*
X1452019Y1048382D01*
X1451972Y1048344D01*
X1451953Y1048325D01*
X1451822Y1048175D01*
X1451728Y1048025D01*
X1451653Y1047865D01*
X1451606Y1047724D01*
X1451577Y1047592D01*
X1451568Y1047498D01*
X1451559Y1047461D01*
Y1047404D01*
X1451577Y1047207D01*
X1451624Y1047028D01*
X1451681Y1046878D01*
X1451756Y1046746D01*
X1451831Y1046643D01*
X1451888Y1046568D01*
X1451935Y1046521D01*
X1451953Y1046502D01*
X1452113Y1046380D01*
X1452282Y1046286D01*
X1452461Y1046220D01*
X1452630Y1046183D01*
X1452780Y1046154D01*
X1452846Y1046145D01*
X1452903D01*
X1452950Y1046136D01*
X1452987D01*
X1453006D01*
X1453015D01*
X1453269Y1046154D01*
X1453485Y1046192D01*
X1453673Y1046248D01*
X1453833Y1046314D01*
X1453955Y1046389D01*
X1454049Y1046446D01*
X1454105Y1046483D01*
X1454115Y1046502D01*
X1454124D01*
X1454199Y1046568D01*
X1454256Y1046643D01*
X1454359Y1046793D01*
X1454425Y1046944D01*
X1454481Y1047075D01*
X1454509Y1047197D01*
X1454519Y1047291D01*
X1454528Y1047329D01*
Y1047376D01*
X1454519Y1047508D01*
X1454500Y1047630D01*
X1454462Y1047743D01*
X1454425Y1047837D01*
X1454397Y1047921D01*
X1454359Y1047987D01*
X1454340Y1048025D01*
X1454331Y1048043D01*
X1454246Y1048156D01*
X1454162Y1048250D01*
X1454058Y1048335D01*
X1453974Y1048400D01*
X1453889Y1048457D01*
X1453824Y1048494D01*
X1453777Y1048523D01*
X1453758Y1048532D01*
X1453617Y1048588D01*
X1453476Y1048626D01*
X1453344Y1048664D01*
X1453222Y1048682D01*
X1453119Y1048692D01*
X1453034Y1048701D01*
D02*
G37*
G36*
X1103165Y1150375D02*
X1103109D01*
X1102911Y1150356D01*
X1102733Y1150309D01*
X1102582Y1150253D01*
X1102451Y1150178D01*
X1102347Y1150103D01*
X1102272Y1150046D01*
X1102225Y1149999D01*
X1102206Y1149980D01*
X1102084Y1149821D01*
X1101990Y1149651D01*
X1101925Y1149473D01*
X1101887Y1149304D01*
X1101859Y1149153D01*
X1101849Y1149088D01*
Y1149031D01*
X1101840Y1148984D01*
Y1148947D01*
Y1148928D01*
Y1148919D01*
X1101859Y1148665D01*
X1101896Y1148449D01*
X1101953Y1148261D01*
X1102019Y1148101D01*
X1102094Y1147979D01*
X1102150Y1147885D01*
X1102188Y1147828D01*
X1102206Y1147819D01*
Y1147810D01*
X1102272Y1147734D01*
X1102347Y1147678D01*
X1102498Y1147574D01*
X1102648Y1147509D01*
X1102780Y1147452D01*
X1102902Y1147424D01*
X1102996Y1147415D01*
X1103034Y1147405D01*
X1103081D01*
X1103212Y1147415D01*
X1103334Y1147434D01*
X1103447Y1147471D01*
X1103541Y1147509D01*
X1103626Y1147537D01*
X1103691Y1147574D01*
X1103729Y1147593D01*
X1103748Y1147603D01*
X1103860Y1147687D01*
X1103954Y1147772D01*
X1104039Y1147875D01*
X1104105Y1147960D01*
X1104161Y1148044D01*
X1104199Y1148110D01*
X1104227Y1148157D01*
X1104236Y1148176D01*
X1104293Y1148317D01*
X1104330Y1148458D01*
X1104368Y1148589D01*
X1104387Y1148712D01*
X1104396Y1148815D01*
X1104406Y1148900D01*
Y1148947D01*
Y1148965D01*
X1104387Y1149191D01*
X1104349Y1149388D01*
X1104283Y1149567D01*
X1104218Y1149708D01*
X1104152Y1149830D01*
X1104086Y1149915D01*
X1104048Y1149962D01*
X1104030Y1149980D01*
X1103879Y1150112D01*
X1103729Y1150206D01*
X1103569Y1150281D01*
X1103428Y1150328D01*
X1103297Y1150356D01*
X1103203Y1150366D01*
X1103165Y1150375D01*
D02*
G37*
G36*
X1097677Y1152067D02*
Y1149153D01*
X1099725D01*
X1097677Y1152067D01*
D02*
G37*
G36*
X1245241Y1217599D02*
Y1214685D01*
X1247290D01*
X1245241Y1217599D01*
D02*
G37*
G36*
X823855Y1152321D02*
Y1149407D01*
X825904D01*
X823855Y1152321D01*
D02*
G37*
%LPD*%
D10*
X1092630Y1145664D02*
X1114630D01*
X1092630Y1097664D02*
X1114630D01*
X1285903Y1215134D02*
X1443403D01*
X1285903Y1053534D02*
Y1055234D01*
Y1053534D02*
X1403053D01*
Y1043434D02*
Y1053534D01*
Y1043434D02*
X1443403D01*
Y1055234D01*
X1222378Y1189912D02*
Y1211912D01*
X1270378Y1189912D02*
Y1211912D01*
X813992Y1097664D02*
X835992D01*
X813992Y1145664D02*
X835992D01*
D12*
X968042Y205674D02*
Y675574D01*
X498041Y675674D02*
X968042D01*
X498041Y205674D02*
Y675574D01*
Y205674D02*
Y205774D01*
Y205674D02*
X968042D01*
D23*
X2286508Y1028956D02*
G03*
X2286508Y1060956I0J16000D01*
G01*
X2236508D02*
G03*
X2236508Y1028956I0J-16000D01*
G01*
X41294Y1060954D02*
G03*
X41294Y1028954I0J-16000D01*
G01*
X91294D02*
G03*
X91294Y1060954I0J16000D01*
G01*
X2286628Y67290D02*
G03*
X2286628Y99290I0J16000D01*
G01*
X2236628D02*
G03*
X2236628Y67290I0J-16000D01*
G01*
X41338Y99271D02*
G03*
X41338Y67271I0J-16000D01*
G01*
X91338D02*
G03*
X91338Y99271I0J16000D01*
G01*
X1288135Y558551D02*
G03*
X1288135Y590551I0J16000D01*
G01*
X1238135D02*
G03*
X1238135Y558551I0J-16000D01*
G01*
X1884172Y798068D02*
G03*
X1858772Y798068I-12700J0D01*
G01*
Y726440D02*
G03*
X1884172Y726440I12700J0D01*
G01*
X1790296Y912445D02*
G03*
X1772322Y894498I-8994J-8967D01*
G01*
X1831250Y835570D02*
G03*
X1849210Y853530I8980J8980D01*
G01*
X1731682Y935138D02*
G03*
X1749642Y953098I8980J8980D01*
G01*
X1690728Y1012013D02*
G03*
X1672754Y994066I-8994J-8967D01*
G01*
X1628140Y1043940D02*
G03*
X1653540Y1043940I12700J0D01*
G01*
Y1115568D02*
G03*
X1628140Y1115568I-12700J0D01*
G01*
X2236508Y1028956D02*
X2286508D01*
X2236508Y1060956D02*
X2286508D01*
X41294Y1060954D02*
X91294D01*
X41294Y1028954D02*
X91294D01*
X2236628Y67290D02*
X2286628D01*
X2236628Y99290D02*
X2286628D01*
X41338Y99271D02*
X91338D01*
X41338Y67271D02*
X91338D01*
X1238135Y558551D02*
X1288135D01*
X1238135Y590551D02*
X1288135D01*
X1858772Y726440D02*
Y798068D01*
X1884172Y726440D02*
Y798068D01*
X1790282Y912458D02*
X1849210Y853530D01*
X1772322Y894498D02*
X1831250Y835570D01*
X1672754Y994066D02*
X1731682Y935138D01*
X1690714Y1012026D02*
X1749642Y953098D01*
X1653540Y1043940D02*
Y1115568D01*
X1628140Y1043940D02*
Y1115568D01*
D24*
X-1Y1226566D02*
X2327910Y1226566D01*
D25*
X2327910Y0D01*
X-1Y1226566D02*
X0Y0D01*
X2327910D01*
M02*
